<svg xmlns="http://www.w3.org/2000/svg" viewBox="0 0 40 41" aria-hidden="true">
  <path fill="#F3BA2F" d="M39.402 25.338C36.73 36.053 25.877 42.573 15.16 39.901 4.448 37.231-2.074 26.377.6 15.664 3.269 4.948 14.123-1.573 24.836 1.098c10.716 2.672 17.237 13.525 14.565 24.24Z"/>
  <path fill="#fff" fill-rule="evenodd" d="m20.002 13.193-5.18 5.18.001-.001-3.014-3.013 8.193-8.192 8.196 8.194-3.014 3.013-5.182-5.18Zm-10.32 4.293L6.666 20.5l3.014 3.013 3.014-3.014-3.014-3.013Zm5.14 5.142 5.18 5.179 5.182-5.181 3.015 3.011-.001.002-8.196 8.194-8.193-8.192-.004-.004 3.018-3.009Zm15.502-5.14L27.31 20.5l3.014 3.014 3.013-3.014-3.013-3.013Z" clip-rule="evenodd"/>
  <path fill="#fff" d="m23.059 20.498-3.057-3.057-2.26 2.259-.26.26-.535.535-.005.004.005.005 3.055 3.055 3.058-3.057.002-.002-.003-.002"/>
</svg>