<svg xmlns="http://www.w3.org/2000/svg" viewBox="0 0 40 41" aria-hidden="true">
  <path fill="#F7931A" d="M39.402 25.338C36.73 36.053 25.877 42.573 15.16 39.901 4.448 37.231-2.074 26.377.6 15.664 3.269 4.948 14.123-1.573 24.836 1.098c10.716 2.672 17.237 13.525 14.565 24.24Z"/>
  <path fill="#fff" fill-rule="evenodd" d="M28.82 17.65c.398-2.661-1.628-4.092-4.4-5.046l.9-3.606-2.196-.546-.875 3.51c-.577-.144-1.17-.28-1.758-.414l.881-3.533-2.193-.547-.9 3.604a72.51 72.51 0 0 1-1.401-.33l.002-.01-3.027-.757-.584 2.344s1.629.374 1.595.397c.888.221 1.05.81 1.022 1.276l-1.024 4.107c.062.016.141.038.229.074l-.064-.016-.168-.042-1.436 5.754c-.108.27-.384.675-1.005.521.022.032-1.596-.398-1.596-.398l-1.09 2.512 2.857.712c.313.079.622.16.928.24l.637.164-.909 3.647 2.193.547.9-3.608c.598.162 1.18.312 1.748.454l-.896 3.59 2.195.547.908-3.64c3.743.709 6.557.423 7.742-2.962.954-2.725-.048-4.297-2.017-5.322 1.434-.33 2.515-1.274 2.803-3.222h-.001Zm-5.015 7.032c-.622 2.5-4.537 1.466-6.327.994-.162-.043-.305-.081-.428-.112l1.205-4.83c.15.037.333.078.54.124 1.852.416 5.648 1.267 5.01 3.824Zm-4.639-6.066c1.493.398 4.75 1.267 5.318-1.005.58-2.324-2.586-3.025-4.132-3.367-.174-.039-.328-.073-.453-.104l-1.093 4.382c.104.025.225.058.36.094Z" clip-rule="evenodd"/>
</svg>