<svg xmlns="http://www.w3.org/2000/svg" width="60" height="38" fill="none" viewBox="0 0 60 38">
  <rect width="60" height="38" fill="#E0E1E7" rx="7"/>
  <path fill="#262D38" d="M0 8h60v7H0z"/>
  <path fill="#508111" d="M35.54 23.5v-1.248h2.496V31h-1.38v-7.5H35.54Zm5.131 5.64a47.403 47.403 0 0 0 1.812-1.632c.448-.432.82-.88 1.116-1.344.296-.464.444-.928.444-1.392 0-.48-.116-.856-.348-1.128-.224-.272-.58-.408-1.068-.408-.472 0-.84.152-1.104.456-.256.296-.392.696-.408 1.2h-1.32c.024-.912.296-1.608.816-2.088.528-.488 1.196-.732 2.004-.732.872 0 1.552.24 2.04.72.496.48.744 1.12.744 1.92 0 .576-.148 1.132-.444 1.668a6.62 6.62 0 0 1-1.044 1.428c-.4.416-.912.9-1.536 1.452l-.54.48h3.804v1.14h-5.832v-.996l.864-.744Zm6.146-4.728c.048-.744.332-1.324.852-1.74.528-.416 1.2-.624 2.016-.624.56 0 1.044.1 1.452.3.408.2.716.472.924.816.208.344.312.732.312 1.164 0 .496-.132.92-.396 1.272s-.58.588-.948.708v.048c.472.144.84.408 1.104.792.264.376.396.86.396 1.452 0 .472-.108.892-.324 1.26-.216.368-.536.66-.96.876-.424.208-.932.312-1.524.312-.864 0-1.576-.22-2.136-.66-.552-.448-.848-1.088-.888-1.92h1.32c.032.424.196.772.492 1.044.296.264.696.396 1.2.396.488 0 .864-.132 1.128-.396.264-.272.396-.62.396-1.044 0-.56-.18-.956-.54-1.188-.352-.24-.896-.36-1.632-.36h-.312v-1.128h.324c.648-.008 1.14-.116 1.476-.324.344-.208.516-.536.516-.984 0-.384-.124-.688-.372-.912-.248-.232-.6-.348-1.056-.348-.448 0-.796.116-1.044.348a1.356 1.356 0 0 0-.444.84h-1.332Z"/>
</svg>
