<svg style="display: none;" aria-hidden="true" xmlns="http://www.w3.org/2000/svg" xmlns:xlink="http://www.w3.org/1999/xlink"><symbol fill="currentColor" viewBox="0 0 9 5" id="svg-arr-down" xmlns="http://www.w3.org/2000/svg">
  <path fill-rule="evenodd" d="M.146.146a.5.5 0 0 1 .708 0L4.5 3.793 8.146.146a.5.5 0 1 1 .708.708l-4 4a.5.5 0 0 1-.708 0l-4-4a.5.5 0 0 1 0-.708Z" clip-rule="evenodd"/>
</symbol><symbol fill="currentColor" viewBox="0 0 24 24" id="svg-arr-left" xmlns="http://www.w3.org/2000/svg">
  <path d="M18 12a2 2 0 0 0-.59-1.4l-4.29-4.3a1 1 0 1 0-1.41 1.42L15 11H5a1 1 0 0 0 0 2h10l-3.29 3.29a1 1 0 0 0 1.41 1.42l4.29-4.3A2 2 0 0 0 18 12Z"/>
</symbol><symbol fill="currentColor" viewBox="0 0 18 19" id="svg-arr-right" xmlns="http://www.w3.org/2000/svg">
  <g clip-path="url(#ca)">
    <path d="M.66 11.068 3.562 14a.75.75 0 0 0 1.23-.244.75.75 0 0 0-.165-.821l-2.67-2.685H17.25a.75.75 0 1 0 0-1.5H1.912l2.715-2.715a.75.75 0 0 0 0-1.035.75.75 0 0 0-1.065 0L.66 7.888a2.25 2.25 0 0 0 0 3.18Z"/>
  </g>
  <defs>
    <clipPath id="ca">
      <path d="M0 0h18v18H0z" transform="translate(0 .5)"/>
    </clipPath>
  </defs>
</symbol><symbol fill="none" viewBox="0 0 40 41" id="svg-bnb" xmlns="http://www.w3.org/2000/svg">
  <path fill="#F3BA2F" d="M39.402 25.338C36.73 36.053 25.877 42.573 15.16 39.901 4.448 37.231-2.074 26.377.6 15.664 3.269 4.948 14.123-1.573 24.836 1.098c10.716 2.672 17.237 13.525 14.565 24.24Z"/>
  <path fill="#fff" fill-rule="evenodd" d="m20.002 13.193-5.18 5.18.001-.001-3.014-3.013 8.193-8.192 8.196 8.194-3.014 3.013-5.182-5.18Zm-10.32 4.293L6.666 20.5l3.014 3.013 3.014-3.014-3.014-3.013Zm5.14 5.142 5.18 5.179 5.182-5.181 3.015 3.011-.001.002-8.196 8.194-8.193-8.192-.004-.004 3.018-3.009Zm15.502-5.14L27.31 20.5l3.014 3.014 3.013-3.014-3.013-3.013Z" clip-rule="evenodd"/>
  <path fill="#fff" d="m23.059 20.498-3.057-3.057-2.26 2.259-.26.26-.535.535-.005.004.005.005 3.055 3.055 3.058-3.057.002-.002-.003-.002"/>
</symbol><symbol fill="none" viewBox="0 0 40 41" id="svg-bnbu" xmlns="http://www.w3.org/2000/svg">
  <circle cx="20" cy="20.5" r="20" fill="#F0B90B"/>
  <path fill="#fff" stroke="#fff" d="m19.94 7.167 3.29 3.368-8.282 8.28-3.289-3.288 8.281-8.36Zm4.993 4.993 3.289 3.367-13.274 13.274-3.289-3.289L24.933 12.16ZM9.955 17.152l3.289 3.368-3.289 3.288-3.288-3.288 3.288-3.368Zm19.97 0 3.289 3.368L19.94 33.794l-3.289-3.29 13.274-13.352Z"/>
</symbol><symbol fill="none" viewBox="0 0 40 41" id="svg-btc" xmlns="http://www.w3.org/2000/svg">
  <path fill="#F7931A" d="M39.402 25.338C36.73 36.053 25.877 42.573 15.16 39.901 4.448 37.231-2.074 26.377.6 15.664 3.269 4.948 14.123-1.573 24.836 1.098c10.716 2.672 17.237 13.525 14.565 24.24Z"/>
  <path fill="#fff" fill-rule="evenodd" d="M28.82 17.65c.398-2.661-1.628-4.092-4.4-5.046l.9-3.606-2.196-.546-.875 3.51c-.577-.144-1.17-.28-1.758-.414l.881-3.533-2.193-.547-.9 3.604a72.51 72.51 0 0 1-1.401-.33l.002-.01-3.027-.757-.584 2.344s1.629.374 1.595.397c.888.221 1.05.81 1.022 1.276l-1.024 4.107c.062.016.141.038.229.074l-.064-.016-.168-.042-1.436 5.754c-.108.27-.384.675-1.005.521.022.032-1.596-.398-1.596-.398l-1.09 2.512 2.857.712c.313.079.622.16.928.24l.637.164-.909 3.647 2.193.547.9-3.608c.598.162 1.18.312 1.748.454l-.896 3.59 2.195.547.908-3.64c3.743.709 6.557.423 7.742-2.962.954-2.725-.048-4.297-2.017-5.322 1.434-.33 2.515-1.274 2.803-3.222h-.001Zm-5.015 7.032c-.622 2.5-4.537 1.466-6.327.994-.162-.043-.305-.081-.428-.112l1.205-4.83c.15.037.333.078.54.124 1.852.416 5.648 1.267 5.01 3.824Zm-4.639-6.066c1.493.398 4.75 1.267 5.318-1.005.58-2.324-2.586-3.025-4.132-3.367-.174-.039-.328-.073-.453-.104l-1.093 4.382c.104.025.225.058.36.094Z" clip-rule="evenodd"/>
</symbol><symbol fill="none" viewBox="0 0 60 38" id="svg-card" xmlns="http://www.w3.org/2000/svg">
  <rect width="60" height="38" fill="#E0E1E7" rx="7"/>
  <path fill="#262D38" d="M0 8h60v7H0z"/>
  <path fill="#508111" d="M35.54 23.5v-1.248h2.496V31h-1.38v-7.5H35.54Zm5.131 5.64a47.403 47.403 0 0 0 1.812-1.632c.448-.432.82-.88 1.116-1.344.296-.464.444-.928.444-1.392 0-.48-.116-.856-.348-1.128-.224-.272-.58-.408-1.068-.408-.472 0-.84.152-1.104.456-.256.296-.392.696-.408 1.2h-1.32c.024-.912.296-1.608.816-2.088.528-.488 1.196-.732 2.004-.732.872 0 1.552.24 2.04.72.496.48.744 1.12.744 1.92 0 .576-.148 1.132-.444 1.668a6.62 6.62 0 0 1-1.044 1.428c-.4.416-.912.9-1.536 1.452l-.54.48h3.804v1.14h-5.832v-.996l.864-.744Zm6.146-4.728c.048-.744.332-1.324.852-1.74.528-.416 1.2-.624 2.016-.624.56 0 1.044.1 1.452.3.408.2.716.472.924.816.208.344.312.732.312 1.164 0 .496-.132.92-.396 1.272s-.58.588-.948.708v.048c.472.144.84.408 1.104.792.264.376.396.86.396 1.452 0 .472-.108.892-.324 1.26-.216.368-.536.66-.96.876-.424.208-.932.312-1.524.312-.864 0-1.576-.22-2.136-.66-.552-.448-.848-1.088-.888-1.92h1.32c.032.424.196.772.492 1.044.296.264.696.396 1.2.396.488 0 .864-.132 1.128-.396.264-.272.396-.62.396-1.044 0-.56-.18-.956-.54-1.188-.352-.24-.896-.36-1.632-.36h-.312v-1.128h.324c.648-.008 1.14-.116 1.476-.324.344-.208.516-.536.516-.984 0-.384-.124-.688-.372-.912-.248-.232-.6-.348-1.056-.348-.448 0-.796.116-1.044.348a1.356 1.356 0 0 0-.444.84h-1.332Z"/>
</symbol><symbol fill="currentColor" viewBox="0 0 18 18" id="svg-checkmark" xmlns="http://www.w3.org/2000/svg">
  <path fill-rule="evenodd" d="M2.293 8.528a1 1 0 0 1 1.414 0l3.536 3.536 7.778-7.778A1 1 0 0 1 16.435 5.7l-9.192 9.192-4.95-4.95a1 1 0 0 1 0-1.414Z" clip-rule="evenodd"/>
</symbol><symbol fill="currentColor" viewBox="0 0 16 16" id="svg-close" xmlns="http://www.w3.org/2000/svg">
  <path d="M15.59 2.39A1.4 1.4 0 1 0 13.61.41L8 6.02 2.39.41A1.4 1.4 0 1 0 .41 2.39L6.02 8 .41 13.61a1.4 1.4 0 0 0 1.98 1.98L8 9.98l5.61 5.61a1.4 1.4 0 1 0 1.98-1.98L9.98 8l5.61-5.61Z"/>
</symbol><symbol fill="currentColor" viewBox="0 0 18 18" id="svg-copy" xmlns="http://www.w3.org/2000/svg">
  <g clip-path="url(#ja)">
    <path d="M11.25 15h-7.5A3.755 3.755 0 0 1 0 11.25v-7.5A3.755 3.755 0 0 1 3.75 0h7.5A3.754 3.754 0 0 1 15 3.75v7.5A3.754 3.754 0 0 1 11.25 15ZM3.75 1.5A2.25 2.25 0 0 0 1.5 3.75v7.5a2.25 2.25 0 0 0 2.25 2.25h7.5a2.25 2.25 0 0 0 2.25-2.25v-7.5a2.25 2.25 0 0 0-2.25-2.25h-7.5ZM18 14.25V4.5a.75.75 0 1 0-1.5 0v9.75a2.25 2.25 0 0 1-2.25 2.25H4.5a.75.75 0 1 0 0 1.5h9.75A3.754 3.754 0 0 0 18 14.25Z"/>
  </g>
  <defs>
    <clipPath id="ja">
      <path d="M0 0h18v18H0z"/>
    </clipPath>
  </defs>
</symbol><symbol fill="none" viewBox="0 0 40 41" id="svg-erc20" xmlns="http://www.w3.org/2000/svg">
  <path fill="#50AF95" d="M39.402 25.338C36.73 36.053 25.877 42.573 15.16 39.901 4.448 37.231-2.074 26.377.6 15.664 3.269 4.948 14.123-1.573 24.836 1.098c10.716 2.672 17.237 13.525 14.565 24.24Z"/>
  <path fill="#fff" fill-rule="evenodd" d="M22.534 22.767c-.142.011-.872.055-2.503.055a54.59 54.59 0 0 1-2.54-.055c-5.01-.22-8.75-1.092-8.75-2.136s3.74-1.915 8.75-2.139v3.407a37.74 37.74 0 0 0 2.563.079c1.556 0 2.335-.065 2.475-.078v-3.406c5 .223 8.731 1.095 8.731 2.137s-3.73 1.914-8.731 2.135l.005.002Zm0-4.625v-3.049h6.977v-4.649H10.514v4.65h6.976v3.047c-5.67.26-9.934 1.383-9.934 2.73 0 1.345 4.264 2.467 9.934 2.729v9.77h5.042v-9.774c5.658-.26 9.915-1.382 9.915-2.727s-4.254-2.467-9.915-2.728l.002.001Z" clip-rule="evenodd"/>
</symbol><symbol fill="none" viewBox="0 0 40 41" id="svg-eth" xmlns="http://www.w3.org/2000/svg">
  <circle cx="20" cy="20.5" r="20" fill="#EDF0F4"/>
  <path fill="#343434" d="m19.945 8.5-.159.54v15.681l.16.159 7.278-4.303L19.945 8.5Z"/>
  <path fill="#8C8C8C" d="m19.945 8.5-7.279 12.077 7.28 4.303V8.5Z"/>
  <path fill="#3C3C3B" d="m19.945 26.258-.09.11v5.585l.09.262 7.283-10.257-7.283 4.3Z"/>
  <path fill="#8C8C8C" d="M19.945 32.215v-5.957l-7.279-4.3 7.28 10.257Z"/>
  <path fill="#141414" d="m19.945 24.88 7.279-4.303-7.279-3.308v7.61Z"/>
  <path fill="#393939" d="m12.666 20.577 7.28 4.303v-7.611l-7.28 3.308Z"/>
</symbol><symbol fill="currentColor" viewBox="0 0 18 18" id="svg-info" xmlns="http://www.w3.org/2000/svg">
  <g clip-path="url(#ma)">
    <path d="M9 0a9 9 0 1 0 9 9 9.01 9.01 0 0 0-9-9Zm0 16.5A7.5 7.5 0 1 1 16.5 9 7.509 7.509 0 0 1 9 16.5Z"/>
    <path d="M9 7.5h-.75a.75.75 0 0 0 0 1.5H9v4.5a.75.75 0 1 0 1.5 0V9A1.5 1.5 0 0 0 9 7.5ZM9 6a1.125 1.125 0 1 0 0-2.25A1.125 1.125 0 0 0 9 6Z"/>
  </g>
  <defs>
    <clipPath id="ma">
      <path d="M0 0h18v18H0z"/>
    </clipPath>
  </defs>
</symbol><symbol fill="none" viewBox="0 0 40 41" id="svg-ltc" xmlns="http://www.w3.org/2000/svg">
  <circle cx="20.167" cy="20.333" r="17.833" fill="#fff"/>
  <path fill="#345D9D" fill-rule="evenodd" d="M0 20.5C0 9.454 8.954.5 20 .5h.116A19.942 19.942 0 0 1 40 20.5c0 11.046-8.954 20-20 20s-20-8.954-20-20Zm18.257 7.7 2.082-7.022 3.245-.92.678-2.325-3.197.969 3.39-11.526v-.184a.562.562 0 0 0-.58-.542h-4.31a.731.731 0 0 0-.727.533l-4.02 13.656-3.196.968-.726 2.228 3.196-.968-2.857 9.733H28.28a.722.722 0 0 0 .726-.532l.969-3.342v-.184a.562.562 0 0 0-.581-.542H18.257Z" clip-rule="evenodd"/>
</symbol><symbol fill="currentColor" viewBox="0 0 18 18" id="svg-phone" xmlns="http://www.w3.org/2000/svg">
  <path fill-rule="evenodd" d="M17.229 13.367a2.75 2.75 0 0 0-1.37-2.691l-1.245-.712a2.75 2.75 0 0 0-3.309.443l-.019.02c-.31.31-.646.342-.865.226-.454-.24-1.07-.648-1.748-1.326-.678-.678-1.085-1.294-1.326-1.748-.116-.22-.084-.554.227-.865l.019-.019a2.75 2.75 0 0 0 .443-3.309L7.324 2.14A2.75 2.75 0 0 0 4.632.771L2.755.98C1.505 1.119.375 2.164.587 3.603c.291 1.983 1.346 5.347 4.904 8.905 3.558 3.558 6.922 4.613 8.905 4.905 1.44.211 2.485-.917 2.624-2.169l.209-1.877Zm-2.113-1.389c.433.248.677.729.622 1.224l-.208 1.877c-.068.608-.504.91-.916.85-1.692-.25-4.752-1.171-8.063-4.481-3.31-3.31-4.231-6.37-4.48-8.063-.06-.411.242-.847.85-.915l1.877-.208a1.25 1.25 0 0 1 1.224.622l.711 1.246a1.25 1.25 0 0 1-.201 1.504l-.019.02c-.634.634-1.001 1.666-.491 2.628.307.58.802 1.317 1.59 2.105.789.789 1.527 1.284 2.106 1.591.962.51 1.994.143 2.629-.491l.019-.019a1.25 1.25 0 0 1 1.504-.201l1.246.712Z" clip-rule="evenodd"/>
</symbol><symbol fill="none" viewBox="0 0 18 19" id="svg-time" xmlns="http://www.w3.org/2000/svg">
  <g clip-path="url(#pa)">
    <path fill="#508111" d="M18 9.5a9 9 0 0 1-18 0 .75.75 0 1 1 1.5 0A7.5 7.5 0 1 0 9 2 .75.75 0 0 1 9 .5a9.01 9.01 0 0 1 9 9ZM7.708 8.75H6a.75.75 0 0 0 0 1.5h1.708A1.496 1.496 0 1 0 9.75 8.208V5.75a.75.75 0 0 0-1.5 0v2.458a1.5 1.5 0 0 0-.542.542ZM1.37 7.088a.75.75 0 1 0 0-1.5.75.75 0 0 0 0 1.5Zm1.796-2.683a.75.75 0 1 0 0-1.5.75.75 0 0 0 0 1.5Zm2.668-1.774a.75.75 0 1 0 0-1.5.75.75 0 0 0 0 1.5Z"/>
  </g>
  <defs>
    <clipPath id="pa">
      <path fill="#fff" d="M0 0h18v18H0z" transform="translate(0 .5)"/>
    </clipPath>
  </defs>
</symbol><symbol fill="none" viewBox="0 0 40 41" id="svg-trc20" xmlns="http://www.w3.org/2000/svg">
  <path fill="#50AF95" d="M39.402 25.338C36.73 36.053 25.877 42.573 15.16 39.901 4.448 37.231-2.074 26.377.6 15.664 3.269 4.948 14.123-1.573 24.836 1.098c10.716 2.672 17.237 13.525 14.565 24.24Z"/>
  <path fill="#fff" fill-rule="evenodd" d="M22.534 22.767c-.142.011-.872.055-2.503.055a54.59 54.59 0 0 1-2.54-.055c-5.01-.22-8.75-1.092-8.75-2.136s3.74-1.915 8.75-2.139v3.407a37.74 37.74 0 0 0 2.563.079c1.556 0 2.335-.065 2.475-.078v-3.406c5 .223 8.731 1.095 8.731 2.137s-3.73 1.914-8.731 2.135l.005.002Zm0-4.625v-3.049h6.977v-4.649H10.514v4.65h6.976v3.047c-5.67.26-9.934 1.383-9.934 2.73 0 1.345 4.264 2.467 9.934 2.729v9.77h5.042v-9.774c5.658-.26 9.915-1.382 9.915-2.727s-4.254-2.467-9.915-2.728l.002.001Z" clip-rule="evenodd"/>
</symbol><symbol fill="none" viewBox="0 0 40 41" id="svg-trx" xmlns="http://www.w3.org/2000/svg">
  <path fill="#FC070C" fill-rule="evenodd" d="M20 40.5c-11 0-20-9-20-20.1C.1 9.4 9 .4 20.1.5 31.1.6 40 9.5 40 20.7c-.1 10.9-9 19.8-20 19.8Z" clip-rule="evenodd"/>
  <path fill="#fff" fill-rule="evenodd" d="M32.412 14.51c-.926-.9-1.905-1.85-2.769-2.616l-.087-.062a1.673 1.673 0 0 0-.486-.27l-.667-.125c-4.6-.858-19.51-3.64-19.817-3.603a.612.612 0 0 0-.254.096l-.083.066a.976.976 0 0 0-.227.367L8 8.42v.359c1.012 2.819 3.642 9.113 6.07 14.926 2.053 4.914 3.961 9.483 4.627 11.315.088.272.254.787.564.814h.07c.166 0 .875-.937.875-.937s12.67-15.364 13.952-17c.166-.202.313-.42.438-.648a1.054 1.054 0 0 0-.346-.98 107.455 107.455 0 0 1-1.838-1.759Zm-8.955 3.548 5.407-4.484 3.172 2.922-8.58 1.562Zm-11.41-7.923 9.31 7.63 5.753-4.852-15.063-2.778Zm10.15 9.63 9.529-1.536-10.894 13.125 1.365-11.59Zm-1.619-.556-9.795-8.313 8.378 20.466 1.417-12.153Z" clip-rule="evenodd"/>
</symbol></svg>