<svg xmlns="http://www.w3.org/2000/svg" viewBox="0 0 40 41" aria-hidden="true">
  <circle cx="20.167" cy="20.333" r="17.833" fill="#fff"/>
  <path fill="#345D9D" fill-rule="evenodd" d="M0 20.5C0 9.454 8.954.5 20 .5h.116A19.942 19.942 0 0 1 40 20.5c0 11.046-8.954 20-20 20s-20-8.954-20-20Zm18.257 7.7 2.082-7.022 3.245-.92.678-2.325-3.197.969 3.39-11.526v-.184a.562.562 0 0 0-.58-.542h-4.31a.731.731 0 0 0-.727.533l-4.02 13.656-3.196.968-.726 2.228 3.196-.968-2.857 9.733H28.28a.722.722 0 0 0 .726-.532l.969-3.342v-.184a.562.562 0 0 0-.581-.542H18.257Z" clip-rule="evenodd"/>
</svg>