<svg width="24" height="24" viewBox="0 0 24 24" fill="none" xmlns="http://www.w3.org/2000/svg">
<path d="M12 24C18.6276 24 24 18.6276 24 12C24 5.3724 18.6276 0 12 0C5.3724 0 0 5.3724 0 12C0 18.6276 5.3724 24 12 24Z" fill="#863FF8"/>
<path d="M9.21191 4.97714C8.81378 4.74102 8.32 4.74102 7.92187 4.97714L4.74142 6.86343C4.35284 7.09389 4.11426 7.51447 4.11426 7.96901V11.7555C4.11426 12.21 4.35284 12.6306 4.74142 12.8611L7.92187 14.7474C8.31999 14.9835 8.81378 14.9835 9.21191 14.7474L15.7759 10.8543L18.5323 12.4891V15.7865L15.7759 17.4213L13.0195 15.7865V13.7103L11.3233 14.7792V16.0311C11.3233 16.4856 11.5619 16.9062 11.9504 17.1367L15.1309 19.023C15.529 19.2591 16.0228 19.2591 16.4209 19.023L19.6014 17.1367C19.99 16.9062 20.2285 16.4856 20.2285 16.0311V12.2446C20.2285 11.7901 19.99 11.3695 19.6014 11.139L16.4209 9.25272C16.0228 9.0166 15.529 9.0166 15.1309 9.25272L8.56689 13.1458L5.8105 11.511V8.21355L8.56689 6.57877L11.3233 8.21355V10.2898L13.0195 9.22093V7.96901C13.0195 7.51447 12.7809 7.09389 12.3924 6.86343L9.21191 4.97714Z" fill="white"/>
</svg>
