<svg width="24" height="24" viewBox="0 0 24 24" fill="none" xmlns="http://www.w3.org/2000/svg">
<circle cx="12" cy="12" r="12" fill="black"/>
<path d="M7.43896 14.843C7.52211 14.7598 7.63645 14.7113 7.75772 14.7113H18.7552C18.9562 14.7113 19.0567 14.9538 18.9146 15.0959L16.7421 17.2684C16.659 17.3515 16.5446 17.4 16.4234 17.4H5.42587C5.2249 17.4 5.12442 17.1575 5.26648 17.0154L7.43896 14.843Z" fill="url(#paint0_linear_1447_44)"/>
<path d="M7.43896 6.73164C7.52558 6.64848 7.63992 6.59998 7.75772 6.59998H18.7552C18.9562 6.59998 19.0567 6.84252 18.9146 6.98458L16.7421 9.15705C16.659 9.24021 16.5446 9.28871 16.4234 9.28871H5.42587C5.2249 9.28871 5.12442 9.04617 5.26648 8.90411L7.43896 6.73164Z" fill="url(#paint1_linear_1447_44)"/>
<path d="M16.7421 10.7613C16.659 10.6781 16.5446 10.6296 16.4234 10.6296H5.42587C5.2249 10.6296 5.12442 10.8722 5.26648 11.0142L7.43896 13.1867C7.52211 13.2699 7.63645 13.3184 7.75772 13.3184H18.7552C18.9562 13.3184 19.0567 13.0758 18.9146 12.9338L16.7421 10.7613Z" fill="url(#paint2_linear_1447_44)"/>
<defs>
<linearGradient id="paint0_linear_1447_44" x1="-19.6563" y1="4.55979" x2="-19.9489" y2="19.2836" gradientUnits="userSpaceOnUse">
<stop stop-color="#00FFA3"/>
<stop offset="1" stop-color="#DC1FFF"/>
</linearGradient>
<linearGradient id="paint1_linear_1447_44" x1="-22.9843" y1="2.82223" x2="-23.2769" y2="17.5461" gradientUnits="userSpaceOnUse">
<stop stop-color="#00FFA3"/>
<stop offset="1" stop-color="#DC1FFF"/>
</linearGradient>
<linearGradient id="paint2_linear_1447_44" x1="-21.3309" y1="3.68546" x2="-21.6235" y2="18.4093" gradientUnits="userSpaceOnUse">
<stop stop-color="#00FFA3"/>
<stop offset="1" stop-color="#DC1FFF"/>
</linearGradient>
</defs>
</svg>
