<svg xmlns="http://www.w3.org/2000/svg" viewBox="0 0 40 41" aria-hidden="true">
  <path fill="#FC070C" fill-rule="evenodd" d="M20 40.5c-11 0-20-9-20-20.1C.1 9.4 9 .4 20.1.5 31.1.6 40 9.5 40 20.7c-.1 10.9-9 19.8-20 19.8Z" clip-rule="evenodd"/>
  <path fill="#fff" fill-rule="evenodd" d="M32.412 14.51c-.926-.9-1.905-1.85-2.769-2.616l-.087-.062a1.673 1.673 0 0 0-.486-.27l-.667-.125c-4.6-.858-19.51-3.64-19.817-3.603a.612.612 0 0 0-.254.096l-.083.066a.976.976 0 0 0-.227.367L8 8.42v.359c1.012 2.819 3.642 9.113 6.07 14.926 2.053 4.914 3.961 9.483 4.627 11.315.088.272.254.787.564.814h.07c.166 0 .875-.937.875-.937s12.67-15.364 13.952-17c.166-.202.313-.42.438-.648a1.054 1.054 0 0 0-.346-.98 107.455 107.455 0 0 1-1.838-1.759Zm-8.955 3.548 5.407-4.484 3.172 2.922-8.58 1.562Zm-11.41-7.923 9.31 7.63 5.753-4.852-15.063-2.778Zm10.15 9.63 9.529-1.536-10.894 13.125 1.365-11.59Zm-1.619-.556-9.795-8.313 8.378 20.466 1.417-12.153Z" clip-rule="evenodd"/>
</svg>