<svg width="24" height="24" viewBox="0 0 24 24" fill="none" xmlns="http://www.w3.org/2000/svg">
<g clip-path="url(#clip0_1462_413)">
<g clip-path="url(#clip1_1462_413)">
<path d="M12 20C13.9778 20 15.9112 19.4135 17.5557 18.3147C19.2002 17.2159 20.4819 15.6541 21.2388 13.8268C21.9957 11.9996 22.1937 9.98891 21.8079 8.0491C21.422 6.10929 20.4696 4.32746 19.0711 2.92894C17.6726 1.53041 15.8907 0.578004 13.9509 0.192152C12.0111 -0.1937 10.0005 0.0043328 8.1732 0.761209C6.34593 1.51809 4.78415 2.79981 3.68533 4.4443C2.58652 6.08879 2.00003 8.02219 2.00003 10C1.99679 11.3141 2.25324 12.6159 2.75464 13.8307C3.25604 15.0454 3.99251 16.1491 4.92174 17.0783C5.85097 18.0075 6.95465 18.744 8.16937 19.2454C9.38409 19.7468 10.6859 20.0032 12 20Z" fill="#2775CA"/>
<path d="M14.7499 11.5836C14.7499 10.129 13.8754 9.6245 12.1254 9.41632C10.8745 9.24996 10.6254 8.91632 10.6254 8.33359C10.6254 7.75086 11.0418 7.3745 11.8745 7.3745C12.6254 7.3745 13.0418 7.6245 13.2499 8.24996C13.2723 8.31022 13.3126 8.36215 13.3655 8.39874C13.4183 8.43532 13.4811 8.45479 13.5454 8.4545H14.2118C14.2504 8.4555 14.2888 8.44864 14.3246 8.43432C14.3605 8.42001 14.393 8.39856 14.4203 8.37126C14.4476 8.34396 14.4691 8.31139 14.4834 8.27553C14.4977 8.23967 14.5046 8.20128 14.5036 8.16268V8.12177C14.4231 7.67017 14.1957 7.2578 13.8567 6.94874C13.5177 6.63968 13.0861 6.45124 12.629 6.41268V5.41268C12.629 5.24632 12.5036 5.12177 12.2954 5.07996H11.6699C11.5036 5.07996 11.379 5.2045 11.3372 5.41268V6.3745C10.0836 6.54541 9.29176 7.3745 9.29176 8.41632C9.29176 9.79177 10.1254 10.3336 11.8754 10.5418C13.0418 10.75 13.4209 10.9963 13.4209 11.6663C13.4209 12.3363 12.8381 12.7918 12.0463 12.7918C10.9627 12.7918 10.5918 12.3372 10.4627 11.7081C10.4508 11.6379 10.4146 11.574 10.3604 11.5276C10.3063 11.4813 10.2376 11.4554 10.1663 11.4545H9.45449C9.41593 11.4536 9.37759 11.4606 9.34179 11.4749C9.306 11.4893 9.27348 11.5108 9.24621 11.538C9.21893 11.5653 9.19747 11.5978 9.18311 11.6336C9.16875 11.6694 9.1618 11.7078 9.16267 11.7463V11.7881C9.32994 12.83 9.99631 13.58 11.3718 13.7881V14.7881C11.3718 14.9545 11.4963 15.08 11.7045 15.1218H12.3299C12.4963 15.1218 12.6218 14.9963 12.6627 14.7881V13.7881C13.9127 13.58 14.7463 12.7045 14.7463 11.58L14.7499 11.5836Z" fill="white"/>
<path d="M9.87447 15.9582C8.67558 15.5185 7.6406 14.7212 6.90945 13.6743C6.1783 12.6273 5.78622 11.3811 5.78622 10.1041C5.78622 8.82712 6.1783 7.58092 6.90945 6.53396C7.6406 5.487 8.67558 4.68976 9.87447 4.25002C9.95446 4.21543 10.0216 4.1567 10.0666 4.08205C10.1116 4.0074 10.1322 3.92055 10.1254 3.83366V3.25002C10.131 3.17347 10.1087 3.09748 10.0625 3.03613C10.0164 2.97478 9.94957 2.93224 9.87447 2.91639C9.81582 2.91027 9.75689 2.92508 9.7081 2.95821C8.1912 3.44034 6.86708 4.39268 5.92739 5.67736C4.9877 6.96205 4.4812 8.51244 4.4812 10.1041C4.4812 11.6958 4.9877 13.2462 5.92739 14.5309C6.86708 15.8156 8.1912 16.7679 9.7081 17.25C9.74275 17.2702 9.78167 17.2818 9.82167 17.284C9.86168 17.2862 9.90163 17.2788 9.93826 17.2626C9.97489 17.2464 10.0072 17.2217 10.0324 17.1906C10.0577 17.1595 10.0752 17.1228 10.0836 17.0837C10.1254 17.0418 10.1254 17 10.1254 16.9164V16.3337C10.1254 16.2082 9.99992 16.0418 9.87447 15.9582ZM14.2917 2.95821C14.257 2.93808 14.2181 2.92648 14.178 2.92434C14.1379 2.92221 14.0979 2.92961 14.0613 2.94594C14.0246 2.96226 13.9924 2.98705 13.9672 3.01826C13.942 3.04947 13.9245 3.08622 13.9163 3.12548C13.8754 3.16639 13.8754 3.20821 13.8754 3.29184V3.87457C13.8824 3.9586 13.9086 4.03991 13.9519 4.11224C13.9953 4.18457 14.0546 4.24601 14.1254 4.29184C15.3243 4.73158 16.3592 5.52881 17.0904 6.57578C17.8215 7.62274 18.2136 8.86894 18.2136 10.1459C18.2136 11.4229 17.8215 12.6691 17.0904 13.7161C16.3592 14.7631 15.3243 15.5603 14.1254 16C14.0455 16.0347 13.9784 16.0934 13.9336 16.1681C13.8887 16.2428 13.8684 16.3296 13.8754 16.4164V17C13.8697 17.0765 13.8919 17.1523 13.9379 17.2137C13.9838 17.275 14.0504 17.3176 14.1254 17.3337C14.184 17.3398 14.243 17.325 14.2917 17.2918C15.8081 16.803 17.1303 15.8459 18.0682 14.5581C19.0061 13.2703 19.5114 11.7182 19.5114 10.125C19.5114 8.53187 19.0061 6.97977 18.0682 5.69196C17.1303 4.40415 15.8081 3.44701 14.2917 2.95821Z" fill="white"/>
</g>
<rect x="12" y="13" width="12" height="12" rx="6" fill="white"/>
<path d="M18 24C20.7615 24 23 21.7615 23 19C23 16.2385 20.7615 14 18 14C15.2385 14 13 16.2385 13 19C13 21.7615 15.2385 24 18 24Z" fill="#863FF8"/>
<path d="M16.8384 16.0738C16.6725 15.9754 16.4667 15.9754 16.3009 16.0738L14.9757 16.8597C14.8138 16.9558 14.7144 17.131 14.7144 17.3204V18.8981C14.7144 19.0875 14.8138 19.2627 14.9757 19.3588L16.3009 20.1447C16.4667 20.2431 16.6725 20.2431 16.8384 20.1447L19.5734 18.5226L20.7219 19.2038V20.5777L19.5734 21.2589L18.4249 20.5777V19.7126L17.7181 20.158V20.6796C17.7181 20.869 17.8175 21.0442 17.9794 21.1403L19.3046 21.9262C19.4705 22.0246 19.6762 22.0246 19.8421 21.9262L21.1673 21.1403C21.3292 21.0442 21.4286 20.869 21.4286 20.6796V19.1019C21.4286 18.9125 21.3292 18.7373 21.1673 18.6412L19.8421 17.8553C19.6763 17.7569 19.4705 17.7569 19.3046 17.8553L16.5696 19.4774L15.4211 18.7962V17.4223L16.5696 16.7411L17.7181 17.4223V18.2874L18.4249 17.842V17.3204C18.4249 17.131 18.3255 16.9558 18.1636 16.8597L16.8384 16.0738Z" fill="white"/>
</g>
<defs>
<clipPath id="clip0_1462_413">
<rect width="24" height="24" fill="white"/>
</clipPath>
<clipPath id="clip1_1462_413">
<rect x="2" width="20" height="20" rx="10" fill="white"/>
</clipPath>
</defs>
</svg>
