<svg width="24" height="24" viewBox="0 0 24 24" fill="none" xmlns="http://www.w3.org/2000/svg">
<g clip-path="url(#clip0_1403_390)">
<path d="M12.0003 23.9999C14.3737 23.9999 16.6937 23.2961 18.6671 21.9775C20.6405 20.6589 22.1786 18.7848 23.0868 16.5921C23.9951 14.3994 24.2327 11.9866 23.7697 9.6588C23.3067 7.33103 22.1638 5.19283 20.4856 3.5146C18.8073 1.83637 16.6691 0.693483 14.3414 0.23046C12.0136 -0.232563 9.60079 0.00507729 7.40808 0.913329C5.21537 1.82158 3.34122 3.35965 2.02265 5.33304C0.704068 7.30643 0.000280471 9.62651 0.000280471 11.9999C-0.00360455 13.5768 0.304133 15.139 0.905813 16.5967C1.50749 18.0543 2.39126 19.3787 3.50634 20.4938C4.62141 21.6089 5.94583 22.4927 7.40349 23.0944C8.86115 23.696 10.4233 24.0038 12.0003 23.9999Z" fill="#2775CA"/>
<path d="M15.3 13.9003C15.3 12.1549 14.2506 11.5494 12.1506 11.2996C10.6495 11.0999 10.3506 10.6996 10.3506 10.0003C10.3506 9.30104 10.8502 8.8494 11.8495 8.8494C12.7506 8.8494 13.2502 9.1494 13.5 9.89995C13.5269 9.97226 13.5753 10.0346 13.6387 10.0785C13.7021 10.1224 13.7774 10.1457 13.8546 10.1454H14.6542C14.7005 10.1466 14.7466 10.1384 14.7896 10.1212C14.8327 10.104 14.8717 10.0783 14.9045 10.0455C14.9373 10.0127 14.963 9.97366 14.9802 9.93063C14.9974 9.88761 15.0056 9.84153 15.0044 9.79522V9.74613C14.9078 9.20421 14.6349 8.70936 14.2281 8.33849C13.8213 7.96762 13.3035 7.74148 12.7549 7.69522V6.49522C12.7549 6.29558 12.6044 6.14613 12.3546 6.09595H11.604C11.4044 6.09595 11.2549 6.2454 11.2048 6.49522V7.6494C9.70039 7.85449 8.75021 8.8494 8.75021 10.0996C8.75021 11.7501 9.75057 12.4003 11.8506 12.6501C13.2502 12.8999 13.7051 13.1956 13.7051 13.9996C13.7051 14.8036 13.0058 15.3501 12.0557 15.3501C10.7553 15.3501 10.3102 14.8047 10.1553 14.0498C10.141 13.9654 10.0976 13.8888 10.0326 13.8332C9.96762 13.7776 9.88519 13.7465 9.79967 13.7454H8.94548C8.89921 13.7444 8.85321 13.7527 8.81025 13.7699C8.76729 13.7872 8.72827 13.8129 8.69554 13.8456C8.66282 13.8784 8.63706 13.9174 8.61983 13.9604C8.6026 14.0033 8.59426 14.0493 8.5953 14.0956V14.1458C8.79603 15.3959 9.59567 16.2959 11.2462 16.5458V17.7458C11.2462 17.9454 11.3957 18.0959 11.6455 18.1461H12.396C12.5957 18.1461 12.7462 17.9956 12.7953 17.7458V16.5458C14.2953 16.2959 15.2957 15.2454 15.2957 13.8959L15.3 13.9003Z" fill="white"/>
<path d="M9.44946 19.1497C8.01079 18.622 6.76882 17.6654 5.89144 16.409C5.01406 15.1527 4.54356 13.6572 4.54356 12.1248C4.54356 10.5924 5.01406 9.09698 5.89144 7.84063C6.76882 6.58427 8.01079 5.62759 9.44946 5.09991C9.54545 5.05839 9.62608 4.98791 9.68006 4.89833C9.73404 4.80875 9.75869 4.70454 9.75055 4.60027V3.89991C9.75728 3.80804 9.73049 3.71685 9.67512 3.64323C9.61976 3.56961 9.53959 3.51856 9.44946 3.49954C9.37908 3.4922 9.30837 3.50998 9.24982 3.54973C7.42954 4.12829 5.8406 5.27109 4.71297 6.81271C3.58534 8.35434 2.97754 10.2148 2.97754 12.1248C2.97754 14.0348 3.58534 15.8953 4.71297 17.4369C5.8406 18.9785 7.42954 20.1213 9.24982 20.6999C9.29139 20.7241 9.3381 20.738 9.3861 20.7406C9.43411 20.7433 9.48205 20.7345 9.52601 20.715C9.56997 20.6955 9.60868 20.6659 9.63899 20.6286C9.6693 20.5913 9.69033 20.5473 9.70037 20.5003C9.75055 20.4501 9.75055 20.3999 9.75055 20.2995V19.6003C9.75055 19.4497 9.6 19.2501 9.44946 19.1497ZM14.7502 3.54973C14.7085 3.52558 14.6618 3.51165 14.6137 3.50909C14.5656 3.50653 14.5176 3.51541 14.4736 3.535C14.4297 3.55459 14.391 3.58434 14.3607 3.62179C14.3305 3.65924 14.3095 3.70334 14.2996 3.75045C14.2505 3.79954 14.2505 3.84973 14.2505 3.95009V4.64936C14.259 4.7502 14.2904 4.84776 14.3424 4.93457C14.3944 5.02137 14.4656 5.0951 14.5505 5.15009C15.9892 5.67778 17.2312 6.63446 18.1086 7.89081C18.986 9.14716 19.4564 10.6426 19.4564 12.175C19.4564 13.7074 18.986 15.2028 18.1086 16.4592C17.2312 17.7155 15.9892 18.6722 14.5505 19.1999C14.4547 19.2415 14.3742 19.312 14.3204 19.4016C14.2666 19.4912 14.2422 19.5954 14.2505 19.6995V20.3999C14.2438 20.4916 14.2704 20.5827 14.3256 20.6563C14.3807 20.7299 14.4606 20.781 14.5505 20.8003C14.6209 20.8076 14.6916 20.7898 14.7502 20.7501C16.5698 20.1635 18.1564 19.015 19.2819 17.4696C20.4074 15.9242 21.0138 14.0617 21.0138 12.1499C21.0138 10.2381 20.4074 8.3756 19.2819 6.83023C18.1564 5.28486 16.5698 4.13629 14.7502 3.54973Z" fill="white"/>
</g>
<defs>
<clipPath id="clip0_1403_390">
<rect width="24" height="24" rx="12" fill="white"/>
</clipPath>
</defs>
</svg>
