<svg width="24" height="24" viewBox="0 0 24 24" fill="none" xmlns="http://www.w3.org/2000/svg">
<g clip-path="url(#clip0_1462_395)">
<g clip-path="url(#clip1_1462_395)">
<path d="M12 20C13.9778 20 15.9112 19.4135 17.5557 18.3147C19.2002 17.2159 20.4819 15.6541 21.2388 13.8268C21.9957 11.9996 22.1937 9.98891 21.8079 8.0491C21.422 6.10929 20.4696 4.32746 19.0711 2.92894C17.6726 1.53041 15.8907 0.578004 13.9509 0.192152C12.0111 -0.1937 10.0005 0.0043328 8.1732 0.761209C6.34593 1.51809 4.78415 2.79981 3.68533 4.4443C2.58652 6.08879 2.00003 8.02219 2.00003 10C1.99679 11.3141 2.25324 12.6159 2.75464 13.8307C3.25604 15.0454 3.99251 16.1491 4.92174 17.0783C5.85097 18.0075 6.95465 18.744 8.16937 19.2454C9.38409 19.7468 10.6859 20.0032 12 20Z" fill="#2775CA"/>
<path d="M14.7499 11.5836C14.7499 10.129 13.8754 9.6245 12.1254 9.41632C10.8745 9.24996 10.6254 8.91632 10.6254 8.33359C10.6254 7.75086 11.0418 7.3745 11.8745 7.3745C12.6254 7.3745 13.0418 7.6245 13.2499 8.24996C13.2723 8.31022 13.3126 8.36215 13.3655 8.39874C13.4183 8.43532 13.4811 8.45479 13.5454 8.4545H14.2118C14.2504 8.4555 14.2888 8.44864 14.3246 8.43432C14.3605 8.42001 14.393 8.39856 14.4203 8.37126C14.4476 8.34396 14.4691 8.31139 14.4834 8.27553C14.4977 8.23967 14.5046 8.20128 14.5036 8.16268V8.12177C14.4231 7.67017 14.1957 7.2578 13.8567 6.94874C13.5177 6.63968 13.0861 6.45124 12.629 6.41268V5.41268C12.629 5.24632 12.5036 5.12177 12.2954 5.07996H11.6699C11.5036 5.07996 11.379 5.2045 11.3372 5.41268V6.3745C10.0836 6.54541 9.29176 7.3745 9.29176 8.41632C9.29176 9.79177 10.1254 10.3336 11.8754 10.5418C13.0418 10.75 13.4209 10.9963 13.4209 11.6663C13.4209 12.3363 12.8381 12.7918 12.0463 12.7918C10.9627 12.7918 10.5918 12.3372 10.4627 11.7081C10.4508 11.6379 10.4146 11.574 10.3604 11.5276C10.3063 11.4813 10.2376 11.4554 10.1663 11.4545H9.45449C9.41593 11.4536 9.37759 11.4606 9.34179 11.4749C9.306 11.4893 9.27348 11.5108 9.24621 11.538C9.21893 11.5653 9.19747 11.5978 9.18311 11.6336C9.16875 11.6694 9.1618 11.7078 9.16267 11.7463V11.7881C9.32994 12.83 9.99631 13.58 11.3718 13.7881V14.7881C11.3718 14.9545 11.4963 15.08 11.7045 15.1218H12.3299C12.4963 15.1218 12.6218 14.9963 12.6627 14.7881V13.7881C13.9127 13.58 14.7463 12.7045 14.7463 11.58L14.7499 11.5836Z" fill="white"/>
<path d="M9.87447 15.9581C8.67558 15.5184 7.6406 14.7212 6.90945 13.6742C6.1783 12.6273 5.78622 11.381 5.78622 10.1041C5.78622 8.82706 6.1783 7.58086 6.90945 6.5339C7.6406 5.48694 8.67558 4.6897 9.87447 4.24996C9.95446 4.21536 10.0216 4.15664 10.0666 4.08199C10.1116 4.00733 10.1322 3.92049 10.1254 3.8336V3.24996C10.131 3.17341 10.1087 3.09741 10.0625 3.03607C10.0164 2.97472 9.94957 2.93218 9.87447 2.91633C9.81582 2.91021 9.75689 2.92502 9.7081 2.95815C8.1912 3.44028 6.86708 4.39262 5.92739 5.6773C4.9877 6.96199 4.4812 8.51238 4.4812 10.1041C4.4812 11.6957 4.9877 13.2461 5.92739 14.5308C6.86708 15.8155 8.1912 16.7678 9.7081 17.25C9.74275 17.2701 9.78167 17.2817 9.82167 17.2839C9.86168 17.2861 9.90163 17.2788 9.93826 17.2625C9.97489 17.2463 10.0072 17.2216 10.0324 17.1905C10.0577 17.1594 10.0752 17.1228 10.0836 17.0836C10.1254 17.0418 10.1254 17 10.1254 16.9163V16.3336C10.1254 16.2081 9.99992 16.0418 9.87447 15.9581ZM14.2917 2.95815C14.257 2.93802 14.2181 2.92641 14.178 2.92428C14.1379 2.92215 14.0979 2.92955 14.0613 2.94588C14.0246 2.9622 13.9924 2.98699 13.9672 3.0182C13.942 3.04941 13.9245 3.08616 13.9163 3.12542C13.8754 3.16633 13.8754 3.20815 13.8754 3.29178V3.87451C13.8824 3.95854 13.9086 4.03984 13.9519 4.11218C13.9953 4.18451 14.0546 4.24595 14.1254 4.29178C15.3243 4.73152 16.3592 5.52875 17.0904 6.57571C17.8215 7.62268 18.2136 8.86888 18.2136 10.1459C18.2136 11.4229 17.8215 12.6691 17.0904 13.716C16.3592 14.763 15.3243 15.5602 14.1254 16C14.0455 16.0346 13.9784 16.0934 13.9336 16.168C13.8887 16.2427 13.8684 16.3295 13.8754 16.4163V17C13.8697 17.0764 13.8919 17.1523 13.9379 17.2136C13.9838 17.2749 14.0504 17.3176 14.1254 17.3336C14.184 17.3397 14.243 17.3249 14.2917 17.2918C15.8081 16.803 17.1303 15.8458 18.0682 14.558C19.0061 13.2702 19.5114 11.7181 19.5114 10.125C19.5114 8.53181 19.0061 6.9797 18.0682 5.6919C17.1303 4.40409 15.8081 3.44695 14.2917 2.95815Z" fill="white"/>
</g>
<rect x="12" y="13" width="12" height="12" rx="6" fill="white"/>
<g clip-path="url(#clip2_1462_395)">
<path d="M18 24C20.7614 24 23 21.7614 23 19C23 16.2386 20.7614 14 18 14C15.2386 14 13 16.2386 13 19C13 21.7614 15.2386 24 18 24Z" fill="#627EEA"/>
<path d="M18.1555 15.25V18.0219L20.4983 19.0687L18.1555 15.25Z" fill="white" fill-opacity="0.602"/>
<path d="M18.1556 15.25L15.8125 19.0687L18.1556 18.0219V15.25Z" fill="white"/>
<path d="M18.1555 20.8651V22.7485L20.4999 19.5051L18.1555 20.8651Z" fill="white" fill-opacity="0.602"/>
<path d="M18.1556 22.7485V20.8648L15.8125 19.5051L18.1556 22.7485Z" fill="white"/>
<path d="M18.1555 20.4291L20.4983 19.0688L18.1555 18.0225V20.4291Z" fill="white" fill-opacity="0.2"/>
<path d="M15.8125 19.0688L18.1556 20.4291V18.0225L15.8125 19.0688Z" fill="white" fill-opacity="0.602"/>
</g>
</g>
<defs>
<clipPath id="clip0_1462_395">
<rect width="24" height="24" fill="white"/>
</clipPath>
<clipPath id="clip1_1462_395">
<rect x="2" width="20" height="20" rx="10" fill="white"/>
</clipPath>
<clipPath id="clip2_1462_395">
<rect x="13" y="14" width="10" height="10" rx="5" fill="white"/>
</clipPath>
</defs>
</svg>
