<svg width="24" height="24" viewBox="0 0 24 24" fill="none" xmlns="http://www.w3.org/2000/svg">
<g clip-path="url(#clip0_1460_343)">
<g clip-path="url(#clip1_1460_343)">
<path d="M12 20C13.9778 20 15.9112 19.4135 17.5557 18.3147C19.2002 17.2159 20.4819 15.6541 21.2388 13.8268C21.9957 11.9996 22.1937 9.98891 21.8079 8.0491C21.422 6.10929 20.4696 4.32746 19.0711 2.92894C17.6726 1.53041 15.8907 0.578004 13.9509 0.192152C12.0111 -0.1937 10.0005 0.0043328 8.1732 0.761209C6.34593 1.51809 4.78415 2.79981 3.68533 4.4443C2.58652 6.08879 2.00003 8.02219 2.00003 10C1.99679 11.3141 2.25324 12.6159 2.75464 13.8307C3.25604 15.0454 3.99251 16.1491 4.92174 17.0783C5.85097 18.0075 6.95465 18.744 8.16937 19.2454C9.38409 19.7468 10.6859 20.0032 12 20Z" fill="#2775CA"/>
<path d="M14.7499 11.5836C14.7499 10.1291 13.8754 9.62453 12.1254 9.41635C10.8745 9.24999 10.6254 8.91635 10.6254 8.33362C10.6254 7.7509 11.0418 7.37453 11.8745 7.37453C12.6254 7.37453 13.0418 7.62453 13.2499 8.24999C13.2723 8.31025 13.3126 8.36218 13.3655 8.39877C13.4183 8.43535 13.4811 8.45482 13.5454 8.45453H14.2118C14.2504 8.45553 14.2888 8.44867 14.3246 8.43436C14.3605 8.42004 14.393 8.39859 14.4203 8.37129C14.4476 8.34399 14.4691 8.31142 14.4834 8.27556C14.4977 8.2397 14.5046 8.20131 14.5036 8.16271V8.1218C14.4231 7.6702 14.1957 7.25783 13.8567 6.94877C13.5177 6.63971 13.0861 6.45127 12.629 6.41271V5.41271C12.629 5.24635 12.5036 5.1218 12.2954 5.07999H11.6699C11.5036 5.07999 11.379 5.20453 11.3372 5.41271V6.37453C10.0836 6.54544 9.29176 7.37453 9.29176 8.41635C9.29176 9.7918 10.1254 10.3336 11.8754 10.5418C13.0418 10.75 13.4209 10.9963 13.4209 11.6663C13.4209 12.3363 12.8381 12.7918 12.0463 12.7918C10.9627 12.7918 10.5918 12.3373 10.4627 11.7082C10.4508 11.6379 10.4146 11.574 10.3604 11.5277C10.3063 11.4813 10.2376 11.4554 10.1663 11.4545H9.45449C9.41593 11.4537 9.37759 11.4606 9.34179 11.475C9.306 11.4893 9.27348 11.5108 9.24621 11.5381C9.21893 11.5653 9.19747 11.5979 9.18311 11.6337C9.16875 11.6695 9.1618 11.7078 9.16267 11.7463V11.7882C9.32994 12.83 9.99631 13.58 11.3718 13.7882V14.7882C11.3718 14.9545 11.4963 15.08 11.7045 15.1218H12.3299C12.4963 15.1218 12.6218 14.9963 12.6627 14.7882V13.7882C13.9127 13.58 14.7463 12.7045 14.7463 11.58L14.7499 11.5836Z" fill="white"/>
<path d="M9.87447 15.9581C8.67558 15.5184 7.6406 14.7212 6.90945 13.6742C6.1783 12.6273 5.78622 11.381 5.78622 10.1041C5.78622 8.82706 6.1783 7.58086 6.90945 6.5339C7.6406 5.48694 8.67558 4.6897 9.87447 4.24996C9.95446 4.21536 10.0216 4.15664 10.0666 4.08199C10.1116 4.00733 10.1322 3.92049 10.1254 3.8336V3.24996C10.131 3.17341 10.1087 3.09741 10.0625 3.03607C10.0164 2.97472 9.94957 2.93218 9.87447 2.91633C9.81582 2.91021 9.75689 2.92502 9.7081 2.95815C8.1912 3.44028 6.86708 4.39262 5.92739 5.6773C4.9877 6.96199 4.4812 8.51238 4.4812 10.1041C4.4812 11.6957 4.9877 13.2461 5.92739 14.5308C6.86708 15.8155 8.1912 16.7678 9.7081 17.25C9.74275 17.2701 9.78167 17.2817 9.82167 17.2839C9.86168 17.2861 9.90163 17.2788 9.93826 17.2625C9.97489 17.2463 10.0072 17.2216 10.0324 17.1905C10.0577 17.1594 10.0752 17.1228 10.0836 17.0836C10.1254 17.0418 10.1254 17 10.1254 16.9163V16.3336C10.1254 16.2081 9.99992 16.0418 9.87447 15.9581ZM14.2917 2.95815C14.257 2.93802 14.2181 2.92641 14.178 2.92428C14.1379 2.92215 14.0979 2.92955 14.0613 2.94588C14.0246 2.9622 13.9924 2.98699 13.9672 3.0182C13.942 3.04941 13.9245 3.08616 13.9163 3.12542C13.8754 3.16633 13.8754 3.20815 13.8754 3.29178V3.87451C13.8824 3.95854 13.9086 4.03984 13.9519 4.11218C13.9953 4.18451 14.0546 4.24595 14.1254 4.29178C15.3243 4.73152 16.3592 5.52875 17.0904 6.57571C17.8215 7.62268 18.2136 8.86888 18.2136 10.1459C18.2136 11.4229 17.8215 12.6691 17.0904 13.716C16.3592 14.763 15.3243 15.5602 14.1254 16C14.0455 16.0346 13.9784 16.0934 13.9336 16.168C13.8887 16.2427 13.8684 16.3295 13.8754 16.4163V17C13.8697 17.0764 13.8919 17.1523 13.9379 17.2136C13.9838 17.2749 14.0504 17.3176 14.1254 17.3336C14.184 17.3397 14.243 17.3249 14.2917 17.2918C15.8081 16.803 17.1303 15.8458 18.0682 14.558C19.0061 13.2702 19.5114 11.7181 19.5114 10.125C19.5114 8.53181 19.0061 6.9797 18.0682 5.6919C17.1303 4.40409 15.8081 3.44695 14.2917 2.95815Z" fill="white"/>
</g>
<rect x="12" y="13" width="12" height="12" rx="6" fill="white"/>
<path d="M13.9041 17.04V20.96C13.9041 21.212 14.0361 21.44 14.2561 21.568L17.6521 23.528C17.8681 23.652 18.1361 23.652 18.3521 23.528L21.7481 21.568C21.9641 21.444 22.1001 21.212 22.1001 20.96V17.04C22.1001 16.788 21.9681 16.56 21.7481 16.432L18.3521 14.472C18.1361 14.348 17.8681 14.348 17.6521 14.472L14.2561 16.432C14.0401 16.556 13.9081 16.788 13.9081 17.04H13.9041Z" fill="#213147"/>
<path d="M18.7398 19.76L18.2558 21.088C18.2438 21.124 18.2438 21.164 18.2558 21.204L19.0878 23.488L20.0518 22.932L18.8958 19.76C18.8678 19.688 18.7678 19.688 18.7398 19.76Z" fill="#12AAFF"/>
<path d="M19.7117 17.528C19.6837 17.456 19.5837 17.456 19.5557 17.528L19.0717 18.856C19.0597 18.892 19.0597 18.932 19.0717 18.972L20.4357 22.712L21.3997 22.156L19.7117 17.532V17.528Z" fill="#12AAFF"/>
<path d="M18.0001 14.62C18.0241 14.62 18.0481 14.628 18.0681 14.64L21.7401 16.76C21.7841 16.784 21.8081 16.832 21.8081 16.88V21.12C21.8081 21.168 21.7801 21.216 21.7401 21.24L18.0681 23.36C18.0481 23.372 18.0241 23.38 18.0001 23.38C17.9761 23.38 17.9521 23.372 17.9321 23.36L14.2601 21.24C14.2161 21.216 14.1921 21.168 14.1921 21.12V16.876C14.1921 16.828 14.2201 16.78 14.2601 16.756L17.9321 14.636C17.9521 14.624 17.9761 14.616 18.0001 14.616V14.62ZM18.0001 14C17.8681 14 17.7401 14.032 17.6201 14.1L13.9481 16.22C13.7121 16.356 13.5681 16.604 13.5681 16.876V21.116C13.5681 21.388 13.7121 21.636 13.9481 21.772L17.6201 23.892C17.7361 23.96 17.8681 23.992 18.0001 23.992C18.1321 23.992 18.2601 23.96 18.3801 23.892L22.0521 21.772C22.2881 21.636 22.4321 21.388 22.4321 21.116V16.876C22.4321 16.604 22.2881 16.356 22.0521 16.22L18.3761 14.1C18.2601 14.032 18.1281 14 17.9961 14H18.0001Z" fill="#9DCCED"/>
<path d="M15.5681 22.716L15.9081 21.788L16.5881 22.352L15.9521 22.936L15.5681 22.716Z" fill="#213147"/>
<path d="M17.688 16.576H16.756C16.688 16.576 16.624 16.62 16.6 16.684L14.604 22.156L15.568 22.712L17.768 16.684C17.788 16.628 17.748 16.572 17.692 16.572L17.688 16.576Z" fill="white"/>
<path d="M19.3199 16.576H18.3879C18.3199 16.576 18.2559 16.62 18.2319 16.684L15.9519 22.932L16.9159 23.488L19.3959 16.684C19.4159 16.628 19.3759 16.572 19.3199 16.572V16.576Z" fill="white"/>
</g>
<defs>
<clipPath id="clip0_1460_343">
<rect width="24" height="24" fill="white"/>
</clipPath>
<clipPath id="clip1_1460_343">
<rect x="2" width="20" height="20" rx="10" fill="white"/>
</clipPath>
</defs>
</svg>
