<svg width="24" height="24" viewBox="0 0 24 24" fill="none" xmlns="http://www.w3.org/2000/svg">
<g clip-path="url(#clip0_1460_237)">
<path fill-rule="evenodd" clip-rule="evenodd" d="M5.22692 0H19.0507C19.3805 0 19.6852 0.178033 19.8497 0.466861L23.8772 7.53827C24.086 7.905 24.024 8.36785 23.726 8.66523L12.6404 19.7311C12.2813 20.0896 11.7037 20.0896 11.3446 19.7311L0.273949 8.68018C-0.0308811 8.37589 -0.0879624 7.89955 0.136195 7.53053L4.4412 0.444173C4.60886 0.168193 4.90638 0 5.22692 0ZM17.2658 3.15714V5.14129H13.3279V6.51694C16.0936 6.66396 18.1686 7.26773 18.184 7.99143L18.1839 9.50015C18.1685 10.2238 16.0936 10.8276 13.3279 10.9746V14.3507H10.7132V10.9746C7.94748 10.8276 5.8725 10.2238 5.85714 9.50015L5.85719 7.99143C5.8726 7.26773 7.94748 6.66396 10.7132 6.51694V5.14129H6.77532V3.15714H17.2658ZM12.0206 9.93816C14.972 9.93816 17.4389 9.42762 18.0427 8.74581C17.5307 8.16764 15.6789 7.71259 13.3279 7.58761V9.02795C12.9066 9.05035 12.4692 9.06215 12.0206 9.06215C11.5719 9.06215 11.1346 9.05035 10.7132 9.02795V7.58761C8.36222 7.71259 6.5104 8.16764 5.99845 8.74581C6.60216 9.42762 9.06909 9.93816 12.0206 9.93816Z" fill="#50AF95"/>
<rect x="12" y="13" width="12" height="12" rx="6" fill="white"/>
<g clip-path="url(#clip1_1460_237)">
<path d="M18 24C20.7614 24 23 21.7614 23 19C23 16.2386 20.7614 14 18 14C15.2386 14 13 16.2386 13 19C13 21.7614 15.2386 24 18 24Z" fill="#627EEA"/>
<path d="M18.1555 15.25V18.0219L20.4983 19.0687L18.1555 15.25Z" fill="white" fill-opacity="0.602"/>
<path d="M18.1556 15.25L15.8125 19.0687L18.1556 18.0219V15.25Z" fill="white"/>
<path d="M18.1555 20.8651V22.7485L20.4999 19.5051L18.1555 20.8651Z" fill="white" fill-opacity="0.602"/>
<path d="M18.1556 22.7485V20.8648L15.8125 19.5051L18.1556 22.7485Z" fill="white"/>
<path d="M18.1555 20.4291L20.4983 19.0688L18.1555 18.0225V20.4291Z" fill="white" fill-opacity="0.2"/>
<path d="M15.8125 19.0688L18.1556 20.4291V18.0225L15.8125 19.0688Z" fill="white" fill-opacity="0.602"/>
</g>
</g>
<defs>
<clipPath id="clip0_1460_237">
<rect width="24" height="24" fill="white"/>
</clipPath>
<clipPath id="clip1_1460_237">
<rect x="13" y="14" width="10" height="10" rx="5" fill="white"/>
</clipPath>
</defs>
</svg>
