<svg width="24" height="24" viewBox="0 0 24 24" fill="none" xmlns="http://www.w3.org/2000/svg">
<g clip-path="url(#clip0_1460_256)">
<path fill-rule="evenodd" clip-rule="evenodd" d="M5.22692 0H19.0507C19.3805 0 19.6852 0.178033 19.8497 0.466861L23.8772 7.53827C24.086 7.905 24.024 8.36785 23.726 8.66523L12.6404 19.7311C12.2813 20.0896 11.7037 20.0896 11.3446 19.7311L0.273949 8.68018C-0.0308811 8.37589 -0.0879624 7.89955 0.136195 7.53053L4.4412 0.444173C4.60886 0.168193 4.90638 0 5.22692 0ZM17.2658 3.15714V5.14129H13.3279V6.51694C16.0936 6.66396 18.1686 7.26773 18.184 7.99143L18.1839 9.50015C18.1685 10.2238 16.0936 10.8276 13.3279 10.9746V14.3507H10.7132V10.9746C7.94748 10.8276 5.8725 10.2238 5.85714 9.50015L5.85719 7.99143C5.8726 7.26773 7.94748 6.66396 10.7132 6.51694V5.14129H6.77532V3.15714H17.2658ZM12.0206 9.93816C14.972 9.93816 17.4389 9.42762 18.0427 8.74581C17.5307 8.16764 15.6789 7.71259 13.3279 7.58761V9.02795C12.9066 9.05035 12.4692 9.06215 12.0206 9.06215C11.5719 9.06215 11.1346 9.05035 10.7132 9.02795V7.58761C8.36222 7.71259 6.5104 8.16764 5.99845 8.74581C6.60216 9.42762 9.06909 9.93816 12.0206 9.93816Z" fill="#50AF95"/>
<rect x="12" y="13" width="12" height="12" rx="6" fill="white"/>
<circle cx="18" cy="19" r="5" fill="#FD0026"/>
<path d="M15.8859 20.8214C15.4806 20.8214 15.1484 20.727 14.8896 20.5381C14.6341 20.3459 14.5063 20.0726 14.5063 19.7185C14.5063 19.6443 14.5149 19.5532 14.5319 19.4452C14.5762 19.2024 14.6392 18.9106 14.7209 18.57C14.9526 17.6424 15.5504 17.1786 16.5144 17.1786C16.7767 17.1786 17.0117 17.2224 17.2195 17.3101C17.4273 17.3945 17.5908 17.5226 17.71 17.6947C17.8292 17.8633 17.8888 18.0657 17.8888 18.3018C17.8888 18.3726 17.8803 18.462 17.8633 18.57C17.8122 18.8702 17.7509 19.1619 17.6793 19.4452C17.5601 19.9074 17.354 20.2531 17.0611 20.4825C16.7681 20.7084 16.3764 20.8214 15.8859 20.8214ZM15.9574 20.0929C16.1482 20.0929 16.31 20.0372 16.4429 19.9259C16.5791 19.8146 16.6762 19.6443 16.7341 19.4149C16.8124 19.0978 16.872 18.8212 16.9129 18.5851C16.9266 18.5143 16.9334 18.4418 16.9334 18.3676C16.9334 18.0606 16.7715 17.9072 16.448 17.9072C16.2572 17.9072 16.0937 17.9628 15.9574 18.0741C15.8246 18.1854 15.7292 18.3558 15.6713 18.5851C15.61 18.8111 15.5487 19.0877 15.4874 19.4149C15.4737 19.4824 15.4669 19.5532 15.4669 19.6274C15.4669 19.9377 15.6304 20.0929 15.9574 20.0929Z" fill="white"/>
<path d="M18.1215 20.7708C18.084 20.7708 18.055 20.759 18.0346 20.7354C18.0176 20.7084 18.0125 20.678 18.0193 20.6443L18.7244 17.3556C18.7312 17.3185 18.7499 17.2882 18.7806 17.2645C18.8113 17.2409 18.8436 17.2291 18.8777 17.2291H20.2368C20.6149 17.2291 20.9181 17.3067 21.1463 17.4619C21.3779 17.617 21.4937 17.8413 21.4937 18.1348C21.4937 18.2191 21.4835 18.3068 21.4631 18.3979C21.3779 18.7858 21.2059 19.0725 20.947 19.258C20.6915 19.4435 20.3407 19.5363 19.8945 19.5363H19.2047L18.9696 20.6443C18.9628 20.6814 18.9441 20.7118 18.9134 20.7354C18.8828 20.759 18.8504 20.7708 18.8164 20.7708H18.1215ZM19.9302 18.8381C20.0733 18.8381 20.1976 18.7993 20.3032 18.7217C20.4122 18.6441 20.4838 18.5328 20.5178 18.3878C20.528 18.3304 20.5332 18.2798 20.5332 18.236C20.5332 18.1382 20.5042 18.0639 20.4463 18.0134C20.3884 17.9594 20.2896 17.9324 20.1499 17.9324H19.5368L19.3426 18.8381H19.9302Z" fill="white"/>
</g>
<defs>
<clipPath id="clip0_1460_256">
<rect width="24" height="24" fill="white"/>
</clipPath>
</defs>
</svg>
