<svg width="24" height="24" viewBox="0 0 24 24" fill="none" xmlns="http://www.w3.org/2000/svg">
<g clip-path="url(#clip0_1460_275)">
<path fill-rule="evenodd" clip-rule="evenodd" d="M5.22692 0H19.0507C19.3805 0 19.6852 0.178033 19.8497 0.466861L23.8772 7.53827C24.086 7.905 24.024 8.36785 23.726 8.66523L12.6404 19.7311C12.2813 20.0896 11.7037 20.0896 11.3446 19.7311L0.273949 8.68018C-0.0308811 8.37589 -0.0879624 7.89955 0.136195 7.53053L4.4412 0.444173C4.60886 0.168193 4.90638 0 5.22692 0ZM17.2658 3.15714V5.14129H13.3279V6.51694C16.0936 6.66396 18.1686 7.26773 18.184 7.99143L18.1839 9.50015C18.1685 10.2238 16.0936 10.8276 13.3279 10.9746V14.3507H10.7132V10.9746C7.94748 10.8276 5.8725 10.2238 5.85714 9.50015L5.85719 7.99143C5.8726 7.26773 7.94748 6.66396 10.7132 6.51694V5.14129H6.77532V3.15714H17.2658ZM12.0206 9.93816C14.972 9.93816 17.4389 9.42762 18.0427 8.74581C17.5307 8.16764 15.6789 7.71259 13.3279 7.58761V9.02795C12.9066 9.05035 12.4692 9.06215 12.0206 9.06215C11.5719 9.06215 11.1346 9.05035 10.7132 9.02795V7.58761C8.36222 7.71259 6.5104 8.16764 5.99845 8.74581C6.60216 9.42762 9.06909 9.93816 12.0206 9.93816Z" fill="#50AF95"/>
<rect x="12" y="13" width="12" height="12" rx="6" fill="white"/>
<path d="M18 24C20.7615 24 23 21.7615 23 19C23 16.2385 20.7615 14 18 14C15.2385 14 13 16.2385 13 19C13 21.7615 15.2385 24 18 24Z" fill="#863FF8"/>
<path d="M16.8384 16.0738C16.6725 15.9754 16.4667 15.9754 16.3009 16.0738L14.9757 16.8597C14.8138 16.9558 14.7144 17.131 14.7144 17.3204V18.8981C14.7144 19.0875 14.8138 19.2627 14.9757 19.3588L16.3009 20.1447C16.4667 20.2431 16.6725 20.2431 16.8384 20.1447L19.5734 18.5226L20.7219 19.2038V20.5777L19.5734 21.2589L18.4249 20.5777V19.7126L17.7181 20.158V20.6796C17.7181 20.869 17.8175 21.0442 17.9794 21.1403L19.3046 21.9262C19.4705 22.0246 19.6762 22.0246 19.8421 21.9262L21.1673 21.1403C21.3292 21.0442 21.4286 20.869 21.4286 20.6796V19.1019C21.4286 18.9125 21.3292 18.7373 21.1673 18.6412L19.8421 17.8553C19.6763 17.7569 19.4705 17.7569 19.3046 17.8553L16.5696 19.4774L15.4211 18.7962V17.4223L16.5696 16.7411L17.7181 17.4223V18.2874L18.4249 17.842V17.3204C18.4249 17.131 18.3255 16.9558 18.1636 16.8597L16.8384 16.0738Z" fill="white"/>
</g>
<defs>
<clipPath id="clip0_1460_275">
<rect width="24" height="24" fill="white"/>
</clipPath>
</defs>
</svg>
