<svg width="24" height="24" viewBox="0 0 24 24" fill="none" xmlns="http://www.w3.org/2000/svg">
<g clip-path="url(#clip0_1460_287)">
<path fill-rule="evenodd" clip-rule="evenodd" d="M5.22692 0H19.0507C19.3805 0 19.6852 0.178033 19.8497 0.466861L23.8772 7.53827C24.086 7.905 24.024 8.36785 23.726 8.66523L12.6404 19.7311C12.2813 20.0896 11.7037 20.0896 11.3446 19.7311L0.273949 8.68018C-0.0308811 8.37589 -0.0879624 7.89955 0.136195 7.53053L4.4412 0.444173C4.60886 0.168193 4.90638 0 5.22692 0ZM17.2658 3.15714V5.14129H13.3279V6.51694C16.0936 6.66396 18.1686 7.26773 18.184 7.99143L18.1839 9.50015C18.1685 10.2238 16.0936 10.8276 13.3279 10.9746V14.3507H10.7132V10.9746C7.94748 10.8276 5.8725 10.2238 5.85714 9.50015L5.85719 7.99143C5.8726 7.26773 7.94748 6.66396 10.7132 6.51694V5.14129H6.77532V3.15714H17.2658ZM12.0206 9.93816C14.972 9.93816 17.4389 9.42762 18.0427 8.74581C17.5307 8.16764 15.6789 7.71259 13.3279 7.58761V9.02795C12.9066 9.05035 12.4692 9.06215 12.0206 9.06215C11.5719 9.06215 11.1346 9.05035 10.7132 9.02795V7.58761C8.36222 7.71259 6.5104 8.16764 5.99845 8.74581C6.60216 9.42762 9.06909 9.93816 12.0206 9.93816Z" fill="#50AF95"/>
<rect x="12" y="13" width="12" height="12" rx="6" fill="white"/>
<rect x="13" y="14" width="10" height="10" rx="4.16667" fill="white"/>
<circle cx="18" cy="19" r="5" fill="black"/>
<path d="M16.0997 20.1845C16.1343 20.1499 16.182 20.1296 16.2325 20.1296H20.8148C20.8985 20.1296 20.9404 20.2307 20.8812 20.2899L19.976 21.1951C19.9413 21.2297 19.8937 21.2499 19.8432 21.2499H15.2609C15.1771 21.2499 15.1353 21.1489 15.1945 21.0897L16.0997 20.1845Z" fill="url(#paint0_linear_1460_287)"/>
<path d="M16.0997 16.8049C16.1358 16.7702 16.1834 16.75 16.2325 16.75H20.8148C20.8985 16.75 20.9404 16.8511 20.8812 16.9103L19.976 17.8154C19.9413 17.8501 19.8937 17.8703 19.8432 17.8703H15.2609C15.1771 17.8703 15.1353 17.7692 15.1945 17.7101L16.0997 16.8049Z" fill="url(#paint1_linear_1460_287)"/>
<path d="M19.976 18.4839C19.9413 18.4493 19.8937 18.4291 19.8432 18.4291H15.2609C15.1771 18.4291 15.1353 18.5301 15.1945 18.5893L16.0997 19.4945C16.1343 19.5292 16.182 19.5494 16.2325 19.5494H20.8148C20.8985 19.5494 20.9404 19.4483 20.8812 19.3891L19.976 18.4839Z" fill="url(#paint2_linear_1460_287)"/>
</g>
<defs>
<linearGradient id="paint0_linear_1460_287" x1="4.80998" y1="15.8998" x2="4.68806" y2="22.0348" gradientUnits="userSpaceOnUse">
<stop stop-color="#00FFA3"/>
<stop offset="1" stop-color="#DC1FFF"/>
</linearGradient>
<linearGradient id="paint1_linear_1460_287" x1="3.42331" y1="15.1759" x2="3.30139" y2="21.3109" gradientUnits="userSpaceOnUse">
<stop stop-color="#00FFA3"/>
<stop offset="1" stop-color="#DC1FFF"/>
</linearGradient>
<linearGradient id="paint2_linear_1460_287" x1="4.11222" y1="15.5357" x2="3.9903" y2="21.6706" gradientUnits="userSpaceOnUse">
<stop stop-color="#00FFA3"/>
<stop offset="1" stop-color="#DC1FFF"/>
</linearGradient>
<clipPath id="clip0_1460_287">
<rect width="24" height="24" fill="white"/>
</clipPath>
</defs>
</svg>
