<svg width="24" height="24" viewBox="0 0 24 24" fill="none" xmlns="http://www.w3.org/2000/svg">
<g clip-path="url(#clip0_1460_207)">
<path fill-rule="evenodd" clip-rule="evenodd" d="M5.22692 0H19.0507C19.3805 0 19.6852 0.178033 19.8497 0.466861L23.8772 7.53827C24.086 7.905 24.024 8.36785 23.726 8.66523L12.6404 19.7311C12.2813 20.0896 11.7037 20.0896 11.3446 19.7311L0.273949 8.68018C-0.0308811 8.37589 -0.0879624 7.89955 0.136195 7.53053L4.4412 0.444173C4.60886 0.168193 4.90638 0 5.22692 0ZM17.2658 3.15714V5.14129H13.3279V6.51694C16.0936 6.66396 18.1686 7.26773 18.184 7.99143L18.1839 9.50015C18.1685 10.2238 16.0936 10.8276 13.3279 10.9746V14.3507H10.7132V10.9746C7.94748 10.8276 5.8725 10.2238 5.85714 9.50015L5.85719 7.99143C5.8726 7.26773 7.94748 6.66396 10.7132 6.51694V5.14129H6.77532V3.15714H17.2658ZM12.0206 9.93816C14.972 9.93816 17.4389 9.42762 18.0427 8.74581C17.5307 8.16764 15.6789 7.71259 13.3279 7.58761V9.02795C12.9066 9.05035 12.4692 9.06215 12.0206 9.06215C11.5719 9.06215 11.1346 9.05035 10.7132 9.02795V7.58761C8.36222 7.71259 6.5104 8.16764 5.99845 8.74581C6.60216 9.42762 9.06909 9.93816 12.0206 9.93816Z" fill="#50AF95"/>
<rect x="12" y="13" width="12" height="12" rx="6" fill="white"/>
<path d="M13.9041 17.04V20.96C13.9041 21.212 14.0361 21.44 14.2561 21.568L17.6521 23.528C17.8681 23.652 18.1361 23.652 18.3521 23.528L21.7481 21.568C21.9641 21.444 22.1001 21.212 22.1001 20.96V17.04C22.1001 16.788 21.9681 16.56 21.7481 16.432L18.3521 14.472C18.1361 14.348 17.8681 14.348 17.6521 14.472L14.2561 16.432C14.0401 16.556 13.9081 16.788 13.9081 17.04H13.9041Z" fill="#213147"/>
<path d="M18.7398 19.76L18.2558 21.088C18.2438 21.124 18.2438 21.164 18.2558 21.204L19.0878 23.488L20.0518 22.932L18.8958 19.76C18.8678 19.688 18.7678 19.688 18.7398 19.76Z" fill="#12AAFF"/>
<path d="M19.7117 17.528C19.6837 17.456 19.5837 17.456 19.5557 17.528L19.0717 18.856C19.0597 18.892 19.0597 18.932 19.0717 18.972L20.4357 22.712L21.3997 22.156L19.7117 17.532V17.528Z" fill="#12AAFF"/>
<path d="M18.0001 14.62C18.0241 14.62 18.0481 14.628 18.0681 14.64L21.7401 16.76C21.7841 16.784 21.8081 16.832 21.8081 16.88V21.12C21.8081 21.168 21.7801 21.216 21.7401 21.24L18.0681 23.36C18.0481 23.372 18.0241 23.38 18.0001 23.38C17.9761 23.38 17.9521 23.372 17.9321 23.36L14.2601 21.24C14.2161 21.216 14.1921 21.168 14.1921 21.12V16.876C14.1921 16.828 14.2201 16.78 14.2601 16.756L17.9321 14.636C17.9521 14.624 17.9761 14.616 18.0001 14.616V14.62ZM18.0001 14C17.8681 14 17.7401 14.032 17.6201 14.1L13.9481 16.22C13.7121 16.356 13.5681 16.604 13.5681 16.876V21.116C13.5681 21.388 13.7121 21.636 13.9481 21.772L17.6201 23.892C17.7361 23.96 17.8681 23.992 18.0001 23.992C18.1321 23.992 18.2601 23.96 18.3801 23.892L22.0521 21.772C22.2881 21.636 22.4321 21.388 22.4321 21.116V16.876C22.4321 16.604 22.2881 16.356 22.0521 16.22L18.3761 14.1C18.2601 14.032 18.1281 14 17.9961 14H18.0001Z" fill="#9DCCED"/>
<path d="M15.5681 22.716L15.9081 21.788L16.5881 22.352L15.9521 22.936L15.5681 22.716Z" fill="#213147"/>
<path d="M17.688 16.576H16.756C16.688 16.576 16.624 16.62 16.6 16.684L14.604 22.156L15.568 22.712L17.768 16.684C17.788 16.628 17.748 16.572 17.692 16.572L17.688 16.576Z" fill="white"/>
<path d="M19.3199 16.576H18.3879C18.3199 16.576 18.2559 16.62 18.2319 16.684L15.9519 22.932L16.9159 23.488L19.3959 16.684C19.4159 16.628 19.3759 16.572 19.3199 16.572V16.576Z" fill="white"/>
</g>
<defs>
<clipPath id="clip0_1460_207">
<rect width="24" height="24" fill="white"/>
</clipPath>
</defs>
</svg>
