<svg width="24" height="24" viewBox="0 0 24 24" fill="none" xmlns="http://www.w3.org/2000/svg">
<g clip-path="url(#clip0_1460_310)">
<path fill-rule="evenodd" clip-rule="evenodd" d="M5.22692 0H19.0507C19.3805 0 19.6852 0.178033 19.8497 0.466861L23.8772 7.53827C24.086 7.905 24.024 8.36785 23.726 8.66523L12.6404 19.7311C12.2813 20.0896 11.7037 20.0896 11.3446 19.7311L0.273949 8.68018C-0.0308811 8.37589 -0.0879624 7.89955 0.136195 7.53053L4.4412 0.444173C4.60886 0.168193 4.90638 0 5.22692 0ZM17.2658 3.15714V5.14129H13.3279V6.51694C16.0936 6.66396 18.1686 7.26773 18.184 7.99143L18.1839 9.50015C18.1685 10.2238 16.0936 10.8276 13.3279 10.9746V14.3507H10.7132V10.9746C7.94748 10.8276 5.8725 10.2238 5.85714 9.50015L5.85719 7.99143C5.8726 7.26773 7.94748 6.66396 10.7132 6.51694V5.14129H6.77532V3.15714H17.2658ZM12.0206 9.93816C14.972 9.93816 17.4389 9.42762 18.0427 8.74581C17.5307 8.16764 15.6789 7.71259 13.3279 7.58761V9.02795C12.9066 9.05035 12.4692 9.06215 12.0206 9.06215C11.5719 9.06215 11.1346 9.05035 10.7132 9.02795V7.58761C8.36222 7.71259 6.5104 8.16764 5.99845 8.74581C6.60216 9.42762 9.06909 9.93816 12.0206 9.93816Z" fill="#50AF95"/>
<rect x="12" y="13" width="12" height="12" rx="6" fill="white"/>
<g clip-path="url(#clip1_1460_310)">
<path d="M18 24C20.7614 24 23 21.7614 23 19C23 16.2386 20.7614 14 18 14C15.2386 14 13 16.2386 13 19C13 21.7614 15.2386 24 18 24Z" fill="#0098EA"/>
<path d="M19.7072 16.7906H16.2926C15.6648 16.7906 15.2668 17.4679 15.5827 18.0154L17.69 21.668C17.8276 21.9065 18.1722 21.9065 18.3097 21.668L20.4175 18.0154C20.7329 17.4688 20.335 16.7906 19.7076 16.7906H19.7072ZM17.6883 20.5726L17.2294 19.6844L16.122 17.7038C16.0489 17.577 16.1392 17.4146 16.2922 17.4146H17.6879V20.5731L17.6883 20.5726ZM19.8769 17.7034L18.7699 19.6848L18.311 20.5726V17.4142H19.7067C19.8597 17.4142 19.95 17.5766 19.8769 17.7034Z" fill="white"/>
</g>
</g>
<defs>
<clipPath id="clip0_1460_310">
<rect width="24" height="24" fill="white"/>
</clipPath>
<clipPath id="clip1_1460_310">
<rect width="10" height="10" fill="white" transform="translate(13 14)"/>
</clipPath>
</defs>
</svg>
