<svg width="24" height="24" viewBox="0 0 24 24" fill="none" xmlns="http://www.w3.org/2000/svg">
<g clip-path="url(#clip0_1460_325)">
<path fill-rule="evenodd" clip-rule="evenodd" d="M5.22692 0H19.0507C19.3805 0 19.6852 0.178033 19.8497 0.466861L23.8772 7.53827C24.086 7.905 24.024 8.36785 23.726 8.66523L12.6404 19.7311C12.2813 20.0896 11.7037 20.0896 11.3446 19.7311L0.273949 8.68018C-0.0308811 8.37589 -0.0879624 7.89955 0.136195 7.53053L4.4412 0.444173C4.60886 0.168193 4.90638 0 5.22692 0ZM17.2658 3.15714V5.14129H13.3279V6.51694C16.0936 6.66396 18.1686 7.26773 18.184 7.99143L18.1839 9.50015C18.1685 10.2238 16.0936 10.8276 13.3279 10.9746V14.3507H10.7132V10.9746C7.94748 10.8276 5.8725 10.2238 5.85714 9.50015L5.85719 7.99143C5.8726 7.26773 7.94748 6.66396 10.7132 6.51694V5.14129H6.77532V3.15714H17.2658ZM12.0206 9.93816C14.972 9.93816 17.4389 9.42762 18.0427 8.74581C17.5307 8.16764 15.6789 7.71259 13.3279 7.58761V9.02795C12.9066 9.05035 12.4692 9.06215 12.0206 9.06215C11.5719 9.06215 11.1346 9.05035 10.7132 9.02795V7.58761C8.36222 7.71259 6.5104 8.16764 5.99845 8.74581C6.60216 9.42762 9.06909 9.93816 12.0206 9.93816Z" fill="#50AF95"/>
<rect x="12" y="13" width="12" height="12" rx="6" fill="white"/>
<rect x="13" y="14" width="10" height="10" rx="4.16667" fill="white"/>
<path fill-rule="evenodd" clip-rule="evenodd" d="M18 24C15.25 24 13 21.75 13 18.9751C13.025 16.2252 15.25 13.9752 18.025 14.0002C20.775 14.0252 23 16.2502 23 19.0501C22.975 21.775 20.75 24 18 24Z" fill="#FC070C"/>
<path fill-rule="evenodd" clip-rule="evenodd" d="M21.103 17.5026L21.103 17.5025C20.8714 17.2777 20.6267 17.0401 20.4108 16.8485L20.3889 16.8332C20.3525 16.8039 20.3115 16.781 20.2675 16.7653L20.1008 16.7342C18.9508 16.5197 15.2232 15.8241 15.1466 15.8335C15.1239 15.8366 15.1022 15.8449 15.0831 15.8575L15.0623 15.8739C15.0368 15.8999 15.0173 15.9313 15.0055 15.9658L15 15.98V16.0577V16.0697C15.2531 16.7744 15.9105 18.3481 16.5175 19.8012L16.5175 19.8013C17.0307 21.0298 17.5079 22.172 17.6742 22.63L17.6743 22.6302C17.6962 22.6981 17.7377 22.8269 17.8153 22.8334H17.8328C17.8744 22.8334 18.0516 22.5994 18.0516 22.5994C18.0516 22.5994 21.219 18.7581 21.5395 18.3491C21.581 18.2987 21.6176 18.2445 21.6489 18.1872C21.6651 18.096 21.6323 18.003 21.5625 17.9422C21.426 17.8162 21.2678 17.6626 21.103 17.5026ZM18.8642 18.3895L20.2161 17.2684L21.009 17.999L18.8642 18.3895ZM16.0117 16.4087L18.3392 18.3162L19.7775 17.1033L16.0117 16.4087ZM18.5492 18.8161L20.9314 18.4322L18.208 21.7134L18.5492 18.8161ZM18.1445 18.6772L15.6956 16.599L17.7901 21.7156L18.1445 18.6772Z" fill="white"/>
</g>
<defs>
<clipPath id="clip0_1460_325">
<rect width="24" height="24" fill="white"/>
</clipPath>
</defs>
</svg>
