<svg width="45" height="30" viewBox="0 0 45 30" fill="none" xmlns="http://www.w3.org/2000/svg">
<rect x="0.5" y="0.5" width="44" height="29" rx="4.5" stroke="black" stroke-opacity="0.05"/>
<path d="M32.6986 17.419C31.363 22.7762 25.937 26.0365 20.5792 24.7006C15.2236 23.365 11.9633 17.9387 13.2995 12.582C14.6345 7.22419 20.0604 3.96366 25.4166 5.29923C30.7741 6.63481 34.0341 12.0617 32.6984 17.4191L32.6985 17.419H32.6986Z" fill="#F3BA2F"/>
<path fill-rule="evenodd" clip-rule="evenodd" d="M23 11.3466L20.4106 13.936L20.4106 13.9359L18.904 12.4293L23 8.33325L27.0973 12.4305L25.5907 13.9371L23 11.3466ZM17.8401 13.493L16.3333 14.9999L17.84 16.5063L19.3467 14.9996L17.8401 13.493ZM20.4106 16.064L23 18.6533L25.5906 16.0627L27.0981 17.5686L27.0973 17.5694L23 21.6666L18.904 17.5706L18.9019 17.5685L20.4106 16.064ZM28.1601 13.4939L26.6533 15.0006L28.16 16.5072L29.6667 15.0005L28.1601 13.4939Z" fill="white"/>
<path d="M24.5281 14.9991H24.5287L23 13.4702L21.87 14.5999V14.5999L21.7402 14.7297L21.4725 14.9975L21.4703 14.9996L21.4725 15.0018L23 16.5295L24.5288 15.0007L24.5296 14.9998L24.5282 14.9991" fill="white"/>
</svg>
