<svg width="45" height="30" viewBox="0 0 45 30" fill="none" xmlns="http://www.w3.org/2000/svg">
<rect x="0.5" y="0.5" width="44" height="29" rx="4.5" stroke="black" stroke-opacity="0.05"/>
<path fill-rule="evenodd" clip-rule="evenodd" d="M35.0126 10.9828V19.8997H37.4657V10.5469L35.0126 10.9828Z" fill="#862165"/>
<path fill-rule="evenodd" clip-rule="evenodd" d="M31.4318 10.9828L33.8833 10.5469V19.8997H31.4318V10.9828Z" fill="#862165"/>
<path fill-rule="evenodd" clip-rule="evenodd" d="M27.9396 19.8997V13.0588H30.3924V19.8997H27.9396Z" fill="#862165"/>
<path fill-rule="evenodd" clip-rule="evenodd" d="M27.9566 11.2017C27.9566 10.5383 28.4983 10 29.1653 10C29.8334 10 30.3747 10.5383 30.3747 11.2017C30.3747 11.8657 29.8334 12.4027 29.1653 12.4027C28.4983 12.4027 27.9566 11.8657 27.9566 11.2017Z" fill="#862165"/>
<path fill-rule="evenodd" clip-rule="evenodd" d="M26.5562 12.9585C24.2901 13.0312 23.1388 14.042 23.1388 16.0513V19.8997H25.6119V16.7609C25.6119 15.5584 25.7706 15.0428 27.2071 14.9936V12.9941C26.9655 12.9429 26.5562 12.9585 26.5562 12.9585Z" fill="#862165"/>
<path fill-rule="evenodd" clip-rule="evenodd" d="M19.9021 13.051C19.8479 13.1877 19.4559 14.2902 18.5053 15.4327V10.5469L15.974 11.0445V19.8997H18.5053V17.1621C19.2382 18.255 19.6004 19.8997 19.6004 19.8997H22.6317C22.332 18.6608 21.0204 16.3772 21.0204 16.3772C22.198 14.8933 22.7146 13.3129 22.7971 13.051H19.9021Z" fill="#862165"/>
<path fill-rule="evenodd" clip-rule="evenodd" d="M11.7293 14.0264C11.4194 14.0065 10.7013 13.9601 10.7013 13.318C10.7013 12.5432 11.7344 12.5432 12.1221 12.5432C12.804 12.5432 13.6863 12.7431 14.3171 12.9308C14.3171 12.9308 14.6683 13.0542 14.9673 13.1799L14.9951 13.1877V11.0655L14.9578 11.0542C14.213 10.7955 13.3485 10.5469 11.7446 10.5469C8.97966 10.5469 8 12.1467 8 13.5186C8 14.3086 8.34095 16.1696 11.5066 16.3839C11.7757 16.4003 12.4882 16.4412 12.4882 17.1047C12.4882 17.6527 11.9049 17.9751 10.9241 17.9751C9.84934 17.9751 8.80604 17.7035 8.17283 17.4447V19.6296C9.12107 19.8774 10.1903 20 11.4434 20C14.1458 20 15.3573 18.486 15.3573 16.9849C15.3573 15.2836 14.0025 14.1778 11.7293 14.0264Z" fill="#862165"/>
</svg>
