<svg width="45" height="30" viewBox="0 0 45 30" fill="none" xmlns="http://www.w3.org/2000/svg">
<rect x="0.5" y="0.5" width="44" height="29" rx="4.5" stroke="black" stroke-opacity="0.05"/>
<g clip-path="url(#clip0_8640_3228)">
<path d="M19.0118 10.5359L17.4877 19.4829H19.926L21.4518 10.5359H19.0124H19.0118ZM15.443 10.5459L13.0548 16.6477L12.8001 15.7265C12.3295 14.6165 10.9918 13.0218 9.42242 12.0171L11.606 19.4788L14.186 19.4741L18.0265 10.5441L15.443 10.5459Z" fill="#0085F3"/>
<path d="M11.8741 11.1868C11.7329 10.6415 11.3218 10.4791 10.8118 10.4597H7.03118L7 10.638C9.94176 11.3515 11.8882 13.0715 12.6965 15.1391L11.8741 11.1868ZM26.3941 12.2515C27.0195 12.2376 27.641 12.3542 28.2188 12.5938L28.4388 12.6974L28.7688 10.7586C28.2865 10.5768 27.5294 10.3821 26.5847 10.3821C24.1753 10.3821 22.4765 11.5962 22.4635 13.335C22.4476 14.6203 23.6735 15.338 24.5988 15.7662C25.5494 16.205 25.8676 16.4838 25.8635 16.8762C25.8559 17.475 25.1059 17.7497 24.4047 17.7497C23.4282 17.7497 22.91 17.615 22.1094 17.2815L21.7947 17.1386L21.4518 19.1409C22.0224 19.3915 23.0753 19.6062 24.1688 19.6174C26.7318 19.6174 28.3982 18.4186 28.4153 16.5603C28.4259 15.5438 27.7759 14.768 26.3665 14.1309C25.5135 13.7162 24.9918 13.4403 24.9965 13.0209C24.9965 12.6491 25.4394 12.2515 26.3941 12.2515V12.2515ZM35.0271 10.5462H33.1429C32.5576 10.5462 32.1224 10.7056 31.8653 11.2891L28.2447 19.4885H30.8053C30.8053 19.4885 31.2229 18.3862 31.3176 18.1444L34.4406 18.148C34.5129 18.4603 34.7376 19.4885 34.7376 19.4885H37L35.0271 10.5462ZM32.0194 16.3133C32.22 15.7997 32.9912 13.8127 32.9912 13.8127C32.9776 13.8374 33.19 13.295 33.3159 12.9586L33.4806 13.7297L34.0453 16.3133H32.0194Z" fill="#0085F3"/>
</g>
<defs>
<clipPath id="clip0_8640_3228">
<rect width="30" height="10" fill="white" transform="translate(7 10)"/>
</clipPath>
</defs>
</svg>
