<svg width="45" height="30" viewBox="0 0 45 30" fill="none" xmlns="http://www.w3.org/2000/svg">
<rect x="0.5" y="0.5" width="44" height="29" rx="4.5" stroke="black" stroke-opacity="0.05"/>
<path fill-rule="evenodd" clip-rule="evenodd" d="M13.8416 11.4181C13.5311 11.7897 13.0342 12.0828 12.5373 12.0409C12.4752 11.5385 12.7184 11.0047 13.0031 10.6751C13.3136 10.2931 13.8571 10.0209 14.2971 10C14.3489 10.5233 14.147 11.0362 13.8416 11.4181ZM14.2919 12.1404C13.8542 12.1149 13.4548 12.2735 13.1321 12.4015C12.9245 12.484 12.7487 12.5538 12.6149 12.5538C12.4648 12.5538 12.2817 12.4802 12.0762 12.3976C11.8069 12.2895 11.4989 12.1658 11.176 12.1717C10.4359 12.1822 9.74748 12.6061 9.36963 13.2811C8.59324 14.6313 9.16778 16.6304 9.91826 17.7293C10.2858 18.2735 10.7257 18.8702 11.3054 18.8492C11.5605 18.8395 11.7439 18.7608 11.9338 18.6793C12.1523 18.5855 12.3794 18.4881 12.7339 18.4881C13.0762 18.4881 13.2934 18.583 13.5018 18.6741C13.7 18.7607 13.8903 18.8438 14.1728 18.8387C14.7733 18.8283 15.1511 18.2945 15.5186 17.7502C15.9152 17.1661 16.0894 16.5961 16.1159 16.5096L16.119 16.4995C16.119 16.4995 16.1135 16.4966 16.1048 16.4926C15.9722 16.4312 14.959 15.9623 14.9492 14.7046C14.9395 13.649 15.7529 13.1141 15.881 13.0299C15.8888 13.0247 15.8941 13.0213 15.8964 13.0195C15.3788 12.245 14.5714 12.1613 14.2919 12.1404ZM18.4481 18.7812V10.6228H21.476C23.0392 10.6228 24.1313 11.7112 24.1313 13.3021C24.1313 14.893 23.0184 15.9919 21.4347 15.9919H19.7007V18.7812H18.4481ZM19.7007 11.6903H21.1448C22.2317 11.6903 22.8528 12.2764 22.8528 13.3073C22.8528 14.3383 22.2317 14.9296 21.1396 14.9296H19.7007V11.6903ZM28.2668 17.8026C27.9355 18.441 27.2057 18.844 26.419 18.844C25.2544 18.844 24.4418 18.1427 24.4418 17.0857C24.4418 16.039 25.2286 15.4372 26.683 15.3482L28.2461 15.254V14.804C28.2461 14.1394 27.8165 13.7783 27.0505 13.7783C26.419 13.7783 25.9584 14.108 25.8652 14.6104H24.7368C24.7731 13.5533 25.7565 12.784 27.0867 12.784C28.5204 12.784 29.4521 13.5428 29.4521 14.7203V18.7812H28.2927V17.8026H28.2668ZM26.7554 17.8759C26.0878 17.8759 25.6633 17.5514 25.6633 17.0542C25.6633 16.5414 26.0722 16.2431 26.8538 16.196L28.2461 16.107V16.5676C28.2461 17.3316 27.6043 17.8759 26.7554 17.8759ZM33.2978 19.1004C32.7957 20.529 32.2212 21 30.9997 21C30.9065 21 30.596 20.9895 30.5235 20.9686V19.99C30.6011 20.0005 30.7927 20.0109 30.891 20.0109C31.4448 20.0109 31.7554 19.7755 31.9468 19.1632L32.0607 18.8021L29.9386 12.8625H31.2481L32.7232 17.6822H32.7491L34.2242 12.8625H35.4975L33.2978 19.1004Z" fill="black"/>
</svg>
