<svg width="45" height="30" viewBox="0 0 45 30" fill="none" xmlns="http://www.w3.org/2000/svg">
<rect x="0.5" y="0.5" width="44" height="29" rx="4.5" stroke="black" stroke-opacity="0.05"/>
<path fill-rule="evenodd" clip-rule="evenodd" d="M13.356 15.6466C13.356 11.1141 17.0302 7.43994 21.5624 7.43994C26.0949 7.43994 29.7692 11.1141 29.7692 15.6466C29.7692 20.179 26.0949 23.8535 21.5624 23.8535C17.0302 23.8535 13.356 20.179 13.356 15.6466Z" fill="#FFFFFE"/>
<path fill-rule="evenodd" clip-rule="evenodd" d="M26.5256 15.4852C26.5223 13.3837 25.2087 11.5913 23.3576 10.8815V20.0887C25.2087 19.378 26.5223 17.5872 26.5256 15.4852ZM19.8264 20.0869V10.8824C17.977 11.5945 16.6654 13.3843 16.6605 15.4852C16.6654 17.5858 17.977 19.3754 19.8264 20.0869ZM21.593 7.70304C17.295 7.70469 13.813 11.1874 13.8123 15.4852C13.813 19.7826 17.295 23.2648 21.593 23.2655C25.8908 23.2648 29.3736 19.7826 29.3746 15.4852C29.3736 11.1874 25.8908 7.70469 21.593 7.70304ZM21.5739 23.9999C16.8709 24.0224 13 20.2121 13 15.5741C13 10.5051 16.8709 6.99908 21.5739 7H23.7778C28.4253 6.99908 32.6669 10.5035 32.6669 15.5741C32.6669 20.2105 28.4253 23.9999 23.7778 23.9999H21.5739Z" fill="#0069AA"/>
</svg>
