<svg width="45" height="30" viewBox="0 0 45 30" fill="none" xmlns="http://www.w3.org/2000/svg">
<rect x="0.5" y="0.5" width="44" height="29" rx="4.5" stroke="black" stroke-opacity="0.05"/>
<path fill-rule="evenodd" clip-rule="evenodd" d="M13 15C13 9.47715 17.4771 5 23 5H23.0581C25.7025 5.00769 28.2356 6.06559 30.1001 7.94096C31.9645 9.81632 33.0076 12.3555 32.9999 15C32.9999 20.5228 28.5228 25 23 25C17.4771 25 13 20.5228 13 15ZM22.1283 18.8499L23.1694 15.339L24.7917 14.8789L25.1307 13.7167L23.5326 14.201L25.2276 8.43824V8.34623C25.225 8.27172 25.193 8.20128 25.1385 8.15041C25.084 8.09955 25.0115 8.07243 24.937 8.07505H22.782C22.6142 8.06987 22.4644 8.17973 22.4188 8.34139L20.4092 15.1695L18.8111 15.6537L18.4479 16.7675L20.046 16.2833L18.6174 21.1501H27.1404C27.3088 21.1571 27.4596 21.0465 27.5036 20.8838L27.9878 19.2131V19.121C27.9853 19.0465 27.9533 18.9761 27.8988 18.9252C27.8443 18.8744 27.7718 18.8472 27.6973 18.8499H22.1283Z" fill="#345D9D"/>
</svg>
