<svg xmlns="http://www.w3.org/2000/svg" width="145" height="46" fill="none" viewBox="0 0 145 46">
  <path fill="#262D38" d="M55.581 19.32V8.814h-4.567V6.44H62.69v2.374h-4.53V19.32h-2.578Zm17.603 0-2.854-3.754h-3.5v3.754h-2.578V6.44h6.63c2.763 0 5.046 1.822 5.046 4.563 0 1.803-1.178 3.312-2.78 4.066l3.24 4.25h-3.204Zm.166-8.317c0-1.27-1.031-2.19-2.468-2.19H66.83v4.343h4.052c1.418 0 2.468-.939 2.468-2.153Zm10.179 6.072c2.007 0 3.425-1.545 3.425-3.79V6.44h2.579v6.845c0 3.55-2.431 6.256-6.004 6.256-3.5 0-6.004-2.705-6.004-6.256V6.44h2.578v6.845c0 2.19 1.455 3.79 3.426 3.79Zm8.331 2.245V6.44h10.644v2.374h-8.066v2.87h7.771v2.373h-7.771v2.87h8.066v2.393H91.859ZM51.825 39.56V26.68h2.578v5.244h7.053V26.68h2.579v12.88h-2.579v-5.263h-7.053v5.263h-2.578Zm14.531 0V26.68h10.645v2.373h-8.066v2.87h7.772v2.375h-7.772v2.87H77v2.392H66.356Zm21.936 0-2.855-3.754h-3.499v3.754H79.36V26.68h6.63c2.762 0 5.046 1.822 5.046 4.563 0 1.803-1.179 3.312-2.781 4.067l3.241 4.25h-3.204Zm.165-8.317c0-1.27-1.03-2.19-2.467-2.19h-4.052v4.343h4.052c1.418 0 2.468-.938 2.468-2.153Zm4.176 8.317V26.68h6.52c2.67 0 4.474 1.325 4.474 3.367 0 1.27-.792 2.318-2.007 2.907 1.602.534 2.597 1.601 2.597 3.018 0 2.153-2.155 3.588-5.065 3.588h-6.52Zm8.527-9.108c0-.939-.848-1.564-2.008-1.564h-3.941v3.091h3.941c1.087 0 2.008-.644 2.008-1.527Zm.46 5.28c0-1.048-.921-1.618-2.468-1.618h-3.941v3.22h3.941c1.492 0 2.468-.608 2.468-1.601Zm2.794 3.828 6.464-12.88h2.873l6.502 12.88h-2.873l-1.529-3.036h-7.054l-1.528 3.036h-2.855Zm5.562-5.391h4.678l-2.339-4.637-2.339 4.637Zm11.145 5.391V26.68h2.578v10.414h7.662v2.466h-10.24ZM145 35.972c0 2.134-2.081 3.864-5.525 3.864-3.462 0-6.151-1.693-6.335-4.232h2.688c.277 1.233 1.732 2.024 3.61 2.024 1.75 0 2.984-.736 2.984-1.73 0-3.073-9.117.055-9.117-5.833 0-2.263 2.394-3.661 5.562-3.661 3.352 0 5.709 1.6 5.912 3.938h-2.671c-.221-.994-1.583-1.804-3.241-1.804-1.805 0-2.983.681-2.983 1.601 0 2.852 9.116-.129 9.116 5.833Z"/>
  <path fill="#739D3E" d="M21.303 4.684C21.303 1.338 22.997 0 22.997 0s1.695 1.338 1.695 4.684c0 3.345-1.695 4.85-1.695 4.85s-1.694-1.505-1.694-4.85Zm-12.441 6.56C6.465 8.878 6.705 6.749 6.705 6.749s2.157-.237 4.553 2.13c2.396 2.365 2.277 4.612 2.277 4.612s-2.277.118-4.673-2.247Zm5.915.818c-2.68-6.233-.595-10.049-.595-10.049s3.89 1.17 6.57 7.404c2.68 6.232 1.068 10.36 1.068 10.36s-4.363-1.482-7.043-7.715Zm-5.646 8.493c-6.313-2.646-7.499-6.82-7.499-6.82s3.622-1.826 9.936.82c6.313 2.645 8.058 6.72 8.058 6.72s-4.181 1.926-10.495-.72Zm.283 4.22c6.313-2.646 10.179-.588 10.179-.588s-1.186 3.84-7.5 6.486C5.78 33.319 1.6 31.727 1.6 31.727s1.5-4.307 7.814-6.952Zm5.496 8.849c2.68-6.233 6.91-7.403 6.91-7.403s1.849 3.575-.831 9.808c-2.68 6.233-6.808 7.956-6.808 7.956s-1.95-4.128.73-10.36Zm-5.928 1.014c2.396-2.365 4.553-2.129 4.553-2.129s.24 2.13-2.157 4.495c-2.396 2.365-4.673 2.247-4.673 2.247s-.12-2.247 2.277-4.613Zm-4.238-10.23C1.356 24.408 0 22.735 0 22.735s1.356-1.672 4.744-1.672c3.39 0 4.914 1.672 4.914 1.672s-1.525 1.673-4.914 1.673ZM24.739 41.15c0-3.346-1.695-4.684-1.695-4.684s-1.694 1.338-1.694 4.683c0 3.346 1.694 4.851 1.694 4.851s1.695-1.505 1.695-4.85ZM37.18 11.244c2.396-2.366 2.157-4.495 2.157-4.495s-2.157-.237-4.553 2.13c-2.396 2.365-2.277 4.612-2.277 4.612s2.277.118 4.673-2.247Zm-5.915.818c2.68-6.233.595-10.049.595-10.049s-3.89 1.17-6.57 7.404c-2.68 6.232-1.068 10.36-1.068 10.36s4.363-1.482 7.043-7.715Zm5.645 8.493c6.314-2.646 7.5-6.82 7.5-6.82s-3.622-1.826-9.936.82c-6.313 2.645-8.058 6.72-8.058 6.72s4.18 1.926 10.494-.72Zm-.282 4.22c-6.314-2.646-10.18-.588-10.18-.588s1.186 3.84 7.5 6.486 10.495 1.054 10.495 1.054-1.501-4.307-7.815-6.952Zm-5.497 8.849c-2.68-6.233-6.909-7.403-6.909-7.403s-1.85 3.575.83 9.808 6.808 7.956 6.808 7.956 1.951-4.128-.729-10.36Zm5.929 1.014c-2.396-2.365-4.553-2.129-4.553-2.129s-.24 2.13 2.157 4.495c2.396 2.365 4.673 2.247 4.673 2.247s.12-2.247-2.277-4.613Zm4.237-10.23c3.39 0 4.745-1.673 4.745-1.673s-1.356-1.672-4.745-1.672c-3.389 0-4.913 1.672-4.913 1.672s1.524 1.673 4.913 1.673Z"/>
</svg>
