<svg width="22" height="22" viewBox="0 0 22 22" fill="none" xmlns="http://www.w3.org/2000/svg">
<g clip-path="url(#clip0_71_9531)">
<path d="M21.9084 10.4841C21.5482 7.71156 20.1459 5.1802 17.9863 3.40453C15.8267 1.62886 13.0721 0.742136 10.2822 0.924587C7.49235 1.10704 4.87663 2.34497 2.96673 4.38677C1.05683 6.42858 -0.00392355 9.12102 6.78828e-05 11.9168C-0.00521615 13.4133 0.298038 14.8948 0.890898 16.2688C1.48376 17.6429 2.3535 18.88 3.44582 19.9028C4.28121 20.6763 5.38196 21.099 6.52032 21.0835H15.4734C16.676 21.0863 17.8315 20.6158 18.69 19.7736C19.9135 18.5833 20.8417 17.1233 21.4005 15.5104C21.9593 13.8975 22.1332 12.1762 21.9084 10.4841V10.4841ZM6.8494 18.0228C6.76986 18.1132 6.67328 18.1871 6.56517 18.2402C6.45705 18.2933 6.33954 18.3246 6.21933 18.3322C6.09913 18.3399 5.97859 18.3238 5.86461 18.2849C5.75063 18.2459 5.64545 18.1849 5.55507 18.1053C4.29519 16.9991 3.40252 15.5352 2.99614 13.9086C2.58975 12.2821 2.68897 10.5703 3.28056 9.00159C3.87215 7.43288 4.92798 6.08185 6.30721 5.1287C7.68645 4.17554 9.32352 3.66559 11.0001 3.66684C11.6954 3.66706 12.388 3.7542 13.0617 3.92626C13.1783 3.95636 13.2879 4.00913 13.3841 4.08157C13.4804 4.15402 13.5614 4.24471 13.6226 4.34847C13.6838 4.45223 13.724 4.56703 13.7408 4.68631C13.7577 4.8056 13.7508 4.92703 13.7207 5.04368C13.6906 5.16032 13.6379 5.2699 13.5654 5.36615C13.493 5.4624 13.4023 5.54344 13.2985 5.60464C13.1948 5.66584 13.08 5.70601 12.9607 5.72284C12.8414 5.73968 12.72 5.73286 12.6033 5.70276C11.2068 5.34079 9.72898 5.46043 8.40885 6.04233C7.08873 6.62422 6.00345 7.63437 5.3285 8.90943C4.65355 10.1845 4.42838 11.6499 4.6894 13.0688C4.95042 14.4877 5.68237 15.777 6.7669 16.7284C6.85735 16.808 6.93124 16.9046 6.98435 17.0127C7.03745 17.1208 7.06873 17.2383 7.07639 17.3585C7.08405 17.4787 7.06795 17.5992 7.029 17.7132C6.99005 17.8272 6.92902 17.9324 6.8494 18.0228V18.0228ZM11.0001 13.7502C10.7373 13.7536 10.4768 13.7006 10.2363 13.5945C9.99584 13.4885 9.78096 13.332 9.60626 13.1357C9.43155 12.9394 9.3011 12.7078 9.22375 12.4566C9.1464 12.2054 9.12396 11.9405 9.15795 11.6799C9.19193 11.4193 9.28155 11.1691 9.42073 10.9461C9.55991 10.7232 9.7454 10.5328 9.96462 10.3878C10.1838 10.2428 10.4317 10.1467 10.6913 10.1059C10.9509 10.0651 11.2163 10.0806 11.4694 10.1513L14.9353 6.68543C15.0199 6.59788 15.121 6.52804 15.2329 6.48C15.3447 6.43196 15.465 6.40667 15.5867 6.40561C15.7084 6.40456 15.8291 6.42775 15.9418 6.47384C16.0544 6.51993 16.1568 6.588 16.2428 6.67407C16.3289 6.76013 16.397 6.86248 16.4431 6.97514C16.4892 7.08779 16.5124 7.2085 16.5113 7.33021C16.5102 7.45193 16.485 7.57221 16.4369 7.68405C16.3889 7.79588 16.319 7.89703 16.2315 7.98159L12.7656 11.4475C12.842 11.7186 12.8541 12.0038 12.801 12.2805C12.7479 12.5571 12.631 12.8176 12.4596 13.0411C12.2882 13.2646 12.0671 13.4451 11.8137 13.5682C11.5603 13.6913 11.2817 13.7536 11.0001 13.7502V13.7502ZM16.4451 18.1053C16.2618 18.2591 16.0256 18.3352 15.787 18.3173C15.5484 18.2993 15.3262 18.1888 15.168 18.0093C15.0098 17.8297 14.928 17.5955 14.9402 17.3565C14.9524 17.1175 15.0576 16.8928 15.2332 16.7303C16.1246 15.9486 16.7816 14.9349 17.1313 13.8021C17.4811 12.6693 17.5097 11.4617 17.2142 10.3136C17.1534 10.078 17.1887 9.82794 17.3123 9.61838C17.4359 9.40883 17.6377 9.25696 17.8732 9.19618C18.1088 9.1354 18.3589 9.17069 18.5684 9.29429C18.778 9.4179 18.9299 9.61968 18.9906 9.85526C19.1628 10.5289 19.2499 11.2215 19.2501 11.9168C19.2487 13.0884 18.9979 14.2462 18.5142 15.3132C18.0306 16.3803 17.3252 17.332 16.4451 18.1053V18.1053Z" fill="#2A464D"/>
</g>
<defs>
<clipPath id="clip0_71_9531">
<rect width="22" height="22" fill="white"/>
</clipPath>
</defs>
</svg>
