<svg width="22" height="22" viewBox="0 0 22 22" fill="none" xmlns="http://www.w3.org/2000/svg">
<path fill-rule="evenodd" clip-rule="evenodd" d="M5.90745 2.97913C3.2777 2.97913 1.14587 5.11096 1.14587 7.7407C1.14587 8.50312 1.58311 9.19799 2.27045 9.52791L2.7172 9.74235C3.77231 10.2488 3.77231 11.7511 2.7172 12.2576L2.27045 12.472C1.58311 12.8019 1.14587 13.4968 1.14587 14.2592C1.14587 16.889 3.2777 19.0208 5.90745 19.0208H16.0926C18.7224 19.0208 20.8542 16.889 20.8542 14.2592C20.8542 13.4968 20.417 12.8019 19.7296 12.472L19.2829 12.2576C18.2278 11.7511 18.2278 10.2488 19.2829 9.74235L19.7296 9.52791C20.417 9.19799 20.8542 8.50312 20.8542 7.7407C20.8542 5.11096 18.7224 2.97913 16.0926 2.97913H5.90745ZM13.9216 8.07838C14.1901 8.34686 14.1901 8.78216 13.9216 9.05065L8.73618 14.2361C8.46769 14.5046 8.03239 14.5046 7.7639 14.2361C7.49542 13.9676 7.49542 13.5323 7.7639 13.2638L12.9494 8.07838C13.2178 7.80989 13.6531 7.80989 13.9216 8.07838ZM8.25004 9.16663C7.74378 9.16663 7.33337 8.75622 7.33337 8.24996C7.33337 7.7437 7.74378 7.33329 8.25004 7.33329C8.7563 7.33329 9.16671 7.7437 9.16671 8.24996C9.16671 8.75622 8.7563 9.16663 8.25004 9.16663ZM13.75 14.6666C13.2438 14.6666 12.8334 14.2562 12.8334 13.75C12.8334 13.2437 13.2438 12.8333 13.75 12.8333C14.2563 12.8333 14.6667 13.2437 14.6667 13.75C14.6667 14.2562 14.2563 14.6666 13.75 14.6666Z" fill="#2A464D"/>
</svg>
