<svg width="40" height="40" viewBox="0 0 40 40" fill="none" xmlns="http://www.w3.org/2000/svg">
<g clip-path="url(#clip0_10_5383)">
<path d="M2.04167 14.1119C2.21833 13.9069 14.1333 2.41523 14.1333 2.41523C15.7038 0.874392 17.8175 0.0132855 20.0176 0.0179633C22.2178 0.0226411 24.3277 0.892728 25.8917 2.44023C25.8917 2.44023 37.7817 13.9069 37.9567 14.1069L23.535 28.5302C22.5822 29.4385 21.3163 29.9452 20 29.9452C18.6837 29.9452 17.4178 29.4385 16.465 28.5302L2.04167 14.1119ZM25.8917 30.8936C24.3238 32.4461 22.2065 33.317 20 33.317C17.7935 33.317 15.6762 32.4461 14.1083 30.8936L0.381667 17.1669C0.142083 17.9267 0.0135327 18.717 0 19.5136L0 31.6669C0.00264643 33.8762 0.88147 35.9943 2.4437 37.5565C4.00593 39.1188 6.12401 39.9976 8.33333 40.0002H31.6667C33.876 39.9976 35.9941 39.1188 37.5563 37.5565C39.1185 35.9943 39.9974 33.8762 40 31.6669V19.5136C39.9865 18.717 39.8579 17.9267 39.6183 17.1669L25.8917 30.8936Z" fill="#FF746C"/>
</g>
<defs>
<clipPath id="clip0_10_5383">
<rect width="40" height="40" fill="white"/>
</clipPath>
</defs>
</svg>
