<svg width="62" height="62" viewBox="0 0 62 62" fill="none" xmlns="http://www.w3.org/2000/svg">
<circle cx="31" cy="31" r="31" fill="#2A464D"/>
<mask id="mask0_45_5089" style="mask-type:alpha" maskUnits="userSpaceOnUse" x="0" y="0" width="62" height="62">
<path d="M31 62C48.1208 62 62 48.1208 62 31C62 13.8792 48.1208 0 31 0H0V31C0 48.1208 13.8792 62 31 62Z" fill="#D9D9D9"/>
</mask>
<g mask="url(#mask0_45_5089)">
<path d="M41.0699 28.6572V53.3226C41.0699 58.7167 36.6972 63.0893 31.3032 63.0893H20.5544C17.0437 61.9798 13.8068 60.2512 10.9722 58.0322C7.31986 55.1726 4.33653 51.4965 2.29724 47.2798V28.6572C2.29724 23.2631 6.66986 18.8905 12.0639 18.8905H31.3032C36.6972 18.8905 41.0699 23.2631 41.0699 28.6572Z" fill="#F5F8F9"/>
<path d="M9.76391 28.6572V53.3226C9.76391 55.0298 10.202 56.6357 10.9722 58.0322C7.31986 55.1726 4.33653 51.4965 2.29724 47.2798V28.6572C2.29724 23.2631 6.66986 18.8905 12.0639 18.8905H19.5306C14.1365 18.8905 9.76391 23.2631 9.76391 28.6572Z" fill="#DEDBEE"/>
<path d="M35.4651 7.43332V15.7809H7.90198V7.43332C7.90198 5.28689 9.64126 3.54761 11.7877 3.54761H31.5794C33.7258 3.54761 35.4651 5.28689 35.4651 7.43332Z" fill="#FFE177"/>
<path d="M18.7886 6.36462C17.9774 6.36462 17.3198 7.02224 17.3198 7.83343V13.6925H20.2574V7.83343C20.2574 7.02224 19.5998 6.36462 18.7886 6.36462Z" fill="#FFD15B"/>
<path d="M23.629 6.36462C22.8178 6.36462 22.1602 7.02224 22.1602 7.83343V13.6925H25.0978V7.83343C25.0977 7.02224 24.4402 6.36462 23.629 6.36462Z" fill="#FFD15B"/>
<path d="M29.0174 6.36462C28.2062 6.36462 27.5486 7.02224 27.5486 7.83343V13.6925H30.4862V7.83343C30.4861 7.02224 29.8286 6.36462 29.0174 6.36462Z" fill="#FFD15B"/>
<path d="M7.90198 11.8809H35.4651V15.7809H7.90198V11.8809Z" fill="#FFD15B"/>
<path d="M19.3163 3.54761C17.171 3.54761 15.4317 5.28689 15.4317 7.43332V15.7809H7.90198V7.43332C7.90198 5.28689 9.64126 3.54761 11.7877 3.54761H19.3163Z" fill="#FFD15B"/>
<path d="M35.251 13.4947H8.11581C6.45295 13.4947 5.10486 14.8428 5.10486 16.5056C5.10486 18.1685 6.45295 19.5166 8.11581 19.5166H35.251C36.9139 19.5166 38.262 18.1685 38.262 16.5056C38.262 14.8427 36.914 13.4947 35.251 13.4947Z" fill="#FFE177"/>
<path d="M13.5144 18.6343C14.0596 19.1795 14.8132 19.5164 15.6441 19.5164H8.11676C7.28462 19.5164 6.53224 19.1795 5.987 18.6343C5.44176 18.0902 5.10486 17.3379 5.10486 16.5057C5.10486 14.8426 6.45367 13.495 8.11676 13.495H15.6441C13.981 13.495 12.6322 14.8426 12.6322 16.5057C12.6322 17.3379 12.9691 18.0902 13.5144 18.6343Z" fill="#FFD15B"/>
<path d="M30.3311 35.4751H26.4102V31.5541C26.4102 30.2777 25.3754 29.2428 24.0989 29.2428H19.2678C17.9914 29.2428 16.9565 30.2776 16.9565 31.5541V35.4751H13.0356C11.7591 35.4751 10.7242 36.5098 10.7242 37.7864V42.6174C10.7242 43.8939 11.759 44.9287 13.0356 44.9287H16.9565V48.8497C16.9565 50.1261 17.9913 51.161 19.2678 51.161H24.0989C25.3753 51.161 26.4102 50.1262 26.4102 48.8497V44.9287H30.3311C31.6076 44.9287 32.6425 43.894 32.6425 42.6174V37.7864C32.6425 36.5098 31.6077 35.4751 30.3311 35.4751Z" fill="#FF746C"/>
</g>
<path d="M50.2718 36.7394L52.3152 42.1566L50.2718 47.5737H44.7386C43.2419 47.5737 41.8887 46.9674 40.9082 45.9869C39.9277 45.0065 39.3214 43.6518 39.3214 42.1566C39.3214 39.1647 41.7466 36.7394 44.7386 36.7394H50.2718Z" fill="#FF746C"/>
<path d="M52.3146 42.1567L50.2718 47.5739H44.7386C43.2419 47.5739 41.8887 46.9676 40.9082 45.9871C39.9277 45.0066 39.3214 43.652 39.3214 42.1567C39.3214 41.5559 39.4197 40.9783 39.6 40.4374C39.8676 41.2432 40.3211 41.9641 40.9082 42.5514C41.8887 43.5318 43.2419 44.1382 44.7386 44.1382H50.2718L51.6674 40.4389L52.3146 42.1567Z" fill="#E2635C"/>
<path d="M61.2222 42.1567C61.2222 45.1486 58.797 47.5738 55.8051 47.5738H50.2719V36.7394H55.8051C57.3017 36.7394 58.6549 37.3458 59.6354 38.3262C60.6159 39.3067 61.2222 40.6613 61.2222 42.1567Z" fill="#FFE177"/>
<path d="M61.2222 42.1567C61.2222 45.1486 58.797 47.5739 55.8051 47.5739H50.2719V44.1382H55.8051C58.1961 44.1382 60.2254 42.5896 60.9436 40.4402C61.1253 40.9796 61.2222 41.5572 61.2222 42.1567Z" fill="#FFD15B"/>
<path d="M46.8026 46.5207L44.417 51.7962L39.1415 54.1818L35.2289 50.2691C34.1706 49.2108 33.6425 47.8252 33.6425 46.4387C33.6425 45.052 34.1716 43.6654 35.2289 42.6082C37.3445 40.4926 40.7744 40.4926 42.89 42.6082L46.8026 46.5207Z" fill="#FFE177"/>
<path d="M44.4166 51.7958L39.1415 54.1817L35.2289 50.2691C34.1706 49.2108 33.6425 47.8252 33.6425 46.4385C33.6425 45.052 34.1716 43.6653 35.2289 42.608C35.6538 42.1832 36.1317 41.8442 36.6415 41.5894C36.261 42.3483 36.0719 43.1788 36.0719 44.0091C36.0719 45.3957 36.6001 46.7814 37.6583 47.8396L41.5709 51.7522L45.1735 50.1233L44.4166 51.7958Z" fill="#FFD15B"/>
<path d="M50.7152 58.0944C48.5996 60.21 45.1697 60.21 43.0541 58.0944L39.1415 54.1818L46.8026 46.5207L50.7152 50.4333C51.7735 51.4916 52.3016 52.8772 52.3017 54.2638C52.3017 55.6505 51.7726 57.037 50.7152 58.0944Z" fill="#FF746C"/>
<path d="M50.7152 58.0944C48.5996 60.21 45.1697 60.21 43.0541 58.0944L39.1415 54.1818L41.5709 51.7524L45.4835 55.665C47.1742 57.3557 49.7041 57.6957 51.7318 56.6837C51.479 57.1935 51.1391 57.6705 50.7152 58.0944Z" fill="#E2635C"/>
</svg>
