<svg width="22" height="22" viewBox="0 0 22 22" fill="none" xmlns="http://www.w3.org/2000/svg">
<path d="M17.4113 4.25557C16.8492 4.07838 16.2175 3.99235 15.4877 3.94731C14.6535 3.89584 13.6397 3.89584 12.396 3.89584H9.58868C8.11891 3.89584 6.9667 3.89583 6.04619 3.98336C5.10794 4.07256 4.33968 4.25753 3.66242 4.67255C2.9532 5.10716 2.35691 5.70345 1.9223 6.41267C1.90691 6.4378 1.89183 6.46305 1.87705 6.48843C1.94791 5.16555 2.13297 4.28939 2.61634 3.59579C2.86929 3.23282 3.17547 2.91362 3.52363 2.6499C4.60167 1.83334 6.13947 1.83334 9.21508 1.83334H14.1364C15.683 1.83334 16.4563 1.83334 16.9368 2.33426C17.3058 2.71897 17.3914 3.28376 17.4113 4.25557Z" fill="#2A464D"/>
<path d="M2.50841 6.77189C1.83301 7.87404 1.83301 9.37437 1.83301 12.375C1.83301 15.3757 1.83301 16.876 2.50841 17.9781C2.88633 18.5948 3.40484 19.1134 4.02156 19.4913C5.12371 20.1667 6.62403 20.1667 9.62467 20.1667H12.3747C15.3753 20.1667 16.8756 20.1667 17.9778 19.4913C18.5945 19.1134 19.113 18.5948 19.4909 17.9781C19.9345 17.2543 20.0868 16.3587 20.139 14.9792H14.3331C12.5727 14.9792 11.1456 13.5521 11.1456 11.7917C11.1456 10.0313 12.5727 8.60419 14.3331 8.60419H20.0542C19.9623 7.84551 19.7951 7.26831 19.4909 6.77189C19.113 6.15518 18.5945 5.63666 17.9778 5.25874C17.8022 5.15116 17.6166 5.06071 17.4163 4.98467C16.3596 4.58334 14.8973 4.58334 12.3747 4.58334H9.62467C6.62403 4.58334 5.12371 4.58334 4.02156 5.25874C3.40484 5.63666 2.88633 6.15518 2.50841 6.77189Z" fill="#2A464D"/>
<path fill-rule="evenodd" clip-rule="evenodd" d="M20.1461 9.97919H14.3331C13.3321 9.97919 12.5206 10.7907 12.5206 11.7917C12.5206 12.7927 13.3321 13.6042 14.3331 13.6042H20.1642C20.1663 13.2245 20.1663 12.816 20.1663 12.375C20.1663 11.4425 20.1663 10.655 20.1461 9.97919ZM14.3331 11.1042C13.9534 11.1042 13.6456 11.412 13.6456 11.7917C13.6456 12.1714 13.9534 12.4792 14.3331 12.4792H16.8331C17.2128 12.4792 17.5206 12.1714 17.5206 11.7917C17.5206 11.412 17.2128 11.1042 16.8331 11.1042H14.3331Z" fill="#2A464D"/>
</svg>
