<svg xmlns="http://www.w3.org/2000/svg" width="129" height="40" fill="none"><path fill="#087ED8" d="M32.23 32V10.144h14.528v3.68H36.646v5.312h8.192v3.616h-8.192v5.568h10.112V32zm17.625 0V10.144h8.352q2.56 0 4.288.736 1.76.705 2.816 2.08t1.504 3.328q.48 1.952.48 4.448 0 2.527-.448 4.576-.416 2.048-1.44 3.552T62.655 31.2q-1.728.8-4.32.8zm4.416-3.712h3.808q1.504 0 2.432-.576a3.67 3.67 0 0 0 1.408-1.6q.511-1.056.672-2.4.192-1.376.192-2.976 0-1.536-.192-2.784-.192-1.28-.704-2.176a3.2 3.2 0 0 0-1.408-1.408q-.895-.512-2.4-.512h-3.808z"/><path fill="#000" d="M77.677 32.352q-1.215 0-2.656-.16a57 57 0 0 1-2.816-.32l-2.304-.384L70.19 28q.992.128 2.304.288 1.313.128 2.592.224 1.312.096 2.272.096 1.824 0 2.656-.704.832-.736.832-2.272 0-.832-.352-1.312-.32-.512-1.184-.8-.864-.32-2.4-.608-2.56-.48-4.16-1.184-1.567-.704-2.304-1.984-.704-1.28-.704-3.424 0-2.496.928-3.904.928-1.44 2.656-2.048t4.064-.608q1.056 0 2.4.128 1.376.097 2.688.256 1.344.16 2.272.352l-.192 3.52q-.96-.128-2.24-.224a99 99 0 0 0-2.496-.224 27 27 0 0 0-2.08-.096q-1.824 0-2.688.576t-.864 1.856q0 .96.384 1.472t1.28.832q.928.32 2.528.672 1.888.416 3.2.896 1.344.48 2.144 1.152.832.672 1.216 1.728t.384 2.656q0 2.56-.928 4.128-.896 1.536-2.624 2.24-1.695.672-4.096.672m14.645 0q-2.496 0-3.776-1.248-1.248-1.28-1.248-3.84 0-1.793.64-2.784.64-1.024 1.888-1.472 1.28-.48 3.104-.576l3.904-.352v-.96q0-1.152-.576-1.6-.576-.48-1.696-.48-.895 0-2.08.064a84 84 0 0 0-2.304.16q-1.12.096-1.952.192l-.128-3.008a33 33 0 0 1 1.984-.384q1.185-.225 2.464-.352a24 24 0 0 1 2.368-.128q2.049 0 3.424.512 1.377.512 2.08 1.696.704 1.152.704 3.136v7.328q.064.448.48.704.417.224.96.32l-.096 2.944q-.768.032-1.504.032-.735 0-1.248-.096a3.8 3.8 0 0 1-1.28-.384 3.8 3.8 0 0 1-.832-.608q-.512.224-1.376.512t-1.888.48q-.991.192-2.016.192m1.024-3.168a7 7 0 0 0 1.28-.128q.672-.128 1.248-.288a9 9 0 0 0 .96-.352v-3.68l-3.264.288q-1.056.096-1.536.64-.448.512-.448 1.472t.416 1.504q.449.544 1.344.544M105.008 32V9.376h4.256V32zm14.4.352q-2.657 0-4.224-.896-1.536-.896-2.208-2.72t-.672-4.576q0-2.976.832-4.864.864-1.889 2.496-2.784 1.632-.928 4.032-.928 3.552 0 5.344 1.792 1.824 1.793 1.824 5.664l-.192 2.368h-10.048q.031 1.792.736 2.688.704.896 2.432.896.991 0 2.176-.032l2.336-.128a91 91 0 0 0 2.016-.128l.096 2.976q-.801.127-2.016.288a44 44 0 0 1-2.528.256q-1.28.128-2.432.128m-2.816-9.664h5.984q0-2.175-.704-3.04-.672-.864-2.208-.864-1.505 0-2.304.896-.768.896-.768 3.008"/><path fill="#0C578F" d="M22.43 16.96c-2.497-1.36-3.235-1.765-3.485-1.895a.65.65 0 0 0-.434-.09l-4.165.586c-4.69 4.892 7.111 3.403 8.084 1.398M24.001 1.988C21.193.464 20.587.131 20.418.048c-.13-.064-.218-.05-.305-.037C11.227 1.25 9.027 1.552 8.431 1.644c-.428.066-.64.178-.844.779C7.105 3.84 4.382 11.936.049 24.809c-.13.388.012.756.292.909l3.528 1.919C3.861 27.632 18.395 8.54 23.61 1.923a.67.67 0 0 1 .391.065M5.964 25.17c.727.395.43.511-3.867 11.901-.158.419-.036.729.198.883.206.136.866.483 3.598 1.97 1.408-1.649 10.16-19.956.071-14.754"/><path fill="#087ED8" d="M23.61 1.923c.593-.083.939.588.598 1.16L16.316 16.34c-.476.8-.011 1.36.523 1.285l5.2-.73c.63-.09.965.665.548 1.235L6.878 39.587c-.614.838-1.605.293-1.239-.671l4.134-10.883c.21-.552-.144-1.084-.671-1.01l-4.841.68c-.514.073-.866-.432-.684-.974L11.09 4.405c.264-.782.494-.792 1.074-.873z"/></svg>