<svg xmlns="http://www.w3.org/2000/svg" width="96" height="17" fill="none"><path fill="#FFB800" d="m8.836.997 2.245 3.818 4.178 1.053c.52.132.84.677.713 1.22-.036.156-.104.3-.205.422l-2.787 3.415.334 4.485c.04.558-.362 1.045-.896 1.087a.93.93 0 0 1-.502-.1L8 14.704l-3.976 1.716c-.496.212-1.062-.033-1.265-.551a1.05 1.05 0 0 1-.072-.46l.333-4.485L.233 7.51a1.045 1.045 0 0 1 .106-1.428.95.95 0 0 1 .44-.225l4.14-1.042L7.174.985A.95.95 0 0 1 8.51.65c.139.088.25.21.326.346M28.836.997l2.245 3.818 4.178 1.053c.52.132.84.677.713 1.22-.036.156-.104.3-.205.422l-2.787 3.415.334 4.485c.04.558-.362 1.045-.896 1.087a.93.93 0 0 1-.502-.1L28 14.704l-3.976 1.716c-.496.212-1.062-.033-1.265-.551a1.05 1.05 0 0 1-.072-.46l.333-4.485-2.787-3.415a1.045 1.045 0 0 1 .106-1.428.95.95 0 0 1 .44-.225l4.14-1.042 2.254-3.83A.95.95 0 0 1 28.51.65c.139.088.25.21.325.346M48.836.997l2.245 3.818 4.178 1.053c.52.132.84.677.713 1.22-.036.156-.104.3-.205.422l-2.787 3.415.334 4.485c.04.558-.362 1.045-.896 1.087a.93.93 0 0 1-.502-.1L48 14.704l-3.976 1.716c-.496.212-1.062-.033-1.265-.551a1.05 1.05 0 0 1-.072-.46l.333-4.485-2.787-3.415a1.045 1.045 0 0 1 .106-1.428.95.95 0 0 1 .44-.225l4.14-1.042 2.254-3.83A.95.95 0 0 1 48.51.65c.139.088.25.21.326.346M68.836.997l2.245 3.818 4.178 1.053c.52.132.84.677.713 1.22-.036.156-.104.3-.205.422l-2.787 3.415.334 4.485c.04.558-.362 1.045-.896 1.087a.93.93 0 0 1-.502-.1L68 14.704l-3.976 1.716c-.496.212-1.062-.033-1.265-.551a1.05 1.05 0 0 1-.072-.46l.333-4.485-2.787-3.415a1.045 1.045 0 0 1 .106-1.428.95.95 0 0 1 .44-.225l4.14-1.042 2.254-3.83A.95.95 0 0 1 68.51.65c.139.088.25.21.325.346M88.836.997l2.245 3.818 4.178 1.053c.52.132.84.677.713 1.22-.036.156-.104.3-.205.422l-2.787 3.415.334 4.485c.04.558-.362 1.045-.896 1.087a.93.93 0 0 1-.502-.1L88 14.704l-3.976 1.716c-.496.212-1.062-.033-1.265-.551a1.05 1.05 0 0 1-.072-.46l.333-4.485-2.787-3.415a1.045 1.045 0 0 1 .106-1.428.95.95 0 0 1 .44-.225l4.14-1.042 2.254-3.83A.95.95 0 0 1 88.51.65c.139.088.25.21.325.346"/></svg>