<svg width="155" height="155" viewBox="0 0 155 155" fill="none" xmlns="http://www.w3.org/2000/svg">
<path d="M80.913 68.418C78.8699 74.4705 73.4446 78.1476 67.4768 78.1476C66.521 78.1476 65.5838 77.9229 64.6447 77.7307L71.8937 88.6043C73.2862 90.6929 72.7229 93.5089 70.6343 94.9015C68.5124 96.3077 65.707 95.6998 64.3371 93.6421L54.4922 78.8747V131.992H141.377C148.889 131.992 155 125.881 155 118.369V68.418H80.913ZM132.295 113.828H95.3613C92.8514 113.828 90.8203 111.797 90.8203 109.287C90.8203 106.777 92.8514 104.746 95.3613 104.746H132.295C134.805 104.746 136.836 106.777 136.836 109.287C136.836 111.797 134.805 113.828 132.295 113.828ZM132.295 95.6641H95.3613C92.8514 95.6641 90.8203 93.633 90.8203 91.123C90.8203 88.6131 92.8514 86.582 95.3613 86.582H132.295C134.805 86.582 136.836 88.6131 136.836 91.123C136.836 93.633 134.805 95.6641 132.295 95.6641Z" fill="#477215"/>
<path d="M64.6072 59.5621L58.1372 63.877L64.6072 68.1918C68.0518 70.4878 72.656 68.0211 72.656 63.8815C72.656 59.7234 68.0384 57.2746 64.6072 59.5621Z" fill="#477215"/>
<path d="M13.623 23.0078C6.111 23.0078 0 29.1188 0 36.6309V59.3359H18.9893C22.0609 50.2379 32.6263 46.873 40.3324 52.0055L45.4102 55.3913V23.0078H13.623Z" fill="#477215"/>
<path d="M141.377 23.0078H54.4922V55.3913L59.5696 52.0055C67.1943 46.9117 77.8224 50.1707 80.9148 59.3359H155V36.6309C155 29.1188 148.889 23.0078 141.377 23.0078Z" fill="#477215"/>
<path d="M35.2949 59.5621C31.8452 57.2622 27.2461 59.744 27.2461 63.8724C27.2461 68.0132 31.8337 70.4953 35.2949 68.1918L41.7649 63.877L35.2949 59.5621Z" fill="#477215"/>
<path d="M35.5652 93.6418C34.1727 95.7216 31.3569 96.2759 29.2681 94.9012C27.1795 93.5086 26.6161 90.6929 28.0087 88.604L35.2577 77.7304C34.3186 77.9226 33.3813 78.1472 32.4256 78.1472C26.4432 78.1472 21.0243 74.4554 18.9872 68.4177H0V118.369C0 125.881 6.111 131.992 13.623 131.992H45.4102V78.8747L35.5652 93.6418Z" fill="#477215"/>
</svg>
