<svg xmlns="http://www.w3.org/2000/svg" width="140" height="140" fill="none"><path fill="#2A464D" d="M47.852 22a47.65 47.65 0 0 0-30.21 10.742v74.219a47.65 47.65 0 0 0 30.21 10.742c26.427 0 47.851-21.424 47.851-47.851C95.703 43.424 74.28 22 47.852 22"/><path fill="#FF746C" d="M100 40.555v58.593a7.813 7.813 0 0 1-7.812 7.813H17.64C6.875 98.188 0 84.822 0 69.851s6.875-28.335 17.64-37.109h74.547A7.813 7.813 0 0 1 100 40.555"/><path fill="#E2635C" d="M17.643 106.961h24.025a7.813 7.813 0 0 1-7.812-7.813V40.555a7.813 7.813 0 0 1 7.812-7.813H17.643C6.877 41.517 0 54.88 0 69.852s6.877 28.334 17.643 37.109"/><path fill="#FFC839" d="M9.766 46.414a3.906 3.906 0 0 1 3.906-3.906h31.25a3.906 3.906 0 1 1 0 7.812h-31.25a3.906 3.906 0 0 1-3.906-3.906"/><path fill="#FFB332" d="M21.484 46.414a3.906 3.906 0 0 1 3.907-3.906H13.67a3.906 3.906 0 1 0 0 7.812h11.72a3.906 3.906 0 0 1-3.907-3.906M66.344 108.914h11.719a1.953 1.953 0 0 0 1.953-1.953V32.742a1.953 1.953 0 0 0-1.953-1.953H66.344a1.953 1.953 0 0 0-1.953 1.953v74.219c0 1.079.874 1.953 1.953 1.953"/><path fill="#FF9433" d="M80.016 106.822a7.813 7.813 0 0 0-15.625 0v-48.55a7.813 7.813 0 0 0 15.625 0z"/><path fill="#FFC839" d="M70.25 108.914h-2.93V30.789h2.93z"/><path fill="#FFB332" d="M67.32 100.726a7.8 7.8 0 0 1 2.93-1.47V65.838a7.8 7.8 0 0 1-2.93-1.47z"/><path fill="#FFC839" d="M74.157 30.79h2.93v78.124h-2.93z"/><path fill="#FFB332" d="M74.157 99.256c1.086.28 2.08.789 2.93 1.47V64.368a7.8 7.8 0 0 1-2.93 1.47z"/><path fill="#FFE177" d="M74.157 79.199h19.108c0-6.558-2.953-13.115-5.78-13.115-7.097 0-13.328 12.163-13.328 12.163z"/><path fill="#FFC839" d="M70.25 78.247s-6.23-12.163-13.328-12.163c-2.827 0-5.78 6.557-5.78 13.115h19.109zM70.25 85.895H51.143c0 6.557 2.952 13.115 5.779 13.115 7.097 0 13.328-12.163 13.328-12.163z"/><path fill="#FFE177" d="M74.157 86.847s6.23 12.163 13.328 12.163c2.827 0 5.78-6.557 5.78-13.115H74.155z"/><path fill="#FFE177" d="M74.157 85.564s11.47 8.638 17.568 8.638c6.097 0 6.097-23.31 0-23.31S74.157 79.53 74.157 79.53zM70.25 79.53s-11.47-8.638-17.568-8.638c-6.097 0-6.097 23.31 0 23.31s17.568-8.638 17.568-8.638z"/><path fill="#FCF2C8" d="M74.157 74.734c-.713 0-1.379.194-1.953.527a3.9 3.9 0 0 0-1.954-.527 3.906 3.906 0 0 0-3.906 3.907v7.812a3.906 3.906 0 0 0 3.906 3.906c.713 0 1.379-.193 1.954-.526a3.906 3.906 0 0 0 5.86-3.38v-7.812a3.906 3.906 0 0 0-3.907-3.907"/><path fill="#FFE177" d="M70.25 86.453v-7.812c0-1.445.787-2.704 1.954-3.38a3.9 3.9 0 0 0-1.954-.526 3.906 3.906 0 0 0-3.906 3.906v7.812a3.906 3.906 0 0 0 3.906 3.907c.713 0 1.379-.194 1.954-.527a3.9 3.9 0 0 1-1.954-3.38"/><path fill="#FFC839" d="M13.672 62.04a3.906 3.906 0 1 0 0-7.813 3.906 3.906 0 0 0 0 7.812"/><path fill="#FFB332" d="M13.672 58.133c0-1.445.787-2.704 1.953-3.38a3.9 3.9 0 0 0-1.953-.526 3.906 3.906 0 1 0 0 7.812c.712 0 1.378-.194 1.953-.527a3.9 3.9 0 0 1-1.953-3.38"/><path fill="#FFC839" d="M25.39 62.04a3.906 3.906 0 1 0 0-7.813 3.906 3.906 0 0 0 0 7.812"/><path fill="#FFB332" d="M25.39 58.133c0-1.445.787-2.704 1.954-3.38a3.9 3.9 0 0 0-1.953-.526 3.906 3.906 0 1 0 0 7.812c.712 0 1.378-.194 1.953-.527a3.9 3.9 0 0 1-1.953-3.38"/></svg>