<svg xmlns="http://www.w3.org/2000/svg" width="40" height="40" fill="none"><g clip-path="url(#a)"><path fill="#FF746C" d="M20 40c11.046 0 20-8.954 20-20S31.046 0 20 0 0 8.954 0 20s8.954 20 20 20"/><path fill="#2A464D" d="M16.663 33.98c-1.642-.021-3.013-1.42-3.045-3.095a614 614 0 0 1-.063-4.44q-2.22-.022-4.44-.063C7.44 26.35 6.042 24.98 6.02 23.337a273 273 0 0 1 0-6.674c.021-1.642 1.42-3.013 3.095-3.045q2.22-.04 4.44-.063a620 620 0 0 1 .063-4.44c.032-1.675 1.403-3.073 3.045-3.095a273 273 0 0 1 6.674 0c1.642.022 3.013 1.42 3.046 3.095q.04 2.22.062 4.44 2.22.023 4.44.063c1.675.032 3.074 1.403 3.095 3.045q.04 3.338 0 6.674c-.021 1.642-1.42 3.013-3.095 3.045q-2.22.04-4.44.063-.023 2.22-.062 4.44c-.033 1.675-1.404 3.073-3.046 3.095q-3.337.04-6.674 0"/><path fill="#E3E3E3" d="M21.381 22.4q-.004 4.78-.024 9.558 1.002-.003 2.003-.014a1.04 1.04 0 0 0 1.014-1.03q.033-2.733.05-5.468a1.03 1.03 0 0 1 1.022-1.022q-2.028-1.005-4.065-2.023M24.424 14.554a906 906 0 0 0-.05-5.469 1.04 1.04 0 0 0-1.014-1.029q-1.001-.01-2.003-.014.02 4.778.024 9.557 2.038-1.018 4.065-2.023a1.03 1.03 0 0 1-1.022-1.022M30.915 15.626q-1.017-.012-2.034-.022.045 4.395 0 8.792 1.017-.01 2.034-.022a1.04 1.04 0 0 0 1.029-1.014q.035-3.36 0-6.72a1.04 1.04 0 0 0-1.029-1.014"/><path fill="#fff" d="M29.908 23.379q.03-3.379 0-6.758a1.037 1.037 0 0 0-1.027-1.017q-2.734-.027-5.469-.038a1.025 1.025 0 0 1-1.02-1.022 1667 1667 0 0 0-.026-5.478 1.025 1.025 0 0 0-1.009-1.024 324 324 0 0 0-4.717.014 1.04 1.04 0 0 0-1.014 1.03 898 898 0 0 0-.05 5.468 1.03 1.03 0 0 1-1.022 1.022q-2.734.017-5.469.05a1.04 1.04 0 0 0-1.029 1.014q-.034 3.36 0 6.72a1.04 1.04 0 0 0 1.03 1.014q2.733.033 5.468.05a1.03 1.03 0 0 1 1.022 1.022q.017 2.734.05 5.469a1.04 1.04 0 0 0 1.014 1.029q2.36.024 4.717.014a1.025 1.025 0 0 0 1.009-1.024q.018-2.739.026-5.478a1.025 1.025 0 0 1 1.02-1.022q2.734-.01 5.47-.038a1.037 1.037 0 0 0 1.026-1.017"/></g><defs><clipPath id="a"><path fill="#fff" d="M0 0h40v40H0z"/></clipPath></defs></svg>