<svg width="8" height="15" viewBox="0 0 8 15" fill="none" xmlns="http://www.w3.org/2000/svg">
<g clip-path="url(#clip0_90_15277)">
<path d="M7.58994 0.789939C7.68367 0.882902 7.75807 0.993503 7.80884 1.11536C7.8596 1.23722 7.88574 1.36793 7.88574 1.49994C7.88574 1.63195 7.8596 1.76266 7.80884 1.88451C7.75807 2.00637 7.68367 2.11697 7.58994 2.20994L3.00995 6.78994C2.91623 6.8829 2.84183 6.9935 2.79106 7.11536C2.74029 7.23722 2.71416 7.36793 2.71416 7.49994C2.71416 7.63195 2.74029 7.76266 2.79106 7.88452C2.84183 8.00638 2.91623 8.11698 3.00995 8.20994L7.58994 12.7899C7.68367 12.8829 7.75807 12.9935 7.80884 13.1154C7.8596 13.2372 7.88574 13.3679 7.88574 13.4999C7.88574 13.632 7.8596 13.7627 7.80884 13.8845C7.75807 14.0064 7.68367 14.117 7.58994 14.2099C7.40258 14.3962 7.14913 14.5007 6.88495 14.5007C6.62076 14.5007 6.36731 14.3962 6.17995 14.2099L1.58996 9.61994C1.02816 9.05744 0.712598 8.29494 0.712598 7.49994C0.712598 6.70494 1.02816 5.94244 1.58996 5.37994L6.17995 0.789939C6.36731 0.603688 6.62076 0.499145 6.88495 0.499145C7.14913 0.499145 7.40258 0.603688 7.58994 0.789939Z" fill="#FF746C"/>
</g>
<defs>
<clipPath id="clip0_90_15277">
<rect width="14.0016" height="8" fill="white" transform="matrix(0 -1 -1 0 8 14.5007)"/>
</clipPath>
</defs>
</svg>
