<svg width="22" height="22" viewBox="0 0 22 22" fill="none" xmlns="http://www.w3.org/2000/svg">
<g clip-path="url(#clip0_45_5207)">
<path d="M14.6667 0.275C15.3136 0.496813 15.9024 0.861505 16.3891 1.342L17.9071 2.86183C18.3881 3.34793 18.7532 3.93641 18.975 4.58333H14.6667V0.275ZM19.25 6.41667V17.4167C19.2485 18.6318 18.7652 19.7967 17.906 20.656C17.0467 21.5152 15.8818 21.9985 14.6667 22H7.33333C6.1182 21.9985 4.95326 21.5152 4.09403 20.656C3.23481 19.7967 2.75146 18.6318 2.75 17.4167V4.58333C2.75146 3.3682 3.23481 2.20326 4.09403 1.34403C4.95326 0.484808 6.1182 0.00145554 7.33333 0L12.8333 0V4.58333C12.8333 5.06956 13.0265 5.53588 13.3703 5.8797C13.7141 6.22351 14.1804 6.41667 14.6667 6.41667H19.25ZM15.4073 15.9619C15.3366 15.8641 15.2473 15.7811 15.1444 15.7179C15.0415 15.6547 14.9272 15.6124 14.808 15.5935C14.6887 15.5746 14.5669 15.5794 14.4495 15.6077C14.3322 15.636 14.2215 15.6872 14.124 15.7584C13.5081 16.1871 12.7887 16.4432 12.0404 16.5C11.7472 16.492 11.4665 16.3799 11.2484 16.1838C10.77 15.8041 10.1797 15.5931 9.56908 15.5833C8.5522 15.6789 7.58364 16.0624 6.77692 16.6888C6.6768 16.7602 6.59206 16.851 6.52775 16.9558C6.46343 17.0606 6.42086 17.1772 6.40256 17.2988C6.38426 17.4204 6.39061 17.5444 6.42122 17.6635C6.45184 17.7826 6.5061 17.8943 6.58078 17.992C6.65545 18.0897 6.74902 18.1713 6.8559 18.2321C6.96278 18.2929 7.0808 18.3315 7.20293 18.3458C7.32506 18.36 7.4488 18.3495 7.56679 18.3149C7.68479 18.2804 7.79462 18.2224 7.88975 18.1445C8.37798 17.7621 8.95622 17.5115 9.56908 17.4167C9.79458 17.4167 9.90917 17.4882 10.2108 17.6917C10.7331 18.1042 11.3785 18.3301 12.0441 18.3333C13.1833 18.2813 14.2833 17.9015 15.2121 17.2397C15.4068 17.0958 15.5367 16.8805 15.5733 16.6411C15.6099 16.4017 15.5502 16.1575 15.4073 15.9619ZM15.5833 12.8333C15.5833 12.5902 15.4868 12.3571 15.3148 12.1852C15.1429 12.0132 14.9098 11.9167 14.6667 11.9167H7.33333C7.09022 11.9167 6.85706 12.0132 6.68515 12.1852C6.51324 12.3571 6.41667 12.5902 6.41667 12.8333C6.41667 13.0764 6.51324 13.3096 6.68515 13.4815C6.85706 13.6534 7.09022 13.75 7.33333 13.75H14.6667C14.9098 13.75 15.1429 13.6534 15.3148 13.4815C15.4868 13.3096 15.5833 13.0764 15.5833 12.8333ZM15.5833 9.16667C15.5833 8.92355 15.4868 8.69039 15.3148 8.51849C15.1429 8.34658 14.9098 8.25 14.6667 8.25H7.33333C7.09022 8.25 6.85706 8.34658 6.68515 8.51849C6.51324 8.69039 6.41667 8.92355 6.41667 9.16667C6.41667 9.40978 6.51324 9.64294 6.68515 9.81485C6.85706 9.98676 7.09022 10.0833 7.33333 10.0833H14.6667C14.9098 10.0833 15.1429 9.98676 15.3148 9.81485C15.4868 9.64294 15.5833 9.40978 15.5833 9.16667Z" fill="#2A464D"/>
</g>
<defs>
<clipPath id="clip0_45_5207">
<rect width="22" height="22" fill="white"/>
</clipPath>
</defs>
</svg>
