<svg width="28" height="30" viewBox="0 0 28 30" fill="none" xmlns="http://www.w3.org/2000/svg">
<path d="M25.5032 5.29779C23.5947 4.99399 21.7454 4.39334 20.0227 3.51763C18.5684 2.76572 17.2115 1.83876 15.9823 0.757387C15.4381 0.26969 14.733 0 14.0022 0C13.2713 0 12.5662 0.26969 12.022 0.757387C10.7928 1.83876 9.43591 2.76572 7.98162 3.51763C6.25886 4.39334 4.40965 4.99399 2.50113 5.29779C1.79182 5.42634 1.15118 5.8025 0.693303 6.35928C0.23543 6.91605 -0.00993633 7.61728 0.000907787 8.33806V16.2188C-0.0209266 17.8051 0.351422 19.3719 1.08454 20.7788C1.81766 22.1857 2.88861 23.3886 4.20128 24.2795L12.422 29.5399C12.8943 29.8404 13.4424 30 14.0022 30C14.5619 30 15.11 29.8404 15.5823 29.5399L23.803 24.2795C25.1157 23.3886 26.1867 22.1857 26.9198 20.7788C27.6529 19.3719 28.0252 17.8051 28.0034 16.2188V8.33806C28.0142 7.61728 27.7689 6.91605 27.311 6.35928C26.8531 5.8025 26.2125 5.42634 25.5032 5.29779ZM18.7096 13.0395L13.3751 18.372C13.1876 18.5594 12.9332 18.6648 12.668 18.6648C12.4028 18.6648 12.1485 18.5594 11.961 18.372L9.29474 15.7057C9.11256 15.5171 9.01176 15.2645 9.01404 15.0023C9.01632 14.74 9.12149 14.4892 9.30692 14.3038C9.49234 14.1183 9.74318 14.0132 10.0054 14.0109C10.2676 14.0086 10.5202 14.1094 10.7089 14.2916L12.668 16.2508L17.2954 11.6254C17.3877 11.5298 17.4981 11.4536 17.6201 11.4012C17.7421 11.3488 17.8733 11.3212 18.0061 11.3201C18.1389 11.3189 18.2706 11.3442 18.3935 11.3945C18.5164 11.4448 18.6281 11.5191 18.722 11.613C18.8159 11.7069 18.8901 11.8185 18.9404 11.9414C18.9907 12.0643 19.016 12.196 19.0149 12.3288C19.0137 12.4616 18.9861 12.5928 18.9337 12.7149C18.8813 12.8369 18.8051 12.9472 18.7096 13.0395Z" fill="#FF746C"/>
</svg>
