<svg width="94" height="50" viewBox="0 0 94 50" fill="none" xmlns="http://www.w3.org/2000/svg">
<g clip-path="url(#clip0_8714_7499)">
<path d="M7.20093 29.675H16.7709L16.2209 30.445H7.20093V29.675Z" fill="#D40511"/>
<path d="M86.1259 30.445H74.4109L75.016 29.675H86.1809V30.445H86.1259Z" fill="#D40511"/>
<path d="M7.20093 28.2451H17.8709L17.2659 29.0151H7.20093L7.20093 28.2451Z" fill="#D40511"/>
<path d="M7.20093 26.8152H18.9709L18.3659 27.5852H7.20093L7.20093 26.8152Z" fill="#D40511"/>
<path d="M86.1259 29.0151H75.5109L76.1159 28.2451H86.1809V29.0151H86.1259Z" fill="#D40511"/>
<path d="M77.1609 26.8152H86.1259V27.5852H76.5559L77.1609 26.8152Z" fill="#D40511"/>
<path d="M17.5409 30.4452L22.6009 23.6802H28.8709C29.5859 23.6802 29.5859 23.9552 29.2009 24.3952C28.8709 24.8352 28.2659 25.6602 27.9359 26.1002C27.7709 26.3752 27.4409 26.7602 28.4859 26.7602H36.9009C36.2409 27.7502 33.9309 30.5002 29.8609 30.5002C26.5609 30.4452 17.5409 30.4452 17.5409 30.4452Z" fill="#D40511"/>
<path d="M46.5259 26.8152L43.7759 30.5002H36.5709L39.3209 26.8152H46.5259Z" fill="#D40511"/>
<path d="M57.0309 26.8152L54.2809 30.5002H47.0209L49.7709 26.8152H57.0309Z" fill="#D40511"/>
<path d="M59.3959 26.8152C59.3959 26.8152 58.8459 27.5302 58.6259 27.8602C57.6909 29.0702 58.5159 30.5002 61.4859 30.5002H73.1459L75.8959 26.8152H59.3959Z" fill="#D40511"/>
<path d="M21.1159 19.5001L18.5859 22.8551H32.3359C33.0509 22.8551 33.0509 23.1301 32.6659 23.5701C32.3359 24.0101 31.7309 24.8351 31.4009 25.2751C31.2359 25.4951 30.9059 25.9351 31.9509 25.9351H37.5609C37.5609 25.9351 38.4959 24.7251 39.2109 23.6801C40.2559 22.3051 39.3209 19.4451 35.6359 19.4451C32.3359 19.5001 21.1159 19.5001 21.1159 19.5001Z" fill="#D40511"/>
<path d="M57.6359 25.935H39.9259L44.7659 19.5H52.0259L49.2759 23.185H52.5209L55.2709 19.5H62.5309L57.6359 25.935Z" fill="#D40511"/>
<path d="M72.5409 19.5L67.7009 25.935H60.0009L64.8409 19.5H72.5409Z" fill="#D40511"/>
</g>
<defs>
<clipPath id="clip0_8714_7499">
<rect width="78.925" height="11" fill="white" transform="translate(7.20093 19.5)"/>
</clipPath>
</defs>
</svg>
