<svg width="32" height="32" viewBox="0 0 32 32" fill="none" xmlns="http://www.w3.org/2000/svg">
<g clip-path="url(#clip0_1_4312)">
<path d="M31.1682 4.79983C32.265 3.70297 32.265 1.91946 31.1682 0.822599C30.0713 -0.274261 28.2878 -0.274261 27.1909 0.822599L20.961 7.06137H13.0058L0.00976562 20.0476L9.29085 29.3286L22.3042 16.3335V8.37805L23.9428 6.72154C25.7763 7.93378 28.2529 7.71502 29.8424 6.12564L31.1682 4.79983ZM15.3826 17.9339L14.0569 16.6082C14.4222 16.2419 14.4222 15.6477 14.0569 15.2815C13.6925 14.9171 13.0955 14.9161 12.7311 15.2824C12.3658 15.6477 12.3658 16.2419 12.7311 16.6082C13.828 17.705 13.828 19.4885 12.7311 20.5854C11.9685 21.348 10.766 21.6887 9.54986 21.1142L8.09011 22.574L6.76437 21.2482L8.22481 19.7878C7.73347 18.7444 7.89254 17.4698 8.75208 16.6082L10.0796 17.9339C9.71431 18.2992 9.71431 18.8943 10.0796 19.2596C10.445 19.6268 11.0401 19.625 11.4054 19.2596C11.7707 18.8943 11.7707 18.2992 11.4054 17.9339C10.3085 16.837 10.3085 15.0526 11.4054 13.9558C12.2679 13.0948 13.5427 12.9359 14.5856 13.4271L16.0455 11.9672L17.3712 13.2929L15.9116 14.7526C16.4039 15.7967 16.2444 17.0721 15.3826 17.9339ZM25.3149 5.34917L28.5167 2.14834C28.8829 1.78214 29.4762 1.78214 29.8424 2.14834C30.2077 2.51367 30.2077 3.10876 29.8424 3.47409L28.5167 4.79983C27.6515 5.66506 26.3605 5.84819 25.3149 5.34917Z" fill="#28D17C"/>
<path d="M24.1794 10.0518V17.1099L12.1959 29.0752L12.0381 30.3664L25.0712 32L27.242 13.9713L24.1794 10.0518Z" fill="#28D17C"/>
</g>
<defs>
<clipPath id="clip0_1_4312">
<rect width="32" height="32" fill="white"/>
</clipPath>
</defs>
</svg>
