<svg width="32" height="32" viewBox="0 0 32 32" fill="none" xmlns="http://www.w3.org/2000/svg">
<g clip-path="url(#clip0_1_4321)">
<path d="M24.1873 0.00205994V9.47768H14.9204V0.00205994H6.58789V18.1914L8.34352 16.9733H20.1041V17.9108C20.1041 20.7521 17.7954 23.0652 14.9554 23.0714L17.8304 25.4127H32.0004V0.00205994H24.1873ZM29.796 23.0639C28.5668 23.0624 27.5137 22.2824 27.1173 21.1633H25.506C25.1095 22.2824 24.0565 23.0624 22.8273 23.0639V21.1889C23.3585 21.1889 23.7904 20.7571 23.7904 20.2258V19.2883H28.8329V20.2258C28.8329 20.7571 29.2654 21.1889 29.796 21.1889V23.0639Z" fill="#28D17C"/>
<path d="M17.1631 27.2877C15.7499 26.1368 13.0817 23.9642 11.6406 22.7908V21.1964H14.9425C16.4288 21.1964 17.6881 20.2045 18.0925 18.8483H8.93C6.85913 20.285 4.106 22.1947 2.03063 23.6345H0V29.7852H5.31437L12.3219 31.7289C14.0456 32.207 15.8825 32.0439 17.4956 31.2695L20.8806 29.6439H24.305C25.7913 29.6439 27.0506 28.652 27.455 27.2952H17.1725L17.1631 27.2877Z" fill="#28D17C"/>
<path d="M16.7949 0.00205994H22.3118V7.60268H16.7949V0.00205994Z" fill="#28D17C"/>
</g>
<defs>
<clipPath id="clip0_1_4321">
<rect width="32" height="32" fill="white"/>
</clipPath>
</defs>
</svg>
