<svg width="32" height="32" viewBox="0 0 32 32" fill="none" xmlns="http://www.w3.org/2000/svg">
<path d="M29.432 8.23677C29.3937 7.39492 29.3937 6.59133 29.3937 5.78774C29.3937 5.13722 28.8962 4.63976 28.2457 4.63976C23.4625 4.63976 19.8272 3.26218 16.8042 0.315695C16.345 -0.105232 15.6562 -0.105232 15.197 0.315695C12.174 3.26218 8.5387 4.63976 3.75544 4.63976C3.10492 4.63976 2.60746 5.13722 2.60746 5.78774C2.60746 6.59133 2.60746 7.39492 2.56919 8.23677C2.41613 16.2726 2.18653 27.2933 15.6179 31.9235L16.0006 32L16.3832 31.9235C29.7764 27.2933 29.585 16.3109 29.432 8.23677ZM15.0822 19.3722C14.8526 19.5635 14.5847 19.6783 14.2786 19.6783H14.2403C13.9342 19.6783 13.6281 19.5253 13.4368 19.2957L9.87801 15.3543L11.6 13.8236L14.3934 16.9232L20.5925 11.0302L22.1614 12.7139L15.0822 19.3722Z" fill="#28D17C"/>
</svg>
