<svg width="32" height="32" viewBox="0 0 32 32" fill="none" xmlns="http://www.w3.org/2000/svg">
<path d="M26.3937 25.2009C26.4011 25.1118 26.4011 25.0223 26.3937 24.9332C26.3937 24.1445 26.0804 23.3881 25.5227 22.8304C24.965 22.2727 24.2086 21.9594 23.4199 21.9594C22.6311 21.9594 21.8747 22.2727 21.317 22.8304C20.7593 23.3881 20.446 24.1445 20.446 24.9332C20.4386 25.0223 20.4386 25.1118 20.446 25.2009C20.446 25.9896 20.7593 26.746 21.317 27.3037C21.8747 27.8615 22.6311 28.1748 23.4199 28.1748C24.2086 28.1748 24.965 27.8615 25.5227 27.3037C26.0804 26.746 26.3937 25.9896 26.3937 25.2009Z" fill="#28D17C"/>
<path d="M14.4973 25.2009C14.5046 25.1118 14.5046 25.0223 14.4973 24.9332C14.4973 24.1445 14.1839 23.3881 13.6262 22.8304C13.0685 22.2727 12.3121 21.9594 11.5234 21.9594C10.7346 21.9594 9.97822 22.2727 9.42051 22.8304C8.8628 23.3881 8.54948 24.1445 8.54948 24.9332C8.5421 25.0223 8.5421 25.1118 8.54948 25.2009C8.54948 25.9896 8.8628 26.746 9.42051 27.3037C9.97822 27.8615 10.7346 28.1748 11.5234 28.1748C12.3121 28.1748 13.0685 27.8615 13.6262 27.3037C14.1839 26.746 14.4973 25.9896 14.4973 25.2009Z" fill="#28D17C"/>
<path d="M3.34563 18.1379H1.11521C0.910454 18.1374 0.709621 18.1941 0.535301 18.3015C0.383823 18.3949 0.25689 18.5231 0.165108 18.6756C0.0733256 18.828 0.0193582 19.0003 0.00771437 19.1778C-0.00392948 19.3554 0.0270884 19.5332 0.0981766 19.6963C0.169265 19.8594 0.278359 20.0032 0.416346 20.1156C0.610963 20.2817 0.859317 20.3716 1.11521 20.3683H4.83257C5.12834 20.3683 5.412 20.4858 5.62114 20.695C5.83029 20.9041 5.94778 21.1878 5.94778 21.4835C5.94778 21.7793 5.83029 22.063 5.62114 22.2721C5.412 22.4813 5.12834 22.5988 4.83257 22.5988H3.34563C3.04986 22.5988 2.7662 22.7162 2.55706 22.9254C2.34791 23.1345 2.23042 23.4182 2.23042 23.714C2.23042 24.0097 2.34791 24.2934 2.55706 24.5025C2.7662 24.7117 3.04986 24.8292 3.34563 24.8292H7.4496C7.51356 24.073 7.79213 23.3507 8.25255 22.7474C8.63734 22.2438 9.13206 21.8346 9.69897 21.5512C10.2659 21.2677 10.89 21.1175 11.5238 21.1118C12.5453 21.1079 13.531 21.4878 14.2856 22.1763C15.0402 22.8648 15.5086 23.8116 15.5981 24.8292H19.3452C19.4324 23.8087 19.8994 22.8581 20.6539 22.1655C21.4083 21.4728 22.3952 21.0885 23.4194 21.0885C24.4436 21.0885 25.4305 21.4728 26.1849 22.1655C26.9393 22.8581 27.4063 23.8087 27.4936 24.8292H29.5159C29.8637 24.8362 30.203 24.721 30.4747 24.5036C30.7464 24.2863 30.9333 23.9805 31.0028 23.6396L31.9842 18.7327C31.9765 18.6984 31.9765 18.6629 31.9842 18.6286C32.0053 18.5006 32.0053 18.37 31.9842 18.242L29.1887 10.0043C29.0364 9.56685 28.7508 9.18812 28.3721 8.9214C27.9933 8.65468 27.5405 8.51338 27.0773 8.51738H24.4008L24.5643 7.32782C24.6043 7.01264 24.5769 6.69256 24.484 6.38874C24.3911 6.08491 24.2348 5.80426 24.0254 5.56534C23.816 5.32641 23.5583 5.13465 23.2692 5.00272C22.9802 4.87079 22.6665 4.8017 22.3488 4.80002H5.57605C5.28027 4.80002 4.99662 4.91751 4.78747 5.12666C4.57833 5.3358 4.46084 5.61946 4.46084 5.91523C4.46084 6.211 4.57833 6.49466 4.78747 6.7038C4.99662 6.91294 5.28027 7.03044 5.57605 7.03044H7.43473C7.7305 7.03044 8.01416 7.14793 8.2233 7.35707C8.43244 7.56622 8.54994 7.84987 8.54994 8.14564C8.54994 8.44142 8.43244 8.72507 8.2233 8.93422C8.01416 9.14336 7.7305 9.26085 7.43473 9.26085H1.11521C0.820636 9.2647 0.53921 9.38344 0.330897 9.59175C0.122584 9.80006 0.00385231 10.0815 1.17732e-06 10.3761C-0.000410809 10.6579 0.107318 10.9291 0.300978 11.1338C0.494637 11.3386 0.759465 11.4612 1.04086 11.4764H4.83257C5.12834 11.4764 5.412 11.5939 5.62114 11.803C5.83029 12.0122 5.94778 12.2958 5.94778 12.5916C5.94778 12.8874 5.83029 13.171 5.62114 13.3802C5.412 13.5893 5.12834 13.7068 4.83257 13.7068H2.60215H2.36424C2.11634 13.761 1.89431 13.898 1.7348 14.0954C1.5753 14.2927 1.48787 14.5385 1.48695 14.7923C1.48695 15.0881 1.60444 15.3717 1.81358 15.5809C2.02273 15.79 2.30638 15.9075 2.60215 15.9075H3.34563C3.6414 15.9075 3.92506 16.025 4.1342 16.2341C4.34334 16.4433 4.46084 16.7269 4.46084 17.0227C4.46084 17.3185 4.34334 17.6021 4.1342 17.8113C3.92506 18.0204 3.6414 18.1379 3.34563 18.1379ZM24.1629 10.7032H26.8691C26.9471 10.7044 27.023 10.7292 27.0867 10.7743C27.1504 10.8194 27.199 10.8827 27.226 10.956L29.3672 17.3944H23.2707L24.1629 10.7032Z" fill="#28D17C"/>
</svg>
