<svg width="18" height="19" viewBox="0 0 18 19" fill="none" xmlns="http://www.w3.org/2000/svg">
<path d="M8.30788 2.15797C8.56452 1.5432 9.43548 1.5432 9.69212 2.15797L11.3375 6.0994C11.44 6.34509 11.6651 6.51799 11.929 6.5537L16.2876 7.14362C16.9378 7.23162 17.1695 8.05311 16.6612 8.46792L13.3047 11.2069C13.0832 11.3876 12.9837 11.6786 13.0482 11.9571L14.1207 16.5919C14.2758 17.262 13.5222 17.77 12.9592 17.3748L9.43086 14.8985C9.17229 14.717 8.82771 14.717 8.56914 14.8985L5.04077 17.3749C4.47773 17.77 3.72414 17.2621 3.87921 16.5919L4.95169 11.9571C5.01613 11.6786 4.91665 11.3876 4.69518 11.2069L1.3388 8.46792C0.830475 8.0531 1.06222 7.23162 1.7124 7.14362L6.07102 6.5537C6.33485 6.51799 6.55998 6.34509 6.66254 6.0994L8.30788 2.15797Z" fill="#F2B14F"/>
</svg>
