<svg xmlns="http://www.w3.org/2000/svg" xmlns:xlink="http://www.w3.org/1999/xlink"><defs><symbol viewBox="0 0 40 41" fill="none" id="bnb">
<path d="M39.4016 25.3381C36.7301 36.0525 25.877 42.5731 15.1601 39.9012C4.44772 37.2301 -2.07358 26.3775 0.599038 15.6639C3.26931 4.94838 14.1225 -1.57268 24.836 1.09847C35.5521 3.76961 42.073 14.6234 39.4013 25.3383L39.4015 25.3381H39.4016Z" fill="#F3BA2F" />
<path fill-rule="evenodd" clip-rule="evenodd" d="M20.0018 13.1934L14.8224 18.3722L14.8225 18.372L11.8089 15.3587L20.0018 7.16669L28.1974 15.3611L25.1838 18.3745L20.0018 13.1934ZM9.68077 17.4861L6.66699 20.5L9.68056 23.5128L12.6943 20.4994L9.68077 17.4861ZM14.8223 22.6281L20.0018 27.8067L25.1836 22.6257L28.1989 25.6374L28.1974 25.639L20.0018 33.8334L11.8089 25.6414L11.8046 25.6371L14.8223 22.6281ZM30.3231 17.4879L27.3093 20.5013L30.323 23.5145L33.3367 20.5011L30.3231 17.4879Z" fill="white" />
<path d="M23.0586 20.4984H23.0599L20.002 17.4407L17.7418 19.7L17.4822 19.9597L16.9466 20.4953L16.9424 20.4994L16.9466 20.5038L20.002 23.5593L23.0601 20.5016L23.0616 20.4999L23.0588 20.4984" fill="white" />
</symbol><symbol viewBox="0 0 40 41" fill="none" id="btc">
<path d="M39.4016 25.3381C36.7301 36.0525 25.877 42.5731 15.1601 39.9012C4.44772 37.2301 -2.07358 26.3775 0.599038 15.6639C3.26931 4.94838 14.1225 -1.57268 24.836 1.09847C35.5521 3.76961 42.073 14.6234 39.4013 25.3383L39.4015 25.3381H39.4016Z" fill="#F7931A" />
<path fill-rule="evenodd" clip-rule="evenodd" d="M28.8199 17.6504C29.218 14.9889 27.1915 13.5582 24.4203 12.6038L25.3193 8.99845L23.1244 8.45159L22.2492 11.962C21.6722 11.8181 21.0796 11.6825 20.4907 11.5481L21.3721 8.01451L19.1786 7.46765L18.2791 11.0718C17.8016 10.9631 17.3326 10.8557 16.8776 10.7425L16.8801 10.7311L13.8533 9.97534L13.2694 12.3194C13.2694 12.3194 14.8979 12.6926 14.8635 12.7156C15.7524 12.9374 15.9131 13.5257 15.8864 13.992L14.8624 18.0993C14.9236 18.1149 15.003 18.1374 15.0906 18.1726L15.0269 18.1567L15.0268 18.1566C14.9726 18.1431 14.9164 18.129 14.8586 18.1152L13.4232 23.8689C13.3146 24.1389 13.0389 24.5441 12.4175 24.3903C12.4395 24.4221 10.8222 23.9922 10.8222 23.9922L9.73242 26.5044L12.5887 27.2164C12.9015 27.2948 13.2106 27.3754 13.5166 27.4551L13.5168 27.4552C13.7306 27.5109 13.9428 27.5662 14.1536 27.6201L13.2454 31.2668L15.4377 31.8136L16.3372 28.2057C16.9362 28.3683 17.5174 28.5182 18.0864 28.6596L17.19 32.2505L19.385 32.7974L20.2932 29.1576C24.036 29.8658 26.8502 29.5803 28.0348 26.1953C28.9893 23.47 27.9873 21.898 26.0182 20.8729C27.4524 20.5422 28.5327 19.5991 28.8207 17.6507L28.82 17.6502L28.8199 17.6504ZM23.805 24.6818C23.1827 27.1821 19.2685 26.1484 17.4776 25.6755C17.3165 25.6329 17.1726 25.5949 17.0498 25.5644L18.2551 20.7332C18.4047 20.7706 18.5876 20.8116 18.7948 20.8581C20.6472 21.2738 24.4426 22.1254 23.8051 24.6818H23.805ZM19.1663 18.6158C20.6593 19.0142 23.9165 19.8834 24.4838 17.6108H24.484C25.0632 15.2866 21.8978 14.5859 20.3518 14.2436C20.1779 14.2051 20.0245 14.1712 19.8992 14.1399L18.8064 18.5216C18.9096 18.5473 19.0306 18.5796 19.1663 18.6158Z" fill="white" />
</symbol><symbol viewBox="0 0 40 41" fill="none" id="busd">
<circle cx="20" cy="20.5" r="20" fill="#F0B90B" />
<path d="M19.9405 7.16675L23.2292 10.5347L14.9479 18.816L11.6592 15.5273L19.9405 7.16675Z" fill="white" stroke="white" />
<path d="M24.933 12.1593L28.2217 15.5273L14.9479 28.8011L11.6592 25.5124L24.933 12.1593Z" fill="white" stroke="white" />
<path d="M9.95573 17.1518L13.2445 20.5198L9.95573 23.8085L6.66699 20.5198L9.95573 17.1518Z" fill="white" stroke="white" />
<path d="M29.9262 17.1518L33.2149 20.5198L19.9411 33.7936L16.6523 30.5049L29.9262 17.1518Z" fill="white" stroke="white" />
</symbol><symbol viewBox="0 0 24 24" fill="none" id="candy-box">
<path d="M5 7C4.60444 7 4.21776 6.8827 3.88886 6.66294C3.55996 6.44318 3.30362 6.13082 3.15224 5.76537C3.00087 5.39992 2.96126 4.99778 3.03843 4.60982C3.1156 4.22186 3.30608 3.86549 3.58579 3.58579C3.86549 3.30608 4.22186 3.1156 4.60982 3.03843C4.99778 2.96126 5.39992 3.00087 5.76537 3.15224C6.13082 3.30362 6.44318 3.55996 6.66294 3.88886C6.8827 4.21776 7 4.60444 7 5C7 5.53043 6.78929 6.03914 6.41421 6.41421C6.03914 6.78929 5.53043 7 5 7ZM14 5C14 4.60444 13.8827 4.21776 13.6629 3.88886C13.4432 3.55996 13.1308 3.30362 12.7654 3.15224C12.3999 3.00087 11.9978 2.96126 11.6098 3.03843C11.2219 3.1156 10.8655 3.30608 10.5858 3.58579C10.3061 3.86549 10.1156 4.22186 10.0384 4.60982C9.96126 4.99778 10.0009 5.39992 10.1522 5.76537C10.3036 6.13082 10.56 6.44318 10.8889 6.66294C11.2178 6.8827 11.6044 7 12 7C12.5304 7 13.0391 6.78929 13.4142 6.41421C13.7893 6.03914 14 5.53043 14 5ZM21 5C21 4.60444 20.8827 4.21776 20.6629 3.88886C20.4432 3.55996 20.1308 3.30362 19.7654 3.15224C19.3999 3.00087 18.9978 2.96126 18.6098 3.03843C18.2219 3.1156 17.8655 3.30608 17.5858 3.58579C17.3061 3.86549 17.1156 4.22186 17.0384 4.60982C16.9613 4.99778 17.0009 5.39992 17.1522 5.76537C17.3036 6.13082 17.56 6.44318 17.8889 6.66294C18.2178 6.8827 18.6044 7 19 7C19.5304 7 20.0391 6.78929 20.4142 6.41421C20.7893 6.03914 21 5.53043 21 5ZM7 12C7 11.6044 6.8827 11.2178 6.66294 10.8889C6.44318 10.56 6.13082 10.3036 5.76537 10.1522C5.39992 10.0009 4.99778 9.96126 4.60982 10.0384C4.22186 10.1156 3.86549 10.3061 3.58579 10.5858C3.30608 10.8655 3.1156 11.2219 3.03843 11.6098C2.96126 11.9978 3.00087 12.3999 3.15224 12.7654C3.30362 13.1308 3.55996 13.4432 3.88886 13.6629C4.21776 13.8827 4.60444 14 5 14C5.53043 14 6.03914 13.7893 6.41421 13.4142C6.78929 13.0391 7 12.5304 7 12ZM14 12C14 11.6044 13.8827 11.2178 13.6629 10.8889C13.4432 10.56 13.1308 10.3036 12.7654 10.1522C12.3999 10.0009 11.9978 9.96126 11.6098 10.0384C11.2219 10.1156 10.8655 10.3061 10.5858 10.5858C10.3061 10.8655 10.1156 11.2219 10.0384 11.6098C9.96126 11.9978 10.0009 12.3999 10.1522 12.7654C10.3036 13.1308 10.56 13.4432 10.8889 13.6629C11.2178 13.8827 11.6044 14 12 14C12.5304 14 13.0391 13.7893 13.4142 13.4142C13.7893 13.0391 14 12.5304 14 12ZM21 12C21 11.6044 20.8827 11.2178 20.6629 10.8889C20.4432 10.56 20.1308 10.3036 19.7654 10.1522C19.3999 10.0009 18.9978 9.96126 18.6098 10.0384C18.2219 10.1156 17.8655 10.3061 17.5858 10.5858C17.3061 10.8655 17.1156 11.2219 17.0384 11.6098C16.9613 11.9978 17.0009 12.3999 17.1522 12.7654C17.3036 13.1308 17.56 13.4432 17.8889 13.6629C18.2178 13.8827 18.6044 14 19 14C19.5304 14 20.0391 13.7893 20.4142 13.4142C20.7893 13.0391 21 12.5304 21 12ZM7 19C7 18.6044 6.8827 18.2178 6.66294 17.8889C6.44318 17.56 6.13082 17.3036 5.76537 17.1522C5.39992 17.0009 4.99778 16.9613 4.60982 17.0384C4.22186 17.1156 3.86549 17.3061 3.58579 17.5858C3.30608 17.8655 3.1156 18.2219 3.03843 18.6098C2.96126 18.9978 3.00087 19.3999 3.15224 19.7654C3.30362 20.1308 3.55996 20.4432 3.88886 20.6629C4.21776 20.8827 4.60444 21 5 21C5.53043 21 6.03914 20.7893 6.41421 20.4142C6.78929 20.0391 7 19.5304 7 19ZM14 19C14 18.6044 13.8827 18.2178 13.6629 17.8889C13.4432 17.56 13.1308 17.3036 12.7654 17.1522C12.3999 17.0009 11.9978 16.9613 11.6098 17.0384C11.2219 17.1156 10.8655 17.3061 10.5858 17.5858C10.3061 17.8655 10.1156 18.2219 10.0384 18.6098C9.96126 18.9978 10.0009 19.3999 10.1522 19.7654C10.3036 20.1308 10.56 20.4432 10.8889 20.6629C11.2178 20.8827 11.6044 21 12 21C12.5304 21 13.0391 20.7893 13.4142 20.4142C13.7893 20.0391 14 19.5304 14 19ZM21 19C21 18.6044 20.8827 18.2178 20.6629 17.8889C20.4432 17.56 20.1308 17.3036 19.7654 17.1522C19.3999 17.0009 18.9978 16.9613 18.6098 17.0384C18.2219 17.1156 17.8655 17.3061 17.5858 17.5858C17.3061 17.8655 17.1156 18.2219 17.0384 18.6098C16.9613 18.9978 17.0009 19.3999 17.1522 19.7654C17.3036 20.1308 17.56 20.4432 17.8889 20.6629C18.2178 20.8827 18.6044 21 19 21C19.5304 21 20.0391 20.7893 20.4142 20.4142C20.7893 20.0391 21 19.5304 21 19Z" fill="currentColor" />
</symbol><symbol viewBox="0 0 20 20" fill="none" id="caret-down">
<path d="M10.7652 13.3384C10.3528 13.7848 9.64734 13.7848 9.23492 13.3384L5.84177 9.66516C5.22546 8.99799 5.69866 7.91667 6.60693 7.91667L13.3932 7.91667C14.3015 7.91667 14.7747 8.99799 14.1584 9.66516L10.7652 13.3384Z" fill="currentColor" />
</symbol><symbol viewBox="0 0 25 24" fill="none" id="cart">
<path fill-rule="evenodd" clip-rule="evenodd" d="M9.125 17.8926C8.52344 17.8926 8 18.4002 8 19.0711C8 19.742 8.52344 20.2496 9.125 20.2496C9.72656 20.2496 10.25 19.742 10.25 19.0711C10.25 18.4002 9.72656 17.8926 9.125 17.8926ZM6.5 19.0711C6.5 17.6118 7.65549 16.3926 9.125 16.3926C10.5945 16.3926 11.75 17.6118 11.75 19.0711C11.75 20.5304 10.5945 21.7496 9.125 21.7496C7.65549 21.7496 6.5 20.5304 6.5 19.0711Z" fill="currentColor" />
<path fill-rule="evenodd" clip-rule="evenodd" d="M16.625 17.8926C16.0234 17.8926 15.5 18.4002 15.5 19.0711C15.5 19.742 16.0234 20.2496 16.625 20.2496C17.2266 20.2496 17.75 19.742 17.75 19.0711C17.75 18.4002 17.2266 17.8926 16.625 17.8926ZM14 19.0711C14 17.6118 15.1555 16.3926 16.625 16.3926C18.0945 16.3926 19.25 17.6118 19.25 19.0711C19.25 20.5304 18.0945 21.7496 16.625 21.7496C15.1555 21.7496 14 20.5304 14 19.0711Z" fill="currentColor" />
<path fill-rule="evenodd" clip-rule="evenodd" d="M2.125 3C2.125 2.58579 2.46079 2.25 2.875 2.25H5.02856C5.66521 2.25 6.20014 2.72849 6.27083 3.3612L7.29587 12.5355H19.0229C19.1313 12.5355 19.2273 12.4656 19.2607 12.3625L21.1125 6.64844C21.1649 6.48695 21.0445 6.32137 20.8747 6.32137H9.125C8.71079 6.32137 8.375 5.98558 8.375 5.57137C8.375 5.15715 8.71079 4.82137 9.125 4.82137H20.8747C22.063 4.82137 22.9058 5.98043 22.5395 7.11088L20.6876 12.825C20.4538 13.5467 19.7815 14.0355 19.0229 14.0355H6.82908L5.7983 14.6413C5.72808 14.6826 5.70059 14.7267 5.68722 14.7629C5.67143 14.8058 5.66737 14.8623 5.68374 14.9225C5.70012 14.9826 5.73226 15.0293 5.76758 15.0582C5.79748 15.0827 5.84352 15.1068 5.92497 15.1068H18.5C18.9142 15.1068 19.25 15.4426 19.25 15.8568C19.25 16.271 18.9142 16.6068 18.5 16.6068H5.92497C4.14172 16.6068 3.50086 14.2517 5.03824 13.3481L5.82563 12.8853L4.80494 3.75H2.875C2.46079 3.75 2.125 3.41421 2.125 3Z" fill="currentColor" />
</symbol><symbol viewBox="0 0 25 24" fill="none" id="category">
<path fill-rule="evenodd" clip-rule="evenodd" d="M1.5 5C1.5 2.92893 3.17893 1.25 5.25 1.25H7.82143C9.8925 1.25 11.5714 2.92893 11.5714 5V7.57143C11.5714 9.6425 9.8925 11.3214 7.82143 11.3214H5.25C3.17893 11.3214 1.5 9.6425 1.5 7.57143V5ZM5.25 2.75C4.00736 2.75 3 3.75736 3 5V7.57143C3 8.81407 4.00736 9.82143 5.25 9.82143H7.82143C9.06407 9.82143 10.0714 8.81407 10.0714 7.57143V5C10.0714 3.75736 9.06407 2.75 7.82143 2.75H5.25Z" fill="currentColor" />
<path fill-rule="evenodd" clip-rule="evenodd" d="M12.9287 5C12.9287 2.92893 14.6076 1.25 16.6787 1.25H19.2501C21.3212 1.25 23.0001 2.92893 23.0001 5V7.57143C23.0001 9.6425 21.3212 11.3214 19.2501 11.3214H16.6787C14.6076 11.3214 12.9287 9.6425 12.9287 7.57143V5ZM16.6787 2.75C15.4361 2.75 14.4287 3.75736 14.4287 5V7.57143C14.4287 8.81407 15.4361 9.82143 16.6787 9.82143H19.2501C20.4928 9.82143 21.5001 8.81407 21.5001 7.57143V5C21.5001 3.75736 20.4928 2.75 19.2501 2.75H16.6787Z" fill="currentColor" />
<path fill-rule="evenodd" clip-rule="evenodd" d="M12.9287 16.4285C12.9287 14.3574 14.6076 12.6785 16.6787 12.6785H19.2501C21.3212 12.6785 23.0001 14.3574 23.0001 16.4285V18.9999C23.0001 21.071 21.3212 22.7499 19.2501 22.7499H16.6787C14.6076 22.7499 12.9287 21.071 12.9287 18.9999V16.4285ZM16.6787 14.1785C15.4361 14.1785 14.4287 15.1858 14.4287 16.4285V18.9999C14.4287 20.2425 15.4361 21.2499 16.6787 21.2499H19.2501C20.4928 21.2499 21.5001 20.2425 21.5001 18.9999V16.4285C21.5001 15.1858 20.4928 14.1785 19.2501 14.1785H16.6787Z" fill="currentColor" />
<path fill-rule="evenodd" clip-rule="evenodd" d="M1.5 16.4285C1.5 14.3574 3.17893 12.6785 5.25 12.6785H7.82143C9.8925 12.6785 11.5714 14.3574 11.5714 16.4285V18.9999C11.5714 21.071 9.8925 22.7499 7.82143 22.7499H5.25C3.17893 22.7499 1.5 21.071 1.5 18.9999V16.4285ZM5.25 14.1785C4.00736 14.1785 3 15.1858 3 16.4285V18.9999C3 20.2425 4.00736 21.2499 5.25 21.2499H7.82143C9.06407 21.2499 10.0714 20.2425 10.0714 18.9999V16.4285C10.0714 15.1858 9.06407 14.1785 7.82143 14.1785H5.25Z" fill="currentColor" />
</symbol><symbol viewBox="0 0 24 24" fill="none" id="chevron">
<path fill-rule="evenodd" clip-rule="evenodd" d="M12.0002 15.5002C11.7442 15.5002 11.4883 15.4023 11.2933 15.2073L7.29325 11.2072C6.90225 10.8162 6.90225 10.1842 7.29325 9.79325C7.68425 9.40225 8.31625 9.40225 8.70725 9.79325L12.0122 13.0982L15.3053 9.91825C15.7043 9.53525 16.3352 9.54625 16.7192 9.94325C17.1032 10.3403 17.0922 10.9742 16.6952 11.3572L12.6953 15.2193C12.5002 15.4073 12.2502 15.5002 12.0002 15.5002Z" fill="currentColor" />

</symbol><mask id="chevron_mask0_156_10598" style="mask-type:alpha" maskUnits="userSpaceOnUse" x="7" y="9" width="10" height="7">
<path fill-rule="evenodd" clip-rule="evenodd" d="M12.0002 15.5002C11.7442 15.5002 11.4883 15.4023 11.2933 15.2073L7.29325 11.2072C6.90225 10.8162 6.90225 10.1842 7.29325 9.79325C7.68425 9.40225 8.31625 9.40225 8.70725 9.79325L12.0122 13.0982L15.3053 9.91825C15.7043 9.53525 16.3352 9.54625 16.7192 9.94325C17.1032 10.3403 17.0922 10.9742 16.6952 11.3572L12.6953 15.2193C12.5002 15.4073 12.2502 15.5002 12.0002 15.5002Z" fill="none" />
</mask><symbol viewBox="0 0 24 24" fill="none" id="close">
<path d="M6 6.00003L18.7742 18.7742" stroke="currentColor" stroke-width="2" stroke-linecap="round" stroke-linejoin="round" />
<path d="M6 18.7742L18.7742 6.00001" stroke="currentColor" stroke-width="2" stroke-linecap="round" stroke-linejoin="round" />
</symbol><symbol viewBox="0 0 40 41" fill="none" id="eth">
<circle cx="20" cy="20.5" r="20" fill="#EDF0F4" />
<path d="M19.9452 8.5L19.7861 9.04043V24.721L19.9452 24.8797L27.2238 20.5773L19.9452 8.5Z" fill="#343434" />
<path d="M19.9458 8.5L12.667 20.5773L19.9458 24.8797V17.2688V8.5Z" fill="#8C8C8C" />
<path d="M19.9461 26.2579L19.8564 26.3672V31.9529L19.9461 32.2146L27.2292 21.9576L19.9461 26.2579Z" fill="#3C3C3B" />
<path d="M19.9458 32.2146V26.2579L12.667 21.9576L19.9458 32.2146Z" fill="#8C8C8C" />
<path d="M19.9453 24.8796L27.2239 20.5772L19.9453 17.2687V24.8796Z" fill="#141414" />
<path d="M12.667 20.5772L19.9458 24.8796V17.2687L12.667 20.5772Z" fill="#393939" />
</symbol><symbol viewBox="0 0 20 20" fill="none" id="fi-sr-copy">

<path d="M12.5 16.6667H4.16667C3.062 16.6653 2.00296 16.2259 1.22185 15.4448C0.440735 14.6637 0.00132321 13.6047 0 12.5L0 4.16667C0.00132321 3.062 0.440735 2.00296 1.22185 1.22185C2.00296 0.440735 3.062 0.00132321 4.16667 0L12.5 0C13.6047 0.00132321 14.6637 0.440735 15.4448 1.22185C16.2259 2.00296 16.6653 3.062 16.6667 4.16667V12.5C16.6653 13.6047 16.2259 14.6637 15.4448 15.4448C14.6637 16.2259 13.6047 16.6653 12.5 16.6667V16.6667ZM20 15.8333V5C20 4.77899 19.9122 4.56702 19.7559 4.41074C19.5996 4.25446 19.3877 4.16667 19.1667 4.16667C18.9457 4.16667 18.7337 4.25446 18.5774 4.41074C18.4211 4.56702 18.3333 4.77899 18.3333 5V15.8333C18.3333 16.4964 18.0699 17.1323 17.6011 17.6011C17.1323 18.0699 16.4964 18.3333 15.8333 18.3333H5C4.77899 18.3333 4.56702 18.4211 4.41074 18.5774C4.25446 18.7337 4.16667 18.9457 4.16667 19.1667C4.16667 19.3877 4.25446 19.5996 4.41074 19.7559C4.56702 19.9122 4.77899 20 5 20H15.8333C16.938 19.9987 17.997 19.5593 18.7782 18.7782C19.5593 17.997 19.9987 16.938 20 15.8333V15.8333Z" fill="currentColor" />

<defs>


</defs>
</symbol><clipPath id="fi-sr-copy_clip0_1_6961">
<rect width="20" height="20" fill="white" />
</clipPath><symbol viewBox="0 0 4 16" fill="none" id="fi-sr-menu-dots-vertical">
<g clip-path="url(#fi-sr-menu-dots-vertical_clip0_2031_2178)">
<path d="M2.00034 2.66669C2.73673 2.66669 3.33369 2.06973 3.33369 1.33334C3.33369 0.596958 2.73673 0 2.00034 0C1.26395 0 0.666992 0.596958 0.666992 1.33334C0.666992 2.06973 1.26395 2.66669 2.00034 2.66669Z" fill="#B2B2B2" />
<path d="M2.00034 9.33334C2.73673 9.33334 3.33369 8.73638 3.33369 8C3.33369 7.26361 2.73673 6.66665 2.00034 6.66665C1.26395 6.66665 0.666992 7.26361 0.666992 8C0.666992 8.73638 1.26395 9.33334 2.00034 9.33334Z" fill="#B2B2B2" />
<path d="M2.00034 16C2.73673 16 3.33369 15.403 3.33369 14.6666C3.33369 13.9303 2.73673 13.3333 2.00034 13.3333C1.26395 13.3333 0.666992 13.9303 0.666992 14.6666C0.666992 15.403 1.26395 16 2.00034 16Z" fill="#B2B2B2" />
</g>
<defs>

</defs>
</symbol><clipPath id="fi-sr-menu-dots-vertical_clip0_2031_2178">
<rect width="3.55556" height="16" fill="white" transform="translate(0.222656)" />
</clipPath><symbol viewBox="0 0 20 20" fill="none" id="flag-us">
<g clip-path="url(#flag-us_clip0_1_2039)">
<path d="M10 20C15.5228 20 20 15.5228 20 10C20 4.47715 15.5228 0 10 0C4.47715 0 0 4.47715 0 10C0 15.5228 4.47715 20 10 20Z" fill="#F0F0F0" />
<path d="M9.56543 10.0001H20.0002C20.0002 9.09749 19.8799 8.22312 19.6557 7.39136H9.56543V10.0001Z" fill="#E73838" />
<path d="M9.56543 4.78266H18.5325C17.9203 3.78375 17.1376 2.90083 16.225 2.17395H9.56543V4.78266Z" fill="#E73838" />
<path d="M10.0002 20.0001C12.3537 20.0001 14.5169 19.1866 16.2251 17.8262H3.77539C5.48359 19.1866 7.64676 20.0001 10.0002 20.0001Z" fill="#E73838" />
<path d="M1.46797 15.2175H18.5325C19.0239 14.4156 19.4051 13.539 19.6557 12.6088H0.344727C0.595391 13.539 0.976523 14.4156 1.46797 15.2175Z" fill="#E73838" />
<path d="M4.63219 1.56164H5.54348L4.69582 2.17746L5.01961 3.17391L4.17199 2.55809L3.32437 3.17391L3.60406 2.31309C2.85773 2.93477 2.20359 3.66313 1.66453 4.47469H1.95652L1.41695 4.86668C1.33289 5.00691 1.25227 5.14937 1.175 5.29395L1.43266 6.08695L0.951953 5.7377C0.832461 5.99086 0.723164 6.24973 0.624922 6.51398L0.908789 7.38773H1.95652L1.10887 8.00356L1.43266 9L0.585039 8.38418L0.0773047 8.75309C0.0264844 9.1616 0 9.57769 0 10H10C10 4.47719 10 3.82609 10 0C8.02453 0 6.18301 0.573047 4.63219 1.56164ZM5.01961 9L4.17199 8.38418L3.32437 9L3.64816 8.00356L2.80051 7.38773H3.84824L4.17199 6.39129L4.49574 7.38773H5.54348L4.69582 8.00356L5.01961 9ZM4.69582 5.09051L5.01961 6.08695L4.17199 5.47113L3.32437 6.08695L3.64816 5.09051L2.80051 4.47469H3.84824L4.17199 3.47824L4.49574 4.47469H5.54348L4.69582 5.09051ZM8.60656 9L7.75895 8.38418L6.91133 9L7.23512 8.00356L6.38746 7.38773H7.4352L7.75895 6.39129L8.0827 7.38773H9.13043L8.28277 8.00356L8.60656 9ZM8.28277 5.09051L8.60656 6.08695L7.75895 5.47113L6.91133 6.08695L7.23512 5.09051L6.38746 4.47469H7.4352L7.75895 3.47824L8.0827 4.47469H9.13043L8.28277 5.09051ZM8.28277 2.17746L8.60656 3.17391L7.75895 2.55809L6.91133 3.17391L7.23512 2.17746L6.38746 1.56164H7.4352L7.75895 0.565195L8.0827 1.56164H9.13043L8.28277 2.17746Z" fill="#0052B4" />
</g>
<defs>

</defs>
</symbol><clipPath id="flag-us_clip0_1_2039">
<rect width="20" height="20" fill="white" />
</clipPath><symbol viewBox="0 0 10 11" fill="none" id="heart">
<path d="M7.34375 1.08594C6.80111 1.08594 6.30361 1.25789 5.8651 1.59703C5.44469 1.92217 5.16479 2.33629 5 2.63742C4.83521 2.33627 4.55531 1.92217 4.1349 1.59703C3.69639 1.25789 3.19889 1.08594 2.65625 1.08594C1.14195 1.08594 0 2.32455 0 3.96707C0 5.74156 1.42467 6.95564 3.58143 8.79359C3.94768 9.10572 4.36281 9.45951 4.7943 9.83684C4.85117 9.88664 4.92422 9.91406 5 9.91406C5.07578 9.91406 5.14883 9.88664 5.2057 9.83685C5.63723 9.45947 6.05234 9.1057 6.41881 8.7934C8.57533 6.95564 10 5.74156 10 3.96707C10 2.32455 8.85805 1.08594 7.34375 1.08594Z" fill="currentColor" />
</symbol><symbol viewBox="0 0 25 24" fill="none" id="home">
<path fill-rule="evenodd" clip-rule="evenodd" d="M11.1517 2.22003C12.1078 1.53703 13.3923 1.53701 14.3485 2.21997L21.5113 7.33605C22.7596 8.22767 23.5005 9.66728 23.5005 11.2013V19C23.5005 21.071 21.8216 22.75 19.7505 22.75H16.8929C15.3741 22.75 14.1429 21.5187 14.1429 20V18.5C14.1429 18.0857 13.8071 17.75 13.3929 17.75H12.1072C11.693 17.75 11.3572 18.0857 11.3572 18.5V20C11.3572 21.5187 10.126 22.75 8.60721 22.75H5.75049C3.67942 22.75 2.00049 21.071 2.00049 19V11.2012C2.00049 9.66725 2.74129 8.22769 3.98953 7.33606L11.1517 2.22003ZM13.4766 3.44058C13.042 3.13015 12.4582 3.13016 12.0236 3.44061L4.86141 8.55664C4.00735 9.16671 3.50049 10.1517 3.50049 11.2012V19C3.50049 20.2426 4.50785 21.25 5.75049 21.25H8.60721C9.29757 21.25 9.85721 20.6903 9.85721 20V18.5C9.85721 17.2573 10.8646 16.25 12.1072 16.25H13.3929C14.6356 16.25 15.6429 17.2573 15.6429 18.5V20C15.6429 20.6903 16.2026 21.25 16.8929 21.25H19.7505C20.9931 21.25 22.0005 20.2426 22.0005 19V11.2013C22.0005 10.1517 21.4936 9.16672 20.6395 8.55666L13.4766 3.44058Z" fill="currentColor" />
</symbol><symbol viewBox="0 0 40 41" fill="none" id="ltc">
<ellipse cx="20.1663" cy="20.3333" rx="17.8333" ry="17.8333" fill="white" />
<path fill-rule="evenodd" clip-rule="evenodd" d="M0 20.5C0 9.45431 8.95427 0.5 19.9999 0.5H20.1161C25.405 0.51539 30.4712 2.63118 34.2001 6.38191C37.9291 10.1326 40.0153 15.2111 39.9998 20.5C39.9998 31.5457 31.0456 40.5 19.9999 40.5C8.95427 40.5 0 31.5457 0 20.5ZM18.2566 28.1997L20.339 21.1779L23.5835 20.2578L24.2615 17.9333L21.0653 18.9019L24.4552 7.37645V7.19243C24.4501 7.04342 24.386 6.90252 24.277 6.80079C24.168 6.69906 24.0231 6.64483 23.8741 6.65006H19.5641C19.2284 6.63971 18.9288 6.85942 18.8378 7.18274L14.8184 20.8389L11.6223 21.8074L10.8959 24.035L14.092 23.0665L11.2349 32.8002H28.2808C28.6177 32.8141 28.9193 32.5929 29.0072 32.2675L29.9757 28.9261V28.7421C29.9707 28.5931 29.9066 28.4522 29.7976 28.3504C29.6886 28.2487 29.5436 28.1945 29.3946 28.1997H18.2566Z" fill="#345D9D" />
</symbol><symbol viewBox="0 0 16 16" fill="none" id="minus">
<path d="M2 8L14 8" stroke="currentColor" stroke-width="2" stroke-linecap="round" stroke-linejoin="round" />
</symbol><symbol viewBox="0 0 24 24" fill="none" id="paper-clip">
<path fill-rule="evenodd" clip-rule="evenodd" d="M9.29305 21V21C7.63705 21 6.06305 20.334 4.86105 19.125C2.47305 16.722 2.37505 12.912 4.64205 10.631L12.0281 3.201C12.7971 2.427 13.8351 2 14.9501 2C16.1431 2 17.2771 2.479 18.1421 3.349C19.8631 5.08 19.9291 7.831 18.2881 9.481L10.8931 16.91C10.4141 17.393 9.76905 17.658 9.07705 17.658V17.658C8.34605 17.658 7.65305 17.366 7.12705 16.837C6.07405 15.776 6.04105 14.085 7.05405 13.065L13.8791 6.21C14.2691 5.818 14.9011 5.816 15.2931 6.206C15.6841 6.596 15.6861 7.229 15.2961 7.62L8.47205 14.476C8.23205 14.718 8.26505 15.145 8.54605 15.427C8.69205 15.574 8.88605 15.658 9.07705 15.658V15.658C9.18705 15.658 9.34505 15.631 9.47505 15.5L16.8701 8.071C17.7371 7.198 17.6721 5.713 16.7241 4.759C15.8171 3.847 14.2781 3.775 13.4461 4.611L6.06005 12.041C4.56605 13.544 4.66405 16.09 6.28005 17.715C7.10305 18.544 8.17305 19 9.29305 19C10.2941 19 11.2221 18.622 11.9041 17.936L19.2911 10.506C19.6801 10.115 20.3131 10.112 20.7051 10.502C21.0961 10.892 21.0981 11.524 20.7091 11.916L13.3221 19.346C12.2621 20.412 10.8311 21 9.29305 21" fill="black" />

</symbol><mask id="paper-clip_mask0_269_6855" style="mask-type:alpha" maskUnits="userSpaceOnUse" x="3" y="2" width="18" height="19">
<path fill-rule="evenodd" clip-rule="evenodd" d="M9.29305 21V21C7.63705 21 6.06305 20.334 4.86105 19.125C2.47305 16.722 2.37505 12.912 4.64205 10.631L12.0281 3.201C12.7971 2.427 13.8351 2 14.9501 2C16.1431 2 17.2771 2.479 18.1421 3.349C19.8631 5.08 19.9291 7.831 18.2881 9.481L10.8931 16.91C10.4141 17.393 9.76905 17.658 9.07705 17.658V17.658C8.34605 17.658 7.65305 17.366 7.12705 16.837C6.07405 15.776 6.04105 14.085 7.05405 13.065L13.8791 6.21C14.2691 5.818 14.9011 5.816 15.2931 6.206C15.6841 6.596 15.6861 7.229 15.2961 7.62L8.47205 14.476C8.23205 14.718 8.26505 15.145 8.54605 15.427C8.69205 15.574 8.88605 15.658 9.07705 15.658V15.658C9.18705 15.658 9.34505 15.631 9.47505 15.5L16.8701 8.071C17.7371 7.198 17.6721 5.713 16.7241 4.759C15.8171 3.847 14.2781 3.775 13.4461 4.611L6.06005 12.041C4.56605 13.544 4.66405 16.09 6.28005 17.715C7.10305 18.544 8.17305 19 9.29305 19C10.2941 19 11.2221 18.622 11.9041 17.936L19.2911 10.506C19.6801 10.115 20.3131 10.112 20.7051 10.502C21.0961 10.892 21.0981 11.524 20.7091 11.916L13.3221 19.346C12.2621 20.412 10.8311 21 9.29305 21" fill="white" />
</mask><symbol viewBox="0 0 16 16" fill="none" id="plus">
<path d="M8 2V14" stroke="currentColor" stroke-width="2" stroke-linecap="round" stroke-linejoin="round" />
<path d="M2 8L14 8" stroke="currentColor" stroke-width="2" stroke-linecap="round" stroke-linejoin="round" />
</symbol><symbol viewBox="0 0 18 18" fill="none" id="search">
<path d="M8.25 15C11.9779 15 15 11.9779 15 8.25C15 4.52208 11.9779 1.5 8.25 1.5C4.52208 1.5 1.5 4.52208 1.5 8.25C1.5 11.9779 4.52208 15 8.25 15Z" stroke="white" stroke-width="2" stroke-linecap="round" stroke-linejoin="round" />
<path d="M16.5 16.5L13.5 13.5" stroke="white" stroke-width="2" stroke-linecap="round" stroke-linejoin="round" />
</symbol><symbol viewBox="0 0 20 18" fill="none" id="telegram">
<path d="M13 7L9 11L15 17L19 1L1 8L5 10L7 16L10 12" stroke="currentColor" stroke-width="2" stroke-linecap="round" stroke-linejoin="round" />
</symbol><symbol viewBox="0 0 20 20" fill="none" id="timer">
<path d="M4.97312 1.52981C5.24266 1.31418 5.28636 0.920875 5.07073 0.651337C4.85509 0.381798 4.46179 0.338097 4.19225 0.553728L2.10891 2.22039C1.83938 2.43603 1.79567 2.82933 2.01131 3.09887C2.22694 3.36841 2.62024 3.41211 2.88978 3.19648L4.97312 1.52981Z" fill="#ff585a" />
<path d="M15.8064 0.553728C15.5369 0.338097 15.1436 0.381798 14.928 0.651337C14.7123 0.920875 14.756 1.31418 15.0256 1.52981L17.1089 3.19648C17.3785 3.41211 17.7718 3.36841 17.9874 3.09887C18.203 2.82933 18.1593 2.43603 17.8898 2.22039L15.8064 0.553728Z" fill="#ff585a" />
<path fill-rule="evenodd" clip-rule="evenodd" d="M9.99935 1.04177C5.0518 1.04177 1.04102 5.05256 1.04102 10.0001C1.04102 14.9477 5.0518 18.9584 9.99935 18.9584C14.9469 18.9584 18.9577 14.9477 18.9577 10.0001C18.9577 5.05256 14.9469 1.04177 9.99935 1.04177ZM10.6243 6.66677C10.6243 6.3216 10.3445 6.04177 9.99935 6.04177C9.65417 6.04177 9.37435 6.3216 9.37435 6.66677V8.93797C9.37433 9.38282 9.37432 9.7612 9.40528 10.0752C9.43825 10.4097 9.50976 10.7198 9.68138 11.017C9.853 11.3143 10.0858 11.5312 10.359 11.727C10.6154 11.9108 10.9431 12.1 11.3284 12.3224L11.852 12.6247C12.1509 12.7973 12.5332 12.6949 12.7057 12.3959C12.8783 12.097 12.7759 11.7148 12.477 11.5422L11.9785 11.2544C11.5613 11.0135 11.2876 10.8547 11.0871 10.711C10.8978 10.5753 10.8156 10.4815 10.7639 10.392C10.7122 10.3025 10.6721 10.1844 10.6492 9.95258C10.625 9.70711 10.6243 9.39069 10.6243 8.90891L10.6243 6.66677Z" fill="#ff585a" />
</symbol><symbol viewBox="0 0 20 20" fill="none" id="trash">
<path d="M5.00033 15.8333C5.00033 16.75 5.75033 17.5 6.66699 17.5H13.3337C14.2503 17.5 15.0003 16.75 15.0003 15.8333V5.83333H5.00033V15.8333ZM15.8337 3.33333H12.917L12.0837 2.5H7.91699L7.08366 3.33333H4.16699V5H15.8337V3.33333Z" fill="currentColor" />
</symbol><symbol viewBox="0 0 40 41" fill="none" id="trx">
<path fill-rule="evenodd" clip-rule="evenodd" d="M20 40.5C9 40.5 0 31.5002 0 20.4004C0.1 9.40064 9 0.400827 20.1 0.500825C31.1 0.600823 40 9.50064 40 20.7004C39.9 31.6002 31 40.5 20 40.5Z" fill="#FC070C" />
<path fill-rule="evenodd" clip-rule="evenodd" d="M32.4119 14.5101L32.4118 14.51C31.4856 13.6106 30.5068 12.6603 29.6431 11.8937L29.5556 11.8324C29.41 11.7155 29.2458 11.6238 29.0699 11.5612L28.4033 11.4368C23.8033 10.5785 8.89296 7.79638 8.58625 7.83368C8.49553 7.84639 8.40882 7.87928 8.3325 7.92993L8.24937 7.99556C8.14702 8.09951 8.06928 8.22509 8.02187 8.36306L8 8.41993V8.73056V8.77868C9.01229 11.5974 11.6419 17.8924 14.07 23.7048L14.07 23.7048C16.1227 28.6188 18.0314 33.1879 18.6968 35.0198L18.6971 35.0206C18.7846 35.2921 18.9509 35.8074 19.2612 35.8336H19.3312C19.4975 35.8336 20.2062 34.8974 20.2062 34.8974C20.2062 34.8974 32.8762 19.5324 34.158 17.8962C34.324 17.6946 34.4705 17.4778 34.5955 17.2487C34.6605 16.884 34.5293 16.5119 34.2499 16.2687C33.7041 15.7647 33.0713 15.1503 32.4119 14.5101ZM23.4568 18.058L28.8643 13.5736L32.0361 16.4961L23.4568 18.058ZM12.0469 10.1349L21.3568 17.7648L27.11 12.913L12.0469 10.1349ZM22.1969 19.7642L31.7256 18.2286L20.8319 31.3536L22.1969 19.7642ZM20.5781 19.2086L10.7825 10.8961L19.1606 31.3623L20.5781 19.2086Z" fill="white" />
</symbol><symbol viewBox="0 0 40 41" fill="none" id="usdt">
<path d="M39.4016 25.3381C36.7301 36.0525 25.877 42.5731 15.1601 39.9012C4.44772 37.2301 -2.07358 26.3775 0.599038 15.6639C3.26931 4.94838 14.1225 -1.57268 24.836 1.09847C35.5521 3.76961 42.073 14.6234 39.4013 25.3383L39.4015 25.3381H39.4016Z" fill="#50AF95" />
<path fill-rule="evenodd" clip-rule="evenodd" d="M22.5336 22.7675C22.3922 22.7781 21.6615 22.8217 20.0314 22.8217C18.735 22.8217 17.8145 22.7828 17.4915 22.7675C12.4812 22.5471 8.74146 21.675 8.74146 20.6309C8.74146 19.5867 12.4812 18.7158 17.4915 18.4919V21.8989C17.8192 21.9225 18.7573 21.9779 20.0538 21.9779C21.6096 21.9779 22.3887 21.9131 22.5289 21.9001V18.4943C27.5286 18.717 31.2601 19.5891 31.2601 20.6309C31.2601 21.6727 27.5298 22.5447 22.5289 22.7663L22.5336 22.7675ZM22.5335 18.1419V15.0932H29.5109V10.444H10.514V15.0932H17.4902V18.1407C11.8199 18.4012 7.55566 19.5243 7.55566 20.8701C7.55566 22.2159 11.8199 23.3378 17.4902 23.5994V33.3691H22.5324V23.5959C28.1897 23.3355 32.4469 22.2136 32.4469 20.8689C32.4469 19.5243 28.1933 18.4023 22.5324 18.1407L22.5335 18.1419Z" fill="white" />
</symbol><symbol viewBox="0 0 25 24" fill="none" id="user">
<path fill-rule="evenodd" clip-rule="evenodd" d="M12.7496 2.75C10.7969 2.75 9.21387 4.33299 9.21387 6.28571C9.21387 8.23844 10.7969 9.82143 12.7496 9.82143C14.7023 9.82143 16.2853 8.23844 16.2853 6.28571C16.2853 4.33299 14.7023 2.75 12.7496 2.75ZM7.71387 6.28571C7.71387 3.50457 9.96843 1.25 12.7496 1.25C15.5307 1.25 17.7853 3.50457 17.7853 6.28571C17.7853 9.06686 15.5307 11.3214 12.7496 11.3214C9.96843 11.3214 7.71387 9.06686 7.71387 6.28571Z" fill="currentColor" />
<path fill-rule="evenodd" clip-rule="evenodd" d="M5.05958 16.1661C6.61682 14.5023 9.14944 13.25 13.0357 13.25C16.922 13.25 19.4546 14.5023 21.0118 16.1661C22.5495 17.8088 23.0714 19.7847 23.0714 21.1429C23.0714 21.5571 22.7356 21.8929 22.3214 21.8929H3.75C3.33579 21.8929 3 21.5571 3 21.1429C3 19.7847 3.52196 17.8088 5.05958 16.1661ZM4.56378 20.3929H21.5076C21.3516 19.4301 20.89 18.2309 19.9167 17.1911C18.6882 15.8786 16.578 14.75 13.0357 14.75C9.49342 14.75 7.38318 15.8786 6.15471 17.1911C5.18143 18.2309 4.71986 19.4301 4.56378 20.3929Z" fill="currentColor" />
</symbol><symbol viewBox="0 0 20 20" fill="none" id="whatsapp">
<path d="M5.25301 16.494L5.97701 16.917C7.19795 17.6291 8.5866 18.0029 10 18C11.5823 18 13.129 17.5308 14.4446 16.6518C15.7602 15.7727 16.7855 14.5233 17.3911 13.0615C17.9966 11.5997 18.155 9.99113 17.8463 8.43928C17.5376 6.88743 16.7757 5.46197 15.6569 4.34315C14.538 3.22433 13.1126 2.4624 11.5607 2.15372C10.0089 1.84504 8.40036 2.00346 6.93855 2.60896C5.47674 3.21447 4.22731 4.23984 3.34826 5.55544C2.46921 6.87103 2.00001 8.41775 2.00001 10C2.00001 11.436 2.37701 12.813 3.08401 14.024L3.50601 14.748L2.85301 17.149L5.25301 16.494ZM0.00401338 20L1.35601 15.032C0.465151 13.5049 -0.00289063 11.768 1.34322e-05 10C1.34322e-05 4.477 4.47701 0 10 0C15.523 0 20 4.477 20 10C20 15.523 15.523 20 10 20C8.23279 20.0029 6.49667 19.5352 4.97001 18.645L0.00401338 20ZM6.39101 5.308C6.52501 5.298 6.66001 5.298 6.79401 5.304C6.84801 5.308 6.90201 5.314 6.95601 5.32C7.11501 5.338 7.29001 5.435 7.34901 5.569C7.64701 6.245 7.93701 6.926 8.21701 7.609C8.27901 7.761 8.24201 7.956 8.12401 8.146C8.04286 8.27448 7.95507 8.39865 7.86101 8.518C7.74801 8.663 7.50501 8.929 7.50501 8.929C7.50501 8.929 7.40601 9.047 7.44401 9.194C7.45801 9.25 7.50401 9.331 7.54601 9.399L7.60501 9.494C7.86101 9.921 8.20501 10.354 8.62501 10.762C8.74501 10.878 8.86201 10.997 8.98801 11.108C9.45601 11.521 9.98601 11.858 10.558 12.108L10.563 12.11C10.648 12.147 10.691 12.167 10.815 12.22C10.877 12.246 10.941 12.269 11.006 12.286C11.0732 12.3031 11.1439 12.2999 11.2093 12.2767C11.2746 12.2536 11.3316 12.2116 11.373 12.156C12.097 11.279 12.163 11.222 12.169 11.222V11.224C12.2193 11.1771 12.2791 11.1415 12.3443 11.1196C12.4095 11.0977 12.4786 11.09 12.547 11.097C12.607 11.101 12.668 11.112 12.724 11.137C13.255 11.38 14.124 11.759 14.124 11.759L14.706 12.02C14.804 12.067 14.893 12.178 14.896 12.285C14.9 12.352 14.906 12.46 14.883 12.658C14.851 12.917 14.773 13.228 14.695 13.391C14.6416 13.5022 14.5707 13.6042 14.485 13.693C14.3841 13.7989 14.2736 13.8954 14.155 13.981C14.114 14.0119 14.0723 14.0419 14.03 14.071C13.9056 14.1499 13.7778 14.2233 13.647 14.291C13.3895 14.4278 13.1052 14.5063 12.814 14.521C12.629 14.531 12.444 14.545 12.258 14.535C12.25 14.535 11.69 14.448 11.69 14.448C10.2683 14.074 8.9534 13.3735 7.85001 12.402C7.62401 12.203 7.41501 11.989 7.20101 11.776C6.31101 10.891 5.63901 9.936 5.23101 9.034C5.02218 8.59129 4.90938 8.1094 4.90001 7.62C4.89589 7.01285 5.09436 6.42167 5.46401 5.94C5.53701 5.846 5.60601 5.748 5.72501 5.635C5.85201 5.515 5.93201 5.451 6.01901 5.407C6.13469 5.34903 6.26088 5.31502 6.39001 5.307L6.39101 5.308Z" fill="currentColor" />
</symbol></defs></svg>