<svg width="16" height="16" viewBox="0 0 16 16" fill="none" xmlns="http://www.w3.org/2000/svg">
<path d="M12.4733 6.27337C12.4113 6.21088 12.3376 6.16129 12.2563 6.12744C12.1751 6.0936 12.088 6.07617 12 6.07617C11.912 6.07617 11.8248 6.0936 11.7436 6.12744C11.6623 6.16129 11.5886 6.21088 11.5266 6.27337L8.47329 9.3267C8.41132 9.38918 8.33758 9.43878 8.25634 9.47262C8.1751 9.50647 8.08797 9.5239 7.99996 9.5239C7.91195 9.5239 7.82481 9.50647 7.74357 9.47262C7.66233 9.43878 7.5886 9.38918 7.52663 9.3267L4.47329 6.27337C4.41132 6.21088 4.33758 6.16129 4.25634 6.12744C4.1751 6.0936 4.08797 6.07617 3.99996 6.07617C3.91195 6.07617 3.82481 6.0936 3.74357 6.12744C3.66233 6.16129 3.5886 6.21088 3.52663 6.27337C3.40246 6.39828 3.33276 6.56725 3.33276 6.74337C3.33276 6.91949 3.40246 7.08846 3.52663 7.21337L6.58663 10.2734C6.96163 10.6479 7.46996 10.8583 7.99996 10.8583C8.52996 10.8583 9.03829 10.6479 9.41329 10.2734L12.4733 7.21337C12.5975 7.08846 12.6672 6.91949 12.6672 6.74337C12.6672 6.56725 12.5975 6.39828 12.4733 6.27337Z" fill="#FF8200"/>
</svg>
