<svg width="24" height="25" viewBox="0 0 24 25" fill="none" xmlns="http://www.w3.org/2000/svg">
<path d="M20.6588 11.6168L19.9397 11.4035L20.6588 11.6168ZM19.578 15.2601L20.297 15.4734L19.578 15.2601ZM4.42204 15.2601L5.14107 15.0468L4.42204 15.2601ZM3.34125 11.6167L2.62222 11.83L3.34125 11.6167ZM8.68373 20.7018L8.89122 19.981H8.89122L8.68373 20.7018ZM5.57099 18.3783L4.93903 18.7822L5.57099 18.3783ZM18.429 18.3783L19.061 18.7822L18.429 18.3783ZM15.3163 20.7018L15.1088 19.981L15.3163 20.7018ZM21.7603 7.71642V6.96642H21.1714L21.0317 7.53845L21.7603 7.71642ZM2.23973 7.71642V6.96642H1.28447L1.51115 7.89439L2.23973 7.71642ZM1 6.96642C0.585786 6.96642 0.25 7.3022 0.25 7.71642C0.25 8.13063 0.585786 8.46642 1 8.46642V6.96642ZM23 8.46642C23.4142 8.46642 23.75 8.13063 23.75 7.71642C23.75 7.3022 23.4142 6.96642 23 6.96642V8.46642ZM14.95 12.1164C14.95 11.7022 14.6142 11.3664 14.2 11.3664C13.7858 11.3664 13.45 11.7022 13.45 12.1164H14.95ZM13.45 16.5164C13.45 16.9306 13.7858 17.2664 14.2 17.2664C14.6142 17.2664 14.95 16.9306 14.95 16.5164H13.45ZM15.8304 2.78608C15.5375 2.49318 15.0626 2.49318 14.7697 2.78608C14.4768 3.07897 14.4768 3.55384 14.7697 3.84674L15.8304 2.78608ZM9.49723 3.84675C9.79013 3.55386 9.79013 3.07899 9.49723 2.78609C9.20434 2.4932 8.72947 2.4932 8.43657 2.78609L9.49723 3.84675ZM10.55 12.1164C10.55 11.7022 10.2142 11.3664 9.8 11.3664C9.38579 11.3664 9.05 11.7022 9.05 12.1164H10.55ZM9.05 16.5164C9.05 16.9306 9.38579 17.2664 9.8 17.2664C10.2142 17.2664 10.55 16.9306 10.55 16.5164H9.05ZM19.9397 11.4035L18.8589 15.0468L20.297 15.4734L21.3778 11.8301L19.9397 11.4035ZM5.14107 15.0468L4.06028 11.4034L2.62222 11.83L3.70301 15.4734L5.14107 15.0468ZM12 20.1664C10.2387 20.1664 9.51048 20.1593 8.89122 19.981L8.47624 21.4225C9.3483 21.6735 10.3338 21.6664 12 21.6664V20.1664ZM3.70301 15.4734C4.17688 17.0708 4.45033 18.0176 4.93903 18.7822L6.20294 17.9744C5.85591 17.4315 5.64196 16.7353 5.14107 15.0468L3.70301 15.4734ZM8.89122 19.981C7.78091 19.6614 6.82516 18.948 6.20294 17.9744L4.93903 18.7822C5.75775 20.0632 7.0153 21.0019 8.47624 21.4225L8.89122 19.981ZM18.8589 15.0468C18.358 16.7353 18.1441 17.4315 17.7971 17.9744L19.061 18.7822C19.5497 18.0176 19.8231 17.0708 20.297 15.4734L18.8589 15.0468ZM12 21.6664C13.6662 21.6664 14.6517 21.6735 15.5238 21.4225L15.1088 19.981C14.4895 20.1593 13.7613 20.1664 12 20.1664V21.6664ZM17.7971 17.9744C17.1748 18.948 16.2191 19.6614 15.1088 19.981L15.5238 21.4225C16.9847 21.0019 18.2423 20.0632 19.061 18.7822L17.7971 17.9744ZM21.3778 11.8301C21.8418 10.266 22.2246 8.97607 22.4888 7.89439L21.0317 7.53845C20.7781 8.57661 20.4075 9.82674 19.9397 11.4035L21.3778 11.8301ZM4.06028 11.4034C3.59254 9.82674 3.2219 8.57661 2.96831 7.53845L1.51115 7.89439C1.77537 8.97607 2.15825 10.266 2.62222 11.83L4.06028 11.4034ZM13.45 12.1164V16.5164H14.95V12.1164H13.45ZM9.05 12.1164V16.5164H10.55V12.1164H9.05ZM14.7697 3.84674L19.1697 8.24675L20.2304 7.18609L15.8304 2.78608L14.7697 3.84674ZM19.7001 8.46642H21.9V6.96642H19.7001V8.46642ZM21.9 8.46642H23V6.96642H21.9V8.46642ZM21.7603 8.46642H21.9V6.96642H21.7603V8.46642ZM1 8.46642H4.56691V6.96642H1V8.46642ZM4.56691 8.46642H19.7001V6.96642H4.56691V8.46642ZM8.43657 2.78609L4.03658 7.18609L5.09724 8.24675L9.49723 3.84675L8.43657 2.78609ZM2.23973 8.46642H4.56691V6.96642H2.23973V8.46642Z" fill="white"/>
</svg>
