<svg width="24" height="24" viewBox="0 0 24 24" fill="none" xmlns="http://www.w3.org/2000/svg">
<path d="M20.6588 11.3003L19.9397 11.087L20.6588 11.3003ZM19.578 14.9437L20.297 15.157L19.578 14.9437ZM4.42204 14.9436L5.14107 14.7303L4.42204 14.9436ZM3.34125 11.3003L2.62222 11.5136L3.34125 11.3003ZM8.68373 20.3853L8.89122 19.6646H8.89122L8.68373 20.3853ZM5.57099 18.0619L4.93903 18.4658L5.57099 18.0619ZM18.429 18.0619L19.061 18.4658L18.429 18.0619ZM15.3163 20.3853L15.1088 19.6646L15.3163 20.3853ZM21.7603 7.40001V6.65001H21.1714L21.0317 7.22204L21.7603 7.40001ZM2.23973 7.40001V6.65001H1.28447L1.51115 7.57798L2.23973 7.40001ZM1 6.65001C0.585786 6.65001 0.25 6.9858 0.25 7.40001C0.25 7.81423 0.585786 8.15001 1 8.15001V6.65001ZM23 8.15001C23.4142 8.15001 23.75 7.81423 23.75 7.40001C23.75 6.9858 23.4142 6.65001 23 6.65001V8.15001ZM14.95 11.8C14.95 11.3858 14.6142 11.05 14.2 11.05C13.7858 11.05 13.45 11.3858 13.45 11.8H14.95ZM13.45 16.2C13.45 16.6142 13.7858 16.95 14.2 16.95C14.6142 16.95 14.95 16.6142 14.95 16.2H13.45ZM15.8304 2.46967C15.5375 2.17678 15.0626 2.17678 14.7697 2.46967C14.4768 2.76256 14.4768 3.23744 14.7697 3.53033L15.8304 2.46967ZM9.49723 3.53035C9.79013 3.23745 9.79013 2.76258 9.49723 2.46969C9.20434 2.17679 8.72947 2.17679 8.43657 2.46969L9.49723 3.53035ZM10.55 11.8C10.55 11.3858 10.2142 11.05 9.8 11.05C9.38579 11.05 9.05 11.3858 9.05 11.8H10.55ZM9.05 16.2C9.05 16.6142 9.38579 16.95 9.8 16.95C10.2142 16.95 10.55 16.6142 10.55 16.2H9.05ZM19.9397 11.087L18.8589 14.7304L20.297 15.157L21.3778 11.5136L19.9397 11.087ZM5.14107 14.7303L4.06028 11.087L2.62222 11.5136L3.70301 15.1569L5.14107 14.7303ZM12 19.85C10.2387 19.85 9.51048 19.8429 8.89122 19.6646L8.47624 21.1061C9.3483 21.3571 10.3338 21.35 12 21.35V19.85ZM3.70301 15.1569C4.17688 16.7544 4.45033 17.7012 4.93903 18.4658L6.20294 17.658C5.85591 17.115 5.64196 16.4189 5.14107 14.7303L3.70301 15.1569ZM8.89122 19.6646C7.78091 19.345 6.82516 18.6316 6.20294 17.658L4.93903 18.4658C5.75775 19.7468 7.0153 20.6855 8.47624 21.1061L8.89122 19.6646ZM18.8589 14.7304C18.358 16.4189 18.1441 17.115 17.7971 17.658L19.061 18.4658C19.5497 17.7012 19.8231 16.7544 20.297 15.157L18.8589 14.7304ZM12 21.35C13.6662 21.35 14.6517 21.3571 15.5238 21.1061L15.1088 19.6646C14.4895 19.8429 13.7613 19.85 12 19.85V21.35ZM17.7971 17.658C17.1748 18.6316 16.2191 19.345 15.1088 19.6646L15.5238 21.1061C16.9847 20.6855 18.2423 19.7468 19.061 18.4658L17.7971 17.658ZM21.3778 11.5136C21.8418 9.94962 22.2246 8.65967 22.4888 7.57798L21.0317 7.22204C20.7781 8.26021 20.4075 9.51033 19.9397 11.087L21.3778 11.5136ZM4.06028 11.087C3.59254 9.51034 3.2219 8.2602 2.96831 7.22204L1.51115 7.57798C1.77537 8.65966 2.15825 9.94962 2.62222 11.5136L4.06028 11.087ZM13.45 11.8V16.2H14.95V11.8H13.45ZM9.05 11.8V16.2H10.55V11.8H9.05ZM14.7697 3.53033L19.1697 7.93034L20.2304 6.86968L15.8304 2.46967L14.7697 3.53033ZM19.7001 8.15001H21.9V6.65001H19.7001V8.15001ZM21.9 8.15001H23V6.65001H21.9V8.15001ZM21.7603 8.15001H21.9V6.65001H21.7603V8.15001ZM1 8.15001H4.56691V6.65001H1V8.15001ZM4.56691 8.15001H19.7001V6.65001H4.56691V8.15001ZM8.43657 2.46969L4.03658 6.86968L5.09724 7.93034L9.49723 3.53035L8.43657 2.46969ZM2.23973 8.15001H4.56691V6.65001H2.23973V8.15001Z" fill="#161C8E"/>
</svg>
