<svg width="58" height="58" viewBox="0 0 58 58" fill="none" xmlns="http://www.w3.org/2000/svg">
<g clip-path="url(#clip0_1_2341)">
<path d="M57.5026 16.9227C57.5026 19.9866 56.4392 22.8018 54.6608 25.0197C54.0851 25.7387 53.4337 26.3954 52.7191 26.9769C50.4884 28.7933 47.6431 29.8815 44.5425 29.8815C37.3854 29.8815 31.5837 24.0793 31.5837 16.9227C31.5837 16.5408 31.5997 16.1634 31.6329 15.7899C32.2063 9.16516 37.7673 3.96484 44.5425 3.96484C51.6996 3.96484 57.5026 9.76741 57.5026 16.9227Z" fill="#FF8200"/>
<path d="M46.7258 25.0197C45.6903 25.0197 44.8784 24.1276 44.9761 23.0952L45.2925 20.9084C45.5598 18.0821 43.484 15.7899 40.6573 15.7899H31.6329C31.5997 16.1634 31.5837 16.5408 31.5837 16.9227C31.5837 24.0794 37.3854 29.8815 44.5425 29.8815C47.6436 29.8815 50.4884 28.7934 52.7191 26.9769C53.4337 26.3954 54.0851 25.7387 54.6608 25.0197H46.7258Z" fill="#D7740E"/>
<path d="M45.4033 7.27966C45.4033 7.75447 45.0183 8.13989 44.5431 8.13989C44.0678 8.13989 43.6829 7.75447 43.6829 7.27966C43.6829 6.80441 44.0678 6.41943 44.5431 6.41943C45.0183 6.41943 45.4033 6.80441 45.4033 7.27966Z" fill="white"/>
<path d="M35.5093 16.9232C35.5093 17.3985 35.1243 17.7834 34.6491 17.7834C34.1743 17.7834 33.7893 17.3985 33.7893 16.9232C33.7893 16.4484 34.1743 16.063 34.6491 16.063C35.1243 16.063 35.5093 16.4484 35.5093 16.9232Z" fill="white"/>
<path d="M55.3137 16.9232C55.3137 17.3985 54.9287 17.7834 54.4535 17.7834C53.9787 17.7834 53.5933 17.3985 53.5933 16.9232C53.5933 16.4484 53.9787 16.063 54.4535 16.063C54.9287 16.063 55.3137 16.4484 55.3137 16.9232Z" fill="white"/>
<path d="M45.4112 16.9232C45.4112 17.3985 45.0262 17.7834 44.5514 17.7834C44.0761 17.7834 43.6912 17.3985 43.6912 16.9232C43.6912 16.4484 44.0761 16.063 44.5514 16.063C45.0262 16.063 45.4112 16.4484 45.4112 16.9232Z" fill="black"/>
<path d="M18.7821 48.8818C18.5149 51.7164 16.0001 54.0144 13.165 54.0144C10.3303 54.0144 8.24876 51.7164 8.51603 48.8818C8.78331 46.0471 11.2981 43.7491 14.1332 43.7491C16.9679 43.7491 19.0494 46.0471 18.7821 48.8818Z" fill="#41739F"/>
<path d="M15.5461 48.8818C15.446 49.9411 14.5062 50.8 13.4468 50.8C12.387 50.8 11.6091 49.9411 11.7091 48.8818C11.8091 47.8224 12.749 46.9635 13.8083 46.9635C14.8677 46.9635 15.6456 47.8224 15.5461 48.8818Z" fill="#C4DAEC"/>
<path d="M54.3728 48.8818C54.1055 51.7164 51.5912 54.0144 48.7561 54.0144C45.9214 54.0144 43.8398 51.7164 44.1071 48.8818C44.3744 46.0471 46.8891 43.7491 49.7238 43.7491C52.5589 43.7491 54.64 46.0471 54.3728 48.8818Z" fill="#41739F"/>
<path d="M51.1367 48.8818C51.0371 49.9411 50.0972 50.8 49.0374 50.8C47.9781 50.8 47.2002 49.9411 47.3002 48.8818C47.4002 47.8224 48.34 46.9635 49.3994 46.9635C50.4588 46.9635 51.2367 47.8224 51.1367 48.8818Z" fill="#C4DAEC"/>
<path d="M40.0228 43.8699H6.60571L8.52132 23.5518C8.74345 21.1999 10.8303 19.2927 13.1827 19.2927H38.0797C40.4325 19.2927 42.1596 21.1999 41.9379 23.5518L40.0228 43.8699Z" fill="#F2D1A5"/>
<path d="M57.8459 39.7883L57.4609 43.8695H40.0227L41.5228 27.9562H48.0081C48.4113 27.9562 48.7794 28.1243 49.0228 28.4212L55.54 36.3589L57.5605 38.8201C57.7782 39.0838 57.8795 39.4294 57.8459 39.7883Z" fill="#ED4C54"/>
<path d="M55.5402 36.3589H48.0782C47.2419 36.3589 46.6273 35.6814 46.706 34.8442L47.3556 27.9562H48.0088C48.4119 27.9562 48.7796 28.1243 49.023 28.4212L55.5402 36.3589Z" fill="#B9F7FF"/>
<path d="M56.9478 48.1878H5.81283C5.42166 48.1878 5.13403 47.8706 5.1712 47.4789L5.44467 44.5783C5.4814 44.1871 5.82876 43.8699 6.21994 43.8699H57.3549C57.7465 43.8699 58.0337 44.1871 57.997 44.5783L57.7235 47.4789C57.6863 47.8706 57.3394 48.1878 56.9478 48.1878Z" fill="#FF8200"/>
<path d="M57.4609 43.87H56.367C55.3179 43.87 54.5479 43.0199 54.647 41.9712C54.7457 40.9224 55.6763 40.0724 56.725 40.0724H57.8189L57.4609 43.87Z" fill="#FFDB06"/>
<path d="M6.60571 20.9552H0.860229C0.384979 20.9552 0 20.5703 0 20.095C0 19.6202 0.384979 19.2352 0.860229 19.2352H6.60571C7.08096 19.2352 7.46594 19.6202 7.46594 20.095C7.46594 20.5703 7.08096 20.9552 6.60571 20.9552Z" fill="#D1D1D6"/>
<path d="M5.51446 24.4723H2.64172C2.16692 24.4723 1.78149 24.0874 1.78149 23.6121C1.78149 23.1373 2.16647 22.7523 2.64172 22.7523H5.51446C5.98971 22.7523 6.37469 23.1373 6.37469 23.6121C6.37469 24.0874 5.98971 24.4723 5.51446 24.4723Z" fill="#D1D1D6"/>
<path d="M4.72559 27.9893H3.93616C3.46135 27.9893 3.07593 27.6043 3.07593 27.1291C3.07593 26.6543 3.46135 26.2693 3.93616 26.2693H4.72559C5.20039 26.2693 5.58581 26.6543 5.58581 27.1291C5.58581 27.6043 5.20039 27.9893 4.72559 27.9893Z" fill="#D1D1D6"/>
<path d="M36.2609 37.1646H24.5536C24.0788 37.1646 23.6934 36.7796 23.6934 36.3044C23.6934 35.8296 24.0783 35.4446 24.5536 35.4446H36.2609C36.7357 35.4446 37.1207 35.8296 37.1207 36.3044C37.1207 36.7796 36.7357 37.1646 36.2609 37.1646Z" fill="#ECEFF1"/>
<path d="M35.6729 40.6812H29.1278C28.653 40.6812 28.2676 40.2962 28.2676 39.8214C28.2676 39.3466 28.653 38.9612 29.1278 38.9612H35.6733C36.1481 38.9612 36.5336 39.3466 36.5336 39.8214C36.5331 40.2967 36.1481 40.6812 35.6729 40.6812Z" fill="#ECEFF1"/>
<path d="M26.4165 28.1216L23.8385 26.3387L20.675 28.1216C20.5591 28.1866 20.4378 28.1092 20.4586 27.9835L21.887 19.2927H28.1065L26.678 27.9835C26.6572 28.1092 26.5108 28.1866 26.4165 28.1216Z" fill="#ECEFF1"/>
<path d="M50.9018 17.7834H44.5514C44.0761 17.7834 43.6912 17.3984 43.6912 16.9232V10.5715C43.6912 10.0966 44.0761 9.71167 44.5514 9.71167C45.0262 9.71167 45.4112 10.0966 45.4112 10.5715V16.0634H50.9018C51.3766 16.0634 51.762 16.4484 51.762 16.9232C51.762 17.3984 51.3766 17.7834 50.9018 17.7834Z" fill="white"/>
<path d="M22.1765 36.3044C22.1765 36.7797 21.7915 37.1647 21.3163 37.1647C20.8415 37.1647 20.4561 36.7797 20.4561 36.3044C20.4561 35.8296 20.8415 35.4442 21.3163 35.4442C21.7915 35.4442 22.1765 35.8296 22.1765 36.3044Z" fill="#ECEFF1"/>
</g>
<defs>
<clipPath id="clip0_1_2341">
<rect width="58" height="58" fill="white"/>
</clipPath>
</defs>
</svg>
