<svg width="24" height="25" viewBox="0 0 24 25" fill="none" xmlns="http://www.w3.org/2000/svg">
<g clip-path="url(#clip0_1_1997)">
<path d="M22.897 12.3173L23.9499 9.57094C24.0654 9.26796 23.9754 8.92448 23.7219 8.719L21.4391 6.86812L20.9771 3.96282C20.9261 3.64184 20.6741 3.39136 20.3531 3.34036L17.4478 2.87839L15.5985 0.594049C15.3945 0.340566 15.0435 0.250573 14.748 0.366065L12.0002 1.42049L9.25391 0.367565C8.94943 0.250573 8.60895 0.343566 8.40347 0.595549L6.55259 2.87989L3.64729 3.34186C3.32781 3.39286 3.07583 3.64484 3.02483 3.96432L2.56287 6.86962L0.278521 8.7205C0.0265383 8.92448 -0.0649554 9.26796 0.0505367 9.57094L1.10346 12.3173L0.0505367 15.0636C-0.0664553 15.3665 0.0265383 15.71 0.278521 15.914L2.56287 17.7634L3.02483 20.6687C3.07583 20.9897 3.32631 21.2416 3.64729 21.2926L6.55259 21.7546L8.40347 24.0375C8.60895 24.2924 8.95243 24.3824 9.25541 24.2654L12.0002 23.214L14.7465 24.2669C14.8335 24.2999 14.9235 24.3164 15.015 24.3164C15.2355 24.3164 15.453 24.2189 15.5985 24.0375L17.4478 21.7546L20.3531 21.2926C20.6741 21.2416 20.9261 20.9897 20.9771 20.6687L21.4391 17.7634L23.7219 15.914C23.9754 15.7085 24.0654 15.3665 23.9499 15.0636L22.897 12.3173Z" fill="#161C8E"/>
<path d="M8.95029 10.8176C7.70987 10.8176 6.70044 9.80819 6.70044 8.56778C6.70044 7.32736 7.70987 6.31793 8.95029 6.31793C10.1907 6.31793 11.2001 7.32736 11.2001 8.56778C11.2001 9.80819 10.1907 10.8176 8.95029 10.8176ZM8.95029 7.81783C8.53631 7.81783 8.20034 8.15381 8.20034 8.56778C8.20034 8.98175 8.53631 9.31773 8.95029 9.31773C9.36426 9.31773 9.70023 8.98175 9.70023 8.56778C9.70023 8.15381 9.36426 7.81783 8.95029 7.81783Z" fill="white"/>
<path d="M15.0499 18.3168C13.8095 18.3168 12.8 17.3074 12.8 16.067C12.8 14.8266 13.8095 13.8171 15.0499 13.8171C16.2903 13.8171 17.2997 14.8266 17.2997 16.067C17.2997 17.3074 16.2903 18.3168 15.0499 18.3168ZM15.0499 15.317C14.6374 15.317 14.2999 15.6545 14.2999 16.067C14.2999 16.4795 14.6374 16.8169 15.0499 16.8169C15.4624 16.8169 15.7998 16.4795 15.7998 16.067C15.7998 15.6545 15.4624 15.317 15.0499 15.317Z" fill="white"/>
<path d="M8.2505 18.3168C8.09901 18.3168 7.94752 18.2718 7.81553 18.1774C7.47805 17.9359 7.40006 17.4679 7.64154 17.1304L15.141 6.63114C15.3825 6.29367 15.8505 6.21567 16.188 6.45716C16.5254 6.69714 16.6019 7.16661 16.3619 7.50258L8.86246 18.0019C8.71397 18.2074 8.48449 18.3168 8.2505 18.3168Z" fill="white"/>
</g>
<defs>
<clipPath id="clip0_1_1997">
<rect width="24" height="24" fill="white" transform="translate(0 0.316406)"/>
</clipPath>
</defs>
</svg>
