<svg width="58" height="58" viewBox="0 0 58 58" fill="none" xmlns="http://www.w3.org/2000/svg">
<path d="M22.647 5H25.8234V20.8824H22.647V5Z" fill="#FF8200"/>
<path d="M29 5V20.8824H38.5294V5H29ZM35.3529 17.7059H32.1765V8.17647H35.3529V17.7059Z" fill="#FF8200"/>
<path d="M5.17634 24.4181L4.40869 26.6265L5.17634 29.3986C6.83721 27.3809 7.43259 26.7614 8.35281 25.467L9.35869 21.6765L8.35281 18.8602C7.56706 20.8441 6.50082 22.7187 5.17634 24.4181Z" fill="#2E3233"/>
<path d="M56 24.0588H17.0882L7.97241 36.2134L9.28821 37.4L16.2941 38.353L35.7765 39.4118L56 38.353V24.0588Z" fill="#FF8200"/>
<path d="M7.06689 39.2918L15.4138 52.647H56V38.3529H16.2941L7.06689 39.2918Z" fill="#FF8200"/>
<path d="M42.0449 18.8182L53.1566 5.05247L55.628 7.04736L44.5163 20.8131L42.0449 18.8182Z" fill="#FF8200"/>
<path d="M43.2944 5H46.4709V8.17647H43.2944V5Z" fill="#FF8200"/>
<path d="M51.2351 17.7059H54.4116V20.8824H51.2351V17.7059Z" fill="#FF8200"/>
<path d="M16.2941 36.7647H10.2764C7.46427 36.7647 5.17647 34.4769 5.17647 31.6647C5.17647 30.5368 5.17647 11.6866 5.17647 10.5588C5.17647 9.24525 6.24525 8.17647 7.55882 8.17647C8.8724 8.17647 9.94118 9.24525 9.94118 10.5588C9.94118 13.4171 9.39292 16.2345 8.35294 18.8602V25.4668C11.4367 21.1296 13.1176 15.9069 13.1176 10.5587C13.1176 7.49364 10.624 5 7.55882 5C4.49363 5 2 7.49364 2 10.5588V31.6647C2 34.4103 3.34492 36.8464 5.40931 38.3529L11.5647 39.1471L16.2941 38.3529V36.7647Z" fill="#3A4A4F"/>
<path d="M5.40918 38.3529C6.77633 39.3505 8.45827 39.9411 10.2763 39.9411H16.294V38.3529H5.40918Z" fill="#2E3233"/>
<path d="M21.0588 30.4117V38.3529L22.5412 39.4117L24.2353 38.3529V33.5882H27.4118V38.3529L29 39.4117L30.5882 38.3529V30.4117H21.0588Z" fill="white"/>
<path d="M27.4118 43.1176H24.2353V38.3529H21.0588V46.2941H30.5882V38.3529H27.4118V43.1176Z" fill="white" fill-opacity="0.75"/>
<path d="M36.9414 36.7647V33.5882H40.1178V30.4117H33.7649V38.3529L36.9414 39.147L40.1178 38.3529V36.7647H36.9414Z" fill="white"/>
<path d="M49.6474 36.7647H46.4709V33.5882H49.6474V30.4117H43.2944V38.3529L46.4709 39.147L49.6474 38.3529V36.7647Z" fill="white"/>
<path d="M33.7649 46.2941H36.9414V39.9411H40.1178V38.3529H33.7649V46.2941Z" fill="white" fill-opacity="0.75"/>
<path d="M43.2944 38.3529V46.2941H46.4709V39.9411H49.6474V38.3529H43.2944Z" fill="white" fill-opacity="0.75"/>
</svg>
