<svg width="244" height="39" viewBox="0 0 244 39" fill="none" xmlns="http://www.w3.org/2000/svg">
<path d="M37.7603 16.0564L36.8604 18.2654C36.5762 19.0174 36.5762 19.8165 36.8604 20.5685L37.7603 22.7776C38.2813 24.0936 37.855 25.5977 36.6709 26.4437L34.6817 27.8067C34.0186 28.2768 33.5923 28.9818 33.4029 29.7338L32.9766 32.0839C32.6924 33.4939 31.5083 34.528 30.0875 34.575L27.6719 34.669C26.8668 34.716 26.1089 35.045 25.5406 35.609L23.8829 37.348C22.8882 38.3821 21.3253 38.6171 20.0938 37.9121L18.0098 36.69C17.2994 36.267 16.4942 36.173 15.689 36.361L13.3209 36.925C11.9474 37.254 10.4791 36.596 9.81602 35.327L8.72666 33.1649C8.34776 32.4599 7.73204 31.8959 6.97423 31.6609L4.70079 30.9088C3.32726 30.4388 2.47472 29.1228 2.61681 27.7127L2.85363 25.3157C2.94836 24.5166 2.71154 23.7176 2.19055 23.1066L0.674925 21.2265C-0.224975 20.0985 -0.224975 18.5474 0.674925 17.4194L2.19055 15.5393C2.71154 14.9283 2.94836 14.1293 2.85363 13.3303L2.61681 10.9332C2.47472 9.52314 3.32726 8.2071 4.70079 7.73708L6.97423 6.98506C7.73204 6.75005 8.34776 6.18603 8.72666 5.48101L9.81602 3.31894C10.4791 2.0499 11.9 1.39187 13.3209 1.72089L15.689 2.2849C16.4469 2.47291 17.2994 2.37891 18.0098 1.95589L20.0938 0.733854C21.3253 0.0288313 22.8882 0.216837 23.8829 1.29787L25.5406 3.03693C26.1089 3.60095 26.8668 3.97696 27.6719 3.97696L30.0875 4.07096C31.5083 4.11796 32.7398 5.152 32.9766 6.56204L33.4029 8.91212C33.545 9.71115 34.0186 10.4162 34.6817 10.8392L36.6709 12.2022C37.855 13.2363 38.3286 14.7403 37.7603 16.0564Z" fill="#FF8200"/>
<g opacity="0.15">
<path d="M11.1895 35.186L10.1002 33.0239C9.72129 32.3189 9.10557 31.7549 8.34776 31.5199L6.07432 30.7678C4.70079 30.2978 3.84826 28.9818 3.99035 27.5717L4.22716 25.1747C4.32189 24.3756 4.08507 23.5766 3.56408 22.9656L2.04846 21.0855C1.14856 19.9575 1.14856 18.4064 2.04846 17.2784L3.56408 15.3983C4.08507 14.7873 4.32189 13.9883 4.22716 13.1893L3.99035 10.7922C3.84826 9.38214 4.70079 8.0661 6.07432 7.59608L8.34776 6.84406C9.10557 6.60905 9.72129 6.04503 10.1002 5.34001L11.1895 3.17794C11.5685 2.42591 12.2315 1.9089 12.942 1.67389C11.6632 1.48588 10.3844 2.14391 9.81601 3.31894L8.72666 5.48101C8.34776 6.18604 7.73204 6.75006 6.97423 6.98506L4.70079 7.73709C3.32726 8.2071 2.47472 9.52315 2.61681 10.9332L2.85363 13.3303C2.94836 14.1293 2.71154 14.9283 2.19055 15.5393L0.674925 17.4194C-0.224975 18.5474 -0.224975 20.0985 0.674925 21.2265L2.19055 23.1066C2.71154 23.7176 2.94836 24.5166 2.85363 25.3157L2.61681 27.7127C2.47472 29.1228 3.32726 30.4388 4.70079 30.9088L6.97423 31.6609C7.73204 31.8959 8.34776 32.4599 8.72666 33.1649L9.81601 35.327C10.4791 36.596 11.9 37.2541 13.3209 36.925L13.6051 36.878C12.5631 36.69 11.6632 36.126 11.1895 35.186Z" fill="black"/>
<path d="M19.3359 1.81492L21.4199 0.592881C21.6094 0.498878 21.7988 0.404875 21.9883 0.357873C21.3252 0.26387 20.6147 0.404875 20.0464 0.733886L17.9624 1.95592C17.7729 2.04993 17.5835 2.14393 17.394 2.19093C18.0571 2.28494 18.7202 2.19093 19.3359 1.81492Z" fill="black"/>
<path d="M28.998 34.481C28.7612 34.481 28.5244 34.528 28.335 34.575L30.04 34.481C30.2768 34.481 30.4663 34.434 30.7031 34.387L28.998 34.481Z" fill="black"/>
<path d="M21.4199 37.7241L19.3359 36.502C18.6255 36.079 17.8203 35.985 17.0151 36.173L16.731 36.22C17.1572 36.267 17.5361 36.408 17.915 36.596L19.999 37.8181C20.8042 38.2881 21.7041 38.3351 22.5566 38.0531C22.1777 38.0531 21.7988 37.9591 21.4199 37.7241Z" fill="black"/>
</g>
<path d="M11.4736 16.4324L17.394 23.1536L29.519 13.4713" fill="#FF8200"/>
<path d="M15.9733 26.6317C15.3102 26.6317 14.6471 26.3497 14.1735 25.8326L8.2531 19.1114C7.40056 18.1244 7.49529 16.6674 8.44255 15.7743C9.43718 14.9283 10.9054 15.0223 11.8053 15.9623L16.2575 20.9915L26.63 12.7192C27.6246 11.9202 29.1403 12.0612 29.9454 13.0952C30.7506 14.1293 30.6085 15.5863 29.5665 16.3853L17.4416 26.1147C17.0153 26.4437 16.4943 26.6317 15.9733 26.6317Z" fill="white"/>
<path d="M233.161 3.40796H240V5.89766H235.648V10.0716H238.994V11.0967C238.994 11.5361 238.86 11.89 238.592 12.1585C238.324 12.427 237.97 12.5613 237.531 12.5613H235.648V16.7352H240V19.2249H233.161V3.40796Z" fill="black"/>
<path d="M223.519 3.42627H228.621C229.34 3.42627 229.913 3.64595 230.34 4.08531C230.779 4.51246 230.998 5.08607 230.998 5.80613V10.1631C230.998 10.7123 230.87 11.1822 230.614 11.5727C230.358 11.9511 230.005 12.2196 229.554 12.3782L231.547 19.2066H229.773C229.493 19.2066 229.243 19.1273 229.023 18.9686C228.816 18.8099 228.676 18.5964 228.603 18.3279L226.92 12.543H226.006V19.2066H223.519V3.42627ZM226.006 10.0716H227.597C227.877 10.0716 228.097 9.99225 228.255 9.83359C228.426 9.66273 228.511 9.43695 228.511 9.15625V6.813C228.511 6.53229 228.426 6.31262 228.255 6.15396C228.097 5.9831 227.877 5.89767 227.597 5.89767H226.006V10.0716Z" fill="black"/>
<path d="M213.62 6.0624C213.62 5.2325 213.87 4.56736 214.37 4.06698C214.87 3.5666 215.534 3.31641 216.363 3.31641H218.612C219.441 3.31641 220.106 3.5666 220.605 4.06698C221.105 4.56736 221.355 5.2325 221.355 6.0624V16.5704C221.355 17.4003 221.105 18.0655 220.605 18.5658C220.106 19.0662 219.441 19.3164 218.612 19.3164H216.363C215.534 19.3164 214.87 19.0662 214.37 18.5658C213.87 18.0655 213.62 17.4003 213.62 16.5704V6.0624ZM216.802 16.8267H218.173C218.368 16.8267 218.533 16.7596 218.667 16.6253C218.801 16.4911 218.868 16.3263 218.868 16.1311V6.59329C218.868 6.337 218.801 6.14173 218.667 6.00748C218.533 5.87323 218.368 5.80611 218.173 5.80611H216.802C216.607 5.80611 216.442 5.87323 216.308 6.00748C216.174 6.14173 216.107 6.337 216.107 6.59329V16.1311C216.107 16.3263 216.174 16.4911 216.308 16.6253C216.442 16.7596 216.607 16.8267 216.802 16.8267Z" fill="black"/>
<path d="M204.567 3.42627H212.357V5.89767H209.705V19.2249H207.218V5.89767H204.567V3.42627Z" fill="black"/>
<path d="M195.858 8.89993V6.0624C195.858 5.2325 196.108 4.56736 196.608 4.06698C197.107 3.5666 197.772 3.31641 198.601 3.31641H200.594C201.423 3.31641 202.087 3.5666 202.587 4.06698C203.087 4.56736 203.337 5.2325 203.337 6.0624V8.40565L200.868 7.56355V6.70313C200.868 6.42243 200.783 6.20275 200.612 6.04409C200.454 5.87323 200.234 5.7878 199.954 5.7878H199.241C198.96 5.7878 198.735 5.87323 198.564 6.04409C198.406 6.20275 198.326 6.42243 198.326 6.70313V8.5338C198.326 8.92434 198.442 9.25386 198.674 9.52236C198.905 9.79085 199.21 9.95561 199.588 10.0166L200.265 10.1265C200.728 10.1997 201.149 10.3401 201.526 10.5475C201.904 10.755 202.227 11.0174 202.496 11.3347C202.764 11.652 202.971 12.0182 203.117 12.4331C203.264 12.8359 203.337 13.2691 203.337 13.7329V16.5704C203.337 17.4003 203.087 18.0655 202.587 18.5658C202.087 19.0662 201.423 19.3164 200.594 19.3164H198.601C197.772 19.3164 197.107 19.0662 196.608 18.5658C196.108 18.0655 195.858 17.4003 195.858 16.5704V15.0693H198.326V15.9297C198.326 16.2104 198.406 16.4362 198.564 16.607C198.735 16.7657 198.96 16.845 199.241 16.845H199.954C200.234 16.845 200.454 16.7657 200.612 16.607C200.783 16.4362 200.868 16.2104 200.868 15.9297V14.099C200.868 13.7085 200.752 13.379 200.521 13.1105C200.289 12.842 199.984 12.6772 199.606 12.6162L198.93 12.5063C198.467 12.4331 198.046 12.2928 197.668 12.0853C197.29 11.8778 196.967 11.6154 196.699 11.2981C196.431 10.9808 196.224 10.6208 196.077 10.218C195.931 9.80306 195.858 9.3637 195.858 8.89993Z" fill="black"/>
<path d="M182.24 3.40796H185.001L186.427 10.4377L187.853 3.40796H190.615L187.671 14.099V19.2249H185.184V14.099L182.24 3.40796Z" fill="black"/>
<path d="M173.511 16.845V5.80613C173.511 5.08607 173.724 4.51246 174.151 4.08531C174.59 3.64595 175.169 3.42627 175.888 3.42627H178.612C179.332 3.42627 179.905 3.64595 180.331 4.08531C180.77 4.51246 180.99 5.08607 180.99 5.80613V8.82673L178.503 8.00293V6.61162C178.503 6.41635 178.436 6.25159 178.302 6.11734C178.167 5.9831 178.003 5.91597 177.808 5.91597H176.692C176.497 5.91597 176.333 5.9831 176.199 6.11734C176.065 6.25159 175.998 6.41635 175.998 6.61162V16.0395C175.998 16.2348 176.065 16.3996 176.199 16.5338C176.333 16.6681 176.497 16.7352 176.692 16.7352H177.808C178.003 16.7352 178.167 16.6681 178.302 16.5338C178.436 16.3996 178.503 16.2348 178.503 16.0395V14.6482L180.99 15.472V16.845C180.99 17.5651 180.77 18.1448 180.331 18.5842C179.905 19.0113 179.332 19.2249 178.612 19.2249H175.888C175.169 19.2249 174.59 19.0113 174.151 18.5842C173.724 18.1448 173.511 17.5651 173.511 16.845Z" fill="black"/>
<path d="M165.388 5.38507C165.485 4.78706 165.741 4.30498 166.156 3.93885C166.583 3.57272 167.101 3.38965 167.71 3.38965H169.502L171.989 19.2249H169.411L168.99 16.186H166.229L165.808 19.2066H163.23L165.388 5.38507ZM166.576 13.7146H168.643L167.619 6.41024L166.576 13.7146Z" fill="black"/>
<path d="M150.37 19.2249V3.40796H152.948C153.387 3.40796 153.759 3.54221 154.064 3.8107C154.368 4.067 154.551 4.41482 154.612 4.85418L155.984 14.6848L157.337 4.85418C157.398 4.41482 157.58 4.067 157.885 3.8107C158.19 3.54221 158.562 3.40796 159.001 3.40796H161.579V19.2249H159.001L159.293 7.03267L157.3 19.2249H154.649L152.656 7.03267L152.948 19.2249H150.37Z" fill="black"/>
<path d="M140.728 3.42627H145.83C146.549 3.42627 147.122 3.64595 147.549 4.08531C147.987 4.51246 148.207 5.08607 148.207 5.80613V10.1631C148.207 10.7123 148.079 11.1822 147.823 11.5727C147.567 11.9511 147.213 12.2196 146.762 12.3782L148.755 19.2066H146.982C146.701 19.2066 146.451 19.1273 146.232 18.9686C146.025 18.8099 145.885 18.5964 145.811 18.3279L144.129 12.543H143.215V19.2066H140.728V3.42627ZM143.215 10.0716H144.806C145.086 10.0716 145.305 9.99225 145.464 9.83359C145.635 9.66273 145.72 9.43695 145.72 9.15625V6.813C145.72 6.53229 145.635 6.31262 145.464 6.15396C145.305 5.9831 145.086 5.89767 144.806 5.89767H143.215V10.0716Z" fill="black"/>
<path d="M132.498 5.38507C132.596 4.78706 132.852 4.30498 133.266 3.93885C133.693 3.57272 134.211 3.38965 134.82 3.38965H136.612L139.099 19.2249H136.521L136.1 16.186H133.339L132.919 19.2066H130.34L132.498 5.38507ZM133.687 13.7146H135.753L134.729 6.41024L133.687 13.7146Z" fill="black"/>
<path d="M121.208 3.40796H123.695V10.0716H126.2V3.40796H128.687V19.2249H126.2V12.5613H123.695V19.2249H121.208V3.40796Z" fill="black"/>
<path d="M111.781 3.42627H116.883C117.602 3.42627 118.175 3.64595 118.601 4.08531C119.04 4.51246 119.26 5.08607 119.26 5.80613V10.7306C119.26 11.4507 119.04 12.0304 118.601 12.4697C118.175 12.8969 117.602 13.1105 116.883 13.1105H114.268V19.2249H111.781V3.42627ZM114.268 5.89767V10.6208H116.078C116.273 10.6208 116.438 10.5537 116.572 10.4194C116.706 10.2852 116.773 10.1204 116.773 9.92513V6.59332C116.773 6.39805 116.706 6.23329 116.572 6.09904C116.438 5.96479 116.273 5.89767 116.078 5.89767H114.268Z" fill="black"/>
<path d="M103.258 3.42627C104.087 3.42627 104.751 3.67646 105.251 4.17684C105.751 4.67722 106.001 5.34236 106.001 6.17226V16.4789C106.001 17.3088 105.751 17.9739 105.251 18.4743C104.751 18.9747 104.087 19.2249 103.258 19.2249H98.54V3.42627H103.258ZM101.027 5.89767V16.7352H102.819C103.002 16.7352 103.16 16.6681 103.294 16.5338C103.441 16.3874 103.514 16.2226 103.514 16.0395V6.59332C103.514 6.41025 103.441 6.25159 103.294 6.11734C103.16 5.97089 103.002 5.89767 102.819 5.89767H101.027Z" fill="black"/>
<path d="M89.9053 3.40796H96.744V5.89766H92.3921V10.0716H95.7383V11.0967C95.7383 11.5361 95.6043 11.89 95.3361 12.1585C95.0679 12.427 94.7144 12.5613 94.2755 12.5613H92.3921V16.7352H96.744V19.2249H89.9053V3.40796Z" fill="black"/>
<path d="M88.0451 3.40796V5.89766H83.6931V10.0716H86.8565V11.0967C86.8565 11.5361 86.7224 11.89 86.4542 12.1585C86.186 12.427 85.8325 12.5613 85.3937 12.5613H83.6931V19.2249H81.2063V3.40796H88.0451Z" fill="black"/>
<path d="M76.5627 19.2249V3.40796H79.0496V19.2249H76.5627Z" fill="black"/>
<path d="M66.8296 3.42627H71.9312C72.6505 3.42627 73.2234 3.64595 73.6501 4.08531C74.0889 4.51246 74.3084 5.08607 74.3084 5.80613V10.1631C74.3084 10.7123 74.1804 11.1822 73.9244 11.5727C73.6684 11.9511 73.3148 12.2196 72.8638 12.3782L74.8569 19.2066H73.0832C72.8029 19.2066 72.553 19.1273 72.3335 18.9686C72.1263 18.8099 71.9861 18.5964 71.913 18.3279L70.2307 12.543H69.3164V19.2066H66.8296V3.42627ZM69.3164 10.0716H70.9073C71.1876 10.0716 71.4071 9.99225 71.5655 9.83359C71.7362 9.66273 71.8215 9.43695 71.8215 9.15625V6.813C71.8215 6.53229 71.7362 6.31262 71.5655 6.15396C71.4071 5.9831 71.1876 5.89767 70.9073 5.89767H69.3164V10.0716Z" fill="black"/>
<path d="M58.1946 3.40796H65.0334V5.89766H60.6814V10.0716H64.0277V11.0967C64.0277 11.5361 63.8936 11.89 63.6254 12.1585C63.3572 12.427 63.0037 12.5613 62.5648 12.5613H60.6814V16.7352H65.0334V19.2249H58.1946V3.40796Z" fill="black"/>
<path d="M50.4868 3.40796L52.2239 15.4354L53.9428 3.38965H56.4296L54.0708 19.2249H52.5714C51.9131 19.2249 51.3523 19.0296 50.8891 18.6391C50.4259 18.2363 50.1455 17.7054 50.048 17.0464L48 3.40796H50.4868Z" fill="black"/>
<path d="M49.1449 25.8619H50.5114L53.7244 33.7099H53.8352L57.0483 25.8619H58.4148V35.3164H57.3438V28.1332H57.2514L54.2969 35.3164H53.2628L50.3082 28.1332H50.2159V35.3164H49.1449V25.8619ZM63.4433 35.4641C62.8031 35.4641 62.2414 35.3118 61.7583 35.0071C61.2781 34.7024 60.9027 34.2762 60.6318 33.7283C60.3641 33.1805 60.2302 32.5404 60.2302 31.8079C60.2302 31.0692 60.3641 30.4245 60.6318 29.8736C60.9027 29.3227 61.2781 28.8949 61.7583 28.5902C62.2414 28.2855 62.8031 28.1332 63.4433 28.1332C64.0834 28.1332 64.6436 28.2855 65.1237 28.5902C65.6069 28.8949 65.9823 29.3227 66.2501 29.8736C66.5209 30.4245 66.6563 31.0692 66.6563 31.8079C66.6563 32.5404 66.5209 33.1805 66.2501 33.7283C65.9823 34.2762 65.6069 34.7024 65.1237 35.0071C64.6436 35.3118 64.0834 35.4641 63.4433 35.4641ZM63.4433 34.4854C63.9295 34.4854 64.3296 34.3608 64.6436 34.1115C64.9575 33.8622 65.1898 33.5344 65.3406 33.1282C65.4914 32.7219 65.5669 32.2818 65.5669 31.8079C65.5669 31.3339 65.4914 30.8923 65.3406 30.483C65.1898 30.0736 64.9575 29.7428 64.6436 29.4904C64.3296 29.238 63.9295 29.1119 63.4433 29.1119C62.957 29.1119 62.5569 29.238 62.243 29.4904C61.9291 29.7428 61.6967 30.0736 61.5459 30.483C61.3951 30.8923 61.3197 31.3339 61.3197 31.8079C61.3197 32.2818 61.3951 32.7219 61.5459 33.1282C61.6967 33.5344 61.9291 33.8622 62.243 34.1115C62.5569 34.3608 62.957 34.4854 63.4433 34.4854ZM68.3194 35.3164V28.2255H69.372V29.2965H69.4458C69.5751 28.9457 69.809 28.661 70.1475 28.4425C70.4861 28.224 70.8677 28.1147 71.2924 28.1147C71.3725 28.1147 71.4725 28.1162 71.5925 28.1193C71.7125 28.1224 71.8033 28.127 71.8649 28.1332V29.2411C71.8279 29.2319 71.7433 29.218 71.611 29.1996C71.4817 29.178 71.3448 29.1673 71.2001 29.1673C70.8554 29.1673 70.5476 29.2396 70.2768 29.3842C70.0091 29.5258 69.7967 29.7228 69.6397 29.9751C69.4859 30.2244 69.4089 30.5091 69.4089 30.8292V35.3164H68.3194ZM75.9135 35.4641C75.2303 35.4641 74.6409 35.3133 74.1454 35.0117C73.653 34.707 73.2729 34.2823 73.0051 33.7376C72.7405 33.1897 72.6081 32.5527 72.6081 31.8263C72.6081 31.1 72.7405 30.4599 73.0051 29.9059C73.2729 29.3488 73.6453 28.9149 74.1223 28.604C74.6025 28.2901 75.1626 28.1332 75.8027 28.1332C76.1721 28.1332 76.5368 28.1947 76.8968 28.3178C77.2569 28.4409 77.5847 28.641 77.8801 28.918C78.1756 29.1919 78.411 29.555 78.5865 30.0075C78.7619 30.4599 78.8496 31.0169 78.8496 31.6786V32.1403H73.3837V31.1985H77.7417C77.7417 30.7984 77.6616 30.4414 77.5016 30.1275C77.3446 29.8136 77.12 29.5658 76.8276 29.3842C76.5383 29.2027 76.1967 29.1119 75.8027 29.1119C75.3688 29.1119 74.9933 29.2196 74.6763 29.435C74.3624 29.6474 74.1208 29.9244 73.9515 30.266C73.7823 30.6076 73.6976 30.9738 73.6976 31.3647V31.9925C73.6976 32.5281 73.79 32.982 73.9746 33.3544C74.1623 33.7237 74.4224 34.0053 74.7548 34.1992C75.0872 34.39 75.4734 34.4854 75.9135 34.4854C76.1998 34.4854 76.4583 34.4454 76.6891 34.3654C76.923 34.2823 77.1246 34.1592 77.2939 33.9961C77.4631 33.8299 77.5939 33.6237 77.6863 33.3775L78.7388 33.6729C78.628 34.0299 78.4418 34.3439 78.1802 34.6147C77.9186 34.8825 77.5955 35.0917 77.2108 35.2425C76.8261 35.3903 76.3936 35.4641 75.9135 35.4641ZM87.4686 25.8619V35.3164H86.3237V27.0621H86.2683L83.96 28.5948V27.4315L86.3237 25.8619H87.4686ZM93.2715 35.4457C92.5759 35.4457 91.9835 35.2564 91.4941 34.8778C91.0048 34.4962 90.6309 33.9438 90.3723 33.2205C90.1138 32.4942 89.9846 31.6171 89.9846 30.5891C89.9846 29.5674 90.1138 28.6948 90.3723 27.9716C90.6339 27.2453 91.0094 26.6913 91.4988 26.3097C91.9912 25.925 92.5821 25.7326 93.2715 25.7326C93.9609 25.7326 94.5502 25.925 95.0396 26.3097C95.532 26.6913 95.9075 27.2453 96.166 27.9716C96.4276 28.6948 96.5584 29.5674 96.5584 30.5891C96.5584 31.6171 96.4292 32.4942 96.1706 33.2205C95.9121 33.9438 95.5382 34.4962 95.0488 34.8778C94.5595 35.2564 93.967 35.4457 93.2715 35.4457ZM93.2715 34.43C93.9609 34.43 94.4964 34.0977 94.878 33.4329C95.2596 32.7681 95.4505 31.8202 95.4505 30.5891C95.4505 29.7705 95.3627 29.0734 95.1873 28.4979C95.015 27.9223 94.7657 27.4838 94.4395 27.1822C94.1163 26.8806 93.727 26.7298 93.2715 26.7298C92.5882 26.7298 92.0543 27.0668 91.6696 27.7408C91.2849 28.4117 91.0925 29.3612 91.0925 30.5891C91.0925 31.4078 91.1787 32.1033 91.351 32.6758C91.5234 33.2482 91.7711 33.6837 92.0943 33.9822C92.4205 34.2808 92.8129 34.43 93.2715 34.43ZM101.396 35.4457C100.701 35.4457 100.108 35.2564 99.6191 34.8778C99.1298 34.4962 98.7559 33.9438 98.4973 33.2205C98.2388 32.4942 98.1096 31.6171 98.1096 30.5891C98.1096 29.5674 98.2388 28.6948 98.4973 27.9716C98.7589 27.2453 99.1344 26.6913 99.6238 26.3097C100.116 25.925 100.707 25.7326 101.396 25.7326C102.086 25.7326 102.675 25.925 103.165 26.3097C103.657 26.6913 104.032 27.2453 104.291 27.9716C104.553 28.6948 104.683 29.5674 104.683 30.5891C104.683 31.6171 104.554 32.4942 104.296 33.2205C104.037 33.9438 103.663 34.4962 103.174 34.8778C102.684 35.2564 102.092 35.4457 101.396 35.4457ZM101.396 34.43C102.086 34.43 102.621 34.0977 103.003 33.4329C103.385 32.7681 103.575 31.8202 103.575 30.5891C103.575 29.7705 103.488 29.0734 103.312 28.4979C103.14 27.9223 102.891 27.4838 102.564 27.1822C102.241 26.8806 101.852 26.7298 101.396 26.7298C100.713 26.7298 100.179 27.0668 99.7946 27.7408C99.4099 28.4117 99.2175 29.3612 99.2175 30.5891C99.2175 31.4078 99.3037 32.1033 99.476 32.6758C99.6484 33.2482 99.8961 33.6837 100.219 33.9822C100.546 34.2808 100.938 34.43 101.396 34.43ZM110.648 35.3164H109.448L112.919 25.8619H114.101L117.573 35.3164H116.372L113.547 27.3576H113.473L110.648 35.3164ZM111.091 31.6232H115.929V32.6388H111.091V31.6232ZM118.898 37.9755V28.2255H119.95V29.3519H120.079C120.159 29.2288 120.27 29.0719 120.412 28.881C120.556 28.6871 120.763 28.5148 121.03 28.364C121.301 28.2101 121.667 28.1332 122.129 28.1332C122.726 28.1332 123.252 28.2824 123.708 28.581C124.163 28.8795 124.519 29.3027 124.774 29.8505C125.03 30.3983 125.157 31.0446 125.157 31.7894C125.157 32.5404 125.03 33.1913 124.774 33.7422C124.519 34.29 124.165 34.7147 123.713 35.0163C123.26 35.3149 122.738 35.4641 122.148 35.4641C121.692 35.4641 121.327 35.3887 121.053 35.2379C120.78 35.084 120.569 34.9102 120.421 34.7163C120.273 34.5193 120.159 34.3562 120.079 34.2269H119.987V37.9755H118.898ZM119.969 31.771C119.969 32.3065 120.047 32.7789 120.204 33.1882C120.361 33.5945 120.59 33.913 120.892 34.1438C121.193 34.3716 121.563 34.4854 122 34.4854C122.455 34.4854 122.835 34.3654 123.14 34.1254C123.448 33.8822 123.679 33.556 123.833 33.1467C123.99 32.7343 124.068 32.2757 124.068 31.771C124.068 31.2724 123.991 30.823 123.837 30.4229C123.686 30.0198 123.457 29.7012 123.149 29.4673C122.845 29.2304 122.461 29.1119 122 29.1119C121.557 29.1119 121.184 29.2242 120.883 29.4489C120.581 29.6705 120.353 29.9813 120.199 30.3814C120.046 30.7784 119.969 31.2416 119.969 31.771ZM126.819 37.9755V28.2255H127.872V29.3519H128.001C128.081 29.2288 128.192 29.0719 128.334 28.881C128.478 28.6871 128.684 28.5148 128.952 28.364C129.223 28.2101 129.589 28.1332 130.051 28.1332C130.648 28.1332 131.174 28.2824 131.63 28.581C132.085 28.8795 132.441 29.3027 132.696 29.8505C132.952 30.3983 133.079 31.0446 133.079 31.7894C133.079 32.5404 132.952 33.1913 132.696 33.7422C132.441 34.29 132.087 34.7147 131.634 35.0163C131.182 35.3149 130.66 35.4641 130.069 35.4641C129.614 35.4641 129.249 35.3887 128.975 35.2379C128.701 35.084 128.491 34.9102 128.343 34.7163C128.195 34.5193 128.081 34.3562 128.001 34.2269H127.909V37.9755H126.819ZM127.89 31.771C127.89 32.3065 127.969 32.7789 128.126 33.1882C128.283 33.5945 128.512 33.913 128.814 34.1438C129.115 34.3716 129.485 34.4854 129.922 34.4854C130.377 34.4854 130.757 34.3654 131.062 34.1254C131.37 33.8822 131.601 33.556 131.754 33.1467C131.911 32.7343 131.99 32.2757 131.99 31.771C131.99 31.2724 131.913 30.823 131.759 30.4229C131.608 30.0198 131.379 29.7012 131.071 29.4673C130.767 29.2304 130.383 29.1119 129.922 29.1119C129.479 29.1119 129.106 29.2242 128.805 29.4489C128.503 29.6705 128.275 29.9813 128.121 30.3814C127.967 30.7784 127.89 31.2416 127.89 31.771ZM134.741 35.3164V28.2255H135.794V29.2965H135.868C135.997 28.9457 136.231 28.661 136.569 28.4425C136.908 28.224 137.29 28.1147 137.714 28.1147C137.794 28.1147 137.894 28.1162 138.014 28.1193C138.134 28.1224 138.225 28.127 138.287 28.1332V29.2411C138.25 29.2319 138.165 29.218 138.033 29.1996C137.904 29.178 137.767 29.1673 137.622 29.1673C137.277 29.1673 136.97 29.2396 136.699 29.3842C136.431 29.5258 136.219 29.7228 136.062 29.9751C135.908 30.2244 135.831 30.5091 135.831 30.8292V35.3164H134.741ZM142.243 35.4641C141.603 35.4641 141.041 35.3118 140.558 35.0071C140.078 34.7024 139.702 34.2762 139.432 33.7283C139.164 33.1805 139.03 32.5404 139.03 31.8079C139.03 31.0692 139.164 30.4245 139.432 29.8736C139.702 29.3227 140.078 28.8949 140.558 28.5902C141.041 28.2855 141.603 28.1332 142.243 28.1332C142.883 28.1332 143.443 28.2855 143.923 28.5902C144.407 28.8949 144.782 29.3227 145.05 29.8736C145.321 30.4245 145.456 31.0692 145.456 31.8079C145.456 32.5404 145.321 33.1805 145.05 33.7283C144.782 34.2762 144.407 34.7024 143.923 35.0071C143.443 35.3118 142.883 35.4641 142.243 35.4641ZM142.243 34.4854C142.729 34.4854 143.129 34.3608 143.443 34.1115C143.757 33.8622 143.99 33.5344 144.14 33.1282C144.291 32.7219 144.367 32.2818 144.367 31.8079C144.367 31.3339 144.291 30.8923 144.14 30.483C143.99 30.0736 143.757 29.7428 143.443 29.4904C143.129 29.238 142.729 29.1119 142.243 29.1119C141.757 29.1119 141.357 29.238 141.043 29.4904C140.729 29.7428 140.497 30.0736 140.346 30.483C140.195 30.8923 140.119 31.3339 140.119 31.8079C140.119 32.2818 140.195 32.7219 140.346 33.1282C140.497 33.5344 140.729 33.8622 141.043 34.1115C141.357 34.3608 141.757 34.4854 142.243 34.4854ZM152.664 28.2255L150.041 35.3164H148.934L146.311 28.2255H147.493L149.451 33.8761H149.524L151.482 28.2255H152.664ZM156.821 35.4641C156.138 35.4641 155.548 35.3133 155.053 35.0117C154.56 34.707 154.18 34.2823 153.912 33.7376C153.648 33.1897 153.515 32.5527 153.515 31.8263C153.515 31.1 153.648 30.4599 153.912 29.9059C154.18 29.3488 154.553 28.9149 155.03 28.604C155.51 28.2901 156.07 28.1332 156.71 28.1332C157.079 28.1332 157.444 28.1947 157.804 28.3178C158.164 28.4409 158.492 28.641 158.787 28.918C159.083 29.1919 159.318 29.555 159.494 30.0075C159.669 30.4599 159.757 31.0169 159.757 31.6786V32.1403H154.291V31.1985H158.649C158.649 30.7984 158.569 30.4414 158.409 30.1275C158.252 29.8136 158.027 29.5658 157.735 29.3842C157.446 29.2027 157.104 29.1119 156.71 29.1119C156.276 29.1119 155.901 29.2196 155.584 29.435C155.27 29.6474 155.028 29.9244 154.859 30.266C154.689 30.6076 154.605 30.9738 154.605 31.3647V31.9925C154.605 32.5281 154.697 32.982 154.882 33.3544C155.07 33.7237 155.33 34.0053 155.662 34.1992C155.994 34.39 156.381 34.4854 156.821 34.4854C157.107 34.4854 157.366 34.4454 157.596 34.3654C157.83 34.2823 158.032 34.1592 158.201 33.9961C158.37 33.8299 158.501 33.6237 158.593 33.3775L159.646 33.6729C159.535 34.0299 159.349 34.3439 159.087 34.6147C158.826 34.8825 158.503 35.0917 158.118 35.2425C157.733 35.3903 157.301 35.4641 156.821 35.4641ZM164.092 35.4641C163.501 35.4641 162.979 35.3149 162.527 35.0163C162.074 34.7147 161.72 34.29 161.465 33.7422C161.209 33.1913 161.082 32.5404 161.082 31.7894C161.082 31.0446 161.209 30.3983 161.465 29.8505C161.72 29.3027 162.076 28.8795 162.531 28.581C162.987 28.2824 163.513 28.1332 164.11 28.1332C164.572 28.1332 164.937 28.2101 165.204 28.364C165.475 28.5148 165.681 28.6871 165.823 28.881C165.968 29.0719 166.08 29.2288 166.16 29.3519H166.252V25.8619H167.342V35.3164H166.289V34.2269H166.16C166.08 34.3562 165.966 34.5193 165.818 34.7163C165.671 34.9102 165.46 35.084 165.186 35.2379C164.912 35.3887 164.547 35.4641 164.092 35.4641ZM164.239 34.4854C164.676 34.4854 165.046 34.3716 165.347 34.1438C165.649 33.913 165.878 33.5945 166.035 33.1882C166.192 32.7789 166.271 32.3065 166.271 31.771C166.271 31.2416 166.194 30.7784 166.04 30.3814C165.886 29.9813 165.658 29.6705 165.357 29.4489C165.055 29.2242 164.683 29.1119 164.239 29.1119C163.778 29.1119 163.393 29.2304 163.085 29.4673C162.781 29.7012 162.551 30.0198 162.397 30.4229C162.247 30.823 162.171 31.2724 162.171 31.771C162.171 32.2757 162.248 32.7343 162.402 33.1467C162.559 33.556 162.79 33.8822 163.095 34.1254C163.402 34.3654 163.784 34.4854 164.239 34.4854ZM180.9 28.8164H179.755C179.688 28.4871 179.569 28.1978 179.4 27.9485C179.234 27.6992 179.031 27.4899 178.791 27.3207C178.554 27.1483 178.29 27.0191 178.001 26.9329C177.712 26.8467 177.41 26.8036 177.096 26.8036C176.524 26.8036 176.005 26.9483 175.541 27.2376C175.079 27.5269 174.711 27.9531 174.437 28.5163C174.166 29.0795 174.031 29.7705 174.031 30.5891C174.031 31.4078 174.166 32.0987 174.437 32.6619C174.711 33.2251 175.079 33.6514 175.541 33.9407C176.005 34.23 176.524 34.3746 177.096 34.3746C177.41 34.3746 177.712 34.3316 178.001 34.2454C178.29 34.1592 178.554 34.0315 178.791 33.8622C179.031 33.6899 179.234 33.479 179.4 33.2298C179.569 32.9774 179.688 32.6881 179.755 32.3619H180.9C180.814 32.8451 180.657 33.2775 180.429 33.6591C180.202 34.0407 179.919 34.3654 179.58 34.6332C179.241 34.8978 178.861 35.0994 178.44 35.2379C178.021 35.3764 177.573 35.4457 177.096 35.4457C176.29 35.4457 175.573 35.2487 174.945 34.8548C174.317 34.4608 173.823 33.9007 173.463 33.1744C173.103 32.448 172.923 31.5863 172.923 30.5891C172.923 29.592 173.103 28.7302 173.463 28.0039C173.823 27.2776 174.317 26.7174 174.945 26.3235C175.573 25.9296 176.29 25.7326 177.096 25.7326C177.573 25.7326 178.021 25.8018 178.44 25.9403C178.861 26.0788 179.241 26.282 179.58 26.5497C179.919 26.8144 180.202 27.1375 180.429 27.5192C180.657 27.8977 180.814 28.3301 180.9 28.8164ZM185.576 35.4641C184.892 35.4641 184.303 35.3133 183.808 35.0117C183.315 34.707 182.935 34.2823 182.667 33.7376C182.403 33.1897 182.27 32.5527 182.27 31.8263C182.27 31.1 182.403 30.4599 182.667 29.9059C182.935 29.3488 183.307 28.9149 183.784 28.604C184.265 28.2901 184.825 28.1332 185.465 28.1332C185.834 28.1332 186.199 28.1947 186.559 28.3178C186.919 28.4409 187.247 28.641 187.542 28.918C187.838 29.1919 188.073 29.555 188.249 30.0075C188.424 30.4599 188.512 31.0169 188.512 31.6786V32.1403H183.046V31.1985H187.404C187.404 30.7984 187.324 30.4414 187.164 30.1275C187.007 29.8136 186.782 29.5658 186.49 29.3842C186.2 29.2027 185.859 29.1119 185.465 29.1119C185.031 29.1119 184.655 29.2196 184.338 29.435C184.025 29.6474 183.783 29.9244 183.614 30.266C183.444 30.6076 183.36 30.9738 183.36 31.3647V31.9925C183.36 32.5281 183.452 32.982 183.637 33.3544C183.824 33.7237 184.085 34.0053 184.417 34.1992C184.749 34.39 185.136 34.4854 185.576 34.4854C185.862 34.4854 186.12 34.4454 186.351 34.3654C186.585 34.2823 186.787 34.1592 186.956 33.9961C187.125 33.8299 187.256 33.6237 187.348 33.3775L188.401 33.6729C188.29 34.0299 188.104 34.3439 187.842 34.6147C187.581 34.8825 187.258 35.0917 186.873 35.2425C186.488 35.3903 186.056 35.4641 185.576 35.4641ZM190.169 35.3164V28.2255H191.222V29.2965H191.295C191.425 28.9457 191.659 28.661 191.997 28.4425C192.336 28.224 192.717 28.1147 193.142 28.1147C193.222 28.1147 193.322 28.1162 193.442 28.1193C193.562 28.1224 193.653 28.127 193.714 28.1332V29.2411C193.678 29.2319 193.593 29.218 193.461 29.1996C193.331 29.178 193.194 29.1673 193.05 29.1673C192.705 29.1673 192.397 29.2396 192.126 29.3842C191.859 29.5258 191.646 29.7228 191.489 29.9751C191.335 30.2244 191.259 30.5091 191.259 30.8292V35.3164H190.169ZM198.534 28.2255V29.1488H194.859V28.2255H198.534ZM195.93 26.5266H197.02V33.2852C197.02 33.5929 197.065 33.8237 197.154 33.9776C197.246 34.1284 197.363 34.23 197.505 34.2823C197.649 34.3316 197.802 34.3562 197.962 34.3562C198.082 34.3562 198.18 34.35 198.257 34.3377C198.334 34.3223 198.396 34.31 198.442 34.3008L198.663 35.2795C198.589 35.3072 198.486 35.3349 198.354 35.3626C198.222 35.3933 198.054 35.4087 197.851 35.4087C197.543 35.4087 197.241 35.3426 196.946 35.2102C196.654 35.0779 196.411 34.8763 196.217 34.6055C196.026 34.3346 195.93 33.993 195.93 33.5806V26.5266ZM200.173 35.3164V28.2255H201.262V35.3164H200.173ZM200.727 27.0437C200.515 27.0437 200.331 26.9714 200.178 26.8267C200.027 26.6821 199.951 26.5082 199.951 26.305C199.951 26.1019 200.027 25.928 200.178 25.7834C200.331 25.6387 200.515 25.5664 200.727 25.5664C200.939 25.5664 201.121 25.6387 201.272 25.7834C201.426 25.928 201.502 26.1019 201.502 26.305C201.502 26.5082 201.426 26.6821 201.272 26.8267C201.121 26.9714 200.939 27.0437 200.727 27.0437ZM206.416 28.2255V29.1488H202.593V28.2255H206.416ZM203.738 35.3164V27.2468C203.738 26.8406 203.833 26.502 204.024 26.2312C204.215 25.9603 204.463 25.7572 204.767 25.6218C205.072 25.4864 205.394 25.4187 205.732 25.4187C206 25.4187 206.219 25.4402 206.388 25.4833C206.557 25.5264 206.683 25.5664 206.766 25.6033L206.453 26.5451C206.397 26.5266 206.32 26.5036 206.222 26.4759C206.126 26.4482 206 26.4343 205.843 26.4343C205.483 26.4343 205.223 26.5251 205.063 26.7067C204.906 26.8883 204.828 27.1545 204.828 27.5053V35.3164H203.738ZM207.942 35.3164V28.2255H209.032V35.3164H207.942ZM208.496 27.0437C208.284 27.0437 208.101 26.9714 207.947 26.8267C207.796 26.6821 207.721 26.5082 207.721 26.305C207.721 26.1019 207.796 25.928 207.947 25.7834C208.101 25.6387 208.284 25.5664 208.496 25.5664C208.709 25.5664 208.89 25.6387 209.041 25.7834C209.195 25.928 209.272 26.1019 209.272 26.305C209.272 26.5082 209.195 26.6821 209.041 26.8267C208.89 26.9714 208.709 27.0437 208.496 27.0437ZM213.908 35.4641C213.243 35.4641 212.671 35.3072 212.191 34.9933C211.711 34.6793 211.341 34.2469 211.083 33.696C210.824 33.1451 210.695 32.5157 210.695 31.8079C210.695 31.0877 210.827 30.4522 211.092 29.9013C211.36 29.3473 211.732 28.9149 212.209 28.604C212.689 28.2901 213.249 28.1332 213.89 28.1332C214.388 28.1332 214.838 28.2255 215.238 28.4102C215.638 28.5948 215.966 28.8533 216.221 29.1857C216.476 29.5181 216.635 29.9059 216.696 30.3491H215.607C215.524 30.0259 215.339 29.7397 215.053 29.4904C214.77 29.238 214.388 29.1119 213.908 29.1119C213.483 29.1119 213.111 29.2227 212.791 29.4442C212.474 29.6628 212.226 29.9721 212.048 30.3722C211.872 30.7692 211.785 31.2354 211.785 31.771C211.785 32.3188 211.871 32.7958 212.043 33.2021C212.218 33.6083 212.465 33.9238 212.782 34.1484C213.102 34.3731 213.477 34.4854 213.908 34.4854C214.191 34.4854 214.448 34.4362 214.679 34.3377C214.91 34.2392 215.105 34.0977 215.265 33.913C215.425 33.7283 215.539 33.5067 215.607 33.2482H216.696C216.635 33.6668 216.483 34.0438 216.239 34.3793C215.999 34.7116 215.681 34.9763 215.284 35.1733C214.89 35.3672 214.431 35.4641 213.908 35.4641ZM220.376 35.4826C219.926 35.4826 219.519 35.398 219.152 35.2287C218.786 35.0563 218.495 34.8086 218.28 34.4854C218.064 34.1592 217.957 33.7653 217.957 33.3036C217.957 32.8974 218.037 32.5681 218.197 32.3157C218.357 32.0603 218.571 31.8602 218.839 31.7156C219.106 31.5709 219.402 31.4632 219.725 31.3924C220.051 31.3185 220.379 31.2601 220.708 31.217C221.139 31.1616 221.488 31.12 221.756 31.0923C222.027 31.0616 222.224 31.0108 222.347 30.94C222.473 30.8692 222.536 30.7461 222.536 30.5707V30.5337C222.536 30.0782 222.412 29.7243 222.162 29.4719C221.916 29.2196 221.542 29.0934 221.041 29.0934C220.52 29.0934 220.113 29.2073 219.817 29.435C219.522 29.6628 219.314 29.9059 219.194 30.1644L218.16 29.7951C218.345 29.3642 218.591 29.0288 218.899 28.7887C219.209 28.5456 219.548 28.3763 219.914 28.2809C220.283 28.1824 220.647 28.1332 221.004 28.1332C221.231 28.1332 221.493 28.1609 221.788 28.2163C222.087 28.2686 222.375 28.3778 222.652 28.544C222.932 28.7102 223.164 28.9611 223.349 29.2965C223.533 29.632 223.626 30.0813 223.626 30.6445V35.3164H222.536V34.3562H222.481C222.407 34.5101 222.284 34.6747 222.112 34.8501C221.939 35.0256 221.71 35.1748 221.424 35.2979C221.138 35.421 220.788 35.4826 220.376 35.4826ZM220.542 34.5039C220.973 34.5039 221.336 34.4193 221.631 34.25C221.93 34.0807 222.155 33.8622 222.305 33.5945C222.459 33.3267 222.536 33.0451 222.536 32.7496V31.7525C222.49 31.8079 222.389 31.8587 222.232 31.9048C222.078 31.9479 221.899 31.9864 221.696 32.0202C221.496 32.051 221.301 32.0787 221.11 32.1033C220.922 32.1249 220.77 32.1433 220.653 32.1587C220.37 32.1957 220.105 32.2557 219.859 32.3388C219.616 32.4188 219.419 32.5404 219.268 32.7035C219.12 32.8635 219.046 33.082 219.046 33.359C219.046 33.7376 219.186 34.0238 219.466 34.2177C219.749 34.4085 220.108 34.5039 220.542 34.5039ZM228.698 28.2255V29.1488H225.023V28.2255H228.698ZM226.094 26.5266H227.184V33.2852C227.184 33.5929 227.229 33.8237 227.318 33.9776C227.41 34.1284 227.527 34.23 227.669 34.2823C227.813 34.3316 227.966 34.3562 228.126 34.3562C228.246 34.3562 228.344 34.35 228.421 34.3377C228.498 34.3223 228.56 34.31 228.606 34.3008L228.827 35.2795C228.754 35.3072 228.65 35.3349 228.518 35.3626C228.386 35.3933 228.218 35.4087 228.015 35.4087C227.707 35.4087 227.406 35.3426 227.11 35.2102C226.818 35.0779 226.575 34.8763 226.381 34.6055C226.19 34.3346 226.094 33.993 226.094 33.5806V26.5266ZM233.234 35.4641C232.551 35.4641 231.961 35.3133 231.466 35.0117C230.973 34.707 230.593 34.2823 230.325 33.7376C230.061 33.1897 229.928 32.5527 229.928 31.8263C229.928 31.1 230.061 30.4599 230.325 29.9059C230.593 29.3488 230.966 28.9149 231.443 28.604C231.923 28.2901 232.483 28.1332 233.123 28.1332C233.492 28.1332 233.857 28.1947 234.217 28.3178C234.577 28.4409 234.905 28.641 235.2 28.918C235.496 29.1919 235.731 29.555 235.907 30.0075C236.082 30.4599 236.17 31.0169 236.17 31.6786V32.1403H230.704V31.1985H235.062C235.062 30.7984 234.982 30.4414 234.822 30.1275C234.665 29.8136 234.44 29.5658 234.148 29.3842C233.859 29.2027 233.517 29.1119 233.123 29.1119C232.689 29.1119 232.314 29.2196 231.997 29.435C231.683 29.6474 231.441 29.9244 231.272 30.266C231.103 30.6076 231.018 30.9738 231.018 31.3647V31.9925C231.018 32.5281 231.11 32.982 231.295 33.3544C231.483 33.7237 231.743 34.0053 232.075 34.1992C232.407 34.39 232.794 34.4854 233.234 34.4854C233.52 34.4854 233.779 34.4454 234.009 34.3654C234.243 34.2823 234.445 34.1592 234.614 33.9961C234.783 33.8299 234.914 33.6237 235.007 33.3775L236.059 33.6729C235.948 34.0299 235.762 34.3439 235.501 34.6147C235.239 34.8825 234.916 35.0917 234.531 35.2425C234.146 35.3903 233.714 35.4641 233.234 35.4641ZM242.85 29.8136L241.871 30.0906C241.81 29.9274 241.719 29.7689 241.599 29.6151C241.482 29.4581 241.322 29.3288 241.119 29.2273C240.916 29.1257 240.656 29.0749 240.339 29.0749C239.905 29.0749 239.543 29.175 239.254 29.375C238.968 29.572 238.824 29.8228 238.824 30.1275C238.824 30.3983 238.923 30.6122 239.12 30.7692C239.317 30.9261 239.625 31.0569 240.043 31.1616L241.096 31.4201C241.73 31.574 242.202 31.8094 242.513 32.1264C242.824 32.4403 242.979 32.8451 242.979 33.3406C242.979 33.7468 242.862 34.11 242.628 34.43C242.398 34.7501 242.074 35.0025 241.659 35.1871C241.243 35.3718 240.76 35.4641 240.209 35.4641C239.486 35.4641 238.887 35.3072 238.414 34.9933C237.94 34.6793 237.64 34.2208 237.513 33.6175L238.547 33.359C238.646 33.7406 238.832 34.0269 239.106 34.2177C239.383 34.4085 239.745 34.5039 240.191 34.5039C240.699 34.5039 241.102 34.3962 241.4 34.1808C241.702 33.9622 241.853 33.7006 241.853 33.396C241.853 33.1497 241.767 32.9435 241.594 32.7773C241.422 32.6081 241.157 32.4819 240.8 32.3988L239.618 32.1218C238.969 31.9679 238.492 31.7294 238.187 31.4062C237.886 31.08 237.735 30.6722 237.735 30.1829C237.735 29.7828 237.847 29.4289 238.072 29.1211C238.3 28.8133 238.609 28.5717 239 28.3963C239.394 28.2209 239.84 28.1332 240.339 28.1332C241.04 28.1332 241.591 28.2871 241.991 28.5948C242.394 28.9026 242.681 29.3088 242.85 29.8136Z" fill="black"/>
</svg>
