<svg width="50" height="51" viewBox="0 0 50 51" fill="none" xmlns="http://www.w3.org/2000/svg">
<g clip-path="url(#clip0_1_1717)">
<path d="M33.06 9.70619C34.9254 7.84084 34.9254 4.81651 33.06 2.95116C31.1947 1.08581 28.1704 1.08581 26.305 2.95116C24.4397 4.81651 24.4397 7.84084 26.305 9.70619C28.1704 11.5715 31.1947 11.5715 33.06 9.70619Z" fill="#5559C9"/>
<path d="M29.6863 1.54883C29.1389 1.54883 28.6135 1.64209 28.1238 1.81162C29.9946 2.45908 31.3385 4.23506 31.3385 6.32607C31.3385 8.41709 29.9946 10.1931 28.1238 10.8405C28.6135 11.0101 29.1389 11.1033 29.6863 11.1033C32.3247 11.1033 34.4635 8.96445 34.4635 6.32607C34.4635 3.6877 32.3247 1.54883 29.6863 1.54883Z" fill="#2F35B6"/>
<path d="M12.6528 26.0273C15.5237 25.0207 17.035 21.8774 16.0283 19.0065C15.0217 16.1356 11.8784 14.6243 9.0075 15.631C6.13663 16.6376 4.62536 19.7809 5.63199 22.6518C6.63862 25.5227 9.78196 27.034 12.6528 26.0273Z" fill="#FFA344"/>
<path d="M10.832 15.3087C10.2891 15.3087 9.76504 15.3886 9.26953 15.535C11.5494 16.2086 13.2136 18.317 13.2136 20.8153C13.2136 23.3135 11.5494 25.4219 9.26953 26.0955C9.76504 26.2419 10.2891 26.3218 10.832 26.3218C13.8732 26.3218 16.3386 23.8565 16.3386 20.8153C16.3386 17.774 13.8732 15.3087 10.832 15.3087Z" fill="#FF8200"/>
<path d="M26.206 46.938C24.9024 46.938 23.8455 45.8812 23.8455 44.5774V28.3165C23.8455 27.0128 24.9023 25.956 26.206 25.956C27.5096 25.956 28.5666 27.0128 28.5666 28.3165V44.5774C28.5666 45.8812 27.5096 46.938 26.206 46.938Z" fill="#EFEDEF"/>
<path d="M26.2041 30.6777C25.8567 30.6777 25.504 30.6006 25.1707 30.438L12.6453 24.3265C11.4737 23.7548 10.9872 22.3415 11.5589 21.1699C12.1305 19.9983 13.5437 19.5118 14.7155 20.0836L27.241 26.1951C28.4125 26.7668 28.899 28.1801 28.3273 29.3517C27.9183 30.1901 27.0783 30.6777 26.2041 30.6777Z" fill="#EFEDEF"/>
<path d="M26.2072 30.6772C25.5304 30.6772 24.8587 30.3877 24.3918 29.8271C23.5576 28.8252 23.6935 27.3368 24.6954 26.5027L37.657 15.7099C38.6589 14.8755 40.1474 15.0116 40.9814 16.0134C41.8157 17.0152 41.6797 18.5036 40.6779 19.3378L27.7164 30.1305C27.2751 30.498 26.7396 30.6772 26.2072 30.6772Z" fill="#EFEDEF"/>
<path d="M39.1684 19.6033C38.5782 19.6033 37.9918 19.3533 37.5803 18.8675L29.5391 9.37061C28.797 8.49414 28.9059 7.18203 29.7824 6.43985C30.6591 5.69785 31.971 5.80655 32.7132 6.68311L40.7545 16.18C41.4965 17.0564 41.3877 18.3686 40.5112 19.1107C40.1205 19.4416 39.6431 19.6033 39.1684 19.6033Z" fill="#EFEDEF"/>
<path d="M41.154 22.6496C43.9884 21.5487 45.3936 18.3585 44.2927 15.5241C43.1918 12.6898 40.0016 11.2845 37.1673 12.3854C34.3329 13.4863 32.9276 16.6765 34.0285 19.5109C35.1294 22.3453 38.3196 23.7505 41.154 22.6496Z" fill="#FFA344"/>
<path d="M39.1675 12.0172C38.6245 12.0172 38.1005 12.0971 37.605 12.2435C39.8849 12.9171 41.549 15.0255 41.549 17.5238C41.549 20.022 39.8849 22.1304 37.605 22.804C38.1005 22.9504 38.6245 23.0303 39.1675 23.0303C42.2087 23.0303 44.674 20.565 44.674 17.5238C44.674 14.4826 42.2087 12.0172 39.1675 12.0172Z" fill="#FF8200"/>
<path d="M28.9751 34.6764C32.4877 33.1628 34.1082 29.0883 32.5946 25.5757C31.081 22.0631 27.0065 20.4426 23.4939 21.9561C19.9813 23.4697 18.3608 27.5443 19.8744 31.0569C21.388 34.5695 25.4625 36.19 28.9751 34.6764Z" fill="#5559C9"/>
<path d="M26.2058 21.3958C25.6682 21.3958 25.1457 21.4591 24.6433 21.5751C27.7126 22.2838 30.0016 25.0319 30.0016 28.3165C30.0016 31.6011 27.7126 34.3492 24.6433 35.0579C25.1457 35.1739 25.6682 35.2372 26.2058 35.2372C30.0281 35.2372 33.1266 32.1387 33.1266 28.3165C33.1266 24.4943 30.0281 21.3958 26.2058 21.3958Z" fill="#2F35B6"/>
<path d="M28.5767 49.5264C31.3168 48.2095 32.4706 44.9207 31.1538 42.1806C29.837 39.4405 26.5482 38.2868 23.8081 39.6036C21.068 40.9204 19.9142 44.2092 21.231 46.9493C22.5478 49.6894 25.8366 50.8432 28.5767 49.5264Z" fill="#FFA344"/>
<path d="M26.2058 39.0709C25.6628 39.0709 25.1388 39.1508 24.6433 39.2972C26.9232 39.9708 28.5874 42.0792 28.5874 44.5775C28.5874 47.0757 26.9232 49.1841 24.6433 49.8577C25.1388 50.0041 25.6628 50.084 26.2058 50.084C29.247 50.084 31.7124 47.6187 31.7124 44.5775C31.7124 41.5363 29.247 39.0709 26.2058 39.0709Z" fill="#FF8200"/>
<path d="M39.1675 11.2848C38.6674 11.2848 38.1813 11.3456 37.7149 11.4572L34.8937 8.1251C35.0934 7.54854 35.196 6.94571 35.196 6.32608C35.196 3.28799 32.7243 0.816315 29.6862 0.816315C26.6481 0.816315 24.1765 3.28799 24.1765 6.32608C24.1765 9.36417 26.6481 11.8358 29.6862 11.8358C29.9939 11.8358 30.2994 11.8079 30.6001 11.7576L33.4226 15.0906C33.1046 15.8387 32.9284 16.6609 32.9284 17.5236C32.9284 17.8951 32.9629 18.2586 33.0255 18.6124L29.6037 21.4616C28.5791 20.9517 27.4258 20.6632 26.2058 20.6632C24.3285 20.6632 22.608 21.3438 21.2752 22.4695C20.7384 22.2076 19.5686 21.6368 17.0564 20.411C16.8473 17.1585 14.1361 14.576 10.8317 14.576C10.296 14.576 9.76514 14.6439 9.25381 14.7775C8.8625 14.88 8.62822 15.2802 8.73066 15.6715C8.83301 16.0628 9.2332 16.2971 9.62461 16.1946C10.0149 16.0925 10.4211 16.0407 10.8317 16.0407C13.0556 16.0407 14.929 17.5691 15.4572 19.6306C15.3198 19.5635 15.1805 19.4955 15.037 19.4255C13.5014 18.6758 11.6506 19.3107 10.9012 20.8482C10.1511 22.3841 10.7869 24.2347 12.324 24.9841L12.747 25.1904C12.1503 25.4524 11.5035 25.5885 10.8316 25.5885C8.19961 25.5885 6.0582 23.4472 6.0582 20.815C6.0582 19.704 6.44775 18.6222 7.15518 17.7689C7.41348 17.4574 7.37021 16.9957 7.05889 16.7375C6.74746 16.4793 6.28555 16.5225 6.02754 16.8339C5.10264 17.9494 4.59326 19.3633 4.59326 20.815C4.59326 24.2549 7.3917 27.0533 10.8315 27.0533C12.0848 27.0533 13.3148 26.6709 14.3445 25.97L18.5599 28.0268C18.4401 31.2259 20.3049 34.0681 23.1128 35.314V39.153C22.6407 39.4234 22.2004 39.7566 21.8043 40.1514C20.6193 41.3323 19.9668 42.904 19.9668 44.5771C19.9668 48.0172 22.7655 50.816 26.2058 50.816C28.249 50.816 30.165 49.8107 31.3311 48.1269C31.5613 47.7942 31.4784 47.338 31.1459 47.1077C30.8133 46.8774 30.3571 46.9605 30.1268 47.2929C29.2345 48.5821 27.7687 49.3516 26.2059 49.3516C23.5734 49.3516 21.4317 47.2099 21.4317 44.5774C21.4317 43.2966 21.9313 42.0934 22.8385 41.1894C23.7004 40.3304 24.8525 39.8033 26.1866 39.8033H26.2033C28.7959 39.8122 30.9385 41.9096 30.9794 44.4786C30.9858 44.8831 31.3207 45.2045 31.7233 45.1992C32.1278 45.1928 32.4505 44.8597 32.444 44.4552C32.4083 42.207 31.144 40.2365 29.2984 39.1734V35.3145C31.9817 34.1239 33.8589 31.4361 33.8589 28.3165C33.8589 27.5879 33.7544 26.8836 33.5633 26.2155L36.9831 23.3673C37.6633 23.6224 38.3991 23.7628 39.1673 23.7628C42.6075 23.7628 45.4063 20.964 45.4063 17.5238C45.4064 14.0836 42.6076 11.2848 39.1675 11.2848ZM25.6414 6.32618C25.6414 4.09581 27.456 2.28126 29.6863 2.28126C31.9167 2.28126 33.7312 4.09581 33.7312 6.32618C33.7312 6.46143 33.7242 6.59551 33.7111 6.72833L33.2727 6.21046C32.271 5.02696 30.4934 4.87901 29.3099 5.88038C28.1267 6.88165 27.9784 8.65967 28.9799 9.84444L29.4175 10.3612C27.3121 10.2222 25.6414 8.46612 25.6414 6.32618ZM30.0982 8.89825C29.6184 8.33057 29.6893 7.47833 30.2561 6.99854C30.8232 6.51876 31.6748 6.58975 32.1547 7.15684L36.2603 12.006C35.4551 12.4319 34.7539 13.0286 34.2052 13.7481L30.0982 8.89825ZM12.9662 23.6679C12.1683 23.2788 11.8176 22.3103 12.2177 21.4909C12.6118 20.6826 13.5849 20.347 14.3944 20.7423L20.2038 23.577C19.5325 24.4253 19.0368 25.4179 18.7723 26.5009L12.9662 23.6679ZM27.8337 38.5616C27.3145 38.419 26.7697 38.3404 26.2083 38.3385C26.2011 38.3385 26.1938 38.3385 26.1864 38.3385C25.6357 38.3385 25.0964 38.4115 24.5777 38.5501V35.7938C25.1027 35.908 25.6471 35.9697 26.2058 35.9697C26.7644 35.9697 27.3087 35.9079 27.8336 35.7938V38.5616H27.8337ZM26.2059 34.5048C22.7936 34.5048 20.0176 31.7287 20.0176 28.3165C20.0176 24.9043 22.7936 22.1282 26.2059 22.1282C29.6181 22.1282 32.3941 24.9043 32.3941 28.3165C32.3941 31.7287 29.6182 34.5048 26.2059 34.5048ZM32.9921 24.785C32.482 23.8089 31.768 22.9564 30.9062 22.2835L33.4987 20.1248C33.9625 21.1315 34.6862 21.994 35.584 22.6263L32.9921 24.785ZM39.1675 22.2979C36.5351 22.2979 34.3934 20.1562 34.3934 17.5237C34.3934 14.8912 36.5351 12.7496 39.1675 12.7496C41.8 12.7496 43.9417 14.8913 43.9417 17.5237C43.9416 20.1563 41.8 22.2979 39.1675 22.2979Z" fill="black"/>
</g>
<defs>
<clipPath id="clip0_1_1717">
<rect width="50" height="50" fill="white" transform="translate(0 0.816406)"/>
</clipPath>
</defs>
</svg>
