<svg width="51" height="51" viewBox="0 0 51 51" fill="none" xmlns="http://www.w3.org/2000/svg">
<path d="M7.61277 38.7477H43.7203C44.8085 38.7477 45.6988 39.6392 45.6988 40.7288V46.177C45.6988 47.2667 44.8085 48.1582 43.7203 48.1582H7.61277C6.5246 48.1582 5.63428 47.2667 5.63428 46.177V40.7288C5.63428 39.6392 6.5246 38.7477 7.61277 38.7477Z" fill="#33AC5C"/>
<path fill-rule="evenodd" clip-rule="evenodd" d="M45.6988 44.6912H5.63428V40.7288C5.63428 39.6392 6.5246 38.7477 7.61277 38.7477H43.7203C44.8085 38.7477 45.6988 39.6392 45.6988 40.7288V44.6912Z" fill="#26924B"/>
<path d="M4.645 13.4879H46.688C47.7762 13.4879 48.6665 14.3794 48.6665 15.4691V41.2241C48.6665 42.3138 47.7762 43.2053 46.688 43.2053H4.645C3.55683 43.2053 2.6665 42.3138 2.6665 41.2241V15.4691C2.6665 14.3794 3.55683 13.4879 4.645 13.4879Z" fill="#33AC5C"/>
<path d="M4.645 13.4879H46.688C47.7762 13.4879 48.6665 14.3794 48.6665 15.4691V38.7477C48.6665 39.8373 47.7762 40.7288 46.688 40.7288H4.645C3.55683 40.7288 2.6665 39.8373 2.6665 38.7477V15.4691C2.6665 14.3794 3.55683 13.4879 4.645 13.4879Z" fill="#26924B"/>
<path d="M4.645 13.4879H46.688C47.7762 13.4879 48.6665 14.3794 48.6665 15.4691V37.2618C48.6665 38.3514 47.7762 39.243 46.688 39.243H4.645C3.55683 39.243 2.6665 38.3514 2.6665 37.2618V15.4691C2.6665 14.3794 3.55683 13.4879 4.645 13.4879Z" fill="#41D272"/>
<path fill-rule="evenodd" clip-rule="evenodd" d="M48.6664 31.3184V37.2618C48.6664 38.3515 47.7761 39.243 46.6879 39.243H40.7524C40.7524 34.8844 44.3137 31.3184 48.6664 31.3184Z" fill="#32A359"/>
<path fill-rule="evenodd" clip-rule="evenodd" d="M10.5805 39.243C10.5805 34.8844 7.01919 31.3184 2.6665 31.3184V37.2618C2.6665 38.3515 3.55683 39.243 4.645 39.243H10.5805Z" fill="#32A359"/>
<path fill-rule="evenodd" clip-rule="evenodd" d="M2.6665 21.4125C7.01919 21.4125 10.5805 17.8465 10.5805 13.4879H4.645C3.55683 13.4879 2.6665 14.3794 2.6665 15.4691V21.4125Z" fill="#32A359"/>
<path d="M38.7741 28.3466C39.8668 28.3466 40.7526 27.4596 40.7526 26.3654C40.7526 25.2713 39.8668 24.3843 38.7741 24.3843C37.6815 24.3843 36.7957 25.2713 36.7957 26.3654C36.7957 27.4596 37.6815 28.3466 38.7741 28.3466Z" fill="#32A359"/>
<path d="M13.0537 28.3466C14.1464 28.3466 15.0322 27.4596 15.0322 26.3654C15.0322 25.2713 14.1464 24.3843 13.0537 24.3843C11.961 24.3843 11.0752 25.2713 11.0752 26.3654C11.0752 27.4596 11.961 28.3466 13.0537 28.3466Z" fill="#32A359"/>
<path fill-rule="evenodd" clip-rule="evenodd" d="M48.6664 21.4125V15.4691C48.6664 14.3794 47.7761 13.4879 46.6879 13.4879H40.7524C40.7524 17.8465 44.3137 21.4125 48.6664 21.4125Z" fill="#32A359"/>
<path fill-rule="evenodd" clip-rule="evenodd" d="M37.8343 13.4879L37.3396 17.3016C36.9934 19.8771 35.5095 22.1555 33.3332 23.5423L28.2386 26.7121C26.8536 27.6037 25.073 27.6037 23.688 26.7121L18.4945 23.5423C16.2687 22.1555 14.8343 19.8771 14.488 17.3016L13.9934 13.4879H37.8343Z" fill="#26924B"/>
<path d="M25.9137 33.2995C29.7382 33.2995 32.8385 30.195 32.8385 26.3654C32.8385 22.5359 29.7382 19.4314 25.9137 19.4314C22.0893 19.4314 18.989 22.5359 18.989 26.3654C18.989 30.195 22.0893 33.2995 25.9137 33.2995Z" fill="#E8E8E8"/>
<path fill-rule="evenodd" clip-rule="evenodd" d="M32.4428 24.0376L28.1891 26.6626C26.8041 27.5541 25.0235 27.5541 23.6385 26.6626L19.3848 24.0376C20.3246 21.363 22.8966 19.4314 25.9138 19.4314C28.931 19.4314 31.503 21.363 32.4428 24.0376Z" fill="#32A359"/>
<path d="M25.617 2.19535C25.8148 2.14582 26.0127 2.14582 26.2105 2.19535L36.9933 5.7119C37.4385 5.86049 37.7353 6.30625 37.6858 6.80154L36.3503 16.955C36.0535 19.3324 34.7181 21.4126 32.6901 22.6508L27.9912 25.573C26.7051 26.3655 25.0729 26.3655 23.8363 25.573L19.1374 22.6508C17.1095 21.4126 15.774 19.2828 15.4772 16.955L14.1417 6.80154C14.0922 6.30625 14.3396 5.86049 14.8342 5.7119L25.617 2.19535Z" fill="#FDAF5F"/>
<path d="M25.6171 5.16709C25.815 5.11756 26.0128 5.11756 26.2107 5.16709L34.0257 7.69307C34.4709 7.84165 34.7676 8.28741 34.7182 8.7827L33.7784 16.0635C33.5311 17.797 32.5418 19.3819 31.0085 20.2734L27.4967 22.4527C26.5569 23.047 25.3203 23.047 24.3806 22.4527L20.8687 20.2734C19.3354 19.3324 18.3461 17.797 18.0988 16.0635L17.159 8.7827C17.1096 8.28741 17.3569 7.84165 17.8515 7.69307L25.6171 5.16709Z" fill="#FF8200"/>
<path fill-rule="evenodd" clip-rule="evenodd" d="M30.4148 9.6742C30.86 9.97138 31.0083 10.5657 30.7116 11.061L27.0019 17.0045C26.8535 17.2521 26.6062 17.4007 26.3589 17.4502C26.0621 17.4998 25.8148 17.4502 25.5675 17.2521L22.3524 14.7757C21.9073 14.429 21.8578 13.8346 22.1546 13.3889C22.5008 12.9431 23.0944 12.8936 23.5395 13.1908L25.9137 15.0233L29.0299 10.0209C29.3266 9.52562 29.9202 9.37703 30.4148 9.6742Z" fill="white"/>
</svg>
