<svg width="58" height="51" viewBox="0 0 58 51" fill="none" xmlns="http://www.w3.org/2000/svg">
<path fill-rule="evenodd" clip-rule="evenodd" d="M17.02 35.2012C17.5378 35.2012 17.9575 35.6209 17.9575 36.1387C17.9575 36.6564 17.5378 37.0762 17.02 37.0762H0.992188C0.474453 37.0762 0.0546875 36.6564 0.0546875 36.1387C0.0546875 35.6209 0.474453 35.2012 0.992188 35.2012H17.02ZM16.6483 24.2206C17.1661 24.2206 17.5858 24.6403 17.5858 25.1581C17.5858 25.6758 17.1661 26.0956 16.6483 26.0956H6.57254C6.05481 26.0956 5.63504 25.6758 5.63504 25.1581C5.63504 24.6403 6.05481 24.2206 6.57254 24.2206H16.6483ZM17.9329 2.25964C18.4507 2.25964 18.8704 2.67941 18.8704 3.19714C18.8704 3.71488 18.4507 4.13464 17.9329 4.13464H5.40078C4.88305 4.13464 4.46328 3.71488 4.46328 3.19714C4.46328 2.67941 4.88305 2.25964 5.40078 2.25964H17.9329ZM24.9766 4.13464C24.4589 4.13464 24.0391 3.71488 24.0391 3.19714C24.0391 2.67941 24.4589 2.25964 24.9766 2.25964H36.8967C37.4144 2.25964 37.8342 2.67941 37.8342 3.19714C37.8342 3.71488 37.4144 4.13464 36.8967 4.13464H24.9766ZM0.992305 13.9432C0.47457 13.9432 0.0548047 13.5235 0.0548047 13.0057C0.0548047 12.488 0.47457 12.0682 0.992305 12.0682H17.02C17.5378 12.0682 17.9575 12.488 17.9575 13.0057C17.9575 13.5235 17.5378 13.9432 17.02 13.9432H0.992305Z" fill="#D1D1D6"/>
<path fill-rule="evenodd" clip-rule="evenodd" d="M35.9166 1.4192L16.8279 12.44C16.2046 12.7998 15.8479 13.4177 15.8479 14.1374V36.179C15.8479 36.8987 16.2046 37.5166 16.8279 37.8765L35.9166 48.8973C36.5398 49.2571 37.2534 49.2571 37.8766 48.8973L56.9651 37.8765C57.5884 37.5166 57.9452 36.8988 57.9452 36.179V14.1374C57.9452 13.4178 57.5884 12.7999 56.9651 12.44L37.8766 1.4192C37.2534 1.05932 36.5399 1.05932 35.9166 1.4192Z" fill="#F2D1A5"/>
<path fill-rule="evenodd" clip-rule="evenodd" d="M16.1044 13.1537C15.9379 13.4421 15.8487 13.7753 15.8481 14.1337V36.1827C15.8494 36.9009 16.2059 37.5171 16.8282 37.8764L35.9169 48.8972C36.2285 49.0772 36.5627 49.1671 36.8968 49.1671V25.1582L16.1044 13.1537Z" fill="#E3A76F"/>
<path fill-rule="evenodd" clip-rule="evenodd" d="M35.9167 1.4192L16.828 12.44C16.5164 12.6199 16.2714 12.8643 16.1042 13.1537L36.8967 25.1582L57.6891 13.1537C57.5219 12.8642 57.2769 12.6199 56.9653 12.44L37.8766 1.4192C37.2534 1.05932 36.54 1.05932 35.9167 1.4192Z" fill="#C48958"/>
<path fill-rule="evenodd" clip-rule="evenodd" d="M50.473 17.3199L44.3689 20.8441L23.3203 8.6916L29.4245 5.16742L50.473 17.3199Z" fill="#D1D1D6"/>
<path fill-rule="evenodd" clip-rule="evenodd" d="M45.104 29.9904L49.9831 27.1735C50.2947 26.9936 50.4731 26.6846 50.4732 26.3248V17.3199L44.3691 20.8441V29.5661C44.3691 29.746 44.4583 29.9005 44.6142 29.9904C44.7699 30.0804 44.9483 30.0804 45.104 29.9904Z" fill="#ECEFF1"/>
</svg>
