<svg width="46" height="51" viewBox="0 0 46 51" fill="none" xmlns="http://www.w3.org/2000/svg">
<path d="M45.6417 43.4401V0.891388C45.6417 0.486649 45.3136 0.158203 44.9085 0.158203H9.66336C9.25824 0.158203 8.93018 0.486649 8.93018 0.891388V43.9528C8.93018 44.358 9.25824 44.686 9.66336 44.686H33.8966C33.9126 44.8237 33.9348 44.9603 33.9603 45.0957C34.367 47.9575 36.8259 50.1582 39.7999 50.1582C43.058 50.1582 45.6993 47.5165 45.6993 44.2584C45.6993 43.9807 45.6787 43.7076 45.6417 43.4401Z" fill="#FFF2CC"/>
<path d="M45.6414 43.4401V0.891388C45.6414 0.486649 45.3134 0.158203 44.9082 0.158203H41.5563C41.9614 0.158203 42.2895 0.486649 42.2895 0.891388V43.4401C42.3268 43.7076 42.3474 43.9807 42.3474 44.2584C42.3474 46.9348 40.5652 49.1931 38.123 49.9152C38.6544 50.0728 39.2167 50.1582 39.7996 50.1582C43.0577 50.1582 45.699 47.5169 45.699 44.2584C45.699 43.9807 45.6784 43.7076 45.6414 43.4401Z" fill="#FFE6A9"/>
<path d="M30.3763 16.8879L32.4221 14.6338C32.6944 14.334 32.6719 13.8701 32.3717 13.5981C32.0719 13.3258 31.6084 13.3483 31.336 13.6481L29.3863 15.7969L26.6787 12.8134C27.648 12.2699 28.3053 11.2326 28.3053 10.0444C28.3053 8.29456 26.8816 6.87091 25.1318 6.87091H22.6919C22.2872 6.87091 21.9587 7.19936 21.9587 7.6041V16.1525C21.9587 16.5572 22.2872 16.8856 22.6919 16.8856C23.097 16.8856 23.4251 16.5572 23.4251 16.1525V13.2174H25.0647L28.396 16.8879L26.3659 19.1252C26.0939 19.4251 26.1164 19.8886 26.4162 20.1609C26.5566 20.2883 26.7328 20.3513 26.9087 20.3513C27.1082 20.3513 27.3069 20.27 27.4519 20.1106L29.3863 17.9793L31.3208 20.1106C31.4653 20.27 31.6641 20.3513 31.864 20.3513C32.0395 20.3513 32.2161 20.2883 32.3565 20.1609C32.6563 19.8886 32.6788 19.4251 32.4064 19.1252L30.3763 16.8879ZM23.4255 8.33728H25.1322C26.0733 8.33728 26.8389 9.10289 26.8389 10.044C26.8389 10.9851 26.0733 11.7507 25.1322 11.7507H23.4255V8.33728Z" fill="#FF1D25"/>
<path d="M39.8887 33.3697H13.9956C13.5909 33.3697 13.2625 33.0412 13.2625 32.6365C13.2625 32.2314 13.5909 31.9033 13.9956 31.9033H39.8883C40.2934 31.9033 40.6215 32.2314 40.6215 32.6365C40.6218 33.0412 40.2934 33.3697 39.8887 33.3697Z" fill="#FFAE47"/>
<path d="M39.8887 29.1735H13.9956C13.5909 29.1735 13.2625 28.8451 13.2625 28.4403C13.2625 28.0352 13.5909 27.7072 13.9956 27.7072H39.8883C40.2934 27.7072 40.6215 28.0352 40.6215 28.4403C40.6218 28.8451 40.2934 29.1735 39.8887 29.1735Z" fill="#FFAE47"/>
<path d="M39.8887 24.9774H13.9956C13.5909 24.9774 13.2625 24.6493 13.2625 24.2442C13.2625 23.8394 13.5909 23.511 13.9956 23.511H39.8883C40.2934 23.511 40.6215 23.8394 40.6215 24.2442C40.6218 24.6493 40.2934 24.9774 39.8887 24.9774Z" fill="#FFAE47"/>
<path d="M29.4883 37.5659H13.9956C13.5909 37.5659 13.2625 37.2374 13.2625 36.8327C13.2625 36.4276 13.5909 36.0995 13.9956 36.0995H29.4883C29.8934 36.0995 30.2215 36.4276 30.2215 36.8327C30.2215 37.2374 29.8934 37.5659 29.4883 37.5659Z" fill="#FFAE47"/>
<path d="M33.8999 44.2584C33.8999 43.9036 33.9327 43.5569 33.993 43.2197H1.06644C0.661697 43.2197 0.333252 43.5481 0.333252 43.9529C0.333252 47.3445 3.0928 50.104 6.48445 50.104H39.0097C36.125 49.7176 33.8999 47.2487 33.8999 44.2584Z" fill="#FFDB8A"/>
<path d="M6.48442 50.104H39.0097C36.9772 49.832 35.2736 48.5251 34.4431 46.7311H0.999268C2.01588 48.7304 4.09222 50.104 6.48442 50.104Z" fill="#EAC375"/>
</svg>
