<svg width="15" height="12" viewBox="0 0 15 12" fill="none" xmlns="http://www.w3.org/2000/svg">
<path d="M0 11.8766V8.50159C0 7.54325 0.1875 6.56409 0.5625 5.56409C0.9375 4.56409 1.43229 3.62138 2.04687 2.73596C2.66146 1.85054 3.32812 1.11096 4.04688 0.517212L6.98438 2.25159C6.40104 3.16825 5.92188 4.12659 5.54688 5.12659C5.18229 6.12659 5 7.24117 5 8.47034V11.8766H0ZM7.89062 11.8766V8.50159C7.89062 7.54325 8.07812 6.56409 8.45312 5.56409C8.82812 4.56409 9.32292 3.62138 9.9375 2.73596C10.5521 1.85054 11.2188 1.11096 11.9375 0.517212L14.875 2.25159C14.2917 3.16825 13.8125 4.12659 13.4375 5.12659C13.0729 6.12659 12.8906 7.24117 12.8906 8.47034V11.8766H7.89062Z" fill="#161C8E"/>
</svg>
