<svg width="48" height="51" viewBox="0 0 48 51" fill="none" xmlns="http://www.w3.org/2000/svg">
<g clip-path="url(#clip0_1_1551)">
<path d="M23.7419 0.5C10.6474 0.5 0.0322266 11.2119 0.0322266 24.4257C0.0322266 37.6396 10.6474 48.3515 23.7419 48.3515C34.1028 48.3515 42.9101 41.6444 46.1363 32.2986L46.0946 32.1183L28.0526 13.9121L31.5872 13.4518C31.6406 13.4449 31.6948 13.4414 31.7485 13.4414C32.0799 13.4414 32.4043 13.577 32.6386 13.8135L47.0355 28.3417L47.1391 28.3081C47.3435 27.0444 47.4515 25.7479 47.4515 24.4258C47.4516 11.2119 36.8363 0.5 23.7419 0.5Z" fill="white" fill-opacity="0.25"/>
<path d="M8.00993 13.4647C7.53931 13.7437 6.80693 13.9765 5.8748 13.9765C4.18154 13.9765 3.14518 13.2085 3.14518 12.7903C3.14518 12.3721 4.18154 11.6041 5.8748 11.6041C6.91967 11.6041 7.71389 11.8967 8.16931 12.2188L8.20241 11.9603L5.44299 9.17566C2.76544 9.32566 0.72583 10.8588 0.72583 12.7903C0.72583 14.8245 2.98754 16.4179 5.8748 16.4179C6.50538 16.4179 7.10606 16.3419 7.65989 16.2019L8.00993 13.4647Z" fill="white"/>
<path d="M9.77629 10.3721L10.0827 10.3322C9.75625 9.87713 9.45538 9.06522 9.45538 7.99091C9.45538 6.28222 10.2165 5.23642 10.6309 5.23642C11.0453 5.23642 11.8065 6.28212 11.8065 7.99081C11.8065 8.95145 11.5659 9.70243 11.2817 10.176L14.0041 9.82137C14.1475 9.25438 14.2259 8.63837 14.2259 7.99081C14.2259 5.07724 12.6468 2.79492 10.631 2.79492C8.70238 2.79492 7.17461 4.88447 7.0459 7.61669L9.77629 10.3721Z" fill="white"/>
<path d="M46.1356 32.2979C46.5787 31.0141 46.9171 29.681 47.1392 28.3081L32.7072 13.7444C32.41 13.4445 31.9917 13.3006 31.5748 13.3549L27.845 13.8406L46.1356 32.2979Z" fill="#FAC600"/>
<path d="M31.7496 17.7809L35.9619 17.2323C36.0262 17.2239 36.0902 17.2219 36.1541 17.2228L32.7072 13.7444C32.41 13.4445 31.9917 13.3006 31.5748 13.3549L27.845 13.8406L31.7496 17.7809Z" fill="#E8B800"/>
<path d="M47.5707 33.608L23.2413 9.05694C22.9441 8.75704 22.5259 8.6131 22.109 8.66739L9.68983 10.2848L13.7241 14.3558C13.9343 14.5679 14.05 14.85 14.05 15.1499C14.05 15.4498 13.9343 15.7319 13.7241 15.944C13.5139 16.1561 13.2344 16.2729 12.9371 16.2729C12.6398 16.2729 12.3603 16.1561 12.1501 15.944L8.11589 11.873L6.51312 24.4054C6.45931 24.8261 6.60186 25.2482 6.89915 25.5481L31.2285 50.0992C31.758 50.6336 32.6165 50.6336 33.1461 50.0992L47.5707 35.5431C48.1002 35.0087 48.1002 34.1423 47.5707 33.608Z" fill="#EF4424"/>
<path d="M9.76028 27.7195L11.3672 15.1541L8.1158 11.873L6.51312 24.4054C6.45931 24.8261 6.60186 25.2482 6.89915 25.5481L9.98325 28.6603C9.79996 28.3864 9.7176 28.053 9.76028 27.7195Z" fill="#D73B1E"/>
<path d="M23.2414 9.05694C22.9442 8.75704 22.526 8.6131 22.1091 8.66739L9.68994 10.2848L12.9552 13.5798L25.3751 11.9623C25.7853 11.9089 26.1963 12.048 26.4928 12.338L23.2414 9.05694Z" fill="#D73B1E"/>
<path d="M33.7279 26.7492C34.2891 26.1829 34.2891 25.2646 33.7279 24.6983C33.1667 24.132 32.2567 24.132 31.6956 24.6983C31.1344 25.2646 31.1344 26.1829 31.6956 26.7492C32.2567 27.3155 33.1667 27.3155 33.7279 26.7492Z" fill="#EF4424"/>
<path d="M34.0844 33.875C34.6455 33.3087 34.6455 32.3905 34.0844 31.8241C33.5232 31.2578 32.6132 31.2578 32.052 31.8241C31.4908 32.3905 31.4908 33.3087 32.052 33.875C32.6132 34.4413 33.5231 34.4413 34.0844 33.875Z" fill="#EF4424"/>
<path d="M37.506 28.6803C37.464 28.3595 37.1714 28.1343 36.8545 28.176L28.7875 29.2496C28.4696 29.2919 28.2458 29.5862 28.2878 29.907C28.3263 30.202 28.5758 30.4165 28.8626 30.4165C28.888 30.4165 28.9135 30.4148 28.9393 30.4113L37.0063 29.3377C37.3242 29.2955 37.5479 29.0012 37.506 28.6803Z" fill="#EF4424"/>
<path d="M27.7369 35.0014C28.1375 34.5973 28.358 34.0599 28.358 33.4884C28.358 32.9169 28.1375 32.3796 27.7369 31.9755C27.3365 31.5713 26.8039 31.3488 26.2377 31.3488C25.6713 31.3488 25.1388 31.5713 24.7384 31.9755L23.1631 33.5651C22.7625 33.9693 22.542 34.5066 22.542 35.078C22.542 35.6495 22.7625 36.1869 23.1631 36.5911C23.5764 37.0082 24.1194 37.2167 24.6624 37.2167C25.2053 37.2167 25.7484 37.0081 26.1616 36.591L27.7369 35.0014ZM23.984 35.7625C23.8029 35.5797 23.7032 35.3366 23.7032 35.078C23.7032 34.8196 23.8029 34.5765 23.984 34.3937L25.5593 32.804C25.7405 32.6212 25.9813 32.5206 26.2376 32.5206C26.4937 32.5206 26.7346 32.6212 26.9158 32.8041C27.097 32.9868 27.1966 33.2299 27.1966 33.4884C27.1966 33.7469 27.097 33.9901 26.9158 34.1729L25.3405 35.7625C24.9665 36.1398 24.3581 36.1398 23.984 35.7625Z" fill="#EF4424"/>
<path d="M29.8563 39.5584C29.9697 39.6729 30.1183 39.7301 30.2669 39.7301C30.4155 39.7301 30.5641 39.6729 30.6775 39.5585C30.9043 39.3296 30.9043 38.9586 30.6776 38.7299L28.9106 36.9468L29.9658 35.882L31.7328 37.665C31.9594 37.8939 32.3273 37.8939 32.5538 37.665C32.7806 37.4361 32.7806 37.0652 32.5538 36.8364L30.3763 34.6391C30.1496 34.4102 29.7818 34.4102 29.5553 34.6391L25.8025 38.4261C25.5756 38.6549 25.5756 39.0259 25.8025 39.2546C25.9158 39.3691 26.0644 39.4263 26.213 39.4263C26.3615 39.4263 26.5102 39.3691 26.6235 39.2546L28.0893 37.7754L29.8563 39.5584Z" fill="#EF4424"/>
<path d="M34.0814 38.3776C33.8547 38.1487 33.4869 38.1487 33.2603 38.3776L29.5075 42.1646C29.2807 42.3934 29.2807 42.7644 29.5075 42.9931C29.6209 43.1076 29.7695 43.1648 29.918 43.1648C30.0666 43.1648 30.2152 43.1076 30.3286 42.9931L31.7944 41.514L33.5615 43.2971C33.6748 43.4115 33.8235 43.4687 33.972 43.4687C34.1206 43.4687 34.2692 43.4115 34.3826 43.297C34.6094 43.0682 34.6094 42.6972 34.3825 42.4684L32.6156 40.6854L33.671 39.6205L35.4379 41.4035C35.6646 41.6324 36.0324 41.6324 36.259 41.4035C36.4858 41.1747 36.4858 40.8037 36.259 40.575L34.0814 38.3776Z" fill="#EF4424"/>
<path d="M28.1741 26.1151C29.9948 24.2778 29.9948 21.2883 28.1741 19.4511L27.5438 18.815C25.723 16.9779 22.7606 16.9779 20.9399 18.815L16.5955 23.199C15.7135 24.089 15.2278 25.2723 15.2278 26.5311C15.2278 27.7898 15.7135 28.9731 16.5955 29.8631L17.2258 30.4991C18.1078 31.3892 19.2804 31.8793 20.5277 31.8793C21.7751 31.8793 22.9478 31.3892 23.8297 30.4991L28.1741 26.1151ZM20.5277 29.4378C19.9267 29.4378 19.3615 29.2017 18.9366 28.7727L18.3063 28.1367C17.8811 27.7078 17.6471 27.1376 17.6471 26.5311C17.6471 25.9245 17.8811 25.3542 18.3063 24.9254L22.6507 20.5413C23.5279 19.6561 24.9557 19.6562 25.8331 20.5413L26.4635 21.1775C27.3408 22.0628 27.3408 23.5034 26.4635 24.3889L22.119 28.7729C21.6939 29.2017 21.1288 29.4378 20.5277 29.4378Z" fill="#EF4424"/>
<path d="M22.4315 13.6562L21.0064 12.218C20.5341 11.7416 19.7681 11.7414 19.2956 12.218C18.8232 12.6947 18.8232 13.4676 19.2956 13.9444L19.8653 14.5194L11.4832 22.9779C11.0108 23.4546 11.0108 24.2275 11.4832 24.7042C11.7194 24.9425 12.0291 25.0617 12.3386 25.0617C12.6482 25.0617 12.9578 24.9425 13.194 24.7042L22.4315 15.3826C22.904 14.9058 22.904 14.133 22.4315 13.6562Z" fill="#EF4424"/>
<path d="M13.8213 18.0946C14.9445 18.0946 15.8552 17.1757 15.8552 16.0422C15.8552 14.9087 14.9445 13.9897 13.8213 13.9897C12.698 13.9897 11.7874 14.9087 11.7874 16.0422C11.7874 17.1757 12.698 18.0946 13.8213 18.0946Z" fill="white" fill-opacity="0.15"/>
<path d="M34.535 27.5905C35.0962 27.0242 35.0962 26.1059 34.535 25.5396C33.9738 24.9733 33.0639 24.9733 32.5027 25.5396C31.9415 26.1059 31.9415 27.0242 32.5027 27.5905C33.0639 28.1568 33.9738 28.1569 34.535 27.5905Z" fill="white"/>
<path d="M34.8912 34.7163C35.4524 34.15 35.4524 33.2318 34.8912 32.6655C34.33 32.0991 33.4201 32.0991 32.8589 32.6655C32.2977 33.2318 32.2977 34.15 32.8589 34.7163C33.4201 35.2826 34.33 35.2826 34.8912 34.7163Z" fill="white"/>
<path d="M38.3131 29.5217C38.2711 29.2009 37.9785 28.9757 37.6617 29.0174L29.5947 30.0911C29.2767 30.1333 29.0529 30.4277 29.0949 30.7485C29.1334 31.0434 29.3829 31.2579 29.6697 31.2579C29.6951 31.2579 29.7207 31.2562 29.7464 31.2528L37.8134 30.1791C38.1313 30.1369 38.3551 29.8425 38.3131 29.5217Z" fill="white"/>
<path d="M28.5438 35.8427C28.9444 35.4386 29.1649 34.9012 29.1649 34.3297C29.1649 33.7582 28.9444 33.2209 28.5438 32.8168C28.1434 32.4126 27.6108 32.1901 27.0446 32.1901C26.4782 32.1901 25.9457 32.4126 25.5453 32.8168L23.97 34.4064C23.5694 34.8106 23.3489 35.3479 23.3489 35.9194C23.3489 36.4908 23.5694 37.0282 23.97 37.4324C24.3833 37.8495 24.9263 38.058 25.4693 38.058C26.0122 38.058 26.5553 37.8494 26.9685 37.4323L28.5438 35.8427ZM24.791 36.6038C24.6098 36.421 24.5102 36.1779 24.5102 35.9194C24.5102 35.661 24.6098 35.4178 24.791 35.235L26.3663 33.6453C26.5475 33.4625 26.7883 33.3619 27.0446 33.3619C27.3007 33.3619 27.5416 33.4625 27.7228 33.6454C27.9039 33.8281 28.0036 34.0712 28.0036 34.3297C28.0036 34.5882 27.9039 34.8314 27.7228 35.0142L26.1475 36.6038C25.7734 36.9811 25.165 36.9811 24.791 36.6038Z" fill="white"/>
<path d="M30.6632 40.3997C30.7766 40.5142 30.9252 40.5714 31.0738 40.5714C31.2224 40.5714 31.371 40.5142 31.4843 40.3998C31.7112 40.1709 31.7112 39.7999 31.4844 39.5712L29.7174 37.7881L30.7727 36.7233L32.5397 38.5063C32.7663 38.7352 33.1341 38.7352 33.3607 38.5063C33.5875 38.2775 33.5875 37.9065 33.3607 37.6778L31.1832 35.4804C30.9565 35.2515 30.5887 35.2515 30.3621 35.4804L26.6093 39.2674C26.3825 39.4962 26.3825 39.8672 26.6093 40.0959C26.7227 40.2104 26.8713 40.2676 27.0199 40.2676C27.1684 40.2676 27.317 40.2104 27.4304 40.0959L28.8962 38.6167L30.6632 40.3997Z" fill="white"/>
<path d="M34.8885 39.2189C34.6619 38.99 34.294 38.99 34.0675 39.2189L30.3147 43.0059C30.0878 43.2347 30.0878 43.6057 30.3147 43.8344C30.428 43.9489 30.5766 44.0061 30.7252 44.0061C30.8737 44.0061 31.0224 43.9489 31.1357 43.8344L32.6015 42.3553L34.3686 44.1384C34.482 44.2528 34.6306 44.31 34.7791 44.31C34.9277 44.31 35.0763 44.2528 35.1898 44.1383C35.4165 43.9095 35.4165 43.5385 35.1897 43.3097L33.4228 41.5267L34.4781 40.4618L36.2451 42.2448C36.4717 42.4737 36.8396 42.4737 37.0661 42.2448C37.293 42.016 37.293 41.645 37.0661 41.4163L34.8885 39.2189Z" fill="white"/>
<path d="M28.9813 26.9565C30.8019 25.1192 30.8019 22.1296 28.9813 20.2924L28.3509 19.6563C26.5302 17.8192 23.5677 17.8192 21.747 19.6563L17.4026 24.0403C16.5206 24.9303 16.0349 26.1136 16.0349 27.3724C16.0349 28.6311 16.5206 29.8144 17.4026 30.7044L18.0329 31.3404C18.9149 32.2305 20.0875 32.7206 21.3348 32.7206C22.5823 32.7206 23.7549 32.2305 24.6368 31.3404L28.9813 26.9565ZM21.3348 30.2791C20.7338 30.2791 20.1686 30.043 19.7437 29.614L19.1134 28.9779C18.6883 28.549 18.4543 27.9788 18.4543 27.3723C18.4543 26.7657 18.6883 26.1954 19.1134 25.7666L23.4578 21.3825C24.335 20.4973 25.7628 20.4974 26.6402 21.3825L27.2706 22.0187C28.1479 22.904 28.1479 24.3446 27.2706 25.2301L22.9261 29.6141C22.5011 30.043 21.9359 30.2791 21.3348 30.2791Z" fill="white"/>
<path d="M23.2386 14.4975L21.8135 13.0593C21.3413 12.5829 20.5752 12.5827 20.1028 13.0593C19.6303 13.536 19.6303 14.3089 20.1028 14.7857L20.6725 15.3607L12.2904 23.8192C11.8179 24.2959 11.8179 25.0688 12.2904 25.5455C12.5265 25.7838 12.8362 25.903 13.1458 25.903C13.4553 25.903 13.7649 25.7838 14.0011 25.5455L23.2386 16.2239C23.7111 15.7471 23.7111 14.9743 23.2386 14.4975Z" fill="white"/>
<path d="M12.937 16.3706C12.6274 16.3706 12.3178 16.2513 12.0816 16.0131L1.93491 5.77392C1.46245 5.29716 1.46245 4.52431 1.93491 4.04756C2.40726 3.5709 3.17332 3.5709 3.64568 4.04756L13.7924 14.2867C14.2648 14.7635 14.2648 15.5363 13.7924 16.0131C13.5561 16.2513 13.2465 16.3706 12.937 16.3706Z" fill="#FED402"/>
</g>
<defs>
<clipPath id="clip0_1_1551">
<rect width="48" height="50" fill="white" transform="translate(0 0.5)"/>
</clipPath>
</defs>
</svg>
