<svg width="42" height="38" viewBox="0 0 42 38" fill="none" xmlns="http://www.w3.org/2000/svg">
<path d="M40.7667 21.9159C40.2667 20.5909 39.5542 19.4534 38.6292 18.5034C38.1646 18.0263 37.6542 17.6055 37.0979 17.2367C37.1104 17.1555 37.1458 17.0805 37.1458 16.9951V6.57841C37.1458 3.41799 34.5771 0.849243 31.4167 0.849243H6.41667C3.25625 0.849243 0.6875 3.41799 0.6875 6.57841V23.2451C0.6875 26.4055 3.25625 28.9742 6.41667 28.9742H20.3167C20.4479 29.5847 20.6021 30.1826 20.8292 30.7409C21.3708 32.0659 22.1375 33.2034 23.1292 34.1534C24.1208 35.1034 25.2854 35.8367 26.6292 36.3534C27.9708 36.8701 29.4417 37.1284 31.0417 37.1284C33.125 37.1284 34.975 36.6117 36.5917 35.5784L35.3167 33.1534C34.7 33.5534 34.0292 33.8576 33.3042 34.0659C32.5771 34.2742 31.8167 34.3784 31.0146 34.3784C29.8812 34.3784 28.8271 34.1867 27.8521 33.8034C26.8771 33.4201 26.0271 32.8701 25.3021 32.1534C24.575 31.4367 24.0146 30.5826 23.6125 29.5909C23.2146 28.5992 23.0125 27.5034 23.0125 26.3034C23.0125 25.1367 23.2 24.0659 23.5771 23.0909C23.9521 22.1159 24.4917 21.2701 25.2 20.5534C25.9104 19.8367 26.7542 19.2784 27.7396 18.8784C28.7229 18.4784 29.8229 18.2784 31.0396 18.2784C32.2729 18.2784 33.3542 18.4742 34.2896 18.8659C35.225 19.2576 36.0021 19.8117 36.6271 20.5284C37.2521 21.2451 37.7229 22.0826 38.0396 23.0409C38.3563 23.9992 38.5167 25.0451 38.5167 26.1784C38.5167 27.1951 38.3979 27.9117 38.1667 28.3284C37.9333 28.7451 37.575 28.9534 37.0896 28.9534C36.7062 28.9534 36.4062 28.7909 36.1896 28.4659C35.9708 28.1409 35.8646 27.6867 35.8646 27.1034V20.9534H33.3646V21.9055C33.1479 21.618 32.8625 21.3576 32.4292 21.1534C31.7854 20.8534 31.0583 20.7034 30.2396 20.7034C29.2062 20.7034 28.2833 20.9576 27.4646 21.4659C26.6479 21.9742 26.0083 22.6492 25.5396 23.4909C25.0729 24.3326 24.8396 25.2534 24.8396 26.2534C24.8396 27.2701 25.0771 28.1826 25.5521 28.9909C26.0292 29.7992 26.6646 30.4326 27.4646 30.8909C28.2667 31.3492 29.15 31.5784 30.1146 31.5784C30.6646 31.5784 31.1979 31.4992 31.7146 31.3409C32.2312 31.1826 32.6812 30.9617 33.0646 30.6784C33.3458 30.4701 33.5312 30.2201 33.6687 29.9492C33.7021 29.9992 33.7146 30.068 33.7521 30.1159C34.1437 30.6242 34.6354 30.9951 35.2271 31.2284C35.8187 31.4617 36.4042 31.5784 36.9896 31.5784C37.8729 31.5784 38.6521 31.3701 39.3271 30.9534C40.0021 30.5367 40.5354 29.9326 40.9292 29.1409C41.3208 28.3492 41.5146 27.4117 41.5146 26.3284C41.5146 24.7117 41.2646 23.2409 40.7667 21.9159ZM6.41667 3.97424H31.4167C31.4521 3.97424 31.4792 3.99299 31.5146 3.99299L20.4292 11.9097C19.5271 12.5555 18.3125 12.5576 17.4042 11.9097L6.32083 3.99299C6.35417 3.99299 6.38125 3.97424 6.41667 3.97424ZM30.9917 15.5284C29.4083 15.5284 27.95 15.7867 26.6167 16.3034C25.2812 16.8201 24.1208 17.5534 23.1292 18.5034C22.1354 19.4534 21.3687 20.5909 20.8292 21.9159C20.3438 23.1034 20.1104 24.4284 20.0583 25.8492H6.41667C4.98125 25.8492 3.8125 24.6805 3.8125 23.2451V6.57841C3.8125 6.41174 3.87708 6.26799 3.90625 6.10966L15.5854 14.4513C16.5833 15.1617 17.7479 15.518 18.9167 15.518C20.0854 15.518 21.25 15.1617 22.2458 14.4513L33.9271 6.10966C33.9562 6.26799 34.0208 6.41174 34.0208 6.57841V15.9388C33.0708 15.6951 32.0792 15.5284 30.9917 15.5284ZM32.8417 27.5659C32.6104 27.9909 32.2875 28.3284 31.8792 28.5784C31.4708 28.8284 31 28.9534 30.4667 28.9534C29.95 28.9534 29.4792 28.8326 29.0542 28.5909C28.6292 28.3492 28.2917 28.0117 28.0417 27.5784C27.7917 27.1451 27.6667 26.6617 27.6667 26.1284C27.6667 25.5784 27.7917 25.0909 28.0417 24.6659C28.2917 24.2409 28.6333 23.9117 29.0667 23.6784C29.5 23.4451 29.975 23.3367 30.4917 23.3534C31.275 23.3701 31.9229 23.6451 32.4312 24.1784C32.9375 24.7117 33.1917 25.3701 33.1917 26.1534C33.1917 26.6701 33.075 27.1409 32.8417 27.5659Z" fill="black"/>
</svg>
