<svg xmlns="http://www.w3.org/2000/svg" width="20" height="20" viewBox="0 0 20 20" fill="none">
    <path d="M17.0835 15V15.8333C17.0835 16.75 16.3335 17.5 15.4168 17.5H3.75016C2.82516 17.5 2.0835 16.75 2.0835 15.8333V4.16667C2.0835 3.25 2.82516 2.5 3.75016 2.5H15.4168C16.3335 2.5 17.0835 3.25 17.0835 4.16667V5H9.5835C8.6585 5 7.91683 5.75 7.91683 6.66667V13.3333C7.91683 14.25 8.6585 15 9.5835 15H17.0835ZM9.5835 13.3333H17.9168V6.66667H9.5835V13.3333ZM12.9168 11.25C12.2252 11.25 11.6668 10.6917 11.6668 10C11.6668 9.30833 12.2252 8.75 12.9168 8.75C13.6085 8.75 14.1668 9.30833 14.1668 10C14.1668 10.6917 13.6085 11.25 12.9168 11.25Z" fill="url(#paint0_linear_1_1460)"/>
    <defs>
        <linearGradient id="paint0_linear_1_1460" x1="2.00024" y1="10" x2="18.0002" y2="10" gradientUnits="userSpaceOnUse">
            <stop stop-color="#C9B09A"/>
            <stop offset="1" stop-color="#C9B09A" stop-opacity="0.25"/>
        </linearGradient>
    </defs>
</svg>
