<svg width="46" height="30" viewBox="0 0 46 30" fill="none" xmlns="http://www.w3.org/2000/svg">
<path fill-rule="evenodd" clip-rule="evenodd" d="M14.4412 11.4181C14.1307 11.7897 13.6338 12.0828 13.1369 12.0409C13.0748 11.5385 13.318 11.0047 13.6028 10.6751C13.9133 10.2931 14.4567 10.0209 14.8967 10C14.9485 10.5233 14.7466 11.0362 14.4412 11.4181ZM14.8915 12.1404C14.4538 12.1149 14.0544 12.2735 13.7317 12.4015C13.5241 12.484 13.3483 12.5538 13.2145 12.5538C13.0644 12.5538 12.8814 12.4802 12.6758 12.3976C12.4065 12.2895 12.0986 12.1658 11.7756 12.1717C11.0355 12.1822 10.3471 12.6061 9.96924 13.2811C9.19285 14.6313 9.76739 16.6304 10.5179 17.7293C10.8854 18.2735 11.3253 18.8702 11.905 18.8492C12.1601 18.8395 12.3435 18.7608 12.5334 18.6793C12.7519 18.5855 12.979 18.4881 13.3336 18.4881C13.6759 18.4881 13.893 18.583 14.1014 18.6741C14.2996 18.7607 14.4899 18.8438 14.7725 18.8387C15.3729 18.8283 15.7507 18.2945 16.1182 17.7502C16.5148 17.1661 16.689 16.5961 16.7155 16.5096L16.7186 16.4995C16.7186 16.4995 16.7131 16.4966 16.7044 16.4926C16.5718 16.4312 15.5586 15.9623 15.5489 14.7046C15.5391 13.649 16.3526 13.1141 16.4806 13.0299C16.4884 13.0247 16.4937 13.0213 16.496 13.0195C15.9785 12.245 15.171 12.1613 14.8915 12.1404ZM19.0477 18.7812V10.6228H22.0756C23.6388 10.6228 24.7309 11.7112 24.7309 13.3021C24.7309 14.893 23.618 15.9919 22.0343 15.9919H20.3003V18.7812H19.0477ZM20.3003 11.6903H21.7444C22.8313 11.6903 23.4524 12.2764 23.4524 13.3073C23.4524 14.3383 22.8313 14.9296 21.7392 14.9296H20.3003V11.6903ZM28.8664 17.8026C28.5351 18.441 27.8053 18.844 27.0186 18.844C25.854 18.844 25.0414 18.1427 25.0414 17.0857C25.0414 16.039 25.8282 15.4372 27.2826 15.3482L28.8457 15.254V14.804C28.8457 14.1394 28.4161 13.7783 27.6501 13.7783C27.0186 13.7783 26.558 14.108 26.4648 14.6104H25.3364C25.3727 13.5533 26.3561 12.784 27.6863 12.784C29.12 12.784 30.0517 13.5428 30.0517 14.7203V18.7812H28.8923V17.8026H28.8664ZM27.3551 17.8759C26.6874 17.8759 26.2629 17.5514 26.2629 17.0542C26.2629 16.5414 26.6719 16.2431 27.4534 16.196L28.8457 16.107V16.5676C28.8457 17.3316 28.2039 17.8759 27.3551 17.8759ZM33.8974 19.1004C33.3953 20.529 32.8208 21 31.5993 21C31.5061 21 31.1956 20.9895 31.1231 20.9686V19.99C31.2007 20.0005 31.3923 20.0109 31.4906 20.0109C32.0444 20.0109 32.355 19.7755 32.5464 19.1632L32.6603 18.8021L30.5382 12.8625H31.8477L33.3228 17.6822H33.3487L34.8239 12.8625H36.0971L33.8974 19.1004Z" fill="black"/>
</svg>
