<svg width="45" height="30" viewBox="0 0 45 30" fill="none" xmlns="http://www.w3.org/2000/svg">
<path d="M32.6986 17.419C31.363 22.7762 25.937 26.0365 20.5792 24.7006C15.2236 23.365 11.9633 17.9387 13.2995 12.582C14.6345 7.22419 20.0604 3.96366 25.4166 5.29923C30.7741 6.63481 34.0341 12.0617 32.6984 17.4191L32.6985 17.419H32.6986Z" fill="#F3BA2F"/>
<path fill-rule="evenodd" clip-rule="evenodd" d="M22.9997 11.3467L20.4102 13.9361L20.4103 13.936L18.9037 12.4294L22.9997 8.33337L27.097 12.4306L25.5903 13.9373L22.9997 11.3467ZM17.8397 13.4931L16.333 15.0001L17.8396 16.5065L19.3463 14.9997L17.8397 13.4931ZM20.4102 16.0641L22.9997 18.6534L25.5903 16.0629L27.0978 17.5687L27.097 17.5695L22.9997 21.6667L18.9037 17.5707L18.9015 17.5686L20.4102 16.0641ZM28.1597 13.494L26.653 15.0007L28.1597 16.5073L29.6663 15.0006L28.1597 13.494Z" fill="white"/>
<path d="M24.5285 14.9992H24.5291L23.0004 13.4703L21.8704 14.6L21.7406 14.7299L21.4728 14.9976L21.4707 14.9997L21.4728 15.0019L23.0004 16.5296L24.5292 15.0008L24.53 14.9999L24.5286 14.9992" fill="white"/>
</svg>
