<svg width="46" height="30" viewBox="0 0 46 30" fill="none" xmlns="http://www.w3.org/2000/svg">
<path d="M31.4997 8.60358C31.3086 8.07811 31.0047 7.60089 30.6093 7.20552C30.2139 6.81014 29.7367 6.50622 29.2112 6.31513C28.2283 6 27.3354 6 25.5197 6H20.0724C18.2717 6 17.3638 6 16.3959 6.30013C15.8696 6.49201 15.3919 6.79708 14.9965 7.1938C14.6011 7.59052 14.2976 8.06922 14.1074 8.59608C13.7998 9.57149 13.7998 10.4719 13.7998 12.2726V17.7274C13.7998 19.5356 13.7998 20.4285 14.0999 21.4039C14.291 21.9294 14.5949 22.4066 14.9903 22.802C15.3857 23.1974 15.8629 23.5013 16.3884 23.6924C17.3638 24 18.2642 24 20.0649 24H25.5272C27.3354 24 28.2358 24 29.2037 23.6999C29.7313 23.5089 30.2105 23.2043 30.6073 22.8075C31.0041 22.4107 31.3087 21.9315 31.4997 21.4039C31.8073 20.4285 31.8073 19.5281 31.8073 17.7274V12.2876C31.8073 10.4794 31.8073 9.57899 31.4997 8.60358ZM26.8702 12.0775L26.1725 12.7753C26.1045 12.8386 26.0154 12.8744 25.9225 12.8757C25.8297 12.8771 25.7396 12.844 25.6697 12.7828C24.994 12.2121 24.1383 11.8985 23.2537 11.8975C22.5259 11.8975 21.7981 12.1376 21.7981 12.8053C21.7981 13.4806 22.5785 13.7057 23.4788 14.0434C25.0545 14.5686 26.36 15.2288 26.36 16.7745C26.36 18.4552 25.0545 19.6107 22.9236 19.7382L22.7285 20.6386C22.7113 20.7213 22.666 20.7956 22.6004 20.8489C22.5349 20.9022 22.4529 20.9313 22.3684 20.9312H21.0253L20.9578 20.9237C20.8617 20.9021 20.7779 20.8436 20.7245 20.7608C20.6712 20.678 20.6525 20.5775 20.6727 20.481L20.8828 19.5281C20.0741 19.3254 19.3304 18.92 18.7219 18.3501V18.3426C18.6883 18.3092 18.6616 18.2694 18.6435 18.2256C18.6253 18.1819 18.6159 18.1349 18.6159 18.0875C18.6159 18.0401 18.6253 17.9932 18.6435 17.9494C18.6616 17.9056 18.6883 17.8659 18.7219 17.8324L19.4722 17.1046C19.5403 17.0408 19.6302 17.0053 19.7235 17.0053C19.8169 17.0053 19.9067 17.0408 19.9749 17.1046C20.6577 17.7499 21.573 18.11 22.5184 18.095C23.4938 18.095 24.1466 17.6824 24.1466 17.0296C24.1466 16.3768 23.4863 16.2043 22.2408 15.7391C20.9203 15.2664 19.6672 14.5986 19.6672 13.0379C19.6672 11.2222 21.1754 10.3368 22.9611 10.2543L23.1487 9.33139C23.1661 9.24937 23.2117 9.17601 23.2774 9.12396C23.3432 9.07191 23.425 9.04443 23.5088 9.04627H24.8444L24.9194 9.05377C25.1145 9.09879 25.2421 9.28637 25.1971 9.48145L24.9945 10.5094C25.6697 10.7345 26.3075 11.0871 26.8552 11.5523L26.8702 11.5673C27.0128 11.7174 27.0128 11.9425 26.8702 12.0775Z" fill="#00CC47"/>
<path d="M26.8702 12.0775L26.1725 12.7753C26.1045 12.8386 26.0154 12.8744 25.9225 12.8757C25.8297 12.8771 25.7396 12.844 25.6697 12.7828C24.994 12.2121 24.1383 11.8985 23.2537 11.8975C22.5259 11.8975 21.7981 12.1376 21.7981 12.8053C21.7981 13.4806 22.5785 13.7057 23.4788 14.0434C25.0545 14.5686 26.36 15.2288 26.36 16.7745C26.36 18.4552 25.0545 19.6107 22.9236 19.7382L22.7285 20.6386C22.7113 20.7213 22.666 20.7956 22.6004 20.8489C22.5349 20.9022 22.4529 20.9313 22.3684 20.9312H21.0253L20.9578 20.9237C20.8617 20.9021 20.7779 20.8436 20.7245 20.7608C20.6712 20.678 20.6525 20.5775 20.6727 20.481L20.8828 19.5281C20.0741 19.3254 19.3304 18.92 18.7219 18.3501V18.3426C18.6883 18.3092 18.6616 18.2694 18.6435 18.2256C18.6253 18.1819 18.6159 18.1349 18.6159 18.0875C18.6159 18.0401 18.6253 17.9932 18.6435 17.9494C18.6616 17.9056 18.6883 17.8659 18.7219 17.8324L19.4722 17.1046C19.5403 17.0408 19.6302 17.0053 19.7235 17.0053C19.8169 17.0053 19.9067 17.0408 19.9749 17.1046C20.6577 17.7499 21.573 18.11 22.5184 18.095C23.4938 18.095 24.1466 17.6824 24.1466 17.0296C24.1466 16.3768 23.4863 16.2043 22.2408 15.7391C20.9203 15.2664 19.6672 14.5986 19.6672 13.0379C19.6672 11.2222 21.1754 10.3368 22.9611 10.2543L23.1487 9.33139C23.1661 9.24937 23.2117 9.17601 23.2774 9.12396C23.3432 9.07191 23.425 9.04443 23.5088 9.04627H24.8444L24.9194 9.05377C25.1145 9.09879 25.2421 9.28637 25.1971 9.48145L24.9945 10.5094C25.6697 10.7345 26.3075 11.0871 26.8552 11.5523L26.8702 11.5673C27.0128 11.7174 27.0128 11.9425 26.8702 12.0775Z" fill="white"/>
</svg>
