<svg width="45" height="30" viewBox="0 0 45 30" fill="none" xmlns="http://www.w3.org/2000/svg">
<path d="M29.0664 16.9286H30.7972C30.8466 16.9286 30.962 16.9121 31.0115 16.9121C31.3411 16.8462 31.6214 16.5495 31.6214 16.1374C31.6214 15.7418 31.3411 15.4451 31.0115 15.3627C30.962 15.3462 30.8631 15.3462 30.7972 15.3462H29.0664V16.9286Z" fill="url(#paint0_linear_1_267)"/>
<path d="M30.5995 6C28.9511 6 27.5995 7.33516 27.5995 9V12.1154H31.8358C31.9347 12.1154 32.05 12.1154 32.1325 12.1319C33.0885 12.1813 33.7973 12.6758 33.7973 13.533C33.7973 14.2088 33.3193 14.7857 32.4292 14.9011V14.9341C33.4017 15 34.1434 15.544 34.1434 16.3846C34.1434 17.2912 33.3193 17.8846 32.2314 17.8846H27.583V23.9835H31.9841C33.6325 23.9835 34.9841 22.6484 34.9841 20.9835V6H30.5995Z" fill="url(#paint1_linear_1_267)"/>
<path d="M31.4071 13.7308C31.4071 13.3352 31.1268 13.0714 30.7972 13.022C30.7642 13.022 30.6818 13.0055 30.6323 13.0055H29.0664V14.456H30.6323C30.6818 14.456 30.7807 14.456 30.7972 14.4396C31.1268 14.3901 31.4071 14.1264 31.4071 13.7308Z" fill="url(#paint2_linear_1_267)"/>
<path d="M14.0165 6C12.3681 6 11.0165 7.33516 11.0165 9V16.4011C11.8571 16.8132 12.7308 17.0769 13.6044 17.0769C14.6429 17.0769 15.2033 16.4506 15.2033 15.5934V12.0989H17.7747V15.5769C17.7747 16.9286 16.9341 18.033 14.0824 18.033C12.3516 18.033 11 17.6538 11 17.6538V23.967H15.4011C17.0495 23.967 18.4011 22.6319 18.4011 20.967V6H14.0165Z" fill="url(#paint3_linear_1_267)"/>
<path d="M22.3076 6C20.6593 6 19.3076 7.33516 19.3076 9V12.9231C20.0659 12.2802 21.3845 11.8681 23.5109 11.967C24.6483 12.0165 25.8681 12.3297 25.8681 12.3297V13.5989C25.2582 13.2857 24.5329 13.0055 23.5933 12.9396C21.9779 12.8242 21.0054 13.6154 21.0054 15C21.0054 16.4011 21.9779 17.1923 23.5933 17.0604C24.5329 16.9945 25.2582 16.6978 25.8681 16.4011V17.6703C25.8681 17.6703 24.6648 17.9835 23.5109 18.033C21.3845 18.1319 20.0659 17.7198 19.3076 17.0769V24H23.7087C25.3571 24 26.7087 22.6648 26.7087 21V6H22.3076Z" fill="url(#paint4_linear_1_267)"/>
<defs>
<linearGradient id="paint0_linear_1_267" x1="27.5961" y1="16.1391" x2="35.0043" y2="16.1391" gradientUnits="userSpaceOnUse">
<stop stop-color="#007940"/>
<stop offset="0.2285" stop-color="#00873F"/>
<stop offset="0.7433" stop-color="#40A737"/>
<stop offset="1" stop-color="#5CB531"/>
</linearGradient>
<linearGradient id="paint1_linear_1_267" x1="27.5965" y1="14.9843" x2="35.0043" y2="14.9843" gradientUnits="userSpaceOnUse">
<stop stop-color="#007940"/>
<stop offset="0.2285" stop-color="#00873F"/>
<stop offset="0.7433" stop-color="#40A737"/>
<stop offset="1" stop-color="#5CB531"/>
</linearGradient>
<linearGradient id="paint2_linear_1_267" x1="27.5961" y1="13.7283" x2="35.0036" y2="13.7283" gradientUnits="userSpaceOnUse">
<stop stop-color="#007940"/>
<stop offset="0.2285" stop-color="#00873F"/>
<stop offset="0.7433" stop-color="#40A737"/>
<stop offset="1" stop-color="#5CB531"/>
</linearGradient>
<linearGradient id="paint3_linear_1_267" x1="11.0127" y1="14.9843" x2="18.5349" y2="14.9843" gradientUnits="userSpaceOnUse">
<stop stop-color="#1F286F"/>
<stop offset="0.4751" stop-color="#004E94"/>
<stop offset="0.8261" stop-color="#0066B1"/>
<stop offset="1" stop-color="#006FBC"/>
</linearGradient>
<linearGradient id="paint4_linear_1_267" x1="19.2648" y1="14.9843" x2="26.5702" y2="14.9843" gradientUnits="userSpaceOnUse">
<stop stop-color="#6C2C2F"/>
<stop offset="0.1735" stop-color="#882730"/>
<stop offset="0.5731" stop-color="#BE1833"/>
<stop offset="0.8585" stop-color="#DC0436"/>
<stop offset="1" stop-color="#E60039"/>
</linearGradient>
</defs>
</svg>
