<svg width="46" height="30" viewBox="0 0 46 30" fill="none" xmlns="http://www.w3.org/2000/svg">
<g clip-path="url(#clip0_1_251)">
<path d="M25.9639 9.82214H19.4189V21.178H25.9639V9.82214Z" fill="#FF5F00"/>
<path d="M19.8347 15.5006C19.8342 14.4042 20.0911 13.323 20.5847 12.3439C21.0851 11.3535 21.8057 10.4909 22.6914 9.82227C21.5781 8.98107 20.2554 8.46139 18.8672 8.31977C17.4746 8.17483 16.0688 8.41162 14.8005 9.00477C13.5479 9.58844 12.4838 10.5114 11.7289 11.6689C10.9866 12.8092 10.5906 14.1401 10.5889 15.5006C10.5889 16.8556 10.9839 18.1839 11.7289 19.3323C12.4836 20.4897 13.5474 21.4126 14.7997 21.9964C16.0682 22.5897 17.4743 22.8265 18.8672 22.6814C20.2554 22.5398 21.5781 22.0201 22.6914 21.1789C21.8062 20.5105 21.0858 19.6481 20.5855 18.6581C20.0915 17.6789 19.8343 16.5974 19.8347 15.5006Z" fill="#EB001B"/>
<path d="M34.7939 15.4998C34.7939 16.8548 34.3989 18.1832 33.6547 19.3315C32.8999 20.4891 31.8358 21.412 30.5831 21.9957C29.3148 22.5888 27.909 22.8256 26.5164 22.6807C25.128 22.5392 23.8049 22.0195 22.6914 21.1782C23.5761 20.509 24.2961 19.6465 24.7964 18.6565C25.2904 17.6775 25.5481 16.5964 25.5489 15.4998C25.5482 14.4036 25.2908 13.3228 24.7972 12.344C24.297 11.3537 23.577 10.4909 22.6922 9.82149C23.8053 8.98043 25.1277 8.46075 26.5156 8.31899C27.9084 8.17389 29.3145 8.41069 30.5831 9.00399C31.8357 9.58766 32.8998 10.5106 33.6547 11.6682C34.3968 12.8085 34.7924 14.1394 34.7939 15.4998ZM34.0806 19.9773V19.744H34.1772V19.6973H33.9306V19.744H34.0272V19.9773H34.0806ZM34.5606 19.9773V19.6965H34.4847L34.3972 19.8898L34.3097 19.6965H34.2347V19.9773H34.2881V19.7657L34.3697 19.9482H34.4256L34.5072 19.7648V19.9773H34.5606Z" fill="#F79E1B"/>
</g>
<defs>
<clipPath id="clip0_1_251">
<rect width="25" height="15" fill="white" transform="translate(10.2002 8)"/>
</clipPath>
</defs>
</svg>
