<svg width="46" height="30" viewBox="0 0 46 30" fill="none" xmlns="http://www.w3.org/2000/svg">
<path d="M38.6395 12.1239C38.6817 12.1692 38.7132 12.2146 38.7554 12.2712C38.787 12.3166 38.8186 12.3506 38.8501 12.3959C38.8923 12.4412 38.9345 12.4979 38.966 12.5432C38.9976 12.5886 39.0398 12.6339 39.0714 12.6793C39.1136 12.7359 39.1557 12.7926 39.1976 12.8493C39.2398 12.9059 39.2714 12.9513 39.3136 13.0079C39.3557 13.0533 39.3873 13.0986 39.4295 13.1439C39.461 13.1893 39.4926 13.2233 39.5242 13.2686C39.5664 13.3253 39.6192 13.3819 39.6614 13.4386C39.7032 13.4839 39.7351 13.5406 39.777 13.5859C39.8089 13.6313 39.8507 13.6653 39.8826 13.7106C39.9035 13.7333 39.9142 13.7559 39.9351 13.7786C39.9564 13.8126 39.9879 13.8353 40.0089 13.8693C40.0298 13.8919 40.051 13.9259 40.072 13.9486C40.0932 13.9713 40.1248 14.0053 40.1354 14.0393C40.167 14.0846 40.2092 14.1186 40.2407 14.1753C40.2617 14.2093 40.2932 14.2319 40.3145 14.2659C40.3567 14.3226 40.4092 14.3906 40.4514 14.4473C40.4723 14.4813 40.5039 14.504 40.5251 14.538C40.5567 14.5833 40.5882 14.6173 40.6198 14.6626C40.641 14.6966 40.6726 14.7193 40.6935 14.7533C40.7251 14.7986 40.757 14.844 40.7885 14.8893C40.8201 14.9346 40.8623 14.98 40.9042 15.0253C40.936 15.0593 40.957 15.0933 40.9779 15.1273C41.0098 15.1613 40.9992 15.1953 40.9676 15.2293C40.9254 15.286 40.8832 15.3427 40.8307 15.3993C40.7989 15.4447 40.757 15.49 40.7251 15.524C40.6832 15.5693 40.6514 15.626 40.6095 15.6713C40.5776 15.7167 40.5357 15.762 40.5039 15.8073C40.462 15.8527 40.4304 15.9093 40.3985 15.9547C40.367 16 40.3248 16.0453 40.2932 16.0907C40.2723 16.1247 40.2407 16.1587 40.2195 16.1927C40.1879 16.238 40.1564 16.272 40.1248 16.3173C40.0932 16.3513 40.072 16.3853 40.0404 16.4193C39.9982 16.476 39.9457 16.5327 39.9035 16.5893C39.872 16.6347 39.8298 16.68 39.7982 16.7253C39.756 16.7707 39.7139 16.8273 39.6823 16.8727C39.6614 16.9067 39.6295 16.9407 39.6085 16.9747C39.577 17.02 39.5348 17.0654 39.5032 17.1107C39.4717 17.156 39.4295 17.2014 39.3979 17.2467C39.3451 17.3034 39.3029 17.3714 39.2504 17.428C39.1976 17.496 39.1451 17.564 39.0923 17.6321C39.0501 17.6774 39.0082 17.7341 38.9764 17.7794C38.9448 17.8247 38.9132 17.8701 38.8711 17.9154C38.8395 17.9607 38.7973 18.0061 38.7657 18.0514C38.7342 18.0967 38.692 18.1421 38.6604 18.1874C38.6604 18.1874 38.6498 18.1874 38.6395 18.1987C38.6395 16.1813 38.6395 14.1639 38.6395 12.1466C38.6289 12.1239 38.6395 12.1239 38.6395 12.1239Z" fill="#7FA9B3"/>
<path fill-rule="evenodd" clip-rule="evenodd" d="M6.66937 12.3248H5.60059C5.60059 14.8762 5.60059 17.4381 5.62154 20H6.73224V17.3126C6.764 17.3506 6.79961 17.381 6.8344 17.4106C6.857 17.4299 6.87926 17.4489 6.89989 17.4695C7.05706 17.6159 7.24567 17.7309 7.44475 17.8041C7.72767 17.9086 8.01058 17.9086 8.30397 17.8877C8.49258 17.8773 8.68119 17.8459 8.8698 17.7936C9.06889 17.7413 9.24702 17.6577 9.3937 17.5217C9.6347 17.3021 9.79189 17.0303 9.89667 16.727C9.99095 16.4447 10.0538 16.1624 10.0748 15.8591C10.0958 15.65 10.1167 15.4409 10.1167 15.2317C10.1167 15.0017 10.1062 14.7612 10.0958 14.5311C10.0853 14.3847 10.0643 14.2383 10.0434 14.092C10.0119 13.9037 9.97002 13.7155 9.91761 13.5273C9.84427 13.2763 9.72902 13.0567 9.56136 12.858C9.42514 12.6907 9.26795 12.5653 9.07936 12.4816C8.93267 12.4084 8.77549 12.3666 8.61832 12.3248C8.35636 12.262 8.09441 12.2411 7.83245 12.2725C7.63336 12.2934 7.43428 12.3561 7.25615 12.4398C7.07802 12.5339 6.91036 12.6489 6.76367 12.7953C6.73224 12.8162 6.7008 12.8476 6.66937 12.879V12.3248ZM8.91171 14.3429C8.96411 14.573 8.98505 14.8239 8.96411 15.0644C8.96411 15.1007 8.96474 15.1376 8.96539 15.1749C8.96736 15.2879 8.96939 15.4039 8.95361 15.5141C8.92217 15.8277 8.88027 16.1519 8.7231 16.4342C8.58688 16.6852 8.3878 16.8421 8.10488 16.8839C7.96867 16.9048 7.83245 16.9152 7.69624 16.9048C7.44475 16.8839 7.22471 16.7793 7.06754 16.5702C6.91036 16.3715 6.82654 16.1415 6.77415 15.901C6.75319 15.765 6.73224 15.6186 6.72176 15.4827C6.71914 15.4304 6.71586 15.3781 6.71259 15.3258C6.70277 15.169 6.69294 15.0121 6.7008 14.8553C6.71128 14.4893 6.76367 14.1233 6.95228 13.7887C7.10945 13.5064 7.33997 13.3286 7.6648 13.2763C7.83245 13.2554 8.0001 13.2449 8.16775 13.3077C8.3878 13.3809 8.55545 13.5273 8.68119 13.726C8.79646 13.9142 8.8698 14.1233 8.91171 14.3429Z" fill="#183B56"/>
<path fill-rule="evenodd" clip-rule="evenodd" d="M14.1757 17.5327V18.0211C14.5466 18.0211 14.907 18.0211 15.2778 18.0319V17.956V14.0271C15.2778 13.8209 15.246 13.6147 15.1719 13.4085C15.0341 13.0286 14.7798 12.7464 14.43 12.5511C14.2181 12.4317 13.9956 12.3666 13.7518 12.3232C13.5081 12.2906 13.2644 12.2581 13.0206 12.2581C12.9146 12.2581 12.8087 12.2581 12.7027 12.2689C12.6073 12.2689 12.5225 12.2689 12.4272 12.2906C12.194 12.334 11.9609 12.3883 11.7489 12.486C11.4522 12.6162 11.1979 12.7899 11.0071 13.0503C10.9859 13.0829 10.9965 13.0937 11.0177 13.1155C11.0601 13.148 11.1025 13.1914 11.1449 13.2348C11.2085 13.3 11.2747 13.3624 11.341 13.4248C11.4072 13.4872 11.4734 13.5496 11.537 13.6147C11.5635 13.6364 11.5873 13.6608 11.6112 13.6852C11.635 13.7097 11.6589 13.7341 11.6854 13.7558C11.7066 13.7775 11.7277 13.7884 11.7596 13.7558C11.7949 13.7124 11.8302 13.6786 11.8655 13.6448C11.8832 13.628 11.9008 13.6111 11.9185 13.593C12.0457 13.4736 12.194 13.3868 12.353 13.3325C12.5755 13.2457 12.8087 13.2131 13.0524 13.2457C13.2325 13.2674 13.4127 13.2891 13.5823 13.3542C13.8366 13.4519 14.0168 13.6147 14.091 13.886C14.1213 13.9896 14.1323 14.1031 14.1425 14.2077C14.143 14.2126 14.1435 14.2176 14.1439 14.2225C14.1509 14.323 14.1487 14.4235 14.1463 14.5272C14.1451 14.5802 14.1439 14.6341 14.1439 14.6892H14.1121C13.5929 14.6892 13.063 14.6892 12.5331 14.7C12.4272 14.7 12.3212 14.7109 12.2152 14.7217C11.9397 14.7543 11.6854 14.852 11.4522 15.0039C11.1661 15.1884 10.9541 15.438 10.8482 15.7745C10.774 16.0024 10.7422 16.2412 10.774 16.4799C10.7846 16.5396 10.7925 16.602 10.8005 16.6644C10.8084 16.7268 10.8164 16.7892 10.827 16.849C10.88 17.0877 10.9753 17.3048 11.1343 17.4893C11.2826 17.6738 11.4734 17.804 11.6854 17.9017C11.9397 18.0102 12.194 18.0645 12.459 18.0645C12.6497 18.0645 12.8405 18.0536 13.0312 18.0319C13.169 18.0211 13.3067 17.9994 13.4445 17.9668C13.6246 17.9234 13.7836 17.8149 13.9426 17.7064C14.0168 17.6521 14.091 17.5978 14.1757 17.5327ZM14.091 15.5031H14.1545V16.0675C14.1439 16.2086 14.1333 16.3497 14.1015 16.4908C14.0697 16.6319 13.9744 16.7404 13.8684 16.8381C13.7094 16.9792 13.5293 17.0551 13.3279 17.0877C13.1902 17.1094 13.0524 17.1311 12.9146 17.1094C12.8616 17.104 12.8087 17.1013 12.7557 17.0986C12.7027 17.0959 12.6497 17.0931 12.5967 17.0877C12.406 17.066 12.2152 17.0117 12.0669 16.8706C11.9821 16.7838 11.9185 16.6753 11.8973 16.545C11.8655 16.3823 11.8549 16.2195 11.9079 16.0567C11.9715 15.8721 12.088 15.7528 12.247 15.6551C12.4272 15.5466 12.6285 15.5031 12.8405 15.5031H14.091Z" fill="#183B56"/>
<path fill-rule="evenodd" clip-rule="evenodd" d="M33.2081 16.0262C33.1651 15.8639 33.1436 15.7016 33.1221 15.5285C34.3593 15.5285 35.575 15.5285 36.823 15.5177C36.8239 15.5085 36.8247 15.4993 36.8255 15.4902C36.8354 15.3818 36.8446 15.2812 36.8446 15.1715C36.8446 15.1321 36.8417 15.0957 36.8389 15.0607C36.8363 15.0283 36.8338 14.9971 36.8338 14.9659C36.8338 14.8469 36.823 14.7278 36.8123 14.6088C36.7908 14.4466 36.7693 14.2951 36.737 14.1328C36.6617 13.7757 36.5325 13.4403 36.3174 13.1374C36.1883 12.9426 36.0269 12.7803 35.844 12.6505C35.4782 12.4017 35.0694 12.2826 34.6283 12.261C34.483 12.2529 34.3378 12.263 34.1925 12.2732C34.1441 12.2766 34.0957 12.2799 34.0473 12.2826C33.8536 12.2935 33.6708 12.3476 33.4879 12.4125C33.1651 12.5315 32.8961 12.7262 32.6702 12.9859C32.5411 13.1266 32.4335 13.2889 32.3582 13.462C32.2721 13.6459 32.2076 13.8298 32.1538 14.0138C32.0677 14.2842 32.0355 14.5547 32.0139 14.8361C32.0032 14.9983 32.0032 15.1498 32.0139 15.3121C32.0139 15.4275 32.0235 15.5429 32.033 15.6583C32.0378 15.716 32.0426 15.7737 32.0462 15.8314C32.057 16.037 32.1108 16.2426 32.1753 16.4373C32.2721 16.7727 32.4228 17.0649 32.6487 17.3245C32.8423 17.5517 33.079 17.7249 33.3588 17.8547C33.66 17.9845 33.9828 18.0494 34.3055 18.0603C34.5314 18.0711 34.7466 18.0603 34.9725 18.0386C35.1124 18.0278 35.2523 18.0061 35.3814 17.9737C35.6396 17.9088 35.887 17.8222 36.113 17.6816C36.3066 17.5625 36.4895 17.4111 36.6401 17.2271C36.6617 17.2055 36.6617 17.1839 36.6401 17.1622C36.5864 17.1081 36.5325 17.0567 36.4788 17.0054C36.425 16.954 36.3712 16.9026 36.3174 16.8485L35.9624 16.4914C35.9139 16.5293 35.8682 16.5672 35.8225 16.605C35.7768 16.6429 35.731 16.6808 35.6826 16.7186C35.3814 16.9567 35.0264 17.0757 34.639 17.0865C34.4777 17.0973 34.3055 17.0649 34.1441 17.0324C33.9612 16.9891 33.7891 16.9134 33.6492 16.7944C33.4125 16.5888 33.2835 16.3183 33.2081 16.0262ZM35.6611 14.6737H33.1436C33.1543 14.5764 33.1543 14.479 33.1543 14.3816C33.1597 14.3602 33.165 14.3385 33.1704 14.3165C33.1976 14.2056 33.226 14.0897 33.2619 13.9813C33.391 13.6351 33.617 13.3754 33.972 13.2672C34.327 13.159 34.6821 13.1807 35.0156 13.3646C35.2523 13.4944 35.4029 13.7 35.4997 13.938C35.5535 14.0787 35.5965 14.2301 35.6288 14.3816C35.6432 14.4466 35.6479 14.5115 35.6527 14.5764C35.6551 14.6088 35.6575 14.6413 35.6611 14.6737Z" fill="#183B56"/>
<path d="M19.5014 12.2581C19.9143 12.2581 20.3381 12.2581 20.7619 12.2581C20.7619 12.2792 20.7619 12.2898 20.751 12.3109C20.6423 12.5963 20.5337 12.8923 20.425 13.1776C20.3381 13.3891 20.262 13.611 20.1751 13.8224C20.0447 14.1712 19.9035 14.52 19.7731 14.8794C19.6753 15.1331 19.5775 15.3868 19.4797 15.6405C19.3493 15.9893 19.208 16.3486 19.0777 16.6975C18.9799 16.9617 18.8821 17.226 18.7734 17.4902C18.6539 17.8073 18.5344 18.1244 18.404 18.4415C18.2953 18.7163 18.1975 18.9911 18.0671 19.2554C17.8933 19.6148 17.5891 19.8579 17.187 19.953C17.0783 19.9741 16.9697 19.9847 16.861 19.9953C16.7089 20.0059 16.5568 19.9953 16.4046 19.9953C16.2308 19.9953 16.0678 19.9953 15.8831 19.9953C15.8831 19.6676 15.8831 19.3294 15.8831 18.9806C15.9374 18.9806 15.9809 18.9806 16.0352 18.9806C16.2199 18.9806 16.3938 18.9806 16.5785 18.9806C16.8719 18.97 17.1327 18.8115 17.2305 18.5366C17.35 18.2301 17.4586 17.913 17.5673 17.5959C17.5891 17.5325 17.5456 17.4902 17.5347 17.4374C17.4478 17.1942 17.3609 16.9617 17.2739 16.7291C17.1544 16.4015 17.024 16.0738 16.9045 15.7461C16.7524 15.3551 16.6111 14.964 16.459 14.5729C16.3177 14.1924 16.1656 13.8118 16.0244 13.4313C15.894 13.0719 15.7527 12.7126 15.6223 12.3532C15.6115 12.3426 15.6115 12.3215 15.6006 12.3003C15.9917 12.3003 16.3938 12.3003 16.785 12.3003C16.8176 12.3003 16.8284 12.3215 16.8284 12.3426C16.8936 12.5329 16.9588 12.7231 17.024 12.9134C17.1653 13.3045 17.2956 13.6956 17.4369 14.0866C17.5673 14.4566 17.6977 14.8266 17.8281 15.2071C17.9367 15.5136 18.0454 15.8201 18.1541 16.1267C18.1541 16.1372 18.1649 16.1478 18.1758 16.1584C18.6322 14.8371 19.0668 13.5476 19.5014 12.2581Z" fill="#183B56"/>
<path d="M30.2107 17.7419C30.2107 17.7212 30.2107 17.6902 30.2107 17.6695C30.2107 16.5528 30.2107 15.4465 30.2107 14.3298C30.2107 14.0506 30.1263 13.7921 29.9364 13.5646C29.7781 13.3682 29.5565 13.2647 29.3138 13.2441C29.1978 13.2337 29.0817 13.2234 28.9656 13.2337C28.6596 13.2647 28.3958 13.3785 28.2165 13.637C28.0899 13.8128 28.0265 14.0092 27.9949 14.2264C27.9843 14.2987 27.9843 14.3711 27.9843 14.4435C27.9843 15.5188 27.9843 16.5839 27.9843 17.6592C27.9843 17.6799 27.9843 17.7005 27.9843 17.7316C27.6045 17.7316 27.2246 17.7316 26.8447 17.7316C26.8447 15.9221 26.8447 14.1126 26.8447 12.3031C27.2035 12.3031 27.5623 12.3031 27.9316 12.3031C27.9316 12.4789 27.9316 12.6547 27.9316 12.8512C28.0054 12.7891 28.0687 12.7271 28.1426 12.6754C28.3958 12.4893 28.6702 12.3652 28.9867 12.3031C29.1978 12.2618 29.4088 12.2514 29.6198 12.2618C29.8625 12.2721 30.1052 12.3238 30.3268 12.4272C30.5484 12.5306 30.7383 12.6754 30.9071 12.8512C31.076 13.0476 31.2026 13.2751 31.2659 13.5336C31.3187 13.7404 31.3398 13.9472 31.3398 14.154C31.3398 14.5159 31.3503 14.8778 31.3503 15.2397C31.3503 15.9014 31.3609 16.5632 31.3609 17.2249C31.3609 17.3904 31.3609 17.5661 31.3609 17.7419C30.9599 17.7419 30.5906 17.7419 30.2107 17.7419Z" fill="#183B56"/>
<path d="M21.3604 10C21.7544 10 22.1379 10 22.532 10C22.532 10.0211 22.532 10.0421 22.532 10.0632C22.532 12.1159 22.532 14.1581 22.532 16.2003C22.532 16.3687 22.5746 16.5372 22.7024 16.6635C22.777 16.7372 22.8728 16.7793 22.9793 16.7793C23.1498 16.7793 23.3095 16.7898 23.4799 16.7898C23.5226 16.7898 23.5758 16.7898 23.6184 16.7793C23.6184 17.0951 23.6184 17.4109 23.6184 17.7372C23.5865 17.7372 23.5758 17.7372 23.5545 17.7372C23.2776 17.7372 23.0113 17.7478 22.7343 17.7372C22.4255 17.7267 22.1485 17.632 21.9142 17.4425C21.6266 17.2214 21.4669 16.9162 21.4029 16.5687C21.371 16.4003 21.3604 16.2214 21.3604 16.0529C21.3604 14.0528 21.3604 12.0633 21.3604 10.0632C21.3604 10.0526 21.3604 10.0316 21.3604 10Z" fill="#183B56"/>
<path d="M24.5859 12.2581C24.9647 12.2581 25.3223 12.2581 25.6905 12.2581C25.6905 14.086 25.6905 15.914 25.6905 17.7419C25.3223 17.7419 24.9541 17.7419 24.5859 17.7419C24.5859 15.914 24.5859 14.086 24.5859 12.2581Z" fill="#183B56"/>
<path d="M25.6905 11.2903C25.3223 11.2903 24.9541 11.2903 24.5859 11.2903C24.5859 10.8642 24.5859 10.438 24.5859 10C24.9541 10 25.3223 10 25.6905 10C25.6905 10.4262 25.6905 10.8523 25.6905 11.2903Z" fill="#183B56"/>
</svg>
