<svg width="45" height="30" viewBox="0 0 45 30" fill="none" xmlns="http://www.w3.org/2000/svg">
<path fill-rule="evenodd" clip-rule="evenodd" d="M15.6618 6.08545L12.015 13.7456C12.0011 13.7741 11.9967 13.8063 12.0024 13.8374C12.0082 13.8686 12.0237 13.8971 12.0468 13.9188L21.896 23.3567C21.924 23.3836 21.9612 23.3985 22 23.3985C22.0388 23.3985 22.076 23.3836 22.104 23.3567L31.9532 13.9194C31.9763 13.8977 31.9918 13.8692 31.9976 13.838C32.0033 13.8069 31.9989 13.7747 31.985 13.7462L28.3382 6.08604C28.3264 6.06031 28.3075 6.03852 28.2837 6.02327C28.2598 6.00801 28.2321 5.99994 28.2038 6.00001H15.7973C15.7689 5.99966 15.741 6.00754 15.7169 6.0227C15.6929 6.03786 15.6738 6.05965 15.6618 6.08545Z" fill="#50AF95"/>
<path fill-rule="evenodd" clip-rule="evenodd" d="M23.2654 14.5323C23.1947 14.5376 22.8294 14.5594 22.0145 14.5594C21.3663 14.5594 20.9061 14.54 20.7447 14.5323C18.2398 14.4221 16.3701 13.9861 16.3701 13.464C16.3701 12.9419 18.2398 12.5065 20.7447 12.3945V14.098C20.9085 14.1098 21.3775 14.1375 22.0257 14.1375C22.8035 14.1375 23.193 14.1051 23.2631 14.0986V12.3957C25.7626 12.5071 27.6282 12.9431 27.6282 13.464C27.6282 13.9849 25.7632 14.4209 23.2631 14.5317L23.2654 14.5323ZM23.2654 12.2195V10.6952H26.7538V8.37061H17.2563V10.6952H20.7441V12.2189C17.9092 12.3492 15.7773 12.9107 15.7773 13.5836C15.7773 14.2565 17.9092 14.8175 20.7441 14.9483V19.8331H23.2648V14.9466C26.0932 14.8163 28.2216 14.2554 28.2216 13.583C28.2216 12.9107 26.095 12.3498 23.2648 12.2189L23.2654 12.2195Z" fill="white"/>
<circle cx="27.137" cy="19.75" r="4.58333" fill="#34364B"/>
<path d="M27.1328 16.5416L27.0928 16.6777V20.6256L27.1328 20.6656L28.9654 19.5823L27.1328 16.5416Z" fill="white"/>
<path d="M27.1353 16.5416L25.3027 19.5823L27.1353 20.6656V18.7494V16.5416Z" fill="white"/>
<path d="M27.1368 21.0126L27.1143 21.0401V22.4464L27.1368 22.5123L28.9705 19.9299L27.1368 21.0126Z" fill="white"/>
<path d="M27.1353 22.5123V21.0126L25.3027 19.9299L27.1353 22.5123Z" fill="white"/>
</svg>
