<svg width="46" height="30" viewBox="0 0 46 30" fill="none" xmlns="http://www.w3.org/2000/svg">
<path fill-rule="evenodd" clip-rule="evenodd" d="M16.4616 6.08545L12.8148 13.7456C12.8009 13.7741 12.7965 13.8063 12.8022 13.8374C12.808 13.8686 12.8235 13.8971 12.8466 13.9188L22.6958 23.3567C22.7238 23.3836 22.761 23.3985 22.7998 23.3985C22.8386 23.3985 22.8758 23.3836 22.9038 23.3567L32.753 13.9194C32.7761 13.8977 32.7916 13.8692 32.7974 13.838C32.8031 13.8069 32.7987 13.7747 32.7848 13.7462L29.138 6.08604C29.1262 6.06031 29.1073 6.03852 29.0835 6.02327C29.0596 6.00801 29.0319 5.99994 29.0036 6.00001H16.5971C16.5687 5.99966 16.5408 6.00754 16.5168 6.0227C16.4927 6.03786 16.4736 6.05965 16.4616 6.08545Z" fill="#50AF95"/>
<path fill-rule="evenodd" clip-rule="evenodd" d="M24.0652 14.5323C23.9945 14.5376 23.6292 14.5594 22.8143 14.5594C22.1661 14.5594 21.7059 14.54 21.5445 14.5323C19.0396 14.4221 17.1699 13.9861 17.1699 13.464C17.1699 12.9419 19.0396 12.5065 21.5445 12.3945V14.098C21.7083 14.1098 22.1773 14.1375 22.8255 14.1375C23.6033 14.1375 23.9928 14.1051 24.0629 14.0986V12.3957C26.5624 12.5071 28.428 12.9431 28.428 13.464C28.428 13.9849 26.563 14.4209 24.0629 14.5317L24.0652 14.5323ZM24.0652 12.2195V10.6952H27.5536V8.37061H18.0561V10.6952H21.5439V12.2189C18.709 12.3492 16.5771 12.9107 16.5771 13.5836C16.5771 14.2565 18.709 14.8175 21.5439 14.9483V19.8331H24.0647V14.9466C26.893 14.8163 29.0214 14.2554 29.0214 13.583C29.0214 12.9107 26.8948 12.3498 24.0647 12.2189L24.0652 12.2195Z" fill="white"/>
<circle cx="28.2161" cy="19.75" r="4.58333" fill="#FF060A"/>
<path d="M28.2646 23.5001L31.4795 18.9452L28.2646 19.76V23.5001Z" fill="white"/>
<path d="M24.9238 16.8334L28.1511 19.5249L30.294 17.6391L24.9238 16.8334Z" fill="white"/>
<path d="M28.0387 23.3777V19.7252L24.9053 17.1123L28.0387 23.3777Z" fill="white"/>
<path d="M28.5752 19.4495L31.5272 18.7014L30.5429 17.7175L28.5752 19.4495Z" fill="white"/>
</svg>
