<svg width="45" height="30" viewBox="0 0 45 30" fill="none" xmlns="http://www.w3.org/2000/svg">
<g clip-path="url(#clip0_1_247)">
<path d="M19.0123 10.536L17.4881 19.4831H19.9264L21.4523 10.536H19.0129H19.0123ZM15.4434 10.546L13.0552 16.6478L12.8005 15.7266C12.3299 14.6166 10.9923 13.0219 9.42285 12.0172L11.6064 19.479L14.1864 19.4742L18.027 10.5442L15.4434 10.546Z" fill="#0085F3"/>
<path d="M11.8741 11.1867C11.7329 10.6414 11.3218 10.479 10.8118 10.4596H7.03118L7 10.6378C9.94176 11.3514 11.8882 13.0714 12.6965 15.139L11.8741 11.1867ZM26.3941 12.2514C27.0195 12.2375 27.641 12.3541 28.2188 12.5937L28.4388 12.6973L28.7688 10.7584C28.2865 10.5767 27.5294 10.382 26.5847 10.382C24.1753 10.382 22.4765 11.5961 22.4635 13.3349C22.4476 14.6202 23.6735 15.3378 24.5988 15.7661C25.5494 16.2049 25.8676 16.4837 25.8635 16.8761C25.8559 17.4749 25.1059 17.7496 24.4047 17.7496C23.4282 17.7496 22.91 17.6149 22.1094 17.2814L21.7947 17.1384L21.4518 19.1408C22.0224 19.3914 23.0753 19.6061 24.1688 19.6173C26.7318 19.6173 28.3982 18.4184 28.4153 16.5602C28.4259 15.5437 27.7759 14.7678 26.3665 14.1308C25.5135 13.7161 24.9918 13.4402 24.9965 13.0208C24.9965 12.649 25.4394 12.2514 26.3941 12.2514ZM35.0271 10.5461H33.1429C32.5576 10.5461 32.1224 10.7055 31.8653 11.289L28.2447 19.4884H30.8053C30.8053 19.4884 31.2229 18.3861 31.3176 18.1443L34.4406 18.1478C34.5129 18.4602 34.7376 19.4884 34.7376 19.4884H37L35.0271 10.5461ZM32.0194 16.3131C32.22 15.7996 32.9912 13.8125 32.9912 13.8125C32.9776 13.8373 33.19 13.2949 33.3159 12.9584L33.4806 13.7296L34.0453 16.3131H32.0194Z" fill="#0085F3"/>
</g>
<defs>
<clipPath id="clip0_1_247">
<rect width="30" height="10" fill="white" transform="translate(7 10)"/>
</clipPath>
</defs>
</svg>
