<svg width="46" height="30" viewBox="0 0 46 30" fill="none" xmlns="http://www.w3.org/2000/svg">
<path d="M12.8324 11.0586L11.8451 15.1226C11.7292 15.5292 11.6711 15.8774 11.6131 16.284C11.5549 15.8196 11.4967 15.4131 11.3808 15.0648L10.2197 11.0585H9.05827L7.95508 15.0648C7.83889 15.4714 7.78071 15.8775 7.72305 16.284C7.66487 15.8773 7.60669 15.4712 7.49067 15.0067L6.50358 11.0586H5.40039L7.08409 17.6197H8.36166L9.46485 13.5552C9.58078 13.1488 9.63896 12.7423 9.69688 12.3358C9.75506 12.7424 9.81325 13.1488 9.92953 13.5552L11.0325 17.5617H12.31L13.8777 11.0586H12.8326L12.8324 11.0586Z" fill="#3466B7"/>
<path d="M16.084 12.684C14.6323 12.684 13.7031 13.7872 13.7031 15.2388C13.7031 16.9229 14.5741 17.6773 15.9094 17.6773C17.361 17.6773 18.2898 16.574 18.2898 15.0647C18.2899 13.3808 17.3611 12.684 16.084 12.684ZM16.0259 16.7485C15.2129 16.7485 14.8063 16.2258 14.8063 15.1225C14.8063 14.0196 15.3869 13.5551 16.0259 13.5551C16.8386 13.5551 17.2448 14.1356 17.2448 15.1225C17.2448 16.2258 16.6644 16.7485 16.0259 16.7485Z" fill="#3466B7"/>
<path d="M19.7416 13.7871C19.858 13.4387 19.858 13.0322 19.858 12.742H18.8711V17.5613H19.9162V15.5871C19.9162 14.1355 20.3807 13.4969 21.3097 13.6709V12.6258C20.4388 12.5681 19.974 13.1486 19.7416 13.7871Z" fill="#3466B7"/>
<path d="M22.9936 11.0002H21.9482V15.6451V17.5613H22.9936H22.9938V14.6001H22.9936V11.0002Z" fill="#3466B7"/>
<path d="M26.8252 12.742C26.593 12.6838 26.3605 12.6838 26.1285 12.6838C24.5606 12.6838 23.6318 13.7871 23.6318 15.4129C23.6318 16.8064 24.2123 17.6772 25.3737 17.6772C26.1286 17.6772 26.709 17.271 26.9414 16.69C26.8832 16.9226 26.8832 17.3287 26.8832 17.5611H27.8704V11H26.8253V12.742H26.8252ZM26.767 13.6131V15.1224C26.767 15.9354 26.3605 16.8646 25.6057 16.8646C24.9671 16.8646 24.6769 16.3419 24.6769 15.3549C24.6769 14.0773 25.2574 13.555 26.0704 13.555C26.3025 13.555 26.593 13.555 26.8253 13.6131H26.767Z" fill="#3466B7"/>
<path d="M30.3089 11.0002C29.6701 11.0002 29.1479 11.0584 28.625 11.0584V17.5615H29.6701V15.1806H30.1349C31.7026 15.1806 32.6897 14.2518 32.6897 12.9742C32.6897 11.7551 31.8767 11.0002 30.3089 11.0002ZM30.1349 14.3099C29.9607 14.3099 29.7865 14.2517 29.6701 14.2517V11.8709H30.1929C31.1798 11.8709 31.5864 12.3354 31.5864 13.0322C31.5864 13.8452 31.0057 14.3099 30.1349 14.3099Z" fill="#3466B7"/>
<path d="M36.6961 17.5033V14.1938C36.6961 13.2649 36.2895 12.626 34.838 12.626C34.1994 12.626 33.5605 12.8004 33.0961 12.9744L33.2703 13.7873C33.6768 13.5551 34.1994 13.4389 34.6637 13.4389C35.4186 13.4389 35.6511 13.7873 35.6511 14.368V14.6583C33.8511 14.6583 32.8057 15.2389 32.8057 16.342C32.8057 17.1549 33.3284 17.6774 34.1413 17.6774C34.8962 17.6774 35.4768 17.2713 35.7088 16.6903C35.6549 16.9077 35.6513 17.2257 35.6511 17.5032H36.6961V17.5033ZM34.3736 16.8648C33.967 16.8648 33.735 16.5742 33.735 16.2259C33.735 15.768 34.1312 15.3664 35.5347 15.3557V15.5292C35.5347 16.168 35.0702 16.8648 34.3736 16.8648Z" fill="#3466B7"/>
<path d="M40.1795 12.7419L39.4828 14.7162C39.3087 15.2386 39.1344 15.8195 39.0181 16.2255C38.9602 15.8194 38.8441 15.3548 38.6697 14.9483L37.915 12.7419H36.754L38.6117 17.5613L38.4377 18.0256C38.0893 18.8966 37.6828 19.1288 37.2183 19.1288C37.0442 19.1288 36.8117 19.1288 36.6377 19.0711L36.5215 19.9418C36.6377 20 36.9278 20 37.1023 20C38.2055 20 38.8441 19.5354 39.4245 17.9098L41.2826 12.742L40.1795 12.7419Z" fill="#3466B7"/>
</svg>
