<svg xmlns="http://www.w3.org/2000/svg" width="413" height="46" fill="none"><mask id="a" width="200" height="43" x="0" y="0" maskUnits="userSpaceOnUse" style="mask-type:luminance"><path fill="#fff" d="M40.14 16.91V24h-8.87v-7.09L22.69.89h9.64l3.61 9.67h.07L39.65.89h9.17zM75.44 24H95.7v-5.56H84.11v-3.15h10.86V9.73H84.11V6.45h11.36V.89H75.44zm22.98 0h19.77v-6.82H107.3V.89h-8.88zm40.8-22.71c-2.42-.5-5.17-.79-7.65-.79-5.26 0-11.89 1.13-11.89 7.48 0 8.97 12.15 6.16 12.15 9.27 0 1.16-1.89 1.59-3.97 1.59-2.65 0-5.56-.53-7.95-1.52v5.99c3.31.76 6.13 1.09 9.54 1.09 5.13 0 11.26-1.56 11.26-7.75 0-8.91-12.15-6.06-12.15-9.07 0-1.49 2.42-1.52 3.81-1.52 2.52 0 4.87.46 6.85 1.16zm12.81-.4h-8.87v14.04c0 6.82 5.07 9.47 11.52 9.47 6.99 0 11.59-2.45 11.59-9.93V.89h-8.68v13.74c0 2.25-.5 3.81-2.81 3.81-2.12 0-2.75-1.66-2.75-3.84zm36.23.4c-2.42-.5-5.17-.79-7.65-.79-5.26 0-11.89 1.13-11.89 7.48 0 8.97 12.15 6.16 12.15 9.27 0 1.16-1.89 1.59-3.97 1.59-2.65 0-5.56-.53-7.95-1.52v5.99c3.31.76 6.13 1.09 9.54 1.09 5.13 0 11.26-1.56 11.26-7.75 0-8.91-12.15-6.06-12.15-9.07 0-1.49 2.42-1.52 3.81-1.52 2.52 0 4.87.46 6.85 1.16zM10.86 16.15H8.88V24H0V.89h14.34c5.53 0 8.94 1.72 8.94 6.16 0 3.54-2.22 5.33-5.53 6.13v.07c1.92.33 3.18.82 3.91 2.48 1.08 2.48.74 17.75.91 26.72l-8.6-7.57c-.01-4.68.09-16.23-.59-17.53-.53-1.06-1.42-1.2-2.52-1.2m-.06-5.16c1.82 0 3.61-.2 3.61-2.55 0-2.09-1.69-2.38-3.48-2.38H8.48v4.93zm62.09 6.59c0 5.83-4.7 6.42-9.5 6.42H49.97V.89h14.54c4.01 0 7.95 1.29 7.95 5.7 0 3.18-1.69 4.87-4.77 5.66v.07c3.21.42 5.2 2.94 5.2 5.26M58.32 9.73h2.22c1.56 0 3.25-.46 3.25-2.22 0-1.72-1.46-2.25-3.05-2.25h-2.42zm5.69 7.12c0-1.99-1.66-2.35-3.31-2.35h-2.38v4.74h2.32c1.62-.01 3.37-.6 3.37-2.39M192.67 4.24c0 1.94 1.58 3.52 3.52 3.52s3.52-1.58 3.52-3.52-1.58-3.52-3.52-3.52-3.52 1.58-3.52 3.52m.67 0c0-1.69 1.22-2.99 2.86-2.99 1.62 0 2.84 1.31 2.84 2.99 0 1.69-1.22 2.99-2.84 2.99-1.64 0-2.86-1.3-2.86-2.99m1.5 2.06h.67V4.48h.57l1.15 1.82h.71l-1.17-1.82c.64 0 1.06-.48 1.06-1.14 0-.78-.47-1.16-1.41-1.16h-1.58zm.67-3.6h.8c.43 0 .85.14.85.6 0 .54-.33.64-.85.64h-.8z"/></mask><g mask="url(#a)"><path fill="url(#b)" d="M100.38 101.54c93.181 0 168.72-25.135 168.72-56.14s-75.539-56.14-168.72-56.14C7.198-10.74-68.34 14.395-68.34 45.4s75.538 56.14 168.72 56.14"/></g><path fill="#000" d="M28.5 34.71v-.937h6.545v.937H32.3v7.79h-1.057v-7.79zm8.04 7.79v-6.545h1.005V42.5zm.511-7.636a.72.72 0 0 1-.507-.2.64.64 0 0 1-.209-.482q0-.282.209-.482a.72.72 0 0 1 .507-.2.7.7 0 0 1 .503.2.64.64 0 0 1 .213.482.64.64 0 0 1-.213.481.7.7 0 0 1-.503.2m2.336 7.636v-6.545h.972v1.022h.085q.205-.524.66-.814.457-.294 1.096-.294.647 0 1.078.294.435.29.677.814h.069q.251-.507.754-.805.502-.303 1.206-.303.878 0 1.436.55.558.546.558 1.7V42.5h-1.006v-4.38q0-.726-.396-1.036a1.47 1.47 0 0 0-.933-.311q-.69 0-1.07.417-.379.414-.379 1.049V42.5h-1.023v-4.483q0-.558-.362-.9-.362-.344-.933-.344-.392 0-.733.208-.336.21-.546.58a1.7 1.7 0 0 0-.204.848V42.5zm13.174.136q-.946 0-1.632-.417a2.8 2.8 0 0 1-1.052-1.176q-.367-.759-.367-1.765t.367-1.772q.37-.771 1.03-1.202.666-.435 1.552-.435.51 0 1.01.17.498.172.908.555.409.38.652 1.005.242.627.242 1.543v.426h-5.045v-.87h4.023q0-.553-.222-.988a1.67 1.67 0 0 0-.622-.686 1.74 1.74 0 0 0-.946-.251q-.6 0-1.04.298-.435.294-.669.767a2.25 2.25 0 0 0-.234 1.014v.58q0 .741.256 1.257.26.51.72.78a2.1 2.1 0 0 0 1.07.264q.396 0 .715-.11.324-.116.558-.342.235-.23.363-.57l.971.272q-.153.495-.515.87-.363.37-.895.579a3.3 3.3 0 0 1-1.198.204m7.99-4.346v.937h-3.818v-.937zm4.616-2.335v.852h-3.392v-.852zm-2.403-1.569h1.006v6.239q0 .426.123.64a.64.64 0 0 0 .324.28q.2.069.422.069.166 0 .273-.017l.17-.035.205.904a2 2 0 0 1-.286.077 2 2 0 0 1-.464.042q-.426 0-.836-.183a1.66 1.66 0 0 1-.673-.558q-.264-.376-.264-.946zm6.59 8.25q-.945 0-1.632-.417a2.8 2.8 0 0 1-1.052-1.176q-.367-.759-.367-1.765t.367-1.772a2.9 2.9 0 0 1 1.03-1.202q.666-.435 1.552-.435.511 0 1.01.17.498.172.908.555.409.38.652 1.005.243.627.242 1.543v.426H67.02v-.87h4.023q0-.553-.222-.988a1.67 1.67 0 0 0-.622-.686 1.74 1.74 0 0 0-.946-.251q-.6 0-1.04.298-.435.294-.669.767a2.25 2.25 0 0 0-.234 1.014v.58q0 .741.255 1.257.261.51.72.78a2.1 2.1 0 0 0 1.07.264q.396 0 .716-.11.324-.116.558-.342.235-.23.363-.57l.971.272q-.153.495-.515.87-.363.37-.895.579a3.3 3.3 0 0 1-1.198.204m8.877-5.216-.904.256a1.7 1.7 0 0 0-.251-.439 1.2 1.2 0 0 0-.443-.358q-.282-.14-.72-.14-.602 0-1.002.277-.396.272-.396.694 0 .375.272.593.273.216.853.362l.971.238q.879.214 1.309.652.43.435.43 1.121 0 .562-.324 1.006a2.15 2.15 0 0 1-.895.699q-.575.255-1.338.255-1.002 0-1.658-.434-.656-.435-.83-1.27l.954-.239q.136.529.516.793.383.264 1.001.264.703 0 1.117-.298.417-.303.417-.725a.76.76 0 0 0-.238-.57q-.24-.235-.733-.35l-1.091-.256q-.9-.213-1.321-.66-.418-.452-.418-1.13 0-.554.311-.98.315-.426.857-.669a3 3 0 0 1 1.235-.243q.972 0 1.526.426.558.427.793 1.125m4.48-1.465v.852h-3.393v-.852zm-2.404-1.569h1.006v6.239q0 .426.123.64a.64.64 0 0 0 .324.28q.2.069.422.069.166 0 .273-.017l.17-.035.205.904a2 2 0 0 1-.286.077 2 2 0 0 1-.464.042q-.427 0-.835-.183a1.66 1.66 0 0 1-.674-.558q-.264-.376-.264-.946zm6.59 8.25q-.946 0-1.632-.417a2.8 2.8 0 0 1-1.052-1.176q-.367-.759-.367-1.765t.367-1.772a2.9 2.9 0 0 1 1.03-1.202q.666-.435 1.552-.435.51 0 1.01.17.499.172.907.555.409.38.653 1.005.243.627.242 1.543v.426h-5.045v-.87h4.023q0-.553-.222-.988a1.67 1.67 0 0 0-.622-.686 1.74 1.74 0 0 0-.946-.251q-.6 0-1.04.298-.435.294-.669.767a2.25 2.25 0 0 0-.234 1.014v.58q0 .741.255 1.257.261.51.72.78a2.1 2.1 0 0 0 1.07.264q.396 0 .716-.11.324-.116.558-.342.235-.23.363-.57l.971.272q-.153.495-.515.87-.363.37-.895.579a3.3 3.3 0 0 1-1.198.204m6.712 0a2.56 2.56 0 0 1-1.445-.413q-.626-.417-.98-1.176-.354-.764-.354-1.803 0-1.03.354-1.79.354-.758.984-1.171.632-.414 1.458-.414.64 0 1.01.213.375.21.57.478.201.264.312.434h.085v-3.221h1.006V42.5h-.972v-1.006h-.12q-.11.18-.314.452-.205.269-.584.482-.38.208-1.01.208m.136-.903q.606 0 1.023-.315.417-.32.635-.883.217-.566.217-1.308 0-.733-.213-1.282a1.87 1.87 0 0 0-.63-.861q-.419-.311-1.032-.311-.639 0-1.065.328-.422.324-.635.882-.21.554-.209 1.244 0 .7.213 1.27.217.568.64.904.426.332 1.056.332m12.686 3.222v-3.46h-.085q-.111.179-.315.451-.205.269-.584.482-.38.208-1.01.208a2.57 2.57 0 0 1-1.445-.413q-.626-.417-.98-1.176-.353-.764-.353-1.803 0-1.03.353-1.79.354-.758.985-1.171.63-.414 1.457-.414.64 0 1.01.213.375.21.571.478.2.264.311.434h.119v-1.04h.972v9zm-1.858-3.222q.606 0 1.023-.315a2 2 0 0 0 .635-.883q.217-.566.217-1.308 0-.733-.213-1.282a1.87 1.87 0 0 0-.63-.861q-.419-.311-1.032-.311-.639 0-1.065.328-.422.324-.635.882a3.5 3.5 0 0 0-.209 1.244q0 .7.213 1.27.217.568.64.904.426.332 1.056.332m8.83-1.91v-3.868h1.006V42.5h-1.006v-1.108h-.068a2.15 2.15 0 0 1-.716.848q-.486.345-1.227.345-.614 0-1.091-.268a1.87 1.87 0 0 1-.75-.818q-.273-.55-.273-1.385v-4.16h1.006v4.091q0 .717.4 1.142.405.427 1.031.427.375 0 .763-.192.392-.192.656-.588.269-.396.269-1.01m2.848 2.677v-6.545h1.005V42.5zm.511-7.636a.72.72 0 0 1-.507-.2.65.65 0 0 1-.209-.482q0-.282.209-.482a.72.72 0 0 1 .507-.2.7.7 0 0 1 .503.2.64.64 0 0 1 .213.482.64.64 0 0 1-.213.481.7.7 0 0 1-.503.2m4.995 7.772q-.92 0-1.585-.434a2.84 2.84 0 0 1-1.023-1.198q-.358-.763-.358-1.743 0-.996.367-1.76.37-.766 1.031-1.197.664-.435 1.551-.435.69 0 1.245.256.553.256.907.716t.439 1.074h-1.006a1.56 1.56 0 0 0-.511-.793q-.392-.35-1.057-.35-.588 0-1.031.308a2 2 0 0 0-.686.856q-.243.55-.243 1.291 0 .759.239 1.321.243.562.682.874.443.31 1.039.311.393 0 .712-.136a1.5 1.5 0 0 0 .541-.392q.222-.255.315-.614h1.006a2.33 2.33 0 0 1-1.304 1.777q-.545.268-1.27.268m4.982-2.522-.017-1.245h.204l2.864-2.914h1.244l-3.051 3.085h-.085zm-.938 2.386v-8.727h1.006V42.5zm4.159 0-2.556-3.239.715-.699 3.12 3.938zm7.227 0-1.995-6.545h1.057l1.415 5.01h.068l1.398-5.01h1.074l1.38 4.994h.069l1.414-4.994h1.057L142.13 42.5h-.989l-1.432-5.028h-.102l-1.432 5.028zm10.788.136q-.945 0-1.632-.417a2.8 2.8 0 0 1-1.052-1.176q-.367-.759-.367-1.765t.367-1.772a2.9 2.9 0 0 1 1.031-1.202q.665-.435 1.551-.435a3.1 3.1 0 0 1 1.01.17q.498.172.908.555.409.38.652 1.005.243.627.243 1.543v.426h-5.046v-.87h4.023q0-.553-.222-.988a1.67 1.67 0 0 0-.622-.686 1.74 1.74 0 0 0-.946-.251q-.601 0-1.04.298a1.97 1.97 0 0 0-.669.767 2.26 2.26 0 0 0-.234 1.014v.58q0 .741.256 1.257.26.51.72.78a2.1 2.1 0 0 0 1.069.264q.397 0 .716-.11.324-.116.558-.342a1.55 1.55 0 0 0 .363-.57l.971.272q-.153.495-.515.87a2.5 2.5 0 0 1-.895.579 3.3 3.3 0 0 1-1.198.204m4.24-.136v-6.545h1.006V42.5zm.512-7.636a.72.72 0 0 1-.507-.2.64.64 0 0 1-.209-.482.64.64 0 0 1 .209-.482.72.72 0 0 1 .507-.2q.293 0 .503.2a.64.64 0 0 1 .213.482.64.64 0 0 1-.213.481.7.7 0 0 1-.503.2m4.978 10.227q-.728 0-1.253-.188a2.7 2.7 0 0 1-.873-.485 2.7 2.7 0 0 1-.55-.64l.801-.562q.136.18.345.409.209.234.571.405.367.174.959.175.793 0 1.308-.384.516-.383.516-1.202v-1.33h-.085a5 5 0 0 1-.316.444 1.8 1.8 0 0 1-.579.464q-.375.2-1.014.2a2.73 2.73 0 0 1-1.424-.374 2.64 2.64 0 0 1-.993-1.091q-.362-.716-.362-1.739 0-1.005.354-1.751.354-.75.984-1.16.632-.413 1.458-.413.639 0 1.014.213.38.21.579.478.205.264.316.434h.102v-1.04h.972v6.733q0 .844-.384 1.373a2.2 2.2 0 0 1-1.023.78q-.639.25-1.423.25m-.034-3.597q.605 0 1.023-.277.417-.276.635-.797.217-.518.217-1.244 0-.707-.213-1.248a1.87 1.87 0 0 0-.631-.848q-.417-.307-1.031-.307-.639 0-1.065.324a1.97 1.97 0 0 0-.635.869q-.21.546-.209 1.21 0 .682.213 1.206.218.52.639.818.427.294 1.057.294m5.71-2.931V42.5h-1.005v-8.727h1.005v3.204h.085q.23-.507.691-.805.463-.303 1.236-.303.669 0 1.171.269.504.264.78.814.282.544.282 1.389V42.5h-1.006v-4.09q0-.78-.405-1.207-.4-.43-1.112-.43-.495 0-.887.208-.387.21-.613.61-.222.4-.222.971m8.931-2.608v.852h-3.392v-.852zm-2.403-1.569h1.005v6.239q0 .426.124.64.127.207.324.28.2.069.422.069.165 0 .272-.017l.171-.035.204.904a2 2 0 0 1-.285.077 2 2 0 0 1-.465.042q-.426 0-.835-.183a1.66 1.66 0 0 1-.673-.558q-.264-.376-.264-.946zm8.296-.613V42.5H177.2v-8.727zm4.501 8.863q-.886 0-1.555-.422a2.87 2.87 0 0 1-1.04-1.18q-.37-.758-.37-1.773 0-1.022.37-1.785.375-.764 1.04-1.185.67-.422 1.555-.422.886 0 1.552.422.669.421 1.039 1.185.375.763.375 1.785 0 1.014-.375 1.773-.37.76-1.039 1.18-.666.422-1.552.422m0-.903q.674 0 1.108-.345t.644-.908a3.5 3.5 0 0 0 .209-1.219q0-.656-.209-1.223a2.06 2.06 0 0 0-.644-.916q-.434-.35-1.108-.35-.673 0-1.107.35-.435.35-.644.916a3.5 3.5 0 0 0-.209 1.223q0 .657.209 1.22t.644.907q.434.345 1.107.345m9.138-4.312-.903.255a1.7 1.7 0 0 0-.252-.439 1.2 1.2 0 0 0-.443-.358q-.282-.14-.72-.14-.601 0-1.002.277-.396.272-.396.694 0 .375.273.593.273.216.852.362l.972.238q.877.214 1.308.652.43.435.43 1.121 0 .562-.324 1.006a2.15 2.15 0 0 1-.895.699q-.575.255-1.338.255-1.001 0-1.657-.434-.657-.435-.831-1.27l.954-.239q.137.529.516.793.383.264 1.001.264.703 0 1.117-.298.417-.303.417-.725a.76.76 0 0 0-.238-.57q-.239-.235-.733-.35l-1.091-.256q-.899-.213-1.321-.66-.417-.452-.418-1.13 0-.554.311-.98.316-.426.857-.669a3 3 0 0 1 1.236-.243q.971 0 1.525.426.559.427.793 1.125m6.269 0-.903.255a1.7 1.7 0 0 0-.251-.439 1.2 1.2 0 0 0-.444-.358q-.28-.14-.72-.14-.6 0-1.001.277-.396.272-.396.694 0 .375.272.593.273.216.853.362l.971.238q.877.214 1.308.652.43.435.431 1.121 0 .562-.324 1.006a2.15 2.15 0 0 1-.895.699q-.575.255-1.338.255-1.002 0-1.658-.434-.656-.435-.831-1.27l.955-.239q.137.529.515.793.384.264 1.002.264.704 0 1.116-.298.418-.303.418-.725a.76.76 0 0 0-.239-.57q-.238-.235-.733-.35l-1.09-.256q-.9-.213-1.322-.66-.417-.452-.417-1.13 0-.554.311-.98a2.1 2.1 0 0 1 .856-.669 3 3 0 0 1 1.236-.243q.972 0 1.526.426.558.427.792 1.125M253.792 21.346q0 1.84-.665 3.182-.665 1.34-1.823 2.068-1.16.727-2.648.727t-2.648-.727-1.824-2.068-.665-3.182.665-3.182 1.824-2.068 2.648-.728q1.488 0 2.648.728 1.158.727 1.823 2.068.665 1.34.665 3.182m-1.363 0q0-1.512-.506-2.551-.5-1.04-1.358-1.574a3.5 3.5 0 0 0-1.909-.534 3.55 3.55 0 0 0-1.915.534q-.852.534-1.358 1.574-.5 1.04-.5 2.55 0 1.512.5 2.552.506 1.04 1.358 1.574a3.55 3.55 0 0 0 1.915.534q1.056 0 1.909-.534.858-.534 1.358-1.574.506-1.04.506-2.551m3.301 5.818V26.14l4.954-6.363v-.091h-4.795v-1.25h6.523v1.068l-4.819 6.318v.09h4.978v1.25zm12.315.182q-1.261 0-2.176-.557a3.73 3.73 0 0 1-1.403-1.568q-.489-1.012-.489-2.352 0-1.342.489-2.364.493-1.029 1.375-1.602.885-.58 2.068-.58.681 0 1.346.227.665.228 1.211.739.545.506.869 1.34.324.836.324 2.058v.568h-6.728v-1.16h5.364a2.86 2.86 0 0 0-.295-1.317 2.23 2.23 0 0 0-.83-.915q-.534-.336-1.261-.335-.802 0-1.387.397a2.6 2.6 0 0 0-.892 1.023q-.312.63-.312 1.352v.773q0 .99.341 1.676.346.682.96 1.04.613.352 1.426.352.528 0 .955-.147.431-.154.744-.455.312-.307.483-.761l1.295.363q-.204.66-.687 1.16-.483.493-1.193.772a4.4 4.4 0 0 1-1.597.273m5.653-.182v-8.727h1.296V19.8h.114a2.2 2.2 0 0 1 .88-1.085q.608-.392 1.46-.392.864 0 1.438.392.579.387.903 1.085h.091q.336-.675 1.006-1.074.67-.402 1.608-.403 1.17 0 1.915.733.744.727.744 2.267v5.84h-1.341v-5.84q0-.966-.528-1.38a1.96 1.96 0 0 0-1.245-.415q-.92 0-1.426.556-.505.552-.505 1.398v5.682h-1.364v-5.977q0-.745-.483-1.2-.483-.46-1.244-.46a1.84 1.84 0 0 0-.978.279 2.1 2.1 0 0 0-.727.773 2.3 2.3 0 0 0-.273 1.13v5.455zm13.907 3.273v-12h1.295v1.386h.159q.148-.227.409-.58.267-.357.762-.636.5-.284 1.352-.284 1.103 0 1.943.551t1.313 1.563q.471 1.011.471 2.386 0 1.386-.471 2.403-.472 1.012-1.307 1.569-.835.55-1.926.55-.841 0-1.347-.278-.505-.284-.778-.642a9 9 0 0 1-.421-.602h-.113v4.614zm1.318-7.637q0 .989.29 1.745.29.75.846 1.176.557.42 1.364.42.841 0 1.403-.443.568-.449.853-1.204a4.7 4.7 0 0 0 .289-1.694q0-.92-.284-1.659-.278-.744-.846-1.176-.563-.437-1.415-.437-.819 0-1.375.414-.557.41-.841 1.148-.284.733-.284 1.71m8.432 4.364v-8.727h1.341v8.727zm.682-10.182a.96.96 0 0 1-.677-.267.86.86 0 0 1-.278-.642.86.86 0 0 1 .278-.642.96.96 0 0 1 .677-.267q.391 0 .67.267a.85.85 0 0 1 .284.642q0 .375-.284.642a.93.93 0 0 1-.67.267m6.66 10.364q-1.227 0-2.114-.58a3.77 3.77 0 0 1-1.363-1.596q-.477-1.017-.478-2.324 0-1.33.489-2.347.495-1.023 1.375-1.596.886-.58 2.068-.58.921 0 1.659.34a3.2 3.2 0 0 1 1.211.956q.471.613.585 1.431h-1.341q-.154-.596-.682-1.056-.522-.466-1.409-.466-.784 0-1.375.409-.585.404-.915 1.142-.324.732-.324 1.721 0 1.012.319 1.762.323.75.909 1.164.591.415 1.386.415.523 0 .949-.182a1.95 1.95 0 0 0 1.142-1.34h1.341a3.1 3.1 0 0 1-1.739 2.369q-.727.358-1.693.358m12.46.023a3.54 3.54 0 0 1-1.505-.313 2.6 2.6 0 0 1-1.074-.915q-.398-.602-.398-1.454 0-.75.295-1.216a2.1 2.1 0 0 1 .79-.739q.494-.267 1.091-.398.603-.135 1.21-.215.796-.103 1.29-.154.5-.057.727-.187.233-.131.233-.455v-.045q0-.842-.46-1.307-.454-.466-1.381-.466-.96 0-1.505.42-.546.42-.767.898l-1.273-.454q.34-.796.909-1.24a3.4 3.4 0 0 1 1.25-.624 5.2 5.2 0 0 1 1.341-.182q.42 0 .966.102.55.098 1.062.404.517.306.858.926.342.62.341 1.659v5.75h-1.341v-1.182h-.068q-.136.284-.454.608t-.847.551-1.29.228m.205-1.205q.795 0 1.341-.313.551-.312.829-.806.284-.495.284-1.04v-1.227q-.084.102-.375.187-.284.08-.659.142a30 30 0 0 1-1.284.17q-.522.069-.977.222a1.7 1.7 0 0 0-.727.449q-.273.296-.273.807 0 .699.517 1.057.523.352 1.324.352m7.584-4.25v5.25h-1.341v-8.727h1.295V19.8h.114q.306-.664.932-1.068.624-.41 1.613-.409.887 0 1.551.364.666.357 1.034 1.09.37.728.37 1.842v5.545h-1.341v-5.455q0-1.028-.534-1.602-.534-.58-1.466-.58a2.34 2.34 0 0 0-1.148.279 2 2 0 0 0-.79.813q-.29.533-.289 1.295m11.314 5.432q-1.092 0-1.927-.551-.834-.557-1.306-1.569-.472-1.017-.472-2.403 0-1.375.472-2.386.47-1.012 1.312-1.563.841-.55 1.943-.551.852 0 1.347.284.5.279.761.637.268.352.415.579h.114v-4.295h1.341v11.636h-1.296v-1.341h-.159q-.148.24-.42.602-.273.358-.779.642-.506.279-1.346.279m.181-1.205q.807 0 1.364-.42.556-.426.847-1.176.29-.756.289-1.745 0-.977-.284-1.71-.283-.738-.841-1.148-.556-.414-1.375-.414-.852 0-1.42.437-.562.432-.847 1.176a4.7 4.7 0 0 0-.278 1.66q0 .93.284 1.693.29.755.852 1.204.569.444 1.409.443m13.256 1.023-3.182-11.636h1.432l2.432 9.477h.113l2.478-9.477h1.591l2.477 9.477h.114l2.431-9.477h1.432l-3.182 11.636h-1.454l-2.568-9.273h-.091l-2.568 9.273zm15.739.182q-1.262 0-2.176-.557a3.74 3.74 0 0 1-1.404-1.568q-.489-1.012-.489-2.352 0-1.342.489-2.364.495-1.029 1.375-1.602.886-.58 2.068-.58.683 0 1.347.227a3.3 3.3 0 0 1 1.21.739q.546.506.869 1.34.324.836.324 2.058v.568h-6.727v-1.16h5.364a2.86 2.86 0 0 0-.296-1.317 2.2 2.2 0 0 0-.829-.915q-.534-.336-1.262-.335-.801 0-1.386.397a2.6 2.6 0 0 0-.892 1.023 3 3 0 0 0-.313 1.352v.773q0 .99.341 1.676.346.682.961 1.04.613.352 1.426.352.528 0 .954-.147a2.05 2.05 0 0 0 .745-.455q.312-.307.482-.761l1.296.363q-.205.66-.688 1.16-.483.493-1.193.772a4.4 4.4 0 0 1-1.596.273m9.176 3.273q-.972 0-1.671-.25a3.5 3.5 0 0 1-1.164-.648 3.5 3.5 0 0 1-.733-.852l1.068-.75q.181.238.46.545.279.312.761.54.489.233 1.279.233 1.056 0 1.744-.512.688-.51.688-1.602V25.55h-.114q-.148.24-.42.591-.267.347-.773.62-.5.267-1.352.267-1.058 0-1.898-.5-.835-.501-1.324-1.455-.483-.955-.483-2.318 0-1.34.472-2.335.47-1 1.312-1.546.841-.55 1.943-.551.852 0 1.353.284.505.279.772.637.273.352.421.579h.136v-1.386h1.296v8.977q0 1.125-.512 1.83a2.9 2.9 0 0 1-1.363 1.04 5.2 5.2 0 0 1-1.898.335m-.046-4.796q.807 0 1.364-.37.556-.368.847-1.062.29-.693.289-1.659 0-.944-.284-1.665-.283-.721-.841-1.13-.556-.41-1.375-.41-.852 0-1.42.432a2.64 2.64 0 0 0-.847 1.16 4.5 4.5 0 0 0-.278 1.613q0 .909.284 1.608.29.693.852 1.091.569.392 1.409.392m9.819 1.523q-1.183 0-2.074-.563-.886-.563-1.387-1.574-.494-1.011-.494-2.363 0-1.365.494-2.38.5-1.019 1.387-1.58.892-.563 2.074-.563t2.068.563q.892.562 1.386 1.58.5 1.015.5 2.38 0 1.353-.5 2.363a3.77 3.77 0 0 1-1.386 1.574q-.887.563-2.068.563m0-1.205q.897 0 1.477-.46.579-.46.858-1.21.278-.75.278-1.625 0-.876-.278-1.63a2.75 2.75 0 0 0-.858-1.223q-.58-.465-1.477-.465t-1.478.466q-.579.465-.858 1.221a4.7 4.7 0 0 0-.278 1.63q0 .876.278 1.626.279.75.858 1.21.58.46 1.478.46m12.825-7.704-3.227 8.727h-1.364l-3.227-8.727h1.454l2.409 6.954h.091l2.409-6.954zm2.633 12q-.34 0-.608-.057a1.6 1.6 0 0 1-.369-.102l.341-1.182q.489.125.864.09.375-.033.664-.335.295-.296.54-.96l.25-.682-3.227-8.772h1.454l2.41 6.954h.09l2.41-6.954h1.454l-3.704 10q-.25.675-.62 1.119-.369.449-.858.665a2.64 2.64 0 0 1-1.091.216"/><path stroke="#ED4C54" stroke-linecap="round" stroke-width="2" d="M239.71 33.836C263.663 22.379 369.805 11.5 411.609 23.5"/><defs><radialGradient id="b" cx="0" cy="0" r="1" gradientTransform="matrix(-198.305 0 0 -57.5587 100.361 45.402)" gradientUnits="userSpaceOnUse"><stop offset=".5" stop-color="#FAAB18"/><stop offset=".512" stop-color="#F1A51F"/><stop offset=".532" stop-color="#D99333"/><stop offset=".557" stop-color="#B17753"/><stop offset=".587" stop-color="#7A5080"/><stop offset=".6" stop-color="#5F3C96"/><stop offset=".606" stop-color="#5B3B95"/><stop offset=".649" stop-color="#42368B"/><stop offset=".689" stop-color="#323286"/><stop offset=".72" stop-color="#2D3184"/></radialGradient></defs></svg>