<svg width="413" height="46" viewBox="0 0 413 46" fill="none" xmlns="http://www.w3.org/2000/svg">
<mask id="mask0_197_169" style="mask-type:luminance" maskUnits="userSpaceOnUse" x="0" y="0" width="200" height="43">
<path d="M40.14 16.91V24H31.27V16.91L22.69 0.889999H32.33L35.94 10.56H36.01L39.65 0.889999H48.82L40.14 16.91ZM75.44 24H95.7V18.44H84.11V15.29H94.97V9.73H84.11V6.45H95.47V0.889999H75.44V24ZM98.42 24H118.19V17.18H107.3V0.889999H98.42V24ZM139.22 1.29C136.8 0.79 134.05 0.5 131.57 0.5C126.31 0.5 119.68 1.63 119.68 7.98C119.68 16.95 131.83 14.14 131.83 17.25C131.83 18.41 129.94 18.84 127.86 18.84C125.21 18.84 122.3 18.31 119.91 17.32V23.31C123.22 24.07 126.04 24.4 129.45 24.4C134.58 24.4 140.71 22.84 140.71 16.65C140.71 7.74 128.56 10.59 128.56 7.58C128.56 6.09 130.98 6.06 132.37 6.06C134.89 6.06 137.24 6.52 139.22 7.22V1.29ZM152.03 0.889999H143.16V14.93C143.16 21.75 148.23 24.4 154.68 24.4C161.67 24.4 166.27 21.95 166.27 14.47V0.889999H157.59V14.63C157.59 16.88 157.09 18.44 154.78 18.44C152.66 18.44 152.03 16.78 152.03 14.6V0.889999ZM188.26 1.29C185.84 0.79 183.09 0.5 180.61 0.5C175.35 0.5 168.72 1.63 168.72 7.98C168.72 16.95 180.87 14.14 180.87 17.25C180.87 18.41 178.98 18.84 176.9 18.84C174.25 18.84 171.34 18.31 168.95 17.32V23.31C172.26 24.07 175.08 24.4 178.49 24.4C183.62 24.4 189.75 22.84 189.75 16.65C189.75 7.74 177.6 10.59 177.6 7.58C177.6 6.09 180.02 6.06 181.41 6.06C183.93 6.06 186.28 6.52 188.26 7.22V1.29ZM10.86 16.15H8.88V24H0V0.889999H14.34C19.87 0.889999 23.28 2.61 23.28 7.05C23.28 10.59 21.06 12.38 17.75 13.18V13.25C19.67 13.58 20.93 14.07 21.66 15.73C22.74 18.21 22.4 33.48 22.57 42.45L13.97 34.88C13.96 30.2 14.06 18.65 13.38 17.35C12.85 16.29 11.96 16.15 10.86 16.15ZM10.8 10.99C12.62 10.99 14.41 10.79 14.41 8.44C14.41 6.35 12.72 6.06 10.93 6.06H8.48V10.99H10.8ZM72.89 17.58C72.89 23.41 68.19 24 63.39 24H49.97V0.889999H64.51C68.52 0.889999 72.46 2.18 72.46 6.59C72.46 9.77 70.77 11.46 67.69 12.25V12.32C70.9 12.74 72.89 15.26 72.89 17.58ZM58.32 9.73H60.54C62.1 9.73 63.79 9.27 63.79 7.51C63.79 5.79 62.33 5.26 60.74 5.26H58.32V9.73ZM64.01 16.85C64.01 14.86 62.35 14.5 60.7 14.5H58.32V19.24H60.64C62.26 19.23 64.01 18.64 64.01 16.85ZM192.67 4.24C192.67 6.18 194.25 7.76 196.19 7.76C198.13 7.76 199.71 6.18 199.71 4.24C199.71 2.3 198.13 0.719999 196.19 0.719999C194.25 0.719999 192.67 2.3 192.67 4.24ZM193.34 4.24C193.34 2.55 194.56 1.25 196.2 1.25C197.82 1.25 199.04 2.56 199.04 4.24C199.04 5.93 197.82 7.23 196.2 7.23C194.56 7.23 193.34 5.93 193.34 4.24ZM194.84 6.3H195.51V4.48H196.08L197.23 6.3H197.94L196.77 4.48C197.41 4.48 197.83 4 197.83 3.34C197.83 2.56 197.36 2.18 196.42 2.18H194.84V6.3ZM195.51 2.7H196.31C196.74 2.7 197.16 2.84 197.16 3.3C197.16 3.84 196.83 3.94 196.31 3.94H195.51V2.7Z" fill="white"/>
</mask>
<g mask="url(#mask0_197_169)">
<path d="M100.38 101.54C193.561 101.54 269.1 76.4053 269.1 45.4C269.1 14.3947 193.561 -10.74 100.38 -10.74C7.19843 -10.74 -68.3401 14.3947 -68.3401 45.4C-68.3401 76.4053 7.19843 101.54 100.38 101.54Z" fill="url(#paint0_radial_197_169)"/>
</g>
<path d="M28.4995 34.7102V33.7727H35.0449V34.7102H32.3006V42.5H31.2438V34.7102H28.4995ZM36.5396 42.5V35.9545H37.5453V42.5H36.5396ZM37.051 34.8636C36.8549 34.8636 36.6859 34.7969 36.5439 34.6634C36.4047 34.5298 36.335 34.3693 36.335 34.1818C36.335 33.9943 36.4047 33.8338 36.5439 33.7003C36.6859 33.5668 36.8549 33.5 37.051 33.5C37.247 33.5 37.4146 33.5668 37.5538 33.7003C37.6958 33.8338 37.7669 33.9943 37.7669 34.1818C37.7669 34.3693 37.6958 34.5298 37.5538 34.6634C37.4146 34.7969 37.247 34.8636 37.051 34.8636ZM39.3873 42.5V35.9545H40.3588V36.9773H40.4441C40.5804 36.6278 40.8006 36.3565 41.1046 36.1634C41.4086 35.9673 41.7736 35.8693 42.1998 35.8693C42.6316 35.8693 42.9909 35.9673 43.2779 36.1634C43.5676 36.3565 43.7935 36.6278 43.9554 36.9773H44.0236C44.1912 36.6392 44.4426 36.3707 44.7779 36.1719C45.1131 35.9702 45.5151 35.8693 45.9838 35.8693C46.5691 35.8693 47.0478 36.0526 47.4199 36.419C47.7921 36.7827 47.9782 37.3494 47.9782 38.1193V42.5H46.9725V38.1193C46.9725 37.6364 46.8404 37.2912 46.5762 37.0838C46.312 36.8764 46.0009 36.7727 45.6429 36.7727C45.1827 36.7727 44.8262 36.9119 44.5733 37.1903C44.3205 37.4659 44.1941 37.8153 44.1941 38.2386V42.5H43.1713V38.017C43.1713 37.6449 43.0506 37.3452 42.8091 37.1179C42.5676 36.8878 42.2566 36.7727 41.8759 36.7727C41.6145 36.7727 41.3702 36.8423 41.1429 36.9815C40.9185 37.1207 40.7367 37.3139 40.5975 37.5611C40.4611 37.8054 40.3929 38.0881 40.3929 38.4091V42.5H39.3873ZM52.5613 42.6364C51.9306 42.6364 51.3865 42.4972 50.9292 42.2188C50.4746 41.9375 50.1238 41.5455 49.8766 41.0426C49.6323 40.5369 49.5101 39.9489 49.5101 39.2784C49.5101 38.608 49.6323 38.017 49.8766 37.5057C50.1238 36.9915 50.4675 36.5909 50.9078 36.304C51.351 36.0142 51.8681 35.8693 52.459 35.8693C52.7999 35.8693 53.1365 35.9261 53.4689 36.0398C53.8013 36.1534 54.1039 36.3381 54.3766 36.5938C54.6493 36.8466 54.8667 37.1818 55.0286 37.5994C55.1905 38.017 55.2715 38.5312 55.2715 39.142V39.5682H50.226V38.6989H54.2488C54.2488 38.3295 54.1749 38 54.0272 37.7102C53.8823 37.4205 53.6749 37.1918 53.405 37.0241C53.138 36.8565 52.8226 36.7727 52.459 36.7727C52.0584 36.7727 51.7118 36.8722 51.4192 37.071C51.1294 37.267 50.9064 37.5227 50.7502 37.8381C50.5939 38.1534 50.5158 38.4915 50.5158 38.8523V39.4318C50.5158 39.9261 50.601 40.3452 50.7715 40.6889C50.9448 41.0298 51.1848 41.2898 51.4917 41.4688C51.7985 41.6449 52.155 41.733 52.5613 41.733C52.8255 41.733 53.0641 41.696 53.2772 41.6222C53.4931 41.5455 53.6792 41.4318 53.8354 41.2812C53.9917 41.1278 54.1124 40.9375 54.1976 40.7102L55.1692 40.983C55.0669 41.3125 54.8951 41.6023 54.6536 41.8523C54.4121 42.0994 54.1138 42.2926 53.7587 42.4318C53.4036 42.5682 53.0044 42.6364 52.5613 42.6364ZM60.5513 38.2898V39.2273H56.7331V38.2898H60.5513ZM65.1674 35.9545V36.8068H61.7754V35.9545H65.1674ZM62.764 34.3864H63.7697V40.625C63.7697 40.9091 63.8109 41.1222 63.8933 41.2642C63.9785 41.4034 64.0865 41.4972 64.2172 41.5455C64.3507 41.5909 64.4913 41.6136 64.639 41.6136C64.7498 41.6136 64.8407 41.608 64.9118 41.5966C64.9828 41.5824 65.0396 41.571 65.0822 41.5625L65.2868 42.4659C65.2186 42.4915 65.1234 42.517 65.0012 42.5426C64.8791 42.571 64.7243 42.5852 64.5368 42.5852C64.2527 42.5852 63.9743 42.5241 63.7015 42.402C63.4316 42.2798 63.2072 42.0938 63.0282 41.8438C62.8521 41.5938 62.764 41.2784 62.764 40.8977V34.3864ZM69.3542 42.6364C68.7235 42.6364 68.1795 42.4972 67.7221 42.2188C67.2676 41.9375 66.9167 41.5455 66.6696 41.0426C66.4252 40.5369 66.3031 39.9489 66.3031 39.2784C66.3031 38.608 66.4252 38.017 66.6696 37.5057C66.9167 36.9915 67.2605 36.5909 67.7008 36.304C68.144 36.0142 68.661 35.8693 69.252 35.8693C69.5929 35.8693 69.9295 35.9261 70.2619 36.0398C70.5943 36.1534 70.8968 36.3381 71.1696 36.5938C71.4423 36.8466 71.6596 37.1818 71.8216 37.5994C71.9835 38.017 72.0645 38.5312 72.0645 39.142V39.5682H67.019V38.6989H71.0417C71.0417 38.3295 70.9679 38 70.8201 37.7102C70.6752 37.4205 70.4679 37.1918 70.198 37.0241C69.9309 36.8565 69.6156 36.7727 69.252 36.7727C68.8514 36.7727 68.5048 36.8722 68.2122 37.071C67.9224 37.267 67.6994 37.5227 67.5431 37.8381C67.3869 38.1534 67.3088 38.4915 67.3088 38.8523V39.4318C67.3088 39.9261 67.394 40.3452 67.5645 40.6889C67.7377 41.0298 67.9778 41.2898 68.2846 41.4688C68.5914 41.6449 68.948 41.733 69.3542 41.733C69.6184 41.733 69.8571 41.696 70.0701 41.6222C70.286 41.5455 70.4721 41.4318 70.6284 41.2812C70.7846 41.1278 70.9054 40.9375 70.9906 40.7102L71.9622 40.983C71.8599 41.3125 71.688 41.6023 71.4466 41.8523C71.2051 42.0994 70.9068 42.2926 70.5517 42.4318C70.1966 42.5682 69.7974 42.6364 69.3542 42.6364ZM78.2306 37.4205L77.3272 37.6761C77.2704 37.5256 77.1866 37.3793 77.0758 37.2372C76.9679 37.0923 76.8201 36.973 76.6326 36.8793C76.4451 36.7855 76.2051 36.7386 75.9125 36.7386C75.5119 36.7386 75.1781 36.831 74.911 37.0156C74.6468 37.1974 74.5147 37.429 74.5147 37.7102C74.5147 37.9602 74.6056 38.1577 74.7875 38.3026C74.9693 38.4474 75.2534 38.5682 75.6397 38.6648L76.6113 38.9034C77.1966 39.0455 77.6326 39.2628 77.9196 39.5554C78.2065 39.8452 78.35 40.2187 78.35 40.6761C78.35 41.0511 78.242 41.3864 78.0261 41.6818C77.813 41.9773 77.5147 42.2102 77.1312 42.3807C76.7477 42.5511 76.3017 42.6364 75.7931 42.6364C75.1255 42.6364 74.573 42.4915 74.1355 42.2017C73.698 41.9119 73.421 41.4886 73.3045 40.9318L74.2591 40.6932C74.35 41.0455 74.5218 41.3097 74.7747 41.4858C75.0304 41.6619 75.3642 41.75 75.7761 41.75C76.2449 41.75 76.617 41.6506 76.8926 41.4517C77.171 41.25 77.3102 41.0085 77.3102 40.7273C77.3102 40.5 77.2306 40.3097 77.0716 40.1562C76.9125 40 76.6681 39.8835 76.3386 39.8068L75.2477 39.5511C74.6483 39.4091 74.2079 39.1889 73.9267 38.8906C73.6483 38.5895 73.5091 38.2131 73.5091 37.7614C73.5091 37.392 73.6127 37.0653 73.8201 36.7812C74.0304 36.4972 74.3159 36.2741 74.6767 36.1122C75.0403 35.9503 75.4522 35.8693 75.9125 35.8693C76.5602 35.8693 77.0687 36.0114 77.438 36.2955C77.8102 36.5795 78.0744 36.9545 78.2306 37.4205ZM82.7104 35.9545V36.8068H79.3184V35.9545H82.7104ZM80.307 34.3864H81.3127V40.625C81.3127 40.9091 81.3539 41.1222 81.4363 41.2642C81.5215 41.4034 81.6294 41.4972 81.7601 41.5455C81.8936 41.5909 82.0343 41.6136 82.182 41.6136C82.2928 41.6136 82.3837 41.608 82.4547 41.5966C82.5257 41.5824 82.5826 41.571 82.6252 41.5625L82.8297 42.4659C82.7615 42.4915 82.6664 42.517 82.5442 42.5426C82.4221 42.571 82.2672 42.5852 82.0797 42.5852C81.7956 42.5852 81.5172 42.5241 81.2445 42.402C80.9746 42.2798 80.7502 42.0938 80.5712 41.8438C80.3951 41.5938 80.307 41.2784 80.307 40.8977V34.3864ZM86.8972 42.6364C86.2665 42.6364 85.7225 42.4972 85.2651 42.2188C84.8105 41.9375 84.4597 41.5455 84.2125 41.0426C83.9682 40.5369 83.8461 39.9489 83.8461 39.2784C83.8461 38.608 83.9682 38.017 84.2125 37.5057C84.4597 36.9915 84.8034 36.5909 85.2438 36.304C85.687 36.0142 86.204 35.8693 86.7949 35.8693C87.1358 35.8693 87.4725 35.9261 87.8049 36.0398C88.1373 36.1534 88.4398 36.3381 88.7125 36.5938C88.9853 36.8466 89.2026 37.1818 89.3645 37.5994C89.5265 38.017 89.6074 38.5312 89.6074 39.142V39.5682H84.562V38.6989H88.5847C88.5847 38.3295 88.5108 38 88.3631 37.7102C88.2182 37.4205 88.0108 37.1918 87.7409 37.0241C87.4739 36.8565 87.1586 36.7727 86.7949 36.7727C86.3944 36.7727 86.0478 36.8722 85.7551 37.071C85.4654 37.267 85.2424 37.5227 85.0861 37.8381C84.9299 38.1534 84.8517 38.4915 84.8517 38.8523V39.4318C84.8517 39.9261 84.937 40.3452 85.1074 40.6889C85.2807 41.0298 85.5208 41.2898 85.8276 41.4688C86.1344 41.6449 86.4909 41.733 86.8972 41.733C87.1614 41.733 87.4 41.696 87.6131 41.6222C87.829 41.5455 88.0151 41.4318 88.1713 41.2812C88.3276 41.1278 88.4483 40.9375 88.5336 40.7102L89.5051 40.983C89.4029 41.3125 89.231 41.6023 88.9895 41.8523C88.748 42.0994 88.4498 42.2926 88.0946 42.4318C87.7395 42.5682 87.3404 42.6364 86.8972 42.6364ZM93.6088 42.6364C93.0634 42.6364 92.5819 42.4986 92.1642 42.223C91.7466 41.9446 91.4199 41.5526 91.1841 41.0469C90.9483 40.5384 90.8304 39.9375 90.8304 39.2443C90.8304 38.5568 90.9483 37.9602 91.1841 37.4545C91.4199 36.9489 91.748 36.5582 92.1685 36.2827C92.589 36.0071 93.0748 35.8693 93.6259 35.8693C94.052 35.8693 94.3887 35.9403 94.6358 36.0824C94.8858 36.2216 95.0762 36.3807 95.2069 36.5597C95.3404 36.7358 95.4441 36.8807 95.5179 36.9943H95.6032V33.7727H96.6088V42.5H95.6373V41.4943H95.5179C95.4441 41.6136 95.339 41.7642 95.2026 41.946C95.0662 42.125 94.8716 42.2855 94.6188 42.4276C94.3659 42.5668 94.0293 42.6364 93.6088 42.6364ZM93.7452 41.733C94.1486 41.733 94.4895 41.6278 94.7679 41.4176C95.0463 41.2045 95.258 40.9105 95.4029 40.5355C95.5478 40.1577 95.6202 39.7216 95.6202 39.2273C95.6202 38.7386 95.5492 38.3111 95.4071 37.9446C95.2651 37.5753 95.0549 37.2884 94.7765 37.0838C94.498 36.8764 94.1543 36.7727 93.7452 36.7727C93.3191 36.7727 92.964 36.8821 92.6799 37.1009C92.3986 37.3168 92.187 37.6108 92.0449 37.983C91.9057 38.3523 91.8361 38.767 91.8361 39.2273C91.8361 39.6932 91.9071 40.1165 92.0492 40.4972C92.1941 40.875 92.4071 41.1761 92.6884 41.4006C92.9725 41.6222 93.3248 41.733 93.7452 41.733ZM106.431 44.9545V41.4943H106.346C106.272 41.6136 106.167 41.7642 106.031 41.946C105.894 42.125 105.7 42.2855 105.447 42.4276C105.194 42.5668 104.857 42.6364 104.437 42.6364C103.892 42.6364 103.41 42.4986 102.992 42.223C102.575 41.9446 102.248 41.5526 102.012 41.0469C101.776 40.5384 101.659 39.9375 101.659 39.2443C101.659 38.5568 101.776 37.9602 102.012 37.4545C102.248 36.9489 102.576 36.5582 102.997 36.2827C103.417 36.0071 103.903 35.8693 104.454 35.8693C104.88 35.8693 105.217 35.9403 105.464 36.0824C105.714 36.2216 105.904 36.3807 106.035 36.5597C106.169 36.7358 106.272 36.8807 106.346 36.9943H106.465V35.9545H107.437V44.9545H106.431ZM104.573 41.733C104.977 41.733 105.318 41.6278 105.596 41.4176C105.874 41.2045 106.086 40.9105 106.231 40.5355C106.376 40.1577 106.448 39.7216 106.448 39.2273C106.448 38.7386 106.377 38.3111 106.235 37.9446C106.093 37.5753 105.883 37.2884 105.605 37.0838C105.326 36.8764 104.982 36.7727 104.573 36.7727C104.147 36.7727 103.792 36.8821 103.508 37.1009C103.227 37.3168 103.015 37.6108 102.873 37.983C102.734 38.3523 102.664 38.767 102.664 39.2273C102.664 39.6932 102.735 40.1165 102.877 40.4972C103.022 40.875 103.235 41.1761 103.517 41.4006C103.801 41.6222 104.153 41.733 104.573 41.733ZM113.403 39.8239V35.9545H114.409V42.5H113.403V41.392H113.335C113.181 41.7244 112.943 42.0071 112.619 42.2401C112.295 42.4702 111.886 42.5852 111.392 42.5852C110.982 42.5852 110.619 42.4957 110.301 42.3168C109.982 42.1349 109.732 41.8622 109.551 41.4986C109.369 41.1321 109.278 40.6705 109.278 40.1136V35.9545H110.284V40.0455C110.284 40.5227 110.417 40.9034 110.684 41.1875C110.954 41.4716 111.298 41.6136 111.715 41.6136C111.965 41.6136 112.22 41.5497 112.478 41.4219C112.74 41.294 112.958 41.098 113.134 40.8338C113.313 40.5696 113.403 40.233 113.403 39.8239ZM116.251 42.5V35.9545H117.256V42.5H116.251ZM116.762 34.8636C116.566 34.8636 116.397 34.7969 116.255 34.6634C116.116 34.5298 116.046 34.3693 116.046 34.1818C116.046 33.9943 116.116 33.8338 116.255 33.7003C116.397 33.5668 116.566 33.5 116.762 33.5C116.958 33.5 117.126 33.5668 117.265 33.7003C117.407 33.8338 117.478 33.9943 117.478 34.1818C117.478 34.3693 117.407 34.5298 117.265 34.6634C117.126 34.7969 116.958 34.8636 116.762 34.8636ZM121.757 42.6364C121.144 42.6364 120.615 42.4915 120.172 42.2017C119.729 41.9119 119.388 41.5128 119.149 41.0043C118.911 40.4957 118.791 39.9148 118.791 39.2614C118.791 38.5966 118.914 38.0099 119.158 37.5014C119.405 36.9901 119.749 36.5909 120.189 36.304C120.632 36.0142 121.149 35.8693 121.74 35.8693C122.2 35.8693 122.615 35.9545 122.985 36.125C123.354 36.2955 123.656 36.5341 123.892 36.8409C124.128 37.1477 124.274 37.5057 124.331 37.9148H123.325C123.249 37.6165 123.078 37.3523 122.814 37.1222C122.553 36.8892 122.2 36.7727 121.757 36.7727C121.365 36.7727 121.021 36.875 120.726 37.0795C120.433 37.2812 120.205 37.5668 120.04 37.9361C119.878 38.3026 119.797 38.733 119.797 39.2273C119.797 39.733 119.877 40.1733 120.036 40.5483C120.198 40.9233 120.425 41.2145 120.718 41.4219C121.013 41.6293 121.36 41.733 121.757 41.733C122.019 41.733 122.256 41.6875 122.469 41.5966C122.682 41.5057 122.862 41.375 123.01 41.2045C123.158 41.0341 123.263 40.8295 123.325 40.5909H124.331C124.274 40.9773 124.134 41.3253 123.909 41.6349C123.688 41.9418 123.394 42.1861 123.027 42.3679C122.664 42.5469 122.24 42.6364 121.757 42.6364ZM126.739 40.1136L126.722 38.8693H126.926L129.79 35.9545H131.034L127.983 39.0398H127.898L126.739 40.1136ZM125.801 42.5V33.7727H126.807V42.5H125.801ZM129.96 42.5L127.404 39.2614L128.119 38.5625L131.239 42.5H129.96ZM137.187 42.5L135.192 35.9545H136.249L137.664 40.9659H137.732L139.13 35.9545H140.204L141.584 40.9489H141.653L143.067 35.9545H144.124L142.13 42.5H141.141L139.709 37.4716H139.607L138.175 42.5H137.187ZM147.975 42.6364C147.345 42.6364 146.801 42.4972 146.343 42.2188C145.889 41.9375 145.538 41.5455 145.291 41.0426C145.046 40.5369 144.924 39.9489 144.924 39.2784C144.924 38.608 145.046 38.017 145.291 37.5057C145.538 36.9915 145.882 36.5909 146.322 36.304C146.765 36.0142 147.282 35.8693 147.873 35.8693C148.214 35.8693 148.551 35.9261 148.883 36.0398C149.215 36.1534 149.518 36.3381 149.791 36.5938C150.063 36.8466 150.281 37.1818 150.443 37.5994C150.605 38.017 150.686 38.5312 150.686 39.142V39.5682H145.64V38.6989H149.663C149.663 38.3295 149.589 38 149.441 37.7102C149.296 37.4205 149.089 37.1918 148.819 37.0241C148.552 36.8565 148.237 36.7727 147.873 36.7727C147.472 36.7727 147.126 36.8722 146.833 37.071C146.544 37.267 146.32 37.5227 146.164 37.8381C146.008 38.1534 145.93 38.4915 145.93 38.8523V39.4318C145.93 39.9261 146.015 40.3452 146.186 40.6889C146.359 41.0298 146.599 41.2898 146.906 41.4688C147.213 41.6449 147.569 41.733 147.975 41.733C148.24 41.733 148.478 41.696 148.691 41.6222C148.907 41.5455 149.093 41.4318 149.249 41.2812C149.406 41.1278 149.526 40.9375 149.612 40.7102L150.583 40.983C150.481 41.3125 150.309 41.6023 150.068 41.8523C149.826 42.0994 149.528 42.2926 149.173 42.4318C148.818 42.5682 148.419 42.6364 147.975 42.6364ZM152.215 42.5V35.9545H153.221V42.5H152.215ZM152.727 34.8636C152.531 34.8636 152.362 34.7969 152.22 34.6634C152.08 34.5298 152.011 34.3693 152.011 34.1818C152.011 33.9943 152.08 33.8338 152.22 33.7003C152.362 33.5668 152.531 33.5 152.727 33.5C152.923 33.5 153.09 33.5668 153.23 33.7003C153.372 33.8338 153.443 33.9943 153.443 34.1818C153.443 34.3693 153.372 34.5298 153.23 34.6634C153.09 34.7969 152.923 34.8636 152.727 34.8636ZM157.705 45.0909C157.219 45.0909 156.802 45.0284 156.452 44.9034C156.103 44.7812 155.812 44.6193 155.579 44.4176C155.349 44.2188 155.165 44.0057 155.029 43.7784L155.83 43.2159C155.921 43.3352 156.036 43.4716 156.175 43.625C156.314 43.7812 156.505 43.9162 156.746 44.0298C156.991 44.1463 157.31 44.2045 157.705 44.2045C158.233 44.2045 158.67 44.0767 159.013 43.821C159.357 43.5653 159.529 43.1648 159.529 42.6193V41.2898H159.444C159.37 41.4091 159.265 41.5568 159.128 41.733C158.995 41.9062 158.802 42.0611 158.549 42.1974C158.299 42.331 157.961 42.3977 157.535 42.3977C157.006 42.3977 156.532 42.2727 156.111 42.0227C155.694 41.7727 155.363 41.4091 155.118 40.9318C154.877 40.4545 154.756 39.875 154.756 39.1932C154.756 38.5227 154.874 37.9389 155.11 37.4418C155.346 36.9418 155.674 36.5554 156.094 36.2827C156.515 36.0071 157.001 35.8693 157.552 35.8693C157.978 35.8693 158.316 35.9403 158.566 36.0824C158.819 36.2216 159.012 36.3807 159.145 36.5597C159.282 36.7358 159.387 36.8807 159.461 36.9943H159.563V35.9545H160.535V42.6875C160.535 43.25 160.407 43.7074 160.151 44.0597C159.898 44.4148 159.557 44.6747 159.128 44.8395C158.702 45.0071 158.228 45.0909 157.705 45.0909ZM157.671 41.4943C158.074 41.4943 158.415 41.402 158.694 41.2173C158.972 41.0327 159.184 40.767 159.329 40.4205C159.474 40.0739 159.546 39.6591 159.546 39.1761C159.546 38.7045 159.475 38.2884 159.333 37.9276C159.191 37.5668 158.981 37.2841 158.702 37.0795C158.424 36.875 158.08 36.7727 157.671 36.7727C157.245 36.7727 156.89 36.8807 156.606 37.0966C156.324 37.3125 156.113 37.6023 155.971 37.9659C155.831 38.3295 155.762 38.733 155.762 39.1761C155.762 39.6307 155.833 40.0327 155.975 40.3821C156.12 40.7287 156.333 41.0014 156.614 41.2003C156.898 41.3963 157.251 41.4943 157.671 41.4943ZM163.381 38.5625V42.5H162.376V33.7727H163.381V36.9773H163.466C163.62 36.6392 163.85 36.3707 164.157 36.1719C164.466 35.9702 164.878 35.8693 165.393 35.8693C165.839 35.8693 166.229 35.9588 166.564 36.1378C166.9 36.3139 167.16 36.5852 167.344 36.9517C167.532 37.3153 167.626 37.7784 167.626 38.3409V42.5H166.62V38.4091C166.62 37.8892 166.485 37.4872 166.215 37.2031C165.948 36.9162 165.577 36.7727 165.103 36.7727C164.773 36.7727 164.478 36.8423 164.216 36.9815C163.958 37.1207 163.753 37.3239 163.603 37.5909C163.455 37.858 163.381 38.1818 163.381 38.5625ZM172.312 35.9545V36.8068H168.92V35.9545H172.312ZM169.909 34.3864H170.914V40.625C170.914 40.9091 170.955 41.1222 171.038 41.2642C171.123 41.4034 171.231 41.4972 171.362 41.5455C171.495 41.5909 171.636 41.6136 171.784 41.6136C171.894 41.6136 171.985 41.608 172.056 41.5966C172.127 41.5824 172.184 41.571 172.227 41.5625L172.431 42.4659C172.363 42.4915 172.268 42.517 172.146 42.5426C172.024 42.571 171.869 42.5852 171.681 42.5852C171.397 42.5852 171.119 42.5241 170.846 42.402C170.576 42.2798 170.352 42.0938 170.173 41.8438C169.997 41.5938 169.909 41.2784 169.909 40.8977V34.3864ZM178.205 33.7727V42.5H177.2V33.7727H178.205ZM182.706 42.6364C182.116 42.6364 181.597 42.4957 181.151 42.2145C180.708 41.9332 180.361 41.5398 180.111 41.0341C179.864 40.5284 179.741 39.9375 179.741 39.2614C179.741 38.5795 179.864 37.9844 180.111 37.4759C180.361 36.9673 180.708 36.5724 181.151 36.2912C181.597 36.0099 182.116 35.8693 182.706 35.8693C183.297 35.8693 183.814 36.0099 184.258 36.2912C184.704 36.5724 185.05 36.9673 185.297 37.4759C185.547 37.9844 185.672 38.5795 185.672 39.2614C185.672 39.9375 185.547 40.5284 185.297 41.0341C185.05 41.5398 184.704 41.9332 184.258 42.2145C183.814 42.4957 183.297 42.6364 182.706 42.6364ZM182.706 41.733C183.155 41.733 183.525 41.6179 183.814 41.3878C184.104 41.1577 184.319 40.8551 184.458 40.4801C184.597 40.1051 184.667 39.6989 184.667 39.2614C184.667 38.8239 184.597 38.4162 184.458 38.0384C184.319 37.6605 184.104 37.3551 183.814 37.1222C183.525 36.8892 183.155 36.7727 182.706 36.7727C182.258 36.7727 181.888 36.8892 181.599 37.1222C181.309 37.3551 181.094 37.6605 180.955 38.0384C180.816 38.4162 180.746 38.8239 180.746 39.2614C180.746 39.6989 180.816 40.1051 180.955 40.4801C181.094 40.8551 181.309 41.1577 181.599 41.3878C181.888 41.6179 182.258 41.733 182.706 41.733ZM191.844 37.4205L190.941 37.6761C190.884 37.5256 190.8 37.3793 190.689 37.2372C190.581 37.0923 190.433 36.973 190.246 36.8793C190.058 36.7855 189.818 36.7386 189.526 36.7386C189.125 36.7386 188.791 36.831 188.524 37.0156C188.26 37.1974 188.128 37.429 188.128 37.7102C188.128 37.9602 188.219 38.1577 188.401 38.3026C188.583 38.4474 188.867 38.5682 189.253 38.6648L190.225 38.9034C190.81 39.0455 191.246 39.2628 191.533 39.5554C191.82 39.8452 191.963 40.2187 191.963 40.6761C191.963 41.0511 191.855 41.3864 191.639 41.6818C191.426 41.9773 191.128 42.2102 190.744 42.3807C190.361 42.5511 189.915 42.6364 189.406 42.6364C188.739 42.6364 188.186 42.4915 187.749 42.2017C187.311 41.9119 187.034 41.4886 186.918 40.9318L187.872 40.6932C187.963 41.0455 188.135 41.3097 188.388 41.4858C188.644 41.6619 188.977 41.75 189.389 41.75C189.858 41.75 190.23 41.6506 190.506 41.4517C190.784 41.25 190.923 41.0085 190.923 40.7273C190.923 40.5 190.844 40.3097 190.685 40.1562C190.526 40 190.281 39.8835 189.952 39.8068L188.861 39.5511C188.262 39.4091 187.821 39.1889 187.54 38.8906C187.262 38.5895 187.122 38.2131 187.122 37.7614C187.122 37.392 187.226 37.0653 187.433 36.7812C187.644 36.4972 187.929 36.2741 188.29 36.1122C188.654 35.9503 189.066 35.8693 189.526 35.8693C190.173 35.8693 190.682 36.0114 191.051 36.2955C191.423 36.5795 191.688 36.9545 191.844 37.4205ZM198.113 37.4205L197.21 37.6761C197.153 37.5256 197.069 37.3793 196.959 37.2372C196.851 37.0923 196.703 36.973 196.515 36.8793C196.328 36.7855 196.088 36.7386 195.795 36.7386C195.395 36.7386 195.061 36.831 194.794 37.0156C194.53 37.1974 194.398 37.429 194.398 37.7102C194.398 37.9602 194.488 38.1577 194.67 38.3026C194.852 38.4474 195.136 38.5682 195.523 38.6648L196.494 38.9034C197.079 39.0455 197.515 39.2628 197.802 39.5554C198.089 39.8452 198.233 40.2187 198.233 40.6761C198.233 41.0511 198.125 41.3864 197.909 41.6818C197.696 41.9773 197.398 42.2102 197.014 42.3807C196.631 42.5511 196.184 42.6364 195.676 42.6364C195.008 42.6364 194.456 42.4915 194.018 42.2017C193.581 41.9119 193.304 41.4886 193.187 40.9318L194.142 40.6932C194.233 41.0455 194.405 41.3097 194.657 41.4858C194.913 41.6619 195.247 41.75 195.659 41.75C196.128 41.75 196.5 41.6506 196.775 41.4517C197.054 41.25 197.193 41.0085 197.193 40.7273C197.193 40.5 197.113 40.3097 196.954 40.1562C196.795 40 196.551 39.8835 196.221 39.8068L195.131 39.5511C194.531 39.4091 194.091 39.1889 193.809 38.8906C193.531 38.5895 193.392 38.2131 193.392 37.7614C193.392 37.392 193.496 37.0653 193.703 36.7812C193.913 36.4972 194.199 36.2741 194.559 36.1122C194.923 35.9503 195.335 35.8693 195.795 35.8693C196.443 35.8693 196.952 36.0114 197.321 36.2955C197.693 36.5795 197.957 36.9545 198.113 37.4205Z" fill="black"/>
<path d="M253.792 21.3458C253.792 22.573 253.571 23.6336 253.127 24.5276C252.684 25.4215 252.076 26.1109 251.304 26.5958C250.531 27.0806 249.648 27.323 248.656 27.323C247.663 27.323 246.781 27.0806 246.008 26.5958C245.235 26.1109 244.627 25.4215 244.184 24.5276C243.741 23.6336 243.519 22.573 243.519 21.3458C243.519 20.1185 243.741 19.0579 244.184 18.1639C244.627 17.27 245.235 16.5806 246.008 16.0958C246.781 15.6109 247.663 15.3685 248.656 15.3685C249.648 15.3685 250.531 15.6109 251.304 16.0958C252.076 16.5806 252.684 17.27 253.127 18.1639C253.571 19.0579 253.792 20.1185 253.792 21.3458ZM252.429 21.3458C252.429 20.3382 252.26 19.4878 251.923 18.7946C251.59 18.1014 251.137 17.5768 250.565 17.2208C249.997 16.8647 249.36 16.6867 248.656 16.6867C247.951 16.6867 247.313 16.8647 246.741 17.2208C246.173 17.5768 245.72 18.1014 245.383 18.7946C245.05 19.4878 244.883 20.3382 244.883 21.3458C244.883 22.3533 245.05 23.2037 245.383 23.8969C245.72 24.5901 246.173 25.1147 246.741 25.4708C247.313 25.8268 247.951 26.0048 248.656 26.0048C249.36 26.0048 249.997 25.8268 250.565 25.4708C251.137 25.1147 251.59 24.5901 251.923 23.8969C252.26 23.2037 252.429 22.3533 252.429 21.3458ZM255.73 27.1639V26.1412L260.684 19.7776V19.6867H255.889V18.4367H262.412V19.5048L257.593 25.823V25.9139H262.571V27.1639H255.73ZM268.045 27.3458C267.204 27.3458 266.479 27.1602 265.869 26.7889C265.263 26.4139 264.795 25.8912 264.466 25.2208C264.14 24.5465 263.977 23.7624 263.977 22.8685C263.977 21.9745 264.14 21.1867 264.466 20.5048C264.795 19.8192 265.253 19.2852 265.841 18.9026C266.431 18.5162 267.121 18.323 267.909 18.323C268.363 18.323 268.812 18.3988 269.255 18.5503C269.698 18.7018 270.102 18.948 270.466 19.2889C270.829 19.6261 271.119 20.073 271.335 20.6298C271.551 21.1867 271.659 21.8723 271.659 22.6867V23.2548H264.931V22.0958H270.295C270.295 21.6033 270.197 21.1639 270 20.7776C269.806 20.3912 269.53 20.0863 269.17 19.8628C268.814 19.6393 268.394 19.5276 267.909 19.5276C267.375 19.5276 266.912 19.6602 266.522 19.9253C266.136 20.1867 265.839 20.5276 265.63 20.948C265.422 21.3685 265.318 21.8192 265.318 22.3003V23.073C265.318 23.7321 265.431 24.2908 265.659 24.7492C265.89 25.2037 266.21 25.5503 266.619 25.7889C267.028 26.0238 267.503 26.1412 268.045 26.1412C268.397 26.1412 268.716 26.092 269 25.9935C269.287 25.8912 269.536 25.7397 269.744 25.5389C269.952 25.3344 270.113 25.0806 270.227 24.7776L271.522 25.1412C271.386 25.5806 271.157 25.967 270.835 26.3003C270.513 26.6298 270.115 26.8874 269.642 27.073C269.168 27.2548 268.636 27.3458 268.045 27.3458ZM273.698 27.1639V18.4367H274.994V19.8003H275.108C275.289 19.3344 275.583 18.9727 275.988 18.7151C276.394 18.4537 276.88 18.323 277.448 18.323C278.024 18.323 278.503 18.4537 278.886 18.7151C279.272 18.9727 279.573 19.3344 279.789 19.8003H279.88C280.104 19.3495 280.439 18.9916 280.886 18.7264C281.333 18.4575 281.869 18.323 282.494 18.323C283.274 18.323 283.912 18.5673 284.409 19.056C284.905 19.5408 285.153 20.2965 285.153 21.323V27.1639H283.812V21.323C283.812 20.6791 283.636 20.2189 283.284 19.9423C282.931 19.6658 282.517 19.5276 282.039 19.5276C281.426 19.5276 280.95 19.7132 280.613 20.0844C280.276 20.4518 280.108 20.9177 280.108 21.4821V27.1639H278.744V21.1867C278.744 20.6905 278.583 20.2908 278.261 19.9878C277.939 19.681 277.524 19.5276 277.017 19.5276C276.668 19.5276 276.342 19.6204 276.039 19.806C275.74 19.9916 275.498 20.2492 275.312 20.5787C275.13 20.9045 275.039 21.2814 275.039 21.7094V27.1639H273.698ZM287.605 30.4367V18.4367H288.9V19.823H289.059C289.158 19.6715 289.294 19.4783 289.468 19.2435C289.646 19.0048 289.9 18.7927 290.23 18.6071C290.563 18.4177 291.014 18.323 291.582 18.323C292.317 18.323 292.965 18.5067 293.525 18.8742C294.086 19.2416 294.523 19.7624 294.838 20.4367C295.152 21.1109 295.309 21.9064 295.309 22.823C295.309 23.7473 295.152 24.5484 294.838 25.2264C294.523 25.9007 294.088 26.4234 293.531 26.7946C292.974 27.162 292.332 27.3458 291.605 27.3458C291.044 27.3458 290.595 27.253 290.258 27.0673C289.921 26.878 289.662 26.6639 289.48 26.4253C289.298 26.1829 289.158 25.9821 289.059 25.823H288.946V30.4367H287.605ZM288.923 22.8003C288.923 23.4594 289.019 24.0408 289.213 24.5446C289.406 25.0446 289.688 25.4367 290.059 25.7208C290.43 26.0011 290.885 26.1412 291.423 26.1412C291.984 26.1412 292.451 25.9935 292.826 25.698C293.205 25.3988 293.489 24.9973 293.679 24.4935C293.872 23.9859 293.968 23.4215 293.968 22.8003C293.968 22.1867 293.874 21.6336 293.684 21.1412C293.499 20.645 293.216 20.253 292.838 19.9651C292.463 19.6734 291.991 19.5276 291.423 19.5276C290.877 19.5276 290.419 19.6658 290.048 19.9423C289.677 20.2151 289.396 20.5977 289.207 21.0901C289.018 21.5787 288.923 22.1488 288.923 22.8003ZM297.355 27.1639V18.4367H298.696V27.1639H297.355ZM298.037 16.9821C297.775 16.9821 297.55 16.8931 297.36 16.7151C297.175 16.537 297.082 16.323 297.082 16.073C297.082 15.823 297.175 15.609 297.36 15.431C297.55 15.253 297.775 15.1639 298.037 15.1639C298.298 15.1639 298.521 15.253 298.707 15.431C298.896 15.609 298.991 15.823 298.991 16.073C298.991 16.323 298.896 16.537 298.707 16.7151C298.521 16.8931 298.298 16.9821 298.037 16.9821ZM304.697 27.3458C303.879 27.3458 303.174 27.1526 302.583 26.7662C301.992 26.3798 301.538 25.8477 301.22 25.1696C300.902 24.4916 300.742 23.717 300.742 22.8458C300.742 21.9594 300.905 21.1772 301.231 20.4992C301.561 19.8173 302.019 19.2852 302.606 18.9026C303.197 18.5162 303.886 18.323 304.674 18.323C305.288 18.323 305.841 18.4367 306.333 18.6639C306.826 18.8912 307.229 19.2094 307.544 19.6185C307.858 20.0276 308.053 20.5048 308.129 21.0503H306.788C306.686 20.6526 306.458 20.3003 306.106 19.9935C305.758 19.6829 305.288 19.5276 304.697 19.5276C304.174 19.5276 303.716 19.6639 303.322 19.9367C302.932 20.2056 302.627 20.5863 302.407 21.0787C302.191 21.5673 302.083 22.1412 302.083 22.8003C302.083 23.4745 302.189 24.0617 302.402 24.5617C302.617 25.0617 302.921 25.4499 303.311 25.7264C303.705 26.003 304.167 26.1412 304.697 26.1412C305.046 26.1412 305.362 26.0806 305.646 25.9594C305.93 25.8382 306.171 25.6639 306.367 25.4367C306.564 25.2094 306.705 24.9367 306.788 24.6185H308.129C308.053 25.1336 307.866 25.5977 307.566 26.0105C307.271 26.4196 306.879 26.7454 306.39 26.9878C305.905 27.2264 305.341 27.3458 304.697 27.3458ZM317.157 27.3685C316.604 27.3685 316.102 27.2643 315.652 27.056C315.201 26.8439 314.843 26.5389 314.578 26.1412C314.313 25.7397 314.18 25.2548 314.18 24.6867C314.18 24.1867 314.278 23.7814 314.475 23.4708C314.672 23.1564 314.936 22.9102 315.265 22.7321C315.595 22.5541 315.958 22.4215 316.356 22.3344C316.758 22.2435 317.161 22.1715 317.566 22.1185C318.097 22.0503 318.527 21.9992 318.856 21.9651C319.189 21.9272 319.432 21.8647 319.583 21.7776C319.739 21.6905 319.816 21.5389 319.816 21.323V21.2776C319.816 20.717 319.663 20.2814 319.356 19.9708C319.053 19.6602 318.593 19.5048 317.975 19.5048C317.335 19.5048 316.833 19.645 316.47 19.9253C316.106 20.2056 315.85 20.5048 315.703 20.823L314.43 20.3685C314.657 19.8382 314.96 19.4253 315.339 19.1298C315.722 18.8306 316.138 18.6223 316.589 18.5048C317.044 18.3836 317.491 18.323 317.93 18.323C318.21 18.323 318.532 18.3571 318.896 18.4253C319.263 18.4897 319.617 18.6242 319.958 18.8287C320.303 19.0333 320.589 19.342 320.816 19.7548C321.044 20.1677 321.157 20.7208 321.157 21.4139V27.1639H319.816V25.9821H319.748C319.657 26.1715 319.506 26.3742 319.294 26.5901C319.082 26.806 318.799 26.9897 318.447 27.1412C318.095 27.2927 317.665 27.3685 317.157 27.3685ZM317.362 26.1639C317.892 26.1639 318.339 26.0598 318.703 25.8514C319.07 25.6431 319.347 25.3742 319.532 25.0446C319.722 24.7151 319.816 24.3685 319.816 24.0048V22.7776C319.76 22.8458 319.635 22.9083 319.441 22.9651C319.252 23.0181 319.032 23.0655 318.782 23.1071C318.536 23.145 318.296 23.1791 318.061 23.2094C317.83 23.2359 317.642 23.2586 317.498 23.2776C317.15 23.323 316.824 23.3969 316.521 23.4992C316.222 23.5977 315.979 23.7473 315.794 23.948C315.612 24.145 315.521 24.4139 315.521 24.7548C315.521 25.2208 315.693 25.573 316.038 25.8117C316.386 26.0465 316.828 26.1639 317.362 26.1639ZM324.946 21.9139V27.1639H323.605V18.4367H324.9V19.8003H325.014C325.218 19.3571 325.529 19.0011 325.946 18.7321C326.362 18.4594 326.9 18.323 327.559 18.323C328.15 18.323 328.667 18.4442 329.11 18.6867C329.554 18.9253 329.898 19.2889 330.144 19.7776C330.391 20.2624 330.514 20.8761 330.514 21.6185V27.1639H329.173V21.7094C329.173 21.0238 328.995 20.4897 328.639 20.1071C328.283 19.7208 327.794 19.5276 327.173 19.5276C326.745 19.5276 326.362 19.6204 326.025 19.806C325.692 19.9916 325.429 20.2624 325.235 20.6185C325.042 20.9745 324.946 21.4064 324.946 21.9139ZM336.26 27.3458C335.532 27.3458 334.89 27.162 334.333 26.7946C333.777 26.4234 333.341 25.9007 333.027 25.2264C332.712 24.5484 332.555 23.7473 332.555 22.823C332.555 21.9064 332.712 21.1109 333.027 20.4367C333.341 19.7624 333.778 19.2416 334.339 18.8742C334.9 18.5067 335.547 18.323 336.282 18.323C336.85 18.323 337.299 18.4177 337.629 18.6071C337.962 18.7927 338.216 19.0048 338.39 19.2435C338.568 19.4783 338.707 19.6715 338.805 19.823H338.919V15.5276H340.26V27.1639H338.964V25.823H338.805C338.707 25.9821 338.566 26.1829 338.385 26.4253C338.203 26.6639 337.943 26.878 337.606 27.0673C337.269 27.253 336.82 27.3458 336.26 27.3458ZM336.441 26.1412C336.979 26.1412 337.434 26.0011 337.805 25.7208C338.176 25.4367 338.458 25.0446 338.652 24.5446C338.845 24.0408 338.941 23.4594 338.941 22.8003C338.941 22.1488 338.847 21.5787 338.657 21.0901C338.468 20.5977 338.188 20.2151 337.816 19.9423C337.445 19.6658 336.987 19.5276 336.441 19.5276C335.873 19.5276 335.4 19.6734 335.021 19.9651C334.646 20.253 334.364 20.645 334.174 21.1412C333.989 21.6336 333.896 22.1867 333.896 22.8003C333.896 23.4215 333.991 23.9859 334.18 24.4935C334.373 24.9973 334.657 25.3988 335.032 25.698C335.411 25.9935 335.881 26.1412 336.441 26.1412ZM349.697 27.1639L346.515 15.5276H347.947L350.379 25.0048H350.492L352.97 15.5276H354.561L357.038 25.0048H357.152L359.583 15.5276H361.015L357.833 27.1639H356.379L353.811 17.8912H353.72L351.152 27.1639H349.697ZM365.436 27.3458C364.595 27.3458 363.869 27.1602 363.26 26.7889C362.653 26.4139 362.186 25.8912 361.856 25.2208C361.53 24.5465 361.367 23.7624 361.367 22.8685C361.367 21.9745 361.53 21.1867 361.856 20.5048C362.186 19.8192 362.644 19.2852 363.231 18.9026C363.822 18.5162 364.511 18.323 365.299 18.323C365.754 18.323 366.203 18.3988 366.646 18.5503C367.089 18.7018 367.492 18.948 367.856 19.2889C368.22 19.6261 368.51 20.073 368.725 20.6298C368.941 21.1867 369.049 21.8723 369.049 22.6867V23.2548H362.322V22.0958H367.686C367.686 21.6033 367.587 21.1639 367.39 20.7776C367.197 20.3912 366.921 20.0863 366.561 19.8628C366.205 19.6393 365.784 19.5276 365.299 19.5276C364.765 19.5276 364.303 19.6602 363.913 19.9253C363.527 20.1867 363.229 20.5276 363.021 20.948C362.813 21.3685 362.708 21.8192 362.708 22.3003V23.073C362.708 23.7321 362.822 24.2908 363.049 24.7492C363.28 25.2037 363.6 25.5503 364.01 25.7889C364.419 26.0238 364.894 26.1412 365.436 26.1412C365.788 26.1412 366.106 26.092 366.39 25.9935C366.678 25.8912 366.926 25.7397 367.135 25.5389C367.343 25.3344 367.504 25.0806 367.617 24.7776L368.913 25.1412C368.777 25.5806 368.547 25.967 368.225 26.3003C367.903 26.6298 367.506 26.8874 367.032 27.073C366.559 27.2548 366.027 27.3458 365.436 27.3458ZM374.612 30.6185C373.964 30.6185 373.407 30.5352 372.941 30.3685C372.475 30.2056 372.087 29.9897 371.777 29.7208C371.47 29.4556 371.225 29.1715 371.044 28.8685L372.112 28.1185C372.233 28.2776 372.386 28.4594 372.572 28.6639C372.758 28.8723 373.011 29.0522 373.333 29.2037C373.659 29.359 374.085 29.4367 374.612 29.4367C375.316 29.4367 375.898 29.2662 376.356 28.9253C376.814 28.5844 377.044 28.0503 377.044 27.323V25.5503H376.93C376.832 25.7094 376.691 25.9064 376.51 26.1412C376.332 26.3723 376.074 26.5787 375.737 26.7605C375.403 26.9386 374.953 27.0276 374.385 27.0276C373.68 27.0276 373.047 26.8609 372.487 26.5276C371.93 26.1942 371.489 25.7094 371.163 25.073C370.841 24.4367 370.68 23.6639 370.68 22.7548C370.68 21.8609 370.837 21.0825 371.152 20.4196C371.466 19.753 371.903 19.2378 372.464 18.8742C373.025 18.5067 373.672 18.323 374.407 18.323C374.975 18.323 375.426 18.4177 375.76 18.6071C376.097 18.7927 376.354 19.0048 376.532 19.2435C376.714 19.4783 376.854 19.6715 376.953 19.823H377.089V18.4367H378.385V27.4139C378.385 28.1639 378.214 28.7738 377.873 29.2435C377.536 29.717 377.082 30.0636 376.51 30.2833C375.941 30.5067 375.309 30.6185 374.612 30.6185ZM374.566 25.823C375.104 25.823 375.559 25.6999 375.93 25.4537C376.301 25.2075 376.583 24.8533 376.777 24.3912C376.97 23.9291 377.066 23.3761 377.066 22.7321C377.066 22.1033 376.972 21.5484 376.782 21.0673C376.593 20.5863 376.313 20.2094 375.941 19.9367C375.57 19.6639 375.112 19.5276 374.566 19.5276C373.998 19.5276 373.525 19.6715 373.146 19.9594C372.771 20.2473 372.489 20.6336 372.299 21.1185C372.114 21.6033 372.021 22.1412 372.021 22.7321C372.021 23.3382 372.116 23.8742 372.305 24.3401C372.498 24.8022 372.782 25.1658 373.157 25.431C373.536 25.6923 374.006 25.823 374.566 25.823ZM384.385 27.3458C383.597 27.3458 382.905 27.1583 382.311 26.7833C381.72 26.4083 381.258 25.8836 380.924 25.2094C380.595 24.5352 380.43 23.7473 380.43 22.8458C380.43 21.9367 380.595 21.1431 380.924 20.4651C381.258 19.787 381.72 19.2605 382.311 18.8855C382.905 18.5105 383.597 18.323 384.385 18.323C385.172 18.323 385.862 18.5105 386.453 18.8855C387.047 19.2605 387.51 19.787 387.839 20.4651C388.172 21.1431 388.339 21.9367 388.339 22.8458C388.339 23.7473 388.172 24.5352 387.839 25.2094C387.51 25.8836 387.047 26.4083 386.453 26.7833C385.862 27.1583 385.172 27.3458 384.385 27.3458ZM384.385 26.1412C384.983 26.1412 385.475 25.9878 385.862 25.681C386.248 25.3742 386.534 24.9708 386.72 24.4708C386.905 23.9708 386.998 23.4291 386.998 22.8458C386.998 22.2624 386.905 21.7189 386.72 21.2151C386.534 20.7113 386.248 20.3041 385.862 19.9935C385.475 19.6829 384.983 19.5276 384.385 19.5276C383.786 19.5276 383.294 19.6829 382.907 19.9935C382.521 20.3041 382.235 20.7113 382.049 21.2151C381.864 21.7189 381.771 22.2624 381.771 22.8458C381.771 23.4291 381.864 23.9708 382.049 24.4708C382.235 24.9708 382.521 25.3742 382.907 25.681C383.294 25.9878 383.786 26.1412 384.385 26.1412ZM397.21 18.4367L393.983 27.1639H392.619L389.392 18.4367H390.846L393.255 25.3912H393.346L395.755 18.4367H397.21ZM399.843 30.4367C399.616 30.4367 399.413 30.4177 399.235 30.3798C399.057 30.3458 398.934 30.3117 398.866 30.2776L399.207 29.0958C399.533 29.1791 399.821 29.2094 400.071 29.1867C400.321 29.1639 400.542 29.0522 400.735 28.8514C400.932 28.6545 401.112 28.3344 401.275 27.8912L401.525 27.2094L398.298 18.4367H399.752L402.162 25.3912H402.252L404.662 18.4367H406.116L402.412 28.4367C402.245 28.8874 402.038 29.2605 401.792 29.556C401.546 29.8552 401.26 30.0768 400.934 30.2208C400.612 30.3647 400.249 30.4367 399.843 30.4367Z" fill="black"/>
<path d="M239.71 33.836C263.663 22.3794 369.805 11.4999 411.609 23.5" stroke="#ED4C54" stroke-width="2" stroke-linecap="round"/>
<defs>
<radialGradient id="paint0_radial_197_169" cx="0" cy="0" r="1" gradientUnits="userSpaceOnUse" gradientTransform="translate(100.361 45.4017) rotate(180) scale(198.305 57.5587)">
<stop offset="0.5" stop-color="#FAAB18"/>
<stop offset="0.5122" stop-color="#F1A51F"/>
<stop offset="0.5322" stop-color="#D99333"/>
<stop offset="0.5574" stop-color="#B17753"/>
<stop offset="0.5866" stop-color="#7A5080"/>
<stop offset="0.6" stop-color="#5F3C96"/>
<stop offset="0.6057" stop-color="#5B3B95"/>
<stop offset="0.6491" stop-color="#42368B"/>
<stop offset="0.6885" stop-color="#323286"/>
<stop offset="0.72" stop-color="#2D3184"/>
</radialGradient>
</defs>
</svg>
