<svg xmlns="http://www.w3.org/2000/svg" width="18" height="18" fill="none" viewBox="0 0 18 18">
  <g clip-path="url(#a)">
    <path fill="#F0F0F0" d="M9 18A9 9 0 1 0 9 0a9 9 0 0 0 0 18Z"/>
    <path fill="#0052B4" d="M9 18a9 9 0 0 0 8.44-12.13H.56A9 9 0 0 0 9 18Z"/>
    <path fill="#D80027" d="M9 18a9.003 9.003 0 0 0 8.44-5.87H.56A9.003 9.003 0 0 0 9 18Z"/>
    <path fill="#F0F0F0" d="M2.327 5.087v4.49c0 2.553 3.337 3.336 3.337 3.336S9 12.13 9 9.577v-4.49H2.327Z"/>
    <path fill="#D80027" d="M3.11 5.087v4.49c0 .3.066.582.198.848h4.71c.133-.265.2-.549.2-.848v-4.49H3.11Z"/>
    <path fill="#F0F0F0" d="M7.229 8.217H6.055v-.782h.783v-.783h-.783V5.87h-.783v.782H4.49v.783h.782v.782H4.098V9h1.174v.783h.783V9h1.174v-.783Z"/>
    <path fill="#0052B4" d="M4.376 11.518c.504.316 1.022.5 1.288.582a5.627 5.627 0 0 0 1.287-.582c.509-.32.866-.686 1.068-1.093a1.363 1.363 0 0 0-1.101-.215 1.37 1.37 0 0 0-2.508 0 1.371 1.371 0 0 0-1.101.215c.202.407.558.773 1.067 1.093Z"/>
  </g>
  <defs>
    <clipPath id="a">
      <path fill="#fff" d="M0 0h18v18H0z"/>
    </clipPath>
  </defs>
</svg>
