<?xml version="1.0" encoding="UTF-8"?>
<svg xmlns="http://www.w3.org/2000/svg" xmlns:xlink="http://www.w3.org/1999/xlink" width="192px" height="192px" viewBox="0 0 192 192" version="1.1">
<g id="surface1">
<path style=" stroke:none;fill-rule:evenodd;fill:rgb(96.078431%,88.235294%,45.882353%);fill-opacity:1;" d="M 44.253906 44.160156 C 63.304688 25.078125 94.191406 25.078125 113.246094 44.160156 L 121.871094 52.804688 L 52.402344 121.433594 L 44.257812 113.277344 C 25.207031 94.191406 25.203125 63.246094 44.253906 44.160156 Z M 78.75 147.839844 L 69.644531 138.71875 L 139.125 70.082031 L 147.746094 78.722656 C 166.796875 97.808594 166.796875 128.753906 147.746094 147.839844 C 128.695312 166.921875 97.804688 166.921875 78.753906 147.839844 Z M 78.75 147.839844 "/>
<path style=" stroke:none;fill-rule:evenodd;fill:rgb(0%,0%,0%);fill-opacity:1;" d="M 58.414062 58.351562 C 53.195312 63.585938 50.261719 70.679688 50.261719 78.074219 C 50.261719 85.46875 53.195312 92.558594 58.414062 97.792969 L 94.207031 133.652344 C 96.789062 136.242188 99.859375 138.296875 103.234375 139.699219 C 106.613281 141.101562 110.234375 141.820312 113.890625 141.820312 C 117.550781 141.820312 121.171875 141.101562 124.550781 139.699219 C 127.929688 138.296875 130.996094 136.242188 133.578125 133.652344 C 138.804688 128.417969 141.738281 121.324219 141.738281 113.929688 C 141.738281 106.535156 138.804688 99.441406 133.578125 94.207031 L 97.785156 58.359375 C 95.203125 55.769531 92.132812 53.714844 88.753906 52.3125 C 85.378906 50.910156 81.753906 50.191406 78.097656 50.191406 C 74.441406 50.191406 70.820312 50.910156 67.441406 52.3125 C 64.0625 53.714844 60.996094 55.769531 58.414062 58.359375 Z M 84.503906 112.136719 L 100.09375 127.753906 C 101.902344 129.570312 104.054688 131.011719 106.421875 131.992188 C 108.789062 132.976562 111.328125 133.480469 113.890625 133.480469 C 116.457031 133.480469 118.996094 132.976562 121.363281 131.992188 C 123.730469 131.011719 125.882812 129.570312 127.691406 127.753906 C 131.351562 124.085938 133.410156 119.113281 133.410156 113.929688 C 133.410156 108.746094 131.351562 103.777344 127.691406 100.105469 L 112.101562 84.488281 Z M 78.617188 106.238281 L 64.300781 91.898438 C 60.640625 88.226562 58.585938 83.257812 58.585938 78.074219 C 58.585938 72.890625 60.640625 67.917969 64.300781 64.25 C 66.113281 62.433594 68.261719 60.992188 70.628906 60.011719 C 73 59.027344 75.535156 58.523438 78.101562 58.523438 C 80.664062 58.523438 83.203125 59.027344 85.570312 60.011719 C 87.9375 60.992188 90.089844 62.433594 91.898438 64.25 L 106.214844 78.59375 Z M 78.617188 106.238281 "/>
</g>
</svg>
