<svg width="144" height="137" viewBox="0 0 144 137" fill="none" xmlns="http://www.w3.org/2000/svg">
<path d="M68.9305 0C52.5645 0 37.5441 5.75419 25.7754 15.346V121.373C37.5441 130.965 52.5645 136.719 68.9305 136.719C106.684 136.719 137.29 106.113 137.29 68.3594C137.29 30.6055 106.684 0 68.9305 0Z" fill="#2A464D"/>
<path d="M143.428 26.5067V110.212C143.428 116.376 138.431 121.373 132.268 121.373H25.7722C10.3927 108.839 0.571289 89.7461 0.571289 68.3593C0.571289 46.9726 10.3927 27.8794 25.7722 15.3459H132.268C138.431 15.3459 143.428 20.3432 143.428 26.5067Z" fill="#FF746C"/>
<path d="M25.7755 121.373H60.097C53.9332 121.373 48.9362 116.376 48.9362 110.212V26.5067C48.9362 20.3429 53.9332 15.3459 60.097 15.3459H25.7755C10.3958 27.8808 0.571289 46.9715 0.571289 68.3593C0.571289 89.7472 10.3958 108.838 25.7755 121.373Z" fill="#E2635C"/>
<path d="M14.522 34.8772C14.522 31.7952 17.0203 29.2969 20.1023 29.2969H64.7452C67.8272 29.2969 70.3256 31.7952 70.3256 34.8772C70.3256 37.9593 67.8272 40.4576 64.7452 40.4576H20.1023C17.0203 40.4576 14.522 37.9593 14.522 34.8772Z" fill="#FFC839"/>
<path d="M31.263 34.8772C31.263 31.7952 33.7614 29.2969 36.8434 29.2969H20.1023C17.0203 29.2969 14.522 31.7952 14.522 34.8772C14.522 37.9593 17.0203 40.4576 20.1023 40.4576H36.8434C33.7614 40.4576 31.263 37.9593 31.263 34.8772Z" fill="#FFB332"/>
<path d="M95.3488 124.163H112.09C113.631 124.163 114.88 122.914 114.88 121.373V15.346C114.88 13.8049 113.631 12.5558 112.09 12.5558H95.3488C93.8078 12.5558 92.5586 13.8049 92.5586 15.346V121.373C92.5586 122.914 93.8078 124.163 95.3488 124.163Z" fill="#FFB332"/>
<path d="M114.88 121.175C114.88 115.011 109.883 110.014 103.719 110.014C97.5555 110.014 92.5586 115.011 92.5586 121.175V51.8161C92.5586 57.9799 97.5555 62.9768 103.719 62.9768C109.883 62.9768 114.88 57.9799 114.88 51.8161V121.175Z" fill="#FF9433"/>
<path d="M100.929 124.163H96.7439V12.5557H100.929V124.163Z" fill="#FFC839"/>
<path d="M96.7437 112.465C97.9574 111.492 99.377 110.765 100.929 110.366V62.6253C99.377 62.2258 97.9574 61.4989 96.7437 60.5257V112.465Z" fill="#FFB332"/>
<path d="M106.509 12.5558H110.695V124.163H106.509V12.5558Z" fill="#FFC839"/>
<path d="M106.509 110.366C108.061 110.765 109.481 111.492 110.695 112.465V60.5257C109.481 61.4989 108.061 62.2258 106.509 62.6253V110.366Z" fill="#FFB332"/>
<path d="M106.509 81.7126H133.806C133.806 72.3449 129.589 62.9769 125.55 62.9769C115.411 62.9769 106.51 80.3533 106.51 80.3533V81.7126H106.509Z" fill="#FFE177"/>
<path d="M100.929 80.3533C100.929 80.3533 92.0274 62.9769 81.8885 62.9769C77.8497 62.9769 73.6323 72.3446 73.6323 81.7126H100.929V80.3533H100.929Z" fill="#FFC839"/>
<path d="M100.929 91.2786H73.6323C73.6323 100.646 77.8497 110.014 81.8885 110.014C92.0274 110.014 100.929 92.6379 100.929 92.6379V91.2786Z" fill="#FFC839"/>
<path d="M106.51 92.6379C106.51 92.6379 115.411 110.014 125.55 110.014C129.589 110.014 133.806 100.647 133.806 91.2786H106.509V92.6379H106.51Z" fill="#FFE177"/>
<path d="M106.509 90.8055C106.509 90.8055 122.896 103.145 131.606 103.145C140.316 103.145 140.316 69.846 131.606 69.846C122.896 69.846 106.509 82.1856 106.509 82.1856V90.8055Z" fill="#FFE177"/>
<path d="M100.929 82.1856C100.929 82.1856 84.542 69.846 75.8319 69.846C67.1218 69.846 67.1218 103.145 75.8319 103.145C84.542 103.145 100.929 90.8055 100.929 90.8055V82.1856Z" fill="#FFE177"/>
<path d="M106.509 75.3348C105.492 75.3348 104.541 75.6116 103.719 76.0873C102.898 75.6116 101.947 75.3348 100.929 75.3348C97.847 75.3348 95.3486 77.8332 95.3486 80.9152V92.0759C95.3486 95.1579 97.847 97.6563 100.929 97.6563C101.947 97.6563 102.898 97.3795 103.719 96.9038C104.541 97.3795 105.492 97.6563 106.509 97.6563C109.591 97.6563 112.09 95.1579 112.09 92.0759V80.9152C112.09 77.8332 109.591 75.3348 106.509 75.3348Z" fill="#FCF2C8"/>
<path d="M100.929 92.0759V80.9152C100.929 78.851 102.053 77.0528 103.719 76.0877C102.898 75.6119 101.947 75.3351 100.929 75.3351C97.847 75.3351 95.3486 77.8335 95.3486 80.9155V92.0762C95.3486 95.1582 97.847 97.6566 100.929 97.6566C101.947 97.6566 102.898 97.3798 103.719 96.9041C102.053 95.9384 100.929 94.1401 100.929 92.0759Z" fill="#FFE177"/>
<path d="M20.1023 57.1986C23.1843 57.1986 25.6827 54.7002 25.6827 51.6183C25.6827 48.5363 23.1843 46.0379 20.1023 46.0379C17.0204 46.0379 14.522 48.5363 14.522 51.6183C14.522 54.7002 17.0204 57.1986 20.1023 57.1986Z" fill="#FFC839"/>
<path d="M20.1023 51.6183C20.1023 49.5541 21.2262 47.7558 22.8925 46.7904C22.0711 46.3147 21.1199 46.0379 20.1023 46.0379C17.0203 46.0379 14.522 48.5362 14.522 51.6183C14.522 54.7003 17.0203 57.1986 20.1023 57.1986C21.1199 57.1986 22.0711 56.9218 22.8925 56.4461C21.2262 55.4807 20.1023 53.6824 20.1023 51.6183Z" fill="#FFB332"/>
<path d="M36.8435 57.1986C39.9255 57.1986 42.4239 54.7002 42.4239 51.6183C42.4239 48.5363 39.9255 46.0379 36.8435 46.0379C33.7616 46.0379 31.2632 48.5363 31.2632 51.6183C31.2632 54.7002 33.7616 57.1986 36.8435 57.1986Z" fill="#FFC839"/>
<path d="M36.8435 51.6183C36.8435 49.5541 37.9674 47.7558 39.6337 46.7904C38.8123 46.3147 37.8611 46.0379 36.8435 46.0379C33.7615 46.0379 31.2632 48.5362 31.2632 51.6183C31.2632 54.7003 33.7615 57.1986 36.8435 57.1986C37.8611 57.1986 38.8123 56.9218 39.6337 56.4461C37.9674 55.4807 36.8435 53.6824 36.8435 51.6183Z" fill="#FFB332"/>
</svg>
