<svg width="15" height="16" viewBox="0 0 15 16" fill="none" xmlns="http://www.w3.org/2000/svg">
<path d="M11.6933 6.38128C11.6352 6.3227 11.566 6.27621 11.4899 6.24448C11.4137 6.21275 11.332 6.19641 11.2495 6.19641C11.167 6.19641 11.0853 6.21275 11.0092 6.24448C10.933 6.27621 10.8639 6.3227 10.8058 6.38128L7.94327 9.24378C7.88517 9.30236 7.81604 9.34886 7.73988 9.38059C7.66372 9.41232 7.58203 9.42865 7.49952 9.42865C7.41701 9.42865 7.33532 9.41232 7.25916 9.38059C7.183 9.34886 7.11387 9.30236 7.05577 9.24378L4.19327 6.38128C4.13517 6.3227 4.06604 6.27621 3.98988 6.24448C3.91372 6.21275 3.83203 6.19641 3.74952 6.19641C3.66701 6.19641 3.58532 6.21275 3.50916 6.24448C3.433 6.27621 3.36387 6.3227 3.30577 6.38128C3.18936 6.49839 3.12402 6.65679 3.12402 6.82191C3.12402 6.98702 3.18936 7.14543 3.30577 7.26253L6.17452 10.1313C6.52608 10.4824 7.00264 10.6796 7.49952 10.6796C7.9964 10.6796 8.47296 10.4824 8.82452 10.1313L11.6933 7.26253C11.8097 7.14543 11.875 6.98702 11.875 6.82191C11.875 6.65679 11.8097 6.49839 11.6933 6.38128Z" fill="black"/>
</svg>
