<svg xmlns="http://www.w3.org/2000/svg" width="50" height="50" fill="none" viewBox="0 0 50 50">
  <path fill="#42E291" d="M9.523 20.003H3.588a.81.81 0 0 1-.81-.81V9.677a.81.81 0 0 1 .81-.81h9.516a.81.81 0 0 1 .811.81v9.515a.81.81 0 0 1-.81.81H9.523Z"/>
  <path fill="#293843" d="M39.285 39.832c-.65 0-1.26-.348-1.591-.908l-1.419-2.399c-2.913-4.926-5.666-9.58-6.62-11.491a10.638 10.638 0 0 1-1.084-4.701c0-5.908 4.806-10.715 10.714-10.715C45.194 9.618 50 14.425 50 20.333a10.62 10.62 0 0 1-1.077 4.686l-.04.078c-.954 1.906-3.69 6.532-6.587 11.43l-1.418 2.397a1.86 1.86 0 0 1-1.593.908Zm0-29.103c-5.294 0-9.603 4.308-9.603 9.604 0 1.472.327 2.889.97 4.21.933 1.872 3.676 6.509 6.58 11.417l1.419 2.399a.74.74 0 0 0 1.271 0l1.417-2.398c2.887-4.88 5.614-9.49 6.563-11.383a9.561 9.561 0 0 0 .987-4.245c0-5.296-4.309-9.604-9.604-9.604Z"/>
  <path fill="#42E291" d="M39.286 13.667a6.953 6.953 0 0 0-6.945 6.944 6.88 6.88 0 0 0 .702 3.045c.642 1.289 2.522 4.466 4.512 7.831l.97 1.64a.883.883 0 0 0 1.522 0l.968-1.64c1.977-3.341 3.844-6.498 4.499-7.804a6.886 6.886 0 0 0 .716-3.072 6.951 6.951 0 0 0-6.944-6.944Z"/>
  <path fill="#293843" d="M39.285 26.083a5.71 5.71 0 0 1-3.659-1.329.556.556 0 0 1 .714-.852 4.593 4.593 0 0 0 2.945 1.07 4.597 4.597 0 0 0 4.593-4.593 4.597 4.597 0 0 0-4.593-4.592 4.597 4.597 0 0 0-4.592 4.592.555.555 0 1 1-1.11 0 5.71 5.71 0 0 1 5.703-5.703 5.71 5.71 0 0 1 5.703 5.703 5.71 5.71 0 0 1-5.703 5.704Zm.001 17.828H15.394a4.778 4.778 0 0 1-4.772-4.772 4.778 4.778 0 0 1 4.772-4.772h5.534a3.955 3.955 0 0 0 3.95-3.951 3.955 3.955 0 0 0-3.95-3.951H8.657a.555.555 0 1 1 0-1.111h12.271a5.068 5.068 0 0 1 5.063 5.062 5.068 5.068 0 0 1-5.063 5.062h-5.534a3.665 3.665 0 0 0-3.66 3.661 3.665 3.665 0 0 0 3.66 3.661h23.892a.555.555 0 1 1 0 1.111Zm-23.149-21.13H.556A.556.556 0 0 1 0 22.226V6.643c0-.306.249-.555.556-.555h15.58c.307 0 .556.249.556.555v15.582a.555.555 0 0 1-.555.555ZM1.11 21.67h14.47V7.2H1.111v14.47Z"/>
  <path fill="#293843" d="M10.509 13.211a.553.553 0 0 1-.331-.11l-1.831-1.359-1.831 1.36a.557.557 0 0 1-.887-.446V6.644a.556.556 0 0 1 1.111 0v4.907l1.276-.947a.555.555 0 0 1 .662 0l1.275.947V6.644a.556.556 0 0 1 1.112 0v6.011a.556.556 0 0 1-.556.556Zm-4.154 4.088H3.416a.556.556 0 0 1 0-1.111h2.939a.556.556 0 0 1 0 1.11Zm0 2.729H3.416a.556.556 0 0 1 0-1.111h2.939a.556.556 0 0 1 0 1.111Z"/>
</svg>
