<svg xmlns="http://www.w3.org/2000/svg" width="50" height="50" fill="none" viewBox="0 0 50 50">
  <g clip-path="url(#a)">
    <path fill="#42E291" d="M29.501 13.462h8.654v29.241a3.963 3.963 0 0 1-3.963 3.963H15.807a3.963 3.963 0 0 1-3.962-3.963V13.462H29.5Z"/>
    <path fill="#293843" d="M36.97 50H13.03a4.523 4.523 0 0 1-4.518-4.519V10.684c0-.306.25-.555.556-.555h3.188a.556.556 0 0 1 0 1.111H9.622v34.241a3.411 3.411 0 0 0 3.408 3.408h23.94a3.411 3.411 0 0 0 3.407-3.408V11.24H32.28a.555.555 0 1 1 0-1.111h8.653c.307 0 .555.249.555.556V45.48A4.524 4.524 0 0 1 36.97 50Z"/>
    <path fill="#293843" d="M32.232 21.723H9.067a.556.556 0 0 1 0-1.11h23.164a.555.555 0 0 1 0 1.11Zm.048-6.607a.555.555 0 0 1-.556-.555V5.185a4.08 4.08 0 0 0-4.074-4.074h-5.3a4.079 4.079 0 0 0-4.074 4.074v9.376a.556.556 0 0 1-1.111 0V5.185A5.191 5.191 0 0 1 22.35 0h5.3a5.191 5.191 0 0 1 5.185 5.185v9.376a.554.554 0 0 1-.555.555Z"/>
    <path fill="#293843" d="M26.741 11.24h-9.02a.556.556 0 0 1 0-1.111h9.02a.555.555 0 1 1 0 1.111Zm5.491 30.639H9.067a.555.555 0 1 1 0-1.111h23.164a.555.555 0 1 1 0 1.11Z"/>
  </g>
  <defs>
    <clipPath id="a">
      <path fill="#fff" d="M0 0h50v50H0z"/>
    </clipPath>
  </defs>
</svg>
