<svg xmlns="http://www.w3.org/2000/svg" width="50" height="50" fill="none" viewBox="0 0 50 50">
  <g clip-path="url(#a)">
    <path fill="#42E291" d="M25 40.281c8.44 0 15.281-6.841 15.281-15.281 0-8.44-6.841-15.281-15.281-15.281C16.56 9.719 9.719 16.56 9.719 25c0 8.44 6.842 15.281 15.281 15.281Z"/>
    <path fill="#293843" d="M19.453 35.985a.53.53 0 0 1-.467-.777L30.08 14.281a.53.53 0 0 1 .935.496L19.921 35.704a.531.531 0 0 1-.468.281Zm-.019-11.565A3.438 3.438 0 0 1 16 20.985v-3.55A3.438 3.438 0 0 1 19.434 14a3.439 3.439 0 0 1 3.435 3.434v3.55a3.44 3.44 0 0 1-3.435 3.435Zm0-9.361a2.379 2.379 0 0 0-2.376 2.376v3.55a2.379 2.379 0 0 0 2.376 2.376 2.379 2.379 0 0 0 2.376-2.376v-3.55a2.379 2.379 0 0 0-2.376-2.376Zm11.131 20.926a3.438 3.438 0 0 1-3.434-3.434V29a3.438 3.438 0 0 1 3.434-3.435A3.438 3.438 0 0 1 34 29v3.55a3.438 3.438 0 0 1-3.435 3.435Zm0-9.361A2.378 2.378 0 0 0 28.19 29v3.55a2.378 2.378 0 0 0 2.375 2.376 2.379 2.379 0 0 0 2.376-2.376V29a2.38 2.38 0 0 0-2.376-2.376Z"/>
    <path fill="#293843" d="M25 50a4.968 4.968 0 0 1-3.403-1.337 3.882 3.882 0 0 0-3.798-.867 4.997 4.997 0 0 1-6.132-2.953 3.879 3.879 0 0 0-3.046-2.43 4.998 4.998 0 0 1-4.243-5.32 3.88 3.88 0 0 0-1.69-3.51 5 5 0 0 1-1.515-6.635 3.88 3.88 0 0 0 0-3.896 4.999 4.999 0 0 1 1.514-6.635 3.88 3.88 0 0 0 1.69-3.51 4.998 4.998 0 0 1 4.244-5.321 3.88 3.88 0 0 0 3.046-2.43A5 5 0 0 1 17.8 2.203a3.88 3.88 0 0 0 3.798-.866 5 5 0 0 1 6.806 0 3.879 3.879 0 0 0 3.798.866 5 5 0 0 1 6.132 2.954 3.88 3.88 0 0 0 3.046 2.43 4.998 4.998 0 0 1 4.244 5.32 3.88 3.88 0 0 0 1.69 3.51 4.998 4.998 0 0 1 1.514 6.635 3.882 3.882 0 0 0 0 3.896 4.998 4.998 0 0 1-1.514 6.635 3.88 3.88 0 0 0-1.69 3.51 4.998 4.998 0 0 1-4.244 5.321 3.882 3.882 0 0 0-3.046 2.43 4.997 4.997 0 0 1-6.131 2.952 3.883 3.883 0 0 0-3.799.867A4.974 4.974 0 0 1 25 50Zm-6.051-3.49c1.247 0 2.472.467 3.407 1.341a3.885 3.885 0 0 0 5.288 0 4.99 4.99 0 0 1 4.889-1.115 3.882 3.882 0 0 0 4.764-2.295 4.993 4.993 0 0 1 3.92-3.126 3.884 3.884 0 0 0 3.297-4.134 4.991 4.991 0 0 1 2.176-4.518 3.884 3.884 0 0 0 1.177-5.156 4.995 4.995 0 0 1 0-5.014 3.884 3.884 0 0 0-1.177-5.155 4.993 4.993 0 0 1-2.176-4.518 3.885 3.885 0 0 0-3.297-4.134 4.994 4.994 0 0 1-3.92-3.127 3.882 3.882 0 0 0-4.764-2.294 4.996 4.996 0 0 1-4.889-1.116 3.884 3.884 0 0 0-5.288 0 4.993 4.993 0 0 1-4.888 1.116 3.883 3.883 0 0 0-4.765 2.294 4.993 4.993 0 0 1-3.92 3.127 3.883 3.883 0 0 0-3.296 4.134 4.994 4.994 0 0 1-2.176 4.518 3.884 3.884 0 0 0-1.177 5.155c.9 1.547.9 3.469 0 5.014a3.884 3.884 0 0 0 1.177 5.156 4.991 4.991 0 0 1 2.176 4.518 3.884 3.884 0 0 0 3.296 4.134 4.992 4.992 0 0 1 3.92 3.126 3.887 3.887 0 0 0 4.765 2.295 4.946 4.946 0 0 1 1.48-.227Z"/>
    <path fill="#293843" d="M25 43.615a18.574 18.574 0 0 1-12.468-4.792.555.555 0 1 1 .745-.825A17.467 17.467 0 0 0 25 42.504c9.652 0 17.504-7.852 17.504-17.504 0-9.652-7.852-17.504-17.504-17.504-9.652 0-17.504 7.852-17.504 17.504 0 2.39.473 4.706 1.405 6.883a.556.556 0 0 1-1.022.437A18.496 18.496 0 0 1 6.385 25c0-10.265 8.35-18.616 18.615-18.616 10.264 0 18.615 8.351 18.615 18.615 0 10.265-8.35 18.616-18.615 18.616Z"/>
  </g>
  <defs>
    <clipPath id="a">
      <path fill="#fff" d="M0 0h50v50H0z"/>
    </clipPath>
  </defs>
</svg>
