<svg xmlns="http://www.w3.org/2000/svg" width="50" height="50" fill="none" viewBox="0 0 50 50">
  <path fill="#42E291" d="M6.234 42.926c0 .464.376.84.84.84h13.12c-3.746-6.811-3.044-15.416 2.37-21.353 5.453-5.981 14.043-7.451 21.202-4.255V7.074a.84.84 0 0 0-.84-.84H7.074a.84.84 0 0 0-.84.84v35.852Z"/>
  <path fill="#293843" d="M35.593 43.27a7.685 7.685 0 0 1-4.926-1.789.51.51 0 1 1 .656-.783 6.665 6.665 0 0 0 4.27 1.55 6.662 6.662 0 0 0 6.653-6.655 6.662 6.662 0 0 0-6.654-6.654 6.662 6.662 0 0 0-6.654 6.654.51.51 0 1 1-1.022 0c0-4.233 3.443-7.676 7.676-7.676 4.233 0 7.677 3.443 7.677 7.676 0 4.233-3.443 7.677-7.676 7.677Z"/>
  <path fill="#293843" d="M35.6 48c-.232 0-.465-.007-.7-.02-6.277-.34-11.417-5.53-11.701-11.813-.276-6.104 3.94-11.496 9.869-12.72v-.486h-1.12a.51.51 0 0 1-.512-.511v-.889a2.926 2.926 0 0 1 2.923-2.922h2.469a2.926 2.926 0 0 1 2.922 2.922v.889a.51.51 0 0 1-.511.511h-1.12v.485a12.365 12.365 0 0 1 9.88 12.147c0 3.442-1.376 6.642-3.876 9.01A12.294 12.294 0 0 1 35.6 48Zm-1.51-24.176v.002a.51.51 0 0 1-.421.547c-5.646.962-9.708 6.012-9.449 11.749.26 5.764 4.976 10.525 10.736 10.839 3.161.169 6.17-.929 8.463-3.1a11.283 11.283 0 0 0 3.559-8.268c0-5.57-3.98-10.288-9.464-11.22a.51.51 0 0 1-.418-.585V22.45a.51.51 0 0 1 .511-.511h1.12v-.378c0-1.048-.852-1.9-1.9-1.9H34.36c-1.048 0-1.9.852-1.9 1.9v.378h1.12a.51.51 0 0 1 .511.511v1.374Z"/>
  <path fill="#293843" d="M32.564 39.724a.51.51 0 0 1-.391-.839l2.909-3.478v-3.87a.51.51 0 1 1 1.022 0v4.056a.51.51 0 0 1-.12.328l-3.028 3.62a.51.51 0 0 1-.392.183ZM47.489 24.28a.51.51 0 0 1-.511-.512V3.022H31.243a.511.511 0 1 1 0-1.022h16.246a.51.51 0 0 1 .511.511v21.257a.51.51 0 0 1-.511.511ZM25.36 48H2.511A.511.511 0 0 1 2 47.489V2.51c0-.28.229-.51.511-.51h11.135a.511.511 0 0 1 0 1.022H3.022v43.956H25.36a.51.51 0 1 1 0 1.022Z"/>
  <path fill="#293843" d="M31.243 15.507a.508.508 0 0 1-.305-.1L25 10.997l-5.938 4.408a.509.509 0 0 1-.815-.41V2.511c0-.282.229-.511.51-.511H25a.511.511 0 0 1 0 1.022h-5.731V13.98l5.426-4.029a.51.51 0 0 1 .61 0l5.427 4.03V2.51a.51.51 0 1 1 1.022 0v12.485a.512.512 0 0 1-.511.511ZM17.63 37.039H9.147a.511.511 0 1 1 0-1.023h8.483a.51.51 0 1 1 0 1.023Zm0 4.635H9.147a.511.511 0 1 1 0-1.022h8.483a.51.51 0 1 1 0 1.022Z"/>
</svg>
