<svg xmlns="http://www.w3.org/2000/svg" width="50" height="50" fill="none" viewBox="0 0 50 50">
  <path fill="#42E291" d="M25 33.373a8.482 8.482 0 1 0 0-16.965 8.482 8.482 0 0 0 0 16.965Z"/>
  <path fill="#293843" d="M25 50a.553.553 0 0 1-.192-.034C11.031 44.905 3.41 32.074 2.155 11.829a.556.556 0 0 1 .428-.576c6.299-1.464 11.875-3.762 16.574-6.83a.555.555 0 1 1 .607.93c-4.693 3.065-10.232 5.377-16.47 6.874 1.324 19.765 8.49 31.771 21.897 36.696A.555.555 0 0 1 25 50Z"/>
  <path fill="#293843" d="M25 50a.558.558 0 0 1-.556-.556v-13.43a.555.555 0 1 1 1.112 0V48.64c12.926-5.093 19.85-17.018 21.15-36.412C38.22 10.191 31.115 6.69 25.556 1.81v7.615a.556.556 0 0 1-1.112 0V.556A.555.555 0 0 1 25.38.15c5.642 5.279 13.056 9.015 22.038 11.103a.555.555 0 0 1 .428.575c-1.255 20.245-8.876 33.077-22.653 38.137A.56.56 0 0 1 25 50Z"/>
  <path fill="#293843" d="M25 36.57c-2.716 0-5.356-.959-7.435-2.699a.556.556 0 0 1 .713-.852A10.489 10.489 0 0 0 25 35.46c5.777 0 10.476-4.699 10.476-10.476 0-5.776-4.7-10.477-10.476-10.477-5.777 0-10.477 4.7-10.477 10.477a.556.556 0 0 1-1.11 0c0-6.39 5.198-11.588 11.587-11.588 6.39 0 11.587 5.198 11.587 11.588 0 6.39-5.198 11.587-11.587 11.587Z"/>
  <path fill="#293843" d="M24.288 29.26a.556.556 0 0 1-.416-.188l-3.613-4.105a.555.555 0 1 1 .834-.734l3.193 3.627 6.09-7.037a.556.556 0 0 1 .84.727l-6.508 7.518a.554.554 0 0 1-.417.193h-.003Z"/>
</svg>
