<svg xmlns="http://www.w3.org/2000/svg" width="98" height="18" fill="none" viewBox="0 0 98 18">
  <path fill="url(#a)" d="M8.308 1.658a.75.75 0 0 1 1.384 0l1.646 3.941a.75.75 0 0 0 .591.455l4.359.59a.75.75 0 0 1 .373 1.324l-3.356 2.739a.75.75 0 0 0-.257.75l1.073 4.635c.155.67-.599 1.178-1.162.783l-3.528-2.476a.75.75 0 0 0-.862 0l-3.528 2.476c-.563.395-1.317-.113-1.162-.783l1.073-4.635a.75.75 0 0 0-.257-.75L1.34 7.967a.75.75 0 0 1 .373-1.323l4.359-.59a.75.75 0 0 0 .592-.455l1.645-3.941Z"/>
  <path fill="url(#b)" d="M28.308 1.658a.75.75 0 0 1 1.384 0l1.645 3.941a.75.75 0 0 0 .592.455l4.359.59a.75.75 0 0 1 .373 1.324l-3.356 2.739a.75.75 0 0 0-.257.75l1.073 4.635c.155.67-.599 1.178-1.162.783l-3.528-2.476a.75.75 0 0 0-.862 0l-3.528 2.476c-.563.395-1.317-.113-1.162-.783l1.073-4.635a.75.75 0 0 0-.257-.75l-3.356-2.74a.75.75 0 0 1 .373-1.323l4.359-.59a.75.75 0 0 0 .591-.455l1.646-3.941Z"/>
  <path fill="url(#c)" d="M48.308 1.658a.75.75 0 0 1 1.384 0l1.645 3.941a.75.75 0 0 0 .592.455l4.359.59a.75.75 0 0 1 .373 1.324l-3.356 2.739a.75.75 0 0 0-.257.75l1.073 4.635c.155.67-.599 1.178-1.162.783l-3.528-2.476a.75.75 0 0 0-.862 0l-3.528 2.476c-.563.395-1.317-.113-1.162-.783l1.073-4.635a.75.75 0 0 0-.257-.75l-3.356-2.74a.75.75 0 0 1 .373-1.323l4.359-.59a.75.75 0 0 0 .592-.455l1.645-3.941Z"/>
  <path fill="url(#d)" d="M68.308 1.658a.75.75 0 0 1 1.384 0l1.646 3.941a.75.75 0 0 0 .591.455l4.359.59a.75.75 0 0 1 .373 1.324l-3.356 2.739a.75.75 0 0 0-.257.75l1.073 4.635c.155.67-.599 1.178-1.162.783l-3.528-2.476a.75.75 0 0 0-.862 0l-3.528 2.476c-.563.395-1.317-.113-1.162-.783l1.073-4.635a.75.75 0 0 0-.257-.75l-3.356-2.74a.75.75 0 0 1 .373-1.323l4.359-.59a.75.75 0 0 0 .591-.455l1.646-3.941Z"/>
  <path fill="url(#e)" d="M88.308 1.658a.75.75 0 0 1 1.384 0l1.646 3.941a.75.75 0 0 0 .591.455l4.359.59a.75.75 0 0 1 .373 1.324l-3.356 2.739a.75.75 0 0 0-.257.75l1.073 4.635c.155.67-.599 1.178-1.162.783l-3.528-2.476a.75.75 0 0 0-.862 0l-3.528 2.476c-.563.395-1.317-.113-1.162-.783l1.073-4.635a.75.75 0 0 0-.257-.75l-3.356-2.74a.75.75 0 0 1 .373-1.323l4.359-.59a.75.75 0 0 0 .591-.455l1.646-3.941Z"/>
  <defs>
    <linearGradient id="a" x1="6.545" x2="15.197" y1="5.727" y2="8.293" gradientUnits="userSpaceOnUse">
      <stop stop-color="#EDC948"/>
      <stop offset="1" stop-color="#F3A228"/>
    </linearGradient>
    <linearGradient id="b" x1="26.546" x2="35.197" y1="5.727" y2="8.293" gradientUnits="userSpaceOnUse">
      <stop stop-color="#EDC948"/>
      <stop offset="1" stop-color="#F3A228"/>
    </linearGradient>
    <linearGradient id="c" x1="46.545" x2="55.197" y1="5.727" y2="8.293" gradientUnits="userSpaceOnUse">
      <stop stop-color="#EDC948"/>
      <stop offset="1" stop-color="#F3A228"/>
    </linearGradient>
    <linearGradient id="d" x1="66.546" x2="75.197" y1="5.727" y2="8.293" gradientUnits="userSpaceOnUse">
      <stop stop-color="#EDC948"/>
      <stop offset="1" stop-color="#F3A228"/>
    </linearGradient>
    <linearGradient id="e" x1="86.546" x2="95.197" y1="5.727" y2="8.293" gradientUnits="userSpaceOnUse">
      <stop stop-color="#EDC948"/>
      <stop offset="1" stop-color="#F3A228"/>
    </linearGradient>
  </defs>
</svg>
