<svg width="46" height="41" viewBox="0 0 46 41" fill="none" xmlns="http://www.w3.org/2000/svg">
<path d="M22.9999 40.9805C32.9717 40.9805 41.0554 32.8967 41.0554 22.9249C41.0554 12.9531 32.9717 4.86938 22.9999 4.86938C13.0281 4.86938 4.94434 12.9531 4.94434 22.9249C4.94434 32.8967 13.0281 40.9805 22.9999 40.9805Z" fill="#42E291"/>
<path d="M33.6 30.9796H12.5495C12.2428 30.9796 11.9939 30.7312 11.9939 30.424V16.3451C11.9939 16.0379 12.2428 15.7896 12.5495 15.7896H33.6C33.9072 15.7896 34.1556 16.0379 34.1556 16.3451V30.424C34.1556 30.7312 33.9072 30.9796 33.6 30.9796ZM13.105 29.8684H33.0445V16.9007H13.105V29.8684Z" fill="#293843"/>
<path d="M23.0745 26.3469C22.9417 26.3469 22.8089 26.2996 22.7033 26.2046L15.6367 19.8624C15.4083 19.6574 15.3895 19.3063 15.5945 19.078C15.7983 18.8502 16.15 18.8296 16.3789 19.0358L23.0745 25.0446L29.77 19.0358C29.9978 18.8308 30.3495 18.8491 30.5545 19.078C30.7594 19.3063 30.7406 19.6574 30.5122 19.8624L23.4456 26.2046C23.34 26.2996 23.2072 26.3469 23.0745 26.3469Z" fill="#293843"/>
<path d="M10.3122 5.09722C10.1361 5.09722 9.96335 5.01389 9.85501 4.85833C9.68057 4.60611 9.74279 4.26 9.99501 4.085C13.8467 1.41278 18.3695 0 23.0745 0C27.0561 0 30.9795 1.035 34.4195 2.99278C34.6861 3.14444 34.7795 3.48389 34.6278 3.75056C34.4761 4.01722 34.1345 4.11 33.8706 3.95889C30.5967 2.09611 26.8639 1.11167 23.0745 1.11167C18.5967 1.11167 14.2928 2.45556 10.6278 4.99833C10.5317 5.065 10.4211 5.09722 10.3122 5.09722Z" fill="#293843"/>
<path d="M8.11667 40.224C7.98445 40.224 7.85223 40.1773 7.74612 40.0817C2.88889 35.7273 0.102783 29.4912 0.102783 22.9723C0.102783 22.6656 0.351672 22.4167 0.658339 22.4167C0.965005 22.4167 1.21389 22.6656 1.21389 22.9723C1.21389 29.1762 3.86501 35.1112 8.48778 39.2556C8.71612 39.4601 8.73556 39.8112 8.53056 40.0401C8.42112 40.1617 8.26945 40.224 8.11667 40.224Z" fill="#293843"/>
<path d="M38.0295 40.2262C37.8772 40.2262 37.7256 40.164 37.6156 40.0412C37.4111 39.8129 37.43 39.4617 37.6589 39.2567C41.5011 35.814 44.01 31.119 44.7228 26.0362C44.7656 25.7323 45.0461 25.519 45.35 25.5629C45.6539 25.6051 45.8661 25.8862 45.8233 26.1901C45.0739 31.5317 42.4378 36.4662 38.4006 40.0845C38.2939 40.1795 38.1617 40.2262 38.0295 40.2262Z" fill="#293843"/>
</svg>
