<svg width="40" height="39" viewBox="0 0 40 39" fill="none" xmlns="http://www.w3.org/2000/svg">
<path d="M8.91001 20.5373L14.4724 30.1716C15.2609 31.5374 16.7181 32.3787 18.2952 32.3787H29.4199C30.9969 32.3787 32.4542 31.5374 33.2427 30.1716L38.8051 20.5373C39.5936 19.1715 39.5936 17.4888 38.8051 16.1231L28.6292 0L26.9774 3.20262C26.6355 3.86535 25.9522 4.28178 25.2065 4.28178H18.2953C16.7183 4.28178 15.261 5.12311 14.4724 6.48889L8.91008 16.1231C8.12154 17.4889 8.12154 19.1716 8.91001 20.5373Z" fill="#13163F"/>
<path d="M30.4865 22.8769L24.9241 32.5111C24.1356 33.8769 22.6784 34.7182 21.1013 34.7182H14.19C13.4443 34.7182 12.761 35.1347 12.4192 35.7974L10.7674 39L0.591405 22.8769C-0.197135 21.5111 -0.197135 19.8284 0.591405 18.4627L6.15377 8.82841C6.94231 7.46264 8.39952 6.62131 9.9766 6.62131H21.1013C22.6783 6.62131 24.1356 7.46264 24.9241 8.82841L30.4865 18.4627C31.2749 19.8284 31.2749 21.5111 30.4865 22.8769Z" fill="#1C77CB"/>
<path fill-rule="evenodd" clip-rule="evenodd" d="M21.1016 6.62109C22.6784 6.62125 24.1354 7.46264 24.9239 8.82812L30.4864 18.4629C31.2748 19.8286 31.2748 21.5112 30.4864 22.877L25.0001 32.3789H18.295C16.7181 32.3788 15.2612 31.5374 14.4727 30.1719L8.91021 20.5371C8.12177 19.1714 8.12168 17.4888 8.91021 16.123L14.3965 6.62109H21.1016Z" fill="black" fill-opacity="0.2"/>
<path d="M9.66032 25.5598C8.35447 24.0877 7.66 22.1726 7.7188 20.2056C7.7776 18.2387 8.58523 16.3684 9.97668 14.977C11.3681 13.5855 13.2384 12.7779 15.2053 12.7191C17.1723 12.6603 19.0874 13.3548 20.5595 14.6606L9.66032 25.5598ZM10.4402 26.3397C11.9123 27.6456 13.8275 28.34 15.7944 28.2812C17.7613 28.2224 19.6316 27.4148 21.023 26.0233C22.4145 24.6319 23.2221 22.7616 23.2809 20.7947C23.3397 18.8278 22.6452 16.9126 21.3394 15.4405L10.4402 26.3397Z" fill="white"/>
</svg>
