<svg width="108" height="50" viewBox="0 0 108 50" fill="none" xmlns="http://www.w3.org/2000/svg">
<g clip-path="url(#clip0_8714_7616)">
<path d="M7.45856 24.9986C7.45856 29.2772 10.111 32.9248 13.8448 34.3572V15.6414C10.1103 17.0738 7.45856 20.7207 7.45856 24.9986ZM17.3475 15C17.0737 15 16.8027 15.0097 16.5344 15.0297V15.7331H16.5848C20.3537 15.7607 23.3882 18.6669 23.3613 22.2248C23.3365 25.7662 20.2827 28.6179 16.5358 28.6145V34.9683C16.8027 34.991 17.0744 35 17.3482 35C22.8075 35 27.2379 30.5221 27.2379 24.9986C27.2379 19.4759 22.8075 15 17.3482 15H17.3475ZM36.333 27.3324H33.1468L32.5882 28.9993H31.1841L33.9137 20.9993H35.5965L38.3041 28.9993H36.8889L36.333 27.3324ZM35.931 26.1262L34.7386 22.5779L33.5454 26.1262H35.931ZM42.493 23.1634H43.853V29H42.4937V28.3241H42.4489C42.0813 28.831 41.5799 29.1469 40.811 29.1469C39.6413 29.1469 38.8834 28.291 38.8834 26.9841V23.1641H40.2434V26.8372C40.2434 27.491 40.5551 27.9641 41.302 27.9641C42.0813 27.9641 42.4944 27.4124 42.4944 26.7469V23.1641H42.493V23.1634ZM46.1386 27.3097C46.2282 27.8269 46.573 28.1434 47.2972 28.1434C47.9661 28.1434 48.3454 27.8607 48.3454 27.3779C48.3454 26.9834 48.2006 26.7462 47.5765 26.6676L46.5399 26.5434C45.3592 26.4083 44.8689 25.8441 44.8689 24.9324C44.8689 23.8172 45.8048 23.0179 47.253 23.0179C48.7682 23.0179 49.5041 23.9076 49.5717 24.7862H48.2337C48.1668 24.3138 47.833 24.0207 47.2317 24.0207C46.6075 24.0207 46.2061 24.3138 46.2061 24.7648C46.2061 25.1366 46.4061 25.351 47.0751 25.4297L48.1006 25.5538C49.2372 25.6883 49.6834 26.2186 49.6834 27.1876C49.6834 28.3931 48.6468 29.1469 47.2875 29.1469C45.7165 29.1469 44.8806 28.3703 44.7703 27.3103L46.1386 27.3097ZM51.1634 24.1772H50.0606V23.1634H51.1758V21H52.5234V23.1628H53.8496V24.1766H52.5234V27.1731C52.5234 27.7034 52.7903 27.9179 53.3041 27.9179H53.8606V28.9993H53.0696C51.7875 28.9993 51.1634 28.4131 51.1634 27.2641V24.1772ZM56.3668 28.9993H55.0068V23.1634H56.3668V24.0428H56.4117C56.6903 23.4007 57.1579 23.1634 57.6482 23.1634H58.3061V24.3807H57.7048C56.802 24.3807 56.3675 24.8193 56.3675 25.891L56.3668 28.9993ZM60.4889 29.1462C59.3861 29.1462 58.6399 28.4924 58.6399 27.4C58.6399 26.2517 59.5089 25.8117 60.4565 25.6876L61.682 25.529C62.1496 25.4848 62.2613 25.2703 62.2613 24.9324C62.2613 24.4359 61.9379 24.0538 61.2586 24.0538C60.5675 24.0538 60.2006 24.4366 60.1441 24.9779H58.7627C58.7958 23.9855 59.6206 23.0179 61.2248 23.0179C62.7399 23.0179 63.6316 23.9186 63.6316 25.2483V27.9972C63.6316 28.3586 63.6875 28.7186 63.7544 29H62.3503C62.3131 28.7502 62.2947 28.498 62.2951 28.2455H62.2613C61.9606 28.751 61.3248 29.1462 60.4889 29.1462ZM61.5372 26.3186L60.9351 26.4531C60.3668 26.5772 60.011 26.8145 60.011 27.3428C60.011 27.8738 60.322 28.1428 60.9241 28.1428C61.6268 28.1428 62.2723 27.6814 62.2723 26.9152V26.0021C62.1054 26.1717 61.8385 26.2503 61.5372 26.3186ZM64.8241 27.4221V20.5945H66.1834V27.3324C66.1834 27.6931 66.3399 27.9186 66.7406 27.9186H67.1868V28.9993H66.4737C65.4144 28.9993 64.8241 28.3917 64.8241 27.4221ZM69.6151 21.3379C69.6151 21.8103 69.2468 22.1717 68.7792 22.1717C68.6691 22.1734 68.5598 22.153 68.4577 22.1116C68.3556 22.0703 68.2629 22.0089 68.185 21.9311C68.107 21.8533 68.0455 21.7607 68.004 21.6587C67.9625 21.5567 67.9419 21.4474 67.9434 21.3372C67.9434 20.8648 68.3117 20.5034 68.7792 20.5034C69.2468 20.5034 69.6151 20.8648 69.6151 21.3379ZM69.4585 23.1634V29H68.0985V23.1641H69.4585V23.1634ZM72.2565 29.1462C71.1537 29.1462 70.4068 28.4924 70.4068 27.4C70.4068 26.2517 71.2758 25.8117 72.2241 25.6876L73.4489 25.529C73.9172 25.4848 74.0282 25.2703 74.0282 24.9324C74.0282 24.4359 73.7054 24.0538 73.0261 24.0538C72.3344 24.0538 71.9675 24.4366 71.9117 24.9779H70.5296C70.5634 23.9855 71.3882 23.0179 72.9917 23.0179C74.5075 23.0179 75.3992 23.9186 75.3992 25.2483V27.9972C75.3992 28.3586 75.4544 28.7186 75.522 29H74.1179C74.0807 28.7502 74.0622 28.498 74.0627 28.2455H74.0282C73.7268 28.751 73.0923 29.1462 72.2565 29.1462ZM73.3041 26.3186L72.7027 26.4531C72.1337 26.5772 71.7779 26.8145 71.7779 27.3428C71.7779 27.8738 72.0903 28.1428 72.6916 28.1428C73.3937 28.1428 74.0399 27.6814 74.0399 26.9152V26.0021C73.8723 26.1717 73.6041 26.2503 73.3041 26.3186ZM82.2172 21C83.922 21 85.0027 21.9793 85.0027 23.5903C85.0027 25.2359 83.911 26.2041 82.2172 26.2041H80.222V29H78.7854V21H82.2172ZM83.5434 23.5917C83.5434 22.6 82.942 22.1834 81.9503 22.1834H80.2234V25.0228H81.9503C82.942 25.0228 83.5434 24.6276 83.5434 23.5917ZM88.0675 23.0276C89.7392 23.0276 90.8537 24.2338 90.8537 26.0924C90.8537 27.951 89.7392 29.1455 88.0675 29.1455C86.3965 29.1455 85.282 27.951 85.282 26.0924C85.282 24.2338 86.3965 23.0276 88.0675 23.0276ZM89.471 25.8566C89.471 24.7634 88.9358 24.1214 88.0668 24.1214C87.1972 24.1214 86.6627 24.7634 86.6627 25.8566V26.3297C86.6627 27.4221 87.1972 28.0538 88.0668 28.0538C88.9358 28.0538 89.471 27.4221 89.471 26.3297V25.8566ZM92.8254 27.3097C92.9144 27.8269 93.2592 28.1434 93.9841 28.1434C94.653 28.1434 95.0316 27.8607 95.0316 27.3779C95.0316 26.9834 94.8868 26.7462 94.2634 26.6676L93.2268 26.5434C92.0461 26.4083 91.5551 25.8441 91.5551 24.9324C91.5551 23.8172 92.491 23.0179 93.9399 23.0179C95.4551 23.0179 96.1903 23.9076 96.2579 24.7862H94.9206C94.8537 24.3138 94.5192 24.0207 93.9179 24.0207C93.2937 24.0207 92.8923 24.3138 92.8923 24.7648C92.8923 25.1366 93.093 25.351 93.762 25.4297L94.7875 25.5538C95.9234 25.6883 96.3696 26.2186 96.3696 27.1876C96.3696 28.3931 95.333 29.1469 93.9744 29.1469C92.4027 29.1469 91.5668 28.3703 91.4565 27.3103L92.8254 27.3097ZM97.8503 24.1772H96.7475V23.1634H97.862V21H99.2096V23.1628H100.536V24.1766H99.2096V27.1731C99.2096 27.7034 99.4772 27.9179 99.9903 27.9179H100.547V28.9993H99.7558C98.4744 28.9993 97.8503 28.4131 97.8503 27.2641V24.1772Z" fill="#DC1928"/>
</g>
<defs>
<clipPath id="clip0_8714_7616">
<rect width="93.1034" height="20" fill="white" transform="translate(7.45856 15)"/>
</clipPath>
</defs>
</svg>
