<svg width="101" height="50" viewBox="0 0 101 50" fill="none" xmlns="http://www.w3.org/2000/svg">
<g clip-path="url(#clip0_8714_7628)">
<path d="M16.6817 14.0782L8.03914 18.8488L17.7267 24.3412C17.7732 24.3694 17.812 24.4088 17.8395 24.4557C17.8669 24.5026 17.8823 24.5557 17.8841 24.61V32.86C17.8821 32.9147 17.8664 32.968 17.8384 33.0149C17.8104 33.0619 17.7711 33.1011 17.7239 33.1289L17.2056 33.4162C17.1577 33.4407 17.1046 33.4532 17.0509 33.4527H17.0406C16.9836 33.4556 16.9268 33.444 16.8756 33.419L16.3572 33.1295C16.3108 33.1012 16.2722 33.0618 16.2447 33.0149C16.2172 32.968 16.2018 32.9151 16.1998 32.8607V25.5045C16.1962 25.4762 16.1867 25.4489 16.1721 25.4244C16.1574 25.3999 16.1378 25.3787 16.1145 25.3622L7.56957 20.5146L7.56201 30.1568C7.5689 30.276 7.60357 30.3919 7.66326 30.4953C7.72295 30.5986 7.80599 30.6866 7.90576 30.7522L16.7058 35.916C16.8105 35.9707 16.9269 35.9993 17.045 35.9993C17.1632 35.9993 17.2796 35.9707 17.3843 35.916L26.0654 30.7446C26.1639 30.6777 26.2456 30.589 26.3043 30.4854C26.363 30.3818 26.3969 30.266 26.4036 30.1472V20.4115L20.6245 23.8861C20.5779 23.9115 20.5256 23.9247 20.4726 23.9246C20.4154 23.9258 20.3591 23.9105 20.3103 23.8806L19.8071 23.5678C19.7622 23.5369 19.7251 23.4959 19.6987 23.4482C19.6724 23.4005 19.6574 23.3473 19.6551 23.2928V22.6954C19.6578 22.6412 19.6735 22.5885 19.7009 22.5417C19.7283 22.4949 19.7666 22.4554 19.8126 22.4265H19.8181C19.8375 22.3992 19.862 22.3759 19.8903 22.3578L25.8337 18.7828L17.3774 14.0824C17.271 14.0282 17.1531 14.0007 17.0337 14.0019C16.9145 13.999 16.7964 14.0257 16.6899 14.0796" fill="url(#paint0_linear_8714_7628)"/>
<path d="M51.606 28.4774H51.5985C51.4318 28.4787 51.2667 28.4444 51.1144 28.3767C50.9621 28.3089 50.826 28.2094 50.7153 28.0848C50.6046 27.9602 50.5219 27.8133 50.4726 27.6541C50.4234 27.4948 50.4088 27.3269 50.4297 27.1615V18.8462H48.3191V27.2976C48.3191 29.6021 49.6095 30.3556 51.6095 30.3659L51.606 28.4774Z" fill="#414042"/>
<path d="M38.7621 22.8303C38.0896 22.421 37.3118 22.2181 36.525 22.2467C35.9735 22.2199 35.4226 22.3088 34.9076 22.5078C34.3925 22.7068 33.9249 23.0114 33.5347 23.4021C33.1446 23.7927 32.8405 24.2607 32.6421 24.7759C32.4437 25.2912 32.3554 25.8422 32.3828 26.3937C32.3483 26.9467 32.4326 27.5007 32.6302 28.0184C32.8277 28.5361 33.1339 29.0055 33.528 29.395C33.9222 29.7845 34.3952 30.085 34.9152 30.2763C35.4353 30.4677 35.9903 30.5454 36.5429 30.5042C37.3459 30.5245 38.1388 30.3225 38.8343 29.9205V27.9185C38.2701 28.3753 37.5665 28.6252 36.8406 28.6267C36.5338 28.6507 36.2254 28.6089 35.9361 28.5042C35.6468 28.3995 35.3832 28.2342 35.1628 28.0195C34.9425 27.8047 34.7705 27.5454 34.6583 27.2589C34.5462 26.9723 34.4966 26.6652 34.5127 26.3579C34.4919 26.0588 34.5356 25.7588 34.6409 25.4781C34.7463 25.1974 34.9107 24.9427 35.1232 24.7311C35.3356 24.5196 35.5911 24.3562 35.8722 24.2521C36.1533 24.148 36.4536 24.1055 36.7526 24.1277C37.4883 24.1145 38.203 24.3729 38.7601 24.8537L38.7621 22.8303ZM43.4949 22.2467C42.679 22.2467 41.8815 22.4886 41.2031 22.9418C40.5248 23.3951 39.9961 24.0393 39.6839 24.7931C39.3717 25.5468 39.2899 26.3762 39.4491 27.1764C39.6083 27.9766 40.0012 28.7116 40.578 29.2885C41.1549 29.8654 41.8899 30.2582 42.6901 30.4174C43.4903 30.5766 44.3197 30.4949 45.0734 30.1827C45.8272 29.8704 46.4714 29.3417 46.9247 28.6634C47.3779 27.985 47.6199 27.1875 47.6199 26.3717C47.6429 25.8238 47.552 25.2771 47.3528 24.7662C47.1536 24.2554 46.8507 23.7914 46.4629 23.4036C46.0752 23.0159 45.6112 22.7129 45.1003 22.5137C44.5894 22.3146 44.0427 22.2236 43.4949 22.2467ZM43.4949 28.6576C42.3488 28.6576 41.5204 27.7886 41.5204 26.373C41.5204 24.9575 42.3454 24.0885 43.4949 24.0885C44.6444 24.0885 45.4693 24.9575 45.4693 26.373C45.4693 27.7886 44.6444 28.6576 43.4949 28.6576ZM56.1222 29.7755C56.9009 30.214 57.7835 30.4344 58.6769 30.4135C60.5091 30.4135 61.7968 29.6332 61.7968 27.9158C61.7968 26.5002 61.1093 25.7192 59.0819 25.3459C58.3414 25.1699 58.0602 24.9568 58.0602 24.5498C58.0602 24.1792 58.3593 23.8781 59.064 23.8781C59.8713 23.892 60.6539 24.1587 61.3018 24.6405V22.7451C60.6005 22.3417 59.8013 22.1397 58.9925 22.1614C57.3026 22.1614 55.9964 22.9575 55.9964 24.6949C55.9964 26.129 56.7368 26.8371 58.5154 27.1582C59.3796 27.3342 59.715 27.5287 59.715 28.0086C59.715 28.5036 59.2737 28.6961 58.6233 28.6961C57.7195 28.6573 56.8478 28.3494 56.1201 27.812V29.7727L56.1222 29.7755ZM52.695 30.3255H54.8166V22.4062H52.695V30.3255ZM53.7558 19.2437C53.5449 19.2427 53.3384 19.3044 53.1625 19.4209C52.9866 19.5374 52.8493 19.7035 52.7679 19.8981C52.6865 20.0928 52.6647 20.3072 52.7053 20.5142C52.7458 20.7212 52.8469 20.9116 52.9958 21.0611C53.1446 21.2106 53.3345 21.3126 53.5413 21.3541C53.7481 21.3956 53.9627 21.3748 54.1577 21.2942C54.3527 21.2137 54.5194 21.0772 54.6367 20.9018C54.754 20.7265 54.8166 20.5203 54.8166 20.3093C54.817 20.1697 54.7898 20.0313 54.7367 19.9022C54.6836 19.773 54.6055 19.6556 54.507 19.5567C54.4085 19.4577 54.2914 19.3791 54.1626 19.3254C54.0337 19.2717 53.8955 19.2439 53.7558 19.2437ZM89.1462 22.2467C88.3304 22.2467 87.5329 22.4886 86.8545 22.9418C86.1762 23.3951 85.6475 24.0393 85.3353 24.7931C85.023 25.5468 84.9414 26.3762 85.1005 27.1764C85.2597 27.9766 85.6526 28.7116 86.2295 29.2885C86.8063 29.8654 87.5413 30.2582 88.3415 30.4174C89.1416 30.5766 89.9711 30.4949 90.7248 30.1827C91.4786 29.8704 92.1228 29.3417 92.5761 28.6634C93.0293 27.985 93.2712 27.1875 93.2712 26.3717C93.294 25.8239 93.203 25.2773 93.0038 24.7665C92.8045 24.2557 92.5015 23.7918 92.1138 23.4041C91.7261 23.0164 91.2622 22.7134 90.7514 22.5141C90.2406 22.3149 89.694 22.2238 89.1462 22.2467ZM89.1462 28.6576C88.0002 28.6576 87.1724 27.7886 87.1724 26.373C87.1724 24.9575 87.9974 24.0885 89.1462 24.0885C90.295 24.0885 91.1208 24.9575 91.1208 26.373C91.1208 27.7886 90.2923 28.6576 89.1462 28.6576ZM62.5091 29.7755C63.2878 30.214 64.1704 30.4344 65.0638 30.4135C66.8988 30.4135 68.1837 29.6332 68.1837 27.9158C68.1837 26.5002 67.4962 25.7192 65.4687 25.3459C64.7283 25.1699 64.4471 24.9568 64.4471 24.5498C64.4471 24.1792 64.7462 23.8781 65.4536 23.8781C66.2607 23.8921 67.0431 24.1588 67.6907 24.6405V22.7451C66.9894 22.3416 66.1903 22.1396 65.3814 22.1614C63.6909 22.1614 62.3853 22.9575 62.3853 24.6949C62.3853 26.129 63.1264 26.8371 64.9043 27.1582C65.7692 27.3342 66.104 27.5287 66.104 28.0086C66.104 28.5036 65.6626 28.6961 65.0122 28.6961C64.1084 28.6575 63.2367 28.3496 62.5091 27.812V29.7755ZM69.0919 30.3255H71.2128V22.4062H69.0953L69.0919 30.3255ZM70.1527 19.2437C69.9417 19.2427 69.7352 19.3044 69.5593 19.4209C69.3835 19.5374 69.2461 19.7035 69.1647 19.8981C69.0833 20.0928 69.0616 20.3072 69.1021 20.5142C69.1427 20.7212 69.2438 20.9116 69.3927 21.0611C69.5415 21.2106 69.7314 21.3126 69.9382 21.3541C70.1451 21.3956 70.3595 21.3748 70.5545 21.2942C70.7495 21.2137 70.9163 21.0772 71.0336 20.9018C71.1509 20.7265 71.2135 20.5203 71.2135 20.3093C71.2141 20.0273 71.1026 19.7567 70.9037 19.5569C70.7048 19.3571 70.4346 19.2444 70.1527 19.2437ZM82.0416 25.3844C82.0416 24.5519 81.6731 24.127 80.844 24.127C80.3352 24.12 79.8308 24.2227 79.3652 24.4281C79.4701 24.6866 79.5236 24.9631 79.5226 25.2421V30.322H77.3914V25.3844C77.3914 24.5519 77.0043 24.127 76.1937 24.127C75.7459 24.1241 75.3003 24.1897 74.8724 24.3215V30.3227H72.759V22.9417C73.8886 22.5028 75.0878 22.2699 76.2996 22.2542C77.0708 22.2145 77.8333 22.4321 78.4673 22.873C79.2957 22.4675 80.2056 22.2559 81.1279 22.2542C82.9966 22.2542 84.1756 22.9802 84.1756 25.2985V30.3241H82.0444V25.3865L82.0416 25.3844Z" fill="#414042"/>
</g>
<defs>
<linearGradient id="paint0_linear_8714_7628" x1="7.63738" y1="30.6539" x2="27.1378" y2="21.7538" gradientUnits="userSpaceOnUse">
<stop stop-color="#F37021"/>
<stop offset="0.168" stop-color="#F47421"/>
<stop offset="0.387" stop-color="#F58022"/>
<stop offset="0.636" stop-color="#F79323"/>
<stop offset="0.903" stop-color="#FBAD26"/>
<stop offset="1" stop-color="#FDB927"/>
</linearGradient>
<clipPath id="clip0_8714_7628">
<rect width="85.7079" height="22" fill="white" transform="translate(7.56201 14)"/>
</clipPath>
</defs>
</svg>
