<svg width="42" height="50" viewBox="0 0 42 50" fill="none" xmlns="http://www.w3.org/2000/svg">
<g clip-path="url(#clip0_8714_7518)">
<path d="M11.2521 35.765C8.90851 33.8462 7.67059 31.0842 7.67059 27.7853V12.1043C11.3715 10.1425 15.8528 9.14819 20.9906 9.14819C26.1285 9.14819 30.6103 10.1425 34.3106 12.1043V27.7853C34.3106 31.0842 33.0727 33.8442 30.7291 35.765C28.585 37.5223 21.7725 40.5117 20.9901 40.8518C20.2087 40.5117 13.3962 37.5228 11.2521 35.765Z" fill="#330000"/>
<path d="M33.5813 11.9201C31.869 11.7612 30.0903 11.6562 28.2785 11.6562C21.5591 11.6562 14.3554 13.1006 8.39998 18.5628V27.8992C8.39998 30.94 9.52451 33.4793 11.6612 35.2208C13.5478 36.7558 19.3536 39.3851 20.9906 40.1076C22.6069 39.396 28.3979 36.8014 30.3176 35.2208C32.4676 33.4491 33.5813 30.9688 33.5813 27.8992V11.9201ZM9.63097 26.9277V19.3452H12.0419V27.0346C12.0419 27.719 12.2073 28.7321 13.313 28.7321C13.7137 28.7483 14.1102 28.6449 14.4519 28.435V19.3452H16.8599V29.8101C15.7724 30.4888 14.5065 30.8262 13.2254 30.7786C10.8387 30.7786 9.6285 29.4833 9.6285 26.9277M20.5133 35.6798H18.1008V19.9592C19.0767 19.3598 20.2076 19.0613 21.3521 19.1011C24.2315 19.1011 25.8136 21.2857 25.8136 24.8019C25.8136 28.3181 24.2785 30.737 21.5997 30.737C21.233 30.7436 20.8673 30.6974 20.5138 30.5999L20.5133 35.6798ZM20.5133 28.6286C20.7638 28.7224 21.0287 28.7717 21.2961 28.7742C22.6826 28.7742 23.3471 27.5001 23.3471 24.8623C23.3471 22.1602 22.7673 21.0426 21.3665 21.0426C21.0726 21.0402 20.7814 21.0994 20.5118 21.2164L20.5133 28.6286ZM26.3602 22.2449C26.3754 21.3997 26.7241 20.5949 27.3304 20.0059C27.9368 19.4169 28.7514 19.0916 29.5967 19.1011C30.5428 19.0509 31.4774 19.3275 32.2438 19.8844V21.9824C31.6757 21.3897 30.9032 21.0356 30.0834 20.9921C29.3996 20.9862 28.688 21.2867 28.6647 22.1444C28.6415 23.0223 29.3515 23.3689 30.2493 23.8968C32.2641 25.0812 32.6538 26.1458 32.6073 27.5526C32.5612 29.095 31.4981 30.7796 29.1149 30.7796C28.1803 30.7691 27.2653 30.5108 26.4632 30.0309V27.8091C27.1004 28.3848 27.9121 28.7304 28.7687 28.7905C29.6536 28.795 30.2359 28.2879 30.2151 27.4466C30.1968 26.6895 29.7695 26.278 28.7083 25.6546C26.7192 24.488 26.3617 23.5279 26.3583 22.2449M10.854 36.2042C8.41335 34.2052 7.12592 31.3327 7.12592 27.8992V11.577C10.9778 9.5349 15.6428 8.5 20.9906 8.5C26.3384 8.5 31.0034 9.5349 34.8553 11.577V27.8992C34.8553 31.3327 33.5679 34.2052 31.1272 36.2047C28.896 38.0338 21.8047 41.145 20.9906 41.499C20.1766 41.145 13.0853 38.0338 10.854 36.2042ZM29.8408 39.6253V41.042H30.0963V40.4507H30.1324C30.1517 40.4795 30.5172 41.042 30.5172 41.042H30.8267C30.8267 41.042 30.4384 40.474 30.3988 40.4205C30.4873 40.4054 30.5676 40.3592 30.625 40.2902C30.6825 40.2212 30.7134 40.134 30.7123 40.0442C30.7135 39.9844 30.7016 39.925 30.6776 39.8702C30.6535 39.8154 30.6178 39.7665 30.573 39.7269C30.5281 39.6873 30.4752 39.6579 30.4178 39.6408C30.3605 39.6236 30.3001 39.6192 30.2409 39.6278L29.8408 39.6253ZM30.2131 39.8323C30.4305 39.8323 30.4607 39.9387 30.4607 40.0303C30.4607 40.163 30.4038 40.2527 30.13 40.2527H30.0968V39.8313L30.2131 39.8323ZM31.2134 40.3373C31.213 40.5269 31.1564 40.7121 31.0508 40.8696C30.9453 41.027 30.7954 41.1497 30.6201 41.222C30.4449 41.2943 30.2522 41.3131 30.0663 41.2759C29.8804 41.2388 29.7097 41.1474 29.5757 41.0132C29.4417 40.8791 29.3505 40.7083 29.3135 40.5224C29.2765 40.3364 29.2955 40.1437 29.368 39.9685C29.4405 39.7934 29.5633 39.6436 29.7209 39.5382C29.8784 39.4328 30.0637 39.3764 30.2532 39.3762C30.3795 39.3761 30.5044 39.4009 30.6211 39.4491C30.7377 39.4974 30.8436 39.5682 30.9328 39.6575C31.022 39.7468 31.0927 39.8528 31.1408 39.9695C31.189 40.0861 31.2136 40.2111 31.2134 40.3373ZM30.2503 39.1712C30.0202 39.1715 29.7953 39.24 29.6041 39.368C29.4129 39.496 29.2639 39.6778 29.176 39.8904C29.0881 40.1031 29.0651 40.337 29.11 40.5627C29.155 40.7883 29.2657 40.9956 29.4284 41.1584C29.5911 41.3211 29.7983 41.432 30.024 41.477C30.2496 41.522 30.4836 41.4992 30.6962 41.4113C30.9089 41.3235 31.0908 41.1746 31.2189 40.9834C31.3469 40.7923 31.4155 40.5674 31.4159 40.3373C31.4155 40.0283 31.2926 39.732 31.0741 39.5134C30.8556 39.2948 30.5593 39.1718 30.2503 39.1712Z" fill="#FFBE00"/>
</g>
<defs>
<clipPath id="clip0_8714_7518">
<rect width="27.7294" height="33" fill="white" transform="translate(7.12592 8.5)"/>
</clipPath>
</defs>
</svg>
