<svg width="86" height="86" viewBox="0 0 86 86" fill="none" xmlns="http://www.w3.org/2000/svg">
<rect width="86" height="86" rx="8" fill="#616EDE"/>
<path fill-rule="evenodd" clip-rule="evenodd" d="M32.1244 21.1916H50.7529V37.5181H47.6444V24.3354H35.2329V37.5181H32.1244V21.1916Z" fill="#2D3471" fill-opacity="0.5"/>
<path d="M35.2307 22.7635C35.2307 23.6304 34.5359 24.3331 33.6787 24.3331C32.8216 24.3331 32.1267 23.6304 32.1267 22.7635C32.1267 21.8966 32.8216 21.1939 33.6787 21.1939C34.5359 21.1939 35.2307 21.8966 35.2307 22.7635Z" fill="#2D3471" fill-opacity="0.5"/>
<path fill-rule="evenodd" clip-rule="evenodd" d="M33.6787 21.1893C32.8191 21.1893 32.1222 21.8941 32.1222 22.7635C32.1222 23.6329 32.8191 24.3377 33.6787 24.3377C34.5384 24.3377 35.2352 23.6329 35.2352 22.7635C35.2352 21.8941 34.5384 21.1893 33.6787 21.1893ZM38.3392 22.7635C38.3392 25.3667 36.2527 27.477 33.6787 27.477C31.1048 27.477 29.0182 25.3667 29.0182 22.7635C29.0182 20.1603 31.1048 18.05 33.6787 18.05C36.2527 18.05 38.3392 20.1603 38.3392 22.7635Z" fill="#2D3471" fill-opacity="0.5"/>
<path d="M50.7507 22.7635C50.7507 23.6304 50.0559 24.3331 49.1987 24.3331C48.3416 24.3331 47.6467 23.6304 47.6467 22.7635C47.6467 21.8966 48.3416 21.1939 49.1987 21.1939C50.0559 21.1939 50.7507 21.8966 50.7507 22.7635Z" fill="#2D3471" fill-opacity="0.5"/>
<path fill-rule="evenodd" clip-rule="evenodd" d="M49.1987 21.1893C48.3391 21.1893 47.6422 21.8941 47.6422 22.7635C47.6422 23.6329 48.3391 24.3377 49.1987 24.3377C50.0584 24.3377 50.7552 23.6329 50.7552 22.7635C50.7552 21.8941 50.0584 21.1893 49.1987 21.1893ZM53.8592 22.7635C53.8592 25.3667 51.7726 27.477 49.1987 27.477C46.6248 27.477 44.5382 25.3667 44.5382 22.7635C44.5382 20.1603 46.6248 18.05 49.1987 18.05C51.7726 18.05 53.8592 20.1603 53.8592 22.7635Z" fill="#2D3471" fill-opacity="0.5"/>
<path fill-rule="evenodd" clip-rule="evenodd" d="M66.8936 37.5158V56.356H50.7506V53.2122H63.7851V40.6597H50.7506V37.5158H66.8936Z" fill="#2D3471" fill-opacity="0.5"/>
<path d="M65.3395 40.6573C64.4823 40.6573 63.7875 39.9546 63.7875 39.0877C63.7875 38.2208 64.4823 37.5181 65.3395 37.5181C66.1966 37.5181 66.8915 38.2208 66.8915 39.0877C66.8915 39.9546 66.1966 40.6573 65.3395 40.6573Z" fill="#2D3471" fill-opacity="0.5"/>
<path fill-rule="evenodd" clip-rule="evenodd" d="M66.896 39.0877C66.896 38.2183 66.1991 37.5135 65.3395 37.5135C64.4798 37.5135 63.783 38.2183 63.783 39.0877C63.783 39.9571 64.4798 40.6619 65.3395 40.6619C66.1991 40.6619 66.896 39.9571 66.896 39.0877ZM65.3395 43.8012C62.7656 43.8012 60.679 41.6909 60.679 39.0877C60.679 36.4845 62.7656 34.3742 65.3395 34.3742C67.9134 34.3742 70 36.4845 70 39.0877C70 41.6909 67.9134 43.8012 65.3395 43.8012Z" fill="#2D3471" fill-opacity="0.5"/>
<path d="M65.3395 56.3537C64.4823 56.3537 63.7875 55.651 63.7875 54.7841C63.7875 53.9172 64.4823 53.2145 65.3395 53.2145C66.1966 53.2145 66.8915 53.9172 66.8915 54.7841C66.8915 55.651 66.1966 56.3537 65.3395 56.3537Z" fill="#2D3471" fill-opacity="0.5"/>
<path fill-rule="evenodd" clip-rule="evenodd" d="M66.896 54.7841C66.896 53.9147 66.1991 53.2099 65.3395 53.2099C64.4798 53.2099 63.783 53.9147 63.783 54.7841C63.783 55.6535 64.4798 56.3583 65.3395 56.3583C66.1991 56.3583 66.896 55.6535 66.896 54.7841ZM65.3395 59.4976C62.7656 59.4976 60.679 57.3873 60.679 54.7841C60.679 52.1809 62.7656 50.0706 65.3395 50.0706C67.9134 50.0706 70 52.1809 70 54.7841C70 57.3873 67.9134 59.4976 65.3395 59.4976Z" fill="#2D3471" fill-opacity="0.5"/>
<path d="M50.7508 39.0877C50.7508 39.9546 50.056 40.6574 49.1988 40.6574C48.3417 40.6574 47.6468 39.9546 47.6468 39.0877C47.6468 38.2208 48.3417 37.5181 49.1988 37.5181C50.056 37.5181 50.7508 38.2208 50.7508 39.0877Z" fill="#2D3471" fill-opacity="0.5"/>
<path d="M41.9326 39.0877C41.9326 43.1463 45.1858 46.4365 49.1988 46.4365C49.7314 46.4365 50.2507 46.3785 50.7507 46.2685V68.3682C50.7507 70.4016 49.1208 72.05 47.1103 72.05H35.7672C33.7566 72.05 32.1267 70.4016 32.1267 68.3682V56.3537H19.6405C17.6299 56.3537 16 54.7053 16 52.6719V41.1999C16 39.1665 17.6299 37.5181 19.6405 37.5181H42.0987C41.9899 38.0238 41.9326 38.549 41.9326 39.0877Z" fill="#2D3471" fill-opacity="0.5"/>
<path d="M50.7508 39.0877C50.7508 39.9546 50.056 40.6574 49.1988 40.6574C48.3417 40.6574 47.6468 39.9546 47.6468 39.0877C47.6468 38.2208 48.3417 37.5181 49.1988 37.5181C50.056 37.5181 50.7508 38.2208 50.7508 39.0877Z" fill="#2D3471" fill-opacity="0.5"/>
<path fill-rule="evenodd" clip-rule="evenodd" d="M49.1988 37.5135C48.3392 37.5135 47.6423 38.2183 47.6423 39.0877C47.6423 39.9571 48.3392 40.6619 49.1988 40.6619C50.0584 40.6619 50.7553 39.9571 50.7553 39.0877C50.7553 38.2183 50.0584 37.5135 49.1988 37.5135ZM53.8593 39.0877C53.8593 41.6909 51.7727 43.8012 49.1988 43.8012C46.6249 43.8012 44.5383 41.6909 44.5383 39.0877C44.5383 36.4845 46.6249 34.3742 49.1988 34.3742C51.7727 34.3742 53.8593 36.4845 53.8593 39.0877Z" fill="#2D3471" fill-opacity="0.5"/>
<path fill-rule="evenodd" clip-rule="evenodd" d="M32.1244 17.1416H50.7529V33.468H47.6444V20.2854H35.2329V33.468H32.1244V17.1416Z" fill="url(#paint0_linear_2009_6972)"/>
<path d="M35.2307 18.7135C35.2307 19.5803 34.5359 20.2831 33.6787 20.2831C32.8216 20.2831 32.1267 19.5803 32.1267 18.7135C32.1267 17.8466 32.8216 17.1438 33.6787 17.1438C34.5359 17.1438 35.2307 17.8466 35.2307 18.7135Z" fill="#616EDE"/>
<path fill-rule="evenodd" clip-rule="evenodd" d="M33.6787 17.1393C32.8191 17.1393 32.1222 17.8441 32.1222 18.7135C32.1222 19.5829 32.8191 20.2877 33.6787 20.2877C34.5384 20.2877 35.2352 19.5829 35.2352 18.7135C35.2352 17.8441 34.5384 17.1393 33.6787 17.1393ZM38.3392 18.7135C38.3392 21.3166 36.2527 23.4269 33.6787 23.4269C31.1048 23.4269 29.0182 21.3166 29.0182 18.7135C29.0182 16.1103 31.1048 14 33.6787 14C36.2527 14 38.3392 16.1103 38.3392 18.7135Z" fill="url(#paint1_linear_2009_6972)"/>
<path d="M50.7507 18.7135C50.7507 19.5803 50.0559 20.2831 49.1987 20.2831C48.3416 20.2831 47.6467 19.5803 47.6467 18.7135C47.6467 17.8466 48.3416 17.1438 49.1987 17.1438C50.0559 17.1438 50.7507 17.8466 50.7507 18.7135Z" fill="#616EDE"/>
<path fill-rule="evenodd" clip-rule="evenodd" d="M49.1987 17.1393C48.3391 17.1393 47.6422 17.8441 47.6422 18.7135C47.6422 19.5829 48.3391 20.2877 49.1987 20.2877C50.0584 20.2877 50.7552 19.5829 50.7552 18.7135C50.7552 17.8441 50.0584 17.1393 49.1987 17.1393ZM53.8592 18.7135C53.8592 21.3166 51.7726 23.4269 49.1987 23.4269C46.6248 23.4269 44.5382 21.3166 44.5382 18.7135C44.5382 16.1103 46.6248 14 49.1987 14C51.7726 14 53.8592 16.1103 53.8592 18.7135Z" fill="url(#paint2_linear_2009_6972)"/>
<path fill-rule="evenodd" clip-rule="evenodd" d="M66.8936 33.4658V52.306H50.7506V49.1621H63.7851V36.6096H50.7506V33.4658H66.8936Z" fill="url(#paint3_linear_2009_6972)"/>
<path d="M65.3395 36.6073C64.4823 36.6073 63.7875 35.9045 63.7875 35.0377C63.7875 34.1708 64.4823 33.468 65.3395 33.468C66.1966 33.468 66.8915 34.1708 66.8915 35.0377C66.8915 35.9045 66.1966 36.6073 65.3395 36.6073Z" fill="#616EDE"/>
<path fill-rule="evenodd" clip-rule="evenodd" d="M66.896 35.0377C66.896 34.1683 66.1991 33.4635 65.3395 33.4635C64.4798 33.4635 63.783 34.1683 63.783 35.0377C63.783 35.9071 64.4798 36.6119 65.3395 36.6119C66.1991 36.6119 66.896 35.9071 66.896 35.0377ZM65.3395 39.7511C62.7656 39.7511 60.679 37.6408 60.679 35.0377C60.679 32.4345 62.7656 30.3242 65.3395 30.3242C67.9134 30.3242 70 32.4345 70 35.0377C70 37.6408 67.9134 39.7511 65.3395 39.7511Z" fill="url(#paint4_linear_2009_6972)"/>
<path d="M65.3395 52.3037C64.4823 52.3037 63.7875 51.6009 63.7875 50.734C63.7875 49.8672 64.4823 49.1644 65.3395 49.1644C66.1966 49.1644 66.8915 49.8672 66.8915 50.734C66.8915 51.6009 66.1966 52.3037 65.3395 52.3037Z" fill="#616EDE"/>
<path fill-rule="evenodd" clip-rule="evenodd" d="M66.896 50.734C66.896 49.8646 66.1991 49.1598 65.3395 49.1598C64.4798 49.1598 63.783 49.8646 63.783 50.734C63.783 51.6035 64.4798 52.3082 65.3395 52.3082C66.1991 52.3082 66.896 51.6035 66.896 50.734ZM65.3395 55.4475C62.7656 55.4475 60.679 53.3372 60.679 50.734C60.679 48.1309 62.7656 46.0206 65.3395 46.0206C67.9134 46.0206 70 48.1309 70 50.734C70 53.3372 67.9134 55.4475 65.3395 55.4475Z" fill="url(#paint5_linear_2009_6972)"/>
<path d="M50.7508 35.0377C50.7508 35.9046 50.056 36.6073 49.1988 36.6073C48.3417 36.6073 47.6468 35.9046 47.6468 35.0377C47.6468 34.1708 48.3417 33.468 49.1988 33.468C50.056 33.468 50.7508 34.1708 50.7508 35.0377Z" fill="#616EDE"/>
<path d="M41.9326 35.0377C41.9326 39.0963 45.1858 42.3864 49.1988 42.3864C49.7314 42.3864 50.2507 42.3285 50.7507 42.2184V64.3182C50.7507 66.3516 49.1208 68 47.1103 68H35.7672C33.7566 68 32.1267 66.3516 32.1267 64.3182V52.3037H19.6405C17.6299 52.3037 16 50.6552 16 48.6218V37.1499C16 35.1164 17.6299 33.468 19.6405 33.468H42.0987C41.9899 33.9738 41.9326 34.499 41.9326 35.0377Z" fill="url(#paint6_linear_2009_6972)"/>
<path d="M50.7508 35.0377C50.7508 35.9046 50.056 36.6073 49.1988 36.6073C48.3417 36.6073 47.6468 35.9046 47.6468 35.0377C47.6468 34.1708 48.3417 33.468 49.1988 33.468C50.056 33.468 50.7508 34.1708 50.7508 35.0377Z" fill="#616EDE"/>
<path fill-rule="evenodd" clip-rule="evenodd" d="M49.1988 33.4635C48.3392 33.4635 47.6423 34.1683 47.6423 35.0377C47.6423 35.9071 48.3392 36.6119 49.1988 36.6119C50.0584 36.6119 50.7553 35.9071 50.7553 35.0377C50.7553 34.1683 50.0584 33.4635 49.1988 33.4635ZM53.8593 35.0377C53.8593 37.6408 51.7727 39.7511 49.1988 39.7511C46.6249 39.7511 44.5383 37.6408 44.5383 35.0377C44.5383 32.4345 46.6249 30.3242 49.1988 30.3242C51.7727 30.3242 53.8593 32.4345 53.8593 35.0377Z" fill="url(#paint7_linear_2009_6972)"/>
<defs>
<linearGradient id="paint0_linear_2009_6972" x1="45.7946" y1="14" x2="45.7945" y2="68" gradientUnits="userSpaceOnUse">
<stop stop-color="white"/>
<stop offset="0.3" stop-color="#AFB5EA"/>
<stop offset="0.6" stop-color="#EFF0FA"/>
<stop offset="1" stop-color="white"/>
<stop offset="1" stop-color="white"/>
</linearGradient>
<linearGradient id="paint1_linear_2009_6972" x1="45.7946" y1="14" x2="45.7945" y2="68" gradientUnits="userSpaceOnUse">
<stop stop-color="white"/>
<stop offset="0.3" stop-color="#AFB5EA"/>
<stop offset="0.6" stop-color="#EFF0FA"/>
<stop offset="1" stop-color="white"/>
<stop offset="1" stop-color="white"/>
</linearGradient>
<linearGradient id="paint2_linear_2009_6972" x1="45.7946" y1="14" x2="45.7945" y2="68" gradientUnits="userSpaceOnUse">
<stop stop-color="white"/>
<stop offset="0.3" stop-color="#AFB5EA"/>
<stop offset="0.6" stop-color="#EFF0FA"/>
<stop offset="1" stop-color="white"/>
<stop offset="1" stop-color="white"/>
</linearGradient>
<linearGradient id="paint3_linear_2009_6972" x1="45.7946" y1="14" x2="45.7945" y2="68" gradientUnits="userSpaceOnUse">
<stop stop-color="white"/>
<stop offset="0.3" stop-color="#AFB5EA"/>
<stop offset="0.6" stop-color="#EFF0FA"/>
<stop offset="1" stop-color="white"/>
<stop offset="1" stop-color="white"/>
</linearGradient>
<linearGradient id="paint4_linear_2009_6972" x1="45.7946" y1="14" x2="45.7945" y2="68" gradientUnits="userSpaceOnUse">
<stop stop-color="white"/>
<stop offset="0.3" stop-color="#AFB5EA"/>
<stop offset="0.6" stop-color="#EFF0FA"/>
<stop offset="1" stop-color="white"/>
<stop offset="1" stop-color="white"/>
</linearGradient>
<linearGradient id="paint5_linear_2009_6972" x1="45.7946" y1="14" x2="45.7945" y2="68" gradientUnits="userSpaceOnUse">
<stop stop-color="white"/>
<stop offset="0.3" stop-color="#AFB5EA"/>
<stop offset="0.6" stop-color="#EFF0FA"/>
<stop offset="1" stop-color="white"/>
<stop offset="1" stop-color="white"/>
</linearGradient>
<linearGradient id="paint6_linear_2009_6972" x1="45.7946" y1="14" x2="45.7945" y2="68" gradientUnits="userSpaceOnUse">
<stop stop-color="white"/>
<stop offset="0.3" stop-color="#AFB5EA"/>
<stop offset="0.6" stop-color="#EFF0FA"/>
<stop offset="1" stop-color="white"/>
<stop offset="1" stop-color="white"/>
</linearGradient>
<linearGradient id="paint7_linear_2009_6972" x1="45.7946" y1="14" x2="45.7945" y2="68" gradientUnits="userSpaceOnUse">
<stop stop-color="white"/>
<stop offset="0.3" stop-color="#AFB5EA"/>
<stop offset="0.6" stop-color="#EFF0FA"/>
<stop offset="1" stop-color="white"/>
<stop offset="1" stop-color="white"/>
</linearGradient>
</defs>
</svg>
