<svg width="30" height="30" viewBox="0 0 30 30" fill="none" xmlns="http://www.w3.org/2000/svg">
<path d="M23.5712 16.0714C22.2997 16.0714 21.0568 16.4484 19.9996 17.1548C18.9425 17.8612 18.1185 18.8652 17.6319 20.0399C17.1454 21.2145 17.0181 22.5071 17.2661 23.7541C17.5142 25.0012 18.1264 26.1466 19.0255 27.0457C19.9245 27.9447 21.07 28.557 22.317 28.805C23.564 29.0531 24.8566 28.9258 26.0313 28.4392C27.2059 27.9526 28.2099 27.1287 28.9163 26.0715C29.6227 25.0143 29.9997 23.7714 29.9997 22.5C29.9997 20.795 29.3224 19.1599 28.1168 17.9543C26.9113 16.7487 25.2761 16.0714 23.5712 16.0714ZM25.714 23.5714H23.5712C23.287 23.5714 23.0145 23.4585 22.8135 23.2576C22.6126 23.0567 22.4997 22.7841 22.4997 22.5V20.3571C22.4997 20.073 22.6126 19.8004 22.8135 19.5995C23.0145 19.3986 23.287 19.2857 23.5712 19.2857C23.8553 19.2857 24.1278 19.3986 24.3288 19.5995C24.5297 19.8004 24.6426 20.073 24.6426 20.3571V21.4286H25.714C25.9982 21.4286 26.2707 21.5414 26.4716 21.7424C26.6726 21.9433 26.7854 22.2158 26.7854 22.5C26.7854 22.7841 26.6726 23.0567 26.4716 23.2576C26.2707 23.4585 25.9982 23.5714 25.714 23.5714Z" fill="#474CE6"/>
<path d="M10.7139 1.07141H14.9996V8.57141H10.7139V1.07141Z" fill="#474CE6"/>
<path d="M23.5714 13.9286C24.2944 13.9333 25.0141 14.0269 25.7143 14.2071V3.21427C25.7143 2.64595 25.4885 2.1009 25.0867 1.69904C24.6848 1.29718 24.1397 1.07141 23.5714 1.07141H17.1429V9.64284C17.1429 9.927 17.03 10.1995 16.829 10.4005C16.6281 10.6014 16.3556 10.7143 16.0714 10.7143H9.64286C9.3587 10.7143 9.08617 10.6014 8.88524 10.4005C8.68431 10.1995 8.57143 9.927 8.57143 9.64284V1.07141H2.14286C1.57454 1.07141 1.02949 1.29718 0.627628 1.69904C0.225765 2.1009 0 2.64595 0 3.21427V24.6428C0 25.2112 0.225765 25.7562 0.627628 26.1581C1.02949 26.5599 1.57454 26.7857 2.14286 26.7857H16.1571C15.4052 25.4833 15.0092 24.006 15.0088 22.5022C15.0084 20.9983 15.4037 19.5208 16.1549 18.2181C16.9062 16.9153 17.987 15.8331 19.2888 15.0802C20.5906 14.3273 22.0676 13.9301 23.5714 13.9286ZM5.35714 16.0714H8.57143C8.85559 16.0714 9.12811 16.1843 9.32904 16.3852C9.52997 16.5862 9.64286 16.8587 9.64286 17.1428C9.64286 17.427 9.52997 17.6995 9.32904 17.9005C9.12811 18.1014 8.85559 18.2143 8.57143 18.2143H5.35714C5.07298 18.2143 4.80046 18.1014 4.59953 17.9005C4.3986 17.6995 4.28571 17.427 4.28571 17.1428C4.28571 16.8587 4.3986 16.5862 4.59953 16.3852C4.80046 16.1843 5.07298 16.0714 5.35714 16.0714ZM11.7857 22.5H5.35714C5.07298 22.5 4.80046 22.3871 4.59953 22.1862C4.3986 21.9852 4.28571 21.7127 4.28571 21.4286C4.28571 21.1444 4.3986 20.8719 4.59953 20.6709C4.80046 20.47 5.07298 20.3571 5.35714 20.3571H11.7857C12.0699 20.3571 12.3424 20.47 12.5433 20.6709C12.7443 20.8719 12.8571 21.1444 12.8571 21.4286C12.8571 21.7127 12.7443 21.9852 12.5433 22.1862C12.3424 22.3871 12.0699 22.5 11.7857 22.5Z" fill="#474CE6"/>
</svg>
