<svg width="30" height="30" viewBox="0 0 30 30" fill="none" xmlns="http://www.w3.org/2000/svg">
<g clip-path="url(#clip0_1_7924)">
<path d="M29.375 16.9288L24.0625 15.0538C23.86 14.9813 23.64 14.9813 23.4375 15.0538L18.125 16.9288C17.75 17.06 17.5 17.415 17.5 17.8125V22.0313C17.5 27.27 23.1325 29.815 23.3713 29.92C23.4925 29.9738 23.62 30 23.75 30C23.88 30 24.0075 29.9738 24.1287 29.92C24.3675 29.815 30 27.27 30 22.0313V17.8125C30 17.415 29.75 17.06 29.375 16.9288ZM27.18 21.3475L23.9138 24.7363C23.7363 24.92 23.4925 25.0225 23.2387 25.0225C23.23 25.0225 23.22 25.0225 23.2125 25.0225C22.9488 25.015 22.7 24.8963 22.5275 24.6963L20.7938 22.6775C20.4563 22.285 20.5025 21.6925 20.895 21.355C21.2887 21.0175 21.8788 21.0638 22.2175 21.455L23.28 22.6925L25.8313 20.045C26.1925 19.6713 26.7863 19.6625 27.1575 20.02C27.5275 20.3813 27.5388 20.975 27.18 21.3475Z" fill="#474CE6"/>
<path d="M11.525 0L5.45 0.025C4.6625 0.025 3.925 0.4625 3.55 1.15L0.375 6.9L10.9125 6.875L11.525 0Z" fill="#474CE6"/>
<path d="M24.6004 6.84998L21.3879 1.09998C21.0004 0.412476 20.2754 -0.0250244 19.4754 -0.0250244L13.4004 -2.44156e-05L14.0379 6.87498L24.6004 6.84998Z" fill="#474CE6"/>
<path d="M24.9998 12.7375L24.8998 12.7C24.5248 12.5625 24.1373 12.5 23.7498 12.5C23.3623 12.5 22.9748 12.5625 22.5998 12.7L17.2998 14.575C15.9248 15.05 14.9998 16.35 14.9998 17.8125V22.025C14.9998 23.1 15.1748 24.0875 15.4748 25L2.0123 25.0375C1.9998 25.0375 1.9998 25.0375 1.9998 25.0375C0.924805 25.0375 0.0373047 24.15 0.0373047 23.0625L-0.0126953 8.77502L11.5498 8.75002H13.4248L24.9873 8.71252L24.9998 12.7375Z" fill="#474CE6"/>
</g>
<defs>
<clipPath id="clip0_1_7924">
<rect width="30" height="30" fill="white"/>
</clipPath>
</defs>
</svg>
