<svg width="30" height="30" viewBox="0 0 30 30" fill="none" xmlns="http://www.w3.org/2000/svg">
<g clip-path="url(#clip0_1_7933)">
<path d="M15.3255 0.941245C14.9111 0.930932 14.4967 0.941244 14.0842 0.968432C11.4086 1.14374 8.88298 2.00812 6.65735 3.68249V2.80874C6.65548 2.29406 6.23829 1.87687 5.7236 1.875C5.2061 1.87312 4.78423 2.29124 4.78235 2.80874V5.715C4.78235 6.55031 5.78923 6.9675 6.38079 6.37968C10.7111 2.05031 17.5652 1.60124 22.4224 5.32874C27.2795 9.05624 28.6183 15.7912 25.5583 21.0937C22.4964 26.3962 15.9977 28.5994 10.3408 26.2556C4.68391 23.9119 1.64923 17.7609 3.23454 11.8472C3.36954 11.3466 3.07142 10.8319 2.56985 10.6987C2.0711 10.5628 1.55642 10.8572 1.41954 11.3559C-0.404835 18.1659 3.10798 25.2937 9.62079 27.9928C16.1336 30.6909 23.6542 28.1306 27.1792 22.0275C30.7042 15.9244 29.1592 8.13093 23.5661 3.84C21.1192 1.96218 18.2242 1.00593 15.3255 0.941245ZM15.0039 5.40562C9.71548 5.40562 5.40392 9.71062 5.40392 14.9981C5.40392 20.2856 9.71642 24.5962 15.0039 24.5962C20.2914 24.5962 24.5945 20.2847 24.5945 14.9981C24.5945 9.71156 20.2914 5.40562 15.0039 5.40562ZM15.0039 9.10781C15.5214 9.10968 15.9395 9.53156 15.9377 10.0491V10.1934C16.8752 10.3209 17.6786 10.9022 18.1052 11.7112C18.3452 12.1697 18.168 12.7359 17.7086 12.9769C17.252 13.2169 16.6849 13.0406 16.443 12.5831C16.2752 12.2634 15.9508 12.0431 15.5495 12.0431H14.6777C14.102 12.0431 13.667 12.4781 13.667 13.0537C13.667 13.6294 14.102 14.0644 14.6777 14.0644H15.0039H15.0499H15.3283C16.9108 14.0644 18.2064 15.3684 18.2064 16.95C18.2064 18.3234 17.2305 19.4822 15.9377 19.7662V19.9528C15.9358 20.4675 15.5186 20.8847 15.0039 20.8866C14.4855 20.8894 14.0627 20.4712 14.0608 19.9528V19.8066C13.1252 19.6772 12.3217 19.0997 11.8961 18.2925C11.6542 17.835 11.8314 17.2659 12.2899 17.025C12.7492 16.7831 13.3164 16.9612 13.5574 17.4206C13.7252 17.7403 14.0561 17.9587 14.4564 17.9587H15.3283C15.9049 17.9587 16.3314 17.5256 16.3314 16.95C16.3314 16.3744 15.9049 15.9394 15.3283 15.9394H15.0039H14.6777C13.0952 15.9394 11.792 14.6353 11.792 13.0537C11.792 11.6841 12.7708 10.5262 14.0608 10.2394V10.0491C14.0589 9.52781 14.4817 9.10499 15.0039 9.10781Z" fill="#474CE6"/>
</g>
<defs>
<clipPath id="clip0_1_7933">
<rect width="30" height="30" fill="white"/>
</clipPath>
</defs>
</svg>
