<svg width="30" height="30" viewBox="0 0 30 30" fill="none" xmlns="http://www.w3.org/2000/svg">
<g clip-path="url(#clip0_1_7908)">
<path d="M15.1172 23.7264C15.1174 22.1195 15.5859 20.5476 16.4655 19.2028C17.345 17.8581 18.5974 16.7988 20.0695 16.1547C21.5416 15.5106 23.1695 15.3095 24.7541 15.576C26.3387 15.8426 27.8113 16.5652 28.9916 17.6555C29.0307 14.8309 29.0072 12.0063 28.9213 9.18165C28.8744 7.24102 27.7787 5.29278 25.943 4.33008C24.9996 3.83145 24.0223 3.35157 23.0338 2.89688C19.1279 4.16016 14.5535 5.82657 9.93984 7.88965C9.49626 8.08573 9.11625 8.40179 8.84263 8.80222C8.56902 9.20266 8.41267 9.67155 8.39121 10.1561C8.31914 12.3826 8.29688 14.6807 8.32617 16.9529C8.32853 17.0196 8.30946 17.0852 8.27176 17.1402C8.23406 17.1952 8.17972 17.2367 8.11671 17.2585C8.0537 17.2803 7.98536 17.2814 7.92171 17.2615C7.85806 17.2416 7.80246 17.2019 7.76309 17.1481C7.27481 16.5231 6.79785 15.9051 6.33223 15.2941C6.29785 15.2464 6.24677 15.2133 6.18913 15.2015C6.13149 15.1896 6.0715 15.1999 6.02109 15.2303C5.65898 15.4459 5.30332 15.6586 4.9541 15.8684C4.7584 15.9856 4.51758 15.8291 4.51641 15.5883C4.50469 13.3248 4.56094 11.0555 4.68223 8.85586C4.7332 7.92833 5.31504 7.05469 6.17578 6.6293C10.6008 4.44375 15.3217 2.6584 19.35 1.33711C18.4125 0.970317 17.4803 0.633989 16.5703 0.315239C15.3434 -0.106056 14.0109 -0.106056 12.784 0.315239C9.74766 1.3629 6.43184 2.73047 3.41074 4.33008C1.57559 5.29278 0.481055 7.24102 0.432422 9.18165C0.312891 13.0606 0.312891 16.9395 0.432422 20.8184C0.479297 22.759 1.57559 24.7072 3.41074 25.6699C6.43184 27.2695 9.74766 28.6371 12.7857 29.6842C14.0127 30.1055 15.3451 30.1055 16.5721 29.6842C16.8373 29.5928 17.1051 29.4984 17.3754 29.4012C15.9206 27.8705 15.1118 25.838 15.1172 23.7264Z" fill="#474CE6"/>
<path d="M23.3834 17.4533C22.1426 17.4534 20.9297 17.8215 19.8981 18.5109C18.8664 19.2004 18.0624 20.1803 17.5877 21.3267C17.113 22.4731 16.9888 23.7345 17.231 24.9514C17.4732 26.1684 18.0708 27.2862 18.9483 28.1635C19.8257 29.0408 20.9436 29.6382 22.1606 29.8801C23.3776 30.1221 24.639 29.9977 25.7853 29.5228C26.9317 29.0479 27.9114 28.2437 28.6006 27.2119C29.2899 26.1801 29.6577 24.9672 29.6576 23.7264C29.6575 22.9025 29.4952 22.0867 29.1798 21.3256C28.8645 20.5645 28.4023 19.8729 27.8197 19.2904C27.2371 18.7079 26.5454 18.2458 25.7843 17.9306C25.0231 17.6154 24.2073 17.4532 23.3834 17.4533ZM26.9617 22.6881L23.1906 26.6478C23.088 26.7558 22.9646 26.8419 22.8279 26.9009C22.6911 26.9599 22.5439 26.9906 22.3949 26.9912H22.3896C22.2416 26.9911 22.0951 26.9614 21.9587 26.9037C21.8223 26.846 21.6989 26.7616 21.5957 26.6555L19.5947 24.5941C19.3904 24.3836 19.278 24.1004 19.2824 23.807C19.2868 23.5137 19.4076 23.234 19.6182 23.0297C19.8287 22.8253 20.1119 22.713 20.4052 22.7174C20.6986 22.7218 20.9783 22.8425 21.1826 23.0531L22.3832 24.2889L25.3604 21.1623C25.5651 20.9617 25.8396 20.8484 26.1262 20.8462C26.4128 20.8441 26.6891 20.9532 26.8968 21.1507C27.1045 21.3482 27.2275 21.6185 27.2398 21.9049C27.2521 22.1912 27.1529 22.4711 26.9629 22.6857L26.9617 22.6881Z" fill="#474CE6"/>
</g>
<defs>
<clipPath id="clip0_1_7908">
<rect width="30" height="30" fill="white"/>
</clipPath>
</defs>
</svg>
