<svg width="18" height="18" viewBox="0 0 18 18" fill="none" xmlns="http://www.w3.org/2000/svg">
<g clip-path="url(#clip0_1_1678)">
<path d="M16.8032 9.23308C16.7308 9.0849 16.7308 8.91495 16.8032 8.76681L17.4745 7.39344C17.8483 6.62876 17.5522 5.71734 16.8003 5.31842L15.45 4.60194C15.3043 4.52467 15.2044 4.38714 15.1759 4.22475L14.9118 2.71905C14.7647 1.88072 13.9893 1.31738 13.1467 1.4366L11.6331 1.6507C11.4697 1.67376 11.3082 1.62124 11.1897 1.50659L10.091 0.443754C9.47927 -0.148063 8.52092 -0.148098 7.9092 0.443754L6.81051 1.5067C6.69196 1.62138 6.53042 1.67379 6.36708 1.6508L4.85351 1.4367C4.01064 1.31742 3.23545 1.88083 3.08839 2.71916L2.8243 4.22479C2.79579 4.38721 2.69591 4.5247 2.55026 4.60201L1.19992 5.31849C0.44807 5.71737 0.151916 6.62886 0.525695 7.39354L1.197 8.76688C1.26942 8.91506 1.26942 9.085 1.197 9.23315L0.525659 10.6065C0.15188 11.3712 0.448035 12.2826 1.19988 12.6815L2.55023 13.398C2.69591 13.4753 2.79579 13.6128 2.8243 13.7752L3.08839 15.2809C3.22227 16.044 3.87666 16.5793 4.62876 16.5792C4.70283 16.5792 4.77799 16.574 4.85354 16.5633L6.36712 16.3492C6.53035 16.326 6.69199 16.3787 6.81054 16.4933L7.9092 17.5561C8.21513 17.8521 8.60754 18 9.0001 18C9.39254 17.9999 9.7852 17.852 10.091 17.5561L11.1897 16.4933C11.3082 16.3787 11.4698 16.3263 11.6331 16.3492L13.1467 16.5633C13.9897 16.6825 14.7647 16.1192 14.9118 15.2808L15.1759 13.7752C15.2044 13.6128 15.3043 13.4753 15.45 13.398L16.8003 12.6815C17.5522 12.2826 17.8483 11.3711 17.4745 10.6065L16.8032 9.23308ZM6.92374 4.32822C7.97322 4.32822 8.82706 5.18205 8.82706 6.23153C8.82706 7.28101 7.97322 8.13484 6.92374 8.13484C5.87426 8.13484 5.02043 7.28101 5.02043 6.23153C5.02043 5.18205 5.87426 4.32822 6.92374 4.32822ZM5.94134 12.7927C5.83999 12.8941 5.70713 12.9448 5.57431 12.9448C5.44149 12.9448 5.3086 12.8941 5.20728 12.7927C5.00457 12.59 5.00457 12.2614 5.20728 12.0586L12.0588 5.20712C12.2615 5.00441 12.5902 5.00441 12.7929 5.20712C12.9956 5.40983 12.9956 5.7385 12.7929 5.94121L5.94134 12.7927ZM11.0764 13.6717C10.0269 13.6717 9.17306 12.8179 9.17306 11.7684C9.17306 10.7189 10.0269 9.86508 11.0764 9.86508C12.1259 9.86508 12.9797 10.7189 12.9797 11.7684C12.9797 12.8179 12.1259 13.6717 11.0764 13.6717Z" fill="#474CE6"/>
<path d="M11.0761 10.9033C10.5991 10.9033 10.2109 11.2914 10.2109 11.7684C10.2109 12.2455 10.599 12.6336 11.0761 12.6336C11.5531 12.6336 11.9412 12.2455 11.9412 11.7684C11.9412 11.2914 11.5531 10.9033 11.0761 10.9033Z" fill="#474CE6"/>
<path d="M6.92371 5.36646C6.44668 5.36646 6.05859 5.75454 6.05859 6.23158C6.05859 6.70861 6.44668 7.09673 6.92371 7.09673C7.40075 7.09673 7.78887 6.70864 7.78887 6.23158C7.78883 5.75458 7.40075 5.36646 6.92371 5.36646Z" fill="#474CE6"/>
</g>
<defs>
<clipPath id="clip0_1_1678">
<rect width="18" height="18" fill="white"/>
</clipPath>
</defs>
</svg>
