<svg xmlns="http://www.w3.org/2000/svg" xmlns:xlink="http://www.w3.org/1999/xlink"><defs><symbol viewBox="0 0 40 41" fill="none" id="bnb">
<path d="M39.4016 25.3381C36.7301 36.0525 25.877 42.5731 15.1601 39.9012C4.44772 37.2301 -2.07358 26.3775 0.599038 15.6639C3.26931 4.94838 14.1225 -1.57268 24.836 1.09847C35.5521 3.76961 42.073 14.6234 39.4013 25.3383L39.4015 25.3381H39.4016Z" fill="#F3BA2F" />
<path fill-rule="evenodd" clip-rule="evenodd" d="M20.0018 13.1934L14.8224 18.3722L14.8225 18.372L11.8089 15.3587L20.0018 7.16669L28.1974 15.3611L25.1838 18.3745L20.0018 13.1934ZM9.68077 17.4861L6.66699 20.5L9.68056 23.5128L12.6943 20.4994L9.68077 17.4861ZM14.8223 22.6281L20.0018 27.8067L25.1836 22.6257L28.1989 25.6374L28.1974 25.639L20.0018 33.8334L11.8089 25.6414L11.8046 25.6371L14.8223 22.6281ZM30.3231 17.4879L27.3093 20.5013L30.323 23.5145L33.3367 20.5011L30.3231 17.4879Z" fill="white" />
<path d="M23.0586 20.4984H23.0599L20.002 17.4407L17.7418 19.7L17.4822 19.9597L16.9466 20.4953L16.9424 20.4994L16.9466 20.5038L20.002 23.5593L23.0601 20.5016L23.0616 20.4999L23.0588 20.4984" fill="white" />
</symbol><symbol viewBox="0 0 40 41" fill="none" id="btc">
<path d="M39.4016 25.3381C36.7301 36.0525 25.877 42.5731 15.1601 39.9012C4.44772 37.2301 -2.07358 26.3775 0.599038 15.6639C3.26931 4.94838 14.1225 -1.57268 24.836 1.09847C35.5521 3.76961 42.073 14.6234 39.4013 25.3383L39.4015 25.3381H39.4016Z" fill="#F7931A" />
<path fill-rule="evenodd" clip-rule="evenodd" d="M28.8199 17.6504C29.218 14.9889 27.1915 13.5582 24.4203 12.6038L25.3193 8.99845L23.1244 8.45159L22.2492 11.962C21.6722 11.8181 21.0796 11.6825 20.4907 11.5481L21.3721 8.01451L19.1786 7.46765L18.2791 11.0718C17.8016 10.9631 17.3326 10.8557 16.8776 10.7425L16.8801 10.7311L13.8533 9.97534L13.2694 12.3194C13.2694 12.3194 14.8979 12.6926 14.8635 12.7156C15.7524 12.9374 15.9131 13.5257 15.8864 13.992L14.8624 18.0993C14.9236 18.1149 15.003 18.1374 15.0906 18.1726L15.0269 18.1567L15.0268 18.1566C14.9726 18.1431 14.9164 18.129 14.8586 18.1152L13.4232 23.8689C13.3146 24.1389 13.0389 24.5441 12.4175 24.3903C12.4395 24.4221 10.8222 23.9922 10.8222 23.9922L9.73242 26.5044L12.5887 27.2164C12.9015 27.2948 13.2106 27.3754 13.5166 27.4551L13.5168 27.4552C13.7306 27.5109 13.9428 27.5662 14.1536 27.6201L13.2454 31.2668L15.4377 31.8136L16.3372 28.2057C16.9362 28.3683 17.5174 28.5182 18.0864 28.6596L17.19 32.2505L19.385 32.7974L20.2932 29.1576C24.036 29.8658 26.8502 29.5803 28.0348 26.1953C28.9893 23.47 27.9873 21.898 26.0182 20.8729C27.4524 20.5422 28.5327 19.5991 28.8207 17.6507L28.82 17.6502L28.8199 17.6504ZM23.805 24.6818C23.1827 27.1821 19.2685 26.1484 17.4776 25.6755C17.3165 25.6329 17.1726 25.5949 17.0498 25.5644L18.2551 20.7332C18.4047 20.7706 18.5876 20.8116 18.7948 20.8581C20.6472 21.2738 24.4426 22.1254 23.8051 24.6818H23.805ZM19.1663 18.6158C20.6593 19.0142 23.9165 19.8834 24.4838 17.6108H24.484C25.0632 15.2866 21.8978 14.5859 20.3518 14.2436C20.1779 14.2051 20.0245 14.1712 19.8992 14.1399L18.8064 18.5216C18.9096 18.5473 19.0306 18.5796 19.1663 18.6158Z" fill="white" />
</symbol><symbol viewBox="0 0 24 24" fill="none" id="burger">
<path d="M3 5H21.07" stroke="currentColor" stroke-width="2" stroke-linecap="round" stroke-linejoin="round" />
<path d="M3 12H21.07" stroke="currentColor" stroke-width="2" stroke-linecap="round" stroke-linejoin="round" />
<path d="M3 19H21.07" stroke="currentColor" stroke-width="2" stroke-linecap="round" stroke-linejoin="round" />
</symbol><symbol viewBox="0 0 40 41" fill="none" id="busd">
<circle cx="20" cy="20.5" r="20" fill="#F0B90B" />
<path d="M19.9405 7.16675L23.2292 10.5347L14.9479 18.816L11.6592 15.5273L19.9405 7.16675Z" fill="white" stroke="white" />
<path d="M24.933 12.1593L28.2217 15.5273L14.9479 28.8011L11.6592 25.5124L24.933 12.1593Z" fill="white" stroke="white" />
<path d="M9.95573 17.1518L13.2445 20.5198L9.95573 23.8085L6.66699 20.5198L9.95573 17.1518Z" fill="white" stroke="white" />
<path d="M29.9262 17.1518L33.2149 20.5198L19.9411 33.7936L16.6523 30.5049L29.9262 17.1518Z" fill="white" stroke="white" />
</symbol><symbol viewBox="0 0 24 24" fill="none" id="candy-box">
<path d="M5 7C4.60444 7 4.21776 6.8827 3.88886 6.66294C3.55996 6.44318 3.30362 6.13082 3.15224 5.76537C3.00087 5.39992 2.96126 4.99778 3.03843 4.60982C3.1156 4.22186 3.30608 3.86549 3.58579 3.58579C3.86549 3.30608 4.22186 3.1156 4.60982 3.03843C4.99778 2.96126 5.39992 3.00087 5.76537 3.15224C6.13082 3.30362 6.44318 3.55996 6.66294 3.88886C6.8827 4.21776 7 4.60444 7 5C7 5.53043 6.78929 6.03914 6.41421 6.41421C6.03914 6.78929 5.53043 7 5 7ZM14 5C14 4.60444 13.8827 4.21776 13.6629 3.88886C13.4432 3.55996 13.1308 3.30362 12.7654 3.15224C12.3999 3.00087 11.9978 2.96126 11.6098 3.03843C11.2219 3.1156 10.8655 3.30608 10.5858 3.58579C10.3061 3.86549 10.1156 4.22186 10.0384 4.60982C9.96126 4.99778 10.0009 5.39992 10.1522 5.76537C10.3036 6.13082 10.56 6.44318 10.8889 6.66294C11.2178 6.8827 11.6044 7 12 7C12.5304 7 13.0391 6.78929 13.4142 6.41421C13.7893 6.03914 14 5.53043 14 5ZM21 5C21 4.60444 20.8827 4.21776 20.6629 3.88886C20.4432 3.55996 20.1308 3.30362 19.7654 3.15224C19.3999 3.00087 18.9978 2.96126 18.6098 3.03843C18.2219 3.1156 17.8655 3.30608 17.5858 3.58579C17.3061 3.86549 17.1156 4.22186 17.0384 4.60982C16.9613 4.99778 17.0009 5.39992 17.1522 5.76537C17.3036 6.13082 17.56 6.44318 17.8889 6.66294C18.2178 6.8827 18.6044 7 19 7C19.5304 7 20.0391 6.78929 20.4142 6.41421C20.7893 6.03914 21 5.53043 21 5ZM7 12C7 11.6044 6.8827 11.2178 6.66294 10.8889C6.44318 10.56 6.13082 10.3036 5.76537 10.1522C5.39992 10.0009 4.99778 9.96126 4.60982 10.0384C4.22186 10.1156 3.86549 10.3061 3.58579 10.5858C3.30608 10.8655 3.1156 11.2219 3.03843 11.6098C2.96126 11.9978 3.00087 12.3999 3.15224 12.7654C3.30362 13.1308 3.55996 13.4432 3.88886 13.6629C4.21776 13.8827 4.60444 14 5 14C5.53043 14 6.03914 13.7893 6.41421 13.4142C6.78929 13.0391 7 12.5304 7 12ZM14 12C14 11.6044 13.8827 11.2178 13.6629 10.8889C13.4432 10.56 13.1308 10.3036 12.7654 10.1522C12.3999 10.0009 11.9978 9.96126 11.6098 10.0384C11.2219 10.1156 10.8655 10.3061 10.5858 10.5858C10.3061 10.8655 10.1156 11.2219 10.0384 11.6098C9.96126 11.9978 10.0009 12.3999 10.1522 12.7654C10.3036 13.1308 10.56 13.4432 10.8889 13.6629C11.2178 13.8827 11.6044 14 12 14C12.5304 14 13.0391 13.7893 13.4142 13.4142C13.7893 13.0391 14 12.5304 14 12ZM21 12C21 11.6044 20.8827 11.2178 20.6629 10.8889C20.4432 10.56 20.1308 10.3036 19.7654 10.1522C19.3999 10.0009 18.9978 9.96126 18.6098 10.0384C18.2219 10.1156 17.8655 10.3061 17.5858 10.5858C17.3061 10.8655 17.1156 11.2219 17.0384 11.6098C16.9613 11.9978 17.0009 12.3999 17.1522 12.7654C17.3036 13.1308 17.56 13.4432 17.8889 13.6629C18.2178 13.8827 18.6044 14 19 14C19.5304 14 20.0391 13.7893 20.4142 13.4142C20.7893 13.0391 21 12.5304 21 12ZM7 19C7 18.6044 6.8827 18.2178 6.66294 17.8889C6.44318 17.56 6.13082 17.3036 5.76537 17.1522C5.39992 17.0009 4.99778 16.9613 4.60982 17.0384C4.22186 17.1156 3.86549 17.3061 3.58579 17.5858C3.30608 17.8655 3.1156 18.2219 3.03843 18.6098C2.96126 18.9978 3.00087 19.3999 3.15224 19.7654C3.30362 20.1308 3.55996 20.4432 3.88886 20.6629C4.21776 20.8827 4.60444 21 5 21C5.53043 21 6.03914 20.7893 6.41421 20.4142C6.78929 20.0391 7 19.5304 7 19ZM14 19C14 18.6044 13.8827 18.2178 13.6629 17.8889C13.4432 17.56 13.1308 17.3036 12.7654 17.1522C12.3999 17.0009 11.9978 16.9613 11.6098 17.0384C11.2219 17.1156 10.8655 17.3061 10.5858 17.5858C10.3061 17.8655 10.1156 18.2219 10.0384 18.6098C9.96126 18.9978 10.0009 19.3999 10.1522 19.7654C10.3036 20.1308 10.56 20.4432 10.8889 20.6629C11.2178 20.8827 11.6044 21 12 21C12.5304 21 13.0391 20.7893 13.4142 20.4142C13.7893 20.0391 14 19.5304 14 19ZM21 19C21 18.6044 20.8827 18.2178 20.6629 17.8889C20.4432 17.56 20.1308 17.3036 19.7654 17.1522C19.3999 17.0009 18.9978 16.9613 18.6098 17.0384C18.2219 17.1156 17.8655 17.3061 17.5858 17.5858C17.3061 17.8655 17.1156 18.2219 17.0384 18.6098C16.9613 18.9978 17.0009 19.3999 17.1522 19.7654C17.3036 20.1308 17.56 20.4432 17.8889 20.6629C18.2178 20.8827 18.6044 21 19 21C19.5304 21 20.0391 20.7893 20.4142 20.4142C20.7893 20.0391 21 19.5304 21 19Z" fill="currentColor" />
</symbol><symbol viewBox="0 0 24 24" fill="none" id="cart">
<path fill-rule="evenodd" clip-rule="evenodd" d="M8.875 17.8926C8.27344 17.8926 7.75 18.4002 7.75 19.0711C7.75 19.742 8.27344 20.2496 8.875 20.2496C9.47656 20.2496 10 19.742 10 19.0711C10 18.4002 9.47656 17.8926 8.875 17.8926ZM6.25 19.0711C6.25 17.6118 7.40549 16.3926 8.875 16.3926C10.3445 16.3926 11.5 17.6118 11.5 19.0711C11.5 20.5304 10.3445 21.7496 8.875 21.7496C7.40549 21.7496 6.25 20.5304 6.25 19.0711Z" fill="currentColor" />
<path fill-rule="evenodd" clip-rule="evenodd" d="M16.375 17.8926C15.7734 17.8926 15.25 18.4002 15.25 19.0711C15.25 19.742 15.7734 20.2496 16.375 20.2496C16.9766 20.2496 17.5 19.742 17.5 19.0711C17.5 18.4002 16.9766 17.8926 16.375 17.8926ZM13.75 19.0711C13.75 17.6118 14.9055 16.3926 16.375 16.3926C17.8445 16.3926 19 17.6118 19 19.0711C19 20.5304 17.8445 21.7496 16.375 21.7496C14.9055 21.7496 13.75 20.5304 13.75 19.0711Z" fill="currentColor" />
<path fill-rule="evenodd" clip-rule="evenodd" d="M1.875 3C1.875 2.58579 2.21079 2.25 2.625 2.25H4.77856C5.41521 2.25 5.95014 2.72849 6.02083 3.3612L7.04587 12.5355H18.7729C18.8813 12.5355 18.9773 12.4656 19.0107 12.3625L20.8625 6.64844C20.9149 6.48695 20.7945 6.32137 20.6247 6.32137H8.875C8.46079 6.32137 8.125 5.98558 8.125 5.57137C8.125 5.15715 8.46079 4.82137 8.875 4.82137H20.6247C21.813 4.82137 22.6558 5.98043 22.2895 7.11088L20.4376 12.825C20.2038 13.5467 19.5315 14.0355 18.7729 14.0355H6.57908L5.5483 14.6413C5.47808 14.6826 5.45059 14.7267 5.43722 14.7629C5.42143 14.8058 5.41737 14.8623 5.43374 14.9225C5.45012 14.9826 5.48226 15.0293 5.51758 15.0582C5.54748 15.0827 5.59352 15.1068 5.67497 15.1068H18.25C18.6642 15.1068 19 15.4426 19 15.8568C19 16.271 18.6642 16.6068 18.25 16.6068H5.67497C3.89172 16.6068 3.25086 14.2517 4.78824 13.3481L5.57563 12.8853L4.55494 3.75H2.625C2.21079 3.75 1.875 3.41421 1.875 3Z" fill="currentColor" />
</symbol><symbol viewBox="0 0 24 24" fill="none" id="chevron">
<path fill-rule="evenodd" clip-rule="evenodd" d="M12.0002 15.5002C11.7442 15.5002 11.4883 15.4023 11.2933 15.2073L7.29325 11.2072C6.90225 10.8162 6.90225 10.1842 7.29325 9.79325C7.68425 9.40225 8.31625 9.40225 8.70725 9.79325L12.0122 13.0982L15.3053 9.91825C15.7043 9.53525 16.3352 9.54625 16.7192 9.94325C17.1032 10.3403 17.0922 10.9742 16.6952 11.3572L12.6953 15.2193C12.5002 15.4073 12.2502 15.5002 12.0002 15.5002Z" fill="currentColor" />

</symbol><mask id="chevron_mask0_156_10598" style="mask-type:alpha" maskUnits="userSpaceOnUse" x="7" y="9" width="10" height="7">
<path fill-rule="evenodd" clip-rule="evenodd" d="M12.0002 15.5002C11.7442 15.5002 11.4883 15.4023 11.2933 15.2073L7.29325 11.2072C6.90225 10.8162 6.90225 10.1842 7.29325 9.79325C7.68425 9.40225 8.31625 9.40225 8.70725 9.79325L12.0122 13.0982L15.3053 9.91825C15.7043 9.53525 16.3352 9.54625 16.7192 9.94325C17.1032 10.3403 17.0922 10.9742 16.6952 11.3572L12.6953 15.2193C12.5002 15.4073 12.2502 15.5002 12.0002 15.5002Z" fill="none" />
</mask><symbol viewBox="0 0 16 16" fill="none" id="chevron-down">
<path d="M12.6172 5.66666L7.97507 10.3088L3.33296 5.66666" stroke="currentColor" stroke-width="1.5" stroke-linecap="round" stroke-linejoin="round" />
</symbol><symbol viewBox="0 0 24 24" fill="none" id="chevron-left">
<path d="M15.5 5.07367L8.53683 12.0368L15.5 19" stroke="currentColor" stroke-width="1.5" stroke-linecap="round" stroke-linejoin="round" />
</symbol><symbol viewBox="0 0 16 16" fill="none" id="chevron-right">
<path d="M5.66699 3.38245L10.3091 8.02456L5.66699 12.6667" stroke="currentColor" stroke-width="1.5" stroke-linecap="round" stroke-linejoin="round" />
</symbol><symbol viewBox="0 0 24 24" fill="none" id="close">
<path d="M6 6L18.7742 18.7742" stroke="currentColor" stroke-width="2" stroke-linecap="round" stroke-linejoin="round" />
<path d="M6 18.7742L18.7742 5.99998" stroke="currentColor" stroke-width="2" stroke-linecap="round" stroke-linejoin="round" />
</symbol><symbol viewBox="0 0 24 24" fill="none" id="close-thin">
<path d="M6 6L18.7742 18.7742" stroke="currentColor" stroke-width="1.5" stroke-linecap="round" stroke-linejoin="round" />
<path d="M6 18.7742L18.7742 5.99998" stroke="currentColor" stroke-width="1.5" stroke-linecap="round" stroke-linejoin="round" />
</symbol><symbol viewBox="0 0 32 32" fill="none" id="eth">
<circle cx="16" cy="16" r="16" fill="white" />
<path d="M15.9554 6.3999L15.8281 6.83224V19.3767L15.9554 19.5037L21.7783 16.0617L15.9554 6.3999Z" fill="#343434" />
<path d="M15.9558 6.3999L10.1328 16.0617L15.9558 19.5037V13.415V6.3999Z" fill="#8C8C8C" />
<path d="M15.9565 20.6062L15.8848 20.6937V25.1622L15.9565 25.3716L21.7829 17.166L15.9565 20.6062Z" fill="#3C3C3B" />
<path d="M15.9558 25.3716V20.6062L10.1328 17.166L15.9558 25.3716Z" fill="#8C8C8C" />
<path d="M15.9551 19.5038L21.778 16.0618L15.9551 13.415V19.5038Z" fill="#141414" />
<path d="M10.1328 16.0618L15.9558 19.5038V13.415L10.1328 16.0618Z" fill="#393939" />
</symbol><symbol viewBox="0 0 20 20" fill="none" id="fi-sr-copy">
<g clip-path="url(#fi-sr-copy_clip0_1_8345)">
<path d="M12.5 16.6667H4.16667C3.062 16.6653 2.00296 16.2259 1.22185 15.4448C0.440735 14.6637 0.00132321 13.6047 0 12.5L0 4.16667C0.00132321 3.062 0.440735 2.00296 1.22185 1.22185C2.00296 0.440735 3.062 0.00132321 4.16667 0L12.5 0C13.6047 0.00132321 14.6637 0.440735 15.4448 1.22185C16.2259 2.00296 16.6653 3.062 16.6667 4.16667V12.5C16.6653 13.6047 16.2259 14.6637 15.4448 15.4448C14.6637 16.2259 13.6047 16.6653 12.5 16.6667V16.6667ZM20 15.8333V5C20 4.77899 19.9122 4.56702 19.7559 4.41074C19.5996 4.25446 19.3877 4.16667 19.1667 4.16667C18.9457 4.16667 18.7337 4.25446 18.5774 4.41074C18.4211 4.56702 18.3333 4.77899 18.3333 5V15.8333C18.3333 16.4964 18.0699 17.1323 17.6011 17.6011C17.1323 18.0699 16.4964 18.3333 15.8333 18.3333H5C4.77899 18.3333 4.56702 18.4211 4.41074 18.5774C4.25446 18.7337 4.16667 18.9457 4.16667 19.1667C4.16667 19.3877 4.25446 19.5996 4.41074 19.7559C4.56702 19.9122 4.77899 20 5 20H15.8333C16.938 19.9987 17.997 19.5593 18.7782 18.7782C19.5593 17.997 19.9987 16.938 20 15.8333V15.8333Z" fill="currentColor" />
</g>
<defs>

</defs>
</symbol><clipPath id="fi-sr-copy_clip0_1_8345">
<rect width="20" height="20" fill="white" />
</clipPath><symbol viewBox="0 0 18 16" fill="none" id="fi-sr-menu-dots-vertical">
<g clip-path="url(#fi-sr-menu-dots-vertical_clip0_2008_7781)">
<path d="M9.00034 2.66669C9.73673 2.66669 10.3337 2.06973 10.3337 1.33334C10.3337 0.596958 9.73673 0 9.00034 0C8.26395 0 7.66699 0.596958 7.66699 1.33334C7.66699 2.06973 8.26395 2.66669 9.00034 2.66669Z" fill="#B4B5CE" />
<path d="M9.00034 9.33335C9.73673 9.33335 10.3337 8.73639 10.3337 8C10.3337 7.26361 9.73673 6.66665 9.00034 6.66665C8.26395 6.66665 7.66699 7.26361 7.66699 8C7.66699 8.73639 8.26395 9.33335 9.00034 9.33335Z" fill="#B4B5CE" />
<path d="M9.00034 16C9.73673 16 10.3337 15.403 10.3337 14.6666C10.3337 13.9303 9.73673 13.3333 9.00034 13.3333C8.26395 13.3333 7.66699 13.9303 7.66699 14.6666C7.66699 15.403 8.26395 16 9.00034 16Z" fill="#B4B5CE" />
</g>
<defs>

</defs>
</symbol><clipPath id="fi-sr-menu-dots-vertical_clip0_2008_7781">
<rect width="3.55556" height="16" fill="currentColor" transform="translate(7.22266)" />
</clipPath><symbol viewBox="0 0 30 30" fill="none" id="fi_10372960">
<path fill-rule="evenodd" clip-rule="evenodd" d="M11.25 1.25C10.5596 1.25 10 1.80965 10 2.5C10 3.19035 10.5596 3.75 11.25 3.75H18.75C19.4404 3.75 20 3.19035 20 2.5C20 1.80965 19.4404 1.25 18.75 1.25H11.25ZM7.55141 3.12239C7.49454 2.78192 7.22018 2.5 6.875 2.5H6.25C4.86929 2.5 3.75 3.61929 3.75 5V26.25C3.75 27.6308 4.86929 28.75 6.25 28.75H23.75C25.1308 28.75 26.25 27.6308 26.25 26.25V5C26.25 3.61929 25.1308 2.5 23.75 2.5H23.125C22.7799 2.5 22.5055 2.78192 22.4486 3.12239C22.1521 4.89724 20.609 6.25 18.75 6.25H11.25C9.39096 6.25 7.84788 4.89724 7.55141 3.12239ZM16.875 11.875C16.875 11.5299 16.5951 11.25 16.25 11.25L13.75 11.25C13.4047 11.25 13.125 11.5298 13.125 11.875V15.0001H10C9.65483 15.0001 9.375 15.2799 9.375 15.6251V18.1251C9.375 18.4703 9.65483 18.7501 10 18.7501H13.125V21.875C13.125 22.2201 13.4049 22.5 13.75 22.5H16.25C16.5951 22.5 16.875 22.2201 16.875 21.875V18.7501L20 18.75C20.3451 18.75 20.625 18.4702 20.625 18.125V15.6251C20.625 15.2799 20.3451 15.0001 20 15.0001H16.875V11.875Z" fill="white" />
</symbol><symbol viewBox="0 0 30 30" fill="none" id="fi_5404297">
<path d="M15.3255 0.941245C14.9111 0.930932 14.4967 0.941244 14.0842 0.968432C11.4086 1.14374 8.88298 2.00812 6.65735 3.68249V2.80874C6.65548 2.29406 6.23829 1.87687 5.7236 1.875C5.2061 1.87312 4.78423 2.29124 4.78235 2.80874V5.715C4.78235 6.55031 5.78923 6.9675 6.38079 6.37968C10.7111 2.05031 17.5652 1.60124 22.4224 5.32874C27.2795 9.05624 28.6183 15.7912 25.5583 21.0937C22.4964 26.3962 15.9977 28.5994 10.3408 26.2556C4.68391 23.9119 1.64923 17.7609 3.23454 11.8472C3.36954 11.3466 3.07142 10.8319 2.56985 10.6987C2.0711 10.5628 1.55642 10.8572 1.41954 11.3559C-0.404835 18.1659 3.10798 25.2937 9.62079 27.9928C16.1336 30.6909 23.6542 28.1306 27.1792 22.0275C30.7042 15.9244 29.1592 8.13093 23.5661 3.84C21.1192 1.96218 18.2242 1.00593 15.3255 0.941245ZM15.0039 5.40562C9.71548 5.40562 5.40392 9.71062 5.40392 14.9981C5.40392 20.2856 9.71642 24.5962 15.0039 24.5962C20.2914 24.5962 24.5945 20.2847 24.5945 14.9981C24.5945 9.71156 20.2914 5.40562 15.0039 5.40562ZM15.0039 9.10781C15.5214 9.10968 15.9395 9.53156 15.9377 10.0491V10.1934C16.8752 10.3209 17.6786 10.9022 18.1052 11.7112C18.3452 12.1697 18.168 12.7359 17.7086 12.9769C17.252 13.2169 16.6849 13.0406 16.443 12.5831C16.2752 12.2634 15.9508 12.0431 15.5495 12.0431H14.6777C14.102 12.0431 13.667 12.4781 13.667 13.0537C13.667 13.6294 14.102 14.0644 14.6777 14.0644H15.0039H15.0499H15.3283C16.9108 14.0644 18.2064 15.3684 18.2064 16.95C18.2064 18.3234 17.2305 19.4822 15.9377 19.7662V19.9528C15.9358 20.4675 15.5186 20.8847 15.0039 20.8866C14.4855 20.8894 14.0627 20.4712 14.0608 19.9528V19.8066C13.1252 19.6772 12.3217 19.0997 11.8961 18.2925C11.6542 17.835 11.8314 17.2659 12.2899 17.025C12.7492 16.7831 13.3164 16.9612 13.5574 17.4206C13.7252 17.7403 14.0561 17.9587 14.4564 17.9587H15.3283C15.9049 17.9587 16.3314 17.5256 16.3314 16.95C16.3314 16.3744 15.9049 15.9394 15.3283 15.9394H15.0039H14.6777C13.0952 15.9394 11.792 14.6353 11.792 13.0537C11.792 11.6841 12.7708 10.5262 14.0608 10.2394V10.0491C14.0589 9.52781 14.4817 9.10499 15.0039 9.10781Z" fill="white" />
</symbol><symbol viewBox="0 0 30 30" fill="none" id="fi_6830961">
<g clip-path="url(#fi_6830961_clip0_1_360)">
<path d="M15.1172 23.7264C15.1174 22.1195 15.5859 20.5476 16.4655 19.2028C17.345 17.8581 18.5974 16.7988 20.0695 16.1547C21.5416 15.5106 23.1695 15.3095 24.7541 15.576C26.3387 15.8426 27.8113 16.5652 28.9916 17.6555C29.0307 14.8309 29.0072 12.0063 28.9213 9.18165C28.8744 7.24102 27.7787 5.29278 25.943 4.33008C24.9996 3.83145 24.0223 3.35157 23.0338 2.89688C19.1279 4.16016 14.5535 5.82657 9.93984 7.88965C9.49626 8.08573 9.11625 8.40179 8.84263 8.80222C8.56902 9.20266 8.41267 9.67155 8.39121 10.1561C8.31914 12.3826 8.29688 14.6807 8.32617 16.9529C8.32853 17.0196 8.30946 17.0852 8.27176 17.1402C8.23406 17.1952 8.17972 17.2367 8.11671 17.2585C8.0537 17.2803 7.98536 17.2814 7.92171 17.2615C7.85806 17.2416 7.80246 17.2019 7.76309 17.1481C7.27481 16.5231 6.79785 15.9051 6.33223 15.2941C6.29785 15.2464 6.24677 15.2133 6.18913 15.2015C6.13149 15.1896 6.0715 15.1999 6.02109 15.2303C5.65898 15.4459 5.30332 15.6586 4.9541 15.8684C4.7584 15.9856 4.51758 15.8291 4.51641 15.5883C4.50469 13.3248 4.56094 11.0555 4.68223 8.85586C4.7332 7.92833 5.31504 7.05469 6.17578 6.6293C10.6008 4.44375 15.3217 2.6584 19.35 1.33711C18.4125 0.970317 17.4803 0.633989 16.5703 0.315239C15.3434 -0.106056 14.0109 -0.106056 12.784 0.315239C9.74766 1.3629 6.43184 2.73047 3.41074 4.33008C1.57559 5.29278 0.481055 7.24102 0.432422 9.18165C0.312891 13.0606 0.312891 16.9395 0.432422 20.8184C0.479297 22.759 1.57559 24.7072 3.41074 25.6699C6.43184 27.2695 9.74766 28.6371 12.7857 29.6842C14.0127 30.1055 15.3451 30.1055 16.5721 29.6842C16.8373 29.5928 17.1051 29.4984 17.3754 29.4012C15.9206 27.8705 15.1118 25.838 15.1172 23.7264Z" fill="white" />
<path d="M23.3829 17.4533C22.1421 17.4534 20.9292 17.8215 19.8976 18.5109C18.8659 19.2004 18.0619 20.1803 17.5872 21.3267C17.1125 22.4731 16.9883 23.7345 17.2305 24.9514C17.4727 26.1684 18.0703 27.2862 18.9478 28.1635C19.8252 29.0408 20.9432 29.6382 22.1601 29.8801C23.3771 30.1221 24.6385 29.9977 25.7849 29.5228C26.9312 29.0479 27.9109 28.2437 28.6002 27.2119C29.2894 26.1801 29.6572 24.9672 29.6571 23.7264C29.6571 22.9025 29.4947 22.0867 29.1794 21.3256C28.864 20.5645 28.4018 19.8729 27.8192 19.2904C27.2366 18.7079 26.545 18.2458 25.7838 17.9306C25.0226 17.6154 24.2068 17.4532 23.3829 17.4533ZM26.9612 22.6881L23.1901 26.6478C23.0875 26.7558 22.9641 26.8419 22.8274 26.9009C22.6906 26.9599 22.5434 26.9906 22.3944 26.9912H22.3892C22.2411 26.9911 22.0946 26.9614 21.9582 26.9037C21.8218 26.846 21.6984 26.7616 21.5952 26.6555L19.5942 24.5941C19.3899 24.3836 19.2776 24.1004 19.282 23.807C19.2863 23.5137 19.4071 23.234 19.6177 23.0297C19.8282 22.8253 20.1114 22.713 20.4048 22.7174C20.6981 22.7218 20.9778 22.8425 21.1821 23.0531L22.3827 24.2889L25.3599 21.1623C25.5646 20.9617 25.8391 20.8484 26.1257 20.8462C26.4123 20.8441 26.6886 20.9532 26.8963 21.1507C27.104 21.3482 27.227 21.6185 27.2393 21.9049C27.2516 22.1912 27.1524 22.4711 26.9624 22.6857L26.9612 22.6881Z" fill="white" />
</g>
<defs>

</defs>
</symbol><clipPath id="fi_6830961_clip0_1_360">
<rect width="30" height="30" fill="white" />
</clipPath><symbol viewBox="0 0 30 30" fill="none" id="fi_879859">
<g clip-path="url(#fi_879859_clip0_1_340)">
<path d="M28.0052 15.3885C27.8844 15.1416 27.8844 14.8583 28.0052 14.6114L29.1241 12.3225C29.747 11.048 29.2534 9.52897 28.0003 8.86412L25.7498 7.66998C25.507 7.54119 25.3405 7.31198 25.293 7.04133L24.8528 4.53184C24.6077 3.13462 23.3153 2.19572 21.911 2.39441L19.3883 2.75124C19.1161 2.78968 18.8468 2.70214 18.6493 2.51107L16.8182 0.739671C15.7986 -0.24669 14.2014 -0.246749 13.1818 0.739671L11.3507 2.51124C11.1531 2.70237 10.8839 2.78974 10.6116 2.75142L8.08902 2.39458C6.68424 2.19578 5.39226 3.13479 5.14716 4.53201L4.70701 7.04139C4.65949 7.31209 4.49302 7.54125 4.25027 7.6701L1.9997 8.86423C0.746621 9.52903 0.25303 11.0482 0.875995 12.3226L1.99484 14.6115C2.11554 14.8585 2.11554 15.1418 1.99484 15.3887L0.875936 17.6776C0.252971 18.952 0.746562 20.4711 1.99964 21.1359L4.25021 22.3301C4.49302 22.4588 4.65949 22.6881 4.70701 22.9587L5.14716 25.4682C5.37029 26.7401 6.46094 27.6322 7.71443 27.6321C7.83789 27.6321 7.96316 27.6234 8.08908 27.6056L10.6117 27.2487C10.8837 27.2101 11.1532 27.2978 11.3507 27.4889L13.1818 29.2603C13.6917 29.7535 14.3457 30.0001 15 30C15.6541 30 16.3085 29.7534 16.8181 29.2603L18.6493 27.4889C18.8469 27.2978 19.1162 27.2105 19.3883 27.2487L21.911 27.6056C23.3159 27.8043 24.6077 26.8654 24.8528 25.4681L25.293 22.9588C25.3406 22.6881 25.507 22.4589 25.7498 22.3301L28.0003 21.1359C29.2534 20.4711 29.747 18.952 29.1241 17.6775L28.0052 15.3885ZM11.5394 7.21377C13.2885 7.21377 14.7116 8.63683 14.7116 10.386C14.7116 12.1351 13.2885 13.5582 11.5394 13.5582C9.79028 13.5582 8.36722 12.1351 8.36722 10.386C8.36722 8.63683 9.79028 7.21377 11.5394 7.21377ZM9.90207 21.3213C9.73315 21.4902 9.51173 21.5747 9.29036 21.5747C9.06899 21.5747 8.84751 21.4903 8.67865 21.3213C8.3408 20.9835 8.3408 20.4357 8.67865 20.0978L20.0979 8.67861C20.4356 8.34076 20.9835 8.34076 21.3213 8.67861C21.6592 9.01646 21.6592 9.56425 21.3213 9.9021L9.90207 21.3213ZM18.4605 22.7863C16.7113 22.7863 15.2883 21.3632 15.2883 19.6141C15.2883 17.8649 16.7113 16.4419 18.4605 16.4419C20.2096 16.4419 21.6327 17.8649 21.6327 19.6141C21.6327 21.3632 20.2096 22.7863 18.4605 22.7863Z" fill="white" />
<path d="M18.4605 18.1722C17.6654 18.1722 17.0186 18.819 17.0186 19.6141C17.0186 20.4091 17.6654 21.0559 18.4605 21.0559C19.2555 21.0559 19.9023 20.4091 19.9023 19.6141C19.9023 18.819 19.2555 18.1722 18.4605 18.1722Z" fill="white" />
<path d="M11.5395 8.94406C10.7445 8.94406 10.0977 9.59087 10.0977 10.3859C10.0977 11.181 10.7445 11.8279 11.5395 11.8279C12.3346 11.8279 12.9814 11.181 12.9814 10.3859C12.9814 9.59093 12.3346 8.94406 11.5395 8.94406Z" fill="white" />
</g>
<defs>

</defs>
</symbol><clipPath id="fi_879859_clip0_1_340">
<rect width="30" height="30" fill="white" />
</clipPath><symbol viewBox="0 0 16 20" fill="none" id="fi_8861036">
<g clip-path="url(#fi_8861036_clip0_1_1192)">
<path fill-rule="evenodd" clip-rule="evenodd" d="M7.57787 0.0660864L1.35564 1.61943C0.559831 1.81811 0 2.54645 0 3.38311V11.1012C0 14.1566 1.70436 16.9451 4.3921 18.2871L7.6096 19.8936C7.7328 19.955 7.8664 19.9858 8 19.9858C8.1336 19.9858 8.2672 19.955 8.3904 19.8936L11.6079 18.2871C14.2956 16.9451 16 14.1566 16 11.1012V3.38311C16 2.54645 15.4402 1.81811 14.6444 1.61943L8.42213 0.0660864C8.28347 0.0314719 8.14178 0.0141602 8 0.0141602C7.85822 0.0141602 7.71653 0.0314719 7.57787 0.0660864ZM12.1841 7.91849C12.5312 7.56397 12.5312 6.98918 12.1841 6.63467C11.837 6.28014 11.2741 6.28014 10.927 6.63466L7.11111 10.5317L5.07298 8.45027C4.72584 8.09575 4.16303 8.09575 3.8159 8.45027C3.46877 8.80477 3.46877 9.37959 3.81591 9.73408L6.48258 12.4575C6.82969 12.812 7.39253 12.812 7.73964 12.4575L12.1841 7.91849Z" fill="white" />
</g>
<defs>

</defs>
</symbol><clipPath id="fi_8861036_clip0_1_1192">
<rect width="16" height="20" fill="white" />
</clipPath><symbol viewBox="0 0 20 20" fill="none" id="flag-us">
<g clip-path="url(#flag-us_clip0_1_7860)">
<path d="M10 20C15.5228 20 20 15.5228 20 10C20 4.47715 15.5228 0 10 0C4.47715 0 0 4.47715 0 10C0 15.5228 4.47715 20 10 20Z" fill="#F0F0F0" />
<path d="M9.56543 10.0001H20.0002C20.0002 9.09749 19.8799 8.22312 19.6557 7.39136H9.56543V10.0001Z" fill="#E73838" />
<path d="M9.56543 4.78266H18.5325C17.9203 3.78375 17.1376 2.90083 16.225 2.17395H9.56543V4.78266Z" fill="#E73838" />
<path d="M10.0002 20.0001C12.3537 20.0001 14.5169 19.1866 16.2251 17.8262H3.77539C5.48359 19.1866 7.64676 20.0001 10.0002 20.0001Z" fill="#E73838" />
<path d="M1.46797 15.2175H18.5325C19.0239 14.4156 19.4051 13.539 19.6557 12.6088H0.344727C0.595391 13.539 0.976523 14.4156 1.46797 15.2175Z" fill="#E73838" />
<path d="M4.63219 1.56164H5.54348L4.69582 2.17746L5.01961 3.17391L4.17199 2.55809L3.32437 3.17391L3.60406 2.31309C2.85773 2.93477 2.20359 3.66313 1.66453 4.47469H1.95652L1.41695 4.86668C1.33289 5.00691 1.25227 5.14937 1.175 5.29395L1.43266 6.08695L0.951953 5.7377C0.832461 5.99086 0.723164 6.24973 0.624922 6.51398L0.908789 7.38773H1.95652L1.10887 8.00356L1.43266 9L0.585039 8.38418L0.0773047 8.75309C0.0264844 9.1616 0 9.57769 0 10H10C10 4.47719 10 3.82609 10 0C8.02453 0 6.18301 0.573047 4.63219 1.56164ZM5.01961 9L4.17199 8.38418L3.32437 9L3.64816 8.00356L2.80051 7.38773H3.84824L4.17199 6.39129L4.49574 7.38773H5.54348L4.69582 8.00356L5.01961 9ZM4.69582 5.09051L5.01961 6.08695L4.17199 5.47113L3.32437 6.08695L3.64816 5.09051L2.80051 4.47469H3.84824L4.17199 3.47824L4.49574 4.47469H5.54348L4.69582 5.09051ZM8.60656 9L7.75895 8.38418L6.91133 9L7.23512 8.00356L6.38746 7.38773H7.4352L7.75895 6.39129L8.0827 7.38773H9.13043L8.28277 8.00356L8.60656 9ZM8.28277 5.09051L8.60656 6.08695L7.75895 5.47113L6.91133 6.08695L7.23512 5.09051L6.38746 4.47469H7.4352L7.75895 3.47824L8.0827 4.47469H9.13043L8.28277 5.09051ZM8.28277 2.17746L8.60656 3.17391L7.75895 2.55809L6.91133 3.17391L7.23512 2.17746L6.38746 1.56164H7.4352L7.75895 0.565195L8.0827 1.56164H9.13043L8.28277 2.17746Z" fill="#0052B4" />
</g>
<defs>

</defs>
</symbol><clipPath id="flag-us_clip0_1_7860">
<rect width="20" height="20" fill="white" />
</clipPath><symbol viewBox="0 0 40 41" fill="none" id="ltc">
<ellipse cx="20.1663" cy="20.3333" rx="17.8333" ry="17.8333" fill="white" />
<path fill-rule="evenodd" clip-rule="evenodd" d="M0 20.5C0 9.45431 8.95427 0.5 19.9999 0.5H20.1161C25.405 0.51539 30.4712 2.63118 34.2001 6.38191C37.9291 10.1326 40.0153 15.2111 39.9998 20.5C39.9998 31.5457 31.0456 40.5 19.9999 40.5C8.95427 40.5 0 31.5457 0 20.5ZM18.2566 28.1997L20.339 21.1779L23.5835 20.2578L24.2615 17.9333L21.0653 18.9019L24.4552 7.37645V7.19243C24.4501 7.04342 24.386 6.90252 24.277 6.80079C24.168 6.69906 24.0231 6.64483 23.8741 6.65006H19.5641C19.2284 6.63971 18.9288 6.85942 18.8378 7.18274L14.8184 20.8389L11.6223 21.8074L10.8959 24.035L14.092 23.0665L11.2349 32.8002H28.2808C28.6177 32.8141 28.9193 32.5929 29.0072 32.2675L29.9757 28.9261V28.7421C29.9707 28.5931 29.9066 28.4522 29.7976 28.3504C29.6886 28.2487 29.5436 28.1945 29.3946 28.1997H18.2566Z" fill="#345D9D" />
</symbol><symbol viewBox="0 0 16 16" fill="none" id="minus">
<path d="M2 8L14 8" stroke="currentColor" stroke-width="2" stroke-linecap="round" stroke-linejoin="round" />
</symbol><symbol viewBox="0 0 24 24" fill="none" id="paper-clip">
<path fill-rule="evenodd" clip-rule="evenodd" d="M9.29305 21V21C7.63705 21 6.06305 20.334 4.86105 19.125C2.47305 16.722 2.37505 12.912 4.64205 10.631L12.0281 3.201C12.7971 2.427 13.8351 2 14.9501 2C16.1431 2 17.2771 2.479 18.1421 3.349C19.8631 5.08 19.9291 7.831 18.2881 9.481L10.8931 16.91C10.4141 17.393 9.76905 17.658 9.07705 17.658V17.658C8.34605 17.658 7.65305 17.366 7.12705 16.837C6.07405 15.776 6.04105 14.085 7.05405 13.065L13.8791 6.21C14.2691 5.818 14.9011 5.816 15.2931 6.206C15.6841 6.596 15.6861 7.229 15.2961 7.62L8.47205 14.476C8.23205 14.718 8.26505 15.145 8.54605 15.427C8.69205 15.574 8.88605 15.658 9.07705 15.658V15.658C9.18705 15.658 9.34505 15.631 9.47505 15.5L16.8701 8.071C17.7371 7.198 17.6721 5.713 16.7241 4.759C15.8171 3.847 14.2781 3.775 13.4461 4.611L6.06005 12.041C4.56605 13.544 4.66405 16.09 6.28005 17.715C7.10305 18.544 8.17305 19 9.29305 19C10.2941 19 11.2221 18.622 11.9041 17.936L19.2911 10.506C19.6801 10.115 20.3131 10.112 20.7051 10.502C21.0961 10.892 21.0981 11.524 20.7091 11.916L13.3221 19.346C12.2621 20.412 10.8311 21 9.29305 21" fill="black" />

</symbol><mask id="paper-clip_mask0_269_6855" style="mask-type:alpha" maskUnits="userSpaceOnUse" x="3" y="2" width="18" height="19">
<path fill-rule="evenodd" clip-rule="evenodd" d="M9.29305 21V21C7.63705 21 6.06305 20.334 4.86105 19.125C2.47305 16.722 2.37505 12.912 4.64205 10.631L12.0281 3.201C12.7971 2.427 13.8351 2 14.9501 2C16.1431 2 17.2771 2.479 18.1421 3.349C19.8631 5.08 19.9291 7.831 18.2881 9.481L10.8931 16.91C10.4141 17.393 9.76905 17.658 9.07705 17.658V17.658C8.34605 17.658 7.65305 17.366 7.12705 16.837C6.07405 15.776 6.04105 14.085 7.05405 13.065L13.8791 6.21C14.2691 5.818 14.9011 5.816 15.2931 6.206C15.6841 6.596 15.6861 7.229 15.2961 7.62L8.47205 14.476C8.23205 14.718 8.26505 15.145 8.54605 15.427C8.69205 15.574 8.88605 15.658 9.07705 15.658V15.658C9.18705 15.658 9.34505 15.631 9.47505 15.5L16.8701 8.071C17.7371 7.198 17.6721 5.713 16.7241 4.759C15.8171 3.847 14.2781 3.775 13.4461 4.611L6.06005 12.041C4.56605 13.544 4.66405 16.09 6.28005 17.715C7.10305 18.544 8.17305 19 9.29305 19C10.2941 19 11.2221 18.622 11.9041 17.936L19.2911 10.506C19.6801 10.115 20.3131 10.112 20.7051 10.502C21.0961 10.892 21.0981 11.524 20.7091 11.916L13.3221 19.346C12.2621 20.412 10.8311 21 9.29305 21" fill="white" />
</mask><symbol viewBox="0 0 14 13" fill="none" id="paw">
<path fill-rule="evenodd" clip-rule="evenodd" d="M6.36676 1.73958C6.0663 0.567387 5.14229 -0.193129 4.30228 0.0430425C3.46335 0.278131 3.02396 1.42107 3.32443 2.59327C3.62489 3.76546 4.5489 4.52489 5.38891 4.2898C6.22891 4.05472 6.66723 2.91286 6.36676 1.73958Z" fill="currentColor" />
<path fill-rule="evenodd" clip-rule="evenodd" d="M9.69772 0.0430425C8.85771 -0.193129 7.9337 0.566304 7.63323 1.73958C7.33277 2.91286 7.77108 4.05363 8.61109 4.2898C9.4511 4.52598 10.3762 3.76546 10.6756 2.59327C10.975 1.42107 10.5377 0.279214 9.69772 0.0430425Z" fill="currentColor" />
<path fill-rule="evenodd" clip-rule="evenodd" d="M11.8408 7.53988C12.6808 7.77605 13.6048 7.01661 13.9053 5.84334C14.2058 4.67006 13.7674 3.52929 12.9274 3.29311C12.0874 3.05694 11.1634 3.81638 10.863 4.98965C10.5636 6.16185 11.0008 7.3037 11.8408 7.53988Z" fill="currentColor" />
<path fill-rule="evenodd" clip-rule="evenodd" d="M7.82278 12.1864C8.3677 12.584 9.12048 13 9.87218 13C10.696 13 11.3077 12.3749 11.3077 11.4833C11.3077 8.4499 9.04725 5.4165 7 5.4165C4.95275 5.4165 2.69227 8.4499 2.69227 11.4833C2.69227 12.3749 3.30396 13 4.12782 13C4.88059 13 5.63229 12.584 6.1783 12.1864C6.67692 11.8246 7.32416 11.8246 7.82278 12.1864Z" fill="currentColor" />
<path fill-rule="evenodd" clip-rule="evenodd" d="M1.07256 3.29311C0.23255 3.5282 -0.205762 4.67006 0.0947027 5.84334C0.39409 7.01661 1.31918 7.77496 2.15918 7.53988C2.99919 7.30479 3.4375 6.16293 3.13704 4.98965C2.83657 3.81746 1.91257 3.05803 1.07256 3.29311Z" fill="currentColor" />
</symbol><symbol viewBox="0 0 16 16" fill="none" id="plus">
<path d="M8 2V14" stroke="currentColor" stroke-width="2" stroke-linecap="round" stroke-linejoin="round" />
<path d="M2 8L14 8" stroke="currentColor" stroke-width="2" stroke-linecap="round" stroke-linejoin="round" />
</symbol><symbol viewBox="0 0 18 18" fill="none" id="search">
<path d="M8.25 15C11.9779 15 15 11.9779 15 8.25C15 4.52208 11.9779 1.5 8.25 1.5C4.52208 1.5 1.5 4.52208 1.5 8.25C1.5 11.9779 4.52208 15 8.25 15Z" stroke="currentColor" stroke-width="2" stroke-linecap="round" stroke-linejoin="round" />
<path d="M16.5 16.5L13.5 13.5" stroke="currentColor" stroke-width="2" stroke-linecap="round" stroke-linejoin="round" />
</symbol><symbol viewBox="0 0 20 18" fill="none" id="telegram">
<path d="M13 7L9 11L15 17L19 1L1 8L5 10L7 16L10 12" stroke="currentColor" stroke-width="2" stroke-linecap="round" stroke-linejoin="round" />
</symbol><symbol viewBox="0 0 20 20" fill="none" id="timer">
<path d="M9.99102 1.66675C5.39102 1.66675 1.66602 5.40008 1.66602 10.0001C1.66602 14.6001 5.39102 18.3334 9.99102 18.3334C14.5993 18.3334 18.3327 14.6001 18.3327 10.0001C18.3327 5.40008 14.5993 1.66675 9.99102 1.66675ZM12.741 13.9251L9.16602 10.3417V5.83341H10.8327V9.65841L13.9243 12.7501L12.741 13.9251Z" fill="currentColor" />
</symbol><symbol viewBox="0 0 20 20" fill="none" id="trash">
<path d="M5.00033 15.8333C5.00033 16.75 5.75033 17.5 6.66699 17.5H13.3337C14.2503 17.5 15.0003 16.75 15.0003 15.8333V5.83333H5.00033V15.8333ZM15.8337 3.33333H12.917L12.0837 2.5H7.91699L7.08366 3.33333H4.16699V5H15.8337V3.33333Z" fill="#E14C4C" />
</symbol><symbol viewBox="0 0 40 41" fill="none" id="trx">
<path fill-rule="evenodd" clip-rule="evenodd" d="M20 40.5C9 40.5 0 31.5002 0 20.4004C0.1 9.40064 9 0.400827 20.1 0.500825C31.1 0.600823 40 9.50064 40 20.7004C39.9 31.6002 31 40.5 20 40.5Z" fill="#FC070C" />
<path fill-rule="evenodd" clip-rule="evenodd" d="M32.4119 14.5101L32.4118 14.51C31.4856 13.6106 30.5068 12.6603 29.6431 11.8937L29.5556 11.8324C29.41 11.7155 29.2458 11.6238 29.0699 11.5612L28.4033 11.4368C23.8033 10.5785 8.89296 7.79638 8.58625 7.83368C8.49553 7.84639 8.40882 7.87928 8.3325 7.92993L8.24937 7.99556C8.14702 8.09951 8.06928 8.22509 8.02187 8.36306L8 8.41993V8.73056V8.77868C9.01229 11.5974 11.6419 17.8924 14.07 23.7048L14.07 23.7048C16.1227 28.6188 18.0314 33.1879 18.6968 35.0198L18.6971 35.0206C18.7846 35.2921 18.9509 35.8074 19.2612 35.8336H19.3312C19.4975 35.8336 20.2062 34.8974 20.2062 34.8974C20.2062 34.8974 32.8762 19.5324 34.158 17.8962C34.324 17.6946 34.4705 17.4778 34.5955 17.2487C34.6605 16.884 34.5293 16.5119 34.2499 16.2687C33.7041 15.7647 33.0713 15.1503 32.4119 14.5101ZM23.4568 18.058L28.8643 13.5736L32.0361 16.4961L23.4568 18.058ZM12.0469 10.1349L21.3568 17.7648L27.11 12.913L12.0469 10.1349ZM22.1969 19.7642L31.7256 18.2286L20.8319 31.3536L22.1969 19.7642ZM20.5781 19.2086L10.7825 10.8961L19.1606 31.3623L20.5781 19.2086Z" fill="white" />
</symbol><symbol viewBox="0 0 40 41" fill="none" id="usdt">
<path d="M39.4016 25.3381C36.7301 36.0525 25.877 42.5731 15.1601 39.9012C4.44772 37.2301 -2.07358 26.3775 0.599038 15.6639C3.26931 4.94838 14.1225 -1.57268 24.836 1.09847C35.5521 3.76961 42.073 14.6234 39.4013 25.3383L39.4015 25.3381H39.4016Z" fill="#50AF95" />
<path fill-rule="evenodd" clip-rule="evenodd" d="M22.5336 22.7675C22.3922 22.7781 21.6615 22.8217 20.0314 22.8217C18.735 22.8217 17.8145 22.7828 17.4915 22.7675C12.4812 22.5471 8.74146 21.675 8.74146 20.6309C8.74146 19.5867 12.4812 18.7158 17.4915 18.4919V21.8989C17.8192 21.9225 18.7573 21.9779 20.0538 21.9779C21.6096 21.9779 22.3887 21.9131 22.5289 21.9001V18.4943C27.5286 18.717 31.2601 19.5891 31.2601 20.6309C31.2601 21.6727 27.5298 22.5447 22.5289 22.7663L22.5336 22.7675ZM22.5335 18.1419V15.0932H29.5109V10.444H10.514V15.0932H17.4902V18.1407C11.8199 18.4012 7.55566 19.5243 7.55566 20.8701C7.55566 22.2159 11.8199 23.3378 17.4902 23.5994V33.3691H22.5324V23.5959C28.1897 23.3355 32.4469 22.2136 32.4469 20.8689C32.4469 19.5243 28.1933 18.4023 22.5324 18.1407L22.5335 18.1419Z" fill="white" />
</symbol><symbol viewBox="0 0 20 20" fill="none" id="whatsapp">
<path d="M5.25301 16.494L5.97701 16.917C7.19795 17.6291 8.5866 18.0029 10 18C11.5823 18 13.129 17.5308 14.4446 16.6518C15.7602 15.7727 16.7855 14.5233 17.3911 13.0615C17.9966 11.5997 18.155 9.99113 17.8463 8.43928C17.5376 6.88743 16.7757 5.46197 15.6569 4.34315C14.538 3.22433 13.1126 2.4624 11.5607 2.15372C10.0089 1.84504 8.40036 2.00346 6.93855 2.60896C5.47674 3.21447 4.22731 4.23984 3.34826 5.55544C2.46921 6.87103 2.00001 8.41775 2.00001 10C2.00001 11.436 2.37701 12.813 3.08401 14.024L3.50601 14.748L2.85301 17.149L5.25301 16.494ZM0.00401338 20L1.35601 15.032C0.465151 13.5049 -0.00289063 11.768 1.34322e-05 10C1.34322e-05 4.477 4.47701 0 10 0C15.523 0 20 4.477 20 10C20 15.523 15.523 20 10 20C8.23279 20.0029 6.49667 19.5352 4.97001 18.645L0.00401338 20ZM6.39101 5.308C6.52501 5.298 6.66001 5.298 6.79401 5.304C6.84801 5.308 6.90201 5.314 6.95601 5.32C7.11501 5.338 7.29001 5.435 7.34901 5.569C7.64701 6.245 7.93701 6.926 8.21701 7.609C8.27901 7.761 8.24201 7.956 8.12401 8.146C8.04286 8.27448 7.95507 8.39865 7.86101 8.518C7.74801 8.663 7.50501 8.929 7.50501 8.929C7.50501 8.929 7.40601 9.047 7.44401 9.194C7.45801 9.25 7.50401 9.331 7.54601 9.399L7.60501 9.494C7.86101 9.921 8.20501 10.354 8.62501 10.762C8.74501 10.878 8.86201 10.997 8.98801 11.108C9.45601 11.521 9.98601 11.858 10.558 12.108L10.563 12.11C10.648 12.147 10.691 12.167 10.815 12.22C10.877 12.246 10.941 12.269 11.006 12.286C11.0732 12.3031 11.1439 12.2999 11.2093 12.2767C11.2746 12.2536 11.3316 12.2116 11.373 12.156C12.097 11.279 12.163 11.222 12.169 11.222V11.224C12.2193 11.1771 12.2791 11.1415 12.3443 11.1196C12.4095 11.0977 12.4786 11.09 12.547 11.097C12.607 11.101 12.668 11.112 12.724 11.137C13.255 11.38 14.124 11.759 14.124 11.759L14.706 12.02C14.804 12.067 14.893 12.178 14.896 12.285C14.9 12.352 14.906 12.46 14.883 12.658C14.851 12.917 14.773 13.228 14.695 13.391C14.6416 13.5022 14.5707 13.6042 14.485 13.693C14.3841 13.7989 14.2736 13.8954 14.155 13.981C14.114 14.0119 14.0723 14.0419 14.03 14.071C13.9056 14.1499 13.7778 14.2233 13.647 14.291C13.3895 14.4278 13.1052 14.5063 12.814 14.521C12.629 14.531 12.444 14.545 12.258 14.535C12.25 14.535 11.69 14.448 11.69 14.448C10.2683 14.074 8.9534 13.3735 7.85001 12.402C7.62401 12.203 7.41501 11.989 7.20101 11.776C6.31101 10.891 5.63901 9.936 5.23101 9.034C5.02218 8.59129 4.90938 8.1094 4.90001 7.62C4.89589 7.01285 5.09436 6.42167 5.46401 5.94C5.53701 5.846 5.60601 5.748 5.72501 5.635C5.85201 5.515 5.93201 5.451 6.01901 5.407C6.13469 5.34903 6.26088 5.31502 6.39001 5.307L6.39101 5.308Z" fill="currentColor" />
</symbol></defs></svg>