<svg xmlns="http://www.w3.org/2000/svg" width="25" height="27" fill="none" viewBox="0 0 25 27">
  <path fill="#F7931A" d="M24.626 16.524c-1.67 6.697-8.453 10.773-15.15 9.103-6.696-1.67-10.772-8.453-9.102-15.15C2.044 3.78 8.827-.297 15.523 1.373c6.697 1.67 10.773 8.454 9.103 15.151Z"/>
  <path fill="#fff" d="M18.013 11.719c.248-1.664-1.018-2.558-2.75-3.155l.562-2.253-1.372-.342-.547 2.194c-.36-.09-.731-.174-1.1-.258l.552-2.21-1.371-.341-.562 2.253a45.276 45.276 0 0 1-.876-.206l.001-.007-1.89-.474-.365 1.466s1.017.233.996.247c.555.139.656.507.64.798L9.29 12c.037.01.087.023.142.045l-.145-.036-.897 3.597c-.068.169-.24.422-.629.326.014.02-.997-.249-.997-.249l-.681 1.57 1.785.445c.332.084.658.17.978.253l-.567 2.28 1.37.341.562-2.255c.374.101.738.195 1.093.283l-.56 2.245 1.372.342.568-2.275c2.339.442 4.098.264 4.838-1.852.597-1.703-.03-2.686-1.26-3.327.896-.207 1.571-.796 1.751-2.014Zm-3.135 4.395c-.424 1.704-3.292.783-4.222.552l.754-3.02c.93.232 3.912.691 3.468 2.468Zm.425-4.42c-.387 1.55-2.774.763-3.549.57l.683-2.74c.775.194 3.269.554 2.866 2.17Z"/>
</svg>
