<svg style="display: none;" aria-hidden="true" xmlns="http://www.w3.org/2000/svg" xmlns:xlink="http://www.w3.org/1999/xlink"><symbol fill="none" viewBox="0 0 31 18" id="svg-amex" xmlns="http://www.w3.org/2000/svg">
  <path fill="#306FC5" d="M5.7 9.575h1.204L6.299 8.04 5.7 9.575Z"/>
  <path fill="#306FC5" d="M28.653 0H1.563C.812 0 .2.61.2 1.364v15.272C.2 17.39.81 18 1.564 18h27.089c.753 0 1.364-.61 1.364-1.364V1.364C30.017.61 29.406 0 28.653 0ZM9.055 11.783a.274.274 0 0 1-.227.12h-.819a.273.273 0 0 1-.255-.174l-.296-.75H5.153l-.292.75a.273.273 0 0 1-.256.174h-.817a.275.275 0 0 1-.255-.374l2.1-5.388a.273.273 0 0 1 .255-.175h.814c.114 0 .214.068.256.174l2.125 5.388a.274.274 0 0 1-.028.255Zm5.764-.198a.275.275 0 0 1-.275.274h-.706a.275.275 0 0 1-.275-.274v-2.36l-1.203 2.377a.273.273 0 0 1-.49 0l-1.215-2.384v2.367a.275.275 0 0 1-.274.274h-.706a.275.275 0 0 1-.275-.274V6.256c0-.15.123-.274.275-.274h.569c.103 0 .197.057.244.15l1.624 3.18 1.609-3.18a.273.273 0 0 1 .245-.15h.578c.152 0 .275.123.275.274v5.329Zm6.094.058a.275.275 0 0 1-.275.274h-3.374a.275.275 0 0 1-.274-.274V6.309c0-.151.123-.274.274-.274h3.28c.152 0 .275.123.275.274v.65a.275.275 0 0 1-.274.275h-2.356v1.143h1.919c.151 0 .274.123.274.274v.65a.275.275 0 0 1-.274.275h-1.919v1.142h2.45c.15 0 .274.123.274.275v.65Zm5.163-.205-.572.414a.274.274 0 0 1-.384-.062l-1.364-1.885-1.358 1.884a.276.276 0 0 1-.384.063l-.572-.413a.273.273 0 0 1-.062-.383l1.601-2.223-1.468-2.044a.275.275 0 0 1 .063-.383l.573-.412a.273.273 0 0 1 .383.063l1.224 1.703 1.23-1.704a.273.273 0 0 1 .383-.062l.572.412a.272.272 0 0 1 .063.384L24.53 8.834l1.607 2.22a.275.275 0 0 1-.061.384Z"/>
</symbol><symbol fill="currentColor" viewBox="0 0 21 21" id="svg-arr-down" xmlns="http://www.w3.org/2000/svg">
  <path d="M16.488 7.342a.834.834 0 0 0-1.184 0l-3.816 3.816a.834.834 0 0 1-1.184 0L6.488 7.342a.833.833 0 1 0-1.184 1.175l3.825 3.825a2.5 2.5 0 0 0 3.534 0l3.825-3.825a.833.833 0 0 0 0-1.175Z"/>
</symbol><symbol fill="currentColor" viewBox="0 0 24 24" id="svg-arr-left" xmlns="http://www.w3.org/2000/svg">
  <g clip-path="url(#aca)">
    <path d="M.88 14.09 4.75 18a1 1 0 0 0 1.42 0 1 1 0 0 0 0-1.41L2.61 13H23a1 1 0 0 0 1-1 1 1 0 0 0-1-1H2.55l3.62-3.61a1 1 0 0 0 0-1.42 1 1 0 0 0-1.42 0L.88 9.85a3 3 0 0 0 0 4.24Z"/>
  </g>
  <defs>
    <clipPath id="aca">
      <path d="M0 0h24v24H0z" transform="rotate(180 12 12)"/>
    </clipPath>
  </defs>
</symbol><symbol fill="currentColor" viewBox="0 0 21 21" id="svg-arr-next" xmlns="http://www.w3.org/2000/svg">
  <path d="M7.342 4.909a.833.833 0 0 0 0 1.183l3.816 3.817a.833.833 0 0 1 0 1.183l-3.816 3.817a.832.832 0 0 0 .587 1.425c.22 0 .432-.087.588-.242l3.825-3.825a2.5 2.5 0 0 0 0-3.533L8.517 4.909a.833.833 0 0 0-1.175 0Z"/>
</symbol><symbol fill="currentColor" viewBox="0 0 21 21" id="svg-arr-prev" xmlns="http://www.w3.org/2000/svg">
  <path d="M13.658 16.091a.832.832 0 0 0 0-1.183l-3.816-3.817a.832.832 0 0 1 0-1.183l3.816-3.817a.833.833 0 1 0-1.175-1.183L8.658 8.733a2.5 2.5 0 0 0 0 3.533l3.825 3.825a.834.834 0 0 0 1.175 0Z"/>
</symbol><symbol fill="currentColor" viewBox="0 0 24 24" id="svg-arr-right" xmlns="http://www.w3.org/2000/svg">
  <g clip-path="url(#aga)">
    <path d="M23.12 9.91 19.25 6a1 1 0 0 0-1.42 0 1 1 0 0 0 0 1.41L21.39 11H1a1 1 0 0 0-1 1 1 1 0 0 0 1 1h20.45l-3.62 3.61a1.002 1.002 0 0 0 .325 1.639 1 1 0 0 0 1.095-.22l3.87-3.88a3 3 0 0 0 0-4.24Z"/>
  </g>
  <defs>
    <clipPath id="aga">
      <path d="M0 0h24v24H0z"/>
    </clipPath>
  </defs>
</symbol><symbol fill="currentColor" viewBox="0 0 16 17" id="svg-arr-right-small" xmlns="http://www.w3.org/2000/svg">
  <path fill-rule="evenodd" d="M9.176 2.755a.5.5 0 0 1 .707.015l4.478 4.666a.5.5 0 0 1 0 .693l-4.479 4.666a.5.5 0 1 1-.721-.692l4.146-4.32L9.16 3.461a.5.5 0 0 1 .015-.707Z" clip-rule="evenodd"/>
  <path fill-rule="evenodd" d="M13.822 7.87a.5.5 0 0 1-.5.5H2.5a.5.5 0 1 1 0-1h10.822a.5.5 0 0 1 .5.5Z" clip-rule="evenodd"/>
</symbol><symbol fill="currentColor" viewBox="0 0 16 15" id="svg-arr-top-right" xmlns="http://www.w3.org/2000/svg">
  <path d="M14.545 0c.527 0 .955.428.955.955V10.98a.955.955 0 1 1-1.91 0V3.26L2.13 14.72a.955.955 0 0 1-1.26.08l-.09-.08a.955.955 0 0 1 0-1.35L12.239 1.91h-7.72a.955.955 0 0 1-.949-.844L3.564.955c0-.527.427-.955.955-.955h10.026Z"/>
</symbol><symbol fill="currentColor" viewBox="0 0 16 16" id="svg-calendar" xmlns="http://www.w3.org/2000/svg">
  <g clip-path="url(#aia)">
    <path fill-opacity=".75" d="M12.667 1.333H12V.667a.666.666 0 1 0-1.333 0v.666H5.333V.667A.667.667 0 1 0 4 .667v.666h-.667A3.337 3.337 0 0 0 0 4.667v8A3.337 3.337 0 0 0 3.333 16h9.334A3.337 3.337 0 0 0 16 12.667v-8a3.338 3.338 0 0 0-3.333-3.334ZM1.333 4.667a2 2 0 0 1 2-2h9.334a2 2 0 0 1 2 2v.666H1.333v-.666Zm11.334 10H3.333a2 2 0 0 1-2-2v-6h13.334v6a2 2 0 0 1-2 2Z"/>
    <path fill-opacity=".75" d="M8 11a1 1 0 1 0 0-2 1 1 0 0 0 0 2Zm-3.333 0a1 1 0 1 0 0-2 1 1 0 0 0 0 2Zm6.667 0a1 1 0 1 0 0-2 1 1 0 0 0 0 2Z"/>
  </g>
  <defs>
    <clipPath id="aia">
      <path d="M0 0h16v16H0z"/>
    </clipPath>
  </defs>
</symbol><symbol fill="currentColor" viewBox="0 0 20 21" id="svg-checkmark" xmlns="http://www.w3.org/2000/svg">
  <g clip-path="url(#aja)">
    <path d="M18.6 4.193 7.083 15.707a.834.834 0 0 1-1.181 0L1.45 11.25a.834.834 0 0 0-1.181 0 .832.832 0 0 0 0 1.18l4.455 4.455a2.507 2.507 0 0 0 3.541 0L19.78 5.373a.832.832 0 0 0 0-1.18.833.833 0 0 0-1.18 0Z"/>
  </g>
  <defs>
    <clipPath id="aja">
      <path d="M0 0h20v20H0z" transform="translate(0 .5)"/>
    </clipPath>
  </defs>
</symbol><symbol fill="currentColor" viewBox="0 0 20 21" id="svg-close" xmlns="http://www.w3.org/2000/svg">
  <path fill-rule="evenodd" d="M4.435 4.934a.8.8 0 0 1 1.131 0L16.211 15.58a.8.8 0 1 1-1.131 1.132L4.435 6.066a.8.8 0 0 1 0-1.132Z" clip-rule="evenodd"/>
  <path fill-rule="evenodd" d="M4.434 16.71a.8.8 0 0 1 0-1.13L15.08 4.933a.8.8 0 1 1 1.132 1.132L5.566 16.71a.8.8 0 0 1-1.132 0Z" clip-rule="evenodd"/>
</symbol><symbol fill="currentColor" viewBox="0 0 21 21" id="svg-diamond" xmlns="http://www.w3.org/2000/svg">
  <g clip-path="url(#ala)">
    <path d="m19.85 5.286-2.51-3.39A3.338 3.338 0 0 0 14.63.5H6.37a3.333 3.333 0 0 0-2.705 1.38L1.112 5.294a3.328 3.328 0 0 0 .103 3.987L8.54 19.554a2.487 2.487 0 0 0 3.063.687 2.5 2.5 0 0 0 .877-.72L19.75 9.36a3.333 3.333 0 0 0 .1-4.075Zm-3.857-2.41 2.515 3.398c.013.019.017.04.03.06h-4.077l-1.19-4.167h1.358a1.677 1.677 0 0 1 1.364.709ZM10.5 16.432 8.25 8h4.5l-2.25 8.432ZM8.27 6.333l1.19-4.166h2.077l1.19 4.166H8.271ZM5.014 2.864a1.673 1.673 0 0 1 1.357-.697h1.357l-1.19 4.166H2.431c.012-.018.015-.04.029-.058l2.554-3.41ZM2.54 8.271A1.583 1.583 0 0 1 2.386 8h4.14l2.495 9.358L2.54 8.271Zm9.436 9.096L14.476 8h4.155a1.748 1.748 0 0 1-.203.35l-6.452 9.017Z"/>
  </g>
  <defs>
    <clipPath id="ala">
      <path d="M0 0h20v20H0z" transform="translate(.5 .5)"/>
    </clipPath>
  </defs>
</symbol><symbol fill="currentColor" viewBox="0 0 20 21" id="svg-download" xmlns="http://www.w3.org/2000/svg">
  <g clip-path="url(#ama)">
    <path d="M8.232 15.602a2.5 2.5 0 0 0 3.537 0l2.675-2.676a.833.833 0 0 0-1.178-1.176l-2.438 2.44.006-12.857A.833.833 0 0 0 10 .5a.833.833 0 0 0-.833.833l-.008 12.84-2.425-2.423a.833.833 0 1 0-1.178 1.18l2.676 2.672Z"/>
    <path d="M19.167 13.833a.833.833 0 0 0-.834.834V18a.834.834 0 0 1-.833.833h-15A.834.834 0 0 1 1.667 18v-3.333a.833.833 0 0 0-.834-.834.833.833 0 0 0-.833.834V18a2.5 2.5 0 0 0 2.5 2.5h15A2.5 2.5 0 0 0 20 18v-3.333a.833.833 0 0 0-.833-.834Z"/>
  </g>
  <defs>
    <clipPath id="ama">
      <path d="M0 0h20v20H0z" transform="translate(0 .5)"/>
    </clipPath>
  </defs>
</symbol><symbol fill="currentColor" viewBox="0 0 21 21" id="svg-edit" xmlns="http://www.w3.org/2000/svg">
  <g clip-path="url(#ana)">
    <path d="m16.047 1.275-10.16 10.16a4.14 4.14 0 0 0-1.22 2.946v1.12a.833.833 0 0 0 .833.833h1.12a4.14 4.14 0 0 0 2.945-1.22l10.16-10.16a2.604 2.604 0 0 0 0-3.679 2.662 2.662 0 0 0-3.678 0Zm2.5 2.5-10.16 10.16c-.47.467-1.105.73-1.768.732h-.286v-.286a2.517 2.517 0 0 1 .732-1.767l10.16-10.16a.957.957 0 0 1 1.322 0 .936.936 0 0 1 0 1.321Z"/>
    <path d="M19.667 7.982a.833.833 0 0 0-.834.834V13H15.5a2.5 2.5 0 0 0-2.5 2.5v3.333H4.667a2.5 2.5 0 0 1-2.5-2.5V4.667a2.5 2.5 0 0 1 2.5-2.5h7.535a.833.833 0 0 0 0-1.667H4.667A4.172 4.172 0 0 0 .5 4.667v11.666A4.172 4.172 0 0 0 4.667 20.5h9.452a4.14 4.14 0 0 0 2.947-1.22l2.213-2.215a4.14 4.14 0 0 0 1.221-2.946V8.816a.833.833 0 0 0-.833-.834Zm-3.78 10.12a2.48 2.48 0 0 1-1.22.666V15.5a.834.834 0 0 1 .833-.833h3.27a2.514 2.514 0 0 1-.666 1.22l-2.216 2.215Z"/>
  </g>
  <defs>
    <clipPath id="ana">
      <path d="M0 0h20v20H0z" transform="translate(.5 .5)"/>
    </clipPath>
  </defs>
</symbol><symbol fill="currentColor" viewBox="0 0 20 21" id="svg-generate" xmlns="http://www.w3.org/2000/svg">
  <g clip-path="url(#aoa)">
    <path d="M15 8.053a2.542 2.542 0 0 0-.75-1.803 2.616 2.616 0 0 0-3.612 0L.75 16.14a2.553 2.553 0 0 0 3.608 3.61l9.892-9.891A2.538 2.538 0 0 0 15 8.053ZM3.18 18.573a.906.906 0 0 1-1.25 0 .885.885 0 0 1 0-1.25l6.474-6.475 1.254 1.254-6.478 6.471Zm9.893-9.893-2.24 2.24-1.25-1.254 2.241-2.24a.885.885 0 1 1 1.25 1.25v.004Zm-9.02-5.801 1.291-.368.368-1.292a.992.992 0 0 1 1.909 0l.368 1.292 1.292.368a.993.993 0 0 1 0 1.908l-1.292.369-.368 1.291a.992.992 0 0 1-1.909 0l-.368-1.291-1.292-.369a.992.992 0 0 1 0-1.908ZM19.28 14.787l-1.292.368-.368 1.292a.992.992 0 0 1-1.909 0l-.368-1.291-1.292-.369a.993.993 0 0 1 0-1.908l1.292-.368.368-1.292a.992.992 0 0 1 1.909 0l.368 1.292 1.292.368a.993.993 0 0 1 0 1.908ZM14.796 2.583l1.13-.322.324-1.132a.869.869 0 0 1 1.667 0l.322 1.13 1.13.322a.869.869 0 0 1 0 1.667l-1.13.323-.322 1.132a.869.869 0 0 1-1.667 0l-.323-1.13-1.131-.323a.869.869 0 0 1 0-1.667Z"/>
  </g>
  <defs>
    <clipPath id="aoa">
      <path d="M0 0h20v20H0z" transform="translate(0 .5)"/>
    </clipPath>
  </defs>
</symbol><symbol fill="none" viewBox="0 0 60 60" id="svg-home-pref-01" xmlns="http://www.w3.org/2000/svg">
  <path fill="#2C2C24" fill-rule="evenodd" d="M50.27.238c-.221-.047-.443-.094-.665-.144-.783 0-1.566 0-2.318-.094-.11.047-.22.094-.329.11-4.558.733-7.675 3.262-9.366 7.54-.07.185-.13.369-.202.584l-.08.244c-.08-.06-.155-.123-.228-.184-.156-.13-.301-.252-.462-.316a27.875 27.875 0 0 1-.47-.206c-.576-.256-1.15-.51-1.754-.621-1.315-.235-2.506.187-3.57.999-.533.406-1.144.796-1.77.968-1.019.28-1.927-.063-2.71-.765-1.3-1.155-2.836-1.39-4.558-1.187.549 1.3 1.098 2.592 1.65 3.892.63 1.48 1.263 2.97 1.905 4.492H23.15v1.75h2.365c-.06.178-.105.328-.146.465-.036.117-.068.224-.104.331-.627 1.702-1.63 3.185-2.694 4.637a105.061 105.061 0 0 0-2.835 4.075c-.225.347-.385.733-.55 1.13-.065.159-.131.318-.202.478.595.219 1.096.406 1.66.625.642-1.702 1.645-3.123 2.741-4.497 1.676-2.107 3.164-4.309 3.9-6.947.047-.157.36-.328.548-.328 3.4-.032 6.783-.047 10.166-.032.203 0 .47.188.626.36.376.43.735.878 1.094 1.326.24.299.479.597.723.89.1.121.219.229.338.337.143.13.287.26.398.413.544.756 1.078 1.515 1.611 2.273a218.17 218.17 0 0 0 1.914 2.692c3.195 4.403 3.727 9.102 1.66 14.098a1.54 1.54 0 0 1-.396.534c.729-.465 1.882-.663 2.416-.706 1.05-2.982 1.222-5.964.533-9.008-.705-3.044-2.365-5.558-4.354-7.916 2.631.812 5.231.843 7.8-.093 2.6-.937 4.59-2.608 6.03-4.965 2.334-3.81 1.817-8.572.407-10.773l-1.456.702c2.553 5.965-.736 11.351-4.997 13.178-4.51 1.936-9.79.234-12.311-3.982-2.537-4.23-1.488-9.633 2.444-12.708 3.915-3.06 10.368-2.873 14.034 2.076.285-.205.57-.405.862-.61l.532-.374c-1.63-2.2-3.681-3.684-6.25-4.418-.457-.127-.92-.225-1.387-.324ZM18.066 32.935l-.179 1.882 2.303.749c-.298-.172-.439-.312-.423-.656.078-1.42.14-2.826.204-4.324-.408-.11-.94-.25-1.645-.422-.083.949-.172 1.865-.26 2.771Zm6.646-23.369c.002-.032.005-.071.005-.12l.289.205c.156.111.306.218.462.326 1.911 1.436 4.026 1.42 5.968.03.58-.405 1.206-.811 1.88-.998 1.065-.297 1.942.234 2.803.858.611.438.815.89.83 1.655.012.836.154 1.665.298 2.496.054.318.109.635.157.955.011.124.047.248.09.395l.05.182h-2.098c-2.585.016-5.17.032-7.753.016-.204 0-.517-.14-.58-.297a250.954 250.954 0 0 1-2.14-4.979l-.256-.61c-.01-.029-.008-.063-.005-.114Z" clip-rule="evenodd"/>
  <path fill="#fff" fill-rule="evenodd" d="M49.041 39.61c-.203-.063-.407-.094-.657-.157-.535.043-1.688.24-2.417.706a1.46 1.46 0 0 1-.23.169c-3.587 2.186-7.19 4.34-10.761 6.557-.736.453-1.316.516-2.099.219-2.13-.796-4.292-1.515-6.579-2.31 2.96-1.25 5.811-2.468 8.71-3.685a218.35 218.35 0 0 0-1.066-2.951c-.877-2.373-3.164-3.435-5.545-2.56h-.001a412.216 412.216 0 0 0-4.729 1.748c-.282.11-.47.062-.736-.11a37.7 37.7 0 0 0-2.741-1.67l-2.303-.75c-.047 0-.125.016-.203 0-3.4-.358-5.984 1.047-8.004 3.685-.078.11-.22.266-.345.266-.626.03-1.237.015-1.91.015v-3.34H0V59.36c0 .218.031.421.047.64H7.44v-4.215c.282 0 .486.015.674 0 3.9-.188 7.737.312 11.59.733 4.887.531 9.758 1.078 14.645 1.577.298.032.69-.11.94-.296 1.739-1.374 3.446-2.78 5.153-4.169.407-.344.815-.687 1.253-1.046-.391-.469-.736-.89-1.096-1.327-.141.11-.25.187-.36.265-1.488 1.218-3.008 2.373-4.433 3.654-.971.874-1.895 1.217-3.242 1.03-3.822-.515-7.66-.859-11.497-1.265-4.323-.468-8.615-1.092-12.985-.89-.203.016-.423 0-.61 0V40.578c.735 0 1.44-.047 2.13.015.642.047.97-.187 1.33-.734 1.551-2.326 3.666-3.606 6.548-3.247 1.958.25 3.587 1.218 4.965 2.576.298.281.517.328.909.188a348.042 348.042 0 0 1 5.717-2.108c1.206-.437 2.428-.032 2.976 1.03.313.578.501 1.218.752 1.89-4.01 1.685-7.973 3.34-11.967 5.011.22.547.439 1.062.658 1.624.642-.25 1.269-.469 1.864-.75.36-.171.673-.14 1.05-.015 3.038 1.077 6.076 2.123 9.115 3.2.486.172.83.125 1.253-.14 4.088-2.498 8.176-4.965 12.28-7.447.25-.157.517-.297.799-.36.783-.171 1.52.22 1.848.922.33.718.157 1.467-.532 2.03a1434 1434 0 0 1-5.59 4.557l-.002.001c-.533.437-1.065.89-1.63 1.343.392.468.753.905 1.113 1.343 2.49-2.03 4.95-3.997 7.362-6.011 1.033-.859 1.41-2.014 1.096-3.326-.313-1.327-1.159-2.186-2.475-2.56ZM1.77 58.25V37.252h3.853v21H1.77Z" clip-rule="evenodd"/>
  <path fill="#2C2C24" d="M35.9 34.286c.72.53 1.504.624 2.334.593.94-.047 1.723-.734 1.864-1.64.14-.92-.235-1.483-1.253-1.888-.815-.328-1.63-.656-2.412-1.062-1.097-.547-1.676-1.468-1.582-2.701.094-1.327.752-2.31 2.036-2.81.11-.047.22-.079.376-.141v-1.53h1.754v1.374c.658.312 1.253.593 1.927.905-.47.5-.83.89-1.081 1.171-.768-.078-1.41-.218-2.052-.187-.658.031-1.065.53-1.175 1.187-.11.624.204 1.014.72 1.249.69.312 1.38.624 2.1.905 1.613.625 2.459 1.702 2.459 3.2 0 1.562-.956 2.936-2.46 3.514-.125.047-.25.093-.407.156v1.78h-1.754v-1.624c-.61-.219-1.175-.39-1.723-.609-.203-.078-.391-.234-.626-.375.313-.5.61-.952.955-1.467Zm18.686-18.47c-.047 1.186-.58 2.295-1.864 2.888-1.065.5-2.067.297-2.944-.468-1.363-1.171-1.52-3.404-.36-4.81 1.221-1.467 3.273-1.42 4.448.079.47.609.705 1.327.72 2.31Zm-1.77-.063c0-.952-.516-1.623-1.19-1.623-.673 0-1.206.655-1.206 1.514 0 .203.031.421.11.624.172.516.5.89 1.08.906.486.016.956-.375 1.128-.952.047-.172.063-.36.078-.469ZM48.18 8.01c-.063 1.342-.58 2.42-1.848 3.013-1.316.609-2.835.062-3.603-1.28-.736-1.265-.58-2.967.345-4.044.799-.921 1.926-1.25 3.007-.89 1.143.374 2.005 1.561 2.099 2.841.016.125 0 .234 0 .36Zm-1.754.109c-.016-1.015-.564-1.702-1.222-1.687-.642.016-1.175.687-1.16 1.5 0 .28.017.64.189.827.25.296.61.609.97.702.486.125.847-.25 1.035-.687.11-.25.156-.546.188-.655ZM50.06 5.73c.579.234 1.064.437 1.628.687-1.582 3.747-3.148 7.479-4.73 11.225-.548-.218-1.05-.437-1.629-.67 1.566-3.748 3.133-7.464 4.73-11.242Z"/>
</symbol><symbol fill="none" viewBox="0 0 58 53" id="svg-home-pref-02" xmlns="http://www.w3.org/2000/svg">
  <path fill="#2C2C24" d="M49.104 15.28c3.096 4.407 4.138 9.265 3.096 14.514-.344 1.78-.775 3.51-2.195 4.872 1.472-1.166 3.069-1.357 3.736-1.293.102-.502.213-.998.322-1.491l.05-.221c.244-1.103.48-2.193.61-3.296.589-5.249-.68-10.062-3.761-14.378a1.69 1.69 0 0 0-.62-.556c-.453-.226-.997-.06-1.314.345-.332.421-.317.948.076 1.504Zm-10.06 14.333c.212 1.128-.423 2.452-1.435 2.948-.13.058-.4.032-.515-.05.337.268 1.047 1.149 1.286 2.622 0-.166.15-.406.302-.497 2.13-1.263 3.111-3.534 2.522-5.82-.589-2.301-2.598-3.835-5.09-3.865-.576-.007-1.15-.005-1.723-.003a89.23 89.23 0 0 1-2.295-.012c-.453-.015-.921-.06-1.329-.21-1.284-.467-1.994-1.79-1.767-3.174.227-1.339 1.375-2.316 2.84-2.346 1.269-.023 2.547-.02 3.82-.017l1.27.002c1.087 0 2.16 0 3.232-.015.695-.015 1.148-.436 1.193-1.038.06-.722-.453-1.233-1.284-1.233h-4.304c-.173 0-.346-.012-.54-.025a39.626 39.626 0 0 0-.08-.005c0-.321.004-.633.007-.94v-.001c.007-.6.013-1.18-.007-1.766-.03-.768-.68-1.264-1.39-1.098-.528.12-.86.571-.875 1.218-.01.568-.007 1.136-.004 1.718.002.296.004.595.004.899-.157 0-.305-.004-.447-.007a7.12 7.12 0 0 0-.762.007c-1.993.12-3.504 1.022-4.425 2.782-.906 1.73-.816 3.49.242 5.144 1.042 1.639 2.613 2.376 4.546 2.376.336 0 .671-.002 1.007-.003 1.175-.005 2.35-.01 3.524.048 1.224.06 2.236 1.098 2.477 2.361Z"/>
  <path fill="#2C2C24" fill-rule="evenodd" d="M13.85 20.755c-.8 2.963-.936 5.97-.377 8.994.072.385.154.77.235 1.145.055.255.109.506.158.75l2.93-.226c-.483 0-.65-.15-.755-.587-.469-1.85-.71-3.73-.59-5.64.054-.783.16-1.56.265-2.333.044-.325.088-.65.128-.975.076.007.117.007.142.007.024 0 .032 0 .04.008.136.075.271.15.392.225 1.027.677 2.054.647 3.066-.03l.31-.204c.493-.321.991-.647 1.427-1.044 3.46-3.128 5.529-7.038 6.314-11.61.06-.392.196-.602.604-.737 1.782-.572 3.625-.903 5.498-.933 2.719-.06 5.332.466 7.824 1.534.725.316 1.344.06 1.601-.571.242-.602-.03-1.219-.71-1.504-3.746-1.61-7.643-2.106-11.675-1.46-.696.116-1.384.276-2.086.438-.304.07-.61.141-.92.21-.136-.948-.725-1.535-1.526-1.97A1188.08 1188.08 0 0 1 18.64.195c-.499-.271-.937-.256-1.435.015a431.324 431.324 0 0 1-7.371 3.955C8.64 4.783 8.11 5.686 8.14 7.024c.136 5.008 2.175 9.219 5.483 12.889.242.27.317.48.226.842Zm10.62-14.86c.8.407 1.208.858.966 1.775-.573 4.873-2.537 9.054-6.525 12.122-.52.4-.726.596-.934.598-.214.003-.431-.2-.999-.598-2.356-1.654-3.867-3.97-5.06-6.527-.921-1.955-1.435-4.015-1.48-6.196 0-.436.12-.677.514-.888a710.603 710.603 0 0 0 6.615-3.564c.317-.165.544-.135.83.03l.788.431c1.748.957 3.5 1.916 5.285 2.818Z" clip-rule="evenodd"/>
  <path fill="#2C2C24" d="M45.297 10.829c-.015-.647.469-1.143 1.118-1.158.635 0 1.163.511 1.148 1.128 0 .601-.498 1.113-1.103 1.128a1.102 1.102 0 0 1-1.163-1.098Zm-28.033.301c1.133-1.053 2.22-2.061 3.293-3.084.393-.376.83-.526 1.329-.346.71.271.967 1.189.423 1.775-1.36 1.444-2.75 2.843-4.139 4.241-.423.421-1.042.391-1.495 0a46.222 46.222 0 0 1-1.979-1.85 1.128 1.128 0 0 1-.045-1.579c.423-.45 1.057-.496 1.57-.075.212.165.394.346.59.526.196.166.378.331.453.392Z"/>
  <path fill="#fff" fill-rule="evenodd" d="m.242 32.41-.227.632v.004c0 5.488 0 10.976-.015 16.48.045.075.09.15.12.24.514 1.7 1.98 2.858 3.762 2.903 1.163.03 2.34.03 3.504 0 2.1-.06 3.58-1.504 3.897-3.79.181.075.347.12.513.195 1.888.843 3.807 1.64 5.664 2.542 1.919.948 3.973 1.218 6.042 1.248 5.725.09 11.434.106 17.158.136 2.01.015 3.7-.662 5.196-2.076 3.474-3.308 7.039-6.542 10.588-9.776.816-.751 1.3-1.654 1.556-2.692v-1.248c-.03-.09-.075-.165-.09-.255-.514-1.986-1.813-3.084-3.792-3.49a2.774 2.774 0 0 1-.377-.09c-.667-.064-2.264.127-3.736 1.294-.14.133-.289.264-.448.39-2.372 1.88-4.532 4.046-6.722 6.137-.71.676-1.495.962-2.431.977-.257 0-.499.015-.74.015h-.004c-4.213 0-8.41 0-12.623-.015-.303 0-.62-.045-.892-.135-.574-.196-.921-.692-.921-1.233 0-.602.317-1.008.846-1.219.347-.135.74-.195 1.102-.195 2.417-.015 4.834.03 7.25-.03 2.296-.06 3.988-1.94 3.958-4.226-.239-1.473-.949-2.354-1.286-2.622a.23.23 0 0 1-.013-.01c-.922-.782-1.979-1.098-3.187-1.098-5.694.015-11.404 0-17.098.015l-2.93.226c-.937.42-1.813.797-2.674 1.188-.86-2.166-2.07-2.978-4.456-2.978-1.012 0-2.039-.06-3.05.03-1.647.135-2.81.992-3.444 2.526Zm15.768 1.31c2.976-.03 5.967-.015 8.942-.015 2.93 0 5.86 0 8.79-.015.212 0 .409 0 .62.015.967.075 1.737.812 1.737 1.684 0 .888-.785 1.67-1.782 1.7-.937.03-1.888.015-2.825.015-1.57 0-3.126-.015-4.697.015-1.888.03-3.474 1.308-3.776 2.978-.423 2.24 1.314 4.301 3.685 4.331 3.459.03 6.903.03 10.362.03 1.193 0 2.371 0 3.564-.03 1.42-.045 2.643-.496 3.716-1.519 2.326-2.21 4.712-4.346 7.069-6.512.876-.782 1.873-.962 2.945-.511 1.51.631 1.843 2.36.65 3.489-1.738 1.64-3.505 3.248-5.272 4.873-1.767 1.609-3.58 3.188-5.271 4.873-1.118 1.113-2.402 1.624-3.942 1.609-6.042-.06-12.084-.12-18.125-.226-1.39-.015-2.72-.36-3.988-.962-2.22-1.053-4.47-2.03-6.706-3.008-.333-.15-.453-.331-.453-.707.015-3.159 0-6.317.03-9.475 0-.286.15-.632.347-.827 1.208-1.173 2.689-1.79 4.38-1.805Zm-7.038.226v14.603c0 1.113-.59 1.79-1.692 1.835a39.79 39.79 0 0 1-3.277 0c-1.103-.045-1.707-.737-1.707-1.835V33.945c0-1.098.664-1.79 1.782-1.805 1.042-.015 2.07-.015 3.112 0 1.117.015 1.782.692 1.782 1.805Z" clip-rule="evenodd"/>
</symbol><symbol fill="none" viewBox="0 0 60 60" id="svg-home-pref-03" xmlns="http://www.w3.org/2000/svg">
  <path fill="#2C2C24" fill-rule="evenodd" d="M21.104 60c-1.172-.297-2.312-.656-3.296-1.406-2.64-1.985-3.546-5.563-2.14-8.547 1.437-3.047 4.811-4.656 8.029-3.844 3.202.813 5.42 3.781 5.28 7.063-.14 3.328-2.5 6.03-5.796 6.625-.109.015-.218.062-.328.109h-1.75Zm.906-11.984a4.964 4.964 0 0 1 4.983 4.968c.016 2.75-2.203 5-4.952 5.016-2.765.016-5.03-2.25-5.03-5.016a4.987 4.987 0 0 1 4.999-4.968Z" clip-rule="evenodd"/>
  <path fill="#2C2C24" d="M30.008 29.672c0-.797.265-1.438.906-1.922.182-.142.358-.29.531-.437.094-.08.188-.158.281-.235.695-.57 1.39-1.137 2.086-1.703a779.81 779.81 0 0 0 2.085-1.703c-.46-.438-1.056-1.193-1.297-1.516l-2.27 1.855c-.921.755-1.84 1.507-2.76 2.255-.812.656-1.327 1.468-1.5 2.5-.062.312-.062.625-.062.937-.015 2.25-.015 4.485 0 6.735 0 .687-.265 1.078-.89 1.343a723.028 723.028 0 0 0-5.53 2.365 995.402 995.402 0 0 1-3.92 1.682c-1.016.422-1.656.016-1.656-1.094 0-1.026-.003-2.053-.006-3.08a506.73 506.73 0 0 1 .021-7.7c.016-1.673-.594-2.938-1.906-3.985a324.337 324.337 0 0 1-4.755-3.868c-.788-.65-1.576-1.299-2.368-1.945a.456.456 0 0 0 .016-.07.456.456 0 0 1 .015-.07c.828 0 1.656 0 2.469.047.234 0 .484 0 .703-.047.5-.11.827-.547.796-1.016-.031-.5-.39-.89-.906-.922a15.6 15.6 0 0 0-1.104-.017l-.364.002H3.296c-.953 0-1.297-.344-1.297-1.313v-3.453c0-.89.36-1.25 1.25-1.25h28.399c.087 0 .182.008.305.017.054.005.113.01.18.014.014-.393.156-1.426.6-2.546-.157.34-.36.468-.82.468-9.372-.016-18.76-.016-28.148-.016-2.219 0-2.921.47-3.765 2.438v5.156c.5 1.485 1.437 2.39 3.062 2.422a1.74 1.74 0 0 1 1.109.422l1.543 1.27v.001c2.392 1.97 4.788 3.944 7.204 5.885.766.625 1.11 1.328 1.094 2.313a1235.34 1235.34 0 0 0 0 10.89c.016 2.485 2.124 3.86 4.405 2.89 1.057-.452 2.114-.907 3.17-1.362h.003c2.113-.91 4.227-1.82 6.34-2.715 1.422-.594 2.109-1.64 2.093-3.188a242.013 242.013 0 0 1-.012-3.847c.002-.961.004-1.923-.003-2.887Z"/>
  <path fill="#2C2C24" d="M13.028 19.031c0 .532.375.938.953 1 .14.024.29.02.436.018l.142-.002h.005c6.075 0 12.134 0 18.209-.016.313 0 .538.056.71.243-.38-.672-.745-1.724-.898-2.227H14.621l-.19-.003a3.341 3.341 0 0 0-.388.003c-.625.047-1.015.422-1.015.984Z"/>
  <path fill="#fff" fill-rule="evenodd" d="M59.453 17.797c.25-.828.375-1.703.547-2.563 0-.828 0-1.64-.016-2.453-.171-.875-.296-1.765-.546-2.625C57.876 4.687 53.252.766 47.613.094c-.125-.016-.266-.063-.39-.094h-2.469c-.984.219-2 .36-2.952.672-4.39 1.437-7.405 4.344-8.998 8.687a2.48 2.48 0 0 1-.07.173c-.445 1.12-.587 2.153-.602 2.546-.28 2-.14 3.969.453 5.969.153.503.519 1.555.897 2.227.068.074.128.169.181.288.25.532.61 1.032.937 1.594.24.323.837 1.078 1.297 1.516.125.125.234.219.328.312 7.623 7.407 20.307 4.032 23.228-6.187Zm-25.462-3.813c.016-6.609 5.42-12 12.028-11.984 6.623.016 11.997 5.406 11.982 12.031-.016 6.61-5.42 12-12.029 11.985-6.607-.016-11.997-5.422-11.98-12.032Z" clip-rule="evenodd"/>
  <path fill="#fff" d="M43.004 16.656c.657-.672 1.203-1.281 1.781-1.86l5.343-5.343c.546-.547 1.155-.594 1.577-.14.422.453.375 1-.172 1.546l-7.654 7.657c-.64.64-1.109.64-1.75 0-.577-.578-1.17-1.157-1.733-1.735-.453-.468-.5-1.047-.11-1.453.407-.437 1-.437 1.5.047.39.39.75.797 1.218 1.281Z"/>
</symbol><symbol fill="none" viewBox="0 0 65 60" id="svg-home-pref-04" xmlns="http://www.w3.org/2000/svg">
  <path fill="#2C2C24" fill-rule="evenodd" d="M50.117 32.676h-.724l.007-.036h-4.455c1.158-4.837.434-9.365-2.17-13.548-2.06-3.291-4.9-5.673-8.497-7.11-6.762-2.691-14.772-.546-19.564 5.237-4.719 5.692-5.28 13.912-1.464 20.185 3.345 5.51 11.915 10.893 21.353 7.165 0 .208.003.41.007.605l.002.083c.008.424.015.821-.009 1.203v2.728c0 .472-.002.936-.004 1.395-.004.9-.008 1.78.004 2.66.072 3.346 2.369 5.62 5.696 5.62h18.985c3.363 0 5.677-2.274 5.695-5.674.018-4.947.036-9.911 0-14.857-.018-3.383-2.332-5.656-5.713-5.656h-9.15ZM34.06 42.35c-1.555.655-3.616 1.164-4.846 1.092a6.4 6.4 0 0 1-.026-.478c-.024-.737-.048-1.505-1.113-1.505-1.065-.014-1.09.761-1.112 1.492-.005.163-.01.324-.027.472-6.04.837-14.121-7.237-13.959-13.984.17-.023.357-.025.547-.028.72-.012 1.475-.024 1.46-1.117 0-1.06-.748-1.065-1.464-1.07a5.17 5.17 0 0 1-.524-.021c.253-7.492 6.943-13.82 13.94-14.02.021.16.027.335.033.514.025.733.052 1.515 1.142 1.485 1.025-.014 1.037-.79 1.049-1.51.002-.156.005-.31.018-.454 6.093-.836 14.067 7.147 13.995 13.985a4.964 4.964 0 0 1-.521.02c-.71.001-1.45.004-1.523 1.107-.054.727.362.946 2.134 1.146-.132.77-.274 1.54-.418 2.323l-.16.877H40.1c-3.002.018-5.298 2.164-5.479 5.183-.062 1.03-.044 2.075-.026 3.11l.008.509c.018.454-.126.69-.542.872Zm25.187 14.348H40.335c-2.224-.018-3.562-1.327-3.562-3.564-.018-4.91-.018-9.82 0-14.73.018-2.236 1.356-3.546 3.58-3.546h18.913c2.205.019 3.543 1.328 3.543 3.565.019 4.91.019 9.82 0 14.73 0 2.236-1.338 3.545-3.561 3.545Z" clip-rule="evenodd"/>
  <path fill="#2C2C24" d="M28.492 26.42c.723-.727 1.338-1.4 1.989-2.018.56-.545 1.12-.582 1.609-.127.488.473.47 1.09-.09 1.673a239.49 239.49 0 0 1-3.02 3.037c-.723.709-1.519.545-1.935-.4-1.048-2.437-2.079-4.874-3.11-7.31-.325-.764-.108-1.31.525-1.583.615-.254 1.139-.018 1.446.71.76 1.763 1.52 3.527 2.279 5.31.072.2.162.4.307.709Z"/>
  <path fill="#fff" d="M25.201 54.116c-.361-.327-.76-.636-1.103-1-.47-.491-.47-1.073-.036-1.51.452-.472 1.049-.49 1.555 0a261.55 261.55 0 0 1 3.164 3.183c.524.527.506 1.146-.036 1.691a246.813 246.813 0 0 1-3.074 3.092c-.542.545-1.175.563-1.609.09-.452-.472-.416-1.109.09-1.636.418-.438.853-.86 1.321-1.312l.054-.052c-1.501-.31-2.93-.564-4.322-.891C10.194 53.17 2.04 44.387.376 33.13c-1.32-9.074.796-17.258 6.961-24.15 4.358-4.873 9.945-7.492 16.31-8.565C29.83-.62 35.76.253 41.22 3.326c9.619 5.4 14.645 13.711 15.025 24.822.036.8-.398 1.31-1.049 1.31-.633.018-1.103-.473-1.103-1.273-.036-2.91-.452-5.765-1.482-8.474-3.598-9.42-10.27-15.458-20.197-17.058C22.2 1.016 13.503 4.29 7.138 12.727c-3.67 4.856-5.153 10.511-4.972 16.567.199 6.383 2.296 12.038 6.6 16.803 3.85 4.273 8.733 6.746 14.302 7.91.65.146 1.32.236 1.988.364.073-.11.109-.182.145-.255Z"/>
  <path fill="#2C2C24" d="M56.662 42.023c-.127-.29-.18-.527-.325-.727-.453-.6-1.122-.564-1.736.054l-.002.002c-1.898 1.909-3.796 3.818-5.712 5.727-.687.69-1.23.69-1.916.018-.688-.673-1.338-1.364-2.025-2.019-.525-.49-1.121-.509-1.573-.073-.47.455-.453 1.092.072 1.637a339.122 339.122 0 0 0 3.598 3.619c.597.6 1.157.6 1.772 0l7.377-7.42c.18-.236.307-.545.47-.818Z"/>
</symbol><symbol fill="none" viewBox="0 0 24 24" id="svg-icq" xmlns="http://www.w3.org/2000/svg">
  <path fill="#2C2C24" fill-rule="evenodd" d="m12.368 8.41 1.448-2.916h-.007A3.769 3.769 0 0 0 10.162.091a3.769 3.769 0 0 0-2.849 5.898l1.735 2.552a1.848 1.848 0 0 0 3.321-.13Zm2.874 4.072 3.6.534-.004-.007a4.242 4.242 0 0 0 4.514-5.784 4.242 4.242 0 0 0-5.515-2.36c-.747.3-1.36.79-1.81 1.39l-2.205 2.827c-.025.03-.05.062-.074.095l-.01.012h.001a2.08 2.08 0 0 0 1.503 3.293Zm-3.039 3.728.385 3.25.005-.003a3.831 3.831 0 0 0 6.11 2.563 3.831 3.831 0 0 0-.897-6.618L14.94 14.21a1.879 1.879 0 0 0-2.737 2Zm-4.75-1.845L4.25 16.036l.006.004a4.193 4.193 0 0 0-1.588 1.48 4.222 4.222 0 0 0 1.337 5.819 4.222 4.222 0 0 0 5.822-1.327 4.193 4.193 0 0 0 .645-2.163l.107-3.438a2.07 2.07 0 0 0-3.126-2.046Zm.459-4.3L5.974 8.168v.005a3.139 3.139 0 0 0-5.218 1.5 3.139 3.139 0 0 0 3.887 3.788l2.529-.735a1.539 1.539 0 0 0 .74-2.662Z" clip-rule="evenodd"/>
</symbol><symbol fill="currentColor" viewBox="0 0 18 18" id="svg-info" xmlns="http://www.w3.org/2000/svg">
  <g clip-path="url(#aua)">
    <path d="M9 0a9 9 0 1 0 9 9 9.01 9.01 0 0 0-9-9Zm0 16.5A7.5 7.5 0 1 1 16.5 9 7.509 7.509 0 0 1 9 16.5Z"/>
    <path d="M9 7.5h-.75a.75.75 0 0 0 0 1.5H9v4.5a.75.75 0 1 0 1.5 0V9A1.5 1.5 0 0 0 9 7.5ZM9 6a1.125 1.125 0 1 0 0-2.25A1.125 1.125 0 0 0 9 6Z"/>
  </g>
  <defs>
    <clipPath id="aua">
      <path d="M0 0h18v18H0z"/>
    </clipPath>
  </defs>
</symbol><symbol fill="none" viewBox="0 0 20 30" id="svg-jabber" xmlns="http://www.w3.org/2000/svg">
  <path fill="#2C2C24" d="M7.308 14.723c0-.415-.077-.869-.318-1.217-.484-.698-1.522-.92-2.245-.48-.366.222-.569.61-.683 1.01-.228.792-.123 1.695.036 2.49.05.255.103.51.174.76.026.09.038.22.097.295.102.131.351.17.504.144.46-.078.346-.834.33-1.155-.036-.754-.258-1.485-.043-2.234.09-.317.267-.673.587-.81.289-.125.58.027.695.31.185.456.139.984.255 1.46.04.161.083.321.156.472.021.044.05.134.111.129.15-.014.36-.262.472-.354.36-.298.73-.617 1.146-.837.195-.104.516-.272.715-.096a.71.71 0 0 1 .128.156c.235.367.002.653-.15 1.002-.197.452-.4.9-.685 1.303-.246.347-.582.652-.778 1.03-.126.245-.198.513-.146.788.043.223.216.358.443.306.17-.04.285-.185.382-.32.173-.24.334-.49.506-.73.332-.466.724-.902 1.004-1.403a4.04 4.04 0 0 0 .499-1.976c0-.562-.204-1.422-.86-1.54a1.157 1.157 0 0 0-.386.012 1.7 1.7 0 0 0-.444.143c-.372.18-.694.45-.97.755-.173.19-.328.43-.533.587"/>
  <path fill="#2C2C24" d="M6.693.813C6.176.881 5.65.874 5.132.954c-.994.154-1.946.463-2.878.835-.339.136-.673.287-1.002.446-.122.06-.309.107-.407.202-.051.05-.046.165-.052.232-.017.186-.04.372-.059.558-.07.718-.118 1.458-.015 2.176.033.232.105.653.39.697.438.069.779-.47.994-.769.502-.695 1.074-1.343 1.898-1.654.97-.366 2.08-.453 3.107-.523 2.879-.197 6.025.329 8.146 2.45.302.301.587.621.83.973.95 1.375 1.452 2.939 1.694 4.581.113.772.19 1.552.015 2.32-.305 1.332-1.105 2.492-2.025 3.479a15.896 15.896 0 0 1-2.075 1.841c-.411.31-.873.573-1.26.912-.445.39-.816.878-1.098 1.399-.758 1.401-.961 3.088-.738 4.652.046.321.087.643.16.96.021.094.025.257.086.334.115.145.428.224.602.233.183.009.304-.131.35-.295.076-.28.03-.591-.014-.874-.091-.578-.175-1.16-.149-1.746a4.403 4.403 0 0 1 1.217-2.878c.764-.798 1.795-1.259 2.662-1.928 1.75-1.348 3.316-3.166 3.917-5.33a6.164 6.164 0 0 0 .188-2.391c-.124-1.008-.492-2.015-.84-2.964-1.058-2.893-2.873-5.644-5.756-6.968-1.144-.525-2.34-.764-3.579-.937-.58-.08-1.162-.13-1.746-.156C7.37.807 7.016.771 6.693.813Z"/>
  <path fill="#2C2C24" d="M2.182 19.54c-.561.08-.725.53-.62 1.039.132.65.643 1.146 1.15 1.537a7.154 7.154 0 0 0 4.61 1.47c.638-.028 1.333-.134 1.918-.404.314-.145.643-.668.215-.892a.7.7 0 0 0-.2-.06c-.187-.03-.396.049-.573.1-.312.09-.624.18-.945.232-.96.155-1.997-.065-2.792-.633-.642-.46-1.161-1.066-1.652-1.68-.3-.375-.571-.787-1.11-.71m-.73 3.179c-.143.019-.307.014-.43.103-.255.188.026.565.16.736.39.495.903.906 1.415 1.268a9.293 9.293 0 0 0 4.782 1.71c.5.035 1.009 0 1.503-.083.18-.03.406-.044.573-.122.472-.22.336-1.114-.086-1.312-.185-.087-.48.027-.673.054a8.54 8.54 0 0 1-1.375.06c-1.204-.03-2.487-.401-3.536-.986a6.63 6.63 0 0 1-1.145-.823c-.216-.19-.437-.5-.716-.595-.13-.045-.337-.028-.473-.01m.287 2.677c-.204.023-.357.13-.491.28-.092.104-.18.198-.233.33-.292.722.487 1.404 1.025 1.746.598.38 1.252.66 1.918.898 1.502.534 3.264.877 4.825.399a2.983 2.983 0 0 0 1.259-.753c.19-.197.32-.497-.028-.623-.206-.075-.457.116-.644.19-.442.18-.9.314-1.375.372-.625.076-1.187-.062-1.79-.213-.514-.128-1.034-.257-1.531-.442-.424-.159-.846-.346-1.217-.61-.111-.078-.244-.148-.335-.25-.297-.334-.52-.726-.84-1.044-.137-.137-.333-.303-.543-.28"/>
</symbol><symbol fill="none" viewBox="0 0 26 16" id="svg-mastercard" xmlns="http://www.w3.org/2000/svg">
  <g clip-path="url(#awa)">
    <path fill="#FF5F00" d="M15.964 2.322H9.419v11.356h6.545V2.322Z"/>
    <path fill="#EB001B" d="M9.835 8c0-1.096.257-2.177.75-3.156a7.263 7.263 0 0 1 2.107-2.522A7.628 7.628 0 0 0 8.868.82a7.714 7.714 0 0 0-4.067.685 7.397 7.397 0 0 0-3.072 2.664A7.04 7.04 0 0 0 .59 8c0 1.355.395 2.683 1.14 3.831a7.397 7.397 0 0 0 3.07 2.665 7.714 7.714 0 0 0 4.068.685 7.628 7.628 0 0 0 3.824-1.502 7.263 7.263 0 0 1-2.106-2.52A7.005 7.005 0 0 1 9.836 8Z"/>
    <path fill="#F79E1B" d="M24.794 8a7.043 7.043 0 0 1-1.14 3.831 7.395 7.395 0 0 1-3.07 2.665 7.713 7.713 0 0 1-4.068.684 7.626 7.626 0 0 1-3.825-1.502 7.276 7.276 0 0 0 2.105-2.522A7.02 7.02 0 0 0 15.549 8a7.019 7.019 0 0 0-.752-3.156 7.277 7.277 0 0 0-2.105-2.523A7.628 7.628 0 0 1 16.516.82a7.714 7.714 0 0 1 4.067.685 7.397 7.397 0 0 1 3.072 2.664A7.039 7.039 0 0 1 24.794 8Zm-.713 4.477v-.233h.096v-.047h-.246v.047h.096v.233h.054Zm.48 0v-.28h-.076l-.088.193-.087-.194h-.075v.281h.053v-.212l.082.183h.056l.081-.183v.212h.054Z"/>
  </g>
  <defs>
    <clipPath id="awa">
      <path fill="#fff" d="M0 0h25v15H0z" transform="translate(.2 .5)"/>
    </clipPath>
  </defs>
</symbol><symbol fill="currentColor" viewBox="0 0 20 21" id="svg-message" xmlns="http://www.w3.org/2000/svg">
  <g clip-path="url(#axa)">
    <path d="M0 9.873A10.01 10.01 0 1 1 9.986 20.5h-5.82A4.17 4.17 0 0 1 0 16.334V9.873Zm1.667 6.46a2.5 2.5 0 0 0 2.5 2.5h5.819a8.367 8.367 0 0 0 6.23-2.785 8.264 8.264 0 0 0 2.063-6.512 8.37 8.37 0 0 0-7.213-7.3 8.802 8.802 0 0 0-1.083-.07 8.267 8.267 0 0 0-5.316 1.918 8.368 8.368 0 0 0-3 5.868v6.382Z"/>
    <path d="M6.333 8h3.332a.833.833 0 0 0 0-1.667H6.333a.833.833 0 0 0 0 1.667Zm6.664 1.667H6.333a.833.833 0 0 0 0 1.666h6.664a.833.833 0 0 0 0-1.666Zm0 3.333H6.333a.833.833 0 0 0 0 1.667h6.664a.833.833 0 0 0 0-1.667Z"/>
  </g>
  <defs>
    <clipPath id="axa">
      <path d="M0 0h20v20H0z" transform="matrix(-1 0 0 1 20 .5)"/>
    </clipPath>
  </defs>
</symbol><symbol fill="currentColor" viewBox="0 0 21 21" id="svg-percents" xmlns="http://www.w3.org/2000/svg">
  <g clip-path="url(#aya)">
    <path d="M16.333.5h-4.166a.833.833 0 1 0 0 1.667h4.166a2.46 2.46 0 0 1 1.071.25L.744 19.077a.833.833 0 1 0 1.178 1.179l16.661-16.66c.163.333.249.7.25 1.07v4.167a.833.833 0 1 0 1.667 0V4.667A4.171 4.171 0 0 0 16.333.5Z"/>
    <path d="M5.5 8.833a3.333 3.333 0 1 0 0-6.666 3.333 3.333 0 0 0 0 6.666Zm0-5a1.667 1.667 0 1 1 0 3.334 1.667 1.667 0 0 1 0-3.334Zm10 8.334a3.333 3.333 0 1 0 0 6.666 3.333 3.333 0 0 0 0-6.666Zm0 5a1.667 1.667 0 1 1 0-3.334 1.667 1.667 0 0 1 0 3.334Z"/>
  </g>
  <defs>
    <clipPath id="aya">
      <path d="M0 0h20v20H0z" transform="translate(.5 .5)"/>
    </clipPath>
  </defs>
</symbol><symbol fill="currentColor" viewBox="0 0 20 21" id="svg-plus" xmlns="http://www.w3.org/2000/svg">
  <g clip-path="url(#aza)">
    <path d="M19.167 9.667h-8.334V1.333A.834.834 0 0 0 10 .5a.833.833 0 0 0-.833.833v8.334H.833A.833.833 0 0 0 0 10.5a.833.833 0 0 0 .833.833h8.334v8.334a.833.833 0 0 0 1.666 0v-8.334h8.334a.834.834 0 0 0 0-1.666Z"/>
  </g>
  <defs>
    <clipPath id="aza">
      <path d="M0 0h20v20H0z" transform="translate(0 .5)"/>
    </clipPath>
  </defs>
</symbol><symbol fill="currentColor" viewBox="0 0 21 21" id="svg-portrait" xmlns="http://www.w3.org/2000/svg">
  <g clip-path="url(#baa)">
    <path d="M16.333.5H4.667A4.172 4.172 0 0 0 .5 4.667v11.666A4.172 4.172 0 0 0 4.667 20.5h11.666a4.172 4.172 0 0 0 4.167-4.167V4.667A4.172 4.172 0 0 0 16.333.5Zm-10 18.333V18a4.167 4.167 0 1 1 8.334 0v.833H6.333Zm12.5-2.5a2.5 2.5 0 0 1-2.5 2.5V18a5.833 5.833 0 1 0-11.666 0v.833a2.5 2.5 0 0 1-2.5-2.5V4.667a2.5 2.5 0 0 1 2.5-2.5h11.666a2.5 2.5 0 0 1 2.5 2.5v11.666Z"/>
    <path d="M10.5 3.833a3.333 3.333 0 1 0 0 6.667 3.333 3.333 0 0 0 0-6.667Zm0 5a1.667 1.667 0 1 1 0-3.333 1.667 1.667 0 0 1 0 3.334Z"/>
  </g>
  <defs>
    <clipPath id="baa">
      <path d="M0 0h20v20H0z" transform="translate(.5 .5)"/>
    </clipPath>
  </defs>
</symbol><symbol fill="currentColor" viewBox="0 0 20 20" id="svg-remove" xmlns="http://www.w3.org/2000/svg">
  <g clip-path="url(#bba)">
    <path d="M17.5 3.333h-2.583A4.174 4.174 0 0 0 10.833 0H9.167a4.174 4.174 0 0 0-4.084 3.333H2.5A.833.833 0 0 0 2.5 5h.833v10.833A4.172 4.172 0 0 0 7.5 20h5a4.172 4.172 0 0 0 4.167-4.167V5h.833a.833.833 0 0 0 0-1.667ZM9.167 1.667h1.666a2.505 2.505 0 0 1 2.358 1.666H6.809a2.505 2.505 0 0 1 2.358-1.666ZM15 15.833a2.5 2.5 0 0 1-2.5 2.5h-5a2.5 2.5 0 0 1-2.5-2.5V5h10v10.833Z"/>
    <path d="M8.333 15a.833.833 0 0 0 .834-.834v-5a.833.833 0 1 0-1.667 0v5a.833.833 0 0 0 .833.833Zm3.333 0a.833.833 0 0 0 .834-.834v-5a.833.833 0 1 0-1.667 0v5a.833.833 0 0 0 .833.833Z"/>
  </g>
  <defs>
    <clipPath id="bba">
      <path d="M0 0h20v20H0z"/>
    </clipPath>
  </defs>
</symbol><symbol fill="currentColor" viewBox="0 0 20 21" id="svg-sign-in" xmlns="http://www.w3.org/2000/svg">
  <g clip-path="url(#bca)">
    <path d="M14.167 18.367h1.666a2.5 2.5 0 0 0 2.5-2.5V4.201a2.5 2.5 0 0 0-2.5-2.5h-1.666a.833.833 0 0 1 0-1.667h1.666A4.172 4.172 0 0 1 20 4.201v11.667a4.171 4.171 0 0 1-4.167 4.166h-1.666a.833.833 0 0 1 0-1.666Z"/>
    <path d="m.833 9.201 13.148.027a1.68 1.68 0 0 0-.272-.372l-3.232-3.232a.834.834 0 1 1 1.178-1.179l3.234 3.233a3.333 3.333 0 0 1 0 4.713l-3.232 3.233a.833.833 0 1 1-1.179-1.179l3.233-3.232a1.66 1.66 0 0 0 .242-.318l-13.12-.027a.833.833 0 1 1 0-1.667Z"/>
  </g>
  <defs>
    <clipPath id="bca">
      <path d="M0 0h20v20H0z" transform="matrix(-1 0 0 1 20 .034)"/>
    </clipPath>
  </defs>
</symbol><symbol fill="currentColor" viewBox="0 0 20 21" id="svg-sign-out" xmlns="http://www.w3.org/2000/svg">
  <g clip-path="url(#bda)">
    <path d="M19.024 8.143 15.792 4.91a.833.833 0 0 0-1.179 1.179l3.233 3.232c.096.098.18.207.25.325-.013 0-.023-.007-.035-.007l-13.07.027a.833.833 0 0 0 0 1.667l13.065-.027c.023 0 .042-.012.065-.013-.074.14-.168.27-.278.385L14.61 14.91a.834.834 0 1 0 1.178 1.178l3.233-3.232a3.333 3.333 0 0 0 0-4.713h.003Z"/>
    <path d="M5.833 18.833H4.167a2.5 2.5 0 0 1-2.5-2.5V4.667a2.5 2.5 0 0 1 2.5-2.5h1.666a.833.833 0 1 0 0-1.667H4.167A4.172 4.172 0 0 0 0 4.667v11.666A4.172 4.172 0 0 0 4.167 20.5h1.666a.833.833 0 1 0 0-1.667Z"/>
  </g>
  <defs>
    <clipPath id="bda">
      <path d="M0 0h20v20H0z" transform="translate(0 .5)"/>
    </clipPath>
  </defs>
</symbol><symbol fill="currentColor" viewBox="0 0 20 21" id="svg-star" xmlns="http://www.w3.org/2000/svg">
  <g clip-path="url(#bea)">
    <path d="M19.863 7.829a2.65 2.65 0 0 0-2.556-1.855h-3.64L12.56 2.527a2.689 2.689 0 0 0-5.122 0L6.333 5.974h-3.64a2.69 2.69 0 0 0-1.584 4.86L4.072 13l-1.126 3.49a2.649 2.649 0 0 0 .986 3.01 2.647 2.647 0 0 0 3.167-.015l2.9-2.136 2.903 2.133a2.689 2.689 0 0 0 4.152-2.992L15.927 13l2.967-2.166a2.648 2.648 0 0 0 .97-3.005Zm-1.952 1.659-3.454 2.524a.833.833 0 0 0-.301.93L15.468 17a1.022 1.022 0 0 1-1.579 1.138l-3.396-2.5a.833.833 0 0 0-.986 0l-3.396 2.5A1.023 1.023 0 0 1 4.527 17l1.317-4.058a.833.833 0 0 0-.302-.93L2.09 9.488a1.022 1.022 0 0 1 .603-1.848h4.25a.833.833 0 0 0 .794-.578l1.291-4.026a1.022 1.022 0 0 1 1.947 0l1.292 4.026a.833.833 0 0 0 .793.578h4.25a1.022 1.022 0 0 1 .603 1.848h-.001Z"/>
  </g>
  <defs>
    <clipPath id="bea">
      <path d="M0 0h20v20H0z" transform="translate(0 .5)"/>
    </clipPath>
  </defs>
</symbol><symbol fill="none" viewBox="0 0 24 20" id="svg-tg" xmlns="http://www.w3.org/2000/svg">
  <path fill="#2C2C24" d="M23.594 2.14C23.902.7 23.08.136 22.155.496L1.707 8.356C.32 8.921.372 9.692 1.502 10.052l5.189 1.592 12.125-7.603c.565-.411 1.13-.155.668.205L9.67 13.083l-.36 5.394c.565 0 .77-.205 1.079-.513l2.517-2.466 5.292 3.904c.976.565 1.696.257 1.952-.873l3.443-16.39Z"/>
</symbol><symbol fill="currentColor" viewBox="0 0 20 21" id="svg-user" xmlns="http://www.w3.org/2000/svg">
  <g clip-path="url(#bga)">
    <path d="M10 10.5a5 5 0 1 0 0-10 5 5 0 0 0 0 10Zm0-8.333a3.333 3.333 0 1 1 0 6.666 3.333 3.333 0 0 1 0-6.666Zm0 10a7.508 7.508 0 0 0-7.5 7.5.833.833 0 1 0 1.667 0 5.833 5.833 0 0 1 11.666 0 .833.833 0 1 0 1.667 0 7.508 7.508 0 0 0-7.5-7.5Z"/>
  </g>
  <defs>
    <clipPath id="bga">
      <path d="M0 0h20v20H0z" transform="translate(0 .5)"/>
    </clipPath>
  </defs>
</symbol><symbol fill="none" viewBox="0 0 40 14" id="svg-visa" xmlns="http://www.w3.org/2000/svg">
  <g clip-path="url(#bha)">
    <path fill="#3F83BB" d="m15.816 1.197-1.982 11.631h3.17l1.984-11.631h-3.172Zm-4.64.013L8.072 9.142 7.74 7.945c-.611-1.443-2.35-3.517-4.39-4.823l2.838 9.7 3.354-.005 4.993-11.61-3.359.003Z"/>
    <path fill="#3F83BB" d="M6.537 2.043c-.184-.71-.719-.92-1.382-.945H.241l-.04.231c3.823.928 6.354 3.164 7.405 5.852l-1.07-5.138Zm18.876 1.384a5.852 5.852 0 0 1 2.372.445l.286.134.429-2.52a8.157 8.157 0 0 0-2.84-.49c-3.132 0-5.34 1.579-5.357 3.84-.02 1.67 1.573 2.603 2.776 3.16 1.235.57 1.65.933 1.644 1.443-.01.778-.985 1.136-1.897 1.136-1.27 0-1.943-.176-2.984-.61l-.409-.185-.445 2.603c.741.326 2.11.605 3.532.62 3.332 0 5.498-1.559 5.52-3.975.014-1.321-.831-2.33-2.663-3.158-1.11-.54-1.787-.898-1.781-1.443 0-.483.575-1 1.817-1ZM36.635 1.21h-2.449c-.76 0-1.327.207-1.66.966l-4.708 10.659h3.33s.542-1.433.665-1.747l4.06.004c.094.406.386 1.743.386 1.743H39.2L36.635 1.21Zm-3.91 7.497c.261-.667 1.264-3.25 1.264-3.25-.018.031.258-.674.422-1.111l.214 1.003.734 3.358h-2.634Z"/>
  </g>
  <defs>
    <clipPath id="bha">
      <path fill="#fff" d="M0 0h39v13H0z" transform="translate(.2 .5)"/>
    </clipPath>
  </defs>
</symbol></svg>