<svg xmlns="http://www.w3.org/2000/svg" width="25" height="25" fill="none" viewBox="0 0 25 25">
  <path fill="#F44646" fill-rule="evenodd" d="M12.5 0C19.404 0 25 5.596 25 12.5S19.404 25 12.5 25 0 19.404 0 12.5 5.596 0 12.5 0Z" clip-rule="evenodd"/>
  <path fill="#fff" fill-rule="evenodd" d="M11.968 8.447h-1.059c-.173-.02-.385-.02-.597-.038-.057.019-.077.077-.096.154-.02.077 0 .135.039.192l.23.02c.289.057.5.115.636.173.134.077.23.212.27.385.038.174.057.404.038.693-.02.405-.039.886-.058 1.444-.02.56-.058 1.136-.097 1.734-.038.923-.12 3.172-.371 3.838a.546.546 0 0 1-.27.31c-.135.056-.29.114-.482.134l-.31.039c-.057.038-.076.096-.057.192 0 .058.02.116.077.174l.733-.058h1.524c.288.02.54.039.77.058a.202.202 0 0 0 .097-.174.245.245 0 0 0-.077-.192l-.54-.039c-.174-.02-.309-.058-.405-.135a.416.416 0 0 1-.116-.158c-.114-.274-.116-.737-.11-1.024.012-.597.02-1.194.038-1.79.02-.598.039-1.118.058-1.56.019-.405.058-.83.077-1.253l.058-1.27h.038c.155.327.309.654.443 1.02.155.347.309.694.462 1.021l1.29 2.753c.117.232.251.52.405.867.173.366.346.712.5 1.058.082.184.153.356.212.518.016 0 .124.354.136.396a.192.192 0 0 0 .27 0c.12-.287.244-.578.384-.855.364-.819.745-1.6 1.174-2.388l1.252-2.484c.097-.212.193-.443.327-.693.135-.27.27-.52.386-.732.096-.231.172-.385.21-.443h.02l.04 5.95c.018.308 0 .539-.02.712-.015.138-.054.269-.187.336-.077.096-.231.134-.482.154l-.424.039c-.039.038-.058.096-.039.192 0 .058.02.116.078.174.289-.02.597-.039.886-.058h1.659l.868.058c.058-.039.077-.096.077-.174a.225.225 0 0 0-.039-.192l-.463-.039c-.212-.02-.366-.078-.463-.174a.621.621 0 0 1-.192-.366 5.442 5.442 0 0 1-.039-.617 75.233 75.233 0 0 1-.085-2.162c-.02-.772-.058-1.503-.077-2.195v-1.83c0-.328.019-.578.058-.77a.714.714 0 0 1 .27-.424c.134-.077.365-.135.673-.173l.29-.02c.038-.038.057-.096.038-.192a.22.22 0 0 0-.058-.154c-.231.019-.462.019-.674.038h-1.04c-.173-.02-.366-.02-.616-.038-.02.326-.135.693-.308 1.117-.212.442-.462.982-.77 1.617l-1.348 2.715c-.35.739-.668 1.442-1.097 2.143h-.038c-.34-.643-.655-1.31-.964-1.97l-1.636-3.273a22.289 22.289 0 0 1-.559-1.31c-.135-.403-.192-.75-.173-1.04-.231.02-.443.02-.655.04Zm-7.901 7.32c0 .49-.02.864-.059 1.12-.038.494-.365.657-.826.688l-.295.04c-.095.095-.087.301.02.373a27.6 27.6 0 0 1 1.77-.06c.65 0 1.257.029 1.906.06.04-.04.06-.099.08-.177 0-.098-.02-.158-.06-.197l-.393-.039c-.315-.02-.53-.08-.649-.177a.523.523 0 0 1-.02-.016c-.12-.099-.205-.25-.24-.484a6.097 6.097 0 0 1-.04-1.117v-1.375c-.432.02-.824 0-1.178-.06l-.016 1.42Zm-1.26-7.171c-.02.078.02.137.08.196l.51.058c.215.02.373.079.47.177.099.079.158.216.177.432.02.216.04.53.04.942v2.905c.392.02.784.02 1.178 0V9.302a.731.731 0 0 1 .039-.373c.02-.059.098-.118.196-.137.118-.02.314-.02.57-.02.745.02 1.314.216 1.726.628.393.412.59.982.59 1.689.02.627-.138 1.157-.471 1.589-.295.374-.727.648-1.316.785-.569.138-1.374.197-2.454.177a36.14 36.14 0 0 1-3.081-.196c1.237.255 2.159.432 2.748.49a10.15 10.15 0 0 0 2.787-.038c.451-.06.864-.177 1.237-.314a6.898 6.898 0 0 0 1.08-.629c.215-.156.412-.413.589-.746.137-.314.216-.687.235-1.139a2.766 2.766 0 0 0-.353-1.295c-.216-.373-.471-.667-.805-.883a4.018 4.018 0 0 0-1.217-.452 9.427 9.427 0 0 0-1.59-.118c-.59 0-1.12 0-1.59.02-.471.02-.903.04-1.277.078a.208.208 0 0 0-.098.178Z" clip-rule="evenodd"/>
</svg>
