<svg xmlns="http://www.w3.org/2000/svg" width="25" height="23" fill="none" viewBox="0 0 25 23">
  <path fill="#27BD94" fill-rule="evenodd" d="M4.577.733.02 10.308a.186.186 0 0 0 .04.216l12.31 11.798a.188.188 0 0 0 .26 0l12.312-11.797a.185.185 0 0 0 .04-.216L20.421.734a.184.184 0 0 0-.167-.108H4.747a.184.184 0 0 0-.17.107Z" clip-rule="evenodd"/>
  <path fill="#fff" fill-rule="evenodd" d="M14.082 11.291c-.089.007-.545.034-1.564.034-.81 0-1.385-.024-1.587-.034-3.131-.138-5.468-.683-5.468-1.335 0-.653 2.337-1.197 5.468-1.337v2.13c.205.014.79.049 1.601.049.972 0 1.46-.04 1.547-.049V8.621c3.124.139 5.456.684 5.456 1.335 0 .651-2.331 1.196-5.456 1.335h.003Zm0-2.89V6.494h4.36V3.589H6.57v2.906h4.36V8.4c-3.543.162-6.208.864-6.208 1.705 0 .841 2.665 1.543 6.208 1.706v6.106h3.151V11.81c3.535-.163 6.196-.864 6.196-1.704S17.619 8.563 14.08 8.4Z" clip-rule="evenodd"/>
</svg>
