<svg xmlns="http://www.w3.org/2000/svg" width="266" height="58" fill="none" viewBox="0 0 266 58">
  <path fill="#fff" d="M81.77 27.192a5.03 5.03 0 0 1-.616 2.464c-.41.733-1.041 1.327-1.892 1.782-.85.455-1.907.682-3.168.682h-2.332v5.544H70V22.22h6.094c1.232 0 2.273.213 3.124.638.85.425 1.489 1.012 1.914 1.76.425.748.638 1.606.638 2.574Zm-5.962 1.936c.719 0 1.254-.169 1.606-.506.352-.337.528-.814.528-1.43s-.176-1.093-.528-1.43c-.352-.337-.887-.506-1.606-.506h-2.046v3.872h2.046Zm16.535 5.808h-5.764l-.924 2.728h-3.939l5.589-15.444h4.355l5.589 15.444h-3.983l-.924-2.728Zm-.969-2.904-1.913-5.654-1.892 5.654h3.805Zm18.819-9.812-5.346 10.34v5.104h-3.762V32.56l-5.346-10.34h4.268l2.992 6.468 2.97-6.468h4.224Zm19.006 0v15.444h-3.762v-9.262l-3.454 9.262h-3.036l-3.476-9.284v9.284h-3.762V22.22h4.444l4.334 10.692 4.29-10.692h4.422Zm6.467 3.014v3.124h5.038v2.904h-5.038v3.388h5.698v3.014h-9.46V22.22h9.46v3.014h-5.698Zm21.957 12.43h-3.762l-6.292-9.526v9.526h-3.762V22.22h3.762l6.292 9.57v-9.57h3.762v15.444ZM171.46 22.22v3.014h-4.092v12.43h-3.762v-12.43h-4.092V22.22h11.946Zm7.476 15.598c-1.13 0-2.142-.183-3.036-.55-.895-.367-1.614-.91-2.156-1.628-.528-.719-.807-1.584-.836-2.596h4.004c.058.572.256 1.012.594 1.32.337.293.777.44 1.32.44.557 0 .997-.125 1.32-.374.322-.264.484-.623.484-1.078 0-.381-.132-.697-.396-.946a2.947 2.947 0 0 0-.946-.616c-.367-.161-.895-.345-1.584-.55-.998-.308-1.812-.616-2.442-.924a4.504 4.504 0 0 1-1.628-1.364c-.455-.601-.682-1.386-.682-2.354 0-1.437.52-2.56 1.562-3.366 1.041-.821 2.398-1.232 4.07-1.232 1.701 0 3.072.41 4.114 1.232 1.041.807 1.598 1.936 1.672 3.388h-4.07c-.03-.499-.213-.887-.55-1.166-.338-.293-.77-.44-1.298-.44-.455 0-.822.125-1.1.374-.279.235-.418.58-.418 1.034 0 .499.234.887.704 1.166.469.279 1.202.58 2.2.902.997.337 1.804.66 2.42.968.63.308 1.173.755 1.628 1.342.454.587.682 1.342.682 2.266 0 .88-.228 1.68-.682 2.398-.44.719-1.086 1.29-1.936 1.716-.851.425-1.856.638-3.014.638ZM81.946.22v3.014h-4.092v12.43h-3.762V3.234H70V.22h11.946Zm9.764 15.444-3.212-5.83h-.902v5.83h-3.762V.22h6.314c1.217 0 2.251.213 3.102.638.865.425 1.51 1.012 1.936 1.76.425.733.638 1.555.638 2.464 0 1.027-.293 1.943-.88 2.75-.572.807-1.423 1.379-2.552 1.716l3.564 6.116H91.71Zm-4.114-8.492h2.332c.69 0 1.203-.169 1.54-.506.352-.337.528-.814.528-1.43 0-.587-.176-1.049-.528-1.386-.337-.337-.85-.506-1.54-.506h-2.332v3.828ZM101.882.22v9.24c0 .924.227 1.635.682 2.134.454.499 1.122.748 2.002.748.88 0 1.554-.25 2.024-.748.469-.499.704-1.21.704-2.134V.22h3.762v9.218c0 1.379-.294 2.545-.88 3.498a5.624 5.624 0 0 1-2.376 2.156c-.983.484-2.083.726-3.3.726-1.218 0-2.31-.235-3.278-.704a5.432 5.432 0 0 1-2.266-2.156c-.558-.968-.836-2.141-.836-3.52V.22h3.762Zm15.577 3.014v3.124h5.038v2.904h-5.038v3.388h5.698v3.014h-9.46V.22h9.46v3.014h-5.698Zm18.391 12.584c-1.13 0-2.142-.183-3.036-.55-.895-.367-1.614-.91-2.156-1.628-.528-.719-.807-1.584-.836-2.596h4.004c.058.572.256 1.012.594 1.32.337.293.777.44 1.32.44.557 0 .997-.125 1.32-.374.322-.264.484-.623.484-1.078 0-.381-.132-.697-.396-.946a2.948 2.948 0 0 0-.946-.616c-.367-.161-.895-.345-1.584-.55-.998-.308-1.812-.616-2.442-.924a4.504 4.504 0 0 1-1.628-1.364c-.455-.601-.682-1.386-.682-2.354 0-1.437.52-2.56 1.562-3.366C132.469.411 133.826 0 135.498 0c1.701 0 3.072.41 4.114 1.232 1.041.807 1.598 1.936 1.672 3.388h-4.07c-.03-.499-.213-.887-.55-1.166-.338-.293-.77-.44-1.298-.44-.455 0-.822.125-1.1.374-.279.235-.418.58-.418 1.034 0 .499.234.887.704 1.166.469.279 1.202.58 2.2.902.997.337 1.804.66 2.42.968.63.308 1.173.755 1.628 1.342.454.587.682 1.342.682 2.266 0 .88-.228 1.68-.682 2.398-.44.719-1.086 1.29-1.936 1.716-.851.425-1.856.638-3.014.638Zm11.709-12.584v3.124h5.038v2.904h-5.038v3.388h5.698v3.014h-9.46V.22h9.46v3.014h-5.698Zm7.502 4.686c0-1.525.33-2.882.99-4.07a7.004 7.004 0 0 1 2.75-2.794c1.188-.675 2.53-1.012 4.026-1.012 1.834 0 3.403.484 4.708 1.452 1.306.968 2.178 2.288 2.618 3.96h-4.136c-.308-.645-.748-1.137-1.32-1.474-.557-.337-1.195-.506-1.914-.506-1.158 0-2.097.403-2.816 1.21-.718.807-1.078 1.885-1.078 3.234 0 1.35.36 2.427 1.078 3.234.719.807 1.658 1.21 2.816 1.21.719 0 1.357-.169 1.914-.506.572-.337 1.012-.829 1.32-1.474h4.136c-.44 1.672-1.312 2.992-2.618 3.96-1.305.953-2.874 1.43-4.708 1.43-1.496 0-2.838-.33-4.026-.99a7.196 7.196 0 0 1-2.75-2.794c-.66-1.188-.99-2.545-.99-4.07Zm21.092-7.7v9.24c0 .924.227 1.635.682 2.134.455.499 1.122.748 2.002.748.88 0 1.555-.25 2.024-.748.469-.499.704-1.21.704-2.134V.22h3.762v9.218c0 1.379-.293 2.545-.88 3.498a5.624 5.624 0 0 1-2.376 2.156c-.983.484-2.083.726-3.3.726-1.217 0-2.31-.235-3.278-.704a5.435 5.435 0 0 1-2.266-2.156c-.557-.968-.836-2.141-.836-3.52V.22h3.762Zm19.692 15.444-3.212-5.83h-.902v5.83h-3.762V.22h6.314c1.217 0 2.251.213 3.102.638.865.425 1.51 1.012 1.936 1.76.425.733.638 1.555.638 2.464a4.562 4.562 0 0 1-.88 2.75c-.572.807-1.423 1.379-2.552 1.716l3.564 6.116h-4.246Zm-4.114-8.492h2.332c.689 0 1.202-.169 1.54-.506.352-.337.528-.814.528-1.43 0-.587-.176-1.049-.528-1.386-.338-.337-.851-.506-1.54-.506h-2.332v3.828Zm14.351-3.938v3.124h5.038v2.904h-5.038v3.388h5.698v3.014h-9.46V.22h9.46v3.014h-5.698Z"/>
  <path fill="#fff" fill-opacity=".75" d="M70 53.32c0-.84.17-1.575.509-2.205.34-.64.803-1.135 1.392-1.485a3.871 3.871 0 0 1 1.99-.525c.718 0 1.342.155 1.87.465.53.31.924.7 1.183 1.17v-1.5h1.377v8.22h-1.377v-1.53c-.27.48-.673.88-1.212 1.2-.529.31-1.147.465-1.856.465a3.71 3.71 0 0 1-1.975-.54 3.784 3.784 0 0 1-1.392-1.515c-.34-.65-.509-1.39-.509-2.22Zm6.944.015c0-.62-.125-1.16-.374-1.62-.25-.46-.589-.81-1.018-1.05a2.665 2.665 0 0 0-1.392-.375c-.508 0-.972.12-1.391.36a2.6 2.6 0 0 0-1.003 1.05c-.25.46-.374 1-.374 1.62 0 .63.124 1.18.374 1.65.25.46.584.815 1.003 1.065.419.24.883.36 1.391.36.51 0 .973-.12 1.392-.36.43-.25.769-.605 1.018-1.065.25-.47.374-1.015.374-1.635Zm5.04-6.975v11.1h-1.361v-11.1h1.361Zm3.683 0v11.1h-1.362v-11.1h1.362Zm5.803 6.96c0-.84.17-1.575.508-2.205a3.7 3.7 0 0 1 1.392-1.485 3.9 3.9 0 0 1 2.006-.525c.638 0 1.232.15 1.78.45.55.29.968.675 1.258 1.155v-4.35h1.376v11.1h-1.376v-1.545c-.27.49-.669.895-1.198 1.215-.528.31-1.147.465-1.855.465-.729 0-1.392-.18-1.99-.54a3.784 3.784 0 0 1-1.393-1.515c-.339-.65-.508-1.39-.508-2.22Zm6.944.015c0-.62-.125-1.16-.374-1.62a2.59 2.59 0 0 0-1.018-1.05 2.666 2.666 0 0 0-1.392-.375c-.509 0-.973.12-1.392.36a2.61 2.61 0 0 0-1.002 1.05c-.25.46-.375 1-.375 1.62 0 .63.125 1.18.374 1.65.25.46.584.815 1.003 1.065.42.24.883.36 1.392.36.509 0 .973-.12 1.392-.36.429-.25.768-.605 1.017-1.065.25-.47.375-1.015.375-1.635Zm3.169-.015c0-.84.17-1.575.509-2.205a3.698 3.698 0 0 1 1.392-1.485 3.869 3.869 0 0 1 1.99-.525c.719 0 1.342.155 1.871.465.529.31.923.7 1.182 1.17v-1.5h1.377v8.22h-1.377v-1.53c-.269.48-.673.88-1.212 1.2-.529.31-1.147.465-1.856.465-.728 0-1.387-.18-1.975-.54a3.78 3.78 0 0 1-1.392-1.515c-.339-.65-.509-1.39-.509-2.22Zm6.944.015c0-.62-.124-1.16-.374-1.62a2.57 2.57 0 0 0-1.018-1.05 2.662 2.662 0 0 0-1.391-.375c-.509 0-.973.12-1.392.36-.419.24-.753.59-1.003 1.05-.249.46-.374 1-.374 1.62 0 .63.125 1.18.374 1.65.25.46.584.815 1.003 1.065.419.24.883.36 1.392.36.509 0 .972-.12 1.391-.36.43-.25.769-.605 1.018-1.065.25-.47.374-1.015.374-1.635Zm5.34-2.97v4.845c0 .4.085.685.254.855.17.16.464.24.883.24h1.003v1.155h-1.227c-.759 0-1.327-.175-1.706-.525-.379-.35-.569-.925-.569-1.725v-4.845h-1.063V49.24h1.063v-2.07h1.362v2.07h2.14v1.125h-2.14Zm3.281 2.955c0-.84.17-1.575.509-2.205a3.698 3.698 0 0 1 1.392-1.485 3.871 3.871 0 0 1 1.99-.525c.719 0 1.342.155 1.871.465.529.31.923.7 1.182 1.17v-1.5h1.377v8.22h-1.377v-1.53c-.269.48-.673.88-1.212 1.2-.529.31-1.147.465-1.856.465-.728 0-1.386-.18-1.975-.54a3.78 3.78 0 0 1-1.392-1.515c-.339-.65-.509-1.39-.509-2.22Zm6.944.015c0-.62-.124-1.16-.374-1.62a2.575 2.575 0 0 0-1.017-1.05 2.668 2.668 0 0 0-1.392-.375c-.509 0-.973.12-1.392.36-.419.24-.753.59-1.003 1.05-.249.46-.374 1-.374 1.62 0 .63.125 1.18.374 1.65.25.46.584.815 1.003 1.065.419.24.883.36 1.392.36.509 0 .972-.12 1.392-.36.429-.25.768-.605 1.017-1.065.25-.47.374-1.015.374-1.635Zm8.372-5.43a.897.897 0 0 1-.659-.27.9.9 0 0 1-.269-.66.9.9 0 0 1 .269-.66c.18-.18.4-.27.659-.27.249 0 .459.09.629.27a.9.9 0 0 1 .269.66.9.9 0 0 1-.269.66c-.17.18-.38.27-.629.27Zm.658 1.335v8.22h-1.361v-8.22h1.361Zm5.225 8.355c-.629 0-1.192-.105-1.691-.315-.499-.22-.893-.52-1.182-.9a2.432 2.432 0 0 1-.479-1.335h1.406c.04.41.23.745.569 1.005.349.26.803.39 1.362.39.519 0 .928-.115 1.227-.345.3-.23.449-.52.449-.87a.841.841 0 0 0-.479-.795c-.319-.18-.813-.355-1.481-.525-.609-.16-1.108-.32-1.497-.48a2.85 2.85 0 0 1-.988-.735c-.269-.33-.404-.76-.404-1.29 0-.42.125-.805.374-1.155.25-.35.604-.625 1.063-.825.459-.21.983-.315 1.571-.315.908 0 1.642.23 2.2.69.559.46.858 1.09.898 1.89h-1.362a1.402 1.402 0 0 0-.523-1.035c-.31-.26-.729-.39-1.258-.39-.488 0-.878.105-1.167.315-.289.21-.434.485-.434.825 0 .27.085.495.255.675.179.17.399.31.658.42.269.1.639.215 1.108.345.588.16 1.067.32 1.436.48.369.15.684.38.943.69.269.31.409.715.419 1.215 0 .45-.125.855-.374 1.215-.249.36-.604.645-1.063.855-.449.2-.967.3-1.556.3Zm11.809 0c-.629 0-1.192-.105-1.691-.315-.499-.22-.893-.52-1.182-.9a2.432 2.432 0 0 1-.479-1.335h1.406c.04.41.23.745.569 1.005.349.26.803.39 1.362.39.519 0 .928-.115 1.227-.345.299-.23.449-.52.449-.87a.841.841 0 0 0-.479-.795c-.319-.18-.813-.355-1.481-.525-.609-.16-1.108-.32-1.497-.48a2.85 2.85 0 0 1-.988-.735c-.269-.33-.404-.76-.404-1.29 0-.42.125-.805.374-1.155.25-.35.604-.625 1.063-.825.459-.21.983-.315 1.571-.315.908 0 1.642.23 2.2.69.559.46.858 1.09.898 1.89h-1.362a1.402 1.402 0 0 0-.523-1.035c-.31-.26-.729-.39-1.258-.39-.488 0-.878.105-1.167.315-.289.21-.434.485-.434.825 0 .27.085.495.255.675.179.17.399.31.658.42.269.1.639.215 1.108.345.588.16 1.067.32 1.436.48.369.15.684.38.943.69.269.31.409.715.419 1.215 0 .45-.125.855-.374 1.215-.249.36-.604.645-1.063.855-.449.2-.967.3-1.556.3Zm4.407-4.275c0-.84.169-1.575.509-2.205a3.702 3.702 0 0 1 1.391-1.485 3.875 3.875 0 0 1 1.991-.525c.718 0 1.342.155 1.871.465.528.31.923.7 1.182 1.17v-1.5h1.377v8.22h-1.377v-1.53c-.269.48-.674.88-1.212 1.2-.529.31-1.148.465-1.856.465-.728 0-1.387-.18-1.976-.54a3.785 3.785 0 0 1-1.391-1.515c-.34-.65-.509-1.39-.509-2.22Zm6.944.015c0-.62-.125-1.16-.374-1.62-.25-.46-.589-.81-1.018-1.05a2.665 2.665 0 0 0-1.392-.375c-.509 0-.972.12-1.392.36-.419.24-.753.59-1.002 1.05-.25.46-.374 1-.374 1.62 0 .63.124 1.18.374 1.65.249.46.583.815 1.002 1.065.42.24.883.36 1.392.36.509 0 .973-.12 1.392-.36.429-.25.768-.605 1.018-1.065.249-.47.374-1.015.374-1.635Zm7.016-2.97h-1.721v7.095h-1.362v-7.095h-1.063V49.24h1.063v-.585c0-.92.234-1.59.703-2.01.479-.43 1.242-.645 2.29-.645v1.14c-.599 0-1.023.12-1.272.36-.24.23-.359.615-.359 1.155v.585h1.721v1.125Zm9.07 2.67c0 .26-.015.535-.044.825h-6.555c.049.81.324 1.445.823 1.905.508.45 1.122.675 1.84.675.589 0 1.078-.135 1.467-.405.399-.28.679-.65.838-1.11h1.467a3.575 3.575 0 0 1-1.317 1.935c-.659.49-1.477.735-2.455.735-.778 0-1.476-.175-2.095-.525a3.74 3.74 0 0 1-1.436-1.485c-.35-.65-.524-1.4-.524-2.25 0-.85.169-1.595.509-2.235.339-.64.813-1.13 1.421-1.47.619-.35 1.327-.525 2.125-.525.779 0 1.467.17 2.066.51.598.34 1.057.81 1.377 1.41.329.59.493 1.26.493 2.01Zm-1.406-.285c0-.52-.115-.965-.345-1.335a2.164 2.164 0 0 0-.942-.855c-.39-.2-.824-.3-1.302-.3-.689 0-1.278.22-1.766.66-.479.44-.754 1.05-.824 1.83h5.179Zm6.685.57c0-.84.17-1.575.509-2.205a3.698 3.698 0 0 1 1.392-1.485 3.869 3.869 0 0 1 1.99-.525c.719 0 1.342.155 1.871.465.529.31.923.7 1.182 1.17v-1.5h1.377v8.22h-1.377v-1.53c-.269.48-.673.88-1.212 1.2-.529.31-1.147.465-1.856.465-.728 0-1.386-.18-1.975-.54a3.78 3.78 0 0 1-1.392-1.515c-.339-.65-.509-1.39-.509-2.22Zm6.944.015c0-.62-.124-1.16-.374-1.62a2.575 2.575 0 0 0-1.017-1.05 2.668 2.668 0 0 0-1.392-.375c-.509 0-.973.12-1.392.36-.419.24-.753.59-1.003 1.05-.249.46-.374 1-.374 1.62 0 .63.125 1.18.374 1.65.25.46.584.815 1.003 1.065.419.24.883.36 1.392.36.509 0 .972-.12 1.392-.36.429-.25.768-.605 1.017-1.065.25-.47.374-1.015.374-1.635Zm7.675-4.245c.997 0 1.805.305 2.424.915.619.6.928 1.47.928 2.61v4.845h-1.347v-4.65c0-.82-.205-1.445-.614-1.875-.409-.44-.967-.66-1.676-.66-.718 0-1.292.225-1.721.675-.419.45-.628 1.105-.628 1.965v4.545h-1.362v-8.22h1.362v1.17c.269-.42.633-.745 1.092-.975.469-.23.983-.345 1.542-.345Zm5.068 4.23c0-.84.169-1.575.509-2.205a3.702 3.702 0 0 1 1.391-1.485 3.9 3.9 0 0 1 2.006-.525c.638 0 1.232.15 1.781.45.548.29.967.675 1.257 1.155v-4.35h1.377v11.1h-1.377v-1.545c-.27.49-.669.895-1.197 1.215-.529.31-1.148.465-1.856.465a3.79 3.79 0 0 1-1.991-.54 3.785 3.785 0 0 1-1.391-1.515c-.34-.65-.509-1.39-.509-2.22Zm6.944.015c0-.62-.125-1.16-.374-1.62-.25-.46-.589-.81-1.018-1.05a2.665 2.665 0 0 0-1.392-.375c-.509 0-.973.12-1.392.36-.419.24-.753.59-1.002 1.05-.25.46-.374 1-.374 1.62 0 .63.124 1.18.374 1.65.249.46.583.815 1.002 1.065.419.24.883.36 1.392.36.509 0 .973-.12 1.392-.36.429-.25.768-.605 1.018-1.065.249-.47.374-1.015.374-1.635Zm10.571 4.26c-.628 0-1.192-.105-1.691-.315-.499-.22-.893-.52-1.182-.9a2.44 2.44 0 0 1-.479-1.335h1.407c.04.41.229.745.569 1.005.349.26.803.39 1.361.39.519 0 .928-.115 1.228-.345.299-.23.449-.52.449-.87 0-.36-.16-.625-.479-.795-.32-.18-.813-.355-1.482-.525-.608-.16-1.107-.32-1.496-.48a2.832 2.832 0 0 1-.988-.735c-.27-.33-.404-.76-.404-1.29 0-.42.124-.805.374-1.155.249-.35.603-.625 1.062-.825.459-.21.983-.315 1.572-.315.908 0 1.641.23 2.2.69.559.46.858 1.09.898 1.89h-1.362a1.403 1.403 0 0 0-.524-1.035c-.309-.26-.728-.39-1.257-.39-.489 0-.878.105-1.167.315-.29.21-.434.485-.434.825 0 .27.084.495.254.675.18.17.399.31.659.42.269.1.638.215 1.107.345.589.16 1.068.32 1.437.48.369.15.683.38.943.69.269.31.409.715.419 1.215 0 .45-.125.855-.375 1.215-.249.36-.603.645-1.062.855-.449.2-.968.3-1.557.3Zm12.399-4.56c0 .26-.015.535-.045.825h-6.555c.05.81.324 1.445.823 1.905.509.45 1.123.675 1.841.675.589 0 1.078-.135 1.467-.405.399-.28.678-.65.838-1.11h1.466a3.565 3.565 0 0 1-1.317 1.935c-.658.49-1.476.735-2.454.735-.778 0-1.477-.175-2.095-.525a3.736 3.736 0 0 1-1.437-1.485c-.349-.65-.524-1.4-.524-2.25 0-.85.17-1.595.509-2.235.339-.64.813-1.13 1.422-1.47.618-.35 1.327-.525 2.125-.525.778 0 1.467.17 2.065.51.599.34 1.058.81 1.377 1.41.329.59.494 1.26.494 2.01Zm-1.407-.285c0-.52-.114-.965-.344-1.335a2.166 2.166 0 0 0-.943-.855c-.389-.2-.823-.3-1.302-.3-.688 0-1.277.22-1.766.66-.479.44-.753 1.05-.823 1.83h5.178Zm2.696.585c0-.85.169-1.59.509-2.22a3.67 3.67 0 0 1 1.406-1.485c.609-.35 1.302-.525 2.081-.525 1.007 0 1.836.245 2.484.735.659.49 1.093 1.17 1.302 2.04h-1.467a2.095 2.095 0 0 0-.823-1.185c-.399-.29-.898-.435-1.496-.435-.779 0-1.407.27-1.886.81-.479.53-.718 1.285-.718 2.265 0 .99.239 1.755.718 2.295s1.107.81 1.886.81c.598 0 1.097-.14 1.496-.42.399-.28.674-.68.823-1.2h1.467c-.219.84-.658 1.515-1.317 2.025-.658.5-1.482.75-2.469.75-.779 0-1.472-.175-2.081-.525a3.67 3.67 0 0 1-1.406-1.485c-.34-.64-.509-1.39-.509-2.25Zm16.873-4.095v8.22h-1.362v-1.215c-.26.42-.624.75-1.093.99-.459.23-.968.345-1.526.345-.639 0-1.212-.13-1.721-.39a2.986 2.986 0 0 1-1.213-1.2c-.289-.53-.434-1.175-.434-1.935V49.24h1.347v4.635c0 .81.205 1.435.614 1.875.409.43.968.645 1.676.645.728 0 1.302-.225 1.721-.675.419-.45.629-1.105.629-1.965V49.24h1.362Zm3.661 1.335c.239-.47.579-.835 1.018-1.095.449-.26.992-.39 1.631-.39v1.41h-.359c-1.527 0-2.29.83-2.29 2.49v4.47h-1.362v-8.22h1.362v1.335ZM266 53.035c0 .26-.015.535-.045.825H259.4c.05.81.324 1.445.823 1.905.509.45 1.123.675 1.841.675.589 0 1.078-.135 1.467-.405.399-.28.678-.65.838-1.11h1.466a3.565 3.565 0 0 1-1.317 1.935c-.658.49-1.476.735-2.454.735-.778 0-1.477-.175-2.095-.525a3.736 3.736 0 0 1-1.437-1.485c-.349-.65-.524-1.4-.524-2.25 0-.85.17-1.595.509-2.235.339-.64.813-1.13 1.422-1.47.618-.35 1.327-.525 2.125-.525.778 0 1.467.17 2.065.51.599.34 1.058.81 1.377 1.41.329.59.494 1.26.494 2.01Zm-1.407-.285c0-.52-.115-.965-.344-1.335a2.166 2.166 0 0 0-.943-.855c-.389-.2-.823-.3-1.302-.3-.688 0-1.277.22-1.766.66-.479.44-.753 1.05-.823 1.83h5.178Z"/>
  <path fill="#fff" fill-opacity=".2" d="M28 1.16A51.922 51.922 0 0 0 6.743 5.5a3.575 3.575 0 0 0-1.52 1.327 3.546 3.546 0 0 0-.556 1.933v17.718a28.39 28.39 0 0 0 4.99 16.116 28.641 28.641 0 0 0 13.275 10.492l2.501.97c.82.31 1.69.468 2.567.464V1.16Z"/>
  <path stroke="#fff" stroke-linecap="round" stroke-linejoin="round" d="M4.667 8.76v17.718a28.39 28.39 0 0 0 4.99 16.116 28.64 28.64 0 0 0 13.275 10.492l2.501.97c1.659.64 3.498.64 5.157 0l2.49-.958a28.639 28.639 0 0 0 13.272-10.5 28.388 28.388 0 0 0 4.981-16.12V8.76a3.547 3.547 0 0 0-.559-1.927 3.575 3.575 0 0 0-1.517-1.32A51.922 51.922 0 0 0 28 1.16 51.922 51.922 0 0 0 6.743 5.5a3.575 3.575 0 0 0-1.52 1.327 3.546 3.546 0 0 0-.556 1.933Z"/>
  <path stroke="#fff" stroke-linecap="round" stroke-width="3" d="m17.711 25.914 7.97 7.975 15.94-15.95"/>
</svg>
