<svg xmlns="http://www.w3.org/2000/svg" width="127" height="51" fill="none" viewBox="0 0 127 51">
  <path fill="#C01818" fill-rule="evenodd" d="m68.425 19.366-2.678-1.528-.189.306c-.604.917-1.433 1.413-2.49 1.375-1.772 0-3.13-1.299-3.13-3.018 0-1.72 1.357-2.981 3.13-2.981 1.057 0 1.849.459 2.49 1.414l.188.306 2.716-1.529-.226-.344c-1.283-1.796-2.98-2.674-5.13-2.674-4.111 0-6.337 3.018-6.337 5.846 0 2.827 2.226 5.846 6.337 5.846 2.113 0 4.074-1.032 5.168-2.674l.15-.345h.001Zm7.46-6.052 1.446 3.765h-2.93l1.484-3.764v-.001Zm-7.423 9.647h3.616l1.066-2.705h5.406L79.615 23h3.617L76.799 7H73.6l.876 2.118-6.015 13.843Zm15.507-.576h3.053v-6.917h2.01v-2.91h-2.01v-1.361c0-.605.386-1.21 1.12-1.21.388 0 .62.076.851.19l.348.15 1.275-2.835-.347-.15C89.689 7.113 88.916 7 88.337 7c-1.392 0-2.552.454-3.324 1.323-.696.755-1.044 1.814-1.044 2.986v1.247h-1.353v2.911h1.353v6.918ZM42 7.001v15.384h3.441v-8.807l3.328 2.42 3.329-2.42v8.807h3.441V7.001l-6.77 5.027L42 7.001Zm52.54 8.086c.414-1.07 1.279-1.68 2.406-1.68 1.129 0 2.03.61 2.52 1.68H94.54Zm2.707-4.394c-3.91 0-6.015 3.018-6.015 5.846 0 2.827 2.105 5.846 6.015 5.846 1.805-.038 3.459-.84 4.775-2.331l-2.519-1.413c-.639.687-1.429 1.032-2.293 1.032-1.278 0-2.406-.88-2.707-1.987h8.421v-.765c0-4.318-3.308-6.228-5.677-6.228Zm9.601 4.394c.414-1.07 1.278-1.68 2.406-1.68 1.129 0 2.03.61 2.52 1.68h-4.926Zm2.707-4.394c-3.91 0-6.015 3.018-6.015 5.846 0 2.827 2.105 5.846 6.015 5.846 1.805-.038 3.459-.84 4.775-2.331l-2.519-1.413c-.639.687-1.428 1.032-2.293 1.032-1.279 0-2.406-.88-2.707-1.987h8.422v-.765c-.038-4.318-3.347-6.228-5.678-6.228Zm5.678-1.231h1.23v.29h-.473v1.556h-.284V9.752h-.473v-.29Z" clip-rule="evenodd"/>
  <path fill="#BD2E2B" fill-rule="evenodd" d="M14.377 32.323V17.29l9.14 4.38v-7.226L8 7v29.557L23.516 44v-7.225l-9.139-4.452Z" clip-rule="evenodd"/>
  <path fill="#75160D" fill-rule="evenodd" d="M32.656 32.323V17.29l-9.14 4.38v-7.226L39.034 7v29.557L23.516 44v-7.225l9.14-4.452Z" clip-rule="evenodd"/>
  <path fill="#000" d="M50.697 31.156c-.054-.544-.286-.967-.695-1.269-.41-.3-.965-.452-1.666-.452-.477 0-.88.068-1.208.203-.328.13-.58.312-.756.546-.17.234-.256.5-.256.796-.01.248.042.464.155.648.117.185.277.344.479.48.202.13.436.244.702.343.265.095.549.176.85.243l1.241.297a8.76 8.76 0 0 1 1.66.54c.504.225.94.501 1.31.83.368.328.654.715.856 1.16.207.446.313.956.317 1.532-.004.846-.22 1.579-.648 2.2-.422.616-1.034 1.095-1.835 1.437-.796.337-1.756.506-2.88.506-1.116 0-2.088-.171-2.916-.513-.823-.342-1.466-.848-1.93-1.518-.458-.675-.699-1.51-.721-2.503h2.827c.031.463.164.85.398 1.16.238.306.555.538.951.695.4.153.853.23 1.356.23.495 0 .925-.072 1.29-.216.368-.144.653-.345.856-.601.202-.256.304-.551.304-.884 0-.31-.093-.571-.277-.782-.18-.212-.445-.392-.796-.54a8.1 8.1 0 0 0-1.275-.405l-1.505-.378c-1.165-.283-2.085-.726-2.76-1.33-.674-.602-1.01-1.414-1.005-2.435-.005-.836.218-1.567.668-2.193.454-.625 1.077-1.113 1.869-1.464.792-.35 1.691-.526 2.699-.526 1.025 0 1.92.175 2.685.526.77.351 1.368.84 1.795 1.464.427.625.648 1.35.661 2.173h-2.8ZM55.651 41V27.182h9.311v2.409h-6.39v3.292h5.911v2.409h-5.91v3.3h6.416V41h-9.338Zm23.826-8.98h-2.955a2.887 2.887 0 0 0-.33-1.02 2.59 2.59 0 0 0-.642-.768 2.82 2.82 0 0 0-.904-.486 3.46 3.46 0 0 0-1.1-.169c-.715 0-1.338.178-1.869.533-.53.35-.942.864-1.234 1.538-.293.67-.439 1.485-.439 2.443 0 .985.146 1.813.439 2.483.297.67.71 1.176 1.241 1.518.53.342 1.145.513 1.842.513.391 0 .754-.052 1.086-.155.338-.104.637-.255.898-.453.26-.202.477-.447.647-.735.176-.288.297-.616.365-.985l2.955.014a5.516 5.516 0 0 1-1.795 3.407 5.747 5.747 0 0 1-1.821 1.093c-.702.265-1.496.398-2.382.398-1.233 0-2.335-.279-3.306-.837-.967-.557-1.732-1.365-2.294-2.422-.558-1.057-.837-2.337-.837-3.84 0-1.506.284-2.788.85-3.845.567-1.057 1.336-1.862 2.308-2.416.971-.557 2.064-.836 3.279-.836.8 0 1.543.112 2.226.337a5.646 5.646 0 0 1 1.829.985c.53.428.962.952 1.295 1.572.338.621.554 1.332.648 2.133Zm10.63-4.838h2.922v8.974c0 1.007-.24 1.889-.722 2.644-.477.756-1.145 1.345-2.004 1.768-.86.419-1.86.628-3.003.628-1.147 0-2.15-.21-3.009-.628-.859-.423-1.527-1.012-2.004-1.768-.477-.755-.715-1.637-.715-2.644v-8.974h2.922v8.724c0 .526.114.994.344 1.403.234.41.562.731.985.965.423.234.915.351 1.477.351.567 0 1.06-.117 1.478-.35.423-.235.749-.556.978-.966.234-.409.351-.877.351-1.403v-8.724ZM95.432 41V27.182h5.452c1.044 0 1.934.187 2.672.56.742.369 1.307.893 1.694 1.572.391.675.587 1.469.587 2.382 0 .917-.198 1.707-.594 2.368-.396.657-.97 1.16-1.721 1.511-.746.351-1.651.527-2.712.527h-3.65v-2.348h3.178c.557 0 1.021-.077 1.39-.23.368-.153.643-.382.823-.688.184-.306.276-.686.276-1.14 0-.46-.092-.846-.276-1.16-.18-.316-.457-.554-.83-.716-.369-.166-.835-.25-1.397-.25h-1.97V41h-2.922Zm7.463-6.288L106.329 41h-3.225l-3.36-6.288h3.151ZM107.901 41V27.182h9.311v2.409h-6.389v3.292h5.91v2.409h-5.91v3.3h6.416V41h-9.338Z"/>
</svg>
