<svg width="187" height="20" viewBox="0 0 187 20" fill="none" xmlns="http://www.w3.org/2000/svg">
<path d="M0 10C0 4.47715 4.47715 0 10 0H21.7143V20H10C4.47715 20 0 15.5228 0 10Z" fill="white"/>
<path d="M46.4286 10C46.4286 4.47715 41.9514 0 36.4286 0H24.7143V20H36.4286C41.9514 20 46.4286 15.5228 46.4286 10Z" fill="white"/>
<mask id="mask0_1_108" style="mask-type:alpha" maskUnits="userSpaceOnUse" x="0" y="0" width="47" height="20">
<path d="M3.05176e-05 10C3.05176e-05 4.47715 4.47718 0 10 0H21.7143V20H10C4.47718 20 3.05176e-05 15.5228 3.05176e-05 10Z" fill="white"/>
<path d="M46.4286 10C46.4286 4.47715 41.9515 0 36.4286 0H24.7143V20H36.4286C41.9515 20 46.4286 15.5228 46.4286 10Z" fill="white"/>
</mask>
<g mask="url(#mask0_1_108)">
<path d="M31.5107 16H34.9149C34.9149 13.6767 34.9149 6.874 34.9149 4H31.5107V16Z" fill="#282828"/>
<path d="M11.0852 16H14.4894C14.4894 14.5422 14.4894 5.36962 14.4894 4H11.0852V16Z" fill="#282828"/>
<path d="M7.00003 6.11764H9.72345V13.8824H7.00003V6.11764Z" fill="#282828"/>
<path d="M15.8511 8.58823H30.1489V11.4118H15.8511V8.58823Z" fill="#282828"/>
<path d="M36.2766 6.11764H39V13.8824H36.2766V6.11764Z" fill="#282828"/>
</g>
<path d="M58.0766 16V6.72H54.8126V4.8H63.4526V6.72H60.1886V16H58.0766ZM64.8909 16V4.8H69.7549C70.4589 4.8 71.0722 4.92267 71.5949 5.168C72.1175 5.41333 72.5229 5.76 72.8109 6.208C73.0989 6.656 73.2429 7.184 73.2429 7.792V7.984C73.2429 8.656 73.0829 9.2 72.7629 9.616C72.4429 10.032 72.0482 10.336 71.5789 10.528V10.816C72.0055 10.8373 72.3362 10.9867 72.5709 11.264C72.8055 11.5307 72.9229 11.888 72.9229 12.336V16H70.8109V12.64C70.8109 12.384 70.7415 12.176 70.6029 12.016C70.4749 11.856 70.2562 11.776 69.9469 11.776H67.0029V16H64.8909ZM67.0029 9.856H69.5309C70.0322 9.856 70.4215 9.72267 70.6989 9.456C70.9869 9.17867 71.1309 8.816 71.1309 8.368V8.208C71.1309 7.76 70.9922 7.40267 70.7149 7.136C70.4375 6.85867 70.0429 6.72 69.5309 6.72H67.0029V9.856ZM79.3202 16.224C78.4029 16.224 77.6136 16.0587 76.9522 15.728C76.3016 15.3867 75.8002 14.9067 75.4482 14.288C75.1069 13.6587 74.9362 12.9173 74.9362 12.064V4.8H77.0482V12.128C77.0482 12.8107 77.2402 13.3493 77.6242 13.744C78.0189 14.1387 78.5842 14.336 79.3202 14.336C80.0562 14.336 80.6162 14.1387 81.0002 13.744C81.3949 13.3493 81.5922 12.8107 81.5922 12.128V4.8H83.7042V12.064C83.7042 12.9173 83.5282 13.6587 83.1762 14.288C82.8349 14.9067 82.3336 15.3867 81.6722 15.728C81.0216 16.0587 80.2376 16.224 79.3202 16.224ZM85.7502 16V4.8H92.9502V6.72H87.8622V9.392H92.5022V11.312H87.8622V14.08H93.0462V16H85.7502ZM98.4976 16.224C97.6336 16.224 96.871 16.0693 96.2096 15.76C95.5483 15.4507 95.031 15.008 94.6576 14.432C94.2843 13.856 94.0976 13.1627 94.0976 12.352V11.904H96.1776V12.352C96.1776 13.024 96.3856 13.5307 96.8016 13.872C97.2176 14.2027 97.783 14.368 98.4976 14.368C99.223 14.368 99.7616 14.224 100.114 13.936C100.476 13.648 100.658 13.28 100.658 12.832C100.658 12.5227 100.567 12.272 100.386 12.08C100.215 11.888 99.959 11.7333 99.6176 11.616C99.287 11.488 98.8816 11.3707 98.4016 11.264L98.0336 11.184C97.2656 11.0133 96.6043 10.8 96.0496 10.544C95.5056 10.2773 95.0843 9.93067 94.7856 9.504C94.4976 9.07733 94.3536 8.52267 94.3536 7.84C94.3536 7.15733 94.5136 6.576 94.8336 6.096C95.1643 5.60533 95.623 5.232 96.2096 4.976C96.807 4.70933 97.5056 4.576 98.3056 4.576C99.1056 4.576 99.815 4.71467 100.434 4.992C101.063 5.25867 101.554 5.664 101.906 6.208C102.268 6.74133 102.45 7.41333 102.45 8.224V8.704H100.37V8.224C100.37 7.79733 100.284 7.456 100.114 7.2C99.9536 6.93333 99.719 6.74133 99.4096 6.624C99.1003 6.496 98.7323 6.432 98.3056 6.432C97.6656 6.432 97.191 6.55467 96.8816 6.8C96.583 7.03467 96.4336 7.36 96.4336 7.776C96.4336 8.05333 96.503 8.288 96.6416 8.48C96.791 8.672 97.0096 8.832 97.2976 8.96C97.5856 9.088 97.9536 9.2 98.4016 9.296L98.7696 9.376C99.5696 9.54667 100.263 9.76533 100.85 10.032C101.447 10.2987 101.911 10.6507 102.242 11.088C102.572 11.5253 102.738 12.0853 102.738 12.768C102.738 13.4507 102.562 14.0533 102.21 14.576C101.868 15.088 101.378 15.4933 100.738 15.792C100.108 16.08 99.3616 16.224 98.4976 16.224ZM104.313 16V4.8H108.921C109.625 4.8 110.243 4.944 110.777 5.232C111.321 5.50933 111.742 5.904 112.041 6.416C112.35 6.928 112.505 7.536 112.505 8.24V8.464C112.505 9.15733 112.345 9.76533 112.025 10.288C111.715 10.8 111.289 11.2 110.745 11.488C110.211 11.7653 109.603 11.904 108.921 11.904H106.425V16H104.313ZM106.425 9.984H108.713C109.214 9.984 109.619 9.84533 109.929 9.568C110.238 9.29067 110.393 8.912 110.393 8.432V8.272C110.393 7.792 110.238 7.41333 109.929 7.136C109.619 6.85867 109.214 6.72 108.713 6.72H106.425V9.984ZM118.321 16.224C116.913 16.224 115.793 15.84 114.961 15.072C114.129 14.2933 113.713 13.184 113.713 11.744V9.056C113.713 7.616 114.129 6.512 114.961 5.744C115.793 4.96533 116.913 4.576 118.321 4.576C119.729 4.576 120.849 4.96533 121.681 5.744C122.513 6.512 122.929 7.616 122.929 9.056V11.744C122.929 13.184 122.513 14.2933 121.681 15.072C120.849 15.84 119.729 16.224 118.321 16.224ZM118.321 14.336C119.11 14.336 119.724 14.1067 120.161 13.648C120.598 13.1893 120.817 12.576 120.817 11.808V8.992C120.817 8.224 120.598 7.61067 120.161 7.152C119.724 6.69333 119.11 6.464 118.321 6.464C117.542 6.464 116.929 6.69333 116.481 7.152C116.044 7.61067 115.825 8.224 115.825 8.992V11.808C115.825 12.576 116.044 13.1893 116.481 13.648C116.929 14.1067 117.542 14.336 118.321 14.336ZM124.781 16V4.8H129.645C130.349 4.8 130.963 4.92267 131.485 5.168C132.008 5.41333 132.413 5.76 132.701 6.208C132.989 6.656 133.133 7.184 133.133 7.792V7.984C133.133 8.656 132.973 9.2 132.653 9.616C132.333 10.032 131.939 10.336 131.469 10.528V10.816C131.896 10.8373 132.227 10.9867 132.461 11.264C132.696 11.5307 132.813 11.888 132.813 12.336V16H130.701V12.64C130.701 12.384 130.632 12.176 130.493 12.016C130.365 11.856 130.147 11.776 129.837 11.776H126.893V16H124.781ZM126.893 9.856H129.421C129.923 9.856 130.312 9.72267 130.589 9.456C130.877 9.17867 131.021 8.816 131.021 8.368V8.208C131.021 7.76 130.883 7.40267 130.605 7.136C130.328 6.85867 129.933 6.72 129.421 6.72H126.893V9.856ZM137.295 16V6.72H134.031V4.8H142.671V6.72H139.407V16H137.295ZM144.11 16V4.8H148.03L149.966 14.56H150.254L152.19 4.8H156.11V16H154.062V6.352H153.774L151.854 16H148.366L146.446 6.352H146.158V16H144.11ZM158.219 16V4.8H165.419V6.72H160.331V9.392H164.971V11.312H160.331V14.08H165.515V16H158.219ZM166.758 16V14.144H168.23V6.656H166.758V4.8H171.366C172.87 4.8 174.012 5.184 174.79 5.952C175.58 6.70933 175.974 7.84 175.974 9.344V11.456C175.974 12.96 175.58 14.096 174.79 14.864C174.012 15.6213 172.87 16 171.366 16H166.758ZM170.342 14.08H171.398C172.252 14.08 172.876 13.856 173.27 13.408C173.665 12.96 173.862 12.3307 173.862 11.52V9.28C173.862 8.45867 173.665 7.82933 173.27 7.392C172.876 6.944 172.252 6.72 171.398 6.72H170.342V14.08ZM181.623 16.224C180.759 16.224 179.996 16.0693 179.335 15.76C178.673 15.4507 178.156 15.008 177.783 14.432C177.409 13.856 177.223 13.1627 177.223 12.352V11.904H179.303V12.352C179.303 13.024 179.511 13.5307 179.927 13.872C180.343 14.2027 180.908 14.368 181.623 14.368C182.348 14.368 182.887 14.224 183.239 13.936C183.601 13.648 183.783 13.28 183.783 12.832C183.783 12.5227 183.692 12.272 183.511 12.08C183.34 11.888 183.084 11.7333 182.743 11.616C182.412 11.488 182.007 11.3707 181.527 11.264L181.159 11.184C180.391 11.0133 179.729 10.8 179.175 10.544C178.631 10.2773 178.209 9.93067 177.911 9.504C177.623 9.07733 177.479 8.52267 177.479 7.84C177.479 7.15733 177.639 6.576 177.959 6.096C178.289 5.60533 178.748 5.232 179.335 4.976C179.932 4.70933 180.631 4.576 181.431 4.576C182.231 4.576 182.94 4.71467 183.559 4.992C184.188 5.25867 184.679 5.664 185.031 6.208C185.393 6.74133 185.575 7.41333 185.575 8.224V8.704H183.495V8.224C183.495 7.79733 183.409 7.456 183.239 7.2C183.079 6.93333 182.844 6.74133 182.535 6.624C182.225 6.496 181.857 6.432 181.431 6.432C180.791 6.432 180.316 6.55467 180.007 6.8C179.708 7.03467 179.559 7.36 179.559 7.776C179.559 8.05333 179.628 8.288 179.767 8.48C179.916 8.672 180.135 8.832 180.423 8.96C180.711 9.088 181.079 9.2 181.527 9.296L181.895 9.376C182.695 9.54667 183.388 9.76533 183.975 10.032C184.572 10.2987 185.036 10.6507 185.367 11.088C185.697 11.5253 185.863 12.0853 185.863 12.768C185.863 13.4507 185.687 14.0533 185.335 14.576C184.993 15.088 184.503 15.4933 183.863 15.792C183.233 16.08 182.487 16.224 181.623 16.224Z" fill="white"/>
</svg>
