<svg xmlns="http://www.w3.org/2000/svg" width="34" height="20" fill="none" viewBox="0 0 34 20">
  <path fill="#FF5F00" d="M21.685 2.43h-8.727v15.14h8.727V2.43Z"/>
  <path fill="#EB001B" d="M13.513 10a9.34 9.34 0 0 1 1-4.208 9.685 9.685 0 0 1 2.809-3.362 10.17 10.17 0 0 0-5.1-2.004 10.285 10.285 0 0 0-5.421.914 9.862 9.862 0 0 0-4.096 3.552A9.386 9.386 0 0 0 1.185 10c0 1.806.527 3.578 1.52 5.109A9.863 9.863 0 0 0 6.8 18.662a10.286 10.286 0 0 0 5.423.913 10.17 10.17 0 0 0 5.099-2.003 9.686 9.686 0 0 1-2.808-3.361A9.34 9.34 0 0 1 13.513 10Z"/>
  <path fill="#F79E1B" d="M33.458 10a9.39 9.39 0 0 1-1.519 5.109 9.86 9.86 0 0 1-4.096 3.552 10.284 10.284 0 0 1-5.422.913 10.17 10.17 0 0 1-5.1-2.003 9.703 9.703 0 0 0 2.807-3.362 9.36 9.36 0 0 0 1.003-4.21 9.36 9.36 0 0 0-1.002-4.207 9.703 9.703 0 0 0-2.807-3.363A10.17 10.17 0 0 1 22.42.425a10.286 10.286 0 0 1 5.423.914A9.863 9.863 0 0 1 31.94 4.89 9.386 9.386 0 0 1 33.458 10Zm-.951 5.97v-.311h.129v-.063h-.33v.063h.13v.31h.07Zm.64 0v-.375h-.101l-.117.258-.117-.258h-.1v.375h.071v-.282l.11.243h.074l.109-.244v.283h.07Z"/>
</svg>
