<svg width="45" height="30" viewBox="0 0 45 30" fill="none" xmlns="http://www.w3.org/2000/svg">
<rect x="0.5" y="0.5" width="44" height="29" rx="4.5" stroke="black" stroke-opacity="0.05"/>
<path fill-rule="evenodd" clip-rule="evenodd" d="M33 15C33 20.5265 28.5221 25 22.9978 25C17.4757 25 13 20.5265 13 15C13 9.47351 17.4757 5 22.9978 5C28.5221 5 33 9.47351 33 15ZM26.2666 11.419C26.6601 11.6762 26.9459 11.9883 27.1152 12.3577C27.2845 12.7292 27.3306 13.1161 27.2515 13.4898C27.2009 13.7734 27.0866 14.035 26.9173 14.268C26.7503 14.5032 26.5326 14.6966 26.2644 14.8505C25.9985 15.0066 25.6665 15.1099 25.2664 15.1693C25.6489 15.3451 25.9391 15.5166 26.1282 15.6793C26.4051 15.9123 26.6052 16.2003 26.7305 16.5476C26.8536 16.8861 26.88 17.251 26.8074 17.6379C26.7239 18.0974 26.5063 18.4931 26.1589 18.8228C25.8094 19.1592 25.3654 19.3812 24.8224 19.4889C24.6223 19.5219 24.3959 19.5439 24.1431 19.5483L23.8529 21.0849L22.3933 20.8145L22.6571 19.3944C22.6197 19.3856 22.5867 19.3834 22.5493 19.3746L21.7184 19.2207L21.4546 20.6408L19.9927 20.366L20.2565 18.9459L18.0275 18.5326L18.2495 17.3434L18.5924 17.4005C18.8189 17.4489 18.9749 17.4577 19.0629 17.4335C19.1508 17.4093 19.2167 17.361 19.2651 17.2972C19.3135 17.2335 19.3574 17.073 19.4036 16.8224L20.3049 12.0125C20.3533 11.7531 20.3665 11.5883 20.3467 11.5113C20.3269 11.4344 20.2829 11.3662 20.2082 11.3135C20.1378 11.2563 19.9883 11.2058 19.7597 11.1662L19.419 11.1024L19.641 9.90877L21.8723 10.3264L22.1405 8.90415L23.6023 9.17894L23.3341 10.599L24.2728 10.7749L24.541 9.3548L26.0007 9.62959L25.7171 11.1486C25.9259 11.2299 26.1172 11.3179 26.2666 11.419Z" fill="#EC9021"/>
<path d="M24.6157 12.3862C24.4179 12.2763 24.0398 12.1708 23.4858 12.0675L22.5406 11.8894L22.1449 13.9932L23.0923 14.1712C23.5869 14.2614 23.9606 14.29 24.2135 14.2504C24.4663 14.2086 24.6641 14.1185 24.818 13.9756C24.9653 13.8371 25.0642 13.6503 25.1038 13.4304C25.1477 13.2018 25.1257 13.0018 25.0422 12.8171C24.9631 12.639 24.8224 12.4918 24.6157 12.3862Z" fill="#EC9021"/>
<path d="M24.5564 16.3146C24.6421 16.5168 24.6575 16.7388 24.6135 17.0004C24.5564 17.3038 24.4245 17.5412 24.2156 17.7259C24.0046 17.9039 23.776 18.0116 23.5232 18.0358C23.2682 18.06 22.9582 18.0358 22.5933 17.9699L21.9624 17.8468C21.7536 17.805 21.6283 17.7742 21.5821 17.7413C21.5381 17.7105 21.514 17.6665 21.503 17.605C21.4986 17.5588 21.5162 17.3961 21.5601 17.1345L21.9096 15.266L23.0286 15.4726C23.5188 15.5672 23.8749 15.6815 24.0947 15.8134C24.3168 15.9453 24.4685 16.1167 24.5564 16.3146Z" fill="#EC9021"/>
</svg>
