<svg width="45" height="30" viewBox="0 0 45 30" fill="none" xmlns="http://www.w3.org/2000/svg">
<rect x="0.5" y="0.5" width="44" height="29" rx="4.5" stroke="black" stroke-opacity="0.05"/>
<g clip-path="url(#clip0_8640_3235)">
<path d="M25.7637 9.82202H19.2188V21.1779H25.7637V9.82202Z" fill="#FF5F00"/>
<path d="M19.6348 15.5006C19.6343 14.4042 19.8912 13.323 20.3848 12.3439C20.8852 11.3535 21.6058 10.4909 22.4915 9.82227C21.3782 8.98107 20.0555 8.46139 18.6673 8.31977C17.2747 8.17483 15.8689 8.41162 14.6006 9.00477C13.348 9.58844 12.2839 10.5114 11.529 11.6689C10.7867 12.8092 10.3907 14.1401 10.389 15.5006C10.389 16.8556 10.784 18.1839 11.529 19.3323C12.2837 20.4897 13.3475 21.4126 14.5998 21.9964C15.8683 22.5897 17.2744 22.8265 18.6673 22.6814C20.0555 22.5398 21.3782 22.0201 22.4915 21.1789C21.6063 20.5105 20.8859 19.6481 20.3856 18.6581C19.8916 17.6789 19.6344 16.5974 19.6348 15.5006Z" fill="#EB001B"/>
<path d="M34.5935 15.4999C34.5935 16.8549 34.1985 18.1833 33.4544 19.3316C32.6995 20.4892 31.6354 21.4121 30.3827 21.9958C29.1144 22.589 27.7086 22.8258 26.316 22.6808C24.9276 22.5393 23.6046 22.0196 22.491 21.1783C23.3757 20.5092 24.0957 19.6466 24.596 18.6566C25.09 17.6776 25.3477 16.5965 25.3485 15.4999C25.3478 14.4037 25.0904 13.3229 24.5969 12.3441C24.0967 11.3538 23.3767 10.491 22.4919 9.82161C23.6049 8.98055 24.9273 8.46087 26.3152 8.31911C27.7081 8.17401 29.1142 8.41081 30.3827 9.00411C31.6354 9.58778 32.6995 10.5107 33.4544 11.6683C34.1964 12.8086 34.5921 14.1395 34.5935 15.4999V15.4999ZM33.8802 19.9774V19.7441H33.9769V19.6974H33.7302V19.7441H33.8269V19.9774H33.8802ZM34.3602 19.9774V19.6966H34.2844L34.1969 19.8899L34.1094 19.6966H34.0344V19.9774H34.0877V19.7658L34.1694 19.9483H34.2252L34.3069 19.7649V19.9774H34.3602V19.9774Z" fill="#F79E1B"/>
</g>
<defs>
<clipPath id="clip0_8640_3235">
<rect width="25" height="15" fill="white" transform="translate(10 8)"/>
</clipPath>
</defs>
</svg>
