<svg width="45" height="30" viewBox="0 0 45 30" fill="none" xmlns="http://www.w3.org/2000/svg">
<rect x="0.5" y="0.5" width="44" height="29" rx="4.5" stroke="black" stroke-opacity="0.05"/>
<path fill-rule="evenodd" clip-rule="evenodd" d="M23.5823 10.7617L21.4468 11.2303V9.45997L23.5823 9V10.7617ZM28.0235 11.7423C27.1897 11.7423 26.6537 12.1416 26.3559 12.4192L26.2453 11.8812H24.3735V22L26.5006 21.5401L26.5091 19.0841C26.8154 19.3098 27.2663 19.6308 28.015 19.6308C29.5379 19.6308 30.9247 18.3812 30.9247 15.6302C30.9162 13.1135 29.5124 11.7423 28.0235 11.7423ZM27.513 17.7216C27.011 17.7216 26.7132 17.5394 26.5091 17.3137L26.5006 14.0942C26.7218 13.8425 27.0281 13.6689 27.513 13.6689C28.2872 13.6689 28.8233 14.5541 28.8233 15.6909C28.8233 16.8538 28.2957 17.7216 27.513 17.7216ZM37.6291 15.717C37.6291 13.4954 36.5741 11.7423 34.5577 11.7423C32.5328 11.7423 31.3076 13.4954 31.3076 15.6996C31.3076 18.3118 32.754 19.6308 34.8299 19.6308C35.8425 19.6308 36.6082 19.3965 37.1867 19.0668V17.3311C36.6082 17.6262 35.9445 17.8084 35.1022 17.8084C34.2769 17.8084 33.5453 17.5134 33.4516 16.4894H37.6121C37.6121 16.4415 37.6152 16.3328 37.6187 16.2076C37.6235 16.0376 37.6291 15.837 37.6291 15.717ZM33.4261 14.8925C33.4261 13.9119 34.0132 13.504 34.5492 13.504C35.0682 13.504 35.6212 13.9119 35.6212 14.8925H33.4261ZM21.4468 11.8899H23.5823V19.4834H21.4468V11.8899ZM19.0219 11.8899L19.1581 12.5321C19.66 11.5948 20.6555 11.7857 20.9278 11.8899V13.8859C20.664 13.7904 19.8132 13.6689 19.3112 14.3371V19.4834H17.1842V11.8899H19.0219ZM14.904 10.0067L12.828 10.4579L12.8195 17.4092C12.8195 18.6936 13.7639 19.6396 15.0231 19.6396C15.7208 19.6396 16.2313 19.5094 16.512 19.3532V17.5915C16.2398 17.7043 14.8955 18.1035 14.8955 16.8191V13.7383H16.512V11.8899H14.8955L14.904 10.0067ZM9.87577 13.6255C9.42483 13.6255 9.15254 13.7557 9.15254 14.0942C9.15254 14.4637 9.62109 14.6262 10.2024 14.8279C11.1501 15.1567 12.3974 15.5894 12.4027 17.1923C12.4027 18.7457 11.186 19.6396 9.41633 19.6396C8.6846 19.6396 7.88488 19.492 7.09359 19.1449V17.0794C7.8083 17.4787 8.7101 17.7737 9.41633 17.7737C9.89277 17.7737 10.2331 17.6435 10.2331 17.2444C10.2331 16.835 9.72515 16.6479 9.11196 16.4221C8.17807 16.078 7 15.6441 7 14.1983C7 12.6622 8.14859 11.7423 9.87577 11.7423C10.5819 11.7423 11.2796 11.8552 11.9857 12.1416V14.1809C11.3392 13.8251 10.5224 13.6255 9.87577 13.6255Z" fill="#6772E5"/>
</svg>
