<svg width="46" height="30" viewBox="0 0 46 30" fill="none" xmlns="http://www.w3.org/2000/svg">
<path fill-rule="evenodd" clip-rule="evenodd" d="M13.7559 15.6466C13.7559 11.1141 17.4301 7.43994 21.9623 7.43994C26.4948 7.43994 30.1691 11.1141 30.1691 15.6466C30.1691 20.179 26.4948 23.8535 21.9623 23.8535C17.4301 23.8535 13.7559 20.179 13.7559 15.6466Z" fill="#141519"/>
<path fill-rule="evenodd" clip-rule="evenodd" d="M26.9255 15.4852C26.9222 13.3837 25.6086 11.5913 23.7575 10.8815V20.0887C25.6086 19.378 26.9222 17.5872 26.9255 15.4852ZM20.2263 20.0869V10.8824C18.3769 11.5945 17.0653 13.3843 17.0604 15.4852C17.0653 17.5858 18.3769 19.3754 20.2263 20.0869ZM21.9929 7.70304C17.695 7.70469 14.2129 11.1874 14.2122 15.4852C14.2129 19.7826 17.695 23.2648 21.9929 23.2655C26.2907 23.2648 29.7735 19.7826 29.7745 15.4852C29.7735 11.1874 26.2907 7.70469 21.9929 7.70304ZM21.9738 23.9999C17.2708 24.0224 13.3999 20.2121 13.3999 15.5741C13.3999 10.5051 17.2708 6.99908 21.9738 7H24.1777C28.8252 6.99908 33.0668 10.5035 33.0668 15.5741C33.0668 20.2105 28.8252 23.9999 24.1777 23.9999H21.9738Z" fill="#7C7C7C"/>
</svg>
