<svg width="45" height="30" viewBox="0 0 45 30" fill="none" xmlns="http://www.w3.org/2000/svg">
<path d="M29.0659 16.9286H30.7967C30.8461 16.9286 30.9615 16.9121 31.011 16.9121C31.3406 16.8462 31.6209 16.5495 31.6209 16.1374C31.6209 15.7418 31.3406 15.4451 31.011 15.3626C30.9615 15.3462 30.8626 15.3462 30.7967 15.3462H29.0659V16.9286Z" fill="#7C7C7C"/>
<path d="M30.599 6C28.9507 6 27.599 7.33516 27.599 9V12.1154H31.8353C31.9342 12.1154 32.0496 12.1154 32.132 12.1319C33.088 12.1813 33.7968 12.6758 33.7968 13.533C33.7968 14.2088 33.3188 14.7857 32.4287 14.9011V14.9341C33.4012 15 34.143 15.544 34.143 16.3846C34.143 17.2912 33.3188 17.8846 32.2309 17.8846H27.5825V23.9835H31.9836C33.632 23.9835 34.9836 22.6484 34.9836 20.9835V6H30.599Z" fill="#7C7C7C"/>
<path d="M31.4066 13.7308C31.4066 13.3352 31.1264 13.0714 30.7967 13.022C30.7637 13.022 30.6813 13.0055 30.6319 13.0055H29.0659V14.456H30.6319C30.6813 14.456 30.7802 14.456 30.7967 14.4396C31.1264 14.3901 31.4066 14.1264 31.4066 13.7308Z" fill="#7C7C7C"/>
<path d="M14.0165 6C12.3681 6 11.0165 7.33516 11.0165 9V16.4011C11.8571 16.8132 12.7308 17.0769 13.6044 17.0769C14.6429 17.0769 15.2033 16.4506 15.2033 15.5934V12.0989H17.7747V15.5769C17.7747 16.9286 16.9341 18.033 14.0824 18.033C12.3516 18.033 11 17.6538 11 17.6538V23.967H15.4011C17.0495 23.967 18.4011 22.6319 18.4011 20.967V6H14.0165Z" fill="#7C7C7C"/>
<path d="M22.3076 6C20.6593 6 19.3076 7.33516 19.3076 9V12.9231C20.0659 12.2802 21.3845 11.8681 23.5109 11.967C24.6483 12.0165 25.8681 12.3297 25.8681 12.3297V13.5989C25.2582 13.2857 24.5329 13.0055 23.5933 12.9396C21.9779 12.8242 21.0054 13.6154 21.0054 15C21.0054 16.4011 21.9779 17.1923 23.5933 17.0604C24.5329 16.9945 25.2582 16.6978 25.8681 16.4011V17.6703C25.8681 17.6703 24.6648 17.9835 23.5109 18.033C21.3845 18.1319 20.0659 17.7198 19.3076 17.0769V24H23.7087C25.3571 24 26.7087 22.6648 26.7087 21V6H22.3076Z" fill="#7C7C7C"/>
</svg>
