<svg width="45" height="30" viewBox="0 0 45 30" fill="none" xmlns="http://www.w3.org/2000/svg">
<g clip-path="url(#clip0_1_250)">
<path d="M19.0118 10.5359L17.4877 19.483H19.9259L21.4518 10.5359H19.0124H19.0118ZM15.443 10.5459L13.0547 16.6477L12.8 15.7265C12.3294 14.6165 10.9918 13.0218 9.42236 12.0171L11.6059 19.4789L14.1859 19.4742L18.0265 10.5442L15.443 10.5459Z" fill="#7C7C7C"/>
<path d="M11.8741 11.1867C11.7329 10.6414 11.3218 10.4791 10.8118 10.4597H7.03118L7 10.6379C9.94176 11.3514 11.8882 13.0714 12.6965 15.1391L11.8741 11.1867ZM26.3941 12.2514C27.0195 12.2375 27.641 12.3541 28.2188 12.5938L28.4388 12.6973L28.7688 10.7585C28.2865 10.5767 27.5294 10.382 26.5847 10.382C24.1753 10.382 22.4765 11.5961 22.4635 13.335C22.4476 14.6203 23.6735 15.3379 24.5988 15.7661C25.5494 16.205 25.8676 16.4838 25.8635 16.8761C25.8559 17.475 25.1059 17.7497 24.4047 17.7497C23.4282 17.7497 22.91 17.615 22.1094 17.2814L21.7947 17.1385L21.4518 19.1408C22.0224 19.3914 23.0753 19.6061 24.1688 19.6173C26.7318 19.6173 28.3982 18.4185 28.4153 16.5603C28.4259 15.5438 27.7759 14.7679 26.3665 14.1308C25.5135 13.7161 24.9918 13.4403 24.9965 13.0208C24.9965 12.6491 25.4394 12.2514 26.3941 12.2514ZM35.0271 10.5461H33.1429C32.5576 10.5461 32.1224 10.7055 31.8653 11.2891L28.2447 19.4885H30.8053C30.8053 19.4885 31.2229 18.3861 31.3176 18.1444L34.4406 18.1479C34.5129 18.4603 34.7376 19.4885 34.7376 19.4885H37L35.0271 10.5461ZM32.0194 16.3132C32.22 15.7997 32.9912 13.8126 32.9912 13.8126C32.9776 13.8373 33.19 13.295 33.3159 12.9585L33.4806 13.7297L34.0453 16.3132H32.0194Z" fill="#7C7C7C"/>
</g>
<defs>
<clipPath id="clip0_1_250">
<rect width="30" height="10" fill="white" transform="translate(7 10)"/>
</clipPath>
</defs>
</svg>
