<svg xmlns="http://www.w3.org/2000/svg" width="90" height="31" fill="none" viewBox="0 0 90 31">
  <path fill="#C41230" d="M8.564 14.845V8.791a3.503 3.503 0 0 1 3.505-3.505 3.503 3.503 0 0 1 3.504 3.505v6.04h3.382v-6.04c0-3.791-3.082-6.873-6.886-6.873a6.879 6.879 0 0 0-6.873 6.873v6.04h3.368v.014Z"/>
  <path fill="#C41230" d="M11.087 8.655c.545-.464 1.431-.464 1.977 0 .545.463 1.54.681 2.236.477.682-.205 1.5.15 1.8.804.314.655 1.132 1.255 1.855 1.337.709.095 1.309.75 1.323 1.473.013.722.531 1.609 1.145 1.977.614.368.886 1.213.614 1.882-.273.654-.164 1.677.231 2.277.41.586.314 1.473-.204 1.963-.518.491-.846 1.473-.71 2.169.137.709-.313 1.472-.981 1.704-.682.232-1.364.996-1.527 1.691-.164.696-.887 1.214-1.596 1.16-.709-.055-1.65.354-2.086.927-.437.572-1.296.75-1.923.409s-1.65-.341-2.29 0c-.628.34-1.5.163-1.937-.41-.437-.572-1.377-.981-2.087-.927-.709.055-1.431-.463-1.595-1.159-.164-.695-.845-1.459-1.527-1.69-.682-.233-1.118-1.01-.982-1.705.136-.71-.177-1.678-.71-2.168-.517-.491-.613-1.378-.204-1.964.41-.587.518-1.61.232-2.277-.273-.655 0-1.5.614-1.882.613-.368 1.132-1.268 1.145-1.978.014-.709.614-1.377 1.323-1.472.709-.096 1.54-.696 1.854-1.337.3-.654 1.119-1.009 1.8-.804.669.204 1.664-.014 2.21-.477Z"/>
  <path fill="#fff" d="M12.068 11.873A6.82 6.82 0 0 0 5.25 18.69a6.82 6.82 0 0 0 6.818 6.818 6.82 6.82 0 0 0 6.818-6.818 6.82 6.82 0 0 0-6.818-6.818Z"/>
  <path fill="#C41230" d="M12.532 14.218c-.436 0-.845.041-1.213.096-2.196.327-3.382 1.527-3.655 3.559l-.191 1.54c-.123 1.064.068 1.855.573 2.428.6.668 1.622 1.214 3.136 1.214h2.66c1.54 0 1.731-1.61 1.731-1.61h-3.532c-.477 0-.94-.04-1.268-.163-.436-.164-.71-.45-.805-.968-.04-.205-.027-.655.014-.955l.177-1.35c.055-.34.164-.723.205-.859.136-.327.34-.654.682-.9.204-.136.668-.423 1.868-.423h1.95c1.364 0 1.609-1.609 1.609-1.609h-3.94Z"/>
  <path fill="#231F20" d="M31.364 24.405c0 .286-.069.545-.219.763a1.48 1.48 0 0 1-.627.518c-.273.123-.6.191-.968.191-.314 0-.56-.013-.777-.068a2.915 2.915 0 0 1-.655-.232v-1.104c.232.123.491.218.737.286.259.068.49.096.709.096.19 0 .327-.028.409-.096a.31.31 0 0 0 .122-.245c0-.069-.013-.123-.054-.164-.041-.055-.096-.095-.164-.15-.082-.055-.286-.15-.613-.3a3.219 3.219 0 0 1-.682-.395 1.31 1.31 0 0 1-.341-.437 1.55 1.55 0 0 1-.11-.586c0-.423.15-.764.464-.996.314-.231.737-.354 1.282-.354.478 0 .968.109 1.46.327l-.383.968c-.436-.204-.804-.3-1.118-.3-.163 0-.272.028-.354.082a.265.265 0 0 0-.11.218c0 .096.042.178.137.246.096.068.355.204.764.395.395.177.668.368.832.573.177.19.259.45.259.764Zm3.736 0c0 .286-.068.545-.218.763a1.48 1.48 0 0 1-.627.518c-.273.123-.6.191-.969.191-.3 0-.559-.013-.777-.068a2.915 2.915 0 0 1-.654-.232v-1.104c.231.123.49.218.736.286.259.068.49.096.709.096.19 0 .327-.028.409-.096.082-.068.136-.15.136-.245 0-.069-.013-.123-.054-.164-.041-.055-.096-.095-.164-.15-.082-.055-.286-.15-.613-.3a3.219 3.219 0 0 1-.682-.395 1.12 1.12 0 0 1-.328-.437 1.55 1.55 0 0 1-.109-.586c0-.423.15-.764.464-.996.314-.231.736-.354 1.282-.354.477 0 .968.109 1.459.327l-.382.968c-.436-.204-.804-.3-1.118-.3-.164 0-.286.028-.355.082a.265.265 0 0 0-.109.218c0 .096.041.178.137.246.095.068.34.204.763.395.396.177.682.368.832.573.15.19.232.45.232.764Zm.71 1.405v-4.624h1.24V24.8h1.773v1.01h-3.014Zm5.89-4.392c-.573 0-1.037.191-1.364.56-.327.367-.504.872-.504 1.527 0 .654.163 1.172.463 1.54.314.369.764.546 1.35.546.382 0 .75-.055 1.064-.15v.286c-.3.11-.682.164-1.146.164-.654 0-1.159-.205-1.527-.627-.368-.423-.559-1.01-.559-1.76 0-.463.096-.886.273-1.24a1.96 1.96 0 0 1 .763-.832c.328-.191.723-.287 1.16-.287.45 0 .859.082 1.213.26l-.123.286a2.132 2.132 0 0 0-1.063-.273Zm4.568 4.392h-2.522v-4.624h2.522v.3h-2.195v1.746h2.073v.3h-2.073v1.977h2.195v.3Zm1.364-2.02v2.006h-.314v-4.623h1.105c.573 0 .995.109 1.268.313.273.218.41.532.41.955 0 .314-.083.573-.246.777-.164.218-.41.368-.75.464l1.254 2.1h-.382l-1.186-2.005h-1.159v.014Zm0-.272h.886c.396 0 .696-.082.9-.259.218-.177.328-.436.328-.764 0-.354-.11-.613-.314-.763-.205-.164-.56-.246-1.036-.246h-.764v2.032Zm4.731 2.292h-.327V21.5h-1.5v-.3h3.327v.3h-1.5v4.31Zm2.182 0v-4.624h.328v4.623h-.328Zm1.95 0h-.313v-4.624h2.536v.3h-2.21v1.964h2.087v.3H56.51v2.06h-.014Zm2.932 0v-4.624h.328v4.623h-.328Zm3.601-4.392c-.573 0-1.037.191-1.364.56-.328.367-.505.872-.505 1.527 0 .654.164 1.172.477 1.54.314.369.764.546 1.35.546.382 0 .75-.055 1.064-.15v.286c-.3.11-.682.164-1.145.164-.655 0-1.16-.205-1.528-.627-.368-.423-.559-1.01-.559-1.76 0-.463.096-.886.273-1.24.177-.355.437-.641.764-.832.327-.191.723-.287 1.159-.287.45 0 .859.082 1.213.26l-.136.286a2.132 2.132 0 0 0-1.063-.273Zm4.267 2.755h-1.882l-.64 1.622h-.355l1.854-4.636h.205l1.814 4.636h-.368l-.628-1.622Zm-1.759-.287h1.65l-.627-1.663c-.055-.137-.11-.314-.191-.546a4.232 4.232 0 0 1-.19.546l-.642 1.663Zm4.624 1.924h-.328V21.5h-1.5v-.3h3.327v.3h-1.5v4.31Zm4.704 0H72.34v-4.624h2.523v.3h-2.21v1.746h2.087v.3h-2.087v1.977h2.21v.3Z"/>
  <path fill="#C41230" d="M73.323 11.177H69.75v.246c.014.531.19 1.2 1.09 1.2h2.387c1.391 0 2.141.463 1.923 2.018l-.164 1.24c-.204 1.61-1.363 1.855-2.386 1.855h-1.35l.382-3.095c.054-.45-.164-1.173-1.01-1.173H69.45l-.314 2.55-.3 2.25c-.082.6.355.941 1.296.941h2.754c2.796 0 3.56-1.009 3.941-1.65.205-.368.355-.805.437-1.323.013-.095.204-1.704.204-1.704.123-.968-.068-1.705-.545-2.25-.641-.723-1.814-1.105-3.6-1.105ZM40.868 11h-.395c-2.81.027-4.282 1.2-4.596 3.436l-.19 1.446c-.123.995.054 1.745.545 2.29.6.669 1.65 1.16 3.232 1.174h.395c2.755-.028 4.214-1.16 4.568-3.246l.028-.15.19-1.445c.123-1.037-.054-1.814-.559-2.373-.6-.668-1.65-1.118-3.218-1.132Zm1.46 3.505-.178 1.322c-.082.587-.232 1.037-.49 1.377-.355.45-.887.723-1.623.723h-.423c-.737 0-1.268-.259-1.5-.681-.15-.314-.191-.764-.11-1.364l.178-1.323c.095-.709.327-1.227.695-1.595.369-.355.873-.519 1.5-.519h.41c.422 0 .995.069 1.309.491.245.355.327.86.231 1.569Zm45.449-2.373c-.6-.668-1.65-1.118-3.218-1.132h-.395c-2.81.027-4.282 1.2-4.596 3.436l-.19 1.446c-.123.995.054 1.745.545 2.29.6.669 1.65 1.16 3.232 1.174h.395c2.755-.028 4.214-1.16 4.568-3.246l.028-.15.19-1.445c.11-1.037-.068-1.814-.559-2.373Zm-1.759 2.373-.177 1.322c-.082.587-.232 1.037-.49 1.377-.355.45-.887.723-1.624.723h-.436c-.736 0-1.268-.259-1.5-.681-.15-.314-.19-.764-.11-1.364l.178-1.323c.096-.709.328-1.227.696-1.595.354-.355.872-.519 1.5-.519h.409c.422 0 .995.069 1.309.491.259.355.34.86.245 1.569ZM63.518 11h-.395c-2.81.027-4.282 1.2-4.596 3.436l-.19 1.446c-.123.995.054 1.745.545 2.29.6.669 1.65 1.16 3.232 1.174h.395c2.755-.028 4.214-1.16 4.568-3.246l.028-.15.19-1.445c.123-1.037-.054-1.814-.559-2.373-.6-.668-1.636-1.118-3.218-1.132Zm1.473 3.505-.177 1.322c-.082.587-.232 1.037-.491 1.377-.355.45-.887.723-1.623.723h-.423c-.736 0-1.268-.259-1.5-.681-.15-.314-.19-.764-.109-1.364l.178-1.323c.095-.709.313-1.227.695-1.595.368-.355.873-.519 1.5-.519h.409c.423 0 .995.069 1.31.491.244.355.326.86.23 1.569Zm-10.364-2.878-3.095 3.505-2.168-3.477c-.205-.328-.628-.478-1.255-.478h-.982l-.982 8.018h1.2c.396 0 .682-.163.846-.313.26-.218.423-.532.464-.86l.436-3.517 1.595 3.04c.069.11.26.369.519.369h.027c.273 0 .504-.26.573-.341l2.427-3.068-.587 4.677h1.16c.395 0 .681-.164.845-.314.245-.218.423-.532.464-.859l.845-6.845h-1.023c-.6.013-1.05.163-1.309.463Zm-23.127-.45c-.395 0-.764.028-1.105.082-2.004.3-3.068 1.391-3.327 3.232l-.177 1.405c-.11.968.055 1.69.518 2.209.546.6 1.473 1.104 2.85 1.104h2.427c1.405 0 1.569-1.473 1.569-1.473H31.05c-.436 0-.86-.04-1.16-.15-.408-.15-.64-.409-.736-.886-.027-.19-.027-.6.014-.859l.164-1.227a5.89 5.89 0 0 1 .19-.778c.123-.286.314-.6.628-.818.177-.136.614-.395 1.705-.395h1.786c1.24 0 1.473-1.46 1.473-1.46H31.5v.014Z"/>
</svg>
