<svg width="45" height="29" viewBox="0 0 45 29" fill="none" xmlns="http://www.w3.org/2000/svg">
<g clip-path="url(#clip0_107_8796)">
<path fill-rule="evenodd" clip-rule="evenodd" d="M4.36208 12.5083H9.75692V10.4229H2.33118V17.8471H4.30085V12.5386L4.36208 12.5083Z" fill="#231F20"/>
<path fill-rule="evenodd" clip-rule="evenodd" d="M2.3511 2.39233H17.8923L17.9233 2.37979C21.2799 2.41151 23.9872 5.16905 23.9872 8.56692C23.9872 11.9707 21.2681 14.7282 17.9049 14.754H17.854L14.0496 14.7474V6.92921H16.1949V12.6169L16.3719 12.6103H17.9351C20.1062 12.566 21.8538 10.7741 21.8538 8.56692C21.8538 6.34643 20.087 4.54864 17.8975 4.52282H4.41446V6.92921H10.1435L10.1501 9.09806H2.33118L2.3511 2.39233ZM33.8872 -0.0952148L43.6294 15.9912L45.0236 13.7345L36.3881 -0.0952148H33.8872ZM23.9872 17.848L33.8223 1.76085L41.9297 14.9377H30.7549V12.8818H38.0118L33.8223 6.02478L26.9521 17.848H23.9872Z" fill="#231F20"/>
<path fill-rule="evenodd" clip-rule="evenodd" d="M43.7865 15.9914H31.4115V17.8482L42.57 17.8423L42.5892 17.7973L43.7858 15.9914H43.7865ZM11.3836 15.7133L11.3902 7.24814H13.5384V15.7317H18.2848C22.0884 15.7067 25.1661 12.6334 25.1661 8.84822C25.1661 5.06896 22.095 1.99568 18.2973 1.9647H1.93062V17.8475H-0.142334V-0.0942383H18.3217C22.6955 -0.0566153 26.3228 2.97314 27.1063 7.09838L31.4735 -0.0189926H33.8873L26.4047 12.4755L25.6781 13.6972C24.0669 16.0467 21.3935 17.7973 18.3224 17.8283H11.3828L11.3836 15.7133Z" fill="#231F20"/>
<path d="M1.71079 26.9211C1.38342 26.9269 1.0587 26.8615 0.759146 26.7293C0.487465 26.6046 0.257653 26.404 0.0974256 26.1517C-0.0626564 25.895 -0.143066 25.5755 -0.143066 25.1927C-0.143066 24.871 -0.0855252 24.601 0.0280814 24.3819C0.13611 24.1696 0.295959 23.9879 0.492835 23.8537C0.689802 23.7209 0.91259 23.6199 1.16193 23.552C1.41349 23.4841 1.67833 23.4362 1.95423 23.4089C2.27882 23.3735 2.5407 23.341 2.73915 23.3108C2.93833 23.2776 3.08218 23.2296 3.17144 23.1669C3.21567 23.1357 3.2512 23.0937 3.2747 23.0449C3.29819 22.9961 3.30886 22.9421 3.3057 22.8881V22.8659C3.3057 22.6262 3.23341 22.4418 3.08808 22.3105C2.94497 22.1799 2.74136 22.115 2.47726 22.115C2.19841 22.115 1.9771 22.1791 1.81259 22.3068C1.65328 22.4243 1.53795 22.5918 1.48505 22.7826L0.053901 22.6616C0.126196 22.3097 0.269311 22.005 0.48177 21.7483C0.702669 21.4836 0.986518 21.2787 1.30726 21.1523C1.64661 21.0121 2.03907 20.9413 2.48464 20.9413C2.79447 20.9413 3.09177 20.9789 3.37505 21.0549C3.66054 21.1301 3.91357 21.2467 4.13488 21.4053C4.35767 21.5639 4.53325 21.7675 4.66161 22.0169C4.78997 22.2632 4.85341 22.5583 4.85341 22.9028V26.8119H3.38538V26.0078H3.34259C3.25331 26.1886 3.13124 26.3512 2.98259 26.4873C2.82426 26.6277 2.64044 26.7364 2.44111 26.8075C2.20599 26.887 1.95894 26.9254 1.71079 26.9211ZM2.15341 25.8116C2.3821 25.8116 2.58275 25.7651 2.75759 25.6722C2.92572 25.5823 3.06719 25.4498 3.16775 25.2878C3.26734 25.1263 3.31677 24.9441 3.31677 24.7405V24.1252C3.25476 24.1643 3.18776 24.1948 3.11759 24.2159C3.02516 24.2436 2.93164 24.2675 2.83726 24.2875C2.73325 24.3082 2.62923 24.3266 2.52448 24.3443L2.2412 24.3856C2.07739 24.4085 1.91736 24.4532 1.76538 24.5184C1.64 24.5705 1.53077 24.655 1.4489 24.7633C1.37083 24.8731 1.33115 25.0056 1.33603 25.1403C1.33603 25.3594 1.41275 25.5261 1.56472 25.6419C1.71964 25.7555 1.91587 25.8116 2.15341 25.8116ZM5.79915 28.9845V21.0173H7.3262V21.9903H7.3948C7.47166 21.8195 7.57063 21.6595 7.68915 21.5145C7.82833 21.3445 8.00177 21.2057 8.19816 21.1073C8.40841 20.9966 8.67029 20.9413 8.98234 20.9413C9.38956 20.9413 9.76505 21.0519 10.1096 21.2732C10.4533 21.4923 10.7285 21.8228 10.9343 22.2655C11.1401 22.7059 11.2434 23.2577 11.2434 23.9216C11.2434 24.5678 11.1423 25.1137 10.941 25.5593C10.7425 26.0019 10.4718 26.3376 10.1273 26.5663C9.7857 26.7928 9.40284 26.9056 8.97939 26.9056C8.67841 26.9056 8.42316 26.854 8.21218 26.7507C8.01692 26.6575 7.84271 26.5255 7.70021 26.3627C7.57587 26.2184 7.47301 26.0569 7.3948 25.8832H7.34759V28.9845H5.79915ZM7.31439 23.9142C7.31439 24.2587 7.36087 24.559 7.45308 24.8157C7.54456 25.0724 7.67808 25.2731 7.85218 25.4155C8.02702 25.5564 8.23874 25.6272 8.48882 25.6272C8.74038 25.6272 8.95357 25.5556 9.12841 25.4118C9.30251 25.2657 9.43456 25.065 9.52382 24.8083C9.62071 24.5204 9.66762 24.218 9.66251 23.9142C9.66251 23.58 9.61751 23.2857 9.52825 23.0312C9.43825 22.7774 9.3062 22.579 9.1321 22.4351C8.94994 22.2895 8.72193 22.2134 8.48882 22.2205C8.23652 22.2205 8.02333 22.2891 7.84923 22.4278C7.67661 22.5664 7.54456 22.7619 7.45308 23.0164C7.36087 23.2702 7.31439 23.5697 7.31439 23.9142ZM12.0195 28.9845V21.0173H13.5458V21.9903H13.6144C13.6915 21.8194 13.7907 21.6595 13.9095 21.5145C14.0487 21.3445 14.2221 21.2057 14.4185 21.1073C14.6287 20.9966 14.8906 20.9413 15.2027 20.9413C15.6099 20.9413 15.9846 21.0519 16.3291 21.2732C16.6737 21.4923 16.9488 21.8228 17.1546 22.2655C17.3605 22.7059 17.463 23.2577 17.463 23.9216C17.463 24.5678 17.3627 25.1137 17.1613 25.5593C16.9628 26.0019 16.6914 26.3376 16.3476 26.5663C16.006 26.7928 15.6232 26.9056 15.199 26.9056C14.8987 26.9056 14.6428 26.854 14.4318 26.7507C14.2365 26.6575 14.0623 26.5255 13.9198 26.3627C13.7955 26.2183 13.6926 26.0568 13.6144 25.8832H13.5672V28.9845H12.0195ZM13.5347 23.9142C13.5347 24.2587 13.5805 24.559 13.6727 24.8157C13.7649 25.0724 13.8984 25.2731 14.0725 25.4155C14.2473 25.5564 14.4591 25.6272 14.7084 25.6272C14.9607 25.6272 15.1732 25.5556 15.348 25.4118C15.5228 25.2657 15.6549 25.065 15.7441 24.8083C15.8364 24.5494 15.8821 24.2514 15.8821 23.9142C15.8821 23.58 15.8378 23.2857 15.7478 23.0312C15.6586 22.7774 15.5265 22.579 15.3517 22.4351C15.1776 22.292 14.9629 22.2205 14.7084 22.2205C14.4569 22.2205 14.2437 22.2891 14.0688 22.4278C13.8969 22.5664 13.7649 22.7619 13.6727 23.0164C13.5805 23.2702 13.5347 23.5697 13.5347 23.9142ZM18.2391 26.8119V21.0165H19.7403V22.0279H19.7986C19.9004 21.6679 20.0715 21.3964 20.3105 21.2128C20.551 21.0268 20.8269 20.9339 21.1397 20.9339C21.3036 20.9351 21.4668 20.9542 21.6266 20.9907V22.4167C21.5275 22.3886 21.4264 22.3683 21.3241 22.3562C21.2076 22.3394 21.09 22.3305 20.9723 22.3296C20.7443 22.3296 20.5407 22.3813 20.3614 22.4846C20.1844 22.5849 20.0442 22.7258 19.9402 22.9065C19.8356 23.0987 19.783 23.3148 19.7875 23.5336V26.8119H18.2391ZM24.4328 26.9248C23.8685 26.9248 23.3801 26.8001 22.9685 26.5515C22.5586 26.2996 22.2294 25.9356 22.0198 25.5025C21.797 25.0525 21.6856 24.5302 21.6856 23.9371C21.6856 23.3381 21.797 22.8158 22.0198 22.3673C22.2284 21.9335 22.5578 21.5692 22.9685 21.3182C23.3801 21.0674 23.8685 20.942 24.4328 20.942C24.9979 20.942 25.4848 21.0674 25.8935 21.3182C26.3059 21.5676 26.6238 21.9173 26.8459 22.3673C27.0694 22.815 27.1801 23.3381 27.1801 23.9371C27.1801 24.5302 27.0694 25.0525 26.8459 25.5025C26.6359 25.9362 26.3055 26.3004 25.8942 26.5515C25.4848 26.8001 24.9972 26.9248 24.4328 26.9248ZM24.4402 25.6796C24.6969 25.6796 24.9116 25.6043 25.0835 25.4538C25.2554 25.3004 25.3852 25.0916 25.4723 24.8268C25.5623 24.5634 25.6065 24.2624 25.6065 23.9253C25.6065 23.5882 25.5623 23.2879 25.4723 23.0238C25.3852 22.7597 25.2554 22.5517 25.0835 22.3975C24.9116 22.2441 24.6969 22.1673 24.4402 22.1673C24.1813 22.1673 23.9629 22.2441 23.7859 22.3975C23.6118 22.5509 23.4797 22.7597 23.3905 23.0246C23.299 23.3159 23.2547 23.62 23.2591 23.9253C23.2591 24.2624 23.3034 24.5634 23.3905 24.8275C23.4797 25.0916 23.6118 25.2996 23.7859 25.4538C23.9629 25.6043 24.1813 25.6796 24.4402 25.6796ZM32.9555 21.0173L31.0036 26.8119H29.2596L27.3077 21.0165H28.9432L30.1028 25.1624H30.1611L31.3164 21.0165H32.9555V21.0173ZM35.8555 26.9248C35.2815 26.9248 34.7873 26.8038 34.3727 26.5633C33.961 26.3192 33.6301 25.9596 33.421 25.5291C33.1982 25.0813 33.0861 24.5516 33.0861 23.9408C33.0861 23.3447 33.1982 22.8217 33.421 22.3709C33.6286 21.9378 33.9551 21.5727 34.3623 21.3182C34.7688 21.0674 35.2461 20.942 35.7935 20.942C36.1623 20.942 36.5046 21.0032 36.8226 21.1264C37.142 21.2467 37.4201 21.4289 37.6584 21.6731C37.8982 21.9165 38.0848 22.2241 38.2176 22.5937C38.3504 22.9611 38.4175 23.3905 38.4175 23.8847V24.3251H33.7043V23.3292H36.9605C36.9647 23.1154 36.9147 22.904 36.8152 22.7147C36.7223 22.5402 36.5826 22.3951 36.4117 22.2957C36.242 22.1924 36.0443 22.1408 35.8193 22.1408C35.6045 22.1368 35.3929 22.1927 35.208 22.3021C35.0231 22.4116 34.8724 22.5702 34.7725 22.7605C34.6695 22.9515 34.6157 23.1653 34.6161 23.3823V24.3296C34.6161 24.6158 34.6678 24.8637 34.7688 25.0724C34.8736 25.2812 35.0196 25.442 35.2085 25.5556C35.3981 25.6685 35.6216 25.7253 35.8813 25.7253C36.0532 25.7253 36.2103 25.7002 36.3534 25.65C36.4965 25.5991 36.619 25.5239 36.7208 25.4236C36.8249 25.319 36.9043 25.1925 36.9532 25.0532L38.3843 25.1514C38.312 25.5091 38.163 25.8205 37.938 26.0875C37.7032 26.3599 37.4065 26.5719 37.0727 26.7057C36.7215 26.8518 36.3158 26.9248 35.8555 26.9248ZM41.2289 26.9056C40.8195 26.9101 40.4182 26.7919 40.0766 26.5663C39.735 26.3376 39.4643 26.0019 39.2629 25.5593C39.0637 25.1137 38.9649 24.5678 38.9649 23.9216C38.9649 23.2577 39.0682 22.7059 39.274 22.2655C39.4798 21.8228 39.7535 21.4923 40.095 21.2732C40.4388 21.0519 40.8158 20.9413 41.2252 20.9413C41.538 20.9413 41.7984 20.9966 42.0072 21.1073C42.2174 21.2157 42.3871 21.3507 42.5155 21.5145C42.646 21.676 42.7456 21.8339 42.8135 21.9903H42.8607V19.0845H44.4055V26.8112H42.8784V25.8832H42.8135C42.7329 26.0562 42.6289 26.2173 42.5044 26.3619C42.363 26.5261 42.1885 26.6586 41.9924 26.7507C41.7837 26.854 41.5291 26.9056 41.2289 26.9056ZM41.7195 25.6272C41.9688 25.6272 42.1798 25.5564 42.3517 25.4155C42.5265 25.2723 42.6593 25.0724 42.7515 24.8157C42.846 24.559 42.8932 24.2587 42.8932 23.9142C42.8932 23.5697 42.8474 23.2702 42.7552 23.0164C42.663 22.7619 42.5302 22.5664 42.3554 22.4278C42.1738 22.2871 41.9491 22.2138 41.7195 22.2205C41.4864 22.2133 41.2583 22.2894 41.0762 22.4351C40.9021 22.579 40.77 22.7774 40.68 23.0312C40.5857 23.3158 40.5403 23.6144 40.5458 23.9142C40.5458 24.2514 40.59 24.5487 40.68 24.8083C40.7723 25.065 40.9043 25.2657 41.0762 25.4118C41.251 25.5556 41.465 25.6272 41.7195 25.6272Z" fill="#4EA589"/>
</g>
<defs>
<clipPath id="clip0_107_8796">
<rect width="45" height="28.7705" fill="white"/>
</clipPath>
</defs>
</svg>
