<svg width="60" height="19" viewBox="0 0 60 19" fill="none" xmlns="http://www.w3.org/2000/svg">
<g clip-path="url(#clip0_107_8806)">
<path fill-rule="evenodd" clip-rule="evenodd" d="M33.2614 6.80697L31.7873 5.96587L31.6833 6.13431C31.3508 6.63908 30.8945 6.91211 30.3126 6.89119C29.3372 6.89119 28.5897 6.17615 28.5897 5.22991C28.5897 4.28312 29.3367 3.58899 30.3126 3.58899C30.8945 3.58899 31.3304 3.84165 31.6833 4.36734L31.7868 4.53578L33.2818 3.69413L33.1574 3.50477C32.4512 2.51615 31.517 2.03284 30.3336 2.03284C28.0706 2.03284 26.8453 3.69413 26.8453 5.25083C26.8453 6.80697 28.0706 8.46881 30.3336 8.46881C31.4967 8.46881 32.5761 7.90073 33.1783 6.99688L33.2614 6.80697ZM37.3679 3.4756L38.1638 5.54807H36.551L37.3679 3.4756ZM33.2818 8.78587H35.2723L35.8591 7.29688H38.8348L39.4211 8.80734H41.4121L37.871 0H36.1101L36.5923 1.16587L33.2818 8.78587ZM41.8178 8.46881H43.4983V4.66128H44.6047V3.05945H43.4983V2.31028C43.4983 1.97725 43.7108 1.64422 44.1148 1.64422C44.3284 1.64422 44.4561 1.68606 44.5833 1.74881L44.7748 1.83138L45.4767 0.270826L45.2857 0.188257C44.9664 0.0622018 44.5409 0 44.2222 0C43.4559 0 42.8174 0.249908 42.3925 0.728257C42.0093 1.14385 41.8178 1.72679 41.8178 2.37193V3.05835H41.073V4.66073H41.8178V8.46881ZM18.7156 0.000550419V8.46881H20.6097V3.62092L22.4416 4.95303L24.2741 3.62092V8.46881H26.1682V0.000550419L22.4416 2.76771L18.7156 0.000550419ZM47.6367 4.45156C47.8646 3.86257 48.3407 3.52679 48.9611 3.52679C49.5825 3.52679 50.0785 3.86257 50.3482 4.45156H47.6367ZM49.1268 2.03284C46.9745 2.03284 45.8158 3.69413 45.8158 5.25083C45.8158 6.80697 46.9745 8.46881 49.1268 8.46881C50.1203 8.44789 51.0308 8.00642 51.7552 7.18569L50.3686 6.40789C50.0169 6.78606 49.582 6.97596 49.1064 6.97596C48.4029 6.97596 47.782 6.49156 47.6163 5.8822H52.2517V5.4611C52.2517 3.08422 50.4308 2.03284 49.1268 2.03284ZM54.4117 4.45156C54.6396 3.86257 55.1152 3.52679 55.7361 3.52679C56.3576 3.52679 56.8536 3.86257 57.1233 4.45156H54.4117ZM55.9018 2.03284C53.7495 2.03284 52.5908 3.69413 52.5908 5.25083C52.5908 6.80697 53.7495 8.46881 55.9018 8.46881C56.8954 8.44789 57.8059 8.00642 58.5303 7.18569L57.1436 6.40789C56.7919 6.78606 56.3576 6.97596 55.8814 6.97596C55.1774 6.97596 54.557 6.49156 54.3914 5.8822H59.0273V5.4611C59.0064 3.08422 57.1849 2.03284 55.9018 2.03284ZM59.0273 1.35523H59.7044V1.51486H59.444V2.37138H59.2877V1.51486H59.0273V1.35523Z" fill="#C01818"/>
<path fill-rule="evenodd" clip-rule="evenodd" d="M3.51027 13.9393V5.66422L8.54147 8.07523V4.09761L0 0V16.2699L8.54092 20.367V16.3899L3.51027 13.9393Z" fill="#BD2E2B"/>
<path fill-rule="evenodd" clip-rule="evenodd" d="M13.5721 13.9393V5.66422L8.54089 8.07523V4.09761L17.0829 0V16.2699L8.54089 20.367V16.3899L13.5721 13.9393Z" fill="#75160D"/>
<path d="M23.5029 13.2969C23.4732 12.9975 23.3455 12.7646 23.1203 12.5984C22.8946 12.4333 22.5891 12.3496 22.2033 12.3496C21.9407 12.3496 21.7189 12.387 21.5383 12.4613C21.3578 12.5329 21.2191 12.6331 21.1222 12.7619C21.0286 12.8907 20.9813 13.0371 20.9813 13.2C20.9758 13.3366 21.0044 13.4555 21.0666 13.5567C21.131 13.6586 21.2191 13.7461 21.3302 13.821C21.4414 13.8925 21.5702 13.9553 21.7167 14.0098C21.8625 14.0621 22.0189 14.1067 22.1846 14.1435L22.8677 14.307C23.1814 14.3754 23.4875 14.475 23.7814 14.6043C24.0589 14.7281 24.2989 14.8801 24.5025 15.0612C24.7051 15.2417 24.8625 15.4547 24.9737 15.6997C25.0877 15.9452 25.146 16.2259 25.1482 16.543C25.146 17.0087 25.0271 17.4122 24.7915 17.754C24.5592 18.0931 24.2224 18.3567 23.7814 18.545C23.3433 18.7305 22.8148 18.8235 22.1961 18.8235C21.5818 18.8235 21.0468 18.7294 20.591 18.5412C20.138 18.3529 19.784 18.0744 19.5286 17.7056C19.2765 17.334 19.1438 16.8744 19.1317 16.3278H20.6879C20.7049 16.5826 20.7781 16.7956 20.9069 16.9663C21.038 17.1347 21.2124 17.2624 21.4304 17.3489C21.6506 17.4331 21.9 17.4755 22.1769 17.4755C22.4493 17.4755 22.686 17.4358 22.8869 17.3566C23.0895 17.2773 23.2464 17.1667 23.3581 17.0257C23.4693 16.8848 23.5255 16.7224 23.5255 16.5391C23.5255 16.3685 23.4743 16.2248 23.373 16.1087C23.2739 15.992 23.128 15.8929 22.9348 15.8114C22.7074 15.7179 22.4727 15.6433 22.233 15.5885L21.4046 15.3804C20.7633 15.2246 20.2569 14.9808 19.8853 14.6483C19.5143 14.3169 19.3293 13.87 19.3321 13.3079C19.3293 12.8478 19.4521 12.4454 19.6998 12.1008C19.9497 11.7567 20.2926 11.4881 20.7286 11.2949C21.1646 11.1023 21.6594 11.0054 22.2143 11.0054C22.7785 11.0054 23.2712 11.1017 23.6923 11.2949C24.1161 11.4881 24.4453 11.7573 24.6803 12.1008C24.9154 12.4448 25.037 12.8439 25.0442 13.2969H23.5029ZM26.2299 18.7156V11.1094H31.3552V12.4355H27.8378V14.2476H31.0915V15.5736H27.8383V17.3901H31.3701V18.7156H26.2299ZM39.3451 13.7725H37.7185C37.6935 13.5757 37.6319 13.3852 37.5369 13.2111C37.4477 13.0485 37.3276 12.9049 37.1835 12.7883C37.0353 12.6694 36.8667 12.5788 36.6858 12.5208C36.4904 12.4573 36.2859 12.4259 36.0803 12.4278C35.6868 12.4278 35.3438 12.5257 35.0515 12.7212C34.7598 12.9138 34.533 13.1967 34.3723 13.5678C34.211 13.9366 34.1306 14.3852 34.1306 14.9125C34.1306 15.4547 34.211 15.9105 34.3723 16.2793C34.5358 16.6481 34.7631 16.9267 35.0554 17.1149C35.3471 17.3032 35.6857 17.3973 36.0693 17.3973C36.2846 17.3973 36.4844 17.3687 36.6671 17.312C36.8532 17.2547 37.0178 17.1716 37.1614 17.0626C37.3046 16.9514 37.424 16.8166 37.5176 16.658C37.6145 16.4995 37.6811 16.3189 37.7185 16.1158L39.3451 16.1235C39.2517 16.8471 38.901 17.5128 38.357 17.999C38.0632 18.26 37.7233 18.4641 37.3546 18.6006C36.9682 18.7465 36.5312 18.8197 36.0435 18.8197C35.3647 18.8197 34.7581 18.6661 34.2236 18.3589C33.6913 18.0523 33.2702 17.6076 32.9609 17.0257C32.6537 16.4439 32.5002 15.7393 32.5002 14.912C32.5002 14.083 32.6565 13.3773 32.968 12.7955C33.2802 12.2136 33.7035 11.7705 34.2385 11.4656C34.773 11.1589 35.3746 11.0054 36.0435 11.0054C36.4838 11.0054 36.8928 11.067 37.2688 11.1909C37.635 11.3078 37.9764 11.4916 38.2756 11.7331C38.5673 11.9687 38.8051 12.2571 38.9884 12.5984C39.1745 12.9402 39.2934 13.3316 39.3451 13.7725ZM45.1965 11.1094H46.8049V16.0492C46.8049 16.6035 46.6728 17.089 46.4075 17.5046C46.1449 17.9208 45.7772 18.245 45.3044 18.4778C44.831 18.7085 44.2805 18.8235 43.6513 18.8235C43.02 18.8235 42.4679 18.7079 41.995 18.4778C41.5222 18.245 41.1545 17.9208 40.8919 17.5046C40.6293 17.089 40.4983 16.6035 40.4983 16.0492V11.1094H42.1068V15.9116C42.1068 16.2012 42.1695 16.4588 42.2961 16.6839C42.4249 16.9096 42.6055 17.0863 42.8383 17.2151C43.0712 17.3439 43.342 17.4083 43.6513 17.4083C43.9635 17.4083 44.2348 17.3439 44.4649 17.2156C44.6978 17.0863 44.8772 16.9096 45.0033 16.6839C45.1321 16.4588 45.1965 16.2012 45.1965 15.9116V11.1094ZM48.1277 18.7156V11.1094H51.1288C51.7035 11.1094 52.1934 11.2123 52.5996 11.4177C53.008 11.6208 53.3191 11.9092 53.5321 12.283C53.7473 12.6545 53.8552 13.0916 53.8552 13.5942C53.8552 14.0989 53.7462 14.5338 53.5282 14.8977C53.3102 15.2593 52.9943 15.5362 52.5809 15.7294C52.1702 15.9226 51.6721 16.0195 51.088 16.0195H49.0789V14.727H50.8282C51.1348 14.727 51.3902 14.6846 51.5934 14.6004C51.7959 14.5162 51.9473 14.3901 52.0464 14.2217C52.1477 14.0533 52.1983 13.8441 52.1983 13.5942C52.1983 13.341 52.1477 13.1285 52.0464 12.9556C51.9473 12.7817 51.7948 12.6507 51.5895 12.5615C51.3864 12.4701 51.1299 12.4239 50.8205 12.4239H49.7361V18.7156H48.1277ZM52.2357 15.2544L54.126 18.7156H52.3508L50.5013 15.2544H52.2357ZM54.9914 18.7156V11.1094H60.1167V12.4355H56.5998V14.2476H59.853V15.5736H56.5998V17.3901H60.1315V18.7156H54.9914Z" fill="black"/>
</g>
<defs>
<clipPath id="clip0_107_8806">
<rect width="60" height="18.7156" fill="white"/>
</clipPath>
</defs>
</svg>
