<svg xmlns="http://www.w3.org/2000/svg" width="70" height="41" fill="none" viewBox="0 0 70 41">
  <path fill="#565454" d="M25.212 6.112c.282.022.562.005.844.01.162.003.164.001.164.17 0 .204.003.41-.002.615-.003.09.027.13.12.12.051-.005.103-.002.154-.002H57.23c1.947 0 3.783.452 5.475 1.412 2.978 1.69 4.85 4.22 5.612 7.561.15.664.227 1.336.214 2.019-.005.295 0 .59-.003.884-.01.968-.195 1.908-.484 2.826a11.36 11.36 0 0 1-8.28 7.66 10.99 10.99 0 0 1-2.473.28c-12.903-.002-25.807 0-38.71-.003-.183 0-.35.029-.522.094-1.082.417-2.2.667-3.355.761-5.766.471-10.883-3.133-12.605-8.366a11.862 11.862 0 0 1-.565-2.814c-.013-.172-.045-.34-.068-.511v-.846c.12-.16.07-.345.072-.523-.001-.032-.004-.064-.003-.094a10.39 10.39 0 0 1 .255-1.706c.623-2.677 1.977-4.922 4.095-6.681 2.646-2.196 5.706-3.102 9.125-2.78a11.43 11.43 0 0 1 3.174.782c.085.034.17.047.26.047.405-.003.808-.002 1.21-.002h1.883c.134 0 .136-.003.138-.138.001-.198.003-.397-.002-.596-.002-.086.016-.13.114-.126.224.006.448.005.673 0 .083-.002.112.027.11.11-.005.199-.003.398-.002.596.002.153.002.153.16.154.154.002.308 0 .462 0 .274 0 .274 0 .274-.272 0-.474-.002-.947 0-1.421 0-.138.003-.141.135-.141.23 0 .46.005.69.006 0 .258-.002.516.002.774 0 .06-.021.128.038.176.002.257.005.511.002.768-.002.081.025.113.109.112.218-.005.435-.008.652.001.109.005.126-.041.125-.134-.005-.263-.003-.524-.003-.787l-.002.005Z"/>
  <path fill="#FEFEFE" d="M67.373 15.888a10.446 10.446 0 0 0-10.131-7.97c-10.612-.002-21.223 0-31.835 0-.314 0-.628.004-.942.001-.096-.001-.138.02-.133.127.008.192.002.384.002.576 0 .353-.003.705.001 1.058.002.104-.035.13-.13.126-.174-.006-.347.002-.52-.003-.09-.003-.127.024-.122.119.007.18 0 .358.003.538.002.066-.024.093-.09.091h-.031a12.034 12.034 0 0 0-9.2-4.264c-6.664 0-12.064 5.4-12.064 12.063s5.4 12.063 12.063 12.063c2.21 0 4.278-.596 6.058-1.632h36.95c.796 0 1.584-.09 2.36-.272a10.46 10.46 0 0 0 8.016-9.244c.103-1.14.013-2.265-.256-3.377Z"/>
  <path fill="#010101" d="M23.033 7.92c-.122 0-.244.004-.365 0-.075-.002-.101.028-.1.1.004.23.004.461 0 .69 0 .065.023.093.088.093h.71c.074.002.101-.027.1-.1a23.469 23.469 0 0 1 0-.672c.001-.078-.021-.117-.108-.112-.107.007-.218.002-.325.002Zm-1.969.012h-.972c.347.216.645.43.972.66v-.66Z"/>
  <path fill="#565454" d="M34.36 38.584c-.093-.079-.218-.072-.323-.127-.12-.062-.123-.059-.069-.182l.169-.37c.104.032.198.069.296.09.162.033.304-.005.41-.142.079-.1.106-.197.048-.331-.367-.857-.72-1.72-1.08-2.581-.023-.058-.064-.11-.056-.196.21 0 .419.002.627-.001.093-.002.094.074.117.128.147.381.291.763.437 1.145l.322.841c.075-.036.072-.11.091-.166.209-.59.414-1.18.62-1.772.061-.175.061-.175.252-.175h.474c.026.065-.005.11-.022.156-.366.947-.73 1.895-1.098 2.84a2.814 2.814 0 0 1-.152.33c-.118.221-.28.396-.532.468-.022.006-.051.008-.035.045h-.497Zm8.338 0c-.086-.077-.206-.07-.304-.119-.141-.069-.144-.065-.08-.208.05-.115.105-.23.161-.352.105.032.197.069.295.088.162.033.306-.003.41-.141.077-.101.106-.196.048-.332-.367-.857-.72-1.72-1.08-2.58-.023-.058-.065-.111-.054-.195.202 0 .405.004.609-.001.086-.002.104.054.127.115a263.512 263.512 0 0 0 .77 2.004c.07-.053.074-.128.096-.192.209-.59.413-1.182.62-1.772.053-.152.055-.152.212-.154h.51c.028.084-.017.138-.038.196-.357.93-.717 1.86-1.076 2.789a2.54 2.54 0 0 1-.209.431.827.827 0 0 1-.504.386c-.023.007-.051.003-.048.04-.157-.003-.311-.003-.465-.003Z"/>
  <path fill="#040404" d="M27.017 3.308c.002-.32.002-.642.003-.962h.962c-.024.266-.005.533-.012.8-.003.162-.001.164-.17.164l-.783-.002ZM1.466 17.486c.04.044.05-.008.072-.022-.001.176.048.36-.072.522v-.5Z"/>
  <path fill="#565454" d="M46.3 35.133c.703-.623 1.19-.609 1.764.037.174-.2.371-.369.637-.439.215-.058.433-.063.646-.01.407.101.618.383.692.782.024.127.032.253.032.382v1.632c0 .147-.002.147-.144.149-.141.002-.282-.005-.423.002-.095.004-.119-.03-.119-.122.004-.506.002-1.011.002-1.517 0-.11-.005-.217-.037-.322-.07-.231-.213-.375-.458-.403-.257-.028-.468.047-.607.276a.76.76 0 0 0-.101.405c-.002.481-.002.96-.002 1.44 0 .046-.003.09 0 .135.008.087-.034.11-.112.108a5.822 5.822 0 0 0-.442.001c-.104.005-.127-.035-.127-.133.005-.5.002-.998.002-1.498 0-.115-.005-.23-.042-.341-.07-.21-.202-.354-.43-.386-.248-.037-.457.026-.606.239a.786.786 0 0 0-.128.455v1.517c-.004.142-.004.144-.15.146-.147.001-.294-.002-.442.001-.065.002-.093-.025-.088-.091.003-.058 0-.116 0-.173v-2.496c0-.178-.005-.165.169-.165.128 0 .256.006.384-.002.106-.006.134.039.127.135-.002.078.003.158.003.256Zm-35.064-.389c.192 0 .389.003.586-.002.094-.003.096.066.114.125l.442 1.508c.03.102.06.205.093.312.072-.058.073-.14.096-.211.173-.529.34-1.06.51-1.588.047-.15.049-.154.21-.149.138.003.31-.058.408.029.086.077.096.243.137.37.153.468.305.936.455 1.403.016.048.023.1.074.153.11-.36.215-.712.319-1.061.077-.256.157-.513.227-.772.024-.091.065-.125.159-.12.173.008.345.001.511.001.042.042.016.077.007.11l-.875 2.7c-.045.14-.047.14-.2.141-.11 0-.218-.006-.327.002-.095.006-.132-.03-.16-.12-.175-.548-.354-1.095-.536-1.64-.019-.059-.022-.126-.09-.185l-.363 1.096c-.08.242-.16.485-.237.729-.026.083-.064.126-.162.118-.152-.011-.333.042-.453-.022-.124-.068-.117-.27-.165-.412-.252-.77-.5-1.544-.748-2.316-.015-.058-.053-.116-.033-.2Zm19.884.446c.045-.04.06-.049.07-.063.549-.715 1.713-.537 2.11.322a1.727 1.727 0 0 1-.019 1.555 1.305 1.305 0 0 1-1.59.657 1.017 1.017 0 0 1-.302-.163c-.083-.067-.158-.143-.267-.242 0 .123-.003.22-.002.319.002.064-.022.093-.088.093a25.865 25.865 0 0 0-.498 0c-.06 0-.098-.018-.091-.087.003-.038 0-.077 0-.115v-3.627c0-.039.003-.077 0-.116-.007-.078.033-.097.104-.096.154.003.307.007.46-.001.099-.005.116.041.115.126-.003.237-.002.473-.002.71v.727Zm1.66 1.032a.99.99 0 0 0-.074-.416c-.131-.316-.36-.51-.71-.53-.355-.021-.62.144-.781.451-.162.308-.16.629-.01.94a.82.82 0 0 0 .792.474.806.806 0 0 0 .73-.584.92.92 0 0 0 .053-.335Zm-5.495 1.034c-.064-.007-.079.037-.101.062-.5.587-1.317.497-1.782.063a1.398 1.398 0 0 1-.426-.777c-.076-.4-.056-.79.122-1.162a1.31 1.31 0 0 1 1.556-.706c.187.056.347.158.487.295l.144.139v-.606c0-.269.003-.536-.002-.805-.001-.093.016-.141.125-.135.14.01.282.01.422 0 .112-.008.126.043.125.136-.005.224-.002.449-.002.671v3.072c0 .18.016.163-.165.163-.128 0-.256-.005-.384.002-.089.004-.13-.02-.122-.116.01-.097.003-.198.003-.296Zm.006-1.045a.905.905 0 0 0-.149-.552c-.19-.287-.46-.422-.802-.378-.329.041-.545.235-.66.541a1.126 1.126 0 0 0-.037.642c.08.379.383.646.76.678.344.029.675-.192.82-.545a.88.88 0 0 0 .068-.386ZM4.886 35.17c.052 0 .065-.024.079-.043.535-.694 1.645-.54 2.065.243.298.558.287 1.131-.005 1.692a1.227 1.227 0 0 1-.51.506 1.24 1.24 0 0 1-1.516-.215c-.026-.025-.042-.064-.087-.073-.045.04-.022.094-.024.14-.002.328-.002.654-.002.98 0 .16.01.154-.158.154h-.365c-.145 0-.151.014-.151-.143.002-.199 0-.397 0-.596v-2.842c0-.045.002-.09 0-.135-.002-.06.018-.096.087-.094.166.003.333.003.5 0 .067-.002.09.03.087.093v.333Zm1.665 1.067c-.005-.07-.005-.141-.014-.21-.047-.368-.316-.671-.656-.74a.813.813 0 0 0-.886.428c-.18.347-.176.704.03 1.041.172.279.435.41.763.385.338-.028.564-.217.693-.526.05-.122.067-.248.07-.378Zm32.225.863.407-.483c.07.05.129.097.19.144.305.229.648.355 1.033.359a.874.874 0 0 0 .443-.103.43.43 0 0 0 .24-.386c.005-.183-.083-.303-.235-.386-.18-.1-.38-.15-.578-.197a4.486 4.486 0 0 1-.713-.223c-.37-.162-.602-.421-.631-.84-.03-.456.14-.812.535-1.049.26-.155.548-.203.847-.197.462.01.878.146 1.255.417.073.053.086.09.029.165-.106.134-.2.277-.305.423-.248-.172-.496-.316-.786-.369-.197-.036-.396-.046-.587.03-.157.062-.274.164-.3.342-.028.2.04.343.227.445.18.1.38.151.578.2.242.061.482.124.711.226.42.191.655.497.64.973-.017.477-.244.812-.682.998-.43.184-.876.167-1.318.056a2.247 2.247 0 0 1-1-.545Zm13.909.225a1.258 1.258 0 0 1-.969.407 1.285 1.285 0 0 1-.34-.053c-.422-.12-.67-.431-.677-.848-.008-.432.224-.76.642-.895.369-.119.744-.1 1.119-.023.069.015.136.034.203.05.06-.274-.078-.514-.354-.609-.224-.077-.455-.056-.682-.02-.14.022-.274.065-.404.12-.06.025-.093.019-.114-.05a5.033 5.033 0 0 0-.13-.38c-.025-.066 0-.093.055-.115.49-.205.996-.28 1.519-.148.479.122.762.48.79.987.014.268.006.537.006.806 0 .333-.003.665.001.998.002.093-.027.122-.118.117a7.271 7.271 0 0 0-.46-.001c-.067.001-.091-.024-.087-.09.004-.067 0-.136 0-.253Zm-.62-.997c-.113.005-.253.01-.387.061-.21.079-.31.215-.303.415.006.19.13.337.34.388a.912.912 0 0 0 .652-.07.575.575 0 0 0 .336-.576c-.003-.077-.027-.112-.1-.135a2.703 2.703 0 0 0-.538-.083Zm-33.411.856a1.448 1.448 0 0 1-1.055.548c-.305.024-.6-.028-.873-.17-.595-.313-.832-.945-.76-1.553.048-.394.213-.732.516-1 .59-.522 1.849-.486 2.204.613.073.22.108.447.101.679-.003.146-.008.149-.153.15-.48.002-.96 0-1.44 0h-.441c-.114.002-.124.017-.096.122a.819.819 0 0 0 .866.61c.245-.017.462-.103.641-.268.072-.068.119-.07.19 0 .09.09.191.171.3.269Zm-.554-1.189c.005-.384-.295-.774-.735-.756a.753.753 0 0 0-.715.756h1.45Zm6.166 1.189a1.43 1.43 0 0 1-1.015.544c-.467.044-.891-.067-1.237-.4-.73-.702-.54-2.05.35-2.498.869-.435 1.843.076 2.002 1.05.022.14.043.278.035.42-.008.145-.008.15-.154.15-.448.002-.895 0-1.344 0-.18 0-.359-.002-.537 0-.115.002-.123.016-.096.12.101.39.455.636.865.61a1.01 1.01 0 0 0 .641-.267c.07-.066.119-.074.19-.002.087.095.188.173.3.273Zm-2.01-1.189c.046.002.085.007.122.007h1.227c.054 0 .117.017.112-.08-.015-.262-.23-.56-.48-.643-.576-.19-.968.288-.981.716Zm40.062 1.189a1.395 1.395 0 0 1-.956.537c-.619.072-1.143-.106-1.498-.643-.365-.551-.316-1.38.109-1.886.38-.451.873-.587 1.434-.461.58.13.871.543 1 1.093.033.142.046.29.043.437-.005.189-.002.19-.186.19h-1.936c-.01.334.26.645.61.71a.998.998 0 0 0 .875-.23c.132-.114.117-.092.23.008.09.078.18.158.275.245Zm-.552-1.187c-.025-.465-.322-.764-.74-.757-.388.008-.71.346-.71.757h1.45ZM9.334 34.69c.767-.002 1.38.467 1.525 1.198.187.94-.42 1.65-1.173 1.807-.533.112-1.019.003-1.429-.367a1.508 1.508 0 0 1-.378-1.673c.23-.59.79-.964 1.455-.966Zm-.883 1.49c.003.065.002.11.008.155.051.355.226.624.569.756a.824.824 0 0 0 .908-.175c.407-.376.373-1.107-.064-1.448a.84.84 0 0 0-.921-.107c-.35.161-.487.466-.5.818Zm46.402-1.036c.082-.04.112-.096.152-.14.37-.408.993-.37 1.309-.185.337.197.47.514.484.884.014.351.005.704.006 1.056 0 .263-.003.524.002.787.002.086-.013.13-.114.123a4.045 4.045 0 0 0-.44 0c-.095.005-.119-.03-.117-.12.004-.455.003-.908.001-1.363 0-.116-.006-.231-.02-.345-.042-.333-.242-.522-.566-.541-.322-.02-.583.162-.662.466-.025.1-.035.2-.035.304.002.486.002.973 0 1.458 0 .135-.002.136-.133.138-.141.002-.282-.005-.421.002-.095.004-.119-.03-.117-.12.005-.398.001-.794.001-1.19V34.88c0-.136.004-.136.135-.138h.404c.13.002.13.003.133.141l-.002.261Zm10.391.494c-.056-.05-.103-.092-.15-.132-.273-.225-.58-.302-.912-.166-.342.14-.494.427-.534.782a.994.994 0 0 0 .048.416.863.863 0 0 0 1.29.48c.104-.062.19-.148.287-.224.133.132.262.262.394.391-.377.481-1.005.67-1.623.489a1.482 1.482 0 0 1-1.062-1.275c-.085-.827.434-1.527 1.17-1.674.505-.101.983-.026 1.38.34.162.148.132.121.016.248l-.304.325Zm-6.065 1.409v.374c-.002.158-.002.16-.154.218a1.274 1.274 0 0 1-.772.041c-.322-.08-.502-.322-.523-.697-.01-.216-.005-.434-.006-.652 0-.294-.005-.588.002-.882.001-.105-.036-.128-.133-.128-.242 0-.242-.005-.242-.242 0-.077.003-.154-.002-.231-.005-.087.035-.109.114-.107.081 0 .184.036.237-.023.057-.064.02-.171.02-.26a9.246 9.246 0 0 0 0-.42c0-.074.026-.103.102-.102.14.004.282 0 .421.002.149.002.15.002.152.144.002.16 0 .32 0 .48 0 .206-.013.179.19.179.166.001.332.003.497 0 .074-.002.103.025.1.1a6.11 6.11 0 0 0 0 .383c.003.077-.028.1-.1.1-.185-.003-.371.003-.556-.003-.099-.004-.134.025-.134.128.005.421.002.844.003 1.265 0 .039.005.077.01.116.024.173.11.26.283.283.11.015.217-.011.322-.035.052-.01.095-.047.169-.03Zm-39.031-1.739c.094-.088.147-.19.224-.277a.953.953 0 0 1 .705-.338c.069-.002.107.008.106.09-.005.196-.002.395-.002.589-.051.041-.106.025-.154.032-.487.07-.777.36-.852.849-.029.19-.029.383-.029.575 0 .244-.003.487.002.73.001.082-.023.113-.108.11-.16-.007-.32-.004-.48-.002-.055 0-.084-.018-.08-.077v-2.747c-.005-.07.017-.106.096-.103.16.005.32.003.48 0 .068-.002.092.024.09.09l.002.479Z"/>
  <path fill="#010101" d="m24.327 5.188.011-.883c.01-.013.021-.024.03-.037.177-.027.355-.011.533-.011.387 0 .773.005 1.161.008.003.279.003.559.01.838.001.078-.034.094-.103.093a20.673 20.673 0 0 0-.61 0c-.135.001-.136.003-.14.134l-.01.782.004-.003c-.282.043-.564.022-.846.01 0-.25.002-.504-.001-.755.001-.061.022-.13-.039-.176Z"/>
  <path fill="#040404" d="m26.056 4.27.01-.805c.001-.158.001-.158.154-.16l.804-.003c-.002.28-.002.562-.008.843-.002.081.024.112.107.11.242-.005.485.002.727-.003.093-.002.122.027.12.12a16.71 16.71 0 0 0 0 .708c.002.084-.012.132-.113.128a23.227 23.227 0 0 0-.747 0c-.075.002-.099-.03-.097-.102.003-.242-.004-.486.003-.727.001-.09-.021-.124-.117-.122-.28.01-.563.01-.843.013Z"/>
  <path fill="#565454" d="m67.328 7.554-.226.867-.041.166c-.036.13-.108.17-.236.136-.056-.014-.06-.057-.07-.1l-.228-.872c-.016-.06-.034-.117-.051-.176l-.038.004v.983c-.002.158-.002.158-.135.16-.141.001-.143.001-.143-.172V7.322c0-.065.005-.129-.001-.193-.008-.086.032-.105.112-.107.33-.013.33-.014.415.304l.19.708c.061-.017.061-.064.07-.102.075-.27.15-.542.22-.814.018-.066.042-.091.114-.096.362-.022.362-.026.362.333 0 .41.002.819-.001 1.229 0 .046.027.115-.04.131a.326.326 0 0 1-.207-.006c-.038-.018-.024-.069-.026-.106V7.551c-.012.003-.025.003-.04.003Zm-2.554-.257c-.001-.006-.006-.01-.006-.017-.018-.253-.018-.253.226-.253h.825c.041 0 .1-.016.106.05.004.073.028.155-.018.222-.024.034-.072.013-.109.016-.088.008-.2-.037-.258.023-.066.067-.022.182-.024.277-.003.32 0 .639-.002.96 0 .147-.003.147-.144.15-.025 0-.051-.003-.077 0-.099.014-.115-.037-.115-.123.003-.34.002-.678.002-1.018 0-.266 0-.266-.273-.27-.046 0-.093.008-.133-.017Z"/>
  <path fill="#FEFEFE" d="M23.033 7.92c.109 0 .218.006.327 0 .086-.006.109.033.107.111-.003.225-.003.449 0 .671.002.076-.026.103-.1.101a34.978 34.978 0 0 0-.709 0c-.066 0-.088-.027-.088-.092.002-.231.003-.462 0-.691-.002-.074.024-.104.1-.1.12.004.241 0 .363 0Zm1.336-1.8c.282.011.566.032.846-.011 0 .263-.002.524.003.786.002.093-.016.14-.125.135-.216-.008-.434-.005-.652-.002-.085.002-.11-.03-.109-.112.003-.256 0-.51-.001-.767l.038-.029Zm-3.305 1.812v.66c-.327-.23-.626-.444-.972-.66h.972Z"/>
  <path fill="#040404" d="m24.369 6.12-.039.03c-.059-.048-.036-.115-.038-.176-.002-.258-.002-.516-.002-.774a.041.041 0 0 1 .036-.01c.06.046.04.115.041.175.003.25.002.502.002.755Zm-.009-1.852-.022.027c-.005-.02-.001-.032.023-.027Z"/>
  <path fill="#565454" d="M32.781 14.952v-4.758c0-.18-.014-.165.165-.165h1.268c.163 0 .165.002.165.168v7.666c-.002.159-.002.16-.154.16-.48.002-.961-.003-1.44.003-.11.002-.17-.027-.221-.13-.4-.794-.803-1.585-1.207-2.377-.47-.923-.942-1.845-1.413-2.768a.412.412 0 0 0-.12-.157v5.213c0 .244.029.216-.213.216-.417.002-.833.002-1.248 0-.135 0-.136-.003-.138-.138-.002-.134 0-.269 0-.403v-7.224c0-.255-.034-.227.221-.227.506-.002 1.013.004 1.517-.004.14-.003.213.039.28.165.8 1.537 1.608 3.07 2.413 4.605l.09.168a.067.067 0 0 1 .035-.013Zm15.981 1.775c.056.18.069.357.1.532.035.183.065.365.097.548.013.07.008.119-.079.143-.605.173-1.216.253-1.839.12-.674-.145-1.078-.579-1.192-1.264a3.448 3.448 0 0 1-.043-.574c.002-.91 0-1.818 0-2.728 0-.175.018-.17-.163-.17-.231 0-.462.002-.692 0-.564-.003-.998.242-1.324.689-.309.425-.42.915-.423 1.43-.006.776-.001 1.55-.001 2.325 0 .039-.003.077 0 .116.011.096-.021.133-.127.13-.352-.006-.705-.002-1.057-.002-.128 0-.256-.002-.385 0-.177.001-.163 0-.161-.172v-5.495c0-.23-.026-.206.203-.206.224-.002.449.006.673-.004.107-.005.157.03.195.132.12.33.252.657.38.983.014.036.024.074.058.104.051-.038.069-.1.1-.152.14-.23.302-.444.508-.62a1.797 1.797 0 0 1 1.197-.445h.885c.155 0 .155-.002.18-.147.08-.447.153-.896.24-1.341.038-.199-.01-.178.214-.178.365-.002.73-.002 1.096 0 .133 0 .134.003.134.14.002.46.002.922 0 1.383 0 .156 0 .145.15.145.32 0 .64.001.96-.002.092-.002.14.013.138.122-.006.314-.006.628 0 .942.002.105-.04.126-.134.125-.32-.005-.641-.004-.961-.002-.148 0-.151.002-.151.141 0 .916-.003 1.831.002 2.748.001.463.173.623.634.61.197-.006.388-.063.588-.106Zm8.085-3.712c.068-.03.101-.088.146-.133.409-.413.878-.722 1.46-.831.376-.07.753-.056 1.116.072.65.229 1.008.716 1.183 1.358.057.21.083.427.083.646-.002 1.235 0 2.47-.002 3.707 0 .207.018.19-.18.19h-1.095c-.109 0-.218-.007-.327 0-.104.009-.136-.033-.128-.13.007-.077.002-.154.002-.231v-3.38c0-.51-.306-.82-.817-.843-.46-.021-.787.216-1.08.53-.056.06-.034.133-.034.202l-.001 3.61c0 .04-.005.078 0 .116.014.106-.039.127-.135.127a84.137 84.137 0 0 0-1.42 0c-.102.002-.132-.029-.13-.13.004-.327.001-.654.001-.979v-4.532c0-.045.003-.09 0-.135-.005-.072.022-.102.098-.1.275.003.55.003.825 0 .078-.002.112.032.136.1.069.193.142.383.216.574.029.063.056.127.083.192Zm-4.823-1.005a3.061 3.061 0 0 1 3.058 3.048c.016 1.541-1.208 3.066-3.057 3.068a3.044 3.044 0 0 1-3.06-3.047c0-1.7 1.362-3.068 3.059-3.07Zm1.56 3.069a1.553 1.553 0 0 0-1.567-1.575 1.566 1.566 0 0 0 .002 3.133 1.562 1.562 0 0 0 1.565-1.558ZM38.01 12.01a3.059 3.059 0 0 1 3.056 3.053c.008 1.687-1.375 3.079-3.063 3.068a3.055 3.055 0 0 1-3.059-3.075 3.059 3.059 0 0 1 3.065-3.047Zm-.006 4.627a1.58 1.58 0 0 0 1.57-1.562 1.582 1.582 0 0 0-1.558-1.574 1.58 1.58 0 0 0-1.579 1.573c.004.857.71 1.562 1.567 1.563Zm12.128 6.715 1.041 2.249c-.312 0-.598-.002-.883 0-.078 0-.09-.06-.112-.11l-.452-.997c-.139-.31-.283-.615-.418-.926-.038-.088-.086-.125-.184-.122a6.04 6.04 0 0 1-.538 0c-.104-.005-.13.034-.128.132.003.602.003 1.204.001 1.805 0 .24.039.215-.211.216-.186.002-.372-.001-.558.002-.072.002-.109-.02-.102-.1.003-.038 0-.076 0-.115v-4.649c0-.245-.024-.216.213-.216.487-.002.974-.002 1.46 0 .321 0 .637.037.943.147.524.19.802.57.863 1.117.023.203.018.41-.033.61-.103.4-.358.67-.718.85-.061.033-.135.043-.184.107Zm-1.673-1.35c0 .219.003.435-.002.653-.001.096.021.138.127.133.159-.008.319-.003.48-.002.178.002.356.002.534-.035.18-.037.343-.103.457-.256a.778.778 0 0 0-.526-1.247c-.319-.038-.639-.011-.958-.022-.1-.003-.113.045-.112.128.003.215 0 .433 0 .649Zm8.776 1.056v-2.305c0-.038.003-.077 0-.115-.011-.098.035-.119.123-.119.302.003.603.002.904.002.263 0 .525-.003.787.035.254.038.501.1.735.208.546.253.887.686 1.046 1.256a3.76 3.76 0 0 1-.003 2.067c-.239.841-.816 1.318-1.671 1.467-.19.034-.381.045-.574.044-.397-.002-.794 0-1.192 0-.152 0-.153-.002-.153-.16-.002-.792-.002-1.585-.002-2.38Zm2.812-.02c-.013-.236-.015-.473-.056-.707-.122-.671-.497-1.02-1.172-1.09-.192-.018-.382-.017-.575-.017-.133 0-.136.003-.136.14v3.375c0 .157.002.157.154.159.218.001.434-.002.65-.034.555-.083.896-.391 1.04-.934.079-.292.083-.593.095-.892Zm-16.86-.658c0 .52-.002 1.037 0 1.556 0 .148.016.294.054.438.082.298.266.492.574.553.177.035.357.036.535 0 .344-.071.546-.295.608-.678.024-.144.039-.292.039-.44-.002-1.016-.002-2.035-.002-3.053 0-.044.003-.09 0-.134-.006-.074.023-.101.098-.101.23.003.461.003.692.002.064 0 .095.025.091.09v.114c0 .992.002 1.985 0 2.977 0 .288-.029.575-.11.854-.183.622-.598.979-1.237 1.08a2.68 2.68 0 0 1-1.029-.029c-.547-.127-.895-.468-1.065-.998a2.423 2.423 0 0 1-.118-.718c-.005-1.081-.004-2.164-.008-3.246 0-.1.03-.13.13-.128.198.007.397.002.595.002.143.002.145.003.145.15v1.71h.008Zm-10.361.682v-2.323c0-.045.002-.09 0-.135-.002-.054.02-.083.077-.082.038.002.077 0 .115 0h2.765c.047 0 .07.024.07.073 0 .185-.002.371 0 .557 0 .06-.034.075-.086.075h-1.92c-.148 0-.151.002-.151.145-.002.371.003.741-.003 1.113-.002.106.037.127.133.125.474-.003.947-.002 1.42-.002.15 0 .15.002.151.145.002.14-.006.281.004.422.006.106-.036.129-.132.129-.404-.004-.806-.002-1.21-.002-.083 0-.166.003-.25-.002-.08-.004-.115.021-.115.108.004.461.005.92-.001 1.382-.002.125.072.11.149.11h1.9c.239 0 .239 0 .239.246 0 .115-.004.23.001.346.003.077-.014.123-.104.112-.032-.005-.064 0-.096 0h-2.746c-.045 0-.09-.002-.135 0-.057.002-.08-.026-.077-.082.002-.044 0-.09 0-.134.002-.777.002-1.553.002-2.326Zm19.813-.004v-2.324c0-.045.002-.09 0-.135-.002-.057.026-.08.082-.076h2.766c.185 0 .173-.023.173.177v.366c0 .176.012.16-.17.16h-1.247c-.206 0-.41.005-.616-.002-.104-.003-.13.037-.128.135.005.378.005.756 0 1.132-.001.095.03.12.122.12.474-.003.948-.001 1.421-.001.165 0 .165.002.167.168a15.4 15.4 0 0 1 0 .385c-.002.134-.004.137-.138.137-.442.002-.884 0-1.325.002-.282.002-.24-.034-.242.245-.002.385-.002.77 0 1.154 0 .226-.022.2.21.2.64.002 1.28 0 1.92 0 .183 0 .167-.002.166.168 0 .148-.002.295 0 .442.001.064-.021.096-.088.093h-2.94c-.093.011-.146-.014-.131-.123.008-.056.001-.116.001-.173-.003-.752-.003-1.501-.003-2.25Zm-21.907-1.613a2.476 2.476 0 0 0-1.201-.267 1.128 1.128 0 0 0-.393.08.586.586 0 0 0-.189.943.985.985 0 0 0 .322.205c.24.106.494.178.74.265a2.9 2.9 0 0 1 .707.34c.487.339.653.82.593 1.388-.063.572-.38.97-.923 1.138-.9.282-1.756.138-2.55-.369-.076-.048-.092-.088-.036-.166.106-.152.202-.311.303-.466.01-.017.026-.028.048-.052.062.039.125.077.189.114.476.272.98.405 1.527.301.288-.054.51-.198.59-.506a.628.628 0 0 0-.25-.694 1.84 1.84 0 0 0-.446-.222c-.239-.09-.48-.175-.72-.265a2.47 2.47 0 0 1-.568-.314c-.687-.5-.75-1.906.325-2.316.381-.146.774-.162 1.171-.129.34.03.667.111.976.263.09.045.102.087.056.175-.095.18-.176.359-.27.554Zm9.689 2.938c.146.164.294.332.444.495.06.064.018.101-.02.145-.35.389-.787.605-1.308.644a2.403 2.403 0 0 1-.726-.052c-.679-.155-1.124-.58-1.376-1.217-.218-.553-.261-1.131-.211-1.718.035-.411.128-.807.322-1.175.365-.691.943-1.037 1.719-1.063.343-.01.676.039.99.183a1.7 1.7 0 0 1 .512.365c.045.045.05.079.007.128-.15.167-.293.337-.444.51-.083-.039-.136-.106-.199-.157-.309-.256-.666-.317-1.047-.248-.308.056-.529.245-.681.515a2.1 2.1 0 0 0-.23.748c-.059.452-.068.907.026 1.357.023.106.048.212.087.314.239.652.913.931 1.55.646.16-.072.297-.175.427-.29.048-.042.083-.098.158-.13Z"/>
  <path fill="#FEB511" d="M13.706 6.083c-6.76 0-12.24 5.482-12.24 12.24 0 6.757 5.483 12.24 12.24 12.24 6.757 0 12.24-5.481 12.24-12.24 0-6.76-5.481-12.24-12.24-12.24Zm-.045 3.84c4.641 0 8.4 3.759 8.4 8.4 0 4.64-3.759 8.4-8.4 8.4s-8.41-3.76-8.41-8.4c0-4.641 3.767-8.4 8.41-8.4Z"/>
  <path fill="#565454" d="M26.998 3.294h-.937v.937h.937v-.937Zm-.938.937h-1.737v.937h1.736v-.937Zm-1.737.937h-.868v1.828h.868V5.168Zm.892 1.83h-.892v.892h.892v-.892Zm.984-.881h-.984v.88h.984v-.88Zm-1.876 1.772h-.869v.914h-.903V7.89h-1.474v.65h-.8v.8h.88v.892h-.892l.01-.892h-.959v1.406h-.89v.88h-.606v.892h-.64c-1.375 2.257-2.48 4.343-3.12 5.886-1.754-2.336-2.576-3.177-4.056-4-.53-.295-1-.431-1.338-.24-.351.198-.454.824-.011 1.313 2.745 3.042 3.24 4.665 4.239 6.983.298.69.858.989 1.498 1.006.34.01.759-.093 1.04-.422.13-.153.168-.363.273-.617.835-2.012 1.76-4.031 3.099-5.953l.01-1.007h.709l-.011-.892h.765l-.01-1.064h.89v-.97h-.904l.012-.915h.892v.914h.89v-.926h.698V10.53h.81v-.743h.766V7.889h.002Z"/>
  <path fill="#565454" d="M23.456 6.998h-.903v.892h.903v-.892Zm-.906-.858h-.901v.858h.902v-.857Z"/>
  <path fill="#FEB511" d="M24.323 5.173h.889v.939h-.89v-.939Zm2.67-.939h.963v.94h-.963v-.94Zm0-1.9h.963v.962h-.963v-.962Z"/>
</svg>
