<?xml version="1.0" encoding="UTF-8"?>
<svg xmlns="http://www.w3.org/2000/svg" xmlns:xlink="http://www.w3.org/1999/xlink" width="192px" height="192px" viewBox="0 0 192 192" version="1.1">
<g id="surface1">
<path style=" stroke:none;fill-rule:evenodd;fill:rgb(30.980392%,68.627451%,80.392157%);fill-opacity:1;" d="M 123.222656 61.664062 C 120.082031 106.734375 85.347656 142.253906 42.945312 142.285156 C 46 146.308594 50.417969 149.207031 55.664062 150.109375 C 69.007812 152.402344 82.75 153.601562 96.78125 153.601562 C 110.222656 153.601562 123.394531 152.5 136.207031 150.390625 C 148.664062 148.339844 156.523438 135.03125 152.570312 122.070312 C 145.960938 100.371094 135.984375 80.050781 123.222656 61.664062 Z M 123.222656 61.664062 "/>
<path style=" stroke:none;fill-rule:nonzero;fill:rgb(40.392157%,74.117647%,84.705882%);fill-opacity:1;" d="M 80.890625 45.679688 C 62.273438 67.925781 48.039062 93.6875 39.4375 121.761719 C 37.152344 129.214844 38.777344 136.796875 42.945312 142.285156 C 85.347656 142.253906 120.082031 106.734375 123.222656 61.660156 C 119.402344 56.15625 115.328125 50.824219 111.023438 45.679688 C 102.902344 35.972656 89.011719 35.972656 80.890625 45.679688 Z M 80.890625 45.679688 "/>
<path style="fill:none;stroke-width:1;stroke-linecap:butt;stroke-linejoin:miter;stroke:rgb(100%,100%,100%);stroke-opacity:1;stroke-miterlimit:10;" d="M 14.499837 23.823507 L 14.499837 24.323996 L 19.358098 24.323996 L 19.358098 29.499775 L 24.627533 29.499775 L 24.627533 24.323996 L 29.500375 24.323996 L 29.500375 19.662267 L 24.627533 19.662267 L 24.627533 14.500051 L 19.358098 14.500051 L 19.358098 19.662267 L 14.499837 19.662267 Z M 14.499837 23.823507 " transform="matrix(2.67907,0,0,2.880001,38.400009,38.399999)"/>
</g>
</svg>
