<svg width="61" height="50" viewBox="0 0 61 50" fill="none" xmlns="http://www.w3.org/2000/svg">
<g clip-path="url(#clip0_8714_7585)">
<path d="M53.4586 2H7.45856V48H53.4586V2Z" fill="#FFCC00"/>
<path d="M26.1075 32.0025H30.1154L26.0676 36.0893H22.0592L26.1075 32.0025ZM16.6523 36.0893H20.6616L24.708 32.0025H20.7006L16.6523 36.0893ZM35.0544 32.0025H31.0456L35.0938 36.0893H39.1022L35.0544 32.0025ZM40.4613 32.0025H36.4525L40.5003 36.0893H44.5082L40.4613 32.0025ZM46.3922 15.6516C45.8233 23.9783 39.5636 31.271 30.2759 31.2674C19.7698 31.2643 15.7081 22.1518 16.2551 15.2471L19.3408 14.2677C18.8391 18.1972 20.0585 21.0313 20.8991 22.3301C19.898 16.7712 24.1045 12.2714 29.3695 12.2678C34.1054 12.2647 38.0223 15.7148 38.0035 20.6644C38.6983 18.7751 39.1821 15.8989 39.2816 13.8856L46.3922 15.6516ZM35.0751 20.8391C35.0751 17.7035 32.5278 15.162 29.3834 15.162C26.2412 15.162 23.6934 17.7035 23.6934 20.8391C23.6934 23.9747 26.2412 26.5163 29.3834 26.5163C32.5278 26.5163 35.0751 23.9747 35.0751 20.8391Z" fill="black"/>
</g>
<defs>
<clipPath id="clip0_8714_7585">
<rect width="46" height="46" fill="white" transform="translate(7.45856 2)"/>
</clipPath>
</defs>
</svg>
