<?xml version="1.0" encoding="UTF-8"?>
<svg xmlns="http://www.w3.org/2000/svg" xmlns:xlink="http://www.w3.org/1999/xlink" width="0" height="0">
<symbol id="australia_post" width="108" height="50" viewBox="0 0 108 50" fill="none">
<g clip-path="url(#clip0_8714_7616)">
<path d="M7.45856 24.9986C7.45856 29.2772 10.111 32.9248 13.8448 34.3572V15.6414C10.1103 17.0738 7.45856 20.7207 7.45856 24.9986ZM17.3475 15C17.0737 15 16.8027 15.0097 16.5344 15.0297V15.7331H16.5848C20.3537 15.7607 23.3882 18.6669 23.3613 22.2248C23.3365 25.7662 20.2827 28.6179 16.5358 28.6145V34.9683C16.8027 34.991 17.0744 35 17.3482 35C22.8075 35 27.2379 30.5221 27.2379 24.9986C27.2379 19.4759 22.8075 15 17.3482 15H17.3475ZM36.333 27.3324H33.1468L32.5882 28.9993H31.1841L33.9137 20.9993H35.5965L38.3041 28.9993H36.8889L36.333 27.3324ZM35.931 26.1262L34.7386 22.5779L33.5454 26.1262H35.931ZM42.493 23.1634H43.853V29H42.4937V28.3241H42.4489C42.0813 28.831 41.5799 29.1469 40.811 29.1469C39.6413 29.1469 38.8834 28.291 38.8834 26.9841V23.1641H40.2434V26.8372C40.2434 27.491 40.5551 27.9641 41.302 27.9641C42.0813 27.9641 42.4944 27.4124 42.4944 26.7469V23.1641H42.493V23.1634ZM46.1386 27.3097C46.2282 27.8269 46.573 28.1434 47.2972 28.1434C47.9661 28.1434 48.3454 27.8607 48.3454 27.3779C48.3454 26.9834 48.2006 26.7462 47.5765 26.6676L46.5399 26.5434C45.3592 26.4083 44.8689 25.8441 44.8689 24.9324C44.8689 23.8172 45.8048 23.0179 47.253 23.0179C48.7682 23.0179 49.5041 23.9076 49.5717 24.7862H48.2337C48.1668 24.3138 47.833 24.0207 47.2317 24.0207C46.6075 24.0207 46.2061 24.3138 46.2061 24.7648C46.2061 25.1366 46.4061 25.351 47.0751 25.4297L48.1006 25.5538C49.2372 25.6883 49.6834 26.2186 49.6834 27.1876C49.6834 28.3931 48.6468 29.1469 47.2875 29.1469C45.7165 29.1469 44.8806 28.3703 44.7703 27.3103L46.1386 27.3097ZM51.1634 24.1772H50.0606V23.1634H51.1758V21H52.5234V23.1628H53.8496V24.1766H52.5234V27.1731C52.5234 27.7034 52.7903 27.9179 53.3041 27.9179H53.8606V28.9993H53.0696C51.7875 28.9993 51.1634 28.4131 51.1634 27.2641V24.1772ZM56.3668 28.9993H55.0068V23.1634H56.3668V24.0428H56.4117C56.6903 23.4007 57.1579 23.1634 57.6482 23.1634H58.3061V24.3807H57.7048C56.802 24.3807 56.3675 24.8193 56.3675 25.891L56.3668 28.9993ZM60.4889 29.1462C59.3861 29.1462 58.6399 28.4924 58.6399 27.4C58.6399 26.2517 59.5089 25.8117 60.4565 25.6876L61.682 25.529C62.1496 25.4848 62.2613 25.2703 62.2613 24.9324C62.2613 24.4359 61.9379 24.0538 61.2586 24.0538C60.5675 24.0538 60.2006 24.4366 60.1441 24.9779H58.7627C58.7958 23.9855 59.6206 23.0179 61.2248 23.0179C62.7399 23.0179 63.6316 23.9186 63.6316 25.2483V27.9972C63.6316 28.3586 63.6875 28.7186 63.7544 29H62.3503C62.3131 28.7502 62.2947 28.498 62.2951 28.2455H62.2613C61.9606 28.751 61.3248 29.1462 60.4889 29.1462ZM61.5372 26.3186L60.9351 26.4531C60.3668 26.5772 60.011 26.8145 60.011 27.3428C60.011 27.8738 60.322 28.1428 60.9241 28.1428C61.6268 28.1428 62.2723 27.6814 62.2723 26.9152V26.0021C62.1054 26.1717 61.8385 26.2503 61.5372 26.3186ZM64.8241 27.4221V20.5945H66.1834V27.3324C66.1834 27.6931 66.3399 27.9186 66.7406 27.9186H67.1868V28.9993H66.4737C65.4144 28.9993 64.8241 28.3917 64.8241 27.4221ZM69.6151 21.3379C69.6151 21.8103 69.2468 22.1717 68.7792 22.1717C68.6691 22.1734 68.5598 22.153 68.4577 22.1116C68.3556 22.0703 68.2629 22.0089 68.185 21.9311C68.107 21.8533 68.0455 21.7607 68.004 21.6587C67.9625 21.5567 67.9419 21.4474 67.9434 21.3372C67.9434 20.8648 68.3117 20.5034 68.7792 20.5034C69.2468 20.5034 69.6151 20.8648 69.6151 21.3379ZM69.4585 23.1634V29H68.0985V23.1641H69.4585V23.1634ZM72.2565 29.1462C71.1537 29.1462 70.4068 28.4924 70.4068 27.4C70.4068 26.2517 71.2758 25.8117 72.2241 25.6876L73.4489 25.529C73.9172 25.4848 74.0282 25.2703 74.0282 24.9324C74.0282 24.4359 73.7054 24.0538 73.0261 24.0538C72.3344 24.0538 71.9675 24.4366 71.9117 24.9779H70.5296C70.5634 23.9855 71.3882 23.0179 72.9917 23.0179C74.5075 23.0179 75.3992 23.9186 75.3992 25.2483V27.9972C75.3992 28.3586 75.4544 28.7186 75.522 29H74.1179C74.0807 28.7502 74.0622 28.498 74.0627 28.2455H74.0282C73.7268 28.751 73.0923 29.1462 72.2565 29.1462ZM73.3041 26.3186L72.7027 26.4531C72.1337 26.5772 71.7779 26.8145 71.7779 27.3428C71.7779 27.8738 72.0903 28.1428 72.6916 28.1428C73.3937 28.1428 74.0399 27.6814 74.0399 26.9152V26.0021C73.8723 26.1717 73.6041 26.2503 73.3041 26.3186ZM82.2172 21C83.922 21 85.0027 21.9793 85.0027 23.5903C85.0027 25.2359 83.911 26.2041 82.2172 26.2041H80.222V29H78.7854V21H82.2172ZM83.5434 23.5917C83.5434 22.6 82.942 22.1834 81.9503 22.1834H80.2234V25.0228H81.9503C82.942 25.0228 83.5434 24.6276 83.5434 23.5917ZM88.0675 23.0276C89.7392 23.0276 90.8537 24.2338 90.8537 26.0924C90.8537 27.951 89.7392 29.1455 88.0675 29.1455C86.3965 29.1455 85.282 27.951 85.282 26.0924C85.282 24.2338 86.3965 23.0276 88.0675 23.0276ZM89.471 25.8566C89.471 24.7634 88.9358 24.1214 88.0668 24.1214C87.1972 24.1214 86.6627 24.7634 86.6627 25.8566V26.3297C86.6627 27.4221 87.1972 28.0538 88.0668 28.0538C88.9358 28.0538 89.471 27.4221 89.471 26.3297V25.8566ZM92.8254 27.3097C92.9144 27.8269 93.2592 28.1434 93.9841 28.1434C94.653 28.1434 95.0316 27.8607 95.0316 27.3779C95.0316 26.9834 94.8868 26.7462 94.2634 26.6676L93.2268 26.5434C92.0461 26.4083 91.5551 25.8441 91.5551 24.9324C91.5551 23.8172 92.491 23.0179 93.9399 23.0179C95.4551 23.0179 96.1903 23.9076 96.2579 24.7862H94.9206C94.8537 24.3138 94.5192 24.0207 93.9179 24.0207C93.2937 24.0207 92.8923 24.3138 92.8923 24.7648C92.8923 25.1366 93.093 25.351 93.762 25.4297L94.7875 25.5538C95.9234 25.6883 96.3696 26.2186 96.3696 27.1876C96.3696 28.3931 95.333 29.1469 93.9744 29.1469C92.4027 29.1469 91.5668 28.3703 91.4565 27.3103L92.8254 27.3097ZM97.8503 24.1772H96.7475V23.1634H97.862V21H99.2096V23.1628H100.536V24.1766H99.2096V27.1731C99.2096 27.7034 99.4772 27.9179 99.9903 27.9179H100.547V28.9993H99.7558C98.4744 28.9993 97.8503 28.4131 97.8503 27.2641V24.1772Z" fill="#DC1928"/>
</g>
<defs>
<clipPath>
<rect width="93.1034" height="20" fill="white" transform="translate(7.45856 15)"/>
</clipPath>
</defs>
</symbol>

<symbol id="colissimo" width="101" height="50" viewBox="0 0 101 50" fill="none">
<g clip-path="url(#clip0_8714_7628)">
<path d="M16.6817 14.0782L8.03914 18.8488L17.7267 24.3412C17.7732 24.3694 17.812 24.4088 17.8395 24.4557C17.8669 24.5026 17.8823 24.5557 17.8841 24.61V32.86C17.8821 32.9147 17.8664 32.968 17.8384 33.0149C17.8104 33.0619 17.7711 33.1011 17.7239 33.1289L17.2056 33.4162C17.1577 33.4407 17.1046 33.4532 17.0509 33.4527H17.0406C16.9836 33.4556 16.9268 33.444 16.8756 33.419L16.3572 33.1295C16.3108 33.1012 16.2722 33.0618 16.2447 33.0149C16.2172 32.968 16.2018 32.9151 16.1998 32.8607V25.5045C16.1962 25.4762 16.1867 25.4489 16.1721 25.4244C16.1574 25.3999 16.1378 25.3787 16.1145 25.3622L7.56957 20.5146L7.56201 30.1568C7.5689 30.276 7.60357 30.3919 7.66326 30.4953C7.72295 30.5986 7.80599 30.6866 7.90576 30.7522L16.7058 35.916C16.8105 35.9707 16.9269 35.9993 17.045 35.9993C17.1632 35.9993 17.2796 35.9707 17.3843 35.916L26.0654 30.7446C26.1639 30.6777 26.2456 30.589 26.3043 30.4854C26.363 30.3818 26.3969 30.266 26.4036 30.1472V20.4115L20.6245 23.8861C20.5779 23.9115 20.5256 23.9247 20.4726 23.9246C20.4154 23.9258 20.3591 23.9105 20.3103 23.8806L19.8071 23.5678C19.7622 23.5369 19.7251 23.4959 19.6987 23.4482C19.6724 23.4005 19.6574 23.3473 19.6551 23.2928V22.6954C19.6578 22.6412 19.6735 22.5885 19.7009 22.5417C19.7283 22.4949 19.7666 22.4554 19.8126 22.4265H19.8181C19.8375 22.3992 19.862 22.3759 19.8903 22.3578L25.8337 18.7828L17.3774 14.0824C17.271 14.0282 17.1531 14.0007 17.0337 14.0019C16.9145 13.999 16.7964 14.0257 16.6899 14.0796" fill="url(#paint0_linear_8714_7628)"/>
<path d="M51.606 28.4774H51.5985C51.4318 28.4787 51.2667 28.4444 51.1144 28.3767C50.9621 28.3089 50.826 28.2094 50.7153 28.0848C50.6046 27.9602 50.5219 27.8133 50.4726 27.6541C50.4234 27.4948 50.4088 27.3269 50.4297 27.1615V18.8462H48.3191V27.2976C48.3191 29.6021 49.6095 30.3556 51.6095 30.3659L51.606 28.4774Z" fill="#414042"/>
<path d="M38.7621 22.8303C38.0896 22.421 37.3118 22.2181 36.525 22.2467C35.9735 22.2199 35.4226 22.3088 34.9076 22.5078C34.3925 22.7068 33.9249 23.0114 33.5347 23.4021C33.1446 23.7927 32.8405 24.2607 32.6421 24.7759C32.4437 25.2912 32.3554 25.8422 32.3828 26.3937C32.3483 26.9467 32.4326 27.5007 32.6302 28.0184C32.8277 28.5361 33.1339 29.0055 33.528 29.395C33.9222 29.7845 34.3952 30.085 34.9152 30.2763C35.4353 30.4677 35.9903 30.5454 36.5429 30.5042C37.3459 30.5245 38.1388 30.3225 38.8343 29.9205V27.9185C38.2701 28.3753 37.5665 28.6252 36.8406 28.6267C36.5338 28.6507 36.2254 28.6089 35.9361 28.5042C35.6468 28.3995 35.3832 28.2342 35.1628 28.0195C34.9425 27.8047 34.7705 27.5454 34.6583 27.2589C34.5462 26.9723 34.4966 26.6652 34.5127 26.3579C34.4919 26.0588 34.5356 25.7588 34.6409 25.4781C34.7463 25.1974 34.9107 24.9427 35.1232 24.7311C35.3356 24.5196 35.5911 24.3562 35.8722 24.2521C36.1533 24.148 36.4536 24.1055 36.7526 24.1277C37.4883 24.1145 38.203 24.3729 38.7601 24.8537L38.7621 22.8303ZM43.4949 22.2467C42.679 22.2467 41.8815 22.4886 41.2031 22.9418C40.5248 23.3951 39.9961 24.0393 39.6839 24.7931C39.3717 25.5468 39.2899 26.3762 39.4491 27.1764C39.6083 27.9766 40.0012 28.7116 40.578 29.2885C41.1549 29.8654 41.8899 30.2582 42.6901 30.4174C43.4903 30.5766 44.3197 30.4949 45.0734 30.1827C45.8272 29.8704 46.4714 29.3417 46.9247 28.6634C47.3779 27.985 47.6199 27.1875 47.6199 26.3717C47.6429 25.8238 47.552 25.2771 47.3528 24.7662C47.1536 24.2554 46.8507 23.7914 46.4629 23.4036C46.0752 23.0159 45.6112 22.7129 45.1003 22.5137C44.5894 22.3146 44.0427 22.2236 43.4949 22.2467ZM43.4949 28.6576C42.3488 28.6576 41.5204 27.7886 41.5204 26.373C41.5204 24.9575 42.3454 24.0885 43.4949 24.0885C44.6444 24.0885 45.4693 24.9575 45.4693 26.373C45.4693 27.7886 44.6444 28.6576 43.4949 28.6576ZM56.1222 29.7755C56.9009 30.214 57.7835 30.4344 58.6769 30.4135C60.5091 30.4135 61.7968 29.6332 61.7968 27.9158C61.7968 26.5002 61.1093 25.7192 59.0819 25.3459C58.3414 25.1699 58.0602 24.9568 58.0602 24.5498C58.0602 24.1792 58.3593 23.8781 59.064 23.8781C59.8713 23.892 60.6539 24.1587 61.3018 24.6405V22.7451C60.6005 22.3417 59.8013 22.1397 58.9925 22.1614C57.3026 22.1614 55.9964 22.9575 55.9964 24.6949C55.9964 26.129 56.7368 26.8371 58.5154 27.1582C59.3796 27.3342 59.715 27.5287 59.715 28.0086C59.715 28.5036 59.2737 28.6961 58.6233 28.6961C57.7195 28.6573 56.8478 28.3494 56.1201 27.812V29.7727L56.1222 29.7755ZM52.695 30.3255H54.8166V22.4062H52.695V30.3255ZM53.7558 19.2437C53.5449 19.2427 53.3384 19.3044 53.1625 19.4209C52.9866 19.5374 52.8493 19.7035 52.7679 19.8981C52.6865 20.0928 52.6647 20.3072 52.7053 20.5142C52.7458 20.7212 52.8469 20.9116 52.9958 21.0611C53.1446 21.2106 53.3345 21.3126 53.5413 21.3541C53.7481 21.3956 53.9627 21.3748 54.1577 21.2942C54.3527 21.2137 54.5194 21.0772 54.6367 20.9018C54.754 20.7265 54.8166 20.5203 54.8166 20.3093C54.817 20.1697 54.7898 20.0313 54.7367 19.9022C54.6836 19.773 54.6055 19.6556 54.507 19.5567C54.4085 19.4577 54.2914 19.3791 54.1626 19.3254C54.0337 19.2717 53.8955 19.2439 53.7558 19.2437ZM89.1462 22.2467C88.3304 22.2467 87.5329 22.4886 86.8545 22.9418C86.1762 23.3951 85.6475 24.0393 85.3353 24.7931C85.023 25.5468 84.9414 26.3762 85.1005 27.1764C85.2597 27.9766 85.6526 28.7116 86.2295 29.2885C86.8063 29.8654 87.5413 30.2582 88.3415 30.4174C89.1416 30.5766 89.9711 30.4949 90.7248 30.1827C91.4786 29.8704 92.1228 29.3417 92.5761 28.6634C93.0293 27.985 93.2712 27.1875 93.2712 26.3717C93.294 25.8239 93.203 25.2773 93.0038 24.7665C92.8045 24.2557 92.5015 23.7918 92.1138 23.4041C91.7261 23.0164 91.2622 22.7134 90.7514 22.5141C90.2406 22.3149 89.694 22.2238 89.1462 22.2467ZM89.1462 28.6576C88.0002 28.6576 87.1724 27.7886 87.1724 26.373C87.1724 24.9575 87.9974 24.0885 89.1462 24.0885C90.295 24.0885 91.1208 24.9575 91.1208 26.373C91.1208 27.7886 90.2923 28.6576 89.1462 28.6576ZM62.5091 29.7755C63.2878 30.214 64.1704 30.4344 65.0638 30.4135C66.8988 30.4135 68.1837 29.6332 68.1837 27.9158C68.1837 26.5002 67.4962 25.7192 65.4687 25.3459C64.7283 25.1699 64.4471 24.9568 64.4471 24.5498C64.4471 24.1792 64.7462 23.8781 65.4536 23.8781C66.2607 23.8921 67.0431 24.1588 67.6907 24.6405V22.7451C66.9894 22.3416 66.1903 22.1396 65.3814 22.1614C63.6909 22.1614 62.3853 22.9575 62.3853 24.6949C62.3853 26.129 63.1264 26.8371 64.9043 27.1582C65.7692 27.3342 66.104 27.5287 66.104 28.0086C66.104 28.5036 65.6626 28.6961 65.0122 28.6961C64.1084 28.6575 63.2367 28.3496 62.5091 27.812V29.7755ZM69.0919 30.3255H71.2128V22.4062H69.0953L69.0919 30.3255ZM70.1527 19.2437C69.9417 19.2427 69.7352 19.3044 69.5593 19.4209C69.3835 19.5374 69.2461 19.7035 69.1647 19.8981C69.0833 20.0928 69.0616 20.3072 69.1021 20.5142C69.1427 20.7212 69.2438 20.9116 69.3927 21.0611C69.5415 21.2106 69.7314 21.3126 69.9382 21.3541C70.1451 21.3956 70.3595 21.3748 70.5545 21.2942C70.7495 21.2137 70.9163 21.0772 71.0336 20.9018C71.1509 20.7265 71.2135 20.5203 71.2135 20.3093C71.2141 20.0273 71.1026 19.7567 70.9037 19.5569C70.7048 19.3571 70.4346 19.2444 70.1527 19.2437ZM82.0416 25.3844C82.0416 24.5519 81.6731 24.127 80.844 24.127C80.3352 24.12 79.8308 24.2227 79.3652 24.4281C79.4701 24.6866 79.5236 24.9631 79.5226 25.2421V30.322H77.3914V25.3844C77.3914 24.5519 77.0043 24.127 76.1937 24.127C75.7459 24.1241 75.3003 24.1897 74.8724 24.3215V30.3227H72.759V22.9417C73.8886 22.5028 75.0878 22.2699 76.2996 22.2542C77.0708 22.2145 77.8333 22.4321 78.4673 22.873C79.2957 22.4675 80.2056 22.2559 81.1279 22.2542C82.9966 22.2542 84.1756 22.9802 84.1756 25.2985V30.3241H82.0444V25.3865L82.0416 25.3844Z" fill="#414042"/>
</g>
<defs>
<linearGradient x1="7.63738" y1="30.6539" x2="27.1378" y2="21.7538" gradientUnits="userSpaceOnUse">
<stop stop-color="#F37021"/>
<stop offset="0.168" stop-color="#F47421"/>
<stop offset="0.387" stop-color="#F58022"/>
<stop offset="0.636" stop-color="#F79323"/>
<stop offset="0.903" stop-color="#FBAD26"/>
<stop offset="1" stop-color="#FDB927"/>
</linearGradient>
<clipPath id="clip0_8714_7628">
<rect width="85.7079" height="22" fill="white" transform="translate(7.56201 14)"/>
</clipPath>
</defs>
</symbol>

<symbol id="correos" width="47" height="50" viewBox="0 0 47 50" fill="none">
<g clip-path="url(#clip0_8758_3085)">
<path fill-rule="evenodd" clip-rule="evenodd" d="M29.1399 22.6517H23.2703H17.4007V21.6604V20.6691H23.2703H29.1399V21.6604V22.6517ZM25.2268 32.0678C25.2268 30.9721 24.3503 30.0839 23.2703 30.0839C22.189 30.0839 21.3138 30.9721 21.3138 32.0678C21.3138 33.1621 22.189 34.0504 23.2703 34.0504C24.3503 34.0504 25.2268 33.1621 25.2268 32.0678ZM23.2703 38.0169C30.1703 38.0169 35.8925 32.8465 36.829 26.1186H34.8477C33.9203 31.7469 29.0877 36.033 23.2703 36.033C21.109 36.033 19.3599 34.2578 19.3599 32.0678C19.3599 29.8778 21.109 28.1039 23.2703 28.1039C25.4316 28.1039 27.1833 29.8256 27.1833 32.0678C27.1833 32.5047 27.0959 32.9182 26.9668 33.3121C27.7481 32.9886 28.4733 32.5608 29.1399 32.0547C29.1399 28.7821 26.5103 26.1199 23.2703 26.1199C20.029 26.1199 17.4007 28.7821 17.4007 32.0678C17.4007 35.3521 20.029 38.0169 23.2703 38.0169ZM9.72986 26.1186C10.3507 30.5026 12.9764 34.2239 16.6507 36.2847C15.8903 35.0626 15.4442 33.6199 15.4442 32.0678V26.1186H9.72986ZM33.0529 24.136H38.9225C38.9225 32.8973 31.9142 39.9995 23.2703 39.9995C14.6264 39.9995 7.61812 32.8973 7.61812 24.136H17.4007V26.8347C18.8342 25.1834 20.929 24.136 23.2703 24.136C27.0033 24.136 30.1207 26.7865 30.902 30.3317C32.2468 28.6347 33.0529 26.4813 33.0529 24.136ZM28.1616 13.2291C30.3216 13.2291 32.0746 15.0043 32.0746 17.1943V19.1782H30.1181V17.1943C30.1181 16.0999 29.2416 15.2117 28.1616 15.2117C27.9868 15.2117 27.8199 15.243 27.6581 15.286C27.9686 15.8547 28.1616 16.4991 28.1616 17.1943V19.1782H26.2051V17.1943C26.2051 16.0999 25.3286 15.2117 24.2486 15.2117V19.1782H22.292V15.2117C21.2107 15.2117 20.3355 16.0999 20.3355 17.1943V19.1782H18.379V17.1943C18.379 16.4991 18.5707 15.8547 18.8825 15.2873C18.7207 15.243 18.5538 15.2117 18.379 15.2117C17.2977 15.2117 16.4225 16.0999 16.4225 17.1943V19.1782H14.4659V17.1943C14.4659 15.0043 16.2177 13.2291 18.379 13.2291C19.0977 13.2291 19.7681 13.4299 20.3459 13.773C20.9212 13.4365 21.5799 13.2291 22.292 13.2291C22.6246 13.2291 22.9416 13.2852 23.2494 13.3634C23.569 13.2786 23.9029 13.2291 24.2486 13.2291C24.9646 13.2291 25.6259 13.4378 26.2038 13.7782C26.7816 13.4378 27.4455 13.2291 28.1616 13.2291ZM23.6968 10.9347H24.619V11.7995H23.6968V12.7334H22.8438V11.7995H21.9216V10.9347H22.8438V9.99951H23.6968V10.9347Z" fill="#002453"/>
</g>
<defs>
<clipPath>
<rect width="31.3043" height="30" fill="white" transform="translate(7.61772 10)"/>
</clipPath>
</defs>
</symbol>

<symbol id="deutsche_post" width="61" height="50" viewBox="0 0 61 50" fill="none">
<g clip-path="url(#clip0_8714_7585)">
<path d="M53.4586 2H7.45856V48H53.4586V2Z" fill="#FFCC00"/>
<path d="M26.1075 32.0025H30.1154L26.0676 36.0893H22.0592L26.1075 32.0025ZM16.6523 36.0893H20.6616L24.708 32.0025H20.7006L16.6523 36.0893ZM35.0544 32.0025H31.0456L35.0938 36.0893H39.1022L35.0544 32.0025ZM40.4613 32.0025H36.4525L40.5003 36.0893H44.5082L40.4613 32.0025ZM46.3922 15.6516C45.8233 23.9783 39.5636 31.271 30.2759 31.2674C19.7698 31.2643 15.7081 22.1518 16.2551 15.2471L19.3408 14.2677C18.8391 18.1972 20.0585 21.0313 20.8991 22.3301C19.898 16.7712 24.1045 12.2714 29.3695 12.2678C34.1054 12.2647 38.0223 15.7148 38.0035 20.6644C38.6983 18.7751 39.1821 15.8989 39.2816 13.8856L46.3922 15.6516ZM35.0751 20.8391C35.0751 17.7035 32.5278 15.162 29.3834 15.162C26.2412 15.162 23.6934 17.7035 23.6934 20.8391C23.6934 23.9747 26.2412 26.5163 29.3834 26.5163C32.5278 26.5163 35.0751 23.9747 35.0751 20.8391Z" fill="black"/>
</g>
<defs>
<clipPath>
<rect width="46" height="46" fill="white" transform="translate(7.45856 2)"/>
</clipPath>
</defs>
</symbol>

<symbol id="dhl" width="94" height="50" viewBox="0 0 94 50" fill="none">
<g clip-path="url(#clip0_8714_7499)">
<path d="M7.20093 29.675H16.7709L16.2209 30.445H7.20093V29.675Z" fill="#D40511"/>
<path d="M86.1259 30.445H74.4109L75.016 29.675H86.1809V30.445H86.1259Z" fill="#D40511"/>
<path d="M7.20093 28.2451H17.8709L17.2659 29.0151H7.20093L7.20093 28.2451Z" fill="#D40511"/>
<path d="M7.20093 26.8152H18.9709L18.3659 27.5852H7.20093L7.20093 26.8152Z" fill="#D40511"/>
<path d="M86.1259 29.0151H75.5109L76.1159 28.2451H86.1809V29.0151H86.1259Z" fill="#D40511"/>
<path d="M77.1609 26.8152H86.1259V27.5852H76.5559L77.1609 26.8152Z" fill="#D40511"/>
<path d="M17.5409 30.4452L22.6009 23.6802H28.8709C29.5859 23.6802 29.5859 23.9552 29.2009 24.3952C28.8709 24.8352 28.2659 25.6602 27.9359 26.1002C27.7709 26.3752 27.4409 26.7602 28.4859 26.7602H36.9009C36.2409 27.7502 33.9309 30.5002 29.8609 30.5002C26.5609 30.4452 17.5409 30.4452 17.5409 30.4452Z" fill="#D40511"/>
<path d="M46.5259 26.8152L43.7759 30.5002H36.5709L39.3209 26.8152H46.5259Z" fill="#D40511"/>
<path d="M57.0309 26.8152L54.2809 30.5002H47.0209L49.7709 26.8152H57.0309Z" fill="#D40511"/>
<path d="M59.3959 26.8152C59.3959 26.8152 58.8459 27.5302 58.6259 27.8602C57.6909 29.0702 58.5159 30.5002 61.4859 30.5002H73.1459L75.8959 26.8152H59.3959Z" fill="#D40511"/>
<path d="M21.1159 19.5001L18.5859 22.8551H32.3359C33.0509 22.8551 33.0509 23.1301 32.6659 23.5701C32.3359 24.0101 31.7309 24.8351 31.4009 25.2751C31.2359 25.4951 30.9059 25.9351 31.9509 25.9351H37.5609C37.5609 25.9351 38.4959 24.7251 39.2109 23.6801C40.2559 22.3051 39.3209 19.4451 35.6359 19.4451C32.3359 19.5001 21.1159 19.5001 21.1159 19.5001Z" fill="#D40511"/>
<path d="M57.6359 25.935H39.9259L44.7659 19.5H52.0259L49.2759 23.185H52.5209L55.2709 19.5H62.5309L57.6359 25.935Z" fill="#D40511"/>
<path d="M72.5409 19.5L67.7009 25.935H60.0009L64.8409 19.5H72.5409Z" fill="#D40511"/>
</g>
<defs>
<clipPath>
<rect width="78.925" height="11" fill="white" transform="translate(7.20093 19.5)"/>
</clipPath>
</defs>
</symbol>

<symbol id="dpd" width="71" height="50" viewBox="0 0 71 50" fill="none">
<g clip-path="url(#clip0_8714_7596)">
<path d="M44.0486 30.66C43.0086 30.93 41.6586 31.06 40.4886 31.06C37.4886 31.06 35.4886 29.46 35.4886 26.53C35.4886 23.76 37.3386 21.96 40.0586 21.96C40.6586 21.96 41.3086 22.04 41.6986 22.24V18.2H44.0486V30.65V30.66ZM41.6986 24.31C41.2447 24.1129 40.7532 24.0174 40.2586 24.03C38.8286 24.03 37.8686 24.91 37.8686 26.46C37.8686 28.12 38.9086 29.06 40.5686 29.06C40.8686 29.06 41.3086 29.03 41.6986 28.96V24.3V24.31ZM63.2786 30.66C62.2386 30.93 60.8986 31.06 59.7186 31.06C56.7186 31.06 54.7186 29.46 54.7186 26.53C54.7186 23.76 56.5786 21.96 59.2886 21.96C59.8986 21.96 60.5386 22.04 60.9386 22.24V18.2H63.2786V30.65V30.66ZM60.9386 24.31C60.4816 24.1115 59.9866 24.0159 59.4886 24.03C58.0586 24.03 57.1086 24.91 57.1086 26.46C57.1086 28.12 58.1386 29.06 59.8086 29.06C60.0986 29.06 60.5486 29.03 60.9386 28.96V24.3V24.31ZM47.7386 24.29C48.1186 24.13 48.6686 24.07 49.1386 24.07C50.5786 24.07 51.5786 24.91 51.5786 26.42C51.5786 28.19 50.4786 28.99 48.9986 29.02V31.06H49.1186C52.1486 31.06 53.9586 29.36 53.9586 26.34C53.9586 23.58 52.0286 21.96 49.1786 21.96C47.7286 21.96 46.3086 22.3 45.3686 22.69V34.3899H47.7286V24.29H47.7386Z" fill="#3C3C3B"/>
<path d="M22.7586 23.7101C22.7063 23.7381 22.6479 23.7527 22.5886 23.7527C22.5292 23.7527 22.4708 23.7381 22.4186 23.7101L21.8686 23.3701C21.8198 23.3399 21.7787 23.2988 21.7486 23.2501V23.2401C21.7133 23.1863 21.6926 23.1243 21.6886 23.0601L21.6686 22.4101C21.6695 22.3498 21.6856 22.2908 21.7153 22.2384C21.745 22.186 21.7874 22.1418 21.8386 22.1101L28.5386 18.2101L19.1386 13.0901C19.0201 13.0326 18.8902 13.0027 18.7586 13.0027C18.6269 13.0027 18.497 13.0326 18.3786 13.0901L8.97856 18.2001L19.5086 24.3301C19.5597 24.3618 19.6021 24.406 19.6318 24.4584C19.6615 24.5108 19.6776 24.5698 19.6786 24.6301V33.5701C19.6776 33.6303 19.6615 33.6893 19.6318 33.7417C19.6021 33.7942 19.5597 33.8383 19.5086 33.8701L18.9386 34.1701C18.8868 34.2003 18.8284 34.2174 18.7686 34.2201H18.7586C18.6961 34.2221 18.6342 34.2084 18.5786 34.1801L18.0086 33.8601C17.9555 33.8295 17.9112 33.7859 17.8797 33.7334C17.8482 33.6809 17.8306 33.6212 17.8286 33.5601V25.6001C17.8248 25.5676 17.8139 25.5365 17.7966 25.5088C17.7793 25.4811 17.756 25.4576 17.7286 25.4401L8.45856 20.0501V30.6301C8.45856 30.8601 8.62856 31.1601 8.82856 31.2801L18.3886 36.9101C18.5033 36.9681 18.63 36.9983 18.7586 36.9983C18.8871 36.9983 19.0138 36.9681 19.1286 36.9101L28.6886 31.2801C28.8886 31.1501 29.0586 30.8601 29.0586 30.6301V20.0501L22.7586 23.7101Z" fill="url(#paint0_linear_8714_7596)"/>
</g>
<defs>
<linearGradient x1="8.55856" y1="33.3701" x2="18.9886" y2="24.6201" gradientUnits="userSpaceOnUse">
<stop stop-color="#BE0737"/>
<stop offset="0.04" stop-color="#C00736"/>
<stop offset="0.63" stop-color="#D8062C"/>
<stop offset="1" stop-color="#E10528"/>
</linearGradient>
<clipPath id="clip0_8714_7596">
<rect width="56" height="24" fill="white" transform="translate(7.45856 13)"/>
</clipPath>
</defs>
</symbol>

<symbol id="ems" width="73" height="50" viewBox="0 0 73 50" fill="none">
<path fill-rule="evenodd" clip-rule="evenodd" d="M40.201 17.5H32.5025L28.5342 32.5H36.2327L37.0264 29.6429H33.8518L34.8041 26.0714H37.3438L38.1375 23.2143H35.5977L36.3121 20.4365H39.4867L40.201 17.5ZM49.4073 17.5L46.1533 24.3254H45.9152L46.312 17.5H41.4708L37.5025 32.5H41.7089L43.2962 26.0714H43.3756L43.2168 32.5H44.6454L47.8993 26.0714H47.9787L46.074 32.5H50.2803L54.2485 17.5H49.4073ZM65.2009 19.5635L63.2168 17.5H58.4549L55.3597 19.5635L54.0898 24.246L56.312 26.3095L59.0104 26.5476L58.2168 29.6429H57.1851L57.7406 27.6587H53.2168L52.5025 30.4365L54.4867 32.5H59.566L62.6612 30.4365L63.9311 25.6746L61.7089 23.6111L59.0104 23.373L59.8041 20.4365H60.8359L60.2803 22.4206H64.4866L65.2009 19.5635Z" fill="#0033A1"/>
<path fill-rule="evenodd" clip-rule="evenodd" d="M7.97876 17.5H30.5978L30.0422 19.4841H10.5184L7.97876 17.5ZM29.8041 20.3571L29.3279 22.0238H13.5343L11.5502 20.3571H29.8041ZM29.1692 22.8175L28.6137 24.881H17.1057L14.566 22.8175H29.1692ZM28.3755 25.754L27.8994 27.4206H20.1216L18.1374 25.754H28.3755ZM27.6612 28.2143L26.4708 32.5L21.1533 28.2143H27.6612Z" fill="#FF8400"/>
</symbol>

<symbol id="fedex" width="80" height="50" viewBox="0 0 80 50" fill="none">
<path d="M56.2916 15V19.2614H50.06V22.1023H56.2916V26.0795H50.06V30.0568H56.2916V34.3182H45.528V15H56.2916ZM61.9566 34.3182H56.2916L61.6734 28.0682L56.2916 22.1023H61.9566L64.7891 24.9432L67.3384 22.1023H73.0035L67.3384 28.0682L73.0035 34.3182H67.0552L64.5059 31.1932L61.9566 34.3182Z" fill="#FF6600"/>
<path d="M41.1092 15V22.8977H41.0809C40.0895 21.7614 38.8432 21.3636 37.3703 21.3636C34.4245 21.3636 32.1868 23.3807 31.422 26.0511C30.5156 23.0966 28.2212 21.3068 24.7939 21.3068C22.018 21.3068 19.8369 22.5284 18.7039 24.5739V22.0455H12.9539V19.2898H19.2138V15H7.85535V34.2898H12.9539V26.1932H18.0524C17.9108 26.7898 17.8258 27.4148 17.8258 28.0966C17.8258 32.1023 20.885 34.9432 24.7939 34.9432C28.0796 34.9432 30.2606 33.3807 31.3936 30.5682H27.0316C26.4367 31.4205 25.9835 31.6761 24.7939 31.6761C23.4342 31.6761 22.2446 30.4545 22.2446 29.0341H31.167C31.5353 32.2443 34.0279 35 37.4269 35C38.8998 35 40.2595 34.2614 41.0809 33.0398H41.1092V34.2898H45.6129V15H41.1092ZM22.3862 26.25C22.6695 25.0284 23.6042 24.2045 24.7939 24.2045C26.0968 24.2045 27.0032 25 27.2298 26.25H22.3862ZM38.39 31.3636C36.7188 31.3636 35.6991 29.8011 35.6991 28.1818C35.6991 26.4489 36.6055 24.8011 38.39 24.8011C40.2595 24.8011 40.9959 26.4489 40.9959 28.1818C40.9959 29.8295 40.2028 31.3636 38.39 31.3636Z" fill="#4D148C"/>
</symbol>

<symbol id="gls" width="70" height="50" viewBox="0 0 70 50" fill="none">
<path d="M58.9293 33.9217C60.5697 33.9217 61.8996 32.5963 61.8996 30.9613C61.8996 29.3263 60.5697 28.001 58.9293 28.001C57.289 28.001 55.9593 29.3263 55.9593 30.9613C55.9593 32.5963 57.289 33.9217 58.9293 33.9217Z" fill="#FFD100"/>
<path d="M16.6014 24.3846V28.2579H19.8345C19.3621 28.9968 18.297 29.3904 17.5749 29.3904C15.1413 29.3904 13.9245 28.0079 13.9245 25.2179C13.9245 22.137 15.5305 20.5605 18.7188 20.5605C19.9843 20.5605 21.6396 20.8756 23.4159 21.4339V16.8007C22.9044 16.5825 22.126 16.4128 21.1281 16.2425C20.1059 16.0727 19.2052 16 18.4263 16C15.2622 16 12.7556 16.8492 10.882 18.5469C9.00782 20.2453 8.05856 22.5255 8.05856 25.4124C8.05856 28.0563 8.78894 30.1426 10.249 31.6713C11.7091 33.2235 13.6806 34 16.1629 34C18.6554 34 20.9457 32.7106 21.6837 31.0735L21.6678 33.7085H25.2734V24.3846H16.6014Z" fill="#061AB1"/>
<path d="M27.0734 33.7085V16.291H32.6711V29.1723H38.7796V33.7085H27.0734Z" fill="#061AB1"/>
<path d="M40.8222 33.272V28.5176C41.6498 28.7843 42.6234 29.0025 43.7186 29.1971C44.8138 29.391 45.7631 29.4881 46.5664 29.4881C47.9292 29.4881 48.6352 29.1486 48.6352 28.5419C48.6352 28.154 48.4163 27.9594 47.4184 27.7412L45.4712 27.3048C42.1369 26.5526 40.5796 24.8791 40.5796 22.0406C40.5796 20.1725 41.2369 18.693 42.5268 17.6014C43.8153 16.5334 45.6165 16 47.8799 16C49.4373 16 51.8229 16.3152 53.283 16.6795V21.2157C52.5283 21.0217 51.6283 20.8278 50.5331 20.6574C49.4379 20.4877 48.5859 20.415 47.9535 20.415C46.761 20.415 46.0793 20.7544 46.0793 21.3611C46.0793 21.7248 46.3955 21.9679 47.0529 22.1376L49.3163 22.671C52.6263 23.4474 54.1593 25.1451 54.1593 28.0321C54.1593 29.876 53.4776 31.3312 52.1391 32.3986C50.8007 33.466 48.9508 33.9993 46.5901 33.9993C44.351 33.9993 42.0876 33.6842 40.8222 33.272Z" fill="#061AB1"/>
</symbol>

<symbol id="postnl" width="57" height="50" viewBox="0 0 57 50" fill="none">
<g clip-path="url(#clip0_8714_7579)">
<path d="M21.7717 22.8025C20.1418 22.8025 18.8308 23.7064 18.8308 25.7419C18.8308 27.732 20.1418 28.6815 21.7717 28.6815C23.3959 28.6815 24.7098 27.732 24.7098 25.7419C24.7098 23.7064 23.3959 22.8025 21.7717 22.8025ZM21.7717 27.2836C21.0428 27.2836 20.4977 26.7299 20.4977 25.7419C20.4977 24.6672 21.0428 24.1975 21.7717 24.1975C22.4962 24.1975 23.0429 24.6672 23.0429 25.7419C23.0429 26.7299 22.4962 27.2836 21.7717 27.2836ZM32.3639 22.8537C32.3639 22.8836 32.3881 22.9078 32.418 22.9078H33.655C33.7532 22.9078 33.8329 22.9889 33.8329 23.0843V24.1548C33.8329 24.1861 33.8087 24.2103 33.7788 24.2103H32.418C32.3881 24.2103 32.3639 24.2345 32.3639 24.2644V26.3427C32.3639 27.1398 32.6656 27.3761 33.1696 27.3761C33.4059 27.3761 33.7774 27.2309 33.8315 27.2309C33.8614 27.2309 33.887 27.2551 33.887 27.285V28.31C33.887 28.3868 33.8429 28.4409 33.7945 28.4665C33.5696 28.5875 33.1924 28.6701 32.6343 28.6701C31.6593 28.6701 30.7539 28.179 30.7539 26.6117V22.9975C30.7539 22.6772 30.8792 22.3726 31.077 22.1562C31.3404 21.8658 32.1874 21.322 32.297 21.322C32.344 21.322 32.3639 21.3363 32.3639 21.3804V22.8537ZM12.697 23.09C12.697 22.9889 12.7781 22.9092 12.8791 22.9092H15.023C17.1283 22.9092 18.2187 24.1733 18.2187 25.8089C18.2187 27.4459 16.9987 28.579 14.9888 28.579H14.3625C14.3325 28.579 14.3069 28.6032 14.3069 28.6345V31.2865C14.3069 31.3306 14.2884 31.3448 14.24 31.3448C14.1304 31.3448 13.2834 30.801 13.0201 30.5107C12.8222 30.2928 12.697 29.9882 12.697 29.6694V23.09ZM16.6286 25.7263C16.6286 25.0302 16.1788 24.3783 14.9902 24.3783H14.3596C14.3297 24.3783 14.3055 24.4025 14.3055 24.4338V27.0502C14.3055 27.08 14.3297 27.1057 14.3596 27.1057H15.0215C16.4379 27.1057 16.6286 26.122 16.6286 25.7263ZM29.9254 26.8309C29.9254 28.0252 29.0671 28.6815 27.3931 28.6815C26.435 28.6815 25.4229 28.3455 25.4144 28.3427C25.339 28.3142 25.2891 28.2459 25.2891 28.1676V27.0544C25.2891 27.0174 25.3205 26.989 25.3589 26.989C25.3646 26.989 25.3803 26.9918 25.3817 26.9932C25.739 27.1085 26.8977 27.3961 27.514 27.3961C27.8784 27.3961 28.0692 27.342 28.1916 27.2195C28.2756 27.1356 28.3141 27.0459 28.3141 26.9377C28.3141 26.5733 27.8571 26.4722 27.4144 26.3754C27.3589 26.364 27.3831 26.3698 27.2336 26.3341C26.2642 26.105 25.2422 25.8687 25.2422 24.6203C25.2422 24.0665 25.4742 23.6067 25.9084 23.2879C26.3411 22.969 26.966 22.8025 27.7147 22.8025C28.3881 22.8025 29.1867 23.0246 29.4543 23.1099C29.5383 23.137 29.5867 23.211 29.5867 23.2865V24.3968C29.5838 24.448 29.5297 24.4722 29.4927 24.458C28.7255 24.1704 28.0237 24.0694 27.5197 24.0694C27.1197 24.0694 26.8607 24.243 26.8607 24.5121C26.8607 24.8224 27.2393 24.9064 27.719 25.0146C27.7774 25.0274 28.0393 25.0872 28.1076 25.1014C28.5005 25.1882 28.9062 25.2765 29.2393 25.4943C29.7005 25.7961 29.9254 26.2331 29.9254 26.8309ZM38.6044 28.559C38.586 28.559 38.5703 28.5434 38.5703 28.5249V25.1469C38.5703 24.3968 38.3155 24.0765 37.7176 24.0765C37.5041 24.0765 37.2465 24.1562 36.9902 24.3014C36.7354 24.4494 36.5361 24.5719 36.465 24.6146C36.445 24.6274 36.4237 24.6615 36.4237 24.6886V28.5263C36.4237 28.5448 36.408 28.5605 36.3895 28.5605H34.8835C34.865 28.5605 34.8479 28.5448 34.8479 28.5263V23.0914C34.8479 23.0032 34.9205 22.9306 35.0101 22.9306H36.3909C36.4094 22.9306 36.4265 22.9462 36.4265 22.9647V23.3918C36.4265 23.4174 36.4479 23.4388 36.4735 23.4388C36.4834 23.4388 36.4963 23.4331 36.5005 23.4302L36.5461 23.3961C36.7141 23.2665 36.9731 23.1199 37.1468 23.053C37.524 22.9092 37.9311 22.8252 38.2614 22.8252C39.4927 22.8252 40.1433 23.5327 40.1433 24.8694V28.5234C40.1433 28.5434 40.1276 28.5576 40.1077 28.5576H38.6044V28.559ZM41.3859 28.559C41.3674 28.559 41.3518 28.5434 41.3518 28.5249V20.2018C41.3518 20.1718 41.3575 20.1633 41.3988 20.1633C41.4927 20.1633 42.3326 20.6915 42.6045 20.9904C42.8066 21.2124 42.9219 21.5142 42.9219 21.8188V28.5249C42.9219 28.5434 42.9062 28.559 42.8877 28.559H41.3859ZM21.7703 14.0922C21.7418 14.0922 21.7148 14.1007 21.682 14.1206C21.4286 14.3114 21.2052 14.532 21.0115 14.7797C20.9546 14.8438 20.9546 14.9178 21.0144 14.9946C21.198 15.2324 21.4087 15.4445 21.6393 15.6253C21.682 15.6594 21.7247 15.6751 21.7688 15.6751C21.813 15.6751 21.8557 15.658 21.8984 15.6238C22.129 15.443 22.3396 15.2309 22.5233 14.9946C22.5831 14.9178 22.5831 14.8438 22.5233 14.7754C22.334 14.5306 22.1105 14.3099 21.8628 14.1235C21.8272 14.1007 21.8002 14.0922 21.7703 14.0922ZM21.7703 16.132C21.6493 16.132 21.5212 16.1348 21.3888 16.1406C21.3418 16.1406 21.2991 16.1576 21.2664 16.1918C21.2194 16.2388 21.2009 16.3142 21.2009 16.364C21.2052 16.6245 21.2223 17.9996 21.2336 18.875C21.2393 19.2979 21.2422 19.6039 21.2436 19.6139C21.2436 19.6765 21.2891 19.8074 21.4301 19.8074H22.1119C22.213 19.8074 22.2827 19.7363 22.297 19.6224C22.297 19.6195 22.297 19.6167 22.297 19.6139C22.297 19.5925 22.3112 18.4238 22.3383 16.4067V16.3669C22.3396 16.3285 22.3269 16.2459 22.2742 16.1932C22.2415 16.159 22.1988 16.1434 22.1489 16.1434C22.0208 16.1363 21.8927 16.132 21.7703 16.132ZM23.4998 16.3185C23.3432 16.3185 23.2151 16.4053 23.1482 16.5548C22.9517 16.9918 22.8094 17.3903 22.6714 17.8858C22.6557 17.9441 22.6614 17.9925 22.6884 18.0281C22.7069 18.0523 22.7439 18.0808 22.818 18.0808H23.3504C23.4714 18.0808 23.5155 18.0167 23.5325 17.964C23.6194 17.6679 23.682 17.4957 23.793 17.2509C23.7945 17.248 23.803 17.2324 23.8358 17.2324C23.8485 17.2324 23.8614 17.2338 23.8742 17.2381L24.1446 17.3277C24.176 17.3391 24.1959 17.3662 24.2059 17.3875C24.2258 17.4288 24.2286 17.4843 24.2144 17.5256C24.2116 17.5342 23.6678 19.0544 23.5055 19.5612C23.4813 19.6395 23.4841 19.7007 23.5169 19.7463C23.5468 19.7875 23.598 19.8089 23.6692 19.8089H24.3283C24.4364 19.8089 24.5077 19.7662 24.539 19.6793C24.5632 19.6139 24.5973 19.5185 24.6372 19.406L24.6528 19.3633C24.8507 18.811 25.1511 17.974 25.2151 17.7363C25.3233 17.3334 25.3532 16.8921 24.7624 16.6729C24.5745 16.6032 24.3966 16.5434 24.2329 16.4936C24.0251 16.4295 23.8243 16.3825 23.6479 16.3413L23.6265 16.3356C23.5781 16.3227 23.5383 16.3185 23.4998 16.3185ZM20.0407 16.3185C20.0023 16.3185 19.9624 16.3227 19.924 16.3327L19.897 16.3384C19.7205 16.3797 19.5212 16.4267 19.3134 16.4907C19.151 16.5406 18.9731 16.6003 18.7838 16.6701C18.1916 16.8893 18.2229 17.3306 18.3311 17.7334C18.3923 17.9626 18.6713 18.7469 18.9076 19.4032C18.9489 19.5156 18.9816 19.611 19.0058 19.6765C19.0372 19.7633 19.1084 19.806 19.2165 19.806H19.8756C19.9639 19.806 20.0066 19.7718 20.0279 19.7434C20.0607 19.6993 20.0635 19.6381 20.0393 19.5597C19.8784 19.0601 19.3347 17.5384 19.329 17.5242C19.3147 17.4829 19.3176 17.4288 19.3376 17.3861C19.3475 17.3648 19.366 17.3377 19.4002 17.3263L19.6721 17.2366C19.682 17.2338 19.6948 17.2324 19.7076 17.2324C19.7347 17.2324 19.7475 17.2437 19.7503 17.2509C19.8628 17.5014 19.9268 17.6751 20.0108 17.964C20.0265 18.0181 20.0706 18.0808 20.1916 18.0808H20.7254C20.7838 18.0808 20.8279 18.0637 20.855 18.0281C20.882 17.9925 20.8877 17.9455 20.8706 17.8871C20.7311 17.389 20.5888 16.9903 20.3938 16.5548C20.361 16.4836 20.2628 16.3185 20.0407 16.3185ZM24.1945 20.3128H19.3532C19.1838 20.3128 19.04 20.4552 19.04 20.6245V21.2338C19.04 21.4245 19.1212 21.517 19.2905 21.517H24.2585C24.4265 21.517 24.5077 21.4245 24.5077 21.2338V20.6245C24.5077 20.4552 24.3639 20.3128 24.1945 20.3128ZM47.5084 25.0231C47.5027 21.6238 41.1169 15.7363 34.3127 11.9854C26.4635 7.65656 17.5311 5.10567 14.5888 6.72702C11.235 8.57756 9.39731 17.8145 9.39589 25.0231C9.39731 32.29 11.1283 41.4089 14.5888 43.3178C17.7247 45.0459 26.2685 42.495 34.3127 38.0608C41.2237 34.2501 47.5027 28.5875 47.5084 25.0231ZM16.9446 4.58325C21.8984 4.58325 29.8344 7.71492 35.1112 10.6245C38.1304 12.2886 41.5568 14.7171 44.2073 17.1882C46.7511 19.5584 49.1511 22.5092 49.1554 25.0231C49.1511 27.3904 47.2294 30.1676 44.1361 33.0032C41.5098 35.4089 38.0991 37.7747 35.1126 39.4217C30.0151 42.2317 22.2457 45.5142 17.124 45.5142C15.7319 45.5142 14.5902 45.2737 13.7275 44.7982C11.4599 43.5484 10.0066 40.1804 9.1482 36.8808C8.22578 33.3406 7.75176 29.0829 7.75034 25.0245C7.75034 21.053 8.26279 16.7854 9.15532 13.3149C10.2429 9.08858 11.8244 6.29998 13.7275 5.24944C14.5261 4.80674 15.6094 4.58325 16.9446 4.58325Z" fill="#F56900"/>
</g>
<defs>
<clipPath>
<rect width="42" height="42" fill="white" transform="translate(7.45856 4)"/>
</clipPath>
</defs>
</symbol>

<symbol id="tnt" width="79" height="50" viewBox="0 0 79 50" fill="none">
<path d="M64.2424 19.8857C64.3825 19.8857 64.5226 20.0258 64.5226 20.1659V22.1276C64.5226 22.2677 64.3825 22.4078 64.2424 22.4078H62.0005C61.7202 22.4078 61.44 22.3378 61.44 22.3378V30.1144C61.44 30.2545 61.2999 30.3947 61.1598 30.3947H58.7077C58.5675 30.3947 58.4274 30.2545 58.4274 30.1144V22.4779C58.4274 22.4779 58.2172 22.548 58.0071 22.548H55.625C55.4849 22.548 55.3448 22.4078 55.3448 22.2677V20.236C55.3448 20.0959 55.4849 19.9557 55.625 19.9557H64.2424V19.8857ZM14.2897 19.9557C14.1496 19.9557 14.0095 20.0959 14.0095 20.236V22.1977C14.0095 22.3378 14.1496 22.4779 14.2897 22.4779H16.6717C16.8819 22.4779 17.0921 22.4078 17.0921 22.4078V30.1845C17.0921 30.3246 17.2322 30.4647 17.3723 30.4647H19.8244C19.9646 30.4647 20.1047 30.3246 20.1047 30.1845V22.4779C20.1047 22.4779 20.3849 22.548 20.6652 22.548H22.9071C23.0472 22.548 23.1873 22.4078 23.1873 22.2677V20.236C23.1873 20.0959 23.0472 19.9557 22.9071 19.9557H14.2897ZM59.8987 13.3C55.4149 13.3 51.4915 15.8923 49.5298 19.6054C47.5681 15.8923 43.7149 13.3 39.231 13.3C34.7472 13.3 30.8939 15.8923 28.9322 19.6054C26.9705 15.8923 23.1173 13.3 18.6334 13.3C12.258 13.3 7.00348 18.5545 7.00348 25C7.00348 31.4456 12.1879 36.7 18.6334 36.7C23.1173 36.7 26.9705 34.1078 28.9322 30.3947C30.8939 34.1078 34.7472 36.7 39.231 36.7C43.7149 36.7 47.5681 34.1078 49.5298 30.3947C51.4915 34.1078 55.3448 36.7 59.8286 36.7C66.2041 36.7 71.4586 31.4456 71.4586 25C71.4586 18.5545 66.2741 13.3 59.8987 13.3ZM18.6334 34.0378C13.6592 34.0378 9.66575 29.9743 9.66575 25C9.66575 20.0258 13.7292 15.9623 18.6334 15.9623C23.6077 15.9623 27.6011 20.0258 27.6011 25C27.6011 29.9743 23.6077 34.0378 18.6334 34.0378ZM39.231 34.0378C34.2568 34.0378 30.2634 29.9743 30.2634 25C30.2634 20.0258 34.3268 15.9623 39.231 15.9623C44.2053 15.9623 48.1987 20.0258 48.1987 25C48.2687 29.9743 44.2053 34.0378 39.231 34.0378ZM59.8987 34.0378C54.9244 34.0378 50.931 29.9743 50.931 25C50.931 20.0258 54.9945 15.9623 59.8987 15.9623C64.8729 15.9623 68.8663 20.0258 68.8663 25C68.8663 29.9743 64.8029 34.0378 59.8987 34.0378ZM43.7149 19.7456C43.925 19.7456 44.0652 19.8857 44.0652 20.0258V29.9042C44.0652 30.0444 43.925 30.1845 43.7849 30.1845H41.7532C41.6131 30.1845 41.4729 30.1144 41.4029 30.0444C41.4029 30.0444 37.6897 25 37.6196 24.8599C37.4795 24.7198 37.3394 24.3695 37.3394 24.3695V29.8342C37.3394 29.9743 37.1993 30.1144 37.0592 30.1144H34.7472C34.6071 30.1144 34.4669 29.9743 34.4669 29.8342V20.0258C34.4669 19.8857 34.6071 19.7456 34.7472 19.7456H36.7789C36.919 19.7456 37.0592 19.8156 37.1292 19.8857C37.1292 19.8857 40.7723 24.7899 40.9125 25.0701C41.0526 25.2102 41.1927 25.5605 41.1927 25.5605V20.0258C41.1927 19.8857 41.3328 19.7456 41.4729 19.7456C41.4729 19.7456 43.5747 19.7456 43.7149 19.7456Z" fill="#FF6600"/>
</symbol>

<symbol id="ups" width="42" height="50" viewBox="0 0 42 50" fill="none">
<g clip-path="url(#clip0_8714_7518)">
<path d="M11.2521 35.765C8.90851 33.8462 7.67059 31.0842 7.67059 27.7853V12.1043C11.3715 10.1425 15.8528 9.14819 20.9906 9.14819C26.1285 9.14819 30.6103 10.1425 34.3106 12.1043V27.7853C34.3106 31.0842 33.0727 33.8442 30.7291 35.765C28.585 37.5223 21.7725 40.5117 20.9901 40.8518C20.2087 40.5117 13.3962 37.5228 11.2521 35.765Z" fill="#330000"/>
<path d="M33.5813 11.9201C31.869 11.7612 30.0903 11.6562 28.2785 11.6562C21.5591 11.6562 14.3554 13.1006 8.39998 18.5628V27.8992C8.39998 30.94 9.52451 33.4793 11.6612 35.2208C13.5478 36.7558 19.3536 39.3851 20.9906 40.1076C22.6069 39.396 28.3979 36.8014 30.3176 35.2208C32.4676 33.4491 33.5813 30.9688 33.5813 27.8992V11.9201ZM9.63097 26.9277V19.3452H12.0419V27.0346C12.0419 27.719 12.2073 28.7321 13.313 28.7321C13.7137 28.7483 14.1102 28.6449 14.4519 28.435V19.3452H16.8599V29.8101C15.7724 30.4888 14.5065 30.8262 13.2254 30.7786C10.8387 30.7786 9.6285 29.4833 9.6285 26.9277M20.5133 35.6798H18.1008V19.9592C19.0767 19.3598 20.2076 19.0613 21.3521 19.1011C24.2315 19.1011 25.8136 21.2857 25.8136 24.8019C25.8136 28.3181 24.2785 30.737 21.5997 30.737C21.233 30.7436 20.8673 30.6974 20.5138 30.5999L20.5133 35.6798ZM20.5133 28.6286C20.7638 28.7224 21.0287 28.7717 21.2961 28.7742C22.6826 28.7742 23.3471 27.5001 23.3471 24.8623C23.3471 22.1602 22.7673 21.0426 21.3665 21.0426C21.0726 21.0402 20.7814 21.0994 20.5118 21.2164L20.5133 28.6286ZM26.3602 22.2449C26.3754 21.3997 26.7241 20.5949 27.3304 20.0059C27.9368 19.4169 28.7514 19.0916 29.5967 19.1011C30.5428 19.0509 31.4774 19.3275 32.2438 19.8844V21.9824C31.6757 21.3897 30.9032 21.0356 30.0834 20.9921C29.3996 20.9862 28.688 21.2867 28.6647 22.1444C28.6415 23.0223 29.3515 23.3689 30.2493 23.8968C32.2641 25.0812 32.6538 26.1458 32.6073 27.5526C32.5612 29.095 31.4981 30.7796 29.1149 30.7796C28.1803 30.7691 27.2653 30.5108 26.4632 30.0309V27.8091C27.1004 28.3848 27.9121 28.7304 28.7687 28.7905C29.6536 28.795 30.2359 28.2879 30.2151 27.4466C30.1968 26.6895 29.7695 26.278 28.7083 25.6546C26.7192 24.488 26.3617 23.5279 26.3583 22.2449M10.854 36.2042C8.41335 34.2052 7.12592 31.3327 7.12592 27.8992V11.577C10.9778 9.5349 15.6428 8.5 20.9906 8.5C26.3384 8.5 31.0034 9.5349 34.8553 11.577V27.8992C34.8553 31.3327 33.5679 34.2052 31.1272 36.2047C28.896 38.0338 21.8047 41.145 20.9906 41.499C20.1766 41.145 13.0853 38.0338 10.854 36.2042ZM29.8408 39.6253V41.042H30.0963V40.4507H30.1324C30.1517 40.4795 30.5172 41.042 30.5172 41.042H30.8267C30.8267 41.042 30.4384 40.474 30.3988 40.4205C30.4873 40.4054 30.5676 40.3592 30.625 40.2902C30.6825 40.2212 30.7134 40.134 30.7123 40.0442C30.7135 39.9844 30.7016 39.925 30.6776 39.8702C30.6535 39.8154 30.6178 39.7665 30.573 39.7269C30.5281 39.6873 30.4752 39.6579 30.4178 39.6408C30.3605 39.6236 30.3001 39.6192 30.2409 39.6278L29.8408 39.6253ZM30.2131 39.8323C30.4305 39.8323 30.4607 39.9387 30.4607 40.0303C30.4607 40.163 30.4038 40.2527 30.13 40.2527H30.0968V39.8313L30.2131 39.8323ZM31.2134 40.3373C31.213 40.5269 31.1564 40.7121 31.0508 40.8696C30.9453 41.027 30.7954 41.1497 30.6201 41.222C30.4449 41.2943 30.2522 41.3131 30.0663 41.2759C29.8804 41.2388 29.7097 41.1474 29.5757 41.0132C29.4417 40.8791 29.3505 40.7083 29.3135 40.5224C29.2765 40.3364 29.2955 40.1437 29.368 39.9685C29.4405 39.7934 29.5633 39.6436 29.7209 39.5382C29.8784 39.4328 30.0637 39.3764 30.2532 39.3762C30.3795 39.3761 30.5044 39.4009 30.6211 39.4491C30.7377 39.4974 30.8436 39.5682 30.9328 39.6575C31.022 39.7468 31.0927 39.8528 31.1408 39.9695C31.189 40.0861 31.2136 40.2111 31.2134 40.3373ZM30.2503 39.1712C30.0202 39.1715 29.7953 39.24 29.6041 39.368C29.4129 39.496 29.2639 39.6778 29.176 39.8904C29.0881 40.1031 29.0651 40.337 29.11 40.5627C29.155 40.7883 29.2657 40.9956 29.4284 41.1584C29.5911 41.3211 29.7983 41.432 30.024 41.477C30.2496 41.522 30.4836 41.4992 30.6962 41.4113C30.9089 41.3235 31.0908 41.1746 31.2189 40.9834C31.3469 40.7923 31.4155 40.5674 31.4159 40.3373C31.4155 40.0283 31.2926 39.732 31.0741 39.5134C30.8556 39.2948 30.5593 39.1718 30.2503 39.1712Z" fill="#FFBE00"/>
</g>
<defs>
<clipPath>
<rect width="27.7294" height="33" fill="white" transform="translate(7.12592 8.5)"/>
</clipPath>
</defs>
</symbol>

<symbol id="usps" width="97" height="50" viewBox="0 0 97 50" fill="none">
<g clip-path="url(#clip0_8713_7455)">
<path d="M21.1064 30.0426L23.234 20H9.12766L7 30.0426H21.1064Z" fill="white"/>
<path d="M17.4893 22.1064C19.1276 22.4894 19.1702 22.8937 19.1702 22.8937C20.234 22.8937 20.5106 22.8937 20.7021 23.0851C21.3191 23.6596 20.2766 25.0639 20.2766 25.0639C20.1489 25.149 8.40424 29.7447 8.40424 29.7447H20.7659L22.7447 20.4043H9.46807C9.46807 20.4043 17.2979 22.0639 17.4893 22.1064Z" fill="#333366"/>
<path d="M18.7021 23.4682C18.5319 23.5533 18.0213 23.6384 17.8511 23.6597C17.6809 23.6809 17.5958 23.6809 17.5958 23.7235C17.5958 23.7873 17.8298 23.766 17.9149 23.766C18.2979 23.766 19.8085 23.6597 20.1702 23.7235C20.4468 23.766 20.1277 24.3192 20.0426 24.6597C20.0213 24.7873 20.1064 24.7235 20.149 24.6597C20.2553 24.4895 20.5532 23.9363 20.5745 23.7235C20.617 23.298 20.3192 23.2341 19.8085 23.2341H19.0213C18.9575 23.2341 18.9362 23.2554 18.9149 23.298C18.8511 23.3618 18.7447 23.4256 18.7021 23.4682Z" fill="#333366"/>
<path d="M13.8085 26.617L7.48938 29.7447L9.0213 22.5745H15.4043C15.5107 22.5745 18.8298 22.5745 18.8936 23.234H13.149L14.0426 25.9574C15.0639 25.4681 17.5745 24.4468 19.0851 24.383C19.7234 24.3617 19.9787 24.4681 19.8511 24.5532C19.766 24.5957 19.149 24.6808 18.6596 24.8085C17.8085 25.0213 17.766 25.0213 16.8724 25.3191C15.8724 25.6596 15.0426 26.0425 13.8085 26.617Z" fill="#333366"/>
<path d="M27.0425 29.9574C24.5745 29.9574 23.1064 28.9787 23.5957 26.7872C24.4042 22.9999 24.9362 20.468 24.9362 20.468H27C27 20.468 25.7447 26.2978 25.7872 26.1701C25.4681 27.617 25.7872 28.4893 27.3617 28.4893C28.8723 28.4893 29.6383 27.617 29.9574 26.1701C30.1489 25.3404 31.1702 20.468 31.1702 20.468H33.234C31.8511 26.7872 33.234 20.468 31.8723 26.7872C31.3617 28.9574 29.4893 29.9574 27.0425 29.9574Z" fill="#333366"/>
<path d="M44.2554 26.234C43.9362 26.234 43.2554 26.1914 42.9149 26.1276L43.1702 24.7872C43.4256 24.8084 43.766 24.851 44.0851 24.851C45.4894 24.851 46 23.8935 46.1064 23.3191C46.3192 22.2978 45.8085 21.9361 45.0639 21.9361H43.383L41.7234 29.7872H39.6596L41.6383 20.468H46.1064C48.1277 20.468 48.3617 22.234 48.1064 23.4042C47.7234 25.1489 46.0851 26.234 44.2554 26.234Z" fill="#333366"/>
<path d="M39.8936 21.9574H37.7021C36.5745 21.9574 36.0851 22.1914 35.9787 22.6382C35.6596 24.1276 39.6808 25.2978 39.2979 27.5957C39.0851 28.8723 37.9787 29.7872 35.4042 29.7872H32.2553L32.5745 28.2978H35.0851C35.8723 28.2978 36.8298 28.3404 37 27.5531C37.2979 26.2127 33.3404 24.8935 33.6383 22.6595C33.8298 21.3191 35.0213 20.468 37.4255 20.468H40.1915L39.8936 21.9574Z" fill="#333366"/>
<path d="M55.2341 21.9574H53.0426C51.9149 21.9574 51.4256 22.1914 51.3192 22.6382C51 24.1276 55.0213 25.2978 54.6383 27.5957C54.4256 28.8723 53.3192 29.7872 50.7447 29.7872H47.5958L47.9149 28.2978H50.4468C51.2341 28.2978 52.1915 28.3404 52.3617 27.5531C52.6596 26.2127 48.7021 24.8935 49 22.6595C49.1915 21.3191 50.383 20.468 52.7873 20.468H55.5532L55.2341 21.9574Z" fill="#333366"/>
<path d="M55.9362 28.1277C55.4894 28.1277 55.1064 28.4894 55.1064 28.9575C55.1064 29.4043 55.4681 29.7873 55.9362 29.7873C56.383 29.7873 56.766 29.4256 56.766 28.9575C56.766 28.4894 56.383 28.1277 55.9362 28.1277Z" fill="#333366"/>
<path fill-rule="evenodd" clip-rule="evenodd" d="M86.8298 20.4255L84.8085 29.766H83.0851L84.617 22.8298L80.5106 29.766H78.7447L77.766 23.2766L76.3404 29.766H74.6383L76.617 20.4255H79.0851L80.1277 27.2979L84.1277 20.4255H86.8298Z" fill="#333366"/>
<path d="M61.383 29.9575C60.149 29.9575 59.0426 29.6809 58.2341 29.0852C57.4256 28.4895 56.9362 27.5533 56.9362 26.298C56.9362 25.915 56.9788 25.5107 57.0852 25.0639C57.766 21.7235 60.5532 20.2341 63.383 20.2341C64.0639 20.2341 64.8086 20.3192 65.4681 20.4469L65.6171 20.4682L65.2766 21.9788L65.149 21.9575C64.6809 21.915 64.3618 21.8724 63.9362 21.8724C63.5532 21.8724 63.1915 21.8937 62.7873 21.9363C61.7873 22.0852 61.4894 22.2554 60.9362 22.6171C60.1064 23.1277 59.383 24.0001 59.1277 25.149C59.0639 25.4469 59.0213 25.7235 59.0213 25.9788C59.0213 26.8086 59.3618 27.3831 59.9575 27.766C60.532 28.149 61.383 28.3618 62.3405 28.3618C62.9149 28.3618 63.1915 28.3405 63.7447 28.2767L63.9575 28.2554L63.6384 29.7235L63.532 29.7448C62.766 29.8724 62.1703 29.9575 61.383 29.9575Z" fill="#333366"/>
<path d="M70.7872 20.4043C67.9362 20.4043 65.5745 21.8937 64.8936 25.149C64.3404 27.766 65.9362 29.9149 68.766 29.9149C71.6383 29.9149 73.9362 28.4894 74.6596 25.149C75.2128 22.4256 73.5958 20.4043 70.7872 20.4043ZM72.7447 25.1703C72.2979 27.5107 70.8936 28.5107 69.1277 28.5107C67.383 28.5107 66.4255 27 66.7447 25.1703C67.1702 22.8724 68.617 21.8511 70.3617 21.8511C72.1064 21.8298 73.1064 23.2554 72.7447 25.1703Z" fill="#333366"/>
<path d="M87.8511 21.5959C87.8511 21.0427 88.2766 20.6171 88.8085 20.6171C89.3404 20.6171 89.766 21.0427 89.766 21.5959C89.766 22.1703 89.3404 22.5959 88.8085 22.5959C88.2553 22.5959 87.8511 22.1703 87.8511 21.5959ZM87.6383 21.5959C87.6383 22.2554 88.1702 22.7661 88.8085 22.7661C89.4468 22.7661 89.9787 22.2554 89.9787 21.5959C89.9787 20.9363 89.4468 20.4469 88.8085 20.4469C88.1702 20.4257 87.6383 20.9363 87.6383 21.5959ZM88.3617 22.2767H88.5745V21.7022H88.8085L89.1702 22.298H89.4043L89.0213 21.7022C89.2341 21.681 89.383 21.5746 89.383 21.3405C89.383 21.0852 89.2341 20.9576 88.9149 20.9576H88.383V22.2767M88.5745 21.0852H88.8511C89 21.0852 89.1489 21.1065 89.1489 21.298C89.1489 21.5108 88.9787 21.532 88.7872 21.532H88.5745V21.0852Z" fill="#333366"/>
</g>
<defs>
<clipPath>
<rect width="82.9787" height="10" fill="white" transform="translate(7 20)"/>
</clipPath>
</defs>
</symbol>

</svg>
