<svg xmlns="http://www.w3.org/2000/svg" xmlns:xlink="http://www.w3.org/1999/xlink"><defs><symbol viewBox="0 0 16 12" fill="none" id="arrow">
<path d="M15.5303 6.53033C15.8232 6.23744 15.8232 5.76256 15.5303 5.46967L10.7574 0.696699C10.4645 0.403806 9.98959 0.403806 9.6967 0.696699C9.40381 0.989593 9.40381 1.46447 9.6967 1.75736L13.9393 6L9.6967 10.2426C9.40381 10.5355 9.40381 11.0104 9.6967 11.3033C9.98959 11.5962 10.4645 11.5962 10.7574 11.3033L15.5303 6.53033ZM0 6.75H15V5.25H0V6.75Z" fill="white" />
</symbol><symbol viewBox="0 0 40 41" fill="none" id="bnb">
<path d="M39.4016 25.3381C36.7301 36.0525 25.877 42.5731 15.1601 39.9012C4.44772 37.2301 -2.07358 26.3775 0.599038 15.6639C3.26931 4.94838 14.1225 -1.57268 24.836 1.09847C35.5521 3.76961 42.073 14.6234 39.4013 25.3383L39.4015 25.3381H39.4016Z" fill="#F3BA2F" />
<path fill-rule="evenodd" clip-rule="evenodd" d="M20.0018 13.1934L14.8224 18.3722L14.8225 18.372L11.8089 15.3587L20.0018 7.16669L28.1974 15.3611L25.1838 18.3745L20.0018 13.1934ZM9.68077 17.4861L6.66699 20.5L9.68056 23.5128L12.6943 20.4994L9.68077 17.4861ZM14.8223 22.6281L20.0018 27.8067L25.1836 22.6257L28.1989 25.6374L28.1974 25.639L20.0018 33.8334L11.8089 25.6414L11.8046 25.6371L14.8223 22.6281ZM30.3231 17.4879L27.3093 20.5013L30.323 23.5145L33.3367 20.5011L30.3231 17.4879Z" fill="white" />
<path d="M23.0586 20.4984H23.0599L20.002 17.4407L17.7418 19.7L17.4822 19.9597L16.9466 20.4953L16.9424 20.4994L16.9466 20.5038L20.002 23.5593L23.0601 20.5016L23.0616 20.4999L23.0588 20.4984" fill="white" />
</symbol><symbol viewBox="0 0 40 41" fill="none" id="btc">
<path d="M39.4016 25.3381C36.7301 36.0525 25.877 42.5731 15.1601 39.9012C4.44772 37.2301 -2.07358 26.3775 0.599038 15.6639C3.26931 4.94838 14.1225 -1.57268 24.836 1.09847C35.5521 3.76961 42.073 14.6234 39.4013 25.3383L39.4015 25.3381H39.4016Z" fill="#F7931A" />
<path fill-rule="evenodd" clip-rule="evenodd" d="M28.8199 17.6504C29.218 14.9889 27.1915 13.5582 24.4203 12.6038L25.3193 8.99845L23.1244 8.45159L22.2492 11.962C21.6722 11.8181 21.0796 11.6825 20.4907 11.5481L21.3721 8.01451L19.1786 7.46765L18.2791 11.0718C17.8016 10.9631 17.3326 10.8557 16.8776 10.7425L16.8801 10.7311L13.8533 9.97534L13.2694 12.3194C13.2694 12.3194 14.8979 12.6926 14.8635 12.7156C15.7524 12.9374 15.9131 13.5257 15.8864 13.992L14.8624 18.0993C14.9236 18.1149 15.003 18.1374 15.0906 18.1726L15.0269 18.1567L15.0268 18.1566C14.9726 18.1431 14.9164 18.129 14.8586 18.1152L13.4232 23.8689C13.3146 24.1389 13.0389 24.5441 12.4175 24.3903C12.4395 24.4221 10.8222 23.9922 10.8222 23.9922L9.73242 26.5044L12.5887 27.2164C12.9015 27.2948 13.2106 27.3754 13.5166 27.4551L13.5168 27.4552C13.7306 27.5109 13.9428 27.5662 14.1536 27.6201L13.2454 31.2668L15.4377 31.8136L16.3372 28.2057C16.9362 28.3683 17.5174 28.5182 18.0864 28.6596L17.19 32.2505L19.385 32.7974L20.2932 29.1576C24.036 29.8658 26.8502 29.5803 28.0348 26.1953C28.9893 23.47 27.9873 21.898 26.0182 20.8729C27.4524 20.5422 28.5327 19.5991 28.8207 17.6507L28.82 17.6502L28.8199 17.6504ZM23.805 24.6818C23.1827 27.1821 19.2685 26.1484 17.4776 25.6755C17.3165 25.6329 17.1726 25.5949 17.0498 25.5644L18.2551 20.7332C18.4047 20.7706 18.5876 20.8116 18.7948 20.8581C20.6472 21.2738 24.4426 22.1254 23.8051 24.6818H23.805ZM19.1663 18.6158C20.6593 19.0142 23.9165 19.8834 24.4838 17.6108H24.484C25.0632 15.2866 21.8978 14.5859 20.3518 14.2436C20.1779 14.2051 20.0245 14.1712 19.8992 14.1399L18.8064 18.5216C18.9096 18.5473 19.0306 18.5796 19.1663 18.6158Z" fill="white" />
</symbol><symbol viewBox="0 0 40 41" fill="none" id="busd">
<circle cx="20" cy="20.5" r="20" fill="#F0B90B" />
<path d="M19.9405 7.16675L23.2292 10.5347L14.9479 18.816L11.6592 15.5273L19.9405 7.16675Z" fill="white" stroke="white" />
<path d="M24.933 12.1593L28.2217 15.5273L14.9479 28.8011L11.6592 25.5124L24.933 12.1593Z" fill="white" stroke="white" />
<path d="M9.95573 17.1518L13.2445 20.5198L9.95573 23.8085L6.66699 20.5198L9.95573 17.1518Z" fill="white" stroke="white" />
<path d="M29.9262 17.1518L33.2149 20.5198L19.9411 33.7936L16.6523 30.5049L29.9262 17.1518Z" fill="white" stroke="white" />
</symbol><symbol viewBox="0 0 20 20" fill="none" id="cart">
<g clip-path="url(#cart_clip0_33_5487)">
<path d="M18.9275 3.3975C18.6931 3.1162 18.3996 2.88996 18.0679 2.73485C17.7363 2.57973 17.3745 2.49955 17.0083 2.5H3.535L3.5 2.2075C3.42837 1.59951 3.13615 1.03894 2.67874 0.632065C2.22133 0.225186 1.63052 0.000284828 1.01833 0L0.833333 0C0.61232 0 0.400358 0.0877974 0.244078 0.244078C0.0877974 0.400358 0 0.61232 0 0.833333C0 1.05435 0.0877974 1.26631 0.244078 1.42259C0.400358 1.57887 0.61232 1.66667 0.833333 1.66667H1.01833C1.22244 1.66669 1.41945 1.74163 1.57198 1.87726C1.72451 2.0129 1.82195 2.19979 1.84583 2.4025L2.9925 12.1525C3.11154 13.1665 3.59873 14.1015 4.36159 14.78C5.12445 15.4585 6.10988 15.8334 7.13083 15.8333H15.8333C16.0543 15.8333 16.2663 15.7455 16.4226 15.5893C16.5789 15.433 16.6667 15.221 16.6667 15C16.6667 14.779 16.5789 14.567 16.4226 14.4107C16.2663 14.2545 16.0543 14.1667 15.8333 14.1667H7.13083C6.61505 14.1652 6.11233 14.0043 5.69161 13.7059C5.27089 13.4075 4.95276 12.9863 4.78083 12.5H14.7142C15.6911 12.5001 16.6369 12.1569 17.3865 11.5304C18.1361 10.9039 18.6417 10.0339 18.815 9.0725L19.4692 5.44417C19.5345 5.08417 19.5198 4.71422 19.4262 4.36053C19.3326 4.00684 19.1623 3.67806 18.9275 3.3975V3.3975Z" fill="currentColor" />
<path d="M5.83329 20.0006C6.75376 20.0006 7.49995 19.2544 7.49995 18.3339C7.49995 17.4134 6.75376 16.6672 5.83329 16.6672C4.91282 16.6672 4.16663 17.4134 4.16663 18.3339C4.16663 19.2544 4.91282 20.0006 5.83329 20.0006Z" fill="currentColor" />
<path d="M14.1667 20.0006C15.0871 20.0006 15.8333 19.2544 15.8333 18.3339C15.8333 17.4134 15.0871 16.6672 14.1667 16.6672C13.2462 16.6672 12.5 17.4134 12.5 18.3339C12.5 19.2544 13.2462 20.0006 14.1667 20.0006Z" fill="currentColor" />
</g>
<defs>

</defs>
</symbol><clipPath id="cart_clip0_33_5487">
<rect width="20" height="20" fill="currentColor" />
</clipPath><symbol viewBox="0 0 24 24" fill="none" id="chevron">
<path fill-rule="evenodd" clip-rule="evenodd" d="M12.0002 15.5002C11.7442 15.5002 11.4883 15.4023 11.2933 15.2073L7.29325 11.2072C6.90225 10.8162 6.90225 10.1842 7.29325 9.79325C7.68425 9.40225 8.31625 9.40225 8.70725 9.79325L12.0122 13.0982L15.3053 9.91825C15.7043 9.53525 16.3352 9.54625 16.7192 9.94325C17.1032 10.3403 17.0922 10.9742 16.6952 11.3572L12.6953 15.2193C12.5002 15.4073 12.2502 15.5002 12.0002 15.5002Z" fill="currentColor" />

</symbol><mask id="chevron_mask0_156_10598" style="mask-type:alpha" maskUnits="userSpaceOnUse" x="7" y="9" width="10" height="7">
<path fill-rule="evenodd" clip-rule="evenodd" d="M12.0002 15.5002C11.7442 15.5002 11.4883 15.4023 11.2933 15.2073L7.29325 11.2072C6.90225 10.8162 6.90225 10.1842 7.29325 9.79325C7.68425 9.40225 8.31625 9.40225 8.70725 9.79325L12.0122 13.0982L15.3053 9.91825C15.7043 9.53525 16.3352 9.54625 16.7192 9.94325C17.1032 10.3403 17.0922 10.9742 16.6952 11.3572L12.6953 15.2193C12.5002 15.4073 12.2502 15.5002 12.0002 15.5002Z" fill="none" />
</mask><symbol viewBox="0 0 10 10" fill="none" id="chevron-down">
<path d="M9.47256 3.1972C9.41058 3.13471 9.33685 3.08512 9.25561 3.05127C9.17437 3.01743 9.08723 3 8.99923 3C8.91122 3 8.82408 3.01743 8.74284 3.05127C8.6616 3.08512 8.58787 3.13471 8.52589 3.1972L5.47256 6.25053C5.41058 6.31301 5.33685 6.36261 5.25561 6.39645C5.17437 6.4303 5.08723 6.44772 4.99923 6.44772C4.91122 6.44772 4.82408 6.4303 4.74284 6.39645C4.6616 6.36261 4.58787 6.31301 4.52589 6.25053L1.47256 3.1972C1.41058 3.13471 1.33685 3.08512 1.25561 3.05127C1.17437 3.01743 1.08723 3 0.999226 3C0.911218 3 0.824081 3.01743 0.742842 3.05127C0.661602 3.08512 0.587868 3.13471 0.525893 3.1972C0.401726 3.32211 0.332031 3.49107 0.332031 3.6672C0.332031 3.84332 0.401726 4.01229 0.525893 4.1372L3.58589 7.19719C3.96089 7.57172 4.46922 7.7821 4.99923 7.7821C5.52923 7.7821 6.03756 7.57172 6.41256 7.19719L9.47256 4.1372C9.59673 4.01229 9.66642 3.84332 9.66642 3.6672C9.66642 3.49107 9.59673 3.32211 9.47256 3.1972Z" fill="currentColor" />
</symbol><symbol viewBox="0 0 24 24" fill="none" id="close">
<path d="M6 6L18.7742 18.7742" stroke="#2A464D" stroke-width="2" stroke-linecap="round" stroke-linejoin="round" />
<path d="M6 18.7742L18.7742 5.99998" stroke="#2A464D" stroke-width="2" stroke-linecap="round" stroke-linejoin="round" />
</symbol><symbol viewBox="0 0 4 18" fill="none" id="dots-vertical">
<g clip-path="url(#dots-vertical_clip0_33_5480)">
<path d="M2.00002 3.00002C2.82845 3.00002 3.50003 2.32845 3.50003 1.50001C3.50003 0.671578 2.82845 0 2.00002 0C1.17158 0 0.5 0.671578 0.5 1.50001C0.5 2.32845 1.17158 3.00002 2.00002 3.00002Z" fill="currentColor" />
<path d="M2.00002 10.5C2.82845 10.5 3.50003 9.82845 3.50003 9.00002C3.50003 8.17158 2.82845 7.5 2.00002 7.5C1.17158 7.5 0.5 8.17158 0.5 9.00002C0.5 9.82845 1.17158 10.5 2.00002 10.5Z" fill="currentColor" />
<path d="M2.00002 18C2.82845 18 3.50003 17.3285 3.50003 16.5C3.50003 15.6716 2.82845 15 2.00002 15C1.17158 15 0.5 15.6716 0.5 16.5C0.5 17.3285 1.17158 18 2.00002 18Z" fill="currentColor" />
</g>
<defs>

</defs>
</symbol><clipPath id="dots-vertical_clip0_33_5480">
<rect width="4" height="18" fill="white" />
</clipPath><symbol viewBox="0 0 40 41" fill="none" id="eth">
<circle cx="20" cy="20.5" r="20" fill="#EDF0F4" />
<path d="M19.9452 8.5L19.7861 9.04043V24.721L19.9452 24.8797L27.2238 20.5773L19.9452 8.5Z" fill="#343434" />
<path d="M19.9458 8.5L12.667 20.5773L19.9458 24.8797V17.2688V8.5Z" fill="#8C8C8C" />
<path d="M19.9461 26.2579L19.8564 26.3672V31.9529L19.9461 32.2146L27.2292 21.9576L19.9461 26.2579Z" fill="#3C3C3B" />
<path d="M19.9458 32.2146V26.2579L12.667 21.9576L19.9458 32.2146Z" fill="#8C8C8C" />
<path d="M19.9453 24.8796L27.2239 20.5772L19.9453 17.2687V24.8796Z" fill="#141414" />
<path d="M12.667 20.5772L19.9458 24.8796V17.2687L12.667 20.5772Z" fill="#393939" />
</symbol><symbol viewBox="0 0 25 24" fill="none" id="home">
<path d="M13.0062 14.4949C11.6246 14.4949 10.5046 15.6149 10.5046 16.9964V21.9995H15.5078V16.9964C15.5078 15.6149 14.3878 14.4949 13.0062 14.4949Z" fill="currentColor" />
<path d="M17.1755 16.9969V22H20.5109C21.8925 22 23.0125 20.88 23.0125 19.4984V11.8929C23.0127 11.4597 22.8443 11.0434 22.543 10.7322L15.4569 3.07153C14.2066 1.71874 12.0964 1.63568 10.7436 2.88599C10.6794 2.9454 10.6174 3.00728 10.5581 3.07153L3.48448 10.7297C3.17405 11.0422 2.99988 11.4649 3 11.9054V19.4984C3 20.88 4.11999 22 5.50156 22H8.83695V16.9969C8.85255 14.7231 10.6883 12.8663 12.9048 12.8129C15.1955 12.7576 17.158 14.646 17.1755 16.9969Z" fill="currentColor" />
<path d="M13.0062 14.4949C11.6246 14.4949 10.5046 15.6149 10.5046 16.9964V21.9995H15.5078V16.9964C15.5078 15.6149 14.3878 14.4949 13.0062 14.4949Z" fill="currentColor" />
</symbol><symbol viewBox="0 0 24 24" fill="none" id="hotdog">
<path d="M9 18H15M5 12H19M9 6H15" stroke="currentColor" stroke-width="1.5" stroke-linecap="round" />
</symbol><symbol viewBox="0 0 40 41" fill="none" id="ltc">
<ellipse cx="20.1663" cy="20.3333" rx="17.8333" ry="17.8333" fill="white" />
<path fill-rule="evenodd" clip-rule="evenodd" d="M0 20.5C0 9.45431 8.95427 0.5 19.9999 0.5H20.1161C25.405 0.51539 30.4712 2.63118 34.2001 6.38191C37.9291 10.1326 40.0153 15.2111 39.9998 20.5C39.9998 31.5457 31.0456 40.5 19.9999 40.5C8.95427 40.5 0 31.5457 0 20.5ZM18.2566 28.1997L20.339 21.1779L23.5835 20.2578L24.2615 17.9333L21.0653 18.9019L24.4552 7.37645V7.19243C24.4501 7.04342 24.386 6.90252 24.277 6.80079C24.168 6.69906 24.0231 6.64483 23.8741 6.65006H19.5641C19.2284 6.63971 18.9288 6.85942 18.8378 7.18274L14.8184 20.8389L11.6223 21.8074L10.8959 24.035L14.092 23.0665L11.2349 32.8002H28.2808C28.6177 32.8141 28.9193 32.5929 29.0072 32.2675L29.9757 28.9261V28.7421C29.9707 28.5931 29.9066 28.4522 29.7976 28.3504C29.6886 28.2487 29.5436 28.1945 29.3946 28.1997H18.2566Z" fill="#345D9D" />
</symbol><symbol viewBox="0 0 20 20" fill="none" id="money">
<g clip-path="url(#money_clip0_33_5451)">
<path d="M15.8333 3.33362H4.16667C3.062 3.33494 2.00296 3.77435 1.22185 4.55547C0.440735 5.33658 0.00132321 6.39562 0 7.50029L0 12.5003C0.00132321 13.6049 0.440735 14.664 1.22185 15.4451C2.00296 16.2262 3.062 16.6656 4.16667 16.667H15.8333C16.938 16.6656 17.997 16.2262 18.7782 15.4451C19.5593 14.664 19.9987 13.6049 20 12.5003V7.50029C19.9987 6.39562 19.5593 5.33658 18.7782 4.55547C17.997 3.77435 16.938 3.33494 15.8333 3.33362V3.33362ZM3.33333 14.167C3.16852 14.167 3.0074 14.1181 2.87036 14.0265C2.73332 13.9349 2.62651 13.8048 2.56343 13.6525C2.50036 13.5002 2.48386 13.3327 2.51601 13.171C2.54817 13.0094 2.62753 12.8609 2.74408 12.7444C2.86062 12.6278 3.00911 12.5485 3.17076 12.5163C3.33241 12.4841 3.49996 12.5006 3.65224 12.5637C3.80451 12.6268 3.93466 12.7336 4.02622 12.8706C4.11779 13.0077 4.16667 13.1688 4.16667 13.3336C4.16667 13.5546 4.07887 13.7666 3.92259 13.9229C3.76631 14.0792 3.55435 14.167 3.33333 14.167ZM3.33333 7.50029C3.16852 7.50029 3.0074 7.45141 2.87036 7.35984C2.73332 7.26828 2.62651 7.13813 2.56343 6.98585C2.50036 6.83358 2.48386 6.66603 2.51601 6.50438C2.54817 6.34273 2.62753 6.19424 2.74408 6.0777C2.86062 5.96115 3.00911 5.88178 3.17076 5.84963C3.33241 5.81748 3.49996 5.83398 3.65224 5.89705C3.80451 5.96012 3.93466 6.06694 4.02622 6.20398C4.11779 6.34102 4.16667 6.50213 4.16667 6.66695C4.16667 6.88797 4.07887 7.09993 3.92259 7.25621C3.76631 7.41249 3.55435 7.50029 3.33333 7.50029ZM10 13.3336C9.34073 13.3336 8.69626 13.1381 8.1481 12.7719C7.59994 12.4056 7.17269 11.885 6.9204 11.2759C6.66811 10.6668 6.6021 9.99659 6.73072 9.34998C6.85933 8.70338 7.1768 8.10944 7.64298 7.64326C8.10915 7.17709 8.7031 6.85962 9.3497 6.731C9.9963 6.60238 10.6665 6.66839 11.2756 6.92069C11.8847 7.17298 12.4053 7.60022 12.7716 8.14838C13.1378 8.69655 13.3333 9.34101 13.3333 10.0003C13.3333 10.8843 12.9821 11.7322 12.357 12.3573C11.7319 12.9824 10.8841 13.3336 10 13.3336ZM16.6667 14.167C16.5018 14.167 16.3407 14.1181 16.2037 14.0265C16.0666 13.9349 15.9598 13.8048 15.8968 13.6525C15.8337 13.5002 15.8172 13.3327 15.8493 13.171C15.8815 13.0094 15.9609 12.8609 16.0774 12.7444C16.194 12.6278 16.3424 12.5485 16.5041 12.5163C16.6657 12.4841 16.8333 12.5006 16.9856 12.5637C17.1378 12.6268 17.268 12.7336 17.3596 12.8706C17.4511 13.0077 17.5 13.1688 17.5 13.3336C17.5 13.5546 17.4122 13.7666 17.2559 13.9229C17.0996 14.0792 16.8877 14.167 16.6667 14.167ZM16.6667 7.50029C16.5018 7.50029 16.3407 7.45141 16.2037 7.35984C16.0666 7.26828 15.9598 7.13813 15.8968 6.98585C15.8337 6.83358 15.8172 6.66603 15.8493 6.50438C15.8815 6.34273 15.9609 6.19424 16.0774 6.0777C16.194 5.96115 16.3424 5.88178 16.5041 5.84963C16.6657 5.81748 16.8333 5.83398 16.9856 5.89705C17.1378 5.96012 17.268 6.06694 17.3596 6.20398C17.4511 6.34102 17.5 6.50213 17.5 6.66695C17.5 6.88797 17.4122 7.09993 17.2559 7.25621C17.0996 7.41249 16.8877 7.50029 16.6667 7.50029ZM11.6667 10.0003C11.6667 10.3299 11.5689 10.6522 11.3858 10.9262C11.2026 11.2003 10.9423 11.4139 10.6378 11.5401C10.3333 11.6662 9.99815 11.6992 9.67485 11.6349C9.35155 11.5706 9.05458 11.4119 8.82149 11.1788C8.5884 10.9457 8.42967 10.6487 8.36536 10.3254C8.30105 10.0021 8.33405 9.66702 8.4602 9.36248C8.58635 9.05794 8.79997 8.79764 9.07405 8.6145C9.34813 8.43137 9.67036 8.33362 10 8.33362C10.442 8.33362 10.866 8.50921 11.1785 8.82177C11.4911 9.13433 11.6667 9.55826 11.6667 10.0003Z" fill="currentColor" />
</g>
<defs>

</defs>
</symbol><clipPath id="money_clip0_33_5451">
<rect width="20" height="20" fill="white" />
</clipPath><symbol viewBox="0 0 24 24" fill="none" id="paper-clip">
<path fill-rule="evenodd" clip-rule="evenodd" d="M9.29305 21V21C7.63705 21 6.06305 20.334 4.86105 19.125C2.47305 16.722 2.37505 12.912 4.64205 10.631L12.0281 3.201C12.7971 2.427 13.8351 2 14.9501 2C16.1431 2 17.2771 2.479 18.1421 3.349C19.8631 5.08 19.9291 7.831 18.2881 9.481L10.8931 16.91C10.4141 17.393 9.76905 17.658 9.07705 17.658V17.658C8.34605 17.658 7.65305 17.366 7.12705 16.837C6.07405 15.776 6.04105 14.085 7.05405 13.065L13.8791 6.21C14.2691 5.818 14.9011 5.816 15.2931 6.206C15.6841 6.596 15.6861 7.229 15.2961 7.62L8.47205 14.476C8.23205 14.718 8.26505 15.145 8.54605 15.427C8.69205 15.574 8.88605 15.658 9.07705 15.658V15.658C9.18705 15.658 9.34505 15.631 9.47505 15.5L16.8701 8.071C17.7371 7.198 17.6721 5.713 16.7241 4.759C15.8171 3.847 14.2781 3.775 13.4461 4.611L6.06005 12.041C4.56605 13.544 4.66405 16.09 6.28005 17.715C7.10305 18.544 8.17305 19 9.29305 19C10.2941 19 11.2221 18.622 11.9041 17.936L19.2911 10.506C19.6801 10.115 20.3131 10.112 20.7051 10.502C21.0961 10.892 21.0981 11.524 20.7091 11.916L13.3221 19.346C12.2621 20.412 10.8311 21 9.29305 21" fill="black" />

</symbol><mask id="paper-clip_mask0_269_6855" style="mask-type:alpha" maskUnits="userSpaceOnUse" x="3" y="2" width="18" height="19">
<path fill-rule="evenodd" clip-rule="evenodd" d="M9.29305 21V21C7.63705 21 6.06305 20.334 4.86105 19.125C2.47305 16.722 2.37505 12.912 4.64205 10.631L12.0281 3.201C12.7971 2.427 13.8351 2 14.9501 2C16.1431 2 17.2771 2.479 18.1421 3.349C19.8631 5.08 19.9291 7.831 18.2881 9.481L10.8931 16.91C10.4141 17.393 9.76905 17.658 9.07705 17.658V17.658C8.34605 17.658 7.65305 17.366 7.12705 16.837C6.07405 15.776 6.04105 14.085 7.05405 13.065L13.8791 6.21C14.2691 5.818 14.9011 5.816 15.2931 6.206C15.6841 6.596 15.6861 7.229 15.2961 7.62L8.47205 14.476C8.23205 14.718 8.26505 15.145 8.54605 15.427C8.69205 15.574 8.88605 15.658 9.07705 15.658V15.658C9.18705 15.658 9.34505 15.631 9.47505 15.5L16.8701 8.071C17.7371 7.198 17.6721 5.713 16.7241 4.759C15.8171 3.847 14.2781 3.775 13.4461 4.611L6.06005 12.041C4.56605 13.544 4.66405 16.09 6.28005 17.715C7.10305 18.544 8.17305 19 9.29305 19C10.2941 19 11.2221 18.622 11.9041 17.936L19.2911 10.506C19.6801 10.115 20.3131 10.112 20.7051 10.502C21.0961 10.892 21.0981 11.524 20.7091 11.916L13.3221 19.346C12.2621 20.412 10.8311 21 9.29305 21" fill="white" />
</mask><symbol viewBox="0 0 20 20" fill="none" id="profile">
<path fill-rule="evenodd" clip-rule="evenodd" d="M10.0377 1.875C11.5682 1.87499 12.7678 1.87499 13.7196 1.97811C14.6909 2.08334 15.4779 2.30194 16.1498 2.79013C16.5566 3.08567 16.9143 3.44341 17.2099 3.8502C17.6981 4.52213 17.9167 5.30912 18.0219 6.2804C18.125 7.23216 18.125 8.4318 18.125 9.96221V10.0377C18.125 11.5681 18.125 12.7678 18.0219 13.7196C17.9167 14.6909 17.6981 15.4779 17.2099 16.1498C16.9286 16.537 16.591 16.8797 16.2083 17.1667C16.2001 17.1728 16.1919 17.179 16.1837 17.1851C16.1748 17.1916 16.166 17.1981 16.1572 17.2045L16.1498 17.2099C15.4779 17.6981 14.6909 17.9167 13.7196 18.0219C12.7678 18.125 11.5682 18.125 10.0378 18.125H9.96227C8.43187 18.125 7.23216 18.125 6.2804 18.0219C5.30912 17.9167 4.52213 17.6981 3.8502 17.2099C3.83168 17.1964 3.81327 17.1828 3.79497 17.1691C3.41098 16.8817 3.07223 16.5381 2.79013 16.1498C2.30194 15.4779 2.08334 14.6909 1.97811 13.7196C1.87499 12.7678 1.87499 11.5682 1.875 10.0377V9.96229C1.87499 8.43185 1.87499 7.23218 1.97811 6.2804C2.08334 5.30912 2.30194 4.52213 2.79013 3.8502C3.08568 3.44341 3.44341 3.08568 3.8502 2.79013C4.52213 2.30194 5.30912 2.08334 6.2804 1.97811C7.23218 1.87499 8.43185 1.87499 9.96229 1.875H10.0377ZM15.7499 15.9224C15.4118 14.4398 14.0851 13.3333 12.5 13.3333H7.5C5.91489 13.3333 4.58819 14.4398 4.25006 15.9224C4.34345 16.0096 4.4416 16.0918 4.54411 16.1685C4.55765 16.1786 4.57125 16.1887 4.58493 16.1986C5.00826 16.5062 5.55011 16.6855 6.41504 16.7792C7.29166 16.8741 8.42369 16.875 10 16.875C11.5763 16.875 12.7083 16.8741 13.585 16.7792C14.4499 16.6855 14.9917 16.5062 15.4151 16.1986C15.4296 16.1881 15.444 16.1774 15.4583 16.1667C15.56 16.0904 15.6573 16.0089 15.7499 15.9224ZM10 3.54167C7.81387 3.54167 6.04167 5.31387 6.04167 7.5C6.04167 9.68613 7.81387 11.4583 10 11.4583C12.1861 11.4583 13.9583 9.68613 13.9583 7.5C13.9583 5.31387 12.1861 3.54167 10 3.54167Z" fill="currentColor" />
</symbol><symbol viewBox="0 0 18 18" fill="none" id="search">
<path d="M8.25 15C11.9779 15 15 11.9779 15 8.25C15 4.52208 11.9779 1.5 8.25 1.5C4.52208 1.5 1.5 4.52208 1.5 8.25C1.5 11.9779 4.52208 15 8.25 15Z" stroke="currentColor" stroke-width="2" stroke-linecap="round" stroke-linejoin="round" />
<path d="M16.5 16.5L13.5 13.5" stroke="currentColor" stroke-width="2" stroke-linecap="round" stroke-linejoin="round" />
</symbol><symbol viewBox="0 0 20 18" fill="none" id="telegram">
<path d="M13 7L9 11L15 17L19 1L1 8L5 10L7 16L10 12" stroke="currentColor" stroke-width="2" stroke-linecap="round" stroke-linejoin="round" />
</symbol><symbol viewBox="0 0 18 18" fill="none" id="timer">
<g clip-path="url(#timer_clip0_71_12076)">
<path d="M10.6363 0.155567C10.5281 0.135665 10.4169 0.139785 10.3106 0.167636C10.2042 0.195487 10.1052 0.246389 10.0207 0.316734C9.9362 0.387079 9.86819 0.475147 9.82149 0.574701C9.7748 0.674255 9.75057 0.782858 9.75052 0.892817V3.05207C8.84243 2.93159 7.9188 3.02186 7.05123 3.31588C6.18365 3.6099 5.39544 4.09977 4.7477 4.7475C4.09996 5.39524 3.6101 6.18345 3.31608 7.05103C3.02206 7.9186 2.93179 8.84223 3.05227 9.75032H0.893016C0.783056 9.75037 0.674453 9.7746 0.574899 9.82129C0.475346 9.86799 0.387277 9.936 0.316932 10.0205C0.246587 10.105 0.195686 10.204 0.167834 10.3104C0.139983 10.4167 0.135863 10.5279 0.155766 10.6361C0.452773 12.2497 1.18524 13.7514 2.27397 14.9789C3.3627 16.2064 4.76626 17.1129 6.3329 17.6004C7.89953 18.0879 9.56964 18.1379 11.1626 17.7449C12.7556 17.352 14.2109 16.531 15.371 15.3708C16.5312 14.2107 17.3522 12.7554 17.7451 11.1624C18.1381 9.56944 18.0881 7.89934 17.6006 6.3327C17.1131 4.76606 16.2066 3.3625 14.9791 2.27377C13.7516 1.18504 12.2499 0.452575 10.6363 0.155567V0.155567ZM9.00052 10.5003C8.73827 10.4996 8.48083 10.4299 8.25402 10.2983C8.0272 10.1666 7.83899 9.97766 7.70827 9.75032H6.00052C5.8016 9.75032 5.61084 9.6713 5.47019 9.53065C5.32953 9.38999 5.25052 9.19923 5.25052 9.00032C5.25052 8.8014 5.32953 8.61064 5.47019 8.46999C5.61084 8.32933 5.8016 8.25032 6.00052 8.25032H7.70827C7.83898 8.02564 8.02584 7.83878 8.25052 7.70807V5.25032C8.25052 5.05141 8.32953 4.86064 8.47019 4.71999C8.61084 4.57934 8.8016 4.50032 9.00052 4.50032C9.19943 4.50032 9.39019 4.57934 9.53085 4.71999C9.6715 4.86064 9.75052 5.05141 9.75052 5.25032V7.70807C10.0366 7.87241 10.2603 8.12674 10.3868 8.43145C10.5133 8.73615 10.5355 9.07414 10.4499 9.39277C10.3643 9.71139 10.1758 9.99278 9.91361 10.1931C9.65146 10.3934 9.33044 10.5014 9.00052 10.5003V10.5003ZM7.47952 0.0753174C7.62785 0.0753174 7.77286 0.119304 7.89619 0.201715C8.01953 0.284126 8.11566 0.40126 8.17243 0.538305C8.22919 0.675349 8.24404 0.826149 8.2151 0.971635C8.18617 1.11712 8.11474 1.25076 8.00985 1.35565C7.90496 1.46054 7.77132 1.53197 7.62583 1.56091C7.48035 1.58985 7.32955 1.57499 7.1925 1.51823C7.05546 1.46146 6.93832 1.36533 6.85591 1.242C6.7735 1.11866 6.72952 0.973653 6.72952 0.825317C6.72952 0.626405 6.80853 0.43564 6.94919 0.294987C7.08984 0.154335 7.2806 0.0753174 7.47952 0.0753174V0.0753174ZM4.40452 1.39232C4.55285 1.39232 4.69786 1.4363 4.82119 1.51872C4.94453 1.60113 5.04066 1.71826 5.09743 1.8553C5.15419 1.99235 5.16904 2.14315 5.1401 2.28864C5.11117 2.43412 5.03974 2.56776 4.93485 2.67265C4.82996 2.77754 4.69632 2.84897 4.55083 2.87791C4.40535 2.90685 4.25455 2.89199 4.1175 2.83523C3.98046 2.77846 3.86332 2.68233 3.78091 2.559C3.6985 2.43566 3.65452 2.29065 3.65452 2.14232C3.65412 1.94353 3.73265 1.75272 3.87286 1.61181C4.01307 1.4709 4.20348 1.39141 4.40227 1.39082L4.40452 1.39232ZM2.08477 3.63107C2.2331 3.63107 2.37811 3.67505 2.50144 3.75747C2.62478 3.83988 2.72091 3.95701 2.77768 4.09406C2.83444 4.2311 2.84929 4.3819 2.82035 4.52739C2.79142 4.67287 2.71999 4.80651 2.6151 4.9114C2.51021 5.01629 2.37657 5.08772 2.23108 5.11666C2.0856 5.1456 1.9348 5.13074 1.79775 5.07398C1.66071 5.01721 1.54357 4.92108 1.46116 4.79775C1.37875 4.67441 1.33477 4.5294 1.33477 4.38107C1.33477 4.18216 1.41378 3.99139 1.55444 3.85074C1.69509 3.71008 1.88585 3.63107 2.08477 3.63107V3.63107ZM0.884766 6.75632C1.0331 6.75632 1.17811 6.8003 1.30144 6.88272C1.42478 6.96513 1.52091 7.08226 1.57768 7.2193C1.63444 7.35635 1.64929 7.50715 1.62035 7.65264C1.59142 7.79812 1.51999 7.93176 1.4151 8.03665C1.31021 8.14154 1.17657 8.21297 1.03108 8.24191C0.885598 8.27085 0.734798 8.25599 0.597753 8.19923C0.460708 8.14246 0.343574 8.04633 0.261163 7.92299C0.178752 7.79966 0.134766 7.65465 0.134766 7.50632C0.134765 7.30766 0.213577 7.11713 0.353905 6.97652C0.494233 6.83591 0.684613 6.75671 0.883266 6.75632H0.884766Z" fill="#FF746C" />
</g>
<defs>

</defs>
</symbol><clipPath id="timer_clip0_71_12076">
<rect width="18" height="18" fill="white" />
</clipPath><symbol viewBox="0 0 16 16" fill="none" id="trash">
<path d="M13.9997 2.66666H11.933C11.614 1.11572 10.2497 0.002 8.66632 0H7.33298C5.74957 0.002 4.38526 1.11572 4.06632 2.66666H1.99966C1.63148 2.66666 1.33301 2.96513 1.33301 3.33331C1.33301 3.7015 1.63148 4 1.99966 4H2.66632V12.6667C2.66854 14.5067 4.15963 15.9978 5.99966 16H9.99966C11.8397 15.9978 13.3308 14.5067 13.333 12.6667V4H13.9997C14.3679 4 14.6663 3.70153 14.6663 3.33334C14.6663 2.96516 14.3679 2.66666 13.9997 2.66666ZM7.33301 11.3333C7.33301 11.7015 7.03454 12 6.66635 12C6.29813 12 5.99966 11.7015 5.99966 11.3333V7.33334C5.99966 6.96516 6.29813 6.66669 6.66632 6.66669C7.03451 6.66669 7.33298 6.96516 7.33298 7.33334V11.3333H7.33301ZM9.99966 11.3333C9.99966 11.7015 9.7012 12 9.33301 12C8.96482 12 8.66635 11.7015 8.66635 11.3333V7.33334C8.66635 6.96516 8.96482 6.66669 9.33301 6.66669C9.7012 6.66669 9.99966 6.96516 9.99966 7.33334V11.3333ZM5.44701 2.66666C5.73057 1.86819 6.4857 1.33434 7.33301 1.33331H8.66635C9.51366 1.33434 10.2688 1.86819 10.5524 2.66666H5.44701Z" fill="currentColor" />
</symbol><symbol viewBox="0 0 40 41" fill="none" id="trx">
<path fill-rule="evenodd" clip-rule="evenodd" d="M20 40.5C9 40.5 0 31.5002 0 20.4004C0.1 9.40064 9 0.400827 20.1 0.500825C31.1 0.600823 40 9.50064 40 20.7004C39.9 31.6002 31 40.5 20 40.5Z" fill="#FC070C" />
<path fill-rule="evenodd" clip-rule="evenodd" d="M32.4119 14.5101L32.4118 14.51C31.4856 13.6106 30.5068 12.6603 29.6431 11.8937L29.5556 11.8324C29.41 11.7155 29.2458 11.6238 29.0699 11.5612L28.4033 11.4368C23.8033 10.5785 8.89296 7.79638 8.58625 7.83368C8.49553 7.84639 8.40882 7.87928 8.3325 7.92993L8.24937 7.99556C8.14702 8.09951 8.06928 8.22509 8.02187 8.36306L8 8.41993V8.73056V8.77868C9.01229 11.5974 11.6419 17.8924 14.07 23.7048L14.07 23.7048C16.1227 28.6188 18.0314 33.1879 18.6968 35.0198L18.6971 35.0206C18.7846 35.2921 18.9509 35.8074 19.2612 35.8336H19.3312C19.4975 35.8336 20.2062 34.8974 20.2062 34.8974C20.2062 34.8974 32.8762 19.5324 34.158 17.8962C34.324 17.6946 34.4705 17.4778 34.5955 17.2487C34.6605 16.884 34.5293 16.5119 34.2499 16.2687C33.7041 15.7647 33.0713 15.1503 32.4119 14.5101ZM23.4568 18.058L28.8643 13.5736L32.0361 16.4961L23.4568 18.058ZM12.0469 10.1349L21.3568 17.7648L27.11 12.913L12.0469 10.1349ZM22.1969 19.7642L31.7256 18.2286L20.8319 31.3536L22.1969 19.7642ZM20.5781 19.2086L10.7825 10.8961L19.1606 31.3623L20.5781 19.2086Z" fill="white" />
</symbol><symbol viewBox="0 0 40 41" fill="none" id="usdt">
<path d="M39.4016 25.3381C36.7301 36.0525 25.877 42.5731 15.1601 39.9012C4.44772 37.2301 -2.07358 26.3775 0.599038 15.6639C3.26931 4.94838 14.1225 -1.57268 24.836 1.09847C35.5521 3.76961 42.073 14.6234 39.4013 25.3383L39.4015 25.3381H39.4016Z" fill="#50AF95" />
<path fill-rule="evenodd" clip-rule="evenodd" d="M22.5336 22.7675C22.3922 22.7781 21.6615 22.8217 20.0314 22.8217C18.735 22.8217 17.8145 22.7828 17.4915 22.7675C12.4812 22.5471 8.74146 21.675 8.74146 20.6309C8.74146 19.5867 12.4812 18.7158 17.4915 18.4919V21.8989C17.8192 21.9225 18.7573 21.9779 20.0538 21.9779C21.6096 21.9779 22.3887 21.9131 22.5289 21.9001V18.4943C27.5286 18.717 31.2601 19.5891 31.2601 20.6309C31.2601 21.6727 27.5298 22.5447 22.5289 22.7663L22.5336 22.7675ZM22.5335 18.1419V15.0932H29.5109V10.444H10.514V15.0932H17.4902V18.1407C11.8199 18.4012 7.55566 19.5243 7.55566 20.8701C7.55566 22.2159 11.8199 23.3378 17.4902 23.5994V33.3691H22.5324V23.5959C28.1897 23.3355 32.4469 22.2136 32.4469 20.8689C32.4469 19.5243 28.1933 18.4023 22.5324 18.1407L22.5335 18.1419Z" fill="white" />
</symbol><symbol viewBox="0 0 20 20" fill="none" id="whatsapp">
<path d="M5.25301 16.494L5.97701 16.917C7.19795 17.6291 8.5866 18.0029 10 18C11.5823 18 13.129 17.5308 14.4446 16.6518C15.7602 15.7727 16.7855 14.5233 17.3911 13.0615C17.9966 11.5997 18.155 9.99113 17.8463 8.43928C17.5376 6.88743 16.7757 5.46197 15.6569 4.34315C14.538 3.22433 13.1126 2.4624 11.5607 2.15372C10.0089 1.84504 8.40036 2.00346 6.93855 2.60896C5.47674 3.21447 4.22731 4.23984 3.34826 5.55544C2.46921 6.87103 2.00001 8.41775 2.00001 10C2.00001 11.436 2.37701 12.813 3.08401 14.024L3.50601 14.748L2.85301 17.149L5.25301 16.494ZM0.00401338 20L1.35601 15.032C0.465151 13.5049 -0.00289063 11.768 1.34322e-05 10C1.34322e-05 4.477 4.47701 0 10 0C15.523 0 20 4.477 20 10C20 15.523 15.523 20 10 20C8.23279 20.0029 6.49667 19.5352 4.97001 18.645L0.00401338 20ZM6.39101 5.308C6.52501 5.298 6.66001 5.298 6.79401 5.304C6.84801 5.308 6.90201 5.314 6.95601 5.32C7.11501 5.338 7.29001 5.435 7.34901 5.569C7.64701 6.245 7.93701 6.926 8.21701 7.609C8.27901 7.761 8.24201 7.956 8.12401 8.146C8.04286 8.27448 7.95507 8.39865 7.86101 8.518C7.74801 8.663 7.50501 8.929 7.50501 8.929C7.50501 8.929 7.40601 9.047 7.44401 9.194C7.45801 9.25 7.50401 9.331 7.54601 9.399L7.60501 9.494C7.86101 9.921 8.20501 10.354 8.62501 10.762C8.74501 10.878 8.86201 10.997 8.98801 11.108C9.45601 11.521 9.98601 11.858 10.558 12.108L10.563 12.11C10.648 12.147 10.691 12.167 10.815 12.22C10.877 12.246 10.941 12.269 11.006 12.286C11.0732 12.3031 11.1439 12.2999 11.2093 12.2767C11.2746 12.2536 11.3316 12.2116 11.373 12.156C12.097 11.279 12.163 11.222 12.169 11.222V11.224C12.2193 11.1771 12.2791 11.1415 12.3443 11.1196C12.4095 11.0977 12.4786 11.09 12.547 11.097C12.607 11.101 12.668 11.112 12.724 11.137C13.255 11.38 14.124 11.759 14.124 11.759L14.706 12.02C14.804 12.067 14.893 12.178 14.896 12.285C14.9 12.352 14.906 12.46 14.883 12.658C14.851 12.917 14.773 13.228 14.695 13.391C14.6416 13.5022 14.5707 13.6042 14.485 13.693C14.3841 13.7989 14.2736 13.8954 14.155 13.981C14.114 14.0119 14.0723 14.0419 14.03 14.071C13.9056 14.1499 13.7778 14.2233 13.647 14.291C13.3895 14.4278 13.1052 14.5063 12.814 14.521C12.629 14.531 12.444 14.545 12.258 14.535C12.25 14.535 11.69 14.448 11.69 14.448C10.2683 14.074 8.9534 13.3735 7.85001 12.402C7.62401 12.203 7.41501 11.989 7.20101 11.776C6.31101 10.891 5.63901 9.936 5.23101 9.034C5.02218 8.59129 4.90938 8.1094 4.90001 7.62C4.89589 7.01285 5.09436 6.42167 5.46401 5.94C5.53701 5.846 5.60601 5.748 5.72501 5.635C5.85201 5.515 5.93201 5.451 6.01901 5.407C6.13469 5.34903 6.26088 5.31502 6.39001 5.307L6.39101 5.308Z" fill="currentColor" />
</symbol><symbol viewBox="0 0 20 20" fill="none" id="world">
<path d="M9.0833 13.5668H7.19135C6.91207 13.5677 6.63539 13.513 6.37737 13.4059C6.11935 13.2988 5.88512 13.1414 5.68827 12.9428L2.03683 9.28369C2.01629 9.52645 2 9.76992 2 10.0177C2.00311 12.1523 2.80533 14.2081 4.24806 15.7786C5.69078 17.3491 7.669 18.32 9.79163 18.4994V14.2766C9.79163 14.0884 9.717 13.9078 9.58416 13.7747C9.45132 13.6416 9.27116 13.5668 9.0833 13.5668Z" fill="currentColor" />
<path d="M16.4755 3.96875L15.2076 5.23934C14.8749 5.57089 14.4251 5.7576 13.9559 5.75893H12.9792C12.8852 5.75893 12.7951 5.79633 12.7287 5.86288C12.6623 5.92944 12.625 6.01972 12.625 6.11385V6.82367C12.625 7.29432 12.4384 7.74569 12.1063 8.07848C11.7742 8.41128 11.3238 8.59824 10.8542 8.59824C10.7602 8.59824 10.6702 8.63563 10.6037 8.70219C10.5373 8.76875 10.5 8.85903 10.5 8.95315V9.30807C10.5 9.49633 10.5746 9.67687 10.7075 9.80999C10.8403 9.94311 11.0205 10.0179 11.2083 10.0179H13.3333C13.8969 10.0179 14.4374 10.2422 14.8359 10.6416C15.2344 11.041 15.4583 11.5826 15.4583 12.1474V12.8302C15.4583 12.9242 15.4955 13.0143 15.5617 13.0808L17.4211 14.9448C18.5932 13.302 19.142 11.294 18.9687 9.28198C18.7953 7.26994 17.9112 5.3859 16.4755 3.96875Z" fill="currentColor" />
<path d="M14.0416 12.8306V12.1478C14.0416 11.9595 13.9669 11.779 13.8341 11.6458C13.7013 11.5127 13.5211 11.4379 13.3332 11.4379H11.2083C10.6447 11.4379 10.1042 11.2136 9.70566 10.8142C9.30714 10.4149 9.08326 9.87323 9.08326 9.30845V8.95354C9.08326 8.4829 9.26983 8.03153 9.60192 7.69873C9.93402 7.36594 10.3844 7.17897 10.8541 7.17897C10.948 7.17897 11.0381 7.14158 11.1045 7.07502C11.1709 7.00846 11.2083 6.91819 11.2083 6.82406V6.11423C11.2083 5.64359 11.3948 5.19222 11.7269 4.85943C12.059 4.52663 12.5094 4.33967 12.9791 4.33967H13.9559C14.0495 4.33911 14.1392 4.30192 14.2059 4.23603L15.3824 3.05701C14.2809 2.27739 13.0098 1.77221 11.6745 1.58338C10.3392 1.39455 8.97818 1.52753 7.70441 1.97127C6.43065 2.41501 5.28082 3.15672 4.35034 4.13487C3.41985 5.11303 2.73552 6.29943 2.35413 7.59564L6.68911 11.9398C6.75503 12.0059 6.83333 12.0583 6.91951 12.094C7.0057 12.1296 7.09806 12.1479 7.19131 12.1478H9.08326C9.64684 12.1478 10.1873 12.3721 10.5859 12.7715C10.9844 13.1708 11.2083 13.7125 11.2083 14.2772V18.5C13.2105 18.3349 15.0891 17.4622 16.5087 16.0376L14.5601 14.0849C14.2292 13.7515 14.0429 13.3008 14.0416 12.8306Z" fill="currentColor" />
</symbol></defs></svg>