<svg width="214" height="52" viewBox="0 0 214 52" fill="none" xmlns="http://www.w3.org/2000/svg">
<g filter="url(#filter0_d_1_137)">
<path fill-rule="evenodd" clip-rule="evenodd" d="M15.944 5.82708H29.7429V17.9208H27.4403V8.15585H18.2466V17.9208H15.944V5.82708Z" fill="#2D3471" fill-opacity="0.5"/>
<path d="M18.245 6.99145C18.245 7.63359 17.7303 8.15415 17.0954 8.15415C16.4604 8.15415 15.9457 7.63359 15.9457 6.99145C15.9457 6.34932 16.4604 5.82876 17.0954 5.82876C17.7303 5.82876 18.245 6.34932 18.245 6.99145Z" fill="#2D3471" fill-opacity="0.5"/>
<path fill-rule="evenodd" clip-rule="evenodd" d="M17.0954 5.82538C16.4586 5.82538 15.9424 6.34745 15.9424 6.99146C15.9424 7.63546 16.4586 8.15753 17.0954 8.15753C17.7321 8.15753 18.2483 7.63546 18.2483 6.99146C18.2483 6.34745 17.7321 5.82538 17.0954 5.82538ZM20.5476 6.99146C20.5476 8.91974 19.002 10.4829 17.0954 10.4829C15.1887 10.4829 13.6431 8.91974 13.6431 6.99146C13.6431 5.06318 15.1887 3.5 17.0954 3.5C19.002 3.5 20.5476 5.06318 20.5476 6.99146Z" fill="#2D3471" fill-opacity="0.5"/>
<path d="M29.7413 6.99145C29.7413 7.63359 29.2266 8.15415 28.5916 8.15415C27.9567 8.15415 27.442 7.63359 27.442 6.99145C27.442 6.34932 27.9567 5.82876 28.5916 5.82876C29.2266 5.82876 29.7413 6.34932 29.7413 6.99145Z" fill="#2D3471" fill-opacity="0.5"/>
<path fill-rule="evenodd" clip-rule="evenodd" d="M28.5916 5.82538C27.9549 5.82538 27.4387 6.34745 27.4387 6.99146C27.4387 7.63546 27.9549 8.15753 28.5916 8.15753C29.2284 8.15753 29.7446 7.63546 29.7446 6.99146C29.7446 6.34745 29.2284 5.82538 28.5916 5.82538ZM32.0439 6.99146C32.0439 8.91974 30.4983 10.4829 28.5916 10.4829C26.685 10.4829 25.1394 8.91974 25.1394 6.99146C25.1394 5.06318 26.685 3.5 28.5916 3.5C30.4983 3.5 32.0439 5.06318 32.0439 6.99146Z" fill="#2D3471" fill-opacity="0.5"/>
<path fill-rule="evenodd" clip-rule="evenodd" d="M41.699 17.9191V31.8748H29.7412V29.546H39.3964V20.2479H29.7412V17.9191H41.699Z" fill="#2D3471" fill-opacity="0.5"/>
<path d="M40.5478 20.2461C39.9128 20.2461 39.3981 19.7256 39.3981 19.0835C39.3981 18.4413 39.9128 17.9208 40.5478 17.9208C41.1827 17.9208 41.6974 18.4413 41.6974 19.0835C41.6974 19.7256 41.1827 20.2461 40.5478 20.2461Z" fill="#2D3471" fill-opacity="0.5"/>
<path fill-rule="evenodd" clip-rule="evenodd" d="M41.7007 19.0835C41.7007 18.4394 41.1845 17.9174 40.5478 17.9174C39.911 17.9174 39.3948 18.4394 39.3948 19.0835C39.3948 19.7275 39.911 20.2495 40.5478 20.2495C41.1845 20.2495 41.7007 19.7275 41.7007 19.0835ZM40.5478 22.5749C38.6412 22.5749 37.0955 21.0117 37.0955 19.0835C37.0955 17.1552 38.6412 15.592 40.5478 15.592C42.4544 15.592 44 17.1552 44 19.0835C44 21.0117 42.4544 22.5749 40.5478 22.5749Z" fill="#2D3471" fill-opacity="0.5"/>
<path d="M40.5478 31.8731C39.9128 31.8731 39.3981 31.3525 39.3981 30.7104C39.3981 30.0683 39.9128 29.5477 40.5478 29.5477C41.1827 29.5477 41.6974 30.0683 41.6974 30.7104C41.6974 31.3525 41.1827 31.8731 40.5478 31.8731Z" fill="#2D3471" fill-opacity="0.5"/>
<path fill-rule="evenodd" clip-rule="evenodd" d="M41.7007 30.7104C41.7007 30.0664 41.1845 29.5443 40.5478 29.5443C39.911 29.5443 39.3948 30.0664 39.3948 30.7104C39.3948 31.3544 39.911 31.8765 40.5478 31.8765C41.1845 31.8765 41.7007 31.3544 41.7007 30.7104ZM40.5478 34.2019C38.6412 34.2019 37.0955 32.6387 37.0955 30.7104C37.0955 28.7821 38.6412 27.2189 40.5478 27.2189C42.4544 27.2189 44 28.7821 44 30.7104C44 32.6387 42.4544 34.2019 40.5478 34.2019Z" fill="#2D3471" fill-opacity="0.5"/>
<path d="M29.7413 19.0835C29.7413 19.7256 29.2266 20.2462 28.5917 20.2462C27.9568 20.2462 27.4421 19.7256 27.4421 19.0835C27.4421 18.4413 27.9568 17.9208 28.5917 17.9208C29.2266 17.9208 29.7413 18.4413 29.7413 19.0835Z" fill="#2D3471" fill-opacity="0.5"/>
<path d="M23.2093 19.0835C23.2093 22.0898 25.6191 24.527 28.5917 24.527C28.9862 24.527 29.3709 24.484 29.7413 24.4025V40.7727C29.7413 42.279 28.534 43.5 27.0446 43.5H18.6424C17.1531 43.5 15.9457 42.279 15.9457 40.7727V31.8731H6.69663C5.20732 31.8731 4 30.652 4 29.1458V20.648C4 19.1418 5.20732 17.9208 6.69663 17.9208H23.3324C23.2518 18.2954 23.2093 18.6844 23.2093 19.0835Z" fill="#2D3471" fill-opacity="0.5"/>
<path d="M29.7413 19.0835C29.7413 19.7256 29.2266 20.2462 28.5917 20.2462C27.9568 20.2462 27.4421 19.7256 27.4421 19.0835C27.4421 18.4413 27.9568 17.9208 28.5917 17.9208C29.2266 17.9208 29.7413 18.4413 29.7413 19.0835Z" fill="#2D3471" fill-opacity="0.5"/>
<path fill-rule="evenodd" clip-rule="evenodd" d="M28.5917 17.9174C27.9549 17.9174 27.4387 18.4394 27.4387 19.0835C27.4387 19.7275 27.9549 20.2495 28.5917 20.2495C29.2285 20.2495 29.7447 19.7275 29.7447 19.0835C29.7447 18.4394 29.2285 17.9174 28.5917 17.9174ZM32.0439 19.0835C32.0439 21.0117 30.4983 22.5749 28.5917 22.5749C26.6851 22.5749 25.1395 21.0117 25.1395 19.0835C25.1395 17.1552 26.6851 15.592 28.5917 15.592C30.4983 15.592 32.0439 17.1552 32.0439 19.0835Z" fill="#2D3471" fill-opacity="0.5"/>
<path fill-rule="evenodd" clip-rule="evenodd" d="M15.944 2.82708H29.7429V14.9208H27.4403V5.15585H18.2466V14.9208H15.944V2.82708Z" fill="url(#paint0_linear_1_137)"/>
<path d="M18.245 3.99145C18.245 4.63359 17.7303 5.15415 17.0954 5.15415C16.4604 5.15415 15.9457 4.63359 15.9457 3.99145C15.9457 3.34932 16.4604 2.82876 17.0954 2.82876C17.7303 2.82876 18.245 3.34932 18.245 3.99145Z" fill="#616EDE"/>
<path fill-rule="evenodd" clip-rule="evenodd" d="M17.0954 2.82538C16.4586 2.82538 15.9424 3.34745 15.9424 3.99146C15.9424 4.63546 16.4586 5.15753 17.0954 5.15753C17.7321 5.15753 18.2483 4.63546 18.2483 3.99146C18.2483 3.34745 17.7321 2.82538 17.0954 2.82538ZM20.5476 3.99146C20.5476 5.91974 19.002 7.48292 17.0954 7.48292C15.1887 7.48292 13.6431 5.91974 13.6431 3.99146C13.6431 2.06318 15.1887 0.5 17.0954 0.5C19.002 0.5 20.5476 2.06318 20.5476 3.99146Z" fill="url(#paint1_linear_1_137)"/>
<path d="M29.7413 3.99145C29.7413 4.63359 29.2266 5.15415 28.5916 5.15415C27.9567 5.15415 27.442 4.63359 27.442 3.99145C27.442 3.34932 27.9567 2.82876 28.5916 2.82876C29.2266 2.82876 29.7413 3.34932 29.7413 3.99145Z" fill="#616EDE"/>
<path fill-rule="evenodd" clip-rule="evenodd" d="M28.5916 2.82538C27.9549 2.82538 27.4387 3.34745 27.4387 3.99146C27.4387 4.63546 27.9549 5.15753 28.5916 5.15753C29.2284 5.15753 29.7446 4.63546 29.7446 3.99146C29.7446 3.34745 29.2284 2.82538 28.5916 2.82538ZM32.0439 3.99146C32.0439 5.91974 30.4983 7.48292 28.5916 7.48292C26.685 7.48292 25.1394 5.91974 25.1394 3.99146C25.1394 2.06318 26.685 0.5 28.5916 0.5C30.4983 0.5 32.0439 2.06318 32.0439 3.99146Z" fill="url(#paint2_linear_1_137)"/>
<path fill-rule="evenodd" clip-rule="evenodd" d="M41.699 14.9191V28.8748H29.7412V26.546H39.3964V17.2479H29.7412V14.9191H41.699Z" fill="url(#paint3_linear_1_137)"/>
<path d="M40.5478 17.2461C39.9128 17.2461 39.3981 16.7256 39.3981 16.0835C39.3981 15.4413 39.9128 14.9208 40.5478 14.9208C41.1827 14.9208 41.6974 15.4413 41.6974 16.0835C41.6974 16.7256 41.1827 17.2461 40.5478 17.2461Z" fill="#616EDE"/>
<path fill-rule="evenodd" clip-rule="evenodd" d="M41.7007 16.0835C41.7007 15.4394 41.1845 14.9174 40.5478 14.9174C39.911 14.9174 39.3948 15.4394 39.3948 16.0835C39.3948 16.7275 39.911 17.2495 40.5478 17.2495C41.1845 17.2495 41.7007 16.7275 41.7007 16.0835ZM40.5478 19.5749C38.6412 19.5749 37.0955 18.0117 37.0955 16.0835C37.0955 14.1552 38.6412 12.592 40.5478 12.592C42.4544 12.592 44 14.1552 44 16.0835C44 18.0117 42.4544 19.5749 40.5478 19.5749Z" fill="url(#paint4_linear_1_137)"/>
<path d="M40.5478 28.8731C39.9128 28.8731 39.3981 28.3525 39.3981 27.7104C39.3981 27.0683 39.9128 26.5477 40.5478 26.5477C41.1827 26.5477 41.6974 27.0683 41.6974 27.7104C41.6974 28.3525 41.1827 28.8731 40.5478 28.8731Z" fill="#616EDE"/>
<path fill-rule="evenodd" clip-rule="evenodd" d="M41.7007 27.7104C41.7007 27.0664 41.1845 26.5443 40.5478 26.5443C39.911 26.5443 39.3948 27.0664 39.3948 27.7104C39.3948 28.3544 39.911 28.8765 40.5478 28.8765C41.1845 28.8765 41.7007 28.3544 41.7007 27.7104ZM40.5478 31.2019C38.6412 31.2019 37.0955 29.6387 37.0955 27.7104C37.0955 25.7821 38.6412 24.2189 40.5478 24.2189C42.4544 24.2189 44 25.7821 44 27.7104C44 29.6387 42.4544 31.2019 40.5478 31.2019Z" fill="url(#paint5_linear_1_137)"/>
<path d="M29.7413 16.0835C29.7413 16.7256 29.2266 17.2462 28.5917 17.2462C27.9568 17.2462 27.4421 16.7256 27.4421 16.0835C27.4421 15.4413 27.9568 14.9208 28.5917 14.9208C29.2266 14.9208 29.7413 15.4413 29.7413 16.0835Z" fill="#616EDE"/>
<path d="M23.2093 16.0835C23.2093 19.0898 25.6191 21.527 28.5917 21.527C28.9862 21.527 29.3709 21.484 29.7413 21.4025V37.7727C29.7413 39.279 28.534 40.5 27.0446 40.5H18.6424C17.1531 40.5 15.9457 39.279 15.9457 37.7727V28.8731H6.69663C5.20732 28.8731 4 27.652 4 26.1458V17.648C4 16.1418 5.20732 14.9208 6.69663 14.9208H23.3324C23.2518 15.2954 23.2093 15.6844 23.2093 16.0835Z" fill="url(#paint6_linear_1_137)"/>
<path d="M29.7413 16.0835C29.7413 16.7256 29.2266 17.2462 28.5917 17.2462C27.9568 17.2462 27.4421 16.7256 27.4421 16.0835C27.4421 15.4413 27.9568 14.9208 28.5917 14.9208C29.2266 14.9208 29.7413 15.4413 29.7413 16.0835Z" fill="#616EDE"/>
<path fill-rule="evenodd" clip-rule="evenodd" d="M28.5917 14.9174C27.9549 14.9174 27.4387 15.4394 27.4387 16.0835C27.4387 16.7275 27.9549 17.2495 28.5917 17.2495C29.2285 17.2495 29.7447 16.7275 29.7447 16.0835C29.7447 15.4394 29.2285 14.9174 28.5917 14.9174ZM32.0439 16.0835C32.0439 18.0117 30.4983 19.5749 28.5917 19.5749C26.6851 19.5749 25.1395 18.0117 25.1395 16.0835C25.1395 14.1552 26.6851 12.592 28.5917 12.592C30.4983 12.592 32.0439 14.1552 32.0439 16.0835Z" fill="url(#paint7_linear_1_137)"/>
<path d="M67.02 3.9V6.7H62.42V18H59.22V6.7H54.6V3.9H67.02ZM66.2156 18V9.42C66.2156 8.32 66.8356 7.72 67.9356 7.74L74.5556 7.9V10.7L69.4156 10.58V18H66.2156ZM81.0417 15.4C82.7817 15.4 83.9217 14.48 83.9217 11.64V7.9H87.1217V18H83.9217V16.78L84.5217 14.98H83.7217C83.3217 16.78 82.0617 18.2 79.9017 18.2C77.3217 18.2 75.7617 16.48 75.7617 13.36V7.9H78.9617V12.86C78.9617 14.7 79.5017 15.4 81.0417 15.4ZM88.3156 12.82C88.3156 9.62 90.4956 7.7 93.6356 7.7C96.7756 7.7 98.9756 9.56 98.9756 12.62V13.62H91.3156C91.3156 14.78 92.1556 15.6 93.9756 15.6C95.0956 15.6 95.9356 15.2 96.1356 14.44H99.3356C99.1356 15.9 97.4756 18.2 93.9756 18.2C90.0956 18.2 88.3156 15.68 88.3156 12.82ZM91.3156 11.82H95.9756C95.9756 11.06 95.4156 10.3 93.6356 10.3C91.8556 10.3 91.3156 11.06 91.3156 11.82ZM111.998 3.9C115.558 3.9 118.278 4.58 118.278 8.84C118.278 13.12 115.558 13.8 111.998 13.8H110.138V18H106.938V3.9H111.998ZM112.198 11C114.098 11 115.078 10.8 115.078 8.84C115.078 6.9 114.098 6.7 112.198 6.7H110.138V11H112.198ZM126.893 7.7C129.473 7.7 131.033 9.42 131.033 12.54V18H127.833V13.04C127.833 11.2 127.293 10.5 125.753 10.5C124.013 10.5 122.873 11.42 122.873 14.26V18H119.673V3.3H122.873V9.12L122.273 10.92H123.073C123.473 9.12 124.733 7.7 126.893 7.7ZM132.437 15.24C132.437 13.5 133.477 12.48 136.477 12.06L139.657 11.62C139.657 10.8 139.017 10.3 137.637 10.3C136.357 10.3 135.637 10.84 135.637 11.76H132.637C132.637 9.2 134.817 7.7 137.637 7.7C140.417 7.7 142.857 9.04 142.857 12.36V15.2H144.317V18H142.097C141.137 18 140.597 17.46 140.597 16.5V16.3L141.097 15.1H140.297C139.917 16.78 138.937 18.2 136.117 18.2C132.977 18.2 132.437 16.28 132.437 15.24ZM135.637 14.64C135.637 15.22 136.197 15.4 136.737 15.4C138.497 15.4 139.657 14.66 139.657 13.42L137.077 13.78C136.117 13.92 135.637 14.06 135.637 14.64ZM145.513 18V9.42C145.513 8.32 146.133 7.72 147.233 7.74L153.853 7.9V10.7L148.713 10.58V18H145.513ZM168.583 7.7C171.163 7.7 171.943 10.02 171.943 12.74V18H168.743V12.96C168.743 11.04 168.423 10.5 167.243 10.5C165.503 10.5 165.103 12.02 165.103 14.46V18H161.903V12.96C161.903 11.04 161.583 10.5 160.403 10.5C158.663 10.5 158.263 12.02 158.263 14.46V18H155.063V7.9H158.263V8.92L157.663 10.72H158.463C158.863 8.92 159.783 7.7 161.743 7.7C163.643 7.7 164.443 8.96 164.743 10.72H165.323C165.723 8.92 166.623 7.7 168.583 7.7ZM173.355 15.24C173.355 13.5 174.395 12.48 177.395 12.06L180.575 11.62C180.575 10.8 179.935 10.3 178.555 10.3C177.275 10.3 176.555 10.84 176.555 11.76H173.555C173.555 9.2 175.735 7.7 178.555 7.7C181.335 7.7 183.775 9.04 183.775 12.36V15.2H185.235V18H183.015C182.055 18 181.515 17.46 181.515 16.5V16.3L182.015 15.1H181.215C180.835 16.78 179.855 18.2 177.035 18.2C173.895 18.2 173.355 16.28 173.355 15.24ZM176.555 14.64C176.555 15.22 177.115 15.4 177.655 15.4C179.415 15.4 180.575 14.66 180.575 13.42L177.995 13.78C177.035 13.92 176.555 14.06 176.555 14.64ZM185.835 12.94C185.835 9.58 188.135 7.7 191.355 7.7C194.115 7.7 196.635 9.2 196.775 12.08H193.575C193.455 11.18 192.635 10.5 191.355 10.5C189.835 10.5 189.035 11.4 189.035 12.94C189.035 14.5 189.835 15.4 191.355 15.4C192.635 15.4 193.455 14.72 193.575 13.82H196.775C196.635 16.7 194.115 18.2 191.355 18.2C188.135 18.2 185.835 16.32 185.835 12.94ZM205.393 7.9H209.013L204.393 17.4V20.52C204.393 21.64 203.773 22.24 202.673 22.2L197.733 22.06V19.26L201.193 19.32V17.4L196.573 7.9H200.173L202.393 13.46V15.06H203.193V13.46L205.393 7.9Z" fill="white"/>
<path d="M54.322 29.042H55.414L57.094 35.678H57.43L58.83 29.042H61.196L62.61 35.678H62.932L64.626 29.042H65.704L63.94 36H61.602L60.188 29.378H59.852L58.438 36H56.086L54.322 29.042ZM68.8648 27.936C68.5755 27.936 68.3328 27.8427 68.1368 27.656C67.9502 27.4693 67.8568 27.236 67.8568 26.956C67.8568 26.6853 67.9502 26.4567 68.1368 26.27C68.3328 26.0833 68.5755 25.99 68.8648 25.99C69.1448 25.99 69.3828 26.0833 69.5788 26.27C69.7748 26.4567 69.8728 26.6853 69.8728 26.956C69.8728 27.236 69.7748 27.4693 69.5788 27.656C69.3828 27.8427 69.1448 27.936 68.8648 27.936ZM66.5408 36V35.02H68.5008V29.896L67.0588 30.022V29.042L68.6688 28.902C69.2755 28.846 69.5788 29.126 69.5788 29.742V35.02H71.5388V36H66.5408ZM74.2636 35.174L76.7136 35.02V36L74.0816 36.14C73.7549 36.1587 73.5122 36.0887 73.3536 35.93C73.2042 35.762 73.1296 35.5147 73.1296 35.188V30.022H71.5896V29.042H73.1296V27.25L74.2636 26.9V29.042H76.4336V30.022H74.2636V35.174ZM82.2809 28.902C83.0929 28.902 83.7275 29.14 84.1849 29.616C84.6422 30.092 84.8709 30.8013 84.8709 31.744V36H83.7369V31.898C83.7369 31.1793 83.5922 30.666 83.3029 30.358C83.0229 30.0407 82.5795 29.882 81.9729 29.882C81.2262 29.882 80.6195 30.1573 80.1529 30.708C79.6955 31.2587 79.4669 31.996 79.4669 32.92V36H78.3189V25.71H79.4669V30.246L79.2849 31.044H79.6069C79.7562 30.3907 80.0549 29.8727 80.5029 29.49C80.9602 29.098 81.5529 28.902 82.2809 28.902ZM98.4719 36L97.2259 32.136H93.2639L92.0319 36H90.8839L94.0759 26.13H96.4279L99.6059 36H98.4719ZM93.5859 31.156H96.9179L95.4059 26.452H95.0839L93.5859 31.156ZM106.528 27.11H104.33V35.02H106.528V36H100.97V35.02H103.182V27.11H100.97V26.13H106.528V27.11Z" fill="white"/>
</g>
<defs>
<filter id="filter0_d_1_137" x="0" y="0.5" width="213.013" height="51" filterUnits="userSpaceOnUse" color-interpolation-filters="sRGB">
<feFlood flood-opacity="0" result="BackgroundImageFix"/>
<feColorMatrix in="SourceAlpha" type="matrix" values="0 0 0 0 0 0 0 0 0 0 0 0 0 0 0 0 0 0 127 0" result="hardAlpha"/>
<feOffset dy="4"/>
<feGaussianBlur stdDeviation="2"/>
<feComposite in2="hardAlpha" operator="out"/>
<feColorMatrix type="matrix" values="0 0 0 0 0 0 0 0 0 0 0 0 0 0 0 0 0 0 0.25 0"/>
<feBlend mode="normal" in2="BackgroundImageFix" result="effect1_dropShadow_1_137"/>
<feBlend mode="normal" in="SourceGraphic" in2="effect1_dropShadow_1_137" result="shape"/>
</filter>
<linearGradient id="paint0_linear_1_137" x1="26.07" y1="0.499997" x2="26.07" y2="40.5" gradientUnits="userSpaceOnUse">
<stop stop-color="white"/>
<stop offset="0.3" stop-color="#AFB5EA"/>
<stop offset="0.6" stop-color="#EFF0FA"/>
<stop offset="1" stop-color="white"/>
<stop offset="1" stop-color="white"/>
</linearGradient>
<linearGradient id="paint1_linear_1_137" x1="26.07" y1="0.499997" x2="26.07" y2="40.5" gradientUnits="userSpaceOnUse">
<stop stop-color="white"/>
<stop offset="0.3" stop-color="#AFB5EA"/>
<stop offset="0.6" stop-color="#EFF0FA"/>
<stop offset="1" stop-color="white"/>
<stop offset="1" stop-color="white"/>
</linearGradient>
<linearGradient id="paint2_linear_1_137" x1="26.07" y1="0.499997" x2="26.07" y2="40.5" gradientUnits="userSpaceOnUse">
<stop stop-color="white"/>
<stop offset="0.3" stop-color="#AFB5EA"/>
<stop offset="0.6" stop-color="#EFF0FA"/>
<stop offset="1" stop-color="white"/>
<stop offset="1" stop-color="white"/>
</linearGradient>
<linearGradient id="paint3_linear_1_137" x1="26.07" y1="0.499997" x2="26.07" y2="40.5" gradientUnits="userSpaceOnUse">
<stop stop-color="white"/>
<stop offset="0.3" stop-color="#AFB5EA"/>
<stop offset="0.6" stop-color="#EFF0FA"/>
<stop offset="1" stop-color="white"/>
<stop offset="1" stop-color="white"/>
</linearGradient>
<linearGradient id="paint4_linear_1_137" x1="26.07" y1="0.499997" x2="26.07" y2="40.5" gradientUnits="userSpaceOnUse">
<stop stop-color="white"/>
<stop offset="0.3" stop-color="#AFB5EA"/>
<stop offset="0.6" stop-color="#EFF0FA"/>
<stop offset="1" stop-color="white"/>
<stop offset="1" stop-color="white"/>
</linearGradient>
<linearGradient id="paint5_linear_1_137" x1="26.07" y1="0.499997" x2="26.07" y2="40.5" gradientUnits="userSpaceOnUse">
<stop stop-color="white"/>
<stop offset="0.3" stop-color="#AFB5EA"/>
<stop offset="0.6" stop-color="#EFF0FA"/>
<stop offset="1" stop-color="white"/>
<stop offset="1" stop-color="white"/>
</linearGradient>
<linearGradient id="paint6_linear_1_137" x1="26.07" y1="0.499997" x2="26.07" y2="40.5" gradientUnits="userSpaceOnUse">
<stop stop-color="white"/>
<stop offset="0.3" stop-color="#AFB5EA"/>
<stop offset="0.6" stop-color="#EFF0FA"/>
<stop offset="1" stop-color="white"/>
<stop offset="1" stop-color="white"/>
</linearGradient>
<linearGradient id="paint7_linear_1_137" x1="26.07" y1="0.499997" x2="26.07" y2="40.5" gradientUnits="userSpaceOnUse">
<stop stop-color="white"/>
<stop offset="0.3" stop-color="#AFB5EA"/>
<stop offset="0.6" stop-color="#EFF0FA"/>
<stop offset="1" stop-color="white"/>
<stop offset="1" stop-color="white"/>
</linearGradient>
</defs>
</svg>
