<svg width="206" height="44" viewBox="0 0 206 44" fill="none" xmlns="http://www.w3.org/2000/svg">
<path fill-rule="evenodd" clip-rule="evenodd" d="M11.944 5.82708H25.7429V17.9208H23.4403V8.15585H14.2466V17.9208H11.944V5.82708Z" fill="black" fill-opacity="0.5"/>
<path d="M14.245 6.99145C14.245 7.63359 13.7303 8.15415 13.0954 8.15415C12.4604 8.15415 11.9457 7.63359 11.9457 6.99145C11.9457 6.34932 12.4604 5.82876 13.0954 5.82876C13.7303 5.82876 14.245 6.34932 14.245 6.99145Z" fill="black" fill-opacity="0.5"/>
<path fill-rule="evenodd" clip-rule="evenodd" d="M13.0954 5.82538C12.4586 5.82538 11.9424 6.34745 11.9424 6.99146C11.9424 7.63546 12.4586 8.15753 13.0954 8.15753C13.7321 8.15753 14.2483 7.63546 14.2483 6.99146C14.2483 6.34745 13.7321 5.82538 13.0954 5.82538ZM16.5476 6.99146C16.5476 8.91974 15.002 10.4829 13.0954 10.4829C11.1887 10.4829 9.64313 8.91974 9.64313 6.99146C9.64313 5.06318 11.1887 3.5 13.0954 3.5C15.002 3.5 16.5476 5.06318 16.5476 6.99146Z" fill="black" fill-opacity="0.5"/>
<path d="M25.7413 6.99145C25.7413 7.63359 25.2266 8.15415 24.5916 8.15415C23.9567 8.15415 23.442 7.63359 23.442 6.99145C23.442 6.34932 23.9567 5.82876 24.5916 5.82876C25.2266 5.82876 25.7413 6.34932 25.7413 6.99145Z" fill="black" fill-opacity="0.5"/>
<path fill-rule="evenodd" clip-rule="evenodd" d="M24.5916 5.82538C23.9549 5.82538 23.4387 6.34745 23.4387 6.99146C23.4387 7.63546 23.9549 8.15753 24.5916 8.15753C25.2284 8.15753 25.7446 7.63546 25.7446 6.99146C25.7446 6.34745 25.2284 5.82538 24.5916 5.82538ZM28.0439 6.99146C28.0439 8.91974 26.4983 10.4829 24.5916 10.4829C22.685 10.4829 21.1394 8.91974 21.1394 6.99146C21.1394 5.06318 22.685 3.5 24.5916 3.5C26.4983 3.5 28.0439 5.06318 28.0439 6.99146Z" fill="black" fill-opacity="0.5"/>
<path fill-rule="evenodd" clip-rule="evenodd" d="M37.699 17.9191V31.8748H25.7412V29.546H35.3964V20.2479H25.7412V17.9191H37.699Z" fill="black" fill-opacity="0.5"/>
<path d="M36.5478 20.2461C35.9128 20.2461 35.3981 19.7256 35.3981 19.0835C35.3981 18.4413 35.9128 17.9208 36.5478 17.9208C37.1827 17.9208 37.6974 18.4413 37.6974 19.0835C37.6974 19.7256 37.1827 20.2461 36.5478 20.2461Z" fill="black" fill-opacity="0.5"/>
<path fill-rule="evenodd" clip-rule="evenodd" d="M37.7007 19.0835C37.7007 18.4394 37.1845 17.9174 36.5478 17.9174C35.911 17.9174 35.3948 18.4394 35.3948 19.0835C35.3948 19.7275 35.911 20.2495 36.5478 20.2495C37.1845 20.2495 37.7007 19.7275 37.7007 19.0835ZM36.5478 22.5749C34.6412 22.5749 33.0955 21.0117 33.0955 19.0835C33.0955 17.1552 34.6412 15.592 36.5478 15.592C38.4544 15.592 40 17.1552 40 19.0835C40 21.0117 38.4544 22.5749 36.5478 22.5749Z" fill="black" fill-opacity="0.5"/>
<path d="M36.5478 31.8731C35.9128 31.8731 35.3981 31.3525 35.3981 30.7104C35.3981 30.0683 35.9128 29.5477 36.5478 29.5477C37.1827 29.5477 37.6974 30.0683 37.6974 30.7104C37.6974 31.3525 37.1827 31.8731 36.5478 31.8731Z" fill="black" fill-opacity="0.5"/>
<path fill-rule="evenodd" clip-rule="evenodd" d="M37.7007 30.7104C37.7007 30.0664 37.1845 29.5443 36.5478 29.5443C35.911 29.5443 35.3948 30.0664 35.3948 30.7104C35.3948 31.3544 35.911 31.8765 36.5478 31.8765C37.1845 31.8765 37.7007 31.3544 37.7007 30.7104ZM36.5478 34.2019C34.6412 34.2019 33.0955 32.6387 33.0955 30.7104C33.0955 28.7821 34.6412 27.2189 36.5478 27.2189C38.4544 27.2189 40 28.7821 40 30.7104C40 32.6387 38.4544 34.2019 36.5478 34.2019Z" fill="black" fill-opacity="0.5"/>
<path d="M25.7413 19.0835C25.7413 19.7256 25.2266 20.2462 24.5917 20.2462C23.9568 20.2462 23.4421 19.7256 23.4421 19.0835C23.4421 18.4413 23.9568 17.9208 24.5917 17.9208C25.2266 17.9208 25.7413 18.4413 25.7413 19.0835Z" fill="black" fill-opacity="0.5"/>
<path d="M19.2093 19.0835C19.2093 22.0898 21.6191 24.527 24.5917 24.527C24.9862 24.527 25.3709 24.484 25.7413 24.4025V40.7727C25.7413 42.279 24.534 43.5 23.0446 43.5H14.6424C13.1531 43.5 11.9457 42.279 11.9457 40.7727V31.8731H2.69663C1.20732 31.8731 0 30.652 0 29.1458V20.648C0 19.1418 1.20732 17.9208 2.69663 17.9208H19.3324C19.2518 18.2954 19.2093 18.6844 19.2093 19.0835Z" fill="black" fill-opacity="0.5"/>
<path d="M25.7413 19.0835C25.7413 19.7256 25.2266 20.2462 24.5917 20.2462C23.9568 20.2462 23.4421 19.7256 23.4421 19.0835C23.4421 18.4413 23.9568 17.9208 24.5917 17.9208C25.2266 17.9208 25.7413 18.4413 25.7413 19.0835Z" fill="black" fill-opacity="0.5"/>
<path fill-rule="evenodd" clip-rule="evenodd" d="M24.5917 17.9174C23.9549 17.9174 23.4387 18.4394 23.4387 19.0835C23.4387 19.7275 23.9549 20.2495 24.5917 20.2495C25.2285 20.2495 25.7447 19.7275 25.7447 19.0835C25.7447 18.4394 25.2285 17.9174 24.5917 17.9174ZM28.0439 19.0835C28.0439 21.0117 26.4983 22.5749 24.5917 22.5749C22.6851 22.5749 21.1395 21.0117 21.1395 19.0835C21.1395 17.1552 22.6851 15.592 24.5917 15.592C26.4983 15.592 28.0439 17.1552 28.0439 19.0835Z" fill="black" fill-opacity="0.5"/>
<path fill-rule="evenodd" clip-rule="evenodd" d="M11.944 2.82708H25.7429V14.9208H23.4403V5.15585H14.2466V14.9208H11.944V2.82708Z" fill="url(#paint0_linear_1_907)"/>
<path d="M14.245 3.99145C14.245 4.63359 13.7303 5.15415 13.0954 5.15415C12.4604 5.15415 11.9457 4.63359 11.9457 3.99145C11.9457 3.34932 12.4604 2.82876 13.0954 2.82876C13.7303 2.82876 14.245 3.34932 14.245 3.99145Z" fill="#262D38"/>
<path fill-rule="evenodd" clip-rule="evenodd" d="M13.0954 2.82538C12.4586 2.82538 11.9424 3.34745 11.9424 3.99146C11.9424 4.63546 12.4586 5.15753 13.0954 5.15753C13.7321 5.15753 14.2483 4.63546 14.2483 3.99146C14.2483 3.34745 13.7321 2.82538 13.0954 2.82538ZM16.5476 3.99146C16.5476 5.91974 15.002 7.48292 13.0954 7.48292C11.1887 7.48292 9.64313 5.91974 9.64313 3.99146C9.64313 2.06318 11.1887 0.5 13.0954 0.5C15.002 0.5 16.5476 2.06318 16.5476 3.99146Z" fill="url(#paint1_linear_1_907)"/>
<path d="M25.7413 3.99145C25.7413 4.63359 25.2266 5.15415 24.5916 5.15415C23.9567 5.15415 23.442 4.63359 23.442 3.99145C23.442 3.34932 23.9567 2.82876 24.5916 2.82876C25.2266 2.82876 25.7413 3.34932 25.7413 3.99145Z" fill="#262D38"/>
<path fill-rule="evenodd" clip-rule="evenodd" d="M24.5916 2.82538C23.9549 2.82538 23.4387 3.34745 23.4387 3.99146C23.4387 4.63546 23.9549 5.15753 24.5916 5.15753C25.2284 5.15753 25.7446 4.63546 25.7446 3.99146C25.7446 3.34745 25.2284 2.82538 24.5916 2.82538ZM28.0439 3.99146C28.0439 5.91974 26.4983 7.48292 24.5916 7.48292C22.685 7.48292 21.1394 5.91974 21.1394 3.99146C21.1394 2.06318 22.685 0.5 24.5916 0.5C26.4983 0.5 28.0439 2.06318 28.0439 3.99146Z" fill="url(#paint2_linear_1_907)"/>
<path fill-rule="evenodd" clip-rule="evenodd" d="M37.699 14.9191V28.8748H25.7412V26.546H35.3964V17.2479H25.7412V14.9191H37.699Z" fill="url(#paint3_linear_1_907)"/>
<path d="M36.5478 17.2461C35.9128 17.2461 35.3981 16.7256 35.3981 16.0835C35.3981 15.4413 35.9128 14.9208 36.5478 14.9208C37.1827 14.9208 37.6974 15.4413 37.6974 16.0835C37.6974 16.7256 37.1827 17.2461 36.5478 17.2461Z" fill="#262D38"/>
<path fill-rule="evenodd" clip-rule="evenodd" d="M37.7007 16.0835C37.7007 15.4394 37.1845 14.9174 36.5478 14.9174C35.911 14.9174 35.3948 15.4394 35.3948 16.0835C35.3948 16.7275 35.911 17.2495 36.5478 17.2495C37.1845 17.2495 37.7007 16.7275 37.7007 16.0835ZM36.5478 19.5749C34.6412 19.5749 33.0955 18.0117 33.0955 16.0835C33.0955 14.1552 34.6412 12.592 36.5478 12.592C38.4544 12.592 40 14.1552 40 16.0835C40 18.0117 38.4544 19.5749 36.5478 19.5749Z" fill="url(#paint4_linear_1_907)"/>
<path d="M36.5478 28.8731C35.9128 28.8731 35.3981 28.3525 35.3981 27.7104C35.3981 27.0683 35.9128 26.5477 36.5478 26.5477C37.1827 26.5477 37.6974 27.0683 37.6974 27.7104C37.6974 28.3525 37.1827 28.8731 36.5478 28.8731Z" fill="#262D38"/>
<path fill-rule="evenodd" clip-rule="evenodd" d="M37.7007 27.7104C37.7007 27.0664 37.1845 26.5443 36.5478 26.5443C35.911 26.5443 35.3948 27.0664 35.3948 27.7104C35.3948 28.3544 35.911 28.8765 36.5478 28.8765C37.1845 28.8765 37.7007 28.3544 37.7007 27.7104ZM36.5478 31.2019C34.6412 31.2019 33.0955 29.6387 33.0955 27.7104C33.0955 25.7821 34.6412 24.2189 36.5478 24.2189C38.4544 24.2189 40 25.7821 40 27.7104C40 29.6387 38.4544 31.2019 36.5478 31.2019Z" fill="url(#paint5_linear_1_907)"/>
<path d="M25.7413 16.0835C25.7413 16.7256 25.2266 17.2462 24.5917 17.2462C23.9568 17.2462 23.4421 16.7256 23.4421 16.0835C23.4421 15.4413 23.9568 14.9208 24.5917 14.9208C25.2266 14.9208 25.7413 15.4413 25.7413 16.0835Z" fill="#262D38"/>
<path d="M19.2093 16.0835C19.2093 19.0898 21.6191 21.527 24.5917 21.527C24.9862 21.527 25.3709 21.484 25.7413 21.4025V37.7727C25.7413 39.279 24.534 40.5 23.0446 40.5H14.6424C13.1531 40.5 11.9457 39.279 11.9457 37.7727V28.8731H2.69663C1.20732 28.8731 0 27.652 0 26.1458V17.648C0 16.1418 1.20732 14.9208 2.69663 14.9208H19.3324C19.2518 15.2954 19.2093 15.6844 19.2093 16.0835Z" fill="url(#paint6_linear_1_907)"/>
<path d="M25.7413 16.0835C25.7413 16.7256 25.2266 17.2462 24.5917 17.2462C23.9568 17.2462 23.4421 16.7256 23.4421 16.0835C23.4421 15.4413 23.9568 14.9208 24.5917 14.9208C25.2266 14.9208 25.7413 15.4413 25.7413 16.0835Z" fill="#262D38"/>
<path fill-rule="evenodd" clip-rule="evenodd" d="M24.5917 14.9174C23.9549 14.9174 23.4387 15.4394 23.4387 16.0835C23.4387 16.7275 23.9549 17.2495 24.5917 17.2495C25.2285 17.2495 25.7447 16.7275 25.7447 16.0835C25.7447 15.4394 25.2285 14.9174 24.5917 14.9174ZM28.0439 16.0835C28.0439 18.0117 26.4983 19.5749 24.5917 19.5749C22.6851 19.5749 21.1395 18.0117 21.1395 16.0835C21.1395 14.1552 22.6851 12.592 24.5917 12.592C26.4983 12.592 28.0439 14.1552 28.0439 16.0835Z" fill="url(#paint7_linear_1_907)"/>
<path d="M63.02 3.9V6.7H58.42V18H55.22V6.7H50.6V3.9H63.02ZM62.2156 18V9.42C62.2156 8.32 62.8356 7.72 63.9356 7.74L70.5556 7.9V10.7L65.4156 10.58V18H62.2156ZM77.0417 15.4C78.7817 15.4 79.9217 14.48 79.9217 11.64V7.9H83.1217V18H79.9217V16.78L80.5217 14.98H79.7217C79.3217 16.78 78.0617 18.2 75.9017 18.2C73.3217 18.2 71.7617 16.48 71.7617 13.36V7.9H74.9617V12.86C74.9617 14.7 75.5017 15.4 77.0417 15.4ZM84.3156 12.82C84.3156 9.62 86.4956 7.7 89.6356 7.7C92.7756 7.7 94.9756 9.56 94.9756 12.62V13.62H87.3156C87.3156 14.78 88.1556 15.6 89.9756 15.6C91.0956 15.6 91.9356 15.2 92.1356 14.44H95.3356C95.1356 15.9 93.4756 18.2 89.9756 18.2C86.0956 18.2 84.3156 15.68 84.3156 12.82ZM87.3156 11.82H91.9756C91.9756 11.06 91.4156 10.3 89.6356 10.3C87.8556 10.3 87.3156 11.06 87.3156 11.82ZM107.998 3.9C111.558 3.9 114.278 4.58 114.278 8.84C114.278 13.12 111.558 13.8 107.998 13.8H106.138V18H102.938V3.9H107.998ZM108.198 11C110.098 11 111.078 10.8 111.078 8.84C111.078 6.9 110.098 6.7 108.198 6.7H106.138V11H108.198ZM122.893 7.7C125.473 7.7 127.033 9.42 127.033 12.54V18H123.833V13.04C123.833 11.2 123.293 10.5 121.753 10.5C120.013 10.5 118.873 11.42 118.873 14.26V18H115.673V3.3H118.873V9.12L118.273 10.92H119.073C119.473 9.12 120.733 7.7 122.893 7.7ZM128.437 15.24C128.437 13.5 129.477 12.48 132.477 12.06L135.657 11.62C135.657 10.8 135.017 10.3 133.637 10.3C132.357 10.3 131.637 10.84 131.637 11.76H128.637C128.637 9.2 130.817 7.7 133.637 7.7C136.417 7.7 138.857 9.04 138.857 12.36V15.2H140.317V18H138.097C137.137 18 136.597 17.46 136.597 16.5V16.3L137.097 15.1H136.297C135.917 16.78 134.937 18.2 132.117 18.2C128.977 18.2 128.437 16.28 128.437 15.24ZM131.637 14.64C131.637 15.22 132.197 15.4 132.737 15.4C134.497 15.4 135.657 14.66 135.657 13.42L133.077 13.78C132.117 13.92 131.637 14.06 131.637 14.64ZM141.513 18V9.42C141.513 8.32 142.133 7.72 143.233 7.74L149.853 7.9V10.7L144.713 10.58V18H141.513ZM164.583 7.7C167.163 7.7 167.943 10.02 167.943 12.74V18H164.743V12.96C164.743 11.04 164.423 10.5 163.243 10.5C161.503 10.5 161.103 12.02 161.103 14.46V18H157.903V12.96C157.903 11.04 157.583 10.5 156.403 10.5C154.663 10.5 154.263 12.02 154.263 14.46V18H151.063V7.9H154.263V8.92L153.663 10.72H154.463C154.863 8.92 155.783 7.7 157.743 7.7C159.643 7.7 160.443 8.96 160.743 10.72H161.323C161.723 8.92 162.623 7.7 164.583 7.7ZM169.355 15.24C169.355 13.5 170.395 12.48 173.395 12.06L176.575 11.62C176.575 10.8 175.935 10.3 174.555 10.3C173.275 10.3 172.555 10.84 172.555 11.76H169.555C169.555 9.2 171.735 7.7 174.555 7.7C177.335 7.7 179.775 9.04 179.775 12.36V15.2H181.235V18H179.015C178.055 18 177.515 17.46 177.515 16.5V16.3L178.015 15.1H177.215C176.835 16.78 175.855 18.2 173.035 18.2C169.895 18.2 169.355 16.28 169.355 15.24ZM172.555 14.64C172.555 15.22 173.115 15.4 173.655 15.4C175.415 15.4 176.575 14.66 176.575 13.42L173.995 13.78C173.035 13.92 172.555 14.06 172.555 14.64ZM181.835 12.94C181.835 9.58 184.135 7.7 187.355 7.7C190.115 7.7 192.635 9.2 192.775 12.08H189.575C189.455 11.18 188.635 10.5 187.355 10.5C185.835 10.5 185.035 11.4 185.035 12.94C185.035 14.5 185.835 15.4 187.355 15.4C188.635 15.4 189.455 14.72 189.575 13.82H192.775C192.635 16.7 190.115 18.2 187.355 18.2C184.135 18.2 181.835 16.32 181.835 12.94ZM201.393 7.9H205.013L200.393 17.4V20.52C200.393 21.64 199.773 22.24 198.673 22.2L193.733 22.06V19.26L197.193 19.32V17.4L192.573 7.9H196.173L198.393 13.46V15.06H199.193V13.46L201.393 7.9Z" fill="white"/>
<path d="M50.322 29.042H51.414L53.094 35.678H53.43L54.83 29.042H57.196L58.61 35.678H58.932L60.626 29.042H61.704L59.94 36H57.602L56.188 29.378H55.852L54.438 36H52.086L50.322 29.042ZM64.8648 27.936C64.5755 27.936 64.3328 27.8427 64.1368 27.656C63.9502 27.4693 63.8568 27.236 63.8568 26.956C63.8568 26.6853 63.9502 26.4567 64.1368 26.27C64.3328 26.0833 64.5755 25.99 64.8648 25.99C65.1448 25.99 65.3828 26.0833 65.5788 26.27C65.7748 26.4567 65.8728 26.6853 65.8728 26.956C65.8728 27.236 65.7748 27.4693 65.5788 27.656C65.3828 27.8427 65.1448 27.936 64.8648 27.936ZM62.5408 36V35.02H64.5008V29.896L63.0588 30.022V29.042L64.6688 28.902C65.2755 28.846 65.5788 29.126 65.5788 29.742V35.02H67.5388V36H62.5408ZM70.2636 35.174L72.7136 35.02V36L70.0816 36.14C69.7549 36.1587 69.5122 36.0887 69.3536 35.93C69.2042 35.762 69.1296 35.5147 69.1296 35.188V30.022H67.5896V29.042H69.1296V27.25L70.2636 26.9V29.042H72.4336V30.022H70.2636V35.174ZM78.2809 28.902C79.0929 28.902 79.7275 29.14 80.1849 29.616C80.6422 30.092 80.8709 30.8013 80.8709 31.744V36H79.7369V31.898C79.7369 31.1793 79.5922 30.666 79.3029 30.358C79.0229 30.0407 78.5795 29.882 77.9729 29.882C77.2262 29.882 76.6195 30.1573 76.1529 30.708C75.6955 31.2587 75.4669 31.996 75.4669 32.92V36H74.3189V25.71H75.4669V30.246L75.2849 31.044H75.6069C75.7562 30.3907 76.0549 29.8727 76.5029 29.49C76.9602 29.098 77.5529 28.902 78.2809 28.902ZM94.4719 36L93.2259 32.136H89.2639L88.0319 36H86.8839L90.0759 26.13H92.4279L95.6059 36H94.4719ZM89.5859 31.156H92.9179L91.4059 26.452H91.0839L89.5859 31.156ZM102.528 27.11H100.33V35.02H102.528V36H96.9699V35.02H99.1819V27.11H96.9699V26.13H102.528V27.11Z" fill="white"/>
<defs>
<linearGradient id="paint0_linear_1_907" x1="22.07" y1="0.499997" x2="22.07" y2="40.5" gradientUnits="userSpaceOnUse">
<stop stop-color="#616EDE"/>
<stop offset="0.3" stop-color="#BFC5FF"/>
<stop offset="0.6" stop-color="#7D87E5"/>
<stop offset="1" stop-color="#616EDE"/>
<stop offset="1" stop-color="#616EDE"/>
</linearGradient>
<linearGradient id="paint1_linear_1_907" x1="22.07" y1="0.499997" x2="22.07" y2="40.5" gradientUnits="userSpaceOnUse">
<stop stop-color="#616EDE"/>
<stop offset="0.3" stop-color="#BFC5FF"/>
<stop offset="0.6" stop-color="#7D87E5"/>
<stop offset="1" stop-color="#616EDE"/>
<stop offset="1" stop-color="#616EDE"/>
</linearGradient>
<linearGradient id="paint2_linear_1_907" x1="22.07" y1="0.499997" x2="22.07" y2="40.5" gradientUnits="userSpaceOnUse">
<stop stop-color="#616EDE"/>
<stop offset="0.3" stop-color="#BFC5FF"/>
<stop offset="0.6" stop-color="#7D87E5"/>
<stop offset="1" stop-color="#616EDE"/>
<stop offset="1" stop-color="#616EDE"/>
</linearGradient>
<linearGradient id="paint3_linear_1_907" x1="22.07" y1="0.499997" x2="22.07" y2="40.5" gradientUnits="userSpaceOnUse">
<stop stop-color="#616EDE"/>
<stop offset="0.3" stop-color="#BFC5FF"/>
<stop offset="0.6" stop-color="#7D87E5"/>
<stop offset="1" stop-color="#616EDE"/>
<stop offset="1" stop-color="#616EDE"/>
</linearGradient>
<linearGradient id="paint4_linear_1_907" x1="22.07" y1="0.499997" x2="22.07" y2="40.5" gradientUnits="userSpaceOnUse">
<stop stop-color="#616EDE"/>
<stop offset="0.3" stop-color="#BFC5FF"/>
<stop offset="0.6" stop-color="#7D87E5"/>
<stop offset="1" stop-color="#616EDE"/>
<stop offset="1" stop-color="#616EDE"/>
</linearGradient>
<linearGradient id="paint5_linear_1_907" x1="22.07" y1="0.499997" x2="22.07" y2="40.5" gradientUnits="userSpaceOnUse">
<stop stop-color="#616EDE"/>
<stop offset="0.3" stop-color="#BFC5FF"/>
<stop offset="0.6" stop-color="#7D87E5"/>
<stop offset="1" stop-color="#616EDE"/>
<stop offset="1" stop-color="#616EDE"/>
</linearGradient>
<linearGradient id="paint6_linear_1_907" x1="22.07" y1="0.499997" x2="22.07" y2="40.5" gradientUnits="userSpaceOnUse">
<stop stop-color="#616EDE"/>
<stop offset="0.3" stop-color="#BFC5FF"/>
<stop offset="0.6" stop-color="#7D87E5"/>
<stop offset="1" stop-color="#616EDE"/>
<stop offset="1" stop-color="#616EDE"/>
</linearGradient>
<linearGradient id="paint7_linear_1_907" x1="22.07" y1="0.499997" x2="22.07" y2="40.5" gradientUnits="userSpaceOnUse">
<stop stop-color="#616EDE"/>
<stop offset="0.3" stop-color="#BFC5FF"/>
<stop offset="0.6" stop-color="#7D87E5"/>
<stop offset="1" stop-color="#616EDE"/>
<stop offset="1" stop-color="#616EDE"/>
</linearGradient>
</defs>
</svg>
