<svg width="45" height="30" viewBox="0 0 45 30" fill="none" xmlns="http://www.w3.org/2000/svg">
<rect x="0.5" y="0.5" width="44" height="29" rx="4.5" stroke="black" stroke-opacity="0.05"/>
<path d="M25.5266 21.3974H18.9155V9.60449H25.5266V21.3974Z" fill="#6C6BBD"/>
<path d="M19.3391 15.5C19.3391 13.1078 20.4675 10.9768 22.2248 9.60356C20.9397 8.59937 19.3179 8 17.5553 8C13.3825 8 10 11.3578 10 15.5C10 19.6422 13.3825 23 17.5553 23C19.3179 23 20.9397 22.4007 22.2248 21.3965C20.4675 20.0232 19.3391 17.8922 19.3391 15.5Z" fill="#EB001B"/>
<path d="M34.4429 15.5C34.4429 19.6422 31.0604 23 26.8877 23C25.125 23 23.5032 22.4007 22.2177 21.3965C23.9754 20.0232 25.1039 17.8922 25.1039 15.5C25.1039 13.1078 23.9754 10.9768 22.2177 9.60356C23.5032 8.59937 25.125 8 26.8877 8C31.0604 8 34.4429 11.3578 34.4429 15.5Z" fill="#0099DF"/>
</svg>
