<svg width="45" height="30" viewBox="0 0 45 30" fill="none" xmlns="http://www.w3.org/2000/svg">
<rect x="0.5" y="0.5" width="44" height="29" rx="4.5" stroke="black" stroke-opacity="0.05"/>
<path d="M38.039 12.1238C38.0812 12.1691 38.1128 12.2144 38.155 12.2711C38.1865 12.3165 38.2181 12.3505 38.2496 12.3958C38.2918 12.4411 38.334 12.4978 38.3656 12.5431C38.3971 12.5885 38.4393 12.6338 38.4709 12.6791C38.5131 12.7358 38.5553 12.7925 38.5971 12.8491C38.6393 12.9058 38.6709 12.9511 38.7131 13.0078C38.7553 13.0531 38.7868 13.0985 38.829 13.1438C38.8606 13.1891 38.8921 13.2231 38.9237 13.2685C38.9659 13.3251 39.0187 13.3818 39.0609 13.4385C39.1028 13.4838 39.1346 13.5405 39.1765 13.5858C39.2084 13.6312 39.2503 13.6652 39.2821 13.7105C39.3031 13.7332 39.3137 13.7558 39.3346 13.7785C39.3559 13.8125 39.3875 13.8352 39.4084 13.8692C39.4293 13.8918 39.4506 13.9258 39.4715 13.9485C39.4928 13.9712 39.5243 14.0052 39.535 14.0392C39.5665 14.0845 39.6087 14.1185 39.6403 14.1752C39.6612 14.2092 39.6928 14.2318 39.714 14.2658C39.7562 14.3225 39.8087 14.3905 39.8509 14.4472C39.8718 14.4812 39.9034 14.5039 39.9246 14.5379C39.9562 14.5832 39.9878 14.6172 40.0193 14.6625C40.0406 14.6965 40.0721 14.7192 40.0931 14.7532C40.1246 14.7985 40.1565 14.8439 40.1881 14.8892C40.2196 14.9345 40.2618 14.9799 40.3037 15.0252C40.3356 15.0592 40.3565 15.0932 40.3775 15.1272C40.4093 15.1612 40.3987 15.1952 40.3671 15.2292C40.325 15.2859 40.2828 15.3425 40.2303 15.3992C40.1984 15.4445 40.1565 15.4899 40.1246 15.5239C40.0828 15.5692 40.0509 15.6259 40.009 15.6712C39.9771 15.7165 39.9353 15.7619 39.9034 15.8072C39.8615 15.8525 39.83 15.9092 39.7981 15.9545C39.7665 15.9999 39.7243 16.0452 39.6928 16.0905C39.6718 16.1245 39.6403 16.1586 39.619 16.1926C39.5875 16.2379 39.5559 16.2719 39.5243 16.3172C39.4928 16.3512 39.4715 16.3852 39.44 16.4192C39.3978 16.4759 39.3453 16.5326 39.3031 16.5892C39.2715 16.6346 39.2293 16.6799 39.1978 16.7252C39.1556 16.7706 39.1134 16.8272 39.0818 16.8726C39.0609 16.9066 39.029 16.9406 39.0081 16.9746C38.9765 17.0199 38.9343 17.0653 38.9028 17.1106C38.8712 17.1559 38.829 17.2013 38.7975 17.2466C38.7446 17.3033 38.7025 17.3713 38.65 17.4279C38.5971 17.4959 38.5446 17.5639 38.4918 17.6319C38.4496 17.6773 38.4078 17.7339 38.3759 17.7793C38.3443 17.8246 38.3128 17.8699 38.2706 17.9153C38.239 17.9606 38.1968 18.0059 38.1653 18.0513C38.1337 18.0966 38.0915 18.1419 38.06 18.1873C38.06 18.1873 38.0493 18.1873 38.039 18.1986C38.039 16.1812 38.039 14.1638 38.039 12.1464C38.0284 12.1238 38.039 12.1238 38.039 12.1238Z" fill="#7FA9B3"/>
<path fill-rule="evenodd" clip-rule="evenodd" d="M6.06878 12.3248H5C5 14.8762 5 17.4381 5.02096 20H6.13165V17.3126C6.16341 17.3506 6.19902 17.381 6.23381 17.4106C6.25641 17.4299 6.27867 17.4489 6.2993 17.4695C6.45648 17.6159 6.64508 17.7309 6.84417 17.8041C7.12708 17.9086 7.41 17.9086 7.70339 17.8877C7.892 17.8773 8.0806 17.8459 8.26921 17.7936C8.46831 17.7413 8.64643 17.6577 8.79312 17.5217C9.03412 17.3021 9.19131 17.0303 9.29609 16.727C9.39037 16.4447 9.45324 16.1624 9.47421 15.8591C9.49518 15.65 9.51612 15.4409 9.51612 15.2317C9.51612 15.0017 9.50565 14.7612 9.49518 14.5311C9.48468 14.3847 9.46374 14.2383 9.44277 14.092C9.41134 13.9037 9.36943 13.7155 9.31702 13.5273C9.24368 13.2763 9.12843 13.0567 8.96077 12.858C8.82456 12.6907 8.66737 12.5653 8.47878 12.4816C8.33209 12.4084 8.1749 12.3666 8.01773 12.3248C7.75578 12.262 7.49382 12.2411 7.23186 12.2725C7.03278 12.2934 6.83369 12.3561 6.65556 12.4398C6.47743 12.5339 6.30978 12.6489 6.16309 12.7953C6.13165 12.8162 6.10021 12.8476 6.06878 12.879V12.3248ZM8.31112 14.3429C8.36353 14.573 8.38446 14.8239 8.36353 15.0644C8.36353 15.1007 8.36415 15.1376 8.36481 15.1749C8.36678 15.2879 8.36881 15.4039 8.35303 15.5141C8.32159 15.8277 8.27968 16.1519 8.12252 16.4342C7.9863 16.6852 7.78721 16.842 7.5043 16.8839C7.36808 16.9048 7.23186 16.9152 7.09565 16.9048C6.84417 16.8839 6.62413 16.7793 6.46695 16.5702C6.30978 16.3715 6.22595 16.1415 6.17356 15.901C6.15261 15.765 6.13165 15.6186 6.12117 15.4827C6.11855 15.4304 6.11528 15.3781 6.112 15.3258C6.10218 15.169 6.09236 15.0121 6.10021 14.8553C6.11069 14.4893 6.16309 14.1233 6.35169 13.7887C6.50887 13.5064 6.73939 13.3286 7.06421 13.2763C7.23186 13.2554 7.39952 13.2449 7.56717 13.3077C7.78721 13.3809 7.95486 13.5273 8.0806 13.726C8.19587 13.9142 8.26921 14.1233 8.31112 14.3429Z" fill="#183B56"/>
<path fill-rule="evenodd" clip-rule="evenodd" d="M13.5753 17.5327V18.0211C13.9462 18.0211 14.3065 18.0211 14.6774 18.0319V17.956V14.0271C14.6774 13.8209 14.6456 13.6147 14.5715 13.4085C14.4337 13.0286 14.1794 12.7464 13.8296 12.5511C13.6177 12.4317 13.3952 12.3666 13.1514 12.3232C12.9077 12.2906 12.664 12.2581 12.4202 12.2581C12.3142 12.2581 12.2083 12.2581 12.1023 12.2689C12.0069 12.2689 11.9221 12.2689 11.8268 12.2906C11.5936 12.334 11.3605 12.3883 11.1485 12.486C10.8518 12.6162 10.5975 12.7899 10.4067 13.0503C10.3855 13.0829 10.3961 13.0937 10.4173 13.1155C10.4597 13.148 10.5021 13.1914 10.5445 13.2348C10.6081 13.3 10.6743 13.3624 10.7406 13.4248C10.8068 13.4872 10.873 13.5496 10.9366 13.6147C10.9631 13.6364 10.9869 13.6608 11.0108 13.6852C11.0346 13.7097 11.0585 13.7341 11.085 13.7558C11.1061 13.7775 11.1273 13.7884 11.1591 13.7558C11.1945 13.7124 11.2298 13.6786 11.2651 13.6448C11.2828 13.628 11.3004 13.6111 11.3181 13.593C11.4453 13.4736 11.5936 13.3868 11.7526 13.3325C11.9751 13.2457 12.2083 13.2131 12.452 13.2457C12.6321 13.2674 12.8123 13.2891 12.9819 13.3542C13.2362 13.4519 13.4164 13.6147 13.4905 13.886C13.5209 13.9896 13.5319 14.1031 13.5421 14.2077C13.5425 14.2126 13.543 14.2176 13.5435 14.2225C13.5505 14.323 13.5483 14.4235 13.5459 14.5272C13.5447 14.5802 13.5435 14.6341 13.5435 14.6892H13.5117C12.9925 14.6892 12.4626 14.6892 11.9327 14.7C11.8268 14.7 11.7208 14.7109 11.6148 14.7217C11.3393 14.7543 11.085 14.852 10.8518 15.0039C10.5657 15.1884 10.3537 15.438 10.2478 15.7745C10.1736 16.0024 10.1418 16.2412 10.1736 16.4799C10.1842 16.5396 10.1921 16.602 10.2001 16.6644C10.208 16.7268 10.216 16.7892 10.2266 16.849C10.2796 17.0877 10.3749 17.3048 10.5339 17.4893C10.6822 17.6738 10.873 17.804 11.085 17.9017C11.3393 18.0102 11.5936 18.0645 11.8586 18.0645C12.0493 18.0645 12.2401 18.0536 12.4308 18.0319C12.5686 18.0211 12.7063 17.9994 12.8441 17.9668C13.0242 17.9234 13.1832 17.8149 13.3422 17.7064C13.4164 17.6521 13.4906 17.5978 13.5753 17.5327ZM13.4905 15.5031H13.5541V16.0675C13.5435 16.2086 13.5329 16.3497 13.5011 16.4908C13.4693 16.6319 13.374 16.7404 13.268 16.8381C13.109 16.9792 12.9289 17.0551 12.7275 17.0877C12.5898 17.1094 12.452 17.1311 12.3142 17.1094C12.2612 17.104 12.2083 17.1013 12.1553 17.0986C12.1023 17.0959 12.0493 17.0931 11.9963 17.0877C11.8056 17.066 11.6148 17.0117 11.4665 16.8706C11.3817 16.7838 11.3181 16.6753 11.2969 16.545C11.2651 16.3823 11.2545 16.2195 11.3075 16.0567C11.3711 15.8721 11.4876 15.7528 11.6466 15.6551C11.8268 15.5466 12.0281 15.5031 12.2401 15.5031H13.4905Z" fill="#183B56"/>
<path fill-rule="evenodd" clip-rule="evenodd" d="M32.6074 16.0262C32.5644 15.8639 32.5429 15.7016 32.5214 15.5285C33.7586 15.5285 34.9743 15.5285 36.2223 15.5177C36.2232 15.5085 36.224 15.4993 36.2248 15.4902C36.2347 15.3818 36.2439 15.2812 36.2439 15.1715C36.2439 15.1321 36.241 15.0957 36.2381 15.0607C36.2356 15.0283 36.2331 14.9971 36.2331 14.9659C36.2331 14.8469 36.2223 14.7278 36.2116 14.6088C36.19 14.4466 36.1685 14.2951 36.1363 14.1328C36.061 13.7757 35.9318 13.4403 35.7167 13.1374C35.5876 12.9426 35.4262 12.7803 35.2433 12.6505C34.8775 12.4017 34.4687 12.2826 34.0276 12.261C33.8823 12.2529 33.7371 12.263 33.5918 12.2732C33.5434 12.2766 33.495 12.2799 33.4466 12.2826C33.2529 12.2935 33.0701 12.3476 32.8871 12.4125C32.5644 12.5315 32.2954 12.7262 32.0695 12.9859C31.9404 13.1266 31.8328 13.2889 31.7575 13.462C31.6714 13.6459 31.6069 13.8298 31.5531 14.0138C31.467 14.2842 31.4347 14.5547 31.4132 14.8361C31.4025 14.9983 31.4025 15.1498 31.4132 15.3121C31.4132 15.4275 31.4228 15.5429 31.4323 15.6583C31.4371 15.716 31.4419 15.7737 31.4455 15.8314C31.4562 16.037 31.5101 16.2426 31.5746 16.4373C31.6714 16.7727 31.8221 17.0649 32.048 17.3245C32.2416 17.5517 32.4783 17.7249 32.7581 17.8547C33.0593 17.9845 33.3821 18.0494 33.7048 18.0603C33.9307 18.0711 34.1459 18.0603 34.3718 18.0386C34.5117 18.0278 34.6516 18.0061 34.7807 17.9737C35.0389 17.9088 35.2863 17.8222 35.5123 17.6816C35.7059 17.5625 35.8888 17.4111 36.0394 17.2271C36.061 17.2055 36.061 17.1839 36.0394 17.1622C35.9856 17.1081 35.9318 17.0567 35.878 17.0054C35.8243 16.954 35.7705 16.9026 35.7167 16.8485L35.3616 16.4914C35.3132 16.5293 35.2675 16.5672 35.2218 16.605C35.1761 16.6429 35.1303 16.6808 35.0819 16.7186C34.7807 16.9567 34.4256 17.0757 34.0383 17.0865C33.877 17.0973 33.7048 17.0649 33.5434 17.0324C33.3605 16.9891 33.1884 16.9134 33.0485 16.7944C32.8118 16.5888 32.6827 16.3183 32.6074 16.0262ZM35.0604 14.6737H32.5429C32.5536 14.5764 32.5536 14.479 32.5536 14.3816C32.559 14.3602 32.5643 14.3385 32.5697 14.3165C32.5969 14.2056 32.6253 14.0897 32.6612 13.9813C32.7903 13.6351 33.0162 13.3754 33.3713 13.2672C33.7263 13.159 34.0814 13.1807 34.4149 13.3646C34.6516 13.4944 34.8022 13.7 34.899 13.938C34.9528 14.0787 34.9958 14.2301 35.0281 14.3816C35.0425 14.4466 35.0472 14.5115 35.052 14.5764C35.0544 14.6088 35.0568 14.6413 35.0604 14.6737Z" fill="#183B56"/>
<path d="M18.9008 12.2581C19.3137 12.2581 19.7375 12.2581 20.1613 12.2581C20.1613 12.2792 20.1613 12.2898 20.1504 12.3109C20.0417 12.5963 19.9331 12.8923 19.8244 13.1776C19.7375 13.3891 19.6615 13.611 19.5745 13.8224C19.4441 14.1712 19.3029 14.52 19.1725 14.8794C19.0747 15.1331 18.9769 15.3868 18.8791 15.6405C18.7487 15.9893 18.6075 16.3486 18.4771 16.6975C18.3793 16.9617 18.2815 17.226 18.1728 17.4902C18.0533 17.8073 17.9338 18.1244 17.8034 18.4415C17.6947 18.7163 17.5969 18.9911 17.4666 19.2554C17.2927 19.6148 16.9885 19.8579 16.5864 19.953C16.4777 19.9741 16.3691 19.9847 16.2604 19.9953C16.1083 20.0059 15.9562 19.9953 15.8041 19.9953C15.6302 19.9953 15.4672 19.9953 15.2825 19.9953C15.2825 19.6676 15.2825 19.3294 15.2825 18.9806C15.3368 18.9806 15.3803 18.9806 15.4346 18.9806C15.6193 18.9806 15.7932 18.9806 15.9779 18.9806C16.2713 18.97 16.5321 18.8115 16.6299 18.5366C16.7494 18.2301 16.8581 17.913 16.9667 17.5959C16.9885 17.5325 16.945 17.4902 16.9341 17.4374C16.8472 17.1942 16.7603 16.9617 16.6733 16.7291C16.5538 16.4015 16.4234 16.0738 16.3039 15.7461C16.1518 15.3551 16.0105 14.964 15.8584 14.5729C15.7172 14.1924 15.565 13.8118 15.4238 13.4313C15.2934 13.0719 15.1521 12.7126 15.0217 12.3532C15.0109 12.3426 15.0109 12.3215 15 12.3003C15.3912 12.3003 15.7932 12.3003 16.1844 12.3003C16.217 12.3003 16.2278 12.3215 16.2278 12.3426C16.293 12.5329 16.3582 12.7231 16.4234 12.9134C16.5647 13.3045 16.6951 13.6956 16.8363 14.0866C16.9667 14.4566 17.0971 14.8266 17.2275 15.2071C17.3362 15.5136 17.4448 15.8201 17.5535 16.1267C17.5535 16.1372 17.5643 16.1478 17.5752 16.1584C18.0316 14.8371 18.4662 13.5476 18.9008 12.2581Z" fill="#183B56"/>
<path d="M29.6098 17.7419C29.6098 17.7212 29.6098 17.6902 29.6098 17.6695C29.6098 16.5528 29.6098 15.4465 29.6098 14.3298C29.6098 14.0506 29.5254 13.7921 29.3354 13.5646C29.1771 13.3682 28.9556 13.2647 28.7129 13.2441C28.5968 13.2337 28.4807 13.2234 28.3647 13.2337C28.0587 13.2647 27.7949 13.3785 27.6155 13.637C27.4889 13.8128 27.4256 14.0092 27.3939 14.2264C27.3834 14.2987 27.3834 14.3711 27.3834 14.4435C27.3834 15.5188 27.3834 16.5839 27.3834 17.6592C27.3834 17.6799 27.3834 17.7005 27.3834 17.7316C27.0035 17.7316 26.6236 17.7316 26.2438 17.7316C26.2438 15.9221 26.2438 14.1126 26.2438 12.3031C26.6026 12.3031 26.9613 12.3031 27.3306 12.3031C27.3306 12.4789 27.3306 12.6547 27.3306 12.8512C27.4045 12.7891 27.4678 12.7271 27.5416 12.6754C27.7949 12.4893 28.0692 12.3652 28.3858 12.3031C28.5968 12.2618 28.8079 12.2514 29.0189 12.2618C29.2616 12.2721 29.5043 12.3238 29.7258 12.4272C29.9474 12.5306 30.1374 12.6754 30.3062 12.8512C30.475 13.0476 30.6016 13.2751 30.665 13.5336C30.7177 13.7404 30.7388 13.9472 30.7388 14.154C30.7388 14.5159 30.7494 14.8778 30.7494 15.2397C30.7494 15.9014 30.7599 16.5632 30.7599 17.2249C30.7599 17.3904 30.7599 17.5661 30.7599 17.7419C30.359 17.7419 29.9896 17.7419 29.6098 17.7419Z" fill="#183B56"/>
<path d="M20.7599 10C21.154 10 21.5375 10 21.9316 10C21.9316 10.0211 21.9316 10.0421 21.9316 10.0632C21.9316 12.1159 21.9316 14.1581 21.9316 16.2003C21.9316 16.3687 21.9742 16.5372 22.102 16.6635C22.1766 16.7372 22.2724 16.7793 22.3789 16.7793C22.5494 16.7793 22.7091 16.7898 22.8795 16.7898C22.9222 16.7898 22.9754 16.7898 23.018 16.7793C23.018 17.0951 23.018 17.4109 23.018 17.7372C22.9861 17.7372 22.9754 17.7372 22.9541 17.7372C22.6772 17.7372 22.4109 17.7478 22.1339 17.7372C21.8251 17.7267 21.5481 17.632 21.3138 17.4425C21.0262 17.2214 20.8664 16.9162 20.8025 16.5687C20.7706 16.4003 20.7599 16.2214 20.7599 16.0529C20.7599 14.0528 20.7599 12.0633 20.7599 10.0632C20.7599 10.0526 20.7599 10.0316 20.7599 10Z" fill="#183B56"/>
<path d="M23.9858 12.2581C24.3645 12.2581 24.7221 12.2581 25.0903 12.2581C25.0903 14.086 25.0903 15.914 25.0903 17.7419C24.7221 17.7419 24.354 17.7419 23.9858 17.7419C23.9858 15.914 23.9858 14.086 23.9858 12.2581Z" fill="#183B56"/>
<path d="M25.0903 11.2903C24.7221 11.2903 24.354 11.2903 23.9858 11.2903C23.9858 10.8642 23.9858 10.438 23.9858 10C24.354 10 24.7221 10 25.0903 10C25.0903 10.4262 25.0903 10.8523 25.0903 11.2903Z" fill="#183B56"/>
</svg>
