<svg width="45" height="30" viewBox="0 0 45 30" fill="none" xmlns="http://www.w3.org/2000/svg">
<rect x="0.5" y="0.5" width="44" height="29" rx="4.5" stroke="black" stroke-opacity="0.05"/>
<path d="M10.9698 10.4562C10.5278 10.1523 9.95092 10 9.2393 10H6.48428C6.26613 10 6.1456 10.1091 6.12271 10.327L5.00351 17.3524C4.99188 17.4214 5.00914 17.4845 5.05514 17.5419C5.10088 17.5994 5.15841 17.6279 5.2273 17.6279H6.53591C6.76544 17.6279 6.89159 17.5191 6.91475 17.3008L7.22464 15.4069C7.23596 15.3151 7.27632 15.2405 7.34522 15.183C7.41406 15.1256 7.50016 15.0881 7.60348 15.0709C7.70679 15.0538 7.80421 15.0452 7.89621 15.0452C7.98795 15.0452 8.09695 15.051 8.22342 15.0625C8.34957 15.0739 8.42999 15.0795 8.46447 15.0795C9.45161 15.0795 10.2264 14.8014 10.789 14.2445C11.3513 13.6878 11.6328 12.9159 11.6328 11.9285C11.6328 11.2513 11.4116 10.7606 10.9698 10.4562ZM9.54929 12.5656C9.49172 12.9675 9.34267 13.2314 9.10162 13.3577C8.86051 13.4842 8.51615 13.547 8.06852 13.547L7.50027 13.5643L7.79305 11.7218C7.8159 11.5957 7.89047 11.5325 8.01684 11.5325H8.3441C8.80304 11.5325 9.13614 11.5987 9.34277 11.7305C9.54929 11.8626 9.61819 12.1411 9.54929 12.5656Z" fill="#003087"/>
<path d="M40.0439 10H38.7698C38.6432 10 38.5687 10.0632 38.546 10.1894L37.4267 17.3524L37.4094 17.3868C37.4094 17.4445 37.4324 17.4988 37.4784 17.5505C37.5241 17.6021 37.5817 17.6279 37.6505 17.6279H38.7871C39.0049 17.6279 39.1255 17.5191 39.1487 17.3008L40.2679 10.2582V10.241C40.2679 10.0804 40.193 10 40.0439 10Z" fill="#009CDE"/>
<path d="M24.6502 12.7721C24.6502 12.7148 24.6271 12.6602 24.5815 12.6086C24.5354 12.557 24.4837 12.531 24.4265 12.531H23.1006C22.9741 12.531 22.8708 12.5887 22.7907 12.7032L20.9655 15.3894L20.2079 12.8066C20.1503 12.623 20.0241 12.531 19.8291 12.531H18.5375C18.48 12.531 18.4283 12.5569 18.3827 12.6086C18.3366 12.6602 18.3138 12.7148 18.3138 12.7721C18.3138 12.7952 18.4257 13.1337 18.6495 13.788C18.8733 14.4424 19.1144 15.1484 19.3727 15.9061C19.631 16.6636 19.7658 17.0656 19.7773 17.1113C18.836 18.397 18.3654 19.0858 18.3654 19.1775C18.3654 19.3269 18.44 19.4014 18.5893 19.4014H19.9151C20.0414 19.4014 20.1447 19.3441 20.2251 19.2293L24.6159 12.8926C24.6387 12.8697 24.6502 12.8297 24.6502 12.7721Z" fill="#003087"/>
<path d="M36.9961 12.5315H35.6874C35.5266 12.5315 35.4293 12.7209 35.3949 13.0997C35.0961 12.6408 34.5512 12.4109 33.759 12.4109C32.9324 12.4109 32.2292 12.7209 31.6497 13.3408C31.0699 13.9607 30.7802 14.6898 30.7802 15.5276C30.7802 16.205 30.9781 16.7445 31.3741 17.1461C31.7701 17.5482 32.301 17.7488 32.967 17.7488C33.2998 17.7488 33.6384 17.6798 33.9828 17.5422C34.3272 17.4045 34.5967 17.2209 34.7922 16.9912C34.7922 17.0027 34.7805 17.0543 34.7577 17.1461C34.7346 17.2381 34.7233 17.3071 34.7233 17.3527C34.7233 17.5366 34.7977 17.6282 34.9471 17.6282H36.1353C36.3531 17.6282 36.4796 17.5193 36.514 17.3011L37.22 12.807C37.2313 12.7381 37.2141 12.675 37.1683 12.6176C37.1223 12.5603 37.065 12.5315 36.9961 12.5315ZM34.7491 15.9236C34.4564 16.2106 34.1034 16.354 33.6902 16.354C33.3571 16.354 33.0876 16.2624 32.8809 16.0786C32.6742 15.8952 32.5709 15.6426 32.5709 15.321C32.5709 14.8965 32.7143 14.5375 33.0014 14.2448C33.2881 13.9521 33.6442 13.8057 34.069 13.8057C34.3901 13.8057 34.657 13.9004 34.8696 14.0898C35.0818 14.2792 35.1882 14.5405 35.1882 14.8734C35.1882 15.2866 35.0418 15.6368 34.7491 15.9236Z" fill="#009CDE"/>
<path d="M17.4356 12.5315H16.1269C15.966 12.5315 15.8686 12.7209 15.8342 13.0997C15.5242 12.6408 14.9789 12.4109 14.1983 12.4109C13.3718 12.4109 12.6686 12.7209 12.089 13.3408C11.5092 13.9607 11.2195 14.6898 11.2195 15.5276C11.2195 16.205 11.4175 16.7445 11.8136 17.1461C12.2096 17.5482 12.7404 17.7488 13.4063 17.7488C13.7276 17.7488 14.0607 17.6798 14.405 17.5422C14.7493 17.4045 15.0249 17.2209 15.2315 16.9912C15.1854 17.1289 15.1626 17.2495 15.1626 17.3527C15.1626 17.5366 15.2372 17.6282 15.3864 17.6282H16.5745C16.7925 17.6282 16.9189 17.5193 16.9534 17.3011L17.6593 12.807C17.6706 12.7381 17.6534 12.675 17.6077 12.6176C17.5617 12.5603 17.5044 12.5315 17.4356 12.5315ZM15.1885 15.9322C14.8957 16.2137 14.5368 16.354 14.1123 16.354C13.7792 16.354 13.5123 16.2624 13.3116 16.0786C13.1106 15.8952 13.0102 15.6426 13.0102 15.321C13.0102 14.8965 13.1537 14.5375 13.4408 14.2448C13.7276 13.9521 14.0834 13.8057 14.5083 13.8057C14.8296 13.8057 15.0965 13.9004 15.3091 14.0898C15.5213 14.2792 15.6276 14.5405 15.6276 14.8734C15.6276 15.2981 15.4812 15.6512 15.1885 15.9322Z" fill="#003087"/>
<path d="M30.5304 10.4562C30.0884 10.1523 29.5117 10 28.8 10H26.0622C25.8324 10 25.7061 10.1091 25.6833 10.327L24.5641 17.3524C24.5525 17.4214 24.5697 17.4845 24.6158 17.5418C24.6613 17.5993 24.719 17.6279 24.7879 17.6279H26.1998C26.3375 17.6279 26.4293 17.5534 26.4753 17.4041L26.7853 15.4068C26.7967 15.315 26.8369 15.2404 26.9058 15.1829C26.9747 15.1256 27.0607 15.088 27.1641 15.0708C27.2674 15.0538 27.3648 15.0452 27.4569 15.0452C27.5486 15.0452 27.6576 15.051 27.7839 15.0624C27.9102 15.0739 27.9908 15.0795 28.025 15.0795C29.0123 15.0795 29.787 14.8013 30.3496 14.2444C30.912 13.6877 31.1933 12.9158 31.1933 11.9284C31.1934 11.2513 30.9722 10.7606 30.5304 10.4562ZM28.7655 13.2888C28.5129 13.461 28.1341 13.547 27.6291 13.547L27.078 13.5643L27.3708 11.7218C27.3936 11.5957 27.4681 11.5325 27.5946 11.5325H27.9045C28.1569 11.5325 28.3578 11.544 28.5073 11.5669C28.6563 11.59 28.8 11.6616 28.9377 11.7821C29.0755 11.9027 29.1443 12.0778 29.1443 12.3073C29.1443 12.7894 29.0179 13.1165 28.7655 13.2888Z" fill="#009CDE"/>
</svg>
