<svg width="22" height="22" viewBox="0 0 22 22" fill="none" xmlns="http://www.w3.org/2000/svg">
<path d="M9.33333 5.5V0.5H12.6667V5.5C12.6667 5.94203 12.4911 6.36595 12.1785 6.67851C11.8659 6.99107 11.442 7.16667 11 7.16667C10.558 7.16667 10.134 6.99107 9.82149 6.67851C9.50893 6.36595 9.33333 5.94203 9.33333 5.5ZM14.3333 4.66667H21C20.9987 3.562 20.5593 2.50296 19.7782 1.72185C18.997 0.940735 17.938 0.501323 16.8333 0.5L14.3333 0.5V4.66667ZM7.66667 0.5H5.16667C4.062 0.501323 3.00296 0.940735 2.22185 1.72185C1.44073 2.50296 1.00132 3.562 1 4.66667H7.66667V0.5ZM21 6.33333V16.3333C20.9987 17.438 20.5593 18.497 19.7782 19.2782C18.997 20.0593 17.938 20.4987 16.8333 20.5H5.16667C4.062 20.4987 3.00296 20.0593 2.22185 19.2782C1.44073 18.497 1.00132 17.438 1 16.3333L1 6.33333H7.785C7.96689 7.04799 8.38171 7.68166 8.96393 8.13426C9.54615 8.58685 10.2626 8.83255 11 8.83255C11.7374 8.83255 12.4539 8.58685 13.0361 8.13426C13.6183 7.68166 14.0331 7.04799 14.215 6.33333H21ZM17.6667 16.3333C17.6667 16.1123 17.5789 15.9004 17.4226 15.7441C17.2663 15.5878 17.0543 15.5 16.8333 15.5H14.3333C14.1123 15.5 13.9004 15.5878 13.7441 15.7441C13.5878 15.9004 13.5 16.1123 13.5 16.3333C13.5 16.5543 13.5878 16.7663 13.7441 16.9226C13.9004 17.0789 14.1123 17.1667 14.3333 17.1667H16.8333C17.0543 17.1667 17.2663 17.0789 17.4226 16.9226C17.5789 16.7663 17.6667 16.5543 17.6667 16.3333Z" fill="#2A464D"/>
</svg>
