<svg width="64" height="65" viewBox="0 0 64 65" fill="none" xmlns="http://www.w3.org/2000/svg">
<g clip-path="url(#clip0_45_5070)">
<path d="M43.4368 29.0191L50.5735 16.4585C50.9694 15.7618 50.9694 14.9082 50.5735 14.2113L43.4368 1.65075C43.0325 0.939374 42.2774 0.5 41.4594 0.5H5.09773C3.84173 0.5 2.82349 1.51825 2.82349 2.77425V27.8956C2.82349 29.1516 3.84173 30.1698 5.09773 30.1698H41.4593C42.2774 30.1699 43.0325 29.7304 43.4368 29.0191ZM38.1397 15.335C38.1397 13.5015 39.6259 12.0152 41.4594 12.0152C43.2929 12.0152 44.7792 13.5015 44.7792 15.335C44.7792 17.1685 43.2929 18.6547 41.4594 18.6547C39.626 18.6546 38.1397 17.1683 38.1397 15.335Z" fill="#2A464D"/>
<path d="M42.0302 15.335C42.0302 14.3892 42.7968 13.6227 43.7424 13.6227H58.9625C59.9082 13.6227 60.6747 14.3894 60.6747 15.335C60.6747 16.2807 59.9081 17.0472 58.9625 17.0472H43.7425C42.7968 17.0472 42.0302 16.2807 42.0302 15.335Z" fill="#FFE177"/>
<path d="M2.82349 26.8652V27.8954C2.82349 29.1514 3.84173 30.1698 5.09773 30.1698H41.4593C42.2774 30.1698 43.0325 29.7303 43.4367 29.0189L44.6605 26.8649H2.82349V26.8652Z" fill="#2A464D"/>
<path d="M58.1618 35.9102L54.3265 21.9821C54.1137 21.2096 53.5102 20.6058 52.7376 20.3932L38.8096 16.5579C38.0209 16.3407 37.1761 16.5639 36.5978 17.1424L10.8861 42.854C9.99794 43.7421 9.99794 45.1823 10.8861 46.0704L28.6494 63.8339C29.5375 64.722 30.9776 64.722 31.8658 63.8339L57.5773 38.1223C58.1558 37.5437 58.3791 36.699 58.1618 35.9102ZM44.74 29.9797C43.4435 28.6832 43.4435 26.5814 44.74 25.2849C46.0365 23.9884 48.1382 23.9884 49.4347 25.2849C50.7312 26.5814 50.7312 28.6832 49.4347 29.9797C48.1384 31.276 46.0365 31.276 44.74 29.9797Z" fill="#FF746C"/>
<path d="M47.4911 27.2288C46.8223 26.5601 46.8223 25.4759 47.4911 24.8072L58.2533 14.045C58.922 13.3762 60.0062 13.3762 60.6749 14.045C61.3437 14.7137 61.3437 15.7978 60.6749 16.4666L49.9127 27.2288C49.2441 27.8973 48.1598 27.8973 47.4911 27.2288Z" fill="#FFD15B"/>
<path d="M58.1619 35.9102L57.4567 33.3494L27.811 62.9951L28.6497 63.8337C29.5378 64.7219 30.9779 64.7219 31.866 63.8337L57.5776 38.1222C58.1559 37.5437 58.3791 36.699 58.1619 35.9102Z" fill="#E3635C"/>
<path d="M25.6708 48.4307C26.8338 47.2627 28.2455 46.8533 29.6347 48.2367L29.8028 48.404C31.2541 49.8492 30.8776 51.3067 29.7411 52.4482C28.393 53.802 26.8831 53.7612 26.0601 52.9418C25.6531 52.5365 25.7495 52.2095 26.1108 51.8468C26.5955 51.3602 26.8782 51.4655 27.126 51.712C27.5596 52.1439 28.1951 51.9834 28.706 51.4702C29.2876 50.8862 29.3302 50.2239 28.6577 49.5543L28.4896 49.3869C27.8171 48.7173 27.1462 48.754 26.5736 49.3292L25.2695 50.6388C24.9082 51.0015 24.6342 50.9228 24.36 50.6497C24.2891 50.5792 24.2183 50.491 24.1386 50.4115L22.0406 47.8644C21.837 47.6263 21.7659 47.4147 21.8981 47.2819L24.6118 44.5565C24.8408 44.3264 25.2121 44.4669 25.4598 44.7137C25.7163 44.9692 25.8495 45.331 25.6206 45.5612L23.6381 47.5522L24.9925 49.112L25.6708 48.4307Z" fill="white"/>
<path d="M30.5429 47.5902L28.074 45.1321C26.5963 43.6606 26.9464 42.2118 28.1094 41.0438C29.2724 39.8758 30.7284 39.5107 32.206 40.9822L34.6749 43.4403C36.1525 44.9117 35.7936 46.3693 34.6307 47.5373C33.4679 48.7052 32.0205 49.0615 30.5429 47.5902ZM31.0609 42.1323C30.3619 41.4363 29.6909 41.4732 29.1181 42.0483C28.5366 42.6323 28.5205 43.2857 29.2195 43.9818L31.6884 46.4399C32.3874 47.1359 33.0408 47.1169 33.6222 46.5329C34.195 45.9577 34.2287 45.2866 33.5298 44.5906L31.0609 42.1323Z" fill="white"/>
<path d="M34.816 39.1573L33.533 37.8798C32.7012 37.0516 32.9378 36.1947 33.6515 35.478C34.3564 34.7701 35.2123 34.5298 36.0441 35.358L37.3271 36.6355C38.159 37.4637 37.9225 38.3208 37.2175 39.0287C36.5038 39.7454 35.6479 39.9854 34.816 39.1573ZM35.2951 36.1101C34.9676 35.7842 34.6234 35.829 34.315 36.1388C34.0068 36.4487 33.9721 36.7841 34.2995 37.1101L35.5825 38.3876C35.91 38.7135 36.2453 38.6776 36.5538 38.3678C36.8621 38.0581 36.9055 37.7137 36.5781 37.3877L35.2951 36.1101ZM37.6868 31.5135C37.74 31.5663 37.7843 31.6281 37.8109 31.7075L41.0631 41.2896C41.1341 41.4659 41.064 41.6781 40.9143 41.8284C40.6676 42.0762 40.2965 42.0417 40.1109 41.8568C40.0578 41.8039 40.0223 41.7333 39.9958 41.6717L36.7168 32.0632C36.6546 31.8781 36.7159 31.6925 36.8481 31.5597C37.0508 31.3561 37.4478 31.2757 37.6868 31.5135ZM41.7185 38.0831L40.4354 36.8056C39.6035 35.9773 39.84 35.1203 40.5538 34.4037C41.2586 33.6958 42.1146 33.4556 42.9465 34.2837L44.2296 35.5612C45.0701 36.3982 44.8246 37.2465 44.1198 37.9543C43.4063 38.6708 42.5591 38.9201 41.7185 38.0831ZM42.1978 35.0357C41.8703 34.7098 41.5261 34.7546 41.2176 35.0645C40.9093 35.3741 40.8748 35.7097 41.2021 36.0357L42.4853 37.3132C42.8126 37.6392 43.1479 37.6032 43.4564 37.2936C43.7649 36.9838 43.8081 36.6395 43.4809 36.3133L42.1978 35.0357Z" fill="white"/>
<path d="M13.2977 17.1156L13.2952 16.8783C13.286 15.9542 12.709 15.698 11.9097 15.706C11.5476 15.7095 11.4196 15.3986 11.4163 15.074C11.4132 14.7619 11.5348 14.4362 11.897 14.4325C12.5212 14.4262 13.0441 14.271 13.0333 13.1972C13.0251 12.3731 12.5977 12.1026 11.9235 12.1095C11.1118 12.1176 10.8155 12.4579 10.8207 12.9571C10.8245 13.3319 10.6521 13.5834 10.0528 13.5891C9.32859 13.5965 9.21434 13.4229 9.20909 12.8985C9.20034 12.0119 9.81159 10.7194 11.9218 10.6982C13.4326 10.6831 14.5622 11.2462 14.579 12.9067C14.5888 13.8934 14.2347 14.696 13.626 14.9892C14.3655 15.2692 14.908 15.8257 14.9185 16.8622L14.921 17.0995C14.9411 19.1097 13.6002 19.885 11.952 19.9016C9.90421 19.922 9.06746 18.6692 9.05734 17.6578C9.05234 17.1583 9.26321 17.0187 9.82509 17.0132C10.4868 17.0063 10.6633 17.1797 10.6673 17.5792C10.673 18.1413 11.176 18.486 11.975 18.478C12.9117 18.4682 13.3072 18.0646 13.2977 17.1156Z" fill="white"/>
<path d="M16.1313 16.9999L16.0964 13.5163C16.0756 11.431 17.3414 10.644 18.9896 10.6274C20.6378 10.6108 21.9318 11.3722 21.9526 13.4574L21.9874 16.941C22.0084 19.0263 20.7301 19.8133 19.0819 19.8299C17.4339 19.8465 16.1523 19.0853 16.1313 16.9999ZM20.3293 13.4739C20.3194 12.4875 19.8156 12.0429 19.0038 12.0511C18.1798 12.0593 17.7097 12.5136 17.7196 13.5001L17.7544 16.9838C17.7643 17.9701 18.2434 18.4148 19.0674 18.4069C19.8791 18.3986 20.3739 17.9441 20.3641 16.9576L20.3293 13.4739Z" fill="white"/>
<path d="M25.0925 13.9879L25.0744 12.1772C25.0625 11.0035 25.8324 10.5589 26.8437 10.5487C27.8426 10.5387 28.6212 10.9677 28.633 12.1415L28.6511 13.9521C28.663 15.1256 27.8931 15.5705 26.8941 15.5806C25.8829 15.5907 25.1042 15.1614 25.0925 13.9879ZM27.5716 12.1521C27.567 11.6904 27.2901 11.4809 26.8531 11.4851C26.4161 11.4894 26.1561 11.7044 26.1607 12.1662L26.1789 13.9769C26.1835 14.4389 26.4479 14.6484 26.8849 14.6441C27.3218 14.6399 27.5943 14.4249 27.5897 13.9627L27.5716 12.1521ZM32.5006 10.5542C32.5013 10.6292 32.4895 10.7041 32.453 10.7796L28.0488 19.8897C27.9758 20.0652 27.777 20.1671 27.5647 20.1695C27.2151 20.173 26.975 19.888 26.9722 19.626C26.9715 19.551 26.9959 19.4759 27.02 19.4132L31.4237 10.2654C31.5093 10.0899 31.6833 10.0005 31.8706 9.99887C32.1577 9.99575 32.4972 10.217 32.5006 10.5542ZM30.7653 18.0644L30.7471 16.2537C30.7352 15.08 31.5052 14.6354 32.5165 14.625C33.5155 14.615 34.2941 15.0442 34.3057 16.218L34.324 18.0286C34.336 19.2147 33.5658 19.647 32.567 19.6571C31.5555 19.6671 30.7771 19.2505 30.7653 18.0644ZM33.2443 16.2287C33.2398 15.7667 32.9628 15.5572 32.526 15.5615C32.089 15.566 31.829 15.7807 31.8335 16.2429L31.8517 18.0535C31.8563 18.5155 32.1207 18.725 32.5576 18.7207C32.9946 18.7162 33.2672 18.5012 33.2626 18.0391L33.2443 16.2287Z" fill="white"/>
</g>
<defs>
<clipPath id="clip0_45_5070">
<rect width="64" height="64" fill="white" transform="translate(0 0.5)"/>
</clipPath>
</defs>
</svg>
