<svg style="display: none;" aria-hidden="true" xmlns="http://www.w3.org/2000/svg" xmlns:xlink="http://www.w3.org/1999/xlink"><symbol fill="currentColor" viewBox="0 0 16 16" id="svg-arr-down" xmlns="http://www.w3.org/2000/svg">
  <path d="M12.473 6.273a.667.667 0 0 0-.947 0L8.473 9.327a.667.667 0 0 1-.947 0L4.473 6.273a.667.667 0 1 0-.947.94l3.06 3.06a2 2 0 0 0 2.827 0l3.06-3.06a.667.667 0 0 0 0-.94Z"/>
</symbol><symbol fill="currentColor" viewBox="0 0 18 18" id="svg-arr-left" xmlns="http://www.w3.org/2000/svg">
  <g clip-path="url(#ba)">
    <path d="M.66 10.568 3.562 13.5a.75.75 0 0 0 1.23-.244.75.75 0 0 0-.165-.821L1.957 9.75H17.25a.75.75 0 1 0 0-1.5H1.912l2.715-2.715a.75.75 0 0 0 0-1.035.75.75 0 0 0-1.065 0L.66 7.387a2.25 2.25 0 0 0 0 3.18Z"/>
  </g>
  <defs>
    <clipPath id="ba">
      <path d="M0 0h18v18H0z"/>
    </clipPath>
  </defs>
</symbol><symbol fill="currentColor" viewBox="0 0 18 18" id="svg-arr-right" xmlns="http://www.w3.org/2000/svg">
  <g clip-path="url(#ea)">
    <path d="M17.34 10.567 14.438 13.5a.75.75 0 0 1-1.23-.244.75.75 0 0 1 .165-.821l2.67-2.685H.75a.75.75 0 0 1 0-1.5h15.337l-2.714-2.715a.75.75 0 0 1 0-1.035.75.75 0 0 1 1.065 0l2.902 2.887a2.25 2.25 0 0 1 0 3.18Z"/>
  </g>
  <defs>
    <clipPath id="ea">
      <path d="M0 0h18v18H0z" transform="matrix(-1 0 0 1 18 0)"/>
    </clipPath>
  </defs>
</symbol><symbol fill="currentColor" viewBox="0 0 16 16" id="svg-arr-right-2" xmlns="http://www.w3.org/2000/svg">
  <path fill-rule="evenodd" d="M9.003 2.459a.75.75 0 0 1 1.06.022l4.478 4.666a.75.75 0 0 1 0 1.039l-4.478 4.666a.75.75 0 0 1-1.082-1.038l3.98-4.147-3.98-4.148a.75.75 0 0 1 .022-1.06Z" clip-rule="evenodd"/>
  <path fill-rule="evenodd" d="M13.822 7.75a.75.75 0 0 1-.75.75H2.75a.75.75 0 0 1 0-1.5h10.322a.75.75 0 0 1 .75.75Z" clip-rule="evenodd"/>
</symbol><symbol fill="currentColor" viewBox="0 0 25 24" id="svg-arr-right-short" xmlns="http://www.w3.org/2000/svg">
  <path fill-rule="evenodd" d="M9.793 4.293a1 1 0 0 1 1.414 0l6.963 6.963a1 1 0 0 1 0 1.414l-6.963 6.963a1 1 0 1 1-1.414-1.414l6.256-6.256-6.256-6.256a1 1 0 0 1 0-1.414Z" clip-rule="evenodd"/>
</symbol><symbol fill="none" viewBox="0 0 24 24" id="svg-attention" xmlns="http://www.w3.org/2000/svg">
  <circle cx="12" cy="12" r="11" stroke="#28D17C" stroke-width="2"/>
  <path stroke="#28D17C" stroke-linecap="round" stroke-linejoin="round" stroke-width="2" d="M12 7v5m0 4v.5"/>
</symbol><symbol fill="none" viewBox="0 0 40 40" id="svg-b-01" xmlns="http://www.w3.org/2000/svg">
  <g clip-path="url(#ga)">
    <path fill="#28D17C" d="M.833 7.915v15a3.343 3.343 0 0 0 3.333 3.333h26.667a3.333 3.333 0 0 0 3.333-3.333v-15H.833Z"/>
    <path fill="#BEF3D8" d="M.833 7.915v15c.004.811.306 1.592.848 2.195L18.875 7.915H.833Z"/>
    <path fill="#fff" stroke="#262D38" stroke-linecap="round" stroke-linejoin="round" stroke-width="1.5" d="M30.833 1.248H4.166A3.343 3.343 0 0 0 .833 4.582v3.333h33.333V4.582a3.334 3.334 0 0 0-3.333-3.334ZM5.431 5a.417.417 0 1 1 0-.833.417.417 0 0 1 0 .833Zm4.167 0a.417.417 0 1 1 0-.833.417.417 0 0 1 0 .833Zm4.167 0a.417.417 0 1 1 0-.834.417.417 0 0 1 0 .834Z"/>
    <path stroke="#262D38" stroke-linecap="round" stroke-linejoin="round" stroke-width="1.5" d="M34.165 20.415v-12.5m-33.332 0v15a3.343 3.343 0 0 0 3.333 3.333h12.5"/>
    <path fill="#BEF3D8" d="m19.167 38.752-3.833-4.239a2.5 2.5 0 0 1 3.833-3.196l3.333 3.811V22.082a2.5 2.5 0 1 1 5 0v7.5h5a6.666 6.666 0 0 1 6.667 6.666v2.5"/>
    <path stroke="#262D38" stroke-linecap="round" stroke-linejoin="round" stroke-width="1.5" d="m19.167 38.752-3.833-4.239a2.5 2.5 0 0 1 3.833-3.196l3.333 3.811V22.082a2.5 2.5 0 1 1 5 0v7.5h5a6.666 6.666 0 0 1 6.667 6.666v2.5M19.693 12.915H16.87a1.864 1.864 0 0 0-.692 3.585l2.865 1.147a1.864 1.864 0 0 1-.691 3.593h-2.825m1.973 1.675v-1.667m0-8.333v-1.667"/>
  </g>
  <defs>
    <clipPath id="ga">
      <path fill="#fff" d="M0 0h40v40H0z"/>
    </clipPath>
  </defs>
</symbol><symbol fill="none" viewBox="0 0 40 40" id="svg-b-02" xmlns="http://www.w3.org/2000/svg">
  <g clip-path="url(#ha)">
    <path fill="#fff" d="M.833 22.5v-20A1.667 1.667 0 0 1 2.5.833h35A1.667 1.667 0 0 1 39.166 2.5v20a1.667 1.667 0 0 1-1.666 1.667h-35A1.667 1.667 0 0 1 .833 22.5Z"/>
    <path fill="#28D17C" d="M4.167 20V5A.833.833 0 0 1 5 4.167h30a.833.833 0 0 1 .834.833v15a.833.833 0 0 1-.834.833H5A.833.833 0 0 1 4.167 20Z"/>
    <path fill="#BEF3D8" d="M5 4.167A.833.833 0 0 0 4.167 5v15a.833.833 0 0 0 .833.833h6.635L28.302 4.167H5Z"/>
    <path stroke="#262D38" stroke-linecap="round" stroke-linejoin="round" stroke-width="1.5" d="M.833 12.5v-10A1.667 1.667 0 0 1 2.5.833h35A1.667 1.667 0 0 1 39.166 2.5v20a1.667 1.667 0 0 1-1.666 1.667H21.666"/>
    <path stroke="#262D38" stroke-linecap="round" stroke-linejoin="round" stroke-width="1.5" d="M4.167 12.5V5A.833.833 0 0 1 5 4.167h30a.833.833 0 0 1 .834.833v15a.833.833 0 0 1-.834.833H21.667"/>
    <path fill="#BEF3D8" d="M20 17.5a5 5 0 1 0 0-10 5 5 0 0 0 0 10Z"/>
    <path stroke="#262D38" stroke-linecap="round" stroke-linejoin="round" stroke-width="1.5" d="M8.334 7.917a.417.417 0 1 1 0 .833.417.417 0 0 1 0-.833Zm23.333 8.333a.417.417 0 1 1 0 .834.417.417 0 0 1 0-.834Z"/>
    <path fill="#fff" d="M20 7.5a5 5 0 0 0-3.552 8.518l7.072-7.07A4.985 4.985 0 0 0 20 7.5Z"/>
    <path stroke="#262D38" stroke-linecap="round" stroke-linejoin="round" stroke-width="1.5" d="M15 12.5a5 5 0 1 1 6.667 4.715"/>
    <path fill="#BEF3D8" stroke="#262D38" stroke-linecap="round" stroke-linejoin="round" stroke-width="1.5" d="M9.166 19.167c4.603 0 8.334-.747 8.334-1.667s-3.731-1.667-8.334-1.667c-4.602 0-8.333.747-8.333 1.667s3.731 1.667 8.333 1.667Z"/>
    <path fill="#28D17C" d="M17.5 17.5v5c0 .917-3.734 1.667-8.334 1.667S.833 23.417.833 22.5v-5c0 .917 3.733 1.667 8.333 1.667s8.334-.75 8.334-1.667Z"/>
    <path fill="#28D17C" d="M17.5 22.5v5c0 .917-3.734 1.667-8.334 1.667S.833 28.417.833 27.5v-5c0 .917 3.733 1.667 8.333 1.667s8.334-.75 8.334-1.667Z"/>
    <path fill="#28D17C" d="M17.5 27.5v5c0 .917-3.734 1.667-8.334 1.667S.833 33.417.833 32.5v-5c0 .917 3.733 1.667 8.333 1.667s8.334-.75 8.334-1.667Z"/>
    <path fill="#28D17C" d="M17.5 32.5v5c0 .917-3.734 1.667-8.334 1.667S.833 38.417.833 37.5v-5c0 .917 3.733 1.667 8.333 1.667s8.334-.75 8.334-1.667Z"/>
    <path fill="#BEF3D8" d="M9.166 19.167c-4.6 0-8.333-.75-8.333-1.667v5c0 .917 3.733 1.667 8.333 1.667v-5Z"/>
    <path fill="#BEF3D8" d="M9.166 24.167c-4.6 0-8.333-.75-8.333-1.667v5c0 .917 3.733 1.667 8.333 1.667v-5Z"/>
    <path fill="#BEF3D8" d="M9.166 29.167c-4.6 0-8.333-.75-8.333-1.667v5c0 .917 3.733 1.667 8.333 1.667v-5Z"/>
    <path fill="#BEF3D8" d="M9.166 34.167c-4.6 0-8.333-.75-8.333-1.667v5c0 .917 3.733 1.667 8.333 1.667v-5Z"/>
    <path stroke="#262D38" stroke-linecap="round" stroke-linejoin="round" stroke-width="1.5" d="M17.5 17.5v5c0 .917-3.734 1.667-8.334 1.667S.833 23.417.833 22.5v-5c0 .917 3.733 1.667 8.333 1.667s8.334-.75 8.334-1.667Z"/>
    <path stroke="#262D38" stroke-linecap="round" stroke-linejoin="round" stroke-width="1.5" d="M17.5 22.5v5c0 .917-3.734 1.667-8.334 1.667S.833 28.417.833 27.5v-5c0 .917 3.733 1.667 8.333 1.667s8.334-.75 8.334-1.667Z"/>
    <path stroke="#262D38" stroke-linecap="round" stroke-linejoin="round" stroke-width="1.5" d="M17.5 27.5v5c0 .917-3.734 1.667-8.334 1.667S.833 33.417.833 32.5v-5c0 .917 3.733 1.667 8.333 1.667s8.334-.75 8.334-1.667Z"/>
    <path stroke="#262D38" stroke-linecap="round" stroke-linejoin="round" stroke-width="1.5" d="M17.5 32.5v5c0 .917-3.734 1.667-8.334 1.667S.833 38.417.833 37.5v-5c0 .917 3.733 1.667 8.333 1.667s8.334-.75 8.334-1.667Z"/>
  </g>
  <defs>
    <clipPath id="ha">
      <path fill="#fff" d="M0 0h40v40H0z"/>
    </clipPath>
  </defs>
</symbol><symbol fill="none" viewBox="0 0 30 30" id="svg-checkmark" xmlns="http://www.w3.org/2000/svg">
  <path stroke="#28D17C" stroke-linecap="round" stroke-width="2" d="m5 15.392 7.071 7.071L26.213 8.321"/>
</symbol><symbol fill="currentColor" viewBox="0 0 9 8" id="svg-checkmark-alt" xmlns="http://www.w3.org/2000/svg">
  <path fill-rule="evenodd" d="M.293 3.243a1 1 0 0 1 1.414 0l1.414 1.414L6.657 1.12A1 1 0 0 1 8.07 2.535l-4.95 4.95L.293 4.657a1 1 0 0 1 0-1.414Z" clip-rule="evenodd"/>
</symbol><symbol fill="currentColor" viewBox="0 0 16 16" id="svg-close" xmlns="http://www.w3.org/2000/svg">
  <path d="M15.59 2.39A1.4 1.4 0 1 0 13.61.41L8 6.02 2.39.41A1.4 1.4 0 1 0 .41 2.39L6.02 8 .41 13.61a1.4 1.4 0 0 0 1.98 1.98L8 9.98l5.61 5.61a1.4 1.4 0 1 0 1.98-1.98L9.98 8l5.61-5.61Z"/>
</symbol><symbol fill="currentColor" viewBox="0 0 24 24" id="svg-copy" xmlns="http://www.w3.org/2000/svg">
  <path fill-rule="evenodd" d="M1 4a4 4 0 0 1 4-4h6a4 4 0 0 1 4 4v.5a1 1 0 1 1-2 0V4a2 2 0 0 0-2-2H5a2 2 0 0 0-2 2v8a2 2 0 0 0 2 2h.429a1 1 0 1 1 0 2H5a4 4 0 0 1-4-4V4Z" clip-rule="evenodd"/>
  <path fill-rule="evenodd" d="M9 12a4 4 0 0 1 4-4h6a4 4 0 0 1 4 4v8a4 4 0 0 1-4 4h-6a4 4 0 0 1-4-4v-8Zm4-2a2 2 0 0 0-2 2v8a2 2 0 0 0 2 2h6a2 2 0 0 0 2-2v-8a2 2 0 0 0-2-2h-6Z" clip-rule="evenodd"/>
</symbol><symbol fill="currentColor" viewBox="0 0 18 18" id="svg-login" xmlns="http://www.w3.org/2000/svg">
  <path fill-rule="evenodd" d="M14.3 9c0 .37-.311.67-.695.67H1.58A.682.682 0 0 1 .886 9c0-.37.311-.67.694-.67h12.025c.384 0 .694.3.694.67Z" clip-rule="evenodd"/>
  <path fill-rule="evenodd" d="M5.77 13.936a.712.712 0 0 1-.98 0l-4.56-4.4a.74.74 0 0 1 0-1.073l4.56-4.4a.712.712 0 0 1 .98 0 .652.652 0 0 1 0 .947L1.637 9l4.135 3.99c.27.26.27.685 0 .946ZM12.296.67c0-.37.31-.67.694-.67h4.224c.434 0 .786.34.786.759V17.24a.773.773 0 0 1-.786.759h-4.841a.682.682 0 0 1-.694-.67c0-.37.31-.669.694-.669h4.24V1.34H12.99a.682.682 0 0 1-.694-.67Z" clip-rule="evenodd"/>
</symbol><symbol fill="currentColor" viewBox="0 0 26 24" id="svg-mail" xmlns="http://www.w3.org/2000/svg">
  <path fill-rule="evenodd" d="M0 6a3 3 0 0 1 3-3h20a3 3 0 0 1 3 3v13a3 3 0 0 1-3 3H3a3 3 0 0 1-3-3V6Zm3-1a1 1 0 0 0-1 1v13a1 1 0 0 0 1 1h20a1 1 0 0 0 1-1V6a1 1 0 0 0-1-1H3Z" clip-rule="evenodd"/>
  <path fill-rule="evenodd" d="M1.746 6.04C.569 4.962 1.332 3 2.928 3h20.144c1.596 0 2.359 1.962 1.182 3.04l-8.551 7.839a4 4 0 0 1-5.406 0L1.746 6.04ZM3.57 5l8.077 7.405a2 2 0 0 0 2.703 0L22.43 5H3.571Z" clip-rule="evenodd"/>
</symbol><symbol fill="none" viewBox="0 0 30 30" id="svg-money-save" xmlns="http://www.w3.org/2000/svg">
  <g clip-path="url(#oa)">
    <path stroke="#28D17C" stroke-linecap="round" stroke-linejoin="round" stroke-width="1.5" d="M8.75 21.563H2.812a1.875 1.875 0 0 1-1.874-1.875V9.374A1.875 1.875 0 0 1 2.813 7.5h24.375a1.875 1.875 0 0 1 1.875 1.875v10.938M7.675 24.425l1.075 1.512v3.125M21.087 7.5V4.612a1.247 1.247 0 0 0-.437-.95l-1.813-1.537a5 5 0 0 0-4.75-.95L6.962 3.45a1.25 1.25 0 0 0-.875 1.25v2.8"/>
    <path stroke="#28D17C" stroke-linecap="round" stroke-linejoin="round" stroke-width="1.5" d="M20.6 29.063v-1.25a2.5 2.5 0 0 1 .963-2l2.787-2.25a2.5 2.5 0 0 0 .963-2V15.9a1.85 1.85 0 0 0-1.813-1.838c-1.562 0-1.875 1.763-1.887 1.825l-.363 2.588A2.576 2.576 0 0 1 20 20.3l-1.987 1.162a2.5 2.5 0 0 0-1.25 2.175v1.675M11.35 18.55a2.774 2.774 0 0 0 2.325 1.1c1.425 0 2.575-.862 2.575-1.938 0-1.075-1.15-1.925-2.575-1.925-1.425 0-2.587-.875-2.587-1.937 0-1.063 1.162-1.938 2.587-1.938a2.774 2.774 0 0 1 2.325 1.1m-2.324 6.638v1.288m0-10.313v1.287"/>
  </g>
  <defs>
    <clipPath id="oa">
      <path fill="#fff" d="M0 0h30v30H0z"/>
    </clipPath>
  </defs>
</symbol><symbol fill="none" viewBox="0 0 51 50" id="svg-p-01" xmlns="http://www.w3.org/2000/svg">
  <path fill="#BEF3D8" d="M36.022 24.527c5.945 0 10.764-4.819 10.764-10.763C46.785 7.819 41.965 3 36.022 3c-5.945 0-10.764 4.819-10.764 10.764 0 5.944 4.82 10.763 10.764 10.763Z"/>
  <path fill="#28D17C" d="m15.131 26.474-1.572 1.572c-2.434 2.434-5.934 4.025-10.427-.449a23.225 23.225 0 0 1 1.367-12.841 2.35 2.35 0 0 1 1.703-1.423 2.387 2.387 0 0 1 2.115.636l6.814 6.814a4.023 4.023 0 0 1 0 5.69Zm21.284 17.072a2.338 2.338 0 0 1-1.422 1.722 23.586 23.586 0 0 1-12.842 1.367c-4.474-4.512-2.883-8.012-.45-10.446.357-.337 1.161-1.16 1.592-1.572a3.999 3.999 0 0 1 5.672 0l6.814 6.814a2.387 2.387 0 0 1 .636 2.115Z"/>
  <path stroke="#262D38" stroke-linecap="round" stroke-linejoin="round" stroke-width="1.5" d="M45.824 18.912V3.935a9.36 9.36 0 0 0-9.36 9.36v1.872h9.36m-12.168 3.744H23.36l6.552-5.78c1.848-1.63 3.26-2.77 2.714-5.451a4.68 4.68 0 0 0-9.266.936m-1.187 38.03c-4.492-4.504-2.9-8.016-.46-10.455l1.574-1.574a4.013 4.013 0 0 1 5.676 0l6.812 6.814a2.344 2.344 0 0 1-.773 3.83A23.4 23.4 0 0 1 4.489 14.748a2.344 2.344 0 0 1 3.83-.773l6.818 6.808a4.013 4.013 0 0 1 0 5.676l-1.575 1.574c-2.433 2.434-5.95 4.032-10.454-.46"/>
</symbol><symbol fill="none" viewBox="0 0 51 50" id="svg-p-02" xmlns="http://www.w3.org/2000/svg">
  <g clip-path="url(#qa)">
    <path fill="#28D17C" d="M24.535 47.917h-9.183a19.25 19.25 0 0 0 2.083-8h4.148a18.188 18.188 0 0 0 2.952 8Z"/>
    <path fill="#BEF3D8" d="M37.208 33.913v4.004a2.046 2.046 0 0 1-2.083 2H3.875a2.046 2.046 0 0 1-2.083-2v-4l35.416-.004Z"/>
    <path fill="#28D17C" d="M37.208 33.913H1.792v-18a2.046 2.046 0 0 1 2.083-2h31.25a2.083 2.083 0 0 1 2.083 2.083v17.916Z"/>
    <path fill="#BEF3D8" d="M1.792 15.912v18h5.435l20-20H3.875a2.045 2.045 0 0 0-2.083 2Z"/>
    <path fill="#fff" d="M24.709 4a2.083 2.083 0 0 1 2.083-2.083h20.833A2.083 2.083 0 0 1 49.71 4v15.833a2.083 2.083 0 0 1-2.084 2.084H26.792a2.083 2.083 0 0 1-2.084-2.084V4Z"/>
    <path fill="#BEF3D8" d="M47.625 1.917H26.792A2.083 2.083 0 0 0 24.708 4v6.315a2.083 2.083 0 0 1 2.084-2.084h20.833a2.083 2.083 0 0 1 2.084 2.084V4a2.083 2.083 0 0 0-2.084-2.083Z"/>
    <path stroke="#262D38" stroke-linecap="round" stroke-linejoin="round" stroke-width="1.5" d="M24.709 4a2.083 2.083 0 0 1 2.083-2.083h20.833A2.083 2.083 0 0 1 49.71 4v15.833a2.084 2.084 0 0 1-2.084 2.084H26.792a2.083 2.083 0 0 1-2.084-2.084V4Z"/>
    <path fill="#fff" d="M33.041 1.917v9a.996.996 0 0 0 .576.893 1.076 1.076 0 0 0 1.091-.093l2.5-1.8 2.5 1.8a1.074 1.074 0 0 0 1.092.093.995.995 0 0 0 .575-.893v-9H33.04Z"/>
    <path stroke="#262D38" stroke-linecap="round" stroke-linejoin="round" stroke-width="1.5" d="M33.041 1.917v9a.996.996 0 0 0 .576.893 1.076 1.076 0 0 0 1.091-.093l2.5-1.8 2.5 1.8a1.074 1.074 0 0 0 1.092.093.995.995 0 0 0 .575-.893v-9H33.04Zm-8.506 46h-9.183a19.25 19.25 0 0 0 2.083-8h4.148a18.188 18.188 0 0 0 2.952 8Zm-12.504 0h14.76"/>
    <path stroke="#262D38" stroke-linecap="round" stroke-linejoin="round" stroke-width="1.5" d="M37.208 33.913v4.004a2.046 2.046 0 0 1-2.083 2H3.875a2.046 2.046 0 0 1-2.083-2v-4l35.416-.004Zm0-8v8H1.792v-18a2.046 2.046 0 0 1 2.083-2H20.54"/>
  </g>
  <defs>
    <clipPath id="qa">
      <path fill="#fff" d="M0 0h50v50H0z" transform="translate(.75)"/>
    </clipPath>
  </defs>
</symbol><symbol fill="none" viewBox="0 0 51 50" id="svg-p-03" xmlns="http://www.w3.org/2000/svg">
  <path fill="#BEF3D8" d="M25.25 40.625c8.63 0 15.625-6.996 15.625-15.625 0-8.63-6.996-15.625-15.625-15.625-8.63 0-15.625 6.996-15.625 15.625 0 8.63 6.996 15.625 15.625 15.625Z"/>
  <path stroke="#262D38" stroke-linecap="round" stroke-linejoin="round" stroke-width="1.5" d="M11.708 39.433A19.792 19.792 0 0 1 35.794 8.242m2.997 11.546v-9.375h9.376"/>
  <path stroke="#262D38" stroke-linecap="round" stroke-linejoin="round" stroke-width="1.5" d="M11.709 30.204v9.375H2.334m36.457-29.014A19.791 19.791 0 0 1 14.59 41.679"/>
  <path fill="#28D17C" d="M18 20.25A1.25 1.25 0 0 1 19.25 19h12.5A1.25 1.25 0 0 1 33 20.25v9.5A1.25 1.25 0 0 1 31.75 31h-12.5A1.25 1.25 0 0 1 18 29.75v-9.5Z"/>
  <path fill="#fff" d="M31.75 19h-12.5A1.25 1.25 0 0 0 18 20.25v3.789a1.25 1.25 0 0 1 1.25-1.25h12.5a1.25 1.25 0 0 1 1.25 1.25V20.25A1.25 1.25 0 0 0 31.75 19Z"/>
  <path stroke="#262D38" stroke-linecap="round" stroke-linejoin="round" stroke-width="1.5" d="M18 20.25A1.25 1.25 0 0 1 19.25 19h12.5A1.25 1.25 0 0 1 33 20.25v9.5A1.25 1.25 0 0 1 31.75 31h-12.5A1.25 1.25 0 0 1 18 29.75v-9.5Z"/>
  <path fill="#fff" d="M23 19v5.4a.597.597 0 0 0 .345.536.647.647 0 0 0 .655-.056l1.5-1.08 1.5 1.08a.646.646 0 0 0 .655.056A.597.597 0 0 0 28 24.4V19h-5Z"/>
  <path stroke="#262D38" stroke-linecap="round" stroke-linejoin="round" stroke-width="1.5" d="M23 19v5.4a.597.597 0 0 0 .345.536.647.647 0 0 0 .655-.056l1.5-1.08 1.5 1.08a.646.646 0 0 0 .655.056A.597.597 0 0 0 28 24.4V19h-5Z"/>
</symbol><symbol fill="none" viewBox="0 0 51 50" id="svg-p-04" xmlns="http://www.w3.org/2000/svg">
  <path fill="#fff" d="M42.416 41.667a3.125 3.125 0 0 1-3.125 3.125H12.208a3.125 3.125 0 0 1-3.125-3.125v-1.042h33.333v1.042Z"/>
  <path fill="#28D17C" d="M42.416 22.917a3.125 3.125 0 0 0-3.125-3.125H12.208a3.125 3.125 0 0 0-3.125 3.125v17.708h33.333V22.917Z"/>
  <path fill="#BEF3D8" d="M36.166 19.792H12.208a3.125 3.125 0 0 0-3.125 3.125v17.708h6.25l20.833-20.833Z"/>
  <path fill="#fff" d="M18 26.25A1.25 1.25 0 0 1 19.25 25h12.5A1.25 1.25 0 0 1 33 26.25v9.5A1.25 1.25 0 0 1 31.75 37h-12.5A1.25 1.25 0 0 1 18 35.75v-9.5Z"/>
  <path fill="#28D17C" d="M31.75 25h-12.5A1.25 1.25 0 0 0 18 26.25v3.789a1.25 1.25 0 0 1 1.25-1.25h12.5a1.25 1.25 0 0 1 1.25 1.25V26.25A1.25 1.25 0 0 0 31.75 25Z"/>
  <path stroke="#262D38" stroke-linecap="round" stroke-linejoin="round" stroke-width="1.5" d="M18 26.25A1.25 1.25 0 0 1 19.25 25h12.5A1.25 1.25 0 0 1 33 26.25v9.5A1.25 1.25 0 0 1 31.75 37h-12.5A1.25 1.25 0 0 1 18 35.75v-9.5Z"/>
  <path fill="#fff" d="M23 25v5.4a.597.597 0 0 0 .345.536.647.647 0 0 0 .655-.056l1.5-1.08 1.5 1.08a.646.646 0 0 0 .655.056A.597.597 0 0 0 28 30.4V25h-5Z"/>
  <path stroke="#262D38" stroke-linecap="round" stroke-linejoin="round" stroke-width="1.5" d="M23 25v5.4a.597.597 0 0 0 .345.536.647.647 0 0 0 .655-.056l1.5-1.08 1.5 1.08a.646.646 0 0 0 .655.056A.597.597 0 0 0 28 30.4V25h-5Zm-3.5 23.959H32m-6.25-4.167v4.166M9.083 40.625h33.333"/>
  <path stroke="#262D38" stroke-linecap="round" stroke-linejoin="round" stroke-width="1.5" d="M42.416 29.167v12.5a3.125 3.125 0 0 1-3.125 3.125H12.208a3.125 3.125 0 0 1-3.125-3.125v-12.5m0-6.25v-5.209h5.208"/>
  <path fill="#fff" stroke="#262D38" stroke-linecap="round" stroke-linejoin="round" stroke-width="1.5" d="M8.041 7.292a3.125 3.125 0 1 0 0-6.25 3.125 3.125 0 0 0 0 6.25Zm5.209 6.25H2.833a5.8 5.8 0 0 1 5.209-6.25 5.8 5.8 0 0 1 5.208 6.25Zm30.208-6.25a3.125 3.125 0 1 0 0-6.25 3.125 3.125 0 0 0 0 6.25Zm5.208 6.25H38.25a5.8 5.8 0 0 1 5.208-6.25 5.8 5.8 0 0 1 5.208 6.25ZM25.75 7.292a3.125 3.125 0 1 0 0-6.25 3.125 3.125 0 0 0 0 6.25Zm5.208 6.25H20.542a5.8 5.8 0 0 1 5.208-6.25 5.8 5.8 0 0 1 5.208 6.25Z"/>
  <path stroke="#262D38" stroke-linecap="round" stroke-linejoin="round" stroke-width="1.5" d="m9 18 6 5m27.416-.083v-5.209h-5.208M42 18l-5 5m-11.25-1.912v-5.38M21.617 18.8l4.133-3.091 4.2 3.125"/>
</symbol><symbol fill="currentColor" viewBox="0 0 20 20" id="svg-question" xmlns="http://www.w3.org/2000/svg">
  <path fill-rule="evenodd" d="M10 1.583a8.417 8.417 0 1 0 0 16.834 8.417 8.417 0 0 0 0-16.834ZM.083 10C.083 4.523 4.523.083 10 .083c5.477 0 9.917 4.44 9.917 9.917 0 5.477-4.44 9.917-9.917 9.917-5.477 0-9.917-4.44-9.917-9.917Z" clip-rule="evenodd"/>
  <path fill-rule="evenodd" d="M12.166 4.784c.57.363.96.956 1.077 1.777.207 1.448-.449 2.405-1.213 2.97-.788.58-1.28 1.185-1.28 1.782v.354a.75.75 0 0 1-1.5 0v-.354c0-1.39 1.078-2.391 1.89-2.99.41-.302.732-.75.618-1.55-.061-.43-.23-.618-.397-.724-.2-.127-.495-.195-.87-.195-.366 0-.738.065-1.03.135a5.341 5.341 0 0 0-.43.124l-.02.007H9.01l-.259-.703-.259-.704h.001l.001-.001.004-.001.011-.004.037-.013.127-.042c.107-.033.257-.077.438-.12a6.019 6.019 0 0 1 1.381-.178c.519 0 1.139.088 1.675.43ZM9.008 6.12Zm-.962-.445a.75.75 0 0 1 .445-.963l.26.704m-.705.259a.75.75 0 0 0 .963.445ZM10 13.417a.75.75 0 0 1 .75.75v.416a.75.75 0 0 1-1.5 0v-.416a.75.75 0 0 1 .75-.75Z" clip-rule="evenodd"/>
</symbol><symbol fill="none" viewBox="0 0 24 24" id="svg-save-money" xmlns="http://www.w3.org/2000/svg">
  <g clip-path="url(#ua)">
    <path stroke="#fff" stroke-linecap="round" stroke-linejoin="round" stroke-width="1.5" d="M7 17.25H2.25a1.5 1.5 0 0 1-1.5-1.5V7.5A1.5 1.5 0 0 1 2.25 6h19.5a1.5 1.5 0 0 1 1.5 1.5v8.75M6.14 19.54 7 20.75v2.5M16.87 6V3.69a.999.999 0 0 0-.35-.76L15.07 1.7a4 4 0 0 0-3.8-.76l-5.7 1.82a1 1 0 0 0-.7 1V6"/>
    <path stroke="#fff" stroke-linecap="round" stroke-linejoin="round" stroke-width="1.5" d="M16.48 23.25v-1a2 2 0 0 1 .77-1.6l2.23-1.8a1.999 1.999 0 0 0 .77-1.6v-4.53a1.48 1.48 0 0 0-1.45-1.47c-1.25 0-1.5 1.41-1.51 1.46L17 14.78a2.06 2.06 0 0 1-1 1.46l-1.59.93a2 2 0 0 0-1 1.74v1.34m-4.33-5.41a2.22 2.22 0 0 0 1.86.88c1.14 0 2.06-.69 2.06-1.55 0-.86-.92-1.54-2.06-1.54-1.14 0-2.07-.7-2.07-1.55 0-.85.93-1.55 2.07-1.55a2.22 2.22 0 0 1 1.86.88m-1.86 5.31v1.03m0-8.25v1.03"/>
  </g>
  <defs>
    <clipPath id="ua">
      <path fill="#fff" d="M0 0h24v24H0z"/>
    </clipPath>
  </defs>
</symbol></svg>