<svg width="150" height="150" viewBox="0 0 150 150" fill="none" xmlns="http://www.w3.org/2000/svg">
<path d="M137.476 78.3337L112.351 125.197C110.604 128.455 106.547 129.681 103.288 127.934L15.2572 80.7378C11.9985 78.9908 10.7733 74.9329 12.5203 71.6742L37.6444 24.8112C39.3914 21.5525 43.4493 20.327 46.708 22.0743L134.739 69.2704C137.997 71.0171 139.223 75.075 137.476 78.3337Z" fill="#F5E175"/>
<path d="M131.635 48.4172V101.59C131.635 105.287 128.638 108.285 124.94 108.285H25.0555C21.358 108.285 18.3606 105.287 18.3606 101.59V48.4172C18.3606 44.7196 21.358 41.7223 25.0555 41.7223H124.94C128.638 41.7223 131.635 44.7196 131.635 48.4172Z" fill="#FEFDFE"/>
<path opacity="0.2" d="M131.637 48.4225V101.579C131.637 105.283 128.646 108.274 124.942 108.274H113.271C116.953 108.274 119.965 105.284 119.965 101.579V48.4225C119.965 44.7182 116.953 41.7275 113.271 41.7275H124.942C128.646 41.7278 131.637 44.7182 131.637 48.4225Z" fill="black"/>
<path d="M25.0552 109.957H66.2246L102.507 129.41C106.573 131.587 111.657 130.049 113.831 125.982L122.415 109.957H124.941C129.555 109.957 133.309 106.202 133.309 101.589V89.6599L138.958 79.1162C141.137 75.0372 139.602 69.9686 135.534 67.7927L133.309 66.5927V48.4166C133.309 43.8029 129.554 40.0482 124.941 40.0482H83.7755L47.4911 20.5931C45.5188 19.5384 43.2568 19.3181 41.1187 19.9632C38.9765 20.6127 37.2178 22.0532 36.1672 24.0211L27.5821 40.0477H25.0549C20.4413 40.0477 16.6866 43.8026 16.6866 48.416V60.3428L11.0358 70.8867C8.881 74.9282 10.3664 80.0206 14.4638 82.2082L16.6866 83.4079V101.589C16.6869 106.202 20.4415 109.957 25.0552 109.957ZM20.034 101.589V67.7335H36.7602C35.0797 68.649 33.5953 69.532 33.0577 70.0696C33.0577 70.0696 33.0577 70.0696 33.0556 70.0696C31.2207 71.9089 31.2207 74.901 33.0577 76.7426C34.8934 78.5739 37.8855 78.5792 39.7286 76.7405C40.2667 76.2023 41.1509 74.7161 42.067 73.0339V106.61H25.0552C22.2875 106.61 20.034 104.356 20.034 101.589ZM39.9922 69.806C38.8089 72.0832 37.7542 73.962 37.362 74.3716C36.8302 74.9077 35.9586 74.9054 35.4266 74.3736C34.8928 73.8398 34.8928 72.9724 35.4222 72.4383C35.8382 72.0439 37.717 70.9893 39.9922 69.806ZM110.88 124.402C109.577 126.842 106.53 127.76 104.087 126.459L73.3104 109.957H118.617L110.88 124.402ZM124.941 106.61C96.7139 106.61 68.8206 106.61 45.4142 106.61V73.0371C46.3294 74.7179 47.2124 76.2026 47.7503 76.7405V76.7426C49.5861 78.5739 52.5782 78.5792 54.4212 76.7405C56.2605 74.9013 56.2605 71.9089 54.4212 70.0696C53.8833 69.5317 52.3986 68.6487 50.7178 67.7335H129.962V101.589C129.962 104.356 127.709 106.61 124.941 106.61ZM47.4867 69.806C49.7639 70.9893 51.6427 72.0439 52.0543 72.4362C52.5881 72.97 52.5881 73.8396 52.0543 74.3716C51.5226 74.9077 50.651 74.9033 50.119 74.376C49.7249 73.9597 48.67 72.0812 47.4867 69.806ZM133.95 70.7408C136.392 72.0475 137.315 75.0917 136.007 77.5359L133.31 82.5709V70.3957L133.95 70.7408ZM129.962 48.4163V64.386H50.7155C52.3971 63.4699 53.883 62.5857 54.4212 62.0476C56.2605 60.2083 56.2605 57.2159 54.4212 55.3746C52.5796 53.5374 49.5875 53.5441 47.7503 55.3767C47.2124 55.9145 46.3294 57.3996 45.4142 59.081V43.3948H124.941C127.709 43.3951 129.962 45.6486 129.962 48.4163ZM47.4867 62.3112C48.67 60.036 49.7247 58.1552 50.1169 57.7456C50.6455 57.213 51.5205 57.2098 52.0543 57.7436C52.5881 58.2773 52.5881 59.1448 52.0564 59.6789C51.6404 60.0732 49.7619 61.1279 47.4867 62.3112ZM39.1204 25.6011C39.7502 24.4198 40.8029 23.557 42.0884 23.1668C43.3699 22.7766 44.7298 22.9096 45.9108 23.5438L76.6901 40.0477H31.3807L39.1204 25.6011ZM25.0552 43.3951C25.4748 43.3951 43.1973 43.3951 42.0667 43.3951V59.0833C41.1506 57.4011 40.2664 55.9148 39.7283 55.3767C37.889 53.5374 34.899 53.5374 33.0597 55.3767C31.2205 57.2159 31.2205 60.208 33.0577 62.0476C33.5958 62.5857 35.0821 63.4699 36.7643 64.386H20.034V48.4163C20.034 45.6486 22.2875 43.3951 25.0552 43.3951ZM39.9922 62.3112C37.717 61.1279 35.8385 60.0732 35.4266 59.681C34.8928 59.1472 34.8928 58.2776 35.4266 57.7436C35.963 57.2071 36.8299 57.2118 37.3596 57.7415C37.7539 58.1575 38.8086 60.0363 39.9922 62.3112ZM16.0482 79.2574C13.6075 77.9564 12.6855 74.9074 13.9886 72.4667L16.6866 67.4317V79.6022L16.0482 79.2574Z" fill="black"/>
<path d="M116.69 85.5404H103.723C102.799 85.5404 102.049 86.2901 102.049 87.2142C102.049 88.1382 102.799 88.8879 103.723 88.8879H116.69C117.614 88.8879 118.364 88.1382 118.364 87.2142C118.364 86.2901 117.614 85.5404 116.69 85.5404Z" fill="black"/>
<path d="M116.69 94.4124H83.8699C82.9459 94.4124 82.1962 95.1621 82.1962 96.0861C82.1962 97.0101 82.9459 97.7599 83.8699 97.7599H116.69C117.614 97.7599 118.364 97.0101 118.364 96.0861C118.364 95.1621 117.614 94.4124 116.69 94.4124Z" fill="black"/>
</svg>
