<svg xmlns="http://www.w3.org/2000/svg" width="155" height="40" fill="none" viewBox="0 0 155 40">
  <path fill="#000" d="M48.35 16.392h4.08v-3.71h3.804c3.02 0 4.661-1.28 4.661-3.432 0-2.138-1.64-3.418-4.66-3.418H48.35v10.56Zm6.316-8.29c1.22 0 1.772.232 1.772 1.134 0 .916-.552 1.149-1.772 1.149H52.43V8.1h2.236Zm7.623 8.29h4.08v-4.276h4.66v4.276h4.08V5.832h-4.08v3.65h-4.66v-3.65h-4.08v10.56Zm13.561 0h4.37l.377-1.047h4.487l.349 1.047h4.413l-4.254-10.56H80.41l-4.56 10.56Zm5.72-3.636 1.336-3.724 1.263 3.724H81.57ZM94.743 10.4V8.507h2.28c1.19 0 1.8.117 1.8.917 0 .77-.58.974-1.699.974h-2.381Zm3.891-4.568h-8.03v10.56h4.139v-3.214h2.44c1.001 0 1.393.261 1.48 1.047.102.887-.043 1.658.276 2.167h4.53v-.16c-.494-.247-.494-1.12-.566-2.633-.058-1.207-.189-1.789-1.307-2.254 1.089-.422 1.728-1.426 1.728-2.677 0-1.018-.421-1.818-1.205-2.298-.668-.407-1.83-.538-3.485-.538Zm6.419 10.56h3.79V8.145l2.468 8.247h3.194l2.498-8.247v8.247h3.789V5.832h-5.967l-1.931 6.43-1.786-6.43h-6.055v10.56ZM48.35 23.09v10.575h6.752c4.429 0 6.708-1.862 6.708-5.28s-2.294-5.295-6.708-5.295H48.35Zm4.08 2.618h2.033c2.033 0 2.962.699 2.962 2.575 0 1.905-.944 2.575-2.962 2.575H52.43v-5.15Zm11.106 7.957h4.095v-10.56h-4.095v10.56Zm5.727-3.215c.03 2.226 2.12 3.535 6.128 3.535 4.835 0 7.158-1.106 7.158-3.753 0-1.745-1.147-2.75-3.47-3.084l-3.717-.538c-1.06-.145-1.569-.276-1.569-.742 0-.407.509-.698 1.481-.698 1.264 0 1.946.35 2.048 1.004h4.748c-.174-2.357-2.338-3.346-6.621-3.346-4.124 0-6.07.975-6.07 3.39 0 1.774 1.278 2.836 3.805 3.141l3.049.378c.973.117 1.466.393 1.466.844 0 .51-.566.756-1.655.756-1.118 0-1.771-.334-1.844-.887h-4.937Zm23.731-2.909h4.661c-.145-3.01-2.555-4.713-6.97-4.713-4.704 0-7.085 1.906-7.085 5.557 0 3.65 2.381 5.556 7.086 5.556 4.196 0 6.577-1.542 6.998-4.436H92.98c-.247 1.149-1.046 1.716-2.294 1.716-1.757 0-2.701-.989-2.701-2.836 0-1.848.944-2.851 2.7-2.851 1.365 0 2.179.698 2.31 2.007Zm5.622.844c0 3.65 2.381 5.556 7.086 5.556 4.704 0 7.085-1.905 7.085-5.556s-2.381-5.557-7.085-5.557c-4.705 0-7.086 1.906-7.086 5.557Zm4.385 0c0-1.848.944-2.851 2.701-2.851 1.756 0 2.7 1.004 2.7 2.85 0 1.848-.944 2.837-2.7 2.837-1.757 0-2.701-.989-2.701-2.836Zm15.576-5.28h-4.08v5.542c0 3.665 1.975 5.309 6.229 5.309 4.269 0 6.214-1.615 6.214-5.31v-5.541h-4.08v5.163c0 1.993-.45 2.822-2.134 2.822s-2.149-.829-2.149-2.822v-5.163Zm10.666 10.56h3.848v-6.182l4.428 6.182h4.574v-10.56h-3.949v6.08l-4.08-6.08h-4.821v10.56Zm17.844 0h4.094V25.78H155v-2.676h-11.717v2.676h3.804v7.884Z"/>
  <g clip-path="url(#a)">
    <path fill="#F5E175" fill-rule="evenodd" d="M4.565 4.572c5.67-5.68 14.863-5.68 20.534 0l2.566 2.572L6.99 27.57l-2.424-2.428c-5.67-5.68-5.67-14.89 0-20.57Zm10.267 30.856-2.71-2.714L32.8 12.286l2.566 2.572c5.67 5.68 5.67 14.89 0 20.57s-14.863 5.68-20.533 0Z" clip-rule="evenodd"/>
    <path fill="#000" fill-rule="evenodd" d="M8.78 8.795a8.311 8.311 0 0 0 0 11.739l10.652 10.672a8.275 8.275 0 0 0 11.718 0 8.31 8.31 0 0 0 0-11.74L20.497 8.797a8.276 8.276 0 0 0-11.718 0Zm7.764 16.008 4.64 4.648a5.801 5.801 0 0 0 8.214 0 5.826 5.826 0 0 0 0-8.229l-4.64-4.648-8.214 8.229Zm-1.752-1.756-4.26-4.268a5.826 5.826 0 0 1 0-8.229 5.8 5.8 0 0 1 8.213 0l4.261 4.269-8.214 8.228Z" clip-rule="evenodd"/>
  </g>
  <defs>
    <clipPath id="a">
      <path fill="#fff" d="M0 0h39.929v40H0z"/>
    </clipPath>
  </defs>
</svg>
