<svg xmlns="http://www.w3.org/2000/svg" width="18" height="18" fill="none" viewBox="0 0 18 18">
  <g clip-path="url(#a)">
    <path fill="#F0F0F0" d="M9 18A9 9 0 1 0 9 0a9 9 0 0 0 0 18Z"/>
    <path fill="#6DA544" d="M15.298 2.571A8.97 8.97 0 0 0 9 0c-.783 0-3.073.981-4.696 2.571h10.994ZM9 7.714h8.908a8.935 8.935 0 0 0-.774-2.571H8.609L9 7.714ZM.867 12.857h16.266c.38-.8.645-1.663.775-2.571H.092c.13.908.395 1.772.775 2.571Zm1.835 2.572A8.97 8.97 0 0 0 9 18a8.97 8.97 0 0 0 6.298-2.571H2.702Z"/>
    <path fill="#D80027" d="M9 0C4.466 0 .716 3.353.092 7.714H9V0Z"/>
    <path fill="#F0F0F0" d="m4.5 6.9-.391-.783V4.552l.978-.782.978.782v1.174l.392-.391v.782l-.783.783H4.5ZM2.395 4.5l.104.319h.335l-.271.197.104.319-.272-.197-.27.197.103-.319-.271-.197h.335l.103-.319Zm.783-.783.104.32h.335l-.271.196.103.32-.27-.198-.272.197.104-.319-.272-.197h.335l.104-.319Zm.782-.782.104.319H4.4l-.272.197.104.319-.271-.198-.271.198.103-.32-.271-.196h.335l.104-.32ZM7.779 4.5l-.104.319H7.34l.271.197-.104.319.272-.197.27.197-.103-.319.272-.197h-.336L7.78 4.5Zm-.783-.783-.104.32h-.335l.271.196-.103.32.271-.198.271.197-.103-.319.27-.197H7.1l-.104-.319Zm-.783-.782-.103.319h-.336l.272.197-.104.319.271-.198.271.198-.103-.32.271-.196h-.335l-.104-.32Zm-1.126-.392-.104.32h-.335l.271.196-.103.32.27-.198.272.197-.104-.319.272-.197H5.19l-.103-.319Z"/>
  </g>
  <defs>
    <clipPath id="a">
      <path fill="#fff" d="M0 0h18v18H0z"/>
    </clipPath>
  </defs>
</svg>
