<svg xmlns="http://www.w3.org/2000/svg" width="18" height="18" fill="none" viewBox="0 0 18 18">
  <g clip-path="url(#a)">
    <path fill="#D80027" d="M12.913.893A8.965 8.965 0 0 0 9 0a8.95 8.95 0 0 0-3.913.893L4.304 9l.783 8.107A8.965 8.965 0 0 0 9 18c1.402 0 2.73-.32 3.913-.893L13.695 9 12.913.893Z"/>
    <path fill="#000" d="M5.087.893A9 9 0 0 0 0 9a9 9 0 0 0 5.087 8.107V.893Z"/>
    <path fill="#496E2D" d="M12.913.893v16.214A9 9 0 0 0 18 9 9 9 0 0 0 12.913.893Z"/>
    <path fill="#FFDA44" d="M9 5.87a3.13 3.13 0 1 0 0 6.26 3.13 3.13 0 0 0 0-6.26Zm0 5.087a1.957 1.957 0 1 1 0-3.913 1.957 1.957 0 0 1 0 3.913Z"/>
    <path fill="#FFDA44" d="M9 7.826a.783.783 0 0 0-.783.783v1.174h1.566V8.609A.783.783 0 0 0 9 7.826Z"/>
  </g>
  <defs>
    <clipPath id="a">
      <path fill="#fff" d="M0 0h18v18H0z"/>
    </clipPath>
  </defs>
</svg>
