<svg xmlns="http://www.w3.org/2000/svg" width="18" height="18" fill="none" viewBox="0 0 18 18">
  <g clip-path="url(#a)">
    <path fill="#D80027" d="M9 18A9 9 0 1 0 9 0a9 9 0 0 0 0 18Z"/>
    <path fill="#000" d="M14.087 6.68h-3.26A1.174 1.174 0 1 0 9 5.22a1.173 1.173 0 1 0-1.827 1.46h-3.26c0 .864.753 1.565 1.617 1.565h-.052c0 .865.701 1.565 1.566 1.565 0 .28.073.543.202.77l-1.298 1.3.996.996 1.413-1.413c.055.02.113.036.172.047l-.854 1.928L9 14.87l1.325-1.433-.854-1.928a.892.892 0 0 0 .172-.048l1.413 1.413.996-.996-1.298-1.298c.129-.227.203-.49.203-.77.864 0 1.565-.7 1.565-1.565h-.052c.864 0 1.617-.7 1.617-1.565Z"/>
  </g>
  <defs>
    <clipPath id="a">
      <path fill="#fff" d="M0 0h18v18H0z"/>
    </clipPath>
  </defs>
</svg>
