<svg xmlns="http://www.w3.org/2000/svg" width="18" height="18" fill="none" viewBox="0 0 18 18">
  <g clip-path="url(#a)">
    <path fill="#F0F0F0" d="M9 18A9 9 0 1 0 9 0a9 9 0 0 0 0 18Z"/>
    <path fill="#0052B4" d="M13.366 1.129A9 9 0 0 0 0 8.999l6.26-3.13 7.106-4.74ZM0 9.001a9 9 0 0 0 13.366 7.87l-7.105-4.74L0 9Z"/>
    <path fill="#D80027" d="M14.116 1.595a8.991 8.991 0 0 0-.75-.466L0 8.999v.002l13.366 7.87c.258-.144.509-.3.75-.466L1.541 9l12.575-7.405Z"/>
    <path fill="#A2001D" d="M15.652 8.664H14.58a.852.852 0 0 0-.052-1.146.852.852 0 0 0 0-1.205l-.02.02c.332-.332.352-.892.02-1.224L9.709 9.927a.84.84 0 0 0 1.195-.004l.093-.085 2.307-.21v.993h.783V9.557l1.174-.106.391-.787Z"/>
    <path fill="#FFDA44" d="M9.783 10.957 9 10.565l.783-.391h5.087v.783H9.783Z"/>
  </g>
  <defs>
    <clipPath id="a">
      <path fill="#fff" d="M0 0h18v18H0z"/>
    </clipPath>
  </defs>
</svg>
