<svg xmlns="http://www.w3.org/2000/svg" width="18" height="18" fill="none" viewBox="0 0 18 18">
  <g clip-path="url(#a)">
    <path fill="#FFDA44" d="M5.087 17.107A8.965 8.965 0 0 0 9 18c1.402 0 2.73-.32 3.913-.893L13.696 9 12.913.893A8.964 8.964 0 0 0 9 0C7.598 0 6.27.32 5.087.893L4.304 9l.783 8.107Z"/>
    <path fill="#D80027" d="M12.913 17.107A9 9 0 0 0 18 9 9 9 0 0 0 12.913.893v16.214Z"/>
    <path fill="#0052B4" d="M5.087 17.107V.893A9 9 0 0 0 0 9a9 9 0 0 0 5.087 8.107Z"/>
    <path fill="#D80027" d="M9 12.13V9h2.348v1.174c0 .204-.391.951-1.357 1.565-.366.233-.745.307-.991.391ZM6.652 6.652H9V9H6.652V6.652Z"/>
    <path fill="#FF9811" d="M10.174 5.87A.783.783 0 0 0 9 5.192a.783.783 0 0 0-1.174.677H5.87v3.914c0 1.456 1.156 2.299 2.064 2.735A.783.783 0 0 0 9 13.59a.783.783 0 0 0 1.066-1.072c.908-.436 2.064-1.279 2.064-2.735V5.87h-1.956Zm.783 3.913c0 .203 0 .824-.966 1.438a4.737 4.737 0 0 1-.99.467 4.737 4.737 0 0 1-.992-.467c-.965-.614-.965-1.235-.965-1.438v-2.74h3.913v2.74Z"/>
  </g>
  <defs>
    <clipPath id="a">
      <path fill="#fff" d="M0 0h18v18H0z"/>
    </clipPath>
  </defs>
</svg>
