<svg xmlns="http://www.w3.org/2000/svg" width="18" height="18" fill="none" viewBox="0 0 18 18">
  <g clip-path="url(#a)">
    <path fill="#D80027" d="M0 9a9 9 0 0 1 18 0c-.391 0-9 1.174-9 1.174L0 9Z"/>
    <path fill="#000" d="M18 9A9 9 0 0 1 0 9"/>
    <path fill="#FFDA44" d="m7.766 7.158.763.554-.29.897L9 8.054l.763.554-.292-.897.762-.554h-.942L9 6.261l-.291.897h-.943Z"/>
    <path fill="#FFDA44" d="M11.25 5.103A4.471 4.471 0 0 0 9 4.5v1.174a3.304 3.304 0 0 1 1.663.445 3.33 3.33 0 0 1 1.217 4.543 3.33 3.33 0 0 1-4.543 1.217 3.305 3.305 0 0 1-1.112-1.048l-.98.647a4.472 4.472 0 0 0 1.505 1.418 4.505 4.505 0 0 0 6.147-1.647 4.505 4.505 0 0 0-1.647-6.147Z"/>
    <path fill="#FFDA44" d="M6.405 8.217a1.174 1.174 0 0 0 .467 1.594l3.812 2.083c-.259.474-.121 1.05.353 1.31l1.03.563a.978.978 0 0 0 1.327-.388l.564-1.03-7.553-4.132Z"/>
  </g>
  <defs>
    <clipPath id="a">
      <path fill="#fff" d="M0 0h18v18H0z"/>
    </clipPath>
  </defs>
</svg>
