<svg xmlns="http://www.w3.org/2000/svg" width="18" height="18" fill="none" viewBox="0 0 18 18">
  <g clip-path="url(#a)">
    <path fill="#0052B4" d="M18 9A9 9 0 0 1 0 9c0 .002 9-8.999 9-9a9 9 0 0 1 9 9Z"/>
    <path fill="#F0F0F0" d="M8.976 9H9v-.024A6.834 6.834 0 0 1 8.976 9ZM9 4.696V0h-.002A9 9 0 0 0 0 9h4.696V6.356L7.34 9h1.636L9 8.976V7.34L6.356 4.696H9Z"/>
    <path fill="#D80027" d="M4.553 1.174a9.043 9.043 0 0 0-3.38 3.38V9h2.349V3.522H9V1.174H4.553Z"/>
    <path fill="#D80027" d="M9 7.893 5.802 4.696H4.696L9 9V7.893Z"/>
    <path fill="#F3F3F3" d="M15.22 10.317c.26-.356.432-.79.432-1.317V5.087a1.953 1.953 0 0 1-2.74-.391 1.954 1.954 0 0 1-2.738.391V9c0 .527.173.961.431 1.317h4.615Z"/>
    <path fill="#FF9811" d="M14.406 8.274c.125-.304.222-.748.222-.97 0-.355-.463-.643-.463-.643s-.463.288-.463.644c0 .22.097.665.221.97l-.267.603a1.348 1.348 0 0 0 1.018 0l-.268-.604Zm-1.81-1.954c-.325.043-.758.182-.95.292-.308.178-.325.723-.325.723s.48.257.788.08c.192-.111.528-.417.729-.677l.656-.07a1.35 1.35 0 0 0-.509-.882l-.389.533Zm-.787 2.544c.2.26.537.566.728.677.308.177.789-.08.789-.08s-.018-.545-.325-.722c-.192-.111-.625-.25-.95-.293l-.39-.534a1.35 1.35 0 0 0-.509.882l.657.07Z"/>
    <path fill="#338AF3" d="M10.509 10.174c.73 1.173 2.404 1.565 2.404 1.565s1.673-.392 2.404-1.565H10.51Z"/>
  </g>
  <defs>
    <clipPath id="a">
      <path fill="#fff" d="M0 0h18v18H0z"/>
    </clipPath>
  </defs>
</svg>
