<svg xmlns="http://www.w3.org/2000/svg" width="18" height="18" fill="none" viewBox="0 0 18 18">
  <g clip-path="url(#a)">
    <path fill="#0052B4" d="M0 9c0 .616.062 1.218.18 1.8l8.82.548 8.82-.548a9.037 9.037 0 0 0 0-3.6L9 6.652.18 7.2A9.039 9.039 0 0 0 0 9Z"/>
    <path fill="#F0F0F0" d="M17.82 10.8H.18C1.014 14.908 4.646 18 9 18s7.986-3.092 8.82-7.2Z"/>
    <path fill="#000" d="M.18 7.2h17.64C16.986 3.092 13.354 0 9 0S1.014 3.092.18 7.2Z"/>
    <path fill="#FFDA44" d="M12.913 7.2H5.087l1.599-.752-.852-1.549 1.737.332.22-1.753L9 4.768l1.21-1.29.22 1.753 1.736-.332-.852 1.549 1.599.752Z"/>
    <path fill="#A2001D" d="M0 9a9 9 0 0 0 9 9L1.8 3.6A8.96 8.96 0 0 0 0 9Zm9 9a9 9 0 0 0 7.2-14.4L9 18Z"/>
  </g>
  <defs>
    <clipPath id="a">
      <path fill="#fff" d="M0 0h18v18H0z"/>
    </clipPath>
  </defs>
</svg>
