<svg xmlns="http://www.w3.org/2000/svg" width="18" height="18" fill="none" viewBox="0 0 18 18">
  <g clip-path="url(#a)">
    <path fill="#F0F0F0" d="M9 18A9 9 0 1 0 9 0a9 9 0 0 0 0 18Z"/>
    <path fill="#338AF3" d="M9 0A9 9 0 0 0 .893 5.087h16.214A9 9 0 0 0 9 0Zm0 18a9 9 0 0 0 8.107-5.087H.893A9 9 0 0 0 9 18Z"/>
    <path fill="#FFDA44" d="m11.69 9-1.1.517.586 1.065-1.193-.229-.152 1.206L9 10.672l-.831.887-.152-1.206-1.193.229.585-1.065L6.31 9l1.1-.517-.586-1.065 1.193.229.152-1.206.831.887.831-.887.152 1.206 1.193-.229-.585 1.065L11.69 9Z"/>
  </g>
  <defs>
    <clipPath id="a">
      <path fill="#fff" d="M0 0h18v18H0z"/>
    </clipPath>
  </defs>
</svg>
