<svg xmlns="http://www.w3.org/2000/svg" width="18" height="18" fill="none" viewBox="0 0 18 18">
  <g clip-path="url(#a)">
    <path fill="#0052B4" d="M18 9a8.98 8.98 0 0 0-.56-3.13L9 5.478.56 5.87A8.98 8.98 0 0 0 0 9c0 1.1.198 2.155.56 3.13l8.44.392 8.44-.392A8.98 8.98 0 0 0 18 9Z"/>
    <path fill="#FF9811" d="M9 18a9.003 9.003 0 0 0 8.44-5.87H.56A9.003 9.003 0 0 0 9 18Z"/>
    <path fill="#D80027" d="M.56 5.87h16.88a9.003 9.003 0 0 0-16.88 0Z"/>
  </g>
  <defs>
    <clipPath id="a">
      <path fill="#fff" d="M0 0h18v18H0z"/>
    </clipPath>
  </defs>
</svg>
