<svg xmlns="http://www.w3.org/2000/svg" width="18" height="18" fill="none" viewBox="0 0 18 18">
  <g clip-path="url(#a)">
    <path fill="#FFDA44" d="M9 18A9 9 0 1 0 9 0a9 9 0 0 0 0 18Z"/>
    <path fill="#338AF3" d="M9 18a8.979 8.979 0 0 0 6.823-3.13H2.178A8.98 8.98 0 0 0 9 18Zm9-9A9 9 0 1 0 .31 11.348h17.38c.202-.749.31-1.536.31-2.348ZM.715 12.522c.174.407.377.8.606 1.174h15.358c.23-.375.432-.767.606-1.174H.715Z"/>
    <path fill="#F0F0F0" d="M4.125 5.676 2.366 4.9l1.759-.776.776-1.758.776 1.758 1.758.776-1.758.776L4.9 7.435l-.776-1.759Z"/>
    <path fill="#D80027" d="m4.9 3.335.48 1.086 1.085.48-1.086.479L4.9 6.466 4.42 5.38 3.336 4.9l1.086-.479.48-1.086Z"/>
  </g>
  <defs>
    <clipPath id="a">
      <path fill="#fff" d="M0 0h18v18H0z"/>
    </clipPath>
  </defs>
</svg>
