<svg xmlns="http://www.w3.org/2000/svg" width="18" height="18" fill="none" viewBox="0 0 18 18">
  <g clip-path="url(#a)">
    <path fill="#0052B4" d="M18 9A9 9 0 0 1 0 9c0 .002 9-8.999 9-9a9 9 0 0 1 9 9Z"/>
    <path fill="#F0F0F0" d="M8.976 9H9v-.024A6.836 6.836 0 0 1 8.976 9ZM9 4.696V0h-.002A9 9 0 0 0 0 9h4.696V6.356L7.34 9h1.636L9 8.976V7.34L6.356 4.696H9Z"/>
    <path fill="#D80027" d="M4.553 1.174a9.043 9.043 0 0 0-3.38 3.38V9h2.349V3.522H9V1.174H4.553Z"/>
    <path fill="#D80027" d="M9 7.893 5.803 4.696H4.696L9 9V7.893Z"/>
    <path fill="#F0F0F0" d="m5.428 10.565.494 1.033 1.115-.258-.5 1.03.898.712-1.117.252.003 1.144-.893-.716-.893.716.003-1.144-1.117-.252.897-.712-.5-1.03 1.116.258.494-1.033Zm8.047 1.957.247.516.557-.129-.25.515.449.356-.558.126.001.572-.446-.358-.447.358.002-.572-.559-.126.449-.356-.25-.515.558.13.247-.517Zm-2.298-5.478.247.516.558-.129-.25.515.449.356-.559.126.002.572-.447-.358-.446.358.001-.572-.558-.126.448-.356-.25-.515.558.129.247-.516Zm2.298-3.131.247.517.557-.13-.25.516.449.355-.558.126.001.573-.446-.359-.447.359.002-.573-.559-.126.449-.355-.25-.515.558.129.247-.517Zm2.007 2.348.246.516.558-.129-.25.516.449.355-.559.126.002.572-.447-.358-.446.358.001-.572-.558-.126.449-.355-.25-.516.557.13.248-.517ZM14.046 9l.195.598h.628l-.508.37.194.597-.508-.37-.509.37.194-.598-.508-.37h.628L14.046 9Z"/>
  </g>
  <defs>
    <clipPath id="a">
      <path fill="#fff" d="M0 0h18v18H0z"/>
    </clipPath>
  </defs>
</svg>
