<svg xmlns="http://www.w3.org/2000/svg" width="18" height="18" fill="none" viewBox="0 0 18 18">
  <g clip-path="url(#a)">
    <path fill="#D80027" d="M18 9a8.98 8.98 0 0 0-.56-3.13L9 5.478.56 5.87A8.98 8.98 0 0 0 0 9c0 1.1.198 2.155.56 3.13l8.44.392 8.44-.392A8.98 8.98 0 0 0 18 9Z"/>
    <path fill="#6DA544" d="M9 18a9.003 9.003 0 0 0 8.44-5.87H.56A9.003 9.003 0 0 0 9 18Z"/>
    <path fill="#338AF3" d="M.56 5.87h16.88a9.003 9.003 0 0 0-16.88 0Z"/>
    <path fill="#F0F0F0" d="M9.196 11.543a2.543 2.543 0 1 1 1.21-4.78 3.13 3.13 0 1 0 0 4.476c-.36.194-.772.304-1.21.304Z"/>
    <path fill="#F0F0F0" d="m11.152 7.24.337.947.908-.432-.432.908.948.337-.948.337.432.908-.908-.432-.337.948-.337-.948-.908.432.432-.908L9.39 9l.948-.337-.432-.908.908.432.337-.948Z"/>
  </g>
  <defs>
    <clipPath id="a">
      <path fill="#fff" d="M0 0h18v18H0z"/>
    </clipPath>
  </defs>
</svg>
