<svg xmlns="http://www.w3.org/2000/svg" width="18" height="18" fill="none" viewBox="0 0 18 18">
  <g clip-path="url(#a)">
    <path fill="#F0F0F0" d="M9 18A9 9 0 1 0 9 0a9 9 0 0 0 0 18Z"/>
    <path fill="#D80027" d="M0 9a8.998 8.998 0 0 0 4.696 7.906V1.094A8.998 8.998 0 0 0 0 9Z"/>
    <path fill="#0052B4" d="M0 9c0 4.158 2.82 7.657 6.652 8.69V.31C2.82 1.343 0 4.842 0 9Z"/>
    <path fill="#D80027" d="M3.228 3.13v1.468a1.32 1.32 0 1 0 2.642 0V3.13H3.228Z"/>
    <path fill="#F0F0F0" d="M4.549 5.136a.539.539 0 0 1-.538-.538v-.685h1.076v.685a.539.539 0 0 1-.538.538Z"/>
    <path fill="#FFDA44" d="M9.783 9.391H7.435a.783.783 0 0 0-1.565 0H3.522c0 .432.376.783.808.783h-.026c0 .432.35.783.783.783 0 .432.35.782.783.782h1.565c.432 0 .782-.35.782-.783.433 0 .783-.35.783-.782h-.026c.432 0 .809-.35.809-.783Zm.321-1.252-.205.329.25.297-.377-.094L9.566 9l-.027-.387-.376-.094.36-.145-.028-.387.25.297.36-.145ZM8.905 7.133l-.08.38.336.193-.386.04-.08.38-.158-.354-.386.04.288-.26-.158-.353.336.193.288-.26Zm-1.47-.535.054.384.382.067-.349.17.054.384-.27-.279-.348.17.182-.342-.27-.28.383.068.182-.342Zm-1.565 0 .182.342.382-.067-.27.279.182.342-.348-.17-.27.28.054-.385-.348-.17.382-.067.054-.384Zm-1.471.535.288.26.336-.194-.158.354.288.26-.385-.041-.158.354-.08-.38-.386-.04.336-.194-.081-.38ZM3.2 8.139l.36.145.249-.297-.027.387.36.145-.377.094L3.738 9l-.205-.329-.377.094.25-.297-.206-.33Z"/>
  </g>
  <defs>
    <clipPath id="a">
      <path fill="#fff" d="M0 0h18v18H0z"/>
    </clipPath>
  </defs>
</svg>
