<svg xmlns="http://www.w3.org/2000/svg" width="18" height="18" fill="none" viewBox="0 0 18 18">
  <g clip-path="url(#a)">
    <path fill="#FFDA44" d="M9 18A9 9 0 1 0 9 0a9 9 0 0 0 0 18Z"/>
    <path fill="#338AF3" d="M5.478 5.87H17.44A9.003 9.003 0 0 0 2.636 2.636L5.478 5.87Zm0 6.26H17.44a9.003 9.003 0 0 1-14.804 3.234l2.842-3.234Z"/>
    <path fill="#000" d="M2.636 2.636a9 9 0 0 0 0 12.728L9 9 2.636 2.636Z"/>
  </g>
  <defs>
    <clipPath id="a">
      <path fill="#fff" d="M0 0h18v18H0z"/>
    </clipPath>
  </defs>
</svg>
