<svg xmlns="http://www.w3.org/2000/svg" width="18" height="18" fill="none" viewBox="0 0 18 18">
  <g clip-path="url(#a)">
    <path fill="#FFDA44" d="M12.913.893A8.965 8.965 0 0 0 9 0a8.95 8.95 0 0 0-3.913.893L4.304 9l.783 8.107A8.965 8.965 0 0 0 9 18c1.402 0 2.73-.32 3.913-.893L13.695 9 12.913.893Z"/>
    <path fill="#0052B4" d="M5.087.893A9 9 0 0 0 0 9a9 9 0 0 0 5.087 8.107V.893Zm7.826 0v16.214A9 9 0 0 0 18 9 9 9 0 0 0 12.913.893Z"/>
    <path fill="#000" d="m11.74 5.478.524.263-.525-.263-.525-.262c-.032.063-.717 1.458-.83 3.588h-.797V5.478L9 4.696l-.587.782v3.326h-.798c-.112-2.13-.798-3.525-.83-3.588l-1.05.525c.008.014.722 1.466.722 3.65v.587h1.956v3.326h1.174V9.978h1.956v-.587c0-1.129.196-2.06.36-2.642.178-.635.36-1.006.362-1.01l-.526-.26Z"/>
  </g>
  <defs>
    <clipPath id="a">
      <path fill="#fff" d="M0 0h18v18H0z"/>
    </clipPath>
  </defs>
</svg>
