<svg xmlns="http://www.w3.org/2000/svg" width="18" height="18" fill="none" viewBox="0 0 18 18">
  <g clip-path="url(#a)">
    <path fill="#F0F0F0" d="M9 18A9 9 0 1 0 9 0a9 9 0 0 0 0 18Z"/>
    <path fill="#D80027" d="M.076 10.174a8.954 8.954 0 0 0 1.785 4.305l4.791-4.305H.076Zm7.75 7.75v-6.576L3.52 16.139a8.954 8.954 0 0 0 4.305 1.785Zm0-17.848A8.954 8.954 0 0 0 3.52 1.861l4.305 4.791V.076Zm-7.75 7.75h6.576L1.86 3.521A8.954 8.954 0 0 0 .076 7.826ZM10.174.076v6.576l4.305-4.791A8.955 8.955 0 0 0 10.174.076Zm7.75 7.75a8.954 8.954 0 0 0-1.785-4.305l-4.791 4.305h6.576Zm-6.576 2.348 4.791 4.305a8.955 8.955 0 0 0 1.785-4.305h-6.576Zm-1.174 7.75a8.954 8.954 0 0 0 4.305-1.785l-4.305-4.791v6.576Z"/>
    <path fill="#496E2D" d="M16.14 14.48 10.66 9l5.48-5.48a9.091 9.091 0 0 0-1.66-1.66L9 7.34 3.52 1.86a9.086 9.086 0 0 0-1.66 1.66L7.34 9l-5.48 5.48a9.095 9.095 0 0 0 1.66 1.66L9 10.66l5.48 5.48a9.095 9.095 0 0 0 1.66-1.66Z"/>
    <path fill="#F0F0F0" d="M10.174 17.924v-7.75h7.75a9.076 9.076 0 0 0 0-2.348h-7.75V.076a9.088 9.088 0 0 0-2.348 0v7.75H.076a9.083 9.083 0 0 0 0 2.348h7.75v7.75a9.093 9.093 0 0 0 2.348 0Z"/>
  </g>
  <defs>
    <clipPath id="a">
      <path fill="#fff" d="M0 0h18v18H0z"/>
    </clipPath>
  </defs>
</svg>
