<svg xmlns="http://www.w3.org/2000/svg" width="18" height="18" fill="none" viewBox="0 0 18 18">
  <g clip-path="url(#a)">
    <path fill="#FCFCFC" d="M9 18A9 9 0 1 0 9 0a9 9 0 0 0 0 18Z"/>
    <path fill="#A2001D" d="m3.718 8.348-.979-1.775.979-1.747.978 1.747-.978 1.775Zm-1.957 0L.783 6.573l.978-1.747.978 1.747-.978 1.775Zm1.957 4.826-.979-1.775.979-1.747.978 1.747-.978 1.775Zm-1.957 0-.978-1.775.978-1.747.978 1.747-.978 1.775ZM4.696 1.747l-.277-.495A9.025 9.025 0 0 0 3.027 2.27l.69 1.253.979-1.775Zm-.978 12.731-.698 1.247c.428.382.894.723 1.39 1.018l.286-.518-.978-1.747Z"/>
    <path fill="#6DA544" d="M5.478 11.348v5.937A9.003 9.003 0 0 0 17.44 12.13l-11.962-.783Z"/>
    <path fill="#A2001D" d="M17.44 12.13A9 9 0 0 0 5.478.715V12.13H17.44Z"/>
  </g>
  <defs>
    <clipPath id="a">
      <path fill="#fff" d="M0 0h18v18H0z"/>
    </clipPath>
  </defs>
</svg>
