<svg xmlns="http://www.w3.org/2000/svg" width="18" height="18" fill="none" viewBox="0 0 18 18">
  <g clip-path="url(#a)">
    <path fill="#0052B4" d="M18 9a8.99 8.99 0 0 0-3.927-7.435L9 1.174l-5.073.391A8.99 8.99 0 0 0 0 9a8.99 8.99 0 0 0 3.927 7.435L9 16.826l5.073-.391A8.99 8.99 0 0 0 18 9Z"/>
    <path fill="#A2001D" d="M14.073 1.565A8.958 8.958 0 0 0 9 0a8.958 8.958 0 0 0-5.073 1.565h10.146ZM3.927 16.435A8.958 8.958 0 0 0 9 18a8.958 8.958 0 0 0 5.073-1.565H3.927Z"/>
    <path fill="#F0F0F0" d="M9 13.304a4.304 4.304 0 1 0 0-8.608 4.304 4.304 0 0 0 0 8.608Z"/>
    <path fill="#6DA544" d="M9 12.522a3.522 3.522 0 1 0 0-7.044 3.522 3.522 0 0 0 0 7.044Z"/>
    <path fill="#F0F0F0" d="M9 11.348a2.348 2.348 0 1 0 0-4.696 2.348 2.348 0 0 0 0 4.696Z"/>
    <path fill="#0052B4" d="M9 8.413 7.728 9v.978L9 10.761l1.272-.783V9L9 8.413Z"/>
    <path fill="#FFDA44" d="M7.728 7.826h2.544V9H7.728V7.826Z"/>
  </g>
  <defs>
    <clipPath id="a">
      <path fill="#fff" d="M0 0h18v18H0z"/>
    </clipPath>
  </defs>
</svg>
