<svg xmlns="http://www.w3.org/2000/svg" width="18" height="18" fill="none" viewBox="0 0 18 18">
  <g clip-path="url(#a)">
    <path fill="#D80027" d="M18 9A9 9 0 0 1 0 9c0 .002 9-8.999 9-9a9 9 0 0 1 9 9Z"/>
    <path fill="#0052B4" d="M9 4.304V7.34L5.87 4.304H9ZM4.696 9H7.34L4.696 5.478l-.392 2.74.392.782Z"/>
    <path fill="#F0F0F0" d="M8.976 9H9v-.024A6.834 6.834 0 0 1 8.976 9ZM9 4.696V0h-.002A9 9 0 0 0 0 9h4.696V6.356L7.34 9h1.636L9 8.976V7.34L6.356 4.696H9Z"/>
    <path fill="#D80027" d="M4.553 1.174a9.043 9.043 0 0 0-3.38 3.38V9.39h2.349V3.52h5.87V1.175h-4.84Z"/>
    <path fill="#D80027" d="M9.358 8.251 5.802 4.696H4.696l4.662 4.662V8.25Z"/>
    <path fill="#F3F3F3" d="M10.174 4.696V9c0 2.097 5.478 2.097 5.478 0V4.696h-5.478Z"/>
    <path fill="#6DA544" d="M10.174 9c0 2.097 2.739 2.74 2.739 2.74s2.74-.643 2.74-2.74h-5.48Z"/>
    <path fill="#A2001D" d="m12.913 7.278-1.272.548V9l1.272.783L14.185 9V7.826l-1.272-.548Z"/>
    <path fill="#338AF3" d="M11.641 6.652h2.544v1.174H11.64V6.652Z"/>
  </g>
  <defs>
    <clipPath id="a">
      <path fill="#fff" d="M0 0h18v18H0z"/>
    </clipPath>
  </defs>
</svg>
