<svg xmlns="http://www.w3.org/2000/svg" width="18" height="18" fill="none" viewBox="0 0 18 18">
  <g clip-path="url(#a)">
    <path fill="#FFDA44" d="M15.364 15.364A9 9 0 0 1 2.636 2.636c.001 0 8.088-2.39 11.603 1.125 3.514 3.515 1.127 11.6 1.125 11.603Z"/>
    <path fill="#D80027" d="M15.364 15.364A9 9 0 0 0 2.636 2.636l12.728 12.728Z"/>
    <path fill="#FF9811" d="M11.352 11.353A1.367 1.367 0 0 1 9.657 9.41l-.113-.063a2.547 2.547 0 0 0 1.947-2.503 2.538 2.538 0 0 0-.869-1.882l-.822.842a1.367 1.367 0 0 1-.835 2.44l.001.13a2.547 2.547 0 0 0-3.14-.435A2.538 2.538 0 0 0 4.63 9.632l1.14.29a1.367 1.367 0 0 1 2.53-.496l.11-.066a2.547 2.547 0 0 0 1.195 2.938 2.537 2.537 0 0 0 2.065.188l-.319-1.133ZM8.974 9.026Z"/>
    <path fill="#FFEACF" d="m12.332 6.095-.636 2.27-1.908-.352-1.229-2.532L5.24 6.658l-.262-.737-.868-.107.654 1.844 2.284-.584.65 1.829-1.58 2.33 2.68 2.285-.508.596.342.805 1.27-1.488-1.649-1.686 1.26-1.477 2.807.202.64-3.463.77.142.526-.698-1.924-.356ZM9 9.061Z"/>
  </g>
  <defs>
    <clipPath id="a">
      <path fill="#fff" d="M0 0h18v18H0z"/>
    </clipPath>
  </defs>
</svg>
