<svg xmlns="http://www.w3.org/2000/svg" width="18" height="18" fill="none" viewBox="0 0 18 18">
  <g clip-path="url(#a)">
    <path fill="#F0F0F0" d="M9 18A9 9 0 1 0 9 0a9 9 0 0 0 0 18Z"/>
    <path fill="#FFDA44" d="M2.636 2.636a8.98 8.98 0 0 0-2.61 7.038L9.674.025a8.98 8.98 0 0 0-7.038 2.611Z"/>
    <path fill="#0052B4" d="M3.214 15.893c3.536 2.975 8.822 2.8 12.15-.53 3.328-3.327 3.504-8.613.53-12.15l-12.68 12.68Z"/>
    <path fill="#000" d="m8.968 8.638.776-.42-.776-.42A2.741 2.741 0 0 0 6.681 5.51l-.42-.775-.42.775a2.741 2.741 0 0 0-2.287 2.287l-.776.42.776.42a2.74 2.74 0 0 0 2.287 2.287l.42.776.42-.775a2.741 2.741 0 0 0 2.287-2.287ZM6.261 9.783a1.565 1.565 0 1 1 0-3.13 1.565 1.565 0 0 1 0 3.13Z"/>
    <path fill="#D80027" d="m6.26 7.043.34.587h.677l-.338.587.338.587H6.6l-.34.587-.338-.587h-.678l.339-.587-.339-.587h.678l.339-.587Z"/>
  </g>
  <defs>
    <clipPath id="a">
      <path fill="#fff" d="M0 0h18v18H0z"/>
    </clipPath>
  </defs>
</svg>
