<svg xmlns="http://www.w3.org/2000/svg" width="18" height="18" fill="none" viewBox="0 0 18 18">
  <g clip-path="url(#a)">
    <path fill="#F0F0F0" d="M9 18A9 9 0 1 0 9 0a9 9 0 0 0 0 18Z"/>
    <path fill="#FFDA44" d="M9 0a8.993 8.993 0 0 0-7.592 4.165L13.613 16.73A9 9 0 0 0 9 0Z"/>
    <path fill="#0052B4" d="M18 9a8.97 8.97 0 0 0-2.348-6.062v12.124A8.967 8.967 0 0 0 18 9Zm-6.757 7.94h.942l.291-.896.292.896h.473c.29-.156.57-.326.84-.511L1.571 3.919c-.206.3-.394.615-.563.94l.111.342h.943l-.763.554.292.896-.763-.553-.455.33a9 9 0 0 0 11.624 11.06l-.754-.547ZM2.007 8.61l.291-.897-.763-.554h.943l.29-.897.293.896h.942l-.762.554.292.897-.763-.554-.763.555Zm1.942 1.956.29-.896-.762-.554h.942l.291-.898.292.897h.943l-.763.554.292.896-.763-.553-.762.554Zm1.941 1.957.291-.897-.763-.554h.943l.29-.897.293.896h.942l-.762.554.292.897-.763-.554-.763.555Zm2.704 1.402-.762.554.29-.896-.762-.554h.942l.291-.898.292.897h.943l-.763.554.292.896-.763-.553Zm1.18 2.51.29-.896-.763-.554h.943l.29-.897.292.896h.943l-.762.554.292.897-.763-.554-.763.555Z"/>
  </g>
  <defs>
    <clipPath id="a">
      <path fill="#fff" d="M0 0h18v18H0z"/>
    </clipPath>
  </defs>
</svg>
