<svg xmlns="http://www.w3.org/2000/svg" width="18" height="18" fill="none" viewBox="0 0 18 18">
  <g clip-path="url(#a)">
    <path fill="#F0F0F0" d="M.425 6.26A8.992 8.992 0 0 0 0 9c0 .955.15 1.875.425 2.74L9 12.13l8.575-.39A8.997 8.997 0 0 0 18 9c0-.955-.15-1.875-.425-2.74L9 5.87l-8.575.39Z"/>
    <path fill="#000" d="M18 9a9.06 9.06 0 0 0-.136-1.565H.136a9.048 9.048 0 0 0 0 3.13h17.728A9.06 9.06 0 0 0 18 9Z"/>
    <path fill="#338AF3" d="M9 18a9.003 9.003 0 0 0 8.575-6.261H.425A9.004 9.004 0 0 0 9 17.999ZM9 0A9.004 9.004 0 0 0 .425 6.26h17.15A9.003 9.003 0 0 0 9 0Z"/>
  </g>
  <defs>
    <clipPath id="a">
      <path fill="#fff" d="M0 0h18v18H0z"/>
    </clipPath>
  </defs>
</svg>
