<svg xmlns="http://www.w3.org/2000/svg" width="18" height="18" fill="none" viewBox="0 0 18 18">
  <g clip-path="url(#a)">
    <path fill="#0052B4" d="M18 9A9 9 0 0 1 0 9c0 .002 9-8.999 9-9a9 9 0 0 1 9 9Z"/>
    <path fill="#F0F0F0" d="M8.976 9H9v-.024A6.834 6.834 0 0 1 8.976 9ZM9 4.696V0h-.002A9 9 0 0 0 0 9h4.696V6.356L7.34 9h1.636L9 8.976V7.34L6.356 4.696H9Z"/>
    <path fill="#D80027" d="M4.553 1.174a9.043 9.043 0 0 0-3.38 3.38V9h2.349V3.522H9V1.174H4.553Z"/>
    <path fill="#FFDA44" d="m12.913 9-2.433 2.433a2.738 2.738 0 0 0 4.866 0L12.913 9Z"/>
    <path fill="#D80027" d="M9 7.893 5.802 4.696H4.696L9 9V7.893Z"/>
    <path fill="#6DA544" d="M10.174 4.696V9c0 2.097 2.739 2.74 2.739 2.74s2.74-.643 2.74-2.74V4.696h-5.48Z"/>
    <path fill="#F0F0F0" d="M12.326 6.652H13.5v3.13h-1.174v-3.13Z"/>
    <path fill="#A2001D" d="M12.913 7.24a.587.587 0 1 0 0-1.175.587.587 0 0 0 0 1.174Z"/>
    <path fill="#FFDA44" d="M10.957 5.478h.782v.783h-.783v-.783Zm0 1.762h.782v.782h-.783v-.783Zm0 1.76h.782v.783h-.783V9Zm3.13-3.522h.783v.783h-.783v-.783Zm0 1.762h.783v.782h-.783v-.783Zm0 1.76h.783v.783h-.783V9Z"/>
  </g>
  <defs>
    <clipPath id="a">
      <path fill="#fff" d="M0 0h18v18H0z"/>
    </clipPath>
  </defs>
</svg>
