<svg xmlns="http://www.w3.org/2000/svg" width="18" height="18" fill="none" viewBox="0 0 18 18">
  <g clip-path="url(#a)">
    <path fill="#F0F0F0" d="M9 18A9 9 0 1 0 9 0a9 9 0 0 0 0 18Z"/>
    <path fill="#0052B4" d="M16.5 10.077c-.75 0-.75-.686-1.5-.686s-.75.686-1.5.686-.75-.686-1.5-.686-.75.686-1.5.686-.75-.686-1.5-.686-.75.686-1.5.686-.75-.686-1.5-.686-.75.686-1.5.686-.75-.686-1.5-.686-.75.686-1.5.686c-.746 0-.75-.678-1.488-.685.02.411.07.816.144 1.21.598.089.65.675 1.344.675.75 0 .75-.686 1.5-.686s.75.686 1.5.686.75-.686 1.5-.686.75.686 1.5.686.75-.686 1.5-.686.75.686 1.5.686.75-.686 1.5-.686.75.686 1.5.686.75-.686 1.5-.686.75.686 1.5.686c.694 0 .746-.586 1.344-.674.074-.396.123-.8.144-1.211-.738.007-.742.685-1.488.685ZM15 11.74c-.75 0-.75.685-1.5.685s-.75-.686-1.5-.686-.75.686-1.5.686-.75-.686-1.5-.686-.75.686-1.5.686-.75-.686-1.5-.686-.75.686-1.5.686-.75-.686-1.5-.686-.75.686-1.5.686c-.552 0-.698-.372-1.037-.568.205.613.474 1.195.8 1.741.07.017.148.027.237.027.75 0 .75-.686 1.5-.686s.75.686 1.5.686.75-.686 1.5-.686.75.686 1.5.686.75-.686 1.5-.686.75.686 1.5.686.75-.686 1.5-.686.75.686 1.5.686.75-.686 1.5-.686.75.686 1.5.686c.089 0 .167-.01.238-.027a8.951 8.951 0 0 0 .799-1.74c-.339.195-.485.567-1.037.567-.75 0-.75-.686-1.5-.686Zm2.79-4.676c-.548.114-.617.665-1.29.665-.75 0-.75-.686-1.5-.686s-.75.686-1.5.686-.75-.686-1.5-.686-.75.686-1.5.686-.75-.686-1.5-.686c-.405 0-.592.2-.796.385v1.2c.204-.184.39-.384.796-.384.75 0 .75.685 1.5.685s.75-.685 1.5-.685.75.685 1.5.685.75-.685 1.5-.685.75.685 1.5.685c.694 0 .746-.586 1.344-.674l.125-.001a8.97 8.97 0 0 0-.178-1.19Zm-.657-1.922a.91.91 0 0 1-.633.24c-.75 0-.75-.686-1.5-.686s-.75.685-1.5.685-.75-.685-1.5-.685-.75.685-1.5.685-.75-.685-1.5-.685c-.405 0-.592.2-.796.384v1.2c.204-.184.39-.384.796-.384.75 0 .75.685 1.5.685s.75-.685 1.5-.685.75.685 1.5.685.75-.685 1.5-.685.75.685 1.5.685c.532 0 .687-.344 1-.545a8.954 8.954 0 0 0-.367-.894ZM15.064 2.35A1.178 1.178 0 0 0 15 2.348c-.75 0-.75.686-1.5.686s-.75-.686-1.5-.686-.75.686-1.5.686-.75-.686-1.5-.686c-.405 0-.592.2-.796.384v1.2c.204-.184.39-.384.796-.384.75 0 .75.686 1.5.686s.75-.686 1.5-.686.75.686 1.5.686.75-.686 1.5-.686.75.686 1.5.686c.046 0 .09-.003.13-.008a9.045 9.045 0 0 0-1.566-1.876ZM11.3.297c-.206.185-.392.389-.8.389C9.75.686 9.75 0 9 0c-.388 0-.575.184-.77.36v1.2c.195-.176.382-.36.77-.36.75 0 .75.686 1.5.686S11.25 1.2 12 1.2s.75.686 1.5.686c.315 0 .497-.121.659-.261A8.957 8.957 0 0 0 11.3.297Zm-.8 16.823c-.75 0-.75-.685-1.5-.685s-.75.686-1.5.686-.75-.686-1.5-.686c-.574 0-.71.402-1.078.59a8.944 8.944 0 0 0 3.337.944c.184-.168.372-.334.74-.334.37 0 .557.166.742.334a8.942 8.942 0 0 0 3.337-.944c-.369-.188-.504-.59-1.078-.59-.75 0-.75.686-1.5.686Zm3-2.347c-.75 0-.75-.686-1.5-.686s-.75.686-1.5.686-.75-.686-1.5-.686-.75.686-1.5.686-.75-.686-1.5-.686-.75.686-1.5.686-.75-.686-1.5-.686c-.54 0-.691.355-1.012.554.201.25.415.49.642.717a.921.921 0 0 1 .37-.071c.75 0 .75.686 1.5.686s.75-.686 1.5-.686.75.686 1.5.686.75-.686 1.5-.686.75.686 1.5.686.75-.686 1.5-.686.75.686 1.5.686.75-.686 1.5-.686a.92.92 0 0 1 .37.07c.227-.226.44-.466.642-.716-.321-.2-.473-.554-1.012-.554-.75 0-.75.686-1.5.686Z"/>
    <path fill="#F0F0F0" d="M8.976 9H9v-.024A6.834 6.834 0 0 1 8.976 9Z"/>
    <path fill="#0052B4" d="M9 4.696V7.34L5.87 4.304 9 4.696ZM4.696 9H7.34L4.696 5.478l-.392 2.74.392.782Z"/>
    <path fill="#F0F0F0" d="M9 4.696V0h-.002A9 9 0 0 0 0 9h4.696V6.356L7.34 9h1.636L9 8.976V7.34L6.356 4.696H9Z"/>
    <path fill="#D80027" d="M4.553 1.174a9.043 9.043 0 0 0-3.38 3.38V9h2.349V3.522H9V1.174H4.553Z"/>
    <path fill="#D80027" d="M9 7.893 5.802 4.696H4.696L9 9V7.893Z"/>
    <path fill="#6DA544" d="M11.739 4.696h3.522L13.5 6.456l-1.761-1.76Z"/>
    <path fill="#A2001D" d="M13.109 6.065h.782v2.152h-.782V6.065Zm0 5.675h.782v2.151h-.782V11.74Z"/>
    <path fill="#FFDA44" d="M15.848 10.565a1.174 1.174 0 0 0-1.957-.875V9h.392v-.783h-.392v-.391h-.782v.391h-.392V9h.392v.69a1.174 1.174 0 0 0-1.565 1.75v.69h3.912v-.69a1.17 1.17 0 0 0 .392-.875Z"/>
    <path fill="#D80027" d="M14.674 10.174a.386.386 0 0 0-.26.1l-.523.467h-.782l-.522-.467a.392.392 0 0 0-.521.583l.26.233v.258h2.348v-.258l.26-.233a.392.392 0 0 0-.26-.683Z"/>
  </g>
  <defs>
    <clipPath id="a">
      <path fill="#fff" d="M0 0h18v18H0z"/>
    </clipPath>
  </defs>
</svg>
