<svg xmlns="http://www.w3.org/2000/svg" width="18" height="18" fill="none" viewBox="0 0 18 18">
  <g clip-path="url(#a)">
    <path fill="#F0F0F0" d="M0 9a9 9 0 0 1 18 0H0Z"/>
    <path fill="#0052B4" d="M6.652 8.508 6.16 9h.492v-.492Zm4.696 0V9h.492l-.492-.492ZM.26 6.848C.09 7.538 0 8.258 0 9h2.84l2.152-2.152H.26Zm12.748 0L15.16 9H18c0-.742-.09-1.462-.26-2.152h-4.732Z"/>
    <path fill="#D80027" d="M12.454 6.848h-1.106L13.5 9h1.107l-2.153-2.152ZM6.652 7.955V6.848L4.5 9h1.107l1.045-1.045Z"/>
    <path fill="#0052B4" d="M4.216 1.376a9.04 9.04 0 0 0-1.055.776h1.831l-.776-.776Zm10.624.776a9.027 9.027 0 0 0-1.056-.776l-.776.776h1.832Z"/>
    <path fill="#D80027" d="M10.174 5.674h7.191a8.99 8.99 0 0 0-1.38-2.348h-5.811V.076a9.09 9.09 0 0 0-2.348 0v3.25H2.014a8.992 8.992 0 0 0-1.38 2.348h7.192V9h2.348V5.674Z"/>
    <path fill="#D80027" d="M6.652 2.152 5.295.795c-.25.114-.495.239-.733.374l.983.983h1.107Zm4.696 0L12.704.795a8.959 8.959 0 0 0-.793-.313l-.563.563v1.107Z"/>
    <path fill="#F0F0F0" d="M18 9A9 9 0 0 1 0 9h18Z"/>
    <path fill="#0052B4" d="M16.5 10.148c-.75 0-.75-.686-1.5-.686s-.75.686-1.5.686-.75-.686-1.5-.686-.75.686-1.5.686-.75-.686-1.5-.686-.75.686-1.5.686-.75-.686-1.5-.686-.75.686-1.5.686-.75-.686-1.5-.686-.75.686-1.5.686c-.746 0-.75-.678-1.488-.686.02.412.07.816.144 1.211.598.088.65.675 1.344.675.75 0 .75-.686 1.5-.686s.75.686 1.5.686.75-.686 1.5-.686.75.686 1.5.686.75-.686 1.5-.686.75.686 1.5.686.75-.686 1.5-.686.75.686 1.5.686.75-.686 1.5-.686.75.686 1.5.686c.694 0 .746-.587 1.344-.675.074-.395.123-.799.144-1.21-.738.007-.742.685-1.488.685ZM15 11.81c-.75 0-.75.686-1.5.686s-.75-.686-1.5-.686-.75.686-1.5.686-.75-.686-1.5-.686-.75.686-1.5.686-.75-.686-1.5-.686-.75.686-1.5.686-.75-.686-1.5-.686-.75.686-1.5.686c-.536 0-.69-.35-1.006-.55.21.61.486 1.19.817 1.733.057.01.12.017.189.017.75 0 .75-.686 1.5-.686s.75.686 1.5.686.75-.686 1.5-.686.75.686 1.5.686.75-.686 1.5-.686.75.686 1.5.686.75-.686 1.5-.686.75.686 1.5.686.75-.686 1.5-.686.75.686 1.5.686c.069 0 .132-.006.19-.017.33-.543.605-1.123.816-1.733-.317.2-.47.55-1.006.55-.75 0-.75-.686-1.5-.686Z"/>
    <path fill="#F0F0F0" d="m17.995 8.717.002.075-.002-.075ZM.002 8.792l.003-.075-.003.075ZM0 9Zm0 0c0 .164.005.327.013.489.737.008.742.685 1.487.685.75 0 .75-.686 1.5-.686s.75.686 1.5.686.75-.686 1.5-.686.75.686 1.5.686.75-.686 1.5-.686.75.686 1.5.686.75-.686 1.5-.686.75.686 1.5.686.75-.686 1.5-.686.75.686 1.5.686c.745 0 .75-.677 1.487-.685A9.91 9.91 0 0 0 18 9H0Zm17.998-.208Z"/>
    <path fill="#0052B4" d="M15 14.158c-.75 0-.75.686-1.5.686s-.75-.686-1.5-.686-.75.686-1.5.686-.75-.686-1.5-.686-.75.686-1.5.686-.75-.686-1.5-.686-.75.686-1.5.686-.75-.686-1.5-.686c-.518 0-.678.327-.975.53a9.038 9.038 0 0 0 2.888 2.332L9 16.814l4.087.206a9.04 9.04 0 0 0 2.888-2.333c-.297-.202-.457-.53-.975-.53Z"/>
    <path fill="#FFDA44" d="m13.991 14.372-2.737.524-.347-2.766L9 14.164 7.093 12.13l-.347 2.766-2.738-.524 1.343 2.442-.439.206A8.96 8.96 0 0 0 9 18c1.472 0 2.86-.353 4.087-.98l-.438-.206 1.342-2.442Z"/>
  </g>
  <defs>
    <clipPath id="a">
      <path fill="#fff" d="M0 0h18v18H0z"/>
    </clipPath>
  </defs>
</svg>
