<svg xmlns="http://www.w3.org/2000/svg" width="18" height="18" fill="none" viewBox="0 0 18 18">
  <g clip-path="url(#a)">
    <path fill="#F0F0F0" d="M9 17.999A8.999 8.999 0 1 0 9 0a8.999 8.999 0 0 0 0 18Z"/>
    <path fill="#000" d="M1.207 4.5a9.005 9.005 0 0 0-.905 2.19l15.049 8.688a9.008 9.008 0 0 0 1.442-1.878L1.207 4.501Z"/>
    <path fill="#FFDA44" d="M13.5 1.207A9 9 0 0 0 2.65 2.623l15.048 8.688A9.002 9.002 0 0 0 13.5 1.207Zm-9 15.586a9 9 0 0 0 10.85-1.416L.303 6.69A8.998 8.998 0 0 0 4.5 16.793Z"/>
    <path fill="#D80027" d="M11.543 8.022a2.543 2.543 0 1 1-4.78-1.21 3.13 3.13 0 1 0 4.475 0c.194.36.305.772.305 1.21Z"/>
    <path fill="#D80027" d="M8.413 5.088h1.174v5.868H8.413V5.088Z"/>
    <path fill="#D80027" d="M10.956 6.261H7.044c0 .27.235.49.505.49h-.016c0 .27.219.488.489.488 0 .27.219.49.489.49h.978a.49.49 0 0 0 .49-.49.49.49 0 0 0 .488-.489h-.016c.27 0 .505-.219.505-.489Zm-4.695 5.087h5.478v1.173H6.26v-1.174Z"/>
    <path fill="#D80027" d="M10.174 11.739h2.347v1.173h-2.347V11.74Zm-4.695 0h2.347v1.173H5.48V11.74Z"/>
  </g>
  <defs>
    <clipPath id="a">
      <path fill="#fff" d="M0 0h18v18H0z"/>
    </clipPath>
  </defs>
</svg>
