<svg xmlns="http://www.w3.org/2000/svg" width="18" height="18" fill="none" viewBox="0 0 18 18">
  <g clip-path="url(#a)">
    <path fill="#F0F0F0" d="M9 18A9 9 0 1 0 9 0a9 9 0 0 0 0 18Z"/>
    <path fill="#D80027" d="M14.48 1.86a9.004 9.004 0 0 0-10.96 0L9 7.34l5.48-5.48ZM9 10.66l-5.48 5.48a9.005 9.005 0 0 0 10.96 0L9 10.66Z"/>
    <path fill="#6DA544" d="M7.34 9 1.86 3.52a9.004 9.004 0 0 0 0 10.96L7.34 9Zm3.32 0 5.48 5.48a9.005 9.005 0 0 0 0-10.96L10.66 9Z"/>
    <path fill="#F0F0F0" d="M9 12.913a3.913 3.913 0 1 0 0-7.826 3.913 3.913 0 0 0 0 7.826Z"/>
    <path fill="#D80027" d="m9 6.26.339.588h.678l-.34.587.34.587h-.678L9 8.609l-.339-.587h-.678l.34-.587-.34-.587h.678L9 6.26ZM7.277 9l.34.587h.677l-.339.587.339.587h-.678l-.339.587-.339-.587h-.677l.339-.587-.34-.587h.678L7.278 9Zm3.445 0 .34.587h.677l-.339.587.339.587h-.678l-.339.587-.339-.587h-.677l.338-.587-.338-.587h.677l.34-.587Z"/>
  </g>
  <defs>
    <clipPath id="a">
      <path fill="#fff" d="M0 0h18v18H0z"/>
    </clipPath>
  </defs>
</svg>
