<svg xmlns="http://www.w3.org/2000/svg" width="18" height="18" fill="none" viewBox="0 0 18 18">
  <g clip-path="url(#a)">
    <path fill="#D80027" d="M0 9a8.96 8.96 0 0 0 1.094 4.304L9 14.087l7.906-.783A8.96 8.96 0 0 0 18 9a8.96 8.96 0 0 0-1.094-4.304L9 3.913l-7.906.783A8.96 8.96 0 0 0 0 9Z"/>
    <path fill="#0052B4" d="M1.094 4.696h15.812A8.998 8.998 0 0 0 9 0a8.998 8.998 0 0 0-7.906 4.696ZM9 18a8.998 8.998 0 0 0 7.906-4.696H1.094A8.998 8.998 0 0 0 9 18Z"/>
    <path fill="#F0F0F0" d="M12.13 10.76V9.588h-.782V8.022l-.783-.783-.782.783V6.457L9 5.674l-.783.783v1.565l-.782-.783-.783.783v1.565H5.87v1.174h-.783v1.174h7.826V10.76h-.783Z"/>
  </g>
  <defs>
    <clipPath id="a">
      <path fill="#fff" d="M0 0h18v18H0z"/>
    </clipPath>
  </defs>
</svg>
