<svg xmlns="http://www.w3.org/2000/svg" width="18" height="18" fill="none" viewBox="0 0 18 18">
  <g clip-path="url(#a)">
    <path fill="#F0F0F0" d="M9 18A9 9 0 1 0 9 0a9 9 0 0 0 0 18Z"/>
    <path fill="#0052B4" d="M9 18a8.98 8.98 0 0 0 6.822-3.13H2.177A8.98 8.98 0 0 0 9 18Zm9-9A9 9 0 1 0 .31 11.348h17.38c.202-.749.31-1.536.31-2.348Z"/>
    <path fill="#D80027" d="M.715 12.522c.174.407.377.8.606 1.174h15.358a8.98 8.98 0 0 0 .606-1.174H.715Z"/>
    <path fill="#FFDA44" d="m6.433 9.587.146.448h.471l-.38.277.145.449-.382-.277-.381.277.146-.449-.382-.277h.472l.145-.448Zm0 5.869.146.449h.471l-.38.277.145.448-.382-.277-.381.277.146-.448-.382-.277h.472l.145-.449Zm-2.732-1.985.146.449h.471l-.381.277.146.448-.382-.277-.381.277.145-.448-.381-.277h.471l.146-.449Zm1.044-3.297.145.448h.472l-.382.277.146.449-.381-.277-.382.277.146-.449-.382-.277H4.6l.146-.448ZM3.084 12.02h.471l.146-.448.146.448h.471l-.381.277.146.449-.382-.277-.381.277.145-.449-.381-.277Zm1.279 3.938.146-.449-.382-.277H4.6l.146-.448.145.448h.472l-.382.277.146.449-.381-.277-.382.277Zm4.802-2.487-.146.449h-.472l.382.277-.146.448.382-.277.38.277-.145-.448.382-.277H9.31l-.146-.449ZM8.12 10.174l-.145.448h-.471l.381.277-.146.449.382-.277.381.277-.145-.449.381-.277h-.472l-.145-.448Zm1.662 1.846H9.31l-.145-.448-.146.448h-.472l.382.277-.146.449.382-.277.38.277-.145-.449.382-.277Zm-1.28 3.938-.145-.449.381-.277h-.471l-.146-.448-.146.448h-.471l.381.277-.146.449.382-.277.381.277Z"/>
  </g>
  <defs>
    <clipPath id="a">
      <path fill="#fff" d="M0 0h18v18H0z"/>
    </clipPath>
  </defs>
</svg>
