<svg xmlns="http://www.w3.org/2000/svg" width="18" height="18" fill="none" viewBox="0 0 18 18">
  <g clip-path="url(#a)">
    <path fill="#F0F0F0" d="M9 18A9 9 0 1 0 9 0a9 9 0 0 0 0 18Z"/>
    <path fill="#0052B4" d="M16.906 4.696A9.02 9.02 0 0 0 11.348.31l-.392 4.386h5.95Zm-15.812 0h5.95L6.651.31a9.02 9.02 0 0 0-5.558 4.386Z"/>
    <path fill="#6DA544" d="M10.957 9v4.304h5.949A8.96 8.96 0 0 0 18 9h-7.043ZM7.043 9H0a8.96 8.96 0 0 0 1.094 4.304h5.95V9Z"/>
    <path fill="#FFDA44" d="M1.094 13.304a9.02 9.02 0 0 0 5.558 4.386l.391-3.835-5.949-.55Zm10.254 4.386a9.02 9.02 0 0 0 5.558-4.386l-5.95.55.392 3.836Z"/>
    <path fill="#FFDA44" d="m10.957 13.854 5.949-.55h-5.95v.55Zm-3.914-.55H1.094l5.95.55v-.55Z"/>
    <path fill="#D80027" d="M9 0a9 9 0 0 0-2.348.31v17.38a9.012 9.012 0 0 0 4.696 0V.31A9.01 9.01 0 0 0 9 0Z"/>
    <path fill="#FFDA44" d="m4.841 1.957.243.747h.786l-.636.462.243.747-.636-.462-.636.462.243-.747-.636-.462h.786l.243-.747Z"/>
  </g>
  <defs>
    <clipPath id="a">
      <path fill="#fff" d="M0 0h18v18H0z"/>
    </clipPath>
  </defs>
</svg>
