<svg xmlns="http://www.w3.org/2000/svg" width="18" height="18" fill="none" viewBox="0 0 18 18">
  <g clip-path="url(#a)">
    <path fill="#F0F0F0" d="M9 18A9 9 0 1 0 9 0a9 9 0 0 0 0 18Z"/>
    <path fill="#000" d="M9 0a8.972 8.972 0 0 0-6.364 2.636L9 9V0ZM0 9a8.972 8.972 0 0 0 2.636 6.364L9 9H0Zm9 9a8.972 8.972 0 0 0 6.364-2.636L9 9v9Zm9-9a8.972 8.972 0 0 0-2.636-6.364L9 9h9Z"/>
    <path fill="#FFDA44" d="M5.87 6.26 9 6.653l3.13-.391V4.383l-1.252.626L9 3.13 7.122 5.01 5.87 4.383V6.26Z"/>
    <path fill="#D80027" d="M9 13.696a3.134 3.134 0 0 1-3.13-3.13V7.434L7.044 6.26h3.913l1.173 1.174v3.13A3.134 3.134 0 0 1 9 13.695Z"/>
    <path fill="#F0F0F0" d="M9 12.522a1.959 1.959 0 0 1-1.957-1.957v-3.13h3.913v3.13A1.959 1.959 0 0 1 9 12.522Z"/>
    <path fill="#FFDA44" d="M5.87 6.26h1.174v1.175H5.87V6.26Zm5.087 0h1.173v1.175h-1.174V6.26Zm0 2.544h1.173v1.174h-1.174V8.804Zm-5.087 0h1.174v1.174H5.87V8.804ZM9 12.522c-.204 0-.402-.032-.587-.09v1.208a3.128 3.128 0 0 0 1.174 0v-1.208a1.95 1.95 0 0 1-.587.09Zm-1.93-1.639-.937.937c.162.37.394.702.679.98l.83-.829a1.953 1.953 0 0 1-.572-1.088Zm4.797.937-.937-.937c-.07.424-.275.802-.571 1.088l.83.83c.284-.279.516-.611.678-.981Z"/>
    <path fill="#0052B4" d="M8.609 8.087v.652a.391.391 0 0 0 .782 0v-.652H8.61Zm0 2.609v.652a.391.391 0 0 0 .782 0v-.652H8.61Zm1.174-1.305v.653a.391.391 0 0 0 .782 0V9.39h-.782Zm-1.174 0v.653a.391.391 0 0 0 .782 0V9.39H8.61Zm-1.174 0v.653a.391.391 0 0 0 .782 0V9.39h-.782Z"/>
  </g>
  <defs>
    <clipPath id="a">
      <path fill="#fff" d="M0 0h18v18H0z"/>
    </clipPath>
  </defs>
</svg>
