<svg xmlns="http://www.w3.org/2000/svg" width="18" height="18" fill="none" viewBox="0 0 18 18">
  <g clip-path="url(#a)">
    <path fill="#FFDA44" d="M9 0a8.98 8.98 0 0 0-3.13.56L5.478 9l.392 8.44A8.98 8.98 0 0 0 9 18a8.98 8.98 0 0 0 3.13-.56L12.522 9 12.13.56A8.981 8.981 0 0 0 9 0Z"/>
    <path fill="#D80027" d="M18 9A9.003 9.003 0 0 0 12.13.56v16.88A9.003 9.003 0 0 0 18 9Z"/>
    <path fill="#0052B4" d="M5.87 17.44V.56a9.003 9.003 0 0 0 0 16.88Z"/>
  </g>
  <defs>
    <clipPath id="a">
      <path fill="#fff" d="M0 0h18v18H0z"/>
    </clipPath>
  </defs>
</svg>
