<svg xmlns="http://www.w3.org/2000/svg" width="18" height="18" fill="none" viewBox="0 0 18 18">
  <g clip-path="url(#a)">
    <path fill="#6DA544" d="M9 18A9 9 0 1 0 9 0a9 9 0 0 0 0 18Z"/>
    <path fill="#FFDA44" d="m13.816 12.913.247.517.558-.13-.25.516.448.355-.558.126.002.573-.447-.358-.447.358.002-.573-.559-.126.449-.355-.25-.515.558.129.247-.517Zm-2.298-5.478.247.516.558-.129-.25.515.449.356-.558.126.001.572-.447-.358-.446.358.002-.572-.559-.126.449-.356-.25-.515.558.13.246-.517Zm2.298-3.131.247.517.558-.13-.25.516.448.356-.558.125.001.573-.446-.358-.447.358.002-.573-.559-.125.449-.356-.25-.515.558.129.247-.517Zm2.007 2.348.247.517.558-.13-.25.516.448.355-.558.126.001.573-.446-.358-.447.358.002-.573-.559-.126.449-.355-.25-.515.558.129.247-.517Zm-1.435 2.739.194.598h.629l-.509.37.194.598-.508-.37-.509.37.194-.598-.508-.37h.629l.194-.598Z"/>
    <path fill="#FFDA44" d="M9.978 11.543a2.543 2.543 0 1 1 1.21-4.78 3.13 3.13 0 1 0 0 4.476c-.36.194-.772.304-1.21.304ZM5.66 3.522a1.564 1.564 0 0 0-2.71 0h2.71Zm.005.008-1.36 1.361-1.361-1.36a1.565 1.565 0 1 0 2.721 0Z"/>
    <path fill="#A2001D" d="M3.913 4.5v1.32a1.569 1.569 0 0 0 .783 0V4.5h-.783Z"/>
  </g>
  <defs>
    <clipPath id="a">
      <path fill="#fff" d="M0 0h18v18H0z"/>
    </clipPath>
  </defs>
</svg>
