<svg xmlns="http://www.w3.org/2000/svg" width="18" height="18" fill="none" viewBox="0 0 18 18">
  <g clip-path="url(#a)">
    <path fill="#F0F0F0" d="M9 18A9 9 0 1 0 9 0a9 9 0 0 0 0 18Z"/>
    <path fill="#D80027" d="M18 8.974H8.244c-1.937 1.937-3.109 3.432-4.305 4.628l5.087.459 7.894-.783A8.96 8.96 0 0 0 18 9v-.026Z"/>
    <path fill="#FFDA44" d="M3.939 4.67h12.952A8.997 8.997 0 0 0 9 0a8.97 8.97 0 0 0-6.35 2.623L3.938 4.67Z"/>
    <path fill="#0052B4" d="M4.33 13.278c-.809.81-1.121 1.487-1.707 2.073A8.971 8.971 0 0 0 9 18a8.998 8.998 0 0 0 7.92-4.723H4.33Z"/>
    <path fill="#6DA544" d="M2.636 2.61a9 9 0 0 0 0 12.728L9 8.974 2.636 2.61Z"/>
    <path fill="#F0F0F0" d="M2.374 8.974a2.74 2.74 0 0 1 2.152-2.675 2.74 2.74 0 1 0 0 5.35 2.74 2.74 0 0 1-2.152-2.675Z"/>
    <path fill="#F0F0F0" d="m4.496 6.626.146.448h.471l-.381.278.145.448-.381-.277-.382.277.146-.448-.381-.278h.471l.146-.448Z"/>
    <path fill="#F0F0F0" d="m4.496 7.8.146.448h.471l-.381.278.145.448-.381-.277-.382.277.146-.448-.381-.278h.471l.146-.448Zm0 1.174.146.448h.471l-.381.278.145.448-.381-.277-.382.277.146-.448-.381-.278h.471l.146-.448Z"/>
    <path fill="#F0F0F0" d="m4.496 10.148.146.448h.471l-.381.277.145.449-.381-.277-.382.277.146-.448-.381-.278h.471l.146-.448Z"/>
  </g>
  <defs>
    <clipPath id="a">
      <path fill="#fff" d="M0 0h18v18H0z"/>
    </clipPath>
  </defs>
</svg>
