<svg xmlns="http://www.w3.org/2000/svg" width="18" height="18" fill="none" viewBox="0 0 18 18">
  <g clip-path="url(#a)">
    <path fill="#0052B4" d="M18 9A9 9 0 0 1 0 9c0 .002 9-8.999 9-9a9 9 0 0 1 9 9Z"/>
    <path fill="#F0F0F0" d="M8.976 9H9v-.024A6.834 6.834 0 0 1 8.976 9ZM9 4.696V0h-.002A9 9 0 0 0 0 9h4.696V6.356L7.34 9h1.636L9 8.976V7.34L6.356 4.696H9Z"/>
    <path fill="#D80027" d="M4.553 1.174a9.043 9.043 0 0 0-3.38 3.38V9h2.349V3.522H9V1.174H4.553Z"/>
    <path fill="#D80027" d="M9 7.893 5.802 4.696H4.696L9 9V7.893Z"/>
    <path fill="#F0F0F0" d="m12.13 9 .167.512h.539l-.436.317.166.513-.436-.317-.436.317.167-.513-.436-.317h.539L12.13 9Zm-2.213.917.48.245.381-.381-.084.532.48.244-.532.085-.085.532-.244-.48-.532.084.38-.381-.244-.48ZM9 12.13l.512-.166v-.539l.317.436.513-.167-.317.436.317.436-.513-.166-.316.436v-.539L9 12.13Zm.917 2.214.245-.48-.381-.381.532.084.244-.48.085.532.532.085-.48.244.084.532-.381-.38-.48.244Zm2.213.916-.166-.512h-.539l.436-.316-.167-.513.436.317.436-.317-.166.513.436.316h-.54l-.166.513Zm2.214-.916-.48-.245-.381.381.084-.532-.48-.245.532-.084.085-.532.244.48.532-.084-.38.38.244.48Zm.916-2.214-.512.167v.539l-.316-.436-.513.166.317-.436-.317-.436.513.167.316-.436v.539l.513.166Zm-.916-2.213-.244.48.38.381-.532-.084-.244.48-.085-.532-.532-.085.48-.244-.084-.532.381.38.48-.244Z"/>
  </g>
  <defs>
    <clipPath id="a">
      <path fill="#fff" d="M0 0h18v18H0z"/>
    </clipPath>
  </defs>
</svg>
