<svg xmlns="http://www.w3.org/2000/svg" width="18" height="18" fill="none" viewBox="0 0 18 18">
  <g clip-path="url(#a)">
    <path fill="#FCFCFC" d="M9 18A9 9 0 1 0 9 0a9 9 0 0 0 0 18Z"/>
    <path fill="#000" d="M12.134 7.623a3.447 3.447 0 0 0-6.596-1.4l-.425 1.54.391.392-.782 1.565.782.391-.391.392v.39l.391.392v.783l.392.391 1.173-.391s0 .391.392.782c.391.392.782 1.174.782 1.174s1.174.392 1.957-.782c.783-1.174 1.565-1.566 1.565-1.566l-.754-1.508a3.437 3.437 0 0 0 1.123-2.545Z"/>
    <path fill="#ACABB1" d="M12.415 8.941c1.59-.268 1.854-3.382 1.854-3.382h-2.19c1.134 2.74-.054 2.924-.054 2.924-.16-.12-5.92-2.848-6.102-2.917-.044.058-.206.213-.402.694-.197.482-.246.915-.246.915.093.06 6.208 2.195 6.37 2.213.32.21.715.837.495 2.697l2.109-.595s-.716-1.904-1.835-2.549Z"/>
  </g>
  <defs>
    <clipPath id="a">
      <path fill="#fff" d="M0 0h18v18H0z"/>
    </clipPath>
  </defs>
</svg>
