<svg xmlns="http://www.w3.org/2000/svg" width="18" height="18" fill="none" viewBox="0 0 18 18">
  <g clip-path="url(#a)">
    <path fill="#F0F0F0" d="M18 9a8.98 8.98 0 0 0-.56-3.13L9 5.478.56 5.87A8.98 8.98 0 0 0 0 9c0 1.1.198 2.155.56 3.13l8.44.392 8.44-.392A8.98 8.98 0 0 0 18 9Z"/>
    <path fill="#0052B4" d="M9 18a9.003 9.003 0 0 0 8.44-5.87H.56A9.003 9.003 0 0 0 9 18Z"/>
    <path fill="#D80027" d="M.56 5.87h16.88a9.003 9.003 0 0 0-16.88 0Z"/>
    <path fill="#338AF3" d="M11.348 6.26H9.783l.26-1.956 1.044-.782 1.043.782V5.87l-.782.39Zm-4.696 0h1.565l-.26-1.956-1.044-.782-1.043.782V5.87l.782.39Z"/>
    <path fill="#0052B4" d="M10.044 6.26H7.957V4.305L9 3.522l1.044.782v1.957Z"/>
    <path fill="#F0F0F0" d="M5.87 5.87v4.304a3.13 3.13 0 0 0 1.258 2.508l.548-.137.691.695a3.133 3.133 0 0 0 1.262 0l.79-.656.453.096a3.126 3.126 0 0 0 1.258-2.506V5.87H5.87Z"/>
    <path fill="#D80027" d="M5.87 5.87h1.252v1.252H5.87V5.87Zm2.504 0h1.252v1.252H8.374V5.87Zm2.504 0h1.253v1.252h-1.253V5.87ZM7.122 7.122h1.252v1.252H7.122V7.122Zm2.504 0h1.252v1.252H9.626V7.122ZM5.87 8.374h1.252v1.252H5.87V8.374Zm1.252 1.252h1.252v1.252H7.122V9.626Zm1.252-1.252h1.252v1.252H8.374V8.374Zm2.504 0h1.253v1.252h-1.253V8.374Z"/>
    <path fill="#D80027" d="M9.626 9.626h1.252v1.252H9.626V9.626Zm-1.252 1.252h1.252v1.252H8.374v-1.252Zm-1.252 0H5.95c.108.466.32.891.609 1.252h.563v-1.252Zm3.756 1.252h.563c.29-.36.501-.787.609-1.252h-1.172v1.252Zm-3.756 0v.547c.364.274.79.47 1.252.564v-1.11H7.122Zm2.504 0v1.111c.463-.094.888-.29 1.252-.564v-.547H9.626Z"/>
  </g>
  <defs>
    <clipPath id="a">
      <path fill="#fff" d="M0 0h18v18H0z"/>
    </clipPath>
  </defs>
</svg>
