<svg xmlns="http://www.w3.org/2000/svg" width="18" height="18" fill="none" viewBox="0 0 18 18">
  <g clip-path="url(#a)">
    <path fill="#F0F0F0" d="M9 18A9 9 0 1 0 9 0a9 9 0 0 0 0 18Z"/>
    <path fill="#0052B4" d="M9 0a8.986 8.986 0 0 0-7.2 3.6h14.4A8.986 8.986 0 0 0 9 0Zm0 18a8.986 8.986 0 0 0 7.2-3.6H1.8A8.986 8.986 0 0 0 9 18ZM0 9c0 .617.062 1.219.18 1.8h17.64a9.038 9.038 0 0 0 0-3.6H.18A9.039 9.039 0 0 0 0 9Z"/>
    <path fill="#D80027" d="M2.636 2.636a9 9 0 0 0 0 12.728L9 9 2.636 2.636Z"/>
    <path fill="#F0F0F0" d="m3.642 6.652.583 1.794h1.886L4.585 9.554l.583 1.794-1.526-1.109-1.525 1.109.583-1.794-1.526-1.108H3.06l.582-1.794Z"/>
  </g>
  <defs>
    <clipPath id="a">
      <path fill="#fff" d="M0 0h18v18H0z"/>
    </clipPath>
  </defs>
</svg>
