<svg xmlns="http://www.w3.org/2000/svg" width="18" height="18" fill="none" viewBox="0 0 18 18">
  <g clip-path="url(#a)">
    <path fill="#FFDA44" d="M9 18A9 9 0 1 0 9 0a9 9 0 0 0 0 18Z"/>
    <path fill="#0052B4" d="M9 18a8.986 8.986 0 0 0 7.215-3.62H1.785A8.987 8.987 0 0 0 9 18Zm9-9A9 9 0 1 0 .524 12.033h16.952A8.99 8.99 0 0 0 18 9Z"/>
    <path fill="#F0F0F0" d="m6.16 5.772.486 1.495h1.571l-1.271.923.486 1.495-1.272-.924-1.271.924.485-1.495-1.271-.923h1.572l.485-1.495ZM3.461 4.207l.292.897h.943l-.763.554.291.897L3.461 6l-.763.555.292-.897-.763-.554h.943l.291-.897Z"/>
  </g>
  <defs>
    <clipPath id="a">
      <path fill="#fff" d="M0 0h18v18H0z"/>
    </clipPath>
  </defs>
</svg>
