<svg xmlns="http://www.w3.org/2000/svg" width="18" height="18" fill="none" viewBox="0 0 18 18">
  <g clip-path="url(#a)">
    <path fill="#FCFCFC" d="M9 18A9 9 0 1 0 9 0a9 9 0 0 0 0 18Z"/>
    <path fill="#6DA544" d="M14.087 7.826h-1.174a3.913 3.913 0 0 1-7.826 0H3.913a5.09 5.09 0 0 0 3.698 4.895 1.302 1.302 0 0 0 .136 1.421l1.28-1.025 1.278 1.025c.338-.42.371-.988.13-1.434a5.089 5.089 0 0 0 3.652-4.882Z"/>
    <path fill="#FFDA44" d="M5.87 7.435s0 1.956 1.956 1.956l.391.392H9s.391-1.174 1.174-1.174c0 0 0-.783.783-.783h1.173s-.39-1.565 1.566-2.739l-.783-.391s-2.74 1.956-4.696 1.565v.783h-.782l-.391-.392-1.174.783Z"/>
  </g>
  <defs>
    <clipPath id="a">
      <path fill="#fff" d="M0 0h18v18H0z"/>
    </clipPath>
  </defs>
</svg>
