<svg xmlns="http://www.w3.org/2000/svg" width="18" height="18" fill="none" viewBox="0 0 18 18">
  <g clip-path="url(#a)">
    <path fill="#FFDA44" d="M17 4.873a8.993 8.993 0 0 0-1.636-2.237A8.995 8.995 0 0 0 13.127.999l-6.34 5.787L1 13.126a8.993 8.993 0 0 0 1.636 2.238 8.996 8.996 0 0 0 2.237 1.637l6.34-5.787 5.788-6.34Z"/>
    <path fill="#D80027" d="M2.636 15.364c.377.378.78.714 1.203 1.011L16.375 3.839a9.047 9.047 0 0 0-2.214-2.214L1.625 14.161a9.07 9.07 0 0 0 1.01 1.203Z"/>
    <path fill="#338AF3" d="M2.636 2.636a9.004 9.004 0 0 0-1.637 10.49L13.127 1A9.004 9.004 0 0 0 2.636 2.636Zm12.728 12.728a9.004 9.004 0 0 0 1.637-10.49L4.873 17a9.004 9.004 0 0 0 10.491-1.637Z"/>
    <path fill="#FFDA44" d="m4.796 2.739.486 1.495h1.571l-1.271.923.486 1.495-1.272-.924-1.271.924.485-1.495-1.271-.923H4.31l.486-1.495Z"/>
  </g>
  <defs>
    <clipPath id="a">
      <path fill="#fff" d="M0 0h18v18H0z"/>
    </clipPath>
  </defs>
</svg>
