<svg xmlns="http://www.w3.org/2000/svg" width="18" height="18" fill="none" viewBox="0 0 18 18">
  <g clip-path="url(#a)">
    <path fill="#338AF3" d="M8.217 9.783S2.641 2.635 2.636 2.636A9 9 0 0 1 18 9l-9.783.783Z"/>
    <path fill="#6DA544" d="M8.217 9s-5.576 6.365-5.581 6.364A9 9 0 0 0 18 9H8.217Z"/>
    <path fill="#F0F0F0" d="M2.636 2.636a9 9 0 0 0 0 12.728L9 9 2.636 2.636Z"/>
    <path fill="#D80027" d="m3.642 6.652.583 1.794h1.886L4.585 9.554l.583 1.794-1.526-1.109-1.525 1.109.583-1.794-1.526-1.108H3.06l.582-1.794Z"/>
  </g>
  <defs>
    <clipPath id="a">
      <path fill="#fff" d="M0 0h18v18H0z"/>
    </clipPath>
  </defs>
</svg>
