<svg xmlns="http://www.w3.org/2000/svg" width="18" height="18" fill="none" viewBox="0 0 18 18">
  <g clip-path="url(#a)">
    <path fill="#F0F0F0" d="M9 18A9 9 0 1 0 9 0a9 9 0 0 0 0 18Z"/>
    <path fill="#D80027" d="M.31 11.348a9.016 9.016 0 0 0 6.342 6.342v-6.342H.31Z"/>
    <path fill="#0052B4" d="M6.652.31A9.016 9.016 0 0 0 .31 6.652h6.342V.31Z"/>
    <path fill="#D80027" d="M17.69 6.652A9.016 9.016 0 0 0 11.348.31v6.342h6.342Z"/>
    <path fill="#0052B4" d="M11.348 17.69a9.016 9.016 0 0 0 6.342-6.342h-6.342v6.342Z"/>
    <path fill="#496E2D" d="M11.348 9a2.348 2.348 0 0 1-4.696 0C6.652 7.703 9 6.652 9 6.652S11.348 7.703 11.348 9Z"/>
    <path fill="#0052B4" d="M6.652 9a2.348 2.348 0 1 1 4.696 0"/>
    <path fill="#D80027" d="M7.68 7.826v1.467a1.32 1.32 0 1 0 2.64 0V7.826H7.68Z"/>
  </g>
  <defs>
    <clipPath id="a">
      <path fill="#fff" d="M0 0h18v18H0z"/>
    </clipPath>
  </defs>
</svg>
