<svg xmlns="http://www.w3.org/2000/svg" width="18" height="18" fill="none" viewBox="0 0 18 18">
  <g clip-path="url(#a)">
    <path fill="#F0F0F0" d="M9 18A9 9 0 1 0 9 0a9 9 0 0 0 0 18Z"/>
    <path fill="#496E2D" d="M10.76 17.827a9.01 9.01 0 0 0 7.067-7.066h-7.066v7.066ZM.173 10.76a9.01 9.01 0 0 0 7.066 7.067v-7.066H.173Zm17.654-3.52A9.01 9.01 0 0 0 10.761.172v7.066h7.066ZM7.239.173A9.01 9.01 0 0 0 .173 7.239h7.066V.173Z"/>
    <path fill="#FFDA44" d="M8.413 10.76H7.239v7.067c.383.076.775.128 1.174.153v-7.22Zm0-3.52V.02c-.399.025-.79.077-1.174.153v7.066h1.174Z"/>
    <path fill="#000" d="M9.587.02a9.092 9.092 0 0 0-1.174 0v7.22h1.174V.02ZM8.413 17.98a9.057 9.057 0 0 0 1.174 0v-7.22H8.413v7.22Z"/>
    <path fill="#FFDA44" d="M7.24 8.413V7.239H.172A9 9 0 0 0 .02 8.413h7.22Zm3.52 0h7.22a8.99 8.99 0 0 0-.153-1.174h-7.066v1.174Z"/>
    <path fill="#000" d="M10.761 9.587h7.22a9.128 9.128 0 0 0 0-1.174h-7.22v1.174ZM.02 8.413a9.116 9.116 0 0 0 0 1.174h7.22V8.413H.02Z"/>
    <path fill="#D80027" d="M9 13.304a4.304 4.304 0 1 0 0-8.608 4.304 4.304 0 0 0 0 8.608Z"/>
    <path fill="#496E2D" d="M9.98 9.48c-.32-.64-.736-1.29-.736-1.29s.01-.295.01-.47a.48.48 0 0 0-.958-.042.379.379 0 0 0-.15.713c.06-.14.178-.25.324-.3a.57.57 0 0 0 .077.051l.061.03s-.228.643-.228.988c0 .971.64 1.27.64 1.27v.01l-.32.32h.64v-.64l.32.32c.003-.005.607-.387.32-.96ZM9 5.478l.146.449h.471l-.381.277.145.448L9 6.375l-.382.277.146-.448-.381-.277h.471L9 5.478Zm-2.07.672.381.278.382-.277-.146.448.382.277h-.472l-.146.449-.145-.449h-.472l.382-.277-.146-.448ZM5.65 7.912h.472l.146-.449.145.449h.472l-.381.277.145.448-.381-.277-.382.277.146-.448-.381-.277Zm0 2.176.382-.277-.146-.448.382.277.381-.277-.145.448.381.277h-.472l-.145.449-.146-.449h-.471Zm1.28 1.762.146-.45-.382-.276h.472l.145-.449.146.449h.471l-.381.277.146.448-.382-.277-.381.277Zm2.07.672-.146-.449h-.471l.381-.277-.146-.448.382.277.381-.277-.145.448.381.277h-.471L9 12.522Zm2.07-.672-.381-.278-.382.277.146-.448-.381-.277h.471l.146-.449.145.449h.472l-.381.277.145.448Zm1.28-1.762h-.472l-.146.449-.146-.449h-.471l.381-.277-.145-.448.381.277.382-.277-.146.448.381.277Zm0-2.176-.382.277.146.448-.382-.277-.381.277.145-.448-.381-.277h.471l.146-.449.146.449h.471ZM11.07 6.15l-.146.45.382.276h-.472l-.145.449-.146-.449h-.471l.381-.277-.146-.448.382.277.381-.277Z"/>
  </g>
  <defs>
    <clipPath id="a">
      <path fill="#fff" d="M0 0h18v18H0z"/>
    </clipPath>
  </defs>
</svg>
