<svg xmlns="http://www.w3.org/2000/svg" width="18" height="18" fill="none" viewBox="0 0 18 18">
  <g clip-path="url(#a)">
    <path fill="#FFDA44" d="M0 9a9 9 0 0 1 18 0l-9 .783L0 9Z"/>
    <path fill="#D80027" d="M1.204 13.5A8.996 8.996 0 0 0 9 18c3.331 0 6.24-1.81 7.796-4.5L9 12.913l-7.796.587Z"/>
    <path fill="#0052B4" d="M16.796 13.5A8.958 8.958 0 0 0 18 9H0c0 1.64.439 3.176 1.204 4.5h15.592Z"/>
    <path fill="#FFDA44" d="M9 12.13a3.13 3.13 0 1 0 0-6.26 3.13 3.13 0 0 0 0 6.26Z"/>
    <path fill="#338AF3" d="M9 10.957A1.959 1.959 0 0 1 7.043 9V7.826c0-1.079.878-1.956 1.957-1.956 1.079 0 1.957.877 1.957 1.956V9A1.959 1.959 0 0 1 9 10.957Z"/>
    <path fill="#000" d="M12.13 4.304H9.784a.783.783 0 0 0-1.566 0H5.87c0 .433.376.783.808.783h-.026c0 .432.35.783.783.783 0 .432.35.782.782.782h1.566c.432 0 .782-.35.782-.782.433 0 .783-.35.783-.783h-.026c.432 0 .809-.35.809-.783Z"/>
  </g>
  <defs>
    <clipPath id="a">
      <path fill="#fff" d="M0 0h18v18H0z"/>
    </clipPath>
  </defs>
</svg>
