<svg xmlns="http://www.w3.org/2000/svg" width="18" height="18" fill="none" viewBox="0 0 18 18">
  <g clip-path="url(#a)">
    <path fill="#F0F0F0" d="M9 18A9 9 0 1 0 9 0a9 9 0 0 0 0 18Z"/>
    <path fill="#D80027" d="M9 0A9.003 9.003 0 0 0 .56 5.87h16.88A9.003 9.003 0 0 0 9 0Z"/>
    <path fill="#000" d="M9 18a9.003 9.003 0 0 0 8.44-5.87H.56A9.003 9.003 0 0 0 9 18Z"/>
    <path fill="#FF9811" d="M12.13 8.022H9.784a.783.783 0 0 0-1.566 0H5.87c0 .432.376.782.808.782h-.026c0 .433.35.783.783.783 0 .432.35.783.782.783h1.566c.432 0 .782-.35.782-.783.433 0 .783-.35.783-.783h-.026c.432 0 .809-.35.809-.782Z"/>
  </g>
  <defs>
    <clipPath id="a">
      <path fill="#fff" d="M0 0h18v18H0z"/>
    </clipPath>
  </defs>
</svg>
