<svg xmlns="http://www.w3.org/2000/svg" width="18" height="18" fill="none" viewBox="0 0 18 18">
  <g clip-path="url(#a)">
    <path fill="#F0F0F0" d="M9 18A9 9 0 1 0 9 0a9 9 0 0 0 0 18Z"/>
    <path fill="#6DA544" d="M5.478 5.87H17.44A9.003 9.003 0 0 0 2.636 2.636L5.478 5.87Z"/>
    <path fill="#D80027" d="M5.478 12.13H17.44a9.003 9.003 0 0 1-14.804 3.234l2.842-3.234Z"/>
    <path fill="#0052B4" d="M2.636 2.636a9 9 0 0 0 0 12.728L9 9 2.636 2.636Z"/>
    <path fill="#DEDDE0" d="M10.565 7.435V9.39c0 1.198 1.566 1.566 1.566 1.566s1.565-.368 1.565-1.566V7.435h-3.13Z"/>
    <path fill="#786145" d="M11.74 9.04h.782v1.134h-.783V9.039Z"/>
    <path fill="#6DA544" d="M12.913 8.609a.783.783 0 0 0-1.565 0 .391.391 0 0 0 0 .782h1.565a.391.391 0 0 0 0-.782Z"/>
  </g>
  <defs>
    <clipPath id="a">
      <path fill="#fff" d="M0 0h18v18H0z"/>
    </clipPath>
  </defs>
</svg>
