<svg xmlns="http://www.w3.org/2000/svg" width="18" height="18" fill="none" viewBox="0 0 18 18">
  <g clip-path="url(#a)">
    <path fill="#338AF3" d="M8.217 8.217s-5.576 7.148-5.581 7.147A9 9 0 0 0 18 9l-9.783-.783Z"/>
    <path fill="#6DA544" d="M8.217 9S2.641 2.635 2.636 2.636A9 9 0 0 1 18 9H8.217Z"/>
    <path fill="#D80027" d="M2.636 2.636a9 9 0 0 0 0 12.728L18 9 2.636 2.636Z"/>
    <path fill="#FFDA44" d="M4.696 5.283a3.134 3.134 0 0 0-3.13 3.13v1.174a3.134 3.134 0 0 0 3.13 3.13 3.134 3.134 0 0 0 3.13-3.13V8.413a3.134 3.134 0 0 0-3.13-3.13Zm1.956 4.304a1.96 1.96 0 0 1-1.37 1.866v-1.28l.831-.83-.83-.83v-.687H4.109V9l-.83.83.83.83v.793a1.96 1.96 0 0 1-1.37-1.866V8.413c0-1.079.878-1.956 1.957-1.956 1.078 0 1.956.877 1.956 1.956v1.174Z"/>
  </g>
  <defs>
    <clipPath id="a">
      <path fill="#fff" d="M0 0h18v18H0z"/>
    </clipPath>
  </defs>
</svg>
