<svg xmlns="http://www.w3.org/2000/svg" width="18" height="18" fill="none" viewBox="0 0 18 18">
  <g clip-path="url(#a)">
    <path fill="#FFDA44" d="M0 9c0 1.1.198 2.155.56 3.13l8.44.783 8.44-.783A8.98 8.98 0 0 0 18 9a8.981 8.981 0 0 0-.545-3.09L9 5.087.545 5.91A8.982 8.982 0 0 0 0 9Z"/>
    <path fill="#D80027" d="M9 18a9.003 9.003 0 0 0 8.44-5.87H.56A9.003 9.003 0 0 0 9 18Z"/>
    <path fill="#6DA544" d="M9 0A9.003 9.003 0 0 0 .56 5.87h16.88A9.003 9.003 0 0 0 9 0Z"/>
    <path fill="#0052B4" d="M9 13.304a4.304 4.304 0 1 0 0-8.608 4.304 4.304 0 0 0 0 8.608Z"/>
    <path fill="#FFDA44" d="m8.999 5.667.777 2.391h2.518l-2.038 1.478.783 2.399L9 10.45l-2.037 1.482.78-2.396-2.037-1.478h2.517L9 5.667Z"/>
    <path fill="#FFDA44" d="m12.098 9.595-2.465-.8 1.524-2.098-.634-.46L9 8.334 7.477 6.237l-.634.46 1.524 2.097-2.465.801.242.744 2.465-.8v2.591h.782V9.54l2.465.8.242-.744Z"/>
  </g>
  <defs>
    <clipPath id="a">
      <path fill="#fff" d="M0 0h18v18H0z"/>
    </clipPath>
  </defs>
</svg>
