<svg xmlns="http://www.w3.org/2000/svg" width="18" height="18" fill="none" viewBox="0 0 18 18">
  <g clip-path="url(#a)">
    <path fill="#0052B4" d="M9 18A9 9 0 1 0 9 0a9 9 0 0 0 0 18Z"/>
    <path fill="#FFDA44" d="m9 3.522.291.897h.943l-.763.554.292.897L9 5.315l-.763.555.291-.897-.762-.554h.943L9 3.522ZM5.126 5.126l.84.428.667-.666-.147.93.84.429-.931.147-.148.932-.428-.84-.931.147.666-.667-.428-.84ZM3.522 9l.897-.291v-.943l.554.763.897-.292L5.315 9l.555.763-.897-.292-.554.763v-.943L3.522 9Zm1.604 3.874.428-.84-.666-.667.931.147.428-.84.148.931.93.148-.84.428.148.931-.666-.666-.84.428ZM9 14.478l-.291-.896h-.943l.763-.555-.292-.896.763.554.763-.555-.292.897.763.555h-.943L9 14.478Zm3.874-1.604-.84-.428-.667.666.147-.931-.84-.428.931-.148.148-.93.428.84.931-.148-.667.666.429.84ZM14.478 9l-.897.291v.943l-.554-.763-.897.292.555-.763-.555-.763.897.292.554-.763v.943l.897.291Zm-1.604-3.874-.429.84.667.667-.931-.147-.428.84-.148-.931-.93-.148.84-.428-.148-.931.666.666.84-.428Z"/>
  </g>
  <defs>
    <clipPath id="a">
      <path fill="#fff" d="M0 0h18v18H0z"/>
    </clipPath>
  </defs>
</svg>
