<svg xmlns="http://www.w3.org/2000/svg" width="18" height="18" fill="none" viewBox="0 0 18 18">
  <g clip-path="url(#a)">
    <path fill="#0052B4" d="M18 9A9 9 0 0 1 0 9c0 .002 9-8.999 9-9a9 9 0 0 1 9 9Z"/>
    <path fill="#F0F0F0" d="M8.976 9H9v-.024A6.834 6.834 0 0 1 8.976 9ZM9 4.696V0h-.002A9 9 0 0 0 0 9h4.696V6.356L7.34 9h1.636L9 8.976V7.34L6.356 4.696H9Z"/>
    <path fill="#D80027" d="M4.553 1.174a9.043 9.043 0 0 0-3.38 3.38V9h2.349V3.522H9V1.174H4.553Z"/>
    <path fill="#D80027" d="M9 7.893 5.802 4.696H4.696L9 9V7.893Z"/>
    <path fill="#FFDA44" d="M14.478 10.565v.392h-3.13v-.392h-1.174v1.565h.782v.392h3.914v-.392h.782v-1.565h-1.174Z"/>
    <path fill="#338AF3" d="M10.174 4.696V9c0 2.097 2.739 2.74 2.739 2.74s2.74-.643 2.74-2.74V4.696h-5.48Z"/>
    <path fill="#F3F3F3" d="M12.913 7.906c-.685 0-.685.626-1.37.626-.684 0-.684-.626-1.37-.626v1.096c.686 0 .686.626 1.37.626.685 0 .685-.626 1.37-.626s.685.626 1.37.626c.684 0 .684-.626 1.37-.626V7.906c-.686 0-.686.626-1.37.626-.685 0-.685-.626-1.37-.626Zm0-2.193c-.685 0-.685.626-1.37.626-.684 0-.684-.626-1.37-.626v1.096c.686 0 .686.626 1.37.626.685 0 .685-.626 1.37-.626s.685.626 1.37.626c.684 0 .684-.626 1.37-.626V5.713c-.686 0-.686.626-1.37.626-.685 0-.685-.626-1.37-.626Z"/>
  </g>
  <defs>
    <clipPath id="a">
      <path fill="#fff" d="M0 0h18v18H0z"/>
    </clipPath>
  </defs>
</svg>
