<svg xmlns="http://www.w3.org/2000/svg" width="18" height="18" fill="none" viewBox="0 0 18 18">
  <g clip-path="url(#a)">
    <path fill="#F0F0F0" d="M9 18A9 9 0 1 0 9 0a9 9 0 0 0 0 18Z"/>
    <path fill="#0052B4" d="m17.609 9 .314-1.174a8.93 8.93 0 0 0-.233-1.174H8.217V.034c-.4.035-.791.095-1.174.18l-1.565.96-.783-.079a9.01 9.01 0 0 0-1.173.765v4.792H.31a8.99 8.99 0 0 0-.234 1.174L.391 9l-.315 1.174c.052.4.131.792.234 1.174h3.212v4.792c.37.284.762.54 1.173.765l1.174-.079 1.174.96c.383.085.775.145 1.174.18v-6.618h9.473a8.99 8.99 0 0 0 .233-1.174L17.61 9Z"/>
    <path fill="#D80027" d="M17.924 7.826H7.044V.214a8.939 8.939 0 0 0-2.348.88v6.732H.076a9.09 9.09 0 0 0 0 2.348h4.62v6.732a8.939 8.939 0 0 0 2.347.88v-7.612h10.88a9.095 9.095 0 0 0 0-2.348Z"/>
  </g>
  <defs>
    <clipPath id="a">
      <path fill="#fff" d="M0 0h18v18H0z"/>
    </clipPath>
  </defs>
</svg>
