<svg xmlns="http://www.w3.org/2000/svg" width="18" height="18" fill="none" viewBox="0 0 18 18">
  <g clip-path="url(#a)">
    <path fill="#338AF3" d="M18 9A9 9 0 0 1 0 9c0 .002 9-8.999 9-9a9 9 0 0 1 9 9Z"/>
    <path fill="#0052B4" d="M9 4.304V7.34L5.87 4.304H9ZM4.695 9H7.34L4.695 5.478l-.39 2.74.39.782Z"/>
    <path fill="#F0F0F0" d="M8.976 9H9v-.024A6.836 6.836 0 0 1 8.976 9ZM9 4.696V0h-.002A9 9 0 0 0 0 9h4.696V6.356L7.34 9h1.636L9 8.976V7.34L6.356 4.696H9Z"/>
    <path fill="#D80027" d="M4.553 1.174a9.043 9.043 0 0 0-3.38 3.38V9h2.349V3.522H9V1.174H4.553Z"/>
    <path fill="#D80027" d="M9 7.893 5.803 4.696H4.696L9 9V7.893Z"/>
    <path fill="#F3F3F3" d="M10.174 5.87V9c0 2.097 2.739 2.74 2.739 2.74s2.74-.643 2.74-2.74V5.87l-2.74-.783-2.74.783Z"/>
    <path fill="#D80027" d="M15.652 5.87V4.696h-5.478V5.87h2.348v2.347h-2.348V9h2.348v2.62c.236.083.391.12.391.12s.155-.037.391-.12V9h2.348v-.783h-2.348V5.87h2.348Z"/>
  </g>
  <defs>
    <clipPath id="a">
      <path fill="#fff" d="M0 0h18v18H0z"/>
    </clipPath>
  </defs>
</svg>
