<svg xmlns="http://www.w3.org/2000/svg" width="18" height="18" fill="none" viewBox="0 0 18 18">
  <g clip-path="url(#a)">
    <path fill="#F0F0F0" d="M9 18A9 9 0 1 0 9 0a9 9 0 0 0 0 18Z"/>
    <path fill="#D80027" d="M1.094 4.696h15.812A8.998 8.998 0 0 0 9 0a8.998 8.998 0 0 0-7.906 4.696ZM9 18a8.998 8.998 0 0 0 7.906-4.696H1.094A8.998 8.998 0 0 0 9 18Z"/>
    <path fill="#FFDA44" d="M12.13 9c0 1.729-1.401 2.74-3.13 2.74-1.729 0-3.13-1.011-3.13-2.74a3.13 3.13 0 1 1 6.26 0Z"/>
    <path fill="#0052B4" d="M12.13 9a3.13 3.13 0 0 1-6.26 0"/>
    <path fill="#D80027" d="M7.043 8.217h.783v1.566h-.783V8.217Zm3.131 0h.782v1.566h-.782V8.217ZM8.609 7.043h.783v2.74h-.783v-2.74Z"/>
  </g>
  <defs>
    <clipPath id="a">
      <path fill="#fff" d="M0 0h18v18H0z"/>
    </clipPath>
  </defs>
</svg>
