<svg xmlns="http://www.w3.org/2000/svg" width="18" height="18" fill="none" viewBox="0 0 18 18">
  <g clip-path="url(#a)">
    <path fill="#F0F0F0" d="M9 18A9 9 0 1 0 9 0a9 9 0 0 0 0 18Z"/>
    <path fill="#A2001D" d="M9 0A9.002 9.002 0 0 0 .715 5.478h16.57A9.002 9.002 0 0 0 9 0Z"/>
    <path fill="#496E2D" d="M9 18a9.002 9.002 0 0 0 8.285-5.478H.715A9.002 9.002 0 0 0 9 18Z"/>
    <path fill="#0052B4" d="M17.69 6.652H.31a9.01 9.01 0 0 0 0 4.696h17.38a9.013 9.013 0 0 0 0-4.696Z"/>
  </g>
  <defs>
    <clipPath id="a">
      <path fill="#fff" d="M0 0h18v18H0z"/>
    </clipPath>
  </defs>
</svg>
