<svg xmlns="http://www.w3.org/2000/svg" width="18" height="18" fill="none" viewBox="0 0 18 18">
  <g clip-path="url(#a)">
    <path fill="#F0F0F0" d="M9 18A9 9 0 1 0 9 0a9 9 0 0 0 0 18Z"/>
    <path fill="#D80027" d="M17.924 7.826h-7.75V.076a9.089 9.089 0 0 0-2.348 0v7.75H.076a9.09 9.09 0 0 0 0 2.348h7.75v7.75a9.095 9.095 0 0 0 2.348 0v-7.75h7.75a9.093 9.093 0 0 0 0-2.348Z"/>
    <path fill="#D80027" d="M5.478 4.304V3.13H4.304v1.174H3.13v1.174h1.174v1.174h1.174V5.478h1.174V4.304H5.478Zm8.218 0V3.13h-1.174v1.174h-1.174v1.174h1.174v1.174h1.174V5.478h1.174V4.304h-1.174Zm-8.218 8.218v-1.174H4.304v1.174H3.13v1.174h1.174v1.174h1.174v-1.174h1.174v-1.174H5.478Zm8.218 0v-1.174h-1.174v1.174h-1.174v1.174h1.174v1.174h1.174v-1.174h1.174v-1.174h-1.174Z"/>
  </g>
  <defs>
    <clipPath id="a">
      <path fill="#fff" d="M0 0h18v18H0z"/>
    </clipPath>
  </defs>
</svg>
