<svg xmlns="http://www.w3.org/2000/svg" width="18" height="18" fill="none" viewBox="0 0 18 18">
  <g clip-path="url(#a)">
    <path fill="#F9F9F9" d="M9 18A9 9 0 1 0 9 0a9 9 0 0 0 0 18Z"/>
    <path fill="#D80027" d="M9 18a9.003 9.003 0 0 0 8.44-5.87H.56A9.003 9.003 0 0 0 9 18Zm3.521-10.565V6.26h.392v-.783h-.783v.392h-.783v-.392h-.782v.783h.391v1.174h-.782v-2.74h.39v-.782h-.782v.391h-.391v-.39h-.783v.39h-.391v-.39h-.783v.782h.392v2.739h-.783V6.26h.391v-.783h-.782v.392h-.783v-.392h-.782v.783h.39v1.174h-.782v3.13h8.609v-3.13h-.783Z"/>
    <path fill="#FFDA44" d="M9 10.174a1.174 1.174 0 0 0-.392 2.28v1.633H7.435v1.565H9.39v-3.197A1.174 1.174 0 0 0 9 10.174Zm0 1.565a.391.391 0 1 1 0-.782.391.391 0 0 1 0 .782Z"/>
  </g>
  <defs>
    <clipPath id="a">
      <path fill="#fff" d="M0 0h18v18H0z"/>
    </clipPath>
  </defs>
</svg>
