<svg xmlns="http://www.w3.org/2000/svg" width="18" height="18" fill="none" viewBox="0 0 18 18">
  <g clip-path="url(#a)">
    <path fill="#F0F0F0" d="M9 18A9 9 0 1 0 9 0a9 9 0 0 0 0 18Z"/>
    <path fill="#338AF3" d="M9 6.652h8.69a8.95 8.95 0 0 0-1.011-2.348H9v2.348Zm-5.603 9.392h11.205a9.045 9.045 0 0 0 2.077-2.348H1.32a9.047 9.047 0 0 0 2.076 2.348ZM3.13 2.177a9.044 9.044 0 0 0-1.81 2.127h1.81V2.177ZM9 9V6.652H5.478V9H3.13V6.652H.31a9.01 9.01 0 0 0 0 4.696h17.38c.202-.749.31-1.536.31-2.348H9Z"/>
    <path fill="#338AF3" d="M9 0a8.98 8.98 0 0 0-3.522.715v3.59H9V1.956h5.602A8.962 8.962 0 0 0 9 0Z"/>
  </g>
  <defs>
    <clipPath id="a">
      <path fill="#fff" d="M0 0h18v18H0z"/>
    </clipPath>
  </defs>
</svg>
