<svg xmlns="http://www.w3.org/2000/svg" width="18" height="18" fill="none" viewBox="0 0 18 18">
  <g clip-path="url(#a)">
    <path fill="#FFDA44" d="M9 18A9 9 0 1 0 9 0a9 9 0 0 0 0 18Z"/>
    <path fill="#A2001D" d="M3.927 1.565A8.958 8.958 0 0 1 9 0c1.882 0 3.628.578 5.073 1.565L9 1.957l-5.073-.392Z"/>
    <path fill="#0052B4" d="m9 9-.574-.574-.153.273L9 9Z"/>
    <path fill="#496E2D" d="M2.636 2.636a9 9 0 0 0 0 12.728L9 9 2.636 2.636Zm12.728 0a9 9 0 0 1 0 12.728L9 9l6.364-6.364Z"/>
    <path fill="#A2001D" d="M9 12.13a3.13 3.13 0 1 0 0-6.26 3.13 3.13 0 0 0 0 6.26Z"/>
    <path fill="#FFDA44" d="m9 5.87.702 2.16h2.27l-1.836 1.334.701 2.16L9 10.189l-1.837 1.335.702-2.16L6.027 8.03h2.271L9 5.87ZM9 0h-.003.006H9Z"/>
    <path fill="#A2001D" d="M9.003 0h-.006a8.972 8.972 0 0 0-6.36 2.636h12.726A8.972 8.972 0 0 0 9.003 0ZM2.636 15.364A8.972 8.972 0 0 0 9 18a8.972 8.972 0 0 0 6.363-2.636H2.636Z"/>
    <path fill="#FFDA44" d="m9 .978.146.449h.471l-.381.277.145.448L9 1.875l-.381.277.145-.448-.381-.277h.471L9 .978Zm-2.182 0 .145.449h.472l-.382.277.146.448-.381-.277-.382.277.146-.448-.382-.277h.472l.146-.449Zm4.364 0 .146.449h.472l-.382.277.146.448-.382-.277-.381.277.146-.448-.382-.277h.472l.145-.449ZM9 15.848l.146.448h.471l-.381.277.145.449L9 16.745l-.381.277.145-.449-.381-.277h.471L9 15.848Zm-2.182 0 .145.448h.472l-.382.277.146.449-.381-.277-.382.277.146-.449-.382-.277h.472l.146-.448Zm4.364 0 .146.448h.472l-.382.277.146.449-.382-.277-.381.277.146-.449-.382-.277h.472l.145-.448Zm-8.44-6.997a.783.783 0 0 1-1.322.837c-.419-.66-.176-1.74-.176-1.74s1.08.242 1.498.903Z"/>
    <path fill="#A2001D" d="M2.29 9.992a.391.391 0 1 0 0-.783.391.391 0 0 0 0 .783Z"/>
  </g>
  <defs>
    <clipPath id="a">
      <path fill="#fff" d="M0 0h18v18H0z"/>
    </clipPath>
  </defs>
</svg>
