<svg xmlns="http://www.w3.org/2000/svg" width="18" height="18" fill="none" viewBox="0 0 18 18">
  <g clip-path="url(#a)">
    <path fill="#D80027" d="M3.927 16.435A8.958 8.958 0 0 0 9 18a8.958 8.958 0 0 0 5.073-1.565L9 15.652l-5.073.783Zm10.146-14.87A8.958 8.958 0 0 0 9 0a8.958 8.958 0 0 0-5.073 1.565L9 2.348l5.073-.783Z"/>
    <path fill="#0052B4" d="M18 9c0-2.978-1.783-5.969-3.927-7.435H3.927A8.99 8.99 0 0 0 0 9a8.99 8.99 0 0 0 3.927 7.435h10.146A8.99 8.99 0 0 0 18 9Z"/>
    <path fill="#D80027" d="M8.49 14.681C8.369 14.576 5.479 12.064 5.479 9s2.89-5.576 3.013-5.681L9 2.882l.51.437c.122.105 3.012 2.617 3.012 5.681s-2.89 5.576-3.013 5.681L9 15.118l-.51-.437Z"/>
    <path fill="#338AF3" d="M11.74 9C11.74 6.26 9 3.913 9 3.913S6.261 6.261 6.261 9c0 .838.257 1.64.612 2.348h4.254c.356-.709.612-1.51.612-2.348Z"/>
    <path fill="#0052B4" d="M11.74 9c0 .838-.257 1.64-.613 2.348L9 11.739l-2.127-.391c-.355-.709-.612-1.51-.612-2.348h5.478Z"/>
    <path fill="#FFDA44" d="M9 14.087s1.32-1.131 2.127-2.74H6.873C7.681 12.957 9 14.088 9 14.088Z"/>
    <path fill="#6DA544" d="M7.239 7.435h3.522L9 9.195l-1.761-1.76Z"/>
    <path fill="#A2001D" d="M8.413 8.609h1.174v3.521H8.413V8.61Z"/>
  </g>
  <defs>
    <clipPath id="a">
      <path fill="#fff" d="M0 0h18v18H0z"/>
    </clipPath>
  </defs>
</svg>
