<svg xmlns="http://www.w3.org/2000/svg" width="18" height="18" fill="none" viewBox="0 0 18 18">
  <g clip-path="url(#a)">
    <path fill="#F0F0F0" d="M9 18A9 9 0 1 0 9 0a9 9 0 0 0 0 18Z"/>
    <path fill="#338AF3" d="M18 9A9 9 0 0 0 12.913.893v16.214A9 9 0 0 0 18 9ZM0 9a9 9 0 0 0 5.087 8.107V.893A9 9 0 0 0 0 9Z"/>
    <path fill="#ACABB1" d="M11.352 10.522 9.83 9l1.449-1.449-.066-.765-.415-.414L9 8.17 7.202 6.372l-.415.414-.066.765L8.17 9l-1.522 1.522.83.83L9 9.83l1.522 1.522.83-.83Z"/>
    <path fill="#6DA544" d="m11.214 6.787-.83.83a1.957 1.957 0 1 1-2.767 0l-.83-.83a3.13 3.13 0 1 0 4.427 0Z"/>
  </g>
  <defs>
    <clipPath id="a">
      <path fill="#fff" d="M0 0h18v18H0z"/>
    </clipPath>
  </defs>
</svg>
