<svg xmlns="http://www.w3.org/2000/svg" width="18" height="18" fill="none" viewBox="0 0 18 18">
  <g clip-path="url(#a)">
    <path fill="#F0F0F0" d="M9 18A9 9 0 1 0 9 0a9 9 0 0 0 0 18Z"/>
    <path fill="#D80027" d="M17.924 7.826h-7.75V.076a9.089 9.089 0 0 0-2.348 0v7.75H.076a9.089 9.089 0 0 0 0 2.348h7.75v7.75a9.095 9.095 0 0 0 2.348 0v-7.75h7.75a9.094 9.094 0 0 0 0-2.348Z"/>
    <path fill="#FFDA44" d="m11.543 9.391.588.392V8.217l-.588.392H9.392V6.457l.392-.587H8.217l.392.587v2.152H6.457l-.587-.392v1.566l.587-.392h2.152v2.152l-.392.588h1.566l-.392-.588V9.392h2.152Z"/>
  </g>
  <defs>
    <clipPath id="a">
      <path fill="#fff" d="M0 0h18v18H0z"/>
    </clipPath>
  </defs>
</svg>
