<svg xmlns="http://www.w3.org/2000/svg" width="18" height="18" fill="none" viewBox="0 0 18 18">
  <g clip-path="url(#a)">
    <path fill="#F0F0F0" d="M9 18A9 9 0 1 0 9 0a9 9 0 0 0 0 18Z"/>
    <path fill="#6DA544" d="M9 0a8.958 8.958 0 0 0-4.383 1.138v15.724A9 9 0 1 0 9 0Z"/>
    <path fill="#F0F0F0" d="M4.644 1.123a9.02 9.02 0 0 0-1.43.984L10.107 9l-6.893 6.893a9.021 9.021 0 0 0 1.43.984L18 9 4.644 1.123Z"/>
    <path fill="#FFDA44" d="M3.884 1.595c-.275.19-.539.395-.79.614L9 9l-5.906 6.791c.251.219.515.424.79.613L16.459 9 3.884 1.595Z"/>
    <path fill="#000" d="M3.214 2.107a9.06 9.06 0 0 0-.578.529L8.218 9l-5.582 6.364c.185.185.378.36.578.529L10.107 9 3.214 2.107Z"/>
    <path fill="#D80027" d="M2.636 2.636a9 9 0 0 0 0 12.728L9 9 2.636 2.636Z"/>
  </g>
  <defs>
    <clipPath id="a">
      <path fill="#fff" d="M0 0h18v18H0z"/>
    </clipPath>
  </defs>
</svg>
