<svg xmlns="http://www.w3.org/2000/svg" width="18" height="18" fill="none" viewBox="0 0 18 18">
  <g clip-path="url(#a)">
    <path fill="#F0F0F0" d="M9 18A9 9 0 1 0 9 0a9 9 0 0 0 0 18Z"/>
    <path fill="#D80027" d="M9 18c2.282 0 4.366-.85 5.952-2.25H3.048A8.965 8.965 0 0 0 9 18Z"/>
    <path fill="#0052B4" d="M.284 11.25a8.97 8.97 0 0 0 .92 2.25h15.592a8.947 8.947 0 0 0 .92-2.25L9 10.565l-8.716.685Zm17.432-4.5a8.946 8.946 0 0 0-.92-2.25L9 4.304V0c-.67 0-1.32.073-1.947.211C7.04.214 1.173 4.841 1.173 9c.15.026 7.827.783 7.827.783V6.75h8.716Z"/>
    <path fill="#F0F0F0" d="M9 5.615v-4.5H6.15l.903-.903A9.006 9.006 0 0 0 0 9h4.559V7.206L6.37 9h3.22L6.15 5.615H9Z"/>
    <path fill="#D80027" d="M9.004 9 5.62 5.615H4.56L7.943 9h-4.52V4.5h13.373a9.04 9.04 0 0 0-1.844-2.25H3.424v-.314a9.043 9.043 0 0 0-2.25 2.619V9H0c0 .777.098 1.53.284 2.25h17.433C17.901 10.53 18 9.777 18 9H9.004Z"/>
  </g>
  <defs>
    <clipPath id="a">
      <path fill="#fff" d="M0 0h18v18H0z"/>
    </clipPath>
  </defs>
</svg>
