<svg xmlns="http://www.w3.org/2000/svg" width="18" height="18" fill="none" viewBox="0 0 18 18">
  <g clip-path="url(#a)">
    <path fill="#F0F0F0" d="M9 18A9 9 0 1 0 9 0a9 9 0 0 0 0 18Z"/>
    <path fill="#338AF3" d="M9 18a9 9 0 0 0 8.107-5.087H.893A9 9 0 0 0 9 18ZM9 0A9 9 0 0 0 .893 5.087h16.214A9 9 0 0 0 9 0ZM5.539 5.87l.29.896h.944l-.763.555.291.896-.762-.554-.763.554.291-.896-.763-.555h.943l.292-.896Zm0 3.913.29.896h.944l-.763.555.291.896-.762-.554-.763.554.291-.896-.763-.555h.943l.292-.896Zm6.922-3.913.292.896h.943l-.763.555.291.896-.763-.554-.763.554.292-.896-.763-.555h.943l.291-.896Zm0 3.913.292.896h.943l-.763.555.291.896-.763-.554-.763.554.292-.896-.763-.555h.943l.291-.896ZM9 7.826l.291.897h.943l-.763.554.292.897L9 9.62l-.763.554.291-.897-.762-.554h.943L9 7.826Z"/>
  </g>
  <defs>
    <clipPath id="a">
      <path fill="#fff" d="M0 0h18v18H0z"/>
    </clipPath>
  </defs>
</svg>
