<svg xmlns="http://www.w3.org/2000/svg" width="18" height="18" fill="none" viewBox="0 0 18 18">
  <g clip-path="url(#a)">
    <path fill="#D80027" d="M9 18A9 9 0 1 0 9 0a9 9 0 0 0 0 18Z"/>
    <path fill="#F0F0F0" d="M9.93 6.809c-.205.85-.569.688-.747 1.43a1.957 1.957 0 0 1 .914-3.805c-.356 1.484.015 1.614-.168 2.375Zm-2.727.63c.746.457.48.753 1.13 1.152a1.957 1.957 0 0 1-3.336-2.046c1.3.798 1.539.485 2.206.894Zm-.243 2.788c.666-.568.864-.223 1.445-.719a1.957 1.957 0 0 1-2.977 2.54c1.161-.99.937-1.313 1.532-1.821Zm2.576 1.093c-.335-.81.055-.892-.237-1.597a1.957 1.957 0 0 1 1.496 3.616c-.583-1.41-.96-1.297-1.259-2.02Zm1.835-2.113c-.872.068-.83-.328-1.591-.268a1.957 1.957 0 0 1 3.901-.306c-1.521.12-1.53.512-2.31.574Z"/>
  </g>
  <defs>
    <clipPath id="a">
      <path fill="#fff" d="M0 0h18v18H0z"/>
    </clipPath>
  </defs>
</svg>
