<svg xmlns="http://www.w3.org/2000/svg" width="18" height="18" fill="none" viewBox="0 0 18 18">
  <g clip-path="url(#a)">
    <path fill="#F0F0F0" d="M9 18A9 9 0 1 0 9 0a9 9 0 0 0 0 18Z"/>
    <path fill="#FF9811" d="M9 0A9 9 0 0 0 .893 5.087h16.214A9 9 0 0 0 9 0Z"/>
    <path fill="#6DA544" d="M9 18a9 9 0 0 0 8.107-5.087H.893A9 9 0 0 0 9 18Z"/>
    <path fill="#0052B4" d="M9 12.13a3.13 3.13 0 1 0 0-6.26 3.13 3.13 0 0 0 0 6.26Z"/>
    <path fill="#F0F0F0" d="M9 10.957a1.957 1.957 0 1 0 0-3.914 1.957 1.957 0 0 0 0 3.913Z"/>
    <path fill="#0052B4" d="m9 6.586.604 1.369 1.487-.162L10.207 9l.884 1.207-1.487-.162L9 11.415l-.604-1.37-1.487.162L7.793 9l-.884-1.207 1.487.162L9 6.585Z"/>
  </g>
  <defs>
    <clipPath id="a">
      <path fill="#fff" d="M0 0h18v18H0z"/>
    </clipPath>
  </defs>
</svg>
