<svg xmlns="http://www.w3.org/2000/svg" width="18" height="18" fill="none" viewBox="0 0 18 18">
  <g clip-path="url(#a)">
    <path fill="#F0F0F0" d="M9 18A9 9 0 1 0 9 0a9 9 0 0 0 0 18Z"/>
    <path fill="#D80027" d="M11.923 6.652h-1.177c.01.13.015.26.015.391 0 .871-.218 1.715-.597 2.316a2.13 2.13 0 0 1-.577.623v-3.33H8.413v3.33a2.13 2.13 0 0 1-.577-.623c-.38-.601-.597-1.445-.597-2.316 0-.13.006-.261.015-.39H6.077a6.252 6.252 0 0 0-.012.39c0 2.414 1.29 4.305 2.935 4.305 1.646 0 2.935-1.89 2.935-4.305a6.64 6.64 0 0 0-.012-.39Z"/>
    <path fill="#6DA544" d="M3.717 4.304h1.174v.783h1.174v-.783H7.24v.783h1.174v-.783h1.174v.783h1.174v-.783h1.174v.783h1.174v-.783h1.174v.783h2.824A9 9 0 0 0 9 0 9 9 0 0 0 .893 5.087h2.824v-.783Z"/>
    <path fill="#D80027" d="M14.283 12.913v.783h-1.174v-.783h-1.174v.783H10.76v-.783H9.587v.783H8.413v-.783H7.24v.783H6.065v-.783H4.891v.783H3.717v-.783H.893A9 9 0 0 0 9 18a9 9 0 0 0 8.107-5.087h-2.824Z"/>
  </g>
  <defs>
    <clipPath id="a">
      <path fill="#fff" d="M0 0h18v18H0z"/>
    </clipPath>
  </defs>
</svg>
