<svg xmlns="http://www.w3.org/2000/svg" width="18" height="18" fill="none" viewBox="0 0 18 18">
  <g clip-path="url(#a)">
    <path fill="#F0F0F0" d="M9 18A9 9 0 1 0 9 0a9 9 0 0 0 0 18Z"/>
    <path fill="#A2001D" d="M9 0A9.003 9.003 0 0 0 .56 5.87h16.88A9.003 9.003 0 0 0 9 0Z"/>
    <path fill="#000" d="M9 18a9.003 9.003 0 0 0 8.44-5.87H.56A9.003 9.003 0 0 0 9 18Z"/>
    <path fill="#496E2D" d="M6.848 8.413H5.113a.783.783 0 0 1 .757-.587V6.652A1.959 1.959 0 0 0 3.913 8.61v.978h2.935c.108 0 .195.088.195.196v.39H3.13v1.175h5.087V9.783a1.37 1.37 0 0 0-1.37-1.37Zm2.935 1.761V6.652H8.609v4.696h1.956v-1.174h-.782Zm3.913 0V6.652h-1.174v3.522h-.392V9h-1.174v2.348h3.522v-1.174h-.782Z"/>
  </g>
  <defs>
    <clipPath id="a">
      <path fill="#fff" d="M0 0h18v18H0z"/>
    </clipPath>
  </defs>
</svg>
