<svg xmlns="http://www.w3.org/2000/svg" width="18" height="18" fill="none" viewBox="0 0 18 18">
  <g clip-path="url(#a)">
    <path fill="#D80027" d="M9 18A9 9 0 1 0 9 0a9 9 0 0 0 0 18Z"/>
    <path fill="#F0F0F0" d="m12.332 6.033-.636 2.27-1.908-.352-1.229-2.533L5.24 6.596l-.262-.737-.868-.107.654 1.843 2.284-.584.65 1.83-1.58 2.33 2.68 2.285-.508.596.342.805 1.27-1.489-1.649-1.686 1.26-1.476 2.807.202.64-3.463.77.142.526-.699-1.924-.355Z"/>
  </g>
  <defs>
    <clipPath id="a">
      <path fill="#fff" d="M0 0h18v18H0z"/>
    </clipPath>
  </defs>
</svg>
