<svg xmlns="http://www.w3.org/2000/svg" width="18" height="18" fill="none" viewBox="0 0 18 18">
  <g clip-path="url(#a)">
    <path fill="#F0F0F0" d="M9 18A9 9 0 1 0 9 0a9 9 0 0 0 0 18Z"/>
    <path fill="#0052B4" d="M12.389 7.044h-2.26L9 5.087 7.87 7.044H5.61L6.74 9l-1.13 1.957h2.26L9 12.913l1.13-1.956h2.258L11.259 9l1.13-1.956ZM10.387 9l-.693 1.202H8.306L7.612 9l.694-1.202h1.388L10.387 9ZM9 6.596l.258.448H8.74L9 6.596ZM6.918 7.798h.516l-.258.447-.258-.447Zm0 2.404.258-.447.258.447h-.516ZM9 11.404l-.259-.447h.517L9 11.404Zm2.081-1.202h-.516l.258-.447.258.447Zm-.516-2.404h.516l-.258.447-.258-.447Zm4.037-5.841H3.397a9.045 9.045 0 0 0-2.076 2.347h15.358a9.047 9.047 0 0 0-2.077-2.347ZM3.397 16.044h11.205a9.045 9.045 0 0 0 2.077-2.348H1.32a9.047 9.047 0 0 0 2.076 2.348Z"/>
  </g>
  <defs>
    <clipPath id="a">
      <path fill="#fff" d="M0 0h18v18H0z"/>
    </clipPath>
  </defs>
</svg>
