<svg xmlns="http://www.w3.org/2000/svg" width="18" height="18" fill="none" viewBox="0 0 18 18">
  <g clip-path="url(#a)">
    <path fill="#F0F0F0" d="M9 18a8.98 8.98 0 0 0 3.13-.56L12.522 9 12.13.56A8.981 8.981 0 0 0 9 0a8.98 8.98 0 0 0-3.13.56L5.478 9l.392 8.44A8.98 8.98 0 0 0 9 18Z"/>
    <path fill="#FF9811" d="M0 9a9.003 9.003 0 0 0 5.87 8.44V.56A9.003 9.003 0 0 0 0 9Z"/>
    <path fill="#6DA544" d="M12.13.56v16.88a9.003 9.003 0 0 0 0-16.88Z"/>
  </g>
  <defs>
    <clipPath id="a">
      <path fill="#fff" d="M0 0h18v18H0z"/>
    </clipPath>
  </defs>
</svg>
