<svg xmlns="http://www.w3.org/2000/svg" width="18" height="18" fill="none" viewBox="0 0 18 18">
  <g clip-path="url(#a)">
    <path fill="#F0F0F0" d="M9 18A9 9 0 1 0 9 0a9 9 0 0 0 0 18Z"/>
    <path fill="#D80027" d="M16.14 14.48 10.66 9l5.48-5.48a9.101 9.101 0 0 0-1.66-1.66L9 7.34 3.52 1.86a9.086 9.086 0 0 0-1.66 1.66L7.34 9l-5.48 5.48a9.082 9.082 0 0 0 1.66 1.66L9 10.66l5.48 5.48a9.097 9.097 0 0 0 1.66-1.66Z"/>
    <path fill="#FFDA44" d="M7.435 2.74 9 3.13l1.565-.39V1.408l-.626.313L9 .782l-.94.94-.625-.313v1.33Z"/>
    <path fill="#D80027" d="M7.435 2.74v.977C7.435 4.916 9 5.283 9 5.283s1.565-.367 1.565-1.566V2.74h-3.13Z"/>
  </g>
  <defs>
    <clipPath id="a">
      <path fill="#fff" d="M0 0h18v18H0z"/>
    </clipPath>
  </defs>
</svg>
