<svg xmlns="http://www.w3.org/2000/svg" width="18" height="18" fill="none" viewBox="0 0 18 18">
  <g clip-path="url(#a)">
    <path fill="#F0F0F0" d="M9 18A9 9 0 1 0 9 0a9 9 0 0 0 0 18Z"/>
    <path fill="#000" d="M5.478 5.87H17.44A9.003 9.003 0 0 0 2.636 2.636L5.478 5.87Z"/>
    <path fill="#6DA544" d="M5.478 12.13H17.44a9.003 9.003 0 0 1-14.804 3.234l2.842-3.234Z"/>
    <path fill="#D80027" d="M2.636 2.636a9 9 0 0 0 0 12.728L9 9 2.636 2.636Z"/>
    <path fill="#F0F0F0" d="m3.572 7.043.494 1.033L5.18 7.82l-.5 1.03.898.711-1.117.252.003 1.145-.893-.717-.893.716.003-1.144-1.117-.252.897-.711-.5-1.03 1.116.257.494-1.033Z"/>
  </g>
  <defs>
    <clipPath id="a">
      <path fill="#fff" d="M0 0h18v18H0z"/>
    </clipPath>
  </defs>
</svg>
