<svg xmlns="http://www.w3.org/2000/svg" width="18" height="18" fill="none" viewBox="0 0 18 18">
  <g clip-path="url(#a)">
    <path fill="#338AF3" d="M9 18A9 9 0 1 0 9 0a9 9 0 0 0 0 18Z"/>
    <path fill="#FFDA44" d="M14.087 9.098H3.913c0 .702.612 1.272 1.314 1.272h-.042c0 .702.57 1.271 1.272 1.271 0 .703.569 1.272 1.271 1.272h2.544c.702 0 1.271-.57 1.271-1.272.703 0 1.272-.569 1.272-1.271h-.042c.702 0 1.314-.57 1.314-1.272Z"/>
    <path fill="#338AF3" d="M12.521 7.435a3.522 3.522 0 1 1-7.043 0"/>
    <path fill="#FFDA44" d="m11.69 7.435-1.1.517.586 1.064-1.193-.228-.152 1.206L9 9.107l-.831.887-.152-1.206-1.193.228.585-1.064-1.099-.517 1.1-.517-.586-1.065 1.193.229.152-1.206.831.887.831-.887.152 1.206 1.193-.229-.585 1.065 1.099.517Z"/>
  </g>
  <defs>
    <clipPath id="a">
      <path fill="#fff" d="M0 0h18v18H0z"/>
    </clipPath>
  </defs>
</svg>
