<svg xmlns="http://www.w3.org/2000/svg" width="18" height="18" fill="none" viewBox="0 0 18 18">
  <g clip-path="url(#a)">
    <path fill="#F0F0F0" d="M9 18A9 9 0 1 0 9 0a9 9 0 0 0 0 18Z"/>
    <path fill="#000" d="M9 0A9 9 0 0 0 .893 5.087h16.214A9 9 0 0 0 9 0Z"/>
    <path fill="#496E2D" d="M9 18a9 9 0 0 1-8.107-5.087h16.214A9 9 0 0 1 9 18Z"/>
    <path fill="#A2001D" d="M17.575 6.26H.425A8.993 8.993 0 0 0 0 9c0 .955.15 1.875.425 2.74h17.15A8.993 8.993 0 0 0 18 9c0-.955-.15-1.875-.425-2.74Z"/>
    <path fill="#F0F0F0" d="m11.803 4.16-1.066-.493L9 7.6 7.264 3.667l-1.066.492L8.354 9l-2.156 4.841 1.066.492L9 10.401l1.737 3.932 1.066-.492L9.647 9l2.156-4.84Z"/>
    <path fill="#F0F0F0" d="M9.724 4.623c-.412-.45-.724-.71-.724-.71s-.311.26-.724.71v8.754c.413.451.724.71.724.71s.312-.259.724-.71V4.623Z"/>
    <path fill="#A2001D" d="M7.043 6.302v5.396a9.44 9.44 0 0 0 1.37 1.826V4.476a9.43 9.43 0 0 0-1.37 1.826Zm3.914 0a9.436 9.436 0 0 0-1.37-1.826v9.048a9.45 9.45 0 0 0 1.37-1.825V6.301Z"/>
    <path fill="#000" d="M10.957 6.302v5.396c.44-.782.782-1.707.782-2.698 0-.991-.341-1.916-.783-2.698Zm-3.914 0v5.396c-.441-.782-.782-1.707-.782-2.698 0-.991.341-1.916.782-2.698Z"/>
  </g>
  <defs>
    <clipPath id="a">
      <path fill="#fff" d="M0 0h18v18H0z"/>
    </clipPath>
  </defs>
</svg>
