<svg xmlns="http://www.w3.org/2000/svg" width="18" height="18" fill="none" viewBox="0 0 18 18">
  <g clip-path="url(#a)">
    <path fill="#D80027" d="M0 9a9 9 0 0 1 18 0"/>
    <path fill="#FFDA44" d="m12.13 8.37-1.279.602.681 1.238-1.389-.265-.175 1.403L9 10.316l-.967 1.032-.176-1.403-1.39.265.682-1.238-1.28-.602 1.28-.602-.681-1.239 1.389.266.176-1.403L9 6.424l.968-1.032.175 1.403 1.39-.266-.682 1.24 1.28.6Zm-.782-5.435h-1.76a.587.587 0 0 0-1.175 0h-1.76c0 .324.282.587.606.587h-.02c0 .324.263.587.587.587 0 .324.263.587.587.587h1.174a.587.587 0 0 0 .587-.587.587.587 0 0 0 .587-.587h-.02a.604.604 0 0 0 .607-.587Z"/>
    <path fill="#F0F0F0" d="M18 9A9 9 0 0 1 0 9h18Z"/>
    <path fill="#0052B4" d="M9 18a8.982 8.982 0 0 0 6.975-3.313c-.297-.202-.457-.53-.975-.53-.75 0-.75.687-1.5.687s-.75-.686-1.5-.686-.75.686-1.5.686-.75-.686-1.5-.686-.75.686-1.5.686-.75-.686-1.5-.686-.75.686-1.5.686-.75-.686-1.5-.686c-.518 0-.678.327-.975.53A8.982 8.982 0 0 0 9 18Zm7.5-7.852c-.75 0-.75-.686-1.5-.686s-.75.686-1.5.686-.75-.686-1.5-.686-.75.686-1.5.686-.75-.686-1.5-.686-.75.686-1.5.686-.75-.686-1.5-.686-.75.686-1.5.686-.75-.686-1.5-.686-.75.686-1.5.686c-.746 0-.75-.678-1.488-.686.02.412.07.816.144 1.211.598.088.65.675 1.344.675.75 0 .75-.686 1.5-.686s.75.686 1.5.686.75-.686 1.5-.686.75.686 1.5.686.75-.686 1.5-.686.75.686 1.5.686.75-.686 1.5-.686.75.686 1.5.686.75-.686 1.5-.686.75.686 1.5.686c.694 0 .746-.587 1.344-.675.074-.395.123-.799.144-1.21-.738.007-.742.685-1.488.685ZM15 11.81c-.75 0-.75.686-1.5.686s-.75-.686-1.5-.686-.75.686-1.5.686-.75-.686-1.5-.686-.75.686-1.5.686-.75-.686-1.5-.686-.75.686-1.5.686-.75-.686-1.5-.686-.75.686-1.5.686c-.536 0-.69-.35-1.006-.55.21.61.486 1.19.817 1.733.057.01.12.017.189.017.75 0 .75-.686 1.5-.686s.75.686 1.5.686.75-.686 1.5-.686.75.686 1.5.686.75-.686 1.5-.686.75.686 1.5.686.75-.686 1.5-.686.75.686 1.5.686.75-.686 1.5-.686.75.686 1.5.686c.069 0 .132-.006.19-.017.33-.543.605-1.123.816-1.733-.317.2-.47.55-1.006.55-.75 0-.75-.686-1.5-.686Z"/>
    <path fill="#F0F0F0" d="M17.972 8.289c-.722.017-.732.685-1.472.685-.75 0-.75-.686-1.5-.686s-.75.686-1.5.686-.75-.686-1.5-.686-.75.686-1.5.686-.75-.686-1.5-.686-.75.686-1.5.686-.75-.686-1.5-.686-.75.686-1.5.686-.75-.686-1.5-.686-.75.686-1.5.686c-.74 0-.75-.668-1.472-.685a9.134 9.134 0 0 0-.015 1.2c.737.008.742.685 1.487.685.75 0 .75-.686 1.5-.686s.75.686 1.5.686.75-.686 1.5-.686.75.686 1.5.686.75-.686 1.5-.686.75.686 1.5.686.75-.686 1.5-.686.75.686 1.5.686.75-.686 1.5-.686.75.686 1.5.686c.745 0 .75-.677 1.487-.685a9.096 9.096 0 0 0-.015-1.2Z"/>
  </g>
  <defs>
    <clipPath id="a">
      <path fill="#fff" d="M0 0h18v18H0z"/>
    </clipPath>
  </defs>
</svg>
