<svg xmlns="http://www.w3.org/2000/svg" width="18" height="18" fill="none" viewBox="0 0 18 18">
  <g clip-path="url(#a)">
    <path fill="#0052B4" d="M9 18A9 9 0 1 0 9 0a9 9 0 0 0 0 18Z"/>
    <path fill="#F0F0F0" d="m3.953 5.478.195.598h.628l-.508.37.194.598-.509-.37-.508.37.194-.598-.509-.37h.629l.194-.598Zm1.957-.587.194.598h.629l-.509.37.194.598-.508-.37-.509.37.194-.598-.508-.37h.629l.194-.598Zm1.956-.587.195.598h.628l-.508.37.194.598-.509-.37-.508.37.194-.598-.509-.37h.629l.194-.598Zm6.18 1.174-.194.598h-.628l.508.37-.194.598.508-.37.51.37-.195-.598.508-.37h-.628l-.194-.598Zm-1.956-.587-.194.598h-.629l.509.37-.195.598.509-.37.508.37-.194-.598.509-.37h-.629l-.194-.598Zm-1.957-.587-.194.598h-.628l.508.37-.194.598.508-.37.509.37-.194-.598.508-.37h-.628l-.195-.598Z"/>
    <path fill="#FFDA44" d="M10.565 9.391 9 7.435l-.783.391v.783l-1.174.782h-.782v1.011a3.13 3.13 0 0 1 1.956 2.902H9v-.782l.782-.783.783.783.783-.783v-.782l.782-1.174-1.565-.392Z"/>
  </g>
  <defs>
    <clipPath id="a">
      <path fill="#fff" d="M0 0h18v18H0z"/>
    </clipPath>
  </defs>
</svg>
