<svg xmlns="http://www.w3.org/2000/svg" width="18" height="18" fill="none" viewBox="0 0 18 18">
  <g clip-path="url(#a)">
    <path fill="#D80027" d="M9 18A9 9 0 1 0 9 0a9 9 0 0 0 0 18Z"/>
    <path fill="#FFDA44" d="m13.402 9-1.799.846.958 1.742-1.953-.374-.248 1.973L9 11.736l-1.36 1.45-.248-1.972-1.953.374.958-1.742L4.6 9l1.798-.846-.958-1.742 1.953.374.248-1.973L9 6.263l1.36-1.45.248 1.973 1.953-.374-.958 1.742L13.402 9Z"/>
    <path fill="#D80027" d="M9 11.74a2.74 2.74 0 1 0 0-5.48 2.74 2.74 0 0 0 0 5.478Z"/>
    <path fill="#FFDA44" d="M7.63 9c-.066 0-.13.003-.195.01.002.38.14.726.366.996.121-.325.302-.622.53-.876a1.946 1.946 0 0 0-.7-.13Zm.844 1.474a1.561 1.561 0 0 0 1.053 0A1.957 1.957 0 0 0 9 9.561a1.957 1.957 0 0 0-.526.913Zm1.881-2.256a1.564 1.564 0 0 0-2.71 0A2.71 2.71 0 0 1 9 8.586c.4-.232.862-.366 1.355-.368Zm-.685.912c.227.254.408.55.529.876a1.56 1.56 0 0 0 .366-.996 1.962 1.962 0 0 0-.896.12Z"/>
  </g>
  <defs>
    <clipPath id="a">
      <path fill="#fff" d="M0 0h18v18H0z"/>
    </clipPath>
  </defs>
</svg>
