<svg xmlns="http://www.w3.org/2000/svg" width="18" height="18" fill="none" viewBox="0 0 18 18">
  <g clip-path="url(#a)">
    <path fill="#D80027" d="M17.107 5.087A9 9 0 0 0 9 0 9 9 0 0 0 .893 5.087L9 5.87l8.107-.783ZM.893 12.913A9 9 0 0 0 9 18a9 9 0 0 0 8.107-5.087L9 12.13l-8.107.783Z"/>
    <path fill="#0052B4" d="M17.107 5.087H.893A8.964 8.964 0 0 0 0 9c0 1.402.32 2.73.893 3.913h16.214A8.963 8.963 0 0 0 18 9c0-1.402-.32-2.73-.893-3.913Z"/>
    <path fill="#F0F0F0" d="M9 12.13a3.13 3.13 0 1 0 0-6.26 3.13 3.13 0 0 0 0 6.26Z"/>
  </g>
  <defs>
    <clipPath id="a">
      <path fill="#fff" d="M0 0h18v18H0z"/>
    </clipPath>
  </defs>
</svg>
