<svg xmlns="http://www.w3.org/2000/svg" width="18" height="18" fill="none" viewBox="0 0 18 18">
  <g clip-path="url(#a)">
    <path fill="#F0F0F0" d="M0 9c0 1.402.32 2.73.893 3.913L9 13.304l8.107-.39A8.965 8.965 0 0 0 18 9c0-1.402-.32-2.73-.893-3.913L9 4.696l-8.107.391A8.964 8.964 0 0 0 0 9Z"/>
    <path fill="#6DA544" d="M9 18a9 9 0 0 0 8.107-5.087H.893A9 9 0 0 0 9 18Z"/>
    <path fill="#0052B4" d="M9 0A9 9 0 0 0 .893 5.087h16.214A9 9 0 0 0 9 0Z"/>
    <path fill="#000" d="M9.587 8.804V6.652H8.413v2.152l-1.418 1.418a2.346 2.346 0 0 0 4.01 0L9.587 8.804Z"/>
  </g>
  <defs>
    <clipPath id="a">
      <path fill="#fff" d="M0 0h18v18H0z"/>
    </clipPath>
  </defs>
</svg>
