<svg xmlns="http://www.w3.org/2000/svg" width="18" height="18" fill="none" viewBox="0 0 18 18">
  <g clip-path="url(#a)">
    <path fill="#F0F0F0" d="M9 18A9 9 0 1 0 9 0a9 9 0 0 0 0 18Z"/>
    <path fill="#F0F0F0" d="M2.057 3.273h13.886a9.05 9.05 0 0 0-1.768-1.637H3.825a9.047 9.047 0 0 0-1.768 1.637ZM0 9c0 .276.013.549.037.818h17.926a9.108 9.108 0 0 0 0-1.636H.037A9.11 9.11 0 0 0 0 9Zm.981 4.09h16.037a8.942 8.942 0 0 0 .643-1.635H.34a8.94 8.94 0 0 0 .64 1.635Zm2.844 3.274h10.35a9.048 9.048 0 0 0 1.768-1.637H2.057a9.049 9.049 0 0 0 1.768 1.637ZM.339 6.545H17.66a8.934 8.934 0 0 0-.642-1.636H.98a8.941 8.941 0 0 0-.64 1.636Z"/>
    <path fill="#D80027" d="M4.304 1.636h9.871A8.959 8.959 0 0 0 9 0C7.826 0 5.768.606 4.304 1.636Zm4.305 3.273h8.41a9.013 9.013 0 0 0-1.076-1.636H8.609v1.636Zm0 3.273h9.353a8.967 8.967 0 0 0-.3-1.636H8.608v1.636Zm-8.27 3.273H17.66a8.94 8.94 0 0 0 .301-1.637H.037a9.01 9.01 0 0 0 .302 1.637Zm1.718 3.272h13.886a9.015 9.015 0 0 0 1.076-1.636H.98c.3.585.661 1.134 1.076 1.636ZM9 18a8.958 8.958 0 0 0 5.175-1.636H3.825A8.958 8.958 0 0 0 9 18Z"/>
    <path fill="#0052B4" d="M.339 6.545a8.967 8.967 0 0 0-.302 1.637H9V0A9.004 9.004 0 0 0 .339 6.545Z"/>
    <path fill="#F0F0F0" d="M5.357 2.348 5.94 4.14h1.886L6.3 5.25l.583 1.794-1.526-1.109-1.525 1.109.582-1.794L2.89 4.14h1.886l.582-1.793Z"/>
  </g>
  <defs>
    <clipPath id="a">
      <path fill="#fff" d="M0 0h18v18H0z"/>
    </clipPath>
  </defs>
</svg>
