<svg xmlns="http://www.w3.org/2000/svg" width="18" height="18" fill="none" viewBox="0 0 18 18">
  <g clip-path="url(#a)">
    <path fill="#000" d="M.893 5.087A8.964 8.964 0 0 0 0 9c0 1.402.32 2.73.893 3.913L9 13.696l8.107-.783A8.965 8.965 0 0 0 18 9c0-1.402-.32-2.73-.893-3.913L9 4.304l-8.107.783Z"/>
    <path fill="#496E2D" d="M.893 12.913A9 9 0 0 0 9 18a9 9 0 0 0 8.107-5.087H.893Z"/>
    <path fill="#D80027" d="M.893 5.087h16.214A9 9 0 0 0 9 0 9 9 0 0 0 .893 5.087Z"/>
    <path fill="#F0F0F0" d="m11.095 7.354.738 1.018 1.196-.388L12.289 9l.739 1.017-1.196-.389-.74 1.017.002-1.258L9.898 9l1.196-.388V7.354Z"/>
    <path fill="#F0F0F0" d="M9.08 11.543a2.543 2.543 0 1 1 1.21-4.78 3.13 3.13 0 1 0 0 4.476c-.36.194-.773.304-1.21.304Z"/>
  </g>
  <defs>
    <clipPath id="a">
      <path fill="#fff" d="M0 0h18v18H0z"/>
    </clipPath>
  </defs>
</svg>
