<svg xmlns="http://www.w3.org/2000/svg" width="18" height="18" fill="none" viewBox="0 0 18 18">
  <g clip-path="url(#a)">
    <path fill="#6DA544" d="M17.44 12.13A8.98 8.98 0 0 0 18 9a8.98 8.98 0 0 0-.56-3.13L9 5.087.56 5.87A8.98 8.98 0 0 0 0 9c0 1.1.198 2.155.56 3.13l8.44.783 8.44-.783Z"/>
    <path fill="#FFDA44" d="M17.44 5.87a9.003 9.003 0 0 0-16.88 0h16.88Z"/>
    <path fill="#D80027" d="M9 18a9.003 9.003 0 0 0 8.44-5.87H.56A9.003 9.003 0 0 0 9 18Z"/>
  </g>
  <defs>
    <clipPath id="a">
      <path fill="#fff" d="M0 0h18v18H0z"/>
    </clipPath>
  </defs>
</svg>
