<svg xmlns="http://www.w3.org/2000/svg" width="18" height="18" fill="none" viewBox="0 0 18 18">
  <g clip-path="url(#a)">
    <path fill="#496E2D" d="M9 18A9 9 0 1 0 9 0a9 9 0 0 0 0 18Z"/>
    <path fill="#F0F0F0" d="M10.565 8.625c-.22 0-.43.044-.625.114a1.93 1.93 0 0 0 .178-.785C10.118 6.836 9 5.997 9 5.997s-1.118.839-1.118 1.957c0 .282.072.547.178.785a1.844 1.844 0 0 0-.625-.114c-1.118 0-1.957 1.118-1.957 1.118s.839 1.118 1.957 1.118c.655 0 1.214-.384 1.565-.702.35.318.91.702 1.565.702 1.118 0 1.957-1.118 1.957-1.118s-.839-1.118-1.957-1.118Z"/>
    <path fill="#FFDA44" d="m9 3.522.23.71h.748l-.604.44.23.71L9 4.943l-.605.44.231-.711-.604-.44h.747L9 3.522ZM6.158 4.765l.445.4.517-.3-.243.547.444.4-.594-.062-.243.546-.125-.585-.594-.063.517-.298-.124-.585Zm-2.08 2.08.585.124.299-.517.062.594.585.125-.546.243.062.594-.4-.444-.546.243.299-.518-.4-.444Zm7.764-2.08-.444.4-.518-.3.243.547-.444.4.594-.062.243.546.125-.585.594-.063-.518-.298.125-.585Zm2.08 2.08-.585.124-.299-.517-.062.594-.585.125.546.243-.062.594.4-.444.546.243-.299-.518.4-.444Z"/>
    <path fill="#F0F0F0" d="M9 13.991a3.89 3.89 0 0 0 2.363-.795H6.637A3.895 3.895 0 0 0 9 13.991Zm-3.587-2.348c.124.285.282.55.467.795h6.24a3.91 3.91 0 0 0 .467-.795H5.413Z"/>
  </g>
  <defs>
    <clipPath id="a">
      <path fill="#fff" d="M0 0h18v18H0z"/>
    </clipPath>
  </defs>
</svg>
