<svg xmlns="http://www.w3.org/2000/svg" width="18" height="18" fill="none" viewBox="0 0 18 18">
  <g clip-path="url(#a)">
    <path fill="#FFDA44" d="M12.913.893A8.965 8.965 0 0 0 9 0C7.598 0 6.27.32 5.087.893L4.304 9l.783 8.107A8.965 8.965 0 0 0 9 18c1.402 0 2.73-.32 3.913-.893L13.696 9 12.913.893Z"/>
    <path fill="#0052B4" d="M5.087.893A9 9 0 0 0 0 9a9 9 0 0 0 5.087 8.107V.893Zm7.826 0v16.214A9 9 0 0 0 18 9 9 9 0 0 0 12.913.893Z"/>
    <path fill="#D80027" d="m11.543 9.783.587.782v-3.13l-.587.782h-1.76v-1.76l.782-.587h-3.13l.782.587v1.76h-1.76l-.587-.782v3.13l.587-.782h1.76v1.76l-.782.588h3.13l-.782-.588v-1.76h1.76Z"/>
    <path fill="#F0F0F0" d="M11.348 8.609H9.39V6.652h-.78V8.61H6.652v.782H8.61v1.957h.782V9.39h1.957v-.78Z"/>
  </g>
  <defs>
    <clipPath id="a">
      <path fill="#fff" d="M0 0h18v18H0z"/>
    </clipPath>
  </defs>
</svg>
