<svg xmlns="http://www.w3.org/2000/svg" width="18" height="18" fill="none" viewBox="0 0 18 18">
  <g clip-path="url(#a)">
    <path fill="#D80027" d="M0 9c0 1.1.198 2.155.56 3.13l8.44.392 8.44-.392A8.98 8.98 0 0 0 18 9a8.98 8.98 0 0 0-.56-3.13L9 5.478.56 5.87A8.981 8.981 0 0 0 0 9Z"/>
    <path fill="#000" d="M9 0A9.003 9.003 0 0 0 .56 5.87h16.88A9.003 9.003 0 0 0 9 0Z"/>
    <path fill="#496E2D" d="M17.44 12.13H.56a9.003 9.003 0 0 0 16.88 0Z"/>
    <path fill="#D80027" d="m11.69 4.304-1.1-.517.586-1.064-1.193.228-.152-1.206L9 2.632l-.831-.887-.152 1.206-1.193-.228.585 1.064-1.099.517h5.38Z"/>
  </g>
  <defs>
    <clipPath id="a">
      <path fill="#fff" d="M0 0h18v18H0z"/>
    </clipPath>
  </defs>
</svg>
