<svg xmlns="http://www.w3.org/2000/svg" width="18" height="18" fill="none" viewBox="0 0 18 18">
  <g clip-path="url(#a)">
    <path fill="#0052B4" d="M9 18a9 9 0 0 0 7.97-13.184L8.99 9.011l4.194-7.98A9 9 0 1 0 9 18Z"/>
    <path fill="#F0F0F0" d="M16.96 4.826a8.997 8.997 0 0 0-1.607-2.18 8.997 8.997 0 0 0-2.18-1.606L2.626 15.375 16.96 4.826Z"/>
    <path fill="#FF9811" d="M2.625 15.374 16.96 4.826a8.996 8.996 0 0 0-1.607-2.18L2.626 15.375Z"/>
    <path fill="#F0F0F0" d="m7.816 5.278-1.1.517.586 1.064-1.194-.228-.151 1.206-.831-.887-.832.887-.151-1.206-1.194.228.586-1.064-1.1-.517 1.1-.517-.586-1.065 1.194.228.151-1.205.832.887.83-.887.152 1.205 1.194-.228-.586 1.065 1.1.517Z"/>
  </g>
  <defs>
    <clipPath id="a">
      <path fill="#fff" d="M0 0h18v18H0z"/>
    </clipPath>
  </defs>
</svg>
