<svg xmlns="http://www.w3.org/2000/svg" width="18" height="18" fill="none" viewBox="0 0 18 18">
  <g clip-path="url(#a)">
    <path fill="#F0F0F0" d="M9 18A9 9 0 1 0 9 0a9 9 0 0 0 0 18Z"/>
    <path fill="#0052B4" d="M17.923 7.826a8.96 8.96 0 0 0-2.559-5.19 8.96 8.96 0 0 0-5.19-2.559v7.75h7.749ZM7.826.077a8.96 8.96 0 0 0-5.19 2.56 8.96 8.96 0 0 0-2.559 5.19h7.75V.076ZM.077 10.174a8.96 8.96 0 0 0 2.56 5.19 8.96 8.96 0 0 0 5.19 2.559v-7.749H.076Zm10.097 7.749a8.96 8.96 0 0 0 5.19-2.559 8.96 8.96 0 0 0 2.559-5.19h-7.749v7.749Z"/>
    <path fill="#F0F0F0" d="M12.072 5.71c0-.119.098-.216.217-.216h.465c.735 0 1.333-.598 1.333-1.333s-.598-1.333-1.333-1.333h-.441a.918.918 0 0 0-.551-.175c-.445 0-.805.289-.805.645 0 .352.353.638.792.643v.003h1.005a.217.217 0 0 1 0 .434h-.465a1.334 1.334 0 0 0 0 2.665h1.798V5.928h-1.798a.217.217 0 0 1-.217-.217Zm-7.043 0c0-.119.097-.216.217-.216h.465a1.334 1.334 0 0 0 0-2.666h-.442a.918.918 0 0 0-.55-.175c-.445 0-.806.289-.806.645 0 .352.354.638.793.643v.003H5.71a.217.217 0 0 1 0 .434h-.465c-.735 0-1.333.598-1.333 1.333 0 .734.598 1.332 1.333 1.332h1.797V5.928H5.246a.217.217 0 0 1-.217-.217Zm7.043 8.304c0-.12.098-.217.217-.217h.465c.735 0 1.333-.598 1.333-1.333s-.598-1.333-1.333-1.333h-.441a.919.919 0 0 0-.551-.175c-.445 0-.805.289-.805.645 0 .352.353.638.792.644v.002h1.005a.217.217 0 0 1 0 .434h-.465a1.334 1.334 0 0 0 0 2.666h1.798V14.23h-1.798a.217.217 0 0 1-.217-.217Zm-7.043 0c0-.12.097-.217.217-.217h.465c.735 0 1.333-.598 1.333-1.333s-.598-1.333-1.333-1.333h-.442a.919.919 0 0 0-.55-.175c-.445 0-.806.289-.806.645 0 .352.354.638.793.644v.002H5.71a.217.217 0 0 1 0 .434h-.465c-.735 0-1.333.598-1.333 1.333s.598 1.333 1.333 1.333h1.797V14.23H5.247a.217.217 0 0 1-.217-.217Z"/>
  </g>
  <defs>
    <clipPath id="a">
      <path fill="#fff" d="M0 0h18v18H0z"/>
    </clipPath>
  </defs>
</svg>
