<svg xmlns="http://www.w3.org/2000/svg" width="18" height="18" fill="none" viewBox="0 0 18 18">
  <g clip-path="url(#a)">
    <path fill="#D80027" d="M1.094 4.696 9 5.478l7.906-.782A8.998 8.998 0 0 0 9 0a8.998 8.998 0 0 0-7.906 4.696Z"/>
    <path fill="#FFDA44" d="M1.094 13.304 9 14.087l7.906-.783A8.96 8.96 0 0 0 18 9l-9-.783L0 9a8.96 8.96 0 0 0 1.094 4.304Z"/>
    <path fill="#0052B4" d="M1.094 4.696A8.96 8.96 0 0 0 0 9h18a8.96 8.96 0 0 0-1.094-4.304H1.094Z"/>
    <path fill="#6DA544" d="M9 18a8.998 8.998 0 0 0 7.906-4.696H1.094A8.998 8.998 0 0 0 9 18Z"/>
  </g>
  <defs>
    <clipPath id="a">
      <path fill="#fff" d="M0 0h18v18H0z"/>
    </clipPath>
  </defs>
</svg>
