<svg xmlns="http://www.w3.org/2000/svg" width="18" height="18" fill="none" viewBox="0 0 18 18">
  <g clip-path="url(#a)">
    <path fill="#338AF3" d="M9 18A9 9 0 1 0 9 0a9 9 0 0 0 0 18Z"/>
    <path fill="#818085" d="M4.304 9.783h9.392v1.174H4.304V9.783Z"/>
    <path fill="#FFDA44" d="M5.87 6.26 9 6.653l3.13-.391V4.383l-1.252.626L9 3.13 7.122 5.01 5.87 4.383V6.26Z"/>
    <path fill="#F0F0F0" d="M5.087 12.13H3.913V9.979l.391-.587-.391-.587v-1.37h1.174v4.696Zm9 0h-1.174V7.435h1.174v1.37l-.391.596.391.577v2.152Z"/>
    <path fill="#ACABB1" d="M3.913 8.804h10.174v1.174H3.913V8.804Z"/>
    <path fill="#F0F0F0" d="M9 13.696a3.134 3.134 0 0 1-3.13-3.13V6.26h6.26v4.304A3.134 3.134 0 0 1 9 13.695Z"/>
    <path fill="#0052B4" d="M9 12.522a1.959 1.959 0 0 1-1.957-1.957v-3.13h3.913v3.13A1.959 1.959 0 0 1 9 12.522Z"/>
    <path fill="#D80027" d="M5.87 6.26h1.173v1.175H5.87V6.26Zm5.087 0h1.173v1.175h-1.174V6.26Zm0 2.544h1.173v1.174h-1.174V8.804Zm-5.087 0h1.173v1.174H5.87V8.804ZM8.413 6.26h1.174v1.175H8.413V6.26ZM9 12.522c-.204 0-.402-.032-.587-.09v1.208a3.128 3.128 0 0 0 1.174 0v-1.208a1.95 1.95 0 0 1-.587.09Zm-1.93-1.639-.937.937c.162.37.394.702.679.98l.83-.829a1.953 1.953 0 0 1-.572-1.088Zm4.797.937-.937-.937a1.95 1.95 0 0 1-.572 1.088l.83.83a3.15 3.15 0 0 0 .68-.981Z"/>
  </g>
  <defs>
    <clipPath id="a">
      <path fill="#fff" d="M0 0h18v18H0z"/>
    </clipPath>
  </defs>
</svg>
