<svg xmlns="http://www.w3.org/2000/svg" width="18" height="18" fill="none" viewBox="0 0 18 18">
  <g clip-path="url(#a)">
    <path fill="#F0F0F0" d="M9 18A9 9 0 1 0 9 0a9 9 0 0 0 0 18Z"/>
    <path fill="#D80027" d="M18 9A9 9 0 0 0 12.913.893v16.214A9 9 0 0 0 18 9Z"/>
    <path fill="#6DA544" d="M0 9a9 9 0 0 0 5.087 8.107V.893A9 9 0 0 0 0 9Zm6.652 0a2.348 2.348 0 1 0 4.696 0v-.783H6.652V9Z"/>
    <path fill="#FF9811" d="M12.13 7.435H9.783a.783.783 0 0 0-1.566 0H5.87c0 .432.376.782.808.782h-.026c0 .433.35.783.783.783 0 .432.35.783.782.783h1.566c.432 0 .782-.35.782-.783.432 0 .783-.35.783-.783h-.026c.432 0 .808-.35.808-.782Z"/>
  </g>
  <defs>
    <clipPath id="a">
      <path fill="#fff" d="M0 0h18v18H0z"/>
    </clipPath>
  </defs>
</svg>
