<svg xmlns="http://www.w3.org/2000/svg" width="18" height="18" fill="none" viewBox="0 0 18 18">
  <g clip-path="url(#a)">
    <path fill="#338AF3" d="M9 18A9 9 0 1 0 9 0a9 9 0 0 0 0 18Z"/>
    <path fill="#F0F0F0" d="m9 3.913.388 1.196h1.258l-1.017.739.388 1.196L9 6.304l-1.017.74.388-1.196-1.017-.74h1.257L9 3.914ZM3.913 9l1.196-.388V7.354l.739 1.017 1.195-.388L6.304 9l.74 1.017-1.196-.388-.74 1.017V9.389L3.914 9ZM9 14.087l-.388-1.196H7.354l1.017-.739-.388-1.195L9 11.694l1.017-.739-.388 1.196 1.017.74H9.388L9 14.086ZM14.087 9l-1.196.389v1.257l-.739-1.017-1.195.388L11.694 9l-.739-1.017 1.196.388.74-1.017v1.258L14.086 9Z"/>
  </g>
  <defs>
    <clipPath id="a">
      <path fill="#fff" d="M0 0h18v18H0z"/>
    </clipPath>
  </defs>
</svg>
