<svg xmlns="http://www.w3.org/2000/svg" width="18" height="18" fill="none" viewBox="0 0 18 18">
  <g clip-path="url(#a)">
    <path fill="#FFDA44" d="M12.913.893A8.964 8.964 0 0 0 9 0C7.598 0 6.27.32 5.087.893L4.304 9l.783 8.107A8.965 8.965 0 0 0 9 18c1.402 0 2.73-.32 3.913-.893L13.696 9 12.913.893Z"/>
    <path fill="#0052B4" d="M5.087.893A9 9 0 0 0 0 9a9 9 0 0 0 5.087 8.107V.893Z"/>
    <path fill="#D80027" d="M12.913.893v16.214A9 9 0 0 0 18 9 9 9 0 0 0 12.913.893Z"/>
    <path fill="#FF9811" d="M12.13 7.081H9.979a.978.978 0 1 0-1.956 0H5.87c0 .532.463.963.995.963h-.032c0 .532.431.964.963.964 0 .47.338.862.785.946l-.759 1.713a3.121 3.121 0 0 0 2.356 0l-.759-1.713a.963.963 0 0 0 .785-.946.963.963 0 0 0 .963-.964h-.032c.532 0 .995-.43.995-.963Z"/>
    <path fill="#0052B4" d="M9 8.413 7.728 9v1.174L9 10.957l1.272-.783V9L9 8.413Z"/>
    <path fill="#D80027" d="M7.728 7.826h2.544V9H7.728V7.826Z"/>
  </g>
  <defs>
    <clipPath id="a">
      <path fill="#fff" d="M0 0h18v18H0z"/>
    </clipPath>
  </defs>
</svg>
