<svg xmlns="http://www.w3.org/2000/svg" width="18" height="18" fill="none" viewBox="0 0 18 18">
  <g clip-path="url(#a)">
    <path fill="#0052B4" d="M9 18a8.98 8.98 0 0 0 3.13-.56L12.522 9 12.13.56A8.981 8.981 0 0 0 9 0a8.98 8.98 0 0 0-3.13.56L5.478 9l.392 8.44A8.98 8.98 0 0 0 9 18Z"/>
    <path fill="#A2001D" d="M0 9a9.003 9.003 0 0 0 5.87 8.44V.56A9.003 9.003 0 0 0 0 9ZM12.13.56v16.88a9.003 9.003 0 0 0 0-16.88Z"/>
    <path fill="#FFDA44" d="M4.304 9h.783v3.13h-.783V9Zm-3.13 0h.783v3.13h-.783V9Zm1.956 1.957a.783.783 0 1 0 0-1.566.783.783 0 0 0 0 1.566Zm0-3.131a.391.391 0 1 0 0-.782.391.391 0 0 0 0 .782Zm-.782 3.522h1.565v.782H2.348v-.782Zm0-3.131h1.565V9H2.348v-.783Zm.782-3.521.278.853h.896l-.725.527.277.853L3.13 6.4l-.725.528.277-.853-.725-.527h.896l.277-.853Z"/>
  </g>
  <defs>
    <clipPath id="a">
      <path fill="#fff" d="M0 0h18v18H0z"/>
    </clipPath>
  </defs>
</svg>
