<svg xmlns="http://www.w3.org/2000/svg" width="18" height="18" fill="none" viewBox="0 0 18 18">
  <g clip-path="url(#a)">
    <path fill="#FFDA44" d="M9 18A9 9 0 1 0 9 0a9 9 0 0 0 0 18Z"/>
    <path fill="#A2001D" d="M18 9a8.99 8.99 0 0 0-3.927-7.435H3.927A8.99 8.99 0 0 0 0 9a8.99 8.99 0 0 0 3.927 7.435h10.146A8.99 8.99 0 0 0 18 9Z"/>
    <path fill="#FFDA44" d="M7.043 6.652h3.913V5.087l-.782.391L9 4.304 7.826 5.478l-.783-.391v1.565ZM12.522 9h-1.956a.903.903 0 1 0-1.578-.877A.903.903 0 1 0 7.41 9H5.478c0 .598.521 1.084 1.12 1.084h-.036c0 .49.326.905.774 1.038l-.88.88.83.83 1.178-1.178a.9.9 0 0 0 .143.04L7.896 13.3a2.926 2.926 0 0 0 2.208 0l-.711-1.606a.89.89 0 0 0 .143-.04l1.177 1.178.83-.83-.88-.88c.448-.133.775-.547.775-1.038h-.036c.598 0 1.12-.486 1.12-1.084Z"/>
    <path fill="#6DA544" d="m9 9.587-1.272.587v1.174L9 12.13l1.272-.782v-1.174L9 9.587Z"/>
    <path fill="#0052B4" d="M7.728 9h2.544v1.565H7.728V9Z"/>
  </g>
  <defs>
    <clipPath id="a">
      <path fill="#fff" d="M0 0h18v18H0z"/>
    </clipPath>
  </defs>
</svg>
