<svg xmlns="http://www.w3.org/2000/svg" width="18" height="18" fill="none" viewBox="0 0 18 18">
  <g clip-path="url(#a)">
    <path fill="#0052B4" d="M18 9A9 9 0 0 1 0 9c0 .002 9-8.999 9-9a9 9 0 0 1 9 9Z"/>
    <path fill="#F0F0F0" d="M8.976 9H9v-.024A6.834 6.834 0 0 1 8.976 9ZM9 4.696V0h-.002A9 9 0 0 0 0 9h4.696V6.356L7.34 9h1.636L9 8.976V7.34L6.356 4.696H9Z"/>
    <path fill="#D80027" d="M4.553 1.174a9.043 9.043 0 0 0-3.379 3.38V9h2.348V3.522H9V1.174H4.553Z"/>
    <path fill="#D80027" d="M9 7.893 5.802 4.696H4.696L9 9V7.893Z"/>
    <path fill="#338AF3" d="M10.174 4.696V9c0 2.097 2.74 2.74 2.74 2.74s2.738-.643 2.738-2.74V4.696h-5.478Z"/>
    <path fill="#A2001D" d="M10.174 9c0 2.097 2.74 2.74 2.74 2.74s2.738-.643 2.738-2.74h-5.478Z"/>
    <path fill="#000" d="M14.087 6.652h-.783V5.87h-.782v.782h-.783v.783h.783v2.348h.782V7.435h.783v-.783Z"/>
  </g>
  <defs>
    <clipPath id="a">
      <path fill="#fff" d="M0 0h18v18H0z"/>
    </clipPath>
  </defs>
</svg>
