<svg xmlns="http://www.w3.org/2000/svg" width="18" height="18" fill="none" viewBox="0 0 18 18">
  <g clip-path="url(#a)">
    <path fill="#D80027" d="M9 18A9 9 0 1 0 9 0a9 9 0 0 0 0 18Z"/>
    <path fill="#FFDA44" d="M14.319 7.386h-4.063L9 3.522 7.744 7.386H3.681l3.287 2.388-1.255 3.865L9 11.25l3.287 2.389-1.255-3.865 3.287-2.388Zm-6.43 2.09.424-1.307h1.374l.425 1.306L9 10.283l-1.112-.808Zm1.544-2.09h-.866L9 6.054l.433 1.332Zm1.344 1.606-.267-.823h1.4l-1.133.823ZM7.49 8.169l-.267.823-1.133-.823h1.4Zm-.289 3.42.433-1.331.7.509-1.133.823Zm2.465-.822.7-.509.433 1.332-1.133-.823Z"/>
  </g>
  <defs>
    <clipPath id="a">
      <path fill="#fff" d="M0 0h18v18H0z"/>
    </clipPath>
  </defs>
</svg>
