<svg xmlns="http://www.w3.org/2000/svg" width="18" height="18" fill="none" viewBox="0 0 18 18">
  <g clip-path="url(#a)">
    <path fill="#F0F0F0" d="M9 18A9 9 0 1 0 9 0a9 9 0 0 0 0 18Z"/>
    <path fill="#FFDA44" d="m4.865 12.522-2.229 2.842a9.002 9.002 0 0 0 14.648-2.842H4.864Z"/>
    <path fill="#496E2D" d="M17.298 5.51A9.002 9.002 0 0 0 2.636 2.637L4.89 5.511h12.408Z"/>
    <path fill="#000" d="M1.957 6.62v4.728H17.69c.202-.749.31-1.536.31-2.348 0-.824-.111-1.622-.319-2.38H1.957Z"/>
    <path fill="#A2001D" d="M2.636 2.636a9 9 0 0 0 0 12.728L9 9 2.636 2.636Z"/>
    <path fill="#FFDA44" d="m3.643 6.652.582 1.794h1.886L4.586 9.554l.582 1.794-1.525-1.109-1.526 1.109.583-1.794-1.526-1.108H3.06l.583-1.794Z"/>
    <path fill="#F0F0F0" d="M1.937 9h3.411v1.565h-3.41V9Z"/>
    <path fill="#000" d="m5.994 7.206-.553-.554L3.643 8.45 1.844 6.652l-.553.554 1.8 1.796-1.8 1.8.553.546 1.799-1.795 1.798 1.795.553-.546-1.8-1.8 1.8-1.796Z"/>
  </g>
  <defs>
    <clipPath id="a">
      <path fill="#fff" d="M0 0h18v18H0z"/>
    </clipPath>
  </defs>
</svg>
