<svg xmlns="http://www.w3.org/2000/svg" width="18" height="18" fill="none" viewBox="0 0 18 18">
  <g clip-path="url(#a)">
    <path fill="#F0F0F0" d="M9 18A9 9 0 1 0 9 0a9 9 0 0 0 0 18Z"/>
    <path fill="#A2001D" d="M2.636 15.364c.378.378.78.714 1.203 1.01L16.375 3.84a9.047 9.047 0 0 0-2.214-2.214L1.625 14.161c.297.423.634.825 1.011 1.203Z"/>
    <path fill="#0052B4" d="M2.636 2.636A9.003 9.003 0 0 0 1 13.126L13.127 1a9.004 9.004 0 0 0-10.49 1.636Z"/>
    <path fill="#496E2D" d="M15.364 15.364A9.004 9.004 0 0 0 17 4.874L4.873 17a9.004 9.004 0 0 0 10.491-1.636Z"/>
    <path fill="#FFDA44" d="m7.435 5.087-1.009.474.537.977-1.095-.21-.139 1.107-.762-.814-.763.814-.139-1.106-1.095.209.537-.977-1.008-.474 1.008-.474-.537-.977 1.095.21.139-1.107.763.814.762-.814.14 1.106 1.094-.21-.537.978 1.009.474Z"/>
  </g>
  <defs>
    <clipPath id="a">
      <path fill="#fff" d="M0 0h18v18H0z"/>
    </clipPath>
  </defs>
</svg>
