<svg xmlns="http://www.w3.org/2000/svg" width="18" height="18" fill="none" viewBox="0 0 18 18">
  <g clip-path="url(#a)">
    <path fill="#0052B4" d="M9 18A9 9 0 1 0 9 0a9 9 0 0 0 0 18Z"/>
    <path fill="#F0F0F0" d="M12.862 9.628 14.478 9l-1.616-.628-.887-.345-1.442-.56-.56-1.442a3.144 3.144 0 0 1 2.002 2.002l.887.345a3.923 3.923 0 0 0-3.234-3.234L9 3.522l-.628 1.616a3.923 3.923 0 0 0-3.234 3.234L3.522 9l1.616.628a3.922 3.922 0 0 0 3.234 3.234L9 14.478l.628-1.616a3.922 3.922 0 0 0 3.234-3.234ZM9.928 8.072 9 9h3.318l-2.39.928L9 9v3.318l-.928-2.39L9 9H5.682l2.39-.928L9 9V5.682l.928 2.39Zm-1.9-2.047-.561 1.442-1.442.56a3.144 3.144 0 0 1 2.002-2.002ZM6.024 9.973l1.442.56.56 1.442a3.144 3.144 0 0 1-2.002-2.002Zm3.948 2.002.56-1.442 1.442-.56a3.144 3.144 0 0 1-2.002 2.002Z"/>
    <path fill="#0052B4" d="M12.318 9H9l.928.928L12.318 9ZM5.682 9H9l-.928-.928L5.682 9ZM9 12.318V9l-.928.928.928 2.39ZM9 9l.928-.928L9 5.682V9Z"/>
    <path fill="#F0F0F0" d="M8.609 1.174h.782v1.565H8.61V1.174ZM1.174 8.609h1.565v.782H1.174V8.61Zm7.435 6.651h.782v1.566H8.61v-1.565Zm6.651-6.651h1.566v.782h-1.565V8.61Z"/>
  </g>
  <defs>
    <clipPath id="a">
      <path fill="#fff" d="M0 0h18v18H0z"/>
    </clipPath>
  </defs>
</svg>
