<svg xmlns="http://www.w3.org/2000/svg" width="18" height="18" fill="none" viewBox="0 0 18 18">
  <g clip-path="url(#a)">
    <path fill="#0052B4" d="M9 18A9 9 0 1 0 9 0a9 9 0 0 0 0 18Z"/>
    <path fill="#FFDA44" d="M9 18A9 9 0 1 0 9 0a9 9 0 0 0 0 18Z"/>
    <path fill="#0052B4" d="M9 0A9 9 0 0 0 .034 8.217h17.932A9 9 0 0 0 9 0Zm0 18a9 9 0 0 0 8.966-8.217H.034A9 9 0 0 0 9 18Z"/>
    <path fill="#F0F0F0" d="m7.435 12.13-1.009.475.537.976-1.095-.209-.139 1.106-.762-.813-.763.813-.139-1.106-1.095.21.537-.977-1.008-.475 1.008-.474-.537-.977 1.095.21.139-1.106.763.813.762-.813.14 1.106 1.094-.21-.537.977 1.009.474Z"/>
  </g>
  <defs>
    <clipPath id="a">
      <path fill="#fff" d="M0 0h18v18H0z"/>
    </clipPath>
  </defs>
</svg>
