<svg xmlns="http://www.w3.org/2000/svg" width="18" height="18" fill="none" viewBox="0 0 18 18">
  <g clip-path="url(#a)">
    <path fill="#F0F0F0" d="M9 18A9 9 0 1 0 9 0a9 9 0 0 0 0 18Z"/>
    <path fill="#0052B4" d="M17.947 9.978Zm0 0L8.077.047a8.97 8.97 0 0 0-1.305.23C2.88 1.27 0 9 0 9s12.6 8.432 14.037 7.459c.288-.195.564-.406.826-.631l-5.85-5.85h8.934Z"/>
    <path fill="#D80027" d="M15.652 9 6.9.247a9 9 0 1 0 7.182 16.182L6.652 9h9Z"/>
    <path fill="#F0F0F0" d="m8.56 13.289-1.1-.517.586-1.065-1.194.229-.151-1.206-.831.887-.832-.887-.15 1.206-1.194-.229.585 1.065-1.1.517 1.1.517-.585 1.064 1.193-.228.151 1.206.832-.887.831.887.151-1.206 1.194.228-.586-1.064 1.1-.517Zm-.734-8.297-.8-.376.426-.775-.868.166-.11-.877-.604.645-.605-.645-.11.877-.868-.166.426.775-.8.376 1.957.39 1.956-.39Z"/>
    <path fill="#F0F0F0" d="M8.217 4.992a2.348 2.348 0 0 1-4.695 0"/>
  </g>
  <defs>
    <clipPath id="a">
      <path fill="#fff" d="M0 0h18v18H0z"/>
    </clipPath>
  </defs>
</svg>
