<svg xmlns="http://www.w3.org/2000/svg" width="18" height="18" fill="none" viewBox="0 0 18 18">
  <g clip-path="url(#a)">
    <path fill="#FFDA44" d="M18 9A9 9 0 0 1 0 9c0 .002 9-8.999 9-9a9 9 0 0 1 9 9Z"/>
    <path fill="#0052B4" d="M9 4.304V7.34L5.87 4.304H9ZM4.696 9H7.34L4.696 5.478l-.392 2.74.392.782Z"/>
    <path fill="#F0F0F0" d="M8.976 9H9v-.024A6.834 6.834 0 0 1 8.976 9ZM9 4.696V0h-.002A9 9 0 0 0 0 9h4.696V6.356L7.34 9h1.636L9 8.976V7.34L6.356 4.696H9Z"/>
    <path fill="#D80027" d="M9 7.893 5.802 4.696H4.696L9 9V7.893Z"/>
    <path fill="#D80027" d="M4.553 1.174c-.347.198-.68.418-.995.658h.37l-.977.71.373 1.147-.976-.71-.104.076c-.405.46-.765.962-1.07 1.498V9h2.348V3.522H9V1.174H4.553Z"/>
    <path fill="#0052B4" d="M3.845 1.623a9.03 9.03 0 0 0-.287.209l-.607.71-.603.438-.105.076a9.044 9.044 0 0 0-.62.789 1.663 1.663 0 0 0 2.222-2.222Z"/>
    <path fill="#FFDA44" d="m2.243 3.056.105-.076.976.709L2.95 2.54l.976-.709h-.37a9.056 9.056 0 0 0-1.314 1.224ZM6.22 1.565l.195.598h.629l-.509.37.194.597-.508-.37-.509.37.194-.597-.508-.37h.628l.195-.598ZM2.348 5.478l.194.598h.629l-.509.37.194.598-.508-.37-.509.37.194-.598-.508-.37h.629l.194-.598Z"/>
  </g>
  <defs>
    <clipPath id="a">
      <path fill="#fff" d="M0 0h18v18H0z"/>
    </clipPath>
  </defs>
</svg>
