<svg xmlns="http://www.w3.org/2000/svg" width="18" height="18" fill="none" viewBox="0 0 18 18">
  <g clip-path="url(#a)">
    <path fill="#F0F0F0" d="M12.913.893A8.965 8.965 0 0 0 9 0C7.598 0 6.27.32 5.087.893L4.304 9l.783 8.107A8.965 8.965 0 0 0 9 18c1.402 0 2.73-.32 3.913-.893L13.696 9 12.913.893Z"/>
    <path fill="#6DA544" d="M5.087.893A9 9 0 0 0 0 9a9 9 0 0 0 5.087 8.107V.893Zm7.826 0v16.214A9 9 0 0 0 18 9 9 9 0 0 0 12.913.893ZM11.348 11.74 9 4.303 6.652 11.74h1.761v1.957h1.174V11.74h1.76Z"/>
  </g>
  <defs>
    <clipPath id="a">
      <path fill="#fff" d="M0 0h18v18H0z"/>
    </clipPath>
  </defs>
</svg>
