<svg xmlns="http://www.w3.org/2000/svg" width="18" height="18" fill="none" viewBox="0 0 18 18">
  <g clip-path="url(#a)">
    <path fill="#338AF3" d="M9 18A9 9 0 1 0 9 0a9 9 0 0 0 0 18Z"/>
    <path fill="#F3F3F3" d="M8.716 14.667a.586.586 0 0 1-.522-.384.587.587 0 0 1-1.047-.27.588.588 0 0 1-.97-.476.587.587 0 0 1-.856-.661.586.586 0 0 1-.705-.82.587.587 0 0 1-.526-.944.587.587 0 0 1-.324-1.031.586.586 0 0 1-.11-1.075.587.587 0 0 1 .108-1.075.587.587 0 0 1 .321-1.033.588.588 0 0 1 .525-.945.587.587 0 0 1 .703-.821.587.587 0 0 1 .853-.664.587.587 0 0 1 .97-.477.587.587 0 0 1 1.046-.273.587.587 0 0 1 1.08-.056.587.587 0 0 1 1.068.161.587.587 0 0 1 1.015.374.587.587 0 0 1 .918.57.588.588 0 0 1 .784.744.587.587 0 0 1 .62.885.588.588 0 0 1 .43.993.587.587 0 0 1 .219 1.059c.21.088.357.296.358.539V9c0 .242-.147.45-.357.54a.587.587 0 0 1-.217 1.06.588.588 0 0 1-.427.993.587.587 0 0 1-.618.888.588.588 0 0 1-.783.745.587.587 0 0 1-.917.572.588.588 0 0 1-.382.524c-.228.085 0 0 0 0a.588.588 0 0 1-.631-.148.587.587 0 0 1-1.069.164.587.587 0 0 1-.527.33h-.03Z"/>
    <path fill="#338AF3" d="M9 12.913a3.913 3.913 0 1 0 0-7.826 3.913 3.913 0 0 0 0 7.826Z"/>
    <path fill="#BDBCC1" d="M9.857 7.672a.78.78 0 0 0 .317-.628v-.392a.783.783 0 0 0-.783-.782H8.61a.783.783 0 0 0-.783.782v.392a.78.78 0 0 0 .317.628l-.708 7.198s.391.391 1.565.391 1.565-.391 1.565-.391l-.708-7.198Z"/>
    <path fill="#F0F0F0" d="m9 5.87.68 2.092h2.2L10.1 9.255l.68 2.093L9 10.055l-1.78 1.293.68-2.093-1.78-1.293h2.2L9 5.87Z"/>
  </g>
  <defs>
    <clipPath id="a">
      <path fill="#fff" d="M0 0h18v18H0z"/>
    </clipPath>
  </defs>
</svg>
