<svg xmlns="http://www.w3.org/2000/svg" width="18" height="18" fill="none" viewBox="0 0 18 18">
  <g clip-path="url(#a)">
    <path fill="#F0F0F0" d="M9 18A9 9 0 1 0 9 0a9 9 0 0 0 0 18Z"/>
    <path fill="#D80027" d="M2.178 3.13c-.316.367-.603.76-.857 1.174h15.358a9.03 9.03 0 0 0-.856-1.174H2.178Zm0 11.74h13.644c.316-.367.603-.76.857-1.174H1.321c.254.414.54.807.857 1.174Zm5.67-7.516.739 1.018 1.196-.388L9.043 9l.738 1.017-1.195-.389-.74 1.017.001-1.258L6.652 9l1.196-.388V7.354Z"/>
    <path fill="#D80027" d="M5.833 11.543a2.543 2.543 0 1 1 1.21-4.78 3.13 3.13 0 1 0 0 4.476c-.36.194-.772.304-1.21.304Z"/>
  </g>
  <defs>
    <clipPath id="a">
      <path fill="#fff" d="M0 0h18v18H0z"/>
    </clipPath>
  </defs>
</svg>
