<svg xmlns="http://www.w3.org/2000/svg" width="18" height="18" fill="none" viewBox="0 0 18 18">
  <g clip-path="url(#a)">
    <path fill="#F0F0F0" d="M9 18A9 9 0 1 0 9 0a9 9 0 0 0 0 18Z"/>
    <path fill="#0052B4" d="M9 0a8.98 8.98 0 0 0-6.822 3.13h13.644A8.979 8.979 0 0 0 9 0Zm6.822 14.87H2.178A8.98 8.98 0 0 0 9 18a8.98 8.98 0 0 0 6.822-3.13Z"/>
    <path fill="#D80027" d="M16.679 4.304H1.321A8.957 8.957 0 0 0 0 9c0 1.72.483 3.329 1.321 4.696h15.358A8.957 8.957 0 0 0 18 9c0-1.72-.483-3.329-1.321-4.696Z"/>
    <path fill="#F0F0F0" d="M5.537 12.463a3.463 3.463 0 1 0 0-6.926 3.463 3.463 0 0 0 0 6.926Z"/>
    <path fill="#D80027" d="m5.537 5.537.777 2.391h2.518L6.794 9.406l.783 2.399-2.04-1.485L3.5 11.802l.78-2.396-2.037-1.478H4.76l.777-2.391Z"/>
  </g>
  <defs>
    <clipPath id="a">
      <path fill="#fff" d="M0 0h18v18H0z"/>
    </clipPath>
  </defs>
</svg>
