<svg xmlns="http://www.w3.org/2000/svg" width="18" height="18" fill="none" viewBox="0 0 18 18">
  <g clip-path="url(#a)">
    <path fill="#F0F0F0" d="M9 18A9 9 0 1 0 9 0a9 9 0 0 0 0 18Z"/>
    <path fill="#D80027" d="M0 9a8.998 8.998 0 0 0 4.696 7.906V1.094A8.998 8.998 0 0 0 0 9Z"/>
    <path fill="#D80027" d="M17.44 12.13A8.98 8.98 0 0 0 18 9a8.98 8.98 0 0 0-.56-3.13H.56A8.98 8.98 0 0 0 0 9c0 1.1.198 2.155.56 3.13l8.44.783 8.44-.783Z"/>
    <path fill="#6DA544" d="M9 18a9.003 9.003 0 0 0 8.44-5.87H.56A9.003 9.003 0 0 0 9 18Z"/>
    <path fill="#D80027" d="M0 9c0 4.158 2.82 7.657 6.652 8.69V.31C2.82 1.343 0 4.842 0 9Z"/>
    <path fill="#F0F0F0" d="m5.506 3.96-.83-.83-.553.554-.554-.554-.83.83.554.554-.554.553.83.83.554-.553.553.553.83-.83-.553-.553.553-.554Z"/>
  </g>
  <defs>
    <clipPath id="a">
      <path fill="#fff" d="M0 0h18v18H0z"/>
    </clipPath>
  </defs>
</svg>
