<svg xmlns="http://www.w3.org/2000/svg" width="18" height="18" fill="none" viewBox="0 0 18 18">
  <g clip-path="url(#a)">
    <path fill="#F0F0F0" d="M9 18A9 9 0 1 0 9 0a9 9 0 0 0 0 18Z"/>
    <path fill="#F0F0F0" d="M0 9a8.998 8.998 0 0 0 4.696 7.906V1.094A8.998 8.998 0 0 0 0 9Z"/>
    <path fill="#496E2D" d="M9 0a8.96 8.96 0 0 0-4.304 1.094v15.812A9 9 0 1 0 9 0Z"/>
    <path fill="#F0F0F0" d="M12.848 10.488a2.543 2.543 0 1 1-1.82-4.584 3.13 3.13 0 1 0 2.621 3.628 2.52 2.52 0 0 1-.801.956ZM12.8 5.87l.64.69.856-.395-.46.823.642.691-.925-.182-.46.824-.112-.937-.925-.182.856-.396-.113-.936Z"/>
  </g>
  <defs>
    <clipPath id="a">
      <path fill="#fff" d="M0 0h18v18H0z"/>
    </clipPath>
  </defs>
</svg>
