<svg xmlns="http://www.w3.org/2000/svg" width="18" height="18" fill="none" viewBox="0 0 18 18">
  <g clip-path="url(#a)">
    <path fill="#000" d="M15.364 15.364A9 9 0 1 1 2.636 2.636c3.515-3.515 8.66-2.961 12.175.553 3.514 3.515 4.068 8.66.553 12.175Z"/>
    <path fill="#A2001D" d="M2.636 2.636a9 9 0 0 1 12.728 12.728"/>
    <path fill="#F0F0F0" d="m6.878 12.13.146.449h.471l-.381.277.146.448-.382-.277-.381.277.145-.448-.381-.277h.471l.146-.449ZM5.674 7.826l.243.747h.786l-.636.462.243.748-.636-.462-.636.462.243-.748-.635-.462h.785l.243-.747Zm0 5.478.243.748h.786l-.636.462.243.747-.636-.462-.636.462.243-.747-.635-.462h.785l.243-.748Zm2.297-3.521.243.747H9l-.636.462.243.747-.636-.462-.635.462.243-.747-.636-.462h.786l.242-.747Zm-4.594 0 .242.747h.786l-.636.462.243.747-.635-.462-.636.462.243-.747-.636-.462h.786l.243-.747Z"/>
    <path fill="#FFDA44" d="M15.066 6.664a2.33 2.33 0 0 0-1.486-.68l1.68-1.308a3.123 3.123 0 0 0-2.442-.908 2.337 2.337 0 0 0-.6-1.029l-.665 1.328a.977.977 0 1 0-1.328 1.329l-1.328.664c.296.296.652.496 1.03.6a3.12 3.12 0 0 0 .907 2.443l1.469-1.888a.583.583 0 0 1 .826.003.583.583 0 0 1 0 .83l.554.553a1.36 1.36 0 0 0 .4-.968c0-.3-.095-.584-.27-.82a1.567 1.567 0 0 1 .7 2.618l.553.554a2.333 2.333 0 0 0 .688-1.66c0-.628-.244-1.217-.688-1.66Z"/>
  </g>
  <defs>
    <clipPath id="a">
      <path fill="#fff" d="M0 0h18v18H0z"/>
    </clipPath>
  </defs>
</svg>
