<svg xmlns="http://www.w3.org/2000/svg" width="18" height="18" fill="none" viewBox="0 0 18 18">
  <g clip-path="url(#a)">
    <path fill="#F0F0F0" d="M9 18A9 9 0 1 0 9 0a9 9 0 0 0 0 18Z"/>
    <path fill="#D80027" d="M9 0v9l-6.364 6.364A9 9 0 0 0 18 9c0-4.97-9-9-9-9Z"/>
    <path fill="#0052B4" d="M9 0a8.972 8.972 0 0 0-6.364 2.636L9 9h9a9 9 0 0 0-9-9Z"/>
    <path fill="#FFDA44" d="m6.163 9-1.1-.517.586-1.065-1.194.229-.151-1.206-.831.887-.832-.887-.151 1.206-1.194-.229.586 1.065L.782 9l1.1.517-.586 1.065 1.194-.229.151 1.206.832-.887.831.887.151-1.206 1.194.229-.586-1.065L6.163 9ZM2.4 3.522l.366.511.6-.19-.374.506.366.511-.597-.198-.373.505.005-.628-.597-.199.6-.19.004-.628Zm0 9.31.366.512.6-.19-.374.506.366.511-.597-.199-.373.506.005-.628-.597-.2.6-.189.004-.629Zm5.217-4.655-.366.511-.599-.19.373.506-.365.512.596-.199.373.506-.004-.629.596-.198-.6-.19-.004-.629Z"/>
  </g>
  <defs>
    <clipPath id="a">
      <path fill="#fff" d="M0 0h18v18H0z"/>
    </clipPath>
  </defs>
</svg>
