<svg xmlns="http://www.w3.org/2000/svg" width="18" height="18" fill="none" viewBox="0 0 18 18">
  <g clip-path="url(#a)">
    <path fill="#0052B4" d="M18 9A9 9 0 0 1 0 9c0 .002 9-8.999 9-9a9 9 0 0 1 9 9Z"/>
    <path fill="#F0F0F0" d="M8.976 9H9v-.024A6.834 6.834 0 0 1 8.976 9ZM9 4.696V0h-.002A9 9 0 0 0 0 9h4.696V6.356L7.34 9h1.636L9 8.976V7.34L6.356 4.696H9Z"/>
    <path fill="#D80027" d="M4.553 1.174a9.043 9.043 0 0 0-3.379 3.38V9h2.348V3.522H9V1.174H4.553Z"/>
    <path fill="#D80027" d="M9 7.893 5.802 4.696H4.696L9 9V7.893Z"/>
    <path fill="#ACABB1" d="m14.087 5.478-1.174.392-1.174-.392-.391-.978.391-.978h2.348l-.391.978.391.978Z"/>
    <path fill="#338AF3" d="M10.174 5.478v4.305c0 2.096 2.74 2.739 2.74 2.739s2.738-.643 2.738-2.74V5.479h-5.478Z"/>
    <path fill="#6DA544" d="M10.42 10.802c.674 1.293 2.493 1.72 2.493 1.72s1.819-.427 2.492-1.72l-2.492-4.15-2.492 4.15Z"/>
    <path fill="#FFDA44" d="m15.652 9.74-2.739-4.262-2.739 4.261v.044c0 .388.094.726.247 1.02l2.492-3.878 2.492 3.877c.153-.293.247-.631.247-1.02V9.74Z"/>
  </g>
  <defs>
    <clipPath id="a">
      <path fill="#fff" d="M0 0h18v18H0z"/>
    </clipPath>
  </defs>
</svg>
