<svg xmlns="http://www.w3.org/2000/svg" width="18" height="18" fill="none" viewBox="0 0 18 18">
  <g clip-path="url(#a)">
    <path fill="#F0F0F0" d="M9 18A9 9 0 1 0 9 0a9 9 0 0 0 0 18Z"/>
    <path fill="#751A46" d="M18 9A9 9 0 0 0 4.21 1.38l1.973.838-2.661 1.13 2.66 1.131-2.66 1.13 2.66 1.131-2.66 1.13L6.182 9l-2.66 1.131 2.66 1.13-2.66 1.13 2.66 1.131-2.66 1.13 2.66 1.131-1.971.838A9 9 0 0 0 18 9Z"/>
  </g>
  <defs>
    <clipPath id="a">
      <path fill="#fff" d="M0 0h18v18H0z"/>
    </clipPath>
  </defs>
</svg>
