<svg xmlns="http://www.w3.org/2000/svg" width="18" height="18" fill="none" viewBox="0 0 18 18">
  <g clip-path="url(#a)">
    <path fill="#FCFCFC" d="M9 18A9 9 0 1 0 9 0a9 9 0 0 0 0 18Z"/>
    <path fill="#D80027" d="M11.74 7.435v.782h1.073a4.717 4.717 0 0 1-1.739 1.474.978.978 0 0 0-1.66.464 4.747 4.747 0 0 1-.83 0 .978.978 0 0 0-1.658-.464 4.718 4.718 0 0 1-1.74-1.474h1.075v-.782H3.52a5.478 5.478 0 0 0 10.957 0H11.74Z"/>
  </g>
  <defs>
    <clipPath id="a">
      <path fill="#fff" d="M0 0h18v18H0z"/>
    </clipPath>
  </defs>
</svg>
