<svg xmlns="http://www.w3.org/2000/svg" width="18" height="18" fill="none" viewBox="0 0 18 18">
  <g clip-path="url(#a)">
    <path fill="#FFDA44" d="m4.879 17.003 6.611-5.513 5.513-6.611a9.04 9.04 0 0 0-3.877-3.88L6.51 6.51 1 13.127a9.039 9.039 0 0 0 3.879 3.877Z"/>
    <path fill="#D80027" d="M15.364 15.364a9.004 9.004 0 0 0 1.637-10.49L4.873 17a9.004 9.004 0 0 0 10.491-1.637Z"/>
    <path fill="#6DA544" d="M2.636 2.636a9.004 9.004 0 0 0-1.637 10.49L13.127 1A9.004 9.004 0 0 0 2.636 2.636Z"/>
  </g>
  <defs>
    <clipPath id="a">
      <path fill="#fff" d="M0 0h18v18H0z"/>
    </clipPath>
  </defs>
</svg>
