<svg xmlns="http://www.w3.org/2000/svg" width="18" height="18" fill="none" viewBox="0 0 18 18">
  <g clip-path="url(#a)">
    <path fill="#FFDA44" d="M9 18A9 9 0 1 0 9 0a9 9 0 0 0 0 18Z"/>
    <path fill="#D80027" d="M10.369 17.896a8.95 8.95 0 0 0 3.953-1.638L9 9l1.369 8.896ZM7.631.104a8.953 8.953 0 0 0-3.953 1.638L9 9 7.631.104ZM3.678 16.258a8.953 8.953 0 0 0 3.953 1.639L9 9l-5.322 7.258ZM1.742 3.678A8.953 8.953 0 0 0 .104 7.63L9 9 1.742 3.678ZM.104 10.369a8.951 8.951 0 0 0 1.638 3.953L9 9 .104 10.369Zm17.792-2.738a8.952 8.952 0 0 0-1.638-3.953L9 9l8.896-1.369Zm-3.574-5.889A8.952 8.952 0 0 0 10.37.104L9 9l5.322-7.258Zm1.936 12.58a8.954 8.954 0 0 0 1.639-3.953L9 9l7.258 5.322Z"/>
    <path fill="#D80027" d="M9 12.13a3.13 3.13 0 1 0 0-6.26 3.13 3.13 0 0 0 0 6.26Z"/>
    <path fill="#FFDA44" d="M9 11.348a2.348 2.348 0 1 0 0-4.696 2.348 2.348 0 0 0 0 4.696Z"/>
  </g>
  <defs>
    <clipPath id="a">
      <path fill="#fff" d="M0 0h18v18H0z"/>
    </clipPath>
  </defs>
</svg>
