<svg xmlns="http://www.w3.org/2000/svg" width="18" height="18" fill="none" viewBox="0 0 18 18">
  <g clip-path="url(#a)">
    <path fill="#F0F0F0" d="M9 18A9 9 0 1 0 9 0a9 9 0 0 0 0 18Z"/>
    <path fill="#0052B4" d="M17.44 12.13A8.98 8.98 0 0 0 18 9a8.98 8.98 0 0 0-.56-3.13H.56A8.98 8.98 0 0 0 0 9c0 1.1.198 2.155.56 3.13l8.44.783 8.44-.783Z"/>
    <path fill="#D80027" d="M9 18a9.003 9.003 0 0 0 8.44-5.87H.56A9.003 9.003 0 0 0 9 18Z"/>
  </g>
  <defs>
    <clipPath id="a">
      <path fill="#fff" d="M0 0h18v18H0z"/>
    </clipPath>
  </defs>
</svg>
