<svg xmlns="http://www.w3.org/2000/svg" width="18" height="18" fill="none" viewBox="0 0 18 18">
  <g clip-path="url(#a)">
    <path fill="#FFDA44" d="M0 9a8.96 8.96 0 0 0 1.094 4.304L9 14.087l7.906-.783A8.96 8.96 0 0 0 18 9l-9-.783L0 9Z"/>
    <path fill="#338AF3" d="M16.906 4.696A8.998 8.998 0 0 0 9 0a8.998 8.998 0 0 0-9 9h18a8.96 8.96 0 0 0-1.094-4.304Z"/>
    <path fill="#496E2D" d="M9 18a8.998 8.998 0 0 0 7.906-4.696H1.094A8.998 8.998 0 0 0 9 18Z"/>
    <path fill="#FFDA44" d="m10.174 5.267 1.1.517-.586 1.065 1.193-.229.152 1.206.83-.887.832.887.152-1.206 1.193.229-.585-1.065 1.099-.517-1.1-.517.586-1.064-1.193.228-.152-1.206-.831.887-.831-.887-.152 1.206-1.193-.228.585 1.064-1.099.517Z"/>
  </g>
  <defs>
    <clipPath id="a">
      <path fill="#fff" d="M0 0h18v18H0z"/>
    </clipPath>
  </defs>
</svg>
