<svg xmlns="http://www.w3.org/2000/svg" width="18" height="18" fill="none" viewBox="0 0 18 18">
  <g clip-path="url(#a)">
    <path fill="#D80027" d="M18 9A9 9 0 0 1 0 9l9-9a9 9 0 0 1 9 9Z"/>
    <path fill="#0052B4" d="M9 9V0a9 9 0 0 0-9 9h9Z"/>
    <path fill="#F0F0F0" d="m7.209 5.87.146.448h.471l-.381.277.145.449-.381-.278-.382.278.146-.449-.381-.277h.471l.146-.448ZM4.841 2.348l.243.747h.786l-.636.462.243.747-.636-.462-.636.462.243-.747-.636-.462h.786l.243-.747Zm2.348.782.243.748h.785l-.635.462.242.747-.635-.462-.636.462.243-.747-.636-.462h.786l.243-.748ZM5.333 6.261l.243.747h.786l-.636.462.243.747-.636-.461-.636.461.243-.747-.636-.462h.786l.243-.747ZM3.276 4.304l.243.748h.785l-.635.462.242.747-.635-.462-.636.462.243-.747-.636-.462h.786l.243-.748Z"/>
  </g>
  <defs>
    <clipPath id="a">
      <path fill="#fff" d="M0 0h18v18H0z"/>
    </clipPath>
  </defs>
</svg>
