<svg xmlns="http://www.w3.org/2000/svg" width="18" height="18" fill="none" viewBox="0 0 18 18">
  <g clip-path="url(#a)">
    <path fill="#338AF3" d="M18 9A9 9 0 0 1 0 9c.391 0 9-1.174 9-1.174L18 9Z"/>
    <path fill="#F0F0F0" d="M0 9a9 9 0 0 1 18 0"/>
    <path fill="#6DA544" d="M12.572 6.21 9 9.783 5.428 6.21a4.28 4.28 0 0 0-.732 2.399v1.174a4.312 4.312 0 0 0 2.908 4.071c-.226.442-.188.994.143 1.407l1.279-1.025 1.28 1.025c.334-.418.369-.978.135-1.422a4.312 4.312 0 0 0 2.863-4.056V8.609a4.28 4.28 0 0 0-.732-2.399Z"/>
    <path fill="#FFDA44" d="M9 12.913a3.134 3.134 0 0 1-3.13-3.13V8.609A3.134 3.134 0 0 1 9 5.479a3.134 3.134 0 0 1 3.13 3.13v1.174A3.134 3.134 0 0 1 9 12.913Z"/>
    <path fill="#338AF3" d="M10.957 9.783V8.609A1.959 1.959 0 0 0 9 6.652 1.959 1.959 0 0 0 7.043 8.61v1.174l1.957.39 1.957-.39Z"/>
    <path fill="#6DA544" d="M7.043 9.783A1.96 1.96 0 0 0 9 11.739a1.959 1.959 0 0 0 1.957-1.956H7.043Z"/>
    <path fill="#FFDA44" d="M11.348 5.478a1.174 1.174 0 0 0-1.957-.874v-.691h.392V3.13H9.39v-.39h-.78v.39h-.392v.783h.392v.69a1.174 1.174 0 0 0-1.565 1.75v.69h3.913v-.69a1.17 1.17 0 0 0 .39-.875Z"/>
  </g>
  <defs>
    <clipPath id="a">
      <path fill="#fff" d="M0 0h18v18H0z"/>
    </clipPath>
  </defs>
</svg>
