<svg xmlns="http://www.w3.org/2000/svg" width="18" height="18" fill="none" viewBox="0 0 18 18">
  <g clip-path="url(#a)">
    <path fill="#FFDA44" d="M9 18A9 9 0 1 0 9 0a9 9 0 0 0 0 18Z"/>
    <path fill="#6DA544" d="M5.478 5.87H17.44A9.003 9.003 0 0 0 2.636 2.636L5.478 5.87Zm0 6.26H17.44a9.003 9.003 0 0 1-14.804 3.234l2.842-3.234Z"/>
    <path fill="#D80027" d="M2.636 2.636a9 9 0 0 0 0 12.728L9 9 2.636 2.636Z"/>
    <path fill="#000" d="m11.428 7.435.389 1.196h1.257l-1.017.739.389 1.195-1.018-.739-1.017.74.389-1.196-1.017-.74h1.257l.389-1.195Zm3.913 0 .389 1.196h1.257l-1.017.739.388 1.195-1.017-.739-1.017.74.389-1.196-1.017-.74h1.257l.388-1.195Z"/>
  </g>
  <defs>
    <clipPath id="a">
      <path fill="#fff" d="M0 0h18v18H0z"/>
    </clipPath>
  </defs>
</svg>
