<svg xmlns="http://www.w3.org/2000/svg" width="18" height="18" fill="none" viewBox="0 0 18 18">
  <g clip-path="url(#a)">
    <path fill="#F0F0F0" d="M9 18A9 9 0 1 0 9 0a9 9 0 0 0 0 18Z"/>
    <path fill="#D80027" d="M17.924 7.826h-7.75V.076a9.089 9.089 0 0 0-2.348 0v7.75H.076a9.09 9.09 0 0 0 0 2.348h7.75v7.75a9.095 9.095 0 0 0 2.348 0v-7.75h7.75a9.094 9.094 0 0 0 0-2.348Z"/>
    <path fill="#000" d="M13.305 3.13c-.73 0-1.343.5-1.516 1.174l1.516.392 1.515-.392a1.566 1.566 0 0 0-1.515-1.174ZM11.74 6.652l1.956.391v-.831c.55-.142.983-.575 1.124-1.125l-1.516-.391h-1.956l.391 1.174v.782Z"/>
    <path fill="#ACABB1" d="M14.82 4.304h-3.472V5.87h.391v-.783h3.081a1.567 1.567 0 0 0 0-.783Z"/>
    <path fill="#000" d="M5.087 3.13c-.73 0-1.342.5-1.516 1.174l1.516.392 1.516-.392A1.566 1.566 0 0 0 5.087 3.13Z"/>
    <path fill="#000" d="m3.522 6.652 1.956.391v-.831a1.57 1.57 0 0 0 1.125-1.125l-1.516-.391H3.13l.392 1.174v.782Z"/>
    <path fill="#ACABB1" d="M6.603 4.304H3.13V5.87h.392v-.783h3.08a1.567 1.567 0 0 0 0-.783Z"/>
    <path fill="#000" d="M13.305 10.957c-.73 0-1.343.498-1.516 1.173l1.516.392 1.515-.392a1.566 1.566 0 0 0-1.515-1.174Zm-1.565 3.521 1.956.392v-.832c.55-.142.983-.575 1.124-1.125l-1.516-.391h-1.956l.391 1.174v.782Z"/>
    <path fill="#ACABB1" d="M14.82 12.13h-3.472v1.566h.391v-.783h3.081a1.568 1.568 0 0 0 0-.783Z"/>
    <path fill="#000" d="M5.087 10.957c-.73 0-1.342.498-1.516 1.173l1.516.392 1.516-.392a1.566 1.566 0 0 0-1.516-1.174Z"/>
    <path fill="#000" d="m3.522 14.478 1.956.392v-.832a1.57 1.57 0 0 0 1.125-1.125l-1.516-.391H3.13l.392 1.174v.782Z"/>
    <path fill="#ACABB1" d="M6.603 12.13H3.13v1.566h.392v-.783h3.08a1.567 1.567 0 0 0 0-.783Z"/>
  </g>
  <defs>
    <clipPath id="a">
      <path fill="#fff" d="M0 0h18v18H0z"/>
    </clipPath>
  </defs>
</svg>
