<svg xmlns="http://www.w3.org/2000/svg" width="18" height="18" fill="none" viewBox="0 0 18 18">
  <g clip-path="url(#a)">
    <path fill="#6DA544" d="M9 18A9 9 0 1 0 9 0a9 9 0 0 0 0 18Z"/>
    <path fill="#F0F0F0" d="M5.087 10.76c0 .65.526 1.175 1.174 1.175h3.522c0 .54.438.978.978.978h1.174c.54 0 .978-.438.978-.978V10.76H5.087Zm7.923-5.673v2.739a.784.784 0 0 1-.782.783v1.174a1.959 1.959 0 0 0 1.957-1.957v-2.74H13.01ZM4.598 7.826a.783.783 0 0 1-.783.783v1.174a1.959 1.959 0 0 0 1.957-1.957v-2.74H4.598v2.74Z"/>
    <path fill="#F0F0F0" d="M11.25 5.087h1.174v2.739H11.25v-2.74ZM9.49 6.652a.196.196 0 0 1-.392 0V5.087H7.924v1.565a.196.196 0 0 1-.391 0V5.087H6.359v1.565A1.371 1.371 0 0 0 8.51 7.775a1.361 1.361 0 0 0 .955.235.783.783 0 0 1-.76.599v1.174a1.959 1.959 0 0 0 1.957-1.957V5.087H9.489v1.565Z"/>
    <path fill="#F0F0F0" d="M6.359 8.609h1.76v1.174H6.36V8.609Z"/>
  </g>
  <defs>
    <clipPath id="a">
      <path fill="#fff" d="M0 0h18v18H0z"/>
    </clipPath>
  </defs>
</svg>
