<svg xmlns="http://www.w3.org/2000/svg" width="18" height="18" fill="none" viewBox="0 0 18 18">
  <g clip-path="url(#a)">
    <path fill="#F0F0F0" d="M9 18A9 9 0 1 0 9 0a9 9 0 0 0 0 18Z"/>
    <path fill="#0052B4" d="M14.48 1.86A8.96 8.96 0 0 0 9 0a8.96 8.96 0 0 0-5.48 1.86L9 7.34l5.48-5.48ZM1.86 3.52A8.96 8.96 0 0 0 0 9a8.96 8.96 0 0 0 1.86 5.48L7.34 9 1.86 3.52Zm1.66 12.62A8.96 8.96 0 0 0 9 18a8.96 8.96 0 0 0 5.48-1.86L9 10.66l-5.48 5.48Zm12.62-1.66A8.96 8.96 0 0 0 18 9a8.96 8.96 0 0 0-1.86-5.48L10.66 9l5.48 5.48Z"/>
  </g>
  <defs>
    <clipPath id="a">
      <path fill="#fff" d="M0 0h18v18H0z"/>
    </clipPath>
  </defs>
</svg>
