<svg xmlns="http://www.w3.org/2000/svg" width="18" height="18" fill="none" viewBox="0 0 18 18">
  <g clip-path="url(#a)">
    <path fill="#FFDA44" d="M12.913.893A8.964 8.964 0 0 0 9 0C7.598 0 6.27.32 5.087.893L4.304 9l.783 8.107A8.965 8.965 0 0 0 9 18c1.402 0 2.73-.32 3.913-.893L13.696 9 12.913.893Z"/>
    <path fill="#496E2D" d="m9 5.87.777 2.39h2.515l-2.035 1.48.777 2.391L9 10.652 6.966 12.13l.777-2.391L5.708 8.26h2.515L9 5.87ZM5.087.893A9 9 0 0 0 0 9a9 9 0 0 0 5.087 8.107V.893Z"/>
    <path fill="#D80027" d="M12.913.893v16.214A9 9 0 0 0 18 9 9 9 0 0 0 12.913.893Z"/>
  </g>
  <defs>
    <clipPath id="a">
      <path fill="#fff" d="M0 0h18v18H0z"/>
    </clipPath>
  </defs>
</svg>
