<svg xmlns="http://www.w3.org/2000/svg" width="18" height="18" fill="none" viewBox="0 0 18 18">
  <g clip-path="url(#a)">
    <path fill="#F0F0F0" d="M9 18A9 9 0 1 0 9 0a9 9 0 0 0 0 18Z"/>
    <path fill="#0052B4" d="M9 0A9 9 0 0 0 .56 12.13h16.88A9 9 0 0 0 9 0Z"/>
    <path fill="#D80027" d="M9 0A9.003 9.003 0 0 0 .56 5.87h16.88A9.003 9.003 0 0 0 9 0Z"/>
    <path fill="#D80027" d="M2.327 5.087v4.49c0 2.553 3.337 3.336 3.337 3.336S9 12.13 9 9.577v-4.49H2.327Z"/>
    <path fill="#FFDA44" d="M3.707 5.87H7.62V4.304l-.783.392-1.173-1.174L4.49 4.696l-.783-.392V5.87Zm4.51 4.332L5.674 7.658 3.13 10.202l.83.83 1.714-1.714 1.713 1.714.83-.83Z"/>
    <path fill="#F0F0F0" d="M8.217 7.826H7.031a.783.783 0 1 0-1.367-.76.782.782 0 1 0-1.367.76H3.13c0 .432.377.783.809.783h-.026c0 .432.35.782.783.782 0 .383.274.7.637.769l-.616 1.392a2.536 2.536 0 0 0 1.914 0l-.617-1.392a.782.782 0 0 0 .638-.769c.432 0 .783-.35.783-.782h-.026c.432 0 .808-.35.808-.783Z"/>
  </g>
  <defs>
    <clipPath id="a">
      <path fill="#fff" d="M0 0h18v18H0z"/>
    </clipPath>
  </defs>
</svg>
