<svg xmlns="http://www.w3.org/2000/svg" width="18" height="18" fill="none" viewBox="0 0 18 18">
  <g clip-path="url(#a)">
    <path fill="#F0F0F0" d="M9 18A9 9 0 1 0 9 0a9 9 0 0 0 0 18Z"/>
    <path fill="#FFDA44" d="M15.075 2.36A8.967 8.967 0 0 0 9 0a9.09 9.09 0 0 0-1.132.07L3.522 5.088.285 11.255c.209.81.529 1.576.941 2.282L9 9l6.075-6.64Z"/>
    <path fill="#6DA544" d="M16.493 13.986 3.9 16.416A8.958 8.958 0 0 0 9 18a8.991 8.991 0 0 0 7.493-4.014Z"/>
    <path fill="#D80027" d="M15.077 2.361 1.23 13.545a9.032 9.032 0 0 0 1.29 1.701L18 9a8.976 8.976 0 0 0-2.923-6.639Z"/>
    <path fill="#0052B4" d="M0 9c0 .779.099 1.534.285 2.255L7.868.07A9.002 9.002 0 0 0 0 9Z"/>
  </g>
  <defs>
    <clipPath id="a">
      <path fill="#fff" d="M0 0h18v18H0z"/>
    </clipPath>
  </defs>
</svg>
