<svg xmlns="http://www.w3.org/2000/svg" width="18" height="18" fill="none" viewBox="0 0 18 18">
  <g clip-path="url(#a)">
    <path fill="#F0F0F0" d="M9 18A9 9 0 1 0 9 0a9 9 0 0 0 0 18Z"/>
    <path fill="#D80027" d="M0 9a9 9 0 0 1 18 0"/>
    <path fill="#F0F0F0" d="M5.478 4.696A2.74 2.74 0 0 1 7.63 2.02a2.74 2.74 0 1 0 0 5.35 2.74 2.74 0 0 1-2.152-2.674ZM9 2.152l.194.598h.629l-.509.37.195.597L9 3.348l-.509.37.195-.598-.509-.37h.629L9 2.152Z"/>
    <path fill="#F0F0F0" d="m7.475 3.326.194.598h.629l-.509.37.195.597-.509-.37-.509.37.195-.598-.509-.37h.629l.194-.597Zm3.05 0 .194.598h.629l-.509.37.194.597-.508-.37-.509.37.195-.598-.509-.37h.629l.194-.597Zm-.587 1.761.194.598h.629l-.509.37.195.597-.509-.37-.509.37.195-.598-.509-.37h.629l.194-.597Zm-1.876 0 .194.598h.629l-.509.37.195.597-.509-.37-.509.37.195-.598-.509-.37h.629l.194-.597Z"/>
  </g>
  <defs>
    <clipPath id="a">
      <path fill="#fff" d="M0 0h18v18H0z"/>
    </clipPath>
  </defs>
</svg>
