<svg xmlns="http://www.w3.org/2000/svg" width="18" height="18" fill="none" viewBox="0 0 18 18">
  <g clip-path="url(#a)">
    <path fill="#D80027" d="M8.217 9.783S2.641 2.635 2.636 2.636A9 9 0 0 1 18 9l-9.783.783Z"/>
    <path fill="#0052B4" d="M8.217 9s-5.576 6.365-5.581 6.364A9 9 0 0 0 18 9H8.217Z"/>
    <path fill="#F0F0F0" d="M2.636 2.636a9 9 0 0 0 0 12.728L9 9 2.636 2.636Z"/>
    <path fill="#FFDA44" d="M.987 9a2.544 2.544 0 1 0 5.07 0H.987Zm2.535-1.174a.783.783 0 1 0 0-1.565.783.783 0 0 0 0 1.565Z"/>
    <path fill="#D80027" d="M1.761 6.848V9.39c0 1.348 1.76 1.761 1.76 1.761s1.762-.413 1.762-1.76V6.847H1.76Z"/>
    <path fill="#338AF3" d="M3.523 10.333c-.327-.117-.98-.418-.98-.942v-1.76H4.5v1.76c0 .526-.652.825-.977.942Z"/>
    <path fill="#F3F3F3" d="M3.913 8.609v-.392l-.391-.195-.392.195v.392l-.195.195v.783h1.174v-.783l-.196-.195Z"/>
  </g>
  <defs>
    <clipPath id="a">
      <path fill="#fff" d="M0 0h18v18H0z"/>
    </clipPath>
  </defs>
</svg>
