<svg xmlns="http://www.w3.org/2000/svg" width="18" height="18" fill="none" viewBox="0 0 18 18">
  <g clip-path="url(#a)">
    <path fill="#D80027" d="M3.927 16.435A8.958 8.958 0 0 0 9 18a8.958 8.958 0 0 0 5.073-1.565L9 15.652l-5.073.783Zm10.146-14.87A8.958 8.958 0 0 0 9 0a8.958 8.958 0 0 0-5.073 1.565L9 2.348l5.073-.783Z"/>
    <path fill="#D80027" d="M3.927 16.435A8.958 8.958 0 0 0 9 18a8.958 8.958 0 0 0 5.073-1.565L9 15.652l-5.073.783Zm10.146-14.87A8.958 8.958 0 0 0 9 0a8.958 8.958 0 0 0-5.073 1.565L9 2.348l5.073-.783Z"/>
    <path fill="#0052B4" d="M17.977 8.413c-.213-2.778-1.9-5.478-3.904-6.848H3.927A8.993 8.993 0 0 0 .02 8.413L9 9l8.977-.587ZM.019 9.587a8.993 8.993 0 0 0 3.908 6.848h10.146a8.992 8.992 0 0 0 3.908-6.848L9 9l-8.981.587Z"/>
    <path fill="#D80027" d="M17.977 8.413h-8.39v-7.24H8.413v7.24H.02a9.145 9.145 0 0 0 0 1.174h8.394v7.24h1.174v-7.24h8.394A9.13 9.13 0 0 0 18 9a7.67 7.67 0 0 0-.023-.587Z"/>
    <path fill="#F0F0F0" d="M3.522 9 9 5.557 14.478 9 9 12.443 3.522 9Z"/>
    <path fill="#6DA544" d="M5.87 10.565h7.043l-1.565-2.348-.783.783-.782-.391L9 9.783H7.435L6.652 9l-.782 1.565Z"/>
    <path fill="#FFDA44" d="m9 6.652.194.598h.629l-.509.37.195.597L9 7.847l-.509.37.195-.598-.509-.37h.629L9 6.653Z"/>
    <path fill="#D80027" d="M9 4.573 1.957 9 9 13.427 16.044 9 9 4.573ZM4.162 9 9 5.96 13.838 9 9 12.04 4.162 9Z"/>
  </g>
  <defs>
    <clipPath id="a">
      <path fill="#fff" d="M0 0h18v18H0z"/>
    </clipPath>
  </defs>
</svg>
