<svg xmlns="http://www.w3.org/2000/svg" width="18" height="18" fill="none" viewBox="0 0 18 18">
  <g clip-path="url(#a)">
    <path fill="#496E2D" d="M15.364 15.364a9 9 0 0 0 .401-12.3L9 9l-5.935 6.765a9 9 0 0 0 12.3-.4Z"/>
    <path fill="#0052B4" d="M2.636 2.636a9 9 0 0 1 12.3-.401L9 9l-6.765 5.935a9 9 0 0 1 .4-12.3Z"/>
    <path fill="#FFDA44" d="m14.935 2.235-12.7 12.7a9.045 9.045 0 0 0 .83.83l12.7-12.7a9.14 9.14 0 0 0-.83-.83Z"/>
    <path fill="#F0F0F0" d="m3.792 3.13.194.598h.629l-.509.37.195.597-.509-.37-.509.37.195-.598-.509-.369h.629l.194-.598Zm3.211 0 .195.598h.628l-.508.37.194.597-.509-.37-.508.37.194-.598-.509-.369h.629l.194-.598ZM3.792 6.26l.194.599h.629l-.509.369.195.598-.509-.37-.509.37.195-.598-.509-.37h.629l.194-.597Zm3.211 0 .195.599h.628l-.508.369.194.598-.509-.37-.508.37.194-.598-.509-.37h.629l.194-.597ZM5.398 4.695l.194.598h.629l-.509.37.194.598-.508-.37-.509.37.194-.598-.508-.37h.628l.195-.598Z"/>
  </g>
  <defs>
    <clipPath id="a">
      <path fill="#fff" d="M0 0h18v18H0z"/>
    </clipPath>
  </defs>
</svg>
