<svg xmlns="http://www.w3.org/2000/svg" width="18" height="18" fill="none" viewBox="0 0 18 18">
  <g clip-path="url(#a)">
    <path fill="#F0F0F0" d="M17.44 12.13A8.98 8.98 0 0 0 18 9a8.98 8.98 0 0 0-.56-3.13L9 5.087.56 5.87A8.98 8.98 0 0 0 0 9c0 1.1.198 2.155.56 3.13l8.44.783 8.44-.783Z"/>
    <path fill="#D80027" d="M9 18a9.003 9.003 0 0 0 8.44-5.87H.56A9.003 9.003 0 0 0 9 18Z"/>
    <path fill="#496E2D" d="M9 0A9.003 9.003 0 0 0 .56 5.87h16.88A9.003 9.003 0 0 0 9 0Z"/>
    <path fill="#000" d="m9 7.043.486 1.495h1.571l-1.271.924.485 1.495L9 10.033l-1.272.924.486-1.495-1.271-.924h1.571L9 7.043Z"/>
    <path fill="#F0F0F0" d="M11.674 1.76v1.827a.522.522 0 0 1-.522.522v.782c.72 0 1.305-.585 1.305-1.304V1.76h-.783ZM6.065 3.587a.522.522 0 0 1-.522.522v.782c.72 0 1.305-.585 1.305-1.304V1.76h-.783v1.826Z"/>
    <path fill="#F0F0F0" d="M10.5 1.76h.783v1.827H10.5V1.76ZM9.326 2.804a.13.13 0 0 1-.26 0V1.761h-.783v1.043a.13.13 0 0 1-.261 0V1.761h-.783v1.043a.914.914 0 0 0 1.435.749.908.908 0 0 0 .637.157.522.522 0 0 1-.507.399v.782c.72 0 1.305-.585 1.305-1.304V1.76h-.783v1.043Z"/>
    <path fill="#F0F0F0" d="M7.24 4.109h1.173v.782H7.239V4.11Z"/>
  </g>
  <defs>
    <clipPath id="a">
      <path fill="#fff" d="M0 0h18v18H0z"/>
    </clipPath>
  </defs>
</svg>
