<svg xmlns="http://www.w3.org/2000/svg" width="18" height="18" fill="none" viewBox="0 0 18 18">
  <g clip-path="url(#a)">
    <path fill="#F0F0F0" d="M9 18A9 9 0 1 0 9 0a9 9 0 0 0 0 18Z"/>
    <path fill="#D80027" d="M12.13 9c0 .783-1.401 2.74-3.13 2.74-1.729 0-3.13-1.957-3.13-2.74a3.13 3.13 0 1 1 6.26 0Z"/>
    <path fill="#0052B4" d="M12.13 9a3.13 3.13 0 1 1-6.26 0"/>
    <path fill="#000" d="m12.318 11.767.83-.83.553.553-.83.83-.553-.553Zm-1.384 1.383.83-.83.554.554-.83.83-.554-.554Zm3.044.277.83-.83.553.553-.83.83-.553-.553Zm-1.384 1.383.83-.83.554.554-.83.83-.554-.554Zm.554-2.213.83-.83.553.553-.83.83-.553-.553Zm-1.384 1.383.83-.83.554.554-.83.83-.553-.554Zm2.218-7.746-2.214-2.213.554-.553 2.213 2.213-.553.553Zm-2.214-.553-.83-.83.553-.553.83.83-.553.553Zm1.383 1.384-.83-.83.553-.553.83.83-.553.553Zm.277-3.044-.83-.83.553-.553.83.83-.553.553Zm1.384 1.384-.83-.83.553-.553.83.83-.553.553ZM3.19 12.595l2.214 2.214-.553.553-2.214-2.213.554-.553Zm2.214.553.83.83-.554.553-.83-.83.554-.553ZM4.02 11.765l.83.83-.553.554-.83-.83.553-.554Zm.83-.83 2.214 2.213-.554.554-2.213-2.213.553-.554Zm.554-7.745L3.19 5.402l-.553-.554L4.85 2.636l.554.553Zm.83.83L4.02 6.232l-.553-.554L5.68 3.466l.554.553Zm.83.83L4.851 7.063l-.553-.553L6.51 4.297l.553.553Z"/>
  </g>
  <defs>
    <clipPath id="a">
      <path fill="#fff" d="M0 0h18v18H0z"/>
    </clipPath>
  </defs>
</svg>
