<svg xmlns="http://www.w3.org/2000/svg" width="18" height="18" fill="none" viewBox="0 0 18 18">
  <g clip-path="url(#a)">
    <path fill="#F0F0F0" d="M9 18A9 9 0 1 0 9 0a9 9 0 0 0 0 18Z"/>
    <path fill="#000" d="M2.636 15.364a9 9 0 0 1 0-12.728L7.826 9l-5.19 6.364Z"/>
    <path fill="#FFDA44" d="M7.826 9 1.194 4.518c-.206.357-.387.73-.543 1.117L4.009 9 .65 12.366c.156.385.337.758.542 1.116L7.826 9Z"/>
    <path fill="#6DA544" d="M17.924 7.826H7.826l-5.19-5.19a9.035 9.035 0 0 0-1.442 1.882L5.667 9l-4.474 4.48c.397.69.884 1.323 1.443 1.883l5.19-5.19h10.098a9.095 9.095 0 0 0 0-2.348Z"/>
    <path fill="#0052B4" d="M3.52 16.14A8.96 8.96 0 0 0 9 18c4.158 0 7.657-2.82 8.69-6.652H8.312L3.52 16.14Z"/>
    <path fill="#D80027" d="M17.69 6.652A9.003 9.003 0 0 0 3.52 1.861l4.792 4.791h9.378Z"/>
  </g>
  <defs>
    <clipPath id="a">
      <path fill="#fff" d="M0 0h18v18H0z"/>
    </clipPath>
  </defs>
</svg>
