<svg xmlns="http://www.w3.org/2000/svg" width="18" height="18" fill="none" viewBox="0 0 18 18">
  <g clip-path="url(#a)">
    <path fill="#F0F0F0" d="M9 18A9 9 0 1 0 9 0a9 9 0 0 0 0 18Z"/>
    <path fill="#000" d="M17.298 5.51A9.002 9.002 0 0 0 2.636 2.637L4.89 5.511h12.408Z"/>
    <path fill="#496E2D" d="m4.916 12.457-2.28 2.907a9.002 9.002 0 0 0 14.675-2.907H4.917Z"/>
    <path fill="#A2001D" d="M1.957 6.62v4.728H17.69c.202-.749.31-1.536.31-2.348 0-.824-.111-1.622-.319-2.38H1.957Z"/>
    <path fill="#0052B4" d="M2.636 2.636a9 9 0 0 0 0 12.728L9 9 2.636 2.636Z"/>
    <path fill="#FFDA44" d="M2.932 6.762 4.03 8.295l1.797-.57L4.71 9.242l1.099 1.532-1.79-.594-1.12 1.52.013-1.886-1.79-.595 1.797-.57.013-1.887Z"/>
  </g>
  <defs>
    <clipPath id="a">
      <path fill="#fff" d="M0 0h18v18H0z"/>
    </clipPath>
  </defs>
</svg>
