<svg xmlns="http://www.w3.org/2000/svg" width="18" height="18" fill="none" viewBox="0 0 18 18">
  <g clip-path="url(#a)">
    <path fill="#FFDA44" d="M9 18A9 9 0 1 0 9 0a9 9 0 0 0 0 18Z"/>
    <path fill="#FF9811" d="M7.044 1.565H3.928a9.062 9.062 0 0 0-.406.295L2.739 9l.783 7.14a9 9 0 0 0 .406.295h3.116V1.565Z"/>
    <path fill="#6DA544" d="M0 9a8.98 8.98 0 0 0 3.522 7.14V1.86A8.985 8.985 0 0 0 0 9Z"/>
    <path fill="#FFDA44" d="M14.478 5.487v.225l.009.001-.009-.226Z"/>
    <path fill="#A2001D" d="M17.283 11.348h-1.696l-.717.782v1.566h-1.565v-.783h.782v-1.565h-3.522v.978h-.782v-1.864a1.17 1.17 0 0 1-.392-.875V4.5c0-.648.526-1.174 1.174-1.174v7.24h1.566l.537-.448a1.872 1.872 0 0 1-.146-.727V8.217h-1.174V5.87h2.348c0-.392.587-.783.587-.783s.587.391.587.783v2.347c.435.006 1.127-.006 1.874 0a2.373 2.373 0 0 1-.31-1.173c0-.691.299-1.312.774-1.741a9.036 9.036 0 0 0-3.135-3.738H8.218v14.87h5.855a9.02 9.02 0 0 0 3.52-4.75l-.31-.337Z"/>
  </g>
  <defs>
    <clipPath id="a">
      <path fill="#fff" d="M0 0h18v18H0z"/>
    </clipPath>
  </defs>
</svg>
