<svg xmlns="http://www.w3.org/2000/svg" width="18" height="18" fill="none" viewBox="0 0 18 18">
  <g clip-path="url(#a)">
    <path fill="#F0F0F0" d="M9 18A9 9 0 1 0 9 0a9 9 0 0 0 0 18Z"/>
    <path fill="#ACABB1" d="M16.07 7.24h-2.961a.978.978 0 0 0-.979-.98l-.782 1.566s.835 2.348.809 2.348h.978c.54 0 .978-.438.978-.978.54 0 .978-.438.978-.979h-.032c.54 0 1.01-.438 1.01-.978Zm-14.14 0h2.961a.98.98 0 0 1 .979-.98l.782 1.566s-.835 2.348-.809 2.348h-.978a.978.978 0 0 1-.978-.978.978.978 0 0 1-.978-.979h.032c-.54 0-1.01-.438-1.01-.978Z"/>
    <path fill="#FFDA44" d="M12.13 12.522v.391H5.87v-.391H4.304v1.565H5.87v.391h6.26v-.391h1.566v-1.565H12.13Z"/>
    <path fill="#0052B4" d="M5.87 6.26v3.914c0 2.396 3.13 3.13 3.13 3.13s3.13-.734 3.13-3.13V6.26L9 5.87l-3.13.39Z"/>
    <path fill="#D80027" d="M5.87 7.826h6.26v2.348H5.87V7.826Z"/>
    <path fill="#FFDA44" d="M10.565 4.304v.587l-.391.196-.391-.391V3.522H8.217v1.174l-.39.391-.392-.196v-.587H5.87v1.957h6.26V4.304h-1.565Z"/>
  </g>
  <defs>
    <clipPath id="a">
      <path fill="#fff" d="M0 0h18v18H0z"/>
    </clipPath>
  </defs>
</svg>
