<svg xmlns="http://www.w3.org/2000/svg" width="18" height="18" fill="none" viewBox="0 0 18 18">
  <g clip-path="url(#a)">
    <path fill="#FFDA44" d="M13.304 1.094A8.96 8.96 0 0 0 9 0a8.96 8.96 0 0 0-4.304 1.094L3.913 9l.783 7.906A8.96 8.96 0 0 0 9 18a8.96 8.96 0 0 0 4.304-1.094L14.087 9l-.783-7.906Z"/>
    <path fill="#338AF3" d="M4.696 16.906V1.094A8.998 8.998 0 0 0 0 9a8.998 8.998 0 0 0 4.696 7.906Z"/>
    <path fill="#6DA544" d="M18 9a8.998 8.998 0 0 0-4.696-7.906v15.812A8.998 8.998 0 0 0 18 9ZM7.044 11.348 5.478 9l1.566-2.348L8.608 9l-1.565 2.348Zm3.913 0L9.39 9l1.566-2.348L12.522 9l-1.565 2.348ZM9 14.478 7.435 12.13 9 9.783l1.565 2.347L9 14.478Z"/>
  </g>
  <defs>
    <clipPath id="a">
      <path fill="#fff" d="M0 0h18v18H0z"/>
    </clipPath>
  </defs>
</svg>
