<svg xmlns="http://www.w3.org/2000/svg" width="18" height="18" fill="none" viewBox="0 0 18 18">
  <g clip-path="url(#a)">
    <path fill="#F0F0F0" d="M.893 5.087A8.964 8.964 0 0 0 0 9c0 1.402.32 2.73.893 3.913L9 13.696l8.107-.783A8.965 8.965 0 0 0 18 9c0-1.402-.32-2.73-.893-3.913L9 4.304l-8.107.783Z"/>
    <path fill="#000" d="M.893 12.913A9 9 0 0 0 9 18a9 9 0 0 0 8.107-5.087H.893Z"/>
    <path fill="#D80027" d="M.893 5.087h16.214A9 9 0 0 0 9 0 9 9 0 0 0 .893 5.087Z"/>
    <path fill="#496E2D" d="M2.636 2.636a9 9 0 0 0 0 12.728L9 9 2.636 2.636Z"/>
  </g>
  <defs>
    <clipPath id="a">
      <path fill="#fff" d="M0 0h18v18H0z"/>
    </clipPath>
  </defs>
</svg>
