<svg xmlns="http://www.w3.org/2000/svg" width="18" height="18" fill="none" viewBox="0 0 18 18">
  <g clip-path="url(#a)">
    <path fill="#F0F0F0" d="M9 18A9 9 0 1 0 9 0a9 9 0 0 0 0 18Z"/>
    <path fill="#A2001D" d="M17.44 5.87H.56A8.982 8.982 0 0 0 0 9c0 1.1.198 2.155.56 3.13h16.88A8.98 8.98 0 0 0 18 9a8.98 8.98 0 0 0-.56-3.13Z"/>
    <path fill="#6DA544" d="M9.026 18a8.99 8.99 0 0 0 7.425-3.913H1.6A8.99 8.99 0 0 0 9.026 18Zm0-18a8.99 8.99 0 0 1 7.425 3.913H1.6A8.99 8.99 0 0 1 9.026 0Z"/>
    <path fill="#FFDA44" d="m9 5.87.777 2.391h2.515l-2.035 1.478.777 2.391L9 10.652l-2.034 1.479.777-2.392-2.035-1.478h2.515L9 5.87Z"/>
  </g>
  <defs>
    <clipPath id="a">
      <path fill="#fff" d="M0 0h18v18H0z"/>
    </clipPath>
  </defs>
</svg>
