<svg xmlns="http://www.w3.org/2000/svg" width="18" height="18" fill="none" viewBox="0 0 18 18">
  <g clip-path="url(#a)">
    <path fill="#FFDA44" d="M17.107 12.913A8.965 8.965 0 0 0 18 9c0-1.402-.32-2.73-.893-3.913L9 4.696l-8.107.391A8.965 8.965 0 0 0 0 9c0 1.402.32 2.73.893 3.913L9 13.304l8.107-.39Z"/>
    <path fill="#000" d="M9 0A9 9 0 0 0 .893 5.087h16.214A9 9 0 0 0 9 0Z"/>
    <path fill="#0052B4" d="M9 18a9 9 0 0 1-8.107-5.087h16.214A9 9 0 0 1 9 18Z"/>
    <path fill="#A2001D" d="M17.575 6.26H.425A8.993 8.993 0 0 0 0 9c0 .955.15 1.875.425 2.74h17.15A8.993 8.993 0 0 0 18 9c0-.955-.15-1.875-.425-2.74Z"/>
    <path fill="#FFDA44" d="M3.13 8.609h11.74v.782H3.13V8.61Zm1.566-1.566h8.608v.783H4.696v-.783Z"/>
    <path fill="#F0F0F0" d="M13.36 9S11.348 11.348 9 11.348C6.652 11.348 6.652 9 6.652 9s0-2.348 2.348-2.348S13.36 9 13.36 9Z"/>
    <path fill="#000" d="M9 11.348C6.652 11.348 4.64 9 4.64 9S6.652 6.652 9 6.652"/>
    <path fill="#F0F0F0" d="M7.435 8.217h.782v1.566h-.782V8.217Z"/>
    <path fill="#000" d="M9.783 8.217h.782v1.566h-.782V8.217Z"/>
    <path fill="#0052B4" d="M3.13 9.783a.783.783 0 1 0 0-1.566.783.783 0 0 0 0 1.566Zm11.74 0a.783.783 0 1 0 0-1.565.783.783 0 0 0 0 1.565Z"/>
  </g>
  <defs>
    <clipPath id="a">
      <path fill="#fff" d="M0 0h18v18H0z"/>
    </clipPath>
  </defs>
</svg>
