<svg xmlns="http://www.w3.org/2000/svg" width="18" height="18" fill="none" viewBox="0 0 18 18">
  <g clip-path="url(#a)">
    <path fill="#F0F0F0" d="M9 18A9 9 0 1 0 9 0a9 9 0 0 0 0 18Z"/>
    <path fill="#D80027" d="M9 0A9.003 9.003 0 0 0 .56 5.87h16.88A9.003 9.003 0 0 0 9 0Z"/>
    <path fill="#000" d="M9 18a9.003 9.003 0 0 0 8.44-5.87H.56A9.003 9.003 0 0 0 9 18Z"/>
    <path fill="#6DA544" d="m5.378 6.848.485 1.494h1.572l-1.272.924.486 1.495-1.271-.924-1.272.924.486-1.495-1.272-.924h1.572l.486-1.494Zm7.244 0 .486 1.494h1.572l-1.272.924.486 1.495-1.272-.924-1.271.924.486-1.495-1.272-.924h1.572l.485-1.494Z"/>
  </g>
  <defs>
    <clipPath id="a">
      <path fill="#fff" d="M0 0h18v18H0z"/>
    </clipPath>
  </defs>
</svg>
