<svg xmlns="http://www.w3.org/2000/svg" width="18" height="18" fill="none" viewBox="0 0 18 18">
  <g clip-path="url(#a)">
    <path fill="#D80027" d="M18 9A9 9 0 0 1 0 9l9-9a9 9 0 0 1 9 9Z"/>
    <path fill="#0052B4" d="M9 9V0a9 9 0 0 0-9 9h9Z"/>
    <path fill="#F0F0F0" d="m7.826 5.267-1.1.517.586 1.065L6.12 6.62l-.152 1.206-.831-.887-.831.887-.152-1.206-1.193.229.585-1.065-1.099-.517 1.1-.517-.586-1.064 1.193.228.152-1.206.831.887.831-.887.152 1.206 1.193-.228-.585 1.064 1.099.517Z"/>
    <path fill="#0052B4" d="M5.136 6.942a1.675 1.675 0 1 0 0-3.35 1.675 1.675 0 0 0 0 3.35Z"/>
    <path fill="#F0F0F0" d="M5.136 6.16a.894.894 0 0 1 0-1.785.894.894 0 0 1 0 1.785Z"/>
  </g>
  <defs>
    <clipPath id="a">
      <path fill="#fff" d="M0 0h18v18H0z"/>
    </clipPath>
  </defs>
</svg>
