<svg xmlns="http://www.w3.org/2000/svg" width="18" height="18" fill="none" viewBox="0 0 18 18">
  <g clip-path="url(#a)">
    <path fill="#F0F0F0" d="M.893 5.087A8.964 8.964 0 0 0 0 9c0 1.402.32 2.73.893 3.913L9 13.696l8.107-.783A8.965 8.965 0 0 0 18 9c0-1.402-.32-2.73-.893-3.913L9 4.304l-8.107.783Z"/>
    <path fill="#6DA544" d="M.893 12.913A9 9 0 0 0 9 18a9 9 0 0 0 8.107-5.087H.893Z"/>
    <path fill="#D80027" d="M.893 5.087h16.214A9 9 0 0 0 9 0 9 9 0 0 0 .893 5.087Z"/>
    <path fill="#FFDA44" d="M7.435 11.348h3.13v-1.33l-.626.312L9 9.391l-.94.94-.625-.314v1.33ZM5.644 9.783l.146.448h.471l-.381.277.145.449-.381-.278-.382.277.146-.448-.381-.277h.471l.146-.448Zm.451-1.566.146.449h.472l-.382.277.146.448-.382-.277-.381.277.146-.448-.382-.277h.472l.145-.449Zm1.292-1.174.146.449h.471l-.381.277.145.448-.381-.277-.381.277.145-.448-.381-.277h.471l.146-.449Zm4.969 2.74-.145.448h-.472l.382.277-.146.449.381-.278.382.277-.146-.448.382-.277h-.472l-.146-.448Zm-.451-1.566-.146.449h-.471l.381.277-.146.448.382-.277.381.277-.146-.448.382-.277h-.472l-.145-.449Zm-1.292-1.174-.146.449h-.47l.38.277-.145.448.381-.277.382.277-.146-.448.381-.277h-.471l-.146-.449ZM9 6.456l.146.449h.471l-.381.277.145.448L9 7.353l-.381.277.145-.448-.381-.277h.471L9 6.456Z"/>
  </g>
  <defs>
    <clipPath id="a">
      <path fill="#fff" d="M0 0h18v18H0z"/>
    </clipPath>
  </defs>
</svg>
