<svg xmlns="http://www.w3.org/2000/svg" width="18" height="18" fill="none" viewBox="0 0 18 18">
  <g clip-path="url(#a)">
    <path fill="#F0F0F0" d="M9 18A9 9 0 1 0 9 0a9 9 0 0 0 0 18Z"/>
    <path fill="#FFDA44" d="M3.927 1.565A8.958 8.958 0 0 1 9 0c1.882 0 3.628.578 5.072 1.565L9 1.957l-5.073-.392Z"/>
    <path fill="#D80027" d="m2.637 15.364 4.15-4.15L9 7.434l2.213 3.78 4.15 4.15A8.97 8.97 0 0 0 18 9a8.99 8.99 0 0 0-3.927-7.435H3.927A8.99 8.99 0 0 0 0 9a8.97 8.97 0 0 0 2.637 6.364Z"/>
    <path fill="#0052B4" d="m17.316 12.446-6.58-2.727.477 1.494 4.15 4.15a9.013 9.013 0 0 0 1.953-2.917ZM18 9a8.97 8.97 0 0 0-.684-3.446L9 9h9Zm-2.636-6.364a9.05 9.05 0 0 0-1.291-1.07H12.08L9 9l6.364-6.364ZM9 1.565H5.92L9 9V1.565ZM2.636 2.636A9.013 9.013 0 0 0 .684 5.554L9 9 2.636 2.636ZM0 9c0 1.22.243 2.385.684 3.446L9 9H0Z"/>
    <path fill="#FFDA44" d="M3.927 16.435A8.957 8.957 0 0 0 9 18a8.957 8.957 0 0 0 5.072-1.565H3.928ZM9 9l2.213 2.214a3.13 3.13 0 1 0-4.427 0L9 9Zm1.37 4.5c0 .757-.614.978-1.37.978-.756 0-1.37-.221-1.37-.978a1.37 1.37 0 0 1 2.74 0Z"/>
    <path fill="#0052B4" d="M10.37 13.5a1.37 1.37 0 0 1-2.74 0"/>
  </g>
  <defs>
    <clipPath id="a">
      <path fill="#fff" d="M0 0h18v18H0z"/>
    </clipPath>
  </defs>
</svg>
