<svg xmlns="http://www.w3.org/2000/svg" width="18" height="18" fill="none" viewBox="0 0 18 18">
  <g clip-path="url(#a)">
    <path fill="#FFDA44" d="M9 18A9 9 0 1 0 9 0a9 9 0 0 0 0 18Z"/>
    <path fill="#0052B4" d="M14.478 4.304a6 6 0 0 0-.117 1.213 5.891 5.891 0 0 0 3.444 5.355 9 9 0 1 0-1.38 3.215H5.087v-1.174h12.02a8.76 8.76 0 0 0 .333-.783H5.087l9.391-7.826Z"/>
    <path fill="#F0F0F0" d="m6.612 4.696.194.598h.629l-.509.37.195.597-.51-.37-.508.37.195-.598-.509-.37h.629l.194-.597ZM4.058 9l.243.747h.786l-.636.462.243.748-.636-.462-.635.462.243-.748-.636-.462h.786L4.058 9Zm0-6.26.243.747h.786l-.636.461.243.748-.636-.462-.635.462.243-.748-.636-.461h.786l.242-.748ZM2.102 6.26l.243.748h.785l-.635.462.243.747-.636-.462-.636.462.243-.747-.636-.462h.786l.243-.747Z"/>
  </g>
  <defs>
    <clipPath id="a">
      <path fill="#fff" d="M0 0h18v18H0z"/>
    </clipPath>
  </defs>
</svg>
