<svg xmlns="http://www.w3.org/2000/svg" width="18" height="18" fill="none" viewBox="0 0 18 18">
  <g clip-path="url(#a)">
    <path fill="#F0F0F0" d="M4.873 1a8.995 8.995 0 0 0-2.237 1.636A8.994 8.994 0 0 0 .999 4.873l5.787 6.34 6.34 5.788a8.992 8.992 0 0 0 2.238-1.637 8.993 8.993 0 0 0 1.637-2.237l-5.787-6.34L4.874.998Z"/>
    <path fill="#000" d="M15.364 15.364a8.92 8.92 0 0 0 1.01-1.203L3.84 1.625A9.052 9.052 0 0 0 1.625 3.84l12.536 12.536a9.054 9.054 0 0 0 1.203-1.01Z"/>
    <path fill="#D80027" d="M2.636 15.364A9.004 9.004 0 0 0 13.126 17L1 4.873a9.004 9.004 0 0 0 1.637 10.491ZM15.364 2.636A9.004 9.004 0 0 0 4.874.999L17 13.127a9.004 9.004 0 0 0-1.637-10.491Z"/>
  </g>
  <defs>
    <clipPath id="a">
      <path fill="#fff" d="M0 0h18v18H0z"/>
    </clipPath>
  </defs>
</svg>
