<svg xmlns="http://www.w3.org/2000/svg" width="18" height="18" fill="none" viewBox="0 0 18 18">
  <g clip-path="url(#a)">
    <path fill="#D80027" d="M9 18A9 9 0 1 0 9 0a9 9 0 0 0 0 18Z"/>
    <path fill="#F0F0F0" d="M9 13.304a4.304 4.304 0 1 0 0-8.608 4.304 4.304 0 0 0 0 8.608Z"/>
    <path fill="#D80027" d="m9.53 7.354.739 1.018 1.195-.388L10.725 9l.738 1.017-1.195-.389-.74 1.017.001-1.258L8.334 9l1.195-.388.001-1.257Z"/>
    <path fill="#D80027" d="M9.978 11.543a2.543 2.543 0 1 1 1.21-4.78 3.13 3.13 0 1 0 0 4.476c-.36.194-.772.304-1.21.304Z"/>
  </g>
  <defs>
    <clipPath id="a">
      <path fill="#fff" d="M0 0h18v18H0z"/>
    </clipPath>
  </defs>
</svg>
