<svg xmlns="http://www.w3.org/2000/svg" width="18" height="18" fill="none" viewBox="0 0 18 18">
  <g clip-path="url(#a)">
    <path fill="#496E2D" d="M9 0c-.672 0-1.327.074-1.957.214L6.653 9l.39 8.786A9 9 0 1 0 9 0ZM2.348 2.938A8.967 8.967 0 0 0 0 9a8.97 8.97 0 0 0 2.348 6.062L2.739 9l-.391-6.062Z"/>
    <path fill="#F0F0F0" d="M13.163 6.789a2.74 2.74 0 0 0-1.122-3.245 2.74 2.74 0 1 1-1.807 5.036 2.74 2.74 0 0 0 2.93-1.791Zm-2.456-3.584-.384.498-.592-.213.354.52-.385.497.604-.176.354.52.019-.629.603-.176-.592-.212.02-.629Z"/>
    <path fill="#F0F0F0" d="m11.746 4.825-.385.497-.591-.212.354.52-.385.497.603-.176.354.52.02-.629.603-.176-.592-.212.02-.629Zm-2.87-1.03-.385.497-.592-.212.354.52-.385.497.604-.176.354.52.019-.629.603-.176-.591-.212.019-.629ZM8.833 5.65l-.384.498-.592-.212.354.52-.385.496.604-.176.354.52.019-.628.603-.176-.592-.213.02-.628Zm1.767.634-.385.498-.592-.213.354.52-.385.497.604-.176.354.52.018-.629.604-.176-.592-.212.02-.629Z"/>
    <path fill="#D80027" d="M2.348 2.938v12.124a8.99 8.99 0 0 0 4.696 2.724V.214a8.99 8.99 0 0 0-4.696 2.724Z"/>
    <path fill="#F0F0F0" d="m4.14 4.739-.786-.586v-.828l.786-.586h1.11l.787.586v.828l-.787.586H4.14Z"/>
    <path fill="#FF9811" d="M4.696 2.74H4.14l-.786.585v.405h1.342v-.99Zm0 1.999h.555l.787-.586V3.73H4.696v1.01Z"/>
    <path fill="#F0F0F0" d="m4.14 15.26-.786-.585v-.828l.786-.586h1.11l.787.586v.828l-.787.586H4.14Z"/>
    <path fill="#FF9811" d="M4.696 13.261H4.14l-.786.586v.405h1.342v-.99Zm0 1.999h.555l.787-.585v-.422H4.696v1.008Z"/>
    <path fill="#496E2D" d="m4.14 10-.786-.586v-.828L4.14 8h1.112l.786.586v.828L5.252 10H4.14Zm1.925 1.288h-.342v-.342H5.12l-.425-.426-.426.426H3.67v.342h-.343v.685h.343v.342h.601l.426.426.425-.426h.602v-.342h.342v-.685Zm0-5.261h-.342v-.343H5.12l-.425-.425-.426.425H3.67v.343h-.343v.685h.343v.342h.601l.426.426.425-.426h.602v-.342h.342v-.685Z"/>
    <path fill="#D80027" d="M4.304 8.609h.783v.782h-.783V8.61Zm.391-1.849a.391.391 0 1 0 0-.782.391.391 0 0 0 0 .782Zm0 5.262a.391.391 0 1 0 0-.783.391.391 0 0 0 0 .783Z"/>
  </g>
  <defs>
    <clipPath id="a">
      <path fill="#fff" d="M0 0h18v18H0z"/>
    </clipPath>
  </defs>
</svg>
