<svg xmlns="http://www.w3.org/2000/svg" width="18" height="18" fill="none" viewBox="0 0 18 18">
  <g clip-path="url(#a)">
    <path fill="#338AF3" d="M18 9A9 9 0 0 1 0 9c0 .002 9-8.999 9-9a9 9 0 0 1 9 9Z"/>
    <path fill="#0052B4" d="M4.304 9H7.34L4.696 5.87l-.392 1.173V9ZM9 7.34 5.87 4.304H9V7.34Z"/>
    <path fill="#F0F0F0" d="M8.976 9H9v-.024A6.834 6.834 0 0 1 8.976 9ZM9 4.696V0h-.001A9 9 0 0 0 0 9h4.696V6.356L7.34 9h1.636L9 8.976V7.34L6.356 4.696H9Z"/>
    <path fill="#D80027" d="M4.553 1.174a9.043 9.043 0 0 0-3.379 3.38V9h2.348V3.522H9V1.174H4.553Z"/>
    <path fill="#D80027" d="M9 7.893 5.802 4.696H4.696L9 9V7.893Z"/>
    <path fill="#FFDA44" d="m9.823 14.87.194.597h.629l-.509.37.194.598-.508-.37-.509.37.195-.598-.509-.37h.629l.194-.598Zm5.007-3.914.194.598h.628l-.508.37.194.598-.509-.37-.508.37.194-.598-.509-.37h.629l.194-.598Zm1.254-5.869.194.598h.629l-.509.37.194.597-.508-.37-.509.37.195-.598-.51-.37h.63l.194-.597Zm.311 4.304.194.598h.628l-.508.37.194.598-.508-.37-.509.37.194-.598-.508-.37h.628l.195-.598Zm-5.671 4.072.56.286.445-.445-.098.621.56.285-.621.099-.099.62-.285-.56-.62.1.444-.445-.286-.56Zm0-2.347.56.285.445-.445-.098.621.56.286-.621.098-.099.62-.285-.56-.62.1.444-.445-.286-.56Zm1.956 1.504.561.286.444-.445-.098.621.56.286-.62.098-.099.62-.285-.56-.621.1.444-.445-.285-.56Zm0-5.026.561.285.444-.444-.098.62.56.286-.62.098-.099.621-.285-.56-.621.098.444-.444-.285-.56Zm1.897-.06.56.285.445-.444-.099.62.56.286-.62.098-.099.621-.285-.56-.621.098.444-.444-.285-.56Z"/>
  </g>
  <defs>
    <clipPath id="a">
      <path fill="#fff" d="M0 0h18v18H0z"/>
    </clipPath>
  </defs>
</svg>
