<svg xmlns="http://www.w3.org/2000/svg" width="18" height="18" fill="none" viewBox="0 0 18 18">
  <g clip-path="url(#a)">
    <path fill="#FFDA44" d="M15.708 15A8.966 8.966 0 0 0 18 9a8.966 8.966 0 0 0-2.293-6L9 2.348 2.292 3A8.966 8.966 0 0 0 0 9c0 2.305.867 4.408 2.292 6L9 15.652 15.708 15Z"/>
    <path fill="#000" d="M2.292 3h13.416A8.977 8.977 0 0 0 9 0a8.977 8.977 0 0 0-6.708 3Z"/>
    <path fill="#D80027" d="m0 9 9 .783L18 9a8.982 8.982 0 0 0-.513-3H.513A8.983 8.983 0 0 0 0 9Z"/>
    <path fill="#000" d="M.513 12h16.974A8.985 8.985 0 0 0 18 9H0c0 1.052.181 2.062.513 3Z"/>
    <path fill="#D80027" d="M15.708 15H2.292A8.977 8.977 0 0 0 9 18a8.977 8.977 0 0 0 6.708-3Z"/>
    <path fill="#F0F0F0" d="M12.003 9a3.003 3.003 0 1 1-6.006 0 3.003 3.003 0 0 1 6.006 0Z"/>
    <path fill="#000" d="M10.1 9.153 9 8.676s.257-.854.271-.913a.582.582 0 0 0-.156-.548l.276-.276a.975.975 0 0 0-1.383 0l.276.276a.585.585 0 0 0-.146.586l-.417.416h.757s-.313.47-.483.857a.79.79 0 0 0 .397 1.033l.228.101.38.357v.392l-.391.39h.782v-.782l.357-.357h.739l.01-.022a.783.783 0 0 0-.397-1.033Z"/>
  </g>
  <defs>
    <clipPath id="a">
      <path fill="#fff" d="M0 0h18v18H0z"/>
    </clipPath>
  </defs>
</svg>
