<svg xmlns="http://www.w3.org/2000/svg" width="18" height="18" fill="none" viewBox="0 0 18 18">
  <g clip-path="url(#a)">
    <path fill="#338AF3" d="M9 18A9 9 0 1 0 9 0a9 9 0 0 0 0 18Z"/>
    <path fill="#F0F0F0" d="M8.974 5.87a3.13 3.13 0 1 0 0 6.26 3.13 3.13 0 0 0 0-6.26ZM8.191 9a.783.783 0 1 1 1.566 0A.783.783 0 0 1 8.19 9Zm1.594-1.34a1.556 1.556 0 0 0-.394-.17v-.8c.353.063.679.205.958.407l-.564.564ZM8.61 7.478c-.147.035-.286.09-.413.164l-.567-.566c.287-.2.62-.34.98-.396v.798Zm-.413 2.88c.127.073.266.129.413.164v.797a2.334 2.334 0 0 1-.98-.395l.567-.566Zm1.195.15c.14-.038.273-.095.394-.17l.564.564c-.28.203-.605.345-.958.408v-.802Zm.94-.73c.07-.12.124-.25.159-.387h.799c-.06.35-.195.674-.39.954l-.567-.567Zm.159-1.17a1.551 1.551 0 0 0-.158-.386l.566-.567c.196.28.332.603.39.954h-.798Zm-3.418-.983.563.564c-.078.129-.138.27-.177.42H6.66c.061-.363.205-.698.413-.984ZM6.659 9.39h.8c.038.15.098.291.176.42l-.563.564a2.334 2.334 0 0 1-.413-.984Z"/>
    <path fill="#F0F0F0" d="M14.06 9a5.07 5.07 0 0 0-1.463-3.57l-.83.83a3.913 3.913 0 1 1-5.56-.026l-.83-.831a5.09 5.09 0 0 0 2.208 8.492 1.302 1.302 0 0 0 .136 1.421L9 14.291l1.278 1.025c.338-.421.371-.988.13-1.434A5.09 5.09 0 0 0 14.06 9Z"/>
  </g>
  <defs>
    <clipPath id="a">
      <path fill="#fff" d="M0 0h18v18H0z"/>
    </clipPath>
  </defs>
</svg>
