<svg xmlns="http://www.w3.org/2000/svg" width="18" height="18" fill="none" viewBox="0 0 18 18">
  <g clip-path="url(#a)">
    <path fill="#F0F0F0" d="M9 18A9 9 0 1 0 9 0a9 9 0 0 0 0 18Z"/>
    <path fill="#338AF3" d="M9 6.652h8.69a8.95 8.95 0 0 0-1.011-2.348H9v2.348Zm-5.602 9.392h11.204a9.046 9.046 0 0 0 2.077-2.348H1.321a9.048 9.048 0 0 0 2.077 2.348ZM9 0v1.957h5.602A8.962 8.962 0 0 0 9 0Z"/>
    <path fill="#338AF3" d="M9 6.652h8.69a8.95 8.95 0 0 0-1.011-2.348H9v2.348ZM0 9a9 9 0 0 0 .31 2.348h17.38c.202-.749.31-1.536.31-2.348H0Z"/>
    <path fill="#FFDA44" d="m7.826 5.267-1.1.517.586 1.065L6.12 6.62l-.152 1.206-.831-.887-.831.887-.152-1.206-1.193.229.585-1.065-1.099-.517 1.1-.517-.586-1.064 1.193.228.152-1.206.831.887.831-.887.152 1.206 1.193-.228-.585 1.064 1.099.517Z"/>
  </g>
  <defs>
    <clipPath id="a">
      <path fill="#fff" d="M0 0h18v18H0z"/>
    </clipPath>
  </defs>
</svg>
