<svg xmlns="http://www.w3.org/2000/svg" width="18" height="18" fill="none" viewBox="0 0 18 18">
  <g clip-path="url(#a)">
    <path fill="#F0F0F0" d="M.425 6.261A8.991 8.991 0 0 0 0 9c0 .955.15 1.875.425 2.74L9 12.13l8.575-.39A8.994 8.994 0 0 0 18 9c0-.955-.15-1.875-.425-2.74L9 5.87l-8.575.39Z"/>
    <path fill="#D80027" d="M17.575 6.26 9 5.87l-8.575.39a8.982 8.982 0 0 0-.211.784h17.572a8.952 8.952 0 0 0-.211-.783ZM.214 10.957c.059.265.13.526.21.782h.002L9 12.13l8.575-.39c.082-.257.152-.518.21-.784H.215Z"/>
    <path fill="#6DA544" d="M9 18a9.003 9.003 0 0 0 8.575-6.26H.425A9.004 9.004 0 0 0 9 18Z"/>
    <path fill="#338AF3" d="M9 0A9.004 9.004 0 0 0 .425 6.26h17.15A9.003 9.003 0 0 0 9 0Z"/>
    <path fill="#F0F0F0" d="M4.113 3.717c0-.842.592-1.547 1.383-1.72a1.76 1.76 0 1 0 0 3.44 1.761 1.761 0 0 1-1.383-1.72Zm2.424.801.12.367h.385l-.312.226.12.367-.313-.226-.312.226.12-.367-.313-.226h.386l.12-.367Zm1.231 0 .12.367h.385l-.312.226.12.367-.313-.226-.312.226.12-.367-.313-.226h.386l.12-.367Zm1.232 0 .119.367h.385l-.312.226.12.367-.313-.226-.312.226.12-.367-.312-.226h.385L9 4.518Zm1.23 0 .12.367h.386l-.312.226.119.367-.312-.226-.312.226.119-.367-.312-.226h.385l.12-.367Zm1.232 0 .119.367h.386l-.312.226.119.367-.312-.226-.312.226.119-.367-.312-.226h.386l.119-.367ZM7.768 3.237l.12.367h.385l-.312.227.12.367-.313-.227-.312.227.12-.367-.313-.227h.386l.12-.367Zm1.232 0 .119.367h.385l-.312.227.12.367-.313-.227-.312.227.12-.367-.312-.227h.385L9 3.237Zm1.23 0 .12.367h.386l-.312.227.119.367-.312-.227-.312.227.119-.367-.312-.227h.385l.12-.367Zm1.232 0 .119.367h.386l-.312.227.119.367-.312-.227-.312.227.119-.367-.312-.227h.386l.119-.367ZM9 1.957l.119.366h.385l-.312.227.12.367-.313-.227-.312.227.12-.367-.312-.227h.385L9 1.957Zm1.23 0 .12.366h.386l-.312.227.119.367-.312-.227-.312.227.119-.367-.312-.227h.385l.12-.366Zm1.232 0 .119.366h.386l-.312.227.119.367-.312-.227-.312.227.119-.367-.312-.227h.386l.119-.366Z"/>
  </g>
  <defs>
    <clipPath id="a">
      <path fill="#fff" d="M0 0h18v18H0z"/>
    </clipPath>
  </defs>
</svg>
