<svg xmlns="http://www.w3.org/2000/svg" width="18" height="18" fill="none" viewBox="0 0 18 18">
  <g clip-path="url(#a)">
    <path fill="#000" d="M18 9c0-.398-.026-.79-.076-1.174H7.826l-5.19-5.19a9 9 0 0 0 0 12.728l5.19-5.19h10.098A9.09 9.09 0 0 0 18 9Z"/>
    <path fill="#F0F0F0" d="M17.997 9.205v.052-.052Zm-.008.245-.003.052.003-.051Zm-.012.197-.006.075.006-.075Zm-.03-1.628.01.09-.01-.09Zm.039.479.003.051-.003-.051Zm.01.245.001.052v-.052Zm-.026-.466.007.076-.006-.076Z"/>
    <path fill="#D80027" d="m17.924 7.826.011.093C17.401 3.459 13.605 0 9 0a8.972 8.972 0 0 0-6.364 2.636l5.19 5.19h10.098Z"/>
    <path fill="#6DA544" d="M17.924 10.174H7.826l-5.19 5.19A8.972 8.972 0 0 0 9 18a9 9 0 0 0 8.935-7.919l-.011.093Z"/>
    <path fill="#F0F0F0" d="m17.956 9.89-.01.09.01-.09Z"/>
    <path fill="#000" d="M17.977 8.353Zm-.042-.434Zm.021.191ZM18 9Zm-.014.502Zm-.015.221Zm-.024.258Zm.05-1.186Zm-.008-.245Zm.007.707Z"/>
    <path fill="#FFDA44" d="M17.991 8.605H7.495l-5.391-5.39c-.174.184-.363.44-.48.623L6.78 8.997l-5.16 5.16c.102.182.324.45.48.626l5.395-5.395h10.498a9.078 9.078 0 0 0-.002-.783Z"/>
    <path fill="#FFDA44" d="M2.186 10.919v-.754c.753 0 1.364-.612 1.364-1.365a.966.966 0 0 0-.965-.965.658.658 0 0 0-.657.658c0 .232.188.42.42.42a.238.238 0 0 0 .238-.237h.754a.993.993 0 0 1-.992.991 1.176 1.176 0 0 1-1.174-1.174c0-.778.633-1.411 1.411-1.411.948 0 1.72.77 1.72 1.719a2.12 2.12 0 0 1-2.119 2.118Z"/>
  </g>
  <defs>
    <clipPath id="a">
      <path fill="#fff" d="M0 0h18v18H0z"/>
    </clipPath>
  </defs>
</svg>
