<svg xmlns="http://www.w3.org/2000/svg" width="18" height="18" fill="none" viewBox="0 0 18 18">
  <g clip-path="url(#a)">
    <path fill="#F0F0F0" d="M9 0a9 9 0 0 1 0 18c0-.391-1.174-9-1.174-9L9 0Z"/>
    <path fill="#FFDA44" d="M9 18A9 9 0 0 1 9 0"/>
    <path fill="#ACABB1" d="m12.446 7.832 1.692 2.237a1.174 1.174 0 1 0 .624-.472L12.126 6.11l-.624.472-.937.708.944 1.248.937-.706Zm2.435 2.572a.391.391 0 1 1 .472.624.391.391 0 0 1-.472-.624Z"/>
    <path fill="#FFDA44" d="m15.347 8.538.944-1.248-.936-.708-.625-.472-2.636 3.487a1.174 1.174 0 1 0 .625.472l1.691-2.238.937.707Zm-3.296 2.414a.391.391 0 1 1-.624-.472.391.391 0 0 1 .624.472Z"/>
  </g>
  <defs>
    <clipPath id="a">
      <path fill="#fff" d="M0 0h18v18H0z"/>
    </clipPath>
  </defs>
</svg>
