<svg xmlns="http://www.w3.org/2000/svg" width="18" height="18" fill="none" viewBox="0 0 18 18">
  <g clip-path="url(#a)">
    <path fill="#0052B4" d="M17.107 12.913A8.965 8.965 0 0 0 18 9c0-1.402-.32-2.73-.893-3.913L9 4.304l-8.107.783A8.964 8.964 0 0 0 0 9c0 1.402.32 2.73.893 3.913L9 13.696l8.107-.783Z"/>
    <path fill="#D80027" d="M9 18a9 9 0 0 0 8.107-5.087H.893A9 9 0 0 0 9 18Z"/>
    <path fill="#F0F0F0" d="m15.587 10.767-.475.371.206.567-.5-.337-.476.371.167-.58-.5-.337.603-.021.166-.58.206.567.603-.021ZM14.37 8.658l-.32.512.388.462-.585-.146-.32.512-.042-.602-.585-.146.559-.226-.042-.602.388.462.559-.226Zm-1.865-1.565-.126.59.523.302-.6.063-.125.59-.246-.55-.6.062.449-.403-.246-.551.523.301.448-.404Zm-2.288-.833.084.598.594.105-.542.265.084.597-.419-.434-.542.264.283-.532-.419-.434.594.105.283-.533Zm-2.434 0 .283.534.594-.105-.419.434.283.532-.542-.264-.42.434.085-.597-.542-.265.594-.105.084-.597Zm-2.288.833.448.404.523-.301-.245.55.448.404-.6-.063-.246.551-.125-.59-.6-.063.523-.301-.126-.59ZM3.63 8.658l.56.226.387-.462-.042.602.56.226-.586.146-.042.602-.32-.512-.585.146.388-.462-.32-.512Zm-1.217 2.109.603.02.206-.566.167.58.602.02-.5.338.167.58-.476-.371-.5.337.206-.567-.475-.371Z"/>
    <path fill="#FFDA44" d="M17.107 5.087A9 9 0 0 0 9 0 9 9 0 0 0 .893 5.087h16.214Z"/>
  </g>
  <defs>
    <clipPath id="a">
      <path fill="#fff" d="M0 0h18v18H0z"/>
    </clipPath>
  </defs>
</svg>
