<svg xmlns="http://www.w3.org/2000/svg" width="18" height="18" fill="none" viewBox="0 0 18 18">
  <g clip-path="url(#a)">
    <path fill="#FCFCFC" d="M9 18A9 9 0 1 0 9 0a9 9 0 0 0 0 18Z"/>
    <path fill="#FFDA44" d="M10.529 6.288a1.529 1.529 0 0 0-3.058 0H4.11c0 .83.724 1.505 1.555 1.505h-.05c0 .83.674 1.505 1.505 1.505 0 .736.528 1.347 1.226 1.478l-.004.008H9.66l-.004-.008a1.505 1.505 0 0 0 1.226-1.478c.832 0 1.505-.674 1.505-1.505h-.05c.831 0 1.555-.674 1.555-1.505H10.53Z"/>
    <path fill="#FFDA44" d="m8.328 10.629-.948 2.14a4.293 4.293 0 0 0 3.24 0l-.948-2.14H8.328Z"/>
    <path fill="#F0F0F0" d="M7.043 7.04v2.632C7.043 11.17 9 11.63 9 11.63s1.957-.46 1.957-1.957V7.04H7.043Z"/>
    <path fill="#338AF3" d="m2.182 9.063 1.059 2.96 1.047-2.96h.799L3.56 12.976h-.64L1.384 9.063h.8Zm12.296 3.913V9.063h.76v3.913h-.76Z"/>
    <path fill="#D80027" d="M7.826 7.89v3.19c.27.198.558.334.783.421V7.89h-.783Zm2.348 0v3.19a3.447 3.447 0 0 1-.783.421V7.89h.783Z"/>
    <path fill="#0052B4" d="M7.043 7.04h3.913v1.24H7.043V7.04Z"/>
  </g>
  <defs>
    <clipPath id="a">
      <path fill="#fff" d="M0 0h18v18H0z"/>
    </clipPath>
  </defs>
</svg>
