<svg xmlns="http://www.w3.org/2000/svg" width="18" height="18" fill="none" viewBox="0 0 18 18">
  <g clip-path="url(#a)">
    <path fill="#F0F0F0" d="M9 18A9 9 0 1 0 9 0a9 9 0 0 0 0 18Z"/>
    <path fill="#496E2D" d="M18 9A9 9 0 0 1 0 9"/>
    <path fill="#D80027" d="M15.575 6.263a2.348 2.348 0 0 0-2.215-1.567h-2.012A2.348 2.348 0 0 0 9 7.044c0 .423.113.83.31 1.173-.748-.006-1.44.006-1.875 0v-2.3l.092-.092c.415-.415.277-1.107.277-1.107s-.692-.138-1.107.277l-.484.483h-.54a2.152 2.152 0 0 0-2.15 2.152h1.565v1.761c0 .258.052.503.146.727l-.537.447h-.783v-.782H3.13v1.565h3.522v1.565H5.87v.783h1.565V12.13l.717-.86h1.696l.717.86v.783h-.782v.783h3.13V9.39a1.174 1.174 0 0 1 1.224-1.172 1.568 1.568 0 0 1 1.438-1.956Zm-4.227 6.65V11.27h.065l.717.86v.783h-.782Z"/>
  </g>
  <defs>
    <clipPath id="a">
      <path fill="#fff" d="M0 0h18v18H0z"/>
    </clipPath>
  </defs>
</svg>
