<svg xmlns="http://www.w3.org/2000/svg" width="18" height="18" fill="none" viewBox="0 0 18 18">
  <g clip-path="url(#a)">
    <path fill="#496E2D" d="M9 18A9 9 0 1 0 9 0a9 9 0 0 0 0 18Z"/>
    <path fill="#D80027" d="M12.522 9H9v9a8.985 8.985 0 0 0 3-.513L12.522 9Z"/>
    <path fill="#FF9811" d="M15 15.708A8.977 8.977 0 0 0 18 9h-3.522L15 15.708Z"/>
    <path fill="#000" d="M12 9v8.487a8.995 8.995 0 0 0 3-1.78V9h-3Z"/>
    <path fill="#FF9811" d="M16.63 5.87h-2.347a.783.783 0 0 0-1.566 0H10.37c0 .432.377.782.81.782h-.027c0 .432.35.783.783.783 0 .432.35.782.782.782h1.566c.432 0 .782-.35.782-.782.432 0 .783-.35.783-.783h-.026c.432 0 .808-.35.808-.782Z"/>
  </g>
  <defs>
    <clipPath id="a">
      <path fill="#fff" d="M0 0h18v18H0z"/>
    </clipPath>
  </defs>
</svg>
