<svg xmlns="http://www.w3.org/2000/svg" width="18" height="18" fill="none" viewBox="0 0 18 18">
  <g clip-path="url(#a)">
    <path fill="#F0F0F0" d="M9 18A9 9 0 1 0 9 0a9 9 0 0 0 0 18Z"/>
    <path fill="#FFDA44" d="M17.138 5.154a9.023 9.023 0 0 0-1.835-2.577L9 1.957l-6.304.62-.06.06 2.518 2.517L9 5.272l8.138-.118ZM2.637 15.363l.1.1 6.263.58 6.263-.58a9.023 9.023 0 0 0 1.857-2.578l-11.642-.363-2.841 2.841Z"/>
    <path fill="#000" d="M17.91 7.731 7.435 7.435 9 9l-1.565 1.565 10.47-.257a9.07 9.07 0 0 0 .005-2.577Z"/>
    <path fill="#6DA544" d="M9 0a8.97 8.97 0 0 0-6.304 2.577h12.607A8.97 8.97 0 0 0 9 0Z"/>
    <path fill="#D80027" d="M7.73 7.731h10.18a8.938 8.938 0 0 0-.772-2.577H5.154L7.73 7.731Zm-2.615 5.154H17.12c.384-.8.652-1.667.785-2.577H7.692l-2.577 2.577Z"/>
    <path fill="#6DA544" d="M9 18a8.97 8.97 0 0 0 6.264-2.538H2.737A8.97 8.97 0 0 0 9 18Z"/>
    <path fill="#000" d="M3.214 2.107a9.07 9.07 0 0 0-.578.529L9 9l-6.364 6.364c.185.185.378.36.578.529L10.107 9 3.214 2.107Z"/>
    <path fill="#D80027" d="M3.619 6.652 4.2 8.446h1.886L4.561 9.554l.583 1.794-1.526-1.109-1.525 1.109.583-1.794L1.15 8.446h1.886l.583-1.794Z"/>
    <path fill="#FFDA44" d="m5.221 9.147-1.518-.538s-.113-1.053-.12-1.089a.587.587 0 1 0-1.142.265l-.425.43h.757c0 .785-.587.785-.587 1.568l.326.782h1.956l.326-.782a.782.782 0 0 0 .06-.23c.282-.114.367-.406.367-.406Z"/>
  </g>
  <defs>
    <clipPath id="a">
      <path fill="#fff" d="M0 0h18v18H0z"/>
    </clipPath>
  </defs>
</svg>
