<svg width="20" height="20" viewBox="0 0 20 20" fill="none" xmlns="http://www.w3.org/2000/svg">
<g clip-path="url(#clip0_1_2905)">
<path fill-rule="evenodd" clip-rule="evenodd" d="M5.49142 1.07561C5.46487 0.811393 5.34114 0.566448 5.14423 0.388279C4.94732 0.21011 4.69126 0.111413 4.42571 0.111328H1.09999C0.959291 0.111328 0.819967 0.139041 0.689975 0.192886C0.559983 0.24673 0.44187 0.325651 0.342379 0.425142C0.242887 0.524634 0.163966 0.642747 0.110122 0.772739C0.0562778 0.90273 0.0285645 1.04205 0.0285645 1.18276C0.0285645 1.32346 0.0562778 1.46278 0.110122 1.59277C0.163966 1.72277 0.242887 1.84088 0.342379 1.94037C0.44187 2.03986 0.559983 2.11878 0.689975 2.17263C0.819967 2.22647 0.959291 2.25419 1.09999 2.25419H3.45714L3.81428 5.83419C3.81428 5.85847 3.81571 5.88419 3.81856 5.90847L4.50714 12.7585L4.51285 12.7942C4.5865 13.281 4.83345 13.7247 5.20827 14.0439C5.5831 14.3631 6.06057 14.5362 6.55285 14.5313H14.91C15.3527 14.5505 15.7896 14.4253 16.1549 14.1746C16.5203 13.9239 16.7943 13.5613 16.9357 13.1413V13.1385L18.7043 7.81847C18.8058 7.5117 18.8331 7.1838 18.7839 6.86444C18.7347 6.54507 18.6105 6.24193 18.4214 5.9799C18.2253 5.70423 17.9637 5.4816 17.6603 5.33199C17.3568 5.18239 17.021 5.11049 16.6828 5.12276H5.89714L5.49142 1.07561ZM16.3214 18.3185C16.3214 17.8722 16.1441 17.4441 15.8285 17.1285C15.5129 16.8129 15.0849 16.6356 14.6386 16.6356C14.1922 16.6356 13.7642 16.8129 13.4486 17.1285C13.133 17.4441 12.9557 17.8722 12.9557 18.3185C12.9557 18.7648 13.133 19.1928 13.4486 19.5084C13.7642 19.824 14.1922 20.0013 14.6386 20.0013C15.0849 20.0013 15.5129 19.824 15.8285 19.5084C16.1441 19.1928 16.3214 18.7648 16.3214 18.3185ZM7.28714 16.6342C7.50813 16.6342 7.72696 16.6777 7.93114 16.7623C8.13531 16.8469 8.32083 16.9708 8.4771 17.1271C8.63336 17.2833 8.75732 17.4689 8.84189 17.673C8.92647 17.8772 8.96999 18.096 8.96999 18.317C8.96999 18.538 8.92647 18.7569 8.84189 18.961C8.75732 19.1652 8.63336 19.3507 8.4771 19.507C8.32083 19.6633 8.13531 19.7872 7.93114 19.8718C7.72696 19.9564 7.50813 19.9999 7.28714 19.9999C6.84081 19.9999 6.41277 19.8226 6.09718 19.507C5.78158 19.1914 5.60428 18.7634 5.60428 18.317C5.60428 17.8707 5.78158 17.4427 6.09718 17.1271C6.41277 16.8115 6.84081 16.6342 7.28714 16.6342ZM8.83999 7.67847C9.33285 7.67847 9.73285 8.07847 9.73285 8.57133V11.4285C9.73285 11.6653 9.63878 11.8924 9.47134 12.0598C9.3039 12.2273 9.07679 12.3213 8.83999 12.3213C8.60319 12.3213 8.37609 12.2273 8.20865 12.0598C8.04121 11.8924 7.94714 11.6653 7.94714 11.4285V8.57133C7.94714 8.07847 8.34714 7.67847 8.83999 7.67847ZM14.7328 8.57133C14.7328 8.33453 14.6388 8.10743 14.4713 7.93998C14.3039 7.77254 14.0768 7.67847 13.84 7.67847C13.6032 7.67847 13.3761 7.77254 13.2086 7.93998C13.0412 8.10743 12.9471 8.33453 12.9471 8.57133V11.4285C12.9471 11.6653 13.0412 11.8924 13.2086 12.0598C13.3761 12.2273 13.6032 12.3213 13.84 12.3213C14.0768 12.3213 14.3039 12.2273 14.4713 12.0598C14.6388 11.8924 14.7328 11.6653 14.7328 11.4285V8.57133Z" fill="#087ED8"/>
</g>
<defs>
<clipPath id="clip0_1_2905">
<rect width="20" height="20" fill="white"/>
</clipPath>
</defs>
</svg>
