<svg xmlns="http://www.w3.org/2000/svg" width="60" height="38" fill="none" viewBox="0 0 60 38">
  <g clip-path="url(#a)">
    <path fill="#262D38" d="M30.59 7.464h-.63v.842h.63a.51.51 0 0 0 .35-.116.385.385 0 0 0 .136-.305.386.386 0 0 0-.135-.305.51.51 0 0 0-.352-.116ZM16.494 9.226a.697.697 0 0 0 .04-.163c.012-.065.017-.143.02-.234.004-.09.004-.199.004-.325 0-.125 0-.233-.003-.324a1.896 1.896 0 0 0-.02-.234.695.695 0 0 0-.04-.163.436.436 0 0 0-.076-.122c-.112-.131-.276-.197-.5-.197h-.509v2.08h.51c.223 0 .388-.066.5-.197a.466.466 0 0 0 .074-.12ZM10.338 8.19a.39.39 0 0 0 .134-.305.39.39 0 0 0-.134-.305.514.514 0 0 0-.353-.116h-.63v.843h.63a.515.515 0 0 0 .353-.116Zm16.601.82h.851l-.42-1.16-.431 1.16Z"/>
    <path fill="#262D38" d="M54.686 0H5.314C2.38 0 0 2.286 0 5.102v27.604c0 2.817 2.38 5.102 5.314 5.102h49.372c2.934 0 5.314-2.285 5.314-5.102V5.102C60 2.286 57.62 0 54.686 0Zm-22.25 6.81h1.235c.235 0 .434.039.603.113.164.075.307.193.432.355.051.068.091.14.12.218a.946.946 0 0 1 .067.25c.01.091.022.191.023.3a11.027 11.027 0 0 1 0 .723 2.857 2.857 0 0 1-.023.299.96.96 0 0 1-.066.251.923.923 0 0 1-.121.218c-.125.16-.267.28-.432.354a1.46 1.46 0 0 1-.603.112h-1.236V6.811Zm-9.304 1.185c.005-.123.018-.235.038-.34a1.05 1.05 0 0 1 .1-.282 1.02 1.02 0 0 1 .2-.253c.12-.106.253-.19.4-.248.148-.058.322-.086.52-.086.32 0 .593.084.82.253.227.169.37.418.434.754h-.683a.643.643 0 0 0-.187-.325c-.091-.085-.22-.127-.384-.127a.642.642 0 0 0-.248.044.522.522 0 0 0-.18.121.383.383 0 0 0-.08.113.663.663 0 0 0-.05.162 1.593 1.593 0 0 0-.028.248c-.008.1-.011.226-.011.378 0 .153.003.28.01.38.004.1.015.182.028.25a.668.668 0 0 0 .052.16c.02.041.045.078.078.112.05.05.108.09.181.12a.677.677 0 0 0 .248.045c.164 0 .296-.042.386-.128a.651.651 0 0 0 .19-.324h.678c-.064.334-.207.585-.434.754-.227.17-.5.255-.82.255-.198 0-.372-.031-.52-.088a1.358 1.358 0 0 1-.4-.25 1.059 1.059 0 0 1-.2-.249 1.119 1.119 0 0 1-.1-.285 2.346 2.346 0 0 1-.038-.34 13.409 13.409 0 0 1 0-.824Zm-4.01-1.185h2.457v.558h-.893v2.635h-.669V7.37h-.895v-.56Zm-1.21 0h.666v3.193h-.667V6.811Zm-3.17 0h1.236c.234 0 .432.039.6.113a1.11 1.11 0 0 1 .555.573.996.996 0 0 1 .066.25c.013.091.02.191.024.3.004.11.004.23.004.36 0 .133 0 .254-.004.363a2.859 2.859 0 0 1-.024.299 1.035 1.035 0 0 1-.188.47c-.121.16-.266.279-.433.353a1.45 1.45 0 0 1-.6.112h-1.236V6.811Zm-2.91 0h2.252v.558H12.5v.747h1.351v.557H12.5v.776h1.585v.555h-2.252V6.811Zm-3.145 0h1.342c.174 0 .327.028.465.08.137.052.254.122.351.21a.938.938 0 0 1 .243.993.939.939 0 0 1-.135.24.952.952 0 0 1-.44.294l.766 1.376h-.776L9.836 8.73h-.481v1.273h-.669V6.811ZM7.072 22.25v-2.46h3.896v2.46H7.072Zm3.896.788v2.659H8.815c-.963 0-1.743-.75-1.743-1.674v-.985h3.896Zm-3.896-4.036V16.54h3.896v2.462H7.072Zm0-3.25v-.984c0-.925.78-1.674 1.743-1.674h2.153v2.659H7.072ZM5.588 8.409c0-.152.004-.289.008-.412.005-.123.018-.235.04-.34.02-.103.055-.198.099-.282a.977.977 0 0 1 .201-.253c.118-.106.25-.19.4-.248.146-.058.32-.086.518-.086.32 0 .595.084.822.253.225.169.368.418.432.754h-.681a.67.67 0 0 0-.187-.325c-.091-.085-.22-.127-.386-.127a.642.642 0 0 0-.247.044.497.497 0 0 0-.312.396 1.835 1.835 0 0 0-.027.248 7.125 7.125 0 0 0 0 .757c.005.1.015.183.027.25.015.063.031.12.052.16a.52.52 0 0 0 .26.234.678.678 0 0 0 .247.044c.166 0 .296-.042.386-.128a.651.651 0 0 0 .19-.324h.678c-.064.334-.207.585-.432.754a1.33 1.33 0 0 1-.822.255c-.198 0-.372-.031-.518-.088a1.29 1.29 0 0 1-.4-.25 1.026 1.026 0 0 1-.201-.249 1.124 1.124 0 0 1-.099-.285 2.107 2.107 0 0 1-.04-.34c-.004-.122-.008-.26-.008-.412ZM15 31.806H5.625v-1.8H15v1.8Zm.48-16.052v9.944h-3.692V13.095h6.664c.963 0 1.745.749 1.745 1.674v.985H15.48Zm.82 3.249V16.54h3.897v2.462H16.3Zm3.897.787v2.462H16.3V19.79h3.897ZM16.3 25.698v-2.659h3.897v.985c0 .925-.782 1.674-1.745 1.674H16.3Zm11.87-15.694-.201-.564h-1.216l-.209.564h-.696l1.245-3.193h.524l1.252 3.193h-.7Zm2.27-1.273h-.48v1.273h-.668V6.811h1.343c.172 0 .327.028.465.08.137.052.254.123.351.21a.935.935 0 0 1 .293.687.841.841 0 0 1-.386.725.96.96 0 0 1-.24.115l.765 1.376h-.774l-.669-1.273Z"/>
    <path fill="#262D38" d="M34.19 9.226a.956.956 0 0 0 .04-.163 2.45 2.45 0 0 0 .018-.234c.004-.09.004-.199.004-.325 0-.125 0-.233-.004-.324a2.45 2.45 0 0 0-.018-.234.953.953 0 0 0-.04-.163.407.407 0 0 0-.078-.122c-.11-.131-.278-.197-.5-.197h-.509v2.08h.51c.221 0 .39-.066.5-.197a.43.43 0 0 0 .076-.12Z"/>
    <path fill="#00AAF3" d="M29.024 15.5v-1.248h2.496V23h-1.38v-7.5h-1.116Zm5.132 5.64a47.403 47.403 0 0 0 1.812-1.632c.448-.432.82-.88 1.116-1.344.296-.464.444-.928.444-1.392 0-.48-.116-.856-.348-1.128-.224-.272-.58-.408-1.068-.408-.472 0-.84.152-1.104.456-.256.296-.392.696-.408 1.2h-1.32c.024-.912.296-1.608.816-2.088.528-.488 1.196-.732 2.004-.732.872 0 1.552.24 2.04.72.496.48.744 1.12.744 1.92 0 .576-.148 1.132-.444 1.668a6.62 6.62 0 0 1-1.044 1.428c-.4.416-.912.9-1.536 1.452l-.54.48h3.804v1.14h-5.832v-.996l.864-.744Zm6.145-4.728c.048-.744.332-1.324.852-1.74.529-.416 1.2-.624 2.017-.624.56 0 1.044.1 1.451.3.408.2.716.472.924.816.209.344.313.732.313 1.164 0 .496-.133.92-.396 1.272-.265.352-.58.588-.949.708v.048c.473.144.84.408 1.105.792.264.376.395.86.395 1.452 0 .472-.107.892-.323 1.26-.216.368-.536.66-.96.876-.424.208-.932.312-1.524.312-.864 0-1.577-.22-2.137-.66-.552-.448-.848-1.088-.888-1.92h1.32c.032.424.197.772.492 1.044.296.264.697.396 1.2.396.489 0 .864-.132 1.129-.396.264-.272.395-.62.395-1.044 0-.56-.18-.956-.54-1.188-.352-.24-.895-.36-1.632-.36h-.312v-1.128h.325c.648-.008 1.14-.116 1.475-.324.344-.208.517-.536.517-.984 0-.384-.124-.688-.372-.912-.248-.232-.6-.348-1.056-.348-.449 0-.797.116-1.044.348a1.356 1.356 0 0 0-.445.84h-1.332Zm6.981 4.764v-1.032l4.033-5.784h1.656v5.628h1.116v1.188H52.97V23h-1.343v-1.824h-4.345Zm4.405-5.424-2.832 4.236h2.832v-4.236Z"/>
  </g>
  <defs>
    <clipPath id="a">
      <path fill="#fff" d="M0 0h60v38H0z"/>
    </clipPath>
  </defs>
</svg>
