<svg width="50" height="50" viewBox="0 0 50 50" fill="none" xmlns="http://www.w3.org/2000/svg">
<path d="M49.8708 28.6552L47.3399 24.7828C46.2223 23.0717 44.3236 22.0499 42.2596 22.0499H35.7142V18.2833C35.7142 15.9836 33.8441 14.1135 31.5444 14.1135H19.2915C18.6039 10.5227 15.4432 7.79834 11.6548 7.79834C7.36509 7.79834 3.87555 11.2883 3.87555 15.5776C3.87555 18.2747 5.25656 20.6539 7.34738 22.0499H0.79382C0.35513 22.0499 0 22.405 0 22.8437C0 23.2824 0.35513 23.6375 0.79382 23.6375H8.73021V25.2247H5.55538C5.11714 25.2247 4.76201 25.5798 4.76201 26.0185C4.76201 26.4572 5.11714 26.8119 5.55538 26.8119H8.73021V28.3991H0.79382C0.35513 28.3991 0 28.7542 0 29.1929C0 29.6316 0.35513 29.9867 0.79382 29.9867H8.73021V33.5017C7.33103 34.1188 6.3492 35.5148 6.3492 37.1397V37.9231C6.3492 38.3618 6.70478 38.7169 7.14302 38.7169H14.182C14.6335 40.6588 16.3746 42.112 18.4522 42.112C20.5303 42.112 22.271 40.6588 22.7224 38.7169H37.9917C38.4435 40.6588 40.1847 42.112 42.2619 42.112C44.339 42.112 46.0806 40.6588 46.532 38.7169H49.2064C49.6451 38.7169 49.9998 38.3618 49.9998 37.9231V29.0893C49.9998 28.9349 49.9548 28.7837 49.8708 28.6552ZM5.46274 15.5776C5.46274 12.1634 8.24065 9.38553 11.6548 9.38553C15.0694 9.38553 17.8469 12.1634 17.8469 15.5776C17.8469 18.9918 15.0694 21.7697 11.6548 21.7697C8.24065 21.7697 5.46274 18.9918 5.46274 15.5776ZM10.3174 29.9867H11.9046C12.3433 29.9867 12.6984 29.6316 12.6984 29.1929C12.6984 28.7542 12.3433 28.3991 11.9046 28.3991H10.3174V26.8119H15.8732C16.3115 26.8119 16.6666 26.4572 16.6666 26.0185C16.6666 25.5798 16.3115 25.2247 15.8732 25.2247H10.3174V23.6375H20.6348C21.073 23.6375 21.4286 23.2824 21.4286 22.8437C21.4286 22.405 21.073 22.0499 20.6348 22.0499H15.9622C18.0208 20.6752 19.3864 18.3464 19.4282 15.7007H31.5448C32.9685 15.7007 34.127 16.8596 34.127 18.2833V33.1611H10.3274C10.3242 33.1611 10.321 33.162 10.3174 33.162V29.9867ZM34.127 37.1293H22.7946C22.6697 36.2165 22.2647 35.3936 21.6666 34.7483H34.127V37.1293ZM10.3274 34.7483H15.2379C14.6403 35.3936 14.2347 36.2165 14.1103 37.1293H7.93639C7.94184 35.8159 9.01268 34.7483 10.3274 34.7483ZM18.4522 40.5248C16.9086 40.5248 15.6521 39.2687 15.6521 37.7246C15.6521 36.181 16.9086 34.9245 18.4522 34.9245C19.9963 34.9245 21.2524 36.181 21.2524 37.7246C21.2524 39.2687 19.9963 40.5248 18.4522 40.5248ZM42.2619 40.5248C40.7183 40.5248 39.4617 39.2687 39.4617 37.7246C39.4617 36.181 40.7183 34.9245 42.2619 34.9245C43.8059 34.9245 45.062 36.181 45.062 37.7246C45.062 39.2687 43.8059 40.5248 42.2619 40.5248ZM48.4126 37.1293H46.6042C46.3122 34.9917 44.4785 33.3373 42.2619 33.3373C40.0452 33.3373 38.2119 34.9917 37.9195 37.1293H35.7142V23.6375H42.2596C43.785 23.6375 45.1878 24.39 46.0116 25.6507L48.4126 29.3255V37.1293Z" fill="#087ED8"/>
<path d="M43.5602 37.7246C43.5602 38.4417 42.9789 39.023 42.2619 39.023C41.5448 39.023 40.9635 38.4417 40.9635 37.7246C40.9635 37.0076 41.5448 36.4263 42.2619 36.4263C42.9789 36.4263 43.5602 37.0076 43.5602 37.7246Z" fill="#087ED8"/>
<path d="M19.7506 37.7246C19.7506 38.4417 19.1693 39.023 18.4522 39.023C17.7356 39.023 17.1543 38.4417 17.1543 37.7246C17.1543 37.0076 17.7356 36.4263 18.4522 36.4263C19.1693 36.4263 19.7506 37.0076 19.7506 37.7246Z" fill="#087ED8"/>
<path d="M12.6984 15.5777V12.1054C12.6984 11.6667 12.3433 11.312 11.9046 11.312C11.4663 11.312 11.1112 11.6667 11.1112 12.1054V15.3188L9.49133 17.5409C9.23293 17.8951 9.31058 18.391 9.66481 18.6489C9.80649 18.7525 9.96998 18.802 10.1321 18.802C10.3769 18.802 10.6185 18.6889 10.7738 18.4755L12.5463 16.045C12.6448 15.9096 12.6984 15.7461 12.6984 15.5777Z" fill="#087ED8"/>
<path d="M41.9944 24.4309H40.4762C40.0375 24.4309 39.6824 24.786 39.6824 25.2247V30.7801C39.6824 31.2188 40.0375 31.5739 40.4762 31.5739H45.8177C46.3154 31.5739 46.7609 31.3164 47.0107 30.8864C47.2605 30.4563 47.2609 29.9413 47.0148 29.5122L45.1615 26.2683C44.5143 25.1357 43.3004 24.4309 41.9944 24.4309ZM41.27 29.9867V26.0185H41.9944C42.7323 26.0185 43.4176 26.4159 43.7832 27.0562L45.4576 29.9867H41.27Z" fill="#087ED8"/>
</svg>
