<svg style="display: none;" aria-hidden="true" xmlns="http://www.w3.org/2000/svg" xmlns:xlink="http://www.w3.org/1999/xlink"><symbol fill="#000000" viewBox="0 0 16 16" id="svg-arr-down" xmlns="http://www.w3.org/2000/svg">
  <path d="M12.473 6.273a.667.667 0 0 0-.947 0L8.473 9.327a.667.667 0 0 1-.947 0L4.473 6.273a.667.667 0 1 0-.947.94l3.06 3.06a2 2 0 0 0 2.827 0l3.06-3.06a.667.667 0 0 0 0-.94Z"/>
</symbol><symbol fill="currentColor" viewBox="0 0 16 17" id="svg-arr-left" xmlns="http://www.w3.org/2000/svg">
  <path fill-rule="evenodd" d="M6.998 2.959a.75.75 0 0 0-1.06.021l-4.48 4.667a.75.75 0 0 0 0 1.039l4.478 4.666a.75.75 0 0 0 1.083-1.038L3.04 8.166 7.02 4.02a.75.75 0 0 0-.022-1.06Z" clip-rule="evenodd"/>
  <path fill-rule="evenodd" d="M2.178 8.25c0 .414.336.75.75.75H13.25a.75.75 0 0 0 0-1.5H2.928a.75.75 0 0 0-.75.75Z" clip-rule="evenodd"/>
</symbol><symbol fill="currentColor" viewBox="0 0 17 16" id="svg-arr-right" xmlns="http://www.w3.org/2000/svg">
  <path fill-rule="evenodd" d="M9.503 2.459a.75.75 0 0 1 1.06.021l4.478 4.667a.75.75 0 0 1 0 1.039l-4.478 4.666a.75.75 0 0 1-1.082-1.038l3.98-4.148L9.48 3.52a.75.75 0 0 1 .022-1.06Z" clip-rule="evenodd"/>
  <path fill-rule="evenodd" d="M14.322 7.75a.75.75 0 0 1-.75.75H3.25a.75.75 0 1 1 0-1.5h10.322a.75.75 0 0 1 .75.75Z" clip-rule="evenodd"/>
</symbol><symbol fill="none" viewBox="0 0 40 41" id="svg-bnb" xmlns="http://www.w3.org/2000/svg">
  <path fill="#F3BA2F" d="M39.402 25.338C36.73 36.053 25.877 42.573 15.16 39.901 4.448 37.231-2.074 26.377.6 15.664 3.269 4.948 14.123-1.573 24.836 1.098c10.716 2.672 17.237 13.525 14.565 24.24Z"/>
  <path fill="#fff" fill-rule="evenodd" d="m20.002 13.193-5.18 5.18.001-.001-3.014-3.013 8.193-8.192 8.196 8.194-3.014 3.013-5.182-5.18Zm-10.32 4.293L6.666 20.5l3.014 3.013 3.014-3.014-3.014-3.013Zm5.14 5.142 5.18 5.179 5.182-5.181 3.015 3.011-.001.002-8.196 8.194-8.193-8.192-.004-.004 3.018-3.009Zm15.502-5.14L27.31 20.5l3.014 3.014 3.013-3.014-3.013-3.013Z" clip-rule="evenodd"/>
  <path fill="#fff" d="m23.059 20.498-3.057-3.057-2.26 2.259-.26.26-.535.535-.005.004.005.005 3.055 3.055 3.058-3.057.002-.002-.003-.002"/>
</symbol><symbol fill="none" viewBox="0 0 40 41" id="svg-bnbu" xmlns="http://www.w3.org/2000/svg">
  <circle cx="20" cy="20.5" r="20" fill="#F0B90B"/>
  <path fill="#fff" stroke="#fff" d="m19.94 7.167 3.29 3.368-8.282 8.28-3.289-3.288 8.281-8.36Zm4.993 4.993 3.289 3.367-13.274 13.274-3.289-3.289L24.933 12.16ZM9.955 17.152l3.289 3.368-3.289 3.288-3.288-3.288 3.288-3.368Zm19.97 0 3.289 3.368L19.94 33.794l-3.289-3.29 13.274-13.352Z"/>
</symbol><symbol fill="none" viewBox="0 0 40 41" id="svg-btc" xmlns="http://www.w3.org/2000/svg">
  <path fill="#F7931A" d="M39.402 25.338C36.73 36.053 25.877 42.573 15.16 39.901 4.448 37.231-2.074 26.377.6 15.664 3.269 4.948 14.123-1.573 24.836 1.098c10.716 2.672 17.237 13.525 14.565 24.24Z"/>
  <path fill="#fff" fill-rule="evenodd" d="M28.82 17.65c.398-2.661-1.628-4.092-4.4-5.046l.9-3.606-2.196-.546-.875 3.51c-.577-.144-1.17-.28-1.758-.414l.881-3.533-2.193-.547-.9 3.604a72.51 72.51 0 0 1-1.401-.33l.002-.01-3.027-.757-.584 2.344s1.629.374 1.595.397c.888.221 1.05.81 1.022 1.276l-1.024 4.107c.062.016.141.038.229.074l-.064-.016-.168-.042-1.436 5.754c-.108.27-.384.675-1.005.521.022.032-1.596-.398-1.596-.398l-1.09 2.512 2.857.712c.313.079.622.16.928.24l.637.164-.909 3.647 2.193.547.9-3.608c.598.162 1.18.312 1.748.454l-.896 3.59 2.195.547.908-3.64c3.743.709 6.557.423 7.742-2.962.954-2.725-.048-4.297-2.017-5.322 1.434-.33 2.515-1.274 2.803-3.222h-.001Zm-5.015 7.032c-.622 2.5-4.537 1.466-6.327.994-.162-.043-.305-.081-.428-.112l1.205-4.83c.15.037.333.078.54.124 1.852.416 5.648 1.267 5.01 3.824Zm-4.639-6.066c1.493.398 4.75 1.267 5.318-1.005.58-2.324-2.586-3.025-4.132-3.367-.174-.039-.328-.073-.453-.104l-1.093 4.382c.104.025.225.058.36.094Z" clip-rule="evenodd"/>
</symbol><symbol fill="none" viewBox="0 0 30 30" id="svg-cart" xmlns="http://www.w3.org/2000/svg">
  <g clip-path="url(#aha)">
    <path fill="#DAEEC0" d="M7.5 18.125h18.046a1.875 1.875 0 0 0 1.79-1.316l1.953-6.25A1.874 1.874 0 0 0 27.5 8.125H6.102c-.27 0-.534-.087-.75-.25L6.5 18.608a1.174 1.174 0 0 1 1-.483Z"/>
    <path fill="#739D3E" d="M23.181 14.518a1.875 1.875 0 0 0 1.789-1.316l1.588-5.077h.942a1.875 1.875 0 0 1 1.789 2.434l-1.953 6.25a1.875 1.875 0 0 1-1.79 1.316H7.5a1.173 1.173 0 0 0-1 .483l-.436-4.09H23.18Z"/>
    <path stroke="#262D38" stroke-linecap="round" stroke-linejoin="round" stroke-width="1.5" d="M.625 3.125h3.197a.625.625 0 0 1 .625.549l.415 3.355a1.25 1.25 0 0 0 1.24 1.096H27.5a1.875 1.875 0 0 1 1.789 2.434l-1.953 6.25a1.875 1.875 0 0 1-1.79 1.316H7.5a1.25 1.25 0 0 0 0 2.5H25m-19.376-10 .552 4.973"/>
    <path fill="#739D3E" stroke="#262D38" stroke-linecap="round" stroke-linejoin="round" stroke-width="1.5" d="M22.499 26.875a1.875 1.875 0 1 1 0-3.75 1.875 1.875 0 0 1 0 3.75Zm-13.75 0a1.875 1.875 0 1 1 0-3.75 1.875 1.875 0 0 1 0 3.75Z"/>
  </g>
  <defs>
    <clipPath id="aha">
      <path fill="#fff" d="M0 0h30v30H0z" transform="matrix(-1 0 0 1 30 0)"/>
    </clipPath>
  </defs>
</symbol><symbol fill="none" viewBox="0 0 30 30" id="svg-cart-2" xmlns="http://www.w3.org/2000/svg">
  <g clip-path="url(#aga)">
    <path fill="#fff" fill-opacity=".25" d="M7.5 18.125h18.046a1.875 1.875 0 0 0 1.79-1.316l1.953-6.25A1.876 1.876 0 0 0 27.5 8.125H6.103c-.271 0-.534-.087-.75-.25L6.5 18.608a1.174 1.174 0 0 1 1-.483Z"/>
    <path fill="#739D3E" d="M23.181 14.518a1.875 1.875 0 0 0 1.79-1.316l1.587-5.077h.942a1.875 1.875 0 0 1 1.789 2.434l-1.953 6.25a1.875 1.875 0 0 1-1.79 1.316H7.5a1.173 1.173 0 0 0-1 .483l-.436-4.09H23.18Z"/>
    <path stroke="#fff" stroke-linecap="round" stroke-linejoin="round" stroke-width="1.5" d="M.625 3.125h3.198a.625.625 0 0 1 .625.549l.415 3.355a1.25 1.25 0 0 0 1.24 1.096H27.5a1.874 1.874 0 0 1 1.789 2.434l-1.953 6.25a1.875 1.875 0 0 1-1.79 1.316H7.5a1.25 1.25 0 0 0 0 2.5H25m-19.376-10 .552 4.973"/>
    <path fill="#739D3E" stroke="#fff" stroke-linecap="round" stroke-linejoin="round" stroke-width="1.5" d="M22.499 26.875a1.875 1.875 0 1 1 0-3.75 1.875 1.875 0 0 1 0 3.75Zm-13.75 0a1.875 1.875 0 1 1 0-3.75 1.875 1.875 0 0 1 0 3.75Z"/>
  </g>
  <defs>
    <clipPath id="aga">
      <path fill="#fff" d="M0 0h30v30H0z" transform="matrix(-1 0 0 1 30 0)"/>
    </clipPath>
  </defs>
</symbol><symbol fill="currentColor" viewBox="0 0 18 18" id="svg-checkmark" xmlns="http://www.w3.org/2000/svg">
  <path fill-rule="evenodd" d="M2.293 8.528a1 1 0 0 1 1.414 0l3.536 3.536 7.778-7.778A1 1 0 0 1 16.435 5.7l-9.192 9.192-4.95-4.95a1 1 0 0 1 0-1.414Z" clip-rule="evenodd"/>
</symbol><symbol fill="currentColor" viewBox="0 0 24 24" id="svg-close" xmlns="http://www.w3.org/2000/svg">
  <path fill-rule="evenodd" d="M5.293 5.293a1 1 0 0 1 1.414 0l12.774 12.774a1 1 0 0 1-1.414 1.414L5.293 6.707a1 1 0 0 1 0-1.414Z" clip-rule="evenodd"/>
  <path fill-rule="evenodd" d="M5.293 19.481a1 1 0 0 1 0-1.414L18.067 5.293a1 1 0 1 1 1.414 1.414L6.707 19.481a1 1 0 0 1-1.414 0Z" clip-rule="evenodd"/>
</symbol><symbol fill="currentColor" viewBox="0 0 18 18" id="svg-copy" xmlns="http://www.w3.org/2000/svg">
  <g clip-path="url(#aka)">
    <path d="M11.25 15h-7.5A3.755 3.755 0 0 1 0 11.25v-7.5A3.755 3.755 0 0 1 3.75 0h7.5A3.754 3.754 0 0 1 15 3.75v7.5A3.754 3.754 0 0 1 11.25 15ZM3.75 1.5A2.25 2.25 0 0 0 1.5 3.75v7.5a2.25 2.25 0 0 0 2.25 2.25h7.5a2.25 2.25 0 0 0 2.25-2.25v-7.5a2.25 2.25 0 0 0-2.25-2.25h-7.5ZM18 14.25V4.5a.75.75 0 1 0-1.5 0v9.75a2.25 2.25 0 0 1-2.25 2.25H4.5a.75.75 0 1 0 0 1.5h9.75A3.754 3.754 0 0 0 18 14.25Z"/>
  </g>
  <defs>
    <clipPath id="aka">
      <path d="M0 0h18v18H0z"/>
    </clipPath>
  </defs>
</symbol><symbol fill="none" viewBox="0 0 40 41" id="svg-erc20" xmlns="http://www.w3.org/2000/svg">
  <path fill="#50AF95" d="M39.402 25.338C36.73 36.053 25.877 42.573 15.16 39.901 4.448 37.231-2.074 26.377.6 15.664 3.269 4.948 14.123-1.573 24.836 1.098c10.716 2.672 17.237 13.525 14.565 24.24Z"/>
  <path fill="#fff" fill-rule="evenodd" d="M22.534 22.767c-.142.011-.872.055-2.503.055a54.59 54.59 0 0 1-2.54-.055c-5.01-.22-8.75-1.092-8.75-2.136s3.74-1.915 8.75-2.139v3.407a37.74 37.74 0 0 0 2.563.079c1.556 0 2.335-.065 2.475-.078v-3.406c5 .223 8.731 1.095 8.731 2.137s-3.73 1.914-8.731 2.135l.005.002Zm0-4.625v-3.049h6.977v-4.649H10.514v4.65h6.976v3.047c-5.67.26-9.934 1.383-9.934 2.73 0 1.345 4.264 2.467 9.934 2.729v9.77h5.042v-9.774c5.658-.26 9.915-1.382 9.915-2.727s-4.254-2.467-9.915-2.728l.002.001Z" clip-rule="evenodd"/>
</symbol><symbol fill="none" viewBox="0 0 40 41" id="svg-eth" xmlns="http://www.w3.org/2000/svg">
  <circle cx="20" cy="20.5" r="20" fill="#EDF0F4"/>
  <path fill="#343434" d="m19.945 8.5-.159.54v15.681l.16.159 7.278-4.303L19.945 8.5Z"/>
  <path fill="#8C8C8C" d="m19.945 8.5-7.279 12.077 7.28 4.303V8.5Z"/>
  <path fill="#3C3C3B" d="m19.945 26.258-.09.11v5.585l.09.262 7.283-10.257-7.283 4.3Z"/>
  <path fill="#8C8C8C" d="M19.945 32.215v-5.957l-7.279-4.3 7.28 10.257Z"/>
  <path fill="#141414" d="m19.945 24.88 7.279-4.303-7.279-3.308v7.61Z"/>
  <path fill="#393939" d="m12.666 20.577 7.28 4.303v-7.611l-7.28 3.308Z"/>
</symbol><symbol fill="none" viewBox="0 0 24 24" id="svg-global" xmlns="http://www.w3.org/2000/svg">
  <g clip-path="url(#ana)">
    <path fill="#DAEEC0" d="M23.5 11.94a11.538 11.538 0 0 1-11.532 11.545A11.662 11.662 0 0 1 .5 11.734 11.246 11.246 0 0 1 11.505.5c.166-.007.332-.01.5-.01A11.433 11.433 0 0 1 23.5 11.94Z"/>
    <path fill="#739D3E" d="M4.5 12.75A11.246 11.246 0 0 1 15.505 1.51a11.672 11.672 0 0 1 1.326.018A11.564 11.564 0 0 0 12.005.485c-.168 0-.334 0-.5.01A11.246 11.246 0 0 0 .5 11.735a11.688 11.688 0 0 0 10.773 11.728A11.841 11.841 0 0 1 4.5 12.75Z"/>
    <path stroke="#262D38" stroke-linecap="round" stroke-linejoin="round" d="M23.5 11.94a11.538 11.538 0 0 1-11.532 11.545A11.662 11.662 0 0 1 .5 11.734 11.246 11.246 0 0 1 11.505.5c.166-.007.332-.01.5-.01A11.433 11.433 0 0 1 23.5 11.94Z"/>
    <path stroke="#262D38" stroke-linecap="round" stroke-linejoin="round" d="M11.505.5c-6 6.5-6 14.98 0 22.98m1-22.98c6 6.5 6 14.977 0 22.977M2.386 5.484H21.52m-21.017 6H23.5m-21.515 6h20.1"/>
  </g>
  <defs>
    <clipPath id="ana">
      <path fill="#fff" d="M0 0h24v24H0z"/>
    </clipPath>
  </defs>
</symbol><symbol fill="none" viewBox="0 0 25 25" id="svg-home" xmlns="http://www.w3.org/2000/svg">
  <g clip-path="url(#aoa)">
    <path fill="#739D3E" d="M18.25 9.5V4.083h-2.916v2.5L18.251 9.5Z"/>
    <path fill="#DAEEC0" d="M16.792 4.083h-1.458v2.5l1.458 1.459V4.084Z"/>
    <path fill="#DAEEC0" d="m12 3.25-9.584 9.583h2.5v7.917a.833.833 0 0 0 .833.833H9.5a.417.417 0 0 0 .417-.416v-3.334a2.083 2.083 0 0 1 4.167 0v3.334a.417.417 0 0 0 .416.416h3.75a.834.834 0 0 0 .834-.833v-7.917h2.5L11.999 3.25Z"/>
    <path fill="#739D3E" d="m4.916 13.667 6.788-6.789a.417.417 0 0 1 .59 0l6.789 6.789v-.834h2.5L11.999 3.25l-9.583 9.583h2.5v.834Z"/>
    <path stroke="#2A2F41" stroke-linecap="round" stroke-linejoin="round" d="M4.916 13.25v7.5a.833.833 0 0 0 .833.833H9.5a.417.417 0 0 0 .417-.416v-3.334a2.083 2.083 0 0 1 4.167 0v3.334a.417.417 0 0 0 .416.416h3.75a.834.834 0 0 0 .834-.833v-7.083m-16.668-.834 9.583-9.583 9.584 9.583m-6.249-8.75h2.5a.417.417 0 0 1 .417.417V7"/>
  </g>
  <defs>
    <clipPath id="aoa">
      <path fill="#fff" d="M0 0h20v20H0z" transform="translate(2 2)"/>
    </clipPath>
  </defs>
</symbol><symbol fill="none" viewBox="0 0 40 41" id="svg-ltc" xmlns="http://www.w3.org/2000/svg">
  <circle cx="20.167" cy="20.333" r="17.833" fill="#fff"/>
  <path fill="#345D9D" fill-rule="evenodd" d="M0 20.5C0 9.454 8.954.5 20 .5h.116A19.942 19.942 0 0 1 40 20.5c0 11.046-8.954 20-20 20s-20-8.954-20-20Zm18.257 7.7 2.082-7.022 3.245-.92.678-2.325-3.197.969 3.39-11.526v-.184a.562.562 0 0 0-.58-.542h-4.31a.731.731 0 0 0-.727.533l-4.02 13.656-3.196.968-.726 2.228 3.196-.968-2.857 9.733H28.28a.722.722 0 0 0 .726-.532l.969-3.342v-.184a.562.562 0 0 0-.581-.542H18.257Z" clip-rule="evenodd"/>
</symbol><symbol fill="none" viewBox="0 0 40 40" id="svg-preference-01" xmlns="http://www.w3.org/2000/svg">
  <path fill="#739D3E" d="M24.747 15.253a1.459 1.459 0 0 0-1.149-.426l-7.866.413a5.038 5.038 0 0 0-2.844 1.267L2.282 27.117a1.667 1.667 0 0 0 0 2.356l8.251 8.249a1.667 1.667 0 0 0 2.357 0L23.5 27.113a5.07 5.07 0 0 0 1.267-2.843l.415-7.867a1.468 1.468 0 0 0-.435-1.15Zm-5.459 7.819a2.5 2.5 0 1 1 0-5 2.5 2.5 0 0 1 0 5Z"/>
  <path fill="#DAEEC0" d="m6.405 33.595 11.187-11.187a2.501 2.501 0 1 1 3.531-3.531l3.624-3.624a1.459 1.459 0 0 0-1.149-.426l-7.866.413a5.028 5.028 0 0 0-2.844 1.267L2.282 27.117a1.667 1.667 0 0 0 0 2.356l4.123 4.122Z"/>
  <path stroke="#262D38" stroke-linecap="round" stroke-linejoin="round" d="M24.747 15.253a1.459 1.459 0 0 0-1.149-.426l-7.866.413a5.038 5.038 0 0 0-2.844 1.267L2.282 27.117a1.667 1.667 0 0 0 0 2.356l8.251 8.249a1.667 1.667 0 0 0 2.357 0L23.5 27.113a5.07 5.07 0 0 0 1.267-2.843l.415-7.867a1.468 1.468 0 0 0-.435-1.15Zm-5.459 7.819a2.5 2.5 0 1 1 0-5 2.5 2.5 0 0 1 0 5ZM5.82 28.288l5.892 5.892"/>
  <path stroke="#262D38" stroke-linecap="round" stroke-linejoin="round" d="M18.765 15.085a10 10 0 1 1 2.375 3.782"/>
</symbol><symbol fill="none" viewBox="0 0 40 40" id="svg-preference-02" xmlns="http://www.w3.org/2000/svg">
  <g clip-path="url(#ara)">
    <path fill="#739D3E" d="M20 34.203c7.844 0 14.203-6.359 14.203-14.203 0-7.844-6.359-14.203-14.203-14.203-7.844 0-14.203 6.359-14.203 14.203 0 7.844 6.359 14.203 14.203 14.203Z"/>
    <path stroke="#262D38" stroke-linecap="round" stroke-linejoin="round" d="M1.198 23.74A19.182 19.182 0 0 1 20 .833M4.062 30.65a19.092 19.092 0 0 1-1.774-3.317m7.062 8.605a19.37 19.37 0 0 1-2.903-2.385m9.813 5.249a18.952 18.952 0 0 1-3.593-1.09M38.802 23.74A19.183 19.183 0 0 0 20 .833M35.938 30.65a19.093 19.093 0 0 0 1.774-3.317m-7.062 8.605a19.373 19.373 0 0 0 2.903-2.385m-9.813 5.249a18.955 18.955 0 0 0 3.597-1.09m-7.354 1.455v-5.805"/>
    <path fill="#DAEEC0" d="M34.167 20.037A14.167 14.167 0 0 1 20 34.203a14.193 14.193 0 0 1 14.167-14.166Z"/>
    <path fill="#739D3E" d="M23.733 24.637A14.062 14.062 0 0 0 20 34.203a14.081 14.081 0 0 0-3.65-9.483 15.617 15.617 0 0 1 3.667-16.333 15.723 15.723 0 0 1 3.716 16.25Z"/>
    <path fill="#DAEEC0" d="M20 34.203A14.177 14.177 0 0 1 5.833 20.037 14.18 14.18 0 0 1 20 34.203Zm.017-19.991a15.548 15.548 0 0 1 4.293 8.238 15.687 15.687 0 0 0-4.293-14.063 15.59 15.59 0 0 0-4.292 13.988 15.544 15.544 0 0 1 4.292-8.163Z"/>
    <path fill="#739D3E" d="M20.725 29.765A14.09 14.09 0 0 0 20 34.203a14.165 14.165 0 0 0 14.167-14.166c-.244 0-.48.026-.72.038a14.157 14.157 0 0 1-12.722 9.69Zm-14.17-9.69c-.24-.012-.478-.038-.722-.038A14.177 14.177 0 0 0 20 34.203a14.111 14.111 0 0 0-.725-4.438 14.167 14.167 0 0 1-12.72-9.69Z"/>
    <path stroke="#262D38" stroke-linecap="round" stroke-linejoin="round" d="M34.167 20.037A14.167 14.167 0 0 1 20 34.203a14.193 14.193 0 0 1 14.167-14.166Z"/>
    <path stroke="#262D38" stroke-linecap="round" stroke-linejoin="round" d="M23.733 24.637A14.062 14.062 0 0 0 20 34.203a14.081 14.081 0 0 0-3.65-9.483 15.617 15.617 0 0 1 3.667-16.333 15.723 15.723 0 0 1 3.716 16.25Z"/>
    <path stroke="#262D38" stroke-linecap="round" stroke-linejoin="round" d="M20 34.203A14.177 14.177 0 0 1 5.833 20.037 14.18 14.18 0 0 1 20 34.203Z"/>
  </g>
  <defs>
    <clipPath id="ara">
      <path fill="#fff" d="M0 0h40v40H0z"/>
    </clipPath>
  </defs>
</symbol><symbol fill="none" viewBox="0 0 40 40" id="svg-preference-03" xmlns="http://www.w3.org/2000/svg">
  <g clip-path="url(#asa)">
    <path fill="#DAEEC0" d="M17.748 32.75c8.285 0 15-6.716 15-15 0-8.284-6.715-15-15-15-8.284 0-15 6.716-15 15 0 8.284 6.716 15 15 15Z"/>
    <path fill="#739D3E" d="M17.75 26A15 15 0 0 1 3.145 14.375a15 15 0 1 0 29.207 0A15 15 0 0 1 17.75 26Z"/>
    <path stroke="#262D38" stroke-linecap="round" stroke-linejoin="round" d="M11.123 22.715a18.869 18.869 0 0 1-.862-4.965 19.948 19.948 0 0 1 6.204-14.946M4.754 25.25h5.319m-5.319-15H17.75m-15 7.5h15m7.483 0A19.948 19.948 0 0 0 19.03 2.804m11.71 7.446H17.75m15 7.5h-15"/>
    <path stroke="#262D38" stroke-linecap="round" stroke-linejoin="round" d="M10.631 30.957A15 15 0 1 1 32.75 17.75"/>
    <path fill="#739D3E" d="M16.385 34.25a1.5 1.5 0 0 1-1.635-1.5v-9a1.5 1.5 0 0 1 1.5-1.5h12a1.5 1.5 0 0 1 1.5 1.5v10.5"/>
    <path fill="#DAEEC0" d="M28.25 22.25h-12a1.5 1.5 0 0 0-1.5 1.5v3.75a1.5 1.5 0 0 1 1.5-1.5h12a1.5 1.5 0 0 1 1.5 1.5v-3.75a1.5 1.5 0 0 0-1.5-1.5Z"/>
    <path stroke="#262D38" stroke-linecap="round" stroke-linejoin="round" d="M16.385 34.25a1.5 1.5 0 0 1-1.635-1.5v-9a1.5 1.5 0 0 1 1.5-1.5h12a1.5 1.5 0 0 1 1.5 1.5v10.5"/>
    <path fill="#DAEEC0" d="M37.25 29.75v3a1.5 1.5 0 0 1-1.5 1.5h-3.885a2.25 2.25 0 0 0-2.115-1.5V24.5h3v3.75a1.5 1.5 0 0 0 1.5 1.5h3Z"/>
    <path fill="#739D3E" d="M37.25 29v.75h-3a1.5 1.5 0 0 1-1.5-1.5V24.5a4.513 4.513 0 0 1 4.5 4.5ZM32 35a2.272 2.272 0 1 1-.135-.75c.09.24.137.494.135.75Zm-13.5 2.25a2.25 2.25 0 1 0 0-4.5 2.25 2.25 0 0 0 0 4.5Z"/>
    <path stroke="#262D38" stroke-linecap="round" stroke-linejoin="round" d="M27.625 34.25h-7.006M17.75 2.75v15m19.5 12v3a1.5 1.5 0 0 1-1.5 1.5h-3.885a2.25 2.25 0 0 0-2.115-1.5V24.5h3v3.75a1.5 1.5 0 0 0 1.5 1.5h3Z"/>
    <path stroke="#262D38" stroke-linecap="round" stroke-linejoin="round" d="M37.25 29v.75h-3a1.5 1.5 0 0 1-1.5-1.5V24.5a4.513 4.513 0 0 1 4.5 4.5ZM32 35a2.272 2.272 0 1 1-.135-.75c.09.24.137.494.135.75Zm-13.5 2.25a2.25 2.25 0 1 0 0-4.5 2.25 2.25 0 0 0 0 4.5Z"/>
  </g>
  <defs>
    <clipPath id="asa">
      <path fill="#fff" d="M0 0h36v36H0z" transform="translate(2 2)"/>
    </clipPath>
  </defs>
</symbol><symbol fill="none" viewBox="0 0 40 40" id="svg-preference-04" xmlns="http://www.w3.org/2000/svg">
  <path fill="#DAEEC0" d="M2.75 15.5a1.5 1.5 0 0 1 1.5-1.5h31.5a1.5 1.5 0 0 1 1.5 1.5v18a1.5 1.5 0 0 1-1.5 1.5H4.25a1.5 1.5 0 0 1-1.5-1.5v-18Z"/>
  <path fill="#DAEEC0" d="M4.25 14a1.5 1.5 0 0 0-1.5 1.5v18a1.5 1.5 0 0 0 1.5 1.5h4.873l21-21H4.25Z"/>
  <path fill="#739D3E" d="M31.25 6.5a1.5 1.5 0 0 0-1.5-1.5h-19.5a1.5 1.5 0 0 0-1.5 1.5v3h22.5v-3Z"/>
  <path stroke="#262D38" stroke-linecap="round" stroke-linejoin="round" d="M8.75 6.5a1.5 1.5 0 0 1 1.5-1.5h19.5a1.5 1.5 0 0 1 1.5 1.5"/>
  <path fill="#739D3E" d="M5.75 14v-3a1.5 1.5 0 0 1 1.5-1.5h25.5a1.5 1.5 0 0 1 1.5 1.5v3H5.75Z"/>
  <path stroke="#262D38" stroke-linecap="round" stroke-linejoin="round" d="M5.75 11a1.5 1.5 0 0 1 1.5-1.5h25.5a1.5 1.5 0 0 1 1.5 1.5m-31.5 4.5a1.5 1.5 0 0 1 1.5-1.5h31.5a1.5 1.5 0 0 1 1.5 1.5v18a1.5 1.5 0 0 1-1.5 1.5H4.25a1.5 1.5 0 0 1-1.5-1.5v-18Z"/>
  <path fill="#739D3E" stroke="#262D38" stroke-linecap="round" stroke-linejoin="round" d="m11 14-8.25 8.25V15.5a1.5 1.5 0 0 1 1.5-1.5H11Zm26.25 1.5v6.75L29 14h6.75a1.5 1.5 0 0 1 1.5 1.5ZM11 35H4.25a1.5 1.5 0 0 1-1.5-1.5v-6.75L11 35Zm26.25-8.25v6.75a1.5 1.5 0 0 1-1.5 1.5H29l8.25-8.25Z"/>
  <path fill="#DAEEC0" d="M20 29.75a5.25 5.25 0 1 0 0-10.499 5.25 5.25 0 0 0 0 10.499Z"/>
  <path fill="#fff" d="M20 19.25a5.25 5.25 0 0 0-3.9 8.767l7.42-7.417A5.226 5.226 0 0 0 20 19.25Z"/>
  <path stroke="#262D38" stroke-linecap="round" stroke-linejoin="round" d="M20 29.75a5.25 5.25 0 1 0 0-10.499 5.25 5.25 0 0 0 0 10.499ZM8.75 24.5h1.5m19.5 0h1.5"/>
</symbol><symbol fill="none" viewBox="0 0 25 25" id="svg-profile" xmlns="http://www.w3.org/2000/svg">
  <g clip-path="url(#aua)">
    <path fill="#DAEEC0" d="M14.334 20.291a7.791 7.791 0 1 0 0-15.582 7.791 7.791 0 0 0 0 15.582Z"/>
    <path fill="#DAEEC0" d="M19.89 17.5s-2.02-.893-3.431-1.415c-.926-.345-.795-1.907-.258-2.494a4.286 4.286 0 0 0 1.259-3.531 3 3 0 0 0-3.07-3.277 3 3 0 0 0-3.068 3.28A4.279 4.279 0 0 0 12.58 13.6c.536.587.668 2.149-.258 2.494C10.91 16.612 8.89 17.5 8.89 17.5"/>
    <path stroke="#2A2F41" stroke-linecap="round" stroke-linejoin="round" d="M19.89 17.5s-2.02-.893-3.431-1.415c-.926-.345-.795-1.907-.258-2.494a4.286 4.286 0 0 0 1.259-3.531 3 3 0 0 0-3.07-3.277 3 3 0 0 0-3.068 3.28A4.279 4.279 0 0 0 12.58 13.6c.536.587.668 2.149-.258 2.494C10.91 16.612 8.89 17.5 8.89 17.5"/>
    <path stroke="#2A2F41" stroke-linecap="round" stroke-linejoin="round" d="M4.896 14A9.7 9.7 0 0 1 14.04 3.01a9.5 9.5 0 0 1 .7 18.987"/>
  </g>
  <defs>
    <clipPath id="aua">
      <path fill="#fff" d="M0 0h24v24H0z" transform="translate(.875 .5)"/>
    </clipPath>
  </defs>
</symbol><symbol fill="currentColor" viewBox="0 0 18 18" id="svg-search" xmlns="http://www.w3.org/2000/svg">
  <path fill-rule="evenodd" d="M8.25 2.5a5.75 5.75 0 1 0 0 11.5 5.75 5.75 0 0 0 0-11.5ZM.5 8.25a7.75 7.75 0 1 1 15.5 0 7.75 7.75 0 0 1-15.5 0Z" clip-rule="evenodd"/>
  <path fill-rule="evenodd" d="M12.793 12.793a1 1 0 0 1 1.414 0l3 3a1 1 0 0 1-1.414 1.414l-3-3a1 1 0 0 1 0-1.414Z" clip-rule="evenodd"/>
</symbol><symbol fill="none" viewBox="0 0 112 20" id="svg-stars" xmlns="http://www.w3.org/2000/svg">
  <path fill="#739D3E" d="m11.06 1.632 2.307 5.355h4.488a1.101 1.101 0 0 1 1.116 1.353c-.052.221-.17.421-.34.573l-3.897 3.476 2.159 4.972a1.18 1.18 0 0 1-.97 1.626 1.176 1.176 0 0 1-.705-.152l-5.207-2.943-5.217 2.95A1.176 1.176 0 0 1 3.12 17.37l2.154-4.98-3.897-3.475a1.102 1.102 0 0 1 .77-1.927h4.497l2.307-5.354a1.2 1.2 0 0 1 2.112 0l-.003-.001Z"/>
  <path fill="#DAEEC0" d="M13.367 6.987 11.06 1.632a1.2 1.2 0 0 0-2.112 0l-2.31 5.355H2.141A1.1 1.1 0 0 0 1.03 8.342c.052.22.171.42.34.57l3.904 3.478-2.154 4.97a1.17 1.17 0 0 0-.015.831L14.296 6.987h-.929Z"/>
  <path stroke="#262D38" stroke-linecap="round" stroke-linejoin="round" d="m11.06 1.632 2.307 5.355h4.488a1.101 1.101 0 0 1 1.116 1.353c-.052.221-.17.421-.34.573l-3.897 3.476 2.159 4.972a1.18 1.18 0 0 1-.97 1.626 1.176 1.176 0 0 1-.705-.152l-5.207-2.943-5.217 2.95A1.176 1.176 0 0 1 3.12 17.37l2.154-4.98-3.897-3.475a1.102 1.102 0 0 1 .77-1.927h4.497l2.307-5.354a1.2 1.2 0 0 1 2.112 0l-.003-.001Z"/>
  <path fill="#739D3E" d="m34.06 1.632 2.307 5.355h4.488a1.101 1.101 0 0 1 1.116 1.353c-.051.221-.17.421-.34.573l-3.897 3.476 2.159 4.972a1.18 1.18 0 0 1-.97 1.626 1.176 1.176 0 0 1-.705-.152l-5.207-2.943-5.217 2.95a1.176 1.176 0 0 1-1.674-1.473l2.154-4.98-3.897-3.475a1.102 1.102 0 0 1 .77-1.927h4.497l2.307-5.354a1.2 1.2 0 0 1 2.112 0l-.003-.001Z"/>
  <path fill="#DAEEC0" d="M36.367 6.987 34.06 1.632a1.2 1.2 0 0 0-2.112 0l-2.31 5.355h-4.497a1.1 1.1 0 0 0-1.111 1.355c.052.22.171.42.34.57l3.904 3.478-2.154 4.971a1.17 1.17 0 0 0-.015.831L37.297 6.987h-.93Z"/>
  <path stroke="#262D38" stroke-linecap="round" stroke-linejoin="round" d="m34.06 1.632 2.307 5.355h4.488a1.101 1.101 0 0 1 1.116 1.353c-.051.221-.17.421-.34.573l-3.897 3.476 2.159 4.972a1.18 1.18 0 0 1-.97 1.626 1.176 1.176 0 0 1-.705-.152l-5.207-2.943-5.217 2.95a1.176 1.176 0 0 1-1.674-1.473l2.154-4.98-3.897-3.475a1.102 1.102 0 0 1 .77-1.927h4.497l2.307-5.354a1.2 1.2 0 0 1 2.112 0l-.003-.001Z"/>
  <path fill="#739D3E" d="m57.06 1.632 2.307 5.355h4.488a1.101 1.101 0 0 1 1.116 1.353c-.052.221-.17.421-.34.573l-3.897 3.476 2.159 4.972a1.18 1.18 0 0 1-.97 1.626 1.176 1.176 0 0 1-.705-.152l-5.207-2.943-5.217 2.95a1.176 1.176 0 0 1-1.674-1.473l2.154-4.98-3.897-3.475a1.102 1.102 0 0 1 .77-1.927h4.497l2.307-5.354a1.2 1.2 0 0 1 2.112 0l-.003-.001Z"/>
  <path fill="#DAEEC0" d="M59.367 6.987 57.06 1.632a1.2 1.2 0 0 0-2.112 0l-2.31 5.355h-4.497a1.1 1.1 0 0 0-1.111 1.355c.052.22.171.42.34.57l3.904 3.478-2.154 4.971a1.17 1.17 0 0 0-.015.831L60.297 6.987h-.93Z"/>
  <path stroke="#262D38" stroke-linecap="round" stroke-linejoin="round" d="m57.06 1.632 2.307 5.355h4.488a1.101 1.101 0 0 1 1.116 1.353c-.052.221-.17.421-.34.573l-3.897 3.476 2.159 4.972a1.18 1.18 0 0 1-.97 1.626 1.176 1.176 0 0 1-.705-.152l-5.207-2.943-5.217 2.95a1.176 1.176 0 0 1-1.674-1.473l2.154-4.98-3.897-3.475a1.102 1.102 0 0 1 .77-1.927h4.497l2.307-5.354a1.2 1.2 0 0 1 2.112 0l-.003-.001Z"/>
  <path fill="#739D3E" d="m80.06 1.632 2.307 5.355h4.488a1.101 1.101 0 0 1 1.116 1.353c-.052.221-.17.421-.34.573l-3.897 3.476 2.159 4.972a1.18 1.18 0 0 1-.97 1.626 1.176 1.176 0 0 1-.705-.152l-5.207-2.943-5.217 2.95a1.176 1.176 0 0 1-1.674-1.473l2.154-4.98-3.897-3.475a1.102 1.102 0 0 1 .77-1.927h4.497l2.307-5.354a1.2 1.2 0 0 1 2.112 0l-.003-.001Z"/>
  <path fill="#DAEEC0" d="M82.367 6.987 80.06 1.632a1.2 1.2 0 0 0-2.112 0l-2.31 5.355h-4.497a1.1 1.1 0 0 0-1.111 1.355c.052.22.171.42.34.57l3.904 3.478-2.154 4.971a1.17 1.17 0 0 0-.015.831L83.296 6.987h-.929Z"/>
  <path stroke="#262D38" stroke-linecap="round" stroke-linejoin="round" d="m80.06 1.632 2.307 5.355h4.488a1.101 1.101 0 0 1 1.116 1.353c-.052.221-.17.421-.34.573l-3.897 3.476 2.159 4.972a1.18 1.18 0 0 1-.97 1.626 1.176 1.176 0 0 1-.705-.152l-5.207-2.943-5.217 2.95a1.176 1.176 0 0 1-1.674-1.473l2.154-4.98-3.897-3.475a1.102 1.102 0 0 1 .77-1.927h4.497l2.307-5.354a1.2 1.2 0 0 1 2.112 0l-.003-.001Z"/>
  <path fill="#739D3E" d="m103.06 1.632 2.307 5.355h4.488a1.098 1.098 0 0 1 1.065.69 1.1 1.1 0 0 1-.289 1.236l-3.897 3.476 2.159 4.972a1.18 1.18 0 0 1-.97 1.626 1.177 1.177 0 0 1-.705-.152l-5.207-2.943-5.217 2.95a1.176 1.176 0 0 1-1.674-1.473l2.154-4.98-3.897-3.475a1.102 1.102 0 0 1 .77-1.927h4.497l2.307-5.354a1.202 1.202 0 0 1 1.056-.632 1.197 1.197 0 0 1 1.056.632l-.003-.001Z"/>
  <path fill="#DAEEC0" d="m105.367 6.987-2.307-5.355A1.195 1.195 0 0 0 102.004 1a1.2 1.2 0 0 0-1.056.632l-2.31 5.355h-4.497a1.1 1.1 0 0 0-1.111 1.355c.052.22.171.42.34.57l3.904 3.478-2.154 4.971a1.17 1.17 0 0 0-.015.831l11.192-11.205h-.93Z"/>
  <path stroke="#262D38" stroke-linecap="round" stroke-linejoin="round" d="m103.06 1.632 2.307 5.355h4.488a1.098 1.098 0 0 1 1.065.69 1.1 1.1 0 0 1-.289 1.236l-3.897 3.476 2.159 4.972a1.18 1.18 0 0 1-.97 1.626 1.177 1.177 0 0 1-.705-.152l-5.207-2.943-5.217 2.95a1.176 1.176 0 0 1-1.674-1.473l2.154-4.98-3.897-3.475a1.102 1.102 0 0 1 .77-1.927h4.497l2.307-5.354a1.202 1.202 0 0 1 1.056-.632 1.197 1.197 0 0 1 1.056.632l-.003-.001Z"/>
</symbol><symbol fill="none" viewBox="0 0 18 19" id="svg-time" xmlns="http://www.w3.org/2000/svg">
  <path fill="#739D3E" d="M18 9.5a9 9 0 0 1-18 0 .75.75 0 1 1 1.5 0A7.5 7.5 0 1 0 9 2 .75.75 0 0 1 9 .5a9.01 9.01 0 0 1 9 9ZM7.708 8.75H6a.75.75 0 0 0 0 1.5h1.708A1.496 1.496 0 1 0 9.75 8.208V5.75a.75.75 0 0 0-1.5 0v2.458a1.5 1.5 0 0 0-.542.542ZM1.37 7.088a.75.75 0 1 0 0-1.5.75.75 0 0 0 0 1.5Zm1.796-2.683a.75.75 0 1 0 0-1.5.75.75 0 0 0 0 1.5Zm2.668-1.774a.75.75 0 1 0 0-1.5.75.75 0 0 0 0 1.5Z"/>
</symbol><symbol fill="currentColor" viewBox="0 0 20 20" id="svg-trash" xmlns="http://www.w3.org/2000/svg">
  <path fill-rule="evenodd" d="m1.667 3.333.596 11.917A5 5 0 0 0 7.256 20h5.488a5 5 0 0 0 4.994-4.75l.595-11.917H1.667Zm1.577 1.5.517 10.342A3.5 3.5 0 0 0 7.256 18.5h5.488a3.5 3.5 0 0 0 3.495-3.325l.517-10.342H3.244Z" clip-rule="evenodd"/>
  <path fill-rule="evenodd" d="M12.667 3.5H7.333V3a1.5 1.5 0 0 1 1.5-1.5h2.334a1.5 1.5 0 0 1 1.5 1.5v.5ZM5.833 5V3a3 3 0 0 1 3-3h2.334a3 3 0 0 1 3 3v2H5.833Z" clip-rule="evenodd"/>
  <path fill-rule="evenodd" d="M.083 4.167a.75.75 0 0 1 .75-.75h18.334a.75.75 0 0 1 0 1.5H.833a.75.75 0 0 1-.75-.75ZM12.5 8.417a.75.75 0 0 1 .75.75v4.166a.75.75 0 0 1-1.5 0V9.167a.75.75 0 0 1 .75-.75Zm-5 0a.75.75 0 0 1 .75.75v4.166a.75.75 0 0 1-1.5 0V9.167a.75.75 0 0 1 .75-.75Z" clip-rule="evenodd"/>
</symbol><symbol fill="none" viewBox="0 0 40 41" id="svg-trc20" xmlns="http://www.w3.org/2000/svg">
  <path fill="#50AF95" d="M39.402 25.338C36.73 36.053 25.877 42.573 15.16 39.901 4.448 37.231-2.074 26.377.6 15.664 3.269 4.948 14.123-1.573 24.836 1.098c10.716 2.672 17.237 13.525 14.565 24.24Z"/>
  <path fill="#fff" fill-rule="evenodd" d="M22.534 22.767c-.142.011-.872.055-2.503.055a54.59 54.59 0 0 1-2.54-.055c-5.01-.22-8.75-1.092-8.75-2.136s3.74-1.915 8.75-2.139v3.407a37.74 37.74 0 0 0 2.563.079c1.556 0 2.335-.065 2.475-.078v-3.406c5 .223 8.731 1.095 8.731 2.137s-3.73 1.914-8.731 2.135l.005.002Zm0-4.625v-3.049h6.977v-4.649H10.514v4.65h6.976v3.047c-5.67.26-9.934 1.383-9.934 2.73 0 1.345 4.264 2.467 9.934 2.729v9.77h5.042v-9.774c5.658-.26 9.915-1.382 9.915-2.727s-4.254-2.467-9.915-2.728l.002.001Z" clip-rule="evenodd"/>
</symbol><symbol fill="none" viewBox="0 0 40 41" id="svg-trx" xmlns="http://www.w3.org/2000/svg">
  <path fill="#FC070C" fill-rule="evenodd" d="M20 40.5c-11 0-20-9-20-20.1C.1 9.4 9 .4 20.1.5 31.1.6 40 9.5 40 20.7c-.1 10.9-9 19.8-20 19.8Z" clip-rule="evenodd"/>
  <path fill="#fff" fill-rule="evenodd" d="M32.412 14.51c-.926-.9-1.905-1.85-2.769-2.616l-.087-.062a1.673 1.673 0 0 0-.486-.27l-.667-.125c-4.6-.858-19.51-3.64-19.817-3.603a.612.612 0 0 0-.254.096l-.083.066a.976.976 0 0 0-.227.367L8 8.42v.359c1.012 2.819 3.642 9.113 6.07 14.926 2.053 4.914 3.961 9.483 4.627 11.315.088.272.254.787.564.814h.07c.166 0 .875-.937.875-.937s12.67-15.364 13.952-17c.166-.202.313-.42.438-.648a1.054 1.054 0 0 0-.346-.98 107.455 107.455 0 0 1-1.838-1.759Zm-8.955 3.548 5.407-4.484 3.172 2.922-8.58 1.562Zm-11.41-7.923 9.31 7.63 5.753-4.852-15.063-2.778Zm10.15 9.63 9.529-1.536-10.894 13.125 1.365-11.59Zm-1.619-.556-9.795-8.313 8.378 20.466 1.417-12.153Z" clip-rule="evenodd"/>
</symbol><symbol fill="none" viewBox="0 0 40 40" id="svg-verified" xmlns="http://www.w3.org/2000/svg">
  <path fill="#DAEEC0" d="M2.5 6.292V19.02a20.519 20.519 0 0 0 13.698 19.113l1.869.69a5.608 5.608 0 0 0 3.866 0l1.869-.69A20.518 20.518 0 0 0 37.5 19.02V6.292a2.555 2.555 0 0 0-1.557-2.344A40.426 40.426 0 0 0 20 .833 40.426 40.426 0 0 0 4.057 3.948 2.555 2.555 0 0 0 2.5 6.292Z"/>
  <path fill="#fff" d="M20 .833A40.395 40.395 0 0 0 4.057 3.948 2.555 2.555 0 0 0 2.5 6.292V19.02a20.518 20.518 0 0 0 13.698 19.113l1.869.69a5.614 5.614 0 0 0 1.933.344V.833Z"/>
  <path fill="#739D3E" d="m20.982 9.765 2.136 4.402h4.159A1.02 1.02 0 0 1 28 15.948l-3.61 3.772 2 4.602a1.09 1.09 0 0 1-1.552 1.365L20 22.963l-4.833 2.724a1.09 1.09 0 0 1-1.552-1.365l2-4.602L12 15.948a1.02 1.02 0 0 1 .72-1.781h4.167l2.141-4.402a1.103 1.103 0 0 1 1.954 0Z"/>
  <path fill="#DAEEC0" d="M20 9.167a1.087 1.087 0 0 0-.98.598l-2.142 4.402h-4.166A1.019 1.019 0 0 0 12 15.948l3.61 3.772-2 4.602a1.09 1.09 0 0 0 1.552 1.365L20 22.963V9.168Z"/>
  <path stroke="#262D38" stroke-linecap="round" stroke-linejoin="round" d="m20.982 9.765 2.136 4.402h4.159A1.02 1.02 0 0 1 28 15.948l-3.61 3.772 2 4.602a1.09 1.09 0 0 1-1.552 1.365L20 22.963l-4.833 2.724a1.09 1.09 0 0 1-1.552-1.365l2-4.602L12 15.948a1.02 1.02 0 0 1 .72-1.781h4.167l2.141-4.402a1.103 1.103 0 0 1 1.954 0Z"/>
  <path stroke="#262D38" stroke-linecap="round" stroke-linejoin="round" d="M2.5 6.292V19.02a20.519 20.519 0 0 0 13.698 19.113l1.869.69a5.608 5.608 0 0 0 3.866 0l1.869-.69A20.518 20.518 0 0 0 37.5 19.02V6.292a2.555 2.555 0 0 0-1.557-2.344A40.426 40.426 0 0 0 20 .833 40.426 40.426 0 0 0 4.057 3.948 2.555 2.555 0 0 0 2.5 6.292Z"/>
</symbol><symbol fill="none" viewBox="0 0 24 24" id="svg-wallet" xmlns="http://www.w3.org/2000/svg">
  <path fill="#739D3E" d="m18.382 5.155-.633-2.532a.999.999 0 0 0-1.23-.723L4.5 5.135"/>
  <path stroke="#262D38" stroke-linecap="round" stroke-linejoin="round" d="m18.382 5.155-.633-2.532a.999.999 0 0 0-1.23-.723L4.5 5.135"/>
  <path fill="#DAEEC0" d="M21.5 16.135v2.5a3.5 3.5 0 0 1-3.5 3.5H2.5a2 2 0 0 1-2-2v-13a2 2 0 0 1 2-2H18a3.5 3.5 0 0 1 3.5 3.5v2.5"/>
  <path fill="#739D3E" d="M18 19.135H2.5a2 2 0 0 1-2-2v3a2 2 0 0 0 2 2H18a3.5 3.5 0 0 0 3.5-3.5v-3a3.5 3.5 0 0 1-3.5 3.5Z"/>
  <path stroke="#262D38" stroke-linecap="round" stroke-linejoin="round" d="M21.5 16.135v2.5a3.5 3.5 0 0 1-3.5 3.5H2.5a2 2 0 0 1-2-2v-13a2 2 0 0 1 2-2H18a3.5 3.5 0 0 1 3.5 3.5v2.5m-18-3h2m2 0h2m2 0h2m2 0h2m-14 11h2m2 0h2m2 0h2m2 0h2"/>
  <path fill="#DAEEC0" d="M15.5 13.135a2 2 0 0 1 2-2h4a2 2 0 0 1 2 2v1a2 2 0 0 1-2 2h-4a2 2 0 0 1-2-2v-1Z"/>
  <path fill="#739D3E" d="M21.5 13.635h-4a2 2 0 0 1-1.854-1.25 1.984 1.984 0 0 0-.146.75v1a2 2 0 0 0 2 2h4a2 2 0 0 0 2-2v-1c0-.257-.05-.512-.146-.75a2 2 0 0 1-1.854 1.25Z"/>
  <path stroke="#262D38" stroke-linecap="round" stroke-linejoin="round" d="M15.5 13.135a2 2 0 0 1 2-2h4a2 2 0 0 1 2 2v1a2 2 0 0 1-2 2h-4a2 2 0 0 1-2-2v-1Z"/>
  <path stroke="#262D38" stroke-linecap="round" stroke-linejoin="round" d="M18.5 13.385a.248.248 0 1 1-.005.496.248.248 0 0 1 .005-.496Z"/>
</symbol><symbol fill="currentColor" viewBox="0 0 24 24" id="svg-checkmark" xmlns="http://www.w3.org/2000/svg">
  <path fill-rule="evenodd" d="M3.293 11.607a1 1 0 0 1 1.414 0l4.95 4.95L20.264 5.95a1 1 0 1 1 1.414 1.414L9.657 19.384l-6.364-6.363a1 1 0 0 1 0-1.414Z" clip-rule="evenodd"/>
</symbol><symbol fill="currentColor" viewBox="0 0 24 24" id="svg-clock" xmlns="http://www.w3.org/2000/svg">
  <path fill-rule="evenodd" d="M12.5 4.75a7.75 7.75 0 1 0 0 15.5 7.75 7.75 0 0 0 0-15.5ZM3.25 12.5a9.25 9.25 0 1 1 18.5 0 9.25 9.25 0 0 1-18.5 0Z" clip-rule="evenodd"/>
  <path fill-rule="evenodd" d="M12.5 7.886a.75.75 0 0 1 .75.75v4.326l1.712 1.712a.75.75 0 0 1-1.06 1.06l-1.932-1.931a.75.75 0 0 1-.22-.53V8.636a.75.75 0 0 1 .75-.75Z" clip-rule="evenodd"/>
</symbol></svg>