<svg width="230" height="38" viewBox="0 0 230 38" fill="none" xmlns="http://www.w3.org/2000/svg">
<path d="M32.4405 4.9699C31.2066 4.72376 29.9891 4.40172 28.7951 4.00562C28.2261 3.82672 27.589 3.63708 26.8549 3.42061C24.1142 2.61578 21.4475 1.57916 18.8838 0.32204C18.4538 0.110199 17.9806 0 17.5009 0C17.0212 0 16.548 0.110199 16.118 0.32204C13.5535 1.57887 10.8863 2.61549 8.14514 3.42061C7.41104 3.63708 6.77386 3.83209 6.20489 4.00562C5.01089 4.40172 3.79344 4.72376 2.55951 4.9699C1.83868 5.10242 1.18748 5.48316 0.719654 6.04559C0.251829 6.60803 -0.00287818 7.31641 2.45385e-05 8.047V16.3856C0.000491352 20.1347 1.00649 23.8156 2.91385 27.0469C4.82121 30.2783 7.56056 32.9427 10.8482 34.7641L15.9726 37.6033C16.4387 37.8634 16.964 38 17.4982 38C18.0324 38 18.5577 37.8634 19.0238 37.6033L24.1518 34.7641C27.4394 32.9427 30.1788 30.2783 32.0862 27.0469C33.9935 23.8156 34.9995 20.1347 35 16.3856V8.047C35.0029 7.31641 34.7482 6.60803 34.2803 6.04559C33.8125 5.48316 33.1613 5.10242 32.4405 4.9699Z" fill="#087ED8"/>
<path d="M15.705 22.1516C15.5282 22.152 15.3531 22.1174 15.1898 22.0499C15.0265 21.9823 14.8783 21.8831 14.7538 21.758L11.164 18.18C10.9262 17.9256 10.7968 17.5892 10.8029 17.2416C10.8091 16.894 10.9504 16.5623 11.197 16.3165C11.4437 16.0706 11.7764 15.9298 12.1251 15.9237C12.4739 15.9176 12.8114 16.0466 13.0666 16.2836L15.705 18.9117L21.9332 12.7056C22.1884 12.4686 22.5259 12.3395 22.8747 12.3457C23.2234 12.3518 23.5562 12.4926 23.8028 12.7385C24.0495 12.9843 24.1907 13.3159 24.1969 13.6636C24.203 14.0112 24.0736 14.3476 23.8358 14.6019L16.6563 21.758C16.5318 21.8831 16.3836 21.9823 16.2203 22.0499C16.057 22.1174 15.8819 22.152 15.705 22.1516Z" fill="white"/>
<path d="M48.15 18L45.216 5.706H47.826L49.932 15.606H50.67L52.74 5.706H55.35L52.47 18H48.15ZM60.2436 18.198C59.2476 18.198 58.4556 18.03 57.8676 17.694C57.2916 17.358 56.8776 16.848 56.6256 16.164C56.3736 15.48 56.2476 14.622 56.2476 13.59C56.2476 12.474 56.4036 11.562 56.7156 10.854C57.0396 10.146 57.5076 9.624 58.1196 9.288C58.7316 8.94 59.4876 8.766 60.3876 8.766C61.7196 8.766 62.7216 9.102 63.3936 9.774C64.0776 10.446 64.4196 11.508 64.4196 12.96L64.3116 14.292H58.6596C58.6716 14.964 58.8096 15.468 59.0736 15.804C59.3376 16.14 59.7936 16.308 60.4416 16.308C60.8136 16.308 61.2216 16.302 61.6656 16.29C62.1096 16.266 62.5476 16.242 62.9796 16.218C63.4236 16.194 63.8016 16.17 64.1136 16.146L64.1676 17.82C63.8676 17.868 63.4896 17.922 63.0336 17.982C62.5776 18.042 62.1036 18.09 61.6116 18.126C61.1316 18.174 60.6756 18.198 60.2436 18.198ZM58.6596 12.762H62.0256C62.0256 11.946 61.8936 11.376 61.6296 11.052C61.3776 10.728 60.9636 10.566 60.3876 10.566C59.8236 10.566 59.3916 10.734 59.0916 11.07C58.8036 11.406 58.6596 11.97 58.6596 12.762ZM66.0115 18V8.964H68.4055V10.026C68.6095 9.87 68.8615 9.708 69.1615 9.54C69.4615 9.36 69.7855 9.198 70.1335 9.054C70.4935 8.898 70.8355 8.796 71.1595 8.748V11.07C70.8475 11.118 70.5175 11.202 70.1695 11.322C69.8215 11.43 69.4915 11.55 69.1795 11.682C68.8795 11.814 68.6215 11.934 68.4055 12.042V18H66.0115ZM72.4099 18V8.964H74.8039V18H72.4099ZM72.4099 7.524V5.472H74.8219V7.524H72.4099ZM77.1645 18V10.962H76.2645V8.964H77.1645V8.442C77.1645 7.59 77.2425 6.918 77.3985 6.426C77.5665 5.934 77.8485 5.586 78.2445 5.382C78.6405 5.178 79.1745 5.076 79.8465 5.076C80.0385 5.076 80.2665 5.088 80.5305 5.112C80.8065 5.124 81.0705 5.142 81.3225 5.166C81.5745 5.19 81.7665 5.214 81.8985 5.238L81.8805 7.074C81.6885 7.074 81.4725 7.074 81.2325 7.074C81.0045 7.062 80.8065 7.056 80.6385 7.056C80.3745 7.056 80.1585 7.098 79.9905 7.182C79.8345 7.266 79.7205 7.404 79.6485 7.596C79.5885 7.788 79.5585 8.064 79.5585 8.424V8.964H81.7185V10.962H79.5585V18H77.1645ZM86.6108 18.198C85.6148 18.198 84.8228 18.03 84.2348 17.694C83.6588 17.358 83.2448 16.848 82.9928 16.164C82.7408 15.48 82.6148 14.622 82.6148 13.59C82.6148 12.474 82.7708 11.562 83.0828 10.854C83.4068 10.146 83.8748 9.624 84.4868 9.288C85.0988 8.94 85.8548 8.766 86.7548 8.766C88.0868 8.766 89.0888 9.102 89.7608 9.774C90.4448 10.446 90.7868 11.508 90.7868 12.96L90.6788 14.292H85.0268C85.0388 14.964 85.1768 15.468 85.4408 15.804C85.7048 16.14 86.1608 16.308 86.8088 16.308C87.1808 16.308 87.5888 16.302 88.0328 16.29C88.4768 16.266 88.9148 16.242 89.3468 16.218C89.7908 16.194 90.1688 16.17 90.4808 16.146L90.5348 17.82C90.2348 17.868 89.8568 17.922 89.4008 17.982C88.9448 18.042 88.4708 18.09 87.9788 18.126C87.4988 18.174 87.0428 18.198 86.6108 18.198ZM85.0268 12.762H88.3928C88.3928 11.946 88.2608 11.376 87.9968 11.052C87.7448 10.728 87.3308 10.566 86.7548 10.566C86.1908 10.566 85.7588 10.734 85.4588 11.07C85.1708 11.406 85.0268 11.97 85.0268 12.762ZM95.4207 18.198C94.9887 18.198 94.5927 18.144 94.2327 18.036C93.8727 17.94 93.5547 17.784 93.2787 17.568C93.0147 17.34 92.7867 17.046 92.5947 16.686C92.4147 16.326 92.2767 15.888 92.1807 15.372C92.0847 14.844 92.0367 14.232 92.0367 13.536C92.0367 12.504 92.1627 11.634 92.4147 10.926C92.6787 10.218 93.0927 9.684 93.6567 9.324C94.2207 8.952 94.9707 8.766 95.9067 8.766C96.1827 8.766 96.5067 8.79 96.8787 8.838C97.2627 8.874 97.5687 8.91 97.7967 8.946V5.274H100.209V18H97.8327L97.8147 17.478C97.6467 17.574 97.4247 17.682 97.1487 17.802C96.8847 17.91 96.6027 18 96.3027 18.072C96.0027 18.156 95.7087 18.198 95.4207 18.198ZM96.0327 16.182C96.2487 16.182 96.4647 16.158 96.6807 16.11C96.9087 16.062 97.1187 16.008 97.3107 15.948C97.5147 15.876 97.6767 15.81 97.7967 15.75V10.908C97.6887 10.884 97.5447 10.866 97.3647 10.854C97.1847 10.83 96.9987 10.812 96.8067 10.8C96.6147 10.776 96.4407 10.764 96.2847 10.764C95.8167 10.764 95.4507 10.872 95.1867 11.088C94.9347 11.304 94.7547 11.622 94.6467 12.042C94.5387 12.45 94.4847 12.948 94.4847 13.536C94.4847 14.052 94.5207 14.484 94.5927 14.832C94.6647 15.168 94.7667 15.438 94.8987 15.642C95.0427 15.834 95.2107 15.972 95.4027 16.056C95.5947 16.14 95.8047 16.182 96.0327 16.182ZM106.251 18V5.706H110.877C111.897 5.706 112.743 5.85 113.415 6.138C114.087 6.414 114.591 6.864 114.927 7.488C115.275 8.112 115.449 8.946 115.449 9.99C115.449 11.034 115.275 11.886 114.927 12.546C114.591 13.194 114.087 13.674 113.415 13.986C112.743 14.286 111.897 14.436 110.877 14.436H108.735V18H106.251ZM108.735 12.402H110.805C111.561 12.402 112.101 12.204 112.425 11.808C112.749 11.4 112.911 10.8 112.911 10.008C112.911 9.192 112.749 8.61 112.425 8.262C112.101 7.914 111.561 7.74 110.805 7.74H108.735V12.402ZM116.9 18V5.274H119.294V9.288C119.594 9.18 119.978 9.066 120.446 8.946C120.914 8.826 121.346 8.766 121.742 8.766C122.582 8.766 123.236 8.916 123.704 9.216C124.172 9.504 124.496 9.978 124.676 10.638C124.868 11.298 124.964 12.174 124.964 13.266V18H122.552V13.446C122.552 12.822 122.516 12.324 122.444 11.952C122.372 11.568 122.234 11.292 122.03 11.124C121.838 10.956 121.538 10.872 121.13 10.872C120.806 10.872 120.47 10.914 120.122 10.998C119.786 11.082 119.51 11.16 119.294 11.232V18H116.9ZM129.207 18.198C128.271 18.198 127.563 17.964 127.083 17.496C126.615 17.016 126.381 16.296 126.381 15.336C126.381 14.664 126.501 14.142 126.741 13.77C126.981 13.386 127.335 13.11 127.803 12.942C128.283 12.762 128.865 12.654 129.549 12.618L131.745 12.42V11.88C131.745 11.448 131.637 11.148 131.421 10.98C131.205 10.8 130.887 10.71 130.467 10.71C130.131 10.71 129.741 10.722 129.297 10.746C128.865 10.77 128.433 10.8 128.001 10.836C127.581 10.872 127.215 10.908 126.903 10.944L126.831 9.252C127.143 9.18 127.515 9.108 127.947 9.036C128.391 8.952 128.853 8.886 129.333 8.838C129.813 8.79 130.257 8.766 130.665 8.766C131.433 8.766 132.075 8.862 132.591 9.054C133.107 9.246 133.497 9.564 133.761 10.008C134.025 10.44 134.157 11.028 134.157 11.772V15.894C134.181 16.062 134.271 16.194 134.427 16.29C134.583 16.374 134.763 16.434 134.967 16.47L134.913 18.126C134.625 18.138 134.343 18.144 134.067 18.144C133.791 18.144 133.557 18.126 133.365 18.09C133.089 18.054 132.849 17.982 132.645 17.874C132.453 17.766 132.297 17.652 132.177 17.532C131.985 17.616 131.727 17.712 131.403 17.82C131.079 17.928 130.725 18.018 130.341 18.09C129.969 18.162 129.591 18.198 129.207 18.198ZM129.783 16.416C130.011 16.416 130.251 16.392 130.503 16.344C130.755 16.296 130.989 16.242 131.205 16.182C131.433 16.11 131.613 16.044 131.745 15.984V13.914L129.909 14.076C129.513 14.112 129.225 14.232 129.045 14.436C128.877 14.628 128.793 14.904 128.793 15.264C128.793 15.624 128.871 15.906 129.027 16.11C129.195 16.314 129.447 16.416 129.783 16.416ZM136.271 18V8.964H138.665V10.026C138.869 9.87 139.121 9.708 139.421 9.54C139.721 9.36 140.045 9.198 140.393 9.054C140.753 8.898 141.095 8.796 141.419 8.748V11.07C141.107 11.118 140.777 11.202 140.429 11.322C140.081 11.43 139.751 11.55 139.439 11.682C139.139 11.814 138.881 11.934 138.665 12.042V18H136.271ZM142.67 18V8.964H145.064V9.54C145.34 9.372 145.712 9.204 146.18 9.036C146.648 8.856 147.092 8.766 147.512 8.766C148.064 8.766 148.514 8.844 148.862 9C149.21 9.144 149.498 9.36 149.726 9.648C149.942 9.516 150.212 9.384 150.536 9.252C150.86 9.12 151.214 9.006 151.598 8.91C151.982 8.814 152.354 8.766 152.714 8.766C153.602 8.766 154.28 8.922 154.748 9.234C155.216 9.546 155.54 10.038 155.72 10.71C155.9 11.37 155.99 12.234 155.99 13.302V18H153.596V13.518C153.596 12.894 153.56 12.39 153.488 12.006C153.428 11.61 153.296 11.322 153.092 11.142C152.9 10.962 152.606 10.872 152.21 10.872C151.862 10.872 151.52 10.92 151.184 11.016C150.848 11.112 150.584 11.208 150.392 11.304C150.452 11.556 150.494 11.88 150.518 12.276C150.554 12.672 150.572 13.086 150.572 13.518V18H148.178V13.554C148.178 12.918 148.142 12.402 148.07 12.006C148.01 11.61 147.878 11.322 147.674 11.142C147.47 10.962 147.176 10.872 146.792 10.872C146.456 10.872 146.126 10.92 145.802 11.016C145.49 11.112 145.244 11.208 145.064 11.304V18H142.67ZM160.25 18.198C159.314 18.198 158.606 17.964 158.126 17.496C157.658 17.016 157.424 16.296 157.424 15.336C157.424 14.664 157.544 14.142 157.784 13.77C158.024 13.386 158.378 13.11 158.846 12.942C159.326 12.762 159.908 12.654 160.592 12.618L162.788 12.42V11.88C162.788 11.448 162.68 11.148 162.464 10.98C162.248 10.8 161.93 10.71 161.51 10.71C161.174 10.71 160.784 10.722 160.34 10.746C159.908 10.77 159.476 10.8 159.044 10.836C158.624 10.872 158.258 10.908 157.946 10.944L157.874 9.252C158.186 9.18 158.558 9.108 158.99 9.036C159.434 8.952 159.896 8.886 160.376 8.838C160.856 8.79 161.3 8.766 161.708 8.766C162.476 8.766 163.118 8.862 163.634 9.054C164.15 9.246 164.54 9.564 164.804 10.008C165.068 10.44 165.2 11.028 165.2 11.772V15.894C165.224 16.062 165.314 16.194 165.47 16.29C165.626 16.374 165.806 16.434 166.01 16.47L165.956 18.126C165.668 18.138 165.386 18.144 165.11 18.144C164.834 18.144 164.6 18.126 164.408 18.09C164.132 18.054 163.892 17.982 163.688 17.874C163.496 17.766 163.34 17.652 163.22 17.532C163.028 17.616 162.77 17.712 162.446 17.82C162.122 17.928 161.768 18.018 161.384 18.09C161.012 18.162 160.634 18.198 160.25 18.198ZM160.826 16.416C161.054 16.416 161.294 16.392 161.546 16.344C161.798 16.296 162.032 16.242 162.248 16.182C162.476 16.11 162.656 16.044 162.788 15.984V13.914L160.952 14.076C160.556 14.112 160.268 14.232 160.088 14.436C159.92 14.628 159.836 14.904 159.836 15.264C159.836 15.624 159.914 15.906 160.07 16.11C160.238 16.314 160.49 16.416 160.826 16.416ZM171.004 18.198C169.972 18.198 169.162 18.042 168.574 17.73C167.998 17.406 167.59 16.89 167.35 16.182C167.122 15.474 167.008 14.544 167.008 13.392C167.008 12.252 167.14 11.346 167.404 10.674C167.668 9.99 168.094 9.504 168.682 9.216C169.282 8.916 170.062 8.766 171.022 8.766C171.274 8.766 171.568 8.784 171.904 8.82C172.24 8.856 172.576 8.904 172.912 8.964C173.26 9.012 173.554 9.06 173.794 9.108L173.704 11.034C173.476 11.01 173.218 10.992 172.93 10.98C172.642 10.956 172.36 10.938 172.084 10.926C171.82 10.902 171.604 10.89 171.436 10.89C170.92 10.89 170.512 10.974 170.212 11.142C169.924 11.298 169.72 11.562 169.6 11.934C169.492 12.294 169.438 12.78 169.438 13.392C169.438 14.052 169.492 14.58 169.6 14.976C169.708 15.372 169.9 15.654 170.176 15.822C170.464 15.99 170.884 16.074 171.436 16.074C171.604 16.074 171.826 16.068 172.102 16.056C172.378 16.032 172.66 16.008 172.948 15.984C173.248 15.96 173.512 15.942 173.74 15.93L173.812 17.856C173.572 17.904 173.284 17.952 172.948 18C172.612 18.06 172.27 18.108 171.922 18.144C171.586 18.18 171.28 18.198 171.004 18.198ZM177.579 21.798L178.731 18H176.805L174.663 8.964H177.165L178.767 15.966H179.235L180.837 8.964H183.249L180.135 21.798H177.579ZM192.548 18.198C192.092 18.198 191.594 18.168 191.054 18.108C190.514 18.06 189.986 18 189.47 17.928C188.966 17.844 188.534 17.772 188.174 17.712L188.336 15.75C188.708 15.798 189.14 15.852 189.632 15.912C190.124 15.96 190.61 16.002 191.09 16.038C191.582 16.074 192.008 16.092 192.368 16.092C193.052 16.092 193.55 15.96 193.862 15.696C194.174 15.42 194.33 14.994 194.33 14.418C194.33 14.106 194.264 13.86 194.132 13.68C194.012 13.488 193.79 13.338 193.466 13.23C193.142 13.11 192.692 12.996 192.116 12.888C191.156 12.708 190.376 12.486 189.776 12.222C189.188 11.958 188.756 11.586 188.48 11.106C188.216 10.626 188.084 9.984 188.084 9.18C188.084 8.244 188.258 7.512 188.606 6.984C188.954 6.444 189.452 6.06 190.1 5.832C190.748 5.604 191.51 5.49 192.386 5.49C192.782 5.49 193.232 5.514 193.736 5.562C194.252 5.598 194.756 5.646 195.248 5.706C195.752 5.766 196.178 5.832 196.526 5.904L196.418 7.884C196.058 7.836 195.638 7.794 195.158 7.758C194.69 7.71 194.222 7.668 193.754 7.632C193.298 7.596 192.908 7.578 192.584 7.578C191.9 7.578 191.396 7.686 191.072 7.902C190.748 8.118 190.586 8.466 190.586 8.946C190.586 9.306 190.658 9.582 190.802 9.774C190.946 9.966 191.186 10.122 191.522 10.242C191.87 10.362 192.344 10.488 192.944 10.62C193.652 10.776 194.252 10.944 194.744 11.124C195.248 11.304 195.65 11.52 195.95 11.772C196.262 12.024 196.49 12.348 196.634 12.744C196.778 13.14 196.85 13.638 196.85 14.238C196.85 15.198 196.676 15.972 196.328 16.56C195.992 17.136 195.5 17.556 194.852 17.82C194.216 18.072 193.448 18.198 192.548 18.198ZM201.596 18.216C200.936 18.216 200.402 18.12 199.994 17.928C199.586 17.736 199.292 17.406 199.112 16.938C198.944 16.458 198.86 15.792 198.86 14.94V10.962H197.798V8.964H198.86V6.57H201.254V8.964H203.558V10.962H201.254V14.31C201.254 14.778 201.272 15.144 201.308 15.408C201.356 15.672 201.452 15.858 201.596 15.966C201.74 16.074 201.962 16.128 202.262 16.128C202.346 16.128 202.472 16.122 202.64 16.11C202.808 16.098 202.976 16.086 203.144 16.074C203.312 16.062 203.45 16.05 203.558 16.038L203.63 17.964C203.342 18.012 202.994 18.066 202.586 18.126C202.19 18.186 201.86 18.216 201.596 18.216ZM208.784 18.198C207.764 18.198 206.942 18.03 206.318 17.694C205.706 17.358 205.262 16.842 204.986 16.146C204.71 15.438 204.572 14.526 204.572 13.41C204.572 12.33 204.716 11.454 205.004 10.782C205.292 10.098 205.748 9.594 206.372 9.27C206.996 8.934 207.8 8.766 208.784 8.766C209.78 8.766 210.584 8.934 211.196 9.27C211.82 9.594 212.276 10.098 212.564 10.782C212.864 11.454 213.014 12.33 213.014 13.41C213.014 14.526 212.876 15.438 212.6 16.146C212.324 16.842 211.874 17.358 211.25 17.694C210.638 18.03 209.816 18.198 208.784 18.198ZM208.784 16.218C209.288 16.218 209.666 16.128 209.918 15.948C210.17 15.756 210.338 15.456 210.422 15.048C210.518 14.628 210.566 14.082 210.566 13.41C210.566 12.75 210.512 12.228 210.404 11.844C210.296 11.448 210.116 11.166 209.864 10.998C209.612 10.83 209.252 10.746 208.784 10.746C208.328 10.746 207.968 10.83 207.704 10.998C207.452 11.166 207.272 11.448 207.164 11.844C207.056 12.228 207.002 12.75 207.002 13.41C207.002 14.082 207.044 14.628 207.128 15.048C207.224 15.456 207.398 15.756 207.65 15.948C207.902 16.128 208.28 16.218 208.784 16.218ZM214.652 18V8.964H217.046V10.026C217.25 9.87 217.502 9.708 217.802 9.54C218.102 9.36 218.426 9.198 218.774 9.054C219.134 8.898 219.476 8.796 219.8 8.748V11.07C219.488 11.118 219.158 11.202 218.81 11.322C218.462 11.43 218.132 11.55 217.82 11.682C217.52 11.814 217.262 11.934 217.046 12.042V18H214.652ZM224.705 18.198C223.709 18.198 222.917 18.03 222.329 17.694C221.753 17.358 221.339 16.848 221.087 16.164C220.835 15.48 220.709 14.622 220.709 13.59C220.709 12.474 220.865 11.562 221.177 10.854C221.501 10.146 221.969 9.624 222.581 9.288C223.193 8.94 223.949 8.766 224.849 8.766C226.181 8.766 227.183 9.102 227.855 9.774C228.539 10.446 228.881 11.508 228.881 12.96L228.773 14.292H223.121C223.133 14.964 223.271 15.468 223.535 15.804C223.799 16.14 224.255 16.308 224.903 16.308C225.275 16.308 225.683 16.302 226.127 16.29C226.571 16.266 227.009 16.242 227.441 16.218C227.885 16.194 228.263 16.17 228.575 16.146L228.629 17.82C228.329 17.868 227.951 17.922 227.495 17.982C227.039 18.042 226.565 18.09 226.073 18.126C225.593 18.174 225.137 18.198 224.705 18.198ZM223.121 12.762H226.487C226.487 11.946 226.355 11.376 226.091 11.052C225.839 10.728 225.425 10.566 224.849 10.566C224.285 10.566 223.853 10.734 223.553 11.07C223.265 11.406 223.121 11.97 223.121 12.762Z" fill="black"/>
<path d="M46.092 35V26.017H47.977L50.46 33.557L52.956 26.017H54.841V35H53.801V27.122H53.606L51.045 34.675H49.888L47.327 27.122H47.132V35H46.092ZM59.3627 35.13C58.6347 35.13 58.067 35.0043 57.6597 34.753C57.261 34.5017 56.9793 34.1203 56.8147 33.609C56.6587 33.0977 56.5807 32.452 56.5807 31.672C56.5807 30.9267 56.6673 30.3113 56.8407 29.826C57.0227 29.3407 57.3173 28.9767 57.7247 28.734C58.132 28.4913 58.678 28.37 59.3627 28.37C60.056 28.37 60.6063 28.4913 61.0137 28.734C61.421 28.9767 61.7113 29.3407 61.8847 29.826C62.0667 30.3113 62.1577 30.9267 62.1577 31.672C62.1577 32.452 62.0753 33.0977 61.9107 33.609C61.7547 34.1203 61.473 34.5017 61.0657 34.753C60.667 35.0043 60.0993 35.13 59.3627 35.13ZM59.3627 34.259C59.8653 34.259 60.2423 34.1723 60.4937 33.999C60.745 33.817 60.9097 33.5353 60.9877 33.154C61.0743 32.7727 61.1177 32.2787 61.1177 31.672C61.1177 31.074 61.0657 30.5973 60.9617 30.242C60.8577 29.8867 60.68 29.631 60.4287 29.475C60.1773 29.319 59.822 29.241 59.3627 29.241C58.912 29.241 58.5567 29.319 58.2967 29.475C58.0453 29.631 57.8677 29.8867 57.7637 30.242C57.6597 30.5973 57.6077 31.074 57.6077 31.672C57.6077 32.2787 57.6467 32.7727 57.7247 33.154C57.8113 33.5353 57.9803 33.817 58.2317 33.999C58.483 34.1723 58.86 34.259 59.3627 34.259ZM63.7475 35V28.5H64.7485V29.371C64.9132 29.2583 65.1212 29.137 65.3725 29.007C65.6239 28.8683 65.9012 28.7383 66.2045 28.617C66.5079 28.4957 66.8112 28.409 67.1145 28.357V29.384C66.8199 29.4447 66.5209 29.527 66.2175 29.631C65.9142 29.7263 65.6325 29.8303 65.3725 29.943C65.1212 30.0557 64.9132 30.1553 64.7485 30.242V35H63.7475ZM70.5554 35.13C69.9054 35.13 69.3897 35.0043 69.0084 34.753C68.6357 34.5017 68.367 34.129 68.2024 33.635C68.0377 33.141 67.9554 32.5257 67.9554 31.789C67.9554 30.9657 68.068 30.307 68.2934 29.813C68.5187 29.3103 68.835 28.9463 69.2424 28.721C69.6497 28.487 70.1307 28.37 70.6854 28.37C71.552 28.37 72.2064 28.6127 72.6484 29.098C73.0904 29.5747 73.3114 30.346 73.3114 31.412L73.2594 32.179H68.9824C68.991 32.855 69.1167 33.3663 69.3594 33.713C69.602 34.0597 70.0397 34.233 70.6724 34.233C70.915 34.233 71.1794 34.2287 71.4654 34.22C71.76 34.2027 72.0504 34.1853 72.3364 34.168C72.6224 34.1507 72.865 34.1333 73.0644 34.116L73.0904 34.909C72.8824 34.9437 72.6267 34.9783 72.3234 35.013C72.0287 35.0477 71.7254 35.0737 71.4134 35.091C71.1014 35.117 70.8154 35.13 70.5554 35.13ZM68.9824 31.36H72.2974C72.2974 30.5627 72.1674 30.008 71.9074 29.696C71.656 29.3753 71.2487 29.215 70.6854 29.215C70.1394 29.215 69.719 29.3797 69.4244 29.709C69.1297 30.0383 68.9824 30.5887 68.9824 31.36ZM80.7683 35V27.577L78.5843 29.033L78.1033 28.24L80.8333 26.42H81.8083V35H80.7683ZM87.6527 35.13C87.1587 35.13 86.7167 35.0607 86.3267 34.922C85.9454 34.7833 85.616 34.5537 85.3387 34.233C85.07 33.9037 84.862 33.4617 84.7147 32.907C84.576 32.3523 84.5067 31.6633 84.5067 30.84C84.5067 29.9647 84.576 29.2323 84.7147 28.643C84.8534 28.0537 85.057 27.5857 85.3257 27.239C85.603 26.8923 85.9324 26.6453 86.3137 26.498C86.7037 26.3507 87.1457 26.277 87.6397 26.277C88.151 26.277 88.6017 26.3507 88.9917 26.498C89.3817 26.6453 89.7067 26.8923 89.9667 27.239C90.2354 27.5857 90.439 28.0537 90.5777 28.643C90.7164 29.2237 90.7857 29.956 90.7857 30.84C90.7857 31.932 90.66 32.79 90.4087 33.414C90.1574 34.038 89.7977 34.48 89.3297 34.74C88.8704 35 88.3114 35.13 87.6527 35.13ZM87.6527 34.207C87.9907 34.207 88.2854 34.155 88.5367 34.051C88.7967 33.947 89.0134 33.7693 89.1867 33.518C89.36 33.2667 89.49 32.9243 89.5767 32.491C89.6634 32.049 89.7067 31.4987 89.7067 30.84C89.7067 30.1207 89.6634 29.527 89.5767 29.059C89.4987 28.591 89.373 28.2227 89.1997 27.954C89.035 27.6767 88.8227 27.4817 88.5627 27.369C88.3114 27.2563 88.008 27.2 87.6527 27.2C87.306 27.2 87.0027 27.2563 86.7427 27.369C86.4827 27.4817 86.266 27.6723 86.0927 27.941C85.928 28.2097 85.8024 28.5823 85.7157 29.059C85.629 29.527 85.5857 30.125 85.5857 30.853C85.5857 31.5117 85.629 32.062 85.7157 32.504C85.811 32.9373 85.9454 33.2797 86.1187 33.531C86.3007 33.7737 86.5174 33.947 86.7687 34.051C87.0287 34.155 87.3234 34.207 87.6527 34.207ZM94.9271 35.13C94.4331 35.13 93.9911 35.0607 93.6011 34.922C93.2198 34.7833 92.8904 34.5537 92.6131 34.233C92.3444 33.9037 92.1364 33.4617 91.9891 32.907C91.8504 32.3523 91.7811 31.6633 91.7811 30.84C91.7811 29.9647 91.8504 29.2323 91.9891 28.643C92.1278 28.0537 92.3314 27.5857 92.6001 27.239C92.8774 26.8923 93.2068 26.6453 93.5881 26.498C93.9781 26.3507 94.4201 26.277 94.9141 26.277C95.4254 26.277 95.8761 26.3507 96.2661 26.498C96.6561 26.6453 96.9811 26.8923 97.2411 27.239C97.5098 27.5857 97.7134 28.0537 97.8521 28.643C97.9908 29.2237 98.0601 29.956 98.0601 30.84C98.0601 31.932 97.9344 32.79 97.6831 33.414C97.4318 34.038 97.0721 34.48 96.6041 34.74C96.1448 35 95.5858 35.13 94.9271 35.13ZM94.9271 34.207C95.2651 34.207 95.5598 34.155 95.8111 34.051C96.0711 33.947 96.2878 33.7693 96.4611 33.518C96.6344 33.2667 96.7644 32.9243 96.8511 32.491C96.9378 32.049 96.9811 31.4987 96.9811 30.84C96.9811 30.1207 96.9378 29.527 96.8511 29.059C96.7731 28.591 96.6474 28.2227 96.4741 27.954C96.3094 27.6767 96.0971 27.4817 95.8371 27.369C95.5858 27.2563 95.2824 27.2 94.9271 27.2C94.5804 27.2 94.2771 27.2563 94.0171 27.369C93.7571 27.4817 93.5404 27.6723 93.3671 27.941C93.2024 28.2097 93.0768 28.5823 92.9901 29.059C92.9034 29.527 92.8601 30.125 92.8601 30.853C92.8601 31.5117 92.9034 32.062 92.9901 32.504C93.0854 32.9373 93.2198 33.2797 93.3931 33.531C93.5751 33.7737 93.7918 33.947 94.0431 34.051C94.3031 34.155 94.5978 34.207 94.9271 34.207ZM101.717 35L104.174 26.017H106.423L108.867 35H107.827L107.19 32.725H103.394L102.757 35H101.717ZM103.615 31.802H106.969L105.63 26.901H104.954L103.615 31.802ZM110.098 37.873V28.5H111.099V28.968C111.238 28.8813 111.411 28.7947 111.619 28.708C111.836 28.6127 112.065 28.5347 112.308 28.474C112.551 28.4047 112.785 28.37 113.01 28.37C113.833 28.37 114.436 28.6343 114.817 29.163C115.198 29.683 115.389 30.5193 115.389 31.672C115.389 32.5213 115.289 33.2017 115.09 33.713C114.899 34.2157 114.592 34.5797 114.167 34.805C113.751 35.0217 113.209 35.13 112.542 35.13C112.273 35.13 112 35.1127 111.723 35.078C111.454 35.0433 111.246 35.013 111.099 34.987V37.873H110.098ZM112.49 34.246C112.958 34.246 113.326 34.1593 113.595 33.986C113.872 33.8127 114.067 33.5397 114.18 33.167C114.293 32.7857 114.349 32.2873 114.349 31.672C114.349 30.7967 114.219 30.1813 113.959 29.826C113.699 29.462 113.335 29.28 112.867 29.28C112.659 29.28 112.442 29.306 112.217 29.358C112 29.41 111.792 29.475 111.593 29.553C111.394 29.6223 111.229 29.696 111.099 29.774V34.116C111.238 34.1333 111.441 34.1593 111.71 34.194C111.979 34.2287 112.239 34.246 112.49 34.246ZM116.966 37.873V28.5H117.967V28.968C118.106 28.8813 118.279 28.7947 118.487 28.708C118.704 28.6127 118.934 28.5347 119.176 28.474C119.419 28.4047 119.653 28.37 119.878 28.37C120.702 28.37 121.304 28.6343 121.685 29.163C122.067 29.683 122.257 30.5193 122.257 31.672C122.257 32.5213 122.158 33.2017 121.958 33.713C121.768 34.2157 121.46 34.5797 121.035 34.805C120.619 35.0217 120.078 35.13 119.41 35.13C119.142 35.13 118.869 35.1127 118.591 35.078C118.323 35.0433 118.115 35.013 117.967 34.987V37.873H116.966ZM119.358 34.246C119.826 34.246 120.195 34.1593 120.463 33.986C120.741 33.8127 120.936 33.5397 121.048 33.167C121.161 32.7857 121.217 32.2873 121.217 31.672C121.217 30.7967 121.087 30.1813 120.827 29.826C120.567 29.462 120.203 29.28 119.735 29.28C119.527 29.28 119.311 29.306 119.085 29.358C118.869 29.41 118.661 29.475 118.461 29.553C118.262 29.6223 118.097 29.696 117.967 29.774V34.116C118.106 34.1333 118.31 34.1593 118.578 34.194C118.847 34.2287 119.107 34.246 119.358 34.246ZM123.834 35V28.5H124.835V29.371C125 29.2583 125.208 29.137 125.459 29.007C125.711 28.8683 125.988 28.7383 126.291 28.617C126.595 28.4957 126.898 28.409 127.201 28.357V29.384C126.907 29.4447 126.608 29.527 126.304 29.631C126.001 29.7263 125.719 29.8303 125.459 29.943C125.208 30.0557 125 30.1553 124.835 30.242V35H123.834ZM130.837 35.13C130.109 35.13 129.542 35.0043 129.134 34.753C128.736 34.5017 128.454 34.1203 128.289 33.609C128.133 33.0977 128.055 32.452 128.055 31.672C128.055 30.9267 128.142 30.3113 128.315 29.826C128.497 29.3407 128.792 28.9767 129.199 28.734C129.607 28.4913 130.153 28.37 130.837 28.37C131.531 28.37 132.081 28.4913 132.488 28.734C132.896 28.9767 133.186 29.3407 133.359 29.826C133.541 30.3113 133.632 30.9267 133.632 31.672C133.632 32.452 133.55 33.0977 133.385 33.609C133.229 34.1203 132.948 34.5017 132.54 34.753C132.142 35.0043 131.574 35.13 130.837 35.13ZM130.837 34.259C131.34 34.259 131.717 34.1723 131.968 33.999C132.22 33.817 132.384 33.5353 132.462 33.154C132.549 32.7727 132.592 32.2787 132.592 31.672C132.592 31.074 132.54 30.5973 132.436 30.242C132.332 29.8867 132.155 29.631 131.903 29.475C131.652 29.319 131.297 29.241 130.837 29.241C130.387 29.241 130.031 29.319 129.771 29.475C129.52 29.631 129.342 29.8867 129.238 30.242C129.134 30.5973 129.082 31.074 129.082 31.672C129.082 32.2787 129.121 32.7727 129.199 33.154C129.286 33.5353 129.455 33.817 129.706 33.999C129.958 34.1723 130.335 34.259 130.837 34.259ZM136.418 35L134.598 28.5H135.69L137.172 34.129H137.666L139.2 28.5H140.24L138.42 35H136.418ZM143.795 35.13C143.145 35.13 142.629 35.0043 142.248 34.753C141.875 34.5017 141.606 34.129 141.442 33.635C141.277 33.141 141.195 32.5257 141.195 31.789C141.195 30.9657 141.307 30.307 141.533 29.813C141.758 29.3103 142.074 28.9463 142.482 28.721C142.889 28.487 143.37 28.37 143.925 28.37C144.791 28.37 145.446 28.6127 145.888 29.098C146.33 29.5747 146.551 30.346 146.551 31.412L146.499 32.179H142.222C142.23 32.855 142.356 33.3663 142.599 33.713C142.841 34.0597 143.279 34.233 143.912 34.233C144.154 34.233 144.419 34.2287 144.705 34.22C144.999 34.2027 145.29 34.1853 145.576 34.168C145.862 34.1507 146.104 34.1333 146.304 34.116L146.33 34.909C146.122 34.9437 145.866 34.9783 145.563 35.013C145.268 35.0477 144.965 35.0737 144.653 35.091C144.341 35.117 144.055 35.13 143.795 35.13ZM142.222 31.36H145.537C145.537 30.5627 145.407 30.008 145.147 29.696C144.895 29.3753 144.488 29.215 143.925 29.215C143.379 29.215 142.958 29.3797 142.664 29.709C142.369 30.0383 142.222 30.5887 142.222 31.36ZM150.111 35.13C149.851 35.13 149.604 35.0997 149.37 35.039C149.136 34.987 148.919 34.8917 148.72 34.753C148.529 34.6143 148.36 34.4237 148.213 34.181C148.066 33.9297 147.953 33.609 147.875 33.219C147.797 32.829 147.758 32.3567 147.758 31.802C147.758 31.0307 147.849 30.3937 148.031 29.891C148.213 29.3797 148.503 28.9983 148.902 28.747C149.301 28.4957 149.829 28.37 150.488 28.37C150.739 28.37 151.021 28.3917 151.333 28.435C151.645 28.4697 151.888 28.5043 152.061 28.539V25.679H153.075V35H152.074V34.571C151.935 34.649 151.753 34.7313 151.528 34.818C151.311 34.9047 151.077 34.9783 150.826 35.039C150.583 35.0997 150.345 35.13 150.111 35.13ZM150.241 34.22C150.466 34.22 150.692 34.194 150.917 34.142C151.151 34.09 151.368 34.0293 151.567 33.96C151.766 33.882 151.931 33.8127 152.061 33.752V29.397C151.957 29.3797 151.814 29.3623 151.632 29.345C151.45 29.319 151.259 29.2973 151.06 29.28C150.869 29.2627 150.696 29.254 150.54 29.254C150.098 29.254 149.751 29.3493 149.5 29.54C149.249 29.7307 149.067 30.0167 148.954 30.398C148.85 30.7707 148.798 31.2387 148.798 31.802C148.798 32.322 148.837 32.7423 148.915 33.063C148.993 33.375 149.097 33.6177 149.227 33.791C149.366 33.9557 149.522 34.0683 149.695 34.129C149.868 34.1897 150.05 34.22 150.241 34.22ZM160.927 35.13C160.251 35.13 159.696 35.0303 159.263 34.831C158.838 34.6317 158.505 34.337 158.262 33.947C158.019 33.557 157.85 33.076 157.755 32.504C157.668 31.932 157.625 31.2733 157.625 30.528C157.625 29.7653 157.668 29.0937 157.755 28.513C157.85 27.9323 158.019 27.447 158.262 27.057C158.505 26.667 158.838 26.3723 159.263 26.173C159.696 25.9737 160.251 25.874 160.927 25.874C161.239 25.874 161.547 25.8913 161.85 25.926C162.162 25.952 162.452 25.991 162.721 26.043C162.99 26.0863 163.219 26.1297 163.41 26.173L163.371 27.044C163.18 27.0093 162.946 26.9747 162.669 26.94C162.392 26.9053 162.11 26.875 161.824 26.849C161.538 26.823 161.278 26.81 161.044 26.81C160.55 26.81 160.147 26.8837 159.835 27.031C159.532 27.1783 159.298 27.408 159.133 27.72C158.968 28.0233 158.856 28.409 158.795 28.877C158.734 29.3363 158.704 29.8867 158.704 30.528C158.704 31.152 158.734 31.698 158.795 32.166C158.856 32.6253 158.964 33.0067 159.12 33.31C159.285 33.6047 159.523 33.8257 159.835 33.973C160.147 34.1203 160.554 34.194 161.057 34.194C161.421 34.194 161.82 34.1723 162.253 34.129C162.695 34.077 163.068 34.025 163.371 33.973L163.41 34.857C163.202 34.9003 162.959 34.9437 162.682 34.987C162.405 35.0303 162.114 35.065 161.811 35.091C161.508 35.117 161.213 35.13 160.927 35.13ZM167.179 35.13C166.529 35.13 166.014 35.0043 165.632 34.753C165.26 34.5017 164.991 34.129 164.826 33.635C164.662 33.141 164.579 32.5257 164.579 31.789C164.579 30.9657 164.692 30.307 164.917 29.813C165.143 29.3103 165.459 28.9463 165.866 28.721C166.274 28.487 166.755 28.37 167.309 28.37C168.176 28.37 168.83 28.6127 169.272 29.098C169.714 29.5747 169.935 30.346 169.935 31.412L169.883 32.179H165.606C165.615 32.855 165.741 33.3663 165.983 33.713C166.226 34.0597 166.664 34.233 167.296 34.233C167.539 34.233 167.803 34.2287 168.089 34.22C168.384 34.2027 168.674 34.1853 168.96 34.168C169.246 34.1507 169.489 34.1333 169.688 34.116L169.714 34.909C169.506 34.9437 169.251 34.9783 168.947 35.013C168.653 35.0477 168.349 35.0737 168.037 35.091C167.725 35.117 167.439 35.13 167.179 35.13ZM165.606 31.36H168.921C168.921 30.5627 168.791 30.008 168.531 29.696C168.28 29.3753 167.873 29.215 167.309 29.215C166.763 29.215 166.343 29.3797 166.048 29.709C165.754 30.0383 165.606 30.5887 165.606 31.36ZM171.442 35V28.5H172.443V29.371C172.608 29.2583 172.816 29.137 173.067 29.007C173.318 28.8683 173.596 28.7383 173.899 28.617C174.202 28.4957 174.506 28.409 174.809 28.357V29.384C174.514 29.4447 174.215 29.527 173.912 29.631C173.609 29.7263 173.327 29.8303 173.067 29.943C172.816 30.0557 172.608 30.1553 172.443 30.242V35H171.442ZM178.081 35.143C177.63 35.143 177.27 35.0737 177.002 34.935C176.742 34.7963 176.555 34.558 176.443 34.22C176.33 33.8733 176.274 33.388 176.274 32.764V29.371H175.351V28.5H176.274V26.511H177.275V28.5H179.316V29.371H177.275V32.465C177.275 32.9243 177.292 33.284 177.327 33.544C177.37 33.7953 177.457 33.973 177.587 34.077C177.717 34.181 177.92 34.233 178.198 34.233C178.284 34.233 178.397 34.2287 178.536 34.22C178.674 34.2113 178.813 34.2027 178.952 34.194C179.099 34.1767 179.229 34.1637 179.342 34.155L179.407 35C179.216 35.026 178.991 35.0563 178.731 35.091C178.471 35.1257 178.254 35.143 178.081 35.143ZM180.506 35V28.5H181.507V35H180.506ZM180.506 27.07V25.9H181.507V27.07H180.506ZM183.648 35V29.371H182.829V28.5H183.648V27.928C183.648 27.304 183.705 26.8187 183.817 26.472C183.93 26.1253 184.116 25.887 184.376 25.757C184.636 25.6183 184.979 25.549 185.403 25.549C185.507 25.549 185.65 25.5533 185.832 25.562C186.014 25.5707 186.192 25.5837 186.365 25.601C186.539 25.6097 186.66 25.6227 186.729 25.64L186.716 26.485C186.56 26.4763 186.37 26.472 186.144 26.472C185.928 26.4633 185.75 26.459 185.611 26.459C185.369 26.459 185.178 26.5023 185.039 26.589C184.901 26.667 184.801 26.8143 184.74 27.031C184.688 27.2477 184.662 27.551 184.662 27.941V28.5H186.534V29.371H184.662V35H183.648ZM187.692 35V28.5H188.693V35H187.692ZM187.692 27.07V25.9H188.693V27.07H187.692ZM192.966 35.13C192.281 35.13 191.744 35.0173 191.354 34.792C190.964 34.558 190.687 34.1853 190.522 33.674C190.366 33.1627 190.288 32.4867 190.288 31.646C190.288 30.8573 190.375 30.2247 190.548 29.748C190.73 29.2627 191.02 28.9117 191.419 28.695C191.818 28.4783 192.338 28.37 192.979 28.37C193.126 28.37 193.304 28.383 193.512 28.409C193.729 28.4263 193.95 28.4523 194.175 28.487C194.4 28.513 194.595 28.539 194.76 28.565L194.721 29.397C194.574 29.3797 194.405 29.3623 194.214 29.345C194.023 29.3277 193.837 29.3147 193.655 29.306C193.473 29.2887 193.321 29.28 193.2 29.28C192.706 29.28 192.32 29.358 192.043 29.514C191.774 29.67 191.584 29.9213 191.471 30.268C191.367 30.606 191.315 31.0653 191.315 31.646C191.315 32.2787 191.363 32.7857 191.458 33.167C191.553 33.5397 191.735 33.8083 192.004 33.973C192.273 34.1377 192.671 34.22 193.2 34.22C193.321 34.22 193.473 34.2157 193.655 34.207C193.846 34.1897 194.036 34.1723 194.227 34.155C194.426 34.1377 194.6 34.1247 194.747 34.116L194.773 34.948C194.6 34.974 194.4 35 194.175 35.026C193.95 35.052 193.729 35.0737 193.512 35.091C193.295 35.117 193.113 35.13 192.966 35.13ZM197.64 35.13C197.042 35.13 196.587 34.961 196.275 34.623C195.963 34.285 195.807 33.791 195.807 33.141C195.807 32.7163 195.881 32.3697 196.028 32.101C196.175 31.8323 196.396 31.6287 196.691 31.49C196.994 31.3427 197.367 31.2517 197.809 31.217L199.811 31.022V30.463C199.811 30.021 199.711 29.709 199.512 29.527C199.321 29.345 199.035 29.254 198.654 29.254C198.437 29.254 198.177 29.2627 197.874 29.28C197.579 29.2973 197.285 29.319 196.99 29.345C196.695 29.371 196.435 29.397 196.21 29.423L196.158 28.656C196.366 28.6127 196.617 28.5693 196.912 28.526C197.207 28.4827 197.514 28.448 197.835 28.422C198.156 28.3873 198.45 28.37 198.719 28.37C199.213 28.37 199.616 28.448 199.928 28.604C200.24 28.7513 200.465 28.981 200.604 29.293C200.751 29.5963 200.825 29.9863 200.825 30.463V33.752C200.842 33.9427 200.916 34.0813 201.046 34.168C201.185 34.2547 201.358 34.311 201.566 34.337L201.527 35.13C201.336 35.13 201.163 35.117 201.007 35.091C200.851 35.0737 200.704 35.0433 200.565 35C200.452 34.9567 200.344 34.9047 200.24 34.844C200.145 34.7833 200.049 34.7097 199.954 34.623C199.789 34.6923 199.577 34.766 199.317 34.844C199.066 34.922 198.793 34.987 198.498 35.039C198.212 35.0997 197.926 35.13 197.64 35.13ZM197.809 34.285C198.043 34.285 198.286 34.2633 198.537 34.22C198.788 34.1767 199.027 34.1247 199.252 34.064C199.477 34.0033 199.664 33.947 199.811 33.895V31.776L197.926 31.958C197.536 31.9927 197.254 32.1053 197.081 32.296C196.916 32.4867 196.834 32.7597 196.834 33.115C196.834 33.479 196.916 33.765 197.081 33.973C197.246 34.181 197.488 34.285 197.809 34.285ZM204.881 35.143C204.43 35.143 204.07 35.0737 203.802 34.935C203.542 34.7963 203.355 34.558 203.243 34.22C203.13 33.8733 203.074 33.388 203.074 32.764V29.371H202.151V28.5H203.074V26.511H204.075V28.5H206.116V29.371H204.075V32.465C204.075 32.9243 204.092 33.284 204.127 33.544C204.17 33.7953 204.257 33.973 204.387 34.077C204.517 34.181 204.72 34.233 204.998 34.233C205.084 34.233 205.197 34.2287 205.336 34.22C205.474 34.2113 205.613 34.2027 205.752 34.194C205.899 34.1767 206.029 34.1637 206.142 34.155L206.207 35C206.016 35.026 205.791 35.0563 205.531 35.091C205.271 35.1257 205.054 35.143 204.881 35.143ZM209.607 35.13C208.957 35.13 208.441 35.0043 208.06 34.753C207.687 34.5017 207.419 34.129 207.254 33.635C207.089 33.141 207.007 32.5257 207.007 31.789C207.007 30.9657 207.12 30.307 207.345 29.813C207.57 29.3103 207.887 28.9463 208.294 28.721C208.701 28.487 209.182 28.37 209.737 28.37C210.604 28.37 211.258 28.6127 211.7 29.098C212.142 29.5747 212.363 30.346 212.363 31.412L212.311 32.179H208.034C208.043 32.855 208.168 33.3663 208.411 33.713C208.654 34.0597 209.091 34.233 209.724 34.233C209.967 34.233 210.231 34.2287 210.517 34.22C210.812 34.2027 211.102 34.1853 211.388 34.168C211.674 34.1507 211.917 34.1333 212.116 34.116L212.142 34.909C211.934 34.9437 211.678 34.9783 211.375 35.013C211.08 35.0477 210.777 35.0737 210.465 35.091C210.153 35.117 209.867 35.13 209.607 35.13ZM208.034 31.36H211.349C211.349 30.5627 211.219 30.008 210.959 29.696C210.708 29.3753 210.3 29.215 209.737 29.215C209.191 29.215 208.771 29.3797 208.476 29.709C208.181 30.0383 208.034 30.5887 208.034 31.36ZM215.898 35.13C215.698 35.13 215.456 35.117 215.17 35.091C214.892 35.065 214.615 35.0347 214.338 35C214.06 34.9567 213.813 34.9177 213.597 34.883L213.649 34.012C213.865 34.038 214.108 34.0683 214.377 34.103C214.654 34.1377 214.923 34.168 215.183 34.194C215.443 34.2113 215.651 34.22 215.807 34.22C216.162 34.22 216.457 34.1897 216.691 34.129C216.925 34.0597 217.102 33.947 217.224 33.791C217.345 33.635 217.406 33.414 217.406 33.128C217.406 32.9113 217.358 32.7423 217.263 32.621C217.176 32.4997 217.007 32.4 216.756 32.322C216.513 32.244 216.158 32.1703 215.69 32.101C215.204 32.023 214.797 31.9277 214.468 31.815C214.147 31.6937 213.909 31.516 213.753 31.282C213.597 31.048 213.519 30.7143 213.519 30.281C213.519 29.7957 213.631 29.4143 213.857 29.137C214.082 28.8597 214.372 28.6647 214.728 28.552C215.092 28.4307 215.469 28.37 215.859 28.37C216.101 28.37 216.366 28.383 216.652 28.409C216.946 28.435 217.232 28.4697 217.51 28.513C217.787 28.5477 218.025 28.5823 218.225 28.617L218.199 29.488C217.991 29.4533 217.748 29.423 217.471 29.397C217.193 29.3623 216.916 29.3363 216.639 29.319C216.361 29.293 216.119 29.28 215.911 29.28C215.651 29.28 215.417 29.3103 215.209 29.371C215.001 29.423 214.836 29.5183 214.715 29.657C214.593 29.7957 214.533 29.9907 214.533 30.242C214.533 30.4327 214.576 30.5887 214.663 30.71C214.749 30.8227 214.914 30.918 215.157 30.996C215.399 31.074 215.75 31.152 216.21 31.23C216.747 31.3167 217.176 31.425 217.497 31.555C217.826 31.685 218.064 31.867 218.212 32.101C218.359 32.335 218.433 32.6643 218.433 33.089C218.433 33.8517 218.207 34.3847 217.757 34.688C217.306 34.9827 216.686 35.13 215.898 35.13Z" fill="black"/>
</svg>
