<svg width="50" height="50" viewBox="0 0 50 50" fill="none" xmlns="http://www.w3.org/2000/svg">
<path fill-rule="evenodd" clip-rule="evenodd" d="M32.4219 43.8477C29.1016 43.8477 25.7813 42.9688 22.9493 41.1133C22.6563 40.918 22.6563 40.5273 22.754 40.332C22.9493 40.0391 23.3399 39.9414 23.6329 40.1367C26.2696 41.7969 29.2969 42.6758 32.4219 42.6758C41.504 42.6758 48.8282 35.3516 48.8282 26.3672C48.8282 17.2852 41.504 9.96094 32.4219 9.96094C32.129 9.96094 31.836 9.66797 31.836 9.375C31.836 9.08203 32.129 8.78906 32.4219 8.78906C42.0899 8.78906 50.0001 16.6992 50.0001 26.3672C50.0001 36.0352 42.0899 43.8477 32.4219 43.8477Z" fill="#087ED8"/>
<path fill-rule="evenodd" clip-rule="evenodd" d="M37.6953 12.9883C37.5977 12.9883 37.5 12.9883 37.4023 12.9883L31.8359 10.0586C31.6406 9.96094 31.4453 9.76562 31.4453 9.57031C31.4453 9.375 31.6406 9.17969 31.8359 8.98438L37.4023 6.15234C37.6953 6.05469 38.0859 6.15234 38.1836 6.44531C38.3789 6.73828 38.2812 7.12891 37.9883 7.22656L33.3984 9.57031L37.9883 11.9141C38.2812 12.0117 38.3789 12.4023 38.1836 12.6953C38.0859 12.8906 37.8906 12.9883 37.6953 12.9883Z" fill="#087ED8"/>
<path fill-rule="evenodd" clip-rule="evenodd" d="M17.3828 26.7578C16.0156 26.7578 14.9414 25.6836 14.9414 24.5117C14.9414 24.2188 15.2344 23.9258 15.5273 23.9258C15.918 23.9258 16.2109 24.2188 16.2109 24.5117C16.2109 25.0977 16.6992 25.4883 17.3828 25.4883C18.0664 25.4883 18.5547 25.0977 18.5547 24.5117C18.5547 24.0234 18.0664 23.5352 17.3828 23.5352C16.0156 23.5352 14.9414 22.5586 14.9414 21.2891C14.9414 20.1172 16.0156 19.1406 17.3828 19.1406C18.75 19.1406 19.8242 20.1172 19.8242 21.2891C19.8242 21.6797 19.5312 21.9727 19.2383 21.9727C18.8477 21.9727 18.5547 21.6797 18.5547 21.2891C18.5547 20.8008 18.0664 20.3125 17.3828 20.3125C16.6992 20.3125 16.2109 20.8008 16.2109 21.2891C16.2109 21.875 16.6992 22.3633 17.3828 22.3633C18.75 22.3633 19.8242 23.3398 19.8242 24.5117C19.8242 25.6836 18.75 26.7578 17.3828 26.7578Z" fill="#087ED8"/>
<path fill-rule="evenodd" clip-rule="evenodd" d="M17.3828 27.5391C17.0898 27.5391 16.7969 27.3438 16.7969 26.9531V18.8477C16.7969 18.5547 17.0898 18.2617 17.3828 18.2617C17.6758 18.2617 17.9688 18.5547 17.9688 18.8477V26.9531C17.9688 27.3438 17.6758 27.5391 17.3828 27.5391Z" fill="#087ED8"/>
<path fill-rule="evenodd" clip-rule="evenodd" d="M17.3828 29.5898C13.7695 29.5898 10.7422 26.5625 10.7422 22.9492C10.7422 19.2383 13.7695 16.3086 17.3828 16.3086C20.9961 16.3086 24.0234 19.2383 24.0234 22.9492C24.0234 26.5625 20.9961 29.5898 17.3828 29.5898ZM17.3828 17.4805C14.3555 17.4805 11.9141 19.9219 11.9141 22.9492C11.9141 25.8789 14.3555 28.3203 17.3828 28.3203C20.4102 28.3203 22.8516 25.8789 22.8516 22.9492C22.8516 19.9219 20.4102 17.4805 17.3828 17.4805Z" fill="#087ED8"/>
<path fill-rule="evenodd" clip-rule="evenodd" d="M34.1797 32.9102H0.585938C0.292969 32.9102 0 32.6172 0 32.3242V13.5742C0 13.2812 0.292969 12.9883 0.585938 12.9883H34.1797C34.4727 12.9883 34.7656 13.2812 34.7656 13.5742V32.3242C34.7656 32.6172 34.4727 32.9102 34.1797 32.9102ZM1.17188 31.6406H33.5938V14.1602H1.17188V31.6406Z" fill="#087ED8"/>
<path fill-rule="evenodd" clip-rule="evenodd" d="M34.1797 32.9102H29.0039C28.7109 32.9102 28.418 32.6172 28.418 32.3242C28.418 29.1016 31.0547 26.5625 34.1797 26.5625C34.4727 26.5625 34.7656 26.8555 34.7656 27.1484V32.3242C34.7656 32.6172 34.4727 32.9102 34.1797 32.9102ZM29.6875 31.6406H33.5938V27.832C31.543 28.0273 29.9805 29.6875 29.6875 31.6406Z" fill="#087ED8"/>
<path fill-rule="evenodd" clip-rule="evenodd" d="M5.76172 32.9102H0.585938C0.292969 32.9102 0 32.6172 0 32.3242V27.1484C0 26.8555 0.292969 26.5625 0.585938 26.5625C3.71094 26.5625 6.25 29.1016 6.34766 32.2266V32.3242C6.34766 32.6172 6.05469 32.9102 5.76172 32.9102ZM1.17188 31.6406H5.07812C4.78516 29.6875 3.22266 28.0273 1.17188 27.832V31.6406Z" fill="#087ED8"/>
<path fill-rule="evenodd" clip-rule="evenodd" d="M0.585938 19.3359C0.292969 19.3359 0 19.043 0 18.6523V13.5742C0 13.2812 0.292969 12.9883 0.585938 12.9883H5.76172C6.05469 12.9883 6.34766 13.2812 6.34766 13.5742C6.34766 16.6992 3.71094 19.3359 0.585938 19.3359ZM1.17188 14.1602V18.0664C3.22266 17.7734 4.78516 16.2109 5.07812 14.1602H1.17188Z" fill="#087ED8"/>
<path fill-rule="evenodd" clip-rule="evenodd" d="M34.1797 19.3359C31.0547 19.3359 28.418 16.6992 28.418 13.5742C28.418 13.2812 28.7109 12.9883 29.0039 12.9883H34.1797C34.4727 12.9883 34.7656 13.2812 34.7656 13.5742V18.6523C34.7656 19.043 34.4727 19.3359 34.1797 19.3359ZM29.6875 14.1602C29.9805 16.2109 31.543 17.7734 33.5938 18.0664V14.1602H29.6875Z" fill="#087ED8"/>
<path fill-rule="evenodd" clip-rule="evenodd" d="M37.793 36.6211H4.19922C3.90625 36.6211 3.61328 36.4258 3.61328 36.0352V32.3242C3.61328 31.9336 3.90625 31.6406 4.19922 31.6406H33.5938V17.3828C33.5938 16.9922 33.7891 16.7969 34.1797 16.7969H37.793C38.0859 16.7969 38.3789 16.9922 38.3789 17.3828V36.0352C38.3789 36.4258 38.0859 36.6211 37.793 36.6211ZM4.78516 35.4492H37.207V17.9688H34.7656V32.3242C34.7656 32.6172 34.4727 32.9102 34.1797 32.9102H4.78516V35.4492Z" fill="#087ED8"/>
</svg>
