<svg width="50" height="50" viewBox="0 0 50 50" fill="none" xmlns="http://www.w3.org/2000/svg">
<g clip-path="url(#clip0_1_2946)">
<path d="M43.1946 2.25399C42.82 2.09606 42.3885 2.27154 42.2306 2.64499C42.0715 3.0196 42.247 3.45104 42.6209 3.60897C46.0236 5.0452 48.5455 8.44639 48.5455 12.5529C48.5455 21.4511 37.4657 25.6915 31.5659 18.9875C28.2303 15.2285 28.2684 9.39014 31.9706 5.68798C34.1583 3.49911 37.1166 2.57137 39.9868 2.91164C40.39 2.9578 40.7559 2.6717 40.8039 2.26772C40.852 1.86451 40.5636 1.49868 40.1604 1.45061C30.5241 0.305441 24.1528 11.1609 29.6917 18.9875C29.1016 18.9875 14.9223 18.9875 14.278 18.9875C13.5906 18.9875 13.0329 19.5464 13.0329 20.2327V29.748L11.6512 32.4633C11.3895 32.9783 10.9531 33.3625 10.4355 33.5589C10.4355 32.4241 9.54552 31.6367 8.55065 31.6367H5.71365C4.73518 31.6367 3.82805 32.3958 3.82805 33.5971H2.00424C0.899124 33.5971 0 34.4962 0 35.6021V36.4928C0 36.8987 0.328445 37.2279 0.735474 37.2279C1.14136 37.2279 1.47095 36.8987 1.47095 36.4928V35.6021C1.47095 35.3072 1.71013 35.068 2.00424 35.068H3.82805V45.2491H2.00424C1.71013 45.2491 1.47095 45.0099 1.47095 44.7158V39.4343C1.47095 39.0273 1.14136 38.6989 0.735474 38.6989C0.328445 38.6989 0 39.0273 0 39.4343V44.7158C0 45.8209 0.899124 46.72 2.00424 46.72H3.82805C3.82805 47.922 4.73671 48.6812 5.71365 48.6812H8.55065C9.41467 48.6812 10.144 48.0967 10.3657 47.3025C11.2701 47.5444 8.77876 47.4486 41.6981 47.4486C42.4561 47.4486 43.0729 46.8318 43.0729 46.0738V22.9049C52.2194 19.1615 52.3571 6.1343 43.1946 2.25399ZM8.96454 40.116C8.96454 40.8984 8.96454 41.1536 8.96454 41.1471V46.7955C8.96454 47.0202 8.77533 47.2106 8.55065 47.2106H5.71365C5.48935 47.2106 5.299 47.0202 5.299 46.7955C5.299 46.1688 5.299 34.1407 5.299 33.5227C5.299 33.2969 5.48935 33.1076 5.71365 33.1076H8.55065C8.77533 33.1076 8.96454 33.2969 8.96454 33.5227V40.116ZM22.4037 20.4581H28.0121V26.229L25.832 24.5234C25.4646 24.2362 24.9481 24.2377 24.5834 24.5234L22.4037 26.229V20.4581ZM22.2347 45.9739C10.5579 45.9781 11.1263 46.0513 10.4355 45.7797V35.0913C11.5215 34.8517 12.4214 34.1891 13.0329 32.9909C13.1954 32.6716 14.4074 30.2901 14.7018 29.7118C14.9456 29.2247 16.3227 30.4561 15.6735 31.7309L14.9635 33.1263C14.4852 34.067 15.1672 35.1798 16.2228 35.1798L25.436 35.1767C25.8919 35.1767 26.2814 35.5506 26.2764 35.9858C26.2714 36.4177 25.9152 36.7705 25.4818 36.7728H19.7327C19.3264 36.7728 18.9972 37.102 18.9972 37.5083C18.9972 37.9146 19.3264 38.2438 19.7327 38.2438C19.7365 38.2438 28.3154 38.243 28.3173 38.243C28.6877 38.243 29.0741 38.5833 29.134 38.9136C29.2408 39.4469 28.928 39.8375 28.3772 39.8375C28.3749 39.8375 27.2366 39.8383 19.6709 39.8383C19.2646 39.8383 18.9354 40.1675 18.9354 40.5738C18.9354 40.9797 19.2646 41.3089 19.6709 41.3089C19.6751 41.3089 27.0413 41.3089 27.0454 41.3092C27.7515 41.3352 28.0636 42.1885 27.578 42.6711C27.4277 42.8222 27.2278 42.9046 27.0149 42.9046C21.3772 42.908 22.9412 42.9076 18.9644 42.9076C18.5581 42.9076 18.2289 43.2368 18.2289 43.6431C18.2289 44.0493 18.5581 44.3786 18.9644 44.3786C22.4667 44.3786 22.4861 44.3004 22.7993 44.6116C23.2975 45.1114 22.9435 45.9739 22.2347 45.9739ZM41.602 45.9777H37.3837V31.8377C37.3837 31.4319 37.0541 31.1023 36.6482 31.1023C36.2412 31.1023 35.9127 31.4319 35.9127 31.8377V45.9777H24.3538C24.5575 45.4432 24.5544 44.8813 24.3633 44.3774L27.0149 44.3755C28.648 44.3755 29.7443 42.6997 29.0947 41.2024C30.7293 40.6966 31.1268 38.6577 29.9458 37.472C29.1515 36.6778 28.3592 36.772 27.6012 36.772C28.1696 35.2748 27.0226 33.7058 25.436 33.7058L16.3178 33.7088L16.9846 32.3989C18.103 30.1993 16.1705 27.7739 14.5039 28.1703V20.4581H20.9328V27.1682C20.9328 27.727 21.3879 28.1817 21.9471 28.1817C22.4003 28.1817 22.3084 28.1707 25.2079 25.9028C28.0678 28.1401 28.0052 28.1817 28.4683 28.1817C29.0279 28.1817 29.483 27.727 29.483 27.1682V20.4581H30.9322C32.3357 21.8615 34.0466 22.8461 35.9127 23.347V28.8962C35.9127 29.3021 36.2412 29.6317 36.6482 29.6317C37.0541 29.6317 37.3837 29.3021 37.3837 28.8962V23.6392C38.7833 23.8204 40.226 23.738 41.602 23.3893V45.9777Z" fill="#087ED8"/>
<path d="M33.9817 12.4194C33.7124 12.115 33.2474 12.0872 32.9438 12.3565C32.6394 12.6258 32.6115 13.0904 32.8808 13.3944L35.8429 16.7388C36.4136 17.3827 37.418 17.3816 37.9879 16.7418L44.7903 9.10749C45.0608 8.8046 45.0337 8.33959 44.7304 8.06951C44.4272 7.79943 43.9625 7.82575 43.6921 8.12902L36.9168 15.7325L33.9817 12.4194Z" fill="#087ED8"/>
</g>
<defs>
<clipPath id="clip0_1_2946">
<rect width="50" height="50" fill="white"/>
</clipPath>
</defs>
</svg>
