<svg width="50" height="50" viewBox="0 0 50 50" fill="none" xmlns="http://www.w3.org/2000/svg">
<g clip-path="url(#clip0_1_2953)">
<path d="M11.5971 8.8688C11.5971 7.30542 10.2718 6.03345 8.64268 6.03345H6.49248C6.49209 6.03345 6.4916 6.03345 6.49111 6.03345C6.49072 6.03345 6.49023 6.03345 6.48984 6.03345C6.08535 6.03345 5.75732 6.36138 5.75732 6.76597V14.8576C5.75732 15.2621 6.08525 15.5901 6.48984 15.5901C6.89443 15.5901 7.22236 15.2622 7.22236 14.8576V11.8279C7.3251 11.9446 11.2912 16.4515 11.3056 16.4677L9.02617 18.4739C8.72246 18.7412 8.69297 19.204 8.96025 19.5077C9.22783 19.8118 9.69082 19.8405 9.99404 19.5736L12.2734 17.5674L14.2796 19.8468C14.5472 20.1509 15.0102 20.1796 15.3134 19.9127C15.6171 19.6455 15.6466 19.1827 15.3793 18.879L13.3731 16.5996L15.6525 14.5934C15.9563 14.3261 15.9857 13.8633 15.7185 13.5596C15.4512 13.2559 14.9884 13.2264 14.6847 13.4937L12.4053 15.4999C12.1919 15.2574 13.3842 16.6123 9.0418 11.6776C10.4826 11.49 11.5971 10.3023 11.5971 8.8688ZM8.64277 10.2392C8.31885 10.2392 7.71826 10.2419 7.23574 10.2444C7.22822 8.85464 7.23232 9.23003 7.22734 7.49829H8.64277C9.4501 7.49829 10.1322 8.12593 10.1322 8.8687C10.1321 9.61167 9.4501 10.2392 8.64277 10.2392Z" fill="#087ED8"/>
<path d="M32.7498 22.8059H6.49009C6.0856 22.8059 5.75757 23.1338 5.75757 23.5384C5.75757 23.943 6.0855 24.2709 6.49009 24.2709H32.7498C33.1542 24.2709 33.4823 23.943 33.4823 23.5384C33.4823 23.1338 33.1542 22.8059 32.7498 22.8059Z" fill="#087ED8"/>
<path d="M33.4822 28.0311C33.4822 27.6266 33.1542 27.2986 32.7497 27.2986H6.49009C6.0856 27.2986 5.75757 27.6265 5.75757 28.0311C5.75757 28.4357 6.0855 28.7636 6.49009 28.7636H32.7498C33.1542 28.7636 33.4822 28.4357 33.4822 28.0311Z" fill="#087ED8"/>
<path d="M6.49009 31.7913C6.0856 31.7913 5.75757 32.1192 5.75757 32.5238C5.75757 32.9284 6.0855 33.2563 6.49009 33.2563H15.1474C15.5519 33.2563 15.8799 32.9284 15.8799 32.5238C15.8799 32.1192 15.552 31.7913 15.1474 31.7913H6.49009Z" fill="#087ED8"/>
<path d="M0.73252 25.0034C1.13701 25.0034 1.46504 24.6754 1.46504 24.2708V6.79478C1.46504 4.89448 3.01104 3.34849 4.91133 3.34849H30.303V10.3072C30.303 12.852 32.3716 14.9425 34.9384 14.9425H41.8976V18.4352C41.8976 18.8397 42.2255 19.1677 42.6301 19.1677C43.0347 19.1677 43.3626 18.8398 43.3626 18.4352V14.2101C43.3626 14.0262 43.2895 13.8337 43.1483 13.6924C43.1482 13.6923 43.1481 13.6922 43.148 13.6921L31.5533 2.09761C31.4272 1.97153 31.2297 1.88354 31.0349 1.88354H4.91123C2.20322 1.88354 0 4.08677 0 6.79478V24.2709C0 24.6754 0.32793 25.0034 0.73252 25.0034ZM34.9383 13.4777C33.1901 13.4777 31.7679 12.0554 31.7679 10.3073V4.38394L40.8616 13.4777H34.9383Z" fill="#087ED8"/>
<path d="M4.91123 38.824H27.5276C26.9014 41.2889 27.5494 44.0138 29.4747 45.939C32.3797 48.8418 37.1064 48.8419 40.0117 45.9388C44.1021 41.849 40.3411 45.6085 47.8213 38.1302L47.8214 38.1301C50.7262 35.2242 50.7262 30.4968 47.8213 27.592C46.6067 26.3775 45.0464 25.6352 43.3624 25.4542V21.3651C43.3624 20.9606 43.0345 20.6326 42.6299 20.6326C42.2253 20.6326 41.8974 20.9605 41.8974 21.3651V25.439C41.8924 25.4394 41.8875 25.4402 41.8825 25.4407C39.0112 25.6956 37.4463 27.468 37.2841 27.592L33.3793 31.4968C30.0837 34.9277 28.9468 35.581 28.0673 37.359H4.91123C3.01094 37.359 1.46494 35.813 1.46494 33.9127V27.2006C1.46494 26.7961 1.13701 26.4681 0.732422 26.4681C0.327832 26.4681 0 26.7962 0 27.2007V33.9128C0 36.6209 2.20322 38.824 4.91123 38.824ZM38.9761 44.9028C36.6422 47.2351 32.8444 47.2352 30.5104 44.903C28.1918 42.5844 28.1603 38.7933 30.5104 36.4375L33.8972 33.0506C36.5906 35.7441 39.6691 38.8226 42.3627 41.5161L38.9761 44.9028ZM46.7854 37.0945L43.3986 40.4803L34.9331 32.0148C38.5677 28.3839 38.7086 28.1279 39.7659 27.5605C41.2343 26.7871 42.6333 26.8753 42.6234 26.8764C44.1958 26.8946 45.6715 27.5141 46.7854 28.628C49.1192 30.9618 49.1192 34.7598 46.7854 37.0945Z" fill="#087ED8"/>
</g>
<defs>
<clipPath id="clip0_1_2953">
<rect width="50" height="50" fill="white"/>
</clipPath>
</defs>
</svg>
