<svg width="50" height="50" viewBox="0 0 50 50" fill="none" xmlns="http://www.w3.org/2000/svg">
<path d="M43.8543 37.8905C44.2588 37.8905 44.5867 37.5626 44.5867 37.1581V19.58C44.5867 18.7058 44.246 17.8115 43.6274 17.062L38.1954 10.4806C37.9109 10.1357 37.5837 9.84512 37.2284 9.61367C37.2502 9.38984 37.2626 9.16377 37.2626 8.93555V0.732422C37.2626 0.32793 36.9347 0 36.5302 0C36.1257 0 35.7978 0.32793 35.7978 0.732422C35.7978 0.732422 35.7963 9.00537 35.7957 9.04033C35.5873 9.00342 35.3758 8.98438 35.163 8.98438H25.6903C25.0234 8.98438 24.3697 9.17148 23.7845 9.51533C23.7592 9.52441 23.7341 9.53457 23.7095 9.54658L16.5697 13.0243C15.7787 13.4211 15.1462 14.0866 14.7885 14.8982C14.7846 14.9071 14.7809 14.916 14.7774 14.925L11.8254 22.4125C11.6771 22.7889 11.8618 23.2142 12.2382 23.3626C12.3264 23.3974 12.4172 23.4138 12.5066 23.4138C12.7986 23.4138 13.0746 23.2379 13.1882 22.9498L16.1344 15.4768C16.356 14.9817 16.7434 14.5762 17.2189 14.3375L20.9911 12.5001L17.2259 17.0621C16.6621 17.7451 16.3642 18.6159 16.3642 19.5802V44.8731C16.3642 45.1677 16.39 45.4561 16.437 45.7371L8.88995 42.393C7.18507 41.6376 6.41241 39.6311 7.16788 37.9201C7.1711 37.9127 7.17423 37.9052 7.17735 37.8978L11.9511 26.0341C12.1021 25.6588 11.9203 25.2322 11.545 25.0812C11.1695 24.9302 10.7432 25.112 10.5921 25.4872L5.82257 37.3398C4.7501 39.7861 5.85792 42.6516 8.29649 43.732L17.1465 47.6535C17.1573 47.6583 17.1684 47.6618 17.1793 47.666C18.0775 49.0695 19.6305 49.9999 21.3935 49.9999H39.4599C42.239 49.9999 44.5868 47.6521 44.5868 44.8729V40.5761C44.5868 40.1716 44.2589 39.8437 43.8544 39.8437C43.4499 39.8437 43.122 40.1716 43.122 40.5761V44.8729C43.122 46.858 41.4449 48.5351 39.4599 48.5351H21.3935C19.428 48.5351 17.829 46.8923 17.829 44.8729V19.58C17.829 18.9513 18.0062 18.4178 18.3557 17.9944L23.7876 11.413C24.2932 10.8005 24.9867 10.4491 25.6903 10.4491H35.163C35.301 10.4491 35.4385 10.4631 35.5743 10.4895C35.1158 12.053 33.9801 13.3577 32.4464 14.0115C32.0453 13.3407 31.3121 12.8905 30.4754 12.8905C29.21 12.8905 28.1805 13.92 28.1805 15.1854C28.1805 16.4509 29.21 17.4804 30.4754 17.4804C31.6456 17.4804 32.6134 16.5997 32.7525 15.4664C34.7251 14.7203 36.2167 13.1395 36.8813 11.2099C36.945 11.274 37.0068 11.3415 37.0657 11.413L42.4977 17.9945C42.9002 18.4822 43.122 19.0453 43.122 19.5801V37.1582C43.1219 37.5626 43.4498 37.8905 43.8543 37.8905ZM30.4754 16.0155C30.0177 16.0155 29.6453 15.6432 29.6453 15.1854C29.6453 14.7277 30.0177 14.3554 30.4754 14.3554C30.9331 14.3554 31.3055 14.7277 31.3055 15.1854C31.3055 15.6432 30.9331 16.0155 30.4754 16.0155Z" fill="#087ED8"/>
<path d="M24.1277 38.9648C24.3151 38.9648 24.5026 38.8933 24.6456 38.7503L37.1456 26.2503C37.4317 25.9642 37.4317 25.5005 37.1456 25.2145C36.8596 24.9285 36.3958 24.9285 36.1099 25.2145L23.6099 37.7145C23.1429 38.1498 23.5012 38.987 24.1277 38.9648Z" fill="#087ED8"/>
<path d="M25.6902 31.25C27.4402 31.25 28.8641 29.8262 28.8641 28.0762C28.8641 26.3262 27.4402 24.9023 25.6902 24.9023H25.5926C23.8426 24.9023 22.4188 26.3262 22.4188 28.0762C22.4188 29.8262 23.8426 31.25 25.5926 31.25H25.6902ZM23.8836 28.0762C23.8836 27.1339 24.6503 26.3672 25.5926 26.3672H25.6902C26.6325 26.3672 27.3992 27.1339 27.3992 28.0762C27.3992 29.0185 26.6325 29.7852 25.6902 29.7852H25.5926C24.6503 29.7852 23.8836 29.0185 23.8836 28.0762Z" fill="#087ED8"/>
<path d="M35.1629 38.9648H35.2606C37.0106 38.9648 38.4344 37.541 38.4344 35.791C38.4344 34.041 37.0106 32.6172 35.2606 32.6172H35.1629C33.4129 32.6172 31.9891 34.041 31.9891 35.791C31.9891 37.541 33.4129 38.9648 35.1629 38.9648ZM35.1629 34.082H35.2606C36.2028 34.082 36.9695 34.8487 36.9695 35.791C36.9695 36.7333 36.2028 37.5 35.2606 37.5H35.1629C34.2206 37.5 33.4539 36.7333 33.4539 35.791C33.4539 34.8487 34.2206 34.082 35.1629 34.082Z" fill="#087ED8"/>
</svg>
