<svg width="48" height="48" viewBox="0 0 48 48" fill="none" xmlns="http://www.w3.org/2000/svg">
<path d="M42.1002 36.3749C42.4885 36.3749 42.8033 36.0601 42.8033 35.6718V18.7968C42.8033 17.9575 42.4762 17.0991 41.8823 16.3795L36.6676 10.0613C36.3945 9.73031 36.0804 9.45131 35.7393 9.22913C35.7602 9.01425 35.7721 8.79722 35.7721 8.57812V0.703125C35.7721 0.314812 35.4573 0 35.069 0C34.6807 0 34.3659 0.314812 34.3659 0.703125C34.3659 0.703125 34.3645 8.64516 34.3639 8.67872C34.1639 8.64328 33.9608 8.625 33.7565 8.625H24.6628C24.0225 8.625 23.395 8.80463 22.8331 9.13472C22.8089 9.14344 22.7848 9.15319 22.7611 9.16472L15.907 12.5033C15.1476 12.8842 14.5404 13.5232 14.197 14.3023C14.1932 14.3108 14.1897 14.3194 14.1863 14.328L11.3524 21.516C11.21 21.8773 11.3874 22.2856 11.7487 22.4281C11.8334 22.4615 11.9205 22.4772 12.0064 22.4772C12.2867 22.4772 12.5517 22.3084 12.6607 22.0318L15.489 14.8577C15.7018 14.3825 16.0737 13.9931 16.5301 13.764L20.1515 12.0001L16.5369 16.3796C15.9957 17.0353 15.7096 17.8713 15.7096 18.797V43.0782C15.7096 43.361 15.7345 43.6378 15.7796 43.9076L8.53439 40.6973C6.8977 39.9721 6.15595 38.0458 6.8812 36.4033C6.8843 36.3962 6.8873 36.389 6.8903 36.3818L11.4731 24.9927C11.618 24.6324 11.4435 24.2229 11.0833 24.0779C10.7228 23.933 10.3135 24.1075 10.1685 24.4677L5.5897 35.8462C4.56014 38.1947 5.62364 40.9455 7.96467 41.9827L16.4607 45.7474C16.4711 45.752 16.4817 45.7553 16.4922 45.7594C17.3545 47.1068 18.8453 47.9999 20.5378 47.9999H37.8815C40.5495 47.9999 42.8034 45.746 42.8034 43.078V38.953C42.8034 38.5647 42.4886 38.2499 42.1003 38.2499C41.712 38.2499 41.3971 38.5647 41.3971 38.953V43.078C41.3971 44.9837 39.7872 46.5937 37.8815 46.5937H20.5378C18.651 46.5937 17.1159 45.0166 17.1159 43.078V18.7968C17.1159 18.1932 17.286 17.6811 17.6215 17.2747L22.8361 10.9565C23.3215 10.3685 23.9873 10.0312 24.6628 10.0312H33.7565C33.889 10.0312 34.021 10.0446 34.1514 10.0699C33.7112 11.5709 32.6209 12.8234 31.1486 13.4511C30.7635 12.8071 30.0597 12.3749 29.2564 12.3749C28.0416 12.3749 27.0533 13.3632 27.0533 14.578C27.0533 15.7928 28.0416 16.7812 29.2564 16.7812C30.3798 16.7812 31.3089 15.9357 31.4425 14.8477C33.3361 14.1315 34.7681 12.6139 35.406 10.7615C35.4673 10.8231 35.5265 10.8878 35.5831 10.9565L40.7978 17.2747C41.1842 17.7429 41.3971 18.2835 41.3971 18.7969V35.6719C41.397 36.0601 41.7119 36.3749 42.1002 36.3749ZM29.2564 15.3749C28.817 15.3749 28.4595 15.0174 28.4595 14.578C28.4595 14.1386 28.817 13.7812 29.2564 13.7812C29.6958 13.7812 30.0533 14.1386 30.0533 14.578C30.0533 15.0174 29.6958 15.3749 29.2564 15.3749Z" fill="white"/>
<path d="M23.1626 37.4062C23.3425 37.4062 23.5225 37.3376 23.6598 37.2003L35.6598 25.2003C35.9344 24.9257 35.9344 24.4804 35.6598 24.2059C35.3852 23.9314 34.94 23.9314 34.6655 24.2059L22.6655 36.2059C22.2172 36.6238 22.5611 37.4275 23.1626 37.4062Z" fill="white"/>
<path d="M24.6626 30C26.3426 30 27.7095 28.6331 27.7095 26.9531C27.7095 25.2731 26.3426 23.9062 24.6626 23.9062H24.5688C22.8888 23.9062 21.522 25.2731 21.522 26.9531C21.522 28.6331 22.8888 30 24.5688 30H24.6626ZM22.9282 26.9531C22.9282 26.0485 23.6643 25.3125 24.5688 25.3125H24.6626C25.5672 25.3125 26.3032 26.0485 26.3032 26.9531C26.3032 27.8577 25.5672 28.5938 24.6626 28.5938H24.5688C23.6643 28.5938 22.9282 27.8577 22.9282 26.9531Z" fill="white"/>
<path d="M33.7563 37.4062H33.8501C35.5301 37.4062 36.897 36.0394 36.897 34.3594C36.897 32.6794 35.5301 31.3125 33.8501 31.3125H33.7563C32.0763 31.3125 30.7095 32.6794 30.7095 34.3594C30.7095 36.0394 32.0763 37.4062 33.7563 37.4062ZM33.7563 32.7188H33.8501C34.7547 32.7188 35.4907 33.4548 35.4907 34.3594C35.4907 35.264 34.7547 36 33.8501 36H33.7563C32.8518 36 32.1157 35.264 32.1157 34.3594C32.1157 33.4548 32.8518 32.7188 33.7563 32.7188Z" fill="white"/>
</svg>
