<svg width="20" height="20" viewBox="0 0 20 20" fill="none" xmlns="http://www.w3.org/2000/svg">
<g clip-path="url(#clip0_1_2894)">
<path fill-rule="evenodd" clip-rule="evenodd" d="M0 6.22144C0 4.89535 0.526784 3.62358 1.46447 2.6859C2.40215 1.74822 3.67392 1.22144 5 1.22144H14.2857C14.4752 1.22144 14.6568 1.29669 14.7908 1.43064C14.9247 1.5646 15 1.74628 15 1.93572V3.93286H4.79286C4.55606 3.93286 4.32896 4.02693 4.16151 4.19438C3.99407 4.36182 3.9 4.58892 3.9 4.82572C3.9 5.06252 3.99407 5.28962 4.16151 5.45707C4.32896 5.62451 4.55606 5.71858 4.79286 5.71858H15.6286C15.6571 5.71858 15.6843 5.71715 15.7114 5.71429H16.0171C16.5855 5.71429 17.1305 5.94006 17.5324 6.34192C17.9342 6.74378 18.16 7.28883 18.16 7.85715V9.16572H13.9457C12.7686 9.16572 11.4457 10.0586 11.4457 11.5872V14.1272C11.4457 15.6557 12.7686 16.5486 13.9457 16.5486H18.16V17.8572C18.16 18.4255 17.9342 18.9705 17.5324 19.3724C17.1305 19.7742 16.5855 20 16.0171 20H2.14286C1.57454 20 1.02949 19.7742 0.627628 19.3724C0.225765 18.9705 0 18.4255 0 17.8572L0 6.22144ZM13.9471 10.9514H18.9471C19.3414 10.9514 19.6614 11.2372 19.6614 11.5872V14.1272C19.6614 14.4786 19.3414 14.7629 18.9471 14.7629H13.9471C13.5529 14.7629 13.2329 14.4772 13.2329 14.1272V11.5872C13.2329 11.2357 13.5529 10.9514 13.9471 10.9514Z" fill="#087ED8"/>
</g>
<defs>
<clipPath id="clip0_1_2894">
<rect width="20" height="20" fill="white"/>
</clipPath>
</defs>
</svg>
