<svg width="45" height="30" viewBox="0 0 45 30" fill="none" xmlns="http://www.w3.org/2000/svg">
<rect x="0.5" y="0.5" width="44" height="29" rx="4.5" stroke="black" stroke-opacity="0.05"/>
<path fill-rule="evenodd" clip-rule="evenodd" d="M14.418 18.8202C14.3497 18.9208 14.2361 18.9809 14.1141 18.9809H13.0181C12.8662 18.9809 12.732 18.8895 12.6761 18.7482L12.28 17.7443H9.19465L8.8038 18.7469C8.74844 18.8891 8.61399 18.981 8.46126 18.981H7.36769C7.24626 18.981 7.13282 18.9211 7.06412 18.8208C6.99553 18.7204 6.98103 18.5929 7.02515 18.4797L9.83613 11.267C9.89139 11.1248 10.0259 11.0329 10.1787 11.0329H11.2681C11.42 11.0329 11.5543 11.1243 11.6102 11.2656L14.4561 18.4784C14.5009 18.5916 14.4866 18.7194 14.418 18.8202ZM11.5383 15.864H9.92741L10.7278 13.8101L11.5383 15.864Z" fill="#0085F3"/>
<path d="M22.134 18.5544C22.134 18.7571 21.9691 18.9221 21.7664 18.9221H20.821C20.6183 18.9221 20.4534 18.7571 20.4534 18.5544V15.3944L18.8427 18.5776C18.7798 18.7019 18.6544 18.7791 18.5152 18.7793C18.3758 18.7793 18.2503 18.7024 18.1872 18.5787L16.5604 15.3862V18.5545C16.5604 18.7573 16.3955 18.9222 16.1928 18.9222H15.2474C15.0447 18.9222 14.8797 18.7573 14.8797 18.5545V11.4217C14.8797 11.2189 15.0447 11.054 15.2474 11.054H16.0092C16.148 11.054 16.2735 11.1308 16.3367 11.2545L18.5103 15.5123L20.6642 11.2557C20.7271 11.1313 20.8528 11.054 20.9923 11.054H21.7664C21.9691 11.054 22.134 11.2189 22.134 11.4217V18.5544Z" fill="#0085F3"/>
<path d="M30.2924 18.6324C30.2924 18.8351 30.1275 19 29.9248 19H25.408C25.2053 19 25.0404 18.8351 25.0404 18.6324V11.4926C25.0404 11.2898 25.2053 11.1249 25.408 11.1249H29.7994C30.0021 11.1249 30.167 11.2898 30.167 11.4926V12.3627C30.167 12.5654 30.0021 12.7304 29.7994 12.7304H26.6459V14.2597H29.2145C29.4172 14.2597 29.5821 14.4247 29.5821 14.6274V15.4975C29.5821 15.7003 29.4172 15.8652 29.2145 15.8652H26.6459V17.3946H29.9249C30.1276 17.3946 30.2925 17.5595 30.2925 17.7622L30.2924 18.6324Z" fill="#0085F3"/>
<path d="M37.204 18.3578L36.4382 18.9121C36.3749 18.9578 36.3005 18.9819 36.2225 18.9819C36.203 18.9819 36.1836 18.9804 36.1641 18.9772C36.0688 18.962 35.9814 18.9083 35.9246 18.8297L34.0981 16.3065L32.2797 18.8286C32.2234 18.9069 32.1361 18.9609 32.0404 18.9765C31.9481 18.9923 31.8459 18.9691 31.7664 18.9117L30.9999 18.3589C30.9201 18.3015 30.8676 18.2165 30.852 18.1196C30.8363 18.0226 30.8592 17.9253 30.9167 17.8457L33.0609 14.8715L31.0951 12.1343C30.977 11.9695 31.0148 11.7394 31.1794 11.6212L31.9471 11.0699C32.0101 11.0247 32.0842 11.0008 32.1614 11.0008C32.2796 11.0008 32.3912 11.058 32.4602 11.154L34.0983 13.435L35.744 11.1526C35.8016 11.073 35.8863 11.0205 35.9833 11.0049C36.0818 10.9889 36.1786 11.0127 36.2572 11.0697L37.0238 11.6224C37.1035 11.6798 37.1561 11.7648 37.1717 11.8618C37.1874 11.9587 37.1645 12.056 37.107 12.1356L35.1344 14.8715L37.286 17.8442C37.405 18.0086 37.3681 18.2389 37.204 18.3578Z" fill="#0085F3"/>
</svg>
