<svg xmlns="http://www.w3.org/2000/svg" xml:space="preserve" viewBox="0 0 660 220"><g fill-rule="evenodd" clip-rule="evenodd"><path fill="#046CB2" d="M61.7 83.6c10.9-7.5 22.4-10.4 32-9V57.3H12v83h27.9l-.9-1.8c-7.7-16.4 2.4-41 22.7-54.9"/><path fill="#2E2E2F" d="M217.9 79.8c-1.9-9.5-10.2-12.1-18.6-12.1-19.5 0-26.4 17.2-26 32.1.9 20.4 7 31.6 29.7 32 5.4 0 10.8-.9 15.8-2.5v-22.6h-18v-9.5h29v39.5c-9.1 2.8-18.2 4.6-27.2 4.6-11.2 0-20.3-1.5-29-9.2-8.8-7.7-11.8-21.1-11.8-32.3 0-8.3 2.7-17.3 6.8-24.5 6.9-12.2 18.5-17 32-17 13.4 0 28.2 6.2 28.8 21.5zM279.7 106.7c.3-9.3-3.9-16.4-14-16.4-8.7 0-13.8 7.3-13.8 16.4zm-27.9 7.3c-.8 9.7 3.2 19.7 13.8 19.7 8.1 0 12.2-3.2 13.4-11.2h11c-1.6 12.6-11.3 18.9-24.4 18.9-17.7 0-24.7-12.6-24.7-29 0-16.2 8.1-29.8 25.6-29.8 16.4.3 24.2 10.8 24.2 26.2v5.2zM325.4 133.7c12.4 0 16.5-9.9 16.5-21.8 0-11.8-4.1-21.7-16.5-21.7s-16.4 9.9-16.4 21.7c0 11.9 4 21.8 16.4 21.8m27.4-21.8c0 17.3-9.3 29.5-27.4 29.5S298 129.2 298 111.9c0-17.2 9.3-29.4 27.4-29.4 18.1.1 27.4 12.2 27.4 29.4"/><path fill="#2E2E2F" d="M364.5 75.4h-24.3V59.9h71v15.5h-24.8v64.3h-21.9z"/><path fill="#2E2E2F" d="M422.8 94.6h.2c2.4-9.2 9.2-12.2 18.4-12v17.8c-1.5-.1-2.9-.1-4.4-.1-10.9.1-14.6 6.6-14.3 17.3v22.2H402V98.5c0-5-.1-8.2-.7-14.2h21.2zM488.5 133.6c-4.7 5.5-10.2 7.7-17.2 7.7-11.9 0-20.6-7.7-20.6-20v-37h20.8v32.6c.2 5.4 1.5 11.2 8 11.2 10.3 0 9-11.4 9-12V84.3h20.8v41.2c0 5 .1 8.3.6 14.3h-21.1zM552.9 101.4c0-1.9-.3-3.5-1.3-4.6-1-1.2-2.8-2-5.7-2-3.1 0-4.9 1.8-4.9 5 0 4.1 8.5 3.9 21.5 7.9 6.6 2.2 11.1 6.2 11.1 15.3 0 14.7-13.7 18.4-26.3 18.4-13.5 0-26.6-2.8-26.6-19.7h19.7c-.3 1.7.2 3.5 1.4 5 1.2 1.4 2.9 2.5 4.9 2.5 4.1 0 7-1.5 7-5.1 0-9.8-32.6-4-32.6-24 0-13.7 14.5-17.5 25.5-17.5 13.1 0 25.1 3.4 26 18.8zM589.7 84.3v-8.5l20.9-7.9v16.4h12.1v13.3h-12.1v22c0 1.4-.8 8.6 4 8.6 2.8 0 5.6 0 8-.3v12.5c-4.7.9-8.2 1.1-11.2 1.1-14.2 0-22.7-2-21.6-19V97.6H579V84.3zM641.6 88.2V88c0-.2-.1-.5-.2-.6q-.15-.3-.6-.3h-1.1v2.2h1.2c.2 0 .5-.1.6-.3 0-.2.1-.4.1-.8m-.2 5.7v-1.4q0-.9-.3-1.5c-.3-.6-.5-.5-.9-.5h-.5V94h-2v-8.2h3.2c.9 0 1.5.1 1.9.5.4.3.7.8.7 1.3v.7c0 .4-.1.8-.4 1.1s-.5.5-.9.6c.5.3 1 .7 1.2 1.2s.3 1 .3 1.5V94h-2.3zm4.8-4c0-1.6-.6-3-1.7-4.2-1.1-1.3-2.5-1.9-4.1-1.9s-3 .6-4.1 1.9c-1.2 1.2-1.7 2.6-1.7 4.2s.5 3 1.7 4.2c1.1 1.2 2.5 1.8 4.1 1.8s3-.6 4.1-1.8 1.7-2.6 1.7-4.2m1.8 0c0 2.1-.7 3.9-2.3 5.4-1.4 1.5-3.2 2.3-5.3 2.3s-3.9-.8-5.4-2.3-2.2-3.2-2.2-5.4.7-3.9 2.2-5.4 3.3-2.2 5.4-2.2 3.9.7 5.3 2.2c1.6 1.5 2.3 3.2 2.3 5.4"/><path fill="#F37123" d="M93.4 84.1c-21.5 0-39 17.6-39 39.3 0 2.5.2 4.9.7 7.3 1 4.2 3.2 5.6 5.3 6.4 1 .4 1.9.6 2.4.7 4.2.3 8.4-.7 12.5-3.3 5.5-3.4 9.6-9.1 11.8-15.5q-10.35 1.2-19.8 3l.1-12.3 43.8-3-.3 41.6-13.2 1v-.1c.1-.4.1-.9.2-1.3.5-3.5.9-7.1 1.3-10.7.2-2.1.4-4.1.5-6.3-1.6 2.2-3.6 4.3-5.7 6.2-1.9 1.8-4.1 3.5-6.5 4.9-1.3.9-2.7 1.7-4.2 2.5-3 1.5-6 2.6-9.1 3.4-2.5.6-6.9 1-10.3 1.1 7.1 8.4 17.7 13.7 29.6 13.7 21.6 0 39-17.6 39-39.3S115 84.1 93.4 84.1"/></g></svg>