<?xml version="1.0" encoding="UTF-8"?> <!-- Generator: Adobe Illustrator 25.2.1, SVG Export Plug-In . SVG Version: 6.00 Build 0) --> <svg xmlns="http://www.w3.org/2000/svg" xmlns:xlink="http://www.w3.org/1999/xlink" version="1.1" id="Layer_1" x="0px" y="0px" viewBox="0 0 435.48 249.68" style="enable-background:new 0 0 435.48 249.68;" xml:space="preserve"> <style type="text/css"> .st0{fill:#565454;} .st1{fill:#FEFEFE;} .st2{fill:#010101;} .st3{fill:#040404;} .st4{fill:#FEB511;} </style> <path class="st0" d="M156.64,35.03c1.76,0.14,3.51,0.03,5.27,0.06c1.01,0.02,1.02,0.01,1.02,1.06c0,1.28,0.02,2.56-0.01,3.84 c-0.02,0.57,0.17,0.81,0.75,0.75c0.32-0.03,0.64-0.01,0.96-0.01c63.96,0,127.91,0,191.87,0c12.15,0,23.61,2.82,34.17,8.81 c18.59,10.55,30.27,26.34,35.03,47.2c0.94,4.14,1.42,8.34,1.34,12.6c-0.03,1.84,0,3.68-0.02,5.52c-0.06,6.04-1.22,11.91-3.02,17.64 c-7.51,23.94-27.24,42.19-51.68,47.81c-5.08,1.17-10.23,1.75-15.44,1.75c-80.54-0.01-161.09,0-241.63-0.02 c-1.14,0-2.19,0.18-3.26,0.59c-6.75,2.6-13.73,4.16-20.94,4.75c-35.99,2.94-67.93-19.56-78.68-52.22 c-1.88-5.71-3.07-11.56-3.53-17.57c-0.08-1.07-0.28-2.12-0.42-3.19c0-1.76,0-3.52,0-5.28c0.75-1,0.43-2.15,0.45-3.26 c-0.01-0.2-0.03-0.4-0.02-0.59c0.23-3.59,0.77-7.15,1.59-10.65C14.33,77.91,22.78,63.9,36,52.92 c16.52-13.71,35.62-19.36,56.96-17.35c6.83,0.65,13.44,2.33,19.81,4.88c0.53,0.21,1.06,0.29,1.63,0.29 c2.52-0.02,5.04-0.01,7.55-0.01c3.92,0,7.83,0,11.75,0c0.84,0,0.85-0.02,0.86-0.86c0.01-1.24,0.02-2.48-0.01-3.72 c-0.01-0.54,0.1-0.81,0.71-0.79c1.4,0.04,2.8,0.03,4.2,0c0.52-0.01,0.7,0.17,0.69,0.69c-0.03,1.24-0.02,2.48-0.01,3.72 c0.01,0.95,0.01,0.95,1,0.96c0.96,0.01,1.92,0,2.88,0c1.71,0,1.71,0,1.71-1.7c0-2.96-0.01-5.91,0-8.87c0-0.86,0.02-0.88,0.84-0.88 c1.44,0,2.87,0.03,4.31,0.04c0,1.61-0.01,3.22,0.01,4.83c0,0.38-0.13,0.8,0.24,1.1c0.01,1.6,0.03,3.19,0.01,4.79 c-0.01,0.51,0.16,0.71,0.68,0.7c1.36-0.03,2.72-0.05,4.07,0.01c0.68,0.03,0.79-0.26,0.78-0.84c-0.03-1.64-0.02-3.27-0.02-4.91 L156.64,35.03z"></path> <path class="st1" d="M419.81,96.05c-7.05-29.1-33.27-49.75-63.24-49.75c-66.24-0.01-132.47,0-198.71,0c-1.96,0-3.92,0.03-5.88,0.01 c-0.6-0.01-0.86,0.13-0.83,0.79c0.05,1.2,0.01,2.4,0.01,3.6c0,2.2-0.02,4.4,0.01,6.6c0.01,0.65-0.22,0.81-0.82,0.79 c-1.08-0.04-2.16,0.01-3.24-0.02c-0.56-0.02-0.79,0.15-0.76,0.74c0.04,1.12,0,2.24,0.02,3.36c0.01,0.41-0.15,0.58-0.56,0.57 c-0.06,0-0.13,0-0.2,0c-13.81-16.28-34.41-26.62-57.43-26.62c-41.59,0-75.3,33.71-75.3,75.3c0,41.59,33.71,75.3,75.3,75.3 c13.79,0,26.7-3.72,37.81-10.19c0.1,0,0.19,0,0.28,0c76.79,0,153.58,0,230.37,0c4.97,0,9.89-0.56,14.73-1.7 c27.06-6.39,47.49-29.38,50.04-57.7C422.05,110.01,421.49,102.99,419.81,96.05z"></path> <path class="st2" d="M143.04,46.32c-0.76,0-1.52,0.02-2.28-0.01c-0.47-0.01-0.63,0.18-0.62,0.63c0.02,1.44,0.02,2.88,0,4.31 c0,0.4,0.14,0.58,0.55,0.58c1.48-0.01,2.96-0.01,4.43,0c0.46,0.01,0.63-0.17,0.62-0.63c-0.02-1.4-0.02-2.8,0-4.19 c0.01-0.49-0.13-0.73-0.67-0.7C144.4,46.35,143.71,46.32,143.04,46.32z"></path> <path class="st2" d="M130.75,46.39c-1.97,0-3.9,0-6.07,0c2.17,1.35,4.03,2.68,6.07,4.12C130.75,48.98,130.75,47.72,130.75,46.39z"></path> <path class="st0" d="M213.74,237.72c-0.58-0.49-1.36-0.45-2.01-0.79c-0.75-0.39-0.77-0.37-0.43-1.14c0.34-0.76,0.69-1.52,1.05-2.31 c0.65,0.2,1.24,0.43,1.85,0.56c1.01,0.21,1.9-0.03,2.56-0.88c0.49-0.63,0.66-1.23,0.3-2.07c-2.29-5.35-4.5-10.73-6.74-16.11 c-0.15-0.36-0.4-0.69-0.35-1.22c1.31,0,2.61,0.01,3.91-0.01c0.58-0.01,0.59,0.46,0.73,0.8c0.92,2.38,1.82,4.76,2.73,7.15 c0.67,1.74,1.34,3.49,2.01,5.25c0.47-0.23,0.45-0.69,0.57-1.04c1.3-3.68,2.58-7.37,3.87-11.06c0.38-1.09,0.38-1.09,1.57-1.09 c1,0,1.99,0,2.96,0c0.16,0.4-0.03,0.68-0.14,0.97c-2.28,5.91-4.56,11.83-6.85,17.73c-0.27,0.7-0.59,1.4-0.95,2.06 c-0.74,1.38-1.75,2.47-3.32,2.92c-0.14,0.04-0.32,0.05-0.22,0.28C215.82,237.72,214.78,237.72,213.74,237.72z"></path> <path class="st0" d="M265.79,237.72c-0.54-0.48-1.29-0.44-1.9-0.74c-0.88-0.43-0.9-0.41-0.5-1.3c0.32-0.72,0.66-1.44,1.01-2.2 c0.65,0.2,1.23,0.43,1.84,0.55c1.01,0.21,1.91-0.02,2.56-0.88c0.48-0.63,0.66-1.22,0.3-2.07c-2.29-5.35-4.5-10.74-6.74-16.11 c-0.15-0.36-0.41-0.69-0.34-1.21c1.26,0,2.53,0.02,3.8-0.01c0.54-0.01,0.65,0.34,0.79,0.72c0.85,2.24,1.71,4.47,2.57,6.7 c0.74,1.93,1.48,3.85,2.24,5.81c0.44-0.33,0.46-0.8,0.6-1.2c1.3-3.68,2.58-7.38,3.87-11.06c0.33-0.95,0.34-0.95,1.32-0.96 c1.07,0,2.14,0,3.19,0c0.17,0.52-0.11,0.86-0.24,1.22c-2.23,5.81-4.48,11.61-6.72,17.41c-0.36,0.93-0.77,1.84-1.3,2.69 c-0.76,1.19-1.75,2.06-3.15,2.41c-0.14,0.04-0.32,0.02-0.3,0.25C267.71,237.72,266.75,237.72,265.79,237.72z"></path> <path class="st3" d="M167.91,17.53c0.01-2,0.01-4.01,0.02-6.01c2,0,4,0,6,0c-0.15,1.66-0.03,3.33-0.07,5 c-0.02,1.01-0.01,1.02-1.06,1.02C171.17,17.54,169.54,17.53,167.91,17.53z"></path> <path class="st3" d="M8.42,106.03c0.25,0.27,0.31-0.05,0.45-0.14c-0.01,1.1,0.3,2.25-0.45,3.26C8.42,108.1,8.42,107.07,8.42,106.03z "></path> <path class="st0" d="M288.27,216.18c4.39-3.89,7.43-3.8,11.01,0.23c1.09-1.25,2.32-2.3,3.98-2.74c1.34-0.36,2.7-0.39,4.03-0.06 c2.54,0.63,3.86,2.39,4.32,4.88c0.15,0.79,0.2,1.58,0.2,2.38c0,3.4,0,6.79,0,10.19c0,0.92-0.01,0.92-0.9,0.93 c-0.88,0.01-1.76-0.03-2.64,0.01c-0.59,0.03-0.74-0.19-0.74-0.76c0.02-3.16,0.01-6.31,0.01-9.47c0-0.68-0.03-1.35-0.23-2.01 c-0.44-1.44-1.33-2.34-2.86-2.51c-1.6-0.18-2.92,0.29-3.79,1.72c-0.47,0.77-0.63,1.63-0.63,2.53c-0.01,3-0.01,5.99-0.01,8.99 c0,0.28-0.02,0.56,0,0.84c0.05,0.54-0.21,0.68-0.7,0.67c-0.92-0.02-1.84-0.04-2.76,0.01c-0.65,0.03-0.79-0.22-0.79-0.83 c0.03-3.12,0.01-6.23,0.01-9.35c0-0.72-0.03-1.44-0.26-2.13c-0.44-1.31-1.26-2.21-2.69-2.41c-1.54-0.23-2.85,0.16-3.78,1.49 c-0.59,0.85-0.79,1.82-0.8,2.84c0,2.92,0,5.83,0,8.75c0,0.24,0,0.48,0,0.72c-0.02,0.89-0.02,0.9-0.93,0.91 c-0.92,0.01-1.84-0.01-2.76,0.01c-0.41,0.01-0.58-0.16-0.55-0.57c0.02-0.36,0-0.72,0-1.08c0-5.19,0-10.39,0-15.58 c0-1.11-0.03-1.03,1.05-1.03c0.8,0,1.6,0.04,2.4-0.01c0.66-0.04,0.84,0.24,0.79,0.84C288.24,215.07,288.27,215.57,288.27,216.18z"></path> <path class="st0" d="M69.4,213.75c1.2,0,2.43,0.02,3.66-0.01c0.59-0.02,0.6,0.41,0.71,0.78c0.92,3.14,1.84,6.28,2.76,9.41 c0.19,0.64,0.38,1.28,0.58,1.95c0.45-0.36,0.46-0.88,0.6-1.32c1.08-3.3,2.12-6.61,3.18-9.91c0.3-0.94,0.31-0.96,1.31-0.93 c0.87,0.02,1.94-0.36,2.55,0.18c0.54,0.48,0.6,1.52,0.86,2.31c0.95,2.92,1.9,5.84,2.84,8.76c0.1,0.3,0.14,0.62,0.46,0.95 c0.68-2.25,1.34-4.44,1.99-6.62c0.48-1.6,0.98-3.2,1.42-4.82c0.15-0.57,0.4-0.78,0.99-0.75c1.08,0.05,2.15,0.01,3.19,0.01 c0.26,0.26,0.1,0.48,0.04,0.69c-1.82,5.62-3.64,11.23-5.46,16.85c-0.28,0.87-0.29,0.87-1.25,0.88c-0.68,0-1.36-0.04-2.04,0.01 c-0.59,0.04-0.82-0.19-1-0.75c-1.09-3.42-2.21-6.83-3.34-10.24c-0.12-0.36-0.14-0.78-0.56-1.15c-0.78,2.34-1.52,4.59-2.27,6.84 c-0.5,1.51-1,3.03-1.48,4.55c-0.16,0.52-0.4,0.79-1.01,0.74c-0.95-0.07-2.08,0.26-2.83-0.14c-0.77-0.42-0.73-1.68-1.03-2.57 c-1.57-4.81-3.12-9.64-4.67-14.46C69.51,214.63,69.27,214.27,69.4,213.75z"></path> <path class="st0" d="M193.52,216.53c0.28-0.24,0.37-0.3,0.44-0.39c3.42-4.46,10.69-3.35,13.17,2.01c1.49,3.22,1.47,6.52-0.12,9.71 c-1.84,3.7-6.17,5.44-9.93,4.1c-0.68-0.24-1.32-0.57-1.88-1.02c-0.52-0.42-0.99-0.89-1.67-1.51c0,0.77-0.02,1.38-0.01,1.99 c0.01,0.4-0.14,0.58-0.55,0.58c-1.04-0.01-2.08-0.01-3.11,0c-0.38,0-0.61-0.11-0.57-0.54c0.02-0.24,0-0.48,0-0.72 c0-7.55,0-15.09,0-22.64c0-0.24,0.02-0.48,0-0.72c-0.04-0.49,0.21-0.61,0.65-0.6c0.96,0.02,1.92,0.04,2.87-0.01 c0.62-0.03,0.73,0.26,0.72,0.79c-0.02,1.48-0.01,2.95-0.01,4.43C193.52,213.43,193.52,214.86,193.52,216.53z M203.88,222.98 c0.03-0.91-0.12-1.78-0.46-2.6c-0.82-1.97-2.25-3.18-4.43-3.31c-2.22-0.13-3.87,0.9-4.88,2.82c-1.01,1.92-1,3.92-0.06,5.87 c0.93,1.94,2.93,3.11,4.94,2.95c2.21-0.18,3.89-1.51,4.56-3.64C203.77,224.39,203.92,223.69,203.88,222.98z"></path> <path class="st0" d="M169.58,229.43c-0.4-0.04-0.49,0.23-0.63,0.39c-3.12,3.66-8.22,3.1-11.12,0.39c-1.42-1.32-2.29-2.95-2.66-4.85 c-0.48-2.49-0.35-4.93,0.76-7.25c1.77-3.71,5.89-5.56,9.71-4.41c1.17,0.35,2.17,0.99,3.04,1.84c0.24,0.24,0.49,0.47,0.9,0.87 c0-1.41,0-2.6,0-3.78c0-1.68,0.02-3.35-0.01-5.03c-0.01-0.58,0.1-0.88,0.78-0.84c0.87,0.06,1.76,0.06,2.63,0 c0.7-0.05,0.79,0.27,0.78,0.85c-0.03,1.4-0.01,2.8-0.01,4.19c0,6.39,0,12.78,0,19.17c0,1.13,0.1,1.02-1.03,1.02 c-0.8,0-1.6-0.03-2.4,0.01c-0.55,0.03-0.81-0.12-0.76-0.72C169.62,230.67,169.58,230.04,169.58,229.43z M169.62,222.91 c0.05-1.28-0.25-2.43-0.93-3.45c-1.19-1.79-2.87-2.63-5.01-2.36c-2.05,0.26-3.4,1.47-4.12,3.38c-0.49,1.3-0.52,2.66-0.23,4.01 c0.5,2.36,2.39,4.03,4.74,4.23c2.15,0.18,4.22-1.2,5.12-3.4C169.51,224.53,169.67,223.72,169.62,222.91z"></path> <path class="st0" d="M29.77,216.41c0.32,0,0.4-0.15,0.49-0.27c3.34-4.33,10.27-3.37,12.89,1.52c1.86,3.48,1.79,7.06-0.03,10.56 c-0.72,1.38-1.83,2.41-3.19,3.16c-3.2,1.77-6.9,1.24-9.46-1.34c-0.16-0.16-0.26-0.4-0.54-0.46c-0.28,0.25-0.14,0.59-0.15,0.88 c-0.01,2.04-0.01,4.08-0.01,6.11c0,1,0.06,0.96-0.99,0.96c-0.76,0-1.52,0-2.28,0c-0.9,0-0.94,0.09-0.94-0.89 c0.01-1.24,0-2.48,0-3.72c0-5.91,0-11.83,0-17.74c0-0.28,0.01-0.56,0-0.84c-0.01-0.38,0.11-0.6,0.54-0.59 c1.04,0.02,2.08,0.02,3.12,0c0.42-0.01,0.56,0.19,0.55,0.58C29.76,215,29.77,215.68,29.77,216.41z M40.16,223.07 c-0.03-0.44-0.03-0.88-0.09-1.31c-0.29-2.3-1.97-4.19-4.09-4.62c-2.18-0.45-4.45,0.59-5.53,2.67c-1.13,2.17-1.1,4.4,0.19,6.5 c1.07,1.74,2.71,2.56,4.76,2.4c2.11-0.17,3.52-1.35,4.32-3.28C40.03,224.67,40.14,223.88,40.16,223.07z"></path> <path class="st0" d="M241.31,228.46c0.87-1.04,1.69-2.01,2.54-3.02c0.43,0.32,0.8,0.61,1.18,0.9c1.91,1.43,4.05,2.22,6.45,2.24 c0.97,0.01,1.91-0.16,2.77-0.64c0.94-0.52,1.47-1.3,1.5-2.41c0.03-1.14-0.52-1.89-1.47-2.41c-1.13-0.62-2.37-0.93-3.61-1.23 c-1.51-0.37-3.01-0.77-4.45-1.39c-2.31-1.01-3.76-2.63-3.94-5.24c-0.19-2.85,0.87-5.07,3.34-6.55c1.62-0.97,3.42-1.27,5.29-1.23 c2.88,0.06,5.48,0.91,7.83,2.6c0.46,0.33,0.54,0.56,0.18,1.03c-0.66,0.84-1.25,1.73-1.9,2.64c-1.55-1.07-3.1-1.97-4.91-2.3 c-1.23-0.23-2.47-0.29-3.66,0.18c-0.98,0.39-1.71,1.03-1.87,2.14c-0.18,1.25,0.25,2.14,1.41,2.78c1.13,0.62,2.37,0.94,3.61,1.25 c1.51,0.38,3.01,0.77,4.44,1.41c2.62,1.19,4.09,3.1,3.99,6.07c-0.1,2.98-1.52,5.07-4.25,6.23c-2.69,1.15-5.47,1.04-8.23,0.35 C245.25,231.3,243.19,230.18,241.31,228.46z"></path> <path class="st0" d="M328.13,229.86c-1.82,1.86-3.79,2.57-6.05,2.54c-0.72-0.01-1.43-0.13-2.12-0.33c-2.64-0.75-4.18-2.69-4.23-5.29 c-0.05-2.7,1.4-4.75,4.01-5.59c2.3-0.74,4.64-0.62,6.98-0.14c0.43,0.09,0.85,0.21,1.27,0.31c0.37-1.71-0.49-3.21-2.21-3.8 c-1.4-0.48-2.84-0.35-4.26-0.13c-0.87,0.14-1.71,0.41-2.52,0.75c-0.37,0.16-0.58,0.12-0.71-0.31c-0.24-0.8-0.51-1.6-0.81-2.37 c-0.16-0.41,0-0.58,0.34-0.72c3.06-1.28,6.22-1.75,9.48-0.92c2.99,0.76,4.76,2.99,4.93,6.16c0.09,1.67,0.04,3.35,0.04,5.03 c0,2.08-0.02,4.15,0.01,6.23c0.01,0.58-0.17,0.76-0.74,0.73c-0.96-0.04-1.92-0.03-2.87-0.01c-0.42,0.01-0.57-0.15-0.54-0.56 C328.15,231.02,328.13,230.59,328.13,229.86z M324.26,223.64c-0.71,0.03-1.58,0.06-2.42,0.38c-1.31,0.49-1.93,1.34-1.89,2.59 c0.04,1.18,0.81,2.1,2.12,2.42c1.4,0.35,2.78,0.22,4.07-0.44c1.46-0.74,2.16-1.94,2.1-3.59c-0.02-0.48-0.17-0.7-0.63-0.84 C326.57,223.85,325.5,223.75,324.26,223.64z"></path> <path class="st0" d="M115.71,228.98c-1.76,2.16-3.97,3.21-6.59,3.42c-1.9,0.15-3.74-0.17-5.45-1.06c-3.71-1.95-5.19-5.9-4.74-9.69 c0.3-2.46,1.33-4.57,3.22-6.24c3.68-3.26,11.54-3.04,13.76,3.82c0.45,1.38,0.67,2.79,0.63,4.24c-0.02,0.91-0.05,0.93-0.96,0.94 c-2.99,0.01-5.99,0-8.98,0c-0.92,0-1.84-0.01-2.76,0c-0.71,0.01-0.77,0.1-0.6,0.76c0.63,2.42,2.84,3.97,5.41,3.8 c1.53-0.1,2.88-0.64,4-1.67c0.45-0.42,0.74-0.44,1.18,0C114.4,227.87,115.03,228.37,115.71,228.98z M112.25,221.56 c0.03-2.4-1.84-4.83-4.59-4.72c-2.44,0.09-4.45,2.15-4.46,4.72C106.19,221.56,109.18,221.56,112.25,221.56z"></path> <path class="st0" d="M150.74,228.98c-1.7,2.08-3.81,3.16-6.34,3.4c-2.91,0.27-5.56-0.42-7.72-2.5c-4.56-4.38-3.37-12.8,2.19-15.59 c5.42-2.72,11.5,0.47,12.49,6.55c0.14,0.87,0.27,1.74,0.22,2.62c-0.05,0.91-0.05,0.94-0.96,0.94c-2.8,0.01-5.59,0-8.39,0 c-1.12,0-2.24-0.01-3.35,0c-0.72,0.01-0.77,0.1-0.6,0.75c0.63,2.43,2.84,3.97,5.4,3.81c1.53-0.1,2.88-0.63,4-1.67 c0.44-0.41,0.74-0.46,1.18-0.01C149.41,227.87,150.04,228.36,150.74,228.98z M138.19,221.56c0.29,0.01,0.53,0.04,0.76,0.04 c2.55,0,5.11,0,7.66,0c0.34,0,0.73,0.11,0.7-0.5c-0.09-1.63-1.44-3.49-3-4.01C140.72,215.91,138.27,218.89,138.19,221.56z"></path> <path class="st0" d="M388.26,228.98c-1.59,1.97-3.57,3.07-5.97,3.35c-3.86,0.45-7.13-0.66-9.35-4.01 c-2.28-3.44-1.97-8.62,0.68-11.77c2.37-2.82,5.45-3.67,8.95-2.88c3.62,0.81,5.44,3.39,6.24,6.82c0.21,0.89,0.29,1.81,0.27,2.73 c-0.03,1.18-0.01,1.19-1.16,1.19c-3.59,0-7.19,0-10.78,0c-0.44,0-0.87,0-1.3,0c-0.06,2.08,1.62,4.02,3.8,4.43 c2.05,0.39,3.89-0.08,5.47-1.44c0.82-0.71,0.73-0.57,1.43,0.05C387.11,227.94,387.66,228.44,388.26,228.98z M384.81,221.57 c-0.15-2.9-2.01-4.77-4.61-4.72c-2.43,0.05-4.44,2.16-4.44,4.72C378.75,221.57,381.74,221.57,384.81,221.57z"></path> <path class="st0" d="M57.53,213.41c4.79-0.01,8.61,2.92,9.52,7.48c1.17,5.87-2.62,10.3-7.32,11.28c-3.33,0.7-6.36,0.02-8.92-2.29 c-2.89-2.62-3.79-6.74-2.36-10.44C49.89,215.75,53.38,213.42,57.53,213.41z M52.02,222.71c0.02,0.41,0.01,0.69,0.05,0.97 c0.32,2.22,1.41,3.9,3.55,4.72c2.09,0.8,4.03,0.43,5.67-1.09c2.54-2.35,2.33-6.91-0.4-9.04c-1.76-1.38-3.74-1.6-5.75-0.67 C52.96,218.61,52.1,220.51,52.02,222.71z"></path> <path class="st0" d="M341.66,216.25c0.51-0.25,0.7-0.6,0.95-0.88c2.31-2.54,6.2-2.31,8.17-1.15c2.1,1.23,2.93,3.21,3.02,5.52 c0.09,2.19,0.03,4.39,0.04,6.59c0,1.64-0.02,3.27,0.01,4.91c0.01,0.54-0.08,0.81-0.71,0.77c-0.92-0.05-1.84-0.05-2.75,0 c-0.59,0.03-0.74-0.19-0.73-0.75c0.03-2.84,0.02-5.67,0.01-8.51c0-0.72-0.04-1.44-0.13-2.15c-0.26-2.08-1.51-3.26-3.53-3.38 c-2.01-0.12-3.64,1.01-4.13,2.91c-0.16,0.62-0.22,1.25-0.22,1.9c0.01,3.03,0.01,6.07,0,9.1c0,0.84-0.01,0.85-0.83,0.86 c-0.88,0.01-1.76-0.03-2.63,0.01c-0.59,0.03-0.74-0.18-0.73-0.75c0.03-2.48,0.01-4.95,0.01-7.43c0-3.07,0-6.15,0-9.22 c0-0.85,0.02-0.85,0.84-0.86c0.84-0.01,1.68-0.01,2.52,0c0.81,0.01,0.81,0.02,0.83,0.88C341.67,215.13,341.66,215.64,341.66,216.25z "></path> <path class="st0" d="M406.52,219.33c-0.35-0.31-0.64-0.57-0.94-0.82c-1.7-1.41-3.62-1.89-5.69-1.04c-2.13,0.88-3.08,2.67-3.33,4.88 c-0.1,0.88,0.03,1.76,0.3,2.6c1.11,3.46,4.92,4.87,8.05,3c0.65-0.39,1.19-0.93,1.79-1.4c0.83,0.82,1.64,1.63,2.46,2.44 c-2.35,3-6.27,4.18-10.13,3.05c-3.68-1.08-6.25-4.23-6.63-7.96c-0.53-5.16,2.71-9.53,7.31-10.45c3.15-0.63,6.13-0.16,8.61,2.12 c1.01,0.93,0.82,0.76,0.1,1.55C407.79,217.97,407.17,218.63,406.52,219.33z"></path> <path class="st0" d="M368.66,228.13c0,0.82,0,1.58,0,2.33c-0.01,0.99-0.01,1-0.96,1.36c-1.58,0.6-3.21,0.66-4.82,0.26 c-2.01-0.5-3.13-2.01-3.26-4.35c-0.07-1.35-0.03-2.71-0.04-4.07c0-1.84-0.03-3.67,0.01-5.51c0.01-0.65-0.22-0.8-0.83-0.8 c-1.51,0-1.51-0.03-1.51-1.51c0-0.48,0.02-0.96-0.01-1.44c-0.03-0.54,0.22-0.68,0.71-0.67c0.51,0,1.15,0.23,1.48-0.14 c0.36-0.4,0.12-1.07,0.13-1.62c0.02-0.88,0.02-1.76,0-2.63c-0.01-0.46,0.16-0.64,0.63-0.63c0.88,0.02,1.76,0,2.63,0.01 c0.93,0.01,0.94,0.01,0.95,0.9c0.01,1,0,2,0,2.99c0,1.29-0.08,1.12,1.18,1.12c1.04,0.01,2.08,0.02,3.11,0 c0.46-0.01,0.64,0.16,0.62,0.63c-0.02,0.8-0.03,1.6,0,2.39c0.02,0.48-0.17,0.62-0.62,0.62c-1.16-0.02-2.32,0.02-3.47-0.02 c-0.62-0.02-0.84,0.16-0.84,0.8c0.03,2.63,0.01,5.27,0.02,7.9c0,0.24,0.03,0.48,0.06,0.72c0.15,1.08,0.69,1.63,1.77,1.77 c0.69,0.09,1.35-0.07,2.01-0.22C367.93,228.26,368.2,228.03,368.66,228.13z"></path> <path class="st0" d="M125.03,217.27c0.59-0.55,0.92-1.19,1.4-1.73c1.18-1.32,2.62-2.05,4.4-2.11c0.43-0.01,0.67,0.05,0.66,0.56 c-0.03,1.23-0.01,2.47-0.01,3.68c-0.32,0.26-0.66,0.16-0.96,0.2c-3.04,0.44-4.85,2.25-5.32,5.3c-0.18,1.19-0.18,2.39-0.18,3.59 c0,1.52-0.02,3.04,0.01,4.56c0.01,0.51-0.14,0.7-0.67,0.68c-1-0.04-2-0.02-3-0.01c-0.34,0-0.52-0.11-0.5-0.48 c0.01-0.24,0-0.48,0-0.72c0-5.28,0-10.55,0-15.83c0-0.2,0.01-0.4,0-0.6c-0.03-0.43,0.11-0.66,0.6-0.64c1,0.03,2,0.02,3,0 c0.42-0.01,0.57,0.15,0.56,0.56C125.02,215.29,125.03,216.28,125.03,217.27z"></path> <path class="st2" d="M151.12,29.26c0.02-1.84,0.05-3.68,0.07-5.51c0.06-0.08,0.13-0.15,0.19-0.23c1.1-0.17,2.21-0.07,3.32-0.07 c2.42,0,4.83,0.03,7.25,0.05c0.02,1.74,0.02,3.49,0.06,5.23c0.01,0.49-0.21,0.59-0.64,0.58c-1.27-0.02-2.54-0.01-3.81,0 c-0.84,0.01-0.85,0.02-0.87,0.84c-0.03,1.63-0.04,3.25-0.06,4.88c0,0,0.02-0.02,0.02-0.02c-1.76,0.27-3.52,0.14-5.28,0.07 c0-1.57,0.01-3.15-0.01-4.72C151.37,29.98,151.5,29.55,151.12,29.26z"></path> <path class="st3" d="M161.91,23.53c0.02-1.67,0.04-3.35,0.06-5.02c0.01-0.99,0.01-0.99,0.96-1c1.67-0.01,3.35-0.01,5.02-0.02 c-0.01,1.75-0.01,3.51-0.05,5.26c-0.01,0.51,0.15,0.7,0.67,0.69c1.51-0.03,3.03,0.01,4.54-0.02c0.58-0.01,0.76,0.17,0.75,0.75 c-0.04,1.47-0.03,2.95,0,4.42c0.01,0.52-0.08,0.82-0.71,0.8c-1.55-0.03-3.11-0.02-4.66,0c-0.47,0.01-0.62-0.19-0.61-0.64 c0.02-1.51-0.02-3.03,0.02-4.54c0.01-0.56-0.13-0.77-0.73-0.76C165.42,23.51,163.66,23.51,161.91,23.53z"></path> <path class="st0" d="M419.53,44.03c-0.47,1.8-0.94,3.6-1.41,5.41c-0.09,0.35-0.17,0.7-0.26,1.04c-0.22,0.81-0.67,1.06-1.47,0.85 c-0.35-0.09-0.37-0.36-0.44-0.63c-0.47-1.81-0.95-3.63-1.42-5.44c-0.1-0.37-0.21-0.73-0.32-1.1c-0.08,0.01-0.16,0.02-0.24,0.03 c0,0.77,0,1.53,0,2.3c0,1.28,0.01,2.56,0,3.83c-0.01,0.99-0.01,0.99-0.84,1c-0.88,0.01-0.89,0.01-0.89-1.07c0-2.56,0-5.11,0-7.67 c0-0.4,0.03-0.8-0.01-1.2c-0.05-0.54,0.2-0.66,0.7-0.67c2.06-0.08,2.06-0.09,2.59,1.9c0.39,1.46,0.79,2.92,1.19,4.42 c0.38-0.11,0.38-0.4,0.44-0.64c0.46-1.69,0.93-3.38,1.37-5.08c0.11-0.41,0.26-0.57,0.71-0.6c2.26-0.14,2.26-0.16,2.26,2.08 c0,2.56,0.01,5.11-0.01,7.67c0,0.29,0.17,0.72-0.25,0.82c-0.41,0.1-0.88,0.14-1.29-0.04c-0.24-0.11-0.15-0.43-0.16-0.66 c0-1.76,0-3.51,0-5.27c0-0.43,0-0.87,0-1.3C419.7,44.03,419.62,44.03,419.53,44.03z"></path> <path class="st0" d="M403.59,42.43c-0.01-0.04-0.04-0.07-0.04-0.11c-0.11-1.58-0.11-1.58,1.41-1.58c1.72,0,3.43,0,5.15,0 c0.26,0,0.63-0.1,0.66,0.31c0.03,0.46,0.18,0.97-0.11,1.39c-0.15,0.21-0.45,0.08-0.68,0.1c-0.55,0.05-1.25-0.23-1.61,0.14 c-0.41,0.42-0.14,1.14-0.15,1.73c-0.02,2,0,3.99-0.01,5.99c0,0.92-0.02,0.92-0.9,0.94c-0.16,0-0.32-0.02-0.48,0 c-0.62,0.09-0.72-0.23-0.72-0.77c0.02-2.12,0.01-4.23,0.01-6.35c0-1.66,0-1.66-1.7-1.69C404.13,42.53,403.84,42.58,403.59,42.43z"></path> <path class="st1" d="M143.04,46.32c0.68,0,1.36,0.03,2.04-0.01c0.54-0.03,0.68,0.21,0.67,0.7c-0.02,1.4-0.02,2.8,0,4.19 c0.01,0.47-0.16,0.64-0.62,0.63c-1.48-0.02-2.96-0.01-4.43,0c-0.41,0-0.55-0.17-0.55-0.58c0.01-1.44,0.02-2.88,0-4.31 c-0.01-0.46,0.15-0.65,0.62-0.63C141.52,46.34,142.28,46.32,143.04,46.32z"></path> <path class="st1" d="M151.38,35.08c1.76,0.07,3.53,0.2,5.28-0.07c0,1.64-0.01,3.27,0.02,4.91c0.01,0.58-0.1,0.87-0.78,0.84 c-1.35-0.05-2.71-0.03-4.07-0.01c-0.53,0.01-0.69-0.19-0.68-0.7c0.02-1.6,0-3.19-0.01-4.79C151.22,35.2,151.3,35.14,151.38,35.08z"></path> <path class="st1" d="M130.75,46.39c0,1.34,0,2.6,0,4.12c-2.04-1.44-3.91-2.77-6.07-4.12C126.85,46.39,128.77,46.39,130.75,46.39z"></path> <path class="st3" d="M151.38,35.08c-0.08,0.06-0.16,0.12-0.24,0.19c-0.37-0.3-0.23-0.72-0.24-1.1c-0.01-1.61-0.01-3.22-0.01-4.83 c0.06-0.06,0.14-0.08,0.22-0.07c0.38,0.29,0.25,0.72,0.26,1.1C151.39,31.93,151.38,33.5,151.38,35.08z"></path> <path class="st3" d="M151.38,23.52c-0.06,0.08-0.13,0.15-0.19,0.23C151.15,23.58,151.18,23.48,151.38,23.52z"></path> <path class="st0" d="M203.89,90.21c0-0.39,0-0.78,0-1.16c0-9.27,0-18.55,0-27.82c0-0.24,0-0.48,0-0.72c0-1.12-0.09-1.03,1.03-1.03 c2.64,0,5.28,0,7.91,0c1.02,0,1.03,0.01,1.03,1.05c0,6.96,0,13.91,0,20.87c0,8.75,0,17.51,0,26.26c0,0.24,0,0.48,0,0.72 c-0.01,0.99-0.01,1-0.96,1c-3,0.01-6-0.02-8.99,0.02c-0.68,0.01-1.06-0.17-1.38-0.81c-2.49-4.96-5.01-9.9-7.53-14.84 c-2.94-5.76-5.88-11.52-8.82-17.28c-0.17-0.34-0.36-0.68-0.75-0.98c0,0.41,0,0.83,0,1.24c0,10.43,0,20.87,0,31.3 c0,1.52,0.18,1.35-1.33,1.35c-2.6,0.01-5.2,0.01-7.79,0c-0.84,0-0.85-0.02-0.86-0.86c-0.01-0.84,0-1.68,0-2.52 c0-15.03,0-30.06,0-45.09c0-1.59-0.21-1.42,1.38-1.42c3.16-0.01,6.32,0.03,9.47-0.02c0.87-0.02,1.33,0.24,1.74,1.03 c5,9.59,10.04,19.16,15.07,28.74c0.18,0.35,0.38,0.7,0.56,1.05C203.73,90.24,203.81,90.22,203.89,90.21z"></path> <path class="st0" d="M303.64,101.29c0.35,1.12,0.43,2.23,0.63,3.32c0.21,1.14,0.4,2.28,0.6,3.42c0.08,0.44,0.05,0.74-0.49,0.89 c-3.78,1.08-7.59,1.58-11.48,0.75c-4.21-0.9-6.73-3.61-7.44-7.89c-0.2-1.19-0.27-2.38-0.27-3.58c0.01-5.68,0-11.35,0-17.03 c0-1.09,0.11-1.06-1.02-1.06c-1.44,0-2.88,0.01-4.32,0c-3.52-0.02-6.23,1.51-8.26,4.3c-1.93,2.65-2.62,5.71-2.64,8.93 c-0.04,4.84-0.01,9.67-0.01,14.51c0,0.24-0.02,0.48,0,0.72c0.07,0.6-0.13,0.83-0.79,0.82c-2.2-0.04-4.4-0.02-6.6-0.02 c-0.8,0-1.6-0.01-2.4,0c-1.11,0.01-1.02,0-1.01-1.07c0-0.08,0-0.16,0-0.24c0-11.35,0-22.71,0-34.06c0-1.44-0.16-1.29,1.27-1.29 c1.4-0.01,2.8,0.04,4.2-0.02c0.67-0.03,0.98,0.18,1.22,0.82c0.75,2.06,1.57,4.1,2.37,6.14c0.09,0.22,0.15,0.46,0.36,0.65 c0.32-0.24,0.43-0.63,0.62-0.95c0.88-1.44,1.89-2.77,3.18-3.87c2.15-1.84,4.64-2.77,7.47-2.78c1.84,0,3.68,0,5.52,0 c0.97,0,0.97-0.01,1.13-0.92c0.49-2.79,0.95-5.59,1.49-8.37c0.24-1.24-0.06-1.11,1.34-1.11c2.28-0.01,4.56-0.01,6.84,0 c0.83,0,0.84,0.02,0.84,0.87c0.01,2.88,0.01,5.76,0,8.64c0,0.97,0,0.9,0.93,0.9c2,0,4,0.01,6-0.01c0.57-0.01,0.87,0.08,0.86,0.76 c-0.04,1.96-0.04,3.92,0,5.88c0.01,0.66-0.25,0.79-0.84,0.78c-2-0.03-4-0.02-6-0.01c-0.92,0-0.94,0.01-0.94,0.88 c0,5.72-0.02,11.43,0.01,17.15c0.01,2.89,1.08,3.89,3.96,3.81C301.2,101.91,302.39,101.56,303.64,101.29z"></path> <path class="st0" d="M354.11,78.12c0.42-0.19,0.63-0.55,0.91-0.83c2.55-2.58,5.48-4.51,9.11-5.19c2.35-0.44,4.7-0.35,6.97,0.45 c4.05,1.43,6.29,4.47,7.38,8.48c0.36,1.31,0.52,2.66,0.52,4.03c-0.01,7.71,0,15.42-0.01,23.14c0,1.29,0.11,1.18-1.13,1.18 c-2.28,0-4.56,0-6.83,0c-0.68,0-1.36-0.04-2.04,0.01c-0.65,0.05-0.85-0.21-0.8-0.82c0.04-0.48,0.01-0.96,0.01-1.44 c0-7.03,0-14.07,0-21.1c0-3.18-1.91-5.11-5.1-5.26c-2.87-0.13-4.91,1.35-6.74,3.31c-0.35,0.37-0.21,0.83-0.21,1.26 c-0.01,7.51-0.01,15.02-0.01,22.54c0,0.24-0.03,0.48,0,0.72c0.09,0.66-0.24,0.79-0.84,0.79c-2.96-0.02-5.91-0.03-8.87,0 c-0.63,0.01-0.82-0.18-0.81-0.81c0.03-2.04,0.01-4.08,0.01-6.11c0-9.43,0-18.86,0-28.29c0-0.28,0.02-0.56,0-0.84 c-0.03-0.45,0.14-0.64,0.61-0.63c1.72,0.02,3.44,0.02,5.15,0c0.49-0.01,0.7,0.2,0.85,0.63c0.43,1.2,0.89,2.39,1.35,3.58 C353.77,77.31,353.94,77.71,354.11,78.12z"></path> <path class="st0" d="M324,71.84c10.54-0.01,18.99,8.5,19.09,19.03c0.1,9.62-7.54,19.14-19.08,19.15 c-11.16,0.01-19.1-9.05-19.1-19.02C304.91,80.39,313.41,71.85,324,71.84z M333.74,91c0.17-4.7-3.64-9.79-9.78-9.83 c-5.37-0.03-9.74,4.42-9.74,9.78c0,5.37,4.38,9.76,9.75,9.78C329.35,100.75,333.73,96.38,333.74,91z"></path> <path class="st0" d="M236.52,71.84c10.54,0.02,19.04,8.51,19.08,19.06c0.05,10.53-8.58,19.22-19.12,19.15 c-10.78-0.07-19.09-8.65-19.09-19.19C217.39,80.35,226,71.83,236.52,71.84z M236.49,100.73c5.35,0,9.76-4.39,9.8-9.75 c0.03-5.33-4.36-9.76-9.73-9.83c-5.36-0.06-9.86,4.42-9.85,9.82C226.73,96.32,231.14,100.72,236.49,100.73z"></path> <path class="st0" d="M312.19,142.64c2.14,4.62,4.28,9.24,6.5,14.04c-1.95,0-3.73-0.01-5.51,0c-0.49,0-0.56-0.37-0.7-0.69 c-0.94-2.07-1.88-4.14-2.82-6.22c-0.87-1.93-1.77-3.84-2.61-5.78c-0.24-0.55-0.54-0.78-1.15-0.76c-1.12,0.05-2.24,0.05-3.36,0 c-0.65-0.03-0.81,0.21-0.8,0.82c0.02,3.76,0.02,7.52,0.01,11.27c0,1.5,0.24,1.34-1.32,1.35c-1.16,0.01-2.32-0.01-3.48,0.01 c-0.45,0.01-0.68-0.13-0.64-0.62c0.02-0.24,0-0.48,0-0.72c0-9.67,0-19.35,0-29.02c0-1.53-0.15-1.35,1.33-1.35 c3.04-0.01,6.08-0.01,9.11,0c2.01,0,3.98,0.23,5.89,0.92c3.27,1.19,5.01,3.56,5.39,6.97c0.14,1.27,0.11,2.56-0.21,3.81 c-0.64,2.49-2.23,4.18-4.48,5.31C312.96,142.18,312.5,142.24,312.19,142.64z M301.75,134.22c0,1.36,0.02,2.71-0.01,4.07 c-0.01,0.6,0.13,0.86,0.79,0.83c0.99-0.05,1.99-0.02,2.99-0.01c1.12,0.01,2.23,0.01,3.34-0.22c1.12-0.23,2.14-0.64,2.85-1.6 c2.26-3.07,0.46-7.32-3.28-7.78c-1.99-0.24-3.99-0.07-5.98-0.14c-0.63-0.02-0.71,0.28-0.7,0.8 C301.77,131.51,301.75,132.87,301.75,134.22z"></path> <path class="st0" d="M356.53,140.81c0-4.8,0-9.59,0-14.39c0-0.24,0.02-0.48,0-0.72c-0.07-0.61,0.22-0.74,0.77-0.74 c1.88,0.02,3.76,0.01,5.64,0.01c1.64,0,3.28-0.02,4.91,0.22c1.59,0.24,3.13,0.62,4.59,1.3c3.41,1.58,5.54,4.28,6.53,7.84 c1.19,4.29,1.2,8.63-0.02,12.9c-1.49,5.25-5.09,8.23-10.43,9.16c-1.19,0.21-2.38,0.28-3.58,0.27c-2.48-0.01-4.96,0-7.44,0 c-0.95,0-0.96-0.01-0.96-1C356.53,150.72,356.53,145.77,356.53,140.81z M374.08,140.68c-0.08-1.47-0.09-2.95-0.35-4.41 c-0.76-4.19-3.1-6.37-7.31-6.8c-1.2-0.12-2.39-0.11-3.59-0.11c-0.83,0-0.85,0.02-0.85,0.87c-0.01,1.92,0,3.83,0,5.75 c0,5.11,0,10.22,0,15.32c0,0.98,0.01,0.98,0.96,0.99c1.36,0.01,2.71-0.01,4.06-0.21c3.46-0.52,5.59-2.44,6.49-5.83 C373.98,144.43,374.01,142.55,374.08,140.68z"></path> <path class="st0" d="M268.84,136.58c0,3.24-0.01,6.47,0,9.71c0,0.92,0.1,1.83,0.34,2.73c0.51,1.86,1.66,3.07,3.58,3.45 c1.11,0.22,2.23,0.23,3.34,0c2.15-0.44,3.41-1.84,3.8-4.23c0.15-0.9,0.24-1.82,0.24-2.74c-0.01-6.35-0.01-12.71-0.01-19.06 c0-0.28,0.02-0.56,0-0.84c-0.04-0.46,0.14-0.63,0.61-0.63c1.44,0.02,2.88,0.02,4.32,0.01c0.4,0,0.59,0.16,0.57,0.56 c-0.01,0.24,0,0.48,0,0.72c0,6.19,0.01,12.39,0,18.58c0,1.8-0.18,3.59-0.69,5.33c-1.14,3.88-3.73,6.11-7.72,6.74 c-2.15,0.34-4.29,0.31-6.42-0.18c-3.42-0.79-5.59-2.92-6.65-6.23c-0.46-1.45-0.73-2.95-0.74-4.48c-0.03-6.75-0.02-13.51-0.05-20.26 c0-0.63,0.19-0.82,0.81-0.8c1.24,0.04,2.48,0.01,3.72,0.01c0.89,0.01,0.9,0.02,0.9,0.94c0.01,3.56,0,7.11,0,10.67 C268.81,136.58,268.83,136.58,268.84,136.58z"></path> <path class="st0" d="M204.17,140.83c0-4.83,0-9.67,0-14.5c0-0.28,0.01-0.56,0-0.84c-0.01-0.34,0.13-0.52,0.48-0.51 c0.24,0.01,0.48,0,0.72,0c5.51,0,11.03,0,16.54,0c0.24,0,0.48,0,0.72,0c0.29,0,0.43,0.15,0.43,0.45c0,1.16-0.01,2.32,0,3.48 c0,0.38-0.21,0.47-0.53,0.47c-0.28,0-0.56,0-0.84,0c-3.72,0-7.43,0-11.15,0c-0.92,0-0.94,0.01-0.94,0.9 c-0.01,2.32,0.02,4.63-0.02,6.95c-0.01,0.66,0.23,0.79,0.83,0.78c2.96-0.02,5.91-0.01,8.87-0.01c0.93,0,0.93,0.01,0.94,0.9 c0.01,0.88-0.04,1.76,0.02,2.64c0.04,0.66-0.22,0.8-0.82,0.8c-2.52-0.02-5.03-0.01-7.55-0.01c-0.52,0-1.04,0.02-1.56-0.01 c-0.5-0.03-0.72,0.13-0.72,0.67c0.02,2.88,0.03,5.75-0.01,8.63c-0.01,0.78,0.45,0.69,0.93,0.69c3.95,0,7.91,0,11.86,0 c1.49,0,1.49,0,1.49,1.53c0,0.72-0.02,1.44,0.01,2.16c0.02,0.48-0.09,0.77-0.65,0.7c-0.2-0.03-0.4,0-0.6,0c-5.71,0-11.43,0-17.14,0 c-0.28,0-0.56-0.01-0.84,0c-0.36,0.01-0.5-0.16-0.48-0.51c0.01-0.28,0-0.56,0-0.84C204.17,150.5,204.17,145.66,204.17,140.83z"></path> <path class="st0" d="M327.84,140.81c0-4.84,0-9.67,0-14.51c0-0.28,0.01-0.56,0-0.84c-0.01-0.36,0.16-0.5,0.51-0.48 c0.2,0.01,0.4,0,0.6,0c5.56,0,11.11,0,16.67,0c1.15,0,1.08-0.14,1.08,1.11c0,0.76,0,1.52,0,2.28c0,1.1,0.07,1-1.06,1 c-2.6,0-5.2,0-7.79,0c-1.28,0-2.56,0.03-3.84-0.01c-0.65-0.02-0.81,0.23-0.8,0.84c0.03,2.36,0.03,4.72,0,7.07 c-0.01,0.59,0.19,0.75,0.76,0.75c2.96-0.02,5.92-0.01,8.87-0.01c1.03,0,1.03,0.01,1.04,1.05c0.01,0.8,0.01,1.6,0,2.4 c-0.01,0.84-0.02,0.86-0.86,0.86c-2.76,0.01-5.52,0-8.27,0.01c-1.76,0.01-1.5-0.21-1.51,1.53c-0.01,2.4-0.01,4.8,0,7.2 c0,1.41-0.14,1.25,1.31,1.25c4,0.01,7.99,0,11.99,0c1.14,0,1.04-0.01,1.03,1.05c0,0.92-0.01,1.84,0,2.76 c0.01,0.4-0.13,0.6-0.55,0.58c-0.24-0.01-0.48,0-0.72,0c-5.76,0-11.51,0-17.27,0c-0.12,0-0.24-0.01-0.36,0 c-0.58,0.07-0.91-0.09-0.82-0.77c0.05-0.35,0.01-0.72,0.01-1.08C327.84,150.16,327.84,145.48,327.84,140.81z"></path> <path class="st0" d="M191.1,130.74c-2.44-1.19-4.9-1.77-7.5-1.67c-0.85,0.03-1.67,0.18-2.45,0.5c-2.34,0.97-2.94,4.06-1.18,5.89 c0.57,0.59,1.27,0.95,2.01,1.28c1.5,0.66,3.08,1.11,4.62,1.65c1.55,0.54,3.05,1.18,4.41,2.12c3.04,2.12,4.08,5.12,3.7,8.67 c-0.39,3.57-2.37,6.05-5.76,7.1c-5.62,1.76-10.96,0.86-15.92-2.3c-0.47-0.3-0.57-0.55-0.22-1.04c0.66-0.95,1.26-1.94,1.89-2.91 c0.06-0.1,0.16-0.17,0.3-0.32c0.39,0.24,0.78,0.48,1.18,0.71c2.97,1.7,6.12,2.53,9.53,1.88c1.8-0.34,3.19-1.24,3.68-3.16 c0.44-1.71-0.12-3.28-1.56-4.33c-0.85-0.62-1.8-1.02-2.78-1.39c-1.49-0.56-3-1.09-4.49-1.65c-1.27-0.48-2.44-1.16-3.55-1.96 c-4.29-3.12-4.68-11.9,2.03-14.46c2.38-0.91,4.83-1.01,7.31-0.8c2.12,0.18,4.16,0.69,6.09,1.64c0.56,0.28,0.64,0.54,0.35,1.09 C192.2,128.4,191.69,129.52,191.1,130.74z"></path> <path class="st0" d="M251.58,149.08c0.91,1.02,1.83,2.07,2.77,3.09c0.37,0.4,0.11,0.63-0.13,0.9c-2.18,2.43-4.91,3.78-8.16,4.02 c-1.52,0.11-3.04,0.03-4.53-0.32c-4.24-0.97-7.02-3.62-8.59-7.6c-1.36-3.45-1.63-7.06-1.32-10.72c0.22-2.57,0.8-5.04,2.01-7.34 c2.28-4.31,5.89-6.47,10.73-6.63c2.14-0.07,4.22,0.24,6.18,1.14c1.21,0.55,2.27,1.33,3.2,2.28c0.28,0.28,0.31,0.49,0.04,0.8 c-0.93,1.04-1.83,2.1-2.77,3.18c-0.52-0.24-0.85-0.66-1.24-0.98c-1.93-1.6-4.16-1.98-6.54-1.55c-1.92,0.35-3.3,1.53-4.25,3.22 c-0.81,1.45-1.21,3.04-1.43,4.67c-0.37,2.82-0.43,5.66,0.16,8.47c0.14,0.66,0.3,1.32,0.54,1.96c1.49,4.07,5.7,5.81,9.68,4.03 c1-0.45,1.85-1.09,2.66-1.81C250.89,149.63,251.11,149.28,251.58,149.08z"></path> <g> <path class="st4" d="M84.82,34.85c-42.19,0-76.4,34.22-76.4,76.4s34.22,76.4,76.4,76.4s76.4-34.21,76.4-76.4 S127.01,34.85,84.82,34.85L84.82,34.85z M84.54,58.82c28.97,0,52.43,23.46,52.43,52.43s-23.46,52.43-52.43,52.43 s-52.5-23.46-52.5-52.43S55.56,58.82,84.54,58.82L84.54,58.82z"></path> <rect x="161.94" y="17.44" class="st0" width="5.85" height="5.85"></rect> <rect x="151.09" y="23.29" class="st0" width="10.84" height="5.85"></rect> <rect x="145.67" y="29.14" class="st0" width="5.42" height="11.41"></rect> <rect x="151.09" y="40.56" class="st0" width="5.57" height="5.57"></rect> <rect x="156.66" y="35.06" class="st0" width="6.14" height="5.49"></rect> <path class="st0" d="M151.09,46.12h-5.42v5.71h-5.64v-5.71h-9.2v4.06h-4.99v4.99h5.49v5.57h-5.57l0.07-5.57h-5.99v8.78h-5.56v5.49 h-3.78v5.57h-3.99c-8.59,14.09-15.49,27.11-19.48,36.74C76.08,97.17,70.95,91.92,61.71,86.78c-3.3-1.84-6.24-2.69-8.35-1.5 c-2.19,1.24-2.83,5.15-0.07,8.2c17.14,18.99,20.23,29.12,26.46,43.59c1.86,4.31,5.36,6.17,9.35,6.28c2.13,0.06,4.74-0.58,6.49-2.64 c0.81-0.95,1.05-2.26,1.71-3.85c5.21-12.56,10.99-25.16,19.34-37.16l0.07-6.28h4.42l-0.07-5.57h4.78l-0.07-6.64h5.56v-6.06h-5.64 l0.07-5.71h5.57v5.71h5.56v-5.78h4.35V62.6h5.06v-4.64h4.78V46.12z"></path> <rect x="140.04" y="40.56" class="st0" width="5.64" height="5.57"></rect> <rect x="134.4" y="35.21" class="st0" width="5.63" height="5.35"></rect> <path class="st4" d="M151.09,29.17h5.55v5.86h-5.55V29.17z M167.76,23.31h6.01v5.86h-6.01V23.31z M167.76,11.45h6.01v6h-6.01V11.45 z"></path> </g> </svg> 