<svg xmlns="http://www.w3.org/2000/svg" xml:space="preserve" id="Layer_1" x="0" y="0" version="1.1" viewBox="0 0 435.48 249.68"><style>.st0{fill:#565454}.st1{fill:#fefefe}.st2{fill:#010101}.st3{fill:#040404}.st4{fill:#feb511}</style><path d="M156.64 35.03c1.76.14 3.51.03 5.27.06 1.01.02 1.02.01 1.02 1.06 0 1.28.02 2.56-.01 3.84-.02.57.17.81.75.75.32-.03.64-.01.96-.01H356.5c12.15 0 23.61 2.82 34.17 8.81 18.59 10.55 30.27 26.34 35.03 47.2.94 4.14 1.42 8.34 1.34 12.6-.03 1.84 0 3.68-.02 5.52-.06 6.04-1.22 11.91-3.02 17.64-7.51 23.94-27.24 42.19-51.68 47.81a68.6 68.6 0 0 1-15.44 1.75c-80.54-.01-161.09 0-241.63-.02-1.14 0-2.19.18-3.26.59-6.75 2.6-13.73 4.16-20.94 4.75-35.99 2.94-67.93-19.56-78.68-52.22a74 74 0 0 1-3.53-17.57c-.08-1.07-.28-2.12-.42-3.19v-5.28c.75-1 .43-2.15.45-3.26-.01-.2-.03-.4-.02-.59.23-3.59.77-7.15 1.59-10.65C14.33 77.91 22.78 63.9 36 52.92c16.52-13.71 35.62-19.36 56.96-17.35 6.83.65 13.44 2.33 19.81 4.88.53.21 1.06.29 1.63.29 2.52-.02 5.04-.01 7.55-.01h11.75c.84 0 .85-.02.86-.86.01-1.24.02-2.48-.01-3.72-.01-.54.1-.81.71-.79 1.4.04 2.8.03 4.2 0 .52-.01.7.17.69.69-.03 1.24-.02 2.48-.01 3.72.01.95.01.95 1 .96.96.01 1.92 0 2.88 0 1.71 0 1.71 0 1.71-1.7 0-2.96-.01-5.91 0-8.87 0-.86.02-.88.84-.88 1.44 0 2.87.03 4.31.04 0 1.61-.01 3.22.01 4.83 0 .38-.13.8.24 1.1.01 1.6.03 3.19.01 4.79-.01.51.16.71.68.7 1.36-.03 2.72-.05 4.07.01.68.03.79-.26.78-.84-.03-1.64-.02-3.27-.02-4.91z" class="st0"/><path d="M419.81 96.05c-7.05-29.1-33.27-49.75-63.24-49.75-66.24-.01-132.47 0-198.71 0-1.96 0-3.92.03-5.88.01-.6-.01-.86.13-.83.79.05 1.2.01 2.4.01 3.6 0 2.2-.02 4.4.01 6.6.01.65-.22.81-.82.79-1.08-.04-2.16.01-3.24-.02-.56-.02-.79.15-.76.74.04 1.12 0 2.24.02 3.36.01.41-.15.58-.56.57h-.2C131.8 46.46 111.2 36.12 88.18 36.12c-41.59 0-75.3 33.71-75.3 75.3s33.71 75.3 75.3 75.3c13.79 0 26.7-3.72 37.81-10.19h230.65c4.97 0 9.89-.56 14.73-1.7 27.06-6.39 47.49-29.38 50.04-57.7.64-7.12.08-14.14-1.6-21.08" class="st1"/><path d="M143.04 46.32c-.76 0-1.52.02-2.28-.01-.47-.01-.63.18-.62.63.02 1.44.02 2.88 0 4.31 0 .4.14.58.55.58 1.48-.01 2.96-.01 4.43 0 .46.01.63-.17.62-.63-.02-1.4-.02-2.8 0-4.19.01-.49-.13-.73-.67-.7-.67.04-1.36.01-2.03.01M130.75 46.39h-6.07c2.17 1.35 4.03 2.68 6.07 4.12z" class="st2"/><path d="M213.74 237.72c-.58-.49-1.36-.45-2.01-.79-.75-.39-.77-.37-.43-1.14.34-.76.69-1.52 1.05-2.31.65.2 1.24.43 1.85.56 1.01.21 1.9-.03 2.56-.88.49-.63.66-1.23.3-2.07-2.29-5.35-4.5-10.73-6.74-16.11-.15-.36-.4-.69-.35-1.22 1.31 0 2.61.01 3.91-.01.58-.01.59.46.73.8.92 2.38 1.82 4.76 2.73 7.15q1.005 2.61 2.01 5.25c.47-.23.45-.69.57-1.04 1.3-3.68 2.58-7.37 3.87-11.06.38-1.09.38-1.09 1.57-1.09h2.96c.16.4-.03.68-.14.97-2.28 5.91-4.56 11.83-6.85 17.73-.27.7-.59 1.4-.95 2.06-.74 1.38-1.75 2.47-3.32 2.92-.14.04-.32.05-.22.28zM265.79 237.72c-.54-.48-1.29-.44-1.9-.74-.88-.43-.9-.41-.5-1.3.32-.72.66-1.44 1.01-2.2.65.2 1.23.43 1.84.55 1.01.21 1.91-.02 2.56-.88.48-.63.66-1.22.3-2.07-2.29-5.35-4.5-10.74-6.74-16.11-.15-.36-.41-.69-.34-1.21 1.26 0 2.53.02 3.8-.01.54-.01.65.34.79.72.85 2.24 1.71 4.47 2.57 6.7.74 1.93 1.48 3.85 2.24 5.81.44-.33.46-.8.6-1.2 1.3-3.68 2.58-7.38 3.87-11.06.33-.95.34-.95 1.32-.96h3.19c.17.52-.11.86-.24 1.22-2.23 5.81-4.48 11.61-6.72 17.41-.36.93-.77 1.84-1.3 2.69-.76 1.19-1.75 2.06-3.15 2.41-.14.04-.32.02-.3.25-.98-.02-1.94-.02-2.9-.02" class="st0"/><path d="M167.91 17.53c.01-2 .01-4.01.02-6.01h6c-.15 1.66-.03 3.33-.07 5-.02 1.01-.01 1.02-1.06 1.02-1.63 0-3.26-.01-4.89-.01M8.42 106.03c.25.27.31-.05.45-.14-.01 1.1.3 2.25-.45 3.26z" class="st3"/><path d="M288.27 216.18c4.39-3.89 7.43-3.8 11.01.23 1.09-1.25 2.32-2.3 3.98-2.74 1.34-.36 2.7-.39 4.03-.06 2.54.63 3.86 2.39 4.32 4.88.15.79.2 1.58.2 2.38v10.19c0 .92-.01.92-.9.93-.88.01-1.76-.03-2.64.01-.59.03-.74-.19-.74-.76.02-3.16.01-6.31.01-9.47 0-.68-.03-1.35-.23-2.01-.44-1.44-1.33-2.34-2.86-2.51-1.6-.18-2.92.29-3.79 1.72-.47.77-.63 1.63-.63 2.53-.01 3-.01 5.99-.01 8.99 0 .28-.02.56 0 .84.05.54-.21.68-.7.67-.92-.02-1.84-.04-2.76.01-.65.03-.79-.22-.79-.83.03-3.12.01-6.23.01-9.35 0-.72-.03-1.44-.26-2.13-.44-1.31-1.26-2.21-2.69-2.41-1.54-.23-2.85.16-3.78 1.49-.59.85-.79 1.82-.8 2.84v9.47c-.02.89-.02.9-.93.91-.92.01-1.84-.01-2.76.01-.41.01-.58-.16-.55-.57.02-.36 0-.72 0-1.08v-15.58c0-1.11-.03-1.03 1.05-1.03.8 0 1.6.04 2.4-.01.66-.04.84.24.79.84-.01.49.02.99.02 1.6M69.4 213.75c1.2 0 2.43.02 3.66-.01.59-.02.6.41.71.78.92 3.14 1.84 6.28 2.76 9.41l.58 1.95c.45-.36.46-.88.6-1.32 1.08-3.3 2.12-6.61 3.18-9.91.3-.94.31-.96 1.31-.93.87.02 1.94-.36 2.55.18.54.48.6 1.52.86 2.31.95 2.92 1.9 5.84 2.84 8.76.1.3.14.62.46.95.68-2.25 1.34-4.44 1.99-6.62.48-1.6.98-3.2 1.42-4.82.15-.57.4-.78.99-.75 1.08.05 2.15.01 3.19.01.26.26.1.48.04.69-1.82 5.62-3.64 11.23-5.46 16.85-.28.87-.29.87-1.25.88-.68 0-1.36-.04-2.04.01-.59.04-.82-.19-1-.75-1.09-3.42-2.21-6.83-3.34-10.24-.12-.36-.14-.78-.56-1.15-.78 2.34-1.52 4.59-2.27 6.84-.5 1.51-1 3.03-1.48 4.55-.16.52-.4.79-1.01.74-.95-.07-2.08.26-2.83-.14-.77-.42-.73-1.68-1.03-2.57-1.57-4.81-3.12-9.64-4.67-14.46-.09-.36-.33-.72-.2-1.24M193.52 216.53c.28-.24.37-.3.44-.39 3.42-4.46 10.69-3.35 13.17 2.01 1.49 3.22 1.47 6.52-.12 9.71-1.84 3.7-6.17 5.44-9.93 4.1-.68-.24-1.32-.57-1.88-1.02-.52-.42-.99-.89-1.67-1.51 0 .77-.02 1.38-.01 1.99.01.4-.14.58-.55.58-1.04-.01-2.08-.01-3.11 0-.38 0-.61-.11-.57-.54.02-.24 0-.48 0-.72V208.1c0-.24.02-.48 0-.72-.04-.49.21-.61.65-.6.96.02 1.92.04 2.87-.01.62-.03.73.26.72.79-.02 1.48-.01 2.95-.01 4.43zm10.36 6.45c.03-.91-.12-1.78-.46-2.6-.82-1.97-2.25-3.18-4.43-3.31-2.22-.13-3.87.9-4.88 2.82s-1 3.92-.06 5.87c.93 1.94 2.93 3.11 4.94 2.95 2.21-.18 3.89-1.51 4.56-3.64.22-.68.37-1.38.33-2.09M169.58 229.43c-.4-.04-.49.23-.63.39-3.12 3.66-8.22 3.1-11.12.39-1.42-1.32-2.29-2.95-2.66-4.85-.48-2.49-.35-4.93.76-7.25 1.77-3.71 5.89-5.56 9.71-4.41 1.17.35 2.17.99 3.04 1.84.24.24.49.47.9.87v-3.78c0-1.68.02-3.35-.01-5.03-.01-.58.1-.88.78-.84.87.06 1.76.06 2.63 0 .7-.05.79.27.78.85-.03 1.4-.01 2.8-.01 4.19v19.17c0 1.13.1 1.02-1.03 1.02-.8 0-1.6-.03-2.4.01-.55.03-.81-.12-.76-.72.06-.61.02-1.24.02-1.85m.04-6.52c.05-1.28-.25-2.43-.93-3.45-1.19-1.79-2.87-2.63-5.01-2.36-2.05.26-3.4 1.47-4.12 3.38-.49 1.3-.52 2.66-.23 4.01.5 2.36 2.39 4.03 4.74 4.23 2.15.18 4.22-1.2 5.12-3.4.32-.79.48-1.6.43-2.41M29.77 216.41c.32 0 .4-.15.49-.27 3.34-4.33 10.27-3.37 12.89 1.52 1.86 3.48 1.79 7.06-.03 10.56-.72 1.38-1.83 2.41-3.19 3.16-3.2 1.77-6.9 1.24-9.46-1.34-.16-.16-.26-.4-.54-.46-.28.25-.14.59-.15.88-.01 2.04-.01 4.08-.01 6.11 0 1 .06.96-.99.96H26.5c-.9 0-.94.09-.94-.89.01-1.24 0-2.48 0-3.72v-17.74c0-.28.01-.56 0-.84-.01-.38.11-.6.54-.59q1.56.03 3.12 0c.42-.01.56.19.55.58-.01.67 0 1.35 0 2.08m10.39 6.66c-.03-.44-.03-.88-.09-1.31-.29-2.3-1.97-4.19-4.09-4.62-2.18-.45-4.45.59-5.53 2.67-1.13 2.17-1.1 4.4.19 6.5 1.07 1.74 2.71 2.56 4.76 2.4 2.11-.17 3.52-1.35 4.32-3.28.31-.76.42-1.55.44-2.36M241.31 228.46c.87-1.04 1.69-2.01 2.54-3.02.43.32.8.61 1.18.9 1.91 1.43 4.05 2.22 6.45 2.24.97.01 1.91-.16 2.77-.64.94-.52 1.47-1.3 1.5-2.41.03-1.14-.52-1.89-1.47-2.41-1.13-.62-2.37-.93-3.61-1.23-1.51-.37-3.01-.77-4.45-1.39-2.31-1.01-3.76-2.63-3.94-5.24-.19-2.85.87-5.07 3.34-6.55 1.62-.97 3.42-1.27 5.29-1.23 2.88.06 5.48.91 7.83 2.6.46.33.54.56.18 1.03-.66.84-1.25 1.73-1.9 2.64-1.55-1.07-3.1-1.97-4.91-2.3-1.23-.23-2.47-.29-3.66.18-.98.39-1.71 1.03-1.87 2.14-.18 1.25.25 2.14 1.41 2.78 1.13.62 2.37.94 3.61 1.25 1.51.38 3.01.77 4.44 1.41 2.62 1.19 4.09 3.1 3.99 6.07-.1 2.98-1.52 5.07-4.25 6.23-2.69 1.15-5.47 1.04-8.23.35-2.3-.56-4.36-1.68-6.24-3.4M328.13 229.86c-1.82 1.86-3.79 2.57-6.05 2.54-.72-.01-1.43-.13-2.12-.33-2.64-.75-4.18-2.69-4.23-5.29-.05-2.7 1.4-4.75 4.01-5.59 2.3-.74 4.64-.62 6.98-.14.43.09.85.21 1.27.31.37-1.71-.49-3.21-2.21-3.8-1.4-.48-2.84-.35-4.26-.13-.87.14-1.71.41-2.52.75-.37.16-.58.12-.71-.31-.24-.8-.51-1.6-.81-2.37-.16-.41 0-.58.34-.72 3.06-1.28 6.22-1.75 9.48-.92 2.99.76 4.76 2.99 4.93 6.16.09 1.67.04 3.35.04 5.03 0 2.08-.02 4.15.01 6.23.01.58-.17.76-.74.73-.96-.04-1.92-.03-2.87-.01-.42.01-.57-.15-.54-.56.02-.42 0-.85 0-1.58m-3.87-6.22c-.71.03-1.58.06-2.42.38-1.31.49-1.93 1.34-1.89 2.59.04 1.18.81 2.1 2.12 2.42 1.4.35 2.78.22 4.07-.44 1.46-.74 2.16-1.94 2.1-3.59-.02-.48-.17-.7-.63-.84-1.04-.31-2.11-.41-3.35-.52M115.71 228.98c-1.76 2.16-3.97 3.21-6.59 3.42-1.9.15-3.74-.17-5.45-1.06-3.71-1.95-5.19-5.9-4.74-9.69.3-2.46 1.33-4.57 3.22-6.24 3.68-3.26 11.54-3.04 13.76 3.82.45 1.38.67 2.79.63 4.24-.02.91-.05.93-.96.94-2.99.01-5.99 0-8.98 0-.92 0-1.84-.01-2.76 0-.71.01-.77.1-.6.76.63 2.42 2.84 3.97 5.41 3.8 1.53-.1 2.88-.64 4-1.67.45-.42.74-.44 1.18 0 .57.57 1.2 1.07 1.88 1.68m-3.46-7.42c.03-2.4-1.84-4.83-4.59-4.72-2.44.09-4.45 2.15-4.46 4.72zM150.74 228.98c-1.7 2.08-3.81 3.16-6.34 3.4-2.91.27-5.56-.42-7.72-2.5-4.56-4.38-3.37-12.8 2.19-15.59 5.42-2.72 11.5.47 12.49 6.55.14.87.27 1.74.22 2.62-.05.91-.05.94-.96.94-2.8.01-5.59 0-8.39 0-1.12 0-2.24-.01-3.35 0-.72.01-.77.1-.6.75.63 2.43 2.84 3.97 5.4 3.81 1.53-.1 2.88-.63 4-1.67.44-.41.74-.46 1.18-.01.55.59 1.18 1.08 1.88 1.7m-12.55-7.42c.29.01.53.04.76.04h7.66c.34 0 .73.11.7-.5-.09-1.63-1.44-3.49-3-4.01-3.59-1.18-6.04 1.8-6.12 4.47M388.26 228.98c-1.59 1.97-3.57 3.07-5.97 3.35-3.86.45-7.13-.66-9.35-4.01-2.28-3.44-1.97-8.62.68-11.77 2.37-2.82 5.45-3.67 8.95-2.88 3.62.81 5.44 3.39 6.24 6.82.21.89.29 1.81.27 2.73-.03 1.18-.01 1.19-1.16 1.19h-12.08c-.06 2.08 1.62 4.02 3.8 4.43 2.05.39 3.89-.08 5.47-1.44.82-.71.73-.57 1.43.05.57.49 1.12.99 1.72 1.53m-3.45-7.41c-.15-2.9-2.01-4.77-4.61-4.72-2.43.05-4.44 2.16-4.44 4.72zM57.53 213.41c4.79-.01 8.61 2.92 9.52 7.48 1.17 5.87-2.62 10.3-7.32 11.28-3.33.7-6.36.02-8.92-2.29-2.89-2.62-3.79-6.74-2.36-10.44 1.44-3.69 4.93-6.02 9.08-6.03m-5.51 9.3c.02.41.01.69.05.97.32 2.22 1.41 3.9 3.55 4.72 2.09.8 4.03.43 5.67-1.09 2.54-2.35 2.33-6.91-.4-9.04-1.76-1.38-3.74-1.6-5.75-.67-2.18 1.01-3.04 2.91-3.12 5.11M341.66 216.25c.51-.25.7-.6.95-.88 2.31-2.54 6.2-2.31 8.17-1.15 2.1 1.23 2.93 3.21 3.02 5.52.09 2.19.03 4.39.04 6.59 0 1.64-.02 3.27.01 4.91.01.54-.08.81-.71.77-.92-.05-1.84-.05-2.75 0-.59.03-.74-.19-.73-.75.03-2.84.02-5.67.01-8.51 0-.72-.04-1.44-.13-2.15-.26-2.08-1.51-3.26-3.53-3.38-2.01-.12-3.64 1.01-4.13 2.91a7.5 7.5 0 0 0-.22 1.9c.01 3.03.01 6.07 0 9.1 0 .84-.01.85-.83.86-.88.01-1.76-.03-2.63.01-.59.03-.74-.18-.73-.75.03-2.48.01-4.95.01-7.43v-9.22c0-.85.02-.85.84-.86q1.26-.015 2.52 0c.81.01.81.02.83.88 0 .51-.01 1.02-.01 1.63M406.52 219.33c-.35-.31-.64-.57-.94-.82-1.7-1.41-3.62-1.89-5.69-1.04-2.13.88-3.08 2.67-3.33 4.88-.1.88.03 1.76.3 2.6 1.11 3.46 4.92 4.87 8.05 3 .65-.39 1.19-.93 1.79-1.4.83.82 1.64 1.63 2.46 2.44-2.35 3-6.27 4.18-10.13 3.05a9.25 9.25 0 0 1-6.63-7.96c-.53-5.16 2.71-9.53 7.31-10.45 3.15-.63 6.13-.16 8.61 2.12 1.01.93.82.76.1 1.55-.63.67-1.25 1.33-1.9 2.03M368.66 228.13v2.33c-.01.99-.01 1-.96 1.36-1.58.6-3.21.66-4.82.26-2.01-.5-3.13-2.01-3.26-4.35-.07-1.35-.03-2.71-.04-4.07 0-1.84-.03-3.67.01-5.51.01-.65-.22-.8-.83-.8-1.51 0-1.51-.03-1.51-1.51 0-.48.02-.96-.01-1.44-.03-.54.22-.68.71-.67.51 0 1.15.23 1.48-.14.36-.4.12-1.07.13-1.62.02-.88.02-1.76 0-2.63-.01-.46.16-.64.63-.63.88.02 1.76 0 2.63.01.93.01.94.01.95.9.01 1 0 2 0 2.99 0 1.29-.08 1.12 1.18 1.12 1.04.01 2.08.02 3.11 0 .46-.01.64.16.62.63-.02.8-.03 1.6 0 2.39.02.48-.17.62-.62.62-1.16-.02-2.32.02-3.47-.02-.62-.02-.84.16-.84.8.03 2.63.01 5.27.02 7.9 0 .24.03.48.06.72.15 1.08.69 1.63 1.77 1.77.69.09 1.35-.07 2.01-.22.32-.06.59-.29 1.05-.19M125.03 217.27c.59-.55.92-1.19 1.4-1.73 1.18-1.32 2.62-2.05 4.4-2.11.43-.01.67.05.66.56-.03 1.23-.01 2.47-.01 3.68-.32.26-.66.16-.96.2-3.04.44-4.85 2.25-5.32 5.3-.18 1.19-.18 2.39-.18 3.59 0 1.52-.02 3.04.01 4.56.01.51-.14.7-.67.68-1-.04-2-.02-3-.01-.34 0-.52-.11-.5-.48.01-.24 0-.48 0-.72v-15.83c0-.2.01-.4 0-.6-.03-.43.11-.66.6-.64 1 .03 2 .02 3 0 .42-.01.57.15.56.56 0 1.01.01 2 .01 2.99" class="st0"/><path d="M151.12 29.26c.02-1.84.05-3.68.07-5.51.06-.08.13-.15.19-.23 1.1-.17 2.21-.07 3.32-.07 2.42 0 4.83.03 7.25.05.02 1.74.02 3.49.06 5.23.01.49-.21.59-.64.58-1.27-.02-2.54-.01-3.81 0-.84.01-.85.02-.87.84-.03 1.63-.04 3.25-.06 4.88l.02-.02c-1.76.27-3.52.14-5.28.07 0-1.57.01-3.15-.01-4.72.01-.38.14-.81-.24-1.1" class="st2"/><path d="m161.91 23.53.06-5.02c.01-.99.01-.99.96-1 1.67-.01 3.35-.01 5.02-.02-.01 1.75-.01 3.51-.05 5.26-.01.51.15.7.67.69 1.51-.03 3.03.01 4.54-.02.58-.01.76.17.75.75-.04 1.47-.03 2.95 0 4.42.01.52-.08.82-.71.8-1.55-.03-3.11-.02-4.66 0-.47.01-.62-.19-.61-.64.02-1.51-.02-3.03.02-4.54.01-.56-.13-.77-.73-.76-1.75.06-3.51.06-5.26.08" class="st3"/><path d="M419.53 44.03c-.47 1.8-.94 3.6-1.41 5.41-.09.35-.17.7-.26 1.04-.22.81-.67 1.06-1.47.85-.35-.09-.37-.36-.44-.63-.47-1.81-.95-3.63-1.42-5.44-.1-.37-.21-.73-.32-1.1l-.24.03v2.3c0 1.28.01 2.56 0 3.83-.01.99-.01.99-.84 1-.88.01-.89.01-.89-1.07v-7.67c0-.4.03-.8-.01-1.2-.05-.54.2-.66.7-.67 2.06-.08 2.06-.09 2.59 1.9.39 1.46.79 2.92 1.19 4.42.38-.11.38-.4.44-.64.46-1.69.93-3.38 1.37-5.08.11-.41.26-.57.71-.6 2.26-.14 2.26-.16 2.26 2.08 0 2.56.01 5.11-.01 7.67 0 .29.17.72-.25.82-.41.1-.88.14-1.29-.04-.24-.11-.15-.43-.16-.66v-6.569999999999999c-.08.02-.16.02-.25.02M403.59 42.43c-.01-.04-.04-.07-.04-.11-.11-1.58-.11-1.58 1.41-1.58h5.15c.26 0 .63-.1.66.31.03.46.18.97-.11 1.39-.15.21-.45.08-.68.1-.55.05-1.25-.23-1.61.14-.41.42-.14 1.14-.15 1.73-.02 2 0 3.99-.01 5.99 0 .92-.02.92-.9.94-.16 0-.32-.02-.48 0-.62.09-.72-.23-.72-.77.02-2.12.01-4.23.01-6.35 0-1.66 0-1.66-1.7-1.69-.29 0-.58.05-.83-.1" class="st0"/><path d="M143.04 46.32c.68 0 1.36.03 2.04-.01.54-.03.68.21.67.7-.02 1.4-.02 2.8 0 4.19.01.47-.16.64-.62.63-1.48-.02-2.96-.01-4.43 0-.41 0-.55-.17-.55-.58.01-1.44.02-2.88 0-4.31-.01-.46.15-.65.62-.63.75.03 1.51.01 2.27.01M151.38 35.08c1.76.07 3.53.2 5.28-.07 0 1.64-.01 3.27.02 4.91.01.58-.1.87-.78.84-1.35-.05-2.71-.03-4.07-.01-.53.01-.69-.19-.68-.7.02-1.6 0-3.19-.01-4.79zM130.75 46.39v4.12c-2.04-1.44-3.91-2.77-6.07-4.12z" class="st1"/><path d="M151.38 35.08c-.08.06-.16.12-.24.19-.37-.3-.23-.72-.24-1.1-.01-1.61-.01-3.22-.01-4.83.06-.06.14-.08.22-.07.38.29.25.72.26 1.1.02 1.56.01 3.13.01 4.71M151.38 23.52c-.06.08-.13.15-.19.23-.04-.17-.01-.27.19-.23" class="st3"/><path d="M203.89 90.21v-29.7c0-1.12-.09-1.03 1.03-1.03h7.91c1.02 0 1.03.01 1.03 1.05v47.85c-.01.99-.01 1-.96 1-3 .01-6-.02-8.99.02-.68.01-1.06-.17-1.38-.81-2.49-4.96-5.01-9.9-7.53-14.84l-8.82-17.28c-.17-.34-.36-.68-.75-.98v32.54c0 1.52.18 1.35-1.33 1.35-2.6.01-5.2.01-7.79 0-.84 0-.85-.02-.86-.86s0-1.68 0-2.52V60.91c0-1.59-.21-1.42 1.38-1.42 3.16-.01 6.32.03 9.47-.02.87-.02 1.33.24 1.74 1.03 5 9.59 10.04 19.16 15.07 28.74.18.35.38.7.56 1.05a.4.4 0 0 1 .22-.08M303.64 101.29c.35 1.12.43 2.23.63 3.32.21 1.14.4 2.28.6 3.42.08.44.05.74-.49.89-3.78 1.08-7.59 1.58-11.48.75-4.21-.9-6.73-3.61-7.44-7.89-.2-1.19-.27-2.38-.27-3.58.01-5.68 0-11.35 0-17.03 0-1.09.11-1.06-1.02-1.06-1.44 0-2.88.01-4.32 0-3.52-.02-6.23 1.51-8.26 4.3-1.93 2.65-2.62 5.71-2.64 8.93-.04 4.84-.01 9.67-.01 14.51 0 .24-.02.48 0 .72.07.6-.13.83-.79.82-2.2-.04-4.4-.02-6.6-.02-.8 0-1.6-.01-2.4 0-1.11.01-1.02 0-1.01-1.07V74c0-1.44-.16-1.29 1.27-1.29 1.4-.01 2.8.04 4.2-.02.67-.03.98.18 1.22.82.75 2.06 1.57 4.1 2.37 6.14.09.22.15.46.36.65.32-.24.43-.63.62-.95.88-1.44 1.89-2.77 3.18-3.87 2.15-1.84 4.64-2.77 7.47-2.78h5.52c.97 0 .97-.01 1.13-.92.49-2.79.95-5.59 1.49-8.37.24-1.24-.06-1.11 1.34-1.11q3.42-.015 6.84 0c.83 0 .84.02.84.87q.015 4.32 0 8.64c0 .97 0 .9.93.9 2 0 4 .01 6-.01.57-.01.87.08.86.76q-.06 2.94 0 5.88c.01.66-.25.79-.84.78-2-.03-4-.02-6-.01-.92 0-.94.01-.94.88 0 5.72-.02 11.43.01 17.15.01 2.89 1.08 3.89 3.96 3.81 1.23-.04 2.42-.39 3.67-.66M354.11 78.12c.42-.19.63-.55.91-.83 2.55-2.58 5.48-4.51 9.11-5.19 2.35-.44 4.7-.35 6.97.45 4.05 1.43 6.29 4.47 7.38 8.48.36 1.31.52 2.66.52 4.03-.01 7.71 0 15.42-.01 23.14 0 1.29.11 1.18-1.13 1.18h-6.83c-.68 0-1.36-.04-2.04.01-.65.05-.85-.21-.8-.82.04-.48.01-.96.01-1.44v-21.1c0-3.18-1.91-5.11-5.1-5.26-2.87-.13-4.91 1.35-6.74 3.31-.35.37-.21.83-.21 1.26-.01 7.51-.01 15.02-.01 22.54 0 .24-.03.48 0 .72.09.66-.24.79-.84.79-2.96-.02-5.91-.03-8.87 0-.63.01-.82-.18-.81-.81.03-2.04.01-4.08.01-6.11V74.18c0-.28.02-.56 0-.84-.03-.45.14-.64.61-.63 1.72.02 3.44.02 5.15 0 .49-.01.7.2.85.63.43 1.2.89 2.39 1.35 3.58.18.39.35.79.52 1.2M324 71.84c10.54-.01 18.99 8.5 19.09 19.03.1 9.62-7.54 19.14-19.08 19.15-11.16.01-19.1-9.05-19.1-19.02 0-10.61 8.5-19.15 19.09-19.16M333.74 91c.17-4.7-3.64-9.79-9.78-9.83-5.37-.03-9.74 4.42-9.74 9.78 0 5.37 4.38 9.76 9.75 9.78 5.38.02 9.76-4.35 9.77-9.73M236.52 71.84c10.54.02 19.04 8.51 19.08 19.06.05 10.53-8.58 19.22-19.12 19.15-10.78-.07-19.09-8.65-19.09-19.19 0-10.51 8.61-19.03 19.13-19.02m-.03 28.89c5.35 0 9.76-4.39 9.8-9.75.03-5.33-4.36-9.76-9.73-9.83-5.36-.06-9.86 4.42-9.85 9.82.02 5.35 4.43 9.75 9.78 9.76M312.19 142.64c2.14 4.62 4.28 9.24 6.5 14.04-1.95 0-3.73-.01-5.51 0-.49 0-.56-.37-.7-.69-.94-2.07-1.88-4.14-2.82-6.22-.87-1.93-1.77-3.84-2.61-5.78-.24-.55-.54-.78-1.15-.76q-1.68.075-3.36 0c-.65-.03-.81.21-.8.82.02 3.76.02 7.52.01 11.27 0 1.5.24 1.34-1.32 1.35-1.16.01-2.32-.01-3.48.01-.45.01-.68-.13-.64-.62.02-.24 0-.48 0-.72v-29.02c0-1.53-.15-1.35 1.33-1.35 3.04-.01 6.08-.01 9.11 0 2.01 0 3.98.23 5.89.92 3.27 1.19 5.01 3.56 5.39 6.97.14 1.27.11 2.56-.21 3.81-.64 2.49-2.23 4.18-4.48 5.31-.38.2-.84.26-1.15.66m-10.44-8.42c0 1.36.02 2.71-.01 4.07-.01.6.13.86.79.83.99-.05 1.99-.02 2.99-.01 1.12.01 2.23.01 3.34-.22 1.12-.23 2.14-.64 2.85-1.6 2.26-3.07.46-7.32-3.28-7.78-1.99-.24-3.99-.07-5.98-.14-.63-.02-.71.28-.7.8.02 1.34 0 2.7 0 4.05M356.53 140.81v-14.39c0-.24.02-.48 0-.72-.07-.61.22-.74.77-.74 1.88.02 3.76.01 5.64.01 1.64 0 3.28-.02 4.91.22 1.59.24 3.13.62 4.59 1.3 3.41 1.58 5.54 4.28 6.53 7.84 1.19 4.29 1.2 8.63-.02 12.9-1.49 5.25-5.09 8.23-10.43 9.16-1.19.21-2.38.28-3.58.27-2.48-.01-4.96 0-7.44 0-.95 0-.96-.01-.96-1-.01-4.94-.01-9.89-.01-14.85m17.55-.13c-.08-1.47-.09-2.95-.35-4.41-.76-4.19-3.1-6.37-7.31-6.8-1.2-.12-2.39-.11-3.59-.11-.83 0-.85.02-.85.87-.01 1.92 0 3.83 0 5.75v15.32c0 .98.01.98.96.99 1.36.01 2.71-.01 4.06-.21 3.46-.52 5.59-2.44 6.49-5.83.49-1.82.52-3.7.59-5.57M268.84 136.58c0 3.24-.01 6.47 0 9.71 0 .92.1 1.83.34 2.73.51 1.86 1.66 3.07 3.58 3.45 1.11.22 2.23.23 3.34 0 2.15-.44 3.41-1.84 3.8-4.23.15-.9.24-1.82.24-2.74-.01-6.35-.01-12.71-.01-19.06 0-.28.02-.56 0-.84-.04-.46.14-.63.61-.63 1.44.02 2.88.02 4.32.01.4 0 .59.16.57.56-.01.24 0 .48 0 .72 0 6.19.01 12.39 0 18.58 0 1.8-.18 3.59-.69 5.33-1.14 3.88-3.73 6.11-7.72 6.74-2.15.34-4.29.31-6.42-.18-3.42-.79-5.59-2.92-6.65-6.23-.46-1.45-.73-2.95-.74-4.48-.03-6.75-.02-13.51-.05-20.26 0-.63.19-.82.81-.8 1.24.04 2.48.01 3.72.01.89.01.9.02.9.94.01 3.56 0 7.11 0 10.67zM204.17 140.83v-14.5c0-.28.01-.56 0-.84-.01-.34.13-.52.48-.51.24.01.48 0 .72 0h17.259999999999998c.29 0 .43.15.43.45 0 1.16-.01 2.32 0 3.48 0 .38-.21.47-.53.47h-11.99c-.92 0-.94.01-.94.9-.01 2.32.02 4.63-.02 6.95-.01.66.23.79.83.78 2.96-.02 5.91-.01 8.87-.01.93 0 .93.01.94.9.01.88-.04 1.76.02 2.64.04.66-.22.8-.82.8-2.52-.02-5.03-.01-7.55-.01-.52 0-1.04.02-1.56-.01-.5-.03-.72.13-.72.67.02 2.88.03 5.75-.01 8.63-.01.78.45.69.93.69h11.86c1.49 0 1.49 0 1.49 1.53 0 .72-.02 1.44.01 2.16.02.48-.09.77-.65.7-.2-.03-.4 0-.6 0h-17.14c-.28 0-.56-.01-.84 0-.36.01-.5-.16-.48-.51.01-.28 0-.56 0-.84.01-4.85.01-9.69.01-14.52M327.84 140.81V126.3c0-.28.01-.56 0-.84-.01-.36.16-.5.51-.48.2.01.4 0 .6 0h16.67c1.15 0 1.08-.14 1.08 1.11v2.28c0 1.1.07 1-1.06 1h-7.79c-1.28 0-2.56.03-3.84-.01-.65-.02-.81.23-.8.84.03 2.36.03 4.72 0 7.07-.01.59.19.75.76.75 2.96-.02 5.92-.01 8.87-.01 1.03 0 1.03.01 1.04 1.05q.015 1.2 0 2.4c-.01.84-.02.86-.86.86-2.76.01-5.52 0-8.27.01-1.76.01-1.5-.21-1.51 1.53q-.015 3.6 0 7.2c0 1.41-.14 1.25 1.31 1.25 4 .01 7.99 0 11.99 0 1.14 0 1.04-.01 1.03 1.05 0 .92-.01 1.84 0 2.76.01.4-.13.6-.55.58-.24-.01-.48 0-.72 0h-17.27c-.12 0-.24-.01-.36 0-.58.07-.91-.09-.82-.77.05-.35.01-.72.01-1.08-.02-4.69-.02-9.37-.02-14.04M191.1 130.74c-2.44-1.19-4.9-1.77-7.5-1.67-.85.03-1.67.18-2.45.5-2.34.97-2.94 4.06-1.18 5.89.57.59 1.27.95 2.01 1.28 1.5.66 3.08 1.11 4.62 1.65 1.55.54 3.05 1.18 4.41 2.12 3.04 2.12 4.08 5.12 3.7 8.67-.39 3.57-2.37 6.05-5.76 7.1-5.62 1.76-10.96.86-15.92-2.3-.47-.3-.57-.55-.22-1.04.66-.95 1.26-1.94 1.89-2.91.06-.1.16-.17.3-.32.39.24.78.48 1.18.71 2.97 1.7 6.12 2.53 9.53 1.88 1.8-.34 3.19-1.24 3.68-3.16.44-1.71-.12-3.28-1.56-4.33-.85-.62-1.8-1.02-2.78-1.39-1.49-.56-3-1.09-4.49-1.65-1.27-.48-2.44-1.16-3.55-1.96-4.29-3.12-4.68-11.9 2.03-14.46 2.38-.91 4.83-1.01 7.31-.8 2.12.18 4.16.69 6.09 1.64.56.28.64.54.35 1.09-.59 1.12-1.1 2.24-1.69 3.46M251.58 149.08c.91 1.02 1.83 2.07 2.77 3.09.37.4.11.63-.13.9-2.18 2.43-4.91 3.78-8.16 4.02-1.52.11-3.04.03-4.53-.32-4.24-.97-7.02-3.62-8.59-7.6-1.36-3.45-1.63-7.06-1.32-10.72.22-2.57.8-5.04 2.01-7.34 2.28-4.31 5.89-6.47 10.73-6.63 2.14-.07 4.22.24 6.18 1.14 1.21.55 2.27 1.33 3.2 2.28.28.28.31.49.04.8-.93 1.04-1.83 2.1-2.77 3.18-.52-.24-.85-.66-1.24-.98-1.93-1.6-4.16-1.98-6.54-1.55-1.92.35-3.3 1.53-4.25 3.22-.81 1.45-1.21 3.04-1.43 4.67-.37 2.82-.43 5.66.16 8.47.14.66.3 1.32.54 1.96 1.49 4.07 5.7 5.81 9.68 4.03 1-.45 1.85-1.09 2.66-1.81.3-.26.52-.61.99-.81" class="st0"/><path d="M84.82 34.85c-42.19 0-76.4 34.22-76.4 76.4s34.22 76.4 76.4 76.4 76.4-34.21 76.4-76.4-34.21-76.4-76.4-76.4m-.28 23.97c28.97 0 52.43 23.46 52.43 52.43s-23.46 52.43-52.43 52.43-52.5-23.46-52.5-52.43 23.52-52.43 52.5-52.43" class="st4"/><path d="M161.94 17.44h5.85v5.85h-5.85zM151.09 23.29h10.84v5.85h-10.84zM145.67 29.14h5.42v11.41h-5.42zM151.09 40.56h5.57v5.57h-5.57zM156.66 35.06h6.14v5.49h-6.14zM151.09 46.12h-5.42v5.71h-5.64v-5.71h-9.2v4.06h-4.99v4.99h5.49v5.57h-5.57l.07-5.57h-5.99v8.78h-5.56v5.49h-3.78v5.57h-3.99c-8.59 14.09-15.49 27.11-19.48 36.74-10.95-14.58-16.08-19.83-25.32-24.97-3.3-1.84-6.24-2.69-8.35-1.5-2.19 1.24-2.83 5.15-.07 8.2 17.14 18.99 20.23 29.12 26.46 43.59 1.86 4.31 5.36 6.17 9.35 6.28 2.13.06 4.74-.58 6.49-2.64.81-.95 1.05-2.26 1.71-3.85 5.21-12.56 10.99-25.16 19.34-37.16l.07-6.28h4.42l-.07-5.57h4.78l-.07-6.64h5.56v-6.06h-5.64l.07-5.71h5.57v5.71h5.56v-5.78h4.35V62.6h5.06v-4.64h4.78V46.12z" class="st0"/><path d="M140.04 40.56h5.64v5.57h-5.64zM134.4 35.21h5.63v5.35h-5.63z" class="st0"/><path d="M151.09 29.17h5.55v5.86h-5.55zm16.67-5.86h6.01v5.86h-6.01zm0-11.86h6.01v6h-6.01z" class="st4"/></svg>