<svg xmlns="http://www.w3.org/2000/svg" xml:space="preserve" viewBox="0 0 660 220"><path fill="#C41230" d="M62.8 105.2V60.8c0-14.2 11.5-25.7 25.7-25.7s25.7 11.5 25.7 25.7v44.3H139V60.8c0-27.8-22.6-50.4-50.5-50.4-27.8 0-50.4 22.6-50.4 50.4v44.3h24.7z"/><path fill="#C41230" d="M81.3 59.8c4-3.4 10.5-3.4 14.5 0s11.3 5 16.4 3.5c5-1.5 11 1.1 13.2 5.9 2.3 4.8 8.3 9.2 13.6 9.8 5.2.7 9.6 5.5 9.7 10.8s3.9 11.8 8.4 14.5 6.5 8.9 4.5 13.8c-2 4.8-1.2 12.3 1.7 16.7 3 4.3 2.3 10.8-1.5 14.4s-6.2 10.8-5.2 15.9c1 5.2-2.3 10.8-7.2 12.5-5 1.7-10 7.3-11.2 12.4s-6.5 8.9-11.7 8.5-12.1 2.6-15.3 6.8-9.5 5.5-14.1 3-12.1-2.5-16.8 0c-4.6 2.5-11 1.2-14.2-3s-10.1-7.2-15.3-6.8-10.5-3.4-11.7-8.5-6.2-10.7-11.2-12.4-8.2-7.4-7.2-12.5c1-5.2-1.3-12.3-5.2-15.9-3.8-3.6-4.5-10.1-1.5-14.4s3.8-11.8 1.7-16.7c-2-4.8 0-11 4.5-13.8 4.5-2.7 8.3-9.3 8.4-14.5s4.5-10.1 9.7-10.8 11.3-5.1 13.6-9.8c2.2-4.8 8.2-7.4 13.2-5.9 4.9 1.5 12.2-.1 16.2-3.5"/><path fill="#fff" d="M88.5 83.4c-27.6 0-50 22.4-50 50s22.4 50 50 50 50-22.4 50-50-22.4-50-50-50"/><path fill="#C41230" d="M91.9 100.6c-3.2 0-6.2.3-8.9.7-16.1 2.4-24.8 11.2-26.8 26.1l-1.4 11.3c-.9 7.8.5 13.6 4.2 17.8 4.4 4.9 11.9 8.9 23 8.9h19.5c11.3 0 12.7-11.8 12.7-11.8H88.3c-3.5 0-6.9-.3-9.3-1.2-3.2-1.2-5.2-3.3-5.9-7.1-.3-1.5-.2-4.8.1-7l1.3-9.9c.4-2.5 1.2-5.3 1.5-6.3 1-2.4 2.5-4.8 5-6.6 1.5-1 4.9-3.1 13.7-3.1H109c10 0 11.8-11.8 11.8-11.8z"/><g fill="#231F20"><path d="M230 175.3c0 2.1-.5 4-1.6 5.6s-2.6 2.9-4.6 3.8-4.4 1.4-7.1 1.4c-2.3 0-4.1-.1-5.7-.5-1.5-.3-3.1-.9-4.8-1.7v-8.1c1.7.9 3.6 1.6 5.4 2.1 1.9.5 3.6.7 5.2.7 1.4 0 2.4-.2 3-.7s.9-1.1.9-1.8c0-.5-.1-.9-.4-1.2-.3-.4-.7-.7-1.2-1.1-.6-.4-2.1-1.1-4.5-2.2-2.2-1-3.9-2-5-2.9s-1.9-2-2.5-3.2c-.5-1.2-.8-2.7-.8-4.3 0-3.1 1.1-5.6 3.4-7.3s5.4-2.6 9.4-2.6c3.5 0 7.1.8 10.7 2.4l-2.8 7.1c-3.2-1.5-5.9-2.2-8.2-2.2-1.2 0-2 .2-2.6.6-.5.4-.8.9-.8 1.6s.3 1.3 1 1.8 2.6 1.5 5.6 2.9c2.9 1.3 4.9 2.7 6.1 4.2 1.3 1.4 1.9 3.3 1.9 5.6M257.4 175.3c0 2.1-.5 4-1.6 5.6s-2.6 2.9-4.6 3.8-4.4 1.4-7.1 1.4c-2.2 0-4.1-.1-5.7-.5-1.5-.3-3.1-.9-4.8-1.7v-8.1c1.7.9 3.6 1.6 5.4 2.1 1.9.5 3.6.7 5.2.7 1.4 0 2.4-.2 3-.7s1-1.1 1-1.8c0-.5-.1-.9-.4-1.2-.3-.4-.7-.7-1.2-1.1-.6-.4-2.1-1.1-4.5-2.2-2.2-1-3.9-2-5-2.9s-1.9-2-2.4-3.2-.8-2.7-.8-4.3c0-3.1 1.1-5.6 3.4-7.3s5.4-2.6 9.4-2.6c3.5 0 7.1.8 10.7 2.4l-2.8 7.1c-3.2-1.5-5.9-2.2-8.2-2.2-1.2 0-2.1.2-2.6.6s-.8.9-.8 1.6.3 1.3 1 1.8 2.5 1.5 5.6 2.9c2.9 1.3 5 2.7 6.1 4.2 1.1 1.4 1.7 3.3 1.7 5.6M262.6 185.6v-33.9h9.1v26.5h13v7.4zM305.8 153.4c-4.2 0-7.6 1.4-10 4.1s-3.7 6.4-3.7 11.2 1.2 8.6 3.4 11.3c2.3 2.7 5.6 4 9.9 4 2.8 0 5.5-.4 7.8-1.1v2.1q-3.3 1.2-8.4 1.2c-4.8 0-8.5-1.5-11.2-4.6s-4.1-7.4-4.1-12.9c0-3.4.7-6.5 2-9.1s3.2-4.7 5.6-6.1 5.3-2.1 8.5-2.1c3.3 0 6.3.6 8.9 1.9l-.9 2.1c-2.5-1.4-5.1-2-7.8-2M339.3 185.6h-18.5v-33.9h18.5v2.2h-16.1v12.8h15.2v2.2h-15.2v14.5h16.1zM349.3 170.8v14.7H347v-33.9h8.1c4.2 0 7.3.8 9.3 2.3 2 1.6 3 3.9 3 7q0 3.45-1.8 5.7c-1.2 1.6-3 2.7-5.5 3.4l9.2 15.4h-2.8l-8.7-14.7h-8.5zm0-2h6.5c2.9 0 5.1-.6 6.6-1.9 1.6-1.3 2.4-3.2 2.4-5.6 0-2.6-.8-4.5-2.3-5.6-1.5-1.2-4.1-1.8-7.6-1.8h-5.6zM384 185.6h-2.4V154h-11v-2.2H395v2.2h-11zM400 185.6v-33.9h2.4v33.9zM414.3 185.6H412v-33.9h18.6v2.2h-16.2v14.4h15.3v2.2h-15.3v15.1zM435.8 185.6v-33.9h2.4v33.9zM462.2 153.4c-4.2 0-7.6 1.4-10 4.1s-3.7 6.4-3.7 11.2 1.2 8.6 3.5 11.3 5.6 4 9.9 4c2.8 0 5.5-.4 7.8-1.1v2.1q-3.3 1.2-8.4 1.2c-4.8 0-8.5-1.5-11.2-4.6s-4.1-7.4-4.1-12.9c0-3.4.7-6.5 2-9.1s3.2-4.7 5.6-6.1 5.3-2.1 8.5-2.1c3.3 0 6.3.6 8.9 1.9l-1 2.1c-2.5-1.4-5.1-2-7.8-2M493.5 173.6h-13.8l-4.7 11.9h-2.6l13.6-34h1.5l13.3 34h-2.7zm-12.9-2.1h12.1l-4.6-12.2c-.4-1-.8-2.3-1.4-4-.4 1.5-.9 2.8-1.4 4zM514.5 185.6h-2.4V154h-11v-2.2h24.4v2.2h-11zM549 185.6h-18.5v-33.9H549v2.2h-16.2v12.8h15.3v2.2h-15.3v14.5H549z"/></g><g fill="#C41230"><path d="M537.7 78.3h-26.2v1.8c.1 3.9 1.4 8.8 8 8.8H537c10.2 0 15.7 3.4 14.1 14.8l-1.2 9.1c-1.5 11.8-10 13.6-17.5 13.6h-9.9l2.8-22.7c.4-3.3-1.2-8.6-7.4-8.6h-8.6l-2.3 18.7-2.2 16.5c-.6 4.4 2.6 6.9 9.5 6.9h20.2c20.5 0 26.1-7.4 28.9-12.1 1.5-2.7 2.6-5.9 3.2-9.7.1-.7 1.5-12.5 1.5-12.5.9-7.1-.5-12.5-4-16.5-4.7-5.3-13.3-8.1-26.4-8.1M299.7 77h-2.9c-20.6.2-31.4 8.8-33.7 25.2l-1.4 10.6c-.9 7.3.4 12.8 4 16.8 4.4 4.9 12.1 8.5 23.7 8.6h2.9c20.2-.2 30.9-8.5 33.5-23.8l.2-1.1 1.4-10.6c.9-7.6-.4-13.3-4.1-17.4-4.4-4.9-12.1-8.2-23.6-8.3m10.7 25.7-1.3 9.7c-.6 4.3-1.7 7.6-3.6 10.1-2.6 3.3-6.5 5.3-11.9 5.3h-3.1c-5.4 0-9.3-1.9-11-5-1.1-2.3-1.4-5.6-.8-10l1.3-9.7c.7-5.2 2.4-9 5.1-11.7 2.7-2.6 6.4-3.8 11-3.8h3c3.1 0 7.3.5 9.6 3.6 1.8 2.6 2.4 6.3 1.7 11.5M643.7 85.3c-4.4-4.9-12.1-8.2-23.6-8.3h-2.9c-20.6.2-31.4 8.8-33.7 25.2l-1.4 10.6c-.9 7.3.4 12.8 4 16.8 4.4 4.9 12.1 8.5 23.7 8.6h2.9c20.2-.2 30.9-8.5 33.5-23.8l.2-1.1 1.4-10.6c.8-7.6-.5-13.3-4.1-17.4m-12.9 17.4-1.3 9.7c-.6 4.3-1.7 7.6-3.6 10.1-2.6 3.3-6.5 5.3-11.9 5.3h-3.2c-5.4 0-9.3-1.9-11-5-1.1-2.3-1.4-5.6-.8-10l1.3-9.7c.7-5.2 2.4-9 5.1-11.7 2.6-2.6 6.4-3.8 11-3.8h3c3.1 0 7.3.5 9.6 3.6 1.9 2.6 2.5 6.3 1.8 11.5M465.8 77h-2.9c-20.6.2-31.4 8.8-33.7 25.2l-1.4 10.6c-.9 7.3.4 12.8 4 16.8 4.4 4.9 12.1 8.5 23.7 8.6h2.9c20.2-.2 30.9-8.5 33.5-23.8l.2-1.1 1.4-10.6c.9-7.6-.4-13.3-4.1-17.4-4.4-4.9-12-8.2-23.6-8.3m10.8 25.7-1.3 9.7c-.6 4.3-1.7 7.6-3.6 10.1-2.6 3.3-6.5 5.3-11.9 5.3h-3.1c-5.4 0-9.3-1.9-11-5-1.1-2.3-1.4-5.6-.8-10l1.3-9.7c.7-5.2 2.3-9 5.1-11.7 2.7-2.6 6.4-3.8 11-3.8h3c3.1 0 7.3.5 9.6 3.6 1.8 2.6 2.4 6.3 1.7 11.5M400.6 81.6l-22.7 25.7L362 81.8c-1.5-2.4-4.6-3.5-9.2-3.5h-7.2l-7.2 58.8h8.8c2.9 0 5-1.2 6.2-2.3 1.9-1.6 3.1-3.9 3.4-6.3l3.2-25.8 11.7 22.3c.5.8 1.9 2.7 3.8 2.7h.2c2 0 3.7-1.9 4.2-2.5l17.8-22.5-4.3 34.3h8.5c2.9 0 5-1.2 6.2-2.3 1.8-1.6 3.1-3.9 3.4-6.3l6.2-50.2h-7.5c-4.4.1-7.7 1.2-9.6 3.4M231 78.3q-4.35 0-8.1.6c-14.7 2.2-22.5 10.2-24.4 23.7l-1.3 10.3c-.8 7.1.4 12.4 3.8 16.2 4 4.4 10.8 8.1 20.9 8.1h17.8c10.3 0 11.5-10.8 11.5-10.8h-23.5c-3.2 0-6.3-.3-8.5-1.1-3-1.1-4.7-3-5.4-6.5-.2-1.4-.2-4.4.1-6.3l1.2-9c.4-2.3 1.1-4.9 1.4-5.7.9-2.1 2.3-4.4 4.6-6 1.3-1 4.5-2.9 12.5-2.9h13.1c9.1 0 10.8-10.7 10.8-10.7H231z"/></g></svg>