<svg xmlns="http://www.w3.org/2000/svg" viewBox="0 0 272.36 84.77"><defs><style>.cls-1{fill:#c01a1a}.cls-2{fill:#c01919}.cls-4{fill:#be0d0d}.cls-6{fill:#6d0000}.cls-7{fill:#c83d3d}.cls-8{fill:#be0303}.cls-9{isolation:isolate}.cls-10{fill:#545557}</style></defs><g id="Layer_2" data-name="Layer 2"><g id="Layer_1-2" data-name="Layer 1"><g id="Layer_2-2" data-name="Layer 2"><g id="Layer_1-2-2" data-name="Layer 1-2"><path d="m180.81 34.67.51 1.15c-1.88 0-3.75.09-5.62 0a19.4 19.4 0 0 1-2.82-.52l-.48-1.14.33-.25-.49-.22-1.53-3.21h-12.42l-1.74 3.15c-1.08.3-.57 1.14-.6 1.8a.6.6 0 0 1-.1.39h-8.25c4.13-9.35 8.23-18.7 12.42-28 .75-1.67 1.17-3.15.24-4.91a9.7 9.7 0 0 1-.54-2.91h6.06a15.4 15.4 0 0 1 2.88 5.14c3.71 9 7.48 18 11.22 27a10 10 0 0 1 .36 1.31c-.08.55-.3 1.11.57 1.22m-16.28-20L161 23c3.1.46 4.64.42 6.7-.21-1-2.64-2-5.23-3.17-8.15Z" class="cls-1"/><path d="M35.92 84.72c-5.31-2.29-10.63-4.53-15.92-6.88S9.48 73 4.17 70.64A27.3 27.3 0 0 0 0 69.51v-66A12 12 0 0 1 2.79 4C5.22 5 7.6 6.18 10 7.34c8.19 4 17 6.66 24.57 12.07.31.22 1 0 1.45-.06l-.15 15.54L15.12 26v33.6L36 69.05ZM185.11 20.39c-2.86 0-2.93-.09-2.94-2.88v-3.13l3.14-.3c.06-1 .14-2 .16-2.91 0-1.84 0-3.73 1.05-5.31a16.6 16.6 0 0 1 3.17-3.67A10.06 10.06 0 0 1 195 0c.37 0 5 1 6.42 1.32-1.08 2.36-2 4.41-3 6.54-1.67-.16-3.34-1.16-4.77.28s-.55 3.47-1 5.43h4.68c.56 2.32.19 4.46.32 6.78h-4.79c-.06 5.28-.11 10.39-.16 15.49h-6.55v-14c.05-.84.02-1.49-1.04-1.45" class="cls-2"/><path d="M36 19.35 71 3.61v60.72a23 23 0 0 0 .77 4.13c-3.14 1.64-6.23 3.41-9.44 4.9C54.61 77 46.8 80.46 39 84a18 18 0 0 1-3.07.77L36 69.05l21.68-9.62c.44-.73 1.25-1.45 1.25-2.19q.14-14.39 0-28.79c0-.64-.67-1.28-1-1.93-2 .56-4.06 1-6 1.71-5.4 2.14-10.75 4.43-16.12 6.66Z" style="fill:#75170e"/><path d="M207.7 26c.78 2.37 3.67 4.24 6.06 4.85s4-1.54 6.37-2.46c3.11 1.22 3.91 1.73 5.1 3.32a14.86 14.86 0 0 1-18.46 3.14c-5.3-2.89-7.9-9.5-6.2-15.61a13.55 13.55 0 0 1 13.92-9.78 12.22 12.22 0 0 1 8.24 3c2.4 2.12 4.33 4.6 4.74 8a10 10 0 0 0-.47 1.69c-.09.86-.06 1.74-.08 2.7H211a12.5 12.5 0 0 0-2.45.06c-.37.03-.55.68-.85 1.09m.63-5.54c3.82-.45 7.53.74 11.11-.86-1.61-3-4.06-4.35-6.76-3.79-2.92.59-4.23 1.88-4.35 4.62ZM257.71 19.84l.16 1.11c-1.36 1 .1 2.65-1.07 3.86h-18c-.8 0-.79.6-.78 1.16l-.4.2.49.28c1.7 3.17 4.68 4 8 4.37 2.27-.53 2.62-1.72 4-2.65l4.55 2.39a1.63 1.63 0 0 1-.19 2.3l-.16.12c-2.93 2.34-6.08 4-10 3.53a37 37 0 0 1-4.57-.52c-5.52-1.43-9.22-6.4-9.5-12.43A12.78 12.78 0 0 1 235 12.91a13.7 13.7 0 0 1 4.52-2.5 17.6 17.6 0 0 1 6.12-.85 12.9 12.9 0 0 1 5.43 1.72 27 27 0 0 1 4.54 3.92 3.6 3.6 0 0 1 .59 1.2l.58 1.24c.22.75-.7 1.98.93 2.2m-7.9-.26c-2.46-4.72-8-5.24-10.87-1.28a1.39 1.39 0 0 0 0 2l.12.11c3.42-.41 7.08.71 10.75-.83" class="cls-2"/><path d="M134.75 30.31a8.13 8.13 0 0 0 6.54-4.15l5.87 3.41c-2.63 6-10.27 8.14-15.46 6.92-6-1.42-10.33-5.47-11-13a12.36 12.36 0 0 1 2.3-8 13.53 13.53 0 0 1 7.32-5.49 14.66 14.66 0 0 1 9.19-.09c3.72 1.26 5.32 2.68 7.76 6.4-1.31.79-2.6 1.62-3.93 2.36-1.62.9-1.91.87-3.26-.57a6.34 6.34 0 0 0-7.5-1.65 6.51 6.51 0 0 0-4.37 6.61 6.86 6.86 0 0 0 4.51 6.57 17 17 0 0 0 2.03.68" class="cls-1"/><path d="M207.7 26c.27-.38.48-1 .82-1.1a12.5 12.5 0 0 1 2.45-.06h15.95c0-1 0-1.84.08-2.7a10 10 0 0 1 .47-1.69l.69 5c-1 .1-1.7.22-2.4.22h-15.37a24 24 0 0 0-2.69.33M238.05 26c0-.56 0-1.14.78-1.16h18c1.17-1.21-.29-2.84 1.07-3.84.2 1.41.39 2.83.62 4.47-1 .1-1.67.24-2.36.24h-15.11a23 23 0 0 0-3 .29" class="cls-4"/><path d="M185.11 20.39c1.06 0 1.09.65 1.08 1.45v14h6.55c.12.75-.29.95-.94.94h-6.17a15 15 0 0 1-.3-1.9V23.07c-.03-.87-.15-1.77-.22-2.68" style="fill:#bf1212"/><path d="M71.8 68.46a23 23 0 0 1-.8-4.13V3.61l1.06-.42q.06 31.92.09 63.85a5.8 5.8 0 0 1-.35 1.42" class="cls-6"/><path d="M172.88 35.32a19.4 19.4 0 0 0 2.82.52c1.87.07 3.74 0 5.62 0l.51.84h-8.55ZM147.6 35.84h8.25c0 .91-.57 1-1.27 1h-7.38Z" class="cls-7"/><path d="M109.58 35.84h7.73c-.15.29-.29.83-.45.83-2.28.06-4.57.06-6.85 0-.15 0-.28-.54-.43-.83" class="cls-4"/><path d="M85.86 35.84h7.71c-.2.25-.4.71-.6.71q-3.24.08-6.5 0c-.21-.03-.41-.47-.61-.71" class="cls-8"/><path d="M257.71 19.84c-1.63-.22-.75-1.45-.91-2.27Z" class="cls-4"/><path d="m117.31 1.66-.69-.73L101.64 12c-.86-.6-1.61-1.11-2.34-1.65-3.21-2.41-6.41-4.83-9.63-7.23-.86-.64-2.84-2.49-3.85-2.62v1.7c0 4-.11 8-.1 12 0 7.21.06 14.41.1 21.61h7.71c.06-6.57.12-13.13.18-20.08l7.87 5.77 8-5.87v20.21h7.73c0-3.64.1-7.28.1-10.93-.02-7.75-.07-15.5-.1-23.25" class="cls-8"/><path d="M156 35.45c0-.66-.48-1.5.6-1.8Z" class="cls-7"/><path d="m256.84 17.61-.58-1.24ZM117.31 1.66l-.69-.73.67-.48Z" class="cls-4"/><path d="M180.81 34.67c-.87-.11-.65-.72-.57-1.26ZM172.24 33.71l.49.22-.33.25a.58.58 0 0 1-.16-.47" class="cls-7"/><path d="m238.16 26.42-.49-.28.4-.2a1.3 1.3 0 0 1 .09.48" class="cls-4"/><path d="m57.69 59.43.25-32.91c.35.65 1 1.29 1 1.93q.09 14.4 0 28.79c0 .76-.81 1.46-1.25 2.19" class="cls-6"/><g class="cls-9"><g class="cls-9"><path d="M109.47 71.51a7.5 7.5 0 0 1-1 3.89 8.66 8.66 0 0 1-2.69 2.8 12.6 12.6 0 0 1-4 1.68 20 20 0 0 1-4.86.57 20.6 20.6 0 0 1-3.25-.24 21 21 0 0 1-2.65-.58 13 13 0 0 1-1.92-.7 6 6 0 0 1-1.1-.66 1.46 1.46 0 0 1-.48-.81 6 6 0 0 1-.15-1.54 9 9 0 0 1 .06-1.13 2.6 2.6 0 0 1 .17-.74.86.86 0 0 1 .31-.4.85.85 0 0 1 .46-.12 2.5 2.5 0 0 1 1 .36 18.5 18.5 0 0 0 4.2 1.59 14 14 0 0 0 3.36.36 9.5 9.5 0 0 0 2.24-.25 5.5 5.5 0 0 0 1.69-.71 3.08 3.08 0 0 0 1.42-2.63 2.36 2.36 0 0 0-.63-1.65 6 6 0 0 0-1.63-1.21 17.5 17.5 0 0 0-2.28-1l-2.64-1a26 26 0 0 1-2.64-1.19 10.3 10.3 0 0 1-2.28-1.59 7.2 7.2 0 0 1-1.63-2.18 6.74 6.74 0 0 1-.63-3 6.93 6.93 0 0 1 .9-3.56 7.65 7.65 0 0 1 2.43-2.54 11.1 11.1 0 0 1 3.6-1.51 18.4 18.4 0 0 1 4.4-.51 19 19 0 0 1 2.4.16 20 20 0 0 1 2.25.41 15 15 0 0 1 1.85.59 4.8 4.8 0 0 1 1.07.54 1.6 1.6 0 0 1 .35.37 1.2 1.2 0 0 1 .16.4 3.3 3.3 0 0 1 .09.64v2.01a3.8 3.8 0 0 1-.13.72.9.9 0 0 1-.26.41.74.74 0 0 1-.46.13 2.5 2.5 0 0 1-.91-.3c-.42-.21-.93-.43-1.54-.67a17 17 0 0 0-2.12-.65 11 11 0 0 0-2.63-.29 7.6 7.6 0 0 0-2 .22 4.7 4.7 0 0 0-1.4.63 2.58 2.58 0 0 0-.97 2.15 2.35 2.35 0 0 0 .61 1.62 5.7 5.7 0 0 0 1.65 1.22 19 19 0 0 0 2.34 1c.87.31 1.75.64 2.66 1a27 27 0 0 1 2.66 1.19 10.7 10.7 0 0 1 2.33 1.58 7.7 7.7 0 0 1 1.64 2.18 6.5 6.5 0 0 1 .58 2.94" class="cls-10"/></g><g class="cls-9"><path d="M134.74 77.71a6 6 0 0 1-.07 1.05 2.1 2.1 0 0 1-.19.69 1 1 0 0 1-.33.38.8.8 0 0 1-.43.12h-17a2.44 2.44 0 0 1-1.45-.42 1.62 1.62 0 0 1-.59-1.39V53.6a1.58 1.58 0 0 1 .59-1.38 2.44 2.44 0 0 1 1.45-.42h16.87a.8.8 0 0 1 .41.1.85.85 0 0 1 .32.39 2.6 2.6 0 0 1 .19.69 6.4 6.4 0 0 1 .07 1.08 6 6 0 0 1-.07 1 2.6 2.6 0 0 1-.19.69.94.94 0 0 1-.32.38.73.73 0 0 1-.41.12h-12.04v6.87h10.21a.8.8 0 0 1 .43.12 1 1 0 0 1 .33.37 2.3 2.3 0 0 1 .2.68 7.4 7.4 0 0 1 .06 1 8 8 0 0 1-.06 1.05 2.4 2.4 0 0 1-.2.66.83.83 0 0 1-.33.36.9.9 0 0 1-.43.11h-10.21v7.94h12.17a.8.8 0 0 1 .43.12.9.9 0 0 1 .33.38 2.1 2.1 0 0 1 .19.68 6.4 6.4 0 0 1 .07 1.12" class="cls-10"/></g><g class="cls-9"><path d="M163.38 75.69v.92a4.5 4.5 0 0 1-.12.65 1.6 1.6 0 0 1-.21.47 2.4 2.4 0 0 1-.42.45 5.6 5.6 0 0 1-1.11.64 14 14 0 0 1-2 .75 20 20 0 0 1-2.71.6 21.3 21.3 0 0 1-3.3.24 20.7 20.7 0 0 1-6.27-.89 12.8 12.8 0 0 1-4.75-2.67 11.46 11.46 0 0 1-3-4.43 16.7 16.7 0 0 1-1.05-6.18 16.5 16.5 0 0 1 1.15-6.37 13 13 0 0 1 3.21-4.68 13.8 13.8 0 0 1 4.95-2.87 19.7 19.7 0 0 1 6.36-1 18 18 0 0 1 2.71.19 21 21 0 0 1 2.42.52 14 14 0 0 1 2 .72 6.2 6.2 0 0 1 1.24.71 2.8 2.8 0 0 1 .49.49 2.2 2.2 0 0 1 .21.5 4.4 4.4 0 0 1 .11.72 10 10 0 0 1 0 1 9 9 0 0 1-.05 1.11 2.2 2.2 0 0 1-.18.74 1 1 0 0 1-.32.42.74.74 0 0 1-.41.13 2.06 2.06 0 0 1-1-.38 14 14 0 0 0-1.55-.85 12.8 12.8 0 0 0-2.27-.85 11.2 11.2 0 0 0-3.15-.38 9.1 9.1 0 0 0-3.59.68 7.5 7.5 0 0 0-2.69 2 8.6 8.6 0 0 0-1.68 3.08 15.14 15.14 0 0 0 0 8.37 7.86 7.86 0 0 0 1.75 3 7.2 7.2 0 0 0 2.76 1.76 10.8 10.8 0 0 0 3.62.58 12.3 12.3 0 0 0 3.16-.36 15.3 15.3 0 0 0 2.28-.8c.64-.29 1.16-.55 1.57-.78a2.2 2.2 0 0 1 1-.35.9.9 0 0 1 .42.09.67.67 0 0 1 .26.35 3 3 0 0 1 .16.72c-.02.3 0 .71 0 1.24M195.88 69.46a11.3 11.3 0 0 1-.88 4.64 9.26 9.26 0 0 1-2.69 3.46 12.3 12.3 0 0 1-4.39 2.15 22.2 22.2 0 0 1-6 .74 22.8 22.8 0 0 1-5.72-.66 12 12 0 0 1-4.28-2 8.8 8.8 0 0 1-2.68-3.36 11.3 11.3 0 0 1-.92-4.71V52.58a.56.56 0 0 1 .15-.39 1.2 1.2 0 0 1 .56-.29 7 7 0 0 1 1.06-.17c.44 0 1-.06 1.67-.06s1.21 0 1.65.06a6.4 6.4 0 0 1 1 .17 1.3 1.3 0 0 1 .56.29.5.5 0 0 1 .17.39V69.2a7.8 7.8 0 0 0 .5 2.91 5.2 5.2 0 0 0 1.42 2 6.1 6.1 0 0 0 2.22 1.21 9.6 9.6 0 0 0 2.89.4 9.5 9.5 0 0 0 2.89-.41 5.9 5.9 0 0 0 2.17-1.21 5.3 5.3 0 0 0 1.37-2 6.9 6.9 0 0 0 .49-2.64v-17a.56.56 0 0 1 .15-.39 1.2 1.2 0 0 1 .55-.29 6.3 6.3 0 0 1 1.06-.17c.44 0 1-.06 1.66-.06s1.2 0 1.63.06a6.5 6.5 0 0 1 1 .17 1.2 1.2 0 0 1 .55.29.56.56 0 0 1 .15.39ZM228.29 79.21a.7.7 0 0 1-.11.4.82.82 0 0 1-.49.27 5.4 5.4 0 0 1-1.15.16h-3.82a4.6 4.6 0 0 1-1-.17 1.14 1.14 0 0 1-.53-.3 1.4 1.4 0 0 1-.26-.45l-3-6.28c-.37-.71-.72-1.35-1.07-1.9a6.4 6.4 0 0 0-1.16-1.38 4.4 4.4 0 0 0-1.48-.84 6 6 0 0 0-1.93-.28h-2.14v10.73a.57.57 0 0 1-.17.39 1.3 1.3 0 0 1-.56.28 7.4 7.4 0 0 1-1.05.18c-.43 0-1 .06-1.67.06s-1.21 0-1.66-.06a7.4 7.4 0 0 1-1-.18 1.1 1.1 0 0 1-.55-.28.56.56 0 0 1-.16-.39V53.6a1.58 1.58 0 0 1 .59-1.38 2.4 2.4 0 0 1 1.45-.42h10.830000000000002c.58 0 1.09.06 1.56.11a16.7 16.7 0 0 1 3.67.82 9.3 9.3 0 0 1 2.77 1.54 6.4 6.4 0 0 1 1.74 2.24 7 7 0 0 1 .6 3 7.6 7.6 0 0 1-.43 2.58 6.4 6.4 0 0 1-1.27 2.08 8.1 8.1 0 0 1-2.06 1.58 12 12 0 0 1-2.8 1.09 9 9 0 0 1 1.43.74 6.8 6.8 0 0 1 1.25 1.06 10 10 0 0 1 1.11 1.41 17 17 0 0 1 1 1.8l2.84 5.54a13 13 0 0 1 .52 1.21 2 2 0 0 1 .16.61m-8.86-19.1a3.7 3.7 0 0 0-.75-2.35 4.23 4.23 0 0 0-2.48-1.35c-.35-.07-.75-.13-1.19-.18s-1.06-.06-1.84-.06h-3.08v8h3.5a9.7 9.7 0 0 0 2.55-.29A5.4 5.4 0 0 0 218 63a3.5 3.5 0 0 0 1.1-1.27 3.7 3.7 0 0 0 .33-1.62M253.35 77.71a8 8 0 0 1-.06 1.05 2.4 2.4 0 0 1-.2.69 1 1 0 0 1-.33.38.8.8 0 0 1-.43.12h-17a2.44 2.44 0 0 1-1.45-.42 1.62 1.62 0 0 1-.59-1.39V53.6a1.58 1.58 0 0 1 .59-1.38 2.44 2.44 0 0 1 1.45-.42h16.87a.9.9 0 0 1 .42.1.9.9 0 0 1 .31.39 2.3 2.3 0 0 1 .19.69 6.4 6.4 0 0 1 .07 1.08 6 6 0 0 1-.07 1 2.3 2.3 0 0 1-.19.69 1 1 0 0 1-.31.38.8.8 0 0 1-.42.12h-12.03v6.87h10.2a.8.8 0 0 1 .43.12.9.9 0 0 1 .33.37 2.3 2.3 0 0 1 .2.68 7.4 7.4 0 0 1 .06 1 8 8 0 0 1-.06 1.05 2.4 2.4 0 0 1-.2.66.78.78 0 0 1-.33.36.9.9 0 0 1-.43.11h-10.2v7.94h12.16a.8.8 0 0 1 .43.12.9.9 0 0 1 .33.38 2.4 2.4 0 0 1 .2.68 8 8 0 0 1 .06 1.12" class="cls-10"/></g></g><text style="isolation:isolate;font-size:10px;font-family:Calibri-Bold,Calibri;font-weight:700" transform="translate(258.67 58.43)">TM</text></g></g></g></g></svg>