<svg xmlns="http://www.w3.org/2000/svg" width="104" height="52" fill="none"><path fill="#231F20" fill-rule="evenodd" d="M27.913 22.956h7.313v-2.827H25.16v10.064h2.67v-7.196l.082-.041Z" clip-rule="evenodd"/><path fill="#231F20" fill-rule="evenodd" d="M25.187 9.243h21.067l.042-.017c4.55.043 8.22 3.781 8.22 8.387 0 4.614-3.686 8.352-8.245 8.387h-.069l-5.157-.009V15.393h2.908v7.71l.24-.009h2.119c2.943-.06 5.312-2.489 5.312-5.481 0-3.01-2.395-5.447-5.363-5.482H27.984v3.262h7.766l.009 2.94H25.16l.026-9.09Zm42.749-3.372 13.206 21.806 1.89-3.059L71.326 5.871zm-13.42 24.323L67.848 8.387l10.99 17.862H63.69v-2.787h9.837l-5.679-9.295-9.313 16.027z" clip-rule="evenodd"/><path fill="#231F20" fill-rule="evenodd" d="M81.355 27.677H64.58v2.517l15.126-.008.026-.061 1.622-2.448ZM37.431 27.3l.009-11.475h2.912v11.5h6.434c5.156-.034 9.328-4.2 9.328-9.331 0-5.123-4.163-9.289-9.311-9.331H24.617v21.53h-2.81V5.872h25.029c5.929.051 10.846 4.158 11.908 9.75l5.92-9.648h3.272L57.793 22.911l-.985 1.656c-2.184 3.185-5.808 5.558-9.971 5.6H37.43z" clip-rule="evenodd"/><path fill="#4EA589" d="M24.319 42.493a3.1 3.1 0 0 1-1.29-.26 2.1 2.1 0 0 1-.897-.783q-.326-.522-.326-1.3 0-.654.232-1.099a1.9 1.9 0 0 1 .63-.716q.4-.27.907-.409.512-.138 1.074-.194.66-.072 1.064-.133.405-.067.586-.195a.43.43 0 0 0 .182-.378v-.03q0-.487-.295-.753-.291-.265-.828-.265-.567 0-.901.26a1.2 1.2 0 0 0-.444.645l-1.94-.164q.148-.716.58-1.238a2.8 2.8 0 0 1 1.119-.808q.69-.285 1.596-.286.63 0 1.207.154.58.153 1.03.475.453.322.714.829.26.5.26 1.201v5.299h-1.99v-1.09h-.058a2.2 2.2 0 0 1-.488.65 2.2 2.2 0 0 1-.734.434 3 3 0 0 1-.99.154m.6-1.504q.464 0 .819-.189a1.47 1.47 0 0 0 .556-.521q.202-.328.202-.742v-.834a1.1 1.1 0 0 1-.27.123 5 5 0 0 1-.38.097q-.211.041-.424.077l-.384.056a2.5 2.5 0 0 0-.645.18 1.04 1.04 0 0 0-.429.332.83.83 0 0 0-.153.511q0 .445.31.68.316.23.799.23Zm4.942 4.301v-10.8h2.07v1.319h.093a3 3 0 0 1 .399-.645 2.1 2.1 0 0 1 .69-.552q.428-.225 1.063-.225.828 0 1.528.45.7.445 1.118 1.345.419.895.419 2.245 0 1.314-.41 2.22-.403.9-1.103 1.365-.695.46-1.556.46-.611 0-1.04-.21a2.2 2.2 0 0 1-.694-.526 2.7 2.7 0 0 1-.414-.65h-.064v4.204h-2.1Zm2.054-6.873q0 .7.188 1.222.187.523.541.813.355.287.863.287.512 0 .867-.292.354-.297.536-.818a3.6 3.6 0 0 0 .188-1.212q0-.68-.182-1.197-.183-.516-.537-.808a1.33 1.33 0 0 0-.872-.291q-.513 0-.867.281-.351.281-.537.798-.188.516-.188 1.217m6.378 6.873v-10.8h2.069v1.319h.093a3 3 0 0 1 .4-.645 2.1 2.1 0 0 1 .69-.552q.428-.225 1.063-.225.827 0 1.527.45.7.445 1.119 1.345.418.895.418 2.245 0 1.314-.409 2.22-.404.9-1.103 1.365-.694.46-1.557.46-.61 0-1.04-.21a2.2 2.2 0 0 1-.694-.526 2.7 2.7 0 0 1-.414-.65h-.064v4.204zm2.054-6.873q0 .7.187 1.222c.187.522.306.62.542.813q.355.287.862.287.512 0 .867-.292.355-.297.537-.818.187-.527.187-1.212 0-.68-.182-1.197-.181-.516-.537-.808-.354-.291-.872-.291-.512 0-.867.281-.35.281-.537.798-.187.516-.187 1.217m6.377 3.928v-7.856h2.035v1.371h.079q.207-.732.694-1.105.489-.378 1.124-.378a3 3 0 0 1 .66.077v1.933a3 3 0 0 0-.41-.082 4 4 0 0 0-.477-.036q-.463 0-.828.21-.36.204-.571.572a1.7 1.7 0 0 0-.207.85v4.444zm8.396.153q-1.148 0-1.985-.506a3.4 3.4 0 0 1-1.286-1.422q-.453-.915-.453-2.122 0-1.217.453-2.128a3.4 3.4 0 0 1 1.286-1.422q.837-.51 1.985-.51t1.98.51q.839.507 1.291 1.422.454.91.453 2.128 0 1.207-.453 2.122a3.4 3.4 0 0 1-1.29 1.422q-.833.506-1.98.506Zm.01-1.688q.522 0 .872-.306.35-.312.527-.85.182-.536.182-1.222t-.182-1.222q-.177-.536-.527-.849t-.872-.312q-.527 0-.887.312-.354.312-.536.85a3.9 3.9 0 0 0-.178 1.221q0 .686.178 1.223.182.536.536.849.36.306.887.306m11.543-6.32-2.646 7.855h-2.364l-2.646-7.856h2.217l1.572 5.62h.079l1.566-5.62h2.222Zm3.931 8.008q-1.167 0-2.01-.49a3.3 3.3 0 0 1-1.29-1.402q-.454-.91-.454-2.153 0-1.212.454-2.128a3.43 3.43 0 0 1 1.276-1.427q.827-.51 1.94-.51.75 0 1.395.25.649.244 1.133.741.488.496.758 1.248.27.746.271 1.75v.597h-6.389v-1.35h4.414a1.7 1.7 0 0 0-.197-.833 1.44 1.44 0 0 0-.547-.568q-.345-.21-.803-.21a1.57 1.57 0 0 0-1.419.84 1.8 1.8 0 0 0-.212.843v1.284q0 .582.207 1.007.213.424.596.655.385.23.912.23.35 0 .64-.102.291-.103.498-.307a1.34 1.34 0 0 0 .315-.502l1.94.133q-.147.727-.605 1.269a3.04 3.04 0 0 1-1.173.838q-.714.297-1.65.297m7.284-.026a2.8 2.8 0 0 1-1.562-.46q-.694-.465-1.103-1.365-.404-.906-.404-2.22 0-1.35.419-2.245.419-.9 1.113-1.345.7-.45 1.532-.45.636 0 1.06.225.428.22.689.552.266.328.404.645h.064V31.87h2.094v10.474h-2.07v-1.258h-.088a2.8 2.8 0 0 1-.419.649 2.1 2.1 0 0 1-.694.527q-.424.21-1.035.21m.665-1.733q.507 0 .857-.287.355-.291.542-.813.192-.522.192-1.222t-.187-1.217-.542-.798a1.34 1.34 0 0 0-.862-.281 1.33 1.33 0 0 0-.872.291q-.354.292-.537.808a3.6 3.6 0 0 0-.182 1.197q0 .685.182 1.212.188.522.537.818.355.292.872.292"/></svg>