<svg xmlns="http://www.w3.org/2000/svg" width="70" height="60" fill="none"><path fill="#000" d="M17.025 52.756v-3.025c0-1.14-.668-1.906-1.743-1.916a1.6 1.6 0 0 0-.886.197c-.279.156-.51.384-.67.66a1.7 1.7 0 0 0-.624-.647 1.5 1.5 0 0 0-.84-.21 1.37 1.37 0 0 0-.737.17c-.232.13-.425.318-.562.546v-.595H10v4.82h.973v-2.672c0-.837.427-1.28 1.084-1.28.64 0 .964.453.964 1.27v2.682h.973v-2.672c0-.837.445-1.28 1.084-1.28.658 0 .973.453.973 1.27v2.682zm14.4-4.82H29.85v-1.462h-.973v1.462h-.899v.958h.9v2.198c0 1.12.398 1.785 1.538 1.785.43 0 .85-.13 1.204-.373l-.278-.897a1.7 1.7 0 0 1-.853.272c-.481 0-.639-.323-.639-.807v-2.178h1.575zm8.22-.12a1.22 1.22 0 0 0-.672.177 1.37 1.37 0 0 0-.495.528v-.585h-.954v4.82h.963v-2.703c0-.796.315-1.24.946-1.24.207-.002.412.039.602.121l.297-.988a1.9 1.9 0 0 0-.687-.13m-12.427.503a3.1 3.1 0 0 0-1.807-.504c-1.121 0-1.844.585-1.844 1.543 0 .786.538 1.27 1.529 1.421l.454.071c.528.08.779.232.779.504 0 .374-.352.585-1.01.585a2.23 2.23 0 0 1-1.474-.504l-.454.817a3 3 0 0 0 1.918.625c1.28 0 2.02-.655 2.02-1.573 0-.847-.583-1.291-1.547-1.442l-.454-.07c-.417-.061-.75-.152-.75-.475 0-.353.314-.564.842-.564.49.009.967.152 1.381.413zm25.818-.504a1.2 1.2 0 0 0-.672.178 1.36 1.36 0 0 0-.495.528v-.585h-.954v4.82h.963v-2.703c0-.796.315-1.24.946-1.24.206-.003.41.038.602.121l.296-.988a1.9 1.9 0 0 0-.686-.13ZM40.62 50.346c0 1.462.935 2.531 2.363 2.531a2.2 2.2 0 0 0 1.594-.575l-.464-.847a1.85 1.85 0 0 1-1.158.434c-.77-.01-1.334-.615-1.334-1.543s.565-1.533 1.334-1.543c.425.008.834.16 1.158.434l.464-.847a2.2 2.2 0 0 0-1.594-.575c-1.428 0-2.363 1.069-2.363 2.531m9.026 0v-2.41h-.964v.585a1.7 1.7 0 0 0-.62-.538 1.56 1.56 0 0 0-.78-.168c-1.241 0-2.214 1.059-2.214 2.531s.973 2.531 2.215 2.531c.27.012.538-.046.778-.168.248-.126.461-.31.621-.538v.585h.964zm-3.587 0c0-.847.51-1.543 1.344-1.543.797 0 1.335.666 1.335 1.543s-.538 1.543-1.335 1.543c-.834 0-1.344-.696-1.344-1.543m-11.63-2.531c-1.297 0-2.206 1.029-2.206 2.531 0 1.533.946 2.531 2.271 2.531a2.56 2.56 0 0 0 1.816-.676l-.472-.776a2 2 0 0 1-1.288.505c-.621 0-1.187-.313-1.325-1.18h3.29c.008-.132.018-.263.018-.404-.01-1.502-.862-2.531-2.104-2.531m-.018.938c.62 0 1.02.423 1.121 1.17h-2.298c.102-.696.49-1.17 1.177-1.17m24.178 1.593V46h-.964v2.52a1.7 1.7 0 0 0-.62-.537 1.56 1.56 0 0 0-.78-.168c-1.241 0-2.214 1.059-2.214 2.531s.973 2.531 2.215 2.531c.27.012.538-.046.778-.168.248-.126.46-.31.621-.538v.585h.964zm1.126 1.966a.3.3 0 0 1 .111.023c.07.032.125.09.153.163.03.077.03.161 0 .238a.3.3 0 0 1-.153.163.27.27 0 0 1-.27-.026.3.3 0 0 1-.107-.137.33.33 0 0 1 0-.238.3.3 0 0 1 .153-.163.3.3 0 0 1 .113-.023m0 .543q.045 0 .085-.018a.2.2 0 0 0 .069-.051.25.25 0 0 0 .063-.169.25.25 0 0 0-.063-.168.207.207 0 0 0-.325.019.26.26 0 0 0-.04.219q.017.056.054.099.03.032.07.051a.2.2 0 0 0 .087.018m.017-.381a.12.12 0 0 1 .077.024.09.09 0 0 1 .027.067.08.08 0 0 1-.021.058.1.1 0 0 1-.062.028l.085.107h-.066l-.08-.106h-.025v.106h-.056v-.284zm-.065.053v.076h.064a.06.06 0 0 0 .035-.01.03.03 0 0 0 .013-.029q0-.007-.003-.016l-.01-.011a.06.06 0 0 0-.035-.01zm-4.664-2.181c0-.847.509-1.543 1.343-1.543.797 0 1.335.666 1.335 1.543s-.538 1.543-1.335 1.543c-.834 0-1.343-.696-1.343-1.543m-32.547 0v-2.41h-.964v.585a1.7 1.7 0 0 0-.62-.538 1.57 1.57 0 0 0-.779-.168c-1.242 0-2.215 1.059-2.215 2.531s.973 2.531 2.215 2.531c.27.012.538-.046.778-.168.248-.126.46-.31.621-.538v.585h.964zm-3.586 0c0-.847.509-1.543 1.344-1.543.796 0 1.334.666 1.334 1.543s-.538 1.543-1.334 1.543c-.835 0-1.344-.696-1.344-1.543"/><path fill="#FF5F00" d="M42.84 10.485H28.03v27h14.81z"/><path fill="#EB001B" d="M28.627 23.985a17.2 17.2 0 0 1 1.674-7.425A16.9 16.9 0 0 1 35 10.63a16.53 16.53 0 0 0-8.531-3.534c-3.117-.34-6.266.22-9.075 1.61a16.8 16.8 0 0 0-6.852 6.266A17.2 17.2 0 0 0 8 23.983c0 3.189.88 6.31 2.542 9.011a16.8 16.8 0 0 0 6.852 6.266 16.43 16.43 0 0 0 9.075 1.61A16.53 16.53 0 0 0 35 37.337a16.9 16.9 0 0 1-4.699-5.93 17.2 17.2 0 0 1-1.674-7.423Z"/><path fill="#F79E1B" d="M61.999 23.985a17.2 17.2 0 0 1-2.541 9.01 16.8 16.8 0 0 1-6.852 6.265 16.43 16.43 0 0 1-9.075 1.61A16.53 16.53 0 0 1 35 37.337a16.9 16.9 0 0 0 4.696-5.93 17.2 17.2 0 0 0 1.678-7.423c0-2.572-.574-5.11-1.678-7.422A16.9 16.9 0 0 0 35 10.632a16.53 16.53 0 0 1 8.532-3.535 16.43 16.43 0 0 1 9.074 1.61 16.8 16.8 0 0 1 6.852 6.267A17.2 17.2 0 0 1 62 23.984zM60.673 34.87v-.722h.269v-.147h-.684v.147h.268v.722zm1.327 0V34h-.21l-.24.598-.242-.598h-.21v.87h.15v-.656l.224.566h.154l.227-.569v.659z"/></svg>