<svg xmlns="http://www.w3.org/2000/svg" width="127" height="51" fill="none"><path fill="#C01818" fill-rule="evenodd" d="m68.425 19.366-2.678-1.528-.189.306c-.604.917-1.433 1.413-2.49 1.375-1.772 0-3.13-1.299-3.13-3.018 0-1.72 1.357-2.981 3.13-2.981 1.057 0 1.849.459 2.49 1.414l.188.306 2.716-1.529-.226-.344c-1.283-1.796-2.98-2.674-5.13-2.674-4.111 0-6.337 3.018-6.337 5.846 0 2.827 2.226 5.846 6.337 5.846 2.113 0 4.074-1.032 5.168-2.674zm7.46-6.052 1.446 3.765h-2.93l1.484-3.764zm-7.423 9.647h3.616l1.066-2.705h5.406L79.615 23h3.617L76.799 7H73.6l.876 2.118-6.015 13.843Zm15.507-.576h3.053v-6.917h2.01v-2.91h-2.01v-1.361c0-.605.386-1.21 1.12-1.21.388 0 .62.076.851.19l.348.15 1.275-2.835-.347-.15C89.689 7.113 88.916 7 88.337 7c-1.392 0-2.552.454-3.324 1.323-.696.755-1.044 1.814-1.044 2.986v1.247h-1.353v2.911h1.353zM42 7.001v15.384h3.441v-8.807l3.328 2.42 3.329-2.42v8.807h3.441V7.001l-6.77 5.027zm52.54 8.086c.414-1.07 1.279-1.68 2.406-1.68 1.129 0 2.03.61 2.52 1.68zm2.707-4.394c-3.91 0-6.015 3.018-6.015 5.846 0 2.827 2.105 5.846 6.015 5.846 1.805-.038 3.459-.84 4.775-2.331l-2.519-1.413c-.639.687-1.429 1.032-2.293 1.032-1.278 0-2.406-.88-2.707-1.987h8.421v-.765c0-4.318-3.308-6.228-5.677-6.228m9.601 4.394c.414-1.07 1.278-1.68 2.406-1.68s2.03.61 2.52 1.68zm2.707-4.394c-3.91 0-6.015 3.018-6.015 5.846 0 2.827 2.105 5.846 6.015 5.846 1.805-.038 3.459-.84 4.775-2.331l-2.519-1.413c-.639.687-1.428 1.032-2.293 1.032-1.279 0-2.406-.88-2.707-1.987h8.422v-.765c-.038-4.318-3.347-6.228-5.678-6.228m5.678-1.231h1.23v.29h-.473v1.556h-.284V9.752h-.473z" clip-rule="evenodd"/><path fill="#BD2E2B" fill-rule="evenodd" d="M14.377 32.323V17.29l9.14 4.38v-7.226L8 7v29.557L23.516 44v-7.225z" clip-rule="evenodd"/><path fill="#75160D" fill-rule="evenodd" d="M32.656 32.323V17.29l-9.14 4.38v-7.226L39.034 7v29.557L23.516 44v-7.225z" clip-rule="evenodd"/><path fill="#000" d="M50.697 31.156q-.081-.816-.695-1.269-.615-.451-1.666-.452-.716 0-1.208.203-.492.195-.756.546-.256.352-.256.796-.015.372.155.648.176.277.479.48.303.195.702.343.398.143.85.243l1.241.297a8.8 8.8 0 0 1 1.66.54q.755.337 1.31.83.553.492.856 1.16.31.669.317 1.532-.006 1.269-.648 2.2-.633.924-1.835 1.437-1.194.506-2.88.506-1.674 0-2.916-.513-1.234-.513-1.93-1.518-.687-1.013-.721-2.503h2.827q.047.695.398 1.16.357.46.951.695.6.23 1.356.23.742 0 1.29-.216.552-.216.856-.601.303-.384.304-.884 0-.465-.277-.782-.27-.318-.796-.54a8 8 0 0 0-1.275-.405l-1.505-.378q-1.748-.424-2.76-1.33-1.012-.903-1.005-2.435-.007-1.254.668-2.193.681-.938 1.869-1.464t2.699-.526q1.538 0 2.685.526 1.155.527 1.795 1.464.641.938.661 2.173zM55.651 41V27.182h9.311v2.409h-6.39v3.292h5.911v2.409h-5.91v3.3h6.416V41zm23.826-8.98h-2.955a2.9 2.9 0 0 0-.33-1.02 2.6 2.6 0 0 0-.642-.768 2.8 2.8 0 0 0-.904-.486 3.5 3.5 0 0 0-1.1-.169q-1.072 0-1.869.533-.796.526-1.234 1.538-.44 1.005-.439 2.443 0 1.478.439 2.483.445 1.005 1.241 1.518t1.842.513q.587 0 1.086-.155.507-.156.898-.453.391-.303.647-.735.264-.432.365-.985l2.955.014a5.52 5.52 0 0 1-1.795 3.407 5.8 5.8 0 0 1-1.821 1.093q-1.053.398-2.382.398-1.85 0-3.306-.837-1.45-.836-2.294-2.422-.837-1.586-.837-3.84 0-2.26.85-3.845t2.308-2.416q1.457-.836 3.279-.836 1.2 0 2.226.337a5.7 5.7 0 0 1 1.829.985q.795.642 1.295 1.572.507.931.648 2.133m10.63-4.838h2.922v8.974q0 1.511-.722 2.644-.716 1.134-2.004 1.768-1.29.628-3.003.628-1.72 0-3.009-.628-1.288-.634-2.004-1.768-.715-1.133-.715-2.644v-8.974h2.922v8.724q0 .79.344 1.403.35.614.985.965.634.351 1.477.351.85 0 1.478-.35.635-.352.978-.966.351-.614.351-1.403zM95.432 41V27.182h5.452q1.566 0 2.672.56 1.113.554 1.694 1.572.587 1.012.587 2.382 0 1.376-.594 2.368-.594.985-1.721 1.511-1.12.527-2.712.527h-3.65v-2.348h3.178q.836 0 1.39-.23.552-.23.823-.688.276-.459.276-1.14 0-.69-.276-1.16-.27-.473-.83-.716-.554-.25-1.397-.25h-1.97V41zm7.463-6.288L106.329 41h-3.225l-3.36-6.288zM107.901 41V27.182h9.311v2.409h-6.389v3.292h5.91v2.409h-5.91v3.3h6.416V41z"/></svg>