<svg width="14" height="13" viewBox="0 0 14 13" fill="none" xmlns="http://www.w3.org/2000/svg">
<path fill-rule="evenodd" clip-rule="evenodd" d="M6.36676 1.73958C6.0663 0.567387 5.14229 -0.193129 4.30228 0.0430425C3.46335 0.278131 3.02396 1.42107 3.32443 2.59327C3.62489 3.76546 4.5489 4.52489 5.38891 4.2898C6.22891 4.05472 6.66723 2.91286 6.36676 1.73958Z" fill="#474CE6"/>
<path fill-rule="evenodd" clip-rule="evenodd" d="M9.69772 0.0430425C8.85771 -0.193129 7.9337 0.566304 7.63323 1.73958C7.33277 2.91286 7.77108 4.05363 8.61109 4.2898C9.4511 4.52598 10.3762 3.76546 10.6756 2.59327C10.975 1.42107 10.5377 0.279214 9.69772 0.0430425Z" fill="#474CE6"/>
<path fill-rule="evenodd" clip-rule="evenodd" d="M11.8408 7.53988C12.6808 7.77605 13.6048 7.01661 13.9053 5.84334C14.2058 4.67006 13.7674 3.52929 12.9274 3.29311C12.0874 3.05694 11.1634 3.81638 10.863 4.98965C10.5636 6.16185 11.0008 7.3037 11.8408 7.53988Z" fill="#474CE6"/>
<path fill-rule="evenodd" clip-rule="evenodd" d="M7.82278 12.1864C8.3677 12.584 9.12048 13 9.87218 13C10.696 13 11.3077 12.3749 11.3077 11.4833C11.3077 8.4499 9.04725 5.4165 7 5.4165C4.95275 5.4165 2.69227 8.4499 2.69227 11.4833C2.69227 12.3749 3.30396 13 4.12782 13C4.88059 13 5.63229 12.584 6.1783 12.1864C6.67692 11.8246 7.32416 11.8246 7.82278 12.1864Z" fill="#474CE6"/>
<path fill-rule="evenodd" clip-rule="evenodd" d="M1.07256 3.29311C0.23255 3.5282 -0.205762 4.67006 0.0947027 5.84334C0.39409 7.01661 1.31918 7.77496 2.15918 7.53988C2.99919 7.30479 3.4375 6.16293 3.13704 4.98965C2.83657 3.81746 1.91257 3.05803 1.07256 3.29311Z" fill="#474CE6"/>
</svg>
