<svg xmlns="http://www.w3.org/2000/svg" width="25" height="25" fill="none" viewBox="0 0 25 25">
  <path fill="#82B92E" d="M12.034.004h4.482c.948 0 1.327.457 1.172 1.396-.258 1.612-.517 3.224-.75 4.844-.06.423-.241.595-.672.595-2.87-.009-5.74-.009-8.61 0-.415 0-.596-.181-.656-.577-.241-1.733-.5-3.457-.75-5.19C6.164.444 6.595.013 7.328.005c1.577-.009 3.146 0 4.706 0Zm-.06 7.663h4.086c.543 0 .638.112.551.637-.095.655-.207 1.302-.293 1.957-.069.465-.293.793-.741.974a9.586 9.586 0 0 1-4.025.69 11.407 11.407 0 0 1-2.698-.457c-.845-.25-1.302-.75-1.328-1.664-.008-.465-.137-.93-.206-1.396-.087-.604.017-.724.603-.724 1.353-.018 2.706-.018 4.051-.018Zm6.568 14.678c0 1.07-.897 2.138-2.095 2.474-1.543.431-2.922.052-4.154-.914-.233-.18-.32-.224-.57-.017-1.24 1.026-2.654 1.37-4.223.914-1.172-.336-1.99-1.353-2.025-2.474.155.112.293.207.43.31.923.638 2.035.647 2.992.026.456-.302.836-.698 1.267-1.034.663-.534 1.043-.526 1.646.077.172.173.258.181.44.01.646-.63 1.008-.63 1.697-.035.302.258.595.534.914.784 1.112.853 2.258.862 3.405.06.069-.069.164-.112.276-.18Z"/>
  <path fill="#82B92E" d="M12.052 14.303c-2.776.087-5.241-.905-7.568-2.318-.285-.172-.5-.388-.483-.75.017-.638.577-.94 1.164-.603.706.405 1.387.862 2.146 1.172 3.784 1.534 7.438 1.31 10.947-.836.198-.12.387-.242.594-.336.474-.233.802-.147 1.043.25.216.353.12.767-.284 1.043a13.39 13.39 0 0 1-2.138 1.189c-1.732.733-3.5 1.276-5.421 1.19Zm5.576 3.371c0 1.293-1 2.379-2.284 2.465-1.233.086-2.362-.845-2.56-2.086-.035-.19.06-.465-.233-.543-.405-.103-.827-.155-1.207.078-.155.086-.103.284-.129.44-.18 1.068-.896 1.835-1.93 2.06-.932.197-1.957-.216-2.483-1-.569-.845-.578-2.035 0-2.836.543-.759 1.31-1.138 2.232-1.052.923.086 1.604.603 2.009 1.44.112.232.198.284.44.232a2.547 2.547 0 0 1 1.111 0c.207.052.293 0 .388-.198.517-1.13 1.603-1.664 2.784-1.405 1.095.233 1.853 1.215 1.862 2.405ZM8.733 19.5c1.086.009 1.887-.758 1.896-1.801.017-1.07-.802-1.914-1.845-1.922-.965 0-1.827.87-1.827 1.87-.008.983.828 1.853 1.776 1.853Zm4.646-1.836c0 1.086.767 1.836 1.887 1.845.931 0 1.759-.854 1.759-1.819 0-1.034-.82-1.888-1.828-1.896-1.008-.026-1.81.81-1.818 1.87Z"/>
</svg>
