<svg xmlns="http://www.w3.org/2000/svg" width="20" height="20" fill="none" viewBox="0 0 20 20">
  <g clip-path="url(#a)">
    <path fill="#2C2C24" d="m18.716 6.75-5.77-5.53a4.188 4.188 0 0 0-5.88-.012L1.284 6.75A4.19 4.19 0 0 0 0 9.757v6.077A4.172 4.172 0 0 0 4.167 20h11.666A4.172 4.172 0 0 0 20 15.834V9.757a4.188 4.188 0 0 0-1.284-3.007ZM8.232 2.4a2.51 2.51 0 0 1 3.549.013L17.403 7.8l-5.635 5.636a2.562 2.562 0 0 1-3.536 0L2.596 7.8l5.636-5.4Zm10.101 13.434a2.5 2.5 0 0 1-2.5 2.5H4.167a2.5 2.5 0 0 1-2.5-2.5V9.758c0-.162.017-.323.049-.482l5.338 5.338a4.186 4.186 0 0 0 5.892 0l5.338-5.338c.032.159.049.32.05.482v6.077Z"/>
  </g>
  <defs>
    <clipPath id="a">
      <path fill="#fff" d="M0 0h20v20H0z"/>
    </clipPath>
  </defs>
</svg>
