<svg xmlns="http://www.w3.org/2000/svg" width="20" height="24" fill="none" viewBox="0 0 20 24">
  <path fill="#2C2C24" d="M7.604 11.738c0-.35-.065-.732-.268-1.026-.408-.588-1.283-.775-1.892-.405-.308.188-.479.515-.575.851-.192.668-.104 1.43.03 2.1.043.214.087.428.147.639.022.076.032.186.081.25.086.11.297.142.426.12.387-.065.29-.702.278-.973-.031-.635-.218-1.251-.037-1.882.077-.267.225-.568.495-.684.243-.105.489.024.585.261.156.386.117.83.215 1.231.034.136.07.271.132.398.017.037.042.113.093.108.126-.01.304-.22.398-.298.304-.25.616-.52.965-.705.165-.088.435-.229.603-.08a.614.614 0 0 1 .108.13c.198.31.002.551-.127.845-.166.381-.336.758-.577 1.098-.207.293-.49.55-.655.869-.107.205-.167.431-.123.663.036.188.181.301.373.257.143-.033.24-.155.322-.269.146-.202.281-.412.426-.615.28-.393.61-.76.846-1.182a3.41 3.41 0 0 0 .42-1.665c0-.474-.171-1.198-.723-1.297a.974.974 0 0 0-.326.01 1.431 1.431 0 0 0-.374.12 2.714 2.714 0 0 0-.818.636c-.146.16-.276.363-.449.495"/>
  <path fill="#2C2C24" d="M7.083.017c-.435.057-.877.051-1.314.119-.838.129-1.64.39-2.425.703a13.57 13.57 0 0 0-.845.376c-.103.05-.26.09-.343.17-.043.042-.038.14-.044.195-.014.157-.034.314-.05.47-.058.606-.099 1.23-.012 1.834.028.196.088.55.329.588.369.057.656-.397.837-.648.424-.586.905-1.132 1.6-1.394.817-.309 1.753-.382 2.617-.44 2.426-.167 5.078.276 6.865 2.063.254.254.494.524.699.82.8 1.16 1.223 2.477 1.427 3.86.096.65.161 1.308.013 1.955-.257 1.123-.931 2.1-1.706 2.932a13.343 13.343 0 0 1-1.748 1.551c-.347.261-.736.483-1.062.768a4.26 4.26 0 0 0-.925 1.18c-.64 1.18-.81 2.601-.623 3.92.039.27.074.542.135.808.018.08.022.217.073.282.097.122.36.189.508.196.153.008.256-.11.293-.249.065-.236.026-.498-.011-.736-.077-.486-.147-.977-.125-1.471a3.71 3.71 0 0 1 1.025-2.425c.644-.673 1.513-1.06 2.244-1.624 1.473-1.136 2.793-2.669 3.3-4.492a5.194 5.194 0 0 0 .159-2.015c-.105-.85-.416-1.697-.708-2.497-.892-2.438-2.421-4.756-4.85-5.872C11.45.502 10.443.3 9.4.155 8.91.087 8.42.045 7.928.023c-.274-.012-.572-.042-.845-.006"/>
  <path fill="#2C2C24" d="M3.285 15.796c-.474.068-.611.447-.524.876.112.547.543.965.97 1.295a6.029 6.029 0 0 0 3.884 1.238c.538-.023 1.124-.112 1.617-.34.264-.122.541-.563.18-.751a.586.586 0 0 0-.168-.051c-.157-.026-.333.041-.483.084-.262.075-.525.153-.796.196-.808.13-1.683-.055-2.352-.534-.541-.387-.98-.898-1.392-1.415-.253-.316-.482-.663-.937-.598m-.614 2.678c-.12.016-.259.012-.362.087-.215.158.022.476.135.62.328.417.76.763 1.192 1.068a7.83 7.83 0 0 0 4.029 1.442c.421.03.85 0 1.267-.07.152-.026.341-.037.482-.103.398-.186.283-.939-.072-1.106-.156-.073-.405.023-.567.046-.385.054-.771.06-1.158.05-1.015-.025-2.096-.338-2.98-.83a5.586 5.586 0 0 1-.965-.694c-.182-.16-.368-.42-.604-.502-.11-.037-.284-.023-.398-.008m.238 2.256a.638.638 0 0 0-.413.236c-.078.088-.152.167-.196.278-.246.609.41 1.183.863 1.471.504.32 1.055.557 1.616.757 1.266.45 2.751.739 4.066.336.39-.12.777-.338 1.06-.634.161-.167.27-.419-.023-.526-.174-.063-.385.098-.543.162-.372.15-.758.264-1.158.312-.526.064-1-.052-1.508-.179-.433-.108-.871-.217-1.29-.373a4.46 4.46 0 0 1-1.026-.513c-.093-.066-.205-.125-.282-.211-.25-.282-.439-.612-.707-.88-.116-.116-.281-.256-.459-.236"/>
</svg>
