<svg xmlns="http://www.w3.org/2000/svg" width="20" height="20" fill="none" viewBox="0 0 20 20">
  <g clip-path="url(#a)">
    <path fill="#2C2C24" d="M14.166 6.667H5.833v-.833a4.167 4.167 0 0 1 7.812-2.018.833.833 0 1 0 1.458-.81A5.833 5.833 0 0 0 4.166 5.835v1.187a4.167 4.167 0 0 0-2.5 3.813v5a4.172 4.172 0 0 0 4.167 4.167h8.333a4.171 4.171 0 0 0 4.167-4.167v-5a4.172 4.172 0 0 0-4.167-4.167Zm2.5 9.167a2.5 2.5 0 0 1-2.5 2.5H5.833a2.5 2.5 0 0 1-2.5-2.5v-5a2.5 2.5 0 0 1 2.5-2.5h8.333a2.5 2.5 0 0 1 2.5 2.5v5Z"/>
    <path fill="#2C2C24" d="M10 11.667a.833.833 0 0 0-.834.834v1.666a.833.833 0 0 0 1.667 0v-1.666a.833.833 0 0 0-.834-.834Z"/>
  </g>
  <defs>
    <clipPath id="a">
      <path fill="#fff" d="M0 0h20v20H0z"/>
    </clipPath>
  </defs>
</svg>
