<svg xmlns="http://www.w3.org/2000/svg" width="24" height="25" fill="none" viewBox="0 0 24 25">
  <path fill="#FF8C00" d="M19.083 15.715c.417.16.578.786.61 1.058.064.498-.08.69-.24.69-.161 0-.386-.192-.626-.577-.24-.385-.337-.818-.208-1.043.08-.144.255-.208.464-.128Zm-2.437 1.813c.256 0 .545.112.802.336.497.417.641.898.385 1.251a.845.845 0 0 1-.658.289c-.273 0-.561-.097-.753-.273-.45-.385-.578-1.027-.29-1.38.113-.144.29-.224.514-.224Zm-5.613 4.634C4.94 22.162 0 17.222 0 11.129 0 5.035 4.94.096 11.033.096c6.094 0 11.033 4.94 11.033 11.033a11.1 11.1 0 0 1-1.555 5.66c-.032.049-.113.033-.128-.032-.385-2.71-2.037-4.201-4.442-4.65-.21-.032-.241-.16.031-.192.738-.065 1.78-.049 2.326.048a7.303 7.303 0 0 0-7.249-8.147 7.303 7.303 0 0 0-7.297 7.297 7.303 7.303 0 0 0 7.297 7.297h.337a9.85 9.85 0 0 1-.145-1.973c.017-.45.113-.514.305-.16 1.01 1.747 2.454 3.319 5.276 3.945 2.31.513 4.619 1.106 7.104 4.265.225.273-.112.561-.368.337-2.534-2.245-4.843-2.983-6.944-2.983-2.358.016-3.96.321-5.58.321Z"/>
</svg>
