<svg xmlns="http://www.w3.org/2000/svg" width="25" height="25" fill="none" viewBox="0 0 25 25">
  <path fill="#036CB5" d="M12.44.19c1.95 0 3.807.447 5.472 1.246.261.118.524.259.784.4l-1.142 1.012-1.711-1.764-2.95 2.586-1.737-1.858-5.423 4.821 3.472 3.786-1.356 1.176 3.426 3.786-1.355 1.175 4.9 5.385 2.9-2.634 2.523 2.823c-.5.376-1.047.753-1.64 1.082a12.543 12.543 0 0 1-6.138 1.598C5.589 24.81 0 19.285 0 12.49-.024 5.74 5.566.19 12.44.19Zm-2.284 11.546 2.974-2.634 2.665 2.94-2.974 2.633-2.665-2.939Zm2.118 5.08 2.95-2.657 2.688 2.939-2.974 2.634-2.664-2.916ZM8.041 6.728l2.972-2.634 2.665 2.94-2.974 2.633-2.663-2.94Zm5.446-1.412 2.212-1.975 1.999 2.187-2.212 1.999-1.999-2.21Zm3.95 9.054 2.21-1.976 2 2.21-2.213 1.977-1.998-2.211Zm1.95 4.445 2.212-1.976 1.997 2.187-2.212 1.998-1.997-2.21Zm.904-10.16 1.474-1.317 1.332 1.459-1.475 1.316-1.331-1.458Zm-1.904-4.35 1.475-1.34 1.333 1.481-1.476 1.317-1.332-1.458Zm3.782 8.701 1.475-1.317L25 13.147l-1.498 1.317-1.332-1.458Zm-6.636-3.269 2.213-1.975 1.997 2.187-2.211 1.975-1.999-2.187Z"/>
</svg>
