<svg width="20" height="23" viewBox="0 0 20 23" fill="none" xmlns="http://www.w3.org/2000/svg" class="inline-svg">
    <g filter="url(#filter0_d_1_1406)">
        <path fill-rule="evenodd" clip-rule="evenodd" d="M20 10C20 4.47715 15.5228 2.41411e-07 10 0C4.47715 -2.41411e-07 2.41411e-07 4.47715 0 10C-2.41411e-07 15.5228 4.47715 20 10 20C15.5228 20 20 15.5228 20 10ZM6 9.25C5.58579 9.25 5.25 9.58579 5.25 10C5.25 10.4142 5.58579 10.75 6 10.75H12.9362C12.9251 10.7642 12.9137 10.7787 12.9018 10.7935C12.6427 11.1161 12.2573 11.4997 11.6824 12.0695L10.272 13.4673C9.97784 13.7589 9.97573 14.2338 10.2673 14.528C10.5589 14.8222 11.0338 14.8243 11.328 14.5327L12.7691 13.1043C13.3053 12.573 13.7525 12.1298 14.0713 11.7328C14.4057 11.3163 14.6601 10.8787 14.7281 10.3455C14.7427 10.2308 14.75 10.1154 14.75 10C14.75 9.8846 14.7427 9.76921 14.7281 9.65451C14.6601 9.12131 14.4057 8.68367 14.0713 8.26724C13.7525 7.87022 13.3053 7.42704 12.7691 6.89566L11.328 5.46731C11.0338 5.17573 10.5589 5.17784 10.2673 5.47204C9.97573 5.76624 9.97784 6.24111 10.272 6.53269L11.6824 7.93054C12.2573 8.50033 12.6427 8.88386 12.9018 9.20649C12.9137 9.22128 12.9251 9.23579 12.9362 9.25H6Z" fill="url(#paint0_linear_1_1406)"/>
    </g>
    <defs>
        <filter id="filter0_d_1_1406" x="0" y="0" width="20" height="23" filterUnits="userSpaceOnUse" color-interpolation-filters="sRGB">
            <feFlood flood-opacity="0" result="BackgroundImageFix"/>
            <feColorMatrix in="SourceAlpha" type="matrix" values="0 0 0 0 0 0 0 0 0 0 0 0 0 0 0 0 0 0 127 0" result="hardAlpha"/>
            <feOffset dy="3"/>
            <feComposite in2="hardAlpha" operator="out"/>
            <feColorMatrix type="matrix" values="0 0 0 0 0.178072 0 0 0 0 0.205659 0 0 0 0 0.443333 0 0 0 0.5 0"/>
            <feBlend mode="normal" in2="BackgroundImageFix" result="effect1_dropShadow_1_1406"/>
            <feBlend mode="normal" in="SourceGraphic" in2="effect1_dropShadow_1_1406" result="shape"/>
        </filter>
        <linearGradient id="paint0_linear_1_1406" x1="11.035" y1="-1.32414e-06" x2="11.035" y2="20" gradientUnits="userSpaceOnUse">
            <stop stop-color="white"/>
            <stop offset="0.3" stop-color="#AFB5EA"/>
            <stop offset="0.6" stop-color="#EFF0FA"/>
            <stop offset="1" stop-color="white"/>
            <stop offset="1" stop-color="white"/>
        </linearGradient>
    </defs>
</svg>