<svg xmlns="http://www.w3.org/2000/svg" width="20" height="21" viewBox="0 0 20 21" fill="none" class="inline-svg">
  <g filter="url(#filter0_d_1_179)">
    <path d="M16.3639 15.4545C16.3684 15.4001 16.3684 15.3454 16.3639 15.2909C16.3639 14.8087 16.1723 14.3462 15.8314 14.0053C15.4904 13.6643 15.0279 13.4727 14.5457 13.4727C14.0635 13.4727 13.601 13.6643 13.2601 14.0053C12.9191 14.3462 12.7275 14.8087 12.7275 15.2909C12.723 15.3454 12.723 15.4001 12.7275 15.4545C12.7275 15.9368 12.9191 16.3992 13.2601 16.7402C13.601 17.0812 14.0635 17.2727 14.5457 17.2727C15.0279 17.2727 15.4904 17.0812 15.8314 16.7402C16.1723 16.3992 16.3639 15.9368 16.3639 15.4545Z" fill="url(#paint0_linear_1_179)"/>
    <path d="M9.09118 15.4545C9.09569 15.4001 9.09569 15.3454 9.09118 15.2909C9.09118 14.8087 8.89962 14.3462 8.55864 14.0053C8.21767 13.6643 7.75521 13.4727 7.27299 13.4727C6.79078 13.4727 6.32832 13.6643 5.98735 14.0053C5.64637 14.3462 5.45481 14.8087 5.45481 15.2909C5.4503 15.3454 5.4503 15.4001 5.45481 15.4545C5.45481 15.9368 5.64637 16.3992 5.98735 16.7402C6.32832 17.0812 6.79078 17.2727 7.27299 17.2727C7.75521 17.2727 8.21767 17.0812 8.55864 16.7402C8.89962 16.3992 9.09118 15.9368 9.09118 15.4545Z" fill="url(#paint1_linear_1_179)"/>
    <path d="M2.27299 11.1364H0.909358C0.784174 11.1361 0.661388 11.1707 0.554813 11.2364C0.462201 11.2934 0.384597 11.3719 0.328483 11.4651C0.272369 11.5583 0.239374 11.6636 0.232255 11.7721C0.225137 11.8807 0.2441 11.9894 0.287562 12.0891C0.331024 12.1889 0.397723 12.2767 0.482085 12.3454C0.601071 12.447 0.75291 12.502 0.909358 12.5H3.18209C3.36291 12.5 3.53634 12.5718 3.6642 12.6997C3.79207 12.8276 3.8639 13.001 3.8639 13.1818C3.8639 13.3626 3.79207 13.5361 3.6642 13.6639C3.53634 13.7918 3.36291 13.8636 3.18209 13.8636H2.27299C2.09216 13.8636 1.91874 13.9355 1.79088 14.0633C1.66301 14.1912 1.59118 14.3646 1.59118 14.5454C1.59118 14.7263 1.66301 14.8997 1.79088 15.0276C1.91874 15.1554 2.09216 15.2273 2.27299 15.2273H4.78209C4.82119 14.7649 4.99151 14.3234 5.27299 13.9545C5.50825 13.6466 5.81071 13.3965 6.15731 13.2232C6.50391 13.0499 6.8855 12.958 7.27299 12.9545C7.8975 12.9521 8.50013 13.1844 8.96147 13.6053C9.42281 14.0263 9.70921 14.6052 9.7639 15.2273H12.0548C12.1082 14.6034 12.3937 14.0222 12.8549 13.5987C13.3162 13.1753 13.9196 12.9403 14.5457 12.9403C15.1719 12.9403 15.7753 13.1753 16.2365 13.5987C16.6977 14.0222 16.9833 14.6034 17.0366 15.2273H18.273C18.4857 15.2316 18.6931 15.1611 18.8592 15.0282C19.0253 14.8954 19.1396 14.7084 19.1821 14.5L19.7821 11.5C19.7774 11.479 19.7774 11.4573 19.7821 11.4364C19.795 11.3581 19.795 11.2783 19.7821 11.2L18.073 6.16363C17.9799 5.89617 17.8052 5.66462 17.5737 5.50155C17.3421 5.33848 17.0653 5.2521 16.7821 5.25454H15.1457L15.2457 4.52727C15.2702 4.33457 15.2534 4.13888 15.1966 3.95312C15.1398 3.76737 15.0443 3.59579 14.9162 3.44971C14.7882 3.30364 14.6306 3.1864 14.4539 3.10574C14.2772 3.02508 14.0854 2.98284 13.8912 2.98181H3.63663C3.4558 2.98181 3.28238 3.05365 3.15451 3.18151C3.02665 3.30938 2.95481 3.4828 2.95481 3.66363C2.95481 3.84446 3.02665 4.01788 3.15451 4.14575C3.28238 4.27361 3.4558 4.34545 3.63663 4.34545H4.77299C4.95382 4.34545 5.12725 4.41728 5.25511 4.54515C5.38298 4.67301 5.45481 4.84644 5.45481 5.02727C5.45481 5.2081 5.38298 5.38152 5.25511 5.50938C5.12725 5.63725 4.95382 5.70908 4.77299 5.70908H0.909358C0.729261 5.71144 0.557202 5.78403 0.429843 5.91139C0.302484 6.03875 0.229894 6.21081 0.22754 6.3909C0.227288 6.5632 0.293151 6.72902 0.411551 6.85418C0.529951 6.97935 0.691862 7.05432 0.863903 7.06363H3.18209C3.36291 7.06363 3.53634 7.13546 3.6642 7.26333C3.79207 7.3912 3.8639 7.56462 3.8639 7.74545C3.8639 7.92628 3.79207 8.0997 3.6642 8.22757C3.53634 8.35543 3.36291 8.42727 3.18209 8.42727H1.67299C1.52143 8.46036 1.38568 8.54415 1.28817 8.66481C1.19065 8.78546 1.1372 8.93577 1.13663 9.0909C1.13663 9.27173 1.20846 9.44515 1.33633 9.57302C1.4642 9.70089 1.63762 9.77272 1.81845 9.77272H2.27299C2.45382 9.77272 2.62725 9.84455 2.75511 9.97242C2.88298 10.1003 2.95481 10.2737 2.95481 10.4545C2.95481 10.6354 2.88298 10.8088 2.75511 10.9367C2.62725 11.0645 2.45382 11.1364 2.27299 11.1364ZM15.0003 6.5909H16.6548C16.7025 6.59162 16.7489 6.60678 16.7879 6.63436C16.8268 6.66195 16.8565 6.70067 16.873 6.74545L18.1821 10.6818H14.4548L15.0003 6.5909Z" fill="url(#paint2_linear_1_179)"/>
  </g>
  <defs>
    <filter id="filter0_d_1_179" x="0.227539" y="2.98181" width="19.5645" height="17.2909" filterUnits="userSpaceOnUse" color-interpolation-filters="sRGB">
      <feFlood flood-opacity="0" result="BackgroundImageFix"/>
      <feColorMatrix in="SourceAlpha" type="matrix" values="0 0 0 0 0 0 0 0 0 0 0 0 0 0 0 0 0 0 127 0" result="hardAlpha"/>
      <feOffset dy="3"/>
      <feComposite in2="hardAlpha" operator="out"/>
      <feColorMatrix type="matrix" values="0 0 0 0 0.178072 0 0 0 0 0.205659 0 0 0 0 0.443333 0 0 0 0.5 0"/>
      <feBlend mode="normal" in2="BackgroundImageFix" result="effect1_dropShadow_1_179"/>
      <feBlend mode="normal" in="SourceGraphic" in2="effect1_dropShadow_1_179" result="shape"/>
    </filter>
    <linearGradient id="paint0_linear_1_179" x1="11.0221" y1="2.98181" x2="11.0221" y2="17.2727" gradientUnits="userSpaceOnUse">
      <stop stop-color="white"/>
      <stop offset="0.3" stop-color="#AFB5EA"/>
      <stop offset="0.6" stop-color="#EFF0FA"/>
      <stop offset="1" stop-color="white"/>
      <stop offset="1" stop-color="white"/>
    </linearGradient>
    <linearGradient id="paint1_linear_1_179" x1="11.0221" y1="2.98181" x2="11.0221" y2="17.2727" gradientUnits="userSpaceOnUse">
      <stop stop-color="white"/>
      <stop offset="0.3" stop-color="#AFB5EA"/>
      <stop offset="0.6" stop-color="#EFF0FA"/>
      <stop offset="1" stop-color="white"/>
      <stop offset="1" stop-color="white"/>
    </linearGradient>
    <linearGradient id="paint2_linear_1_179" x1="11.0221" y1="2.98181" x2="11.0221" y2="17.2727" gradientUnits="userSpaceOnUse">
      <stop stop-color="white"/>
      <stop offset="0.3" stop-color="#AFB5EA"/>
      <stop offset="0.6" stop-color="#EFF0FA"/>
      <stop offset="1" stop-color="white"/>
      <stop offset="1" stop-color="white"/>
    </linearGradient>
  </defs>
</svg>