<svg xmlns="http://www.w3.org/2000/svg" width="20" height="23" viewBox="0 0 20 23" fill="none" class="inline-svg">
  <g filter="url(#filter0_d_1_166)">
    <path d="M10.6564 17.9187L2.49805 9.76037V11.427C2.49805 11.8687 2.67305 12.2937 2.98971 12.602L9.48138 19.0937C10.1314 19.7437 11.1897 19.7437 11.8397 19.0937L17.0147 13.9187C17.6647 13.2687 17.6647 12.2104 17.0147 11.5604L10.6564 17.9187Z" fill="url(#paint0_linear_1_166)"/>
    <path d="M9.48138 14.927C10.1314 15.577 11.1897 15.577 11.8397 14.927L17.0147 9.75203C17.6647 9.10203 17.6647 8.0437 17.0147 7.3937L10.523 0.902034C10.2064 0.593701 9.78138 0.418701 9.33971 0.418701H4.16471C3.24805 0.418701 2.49805 1.1687 2.49805 2.08537V7.26037C2.49805 7.70203 2.67305 8.12703 2.98971 8.43537L9.48138 14.927ZM6.03971 2.9187C6.61471 2.9187 7.08138 3.38537 7.08138 3.96037C7.08138 4.53537 6.61471 5.00203 6.03971 5.00203C5.46471 5.00203 4.99805 4.53537 4.99805 3.96037C4.99805 3.38537 5.46471 2.9187 6.03971 2.9187Z" fill="url(#paint1_linear_1_166)"/>
  </g>
  <defs>
    <filter id="filter0_d_1_166" x="2.49805" y="0.418701" width="15.0039" height="22.1625" filterUnits="userSpaceOnUse" color-interpolation-filters="sRGB">
      <feFlood flood-opacity="0" result="BackgroundImageFix"/>
      <feColorMatrix in="SourceAlpha" type="matrix" values="0 0 0 0 0 0 0 0 0 0 0 0 0 0 0 0 0 0 127 0" result="hardAlpha"/>
      <feOffset dy="3"/>
      <feComposite in2="hardAlpha" operator="out"/>
      <feColorMatrix type="matrix" values="0 0 0 0 0.178072 0 0 0 0 0.205659 0 0 0 0 0.443333 0 0 0 0.5 0"/>
      <feBlend mode="normal" in2="BackgroundImageFix" result="effect1_dropShadow_1_166"/>
      <feBlend mode="normal" in="SourceGraphic" in2="effect1_dropShadow_1_166" result="shape"/>
    </filter>
    <linearGradient id="paint0_linear_1_166" x1="10.7766" y1="0.4187" x2="10.7766" y2="19.5812" gradientUnits="userSpaceOnUse">
      <stop stop-color="white"/>
      <stop offset="0.3" stop-color="#AFB5EA"/>
      <stop offset="0.6" stop-color="#EFF0FA"/>
      <stop offset="1" stop-color="white"/>
      <stop offset="1" stop-color="white"/>
    </linearGradient>
    <linearGradient id="paint1_linear_1_166" x1="10.7766" y1="0.4187" x2="10.7766" y2="19.5812" gradientUnits="userSpaceOnUse">
      <stop stop-color="white"/>
      <stop offset="0.3" stop-color="#AFB5EA"/>
      <stop offset="0.6" stop-color="#EFF0FA"/>
      <stop offset="1" stop-color="white"/>
      <stop offset="1" stop-color="white"/>
    </linearGradient>
  </defs>
</svg>