<svg width="34" height="35" viewBox="0 0 34 35" fill="none" xmlns="http://www.w3.org/2000/svg" class="inline-svg">
    <circle cx="17" cy="17.5" r="17" fill="#616EDE"/>
    <g filter="url(#filter0_d_1_7389)">
        <path fill-rule="evenodd" clip-rule="evenodd" d="M17 27C22.5228 27 27 22.5228 27 17C27 11.4772 22.5228 7 17 7C11.4772 7 7 11.4772 7 17C7 22.5228 11.4772 27 17 27ZM14 16.25C13.5858 16.25 13.25 16.5858 13.25 17C13.25 17.4142 13.5858 17.75 14 17.75H20C20.4142 17.75 20.75 17.4142 20.75 17C20.75 16.5858 20.4142 16.25 20 16.25H14Z" fill="url(#paint0_linear_1_7389)"/>
    </g>
    <defs>
        <filter id="filter0_d_1_7389" x="7" y="7" width="20" height="23" filterUnits="userSpaceOnUse" color-interpolation-filters="sRGB">
            <feFlood flood-opacity="0" result="BackgroundImageFix"/>
            <feColorMatrix in="SourceAlpha" type="matrix" values="0 0 0 0 0 0 0 0 0 0 0 0 0 0 0 0 0 0 127 0" result="hardAlpha"/>
            <feOffset dy="3"/>
            <feComposite in2="hardAlpha" operator="out"/>
            <feColorMatrix type="matrix" values="0 0 0 0 0.178072 0 0 0 0 0.205659 0 0 0 0 0.443333 0 0 0 0.5 0"/>
            <feBlend mode="normal" in2="BackgroundImageFix" result="effect1_dropShadow_1_7389"/>
            <feBlend mode="normal" in="SourceGraphic" in2="effect1_dropShadow_1_7389" result="shape"/>
        </filter>
        <linearGradient id="paint0_linear_1_7389" x1="18.035" y1="7" x2="18.035" y2="27" gradientUnits="userSpaceOnUse">
            <stop stop-color="white"/>
            <stop offset="0.3" stop-color="#AFB5EA"/>
            <stop offset="0.6" stop-color="#EFF0FA"/>
            <stop offset="1" stop-color="white"/>
            <stop offset="1" stop-color="white"/>
        </linearGradient>
    </defs>
</svg>