<svg xmlns="http://www.w3.org/2000/svg" width="20" height="23" viewBox="0 0 20 23" fill="none" class="inline-svg">
  <g filter="url(#filter0_d_1_186)">
    <path d="M3.22534 3.22505L2.50034 2.50005C2.17951 4.74172 2.29201 3.95005 2.08367 5.41672L5.20867 5.20839L4.40451 4.40422C5.70014 3.10956 7.40461 2.30421 9.22747 2.12539C11.0503 1.94658 12.8788 2.40538 14.4013 3.4236C15.9238 4.44182 17.0462 5.95646 17.5771 7.70943C18.108 9.46241 18.0147 11.3453 17.313 13.0371C16.6113 14.729 15.3447 16.1252 13.7289 16.9879C12.1132 17.8505 10.2483 18.1262 8.45207 17.768C6.65582 17.4098 5.03935 16.4399 3.87811 15.0234C2.71687 13.607 2.0827 11.8317 2.08367 10.0001H0.417007C0.335784 12.5417 1.26756 15.0115 3.00735 16.8662C4.74714 18.7208 7.15243 19.8084 9.69409 19.8896C12.2357 19.9709 14.7056 19.0391 16.5602 17.2993C18.4149 15.5595 19.5025 13.1542 19.5837 10.6126C20.117 1.77089 9.41284 -2.96245 3.22534 3.22505Z" fill="url(#paint0_linear_1_186)"/>
    <path d="M5.26284 6.04172L4.07534 6.11672C3.09821 7.60228 2.71553 9.401 3.00331 11.1557C3.29109 12.9103 4.22828 14.4926 5.62874 15.5882C7.02921 16.6838 8.79051 17.2126 10.5629 17.0696C12.3352 16.9267 13.989 16.1223 15.1957 14.8164C16.4024 13.5104 17.0738 11.7984 17.0766 10.0203C17.0794 8.2422 16.4133 6.52809 15.2107 5.21838C14.008 3.90868 12.3568 3.09919 10.5849 2.95067C8.81299 2.80216 7.05005 3.32548 5.64617 4.41672C5.59617 4.41672 5.60867 4.41672 5.79617 4.62089C5.90939 4.73406 5.98761 4.87744 6.02149 5.03389C6.05537 5.19035 6.04347 5.35324 5.98721 5.50311C5.93096 5.65298 5.83273 5.78347 5.70427 5.87899C5.57581 5.9745 5.42256 6.031 5.26284 6.04172ZM11.2503 11.5251C11.1212 10.7417 10.2087 10.8334 9.70867 10.8334C9.04978 10.8481 8.41033 10.6096 7.922 10.167C7.43367 9.72438 7.13363 9.11138 7.08367 8.45422C7.05485 7.84333 7.25095 7.24306 7.63486 6.76701C8.01878 6.29095 8.56388 5.97214 9.16701 5.87089C9.16701 4.92505 9.11284 4.70422 9.41284 4.41255C9.52937 4.29671 9.67754 4.21791 9.83873 4.18604C9.99992 4.15418 10.1669 4.17067 10.3188 4.23346C10.4706 4.29624 10.6005 4.40251 10.6921 4.53891C10.7837 4.67531 10.833 4.83575 10.8337 5.00005V5.83339H12.0837C12.1931 5.8364 12.3009 5.86093 12.4008 5.90559C12.5008 5.95025 12.591 6.01416 12.6662 6.09367C12.7415 6.17318 12.8003 6.26673 12.8394 6.36899C12.8785 6.47125 12.8971 6.5802 12.8941 6.68964C12.8911 6.79907 12.8665 6.90684 12.8219 7.0068C12.7772 7.10675 12.7133 7.19693 12.6338 7.27218C12.5543 7.34743 12.4607 7.40629 12.3585 7.44539C12.2562 7.48449 12.1473 7.50306 12.0378 7.50005H9.58367C9.46123 7.49827 9.3399 7.52349 9.22831 7.57393C9.11672 7.62437 9.01761 7.69878 8.93805 7.79186C8.85849 7.88495 8.80042 7.99444 8.76797 8.11252C8.73553 8.2306 8.72951 8.35438 8.75034 8.47505C8.87951 9.25839 9.79201 9.16672 10.292 9.16672C10.9509 9.15203 11.5904 9.39054 12.0787 9.83313C12.567 10.2757 12.867 10.8887 12.917 11.5459C12.9458 12.1568 12.7497 12.757 12.3658 13.2331C11.9819 13.7092 11.4368 14.028 10.8337 14.1292C10.8337 15.0751 10.8878 15.2959 10.5878 15.5876C10.4713 15.7034 10.3231 15.7822 10.162 15.8141C10.0008 15.8459 9.83375 15.8294 9.68191 15.7667C9.53006 15.7039 9.40017 15.5976 9.30856 15.4612C9.21694 15.3248 9.1677 15.1644 9.16701 15.0001V14.1667H7.91701C7.80757 14.1637 7.6998 14.1392 7.59985 14.0945C7.4999 14.0499 7.40972 13.9859 7.33446 13.9064C7.25921 13.8269 7.20035 13.7334 7.16125 13.6311C7.12216 13.5289 7.10358 13.4199 7.10659 13.3105C7.1096 13.201 7.13413 13.0933 7.17879 12.9933C7.22345 12.8934 7.28736 12.8032 7.36687 12.7279C7.44638 12.6527 7.53994 12.5938 7.64219 12.5547C7.74445 12.5156 7.85341 12.497 7.96284 12.5001H10.417C10.5395 12.5018 10.6608 12.4766 10.7724 12.4262C10.884 12.3757 10.9831 12.3013 11.0626 12.2082C11.1422 12.1152 11.2003 12.0057 11.2327 11.8876C11.2652 11.7695 11.2712 11.6457 11.2503 11.5251Z" fill="url(#paint1_linear_1_186)"/>
  </g>
  <defs>
    <filter id="filter0_d_1_186" x="0.412109" y="0.415771" width="19.1904" height="22.4788" filterUnits="userSpaceOnUse" color-interpolation-filters="sRGB">
      <feFlood flood-opacity="0" result="BackgroundImageFix"/>
      <feColorMatrix in="SourceAlpha" type="matrix" values="0 0 0 0 0 0 0 0 0 0 0 0 0 0 0 0 0 0 127 0" result="hardAlpha"/>
      <feOffset dy="3"/>
      <feComposite in2="hardAlpha" operator="out"/>
      <feColorMatrix type="matrix" values="0 0 0 0 0.178072 0 0 0 0 0.205659 0 0 0 0 0.443333 0 0 0 0.5 0"/>
      <feBlend mode="normal" in2="BackgroundImageFix" result="effect1_dropShadow_1_186"/>
      <feBlend mode="normal" in="SourceGraphic" in2="effect1_dropShadow_1_186" result="shape"/>
    </filter>
    <linearGradient id="paint0_linear_1_186" x1="11.0006" y1="0.41577" x2="11.0006" y2="19.8945" gradientUnits="userSpaceOnUse">
      <stop stop-color="white"/>
      <stop offset="0.3" stop-color="#AFB5EA"/>
      <stop offset="0.6" stop-color="#EFF0FA"/>
      <stop offset="1" stop-color="white"/>
      <stop offset="1" stop-color="white"/>
    </linearGradient>
    <linearGradient id="paint1_linear_1_186" x1="11.0006" y1="0.41577" x2="11.0006" y2="19.8945" gradientUnits="userSpaceOnUse">
      <stop stop-color="white"/>
      <stop offset="0.3" stop-color="#AFB5EA"/>
      <stop offset="0.6" stop-color="#EFF0FA"/>
      <stop offset="1" stop-color="white"/>
      <stop offset="1" stop-color="white"/>
    </linearGradient>
  </defs>
</svg>