<svg xmlns="http://www.w3.org/2000/svg" width="20" height="23" viewBox="0 0 20 23" fill="none" class="inline-svg">
  <g filter="url(#filter0_d_1_172)">
    <path d="M17.3774 4.28824L13.2118 0.122578C13.1363 0.0469141 13.0321 0 12.9167 0H4.16668C3.24789 0 2.5 0.747461 2.5 1.66668V18.3334C2.5 19.2525 3.24789 20 4.16668 20H15.8334C16.7521 20 17.5 19.2525 17.5 18.3333V4.58332C17.5 4.46793 17.4531 4.36367 17.3774 4.28824ZM6.25 17.5C5.5607 17.5 5 16.9393 5 16.25C5 15.5607 5.5607 15 6.25 15C6.9393 15 7.5 15.5607 7.5 16.25C7.5 16.9393 6.9393 17.5 6.25 17.5ZM6.25 13.3333C5.5607 13.3333 5 12.7726 5 12.0833C5 11.394 5.5607 10.8333 6.25 10.8333C6.9393 10.8333 7.5 11.394 7.5 12.0833C7.5 12.7726 6.9393 13.3333 6.25 13.3333ZM8.75 9.16668H7.08332C6.85301 9.16668 6.66664 8.98031 6.66664 8.75V7.5H5.41664C5.18633 7.5 4.99996 7.31363 4.99996 7.08332V5.41664C4.99996 5.18633 5.18633 4.99996 5.41664 4.99996H6.66664V3.75C6.66664 3.51969 6.85301 3.33332 7.08332 3.33332H8.75C8.98031 3.33332 9.16668 3.51969 9.16668 3.75V5H10.4167C10.647 5 10.8334 5.18637 10.8334 5.41668V7.08336C10.8334 7.31367 10.647 7.50004 10.4167 7.50004H9.16668V8.75004C9.16668 8.98031 8.98031 9.16668 8.75 9.16668ZM14.5833 16.6667H9.58332C9.35301 16.6667 9.16664 16.4803 9.16664 16.25C9.16664 16.0197 9.35301 15.8333 9.58332 15.8333H14.5833C14.8136 15.8333 15 16.0197 15 16.25C15 16.4803 14.8136 16.6667 14.5833 16.6667ZM14.5833 12.5H9.58332C9.35301 12.5 9.16664 12.3136 9.16664 12.0833C9.16664 11.853 9.35301 11.6666 9.58332 11.6666H14.5833C14.8136 11.6666 15 11.853 15 12.0833C15 12.3136 14.8136 12.5 14.5833 12.5ZM14.1667 4.16668C13.7069 4.16668 13.3334 3.79273 13.3334 3.33336V1.42254L16.0775 4.16668H14.1667Z" fill="url(#paint0_linear_1_172)"/>
  </g>
  <defs>
    <filter id="filter0_d_1_172" x="2.5" y="0" width="15" height="23" filterUnits="userSpaceOnUse" color-interpolation-filters="sRGB">
      <feFlood flood-opacity="0" result="BackgroundImageFix"/>
      <feColorMatrix in="SourceAlpha" type="matrix" values="0 0 0 0 0 0 0 0 0 0 0 0 0 0 0 0 0 0 127 0" result="hardAlpha"/>
      <feOffset dy="3"/>
      <feComposite in2="hardAlpha" operator="out"/>
      <feColorMatrix type="matrix" values="0 0 0 0 0.178072 0 0 0 0 0.205659 0 0 0 0 0.443333 0 0 0 0.5 0"/>
      <feBlend mode="normal" in2="BackgroundImageFix" result="effect1_dropShadow_1_172"/>
      <feBlend mode="normal" in="SourceGraphic" in2="effect1_dropShadow_1_172" result="shape"/>
    </filter>
    <linearGradient id="paint0_linear_1_172" x1="10.7763" y1="-1.32414e-06" x2="10.7763" y2="20" gradientUnits="userSpaceOnUse">
      <stop stop-color="white"/>
      <stop offset="0.3" stop-color="#AFB5EA"/>
      <stop offset="0.6" stop-color="#EFF0FA"/>
      <stop offset="1" stop-color="white"/>
      <stop offset="1" stop-color="white"/>
    </linearGradient>
  </defs>
</svg>