<svg width="20" height="22" viewBox="0 0 20 22" fill="none" xmlns="http://www.w3.org/2000/svg">
  <g filter="url(#filter0_d_1_121)">
    <path fill-rule="evenodd" clip-rule="evenodd" d="M7.45513 1.35549C5.71534 1.86156 4.16862 2.88057 3.01701 4.27943C1.86541 5.67828 1.16246 7.39193 1 9.19654H5.11401C5.35251 6.4505 6.14868 3.78199 7.45385 1.35421L7.45513 1.35549ZM5.11401 10.8036H1C1.16212 12.6082 1.86477 14.3221 3.01615 15.7211C4.16753 17.1202 5.7141 18.1395 7.45385 18.6459C6.14868 16.2181 5.35251 13.5496 5.11401 10.8036ZM9.516 18.9892C7.95627 16.5175 7.00053 13.7133 6.72618 10.8036H13.1993C12.925 13.7133 11.9692 16.5175 10.4095 18.9892C10.1118 19.0036 9.81366 19.0036 9.516 18.9892ZM12.4729 18.6446C14.2125 18.1383 15.7589 17.1192 16.9103 15.7204C18.0617 14.3215 18.7644 12.608 18.9268 10.8036H14.8128C14.5743 13.5496 13.7781 16.2181 12.4729 18.6459V18.6446ZM14.8128 9.19654H18.9268C18.7647 7.39187 18.062 5.67805 16.9106 4.27896C15.7593 2.87988 14.2127 1.86057 12.4729 1.35421C13.7781 3.78198 14.5743 6.4505 14.8128 9.19654ZM9.516 1.01095C9.81408 0.996351 10.1127 0.996351 10.4108 1.01095C11.9701 3.48271 12.9254 6.28692 13.1993 9.19654H6.72747C7.00645 6.26916 7.96424 3.46264 9.516 1.01095Z" fill="url(#paint0_linear_1_121)"/>
  </g>
  <defs>
    <filter id="filter0_d_1_121" x="1" y="1" width="17.9268" height="21" filterUnits="userSpaceOnUse" color-interpolation-filters="sRGB">
      <feFlood flood-opacity="0" result="BackgroundImageFix"/>
      <feColorMatrix in="SourceAlpha" type="matrix" values="0 0 0 0 0 0 0 0 0 0 0 0 0 0 0 0 0 0 127 0" result="hardAlpha"/>
      <feOffset dy="3"/>
      <feComposite in2="hardAlpha" operator="out"/>
      <feColorMatrix type="matrix" values="0 0 0 0 0.178072 0 0 0 0 0.205659 0 0 0 0 0.443333 0 0 0 0.5 0"/>
      <feBlend mode="normal" in2="BackgroundImageFix" result="effect1_dropShadow_1_121"/>
      <feBlend mode="normal" in="SourceGraphic" in2="effect1_dropShadow_1_121" result="shape"/>
    </filter>
    <linearGradient id="paint0_linear_1_121" x1="10.8911" y1="0.999999" x2="10.8911" y2="19" gradientUnits="userSpaceOnUse">
      <stop stop-color="white"/>
      <stop offset="0.3" stop-color="#AFB5EA"/>
      <stop offset="0.6" stop-color="#EFF0FA"/>
      <stop offset="1" stop-color="white"/>
      <stop offset="1" stop-color="white"/>
    </linearGradient>
  </defs>
</svg>