<svg xmlns="http://www.w3.org/2000/svg" width="40" height="43" viewBox="0 0 40 43" fill="none" class="inline-svg">
  <g filter="url(#filter0_d_1_194)">
    <path d="M20.4353 9.28333C20.3031 9.20686 20.1531 9.16659 20.0004 9.16659C19.8477 9.16659 19.6977 9.20686 19.5655 9.28333L10.9367 14.2643C10.8045 14.3411 10.6948 14.4511 10.6184 14.5834C10.542 14.7158 10.5016 14.8659 10.5013 15.0187V24.9813C10.5017 25.1343 10.5422 25.2846 10.6187 25.4171C10.6952 25.5496 10.8052 25.6597 10.9375 25.7365L19.5647 30.7167C19.6969 30.793 19.8469 30.8332 19.9996 30.8332C20.1523 30.8332 20.3023 30.793 20.4345 30.7167L29.0633 25.7353C29.1955 25.6586 29.3052 25.5486 29.3816 25.4162C29.458 25.2839 29.4984 25.1338 29.4987 24.981V15.0187C29.4983 14.8657 29.4578 14.7154 29.3813 14.5829C29.3048 14.4504 29.1948 14.3403 29.0625 14.2635L20.4353 9.28333ZM24.7558 17.8112L19.2 23.3667C19.0437 23.5229 18.8318 23.6107 18.6108 23.6107C18.3899 23.6107 18.1779 23.5229 18.0217 23.3667L15.2442 20.5892C15.0924 20.432 15.0084 20.2215 15.0103 20.003C15.0122 19.7845 15.0998 19.5755 15.2543 19.421C15.4088 19.2665 15.6178 19.1788 15.8363 19.1769C16.0548 19.175 16.2653 19.259 16.4225 19.4108L18.6108 21.5992L23.5775 16.6333C23.7347 16.4815 23.9452 16.3975 24.1637 16.3994C24.3822 16.4013 24.5912 16.489 24.7457 16.6435C24.9002 16.798 24.9878 17.007 24.9897 17.2255C24.9916 17.444 24.9076 17.654 24.7558 17.8112Z" fill="url(#paint0_linear_1_194)"/>
    <path d="M20 0C16.0444 0 12.1776 1.17298 8.8886 3.37061C5.59962 5.56824 3.03617 8.69181 1.52242 12.3463C0.0086658 16.0009 -0.387401 20.0222 0.384303 23.9018C1.15601 27.7814 3.06082 31.3451 5.85787 34.1421C8.65492 36.9392 12.2186 38.844 16.0982 39.6157C19.9778 40.3874 23.9992 39.9913 27.6537 38.4776C31.3082 36.9638 34.4318 34.4004 36.6294 31.1114C38.827 27.8224 40 23.9556 40 20C40 14.6957 37.8929 9.60859 34.1421 5.85786C30.3914 2.10714 25.3043 0 20 0ZM31.1653 24.9813C31.1644 25.4264 31.0469 25.8635 30.8245 26.249C30.602 26.6345 30.2824 26.955 29.8975 27.1785L21.2687 32.1598C20.8828 32.3824 20.4451 32.4996 19.9996 32.4996C19.5541 32.4996 19.1164 32.3824 18.7305 32.1598L10.1033 27.1793C9.71825 26.9558 9.39848 26.6352 9.17588 26.2495C8.95329 25.8639 8.83564 25.4266 8.83467 24.9813V15.0187C8.83557 14.5736 8.9531 14.1365 9.17555 13.751C9.39801 13.3655 9.71761 13.045 10.1025 12.8215L18.7313 7.84017C19.1172 7.61743 19.5549 7.50017 20.0004 7.50017C20.446 7.50017 20.8836 7.61743 21.2695 7.84017L29.8967 12.8207C30.2818 13.0442 30.6015 13.3648 30.8241 13.7505C31.0467 14.1361 31.1644 14.5734 31.1653 15.0187V24.9813Z" fill="url(#paint1_linear_1_194)"/>
  </g>
  <defs>
    <filter id="filter0_d_1_194" x="0" y="0" width="40" height="43" filterUnits="userSpaceOnUse" color-interpolation-filters="sRGB">
      <feFlood flood-opacity="0" result="BackgroundImageFix"/>
      <feColorMatrix in="SourceAlpha" type="matrix" values="0 0 0 0 0 0 0 0 0 0 0 0 0 0 0 0 0 0 127 0" result="hardAlpha"/>
      <feOffset dy="3"/>
      <feComposite in2="hardAlpha" operator="out"/>
      <feColorMatrix type="matrix" values="0 0 0 0 0.178072 0 0 0 0 0.205659 0 0 0 0 0.443333 0 0 0 0.5 0"/>
      <feBlend mode="normal" in2="BackgroundImageFix" result="effect1_dropShadow_1_194"/>
      <feBlend mode="normal" in="SourceGraphic" in2="effect1_dropShadow_1_194" result="shape"/>
    </filter>
    <linearGradient id="paint0_linear_1_194" x1="22.07" y1="-2.64828e-06" x2="22.07" y2="40" gradientUnits="userSpaceOnUse">
      <stop stop-color="white"/>
      <stop offset="0.3" stop-color="#AFB5EA"/>
      <stop offset="0.6" stop-color="#EFF0FA"/>
      <stop offset="1" stop-color="white"/>
      <stop offset="1" stop-color="white"/>
    </linearGradient>
    <linearGradient id="paint1_linear_1_194" x1="22.07" y1="-2.64828e-06" x2="22.07" y2="40" gradientUnits="userSpaceOnUse">
      <stop stop-color="white"/>
      <stop offset="0.3" stop-color="#AFB5EA"/>
      <stop offset="0.6" stop-color="#EFF0FA"/>
      <stop offset="1" stop-color="white"/>
      <stop offset="1" stop-color="white"/>
    </linearGradient>
  </defs>
</svg>