<svg
  width="20"
  height="20"
  viewBox="0 0 20 20"
  fill="none"
  xmlns="http://www.w3.org/2000/svg"
>
  <g clip-path="url(#clip0_1_129)">
    <g filter="url(#filter0_d_1_129)">
      <path
        d="M17.083 15V15.8333C17.083 16.75 16.333 17.5 15.4163 17.5H3.74967C2.82467 17.5 2.08301 16.75 2.08301 15.8333V4.16667C2.08301 3.25 2.82467 2.5 3.74967 2.5H15.4163C16.333 2.5 17.083 3.25 17.083 4.16667V5H9.58301C8.65801 5 7.91634 5.75 7.91634 6.66667V13.3333C7.91634 14.25 8.65801 15 9.58301 15H17.083ZM9.58301 13.3333H17.9163V6.66667H9.58301V13.3333ZM12.9163 11.25C12.2247 11.25 11.6663 10.6917 11.6663 10C11.6663 9.30833 12.2247 8.75 12.9163 8.75C13.608 8.75 14.1663 9.30833 14.1663 10C14.1663 10.6917 13.608 11.25 12.9163 11.25Z"
        fill="url(#paint0_linear_1_129)"
      />
    </g>
  </g>
  <defs>
    <filter
      id="filter0_d_1_129"
      x="2.08301"
      y="2.5"
      width="15.833"
      height="18"
      filterUnits="userSpaceOnUse"
      color-interpolation-filters="sRGB"
    >
      <feFlood flood-opacity="0" result="BackgroundImageFix" />
      <feColorMatrix
        in="SourceAlpha"
        type="matrix"
        values="0 0 0 0 0 0 0 0 0 0 0 0 0 0 0 0 0 0 127 0"
        result="hardAlpha"
      />
      <feOffset dy="3" />
      <feComposite in2="hardAlpha" operator="out" />
      <feColorMatrix
        type="matrix"
        values="0 0 0 0 0.178072 0 0 0 0 0.205659 0 0 0 0 0.443333 0 0 0 0.5 0"
      />
      <feBlend mode="normal" in2="BackgroundImageFix" result="effect1_dropShadow_1_129" />
      <feBlend mode="normal" in="SourceGraphic" in2="effect1_dropShadow_1_129" result="shape" />
    </filter>
    <linearGradient
      id="paint0_linear_1_129"
      x1="10.8191"
      y1="2.5"
      x2="10.8191"
      y2="17.5"
      gradientUnits="userSpaceOnUse"
    >
      <stop stop-color="white" />
      <stop offset="0.3" stop-color="#AFB5EA" />
      <stop offset="0.6" stop-color="#EFF0FA" />
      <stop offset="1" stop-color="white" />
      <stop offset="1" stop-color="white" />
    </linearGradient>
    <clipPath id="clip0_1_129">
      <rect width="20" height="20" fill="white" />
    </clipPath>
  </defs>
</svg>
