<svg width="45" height="30" viewBox="0 0 45 30" fill="none" xmlns="http://www.w3.org/2000/svg">
<rect x="0.5" y="0.5" width="44" height="29" rx="4.5" stroke="black" stroke-opacity="0.05"/>
<path d="M30.6999 8.60358C30.5088 8.07811 30.2049 7.60089 29.8095 7.20552C29.4141 6.81014 28.9369 6.50622 28.4114 6.31513C27.4285 6 26.5356 6 24.7199 6H19.2726C17.4719 6 16.564 6 15.5961 6.30013C15.0698 6.49201 14.5921 6.79708 14.1967 7.1938C13.8013 7.59052 13.4978 8.06922 13.3076 8.59608C13 9.57149 13 10.4719 13 12.2726V17.7274C13 19.5356 13 20.4285 13.3001 21.4039C13.4912 21.9294 13.7951 22.4066 14.1905 22.802C14.5859 23.1974 15.0631 23.5013 15.5886 23.6924C16.564 24 17.4644 24 19.2651 24H24.7274C26.5356 24 27.436 24 28.4039 23.6999C28.9315 23.5089 29.4107 23.2043 29.8075 22.8075C30.2043 22.4107 30.5089 21.9315 30.6999 21.4039C31.0075 20.4285 31.0075 19.5281 31.0075 17.7274V12.2876C31.0075 10.4794 31.0075 9.57899 30.6999 8.60358ZM26.0704 12.0775L25.3727 12.7753C25.3047 12.8386 25.2156 12.8744 25.1227 12.8757C25.0299 12.8771 24.9398 12.844 24.8699 12.7828C24.1942 12.2121 23.3385 11.8985 22.4539 11.8975C21.7261 11.8975 20.9983 12.1376 20.9983 12.8053C20.9983 13.4806 21.7787 13.7057 22.679 14.0434C24.2547 14.5686 25.5602 15.2288 25.5602 16.7745C25.5602 18.4552 24.2547 19.6107 22.1238 19.7382L21.9287 20.6386C21.9115 20.7213 21.8662 20.7956 21.8006 20.8489C21.735 20.9022 21.6531 20.9313 21.5686 20.9312H20.2255L20.158 20.9237C20.0618 20.9021 19.9781 20.8436 19.9247 20.7608C19.8714 20.678 19.8527 20.5775 19.8729 20.481L20.083 19.5281C19.2743 19.3254 18.5306 18.92 17.9221 18.3501V18.3426C17.8885 18.3092 17.8618 18.2694 17.8437 18.2256C17.8255 18.1819 17.8161 18.1349 17.8161 18.0875C17.8161 18.0401 17.8255 17.9932 17.8437 17.9494C17.8618 17.9056 17.8885 17.8659 17.9221 17.8324L18.6724 17.1046C18.7405 17.0408 18.8304 17.0053 18.9237 17.0053C19.0171 17.0053 19.1069 17.0408 19.1751 17.1046C19.8579 17.7499 20.7732 18.11 21.7186 18.095C22.694 18.095 23.3468 17.6824 23.3468 17.0296C23.3468 16.3768 22.6865 16.2043 21.441 15.7391C20.1205 15.2664 18.8674 14.5986 18.8674 13.0379C18.8674 11.2222 20.3756 10.3368 22.1613 10.2543L22.3489 9.33139C22.3663 9.24937 22.4119 9.17601 22.4776 9.12396C22.5434 9.07191 22.6252 9.04443 22.709 9.04627H24.0446L24.1196 9.05377C24.3147 9.09879 24.4423 9.28637 24.3972 9.48145L24.1947 10.5094C24.8699 10.7345 25.5077 11.0871 26.0554 11.5523L26.0704 11.5673C26.213 11.7174 26.213 11.9425 26.0704 12.0775Z" fill="#00CC47"/>
<path d="M26.0704 12.0775L25.3727 12.7753C25.3047 12.8386 25.2156 12.8744 25.1227 12.8757C25.0299 12.8771 24.9398 12.844 24.8699 12.7828C24.1942 12.2121 23.3385 11.8985 22.4539 11.8975C21.7261 11.8975 20.9983 12.1376 20.9983 12.8053C20.9983 13.4806 21.7787 13.7057 22.679 14.0434C24.2547 14.5686 25.5602 15.2288 25.5602 16.7745C25.5602 18.4552 24.2547 19.6107 22.1238 19.7382L21.9287 20.6386C21.9115 20.7213 21.8662 20.7956 21.8006 20.8489C21.735 20.9022 21.6531 20.9313 21.5686 20.9312H20.2255L20.158 20.9237C20.0618 20.9021 19.9781 20.8436 19.9247 20.7608C19.8714 20.678 19.8527 20.5775 19.8729 20.481L20.083 19.5281C19.2743 19.3254 18.5306 18.92 17.9221 18.3501V18.3426C17.8885 18.3092 17.8618 18.2694 17.8437 18.2256C17.8255 18.1819 17.8161 18.1349 17.8161 18.0875C17.8161 18.0401 17.8255 17.9932 17.8437 17.9494C17.8618 17.9056 17.8885 17.8659 17.9221 17.8324L18.6724 17.1046C18.7405 17.0408 18.8304 17.0053 18.9237 17.0053C19.0171 17.0053 19.1069 17.0408 19.1751 17.1046C19.8579 17.7499 20.7732 18.11 21.7186 18.095C22.694 18.095 23.3468 17.6824 23.3468 17.0296C23.3468 16.3768 22.6865 16.2043 21.441 15.7391C20.1205 15.2664 18.8674 14.5986 18.8674 13.0379C18.8674 11.2222 20.3756 10.3368 22.1613 10.2543L22.3489 9.33139C22.3663 9.24937 22.4119 9.17601 22.4776 9.12396C22.5434 9.07191 22.6252 9.04443 22.709 9.04627H24.0446L24.1196 9.05377C24.3147 9.09879 24.4423 9.28637 24.3972 9.48145L24.1947 10.5094C24.8699 10.7345 25.5077 11.0871 26.0554 11.5523L26.0704 11.5673C26.213 11.7174 26.213 11.9425 26.0704 12.0775Z" fill="white"/>
</svg>
