<svg width="45" height="30" viewBox="0 0 45 30" fill="none" xmlns="http://www.w3.org/2000/svg">
<rect x="0.5" y="0.5" width="44" height="29" rx="4.5" stroke="black" stroke-opacity="0.05"/>
<path fill-rule="evenodd" clip-rule="evenodd" d="M15.9058 14.984C15.9058 16.6414 17.2072 17.9265 18.8821 17.9265C19.3555 17.9265 19.761 17.8335 20.261 17.598V16.3033C19.8215 16.7434 19.4319 16.9209 18.9333 16.9209C17.8255 16.9209 17.0392 16.1177 17.0392 14.9757C17.0392 13.8932 17.8503 13.0392 18.8821 13.0392C19.4066 13.0392 19.8038 13.2264 20.261 13.6736V12.3796C19.7783 12.1347 19.3814 12.0332 18.908 12.0332C17.2416 12.0332 15.9058 13.3444 15.9058 14.984ZM13.0832 13.6145C13.0832 13.9193 13.2769 14.0803 13.937 14.3245C15.1881 14.7822 15.5588 15.1876 15.5588 16.0836C15.5588 17.1751 14.7569 17.9351 13.6141 17.9351C12.7771 17.9351 12.1684 17.6056 11.6617 16.8616L12.3723 16.1773C12.6255 16.667 13.0481 16.9295 13.5727 16.9295C14.0635 16.9295 14.4267 16.591 14.4267 16.1342C14.4267 15.8974 14.3167 15.6941 14.0969 15.5506C13.9864 15.4826 13.7672 15.3815 13.3365 15.2294C12.3035 14.8578 11.9493 14.46 11.9493 13.6832C11.9493 12.7603 12.7102 12.0675 13.708 12.0675C14.3263 12.0675 14.892 12.2789 15.3649 12.6925L14.7894 13.4461C14.5029 13.125 14.2319 12.9895 13.9025 12.9895C13.4285 12.9895 13.0832 13.2595 13.0832 13.6145ZM10.1476 17.7995H11.2475V12.1607H10.1476V17.7995ZM7.89937 16.3966C7.55386 16.7088 7.10487 16.845 6.39424 16.845H6.09905V13.116H6.39424C7.10487 13.116 7.53621 13.2432 7.89937 13.5722C8.27974 13.9107 8.50848 14.4358 8.50848 14.9758C8.50848 15.5172 8.27974 16.0581 7.89937 16.3966ZM6.61449 12.1607H5V17.7993H6.60599C7.45996 17.7993 8.07648 17.598 8.61784 17.1484C9.26115 16.6162 9.64152 15.8139 9.64152 14.9841C9.64152 13.3199 8.39825 12.1607 6.61449 12.1607ZM27.4783 12.1607L28.9819 15.9483L30.5051 12.1607H31.6974L29.2615 17.9442H28.6695L26.2767 12.1607H27.4783ZM32.1948 17.7995H35.314V16.8448H33.2938V15.3227H35.2397V14.3676H33.2938V13.1161H35.314V12.1606H32.1948V17.7995ZM37.141 14.7566H37.4623C38.1649 14.7566 38.5372 14.4514 38.5372 13.8846C38.5372 13.3359 38.1649 13.0489 37.4797 13.0489H37.141V14.7566ZM37.6734 12.1605C38.9418 12.1605 39.6689 12.7696 39.6689 13.8253C39.6689 14.6887 39.2128 15.2555 38.3843 15.4239L40.1595 17.7994H38.8069L37.2846 15.5341H37.141V17.7994H36.0424V12.1605H37.6734Z" fill="#1D1D1B"/>
<path fill-rule="evenodd" clip-rule="evenodd" d="M26.1469 16.6161C27.0395 15.2201 26.6319 13.3657 25.2361 12.4731C23.8403 11.5805 21.9856 11.988 21.0928 13.3839C20.2003 14.7794 20.6082 16.6345 22.004 17.5271C23.3997 18.4197 25.2543 18.0116 26.1469 16.6161Z" fill="url(#paint0_linear_8640_3240)"/>
<defs>
<linearGradient id="paint0_linear_8640_3240" x1="27.763" y1="14.089" x2="22.7089" y2="10.8569" gradientUnits="userSpaceOnUse">
<stop stop-color="#F6A000"/>
<stop offset="0.623918" stop-color="#E47E02"/>
<stop offset="1" stop-color="#D36002"/>
</linearGradient>
</defs>
</svg>
