<svg width="45" height="30" viewBox="0 0 45 30" fill="none" xmlns="http://www.w3.org/2000/svg">
<rect x="0.5" y="0.5" width="44" height="29" rx="4.5" stroke="black" stroke-opacity="0.05"/>
<path d="M12.432 11.0584L11.4447 15.1225C11.3288 15.529 11.2708 15.8773 11.2127 16.2838C11.1545 15.8195 11.0963 15.413 10.9805 15.0647L9.81926 11.0583H8.65788L7.55469 15.0647C7.4385 15.4713 7.38032 15.8773 7.32266 16.2838C7.26448 15.8772 7.2063 15.4711 7.09028 15.0066L6.10319 11.0584H5L6.6837 17.6196H7.96127L9.06446 13.5551C9.18039 13.1486 9.23857 12.7421 9.29649 12.3357C9.35467 12.7422 9.41286 13.1486 9.52914 13.5551L10.6321 17.5616H11.9096L13.4773 11.0585H12.4322L12.432 11.0584Z" fill="#3466B7"/>
<path d="M15.6837 12.6841C14.232 12.6841 13.3029 13.7874 13.3029 15.2389C13.3029 16.923 14.1738 17.6775 15.5092 17.6775C16.9607 17.6775 17.8896 16.5742 17.8896 15.0648C17.8896 13.3809 16.9608 12.6841 15.6837 12.6841ZM15.6256 16.7486C14.8126 16.7486 14.406 16.226 14.406 15.1227C14.406 14.0197 14.9866 13.5552 15.6256 13.5552C16.4383 13.5552 16.8445 14.1358 16.8445 15.1227C16.8445 16.226 16.2641 16.7486 15.6256 16.7486Z" fill="#3466B7"/>
<path d="M19.3412 13.7871C19.4576 13.4387 19.4576 13.0322 19.4576 12.742H18.4707V17.5613H19.5158V15.5871C19.5158 14.1355 19.9803 13.4969 20.9093 13.6709V12.6258C20.0384 12.5681 19.5736 13.1486 19.3412 13.7871Z" fill="#3466B7"/>
<path d="M22.5931 11.0002H21.5477V15.6451V17.5613H22.5931H22.5933V14.6001H22.5931V11.0002Z" fill="#3466B7"/>
<path d="M26.4253 12.742C26.1931 12.6838 25.9605 12.6838 25.7286 12.6838C24.1606 12.6838 23.2319 13.7871 23.2319 15.4129C23.2319 16.8064 23.8123 17.6772 24.9738 17.6772C25.7286 17.6772 26.3091 17.271 26.5414 16.69C26.4833 16.9226 26.4833 17.3287 26.4833 17.5611H27.4704V11H26.4253V12.742H26.4253ZM26.3671 13.6131V15.1224C26.3671 15.9354 25.9605 16.8646 25.2057 16.8646C24.5671 16.8646 24.277 16.3419 24.277 15.3549C24.277 14.0773 24.8574 13.555 25.6705 13.555C25.9025 13.555 26.1931 13.555 26.4253 13.6131H26.3671Z" fill="#3466B7"/>
<path d="M29.9088 11.0002C29.27 11.0002 28.7479 11.0584 28.2249 11.0584V17.5615H29.27V15.1806H29.7348C31.3025 15.1806 32.2897 14.2518 32.2897 12.9742C32.2897 11.7551 31.4766 11.0002 29.9088 11.0002ZM29.7348 14.3099C29.5606 14.3099 29.3864 14.2517 29.27 14.2517V11.8709H29.7928C30.7797 11.8709 31.1863 12.3354 31.1863 13.0322C31.1864 13.8452 30.6056 14.3099 29.7348 14.3099Z" fill="#3466B7"/>
<path d="M36.2959 17.5033V14.1938C36.2959 13.2649 35.8893 12.626 34.4378 12.626C33.7992 12.626 33.1603 12.8004 32.6959 12.9744L32.87 13.7873C33.2766 13.5551 33.7992 13.4389 34.2635 13.4389C35.0184 13.4389 35.2509 13.7873 35.2509 14.368V14.6583C33.4509 14.6583 32.4055 15.2389 32.4055 16.342C32.4055 17.1549 32.9282 17.6774 33.7411 17.6774C34.496 17.6774 35.0766 17.2713 35.3086 16.6903C35.2547 16.9077 35.2511 17.2257 35.2509 17.5032H36.2959V17.5033ZM33.9734 16.8648C33.5668 16.8648 33.3348 16.5742 33.3348 16.2259C33.3348 15.768 33.731 15.3664 35.1345 15.3557V15.5292C35.1345 16.168 34.67 16.8648 33.9734 16.8648Z" fill="#3466B7"/>
<path d="M39.7796 12.7419L39.0829 14.7162C38.9088 15.2386 38.7345 15.8195 38.6182 16.2255C38.5603 15.8194 38.4442 15.3548 38.2698 14.9483L37.5151 12.7419H36.3541L38.2118 17.5613L38.0378 18.0256C37.6894 18.8966 37.2829 19.1288 36.8184 19.1288C36.6443 19.1288 36.4118 19.1288 36.2378 19.0711L36.1216 19.9418C36.2378 20 36.5279 20 36.7024 20C37.8056 20 38.4442 19.5354 39.0246 17.9098L40.8827 12.742L39.7796 12.7419Z" fill="#3466B7"/>
</svg>
