<svg xmlns="http://www.w3.org/2000/svg" width="34" height="20" fill="none" viewBox="0 0 34 20">
  <path fill="#0085F3" d="M6.982 10.639h1.337l-.673-1.705-.664 1.705Z"/>
  <path fill="#0085F3" d="M32.485 0h-30.1C1.55 0 .872.678.872 1.515v16.97c0 .837.678 1.515 1.515 1.515h30.099C33.32 20 34 19.322 34 18.485V1.515C34 .678 33.32 0 32.485 0ZM10.709 13.092a.304.304 0 0 1-.252.134h-.91a.304.304 0 0 1-.284-.193l-.328-.834H6.374l-.324.832a.303.303 0 0 1-.285.195h-.907a.305.305 0 0 1-.285-.416l2.333-5.987a.303.303 0 0 1 .285-.194h.904c.126 0 .237.076.284.193l2.362 5.987c.037.094.025.2-.032.283Zm6.404-.22a.305.305 0 0 1-.305.305h-.784a.305.305 0 0 1-.305-.305v-2.623l-1.337 2.642a.304.304 0 0 1-.544 0l-1.35-2.649v2.63a.305.305 0 0 1-.306.305h-.784a.305.305 0 0 1-.306-.305v-5.92c0-.169.137-.305.306-.305h.632c.115 0 .22.063.272.166l1.804 3.534 1.787-3.533a.304.304 0 0 1 .273-.167h.642c.169 0 .305.136.305.305v5.92Zm6.772.065a.306.306 0 0 1-.305.305h-3.75a.306.306 0 0 1-.304-.306V7.012c0-.169.137-.306.305-.306h3.645c.168 0 .305.137.305.306v.722a.305.305 0 0 1-.305.305h-2.618v1.27h2.132c.168 0 .305.136.305.304v.723a.305.305 0 0 1-.305.305h-2.132v1.27h2.722c.168 0 .305.136.305.304v.723Zm5.736-.228-.635.46a.303.303 0 0 1-.427-.069l-1.515-2.094-1.51 2.093a.307.307 0 0 1-.426.07l-.636-.46a.303.303 0 0 1-.069-.425l1.78-2.469-1.632-2.272a.306.306 0 0 1 .07-.426l.637-.457a.304.304 0 0 1 .426.07l1.36 1.893 1.366-1.895a.303.303 0 0 1 .426-.068l.636.458a.303.303 0 0 1 .069.426l-1.637 2.271 1.785 2.467a.306.306 0 0 1-.068.427Z"/>
</svg>
