<svg xmlns="http://www.w3.org/2000/svg" width="92" height="24" fill="none" viewBox="0 0 92 24">
  <path fill="#FFFFFE" fill-rule="evenodd" d="M.727 12.207C.727 5.808 5.914.621 12.312.621c6.399 0 11.586 5.188 11.586 11.586 0 6.399-5.187 11.587-11.586 11.587-6.398 0-11.585-5.188-11.585-11.587Z" clip-rule="evenodd"/>
  <path fill="#0069AA" fill-rule="evenodd" d="M19.32 11.98a6.97 6.97 0 0 0-4.473-6.5v12.998a6.97 6.97 0 0 0 4.472-6.499Zm-9.46 6.495V5.48a6.976 6.976 0 0 0-4.47 6.498 6.974 6.974 0 0 0 4.47 6.497ZM12.355.993C6.288.995 1.372 5.912 1.371 11.979c0 6.067 4.917 10.983 10.984 10.984 6.068-.001 10.985-4.917 10.986-10.984C23.34 5.912 18.423.995 12.355.993ZM12.328 24C5.688 24.032.224 18.652.224 12.105.224 4.948 5.69-.001 12.328 0h3.112C22-.001 27.99 4.946 27.99 12.105 27.99 18.65 22 24 15.44 24h-3.112Z" clip-rule="evenodd"/>
  <path fill="#1A1919" fill-rule="evenodd" d="M33.745 4.582c0-1.13-.59-1.056-1.156-1.068v-.327c.49.024.993.024 1.484.024.528 0 1.244-.024 2.175-.024 3.255 0 5.029 2.174 5.029 4.4 0 1.246-.73 4.376-5.18 4.376-.64 0-1.233-.025-1.823-.025-.566 0-1.12.011-1.685.025v-.327c.754-.076 1.12-.101 1.156-.956V4.582Zm1.232 5.896c0 .969.692 1.082 1.308 1.082 2.716 0 3.608-2.05 3.608-3.922 0-2.351-1.509-4.048-3.935-4.048-.516 0-.754.037-.98.05v6.838Zm6.74 1.158h.238c.352 0 .604 0 .604-.416V7.813c0-.552-.189-.628-.654-.88v-.2c.59-.178 1.295-.415 1.345-.453a.444.444 0 0 1 .227-.063c.061 0 .087.075.087.177v4.826c0 .416.277.416.63.416h.212v.327c-.427 0-.868-.025-1.319-.025-.452 0-.905.012-1.37.025v-.327Zm1.345-7.355c-.328 0-.616-.302-.616-.628 0-.315.302-.605.616-.605.326 0 .616.265.616.605 0 .34-.277.628-.616.628Zm2.539 3.608c0-.464-.139-.59-.729-.83v-.238c.54-.176 1.055-.34 1.66-.605.037 0 .074.026.074.126v.818c.718-.515 1.334-.944 2.177-.944 1.067 0 1.444.78 1.444 1.76v3.244c0 .416.278.416.63.416h.226v.327c-.441 0-.88-.025-1.333-.025-.453 0-.906.011-1.358.025v-.327h.227c.352 0 .602 0 .602-.416V7.965c0-.717-.438-1.069-1.155-1.069-.403 0-1.044.326-1.46.604v3.72c0 .416.278.416.63.416h.226v.327c-.44 0-.88-.025-1.334-.025-.451 0-.904.011-1.356.025v-.327h.226c.352 0 .603 0 .603-.416V7.889Zm6.438.604c-.026.113-.026.302 0 .73.074 1.193.842 2.173 1.847 2.173.692 0 1.233-.377 1.698-.841l.175.176c-.578.767-1.294 1.42-2.325 1.42-2 0-2.401-1.936-2.401-2.74 0-2.465 1.659-3.195 2.538-3.195 1.02 0 2.114.642 2.126 1.975 0 .076 0 .15-.012.226l-.114.076H52.04Zm2.226-.402c.313 0 .35-.164.35-.316 0-.64-.39-1.155-1.093-1.155-.767 0-1.295.564-1.446 1.47h2.189Zm1.721 3.545h.34c.35 0 .602 0 .602-.416V7.688c0-.39-.464-.466-.653-.566v-.188c.918-.39 1.42-.718 1.536-.718.073 0 .11.038.11.165v1.131h.027c.314-.49.843-1.296 1.61-1.296.313 0 .715.214.715.667 0 .34-.238.642-.59.642-.39 0-.39-.303-.83-.303-.214 0-.918.29-.918 1.045v2.953c0 .416.25.416.603.416h.703v.327c-.691-.014-1.217-.025-1.758-.025-.516 0-1.044.011-1.497.025v-.327Zm4.84-1.422c.164.83.666 1.535 1.586 1.535.74 0 1.017-.453 1.017-.893 0-1.484-2.74-1.006-2.74-3.03 0-.704.566-1.61 1.949-1.61.401 0 .942.115 1.432.366l.088 1.282h-.289c-.126-.792-.565-1.244-1.37-1.244-.504 0-.98.288-.98.829 0 1.472 2.915 1.018 2.915 2.992 0 .83-.665 1.71-2.162 1.71-.502 0-1.094-.176-1.533-.427l-.139-1.446.226-.064Zm14.96-4.752h-.313c-.24-1.47-1.283-2.061-2.69-2.061-1.448 0-3.546.967-3.546 3.985 0 2.54 1.81 4.363 3.746 4.363 1.244 0 2.277-.855 2.528-2.176l.29.075-.29 1.836c-.528.328-1.95.668-2.78.668-2.94 0-4.8-1.899-4.8-4.728 0-2.578 2.3-4.426 4.764-4.426 1.018 0 1.998.328 2.966.667l.125 1.797Zm.454 6.174h.238c.353 0 .604 0 .604-.416v-7c0-.819-.188-.844-.666-.982v-.202c.502-.163 1.031-.389 1.296-.54.136-.075.237-.14.275-.14.076 0 .101.077.101.178v8.686c0 .416.277.416.629.416h.213v.327c-.427 0-.867-.025-1.32-.025-.452 0-.904.012-1.37.025v-.327Zm8.072-.366c0 .228.138.24.351.24.152 0 .34-.012.504-.012v.264c-.54.05-1.572.314-1.811.39l-.063-.039v-1.018c-.754.616-1.333 1.057-2.227 1.057-.678 0-1.382-.441-1.382-1.496v-3.22c0-.327-.05-.641-.753-.703v-.24c.453-.012 1.457-.087 1.62-.087.14 0 .14.088.14.365v3.243c0 .377 0 1.457 1.094 1.457.426 0 .992-.326 1.52-.765V7.323c0-.251-.603-.39-1.055-.514v-.226c1.13-.077 1.835-.177 1.96-.177.102 0 .102.088.102.226v4.639Zm2.501-4.148c.503-.427 1.182-.905 1.874-.905 1.458 0 2.338 1.27 2.338 2.64 0 1.647-1.207 3.295-3.006 3.295-.929 0-1.42-.303-1.747-.441l-.376.29-.264-.139c.113-.741.176-1.47.176-2.238V4.22c0-.818-.19-.843-.667-.981v-.202c.503-.163 1.031-.389 1.295-.54.139-.075.239-.14.277-.14.075 0 .1.077.1.178v4.588Zm0 3.42c0 .477.453 1.283 1.295 1.283 1.345 0 1.91-1.32 1.91-2.44 0-1.358-1.029-2.489-2.01-2.489-.466 0-.855.302-1.195.592v3.054ZM39.361 18.13l.014-.013v-2.565c0-.561-.39-.643-.596-.643h-.15v-.206c.322 0 .637.027.958.027.28 0 .562-.027.841-.027v.206h-.102c-.288 0-.61.054-.61.868v3.113c0 .24.007.479.04.691h-.26l-3.522-3.927v2.819c0 .596.116.8.643.8h.117v.206c-.295 0-.589-.027-.883-.027-.307 0-.622.026-.93.026v-.205h.096c.472 0 .615-.322.615-.867v-2.883a.614.614 0 0 0-.622-.614h-.09v-.206c.26 0 .528.027.787.027.206 0 .404-.027.61-.027l3.044 3.427Z" clip-rule="evenodd"/>
  <path fill="#1A1919" fill-rule="evenodd" d="m39.757 19.61-.282-.01-3.471-3.87v2.743c.008.595.098.764.613.77h.147v.265h-.03c-.296 0-.59-.028-.883-.028-.306 0-.62.027-.93.027h-.03v-.264h.126c.452-.002.581-.293.586-.838v-2.88a.585.585 0 0 0-.593-.587h-.12v-.265h.03c.262 0 .53.027.787.027.204 0 .401-.027.632-.016l3.006 3.384v-2.516c-.003-.543-.366-.61-.565-.614h-.181v-.265h.03c.323 0 .638.027.958.027.278 0 .558-.027.841-.027h.03v.265h-.132c-.282.007-.572.032-.58.84v3.112c0 .24.007.478.04.686l.006.034h-.035Zm-.26-.06h.227a4.6 4.6 0 0 1-.036-.66v-3.113c0-.82.344-.898.638-.899h.072v-.146c-.27.003-.54.027-.812.027-.313 0-.617-.024-.926-.027l-.001.146h.12c.211 0 .625.094.625.674l-.009 2.586-.013.013-.023.022-3.043-3.44c-.203 0-.4.026-.61.026-.25 0-.507-.024-.755-.027l-.001.146h.06c.321 0 .651.246.651.646v2.881c0 .548-.152.897-.644.899l-.066-.002v.147c.296-.002.602-.027.9-.027.286 0 .57.025.853.027v-.145h-.087c-.538-.002-.671-.236-.672-.831v-2.896l3.552 3.973Zm-.152-1.434v-.002l-.005-.005.005.007Zm2.108-3.071c-.513 0-.533.124-.636.623h-.205c.027-.192.06-.383.082-.582.027-.192.041-.383.041-.58h.164c.055.205.226.197.412.197h3.528c.186 0 .356-.007.37-.212l.164.028c-.027.184-.055.369-.075.554-.013.185-.013.369-.013.553l-.206.077c-.014-.253-.047-.658-.506-.658h-1.122v3.64c0 .527.24.588.568.588h.13v.205c-.267 0-.746-.026-1.114-.026-.411 0-.89.026-1.158.026v-.205h.13c.378 0 .568-.034.568-.574v-3.654h-1.122Z" clip-rule="evenodd"/>
  <path fill="#1A1919" fill-rule="evenodd" d="M44.15 19.508c-.27 0-.748-.028-1.116-.028-.41 0-.889.027-1.157.027h-.03v-.264h.16c.378-.009.53-.013.538-.544v-3.625h-1.092v-.06h1.151V18.7c0 .55-.221.604-.596.605h-.102v.145c.27-.002.731-.027 1.128-.027.357 0 .813.025 1.085.026v-.144h-.1c-.331 0-.597-.082-.597-.62v-3.67h1.151c.459.002.52.392.534.647l.148-.055c0-.178 0-.357.013-.537.02-.177.045-.35.07-.526l-.103-.017c-.032.199-.225.21-.396.207h-3.564c-.161 0-.337-.008-.398-.199h-.113a4.05 4.05 0 0 1-.04.555c-.02.188-.052.369-.076.55h.145c.09-.477.149-.631.66-.624v.06c-.506.01-.495.094-.607.6l-.005.023h-.263l.003-.036c.028-.19.063-.383.083-.581.028-.19.041-.38.041-.576v-.03h.218l.005.021c.046.173.172.174.347.177h3.564c.19-.003.33-.005.34-.184l.003-.033.031.007.194.03-.005.03a16.04 16.04 0 0 0-.075.552c-.013.183-.013.367-.013.552v.02l-.02.008-.242.089-.001-.04c-.02-.257-.045-.63-.478-.63h-1.092v3.61c.007.517.212.553.538.56h.16v.264h-.03Zm1.441-.235h.097c.245 0 .506-.034.506-.39V15.3c0-.356-.26-.39-.506-.39h-.097v-.206c.416 0 1.13.027 1.703.027.576 0 1.286-.027 1.751-.027-.012.295-.005.747.015 1.047l-.206.055c-.033-.445-.115-.8-.834-.8h-.95v1.791h.813c.41 0 .5-.231.54-.601h.205a15.63 15.63 0 0 0 0 1.58l-.205.04c-.04-.41-.06-.676-.533-.676h-.82v1.593c0 .445.395.445.834.445.82 0 1.183-.055 1.388-.834l.191.048c-.088.363-.17.724-.231 1.088-.439 0-1.226-.027-1.84-.027-.617 0-1.43.026-1.82.026v-.205Z" clip-rule="evenodd"/>
  <path fill="#1A1919" fill-rule="evenodd" d="M49.251 19.508c-.439 0-1.226-.029-1.84-.029-.616 0-1.43.029-1.82.029h-.029v-.265h.126c.247-.004.472-.026.475-.36v-3.584c-.003-.334-.228-.356-.475-.36h-.126v-.266h.03c.417 0 1.129.027 1.702.027.575 0 1.286-.027 1.751-.027h.03v.032a10.84 10.84 0 0 0 .013 1.043l.001.024-.023.007-.24.063-.001-.035c-.04-.444-.1-.767-.805-.774h-.922v1.733h.785c.394-.004.465-.205.511-.574l.002-.028h.263v.031a15.318 15.318 0 0 0-.001 1.578v.025l-.024.006-.238.047-.002-.032c-.047-.417-.05-.646-.504-.651h-.792v1.564c.001.416.36.413.806.416.823-.005 1.153-.046 1.36-.813l.006-.027.03.004.218.057-.006.029c-.089.361-.17.723-.232 1.085l-.005.024h-.024Zm-.025-.06c.06-.346.138-.69.221-1.035l-.134-.034c-.205.765-.602.833-1.41.828-.43 0-.861 0-.864-.475v-1.623h.85c.479-.005.527.283.56.672l.149-.03a14.5 14.5 0 0 1 0-1.527h-.148c-.039.357-.15.606-.567.602h-.844v-1.852h.981c.712-.005.83.363.86.793l.148-.04c-.012-.193-.02-.441-.02-.67 0-.117.003-.228.007-.325-.465.003-1.159.027-1.721.027s-1.254-.024-1.673-.027v.146h.067c.243 0 .534.043.536.421v3.584c-.002.378-.293.42-.536.421h-.067v.144c.398 0 1.19-.026 1.79-.026.604 0 1.374.025 1.815.026Zm1.181-4.02c0-.499-.274-.52-.486-.52h-.124v-.205c.22 0 .644.027 1.061.027.41 0 .739-.027 1.101-.027.86 0 1.629.232 1.629 1.205 0 .615-.41.99-.951 1.204l1.169 1.75c.192.29.328.37.664.41v.207c-.226 0-.445-.027-.67-.027-.212 0-.432.026-.643.026-.527-.69-.98-1.429-1.423-2.217h-.451v1.465c0 .527.245.547.559.547h.124v.206c-.39 0-.786-.027-1.177-.027-.328 0-.65.026-.992.026v-.205h.124c.254 0 .486-.116.486-.369v-3.476Zm.876 1.587h.334c.685 0 1.054-.26 1.054-1.067 0-.609-.39-.998-1-.998-.205 0-.293.02-.388.027v2.038Z" clip-rule="evenodd"/>
  <path fill="#1A1919" fill-rule="evenodd" d="M54.47 19.508c-.23 0-.447-.028-.672-.028-.209 0-.427.027-.666.016-.524-.689-.974-1.423-1.416-2.204h-.404v1.433c.007.515.214.51.53.518h.154v.265h-.03c-.392 0-.79-.028-1.177-.028-.327 0-.648.027-.992.027h-.03v-.264h.154c.246-.002.454-.109.455-.339v-3.476c-.005-.485-.243-.483-.455-.49h-.153v-.265h.03c.22 0 .643.027 1.06.027.409 0 .737-.027 1.101-.027.863.002 1.656.24 1.658 1.233 0 .618-.408 1.004-.935 1.219l1.149 1.72c.191.285.31.355.643.398l.025.004v.26h-.03Zm-3.188-2.276h.468l.008.015c.446.786.895 1.525 1.399 2.202.208 0 .428-.027.641-.027.218 0 .43.023.642.026v-.15c-.32-.039-.471-.136-.658-.42l-1.191-1.78.034-.014c.535-.21.932-.576.933-1.178 0-.949-.739-1.169-1.599-1.174-.36 0-.689.028-1.1.028-.403 0-.809-.025-1.032-.027v.145h.094c.212 0 .514.036.514.55v3.476c0 .275-.257.4-.514.4h-.094v.144c.328 0 .64-.026.962-.026.382 0 .768.025 1.147.026v-.144h-.094c-.312 0-.59-.04-.59-.58v-1.492h.03Zm0-.188h-.03v-2.095l.026-.002c.094-.007.186-.026.393-.026.623 0 1.029.405 1.03 1.028-.002.817-.394 1.095-1.084 1.095h-.335Zm.335-.058c.677-.007 1.018-.242 1.025-1.037-.004-.597-.375-.968-.971-.97-.185 0-.272.016-.36.025v1.982h.306Zm7.497 1.144.012-.013v-2.565c0-.561-.389-.643-.594-.643h-.15v-.206c.322 0 .635.027.958.027.281 0 .56-.027.842-.027v.206h-.103c-.288 0-.609.054-.609.868v3.113c0 .24.007.479.04.691h-.259l-3.522-3.927v2.819c0 .596.115.8.642.8h.116v.206c-.294 0-.588-.027-.882-.027-.309 0-.623.026-.93.026v-.205h.094c.473 0 .617-.322.617-.867v-2.883a.613.613 0 0 0-.623-.614h-.089v-.206c.26 0 .528.027.788.027.203 0 .402-.027.608-.027l3.044 3.427Z" clip-rule="evenodd"/>
  <path fill="#1A1919" fill-rule="evenodd" d="m59.51 19.61-.28-.01-3.473-3.869v2.742c.008.595.098.764.614.77h.145v.265h-.03c-.296 0-.59-.029-.882-.029-.306 0-.622.029-.93.029h-.03v-.265h.125c.452-.002.582-.293.586-.84v-2.88a.583.583 0 0 0-.592-.585h-.12v-.265h.031c.261 0 .529.027.787.027.201 0 .4-.027.629-.018l3.007 3.386v-2.516c-.002-.543-.366-.61-.565-.614h-.18v-.265h.03c.323 0 .638.027.958.027.278 0 .558-.027.84-.027h.03v.265h-.131c-.283.007-.573.032-.58.84v3.112c0 .24.006.476.04.686l.004.034h-.033Zm-.259-.06h.224a4.677 4.677 0 0 1-.036-.66v-3.113c0-.82.347-.897.64-.899h.072v-.146c-.27.003-.54.027-.811.027-.315 0-.62-.024-.929-.027v.146h.121c.21.002.625.094.625.674l-.01 2.586-.012.013-.022.023-3.043-3.441c-.204 0-.402.026-.609.026-.253 0-.51-.024-.758-.027v.146h.06a.644.644 0 0 1 .651.645v2.88c0 .55-.154.9-.645.901h-.066v.145c.296-.002.6-.027.9-.027.288 0 .572.025.855.027v-.145h-.087c-.538 0-.673-.236-.674-.831v-2.895l3.554 3.972Zm-.154-1.434v-.001l-.005-.005.005.006Zm2.185.384c-.07.232-.152.412-.152.533 0 .206.288.24.513.24h.077v.205a15.597 15.597 0 0 0-.83-.026c-.246 0-.49.012-.738.026v-.205h.042c.266 0 .493-.158.594-.445l1.095-3.139c.09-.254.212-.596.254-.85.218-.074.492-.21.622-.293.021-.007.034-.014.054-.014.021 0 .034 0 .049.021.02.054.04.116.061.17l1.26 3.579c.082.239.163.492.25.698.084.192.228.273.454.273h.041v.205a19.517 19.517 0 0 0-.944-.026c-.335 0-.678.012-1.027.026v-.205h.075c.157 0 .425-.027.425-.198 0-.089-.061-.273-.138-.494l-.266-.793H61.5l-.218.712Zm.998-3.03h-.014l-.636 1.936h1.278l-.628-1.936Z" clip-rule="evenodd"/>
  <path fill="#1A1919" fill-rule="evenodd" d="M64.926 19.508c-.307-.014-.616-.029-.941-.029-.336 0-.677.015-1.026.029l-.032.001v-.267h.106c.158 0 .393-.036.394-.167.002-.078-.06-.266-.135-.483l-.26-.774h-1.51l-.212.691c-.07.233-.152.413-.151.525.002.167.258.208.485.208h.105v.267l-.031-.002c-.274-.013-.553-.028-.827-.028-.244 0-.491.015-.736.029l-.032.001v-.267h.071c.254 0 .467-.146.566-.424l1.095-3.14c.089-.253.213-.593.272-.867.214-.072.49-.21.621-.293.02-.007.038-.016.066-.016a.083.083 0 0 1 .075.04l.062.172 1.26 3.578c.08.24.162.492.252.695.079.182.205.254.424.255h.07v.267l-.03-.002Zm-1.939-.061c.339-.012.671-.025.998-.025.317 0 .615.013.912.025v-.144h-.01c-.234.002-.395-.09-.48-.292-.088-.206-.172-.46-.252-.7l-1.26-3.578-.058-.165c-.007-.006-.005-.006-.01-.006h-.013c-.014 0-.023.004-.04.008a2.53 2.53 0 0 1-.61.274c-.041.26-.164.6-.253.854l-1.095 3.14c-.104.297-.344.466-.622.465h-.011v.144c.234-.012.47-.025.708-.025.265 0 .535.013.797.025v-.144h-.044c-.224-.003-.535-.027-.543-.27 0-.135.084-.31.151-.541l.226-.732h1.595l.274.812c.077.22.139.403.139.503-.01.21-.298.224-.453.228h-.046v.144Zm-1.398-2.012.655-1.996h.056l.65 1.996h-1.36Zm.082-.06h1.197l-.595-1.833-.602 1.833Zm3.558-2.33c-.513 0-.534.124-.637.623h-.206c.027-.192.062-.383.083-.582.027-.192.04-.383.04-.58h.166c.053.205.225.197.41.197h3.53c.184 0 .355-.007.368-.212l.164.028c-.026.184-.053.369-.074.554-.015.185-.015.369-.015.553l-.205.077c-.012-.253-.046-.658-.506-.658h-1.121v3.64c0 .527.24.588.567.588h.13v.205c-.266 0-.744-.026-1.115-.026-.41 0-.89.026-1.156.026v-.205h.13c.377 0 .568-.034.568-.574v-3.654h-1.12Z" clip-rule="evenodd"/>
  <path fill="#1A1919" fill-rule="evenodd" d="M67.924 19.508c-.269 0-.748-.028-1.116-.028-.408 0-.887.027-1.156.027h-.03v-.264h.16c.378-.009.529-.013.538-.544v-3.625h-1.091v-.06h1.15V18.7c0 .55-.22.603-.597.604h-.1v.146c.27-.002.73-.027 1.126-.027.358 0 .816.025 1.086.027v-.146h-.1c-.33 0-.597-.08-.597-.618v-3.67h1.15c.46.001.52.391.533.646l.149-.055c0-.178 0-.357.015-.536.018-.177.044-.352.07-.526l-.104-.018c-.032.199-.225.21-.395.207H65.05c-.162.002-.336-.008-.398-.199h-.112a3.99 3.99 0 0 1-.042.555c-.019.19-.052.37-.078.55h.147c.09-.477.15-.632.662-.624v.06c-.507.008-.496.094-.608.6l-.005.023h-.264l.004-.034c.03-.192.063-.384.083-.582.028-.191.04-.38.04-.577v-.03h.218l.005.021c.048.173.173.174.348.177h3.565c.19-.003.327-.005.34-.184v-.033l.032.007.195.03-.005.03a13.9 13.9 0 0 0-.075.552c-.014.183-.014.367-.014.552v.02l-.02.008-.242.089v-.04c-.019-.257-.046-.63-.478-.63h-1.093v3.61c.007.517.212.553.538.56h.16v.264h-.029Zm1.476-.235h.096c.246 0 .505-.034.505-.39V15.3c0-.356-.259-.39-.505-.39H69.4v-.206c.267 0 .677.027 1.011.027.343 0 .754-.027 1.076-.027v.206h-.096c-.247 0-.507.034-.507.39v3.584c0 .356.26.39.507.39h.096v.206c-.329 0-.74-.027-1.081-.027-.336 0-.74.026-1.006.026v-.205Z" clip-rule="evenodd"/>
  <path fill="#1A1919" fill-rule="evenodd" d="M71.487 19.508c-.33 0-.74-.029-1.081-.029-.335 0-.739.029-1.006.029h-.03v-.265h.126c.246-.004.474-.026.476-.36v-3.584c-.002-.334-.23-.356-.476-.36h-.125v-.266h.029c.267 0 .679.027 1.011.027.341 0 .752-.027 1.076-.027h.029v.265h-.125c-.25.005-.475.027-.478.361v3.584c.003.334.228.356.478.36h.124v.265h-.028Zm-.031-.06v-.145h-.065c-.245 0-.535-.043-.535-.42v-3.584c0-.378.29-.42.535-.42h.065v-.146c-.315.002-.712.026-1.045.026-.324 0-.716-.024-.981-.027v.146h.066c.243 0 .534.043.535.421v3.584c0 .378-.292.42-.535.42h-.066v.145c.263-.003.65-.026.976-.026.332 0 .727.025 1.05.026Zm2.759-4.848c1.458 0 2.62.905 2.62 2.362 0 1.573-1.128 2.62-2.585 2.62-1.45 0-2.559-.986-2.559-2.457a2.488 2.488 0 0 1 2.524-2.524Zm.103 4.68c1.328 0 1.56-1.17 1.56-2.168 0-1-.54-2.21-1.676-2.21-1.197 0-1.553 1.067-1.553 1.983 0 1.224.561 2.395 1.67 2.395Z" clip-rule="evenodd"/>
  <path fill="#1A1919" fill-rule="evenodd" d="M71.66 17.125a2.523 2.523 0 0 1 2.554-2.554v.06a2.46 2.46 0 0 0-2.495 2.494c.003 1.454 1.094 2.425 2.531 2.425 1.442 0 2.555-1.031 2.556-2.59-.001-1.438-1.145-2.328-2.592-2.33v-.06c1.469.002 2.648.915 2.65 2.39 0 1.59-1.143 2.647-2.614 2.65-1.463-.003-2.587-.998-2.59-2.485Zm.959-.24c.002-.92.361-2.014 1.582-2.014 1.162.003 1.704 1.236 1.706 2.24-.002.998-.237 2.197-1.589 2.197v-.058c1.3-.001 1.527-1.14 1.529-2.138 0-.991-.534-2.179-1.646-2.18-1.173 0-1.52 1.042-1.523 1.953 0 1.218.557 2.363 1.64 2.365v.058c-1.135-.001-1.697-1.192-1.7-2.423Zm8.826 1.245.015-.013v-2.565c0-.561-.392-.643-.597-.643h-.149v-.206c.32 0 .636.027.957.027.281 0 .561-.027.842-.027v.206h-.103c-.286 0-.61.054-.61.868v3.113c0 .24.008.479.043.691h-.26l-3.524-3.927v2.819c0 .596.117.8.642.8h.118v.206c-.295 0-.588-.027-.883-.027-.308 0-.623.026-.93.026v-.205h.096c.472 0 .615-.322.615-.867v-2.883a.613.613 0 0 0-.623-.614h-.089v-.206c.26 0 .527.027.787.027.205 0 .403-.027.609-.027l3.044 3.427Z" clip-rule="evenodd"/>
  <path fill="#1A1919" fill-rule="evenodd" d="m81.843 19.61-.283-.01-3.472-3.869v2.742c.008.595.099.763.612.769h.148v.265h-.03c-.296 0-.59-.027-.882-.027-.306 0-.621.027-.932.027h-.027v-.265h.124c.45-.001.58-.292.586-.837v-2.882a.583.583 0 0 0-.593-.585h-.117v-.265h.027c.263 0 .53.027.788.027.203 0 .4-.027.632-.016l3.005 3.384v-2.516c-.002-.543-.366-.61-.566-.614h-.18v-.265h.031c.322 0 .637.027.956.027.28 0 .559-.027.843-.027h.03v.265h-.133c-.282.007-.573.033-.579.84v3.112c0 .24.006.478.039.686l.006.034h-.033Zm-.26-.06h.224a4.844 4.844 0 0 1-.036-.66v-3.113c0-.822.345-.897.639-.899h.074v-.146c-.271.003-.54.027-.814.027-.312 0-.618-.024-.927-.027v.146h.12c.211.002.624.095.624.674l-.007 2.586-.013.013-.022.023-3.044-3.441c-.203 0-.402.026-.609.026-.252 0-.51-.024-.758-.027v.146h.06a.645.645 0 0 1 .652.645v2.882c0 .548-.153.897-.645.899h-.067v.145c.297-.002.601-.027.902-.027.285 0 .57.025.853.027v-.145H78.7c-.536 0-.671-.236-.671-.831v-2.896l3.553 3.973Zm-.154-1.434v-.001l-.005-.005.005.006Zm2.183.384c-.067.232-.15.412-.15.533 0 .206.289.24.513.24h.076v.205a15.595 15.595 0 0 0-.828-.026c-.246 0-.492.012-.738.026v-.205h.04c.267 0 .494-.158.594-.445l1.097-3.139c.088-.254.212-.596.251-.85.22-.074.493-.21.625-.293.019-.007.033-.014.054-.014.02 0 .033 0 .047.021.02.054.041.116.062.17l1.258 3.579c.082.239.165.492.254.698.082.192.226.273.451.273h.042v.205a19.526 19.526 0 0 0-.945-.026c-.334 0-.677.012-1.026.026v-.205h.076c.156 0 .424-.027.424-.198 0-.089-.061-.273-.138-.494l-.266-.793h-1.553l-.22.712Zm1-3.03H84.6l-.638 1.936h1.281l-.63-1.936Z" clip-rule="evenodd"/>
  <path fill="#1A1919" fill-rule="evenodd" d="M87.257 19.508c-.308-.013-.615-.028-.942-.028-.333 0-.676.015-1.025.027l-.03.002v-.266h.104c.159 0 .395-.037.395-.168.002-.078-.06-.265-.137-.483l-.26-.774h-1.51l-.211.691c-.069.234-.15.413-.149.524 0 .168.257.21.483.21h.104v.266l-.03-.002c-.274-.012-.554-.027-.826-.027-.245 0-.49.015-.738.027l-.03.002v-.266h.07c.254-.001.468-.147.568-.425l1.094-3.14c.088-.253.211-.593.271-.866.215-.074.49-.211.623-.294a.16.16 0 0 1 .065-.015.077.077 0 0 1 .074.04c.021.054.041.116.063.171l1.258 3.578c.083.24.164.492.253.696.08.181.205.253.423.255h.07v.266l-.03-.002Zm-1.94-.06c.34-.013.672-.026.998-.026.318 0 .616.013.914.025v-.144h-.012c-.231.001-.393-.09-.478-.292-.09-.206-.172-.46-.254-.7l-1.258-3.578a6.437 6.437 0 0 1-.058-.163c-.006-.008-.006-.008-.01-.008h-.013c-.015 0-.023.004-.039.009-.134.084-.407.22-.61.273-.042.26-.166.6-.254.854l-1.096 3.14c-.104.297-.343.466-.623.465h-.01v.144c.236-.012.47-.025.709-.025.265 0 .535.013.798.025v-.144h-.046c-.223-.003-.534-.026-.543-.27.002-.135.086-.31.153-.541l.225-.732h1.594l.275.812c.075.22.138.402.138.503-.01.209-.298.224-.453.228h-.046v.144Zm-1.397-2.013.657-1.996h.056l.647 1.996h-1.36Zm.083-.06H85.2l-.596-1.832-.601 1.832Zm4.98 1.433c0 .275.19.355.41.384.28.02.588.02.903-.015a.974.974 0 0 0 .656-.37c.11-.15.17-.341.213-.491h.198c-.076.39-.171.773-.254 1.163-.6 0-1.204-.027-1.805-.027-.603 0-1.204.026-1.806.026v-.205h.095c.247 0 .514-.034.514-.458V15.3c0-.356-.267-.39-.514-.39h-.095v-.206c.362 0 .718.027 1.08.027.35 0 .691-.027 1.041-.027v.206h-.172c-.26 0-.464.007-.464.37v3.529Z" clip-rule="evenodd"/>
  <path fill="#1A1919" fill-rule="evenodd" d="M91.11 19.508c-.604 0-1.206-.028-1.806-.028-.602 0-1.204.027-1.807.027h-.03v-.264h.126c.247-.006.482-.023.485-.428v-3.517c-.003-.333-.237-.355-.485-.36h-.125v-.265h.029c.364 0 .72.027 1.08.027.349 0 .69-.027 1.042-.027h.027v.265h-.2c-.264.007-.43-.005-.435.34v3.53c.002.255.17.323.383.354a5.541 5.541 0 0 0 .897-.014.958.958 0 0 0 .637-.357c.106-.146.165-.334.207-.483l.005-.022h.258l-.006.036c-.077.39-.171.773-.254 1.163l-.006.023h-.022Zm-.025-.06c.079-.371.168-.735.242-1.103h-.141a1.546 1.546 0 0 1-.21.481 1.017 1.017 0 0 1-.678.381 5.26 5.26 0 0 1-.91.013c-.222-.024-.437-.12-.437-.413v-3.529c0-.38.24-.4.496-.4h.14v-.146c-.336.003-.669.028-1.01.028-.353 0-.7-.025-1.05-.027v.145h.066c.244 0 .542.043.542.42v3.517c0 .443-.297.488-.542.488h-.066v.145c.591 0 1.183-.026 1.777-.026.595 0 1.188.025 1.78.026Zm-58.51-.175h.096c.246 0 .506-.034.506-.39V15.3c0-.356-.26-.39-.506-.39h-.096v-.206c.267 0 .677.027 1.013.027.342 0 .752-.027 1.074-.027v.206h-.097c-.245 0-.505.034-.505.39v3.584c0 .356.26.39.505.39h.097v.206c-.328 0-.74-.027-1.08-.027-.336 0-.74.026-1.007.026v-.205Z" clip-rule="evenodd"/>
  <path fill="#1A1919" fill-rule="evenodd" d="M34.662 19.508c-.331 0-.74-.028-1.081-.028-.335 0-.737.027-1.006.027h-.03v-.264h.126c.248-.006.474-.026.476-.36v-3.584c-.002-.335-.228-.356-.476-.36h-.126v-.266h.03c.269 0 .679.027 1.013.027.34 0 .75-.027 1.074-.027h.03v.265h-.126c-.248.005-.475.026-.477.361v3.584c.002.334.229.354.477.36h.126v.265h-.03Zm-.03-.059v-.146h-.066c-.244 0-.535-.043-.537-.42v-3.584c.002-.378.293-.42.537-.42h.066v-.146c-.315 0-.712.027-1.044.027-.325 0-.718-.025-.983-.027v.146h.066c.244 0 .535.042.535.42v3.584c0 .378-.291.42-.535.42h-.066v.146c.265-.002.652-.027.976-.027.333 0 .729.025 1.051.027ZM91.28 14.51c.412 0 .72.316.72.721a.705.705 0 0 1-.72.718.705.705 0 0 1-.72-.718c0-.405.307-.722.72-.722Zm0 1.305a.58.58 0 0 0 .57-.584.58.58 0 0 0-.57-.587.582.582 0 0 0-.572.587c0 .31.247.584.571.584Zm-.359-.204v-.035c.088-.013.105-.01.105-.064v-.534c0-.075-.008-.101-.102-.097v-.037h.369c.126 0 .243.06.243.192 0 .107-.07.186-.17.217l.118.165a.765.765 0 0 0 .159.17v.023h-.14c-.068 0-.127-.142-.26-.331h-.079v.238c0 .047.016.045.105.058v.035h-.348Zm.243-.38h.085c.093 0 .136-.07.136-.184 0-.114-.067-.155-.14-.155h-.081v.339Z" clip-rule="evenodd"/>
</svg>
