<svg xmlns="http://www.w3.org/2000/svg" width="36" height="22" fill="none" viewBox="0 0 36 22">
  <path fill="#E21836" d="M7.717 0h8.779c1.225 0 1.987.999 1.701 2.228L14.11 19.775C13.822 21 12.595 22 11.37 22H2.59c-1.222 0-1.986-1-1.7-2.225L4.978 2.228C5.264.998 6.49 0 7.718 0Z"/>
  <path fill="#00447C" d="M15.765 0H25.86c1.225 0 .673.999.384 2.228l-4.086 17.547C21.871 21 21.961 22 20.733 22H10.638c-1.228 0-1.987-1-1.699-2.225l4.086-17.547C13.315.998 14.54 0 15.765 0Z"/>
  <path fill="#007B84" d="M25.46 0h8.778c1.227 0 1.99.999 1.701 2.228l-4.086 17.547C31.565 21 30.337 22 29.11 22h-8.774c-1.228 0-1.99-1-1.702-2.225l4.087-17.547C23.007.998 24.232 0 25.46 0Z"/>
  <path fill="#FEFEFE" d="M10.01 5.623c-.903.01-1.17 0-1.255-.02-.032.156-.641 2.966-.643 2.968-.131.569-.227.974-.55 1.236a.981.981 0 0 1-.649.225c-.4 0-.633-.199-.673-.576l-.007-.13.122-.765s.64-2.56.754-2.9a.246.246 0 0 0 .009-.038c-1.244.011-1.465 0-1.48-.02-.009.028-.04.187-.04.187l-.652 2.886-.056.245-.109.8c0 .238.047.432.14.595.297.52 1.146.598 1.625.598.619 0 1.199-.131 1.59-.371.681-.402.86-1.03 1.018-1.59l.074-.286s.658-2.66.77-3.005c.005-.02.006-.03.012-.039Zm2.24 2.146a1.74 1.74 0 0 0-.709.166c-.094.049-.184.105-.278.16l.085-.307-.047-.052c-.552.112-.676.127-1.187.2l-.042.028c-.06.491-.112.86-.332 1.827-.084.356-.17.715-.258 1.07l.024.045c.523-.027.682-.027 1.137-.02l.036-.04c.058-.296.066-.365.194-.964.06-.284.185-.909.247-1.131.114-.053.226-.104.333-.104.255 0 .224.222.214.31-.011.15-.104.635-.2 1.052l-.063.269c-.044.199-.093.392-.137.59l.02.038c.515-.027.672-.027 1.112-.02l.052-.04c.08-.462.103-.585.244-1.258l.071-.31c.138-.605.208-.912.103-1.161-.11-.28-.375-.348-.618-.348Zm2.504.633c-.274.053-.449.088-.623.11-.172.028-.34.053-.605.09l-.02.02-.02.014c-.028.198-.047.368-.083.569-.032.207-.08.443-.157.781-.06.26-.091.35-.125.44-.034.092-.07.18-.138.435l.016.024.013.021c.248-.011.41-.02.576-.021.166-.006.339 0 .605.001l.024-.019.024-.02c.039-.23.045-.292.068-.404.024-.12.064-.287.163-.732.046-.209.098-.417.146-.63.05-.212.104-.421.153-.63l-.007-.025-.01-.024Zm.006-.854c-.25-.147-.686-.1-.98.103-.294.199-.327.481-.08.63.246.143.684.1.976-.104.293-.203.33-.483.084-.629Zm1.506 3.405c.504 0 1.02-.14 1.41-.551.298-.335.436-.832.483-1.037.155-.678.034-.995-.117-1.188-.23-.294-.636-.389-1.057-.389-.254 0-.857.025-1.328.46-.339.313-.495.739-.59 1.146-.095.416-.204 1.164.483 1.442.213.091.519.117.716.117Zm-.04-1.528c.117-.514.254-.945.604-.945.274 0 .294.321.172.837-.021.114-.122.54-.257.721-.095.134-.207.215-.33.215-.037 0-.256 0-.26-.325-.001-.16.032-.325.072-.503Zm3.193 1.461.039-.04c.056-.296.065-.365.189-.964.062-.284.19-.909.25-1.131.113-.053.224-.105.334-.105.253 0 .222.223.212.311-.009.15-.102.635-.199 1.052l-.06.269c-.046.199-.096.392-.14.59l.02.038c.516-.027.668-.027 1.11-.02l.054-.04c.078-.462.099-.586.244-1.258l.07-.31c.138-.605.208-.911.106-1.161-.114-.28-.38-.348-.62-.348-.16 0-.451.038-.71.166a4.715 4.715 0 0 0-.277.16l.08-.307-.043-.052c-.552.112-.679.127-1.188.2l-.04.028c-.062.491-.112.86-.332 1.827-.083.356-.17.715-.257 1.07l.023.045c.524-.027.68-.027 1.135-.02Zm3.8.02.228-1.1s.165-.69.175-.715c0 0 .052-.072.103-.1h.077c.718 0 1.53 0 2.166-.468.433-.321.729-.795.86-1.371.035-.141.06-.31.06-.477 0-.22-.044-.439-.172-.61-.324-.453-.97-.462-1.716-.465l-.368.003c-.954.012-1.337.009-1.494-.01l-.038.193-.342 1.587L21.9 10.9c.833-.01 1.175-.01 1.319.005Zm.634-2.815.362-1.575.012-.081.005-.062.145.015.768.066c.296.115.418.41.332.795a1.156 1.156 0 0 1-.599.79c-.241.122-.537.132-.842.132h-.198l.015-.08Zm2.264 1.364c-.096.41-.207 1.157.478 1.424.218.093.414.12.612.11.21-.011.405-.116.585-.268l-.049.187.031.04c.492-.02.645-.02 1.179-.017l.048-.036c.078-.458.151-.903.354-1.779.098-.42.197-.835.298-1.253l-.016-.046c-.55.102-.698.124-1.228.2l-.04.032-.016.124a.757.757 0 0 0-.386-.317c-.235-.093-.789.026-1.264.46-.335.309-.495.732-.586 1.139Zm1.156.025c.118-.505.254-.932.605-.932.222 0 .338.205.315.554l-.064.283c-.035.15-.073.298-.11.447a1.087 1.087 0 0 1-.13.262c-.09.128-.305.207-.428.207-.035 0-.252 0-.26-.319a2.192 2.192 0 0 1 .072-.502Zm6.04-1.667-.042-.048c-.545.11-.643.128-1.144.195l-.037.037-.006.023-.001-.008c-.373.86-.362.675-.665 1.352l-.004-.083-.076-1.468-.048-.048c-.57.11-.584.128-1.111.195l-.041.037c-.006.017-.006.037-.01.058l.004.007c.066.337.05.262.116.793.031.261.072.524.103.781.052.431.081.644.145 1.302-.356.587-.44.81-.784 1.325l.003.005-.242.382c-.027.04-.052.068-.087.08a.364.364 0 0 1-.159.022h-.133l-.199.661.682.012c.4-.002.652-.19.787-.44l.43-.736h-.008l.045-.051c.289-.621 2.483-4.385 2.483-4.385Zm-7.196 8.683h-.29l1.071-3.54h.355l.113-.366.011.406c-.013.25.184.473.702.436h.6l.206-.682h-.226c-.13 0-.19-.032-.182-.103l-.01-.412h-1.11v.002c-.36.007-1.431.034-1.648.092-.263.068-.54.267-.54.267l.11-.366H24.24l-.216.725-1.085 3.596h-.21l-.207.677h2.068l-.07.225h1.02l.067-.226h.286l.224-.73Zm-.849-2.821a4.67 4.67 0 0 0-.475.185l.275-.905h.825l-.2.66s-.254.014-.425.06Zm.016 1.293s-.259.032-.43.07a4.422 4.422 0 0 0-.482.212l.284-.942h.829l-.2.66Zm-.462 1.537h-.827l.24-.795h.824l-.237.795Zm1.993-2.197h1.192l-.171.555h-1.209l-.181.607h1.057l-.8 1.127a.33.33 0 0 1-.162.136.476.476 0 0 1-.215.062h-.294l-.201.664h.767c.399 0 .635-.181.809-.42l.549-.75.117.762a.359.359 0 0 0 .198.26c.076.038.156.104.268.114.12.005.207.009.265.009h.377l.226-.744h-.148c-.086 0-.233-.014-.258-.04-.025-.033-.025-.083-.038-.16l-.12-.764h-.49l.215-.256h1.206l.186-.607h-1.117l.174-.555h1.113l.207-.684h-3.32l-.202.684ZM16.74 16.66l.279-.926h1.144l.209-.689h-1.145l.175-.57h1.119l.207-.666h-2.8l-.203.667h.636l-.17.57h-.637l-.212.7h.636l-.37 1.225c-.05.162.023.224.07.3a.306.306 0 0 0 .204.15c.112.024.189.04.293.04h1.29l.23-.764-.572.079c-.11 0-.416-.014-.383-.116Zm.132-4.433-.29.524a.606.606 0 0 1-.168.218c-.045.028-.132.04-.26.04h-.15l-.203.67h.502c.242 0 .428-.089.516-.133.095-.05.12-.022.194-.093l.17-.147h1.568l.209-.698h-1.149l.2-.38h-1.14Zm2.316 4.447c-.027-.039-.008-.107.033-.248l.429-1.419h1.525c.223-.003.383-.006.488-.013a.998.998 0 0 0 .366-.124.687.687 0 0 0 .267-.246c.066-.09.172-.29.264-.597l.538-1.796-1.582.01s-.488.072-.703.15c-.216.09-.525.337-.525.337l.142-.492h-.977l-1.37 4.54a2.814 2.814 0 0 0-.088.38c-.002.083.105.165.174.227.082.062.203.052.32.062.121.01.295.015.535.015h.751l.231-.779-.673.064a.177.177 0 0 1-.145-.071Zm.739-2.626h1.602l-.102.32c-.014.007-.049-.016-.212.003H19.83l.099-.323Zm.32-1.07h1.616l-.116.384s-.762-.007-.883.015c-.537.093-.85.38-.85.38l.234-.78Zm1.216 2.459a.17.17 0 0 1-.064.098c-.032.021-.085.029-.163.029h-.229l.014-.389h-.95l-.038 1.9c-.002.138.011.217.112.28.1.08.41.09.825.09h.596l.214-.711-.518.028-.172.01c-.024-.01-.046-.019-.071-.044-.022-.022-.059-.008-.053-.146l.005-.487.543-.022c.293 0 .418-.096.525-.187.102-.087.136-.187.174-.322l.091-.432h-.746l-.095.305Z"/>
</svg>
