<svg width="45" height="30" viewBox="0 0 45 30" fill="none" xmlns="http://www.w3.org/2000/svg">
<path d="M32.6986 17.419C31.363 22.7762 25.937 26.0365 20.5792 24.7006C15.2236 23.365 11.9633 17.9387 13.2995 12.582C14.6345 7.22419 20.0604 3.96366 25.4166 5.29923C30.7741 6.63481 34.0341 12.0617 32.6984 17.4191L32.6985 17.419H32.6986Z" fill="#7C7C7C"/>
<path d="M27.098 17.5687L23.0004 21.6664L18.9037 17.5706L18.9017 17.5687L20.4105 16.0638L23.0004 18.6537L25.5902 16.0628L27.098 17.5687ZM29.6664 15.0003L28.1605 16.5072L26.6537 15.0003L28.1605 13.4945L29.6664 15.0003ZM19.347 14.9994L17.8402 16.5062L16.3334 15.0003L17.8402 13.4935L19.347 14.9994ZM27.097 12.431L25.5912 13.9369L23.0004 11.347L20.4105 13.9359L18.9037 12.429L23.0004 8.33334L27.097 12.431Z" fill="#3A3A3A"/>
<path d="M24.5281 14.9992H24.5287L23 13.4703L21.87 14.6L21.7402 14.7299L21.4725 14.9976L21.4703 14.9997L21.4725 15.0019L23 16.5296L24.5288 15.0008L24.5296 14.9999L24.5282 14.9992" fill="#3A3A3A"/>
</svg>
