<svg width="45" height="30" viewBox="0 0 45 30" fill="none" xmlns="http://www.w3.org/2000/svg">
<path fill-rule="evenodd" clip-rule="evenodd" d="M15.9058 14.9841C15.9058 16.6415 17.2072 17.9266 18.8821 17.9266C19.3555 17.9266 19.761 17.8335 20.261 17.598V16.3034C19.8215 16.7434 19.4319 16.921 18.9333 16.921C17.8255 16.921 17.0392 16.1177 17.0392 14.9758C17.0392 13.8933 17.8503 13.0393 18.8821 13.0393C19.4066 13.0393 19.8038 13.2265 20.261 13.6737V12.3797C19.7783 12.1348 19.3814 12.0333 18.908 12.0333C17.2416 12.0333 15.9058 13.3445 15.9058 14.9841ZM13.0832 13.6146C13.0832 13.9193 13.2769 14.0803 13.937 14.3246C15.1881 14.7823 15.5588 15.1877 15.5588 16.0837C15.5588 17.1751 14.7569 17.9352 13.6141 17.9352C12.7771 17.9352 12.1684 17.6056 11.6617 16.8617L12.3723 16.1774C12.6255 16.6671 13.0481 16.9296 13.5727 16.9296C14.0635 16.9296 14.4267 16.5911 14.4267 16.1342C14.4267 15.8974 14.3167 15.6942 14.0969 15.5506C13.9864 15.4826 13.7672 15.3816 13.3365 15.2295C12.3035 14.8578 11.9493 14.46 11.9493 13.6832C11.9493 12.7604 12.7102 12.0676 13.708 12.0676C14.3263 12.0676 14.892 12.2789 15.3649 12.6926L14.7894 13.4462C14.5029 13.1251 14.2319 12.9895 13.9025 12.9895C13.4285 12.9895 13.0832 13.2595 13.0832 13.6146ZM10.1476 17.7996H11.2475V12.1608H10.1476V17.7996ZM7.89937 16.3967C7.55386 16.7089 7.10487 16.845 6.39424 16.845H6.09905V13.116H6.39424C7.10487 13.116 7.53621 13.2433 7.89937 13.5723C8.27974 13.9108 8.50848 14.4358 8.50848 14.9759C8.50848 15.5172 8.27974 16.0582 7.89937 16.3967ZM6.61449 12.1608H5V17.7994H6.60599C7.45996 17.7994 8.07648 17.5981 8.61784 17.1485C9.26115 16.6163 9.64152 15.814 9.64152 14.9841C9.64152 13.32 8.39825 12.1608 6.61449 12.1608ZM27.4783 12.1608L28.9819 15.9483L30.5051 12.1608H31.6974L29.2615 17.9443H28.6695L26.2767 12.1608H27.4783ZM32.1948 17.7995H35.314V16.8449H33.2938V15.3228H35.2397V14.3677H33.2938V13.1162H35.314V12.1607H32.1948V17.7995ZM37.141 14.7567H37.4623C38.1649 14.7567 38.5372 14.4515 38.5372 13.8847C38.5372 13.3359 38.1649 13.049 37.4797 13.049H37.141V14.7567ZM37.6734 12.1606C38.9418 12.1606 39.6689 12.7697 39.6689 13.8254C39.6689 14.6888 39.2128 15.2556 38.3843 15.424L40.1595 17.7995H38.8069L37.2846 15.5342H37.141V17.7995H36.0424V12.1606H37.6734Z" fill="#7C7C7C"/>
<path fill-rule="evenodd" clip-rule="evenodd" d="M26.1469 16.6161C27.0396 15.2201 26.6319 13.3657 25.2362 12.4731C23.8404 11.5805 21.9856 11.988 21.0928 13.3839C20.2004 14.7794 20.6083 16.6345 22.004 17.5271C23.3997 18.4197 25.2544 18.0116 26.1469 16.6161Z" fill="#7C7C7C"/>
</svg>
