<svg width="45" height="30" viewBox="0 0 45 30" fill="none" xmlns="http://www.w3.org/2000/svg">
<path fill-rule="evenodd" clip-rule="evenodd" d="M21.4409 19.3866V15.8649H23.2584C24.0032 15.8649 24.6319 15.6154 25.1443 15.1232L25.2673 14.9984C26.2035 13.9794 26.142 12.3919 25.1443 11.4491C24.6455 10.95 23.9622 10.6796 23.2584 10.6935H20.3408V19.3866H21.4409ZM21.441 14.7974V11.7611H23.2862C23.6826 11.7611 24.0585 11.9135 24.3387 12.1909C24.9332 12.7731 24.9469 13.7437 24.3728 14.3468C24.0926 14.6449 23.6962 14.8112 23.2862 14.7974H21.441ZM30.3989 13.9031C29.9274 13.4664 29.2852 13.2446 28.472 13.2446C27.4266 13.2446 26.6408 13.6327 26.1214 14.4022L27.0917 15.0192C27.447 14.4923 27.9322 14.229 28.5472 14.229C28.9367 14.229 29.3124 14.3746 29.6063 14.6379C29.8933 14.8875 30.0573 15.248 30.0573 15.6293V15.8857C29.6336 15.6501 29.1006 15.5253 28.4447 15.5253C27.6794 15.5253 27.0644 15.7055 26.6066 16.0729C26.1488 16.4403 25.9165 16.9256 25.9165 17.5426C25.9028 18.1041 26.142 18.6379 26.5656 18.9983C26.9961 19.3866 27.5428 19.5807 28.185 19.5807C28.9435 19.5807 29.5448 19.241 30.0026 18.5616H30.0504V19.3866H31.1027V15.7194C31.1027 14.9499 30.8704 14.3399 30.3989 13.9031ZM27.4131 18.2913C27.1876 18.1248 27.0509 17.8545 27.0509 17.5634C27.0509 17.2376 27.2013 16.9672 27.4951 16.7523C27.7958 16.5374 28.1717 16.4265 28.6159 16.4265C29.231 16.4195 29.7093 16.5582 30.051 16.8354C30.051 17.3069 29.8665 17.7159 29.5043 18.0625C29.1763 18.3952 28.7321 18.5824 28.2674 18.5824C27.9598 18.5893 27.6591 18.4853 27.4131 18.2913ZM33.4669 22L37.143 13.4387H35.9472L34.2459 17.7089H34.2254L32.483 13.4387H31.2872L33.6992 19.0053L32.3326 22H33.4669Z" fill="#7C7C7C"/>
<path d="M17.6428 15.1025C17.6428 14.7628 17.6154 14.4231 17.5608 14.0904H12.9213V16.0106H15.5793C15.4699 16.6276 15.1146 17.1822 14.5953 17.5288V18.7766H16.1806C17.1098 17.9101 17.6428 16.6276 17.6428 15.1025Z" fill="#7C7C7C"/>
<path d="M12.9218 19.9827C14.2474 19.9827 15.368 19.539 16.1811 18.7764L14.5959 17.5287C14.1517 17.8337 13.5846 18.007 12.9218 18.007C11.6372 18.007 10.5508 17.1265 10.1613 15.9481H8.5282V17.2375C9.36186 18.922 11.0632 19.9827 12.9218 19.9827Z" fill="#7C7C7C"/>
<path d="M10.1612 15.9481C9.95625 15.3311 9.95625 14.6587 10.1612 14.0348V12.7523H8.52795C7.82402 14.1596 7.82402 15.8233 8.52795 17.2305L10.1612 15.9481Z" fill="#7C7C7C"/>
<path d="M12.9218 11.976C13.6256 11.9621 14.3021 12.2325 14.8077 12.7246L16.2153 11.2966C15.3201 10.4509 14.1449 9.98643 12.9218 10.0003C11.0632 10.0003 9.36186 11.0679 8.5282 12.7524L10.1613 14.0418C10.5508 12.8564 11.6372 11.976 12.9218 11.976Z" fill="#7C7C7C"/>
</svg>
