<svg width="45" height="30" viewBox="0 0 45 30" fill="none" xmlns="http://www.w3.org/2000/svg">
<path d="M23.0576 5C25.7021 5.00769 28.2351 6.06604 30.0996 7.94141C31.9641 9.81677 33.0077 12.3555 33 15C33 20.5228 28.5228 25 23 25C17.4772 25 13 20.5228 13 15C13 9.47715 17.4772 5 23 5H23.0576ZM22.7822 8.0752C22.6144 8.07002 22.4645 8.18013 22.4189 8.3418L20.4092 15.1699L18.8115 15.6533L18.4482 16.7676L20.0459 16.2832L18.6172 21.1504H27.1406C27.3089 21.1572 27.46 21.0464 27.5039 20.8838L27.9883 19.2129V19.1211C27.9858 19.0466 27.9529 18.9757 27.8984 18.9248C27.844 18.8742 27.7716 18.847 27.6973 18.8496H22.1279L23.1699 15.3389L24.792 14.8789L25.1309 13.7168L23.5322 14.2012L25.2275 8.43848V8.34668C25.225 8.27221 25.1931 8.20125 25.1387 8.15039C25.0842 8.09952 25.011 8.07258 24.9365 8.0752H22.7822Z" fill="#7C7C7C"/>
</svg>
