<svg width="45" height="30" viewBox="0 0 45 30" fill="none" xmlns="http://www.w3.org/2000/svg">
<path d="M10.9698 10.4561C10.5278 10.1523 9.95092 9.99994 9.2393 9.99994H6.48428C6.26613 9.99994 6.1456 10.109 6.12271 10.327L5.00351 17.3524C4.99188 17.4214 5.00914 17.4845 5.05514 17.5418C5.10088 17.5993 5.15841 17.6279 5.2273 17.6279H6.53591C6.76544 17.6279 6.89159 17.519 6.91475 17.3008L7.22464 15.4068C7.23596 15.315 7.27632 15.2404 7.34522 15.1829C7.41406 15.1256 7.50016 15.088 7.60348 15.0708C7.70679 15.0538 7.80421 15.0452 7.89621 15.0452C7.98795 15.0452 8.09695 15.051 8.22342 15.0624C8.34957 15.0739 8.42999 15.0794 8.46447 15.0794C9.45161 15.0794 10.2264 14.8013 10.789 14.2444C11.3513 13.6877 11.6328 12.9158 11.6328 11.9284C11.6328 11.2512 11.4116 10.7605 10.9698 10.4561ZM9.54929 12.5656C9.49172 12.9674 9.34267 13.2313 9.10162 13.3576C8.86051 13.4841 8.51615 13.5469 8.06852 13.5469L7.50027 13.5642L7.79305 11.7218C7.8159 11.5956 7.89047 11.5324 8.01684 11.5324H8.3441C8.80304 11.5324 9.13614 11.5986 9.34277 11.7304C9.54929 11.8625 9.61819 12.141 9.54929 12.5656Z" fill="#7C7C7C"/>
<path d="M40.0439 9.99994H38.7698C38.6432 9.99994 38.5687 10.0631 38.546 10.1894L37.4267 17.3524L37.4094 17.3868C37.4094 17.4445 37.4324 17.4987 37.4784 17.5504C37.5241 17.602 37.5817 17.6278 37.6505 17.6278H38.7871C39.0049 17.6278 39.1255 17.519 39.1487 17.3007L40.2679 10.2581V10.241C40.2679 10.0803 40.193 9.99994 40.0439 9.99994Z" fill="#7C7C7C"/>
<path d="M24.6502 12.7719C24.6502 12.7146 24.6271 12.66 24.5815 12.6084C24.5354 12.5568 24.4837 12.5309 24.4265 12.5309H23.1006C22.9741 12.5309 22.8708 12.5885 22.7907 12.703L20.9655 15.3893L20.2079 12.8064C20.1503 12.6229 20.0241 12.5309 19.8291 12.5309H18.5375C18.48 12.5309 18.4283 12.5567 18.3827 12.6084C18.3366 12.66 18.3138 12.7147 18.3138 12.7719C18.3138 12.7951 18.4257 13.1335 18.6495 13.7878C18.8733 14.4422 19.1144 15.1482 19.3727 15.906C19.631 16.6635 19.7658 17.0655 19.7773 17.1111C18.836 18.3969 18.3654 19.0857 18.3654 19.1773C18.3654 19.3267 18.44 19.4012 18.5893 19.4012H19.9151C20.0414 19.4012 20.1447 19.344 20.2251 19.2291L24.6159 12.8924C24.6387 12.8696 24.6502 12.8296 24.6502 12.7719Z" fill="#7C7C7C"/>
<path d="M36.9962 12.5314H35.6875C35.5267 12.5314 35.4294 12.7208 35.3949 13.0996C35.0962 12.6407 34.5512 12.4108 33.759 12.4108C32.9325 12.4108 32.2292 12.7208 31.6497 13.3407C31.0699 13.9606 30.7802 14.6897 30.7802 15.5275C30.7802 16.205 30.9782 16.7444 31.3742 17.146C31.7702 17.5481 32.3011 17.7487 32.9671 17.7487C33.2999 17.7487 33.6385 17.6797 33.9829 17.5421C34.3273 17.4044 34.5968 17.2208 34.7923 16.9911C34.7923 17.0026 34.7806 17.0542 34.7578 17.146C34.7346 17.238 34.7233 17.307 34.7233 17.3526C34.7233 17.5365 34.7977 17.6281 34.9472 17.6281H36.1354C36.3532 17.6281 36.4797 17.5193 36.514 17.301L37.2201 12.8069C37.2314 12.738 37.2142 12.675 37.1684 12.6175C37.1223 12.5602 37.0651 12.5314 36.9962 12.5314ZM34.7492 15.9235C34.4564 16.2105 34.1035 16.354 33.6902 16.354C33.3572 16.354 33.0877 16.2623 32.8809 16.0785C32.6742 15.8951 32.5709 15.6425 32.5709 15.3209C32.5709 14.8964 32.7144 14.5375 33.0014 14.2447C33.2881 13.952 33.6443 13.8056 34.0691 13.8056C34.3902 13.8056 34.6571 13.9004 34.8697 14.0897C35.0819 14.2791 35.1883 14.5404 35.1883 14.8733C35.1883 15.2865 35.0418 15.6367 34.7492 15.9235Z" fill="#7C7C7C"/>
<path d="M17.4356 12.5314H16.1269C15.966 12.5314 15.8686 12.7208 15.8342 13.0996C15.5242 12.6407 14.9789 12.4108 14.1983 12.4108C13.3718 12.4108 12.6686 12.7208 12.089 13.3407C11.5092 13.9606 11.2195 14.6897 11.2195 15.5275C11.2195 16.205 11.4175 16.7444 11.8136 17.146C12.2096 17.5481 12.7404 17.7487 13.4063 17.7487C13.7276 17.7487 14.0607 17.6797 14.405 17.5421C14.7493 17.4044 15.0249 17.2208 15.2315 16.9911C15.1854 17.1288 15.1626 17.2494 15.1626 17.3526C15.1626 17.5365 15.2372 17.6281 15.3864 17.6281H16.5745C16.7925 17.6281 16.9189 17.5193 16.9534 17.301L17.6593 12.8069C17.6706 12.738 17.6534 12.675 17.6077 12.6175C17.5617 12.5602 17.5044 12.5314 17.4356 12.5314ZM15.1885 15.9321C14.8957 16.2136 14.5368 16.354 14.1123 16.354C13.7792 16.354 13.5123 16.2623 13.3116 16.0785C13.1106 15.8951 13.0102 15.6425 13.0102 15.3209C13.0102 14.8964 13.1537 14.5375 13.4408 14.2447C13.7276 13.952 14.0834 13.8056 14.5083 13.8056C14.8296 13.8056 15.0965 13.9004 15.3091 14.0897C15.5213 14.2791 15.6276 14.5404 15.6276 14.8733C15.6276 15.298 15.4812 15.6511 15.1885 15.9321Z" fill="#7C7C7C"/>
<path d="M30.5304 10.4561C30.0884 10.1523 29.5117 9.99994 28.8 9.99994H26.0622C25.8324 9.99994 25.7061 10.109 25.6833 10.327L24.5641 17.3523C24.5525 17.4213 24.5697 17.4844 24.6158 17.5418C24.6613 17.5993 24.719 17.6278 24.7879 17.6278H26.1998C26.3375 17.6278 26.4293 17.5533 26.4753 17.404L26.7853 15.4068C26.7967 15.315 26.8369 15.2403 26.9058 15.1829C26.9747 15.1255 27.0607 15.088 27.1641 15.0708C27.2674 15.0537 27.3648 15.0451 27.4569 15.0451C27.5486 15.0451 27.6576 15.0509 27.7839 15.0623C27.9102 15.0738 27.9908 15.0794 28.025 15.0794C29.0123 15.0794 29.787 14.8012 30.3496 14.2444C30.912 13.6877 31.1933 12.9157 31.1933 11.9284C31.1934 11.2512 30.9722 10.7605 30.5304 10.4561ZM28.7655 13.2887C28.5129 13.4609 28.1341 13.5469 27.6291 13.5469L27.078 13.5642L27.3708 11.7218C27.3936 11.5956 27.4681 11.5324 27.5946 11.5324H27.9045C28.1569 11.5324 28.3578 11.5439 28.5073 11.5668C28.6563 11.59 28.8 11.6615 28.9377 11.782C29.0755 11.9026 29.1443 12.0777 29.1443 12.3073C29.1443 12.7894 29.0179 13.1165 28.7655 13.2887Z" fill="#7C7C7C"/>
</svg>
