<svg width="45" height="30" viewBox="0 0 45 30" fill="none" xmlns="http://www.w3.org/2000/svg">
<path fill-rule="evenodd" clip-rule="evenodd" d="M12.1259 13.1898H9.62336C9.62336 12.779 9.57513 12.5032 9.47909 12.3628C9.33024 12.1552 8.91912 12.0512 8.2464 12.0512C7.5931 12.0512 7.15994 12.111 6.94861 12.2307C6.73737 12.3508 6.63167 12.6121 6.63167 13.0142C6.63167 13.3783 6.72525 13.618 6.91293 13.7329C7.04745 13.8144 7.22504 13.8624 7.44662 13.8766L7.95124 13.9123C9.03287 13.9841 9.70838 14.0347 9.97786 14.0635C10.8332 14.1497 11.4532 14.3773 11.838 14.7462C12.1408 15.034 12.3213 15.41 12.379 15.8744C12.4126 16.1522 12.4294 16.4666 12.4294 16.8158C12.4294 17.6209 12.3526 18.2105 12.1988 18.5842C11.9202 19.2698 11.2943 19.7028 10.3204 19.8846C9.91233 19.9615 9.28811 20 8.44857 20C7.04703 20 6.07034 19.9165 5.51886 19.7487C4.842 19.5432 4.39578 19.1269 4.17983 18.4998C4.05953 18.1508 4 17.5696 4 16.7559H6.50248C6.50248 16.8466 6.50274 16.916 6.50274 16.9638C6.50274 17.398 6.62752 17.6773 6.87648 17.8017C7.04898 17.8875 7.25734 17.9325 7.50223 17.9378H8.42221C8.89173 17.9378 9.19139 17.9138 9.32057 17.8655C9.55063 17.775 9.7016 17.6293 9.77374 17.4276C9.81205 17.3035 9.83113 17.1429 9.83113 16.9464C9.83113 16.5061 9.67041 16.2382 9.34973 16.1422C9.22979 16.1042 8.67176 16.0513 7.67575 15.9842C6.87597 15.9271 6.3204 15.8721 6.00922 15.8188C5.18989 15.6655 4.64387 15.3502 4.37141 14.8715C4.13192 14.4647 4.01212 13.8492 4.01212 13.026C4.01212 12.399 4.07688 11.8963 4.20626 11.5181C4.33575 11.1398 4.54444 10.8527 4.83242 10.6562C5.25428 10.3548 5.79411 10.1778 6.4512 10.1249C6.99795 10.0772 7.60446 10.0529 8.27166 10.0529C9.32193 10.0529 10.0704 10.1132 10.5167 10.233C11.6057 10.5257 12.1501 11.3457 12.1501 12.6932C12.1501 12.8037 12.1421 12.9689 12.1259 13.1898Z" fill="#7C7C7C"/>
<path fill-rule="evenodd" clip-rule="evenodd" d="M25.8206 15.0984H27.4976C28.0293 15.0793 28.3527 15.0383 28.4691 14.9743C28.628 14.8868 28.7348 14.7118 28.7879 14.4491C28.8218 14.2743 28.8388 14.0144 28.8388 13.6692C28.8388 13.2462 28.8051 12.9328 28.7373 12.728C28.6406 12.4411 28.4088 12.2664 28.0418 12.203C27.9693 12.1934 27.7955 12.1884 27.5203 12.1884H25.8206V15.0984ZM23.1306 20V10H28.1423C28.8297 10 29.3542 10.0562 29.7147 10.1683C30.5389 10.4268 31.092 10.9558 31.3753 11.7554C31.5215 12.1751 31.5946 12.8069 31.5946 13.6506C31.5946 14.6649 31.5135 15.3939 31.353 15.8377C31.0316 16.7154 30.3699 17.2209 29.3708 17.3519C29.2533 17.3715 28.7533 17.3892 27.871 17.4032L27.4243 17.4182H25.8206V20H23.1306Z" fill="#7C7C7C"/>
<path fill-rule="evenodd" clip-rule="evenodd" d="M36.8025 16.3236L35.5421 11.9887L34.3189 16.3236H36.8025ZM37.3367 18.2717H33.7401L33.2569 20H30.4738L33.4769 10H37.5346L40.5745 20H37.8498L37.3367 18.2717Z" fill="#7C7C7C"/>
<path fill-rule="evenodd" clip-rule="evenodd" d="M19.4179 11.4069C20.5274 11.4069 21.5175 11.9182 22.1685 12.7192L22.7483 11.4753C21.8414 10.6177 20.6071 10.0891 19.2458 10.0891C17.1263 10.0891 15.3131 11.3698 14.5689 13.1828H13.4382L12.7706 14.6149H14.2252C14.2142 14.7477 14.2072 14.8806 14.2072 15.0162C14.2072 15.1804 14.2157 15.3426 14.232 15.5029H13.5009L12.8334 16.9354H14.6036C15.3689 18.7025 17.1595 19.9432 19.2458 19.9432C20.2972 19.9432 21.2728 19.6279 22.0806 19.0896V17.3339C21.4301 18.075 20.4786 18.5432 19.4179 18.5432C18.1779 18.5432 17.0872 17.9035 16.452 16.9354H20.159L20.8265 15.5029H15.9066C15.8813 15.3305 15.8677 15.1543 15.8677 14.9749C15.8677 14.8536 15.874 14.7335 15.8857 14.6149H21.2402L21.9077 13.1828H16.3488C16.9635 12.1213 18.1075 11.4069 19.4179 11.4069Z" fill="#7C7C7C"/>
</svg>
