<svg width="45" height="30" viewBox="0 0 45 30" fill="none" xmlns="http://www.w3.org/2000/svg">
<path fill-rule="evenodd" clip-rule="evenodd" d="M23 25C17.5 25 13 20.5001 13 14.9502C13.05 9.45032 17.5 4.95041 23.05 5.00041C28.55 5.05041 33 9.50032 33 15.1002C32.95 20.5501 28.5 25 23 25Z" fill="#7C7C7C"/>
<path fill-rule="evenodd" clip-rule="evenodd" d="M17.293 8.66684C17.4548 8.64715 25.7523 10.1986 27.5352 10.5311C27.623 10.5624 27.7046 10.6085 27.7773 10.6668L27.8213 10.6971C28.5607 11.3534 29.4688 12.2787 30.125 12.8846C30.2646 13.0063 30.3303 13.1925 30.2979 13.3748C30.2354 13.4893 30.162 13.5974 30.0791 13.6981C29.4393 14.5147 23.1267 22.171 23.1035 22.1991C23.1035 22.1991 22.7499 22.6653 22.666 22.6668H22.6309C22.4757 22.6537 22.3924 22.3963 22.3486 22.2606C21.6224 20.2612 17.9341 11.7404 17 9.1395V8.95981L17.0107 8.93149C17.0344 8.86256 17.0739 8.79984 17.125 8.7479L17.166 8.71469C17.2041 8.68941 17.2477 8.6732 17.293 8.66684ZM22.5801 20.4315L23.2891 14.3543L18.3916 10.1981L22.5801 20.4315ZM24.0986 14.6327L23.416 20.4266L28.8623 13.8641L24.0986 14.6327ZM24.7285 13.7791L29.0186 12.9979L27.4326 11.537L24.7285 13.7791ZM23.6787 13.6327L26.5547 11.2069L19.0234 9.81723L23.6787 13.6327Z" fill="#3A3A3A"/>
</svg>
