<svg width="45" height="30" viewBox="0 0 45 30" fill="none" xmlns="http://www.w3.org/2000/svg">
<path d="M15.0092 7H21.3935C22.2847 7 22.8389 7.7264 22.631 8.62054L19.6587 21.3819C19.4489 22.273 18.5567 23 17.6649 23H11.2812C10.3912 23 9.83571 22.273 10.0436 21.3819L13.0172 8.62054C13.2251 7.7264 14.1169 7 15.0092 7Z" fill="#7C7C7C"/>
<path d="M20.8622 7H28.204C29.095 7 28.6932 7.7264 28.4836 8.62054L25.5118 21.3819C25.3032 22.273 25.3683 23 24.4754 23H17.1336C16.2407 23 15.6881 22.273 15.8979 21.3819L18.8696 8.62054C19.0806 7.7264 19.9706 7 20.8622 7Z" fill="#7C7C7C"/>
<path d="M27.9128 7H34.2971C35.1895 7 35.7438 7.7264 35.5342 8.62054L32.5623 21.3819C32.3525 22.273 31.4596 23 30.5674 23H24.186C23.2931 23 22.7393 22.273 22.9485 21.3819L25.9208 8.62054C26.1287 7.7264 27.0199 7 27.9128 7Z" fill="#7C7C7C"/>
<path d="M16.6766 11.0896C16.0201 11.0963 15.8262 11.0896 15.7642 11.075C15.7404 11.1881 15.2974 13.2318 15.2962 13.2335C15.2008 13.647 15.1314 13.9417 14.8956 14.132C14.7618 14.2426 14.6055 14.296 14.4244 14.296C14.1333 14.296 13.9637 14.1515 13.9352 13.8773L13.9297 13.7831C13.9297 13.7831 14.0184 13.2293 14.0184 13.2262C14.0184 13.2262 14.4834 11.3638 14.5666 11.1177C14.571 11.1036 14.5722 11.0963 14.5733 11.0896C13.6683 11.0976 13.5079 11.0896 13.4968 11.075C13.4907 11.0951 13.4683 11.2106 13.4683 11.2106L12.9936 13.3096L12.9528 13.4876L12.8739 14.0699C12.8739 14.2426 12.9078 14.3836 12.9754 14.5028C13.1917 14.8808 13.8087 14.9375 14.1577 14.9375C14.6074 14.9375 15.0293 14.8419 15.3144 14.6675C15.8092 14.3751 15.9387 13.918 16.0541 13.5119L16.1077 13.3035C16.1077 13.3035 16.5866 11.3693 16.668 11.1177C16.6711 11.1036 16.6724 11.0963 16.6766 11.0896ZM18.3063 12.65C18.1908 12.65 17.9798 12.678 17.7903 12.7709C17.7215 12.8063 17.6564 12.847 17.5878 12.8876L17.6497 12.664L17.6158 12.6264C17.2139 12.7078 17.1239 12.7186 16.7526 12.7709L16.7215 12.7916C16.6784 13.1491 16.6401 13.4178 16.4803 14.1204C16.4195 14.3793 16.3563 14.6408 16.293 14.8991L16.3101 14.9319C16.6905 14.9118 16.806 14.9118 17.1367 14.9173L17.1634 14.8882C17.2055 14.673 17.2109 14.6226 17.304 14.1867C17.3477 13.98 17.4389 13.526 17.4839 13.3643C17.5665 13.326 17.648 13.2883 17.7258 13.2883C17.9112 13.2883 17.8886 13.45 17.8814 13.5144C17.8735 13.6226 17.806 13.9758 17.7367 14.2791L17.6905 14.4749C17.6583 14.6194 17.623 14.76 17.5908 14.9033L17.6048 14.9319C17.9798 14.9118 18.0942 14.9118 18.4144 14.9173L18.4521 14.8882C18.51 14.5521 18.5269 14.4621 18.6296 13.9727L18.6813 13.7479C18.7817 13.3078 18.8321 13.0846 18.7561 12.9029C18.6758 12.6992 18.4832 12.65 18.3063 12.65ZM20.1268 13.1108C19.9275 13.1491 19.8003 13.1746 19.674 13.1911C19.5487 13.2111 19.4265 13.2293 19.2339 13.2561L19.2186 13.27L19.2046 13.281C19.1846 13.4245 19.1706 13.5485 19.1439 13.6943C19.1214 13.8451 19.0867 14.0164 19.0302 14.2626C18.9865 14.4511 18.9639 14.5167 18.939 14.583C18.9147 14.6493 18.888 14.7137 18.8388 14.8991L18.8503 14.9162L18.86 14.9319C19.04 14.9233 19.1578 14.9173 19.2789 14.9162C19.3998 14.9118 19.525 14.9162 19.7189 14.9173L19.7359 14.9034L19.7541 14.8882C19.7821 14.721 19.7863 14.6761 19.8034 14.5945C19.8204 14.5071 19.8496 14.386 19.9214 14.0626C19.9553 13.9108 19.9931 13.7594 20.0283 13.6044C20.0649 13.45 20.1031 13.298 20.1396 13.1461L20.1341 13.1277L20.1268 13.1108ZM20.131 12.4895C19.9499 12.3826 19.632 12.4166 19.418 12.5642C19.2047 12.709 19.1804 12.9144 19.3609 13.0227C19.5389 13.1266 19.8581 13.0956 20.0702 12.9467C20.2831 12.7989 20.3097 12.5954 20.131 12.4895ZM21.2265 14.9654C21.5929 14.9654 21.9686 14.8644 22.2513 14.5647C22.4689 14.3216 22.5686 13.96 22.6032 13.8111C22.7157 13.3175 22.6281 13.087 22.518 12.9466C22.3509 12.7327 22.0556 12.6641 21.7492 12.6641C21.5649 12.6641 21.1261 12.6823 20.7833 12.9983C20.5371 13.2263 20.4234 13.5356 20.3547 13.8322C20.2855 14.1344 20.2058 14.6785 20.7061 14.8809C20.8605 14.9472 21.083 14.9654 21.2265 14.9654ZM21.1978 13.8548C21.2823 13.481 21.3821 13.1673 21.6367 13.1673C21.8362 13.1673 21.8506 13.4007 21.7619 13.7757C21.7461 13.859 21.6732 14.1685 21.5747 14.3003C21.5059 14.3976 21.4246 14.4565 21.3346 14.4565C21.3079 14.4565 21.1487 14.4565 21.1462 14.2202C21.1449 14.1035 21.1687 13.9843 21.1978 13.8548ZM23.5193 14.9173L23.5479 14.8882C23.5885 14.673 23.5952 14.6224 23.6851 14.1867C23.7301 13.9801 23.8232 13.526 23.8669 13.3643C23.9497 13.3259 24.0298 13.2882 24.1101 13.2882C24.2942 13.2882 24.2718 13.4499 24.2645 13.5143C24.2578 13.6226 24.1903 13.9757 24.1198 14.279L24.076 14.4748C24.0426 14.6195 24.0062 14.7599 23.974 14.9033L23.988 14.932C24.3642 14.9119 24.4742 14.9119 24.7964 14.9173L24.8353 14.8882C24.8917 14.552 24.907 14.462 25.0128 13.9728L25.0632 13.7478C25.1641 13.3077 25.2151 13.0847 25.1404 12.9029C25.0578 12.6992 24.8639 12.6501 24.6895 12.6501C24.5738 12.6501 24.3617 12.6779 24.1733 12.771C24.1059 12.8063 24.0384 12.8469 23.9721 12.8877L24.0298 12.6641L23.9988 12.6263C23.5971 12.7078 23.5052 12.7187 23.1344 12.771L23.1059 12.7917C23.061 13.1491 23.0244 13.4177 22.8646 14.1204C22.8038 14.3794 22.7406 14.6408 22.6774 14.8991L22.6944 14.932C23.0754 14.9119 23.1892 14.9119 23.5193 14.9173ZM26.2838 14.9319C26.3074 14.8164 26.4479 14.132 26.4492 14.132C26.4492 14.132 26.5689 13.6299 26.5762 13.6117C26.5762 13.6117 26.6138 13.5594 26.6515 13.5387H26.7069C27.2296 13.5387 27.8198 13.5387 28.2825 13.1984C28.5973 12.9649 28.8125 12.6203 28.9085 12.2014C28.9334 12.0987 28.9517 11.9765 28.9517 11.8543C28.9517 11.6939 28.9195 11.5352 28.8265 11.4112C28.5906 11.0811 28.1208 11.075 27.5785 11.0726C27.5768 11.0726 27.3111 11.075 27.3111 11.075C26.6169 11.0836 26.3385 11.0811 26.2242 11.0671C26.2145 11.1177 26.1963 11.2076 26.1963 11.2076C26.1963 11.2076 25.9477 12.3601 25.9477 12.362C25.9477 12.362 25.3526 14.8122 25.3246 14.9277C25.9307 14.9204 26.1792 14.9204 26.2838 14.9319ZM26.7445 12.8847C26.7445 12.8847 27.0089 11.7345 27.0077 11.7389L27.0162 11.6799L27.02 11.6349L27.1256 11.6458C27.1256 11.6458 27.6709 11.6927 27.6837 11.6939C27.8989 11.7772 27.9876 11.9918 27.9256 12.2719C27.8691 12.5278 27.7031 12.743 27.4898 12.847C27.3141 12.9351 27.0989 12.9424 26.8771 12.9424H26.7336L26.7445 12.8847ZM28.3907 13.8761C28.3208 14.1739 28.2405 14.718 28.7383 14.9119C28.897 14.9794 29.0393 14.9995 29.1838 14.9921C29.3365 14.9839 29.4779 14.9073 29.6089 14.7972C29.5971 14.8425 29.5853 14.8877 29.5735 14.9332L29.596 14.9623C29.9541 14.9472 30.0652 14.9472 30.4531 14.9501L30.4883 14.9234C30.545 14.5904 30.5983 14.267 30.7455 13.6299C30.8173 13.3248 30.8889 13.0226 30.9625 12.7187L30.9509 12.6852C30.5504 12.7594 30.4433 12.7753 30.058 12.8299L30.0288 12.8537C30.0249 12.8847 30.0209 12.9144 30.0171 12.9441C29.9572 12.8474 29.8704 12.7647 29.7364 12.7132C29.5651 12.6458 29.1627 12.7327 28.8167 13.0476C28.5737 13.2725 28.457 13.5806 28.3907 13.8761ZM29.2319 13.8943C29.3176 13.5272 29.4161 13.2166 29.6713 13.2166C29.8327 13.2166 29.9177 13.3655 29.9004 13.6195C29.8867 13.6828 29.8719 13.7496 29.8543 13.8251C29.8288 13.9341 29.8011 14.0423 29.7742 14.1506C29.7468 14.2247 29.7149 14.2945 29.6799 14.3411C29.6142 14.4341 29.458 14.4919 29.3681 14.4919C29.3425 14.4919 29.1851 14.4919 29.1796 14.2597C29.1784 14.1441 29.2022 14.025 29.2319 13.8943ZM33.6249 12.6822L33.5939 12.6469C33.1976 12.7272 33.1259 12.74 32.7617 12.7891L32.735 12.8159C32.7337 12.8203 32.7326 12.827 32.7308 12.833L32.7295 12.827C32.4584 13.4524 32.4664 13.3174 32.2457 13.8098C32.2445 13.7874 32.2445 13.7734 32.2432 13.7496L32.188 12.6822L32.1533 12.6469C31.7381 12.7272 31.7283 12.74 31.3449 12.7891L31.315 12.8159C31.3108 12.8287 31.3108 12.8427 31.3083 12.8579L31.3108 12.8634C31.3587 13.1083 31.3472 13.0537 31.3953 13.4402C31.4177 13.6299 31.4476 13.8207 31.47 14.008C31.5078 14.3216 31.529 14.476 31.5752 14.9545C31.3162 15.3818 31.2549 15.5435 31.0056 15.9185L31.0074 15.9222L30.8318 16.1998C30.8117 16.2291 30.7935 16.2492 30.768 16.2577C30.74 16.2716 30.7036 16.2741 30.653 16.2741H30.5558L30.4112 16.7549L30.9071 16.7635C31.1983 16.7622 31.3813 16.6261 31.4798 16.4431L31.7916 15.9087H31.7867L31.8195 15.871C32.0293 15.4194 33.6249 12.6822 33.6249 12.6822ZM28.3906 18.9973H28.1803L28.9589 16.4218H29.2173L29.2993 16.1565L29.3072 16.4515C29.2976 16.6339 29.441 16.7956 29.8179 16.7688H30.2538L30.4038 16.2729H30.2398C30.1455 16.2729 30.1018 16.2491 30.1072 16.198L30.0993 15.8979H29.2921V15.8994C29.0311 15.9049 28.2518 15.9245 28.0941 15.9665C27.9031 16.0157 27.7019 16.1604 27.7019 16.1604L27.781 15.8948H27.0259L26.8686 16.4218L26.0795 19.0367H25.9264L25.7762 19.5291H27.28L27.2296 19.6932H27.9707L28.0198 19.5291H28.2277L28.3906 18.9973ZM27.7736 16.9451C27.6527 16.9786 27.4277 17.0801 27.4277 17.0801L27.6278 16.4218H28.2277L28.083 16.9014C28.083 16.9014 27.8977 16.9123 27.7736 16.9451ZM27.7852 17.8855C27.7852 17.8855 27.5967 17.9092 27.4727 17.9372C27.3505 17.9742 27.1215 18.0909 27.1215 18.0909L27.3281 17.4059H27.9311L27.7852 17.8855ZM27.449 19.0034H26.8473L27.0217 18.4253H27.6216L27.449 19.0034ZM28.8982 17.4059H29.7656L29.6409 17.8096H28.762L28.6301 18.2509H29.3991L28.8168 19.0708C28.776 19.131 28.7395 19.1523 28.6989 19.1693C28.6581 19.19 28.6046 19.2143 28.5426 19.2143H28.3293L28.1827 19.6976H28.7407C29.0308 19.6976 29.2021 19.5656 29.3286 19.3924L29.7279 18.8459L29.8137 19.4008C29.8319 19.5048 29.9066 19.5656 29.9571 19.5893C30.013 19.6173 30.0707 19.6654 30.1523 19.6725C30.2397 19.6763 30.3029 19.6792 30.3449 19.6792H30.6191L30.7837 19.1383H30.6756C30.6135 19.1383 30.5066 19.1279 30.4884 19.1085C30.4702 19.0848 30.4702 19.0484 30.4604 18.993L30.3734 18.4368H30.0172L30.1734 18.2509H31.0506L31.1855 17.8096H30.3734L30.4999 17.4059H31.3096L31.4597 16.9081H29.0459L28.8982 17.4059ZM21.5723 19.1158L21.7747 18.4423H22.6068L22.7588 17.9414H21.926L22.0531 17.5269H22.867L23.0177 17.0418H20.9814L20.8337 17.5269H21.2964L21.173 17.9414H20.7091L20.5553 18.4509H21.0178L20.748 19.3419C20.7116 19.4599 20.7651 19.5048 20.799 19.5596C20.8337 19.613 20.8689 19.6483 20.948 19.6684C21.0295 19.6866 21.0854 19.6975 21.1613 19.6975H22.0993L22.2665 19.1426L21.8507 19.1997C21.7704 19.1997 21.548 19.19 21.5723 19.1158ZM21.6677 15.8917L21.4569 16.2728C21.4117 16.3561 21.3711 16.4077 21.3345 16.4315C21.3023 16.4516 21.2385 16.46 21.1461 16.46H21.0361L20.889 16.9476H21.2544C21.4301 16.9476 21.565 16.8831 21.6294 16.8509C21.6987 16.8139 21.7169 16.835 21.7704 16.7834L21.8938 16.6765H23.0348L23.1862 16.1689H22.351L22.4968 15.8917H21.6677ZM23.3521 19.1256C23.3327 19.0976 23.3467 19.0483 23.3764 18.9456L23.6882 17.9134H24.7976C24.9593 17.9111 25.076 17.9092 25.1519 17.9037C25.2335 17.8952 25.3222 17.8661 25.4188 17.8138C25.5185 17.759 25.5696 17.7013 25.6127 17.635C25.6608 17.5689 25.738 17.4241 25.8042 17.201L26.1962 15.8948L25.045 15.9015C25.045 15.9015 24.6905 15.9538 24.5344 16.0115C24.377 16.0759 24.152 16.2558 24.152 16.2558L24.2559 15.8977H23.5448L22.5492 19.1997C22.5138 19.3279 22.4902 19.421 22.4847 19.4768C22.4829 19.537 22.5607 19.5966 22.6111 19.6416C22.6707 19.6866 22.7588 19.6793 22.8433 19.6866C22.9321 19.6933 23.0585 19.6975 23.2329 19.6975H23.7794L23.9472 19.131L23.4579 19.1773C23.4056 19.1773 23.3678 19.1493 23.3521 19.1256ZM23.8894 17.2162H25.0547L24.9806 17.4484C24.9702 17.4539 24.9453 17.4369 24.8267 17.4509H23.8177L23.8894 17.2162ZM24.1229 16.4376H25.2979L25.2134 16.7172C25.2134 16.7172 24.6596 16.7118 24.5709 16.7281C24.1806 16.7956 23.9526 17.0041 23.9526 17.0041L24.1229 16.4376ZM25.0067 18.2259C24.997 18.2606 24.9818 18.2818 24.9605 18.2976C24.9368 18.3129 24.8985 18.3183 24.8414 18.3183H24.6754L24.6852 18.0356H23.9946L23.9666 19.4179C23.9655 19.5176 23.9751 19.5754 24.0481 19.6216C24.1211 19.6793 24.3459 19.6866 24.6486 19.6866H25.0814L25.2376 19.1692L24.8609 19.1899L24.7356 19.1972C24.7185 19.1899 24.7021 19.1832 24.6839 19.165C24.6681 19.1493 24.6413 19.1589 24.6456 19.0592L24.6486 18.7049L25.0437 18.6885C25.257 18.6885 25.3482 18.6191 25.426 18.553C25.5003 18.4897 25.5245 18.4168 25.5526 18.3183L25.6188 18.0046H25.0759L25.0067 18.2259Z" fill="#3A3A3A"/>
</svg>
