<svg width="45" height="30" viewBox="0 0 45 30" fill="none" xmlns="http://www.w3.org/2000/svg">
<path d="M12.432 11.0585L11.4447 15.1226C11.3288 15.5291 11.2708 15.8773 11.2127 16.2839C11.1545 15.8196 11.0963 15.4131 10.9805 15.0648L9.81926 11.0584H8.65788L7.55469 15.0648C7.4385 15.4714 7.38032 15.8774 7.32266 16.2839C7.26448 15.8773 7.2063 15.4712 7.09028 15.0067L6.10319 11.0585H5L6.6837 17.6197H7.96127L9.06446 13.5552C9.18039 13.1487 9.23857 12.7422 9.29649 12.3357C9.35467 12.7423 9.41286 13.1487 9.52914 13.5552L10.6321 17.5617H11.9096L13.4773 11.0586H12.4322L12.432 11.0585Z" fill="#7C7C7C"/>
<path d="M15.6837 12.684C14.232 12.684 13.3029 13.7873 13.3029 15.2389C13.3029 16.9229 14.1738 17.6774 15.5092 17.6774C16.9607 17.6774 17.8896 16.5741 17.8896 15.0647C17.8896 13.3808 16.9608 12.684 15.6837 12.684ZM15.6256 16.7485C14.8126 16.7485 14.406 16.2259 14.406 15.1226C14.406 14.0197 14.9866 13.5552 15.6256 13.5552C16.4383 13.5552 16.8445 14.1357 16.8445 15.1226C16.8445 16.2259 16.2641 16.7485 15.6256 16.7485Z" fill="#7C7C7C"/>
<path d="M19.3412 13.7871C19.4576 13.4387 19.4576 13.0322 19.4576 12.742H18.4707V17.5613H19.5158V15.587C19.5158 14.1355 19.9803 13.4968 20.9093 13.6709V12.6258C20.0384 12.568 19.5736 13.1485 19.3412 13.7871Z" fill="#7C7C7C"/>
<path d="M22.5931 11.0002H21.5477V15.6451V17.5613H22.5931H22.5933V14.6001H22.5931V11.0002Z" fill="#7C7C7C"/>
<path d="M26.4252 12.742C26.193 12.6838 25.9604 12.6838 25.7285 12.6838C24.1605 12.6838 23.2318 13.7871 23.2318 15.4129C23.2318 16.8064 23.8122 17.6772 24.9737 17.6772C25.7286 17.6772 26.309 17.271 26.5414 16.69C26.4832 16.9226 26.4832 17.3287 26.4832 17.5611H27.4704V11H26.4253V12.742H26.4252ZM26.367 13.6131V15.1224C26.367 15.9354 25.9604 16.8646 25.2056 16.8646C24.567 16.8646 24.2769 16.3419 24.2769 15.3549C24.2769 14.0773 24.8573 13.555 25.6704 13.555C25.9024 13.555 26.193 13.555 26.4253 13.6131H26.367Z" fill="#7C7C7C"/>
<path d="M29.9089 11.0002C29.2701 11.0002 28.7479 11.0584 28.225 11.0584V17.5614H29.2701V15.1806H29.7348C31.3025 15.1806 32.2897 14.2518 32.2897 12.9742C32.2897 11.7551 31.4766 11.0002 29.9089 11.0002ZM29.7348 14.3099C29.5606 14.3099 29.3864 14.2517 29.2701 14.2517V11.8708H29.7928C30.7798 11.8708 31.1863 12.3353 31.1863 13.0321C31.1864 13.8452 30.6056 14.3099 29.7348 14.3099Z" fill="#7C7C7C"/>
<path d="M36.2958 17.5033V14.1938C36.2958 13.2649 35.8893 12.626 34.4378 12.626C33.7992 12.626 33.1602 12.8004 32.6959 12.9744L32.87 13.7873C33.2766 13.5551 33.7992 13.4389 34.2635 13.4389C35.0184 13.4389 35.2508 13.7873 35.2508 14.368V14.6583C33.4508 14.6583 32.4054 15.2389 32.4054 16.342C32.4054 17.1549 32.9282 17.6774 33.7411 17.6774C34.4959 17.6774 35.0765 17.2713 35.3086 16.6903C35.2546 16.9077 35.251 17.2257 35.2508 17.5032H36.2958V17.5033ZM33.9734 16.8648C33.5668 16.8648 33.3347 16.5742 33.3347 16.2259C33.3347 15.768 33.7309 15.3664 35.1345 15.3557V15.5292C35.1345 16.168 34.67 16.8648 33.9734 16.8648Z" fill="#7C7C7C"/>
<path d="M39.7796 12.742L39.0829 14.7163C38.9088 15.2387 38.7345 15.8196 38.6182 16.2256C38.5603 15.8195 38.4442 15.3549 38.2698 14.9484L37.5151 12.742H36.3541L38.2118 17.5614L38.0378 18.0257C37.6894 18.8967 37.2829 19.1289 36.8184 19.1289C36.6443 19.1289 36.4118 19.1289 36.2378 19.0711L36.1216 19.9418C36.2378 20 36.5279 20 36.7024 20C37.8056 20 38.4442 19.5354 39.0246 17.9098L40.8827 12.7421L39.7796 12.742Z" fill="#7C7C7C"/>
</svg>
