<svg width="47" height="50" viewBox="0 0 47 50" fill="none" xmlns="http://www.w3.org/2000/svg">
<g clip-path="url(#clip0_8758_3085)">
<path fill-rule="evenodd" clip-rule="evenodd" d="M29.1399 22.6517H23.2703H17.4007V21.6604V20.6691H23.2703H29.1399V21.6604V22.6517ZM25.2268 32.0678C25.2268 30.9721 24.3503 30.0839 23.2703 30.0839C22.189 30.0839 21.3138 30.9721 21.3138 32.0678C21.3138 33.1621 22.189 34.0504 23.2703 34.0504C24.3503 34.0504 25.2268 33.1621 25.2268 32.0678ZM23.2703 38.0169C30.1703 38.0169 35.8925 32.8465 36.829 26.1186H34.8477C33.9203 31.7469 29.0877 36.033 23.2703 36.033C21.109 36.033 19.3599 34.2578 19.3599 32.0678C19.3599 29.8778 21.109 28.1039 23.2703 28.1039C25.4316 28.1039 27.1833 29.8256 27.1833 32.0678C27.1833 32.5047 27.0959 32.9182 26.9668 33.3121C27.7481 32.9886 28.4733 32.5608 29.1399 32.0547C29.1399 28.7821 26.5103 26.1199 23.2703 26.1199C20.029 26.1199 17.4007 28.7821 17.4007 32.0678C17.4007 35.3521 20.029 38.0169 23.2703 38.0169ZM9.72986 26.1186C10.3507 30.5026 12.9764 34.2239 16.6507 36.2847C15.8903 35.0626 15.4442 33.6199 15.4442 32.0678V26.1186H9.72986ZM33.0529 24.136H38.9225C38.9225 32.8973 31.9142 39.9995 23.2703 39.9995C14.6264 39.9995 7.61812 32.8973 7.61812 24.136H17.4007V26.8347C18.8342 25.1834 20.929 24.136 23.2703 24.136C27.0033 24.136 30.1207 26.7865 30.902 30.3317C32.2468 28.6347 33.0529 26.4813 33.0529 24.136ZM28.1616 13.2291C30.3216 13.2291 32.0746 15.0043 32.0746 17.1943V19.1782H30.1181V17.1943C30.1181 16.0999 29.2416 15.2117 28.1616 15.2117C27.9868 15.2117 27.8199 15.243 27.6581 15.286C27.9686 15.8547 28.1616 16.4991 28.1616 17.1943V19.1782H26.2051V17.1943C26.2051 16.0999 25.3286 15.2117 24.2486 15.2117V19.1782H22.292V15.2117C21.2107 15.2117 20.3355 16.0999 20.3355 17.1943V19.1782H18.379V17.1943C18.379 16.4991 18.5707 15.8547 18.8825 15.2873C18.7207 15.243 18.5538 15.2117 18.379 15.2117C17.2977 15.2117 16.4225 16.0999 16.4225 17.1943V19.1782H14.4659V17.1943C14.4659 15.0043 16.2177 13.2291 18.379 13.2291C19.0977 13.2291 19.7681 13.4299 20.3459 13.773C20.9212 13.4365 21.5799 13.2291 22.292 13.2291C22.6246 13.2291 22.9416 13.2852 23.2494 13.3634C23.569 13.2786 23.9029 13.2291 24.2486 13.2291C24.9646 13.2291 25.6259 13.4378 26.2038 13.7782C26.7816 13.4378 27.4455 13.2291 28.1616 13.2291ZM23.6968 10.9347H24.619V11.7995H23.6968V12.7334H22.8438V11.7995H21.9216V10.9347H22.8438V9.99951H23.6968V10.9347Z" fill="#002453"/>
</g>
<defs>
<clipPath id="clip0_8758_3085">
<rect width="31.3043" height="30" fill="white" transform="translate(7.61772 10)"/>
</clipPath>
</defs>
</svg>
