<svg width="73" height="50" viewBox="0 0 73 50" fill="none" xmlns="http://www.w3.org/2000/svg">
<path fill-rule="evenodd" clip-rule="evenodd" d="M40.201 17.5H32.5025L28.5342 32.5H36.2327L37.0264 29.6429H33.8518L34.8041 26.0714H37.3438L38.1375 23.2143H35.5977L36.3121 20.4365H39.4867L40.201 17.5ZM49.4073 17.5L46.1533 24.3254H45.9152L46.312 17.5H41.4708L37.5025 32.5H41.7089L43.2962 26.0714H43.3756L43.2168 32.5H44.6454L47.8993 26.0714H47.9787L46.074 32.5H50.2803L54.2485 17.5H49.4073ZM65.2009 19.5635L63.2168 17.5H58.4549L55.3597 19.5635L54.0898 24.246L56.312 26.3095L59.0104 26.5476L58.2168 29.6429H57.1851L57.7406 27.6587H53.2168L52.5025 30.4365L54.4867 32.5H59.566L62.6612 30.4365L63.9311 25.6746L61.7089 23.6111L59.0104 23.373L59.8041 20.4365H60.8359L60.2803 22.4206H64.4866L65.2009 19.5635Z" fill="#0033A1"/>
<path fill-rule="evenodd" clip-rule="evenodd" d="M7.97876 17.5H30.5978L30.0422 19.4841H10.5184L7.97876 17.5ZM29.8041 20.3571L29.3279 22.0238H13.5343L11.5502 20.3571H29.8041ZM29.1692 22.8175L28.6137 24.881H17.1057L14.566 22.8175H29.1692ZM28.3755 25.754L27.8994 27.4206H20.1216L18.1374 25.754H28.3755ZM27.6612 28.2143L26.4708 32.5L21.1533 28.2143H27.6612Z" fill="#FF8400"/>
</svg>
