<svg width="80" height="50" viewBox="0 0 80 50" fill="none" xmlns="http://www.w3.org/2000/svg">
<path d="M56.2916 15V19.2614H50.06V22.1023H56.2916V26.0795H50.06V30.0568H56.2916V34.3182H45.528V15H56.2916ZM61.9566 34.3182H56.2916L61.6734 28.0682L56.2916 22.1023H61.9566L64.7891 24.9432L67.3384 22.1023H73.0035L67.3384 28.0682L73.0035 34.3182H67.0552L64.5059 31.1932L61.9566 34.3182Z" fill="#FF6600"/>
<path d="M41.1092 15V22.8977H41.0809C40.0895 21.7614 38.8432 21.3636 37.3703 21.3636C34.4245 21.3636 32.1868 23.3807 31.422 26.0511C30.5156 23.0966 28.2212 21.3068 24.7939 21.3068C22.018 21.3068 19.8369 22.5284 18.7039 24.5739V22.0455H12.9539V19.2898H19.2138V15H7.85535V34.2898H12.9539V26.1932H18.0524C17.9108 26.7898 17.8258 27.4148 17.8258 28.0966C17.8258 32.1023 20.885 34.9432 24.7939 34.9432C28.0796 34.9432 30.2606 33.3807 31.3936 30.5682H27.0316C26.4367 31.4205 25.9835 31.6761 24.7939 31.6761C23.4342 31.6761 22.2446 30.4545 22.2446 29.0341H31.167C31.5353 32.2443 34.0279 35 37.4269 35C38.8998 35 40.2595 34.2614 41.0809 33.0398H41.1092V34.2898H45.6129V15H41.1092ZM22.3862 26.25C22.6695 25.0284 23.6042 24.2045 24.7939 24.2045C26.0968 24.2045 27.0032 25 27.2298 26.25H22.3862ZM38.39 31.3636C36.7188 31.3636 35.6991 29.8011 35.6991 28.1818C35.6991 26.4489 36.6055 24.8011 38.39 24.8011C40.2595 24.8011 40.9959 26.4489 40.9959 28.1818C40.9959 29.8295 40.2028 31.3636 38.39 31.3636Z" fill="#4D148C"/>
</svg>
