<svg width="79" height="50" viewBox="0 0 79 50" fill="none" xmlns="http://www.w3.org/2000/svg">
<path d="M64.2424 19.8857C64.3825 19.8857 64.5226 20.0258 64.5226 20.1659V22.1276C64.5226 22.2677 64.3825 22.4078 64.2424 22.4078H62.0005C61.7202 22.4078 61.44 22.3378 61.44 22.3378V30.1144C61.44 30.2545 61.2999 30.3947 61.1598 30.3947H58.7077C58.5675 30.3947 58.4274 30.2545 58.4274 30.1144V22.4779C58.4274 22.4779 58.2172 22.548 58.0071 22.548H55.625C55.4849 22.548 55.3448 22.4078 55.3448 22.2677V20.236C55.3448 20.0959 55.4849 19.9557 55.625 19.9557H64.2424V19.8857ZM14.2897 19.9557C14.1496 19.9557 14.0095 20.0959 14.0095 20.236V22.1977C14.0095 22.3378 14.1496 22.4779 14.2897 22.4779H16.6717C16.8819 22.4779 17.0921 22.4078 17.0921 22.4078V30.1845C17.0921 30.3246 17.2322 30.4647 17.3723 30.4647H19.8244C19.9646 30.4647 20.1047 30.3246 20.1047 30.1845V22.4779C20.1047 22.4779 20.3849 22.548 20.6652 22.548H22.9071C23.0472 22.548 23.1873 22.4078 23.1873 22.2677V20.236C23.1873 20.0959 23.0472 19.9557 22.9071 19.9557H14.2897ZM59.8987 13.3C55.4149 13.3 51.4915 15.8923 49.5298 19.6054C47.5681 15.8923 43.7149 13.3 39.231 13.3C34.7472 13.3 30.8939 15.8923 28.9322 19.6054C26.9705 15.8923 23.1173 13.3 18.6334 13.3C12.258 13.3 7.00348 18.5545 7.00348 25C7.00348 31.4456 12.1879 36.7 18.6334 36.7C23.1173 36.7 26.9705 34.1078 28.9322 30.3947C30.8939 34.1078 34.7472 36.7 39.231 36.7C43.7149 36.7 47.5681 34.1078 49.5298 30.3947C51.4915 34.1078 55.3448 36.7 59.8286 36.7C66.2041 36.7 71.4586 31.4456 71.4586 25C71.4586 18.5545 66.2741 13.3 59.8987 13.3ZM18.6334 34.0378C13.6592 34.0378 9.66575 29.9743 9.66575 25C9.66575 20.0258 13.7292 15.9623 18.6334 15.9623C23.6077 15.9623 27.6011 20.0258 27.6011 25C27.6011 29.9743 23.6077 34.0378 18.6334 34.0378ZM39.231 34.0378C34.2568 34.0378 30.2634 29.9743 30.2634 25C30.2634 20.0258 34.3268 15.9623 39.231 15.9623C44.2053 15.9623 48.1987 20.0258 48.1987 25C48.2687 29.9743 44.2053 34.0378 39.231 34.0378ZM59.8987 34.0378C54.9244 34.0378 50.931 29.9743 50.931 25C50.931 20.0258 54.9945 15.9623 59.8987 15.9623C64.8729 15.9623 68.8663 20.0258 68.8663 25C68.8663 29.9743 64.8029 34.0378 59.8987 34.0378ZM43.7149 19.7456C43.925 19.7456 44.0652 19.8857 44.0652 20.0258V29.9042C44.0652 30.0444 43.925 30.1845 43.7849 30.1845H41.7532C41.6131 30.1845 41.4729 30.1144 41.4029 30.0444C41.4029 30.0444 37.6897 25 37.6196 24.8599C37.4795 24.7198 37.3394 24.3695 37.3394 24.3695V29.8342C37.3394 29.9743 37.1993 30.1144 37.0592 30.1144H34.7472C34.6071 30.1144 34.4669 29.9743 34.4669 29.8342V20.0258C34.4669 19.8857 34.6071 19.7456 34.7472 19.7456H36.7789C36.919 19.7456 37.0592 19.8156 37.1292 19.8857C37.1292 19.8857 40.7723 24.7899 40.9125 25.0701C41.0526 25.2102 41.1927 25.5605 41.1927 25.5605V20.0258C41.1927 19.8857 41.3328 19.7456 41.4729 19.7456C41.4729 19.7456 43.5747 19.7456 43.7149 19.7456Z" fill="#FF6600"/>
</svg>
