<svg width="57" height="50" viewBox="0 0 57 50" fill="none" xmlns="http://www.w3.org/2000/svg">
<g clip-path="url(#clip0_8714_7579)">
<path d="M21.7717 22.8025C20.1418 22.8025 18.8308 23.7064 18.8308 25.7419C18.8308 27.732 20.1418 28.6815 21.7717 28.6815C23.3959 28.6815 24.7098 27.732 24.7098 25.7419C24.7098 23.7064 23.3959 22.8025 21.7717 22.8025ZM21.7717 27.2836C21.0428 27.2836 20.4977 26.7299 20.4977 25.7419C20.4977 24.6672 21.0428 24.1975 21.7717 24.1975C22.4962 24.1975 23.0429 24.6672 23.0429 25.7419C23.0429 26.7299 22.4962 27.2836 21.7717 27.2836ZM32.3639 22.8537C32.3639 22.8836 32.3881 22.9078 32.418 22.9078H33.655C33.7532 22.9078 33.8329 22.9889 33.8329 23.0843V24.1548C33.8329 24.1861 33.8087 24.2103 33.7788 24.2103H32.418C32.3881 24.2103 32.3639 24.2345 32.3639 24.2644V26.3427C32.3639 27.1398 32.6656 27.3761 33.1696 27.3761C33.4059 27.3761 33.7774 27.2309 33.8315 27.2309C33.8614 27.2309 33.887 27.2551 33.887 27.285V28.31C33.887 28.3868 33.8429 28.4409 33.7945 28.4665C33.5696 28.5875 33.1924 28.6701 32.6343 28.6701C31.6593 28.6701 30.7539 28.179 30.7539 26.6117V22.9975C30.7539 22.6772 30.8792 22.3726 31.077 22.1562C31.3404 21.8658 32.1874 21.322 32.297 21.322C32.344 21.322 32.3639 21.3363 32.3639 21.3804V22.8537ZM12.697 23.09C12.697 22.9889 12.7781 22.9092 12.8791 22.9092H15.023C17.1283 22.9092 18.2187 24.1733 18.2187 25.8089C18.2187 27.4459 16.9987 28.579 14.9888 28.579H14.3625C14.3325 28.579 14.3069 28.6032 14.3069 28.6345V31.2865C14.3069 31.3306 14.2884 31.3448 14.24 31.3448C14.1304 31.3448 13.2834 30.801 13.0201 30.5107C12.8222 30.2928 12.697 29.9882 12.697 29.6694V23.09ZM16.6286 25.7263C16.6286 25.0302 16.1788 24.3783 14.9902 24.3783H14.3596C14.3297 24.3783 14.3055 24.4025 14.3055 24.4338V27.0502C14.3055 27.08 14.3297 27.1057 14.3596 27.1057H15.0215C16.4379 27.1057 16.6286 26.122 16.6286 25.7263ZM29.9254 26.8309C29.9254 28.0252 29.0671 28.6815 27.3931 28.6815C26.435 28.6815 25.4229 28.3455 25.4144 28.3427C25.339 28.3142 25.2891 28.2459 25.2891 28.1676V27.0544C25.2891 27.0174 25.3205 26.989 25.3589 26.989C25.3646 26.989 25.3803 26.9918 25.3817 26.9932C25.739 27.1085 26.8977 27.3961 27.514 27.3961C27.8784 27.3961 28.0692 27.342 28.1916 27.2195C28.2756 27.1356 28.3141 27.0459 28.3141 26.9377C28.3141 26.5733 27.8571 26.4722 27.4144 26.3754C27.3589 26.364 27.3831 26.3698 27.2336 26.3341C26.2642 26.105 25.2422 25.8687 25.2422 24.6203C25.2422 24.0665 25.4742 23.6067 25.9084 23.2879C26.3411 22.969 26.966 22.8025 27.7147 22.8025C28.3881 22.8025 29.1867 23.0246 29.4543 23.1099C29.5383 23.137 29.5867 23.211 29.5867 23.2865V24.3968C29.5838 24.448 29.5297 24.4722 29.4927 24.458C28.7255 24.1704 28.0237 24.0694 27.5197 24.0694C27.1197 24.0694 26.8607 24.243 26.8607 24.5121C26.8607 24.8224 27.2393 24.9064 27.719 25.0146C27.7774 25.0274 28.0393 25.0872 28.1076 25.1014C28.5005 25.1882 28.9062 25.2765 29.2393 25.4943C29.7005 25.7961 29.9254 26.2331 29.9254 26.8309ZM38.6044 28.559C38.586 28.559 38.5703 28.5434 38.5703 28.5249V25.1469C38.5703 24.3968 38.3155 24.0765 37.7176 24.0765C37.5041 24.0765 37.2465 24.1562 36.9902 24.3014C36.7354 24.4494 36.5361 24.5719 36.465 24.6146C36.445 24.6274 36.4237 24.6615 36.4237 24.6886V28.5263C36.4237 28.5448 36.408 28.5605 36.3895 28.5605H34.8835C34.865 28.5605 34.8479 28.5448 34.8479 28.5263V23.0914C34.8479 23.0032 34.9205 22.9306 35.0101 22.9306H36.3909C36.4094 22.9306 36.4265 22.9462 36.4265 22.9647V23.3918C36.4265 23.4174 36.4479 23.4388 36.4735 23.4388C36.4834 23.4388 36.4963 23.4331 36.5005 23.4302L36.5461 23.3961C36.7141 23.2665 36.9731 23.1199 37.1468 23.053C37.524 22.9092 37.9311 22.8252 38.2614 22.8252C39.4927 22.8252 40.1433 23.5327 40.1433 24.8694V28.5234C40.1433 28.5434 40.1276 28.5576 40.1077 28.5576H38.6044V28.559ZM41.3859 28.559C41.3674 28.559 41.3518 28.5434 41.3518 28.5249V20.2018C41.3518 20.1718 41.3575 20.1633 41.3988 20.1633C41.4927 20.1633 42.3326 20.6915 42.6045 20.9904C42.8066 21.2124 42.9219 21.5142 42.9219 21.8188V28.5249C42.9219 28.5434 42.9062 28.559 42.8877 28.559H41.3859ZM21.7703 14.0922C21.7418 14.0922 21.7148 14.1007 21.682 14.1206C21.4286 14.3114 21.2052 14.532 21.0115 14.7797C20.9546 14.8438 20.9546 14.9178 21.0144 14.9946C21.198 15.2324 21.4087 15.4445 21.6393 15.6253C21.682 15.6594 21.7247 15.6751 21.7688 15.6751C21.813 15.6751 21.8557 15.658 21.8984 15.6238C22.129 15.443 22.3396 15.2309 22.5233 14.9946C22.5831 14.9178 22.5831 14.8438 22.5233 14.7754C22.334 14.5306 22.1105 14.3099 21.8628 14.1235C21.8272 14.1007 21.8002 14.0922 21.7703 14.0922ZM21.7703 16.132C21.6493 16.132 21.5212 16.1348 21.3888 16.1406C21.3418 16.1406 21.2991 16.1576 21.2664 16.1918C21.2194 16.2388 21.2009 16.3142 21.2009 16.364C21.2052 16.6245 21.2223 17.9996 21.2336 18.875C21.2393 19.2979 21.2422 19.6039 21.2436 19.6139C21.2436 19.6765 21.2891 19.8074 21.4301 19.8074H22.1119C22.213 19.8074 22.2827 19.7363 22.297 19.6224C22.297 19.6195 22.297 19.6167 22.297 19.6139C22.297 19.5925 22.3112 18.4238 22.3383 16.4067V16.3669C22.3396 16.3285 22.3269 16.2459 22.2742 16.1932C22.2415 16.159 22.1988 16.1434 22.1489 16.1434C22.0208 16.1363 21.8927 16.132 21.7703 16.132ZM23.4998 16.3185C23.3432 16.3185 23.2151 16.4053 23.1482 16.5548C22.9517 16.9918 22.8094 17.3903 22.6714 17.8858C22.6557 17.9441 22.6614 17.9925 22.6884 18.0281C22.7069 18.0523 22.7439 18.0808 22.818 18.0808H23.3504C23.4714 18.0808 23.5155 18.0167 23.5325 17.964C23.6194 17.6679 23.682 17.4957 23.793 17.2509C23.7945 17.248 23.803 17.2324 23.8358 17.2324C23.8485 17.2324 23.8614 17.2338 23.8742 17.2381L24.1446 17.3277C24.176 17.3391 24.1959 17.3662 24.2059 17.3875C24.2258 17.4288 24.2286 17.4843 24.2144 17.5256C24.2116 17.5342 23.6678 19.0544 23.5055 19.5612C23.4813 19.6395 23.4841 19.7007 23.5169 19.7463C23.5468 19.7875 23.598 19.8089 23.6692 19.8089H24.3283C24.4364 19.8089 24.5077 19.7662 24.539 19.6793C24.5632 19.6139 24.5973 19.5185 24.6372 19.406L24.6528 19.3633C24.8507 18.811 25.1511 17.974 25.2151 17.7363C25.3233 17.3334 25.3532 16.8921 24.7624 16.6729C24.5745 16.6032 24.3966 16.5434 24.2329 16.4936C24.0251 16.4295 23.8243 16.3825 23.6479 16.3413L23.6265 16.3356C23.5781 16.3227 23.5383 16.3185 23.4998 16.3185ZM20.0407 16.3185C20.0023 16.3185 19.9624 16.3227 19.924 16.3327L19.897 16.3384C19.7205 16.3797 19.5212 16.4267 19.3134 16.4907C19.151 16.5406 18.9731 16.6003 18.7838 16.6701C18.1916 16.8893 18.2229 17.3306 18.3311 17.7334C18.3923 17.9626 18.6713 18.7469 18.9076 19.4032C18.9489 19.5156 18.9816 19.611 19.0058 19.6765C19.0372 19.7633 19.1084 19.806 19.2165 19.806H19.8756C19.9639 19.806 20.0066 19.7718 20.0279 19.7434C20.0607 19.6993 20.0635 19.6381 20.0393 19.5597C19.8784 19.0601 19.3347 17.5384 19.329 17.5242C19.3147 17.4829 19.3176 17.4288 19.3376 17.3861C19.3475 17.3648 19.366 17.3377 19.4002 17.3263L19.6721 17.2366C19.682 17.2338 19.6948 17.2324 19.7076 17.2324C19.7347 17.2324 19.7475 17.2437 19.7503 17.2509C19.8628 17.5014 19.9268 17.6751 20.0108 17.964C20.0265 18.0181 20.0706 18.0808 20.1916 18.0808H20.7254C20.7838 18.0808 20.8279 18.0637 20.855 18.0281C20.882 17.9925 20.8877 17.9455 20.8706 17.8871C20.7311 17.389 20.5888 16.9903 20.3938 16.5548C20.361 16.4836 20.2628 16.3185 20.0407 16.3185ZM24.1945 20.3128H19.3532C19.1838 20.3128 19.04 20.4552 19.04 20.6245V21.2338C19.04 21.4245 19.1212 21.517 19.2905 21.517H24.2585C24.4265 21.517 24.5077 21.4245 24.5077 21.2338V20.6245C24.5077 20.4552 24.3639 20.3128 24.1945 20.3128ZM47.5084 25.0231C47.5027 21.6238 41.1169 15.7363 34.3127 11.9854C26.4635 7.65656 17.5311 5.10567 14.5888 6.72702C11.235 8.57756 9.39731 17.8145 9.39589 25.0231C9.39731 32.29 11.1283 41.4089 14.5888 43.3178C17.7247 45.0459 26.2685 42.495 34.3127 38.0608C41.2237 34.2501 47.5027 28.5875 47.5084 25.0231ZM16.9446 4.58325C21.8984 4.58325 29.8344 7.71492 35.1112 10.6245C38.1304 12.2886 41.5568 14.7171 44.2073 17.1882C46.7511 19.5584 49.1511 22.5092 49.1554 25.0231C49.1511 27.3904 47.2294 30.1676 44.1361 33.0032C41.5098 35.4089 38.0991 37.7747 35.1126 39.4217C30.0151 42.2317 22.2457 45.5142 17.124 45.5142C15.7319 45.5142 14.5902 45.2737 13.7275 44.7982C11.4599 43.5484 10.0066 40.1804 9.1482 36.8808C8.22578 33.3406 7.75176 29.0829 7.75034 25.0245C7.75034 21.053 8.26279 16.7854 9.15532 13.3149C10.2429 9.08858 11.8244 6.29998 13.7275 5.24944C14.5261 4.80674 15.6094 4.58325 16.9446 4.58325Z" fill="#F56900"/>
</g>
<defs>
<clipPath id="clip0_8714_7579">
<rect width="42" height="42" fill="white" transform="translate(7.45856 4)"/>
</clipPath>
</defs>
</svg>
