<svg xmlns="http://www.w3.org/2000/svg" width="104" height="52" fill="none" viewBox="0 0 104 52">
  <path fill="#11559C" d="m43.011 27.7-4.407 11.444-.473-2.329c-1.102-2.852-3.487-5.843-6.26-7.065l4.044 14.702H40.7l7.108-16.775H43.01v.024Zm3.957 16.752 2.902-16.775h4.646l-2.902 16.775h-4.646Zm20.968-16.054a11.246 11.246 0 0 0-4.01-.72c-4.429 0-7.537 2.316-7.561 5.626-.024 2.459 2.22 3.818 3.913 4.634 1.752.84 2.328 1.371 2.328 2.116-.012 1.146-1.392 1.666-2.677 1.666-1.788 0-2.736-.26-4.213-.886l-.576-.272-.624 3.818c1.044.473 2.977.887 4.993.91 4.694 0 7.754-2.293 7.79-5.827.024-1.95-1.176-3.416-3.757-4.634-1.56-.792-2.52-1.312-2.508-2.116 0-.71.804-1.466 2.568-1.466a7.835 7.835 0 0 1 3.35.662l.395.201.589-3.712Zm11.502-.721h-3.427c-1.06 0-1.857.291-2.333 1.395l-6.581 15.38h4.653s.762-2.07.94-2.523c.512 0 5.034.012 5.677.012.143.58.536 2.51.536 2.51h4.13l-3.595-16.774Zm-5.474 10.811c.369-.965 1.761-4.696 1.761-4.696-.024.046.369-.965.595-1.604l.298 1.441 1.035 4.848c-.69.011-2.82.011-3.69.011Z"/>
  <path fill="#F2A724" d="M35.536 27.677h-7.807l-.052.294c6.066 1.41 10.08 4.854 11.742 8.932L37.731 29.1c-.286-1.07-1.143-1.387-2.195-1.423Z"/>
  <path fill="#11559C" d="M14.568 22.645h-2.86L8.387 8.067l3.174-.519 2.27 11.405 5.77-11.251h3.043l-8.077 14.943ZM29.155 19h-6.497c-.183 2.196.733 3.153 2.292 3.153 1.295 0 2.44-.536 3.667-1.404l-.012 2.195c-1.203.843-2.601 1.379-4.24 1.379-2.83 0-4.698-1.8-4.136-5.859.504-3.663 2.784-5.883 5.42-5.883 3.036 0 4.045 2.54 3.61 5.743-.024.23-.092.51-.104.676Zm-3.827-4.48c-1.008 0-1.948.881-2.383 2.732h4.021c.07-1.749-.424-2.731-1.638-2.731ZM33.707 17l-.922 5.645h-2.591l1.609-9.852h2.212v1.975c.876-1.139 2.07-2.098 3.715-2.187l.012 2.432c-1.656.112-3.123.926-4.035 1.986Zm4.035 5.645 1.627-10.39h2.619l-1.615 10.39h-2.631Zm3.23-12.131c-.874 0-1.484-.6-1.34-1.46.143-.882.933-1.506 1.806-1.506.849 0 1.459.624 1.315 1.507-.131.859-.92 1.459-1.782 1.459Zm8.238-.766c-.918 0-1.469.403-1.616 1.369l-.244 1.588h2.055v2.188h-2.398l-1.321 8.59h-2.667l1.321-8.602h-1.566l.343-2.188h1.566l.281-1.857c.367-2.396 2.03-3.288 4.245-3.288.465 0 .82.05 1.09.086l.024 2.187c-.27-.024-.661-.073-1.114-.073Zm.274 12.897 1.627-10.39h2.619l-1.615 10.39h-2.631Zm3.241-12.131c-.873 0-1.483-.6-1.351-1.46.143-.882.932-1.506 1.806-1.506.849 0 1.459.624 1.315 1.507-.131.859-.92 1.459-1.77 1.459ZM63.542 19h-6.497c-.172 2.196.733 3.153 2.292 3.153 1.295 0 2.44-.536 3.667-1.404l-.012 2.195c-1.203.843-2.6 1.379-4.24 1.379-2.83 0-4.698-1.8-4.136-5.859.504-3.663 2.784-5.883 5.42-5.883 3.036 0 4.045 2.54 3.61 5.743-.024.23-.092.51-.104.676Zm-3.827-4.48c-1.008 0-1.948.881-2.383 2.732h4.022c.068-1.749-.424-2.731-1.639-2.731Zm12.637 8.75.012-1.465c-.906.893-2.08 1.679-3.574 1.679-2.264 0-3.818-1.632-3.255-5.18.624-3.92 3.109-5.658 5.617-5.658 1.028 0 1.836.178 2.448.393l.808-5.074 2.753-.417-2.484 15.721h-2.325Zm.905-8.075c-.624-.31-1.113-.453-2.031-.453-1.407 0-2.62 1.108-2.974 3.418-.318 2.049.416 3.001 1.603 3.001.98 0 1.836-.571 2.693-1.44l.71-4.526Zm8.62 9.128a8.318 8.318 0 0 1-3.038-.55l1.639-11.707 1.934-.324-.706 5.067c.57-.549 1.355-1.11 2.31-1.11 1.605 0 2.686 1.31 2.288 4.118-.432 3.07-2.162 4.506-4.427 4.506Zm1.4-6.802c-.626 0-1.263.461-1.82 1.085l-.536 3.782c.376.15.626.225 1.161.225 1.195 0 2.037-.8 2.299-2.696.228-1.598-.262-2.396-1.104-2.396Zm8.125 6.591c-.989 2.083-1.966 2.727-3.467 2.727-.337 0-.523-.038-.698-.089l-.011-1.73c.244.076.512.127.884.127.558 0 1.058-.278 1.384-.896l.256-.556-1.64-8.32 2.059-.278.954 6.01 2.57-5.897h1.92l-4.211 8.902Z"/>
</svg>
