<svg xmlns="http://www.w3.org/2000/svg" width="30" height="30" fill="none" viewBox="0 0 30 30">
  <path fill="#FFE400" d="M0 15C0 6.716 6.716 0 15 0c8.284 0 15 6.716 15 15 0 8.284-6.716 15-15 15-8.284 0-15-6.716-15-15Z"/>
  <path fill="#fff" d="M15.154 7.5h-.04l-.275.003c-.355 0-1.066.05-1.83.386a4.077 4.077 0 0 0-1.166.771c-.403.382-.73.852-.975 1.398-.358.8-.273 2.146-.204 3.228v.001l.022.355a.626.626 0 0 1-.263.05c-.202 0-.442-.065-.713-.191a.64.64 0 0 0-.271-.056.963.963 0 0 0-.48.134c-.185.108-.305.262-.338.433-.021.112-.02.335.228.56.137.125.337.24.596.342.068.027.148.052.234.08.296.093.745.235.861.51.06.138.034.322-.075.543a5.263 5.263 0 0 1-.814 1.265 4.526 4.526 0 0 1-.972.857 3.583 3.583 0 0 1-1.365.532.374.374 0 0 0-.313.39c.003.055.016.11.038.162v.001c.077.179.254.33.542.464.352.163.879.3 1.565.407.035.066.07.231.095.344.027.12.054.244.093.375.041.142.15.313.429.313.105 0 .227-.024.367-.051.206-.04.488-.096.84-.096.195 0 .397.017.6.051.392.065.73.303 1.121.579.573.403 1.22.86 2.21.86.028 0 .055 0 .081-.003.033.002.074.003.117.003.99 0 1.637-.457 2.21-.86.391-.276.729-.514 1.12-.579.204-.034.406-.05.601-.05a4.2 4.2 0 0 1 .84.088c.154.03.275.045.367.045h.019a.405.405 0 0 0 .41-.306c.039-.129.066-.25.093-.372a1.88 1.88 0 0 1 .095-.342c.686-.108 1.213-.245 1.565-.408.287-.133.464-.284.54-.461a.476.476 0 0 0 .04-.165.374.374 0 0 0-.313-.39c-2.139-.351-3.103-2.542-3.142-2.636a.298.298 0 0 0-.009-.018c-.11-.221-.135-.404-.075-.543.116-.274.564-.416.861-.51a3.68 3.68 0 0 0 .234-.08c.292-.114.5-.239.638-.38.165-.17.197-.331.195-.437-.005-.256-.202-.483-.514-.595a.921.921 0 0 0-.348-.066.781.781 0 0 0-.324.066c-.25.116-.475.18-.667.19a.605.605 0 0 1-.22-.05l.018-.309.003-.046c.069-1.082.154-2.43-.204-3.23a4.36 4.36 0 0 0-.979-1.401 4.089 4.089 0 0 0-1.17-.772 4.67 4.67 0 0 0-1.83-.383Z"/>
</svg>
