<svg xmlns="http://www.w3.org/2000/svg" width="30" height="30" fill="none" viewBox="0 0 30 30">
  <path fill="#8F80E6" d="M0 15C0 6.716 6.716 0 15 0c8.284 0 15 6.716 15 15 0 8.284-6.716 15-15 15-8.284 0-15-6.716-15-15Z"/>
  <path fill="#fff" d="M21.782 7.806c-.475-.402-2.378-1.793-6.551-1.793 0 0-4.941-.293-7.357 1.903-1.354 1.354-1.83 3.294-1.866 5.746-.037 2.416-.11 6.991 4.282 8.236v1.866s-.037.769.476.952c.622.183.951-.403 1.537-1.025.33-.366.768-.842 1.098-1.244 3.001.256 5.307-.33 5.6-.403.585-.22 4.026-.659 4.575-5.197.586-4.722-.256-7.686-1.794-9.04Zm.476 8.675c-.439 3.806-3.257 4.063-3.77 4.245-.22.037-2.232.55-4.794.403 0 0-1.904 2.27-2.49 2.892-.182.183-.402.183-.402-.22v-3.148c-3.696-1.024-3.477-4.904-3.44-6.917.036-2.05.402-3.697 1.537-4.832 2.05-1.866 6.259-1.573 6.259-1.573 3.55 0 5.234 1.098 5.636 1.427 1.318 1.135 1.977 3.807 1.464 7.723Zm-5.087-2.928c-.037-1.062-.586-1.647-1.61-1.72-.33 0-.367.475-.037.475.768.074 1.134.44 1.208 1.245 0 .33.475.292.439 0Zm.768.402c0 .293.476.33.476 0 .037-1.757-1.098-3.22-3.22-3.367-.33-.036-.367.44-.037.476 1.83.11 2.818 1.354 2.781 2.891Zm1.72.476c-.036-3.184-2.195-5.05-4.904-5.087-.293 0-.293.475 0 .475 2.416.037 4.392 1.647 4.429 4.612 0 .33.476.33.476 0Zm-.438 3.587c.183-.33.146-.622-.11-.842a8.888 8.888 0 0 0-1.684-1.208c-.403-.22-.805-.073-.988.147l-.33.439c-.183.22-.512.183-.512.183-2.452-.622-3.111-3.074-3.111-3.074s0-.33.22-.513l.439-.366c.22-.183.33-.586.11-.988a5.498 5.498 0 0 0-.55-.842c-.182-.293-.658-.805-.658-.805-.183-.293-.513-.33-.842-.146h-.037c-.695.365-1.464 1.134-1.208 1.866 0 0 .183.659.952 2.05.366.695.769 1.244 1.135 1.72a10.14 10.14 0 0 0 1.537 1.537c1.171.915 2.965 1.867 3.733 2.087h.037c.732.256 1.5-.513 1.867-1.208v-.037Z"/>
</svg>
