<svg xmlns="http://www.w3.org/2000/svg" width="30" height="30" fill="none" viewBox="0 0 30 30">
  <path fill="#45B035" d="M0 15C0 6.716 6.716 0 15 0c8.284 0 15 6.716 15 15 0 8.284-6.716 15-15 15-8.284 0-15-6.716-15-15Z"/>
  <path fill="#fff" fill-rule="evenodd" d="M19.202 12.06c-.1-.006-.2-.007-.3-.007-3.593 0-6.507 2.441-6.507 5.454 0 .493.081.97.228 1.425a8.434 8.434 0 0 1-2.74-.29l-.122-.035-2.582 1.315.69-2.162-.066-.041C6.1 16.627 5 14.908 5 12.973 5 9.674 8.197 7 12.143 7c3.572 0 6.533 2.193 7.059 5.06Zm-4.575-2.115c.554 0 1.003.434 1.003.97 0 .537-.449.972-1.003.972-.554 0-1.002-.435-1.002-.971 0-.537.448-.97 1.002-.97Zm-4.97 1.942c-.554 0-1.003-.435-1.003-.971 0-.537.449-.97 1.003-.97.554 0 1.004.433 1.004.97 0 .536-.45.971-1.004.971Z" clip-rule="evenodd"/>
  <path fill="#fff" fill-rule="evenodd" d="M18.956 22.589c-3.333 0-6.036-2.26-6.036-5.047s2.703-5.046 6.036-5.046c3.331 0 6.033 2.26 6.033 5.046 0 1.635-.93 3.087-2.369 4.01l-.055.034.583 1.827-2.18-1.112-.104.03a7.094 7.094 0 0 1-1.908.258Zm-2.948-6.786c0-.452.38-.82.847-.82.469 0 .848.368.848.82 0 .454-.38.822-.848.822a.835.835 0 0 1-.847-.822Zm4.2 0c0-.452.378-.82.846-.82.469 0 .848.368.848.82a.835.835 0 0 1-.848.822.835.835 0 0 1-.847-.822Z" clip-rule="evenodd"/>
</svg>
