<svg width="40" height="36" viewBox="0 0 40 36" fill="none" xmlns="http://www.w3.org/2000/svg">
<g clip-path="url(#clip0_2003_319)">
<path d="M28.3944 0.5C25.0893 0.5 22.1129 1.93525 20 4.23532C17.8871 1.93525 14.9107 0.5 11.6076 0.5C5.19751 0.5 0 5.89138 0 12.5422C0 13.0206 0.0347045 13.4929 0.087782 13.957C0.261304 16.7866 1.30244 19.8942 3.52149 23.0857C5.23426 25.5494 7.83709 28.1622 10.7421 30.3949C13.7205 32.6847 17.0154 34.5759 20.002 35.5C22.9887 34.5759 26.2836 32.6847 29.262 30.3949C32.167 28.1622 34.7698 25.5494 36.4826 23.0857C38.7016 19.8942 39.7428 16.7866 39.9163 13.957C39.9694 13.4929 40.0041 13.0226 40.0041 12.5422C40 5.89138 34.8045 0.5 28.3944 0.5Z" fill="#28D17C"/>
<path d="M20.0082 4.26599C20.0164 4.25577 19.9817 4.19852 19.9327 4.16376C17.8525 2.01498 14.9536 0.675827 11.7384 0.675827C8.02907 0.675827 4.73419 2.44842 2.63967 5.19829C1.43726 6.77461 1.05755 8.90499 1.64753 10.8003C1.93129 11.7141 2.42736 12.4992 3.07041 13.1473C3.60323 13.683 4.23403 14.1226 4.92812 14.4599C4.77297 15.0447 4.65661 15.6376 4.60762 16.2407C4.57087 16.715 4.57495 17.1955 4.64232 17.6678C4.66069 17.8007 4.68723 17.9295 4.71785 18.0583C4.94037 18.1646 5.16697 18.2607 5.3997 18.3445C7.45339 19.0887 10.1297 19.5548 11.7629 17.5287C11.9813 17.1301 12.1895 16.7232 12.3814 16.3102C12.7795 15.4515 13.1143 14.5581 13.3266 13.6339C13.4307 13.178 13.5063 12.7139 13.543 12.2457C13.543 12.2212 13.545 12.1967 13.5471 12.1721C15.6498 9.60012 18.0505 6.32481 20.0082 4.26599Z" fill="#20B66A"/>
<path d="M14.5146 32.9852C14.5146 32.9852 14.5228 32.9873 14.5228 32.9852C14.5208 32.9852 14.5167 32.9852 14.5146 32.9852Z" fill="white"/>
<path d="M12.3589 26.1975C13.9798 21.9837 16.0743 20.2888 16.3785 19.7818C16.6683 19.3013 16.6336 18.919 16.4234 18.7636C15.9865 18.4426 15.3373 18.461 14.6147 19.1378C13.2551 20.4095 12.4854 21.7568 12.4385 20.6609C12.3589 19.1705 13.3694 15.3738 14.6106 12.4461C15.1454 11.1499 14.8086 10.6776 14.486 10.5733C13.8695 10.3689 12.8508 11.937 12.1935 13.6728C11.6566 14.877 10.7135 18.737 10.3195 18.6042C10.148 18.5408 10.1664 18.0092 10.1684 18.0092C10.2603 16.0649 11.332 12.5401 12.2813 9.89249C12.7753 8.47769 12.4242 7.99314 12.0996 7.90318C11.4729 7.7294 10.5338 9.47132 9.88259 11.3257C9.30895 12.6096 8.53524 18.1666 8.04121 17.9274C8.04121 17.9274 7.83094 17.8129 7.85952 17.2486C7.98405 15.2348 8.46379 13.1596 9.18442 10.2114C9.58658 8.65147 9.20687 8.17101 8.87412 8.10968C8.23515 7.99109 7.40224 9.94769 6.88371 11.982C6.42235 13.4131 6.12021 18.1871 5.59965 17.9417C5.44858 17.8743 5.4792 17.2507 5.48124 17.2507C5.59352 15.3656 5.62414 15.5129 6.00181 12.6199C6.23453 11.0906 5.85278 10.6755 5.54861 10.6571C4.96476 10.6203 4.37682 12.5667 4.0849 14.5499C3.69702 15.7807 3.72356 20.0885 4.51156 24.4065C6.09163 26.5471 8.23719 28.6243 10.6257 30.4623C11.7934 31.3599 12.9958 32.1593 14.3472 32.8687C13.6327 32.3085 10.9788 29.7754 12.3548 26.1975H12.3589Z" fill="white"/>
<path d="M31.1545 0.843477C31.1729 0.843477 31.1913 0.847566 31.2097 0.849611C31.175 0.839388 31.1566 0.837343 31.1545 0.843477Z" fill="white"/>
<path d="M32.7815 2.54042C33.1959 3.75895 33.2817 6.03041 31.3443 7.91136C28.1923 10.8718 25.5119 12.1721 25.0587 12.5524C23.9645 13.4683 24.7546 14.5846 26.3285 13.8323C28.0168 12.9899 29.554 12.2948 29.1477 13.313C28.6068 14.7032 26.1264 17.7455 23.789 19.9024C22.7682 20.8633 22.8826 21.4317 23.1316 21.6607C23.6093 22.1023 25.1833 21.0923 26.4939 19.7818C27.4778 18.9067 29.9255 15.7786 30.2297 16.0608C30.3604 16.1896 30.1235 16.666 30.1235 16.666C29.2396 18.3997 26.8144 21.17 24.8607 23.192C23.8277 24.2777 23.9482 24.8624 24.2095 25.0812C24.7076 25.4982 26.2816 24.2981 27.6371 22.8772C28.6884 21.9449 31.7445 17.1955 32.0976 17.6167C32.0976 17.6167 32.2589 17.6657 32.0017 18.1687C31.0606 19.9535 29.6846 21.7915 27.8147 24.1775C26.8062 25.4328 26.9532 26.0278 27.2329 26.22C27.7657 26.5921 29.3294 25.1527 30.64 23.511C31.6505 22.3967 33.888 18.1707 34.2636 18.6103C34.3738 18.735 34.088 19.2891 34.088 19.2891C33.2102 20.9594 33.2429 20.8143 31.7077 23.2922C30.8666 24.5905 31.0442 25.1261 31.3137 25.2672C31.8302 25.5412 33.3776 23.7379 34.5351 22.1044C36.452 19.3954 38.9099 12.7548 38.8364 7.26325C37.4707 4.08403 34.8821 1.74306 31.3117 0.88028C31.6383 1.00704 32.4202 1.45479 32.7876 2.54042H32.7815Z" fill="white"/>
</g>
<defs>
<clipPath id="clip0_2003_319">
<rect width="40" height="35" fill="white" transform="translate(0 0.5)"/>
</clipPath>
</defs>
</svg>
