<svg width="24" height="24" viewBox="0 0 24 24" fill="none" xmlns="http://www.w3.org/2000/svg">
<path d="M21.4434 15.2899C21.8035 14.2591 22 13.1521 22 12C22 10.8479 21.8035 9.74092 21.4434 8.71015C21.4346 8.67919 21.4242 8.64899 21.4116 8.61994C20.0226 4.76434 16.3283 2 12 2C7.67169 2 3.97727 4.76434 2.5884 8.61994C2.57579 8.64908 2.56528 8.67919 2.55658 8.71015C2.19649 9.74092 2 10.8479 2 12C2 13.1521 2.19649 14.2591 2.55658 15.2899C2.56537 15.3208 2.57579 15.351 2.5884 15.3801C3.97737 19.2358 7.67169 22 12 22C16.3283 22 20.0226 19.2357 21.4116 15.3801C21.4242 15.351 21.4346 15.3209 21.4434 15.2899ZM12 20.5666C11.6192 20.5666 11.0052 19.8774 10.492 18.3376C10.2442 17.5946 10.0459 16.7404 9.90145 15.8113H14.0985C13.9541 16.7404 13.7558 17.5945 13.5081 18.3376C12.9948 19.8774 12.3808 20.5666 12 20.5666ZM9.72752 14.3778C9.65862 13.6134 9.62221 12.816 9.62221 12C9.62221 11.184 9.65862 10.3866 9.72752 9.62223H14.2724C14.3413 10.3866 14.3777 11.184 14.3777 12C14.3777 12.816 14.3413 13.6134 14.2724 14.3778H9.72752ZM3.4334 12.0001C3.4334 11.1754 3.55086 10.3776 3.76942 9.62232H8.28972C8.22273 10.4024 8.18871 11.2019 8.18871 12.0001C8.18871 12.7983 8.22263 13.5978 8.28972 14.3779H3.76942C3.55086 13.6225 3.4334 12.8248 3.4334 12.0001ZM12 3.43349C12.3808 3.43349 12.9949 4.12271 13.5081 5.66246C13.7558 6.40549 13.9541 7.25965 14.0985 8.18874H9.90136C10.0459 7.25956 10.2442 6.40549 10.4919 5.66246C11.0052 4.12271 11.6192 3.43349 12 3.43349ZM15.7102 9.62232H20.2305C20.449 10.3776 20.5665 11.1754 20.5665 12.0001C20.5665 12.8248 20.449 13.6226 20.2305 14.3779H15.7102C15.7772 13.5978 15.8112 12.7983 15.8112 12.0001C15.8112 11.2019 15.7772 10.4024 15.7102 9.62232ZM19.6704 8.18884H15.5457C15.2907 6.43072 14.8533 4.8534 14.2397 3.73127C16.6188 4.37624 18.5899 6.02294 19.6704 8.18884ZM9.7602 3.73117C9.14657 4.85331 8.70916 6.43062 8.45419 8.18884H4.32953C5.4101 6.02294 7.38107 4.37624 9.7602 3.73117ZM4.32953 15.8113H8.45419C8.70916 17.5694 9.14657 19.1467 9.7602 20.2689C7.38107 19.6239 5.4101 17.9773 4.32953 15.8113ZM14.2397 20.2689C14.8533 19.1468 15.2907 17.5695 15.5457 15.8113H19.6704C18.5899 17.9773 16.6188 19.6239 14.2397 20.2689Z" fill="#13163F"/>
</svg>
