<svg width="16" height="16" viewBox="0 0 16 16" fill="none" xmlns="http://www.w3.org/2000/svg">
<path d="M7.24569 0.461071C7.50232 -0.1537 8.37329 -0.153699 8.62992 0.461071L10.2753 4.4025C10.3778 4.64819 10.603 4.82109 10.8668 4.8568L15.2254 5.44672C15.8756 5.53472 16.1073 6.35621 15.599 6.77102L12.2425 9.51C12.021 9.69073 11.9216 9.98166 11.986 10.2602L13.0585 14.895C13.2136 15.5651 12.46 16.0731 11.897 15.6779L8.36867 13.2016C8.11009 13.0201 7.76552 13.0201 7.50694 13.2016L3.97857 15.678C3.41554 16.0731 2.66195 15.5652 2.81702 14.895L3.88949 10.2602C3.95394 9.98165 3.85446 9.69074 3.63299 9.51L0.276605 6.77102C-0.23172 6.3562 2.75373e-05 5.53472 0.650202 5.44672L5.00883 4.8568C5.27266 4.82109 5.49779 4.64819 5.60035 4.4025L7.24569 0.461071Z" fill="#FF9A42"/>
</svg>
