<svg width="30" height="30" viewBox="0 0 30 30" fill="none" xmlns="http://www.w3.org/2000/svg">
<g clip-path="url(#clip0_0_943)">
<path d="M28.0052 15.3885C27.8844 15.1416 27.8844 14.8583 28.0052 14.6114L29.1241 12.3225C29.747 11.048 29.2534 9.52897 28.0003 8.86412L25.7498 7.66998C25.507 7.54119 25.3405 7.31198 25.293 7.04133L24.8528 4.53184C24.6077 3.13462 23.3153 2.19572 21.911 2.39441L19.3883 2.75124C19.1161 2.78968 18.8468 2.70214 18.6493 2.51107L16.8182 0.739671C15.7986 -0.24669 14.2014 -0.246749 13.1818 0.739671L11.3507 2.51124C11.1531 2.70237 10.8839 2.78974 10.6116 2.75142L8.08902 2.39458C6.68424 2.19578 5.39226 3.13479 5.14716 4.53201L4.70701 7.04139C4.65949 7.31209 4.49302 7.54125 4.25027 7.6701L1.9997 8.86423C0.746621 9.52903 0.25303 11.0482 0.875995 12.3226L1.99484 14.6115C2.11554 14.8585 2.11554 15.1418 1.99484 15.3887L0.875936 17.6776C0.252971 18.952 0.746562 20.4711 1.99964 21.1359L4.25021 22.3301C4.49302 22.4588 4.65949 22.6881 4.70701 22.9587L5.14716 25.4682C5.37029 26.7401 6.46094 27.6322 7.71443 27.6321C7.83789 27.6321 7.96316 27.6234 8.08908 27.6056L10.6117 27.2487C10.8837 27.2101 11.1532 27.2978 11.3507 27.4889L13.1818 29.2603C13.6917 29.7535 14.3457 30.0001 15 30C15.6541 30 16.3085 29.7534 16.8181 29.2603L18.6493 27.4889C18.8469 27.2978 19.1162 27.2105 19.3883 27.2487L21.911 27.6056C23.3159 27.8043 24.6077 26.8654 24.8528 25.4681L25.293 22.9588C25.3406 22.6881 25.507 22.4589 25.7498 22.3301L28.0003 21.1359C29.2534 20.4711 29.747 18.952 29.1241 17.6775L28.0052 15.3885ZM11.5394 7.21377C13.2885 7.21377 14.7116 8.63683 14.7116 10.386C14.7116 12.1351 13.2885 13.5582 11.5394 13.5582C9.79028 13.5582 8.36722 12.1351 8.36722 10.386C8.36722 8.63683 9.79028 7.21377 11.5394 7.21377ZM9.90207 21.3213C9.73315 21.4902 9.51173 21.5747 9.29036 21.5747C9.06899 21.5747 8.84751 21.4903 8.67865 21.3213C8.3408 20.9835 8.3408 20.4357 8.67865 20.0978L20.0979 8.67861C20.4356 8.34076 20.9835 8.34076 21.3213 8.67861C21.6592 9.01646 21.6592 9.56425 21.3213 9.9021L9.90207 21.3213ZM18.4605 22.7863C16.7113 22.7863 15.2883 21.3632 15.2883 19.6141C15.2883 17.8649 16.7113 16.4419 18.4605 16.4419C20.2096 16.4419 21.6327 17.8649 21.6327 19.6141C21.6327 21.3632 20.2096 22.7863 18.4605 22.7863Z" fill="#1C77CB"/>
<path d="M18.4605 18.1722C17.6654 18.1722 17.0186 18.819 17.0186 19.6141C17.0186 20.4091 17.6654 21.0559 18.4605 21.0559C19.2555 21.0559 19.9023 20.4091 19.9023 19.6141C19.9023 18.819 19.2555 18.1722 18.4605 18.1722Z" fill="#1C77CB"/>
<path d="M11.5395 8.94406C10.7445 8.94406 10.0977 9.59087 10.0977 10.3859C10.0977 11.181 10.7445 11.8279 11.5395 11.8279C12.3346 11.8279 12.9814 11.181 12.9814 10.3859C12.9814 9.59093 12.3346 8.94406 11.5395 8.94406Z" fill="#1C77CB"/>
</g>
<defs>
<clipPath id="clip0_0_943">
<rect width="30" height="30" fill="white"/>
</clipPath>
</defs>
</svg>
