<svg xmlns="http://www.w3.org/2000/svg" xmlns:xlink="http://www.w3.org/1999/xlink"><defs><symbol viewBox="0 0 18 18" fill="none" id="arrow-left">
<path d="M7.28711 3.75L2.2493 9L7.28711 14.25" stroke="#13163F" stroke-width="1.5" stroke-linecap="round" stroke-linejoin="round" />
<line x1="0.75" y1="-0.75" x2="12.5498" y2="-0.75" transform="matrix(1 0 0 -1 2.45117 8.2738)" stroke="#13163F" stroke-width="1.5" stroke-linecap="round" />
</symbol><symbol viewBox="0 0 18 18" fill="none" id="arrow-right">
<path d="M10.7119 3.75L15.7497 9L10.7119 14.25" stroke="currentColor" stroke-width="1.5" stroke-linecap="round" stroke-linejoin="round" />
<line x1="14.7998" y1="9.0238" x2="3.00001" y2="9.0238" stroke="currentColor" stroke-width="1.5" stroke-linecap="round" />
</symbol><symbol viewBox="0 0 20 20" fill="none" id="arrow-up">
<path d="M4.09082 8.09775L9.92415 2.50019L15.7575 8.09775" stroke="white" stroke-width="1.81818" stroke-linecap="round" stroke-linejoin="round" />
<line x1="9.99991" y1="3.63166" x2="9.99991" y2="16.591" stroke="white" stroke-width="1.81818" stroke-linecap="round" />
</symbol><symbol viewBox="0 0 40 41" fill="none" id="bnb">
<path d="M39.4016 25.3381C36.7301 36.0525 25.877 42.5731 15.1601 39.9012C4.44772 37.2301 -2.07358 26.3775 0.599038 15.6639C3.26931 4.94838 14.1225 -1.57268 24.836 1.09847C35.5521 3.76961 42.073 14.6234 39.4013 25.3383L39.4015 25.3381H39.4016Z" fill="#F3BA2F" />
<path fill-rule="evenodd" clip-rule="evenodd" d="M20.0018 13.1934L14.8224 18.3722L14.8225 18.372L11.8089 15.3587L20.0018 7.16669L28.1974 15.3611L25.1838 18.3745L20.0018 13.1934ZM9.68077 17.4861L6.66699 20.5L9.68056 23.5128L12.6943 20.4994L9.68077 17.4861ZM14.8223 22.6281L20.0018 27.8067L25.1836 22.6257L28.1989 25.6374L28.1974 25.639L20.0018 33.8334L11.8089 25.6414L11.8046 25.6371L14.8223 22.6281ZM30.3231 17.4879L27.3093 20.5013L30.323 23.5145L33.3367 20.5011L30.3231 17.4879Z" fill="white" />
<path d="M23.0586 20.4984H23.0599L20.002 17.4407L17.7418 19.7L17.4822 19.9597L16.9466 20.4953L16.9424 20.4994L16.9466 20.5038L20.002 23.5593L23.0601 20.5016L23.0616 20.4999L23.0588 20.4984" fill="white" />
</symbol><symbol viewBox="0 0 40 41" fill="none" id="btc">
<path d="M39.4016 25.3381C36.7301 36.0525 25.877 42.5731 15.1601 39.9012C4.44772 37.2301 -2.07358 26.3775 0.599038 15.6639C3.26931 4.94838 14.1225 -1.57268 24.836 1.09847C35.5521 3.76961 42.073 14.6234 39.4013 25.3383L39.4015 25.3381H39.4016Z" fill="#F7931A" />
<path fill-rule="evenodd" clip-rule="evenodd" d="M28.8199 17.6504C29.218 14.9889 27.1915 13.5582 24.4203 12.6038L25.3193 8.99845L23.1244 8.45159L22.2492 11.962C21.6722 11.8181 21.0796 11.6825 20.4907 11.5481L21.3721 8.01451L19.1786 7.46765L18.2791 11.0718C17.8016 10.9631 17.3326 10.8557 16.8776 10.7425L16.8801 10.7311L13.8533 9.97534L13.2694 12.3194C13.2694 12.3194 14.8979 12.6926 14.8635 12.7156C15.7524 12.9374 15.9131 13.5257 15.8864 13.992L14.8624 18.0993C14.9236 18.1149 15.003 18.1374 15.0906 18.1726L15.0269 18.1567L15.0268 18.1566C14.9726 18.1431 14.9164 18.129 14.8586 18.1152L13.4232 23.8689C13.3146 24.1389 13.0389 24.5441 12.4175 24.3903C12.4395 24.4221 10.8222 23.9922 10.8222 23.9922L9.73242 26.5044L12.5887 27.2164C12.9015 27.2948 13.2106 27.3754 13.5166 27.4551L13.5168 27.4552C13.7306 27.5109 13.9428 27.5662 14.1536 27.6201L13.2454 31.2668L15.4377 31.8136L16.3372 28.2057C16.9362 28.3683 17.5174 28.5182 18.0864 28.6596L17.19 32.2505L19.385 32.7974L20.2932 29.1576C24.036 29.8658 26.8502 29.5803 28.0348 26.1953C28.9893 23.47 27.9873 21.898 26.0182 20.8729C27.4524 20.5422 28.5327 19.5991 28.8207 17.6507L28.82 17.6502L28.8199 17.6504ZM23.805 24.6818C23.1827 27.1821 19.2685 26.1484 17.4776 25.6755C17.3165 25.6329 17.1726 25.5949 17.0498 25.5644L18.2551 20.7332C18.4047 20.7706 18.5876 20.8116 18.7948 20.8581C20.6472 21.2738 24.4426 22.1254 23.8051 24.6818H23.805ZM19.1663 18.6158C20.6593 19.0142 23.9165 19.8834 24.4838 17.6108H24.484C25.0632 15.2866 21.8978 14.5859 20.3518 14.2436C20.1779 14.2051 20.0245 14.1712 19.8992 14.1399L18.8064 18.5216C18.9096 18.5473 19.0306 18.5796 19.1663 18.6158Z" fill="white" />
</symbol><symbol viewBox="0 0 40 41" fill="none" id="busd">
<circle cx="20" cy="20.5" r="20" fill="#F0B90B" />
<path d="M19.9405 7.16675L23.2292 10.5347L14.9479 18.816L11.6592 15.5273L19.9405 7.16675Z" fill="white" stroke="white" />
<path d="M24.933 12.1593L28.2217 15.5273L14.9479 28.8011L11.6592 25.5124L24.933 12.1593Z" fill="white" stroke="white" />
<path d="M9.95573 17.1518L13.2445 20.5198L9.95573 23.8085L6.66699 20.5198L9.95573 17.1518Z" fill="white" stroke="white" />
<path d="M29.9262 17.1518L33.2149 20.5198L19.9411 33.7936L16.6523 30.5049L29.9262 17.1518Z" fill="white" stroke="white" />
</symbol><symbol viewBox="0 0 18 18" fill="none" id="call">
<path d="M4.71527 1.51641L2.83829 1.72497C1.90859 1.82826 1.19314 2.56892 1.32903 3.49441C1.59883 5.33177 2.58677 8.54365 6.02104 11.9779C9.45527 15.4122 12.6675 16.4005 14.5052 16.6707C15.4309 16.8067 16.1718 16.0912 16.2751 15.1613L16.4836 13.2847C16.5717 12.4921 16.1804 11.7229 15.4879 11.3273L14.2416 10.6153C13.4585 10.168 12.473 10.3 11.8353 10.9377L11.8166 10.9564C11.3437 11.4293 10.6603 11.6288 10.0694 11.3157C9.55272 11.0418 8.87595 10.5902 8.14288 9.85712C7.40981 9.12406 6.95822 8.44728 6.68435 7.93056C6.37119 7.33971 6.57074 6.65629 7.04359 6.18344L7.06233 6.16471C7.70001 5.52703 7.83205 4.54147 7.38472 3.75842L6.67274 2.51211C6.27714 1.81961 5.50792 1.42834 4.71527 1.51641Z" stroke="white" stroke-width="1.5" stroke-linecap="round" stroke-linejoin="round" />
</symbol><symbol viewBox="0 0 24 24" fill="none" id="cart">
<path fill-rule="evenodd" clip-rule="evenodd" d="M10.9171 19.2727C11.7244 19.2727 12.3797 19.928 12.3797 20.7353C12.3797 21.5425 11.7244 22.1978 10.9171 22.1978C10.1098 22.1978 9.45457 21.5425 9.45457 20.7353C9.45457 19.928 10.1098 19.2727 10.9171 19.2727ZM17.2786 19.2727C18.0858 19.2727 18.7411 19.928 18.7411 20.7353C18.7411 21.5425 18.0858 22.1978 17.2786 22.1978C16.4713 22.1978 15.816 21.5425 15.816 20.7353C15.816 19.928 16.4713 19.2727 17.2786 19.2727ZM1.20584 4.66254H3.27203C3.67421 4.66254 4.02766 4.93091 4.1353 5.31927C4.1353 5.31927 4.13603 5.31927 4.13603 5.32C4.83203 7.82545 6.33603 13.2393 7.03494 15.7542C7.36294 16.936 8.4393 17.7535 9.66475 17.7535H18.4953C19.7484 17.7535 20.8408 16.9004 21.144 15.6844C21.7593 13.2255 22.9811 8.33745 22.9811 8.33745C23.0488 8.06618 22.9877 7.77818 22.8153 7.55782C22.6429 7.33672 22.3789 7.208 22.0989 7.208H9.45457C8.95275 7.208 8.54548 7.61527 8.54548 8.11709C8.54548 8.61891 8.95275 9.02618 9.45457 9.02618H20.9346L19.3797 15.2451C19.2786 15.6509 18.9135 15.9353 18.4953 15.9353H9.66475C9.2553 15.9353 8.89603 15.6618 8.78621 15.2676C8.0873 12.7527 6.5833 7.33818 5.8873 4.83272C5.56221 3.65818 4.49166 2.84436 3.27203 2.84436H1.20584C0.704026 2.84436 0.296753 3.25163 0.296753 3.75345C0.296753 4.25527 0.704026 4.66254 1.20584 4.66254Z" fill="#13163F" />
</symbol><symbol viewBox="0 0 24 24" fill="none" id="cart-white">
<path fill-rule="evenodd" clip-rule="evenodd" d="M10.9172 19.2727C11.7245 19.2727 12.3798 19.928 12.3798 20.7353C12.3798 21.5425 11.7245 22.1978 10.9172 22.1978C10.11 22.1978 9.45469 21.5425 9.45469 20.7353C9.45469 19.928 10.11 19.2727 10.9172 19.2727ZM17.2787 19.2727C18.086 19.2727 18.7412 19.928 18.7412 20.7353C18.7412 21.5425 18.086 22.1978 17.2787 22.1978C16.4714 22.1978 15.8161 21.5425 15.8161 20.7353C15.8161 19.928 16.4714 19.2727 17.2787 19.2727ZM1.20597 4.66254H3.27215C3.67433 4.66254 4.02778 4.93091 4.13542 5.31927C4.13542 5.31927 4.13615 5.31927 4.13615 5.32C4.83215 7.82545 6.33615 13.2393 7.03506 15.7542C7.36306 16.936 8.43942 17.7535 9.66488 17.7535H18.4954C19.7485 17.7535 20.8409 16.9004 21.1441 15.6844C21.7594 13.2255 22.9812 8.33745 22.9812 8.33745C23.0489 8.06618 22.9878 7.77818 22.8154 7.55782C22.6431 7.33672 22.3791 7.208 22.0991 7.208H9.45469C8.95288 7.208 8.5456 7.61527 8.5456 8.11709C8.5456 8.61891 8.95288 9.02618 9.45469 9.02618H20.9347L19.3798 15.2451C19.2787 15.6509 18.9136 15.9353 18.4954 15.9353H9.66488C9.25542 15.9353 8.89615 15.6618 8.78633 15.2676C8.08742 12.7527 6.58342 7.33818 5.88742 4.83272C5.56233 3.65818 4.49178 2.84436 3.27215 2.84436H1.20597C0.704148 2.84436 0.296875 3.25163 0.296875 3.75345C0.296875 4.25527 0.704148 4.66254 1.20597 4.66254Z" fill="white" />
</symbol><symbol viewBox="0 0 24 24" fill="none" id="chevron">
<path fill-rule="evenodd" clip-rule="evenodd" d="M12.0002 15.5002C11.7442 15.5002 11.4883 15.4023 11.2933 15.2073L7.29325 11.2072C6.90225 10.8162 6.90225 10.1842 7.29325 9.79325C7.68425 9.40225 8.31625 9.40225 8.70725 9.79325L12.0122 13.0982L15.3053 9.91825C15.7043 9.53525 16.3352 9.54625 16.7192 9.94325C17.1032 10.3403 17.0922 10.9742 16.6952 11.3572L12.6953 15.2193C12.5002 15.4073 12.2502 15.5002 12.0002 15.5002Z" fill="currentColor" />

</symbol><mask id="chevron_mask0_156_10598" style="mask-type:alpha" maskUnits="userSpaceOnUse" x="7" y="9" width="10" height="7">
<path fill-rule="evenodd" clip-rule="evenodd" d="M12.0002 15.5002C11.7442 15.5002 11.4883 15.4023 11.2933 15.2073L7.29325 11.2072C6.90225 10.8162 6.90225 10.1842 7.29325 9.79325C7.68425 9.40225 8.31625 9.40225 8.70725 9.79325L12.0122 13.0982L15.3053 9.91825C15.7043 9.53525 16.3352 9.54625 16.7192 9.94325C17.1032 10.3403 17.0922 10.9742 16.6952 11.3572L12.6953 15.2193C12.5002 15.4073 12.2502 15.5002 12.0002 15.5002Z" fill="none" />
</mask><symbol viewBox="0 0 16 16" fill="none" id="chevron-down">
<path d="M12.6175 6.66666L7.97538 11.3088L3.33326 6.66666" stroke="#13163F" stroke-width="1.5" stroke-linecap="round" stroke-linejoin="round" />
</symbol><symbol viewBox="0 0 24 24" fill="none" id="close">
<path d="M6 6.00003L18.7742 18.7742" stroke="currentColor" stroke-width="2" stroke-linecap="round" stroke-linejoin="round" />
<path d="M6 18.7742L18.7742 6.00001" stroke="currentColor" stroke-width="2" stroke-linecap="round" stroke-linejoin="round" />
</symbol><symbol viewBox="0 0 32 32" fill="none" id="eth">
<circle cx="16" cy="16" r="16" fill="white" />
<path d="M15.9554 6.3999L15.8281 6.83224V19.3767L15.9554 19.5037L21.7783 16.0617L15.9554 6.3999Z" fill="#343434" />
<path d="M15.9558 6.3999L10.1328 16.0617L15.9558 19.5037V13.415V6.3999Z" fill="#8C8C8C" />
<path d="M15.9565 20.6062L15.8848 20.6937V25.1622L15.9565 25.3716L21.7829 17.166L15.9565 20.6062Z" fill="#3C3C3B" />
<path d="M15.9558 25.3716V20.6062L10.1328 17.166L15.9558 25.3716Z" fill="#8C8C8C" />
<path d="M15.9551 19.5038L21.778 16.0618L15.9551 13.415V19.5038Z" fill="#141414" />
<path d="M10.1328 16.0618L15.9558 19.5038V13.415L10.1328 16.0618Z" fill="#393939" />
</symbol><symbol viewBox="0 0 20 20" fill="none" id="fi-sr-copy">
<g clip-path="url(#fi-sr-copy_clip0_1_8345)">
<path d="M12.5 16.6667H4.16667C3.062 16.6653 2.00296 16.2259 1.22185 15.4448C0.440735 14.6637 0.00132321 13.6047 0 12.5L0 4.16667C0.00132321 3.062 0.440735 2.00296 1.22185 1.22185C2.00296 0.440735 3.062 0.00132321 4.16667 0L12.5 0C13.6047 0.00132321 14.6637 0.440735 15.4448 1.22185C16.2259 2.00296 16.6653 3.062 16.6667 4.16667V12.5C16.6653 13.6047 16.2259 14.6637 15.4448 15.4448C14.6637 16.2259 13.6047 16.6653 12.5 16.6667V16.6667ZM20 15.8333V5C20 4.77899 19.9122 4.56702 19.7559 4.41074C19.5996 4.25446 19.3877 4.16667 19.1667 4.16667C18.9457 4.16667 18.7337 4.25446 18.5774 4.41074C18.4211 4.56702 18.3333 4.77899 18.3333 5V15.8333C18.3333 16.4964 18.0699 17.1323 17.6011 17.6011C17.1323 18.0699 16.4964 18.3333 15.8333 18.3333H5C4.77899 18.3333 4.56702 18.4211 4.41074 18.5774C4.25446 18.7337 4.16667 18.9457 4.16667 19.1667C4.16667 19.3877 4.25446 19.5996 4.41074 19.7559C4.56702 19.9122 4.77899 20 5 20H15.8333C16.938 19.9987 17.997 19.5593 18.7782 18.7782C19.5593 17.997 19.9987 16.938 20 15.8333V15.8333Z" fill="currentColor" />
</g>
<defs>

</defs>
</symbol><clipPath id="fi-sr-copy_clip0_1_8345">
<rect width="20" height="20" fill="white" />
</clipPath><symbol viewBox="0 0 24 24" fill="none" id="globe">
<path d="M21.4434 15.2899C21.8035 14.2591 22 13.1521 22 12C22 10.8479 21.8035 9.74092 21.4434 8.71015C21.4346 8.67919 21.4242 8.64899 21.4116 8.61994C20.0226 4.76434 16.3283 2 12 2C7.67169 2 3.97727 4.76434 2.5884 8.61994C2.57579 8.64908 2.56528 8.67919 2.55658 8.71015C2.19649 9.74092 2 10.8479 2 12C2 13.1521 2.19649 14.2591 2.55658 15.2899C2.56537 15.3208 2.57579 15.351 2.5884 15.3801C3.97737 19.2358 7.67169 22 12 22C16.3283 22 20.0226 19.2357 21.4116 15.3801C21.4242 15.351 21.4346 15.3209 21.4434 15.2899ZM12 20.5666C11.6192 20.5666 11.0052 19.8774 10.492 18.3376C10.2442 17.5946 10.0459 16.7404 9.90145 15.8113H14.0985C13.9541 16.7404 13.7558 17.5945 13.5081 18.3376C12.9948 19.8774 12.3808 20.5666 12 20.5666ZM9.72752 14.3778C9.65862 13.6134 9.62221 12.816 9.62221 12C9.62221 11.184 9.65862 10.3866 9.72752 9.62223H14.2724C14.3413 10.3866 14.3777 11.184 14.3777 12C14.3777 12.816 14.3413 13.6134 14.2724 14.3778H9.72752ZM3.4334 12.0001C3.4334 11.1754 3.55086 10.3776 3.76942 9.62232H8.28972C8.22273 10.4024 8.18871 11.2019 8.18871 12.0001C8.18871 12.7983 8.22263 13.5978 8.28972 14.3779H3.76942C3.55086 13.6225 3.4334 12.8248 3.4334 12.0001ZM12 3.43349C12.3808 3.43349 12.9949 4.12271 13.5081 5.66246C13.7558 6.40549 13.9541 7.25965 14.0985 8.18874H9.90136C10.0459 7.25956 10.2442 6.40549 10.4919 5.66246C11.0052 4.12271 11.6192 3.43349 12 3.43349ZM15.7102 9.62232H20.2305C20.449 10.3776 20.5665 11.1754 20.5665 12.0001C20.5665 12.8248 20.449 13.6226 20.2305 14.3779H15.7102C15.7772 13.5978 15.8112 12.7983 15.8112 12.0001C15.8112 11.2019 15.7772 10.4024 15.7102 9.62232ZM19.6704 8.18884H15.5457C15.2907 6.43072 14.8533 4.8534 14.2397 3.73127C16.6188 4.37624 18.5899 6.02294 19.6704 8.18884ZM9.7602 3.73117C9.14657 4.85331 8.70916 6.43062 8.45419 8.18884H4.32953C5.4101 6.02294 7.38107 4.37624 9.7602 3.73117ZM4.32953 15.8113H8.45419C8.70916 17.5694 9.14657 19.1467 9.7602 20.2689C7.38107 19.6239 5.4101 17.9773 4.32953 15.8113ZM14.2397 20.2689C14.8533 19.1468 15.2907 17.5695 15.5457 15.8113H19.6704C18.5899 17.9773 16.6188 19.6239 14.2397 20.2689Z" fill="#13163F" />
</symbol><symbol viewBox="0 0 24 24" fill="none" id="history">
<path d="M13.5 3C8.53 3 4.5 7.03 4.5 12H1.5L5.39 15.89L5.46 16.03L9.5 12H6.5C6.5 8.13 9.63 5 13.5 5C17.37 5 20.5 8.13 20.5 12C20.5 15.87 17.37 19 13.5 19C11.57 19 9.82 18.21 8.56 16.94L7.14 18.36C8.77 19.99 11.01 21 13.5 21C18.47 21 22.5 16.97 22.5 12C22.5 7.03 18.47 3 13.5 3ZM12.5 8V13L16.78 15.54L17.5 14.33L14 12.25V8H12.5Z" fill="#13163F" />
</symbol><symbol viewBox="0 0 40 41" fill="none" id="ltc">
<ellipse cx="20.1663" cy="20.3333" rx="17.8333" ry="17.8333" fill="white" />
<path fill-rule="evenodd" clip-rule="evenodd" d="M0 20.5C0 9.45431 8.95427 0.5 19.9999 0.5H20.1161C25.405 0.51539 30.4712 2.63118 34.2001 6.38191C37.9291 10.1326 40.0153 15.2111 39.9998 20.5C39.9998 31.5457 31.0456 40.5 19.9999 40.5C8.95427 40.5 0 31.5457 0 20.5ZM18.2566 28.1997L20.339 21.1779L23.5835 20.2578L24.2615 17.9333L21.0653 18.9019L24.4552 7.37645V7.19243C24.4501 7.04342 24.386 6.90252 24.277 6.80079C24.168 6.69906 24.0231 6.64483 23.8741 6.65006H19.5641C19.2284 6.63971 18.9288 6.85942 18.8378 7.18274L14.8184 20.8389L11.6223 21.8074L10.8959 24.035L14.092 23.0665L11.2349 32.8002H28.2808C28.6177 32.8141 28.9193 32.5929 29.0072 32.2675L29.9757 28.9261V28.7421C29.9707 28.5931 29.9066 28.4522 29.7976 28.3504C29.6886 28.2487 29.5436 28.1945 29.3946 28.1997H18.2566Z" fill="#345D9D" />
</symbol><symbol viewBox="0 0 16 16" fill="none" id="minus">
<path d="M2 8L14 8" stroke="currentColor" stroke-width="2" stroke-linecap="round" stroke-linejoin="round" />
</symbol><symbol viewBox="0 0 24 24" fill="none" id="paper-clip">
<path fill-rule="evenodd" clip-rule="evenodd" d="M9.29305 21V21C7.63705 21 6.06305 20.334 4.86105 19.125C2.47305 16.722 2.37505 12.912 4.64205 10.631L12.0281 3.201C12.7971 2.427 13.8351 2 14.9501 2C16.1431 2 17.2771 2.479 18.1421 3.349C19.8631 5.08 19.9291 7.831 18.2881 9.481L10.8931 16.91C10.4141 17.393 9.76905 17.658 9.07705 17.658V17.658C8.34605 17.658 7.65305 17.366 7.12705 16.837C6.07405 15.776 6.04105 14.085 7.05405 13.065L13.8791 6.21C14.2691 5.818 14.9011 5.816 15.2931 6.206C15.6841 6.596 15.6861 7.229 15.2961 7.62L8.47205 14.476C8.23205 14.718 8.26505 15.145 8.54605 15.427C8.69205 15.574 8.88605 15.658 9.07705 15.658V15.658C9.18705 15.658 9.34505 15.631 9.47505 15.5L16.8701 8.071C17.7371 7.198 17.6721 5.713 16.7241 4.759C15.8171 3.847 14.2781 3.775 13.4461 4.611L6.06005 12.041C4.56605 13.544 4.66405 16.09 6.28005 17.715C7.10305 18.544 8.17305 19 9.29305 19C10.2941 19 11.2221 18.622 11.9041 17.936L19.2911 10.506C19.6801 10.115 20.3131 10.112 20.7051 10.502C21.0961 10.892 21.0981 11.524 20.7091 11.916L13.3221 19.346C12.2621 20.412 10.8311 21 9.29305 21" fill="black" />

</symbol><mask id="paper-clip_mask0_269_6855" style="mask-type:alpha" maskUnits="userSpaceOnUse" x="3" y="2" width="18" height="19">
<path fill-rule="evenodd" clip-rule="evenodd" d="M9.29305 21V21C7.63705 21 6.06305 20.334 4.86105 19.125C2.47305 16.722 2.37505 12.912 4.64205 10.631L12.0281 3.201C12.7971 2.427 13.8351 2 14.9501 2C16.1431 2 17.2771 2.479 18.1421 3.349C19.8631 5.08 19.9291 7.831 18.2881 9.481L10.8931 16.91C10.4141 17.393 9.76905 17.658 9.07705 17.658V17.658C8.34605 17.658 7.65305 17.366 7.12705 16.837C6.07405 15.776 6.04105 14.085 7.05405 13.065L13.8791 6.21C14.2691 5.818 14.9011 5.816 15.2931 6.206C15.6841 6.596 15.6861 7.229 15.2961 7.62L8.47205 14.476C8.23205 14.718 8.26505 15.145 8.54605 15.427C8.69205 15.574 8.88605 15.658 9.07705 15.658V15.658C9.18705 15.658 9.34505 15.631 9.47505 15.5L16.8701 8.071C17.7371 7.198 17.6721 5.713 16.7241 4.759C15.8171 3.847 14.2781 3.775 13.4461 4.611L6.06005 12.041C4.56605 13.544 4.66405 16.09 6.28005 17.715C7.10305 18.544 8.17305 19 9.29305 19C10.2941 19 11.2221 18.622 11.9041 17.936L19.2911 10.506C19.6801 10.115 20.3131 10.112 20.7051 10.502C21.0961 10.892 21.0981 11.524 20.7091 11.916L13.3221 19.346C12.2621 20.412 10.8311 21 9.29305 21" fill="white" />
</mask><symbol viewBox="0 0 16 16" fill="none" id="plus">
<path d="M8 2V14" stroke="currentColor" stroke-width="2" stroke-linecap="round" stroke-linejoin="round" />
<path d="M2 8L14 8" stroke="currentColor" stroke-width="2" stroke-linecap="round" stroke-linejoin="round" />
</symbol><symbol viewBox="0 0 16 16" fill="none" id="question-circle">
<g clip-path="url(#question-circle_clip0_26_2230)">
<path d="M16 8C16 3.58172 12.4183 0 8 0C3.58172 0 0 3.58172 0 8C0 12.4183 3.58172 16 8 16C12.4183 16 16 12.4183 16 8Z" fill="#13163F" />
<path d="M5.23926 6.12858C5.23926 5.77895 5.35151 5.42471 5.57601 5.06586C5.80051 4.70701 6.12807 4.4098 6.5587 4.17424C6.98936 3.93882 7.49174 3.82105 8.06582 3.82092C8.59938 3.82092 9.07048 3.91938 9.4791 4.1163C9.88773 4.31321 10.2034 4.58098 10.426 4.91958C10.6449 5.24606 10.7613 5.63057 10.76 6.02367C10.76 6.33651 10.6964 6.6107 10.5694 6.84627C10.4502 7.07135 10.2976 7.27703 10.1167 7.45627C9.94187 7.62745 9.62813 7.91545 9.17545 8.32027C9.06967 8.41492 8.96923 8.51537 8.87457 8.62114C8.80918 8.69331 8.75267 8.77304 8.70623 8.85864C8.67056 8.92736 8.64189 8.99949 8.62066 9.07395C8.60037 9.14575 8.57 9.27179 8.52954 9.45208C8.45958 9.83489 8.24061 10.0263 7.87263 10.0262C7.78369 10.0285 7.69518 10.0131 7.61224 9.98086C7.52931 9.94864 7.45361 9.90025 7.38954 9.83852C7.25885 9.71352 7.19353 9.52766 7.19357 9.28095C7.19357 8.97181 7.2414 8.7041 7.33707 8.47783C7.42833 8.25831 7.55725 8.05643 7.71801 7.8813C7.92101 7.66726 8.13474 7.46365 8.35838 7.27127C8.5939 7.0652 8.76414 6.9097 8.8691 6.80477C8.9733 6.70081 9.06247 6.58282 9.13404 6.4542C9.20564 6.32603 9.24272 6.18146 9.24166 6.03464C9.24383 5.89409 9.21561 5.75473 9.15892 5.6261C9.10223 5.49746 9.01842 5.3826 8.91323 5.28936C8.69419 5.08703 8.41172 4.98582 8.06582 4.98574C7.66095 4.98574 7.36284 5.08782 7.17151 5.29199C6.98017 5.49615 6.81822 5.79702 6.68563 6.19458C6.56049 6.61073 6.32311 6.8188 5.97351 6.8188C5.87616 6.82074 5.77948 6.80236 5.68964 6.76481C5.59981 6.72726 5.5188 6.67138 5.45179 6.60074C5.3101 6.4553 5.23926 6.29791 5.23926 6.12858ZM7.93335 12.1792C7.71706 12.1822 7.5074 12.1045 7.34541 11.9611C7.17787 11.8158 7.09413 11.6124 7.0942 11.3511C7.09186 11.242 7.11224 11.1337 7.15405 11.0329C7.19587 10.9322 7.2582 10.8412 7.33707 10.7659C7.41541 10.6883 7.50858 10.6272 7.61103 10.5864C7.71348 10.5456 7.8231 10.5259 7.93335 10.5284C8.04181 10.5268 8.14949 10.547 8.25 10.5878C8.35051 10.6286 8.44181 10.6892 8.5185 10.7659C8.5952 10.8426 8.65571 10.9339 8.69648 11.0344C8.73724 11.1349 8.75742 11.2426 8.75582 11.3511C8.75582 11.6087 8.673 11.8112 8.50735 11.9583C8.35091 12.102 8.14575 12.1809 7.93335 12.1792Z" fill="white" />
</g>
<defs>

</defs>
</symbol><clipPath id="question-circle_clip0_26_2230">
<rect width="16" height="16" fill="white" />
</clipPath><symbol viewBox="0 0 16 16" fill="none" id="rating-star">
<path d="M7.24569 0.461071C7.50232 -0.1537 8.37329 -0.153699 8.62992 0.461071L10.2753 4.4025C10.3778 4.64819 10.603 4.82109 10.8668 4.8568L15.2254 5.44672C15.8756 5.53472 16.1073 6.35621 15.599 6.77102L12.2425 9.51C12.021 9.69073 11.9216 9.98166 11.986 10.2602L13.0585 14.895C13.2136 15.5651 12.46 16.0731 11.897 15.6779L8.36867 13.2016C8.11009 13.0201 7.76552 13.0201 7.50694 13.2016L3.97857 15.678C3.41554 16.0731 2.66195 15.5652 2.81702 14.895L3.88949 10.2602C3.95394 9.98165 3.85446 9.69074 3.63299 9.51L0.276605 6.77102C-0.23172 6.3562 2.75373e-05 5.53472 0.650202 5.44672L5.00883 4.8568C5.27266 4.82109 5.49779 4.64819 5.60035 4.4025L7.24569 0.461071Z" fill="#FF9A42" />
</symbol><symbol viewBox="0 0 30 32" fill="none" id="subscribe">
<g clip-path="url(#subscribe_clip0_26_2863)">
<path d="M22.8948 21.6C23.1041 21.6 23.3049 21.5157 23.453 21.3657C23.601 21.2157 23.6842 21.0122 23.6842 20.8V11.2C23.6842 10.9878 23.601 10.7844 23.453 10.6343C23.3049 10.4843 23.1041 10.4 22.8948 10.4H7.10546C6.89608 10.4 6.69527 10.4843 6.54722 10.6343C6.39917 10.7844 6.31599 10.9878 6.31599 11.2V20.8C6.31599 21.0122 6.39917 21.2157 6.54722 21.3657C6.69527 21.5157 6.89608 21.6 7.10546 21.6H22.8948ZM7.89492 20V14.208L14.7317 16.8C14.9051 16.8636 15.0951 16.8636 15.2685 16.8L22.1053 14.208V20H7.89492ZM29.9999 16C30.0065 18.4231 29.4322 20.8116 28.3263 22.96C28.2602 23.0893 28.1606 23.1978 28.0382 23.2739C27.9158 23.35 27.7752 23.3909 27.6315 23.392C27.5043 23.3928 27.3791 23.3597 27.2684 23.296C27.1762 23.2487 27.0943 23.1832 27.0274 23.1034C26.9606 23.0235 26.9103 22.9308 26.8794 22.8309C26.8485 22.731 26.8376 22.6258 26.8475 22.5216C26.8574 22.4173 26.8877 22.3162 26.9368 22.224C27.9191 20.3008 28.4283 18.1656 28.421 16C28.423 13.5726 27.783 11.189 26.5677 9.09722C25.3524 7.00541 23.6062 5.28181 21.5107 4.10573C19.4152 2.92966 17.0469 2.34407 14.6524 2.4099C12.2578 2.47572 9.92443 3.19055 7.89492 4.48002H9.20543C9.41481 4.48002 9.61562 4.5643 9.76367 4.71433C9.91172 4.86436 9.9949 5.06785 9.9949 5.28002C9.99086 5.49091 9.90638 5.69202 9.7592 5.84117C9.61201 5.99032 9.41355 6.07592 9.20543 6.08002H5.54232C5.37515 6.09726 5.20693 6.06001 5.0621 5.97368C4.91727 5.88735 4.80341 5.75645 4.73706 5.60002C4.7283 5.53097 4.7283 5.46107 4.73706 5.39202C4.72999 5.34965 4.72999 5.30639 4.73706 5.26402C4.73706 5.26402 4.73706 5.16802 4.73706 5.12002C4.78125 5.00847 4.85172 4.90959 4.94232 4.83202C7.08866 2.8661 9.75026 1.57114 12.6063 1.1032C15.4624 0.635253 18.3911 1.01429 21.0395 2.19464C23.6878 3.37499 25.9428 5.30627 27.5326 7.75573C29.1225 10.2052 29.9793 13.0683 29.9999 16ZM25.2632 26.736C25.2632 26.736 25.2632 26.736 25.2632 26.832C25.2722 26.8957 25.2722 26.9603 25.2632 27.024C25.2662 27.0613 25.2662 27.0987 25.2632 27.136L25.1526 27.28C23.0026 29.2834 20.3221 30.6071 17.4402 31.0886C14.5583 31.5701 11.6003 31.1886 8.9294 29.9908C6.25846 28.7929 3.99074 26.8309 2.40456 24.3456C0.818379 21.8603 -0.0172366 18.9598 0.00026953 16C-0.00632032 13.5769 0.568034 11.1884 1.67394 9.04002C1.78307 8.87846 1.94688 8.76307 2.13434 8.71569C2.3218 8.66831 2.51989 8.69223 2.69112 8.78293C2.86234 8.87362 2.99479 9.0248 3.0634 9.20782C3.13201 9.39084 3.13201 9.593 3.06339 9.77602C2.08106 11.6992 1.57188 13.8345 1.5792 16C1.57724 18.4274 2.2172 20.811 3.43249 22.9028C4.64779 24.9946 6.39403 26.7182 8.48954 27.8943C10.585 29.0704 12.9533 29.656 15.3478 29.5901C17.7424 29.5243 20.0758 28.8095 22.1053 27.52H20.7948C20.5854 27.52 20.3846 27.4357 20.2365 27.2857C20.0885 27.1357 20.0053 26.9322 20.0053 26.72C20.0094 26.5091 20.0938 26.308 20.241 26.1589C20.3882 26.0097 20.5867 25.9241 20.7948 25.92H24.4579C24.6251 25.9028 24.7933 25.94 24.9381 26.0264C25.0829 26.1127 25.1968 26.2436 25.2632 26.4C25.2862 26.5108 25.2862 26.6252 25.2632 26.736Z" fill="#13163F" />
</g>
<defs>

</defs>
</symbol><clipPath id="subscribe_clip0_26_2863">
<rect width="30" height="32" fill="white" />
</clipPath><symbol viewBox="0 0 20 18" fill="none" id="telegram">
<path d="M13 7L9 11L15 17L19 1L1 8L5 10L7 16L10 12" stroke="currentColor" stroke-width="2" stroke-linecap="round" stroke-linejoin="round" />
</symbol><symbol viewBox="0 0 20 20" fill="none" id="timer">
<path d="M9.99102 1.66675C5.39102 1.66675 1.66602 5.40008 1.66602 10.0001C1.66602 14.6001 5.39102 18.3334 9.99102 18.3334C14.5993 18.3334 18.3327 14.6001 18.3327 10.0001C18.3327 5.40008 14.5993 1.66675 9.99102 1.66675ZM12.741 13.9251L9.16602 10.3417V5.83341H10.8327V9.65841L13.9243 12.7501L12.741 13.9251Z" fill="#13163F" />
</symbol><symbol viewBox="0 0 34 34" fill="none" id="trash-round">
<circle cx="17" cy="17" r="17" fill="#E14C4C" />
<path fill-rule="evenodd" clip-rule="evenodd" d="M22.5041 19.1788L22.7227 17.6079C22.7899 17.1246 22.8514 16.6828 22.9061 16.2774C23.0184 15.4445 23.0746 15.0281 22.8255 14.7432C22.5765 14.4583 22.1485 14.4583 21.2925 14.4583H13.2909C12.4349 14.4583 12.0068 14.4583 11.7578 14.7432C11.5088 15.0281 11.5649 15.4445 11.6773 16.2774C11.7319 16.6829 11.7934 17.1244 11.8607 17.6079L12.0793 19.1788C12.3169 20.886 12.4357 21.7397 12.6876 22.4253C13.1586 23.7073 13.9729 24.6623 14.9447 25.0724C15.4644 25.2917 16.0735 25.2917 17.2917 25.2917C18.5098 25.2917 19.1189 25.2917 19.6386 25.0724C20.6105 24.6623 21.4247 23.7073 21.8958 22.4253C22.1477 21.7397 22.2665 20.886 22.5041 19.1788ZM16.25 16.125C16.25 15.7798 15.9702 15.5 15.625 15.5C15.2798 15.5 15 15.7798 15 16.125V22.7917C15 23.1368 15.2798 23.4167 15.625 23.4167C15.9702 23.4167 16.25 23.1368 16.25 22.7917V16.125ZM19.5833 16.125C19.5833 15.7798 19.3035 15.5 18.9583 15.5C18.6132 15.5 18.3333 15.7798 18.3333 16.125V22.7917C18.3333 23.1368 18.6132 23.4167 18.9583 23.4167C19.3035 23.4167 19.5833 23.1368 19.5833 22.7917V16.125Z" fill="white" />
<path d="M17.2917 8C15.1055 8 13.3333 9.77221 13.3333 11.9583V12.1667H10.625C10.2798 12.1667 10 12.4465 10 12.7917C10 13.1368 10.2798 13.4167 10.625 13.4167H23.9583C24.3035 13.4167 24.5833 13.1368 24.5833 12.7917C24.5833 12.4465 24.3035 12.1667 23.9583 12.1667H21.25V11.9583C21.25 9.77221 19.4778 8 17.2917 8Z" fill="white" />
</symbol><symbol viewBox="0 0 40 41" fill="none" id="trx">
<path fill-rule="evenodd" clip-rule="evenodd" d="M20 40.5C9 40.5 0 31.5002 0 20.4004C0.1 9.40064 9 0.400827 20.1 0.500825C31.1 0.600823 40 9.50064 40 20.7004C39.9 31.6002 31 40.5 20 40.5Z" fill="#FC070C" />
<path fill-rule="evenodd" clip-rule="evenodd" d="M32.4119 14.5101L32.4118 14.51C31.4856 13.6106 30.5068 12.6603 29.6431 11.8937L29.5556 11.8324C29.41 11.7155 29.2458 11.6238 29.0699 11.5612L28.4033 11.4368C23.8033 10.5785 8.89296 7.79638 8.58625 7.83368C8.49553 7.84639 8.40882 7.87928 8.3325 7.92993L8.24937 7.99556C8.14702 8.09951 8.06928 8.22509 8.02187 8.36306L8 8.41993V8.73056V8.77868C9.01229 11.5974 11.6419 17.8924 14.07 23.7048L14.07 23.7048C16.1227 28.6188 18.0314 33.1879 18.6968 35.0198L18.6971 35.0206C18.7846 35.2921 18.9509 35.8074 19.2612 35.8336H19.3312C19.4975 35.8336 20.2062 34.8974 20.2062 34.8974C20.2062 34.8974 32.8762 19.5324 34.158 17.8962C34.324 17.6946 34.4705 17.4778 34.5955 17.2487C34.6605 16.884 34.5293 16.5119 34.2499 16.2687C33.7041 15.7647 33.0713 15.1503 32.4119 14.5101ZM23.4568 18.058L28.8643 13.5736L32.0361 16.4961L23.4568 18.058ZM12.0469 10.1349L21.3568 17.7648L27.11 12.913L12.0469 10.1349ZM22.1969 19.7642L31.7256 18.2286L20.8319 31.3536L22.1969 19.7642ZM20.5781 19.2086L10.7825 10.8961L19.1606 31.3623L20.5781 19.2086Z" fill="white" />
</symbol><symbol viewBox="0 0 40 41" fill="none" id="usdt">
<path d="M39.4016 25.3381C36.7301 36.0525 25.877 42.5731 15.1601 39.9012C4.44772 37.2301 -2.07358 26.3775 0.599038 15.6639C3.26931 4.94838 14.1225 -1.57268 24.836 1.09847C35.5521 3.76961 42.073 14.6234 39.4013 25.3383L39.4015 25.3381H39.4016Z" fill="#50AF95" />
<path fill-rule="evenodd" clip-rule="evenodd" d="M22.5336 22.7675C22.3922 22.7781 21.6615 22.8217 20.0314 22.8217C18.735 22.8217 17.8145 22.7828 17.4915 22.7675C12.4812 22.5471 8.74146 21.675 8.74146 20.6309C8.74146 19.5867 12.4812 18.7158 17.4915 18.4919V21.8989C17.8192 21.9225 18.7573 21.9779 20.0538 21.9779C21.6096 21.9779 22.3887 21.9131 22.5289 21.9001V18.4943C27.5286 18.717 31.2601 19.5891 31.2601 20.6309C31.2601 21.6727 27.5298 22.5447 22.5289 22.7663L22.5336 22.7675ZM22.5335 18.1419V15.0932H29.5109V10.444H10.514V15.0932H17.4902V18.1407C11.8199 18.4012 7.55566 19.5243 7.55566 20.8701C7.55566 22.2159 11.8199 23.3378 17.4902 23.5994V33.3691H22.5324V23.5959C28.1897 23.3355 32.4469 22.2136 32.4469 20.8689C32.4469 19.5243 28.1933 18.4023 22.5324 18.1407L22.5335 18.1419Z" fill="white" />
</symbol><symbol viewBox="0 0 24 24" fill="none" id="user-round">

<g mask="url(#user-round_mask0_32_4484)">
<path d="M21.4141 12C21.4141 17.1993 17.1992 21.4141 12 21.4141C6.80066 21.4141 2.58594 17.1993 2.58594 12C2.58594 6.80066 6.80066 2.58594 12 2.58594C17.1992 2.58594 21.4141 6.80066 21.4141 12Z" stroke="#13163F" stroke-width="1.5" stroke-miterlimit="10" stroke-linecap="round" stroke-linejoin="round" />
<path d="M15.7657 10.7448C15.7657 12.8244 14.0798 14.5104 12 14.5104C9.9202 14.5104 8.23438 12.8244 8.23438 10.7448C8.23438 8.6651 9.9202 6.97916 12 6.97916C14.0798 6.97916 15.7657 8.6651 15.7657 10.7448Z" stroke="#13163F" stroke-width="1.5" stroke-miterlimit="10" stroke-linecap="round" stroke-linejoin="round" />
<path d="M6.3833 19.5556C6.68447 16.7196 9.08416 14.5104 12 14.5104C14.9159 14.5104 17.3155 16.7198 17.6166 19.5557" stroke="#13163F" stroke-width="1.5" stroke-miterlimit="10" stroke-linecap="round" stroke-linejoin="round" />
</g>
</symbol><mask id="user-round_mask0_32_4484" style="mask-type:luminance" maskUnits="userSpaceOnUse" x="2" y="2" width="20" height="20">
<path d="M2 2H22V22H2V2Z" fill="white" />
</mask><symbol viewBox="0 0 20 20" fill="none" id="whatsapp">
<path d="M5.25301 16.494L5.97701 16.917C7.19795 17.6291 8.5866 18.0029 10 18C11.5823 18 13.129 17.5308 14.4446 16.6518C15.7602 15.7727 16.7855 14.5233 17.3911 13.0615C17.9966 11.5997 18.155 9.99113 17.8463 8.43928C17.5376 6.88743 16.7757 5.46197 15.6569 4.34315C14.538 3.22433 13.1126 2.4624 11.5607 2.15372C10.0089 1.84504 8.40036 2.00346 6.93855 2.60896C5.47674 3.21447 4.22731 4.23984 3.34826 5.55544C2.46921 6.87103 2.00001 8.41775 2.00001 10C2.00001 11.436 2.37701 12.813 3.08401 14.024L3.50601 14.748L2.85301 17.149L5.25301 16.494ZM0.00401338 20L1.35601 15.032C0.465151 13.5049 -0.00289063 11.768 1.34322e-05 10C1.34322e-05 4.477 4.47701 0 10 0C15.523 0 20 4.477 20 10C20 15.523 15.523 20 10 20C8.23279 20.0029 6.49667 19.5352 4.97001 18.645L0.00401338 20ZM6.39101 5.308C6.52501 5.298 6.66001 5.298 6.79401 5.304C6.84801 5.308 6.90201 5.314 6.95601 5.32C7.11501 5.338 7.29001 5.435 7.34901 5.569C7.64701 6.245 7.93701 6.926 8.21701 7.609C8.27901 7.761 8.24201 7.956 8.12401 8.146C8.04286 8.27448 7.95507 8.39865 7.86101 8.518C7.74801 8.663 7.50501 8.929 7.50501 8.929C7.50501 8.929 7.40601 9.047 7.44401 9.194C7.45801 9.25 7.50401 9.331 7.54601 9.399L7.60501 9.494C7.86101 9.921 8.20501 10.354 8.62501 10.762C8.74501 10.878 8.86201 10.997 8.98801 11.108C9.45601 11.521 9.98601 11.858 10.558 12.108L10.563 12.11C10.648 12.147 10.691 12.167 10.815 12.22C10.877 12.246 10.941 12.269 11.006 12.286C11.0732 12.3031 11.1439 12.2999 11.2093 12.2767C11.2746 12.2536 11.3316 12.2116 11.373 12.156C12.097 11.279 12.163 11.222 12.169 11.222V11.224C12.2193 11.1771 12.2791 11.1415 12.3443 11.1196C12.4095 11.0977 12.4786 11.09 12.547 11.097C12.607 11.101 12.668 11.112 12.724 11.137C13.255 11.38 14.124 11.759 14.124 11.759L14.706 12.02C14.804 12.067 14.893 12.178 14.896 12.285C14.9 12.352 14.906 12.46 14.883 12.658C14.851 12.917 14.773 13.228 14.695 13.391C14.6416 13.5022 14.5707 13.6042 14.485 13.693C14.3841 13.7989 14.2736 13.8954 14.155 13.981C14.114 14.0119 14.0723 14.0419 14.03 14.071C13.9056 14.1499 13.7778 14.2233 13.647 14.291C13.3895 14.4278 13.1052 14.5063 12.814 14.521C12.629 14.531 12.444 14.545 12.258 14.535C12.25 14.535 11.69 14.448 11.69 14.448C10.2683 14.074 8.9534 13.3735 7.85001 12.402C7.62401 12.203 7.41501 11.989 7.20101 11.776C6.31101 10.891 5.63901 9.936 5.23101 9.034C5.02218 8.59129 4.90938 8.1094 4.90001 7.62C4.89589 7.01285 5.09436 6.42167 5.46401 5.94C5.53701 5.846 5.60601 5.748 5.72501 5.635C5.85201 5.515 5.93201 5.451 6.01901 5.407C6.13469 5.34903 6.26088 5.31502 6.39001 5.307L6.39101 5.308Z" fill="currentColor" />
</symbol></defs></svg>