<svg width="16" height="16" viewBox="0 0 16 16" fill="none" xmlns="http://www.w3.org/2000/svg">
<g clip-path="url(#clip0_6_4151)">
<path d="M14.8784 2.95407L5.66577 12.1661C5.60383 12.2283 5.53022 12.2776 5.44917 12.3113C5.36811 12.3449 5.28121 12.3623 5.19344 12.3623C5.10567 12.3623 5.01876 12.3449 4.93771 12.3113C4.85665 12.2776 4.78304 12.2283 4.72111 12.1661L1.15844 8.60007C1.0965 8.53788 1.02289 8.48854 0.941834 8.45487C0.860779 8.4212 0.773874 8.40387 0.686104 8.40387C0.598335 8.40387 0.51143 8.4212 0.430375 8.45487C0.34932 8.48854 0.275711 8.53788 0.213771 8.60007C0.151586 8.66201 0.102245 8.73562 0.068577 8.81667C0.0349092 8.89773 0.0175781 8.98463 0.0175781 9.0724C0.0175781 9.16017 0.0349092 9.24707 0.068577 9.32813C0.102245 9.40918 0.151586 9.48279 0.213771 9.54473L3.77777 13.1081C4.15374 13.4833 4.66324 13.6941 5.19444 13.6941C5.72564 13.6941 6.23514 13.4833 6.61111 13.1081L15.8231 3.89807C15.8852 3.83614 15.9344 3.76257 15.9681 3.68158C16.0017 3.60058 16.019 3.51376 16.019 3.42607C16.019 3.33838 16.0017 3.25155 15.9681 3.17055C15.9344 3.08956 15.8852 3.01599 15.8231 2.95407C15.7612 2.89188 15.6876 2.84254 15.6065 2.80887C15.5254 2.7752 15.4385 2.75787 15.3508 2.75787C15.263 2.75787 15.1761 2.7752 15.095 2.80887C15.014 2.84254 14.9404 2.89188 14.8784 2.95407Z" fill="white"/>
</g>
<defs>
<clipPath id="clip0_6_4151">
<rect width="16" height="16" fill="white"/>
</clipPath>
</defs>
</svg>
