<svg width="10" height="6" viewBox="0 0 10 6" fill="none" xmlns="http://www.w3.org/2000/svg">
<path d="M9.63662 0.77337C9.57465 0.710885 9.50091 0.661289 9.41967 0.627443C9.33843 0.593597 9.2513 0.576172 9.16329 0.576172C9.07528 0.576172 8.98814 0.593597 8.9069 0.627443C8.82566 0.661289 8.75193 0.710885 8.68996 0.77337L5.63662 3.8267C5.57465 3.88918 5.50091 3.93878 5.41967 3.97262C5.33843 4.00647 5.2513 4.0239 5.16329 4.0239C5.07528 4.0239 4.98814 4.00647 4.9069 3.97262C4.82566 3.93878 4.75193 3.88918 4.68996 3.8267L1.63662 0.77337C1.57465 0.710885 1.50091 0.661289 1.41967 0.627443C1.33843 0.593597 1.2513 0.576172 1.16329 0.576172C1.07528 0.576172 0.988144 0.593597 0.906904 0.627443C0.825665 0.661289 0.751931 0.710885 0.689955 0.77337C0.565788 0.898278 0.496094 1.06725 0.496094 1.24337C0.496094 1.41949 0.565788 1.58846 0.689955 1.71337L3.74996 4.77336C4.12496 5.1479 4.63329 5.35827 5.16329 5.35827C5.69329 5.35827 6.20162 5.1479 6.57662 4.77336L9.63662 1.71337C9.76079 1.58846 9.83048 1.41949 9.83048 1.24337C9.83048 1.06725 9.76079 0.898278 9.63662 0.77337Z" fill="#262D38"/>
</svg>
