<svg width="21" height="20" viewBox="0 0 21 20" fill="none" xmlns="http://www.w3.org/2000/svg">
<path d="M9.87611 1.31252C9.93297 1.19511 10.0218 1.09609 10.1323 1.02681C10.2428 0.957523 10.3707 0.920776 10.5011 0.920776C10.6316 0.920776 10.7594 0.957523 10.8699 1.02681C10.9805 1.09609 11.0692 1.19511 11.1261 1.31252L13.6942 6.50419L19.4497 7.33752C19.5782 7.35616 19.6988 7.41042 19.798 7.49415C19.8971 7.57787 19.9708 7.68771 20.0107 7.8112C20.0507 7.93469 20.0552 8.0669 20.0238 8.19282C19.9923 8.31875 19.9263 8.43335 19.833 8.52363L15.6664 12.5514L16.6497 18.2459C16.6716 18.3734 16.6575 18.5045 16.6088 18.6244C16.5602 18.7443 16.479 18.8483 16.3745 18.9245C16.2699 19.0008 16.1462 19.0463 16.0171 19.056C15.8881 19.0656 15.7589 19.039 15.6442 18.9792L10.4997 16.2931L5.34555 18.9861C5.23081 19.046 5.10164 19.0726 4.9726 19.0629C4.84355 19.0533 4.71977 19.0077 4.61522 18.9315C4.51066 18.8552 4.4295 18.7513 4.38087 18.6314C4.33224 18.5115 4.31808 18.3803 4.33999 18.2528L5.32333 12.5584L1.15666 8.53058C1.06343 8.44029 0.997364 8.32569 0.965955 8.19977C0.934547 8.07384 0.939054 7.94164 0.978965 7.81815C1.01888 7.69465 1.09259 7.58482 1.19176 7.50109C1.29092 7.41737 1.41156 7.36311 1.53999 7.34446L7.29694 6.51113L9.87611 1.31252Z" stroke="#262D38" stroke-linecap="round" stroke-linejoin="round"/>
</svg>
