<svg width="40" height="40" viewBox="0 0 40 40" fill="none" xmlns="http://www.w3.org/2000/svg">
<g clip-path="url(#clip0_52_56)">
<path d="M15.832 34.1667H2.4987C2.05667 34.1667 1.63275 33.9911 1.32019 33.6785C1.00763 33.366 0.832031 32.942 0.832031 32.5V5.83335C0.832031 5.39133 1.00763 4.9674 1.32019 4.65484C1.63275 4.34228 2.05667 4.16669 2.4987 4.16669H25.832C26.2741 4.16669 26.698 4.34228 27.0105 4.65484C27.3231 4.9674 27.4987 5.39133 27.4987 5.83335V14.1667" stroke="#262D38" stroke-width="1.5" stroke-linecap="round" stroke-linejoin="round"/>
<path d="M7.5 7.49998V0.833313" stroke="#262D38" stroke-width="1.5" stroke-linecap="round" stroke-linejoin="round"/>
<path d="M14.168 7.49998V0.833313" stroke="#262D38" stroke-width="1.5" stroke-linecap="round" stroke-linejoin="round"/>
<path d="M20.832 7.49998V0.833313" stroke="#262D38" stroke-width="1.5" stroke-linecap="round" stroke-linejoin="round"/>
<path d="M29.168 39.1667C31.1458 39.1667 33.0792 38.5802 34.7237 37.4814C36.3682 36.3826 37.6499 34.8208 38.4068 32.9935C39.1636 31.1663 39.3617 29.1556 38.9758 27.2158C38.59 25.276 37.6376 23.4941 36.239 22.0956C34.8405 20.6971 33.0587 19.7447 31.1189 19.3588C29.1791 18.973 27.1684 19.171 25.3411 19.9279C23.5139 20.6848 21.9521 21.9665 20.8533 23.611C19.7545 25.2555 19.168 27.1889 19.168 29.1667C19.168 31.8189 20.2215 34.3624 22.0969 36.2378C23.9723 38.1131 26.5158 39.1667 29.168 39.1667Z" fill="#4FAFCD"/>
<path d="M29.1676 19.1667C27.1323 19.1651 25.145 19.7851 23.4717 20.9437C21.7983 22.1024 20.5187 23.7444 19.8041 25.6501C19.0895 27.5559 18.9739 29.6344 19.4728 31.6076C19.9717 33.5809 21.0614 35.3547 22.5959 36.6917L36.6926 22.595C35.7568 21.5182 34.6007 20.6549 33.3025 20.0635C32.0043 19.472 30.5942 19.1662 29.1676 19.1667Z" fill="#B7DFEC"/>
<path d="M29.168 39.1667C31.1458 39.1667 33.0792 38.5802 34.7237 37.4814C36.3682 36.3826 37.6499 34.8208 38.4068 32.9935C39.1636 31.1663 39.3617 29.1556 38.9758 27.2158C38.59 25.276 37.6376 23.4941 36.239 22.0956C34.8405 20.6971 33.0587 19.7447 31.1189 19.3588C29.1791 18.973 27.1684 19.171 25.3411 19.9279C23.5139 20.6848 21.9521 21.9665 20.8533 23.611C19.7545 25.2555 19.168 27.1889 19.168 29.1667C19.168 31.8189 20.2215 34.3624 22.0969 36.2378C23.9723 38.1131 26.5158 39.1667 29.168 39.1667Z" stroke="#262D38" stroke-width="1.5" stroke-linecap="round" stroke-linejoin="round"/>
<path d="M32.7009 25.6166L25.6309 32.6866" stroke="#262D38" stroke-width="1.5" stroke-linecap="round" stroke-linejoin="round"/>
<path d="M32.7009 32.6866L25.6309 25.6166" stroke="#262D38" stroke-width="1.5" stroke-linecap="round" stroke-linejoin="round"/>
</g>
<defs>
<clipPath id="clip0_52_56">
<rect width="40" height="40" fill="white"/>
</clipPath>
</defs>
</svg>
