<svg width="21" height="20" viewBox="0 0 21 20" fill="none" xmlns="http://www.w3.org/2000/svg">
<g clip-path="url(#clip0_72_4280)">
<path d="M10.875 9.99994C11.8639 9.99994 12.8306 9.7067 13.6529 9.15729C14.4751 8.60788 15.116 7.82699 15.4944 6.91336C15.8728 5.99973 15.9719 4.99439 15.7789 4.02449C15.586 3.05458 15.1098 2.16367 14.4105 1.46441C13.7113 0.765145 12.8204 0.288941 11.8505 0.0960148C10.8805 -0.0969113 9.87521 0.00210539 8.96158 0.380544C8.04795 0.758982 7.26706 1.39984 6.71765 2.22209C6.16824 3.04434 5.875 4.01103 5.875 4.99994C5.87632 6.32562 6.40353 7.59662 7.34093 8.53401C8.27832 9.47141 9.54932 9.99862 10.875 9.99994ZM10.875 1.66661C11.5343 1.66661 12.1787 1.8621 12.7269 2.22838C13.2751 2.59465 13.7023 3.11524 13.9546 3.72433C14.2069 4.33342 14.2729 5.00364 14.1443 5.65024C14.0157 6.29685 13.6982 6.89079 13.232 7.35696C12.7658 7.82314 12.1719 8.14061 11.5253 8.26923C10.8787 8.39784 10.2085 8.33183 9.59939 8.07954C8.9903 7.82725 8.46971 7.40001 8.10344 6.85184C7.73716 6.30368 7.54167 5.65921 7.54167 4.99994C7.54167 4.11589 7.89286 3.26804 8.51798 2.64292C9.1431 2.0178 9.99095 1.66661 10.875 1.66661Z" fill="#262D38"/>
<path d="M10.875 11.6672C8.88655 11.6694 6.98018 12.4603 5.57414 13.8663C4.16809 15.2724 3.37721 17.1787 3.375 19.1672C3.375 19.3882 3.4628 19.6002 3.61908 19.7564C3.77536 19.9127 3.98732 20.0005 4.20833 20.0005C4.42935 20.0005 4.64131 19.9127 4.79759 19.7564C4.95387 19.6002 5.04167 19.3882 5.04167 19.1672C5.04167 17.6201 5.65625 16.1363 6.75021 15.0424C7.84417 13.9484 9.3279 13.3338 10.875 13.3338C12.4221 13.3338 13.9058 13.9484 14.9998 15.0424C16.0938 16.1363 16.7083 17.6201 16.7083 19.1672C16.7083 19.3882 16.7961 19.6002 16.9524 19.7564C17.1087 19.9127 17.3207 20.0005 17.5417 20.0005C17.7627 20.0005 17.9746 19.9127 18.1309 19.7564C18.2872 19.6002 18.375 19.3882 18.375 19.1672C18.3728 17.1787 17.5819 15.2724 16.1759 13.8663C14.7698 12.4603 12.8634 11.6694 10.875 11.6672Z" fill="#262D38"/>
</g>
<defs>
<clipPath id="clip0_72_4280">
<rect width="20" height="20" fill="white" transform="translate(0.875)"/>
</clipPath>
</defs>
</svg>
