<svg width="24" height="24" viewBox="0 0 24 24" fill="none" xmlns="http://www.w3.org/2000/svg">
<path d="M18 19.1249H8.079C7.7247 19.125 7.3818 18.9996 7.111 18.7709C6.8403 18.5423 6.6593 18.2253 6.6 17.8759L3.963 2.37593C3.9035 2.02678 3.7224 1.70994 3.4517 1.48153C3.181 1.25311 2.8382 1.12785 2.484 1.12793H1.5" stroke="white" stroke-width="1.5" stroke-linecap="round" stroke-linejoin="round"/>
<path d="M16.125 22.125C16.3321 22.125 16.5 21.9571 16.5 21.75C16.5 21.5429 16.3321 21.375 16.125 21.375" stroke="white" stroke-width="1.5"/>
<path d="M16.125 22.125C15.9179 22.125 15.75 21.9571 15.75 21.75C15.75 21.5429 15.9179 21.375 16.125 21.375" stroke="white" stroke-width="1.5"/>
<path d="M8.625 22.125C8.8321 22.125 9 21.9571 9 21.75C9 21.5429 8.8321 21.375 8.625 21.375" stroke="white" stroke-width="1.5"/>
<path d="M8.625 22.125C8.4179 22.125 8.25 21.9571 8.25 21.75C8.25 21.5429 8.4179 21.375 8.625 21.375" stroke="white" stroke-width="1.5"/>
<path d="M6.04661 14.6251H18.1176C18.7865 14.625 19.4362 14.4014 19.9635 13.9897C20.4907 13.5781 20.8653 13.002 21.0276 12.3531L22.4776 6.55309C22.5053 6.44248 22.5073 6.32702 22.4837 6.21548C22.46 6.10394 22.4112 5.99927 22.3411 5.90941C22.2709 5.81955 22.1811 5.74688 22.0786 5.69692C21.9761 5.64696 21.8636 5.62103 21.7496 5.62109H4.51561" stroke="white" stroke-width="1.5" stroke-linecap="round" stroke-linejoin="round"/>
<path d="M18 8.625V10.875" stroke="white" stroke-width="1.5" stroke-linecap="round" stroke-linejoin="round"/>
<path d="M13.5 8.625V10.875" stroke="white" stroke-width="1.5" stroke-linecap="round" stroke-linejoin="round"/>
<path d="M9 8.625V10.875" stroke="white" stroke-width="1.5" stroke-linecap="round" stroke-linejoin="round"/>
</svg>
