<svg width="24" height="25" viewBox="0 0 24 25" fill="none" xmlns="http://www.w3.org/2000/svg">
<g clip-path="url(#clip0_6_4543)">
<path d="M19 0.5H5C3.67441 0.501588 2.40356 1.02888 1.46622 1.96622C0.528882 2.90356 0.00158786 4.17441 0 5.5L0 19.5C0.00158786 20.8256 0.528882 22.0964 1.46622 23.0338C2.40356 23.9711 3.67441 24.4984 5 24.5H19C20.3256 24.4984 21.5964 23.9711 22.5338 23.0338C23.4711 22.0964 23.9984 20.8256 24 19.5V5.5C23.9984 4.17441 23.4711 2.90356 22.5338 1.96622C21.5964 1.02888 20.3256 0.501588 19 0.5V0.5ZM22 19.5C22 20.2956 21.6839 21.0587 21.1213 21.6213C20.5587 22.1839 19.7956 22.5 19 22.5H5C4.20435 22.5 3.44129 22.1839 2.87868 21.6213C2.31607 21.0587 2 20.2956 2 19.5V5.5C2 4.70435 2.31607 3.94129 2.87868 3.37868C3.44129 2.81607 4.20435 2.5 5 2.5H19C19.7956 2.5 20.5587 2.81607 21.1213 3.37868C21.6839 3.94129 22 4.70435 22 5.5V19.5Z" fill="#589465"/>
<path d="M9.33282 16.419L5.41382 12.5C5.22629 12.3126 4.97198 12.2073 4.70682 12.2073C4.44165 12.2073 4.18735 12.3126 3.99982 12.5C3.81235 12.6876 3.70703 12.9419 3.70703 13.207C3.70703 13.4722 3.81235 13.7265 3.99982 13.914L7.91882 17.833C8.10455 18.0188 8.32506 18.1662 8.56776 18.2668C8.81047 18.3674 9.07061 18.4191 9.33332 18.4191C9.59603 18.4191 9.85617 18.3674 10.0989 18.2668C10.3416 18.1662 10.5621 18.0188 10.7478 17.833L19.9998 8.58105C20.1873 8.39352 20.2926 8.13922 20.2926 7.87405C20.2926 7.60889 20.1873 7.35458 19.9998 7.16705C19.8123 6.97958 19.558 6.87427 19.2928 6.87427C19.0277 6.87427 18.7733 6.97958 18.5858 7.16705L9.33282 16.419Z" fill="#589465"/>
</g>
<defs>
<clipPath id="clip0_6_4543">
<rect width="24" height="24" fill="white" transform="translate(0 0.5)"/>
</clipPath>
</defs>
</svg>
