<svg width="21" height="21" viewBox="0 0 21 21" fill="none" xmlns="http://www.w3.org/2000/svg">
<path d="M2.63994 2.80917L11.7549 5.4C12.3726 5.60286 12.912 5.99235 13.2989 6.51476C13.6857 7.03717 13.901 7.66675 13.9149 8.31667V17.075C13.9409 17.3515 13.8991 17.6302 13.7933 17.8869C13.6874 18.1437 13.5206 18.3708 13.3072 18.5486C13.0939 18.7264 12.8405 18.8496 12.5688 18.9075C12.2972 18.9653 12.0156 18.9562 11.7482 18.8808L4.20827 16.8308C3.59055 16.6387 3.04894 16.257 2.6601 15.74C2.27125 15.223 2.05488 14.5967 2.0416 13.95V4.40667C2.02791 3.80135 2.25416 3.21518 2.67099 2.77603C3.08781 2.33688 3.66139 2.08038 4.2666 2.0625H15.7899C16.453 2.0625 17.0889 2.32589 17.5577 2.79473C18.0266 3.26357 18.2899 3.89946 18.2899 4.5625V12.0233C18.287 12.3604 18.2176 12.6935 18.0856 13.0037C17.9537 13.3138 17.7619 13.5949 17.5211 13.8308C17.2803 14.0667 16.9954 14.2527 16.6826 14.3783C16.3698 14.5038 16.0353 14.5665 15.6982 14.5625H13.9149" stroke="#4FAFCD" stroke-width="1.5" stroke-linecap="round" stroke-linejoin="round"/>
<path d="M10.4766 12.0625C10.304 12.0625 10.1641 11.9226 10.1641 11.75C10.1641 11.5774 10.304 11.4375 10.4766 11.4375" stroke="#4FAFCD" stroke-width="1.5"/>
<path d="M10.4766 12.0625C10.6491 12.0625 10.7891 11.9226 10.7891 11.75C10.7891 11.5774 10.6491 11.4375 10.4766 11.4375" stroke="#4FAFCD" stroke-width="1.5"/>
<path d="M18.2891 8.3125H13.9141" stroke="#4FAFCD" stroke-width="1.5" stroke-linecap="round" stroke-linejoin="round"/>
</svg>
