<svg width="21" height="20" viewBox="0 0 21 20" fill="none" xmlns="http://www.w3.org/2000/svg">
<g clip-path="url(#clip0_52_146)">
<path d="M3.89896 1.86672H3.88979C3.05656 2.05184 2.31142 2.51569 1.77747 3.1816C1.24352 3.84752 0.952725 4.67567 0.953125 5.52922V6.27089C0.953125 6.6024 1.08482 6.92035 1.31924 7.15477C1.55366 7.38919 1.87161 7.52089 2.20313 7.52089H5.32813C5.65965 7.52089 5.97759 7.38919 6.21201 7.15477C6.44643 6.92035 6.57813 6.6024 6.57813 6.27089C6.57813 5.93937 6.70983 5.62142 6.94424 5.387C7.17866 5.15259 7.49661 5.02089 7.82813 5.02089H12.8281C13.1596 5.02089 13.4776 5.15259 13.712 5.387C13.9465 5.62142 14.0781 5.93937 14.0781 6.27089C14.0781 6.6024 14.2098 6.92035 14.4442 7.15477C14.6786 7.38919 14.9966 7.52089 15.3281 7.52089H18.4531C18.7846 7.52089 19.1026 7.38919 19.337 7.15477C19.5715 6.92035 19.7031 6.6024 19.7031 6.27089V5.52922C19.7031 4.67595 19.4122 3.84819 18.8783 3.18262C18.3444 2.51704 17.5994 2.05345 16.7665 1.86839H16.7573C12.5107 1.04574 8.14576 1.04517 3.89896 1.86672Z" stroke="#4FAFCD" stroke-width="1.5" stroke-linecap="round" stroke-linejoin="round"/>
<path d="M3.45312 10.0208V15.0208C3.45312 16.0154 3.84822 16.9692 4.55147 17.6725C5.25473 18.3757 6.20857 18.7708 7.20312 18.7708H13.4531C14.4477 18.7708 15.4015 18.3757 16.1048 17.6725C16.808 16.9692 17.2031 16.0154 17.2031 15.0208V10.0208" stroke="#4FAFCD" stroke-width="1.5" stroke-linecap="round" stroke-linejoin="round"/>
<path d="M6.89062 11.8958C6.71803 11.8958 6.57812 11.7559 6.57812 11.5833C6.57812 11.4107 6.71803 11.2708 6.89062 11.2708" stroke="#4FAFCD" stroke-width="1.5"/>
<path d="M6.89062 11.8958C7.06322 11.8958 7.20312 11.7559 7.20312 11.5833C7.20312 11.4107 7.06322 11.2708 6.89062 11.2708" stroke="#4FAFCD" stroke-width="1.5"/>
<path d="M6.89062 15.0208C6.71803 15.0208 6.57812 14.8809 6.57812 14.7083C6.57812 14.5357 6.71803 14.3958 6.89062 14.3958" stroke="#4FAFCD" stroke-width="1.5"/>
<path d="M6.89062 15.0208C7.06322 15.0208 7.20312 14.8809 7.20312 14.7083C7.20312 14.5357 7.06322 14.3958 6.89062 14.3958" stroke="#4FAFCD" stroke-width="1.5"/>
<path d="M10.3281 11.8958C10.1555 11.8958 10.0156 11.7559 10.0156 11.5833C10.0156 11.4107 10.1555 11.2708 10.3281 11.2708" stroke="#4FAFCD" stroke-width="1.5"/>
<path d="M10.3281 11.8958C10.5007 11.8958 10.6406 11.7559 10.6406 11.5833C10.6406 11.4107 10.5007 11.2708 10.3281 11.2708" stroke="#4FAFCD" stroke-width="1.5"/>
<path d="M10.3281 15.0208C10.1555 15.0208 10.0156 14.8809 10.0156 14.7083C10.0156 14.5357 10.1555 14.3958 10.3281 14.3958" stroke="#4FAFCD" stroke-width="1.5"/>
<path d="M10.3281 15.0208C10.5007 15.0208 10.6406 14.8809 10.6406 14.7083C10.6406 14.5357 10.5007 14.3958 10.3281 14.3958" stroke="#4FAFCD" stroke-width="1.5"/>
<path d="M13.7656 11.8958C13.593 11.8958 13.4531 11.7559 13.4531 11.5833C13.4531 11.4107 13.593 11.2708 13.7656 11.2708" stroke="#4FAFCD" stroke-width="1.5"/>
<path d="M13.7656 11.8958C13.9382 11.8958 14.0781 11.7559 14.0781 11.5833C14.0781 11.4107 13.9382 11.2708 13.7656 11.2708" stroke="#4FAFCD" stroke-width="1.5"/>
<path d="M13.7656 15.0208C13.593 15.0208 13.4531 14.8809 13.4531 14.7083C13.4531 14.5357 13.593 14.3958 13.7656 14.3958" stroke="#4FAFCD" stroke-width="1.5"/>
<path d="M13.7656 15.0208C13.9382 15.0208 14.0781 14.8809 14.0781 14.7083C14.0781 14.5357 13.9382 14.3958 13.7656 14.3958" stroke="#4FAFCD" stroke-width="1.5"/>
</g>
<defs>
<clipPath id="clip0_52_146">
<rect width="20" height="20" fill="white" transform="translate(0.328125)"/>
</clipPath>
</defs>
</svg>
