<svg width="40" height="40" viewBox="0 0 40 40" fill="none" xmlns="http://www.w3.org/2000/svg">
<g clip-path="url(#clip0_52_41)">
<path d="M22.5 21.6666C22.5 22.3297 22.2366 22.9656 21.7678 23.4344C21.2989 23.9033 20.663 24.1666 20 24.1666C19.337 24.1666 18.7011 23.9033 18.2322 23.4344C17.7634 22.9656 17.5 22.3297 17.5 21.6666V18.3333C17.5 17.6703 17.7634 17.0344 18.2322 16.5655C18.7011 16.0967 19.337 15.8333 20 15.8333C20.663 15.8333 21.2989 16.0967 21.7678 16.5655C22.2366 17.0344 22.5 17.6703 22.5 18.3333V21.6666Z" stroke="#262D38" stroke-width="1.5" stroke-linecap="round" stroke-linejoin="round"/>
<path d="M26.668 24.1667L32.5013 16.6667" stroke="#262D38" stroke-width="1.5" stroke-linecap="round" stroke-linejoin="round"/>
<path d="M26.2487 17.5C26.3311 17.5 26.4117 17.5244 26.4802 17.5702C26.5487 17.616 26.6021 17.6811 26.6336 17.7572C26.6652 17.8334 26.6734 17.9171 26.6574 17.998C26.6413 18.0788 26.6016 18.153 26.5433 18.2113C26.4851 18.2696 26.4108 18.3093 26.33 18.3253C26.2492 18.3414 26.1654 18.3332 26.0892 18.3016C26.0131 18.2701 25.948 18.2167 25.9023 18.1482C25.8565 18.0796 25.832 17.9991 25.832 17.9167C25.832 17.8062 25.8759 17.7002 25.9541 17.622C26.0322 17.5439 26.1382 17.5 26.2487 17.5Z" stroke="#262D38" stroke-width="1.5" stroke-linecap="round" stroke-linejoin="round"/>
<path d="M32.9167 22.5C32.9991 22.5 33.0796 22.5244 33.1482 22.5702C33.2167 22.616 33.2701 22.6811 33.3016 22.7572C33.3332 22.8334 33.3414 22.9171 33.3253 22.998C33.3092 23.0788 33.2696 23.153 33.2113 23.2113C33.153 23.2696 33.0788 23.3093 32.998 23.3253C32.9171 23.3414 32.8334 23.3332 32.7572 23.3016C32.6811 23.2701 32.616 23.2167 32.5702 23.1482C32.5244 23.0796 32.5 22.9991 32.5 22.9167C32.5 22.8062 32.5439 22.7002 32.622 22.622C32.7002 22.5439 32.8062 22.5 32.9167 22.5Z" stroke="#262D38" stroke-width="1.5" stroke-linecap="round" stroke-linejoin="round"/>
<path d="M9.78125 17.5C9.78125 17.058 9.95685 16.6341 10.2694 16.3215C10.582 16.009 11.0059 15.8334 11.4479 15.8334H12.7096C13.2621 15.8334 13.792 16.0529 14.1827 16.4436C14.5734 16.8343 14.7929 17.3642 14.7929 17.9167C14.7929 18.4692 14.5734 18.9991 14.1827 19.3898C13.792 19.7805 13.2621 20 12.7096 20C13.2621 20 13.792 20.2195 14.1827 20.6102C14.5734 21.0009 14.7929 21.5308 14.7929 22.0834C14.7929 22.6359 14.5734 23.1658 14.1827 23.5565C13.792 23.9472 13.2621 24.1667 12.7096 24.1667H11.4479C11.0059 24.1667 10.582 23.9911 10.2694 23.6786C9.95685 23.366 9.78125 22.9421 9.78125 22.5" stroke="#262D38" stroke-width="1.5" stroke-linecap="round" stroke-linejoin="round"/>
<path d="M14.793 17.5C14.793 17.058 14.6174 16.6341 14.3048 16.3215C13.9923 16.009 13.5683 15.8334 13.1263 15.8334H11.8646C11.3121 15.8334 10.7822 16.0529 10.3915 16.4436C10.0008 16.8343 9.7813 17.3642 9.7813 17.9167C9.7813 18.4692 10.0008 18.9991 10.3915 19.3898C10.7822 19.7805 11.9275 20 12.48 20C11.9275 20 10.7822 20.2195 10.3915 20.6102C10.0008 21.0009 9.7813 21.5308 9.7813 22.0834C9.7813 22.6359 10.0008 23.1658 10.3915 23.5565C10.7822 23.9472 11.3121 24.1667 11.8646 24.1667H13.1263C13.5683 24.1667 13.9923 23.9911 14.3048 23.6786C14.6174 23.366 14.793 22.9421 14.793 22.5" stroke="#262D38" stroke-width="1.5" stroke-linecap="round" stroke-linejoin="round"/>
<path d="M34.9435 13.81C35.4788 12.5851 35.6325 11.2273 35.3845 9.91381C35.1365 8.60028 34.4983 7.39202 33.5532 6.44671C32.608 5.50141 31.3999 4.86296 30.0864 4.61469C28.7729 4.36642 27.4151 4.51986 26.1902 5.05499C25.7024 3.81046 24.8509 2.74184 23.7467 1.98858C22.6425 1.23532 21.3368 0.832397 20.0002 0.832397C18.6635 0.832397 17.3578 1.23532 16.2536 1.98858C15.1494 2.74184 14.2979 3.81046 13.8102 5.05499C12.5852 4.51986 11.2274 4.36642 9.91389 4.61469C8.60041 4.86296 7.39227 5.50141 6.44714 6.44671C5.50201 7.39202 4.86379 8.60028 4.61578 9.91381C4.36776 11.2273 4.52146 12.5851 5.05682 13.81C4.02196 14.2126 3.1049 14.8689 2.38994 15.7185C1.67498 16.5682 1.18504 17.5839 0.965163 18.6723C0.745285 19.7607 0.80252 20.887 1.13161 21.9475C1.46069 23.0081 2.05107 23.9689 2.84848 24.7417C2.9566 20.2645 4.8111 16.007 8.01588 12.8787C11.2207 9.75035 15.5216 7.99916 20.0002 7.99916C24.4787 7.99916 28.7796 9.75035 31.9844 12.8787C35.1892 16.007 37.0437 20.2645 37.1518 24.7417C37.9492 23.9689 38.5396 23.0081 38.8687 21.9475C39.1978 20.887 39.255 19.7607 39.0351 18.6723C38.8153 17.5839 38.3253 16.5682 37.6104 15.7185C36.8954 14.8689 35.9783 14.2126 34.9435 13.81Z" fill="#B7DFEC"/>
<path d="M39.1666 20C39.164 18.6638 38.76 17.3593 38.0069 16.2555C37.2538 15.1517 36.1865 14.2997 34.9432 13.81C35.479 12.5852 35.633 11.2273 35.3851 9.91367C35.1372 8.6 34.4989 7.39161 33.5536 6.44632C32.6083 5.50102 31.3999 4.86274 30.0863 4.61483C28.7726 4.36693 27.4147 4.52092 26.1899 5.05669C25.7022 3.81217 24.8507 2.74355 23.7465 1.99029C22.6422 1.23703 21.3366 0.834106 19.9999 0.834106C18.6632 0.834106 17.3576 1.23703 16.2534 1.99029C15.1491 2.74355 14.2976 3.81217 13.8099 5.05669C12.5851 4.52092 11.2272 4.36693 9.91355 4.61483C8.59988 4.86274 7.39149 5.50102 6.44619 6.44632C5.50089 7.39161 4.86262 8.6 4.61471 9.91367C4.36681 11.2273 4.5208 12.5852 5.05657 13.81C3.81204 14.2977 2.74343 15.1493 1.99016 16.2535C1.2369 17.3577 0.833984 18.6633 0.833984 20C0.833984 21.3367 1.2369 22.6423 1.99016 23.7466C2.74343 24.8508 3.81204 25.7023 5.05657 26.19C4.5208 27.4148 4.36681 28.7727 4.61471 30.0864C4.86262 31.4001 5.50089 32.6084 6.44619 33.5537C7.39149 34.499 8.59988 35.1373 9.91355 35.3852C11.2272 35.6331 12.5851 35.4791 13.8099 34.9434C14.2976 36.1879 15.1491 37.2565 16.2534 38.0098C17.3576 38.763 18.6632 39.166 19.9999 39.166C21.3366 39.166 22.6422 38.763 23.7465 38.0098C24.8507 37.2565 25.7022 36.1879 26.1899 34.9434C27.4147 35.4791 28.7726 35.6331 30.0863 35.3852C31.3999 35.1373 32.6083 34.499 33.5536 33.5537C34.4989 32.6084 35.1372 31.4001 35.3851 30.0864C35.633 28.7727 35.479 27.4148 34.9432 26.19C36.1865 25.7003 37.2538 24.8483 38.0069 23.7446C38.76 22.6408 39.164 21.3362 39.1666 20Z" stroke="#262D38" stroke-width="1.5" stroke-linecap="round" stroke-linejoin="round"/>
</g>
<defs>
<clipPath id="clip0_52_41">
<rect width="40" height="40" fill="white"/>
</clipPath>
</defs>
</svg>
