<svg width="21" height="21" viewBox="0 0 21 21" fill="none" xmlns="http://www.w3.org/2000/svg">
<g clip-path="url(#clip0_52_169)">
<path d="M10.1641 19.875C15.3417 19.875 19.5391 15.6777 19.5391 10.5C19.5391 5.32233 15.3417 1.125 10.1641 1.125C4.98639 1.125 0.789062 5.32233 0.789062 10.5C0.789062 15.6777 4.98639 19.875 10.1641 19.875Z" stroke="#4FAFCD" stroke-width="1.5" stroke-linecap="round" stroke-linejoin="round"/>
<path d="M4.33138 17.8333L5.16471 13.625H6.06471C6.25478 13.6257 6.44243 13.5824 6.613 13.4985C6.78358 13.4147 6.93247 13.2926 7.04805 13.1417C7.1671 12.9943 7.24956 12.8208 7.28866 12.6354C7.32777 12.45 7.32242 12.2579 7.27305 12.075L6.64805 9.575C6.58255 9.30398 6.42774 9.06289 6.20855 8.89056C5.98935 8.71822 5.71854 8.62468 5.43971 8.625H0.998047" stroke="#4FAFCD" stroke-width="1.5" stroke-linecap="round" stroke-linejoin="round"/>
<path d="M17.6653 4.875H14.2653C13.9865 4.87468 13.7157 4.96822 13.4965 5.14055C13.2773 5.31289 13.1225 5.55398 13.057 5.825L12.432 8.325C12.3837 8.50858 12.3797 8.70098 12.4203 8.88641C12.4609 9.07184 12.5448 9.245 12.6653 9.39167C12.7809 9.54255 12.9298 9.66469 13.1004 9.74853C13.2709 9.83237 13.4586 9.87565 13.6486 9.875H14.9653L15.6153 13.8333C15.6641 14.1219 15.8126 14.3843 16.0349 14.5746C16.2572 14.765 16.5393 14.8713 16.832 14.875H18.4986" stroke="#4FAFCD" stroke-width="1.5" stroke-linecap="round" stroke-linejoin="round"/>
</g>
<defs>
<clipPath id="clip0_52_169">
<rect width="20" height="20" fill="white" transform="translate(0.164062 0.5)"/>
</clipPath>
</defs>
</svg>
