<svg width="40" height="40" viewBox="0 0 40 40" fill="none" xmlns="http://www.w3.org/2000/svg">
<g clip-path="url(#clip0_52_206)">
<path d="M33.3335 14.3867C33.3337 13.4577 33.0551 12.5501 32.5336 11.7813C32.0121 11.0126 31.2717 10.4181 30.4085 10.075C30.7757 9.22203 30.8785 8.27849 30.7037 7.36644C30.5288 6.45439 30.0843 5.6158 29.4277 4.95914C28.771 4.30247 27.9324 3.85796 27.0204 3.6831C26.1083 3.50825 25.1648 3.61109 24.3118 3.97833C23.9683 3.11562 23.3738 2.37582 22.6053 1.85462C21.8368 1.33343 20.9296 1.05481 20.001 1.05481C19.0724 1.05481 18.1652 1.33343 17.3966 1.85462C16.6281 2.37582 16.0336 3.11562 15.6901 3.97833C14.837 3.60954 13.8927 3.50548 12.9797 3.67965C12.0667 3.85381 11.227 4.29817 10.5695 4.95514C9.91197 5.61211 9.46693 6.45141 9.29201 7.36428C9.1171 8.27715 9.22038 9.22151 9.58847 10.075C8.72509 10.4179 7.98457 11.0121 7.46281 11.7807C6.94105 12.5493 6.66211 13.4569 6.66211 14.3858C6.66211 15.3148 6.94105 16.2224 7.46281 16.991C7.98457 17.7596 8.72509 18.3538 9.58847 18.6967C9.22123 19.5496 9.11839 20.4932 9.29325 21.4052C9.46811 22.3173 9.91262 23.1559 10.5693 23.8125C11.2259 24.4692 12.0645 24.9137 12.9766 25.0886C13.8886 25.2634 14.8322 25.1606 15.6851 24.7933C16.028 25.6567 16.6222 26.3972 17.3908 26.919C18.1594 27.4407 19.067 27.7197 19.996 27.7197C20.9249 27.7197 21.8325 27.4407 22.6011 26.919C23.3697 26.3972 23.9639 25.6567 24.3068 24.7933C25.1598 25.1606 26.1033 25.2634 27.0154 25.0886C27.9274 24.9137 28.766 24.4692 29.4227 23.8125C30.0793 23.1559 30.5238 22.3173 30.6987 21.4052C30.8735 20.4932 30.7707 19.5496 30.4035 18.6967C31.2677 18.3548 32.0091 17.761 32.5316 16.9925C33.0541 16.2239 33.3335 15.316 33.3335 14.3867Z" fill="#A2E6B1"/>
<path d="M29.4235 4.95833C28.7665 4.30183 27.9278 3.85751 27.0156 3.6828C26.1034 3.50809 25.1598 3.61104 24.3068 3.97833C23.9633 3.11561 23.3688 2.37582 22.6003 1.85462C21.8318 1.33343 20.9246 1.05481 19.996 1.05481C19.0674 1.05481 18.1602 1.33343 17.3916 1.85462C16.6231 2.37582 16.0287 3.11561 15.6851 3.97833C14.8322 3.61109 13.8886 3.50825 12.9766 3.6831C12.0645 3.85796 11.2259 4.30247 10.5693 4.95914C9.91262 5.6158 9.46811 6.45439 9.29325 7.36644C9.11839 8.27849 9.22123 9.22203 9.58847 10.075C8.72509 10.4179 7.98457 11.0121 7.46281 11.7807C6.94105 12.5493 6.66211 13.4569 6.66211 14.3858C6.66211 15.3148 6.94105 16.2224 7.46281 16.991C7.98457 17.7596 8.72509 18.3538 9.58847 18.6967C9.2205 19.5496 9.11718 20.4933 9.29192 21.4056C9.46666 22.318 9.91139 23.1568 10.5685 23.8133L29.4235 4.95833Z" fill="#E8FAEC"/>
<path d="M33.2684 24.605L38.4817 33.6333C38.7117 34.03 38.5284 34.3 38.0767 34.2166L32.4801 33.27L30.5401 38.6033C30.3834 39.0333 30.0634 39.0633 29.8301 38.67L24.8301 30.215" fill="#A2E6B1"/>
<path d="M33.2684 24.605L38.4817 33.6333C38.7117 34.03 38.5284 34.3 38.0767 34.2166L32.4801 33.27L30.5401 38.6033C30.3834 39.0333 30.0634 39.0633 29.8301 38.67L24.8301 30.215" stroke="#262D38" stroke-linecap="round" stroke-linejoin="round"/>
<path d="M6.73262 24.605L1.51929 33.6333C1.28929 34.03 1.47262 34.3 1.92429 34.2166L7.52095 33.27L9.46262 38.6033C9.61929 39.035 9.93929 39.0633 10.1726 38.67L15.1726 30.225" fill="#A2E6B1"/>
<path d="M6.73262 24.605L1.51929 33.6333C1.28929 34.03 1.47262 34.3 1.92429 34.2166L7.52095 33.27L9.46262 38.6033C9.61929 39.035 9.93929 39.0633 10.1726 38.67L15.1726 30.225" stroke="#262D38" stroke-linecap="round" stroke-linejoin="round"/>
<path d="M33.3335 14.3867C33.3337 13.4577 33.0551 12.5501 32.5336 11.7813C32.0121 11.0126 31.2717 10.4181 30.4085 10.075C30.7757 9.22203 30.8785 8.27849 30.7037 7.36644C30.5288 6.45439 30.0843 5.6158 29.4277 4.95914C28.771 4.30247 27.9324 3.85796 27.0204 3.6831C26.1083 3.50825 25.1648 3.61109 24.3118 3.97833C23.9683 3.11562 23.3738 2.37582 22.6053 1.85462C21.8368 1.33343 20.9296 1.05481 20.001 1.05481C19.0724 1.05481 18.1652 1.33343 17.3966 1.85462C16.6281 2.37582 16.0336 3.11562 15.6901 3.97833C14.837 3.60954 13.8927 3.50548 12.9797 3.67965C12.0667 3.85381 11.227 4.29817 10.5695 4.95514C9.91197 5.61211 9.46693 6.45141 9.29201 7.36428C9.1171 8.27715 9.22038 9.22151 9.58847 10.075C8.72509 10.4179 7.98457 11.0121 7.46281 11.7807C6.94105 12.5493 6.66211 13.4569 6.66211 14.3858C6.66211 15.3148 6.94105 16.2224 7.46281 16.991C7.98457 17.7596 8.72509 18.3538 9.58847 18.6967C9.22123 19.5496 9.11839 20.4932 9.29325 21.4052C9.46811 22.3173 9.91262 23.1559 10.5693 23.8125C11.2259 24.4692 12.0645 24.9137 12.9766 25.0886C13.8886 25.2634 14.8322 25.1606 15.6851 24.7933C16.028 25.6567 16.6222 26.3972 17.3908 26.919C18.1594 27.4407 19.067 27.7197 19.996 27.7197C20.9249 27.7197 21.8325 27.4407 22.6011 26.919C23.3697 26.3972 23.9639 25.6567 24.3068 24.7933C25.1598 25.1606 26.1033 25.2634 27.0154 25.0886C27.9274 24.9137 28.766 24.4692 29.4227 23.8125C30.0793 23.1559 30.5238 22.3173 30.6987 21.4052C30.8735 20.4932 30.7707 19.5496 30.4035 18.6967C31.2677 18.3548 32.0091 17.761 32.5316 16.9925C33.0541 16.2239 33.3335 15.316 33.3335 14.3867Z" stroke="#262D38" stroke-linecap="round" stroke-linejoin="round"/>
<path d="M26.668 10.22L18.803 18.0866C18.6869 18.2028 18.5491 18.2949 18.3973 18.3578C18.2456 18.4207 18.083 18.453 17.9188 18.453C17.7546 18.453 17.592 18.4207 17.4403 18.3578C17.2886 18.2949 17.1507 18.2028 17.0346 18.0866L14.168 15.22" stroke="#262D38" stroke-linecap="round" stroke-linejoin="round"/>
</g>
<defs>
<clipPath id="clip0_52_206">
<rect width="40" height="40" fill="white"/>
</clipPath>
</defs>
</svg>
