<svg width="40" height="40" viewBox="0 0 40 40" fill="none" xmlns="http://www.w3.org/2000/svg">
<path d="M27.8656 19.1667V34.1667H11.1823C10.7403 34.1667 10.3163 33.9911 10.0038 33.6785C9.69122 33.366 9.51562 32.942 9.51562 32.5V19.1667C9.51562 18.7246 9.69122 18.3007 10.0038 17.9882C10.3163 17.6756 10.7403 17.5 11.1823 17.5H26.1823C26.6263 17.4987 27.0527 17.6733 27.3682 17.9857C27.6837 18.2981 27.8625 18.7227 27.8656 19.1667Z" fill="#4FAFCD"/>
<path d="M27.3656 17.98C27.0497 17.6702 26.6248 17.4966 26.1823 17.4966H11.1823C10.7403 17.4966 10.3163 17.6722 10.0038 17.9848C9.69122 18.2974 9.51562 18.7213 9.51562 19.1633V23.3333C9.51562 22.8913 9.69122 22.4674 10.0038 22.1548C10.3163 21.8422 10.7403 21.6666 11.1823 21.6666H26.1823C26.6263 21.6653 27.0527 21.8399 27.3682 22.1523C27.6837 22.4647 27.8625 22.8893 27.8656 23.3333V19.1666C27.8652 18.9456 27.8207 18.7268 27.7349 18.5231C27.649 18.3193 27.5235 18.1347 27.3656 17.98Z" fill="#B7DFEC"/>
<path d="M9.51302 19.1667C11.1612 19.1667 12.7724 18.6779 14.1428 17.7622C15.5132 16.8466 16.5813 15.5451 17.212 14.0224C17.8427 12.4996 18.0078 10.8241 17.6862 9.20758C17.3647 7.59108 16.571 6.10622 15.4056 4.94078C14.2401 3.77534 12.7553 2.98167 11.1388 2.66013C9.52226 2.33858 7.84671 2.50361 6.32399 3.13434C4.80127 3.76507 3.49979 4.83318 2.58411 6.20358C1.66843 7.57399 1.17969 9.18516 1.17969 10.8333C1.17969 13.0435 2.05766 15.1631 3.62046 16.7259C5.18327 18.2887 7.30288 19.1667 9.51302 19.1667Z" fill="#B7DFEC"/>
<path d="M15.406 4.94002C13.843 3.37723 11.7232 2.49936 9.51294 2.49951C7.30267 2.49967 5.18299 3.37785 3.6202 4.94085C2.05741 6.50386 1.17953 8.62367 1.17969 10.8339C1.17984 13.0442 2.05802 15.1639 3.62103 16.7267L15.406 4.94002Z" fill="white"/>
<path d="M9.51302 19.1667C11.1612 19.1667 12.7724 18.6779 14.1428 17.7622C15.5132 16.8466 16.5813 15.5451 17.212 14.0224C17.8427 12.4996 18.0078 10.8241 17.6862 9.20758C17.3647 7.59108 16.571 6.10622 15.4056 4.94078C14.2401 3.77534 12.7553 2.98167 11.1388 2.66013C9.52226 2.33858 7.84671 2.50361 6.32399 3.13434C4.80127 3.76507 3.49979 4.83318 2.58411 6.20358C1.66843 7.57399 1.17969 9.18516 1.17969 10.8333C1.17969 13.0435 2.05766 15.1631 3.62046 16.7259C5.18327 18.2887 7.30288 19.1667 9.51302 19.1667Z" stroke="#262D38" stroke-width="1.5" stroke-linecap="round" stroke-linejoin="round"/>
<path d="M12.849 12.5H9.51562V6.66669" stroke="#262D38" stroke-width="1.5" stroke-linecap="round" stroke-linejoin="round"/>
<path d="M37.1339 27.5H27.8672V22.5H34.1839C34.5284 22.5014 34.864 22.6095 35.1446 22.8095C35.4251 23.0094 35.6368 23.2914 35.7505 23.6167L37.1339 27.5Z" fill="#4FAFCD"/>
<path d="M38.5172 33.4633C38.3622 33.681 38.1571 33.8582 37.9193 33.9801C37.6814 34.1019 37.4178 34.1647 37.1505 34.1633H35.2005C35.0299 33.6762 34.7121 33.2541 34.2911 32.9555C33.8701 32.6569 33.3667 32.4965 32.8505 32.4965C32.3344 32.4965 31.831 32.6569 31.41 32.9555C30.989 33.2541 30.6712 33.6762 30.5005 34.1633H27.8672V27.4966H37.1339L38.7172 31.9466C38.809 32.1968 38.8388 32.4654 38.804 32.7296C38.7692 32.9938 38.6707 33.2456 38.5172 33.4633Z" fill="white"/>
<path d="M27.8682 22.4966H27.8516" stroke="#262D38" stroke-width="1.5" stroke-linecap="round" stroke-linejoin="round"/>
<path d="M19.5156 17.5H26.1823C26.4018 17.4978 26.6195 17.5394 26.8227 17.6224C27.0259 17.7053 27.2106 17.828 27.3658 17.9832C27.521 18.1384 27.6437 18.323 27.7266 18.5263C27.8096 18.7295 27.8512 18.9472 27.849 19.1667L27.8656 27.5" stroke="#262D38" stroke-width="1.5" stroke-linecap="round" stroke-linejoin="round"/>
<path d="M27.8685 34.1633H18.5352" stroke="#262D38" stroke-width="1.5" stroke-linecap="round" stroke-linejoin="round"/>
<path d="M9.51562 22.5V32.5C9.51562 32.942 9.69122 33.366 10.0038 33.6785C10.3163 33.9911 10.7403 34.1667 11.1823 34.1667H13.8356" stroke="#262D38" stroke-width="1.5" stroke-linecap="round" stroke-linejoin="round"/>
<path d="M35.3516 35C35.3516 35.663 35.0882 36.2989 34.6194 36.7678C34.1505 37.2366 33.5146 37.5 32.8516 37.5C32.1886 37.5 31.5527 37.2366 31.0838 36.7678C30.615 36.2989 30.3516 35.663 30.3516 35C30.3498 34.7153 30.4007 34.4328 30.5016 34.1667C30.6722 33.6795 30.99 33.2574 31.411 32.9588C31.8321 32.6602 32.3355 32.4998 32.8516 32.4998C33.3678 32.4998 33.8712 32.6602 34.2922 32.9588C34.7132 33.2574 35.031 33.6795 35.2016 34.1667C35.3025 34.4328 35.3534 34.7153 35.3516 35Z" fill="#4FAFCD"/>
<path d="M16.1797 37.5C16.6741 37.5 17.1575 37.3534 17.5686 37.0787C17.9797 36.804 18.3002 36.4135 18.4894 35.9567C18.6786 35.4999 18.7281 34.9972 18.6317 34.5123C18.5352 34.0273 18.2971 33.5819 17.9475 33.2322C17.5978 32.8826 17.1524 32.6445 16.6674 32.548C16.1825 32.4516 15.6798 32.5011 15.223 32.6903C14.7662 32.8795 14.3757 33.2 14.101 33.6111C13.8263 34.0222 13.6797 34.5055 13.6797 35C13.6797 35.663 13.9431 36.2989 14.4119 36.7678C14.8808 37.2366 15.5166 37.5 16.1797 37.5Z" fill="#4FAFCD"/>
<path d="M1.17969 25.8333L6.17969 25.8416" stroke="#262D38" stroke-width="1.5" stroke-linecap="round" stroke-linejoin="round"/>
<path d="M3.67969 29.1667H6.17969" stroke="#262D38" stroke-width="1.5" stroke-linecap="round" stroke-linejoin="round"/>
<path d="M5.34375 32.5H6.17708" stroke="#262D38" stroke-width="1.5" stroke-linecap="round" stroke-linejoin="round"/>
<path d="M27.8682 27.4966H27.8516" stroke="#262D38" stroke-width="1.5" stroke-linecap="round" stroke-linejoin="round"/>
<path d="M27.8672 22.5V27.5H30.1222L34.9239 22.6983C34.6966 22.5739 34.4428 22.5059 34.1839 22.5H27.8672Z" fill="#B7DFEC"/>
<path d="M37.1339 27.5H27.8672V22.5H34.1839C34.5284 22.5014 34.864 22.6095 35.1446 22.8095C35.4251 23.0094 35.6368 23.2914 35.7505 23.6167L37.1339 27.5Z" stroke="#262D38" stroke-width="1.5" stroke-linecap="round" stroke-linejoin="round"/>
<path d="M38.5172 33.4633C38.3622 33.681 38.1571 33.8582 37.9193 33.9801C37.6814 34.1019 37.4178 34.1647 37.1505 34.1633H35.2005C35.0299 33.6762 34.7121 33.2541 34.2911 32.9555C33.8701 32.6569 33.3667 32.4965 32.8505 32.4965C32.3344 32.4965 31.831 32.6569 31.41 32.9555C30.989 33.2541 30.6712 33.6762 30.5005 34.1633H27.8672V27.4966H37.1339L38.7172 31.9466C38.809 32.1968 38.8388 32.4654 38.804 32.7296C38.7692 32.9938 38.6707 33.2456 38.5172 33.4633Z" stroke="#262D38" stroke-width="1.5" stroke-linecap="round" stroke-linejoin="round"/>
<path d="M35.3516 35C35.3516 35.663 35.0882 36.2989 34.6194 36.7678C34.1505 37.2366 33.5146 37.5 32.8516 37.5C32.1886 37.5 31.5527 37.2366 31.0838 36.7678C30.615 36.2989 30.3516 35.663 30.3516 35C30.3498 34.7153 30.4007 34.4328 30.5016 34.1667C30.6722 33.6795 30.99 33.2574 31.411 32.9588C31.8321 32.6602 32.3355 32.4998 32.8516 32.4998C33.3678 32.4998 33.8712 32.6602 34.2922 32.9588C34.7132 33.2574 35.031 33.6795 35.2016 34.1667C35.3025 34.4328 35.3534 34.7153 35.3516 35Z" stroke="#262D38" stroke-width="1.5" stroke-linecap="round" stroke-linejoin="round"/>
<path d="M16.1797 37.5C16.6741 37.5 17.1575 37.3534 17.5686 37.0787C17.9797 36.804 18.3002 36.4135 18.4894 35.9567C18.6786 35.4999 18.7281 34.9972 18.6317 34.5123C18.5352 34.0273 18.2971 33.5819 17.9475 33.2322C17.5978 32.8826 17.1524 32.6445 16.6674 32.548C16.1825 32.4516 15.6798 32.5011 15.223 32.6903C14.7662 32.8795 14.3757 33.2 14.101 33.6111C13.8263 34.0222 13.6797 34.5055 13.6797 35C13.6797 35.663 13.9431 36.2989 14.4119 36.7678C14.8808 37.2366 15.5166 37.5 16.1797 37.5Z" stroke="#262D38" stroke-width="1.5" stroke-linecap="round" stroke-linejoin="round"/>
</svg>
