<svg width="165" height="83" viewBox="0 0 165 83" fill="none" xmlns="http://www.w3.org/2000/svg">
<g clip-path="url(#clip0_52_368)">
<path d="M66.0214 50.1519L55.9671 84.3639C55.6978 85.2806 56.2225 86.242 57.1392 86.5115L101.395 99.5173C102.311 99.7867 103.273 99.262 103.542 98.3452L113.597 64.1333C113.866 63.2165 113.341 62.255 112.424 61.9856L68.169 48.9799C67.2523 48.7105 66.2907 49.2352 66.0214 50.1519Z" fill="#4FAFCD" stroke="#262D38" stroke-linecap="round" stroke-linejoin="round"/>
<path d="M73.6035 67.4627C74.0194 68.0223 74.5832 68.455 75.2314 68.7121C75.8797 68.9691 76.5867 69.0404 77.2732 68.9178C77.9597 68.7953 78.5984 68.4837 79.1175 68.0183C79.6367 67.5528 80.0159 66.9518 80.2125 66.2828C80.4092 65.6138 80.4152 64.9031 80.2303 64.2309C80.0453 63.5584 79.6767 62.951 79.1656 62.4766C78.6544 62.0023 78.0212 61.6796 77.337 61.5452C76.6528 61.4108 75.9446 61.4698 75.292 61.7156L76.4442 57.7971L81.8695 59.3905" stroke="white" stroke-linecap="round" stroke-linejoin="round"/>
<path d="M91.0235 67.7249C91.8667 64.8557 90.9102 62.0477 88.8869 61.4531C86.8639 60.8585 84.5403 62.7026 83.6971 65.5719C82.8539 68.4411 83.8104 71.2491 85.8335 71.8435C87.8565 72.4381 90.1803 70.5941 91.0235 67.7249Z" stroke="white" stroke-linecap="round" stroke-linejoin="round"/>
<path d="M92.7656 74.327L102.857 65.5593" stroke="white" stroke-linecap="round" stroke-linejoin="round"/>
<path d="M96.644 66.8224C97.7505 66.8224 98.6473 65.9254 98.6473 64.819C98.6473 63.7125 97.7505 62.8157 96.644 62.8157C95.5376 62.8157 94.6406 63.7125 94.6406 64.819C94.6406 65.9254 95.5376 66.8224 96.644 66.8224Z" fill="white"/>
<path d="M98.976 77.0714C100.082 77.0714 100.979 76.1744 100.979 75.0681C100.979 73.9616 100.082 73.0647 98.976 73.0647C97.8697 73.0647 96.9727 73.9616 96.9727 75.0681C96.9727 76.1744 97.8697 77.0714 98.976 77.0714Z" fill="white"/>
<path d="M108.188 82.5349L60.6133 68.5513L55.9665 84.3636C55.8374 84.8035 55.8881 85.2768 56.1078 85.6794C56.3274 86.082 56.6979 86.3809 57.1377 86.5105L101.395 99.5183C101.835 99.6476 102.308 99.5967 102.711 99.3772C103.113 99.1575 103.412 98.7871 103.541 98.3471L108.188 82.5349Z" fill="white" stroke="#262D38" stroke-linecap="round" stroke-linejoin="round"/>
<path d="M64.9128 74.8935L62.5254 83.0176" stroke="#262D38" stroke-linecap="round" stroke-linejoin="round"/>
<path d="M69.2194 76.1597L66.832 84.2821" stroke="#262D38" stroke-linecap="round" stroke-linejoin="round"/>
<path d="M73.5261 77.4261L71.1387 85.5484" stroke="#262D38" stroke-linecap="round" stroke-linejoin="round"/>
<path d="M92.3601 82.9607L89.9727 91.083" stroke="#262D38" stroke-linecap="round" stroke-linejoin="round"/>
<path d="M79.8776 79.2929L77.4902 87.4153" stroke="#262D38" stroke-linecap="round" stroke-linejoin="round"/>
<path d="M85.5534 80.9603L83.166 89.0826" stroke="#262D38" stroke-linecap="round" stroke-linejoin="round"/>
<path d="M145.213 50.0488L144.65 50.0852C144.832 50.073 145.012 50.0609 145.192 50.0315L145.213 50.0488Z" fill="#ADC4D9"/>
<path d="M112.874 42.5704L105.722 51.4245L78.0285 24.9555C77.8639 24.8021 77.7591 24.5953 77.733 24.3718C77.7069 24.1485 77.761 23.923 77.8859 23.7359C78.0106 23.5487 78.1978 23.412 78.4141 23.3502C78.6305 23.2883 78.8616 23.3054 79.0665 23.3985L87.4639 27.1024C96.5767 31.1228 105.119 36.3277 112.871 42.5825" fill="#ADC4D9"/>
<path d="M84.0887 25.6077L108.06 48.5233L105.722 51.4245L78.0285 24.9555C77.8639 24.8021 77.7591 24.5953 77.733 24.3718C77.7069 24.1485 77.761 23.923 77.8859 23.7359C78.0106 23.5487 78.1978 23.412 78.4141 23.3502C78.6305 23.2883 78.8616 23.3054 79.0665 23.3985L84.0887 25.6077Z" fill="#E5F8FF"/>
<path d="M112.874 42.5704L105.722 51.4245L78.0285 24.9555C77.8639 24.8021 77.7591 24.5953 77.733 24.3718C77.7069 24.1485 77.761 23.923 77.8859 23.7359C78.0106 23.5487 78.1978 23.412 78.4141 23.3502C78.6305 23.2883 78.8616 23.3054 79.0665 23.3985L87.4639 27.1024C96.5767 31.1228 105.119 36.3277 112.871 42.5825" stroke="#262D38" stroke-linecap="round" stroke-linejoin="round"/>
<path d="M153.054 55.3359C150.266 55.6819 149.466 56.2286 146.835 55.4379C144.833 54.8902 143.02 53.8008 141.597 52.2893L141.522 52.2323C140.248 51.3756 138.813 50.7868 137.305 50.5023C134.196 50.0108 131.136 49.2466 128.161 48.2187L112.875 42.5667L105.244 52.0039C105.244 52.0039 127.893 70.4543 128.895 71.1463L129.007 71.2415C137.052 77.274 143.02 78.6805 153.054 78.0663C156.068 78.0663 158.958 76.8692 161.089 74.7383C163.22 72.6073 164.417 69.7172 164.417 66.7037C164.417 63.69 163.22 60.7999 161.089 58.6691C158.958 56.5382 156.068 55.3411 153.054 55.3411V55.3359ZM152.606 72.3729C147.697 72.2328 145.968 72.5926 142.226 71.456C138.73 70.3855 135.427 68.7624 132.443 66.6483C131.79 66.2871 131.215 65.7998 130.751 65.2149C130.288 64.6299 129.945 63.9589 129.742 63.2406C129.54 62.5223 129.482 61.7708 129.571 61.0298C129.661 60.2889 129.897 59.5732 130.265 58.9239C130.629 58.2513 131.129 57.6622 131.734 57.1939C132.451 56.6398 133.29 56.2654 134.181 56.1019C135.072 55.9386 135.99 55.9909 136.856 56.2545C137.251 56.3737 137.631 56.5344 137.991 56.7337C140.155 58.4741 142.624 59.7953 145.273 60.6297C148.245 61.5362 149.385 61.0466 153.499 61.0501C154.985 61.189 156.357 61.9073 157.318 63.0496C158.28 64.1919 158.753 65.6666 158.635 67.1547C158.518 68.643 157.82 70.0253 156.692 71.0029C155.564 71.9807 154.096 72.4753 152.606 72.3798V72.3729Z" fill="#F5E175" stroke="#262D38" stroke-linecap="round" stroke-linejoin="round"/>
<path d="M107.254 49.5213L105.244 52.0056C129.085 71.4249 128.691 70.9733 129.007 71.2363C137.052 77.2688 143.02 78.6753 153.054 78.0612C155.603 78.065 158.078 77.2122 160.084 75.6397C162.089 74.0671 163.507 71.8662 164.111 69.3904C163.099 71.0884 161.663 72.4938 159.944 73.469C158.225 74.4442 156.282 74.9553 154.305 74.9523C144.271 75.563 138.299 74.1756 130.27 68.1362C129.096 67.2712 121.015 60.7248 107.261 49.53" fill="#C6B86F"/>
<path d="M153.054 55.3359C150.266 55.6819 149.466 56.2286 146.835 55.4379C144.833 54.8902 143.02 53.8008 141.597 52.2893L141.522 52.2323C140.248 51.3756 138.813 50.7868 137.305 50.5023C134.196 50.0108 131.136 49.2466 128.161 48.2187L112.875 42.5667L105.244 52.0039C129.085 71.4249 128.691 70.9733 129.007 71.2363C137.052 77.2688 143.02 78.6753 153.054 78.0611C156.068 78.0611 158.958 76.864 161.089 74.7332C163.22 72.6021 164.417 69.712 164.417 66.6985C164.417 63.6849 163.22 60.7947 161.089 58.6639C158.958 56.533 156.068 55.3359 153.054 55.3359ZM152.606 72.3729C147.697 72.2328 145.968 72.5926 142.226 71.456C138.73 70.3855 135.427 68.7624 132.443 66.6483C131.79 66.2871 131.215 65.7998 130.751 65.2149C130.288 64.63 129.945 63.9589 129.742 63.2406C129.54 62.5223 129.482 61.7708 129.571 61.0298C129.661 60.2889 129.897 59.5732 130.265 58.9239C130.629 58.2513 131.129 57.6622 131.734 57.1939C132.451 56.6398 133.29 56.2654 134.181 56.1019C135.072 55.9386 135.99 55.9909 136.856 56.2545C137.251 56.3737 137.631 56.5344 137.991 56.7337C140.155 58.4741 142.624 59.7953 145.273 60.6297C148.245 61.5362 149.385 61.0466 153.499 61.0501C154.985 61.189 156.357 61.9073 157.318 63.0496C158.28 64.1919 158.753 65.6666 158.635 67.1547C158.518 68.643 157.82 70.0253 156.692 71.0029C155.564 71.9807 154.096 72.4753 152.606 72.3798V72.3729Z" stroke="#262D38" stroke-linecap="round" stroke-linejoin="round"/>
<path d="M143.779 24.8271C141.371 24.9436 139.014 25.571 136.867 26.6679C134.719 27.7645 132.83 29.3054 131.323 31.1884C131.065 31.5863 130.789 31.9669 130.529 32.3457C130.518 32.3859 130.493 32.4212 130.46 32.4461C127.527 36.8259 124.35 41.0376 120.945 45.0612C120.29 45.8223 119.49 46.4459 118.593 46.8966C117.696 47.3474 116.718 47.6161 115.717 47.6874L105.525 48.3984L106.318 59.7437L110.496 59.4514C114.744 59.2095 118.893 58.0715 122.67 56.1125C125.893 54.3669 132.472 52.2736 145.629 51.2979C145.817 51.2858 146.006 51.2719 146.194 51.2408C154.685 50.4 161.086 44.1201 160.586 36.9544C160.077 29.6556 152.554 24.2147 143.779 24.8271ZM145.321 46.8933C139.478 47.3016 134.456 43.6807 134.115 38.8021C133.775 33.9235 138.245 29.6331 144.087 29.2335C149.929 28.8338 154.951 32.4443 155.292 37.3229C155.633 42.2015 151.163 46.485 145.321 46.8933Z" fill="#F5E175" stroke="#262D38" stroke-linecap="round" stroke-linejoin="round"/>
<path d="M106.027 55.6495L106.313 59.7444L110.513 59.4486C114.761 59.2064 118.91 58.0686 122.687 56.1097C125.912 54.3659 132.496 52.2708 145.644 51.2951C145.834 51.2858 146.023 51.2666 146.21 51.238C153.858 50.4803 159.791 45.3024 160.533 39.0467C159.194 41.3615 157.306 43.311 155.035 44.723C152.765 46.1352 150.181 46.9663 147.513 47.1431C147.329 47.1798 147.143 47.2 146.956 47.2037C133.794 48.1794 127.215 50.2796 123.995 52.0183C120.214 53.9749 116.062 55.112 111.811 55.3554L106.027 55.6495Z" fill="#C6B86F"/>
<path d="M143.779 24.8271C141.371 24.9436 139.014 25.571 136.867 26.6679C134.719 27.7645 132.83 29.3054 131.323 31.1884C131.065 31.5863 130.789 31.9669 130.529 32.3457C130.518 32.3859 130.493 32.4212 130.46 32.4461C127.527 36.8259 124.35 41.0376 120.945 45.0612C120.29 45.8223 119.49 46.4459 118.593 46.8966C117.696 47.3474 116.718 47.6161 115.717 47.6874L105.525 48.3984L106.318 59.7437L110.496 59.4514C114.744 59.2095 118.893 58.0715 122.67 56.1125C125.893 54.3669 132.472 52.2736 145.629 51.2979C145.817 51.2858 146.006 51.2719 146.194 51.2408C154.685 50.4 161.086 44.1201 160.586 36.9544C160.077 29.6556 152.554 24.2147 143.779 24.8271ZM145.321 46.8933C139.478 47.3016 134.456 43.6807 134.115 38.8021C133.775 33.9235 138.245 29.6331 144.087 29.2335C149.929 28.8338 154.951 32.4443 155.292 37.3229C155.633 42.2015 151.163 46.485 145.321 46.8933Z" stroke="#262D38" stroke-linecap="round" stroke-linejoin="round"/>
<path d="M106.317 59.7441L105.525 48.3987L67.6378 54.3759C67.418 54.411 67.2175 54.5226 67.0716 54.6909C66.9256 54.8593 66.8436 55.0734 66.84 55.2961C66.8363 55.5187 66.9111 55.7357 67.0512 55.9087C67.1915 56.0818 67.388 56.2 67.6067 56.2426L76.6183 57.9829C86.4019 59.846 96.3854 60.438 106.321 59.7441" fill="#E5F8FF"/>
<path d="M75.5677 57.7809L76.6057 57.9833C86.3894 59.8463 96.3728 60.4383 106.308 59.7444L105.837 52.9974L75.5625 57.7878" fill="#ADC4D9"/>
<path d="M106.317 59.7441L105.525 48.3987L67.6378 54.3759C67.418 54.411 67.2175 54.5226 67.0716 54.6909C66.9256 54.8593 66.8436 55.0734 66.84 55.2961C66.8363 55.5187 66.9111 55.7357 67.0512 55.9087C67.1915 56.0818 67.388 56.2 67.6067 56.2426L76.6183 57.9829C86.4019 59.846 96.3854 60.438 106.321 59.7441" stroke="#262D38" stroke-linecap="round" stroke-linejoin="round"/>
<path d="M115.235 55.5191C116.552 55.5191 117.619 54.4518 117.619 53.1351C117.619 51.8186 116.552 50.7512 115.235 50.7512C113.919 50.7512 112.852 51.8186 112.852 53.1351C112.852 54.4518 113.919 55.5191 115.235 55.5191Z" fill="#FFDA8F" stroke="#262D38" stroke-linecap="round" stroke-linejoin="round"/>
<path d="M117.03 51.5664C117.108 51.6563 117.178 51.751 117.243 51.8501C117.461 52.1902 117.589 52.5802 117.614 52.9831C117.64 53.386 117.563 53.7891 117.391 54.1541C117.218 54.5191 116.956 54.8345 116.628 55.0705C116.3 55.3063 115.918 55.4551 115.517 55.5028C115.116 55.5506 114.71 55.4956 114.336 55.3431C113.962 55.1907 113.632 54.9458 113.379 54.6314C113.126 54.3169 112.956 53.9432 112.887 53.5455C112.818 53.1476 112.85 52.7388 112.982 52.357C113.359 52.7871 113.877 53.0685 114.443 53.1509C115.009 53.2334 115.586 53.1114 116.07 52.8068C116.528 52.5196 116.868 52.0795 117.032 51.5647" fill="#FFDB94"/>
<path d="M115.235 55.5191C116.552 55.5191 117.619 54.4518 117.619 53.1351C117.619 51.8186 116.552 50.7512 115.235 50.7512C113.919 50.7512 112.852 51.8186 112.852 53.1351C112.852 54.4518 113.919 55.5191 115.235 55.5191Z" stroke="#262D38" stroke-linecap="round" stroke-linejoin="round"/>
<path d="M54.4999 50.6768L53.8719 44.8502L101.274 39.7449C101.523 39.7186 101.765 39.6434 101.985 39.5235C102.205 39.4036 102.399 39.2415 102.556 39.0464C102.713 38.8512 102.831 38.6268 102.901 38.3864C102.971 38.1459 102.993 37.8938 102.966 37.6447L99.1858 2.54301C99.1595 2.29389 99.0843 2.05222 98.9644 1.83233C98.8445 1.61228 98.6824 1.418 98.4873 1.26074C98.2921 1.10366 98.0677 0.986535 97.8273 0.916124C97.5868 0.845886 97.3347 0.823743 97.0856 0.851077L2.28162 11.0581C2.03226 11.0844 1.79054 11.1596 1.57039 11.2797C1.35023 11.3998 1.15595 11.562 0.998706 11.7573C0.841484 11.9527 0.724415 12.1772 0.654211 12.4179C0.584025 12.6587 0.562089 12.9109 0.589682 13.16L8.5546 87.1556C8.5809 87.4049 8.65615 87.6464 8.77604 87.8664C8.89595 88.0865 9.05812 88.2806 9.25325 88.4379C9.44839 88.5951 9.67267 88.7122 9.91319 88.7825C10.1537 88.8529 10.4057 88.8749 10.6548 88.8475L46.17 85.0294L46.1838 84.9585C53.1177 83.4863 55.2438 76.2151 55.7853 70.1929C55.9791 67.8237 55.9514 65.4415 55.7023 63.0774L54.4999 50.6768Z" fill="#4FAFCD"/>
<path d="M4.56991 50.1583L101.277 39.7437C101.526 39.7174 101.768 39.6422 101.988 39.5223C102.208 39.4024 102.402 39.2401 102.559 39.045C102.716 38.8498 102.834 38.6256 102.904 38.3852C102.974 38.1445 102.996 37.8925 102.969 37.6435L101.223 21.4334L2.61328 32.0522L4.56991 50.1583Z" fill="white"/>
<path d="M58.3242 30.9534L59.2307 39.3716" stroke="#262D38" stroke-linecap="round" stroke-linejoin="round"/>
<path d="M62.7871 30.472L63.6936 38.8902" stroke="#262D38" stroke-linecap="round" stroke-linejoin="round"/>
<path d="M67.25 29.9929L68.1565 38.4094" stroke="#262D38" stroke-linecap="round" stroke-linejoin="round"/>
<path d="M86.7676 27.8913L87.6741 36.3078" stroke="#262D38" stroke-linecap="round" stroke-linejoin="round"/>
<path d="M91.2305 27.4097L92.137 35.8279" stroke="#262D38" stroke-linecap="round" stroke-linejoin="round"/>
<path d="M95.6953 26.9291L96.6018 35.3473" stroke="#262D38" stroke-linecap="round" stroke-linejoin="round"/>
<path d="M73.8301 29.2834L74.7366 37.7016" stroke="#262D38" stroke-linecap="round" stroke-linejoin="round"/>
<path d="M79.7129 28.6506L80.6194 37.0671" stroke="#262D38" stroke-linecap="round" stroke-linejoin="round"/>
<path d="M9.01953 36.2625L9.92605 44.6806" stroke="#262D38" stroke-linecap="round" stroke-linejoin="round"/>
<path d="M13.4824 35.781L14.3889 44.1992" stroke="#262D38" stroke-linecap="round" stroke-linejoin="round"/>
<path d="M17.9473 35.3004L18.8538 43.7186" stroke="#262D38" stroke-linecap="round" stroke-linejoin="round"/>
<path d="M37.4668 33.2003L38.3716 41.6168" stroke="#262D38" stroke-linecap="round" stroke-linejoin="round"/>
<path d="M41.9297 32.7189L42.8345 41.1353" stroke="#262D38" stroke-linecap="round" stroke-linejoin="round"/>
<path d="M46.3926 32.2383L47.2991 40.6565" stroke="#262D38" stroke-linecap="round" stroke-linejoin="round"/>
<path d="M24.5293 34.5925L25.4358 43.0089" stroke="#262D38" stroke-linecap="round" stroke-linejoin="round"/>
<path d="M30.4121 33.9598L31.3186 42.3763" stroke="#262D38" stroke-linecap="round" stroke-linejoin="round"/>
<path d="M53.8719 44.8488L53.5605 41.9459" stroke="#262D38" stroke-linecap="round" stroke-linejoin="round"/>
<path d="M52.9032 35.8507L52.5918 32.9478" stroke="#262D38" stroke-linecap="round" stroke-linejoin="round"/>
<path d="M75.3678 18.4107C77.4644 18.185 78.9043 15.5915 78.5842 12.6182C78.264 9.64484 76.3048 7.41746 74.2084 7.64323C72.1118 7.86899 70.6717 10.4624 70.9918 13.4358C71.312 16.4091 73.2712 18.6365 75.3678 18.4107Z" stroke="white" stroke-linecap="round" stroke-linejoin="round"/>
<path d="M86.9439 11.7169C87.9916 11.6041 88.7112 10.3074 88.5512 8.82069C88.391 7.3341 87.4118 6.22032 86.3642 6.33312C85.3163 6.44592 84.5966 7.74272 84.7566 9.22931C84.9168 10.7161 85.896 11.8297 86.9439 11.7169Z" stroke="white" stroke-linecap="round" stroke-linejoin="round"/>
<path d="M93.6877 10.9863C94.7355 10.8735 95.4552 9.57686 95.2952 8.09009C95.1352 6.60351 94.156 5.48973 93.1083 5.60253C92.0604 5.71533 91.3408 7.01196 91.5008 8.49872C91.6608 9.98531 92.64 11.0991 93.6877 10.9863Z" stroke="white" stroke-linecap="round" stroke-linejoin="round"/>
<path d="M81.9555 13.2516C82.5058 13.2516 82.9519 12.8054 82.9519 12.2551C82.9519 11.7048 82.5058 11.2586 81.9555 11.2586C81.4052 11.2586 80.959 11.7048 80.959 12.2551C80.959 12.8054 81.4052 13.2516 81.9555 13.2516Z" fill="white"/>
<path d="M66.9375 8.42624L68.0966 19.1938" stroke="white" stroke-linecap="round" stroke-linejoin="round"/>
<path d="M61.6094 12.6199C61.541 11.9886 61.2251 11.4101 60.7309 11.0112C60.2366 10.6123 59.6045 10.4256 58.9729 10.492L58.7999 10.5111C58.3014 10.5647 57.8357 10.7849 57.4781 11.1363C57.1205 11.4876 56.892 11.9494 56.8297 12.4467C56.7675 12.9443 56.8751 13.4481 57.1351 13.8768C57.3949 14.3055 57.792 14.6336 58.2618 14.8084L60.715 15.7201C61.1843 15.8955 61.5808 16.2242 61.8403 16.6527C62.0998 17.0814 62.2071 17.585 62.145 18.0822C62.0827 18.5794 61.8545 19.0412 61.4974 19.3927C61.1404 19.7441 60.6752 19.9648 60.1769 20.0191L60.0039 20.0382C59.6905 20.0721 59.3735 20.0439 59.0709 19.9551C58.7685 19.8664 58.4864 19.719 58.2409 19.5211C57.9954 19.3233 57.7914 19.0792 57.6402 18.8024C57.4892 18.5258 57.3942 18.222 57.3605 17.9085" stroke="white" stroke-linecap="round" stroke-linejoin="round"/>
<path d="M58.9657 10.4917L58.8359 9.29797" stroke="white" stroke-linecap="round" stroke-linejoin="round"/>
<path d="M60.1202 21.2298L59.9922 20.0378" stroke="white" stroke-linecap="round" stroke-linejoin="round"/>
<path d="M26.065 23.7191C28.1615 23.4933 29.6016 20.8999 29.2815 17.9265C28.9613 14.9532 27.0021 12.7258 24.9055 12.9516C22.8089 13.1773 21.3689 15.7706 21.6891 18.7441C22.0093 21.7175 23.9685 23.9449 26.065 23.7191Z" stroke="white" stroke-linecap="round" stroke-linejoin="round"/>
<path d="M37.6429 17.0269C38.6908 16.914 39.4103 15.6173 39.2503 14.1307C39.0902 12.644 38.1111 11.5302 37.0632 11.6432C36.0153 11.756 35.2958 13.0526 35.4559 14.5392C35.6159 16.026 36.5951 17.1397 37.6429 17.0269Z" stroke="white" stroke-linecap="round" stroke-linejoin="round"/>
<path d="M44.4146 16.2979C45.4623 16.1851 46.182 14.8883 46.0219 13.4017C45.8617 11.9149 44.8826 10.8012 43.8349 10.9141C42.787 11.0269 42.0673 12.3236 42.2273 13.8103C42.3875 15.2969 43.3667 16.4107 44.4146 16.2979Z" stroke="white" stroke-linecap="round" stroke-linejoin="round"/>
<path d="M32.6527 18.5607C33.203 18.5607 33.6492 18.1146 33.6492 17.5643C33.6492 17.0138 33.203 16.5678 32.6527 16.5678C32.1024 16.5678 31.6562 17.0138 31.6562 17.5643C31.6562 18.1146 32.1024 18.5607 32.6527 18.5607Z" fill="white"/>
<path d="M17.6348 13.7346L18.7939 24.5038" stroke="white" stroke-linecap="round" stroke-linejoin="round"/>
<path d="M12.3055 17.9293C12.2372 17.2975 11.921 16.7188 11.4264 16.3199C10.9318 15.9209 10.2992 15.7344 9.66729 15.8014L9.49429 15.8187C8.99768 15.8735 8.53397 16.0939 8.17787 16.4444C7.82178 16.7949 7.59401 17.2549 7.53128 17.7507C7.46855 18.2464 7.5745 18.7488 7.83204 19.1768C8.0896 19.605 8.48378 19.934 8.95107 20.1108L11.4025 21.0225C11.8719 21.1979 12.2683 21.5265 12.5278 21.9552C12.7873 22.3839 12.8946 22.8875 12.8324 23.3847C12.7702 23.8819 12.5421 24.3436 12.1849 24.695C11.8278 25.0465 11.3626 25.2673 10.8645 25.3216L10.6915 25.3389C10.0607 25.4074 9.42843 25.2235 8.93281 24.8275C8.43716 24.4313 8.11844 23.8552 8.04628 23.2248" stroke="white" stroke-linecap="round" stroke-linejoin="round"/>
<path d="M9.66122 15.8016L9.5332 14.6079" stroke="white" stroke-linecap="round" stroke-linejoin="round"/>
<path d="M10.8192 26.5399L10.6895 25.3462" stroke="white" stroke-linecap="round" stroke-linejoin="round"/>
<path d="M51.9344 26.8526L51.623 23.9497" stroke="#262D38" stroke-linecap="round" stroke-linejoin="round"/>
<path d="M50.9655 17.8547L50.6523 14.9518" stroke="#262D38" stroke-linecap="round" stroke-linejoin="round"/>
<path d="M49.9967 8.85753L49.6836 5.95459" stroke="#262D38" stroke-linecap="round" stroke-linejoin="round"/>
<path d="M18.3903 64.9626C18.9889 65.3207 19.6753 65.5048 20.3725 65.4943C21.0699 65.4837 21.7505 65.2789 22.3378 64.903C22.9251 64.5269 23.396 63.9947 23.6976 63.3658C23.9991 62.737 24.1195 62.0365 24.045 61.3431C23.9704 60.6497 23.704 59.9908 23.2756 59.4405C22.8473 58.8902 22.2741 58.4701 21.6202 58.2276C20.9664 57.985 20.2578 57.9295 19.5743 58.0674C18.8906 58.2053 18.259 58.531 17.7502 59.008L17.3125 54.9459L22.935 54.3404" stroke="white" stroke-linecap="round" stroke-linejoin="round"/>
<path d="M31.3638 64.326C33.4604 64.1002 34.9004 61.5068 34.5802 58.5334C34.26 55.5599 32.3009 53.3325 30.2043 53.5583C28.1077 53.7841 26.6677 56.3775 26.9879 59.3509C27.308 62.3242 29.2672 64.5518 31.3638 64.326Z" stroke="white" stroke-linecap="round" stroke-linejoin="round"/>
<path d="M38.7207 63.9627L44.684 51.998" stroke="white" stroke-linecap="round" stroke-linejoin="round"/>
<path d="M38.6615 55.699C39.768 55.699 40.6649 54.802 40.6649 53.6957C40.6649 52.5891 39.768 51.6923 38.6615 51.6923C37.5552 51.6923 36.6582 52.5891 36.6582 53.6957C36.6582 54.802 37.5552 55.699 38.6615 55.699Z" fill="white"/>
<path d="M44.7416 64.2713C45.8481 64.2713 46.745 63.3743 46.745 62.268C46.745 61.1615 45.8481 60.2646 44.7416 60.2646C43.6353 60.2646 42.7383 61.1615 42.7383 62.268C42.7383 63.3743 43.6353 64.2713 44.7416 64.2713Z" fill="white"/>
<path d="M55.8884 65.8541L6.83594 71.186L8.55556 87.1556C8.58185 87.4049 8.65711 87.6464 8.777 87.8664C8.89689 88.0865 9.05906 88.2806 9.2542 88.4379C9.44934 88.5951 9.6736 88.7122 9.91413 88.7825C10.1546 88.8527 10.4067 88.8749 10.6558 88.8475L46.1709 85.0294L46.1848 84.9585C53.1186 83.4862 55.2448 76.2151 55.7863 70.1929C55.911 68.7503 55.9451 67.3011 55.8884 65.8541Z" fill="white"/>
<path d="M13.209 75.1563L14.1155 83.5745" stroke="#262D38" stroke-linecap="round" stroke-linejoin="round"/>
<path d="M17.6719 74.6755L18.5784 83.0937" stroke="#262D38" stroke-linecap="round" stroke-linejoin="round"/>
<path d="M22.1348 74.1958L23.0413 82.6123" stroke="#262D38" stroke-linecap="round" stroke-linejoin="round"/>
<path d="M28.7168 73.487L29.6233 81.9052" stroke="#262D38" stroke-linecap="round" stroke-linejoin="round"/>
<path d="M34.5996 72.8535L35.5061 81.2717" stroke="#262D38" stroke-linecap="round" stroke-linejoin="round"/>
<path d="M6.80859 71.1586L54.541 66.0188" stroke="#262D38" stroke-linecap="round" stroke-linejoin="round"/>
<path d="M53.8717 44.8483L50.9688 45.1614" stroke="#262D38" stroke-linecap="round" stroke-linejoin="round"/>
<path d="M44.5924 45.8484L41.6895 46.1598" stroke="#262D38" stroke-linecap="round" stroke-linejoin="round"/>
<path d="M35.3131 46.8469L32.4102 47.1601" stroke="#262D38" stroke-linecap="round" stroke-linejoin="round"/>
<path d="M26.0318 47.8462L23.1289 48.1593" stroke="#262D38" stroke-linecap="round" stroke-linejoin="round"/>
<path d="M7.47325 49.8448L4.57031 50.158" stroke="#262D38" stroke-linecap="round" stroke-linejoin="round"/>
<path d="M16.7526 48.8447L13.8496 49.1579" stroke="#262D38" stroke-linecap="round" stroke-linejoin="round"/>
<path d="M55.6037 62.1813C53.026 75.6563 40.7378 72.9661 40.7378 72.9661C40.7205 73.0526 40.6929 73.1287 40.6773 73.2152C40.2915 75.5089 40.6263 77.8657 41.6357 79.961C42.6452 82.0564 44.2795 83.7873 46.3136 84.9152C53.1333 83.3721 55.2352 76.1614 55.7715 70.1808C55.9653 67.8116 55.9376 65.4294 55.6885 63.0653L55.6037 62.1813Z" fill="#CED6DF" stroke="#262D38" stroke-linecap="round" stroke-linejoin="round"/>
<path d="M2.62109 32.0522L101.226 21.4334" stroke="#262D38" stroke-linecap="round" stroke-linejoin="round"/>
<path d="M54.4999 50.6768L53.8719 44.8502L101.274 39.7449C101.523 39.7186 101.765 39.6434 101.985 39.5235C102.205 39.4036 102.399 39.2415 102.556 39.0464C102.713 38.8512 102.831 38.6268 102.901 38.3864C102.971 38.1459 102.993 37.8938 102.966 37.6447L99.1858 2.54301C99.1595 2.29389 99.0843 2.05222 98.9644 1.83233C98.8445 1.61228 98.6824 1.418 98.4873 1.26074C98.2921 1.10366 98.0677 0.986535 97.8273 0.916124C97.5868 0.845886 97.3347 0.823743 97.0856 0.851077L2.28162 11.0581C2.03226 11.0844 1.79054 11.1596 1.57039 11.2797C1.35023 11.3998 1.15595 11.562 0.998706 11.7573C0.841484 11.9527 0.724415 12.1772 0.654211 12.4179C0.584025 12.6587 0.562089 12.9109 0.589682 13.16L8.5546 87.1556C8.5809 87.4049 8.65615 87.6464 8.77604 87.8664C8.89595 88.0865 9.05812 88.2806 9.25325 88.4379C9.44839 88.5951 9.67267 88.7122 9.91319 88.7825C10.1537 88.8529 10.4057 88.8749 10.6548 88.8475L46.17 85.0294L46.1838 84.9585C53.1177 83.4863 55.2438 76.2151 55.7853 70.1929C55.9791 67.8237 55.9514 65.4415 55.7023 63.0774L54.4999 50.6768Z" stroke="#262D38" stroke-linecap="round" stroke-linejoin="round"/>
</g>
<defs>
<clipPath id="clip0_52_368">
<rect width="165" height="101" fill="white"/>
</clipPath>
</defs>
</svg>
