<svg width="40" height="40" viewBox="0 0 40 40" fill="none" xmlns="http://www.w3.org/2000/svg">
<g clip-path="url(#clip0_52_72)">
<path d="M24 8.33335H1C1.06953 8.15132 1.17755 7.98646 1.31667 7.85002L7.01667 2.15002C7.328 1.84347 7.74642 1.67012 8.18333 1.66669H16.8167C17.2536 1.67012 17.672 1.84347 17.9833 2.15002L23.6833 7.85002C23.8225 7.98646 23.9305 8.15132 24 8.33335Z" fill="#B7DFEC"/>
<path d="M15.8346 21.6667H29.168C29.61 21.6667 30.0339 21.8423 30.3465 22.1548C30.659 22.4674 30.8346 22.8913 30.8346 23.3334V35H14.168V23.3334C14.168 22.8913 14.3436 22.4674 14.6561 22.1548C14.9687 21.8423 15.3926 21.6667 15.8346 21.6667Z" fill="#4FAFCD"/>
<path d="M29.168 21.6667H15.8346C15.3926 21.6667 14.9687 21.8423 14.6561 22.1548C14.3436 22.4674 14.168 22.8913 14.168 23.3334V27.5C14.168 27.058 14.3436 26.6341 14.6561 26.3215C14.9687 26.0089 15.3926 25.8334 15.8346 25.8334H29.168C29.61 25.8334 30.0339 26.0089 30.3465 26.3215C30.659 26.6341 30.8346 27.058 30.8346 27.5V23.3334C30.8346 22.8913 30.659 22.4674 30.3465 22.1548C30.0339 21.8423 29.61 21.6667 29.168 21.6667Z" fill="#B7DFEC"/>
<path d="M15.9713 35H14.168V23.3334C14.168 22.8913 14.3436 22.4674 14.6561 22.1548C14.9687 21.8423 15.3926 21.6667 15.8346 21.6667H29.168C29.61 21.6667 30.0339 21.8423 30.3465 22.1548C30.659 22.4674 30.8346 22.8913 30.8346 23.3334V24.1667" stroke="#262D38" stroke-width="1.5" stroke-linecap="round" stroke-linejoin="round"/>
<path d="M39.168 29.1667V30H35.8346C35.3926 30 34.9687 29.8244 34.6561 29.5119C34.3436 29.1993 34.168 28.7754 34.168 28.3334V24.1667C35.4928 24.1706 36.7623 24.6987 37.6991 25.6355C38.636 26.5723 39.164 27.8418 39.168 29.1667Z" fill="#4FAFCD"/>
<path d="M33.3331 35.8333C33.3392 36.4662 33.1074 37.0783 32.6836 37.5484C32.2598 38.0184 31.675 38.3122 31.0449 38.3715C30.4147 38.4308 29.7853 38.2514 29.2813 37.8686C28.7772 37.4859 28.4353 36.9278 28.3231 36.305C28.211 35.6821 28.3369 35.0398 28.6759 34.5053C29.0148 33.9708 29.5422 33.5832 30.1534 33.419C30.7647 33.2549 31.4153 33.3263 31.9763 33.6191C32.5374 33.9119 32.9681 34.4047 33.1831 35C33.284 35.2662 33.3349 35.5487 33.3331 35.8333Z" fill="#4FAFCD"/>
<path d="M18.332 38.3333C18.8265 38.3333 19.3098 38.1867 19.721 37.912C20.1321 37.6373 20.4525 37.2468 20.6417 36.79C20.8309 36.3332 20.8805 35.8305 20.784 35.3456C20.6875 34.8606 20.4494 34.4152 20.0998 34.0655C19.7502 33.7159 19.3047 33.4778 18.8198 33.3814C18.3348 33.2849 17.8321 33.3344 17.3753 33.5236C16.9185 33.7128 16.5281 34.0333 16.2534 34.4444C15.9787 34.8555 15.832 35.3389 15.832 35.8333C15.832 36.4964 16.0954 37.1322 16.5643 37.6011C17.0331 38.0699 17.669 38.3333 18.332 38.3333Z" fill="#4FAFCD"/>
<path d="M28.4747 35H20.6914" stroke="#262D38" stroke-width="1.5" stroke-linecap="round" stroke-linejoin="round"/>
<path d="M10.832 26.6667H2.4987C2.05667 26.6667 1.63275 26.4911 1.32019 26.1785C1.00763 25.866 0.832031 25.442 0.832031 25V9.02335C0.832126 8.58136 1.00778 8.15751 1.32036 7.84502L7.01036 2.15502C7.32285 1.84244 7.74671 1.66678 8.1887 1.66669H16.8087C17.2507 1.66678 17.6745 1.84244 17.987 2.15502L23.677 7.84502C23.9896 8.15751 24.1653 8.58136 24.1654 9.02335V11.6667" stroke="#262D38" stroke-width="1.5" stroke-linecap="round" stroke-linejoin="round"/>
<path d="M12.5 1.66669V8.33335" stroke="#262D38" stroke-width="1.5" stroke-linecap="round" stroke-linejoin="round"/>
<path d="M24.0158 8.33331H0.982422" stroke="#262D38" stroke-width="1.5" stroke-linecap="round" stroke-linejoin="round"/>
<path d="M39.1654 30V33.3334C39.1654 33.7754 38.9898 34.1993 38.6772 34.5119C38.3646 34.8244 37.9407 35 37.4987 35H33.182C33.0101 34.5137 32.692 34.0925 32.2713 33.7941C31.8505 33.4958 31.3478 33.3348 30.832 33.3334V24.1667H34.1654V28.3334C34.1654 28.7754 34.341 29.1993 34.6535 29.5119C34.9661 29.8244 35.39 30 35.832 30H39.1654Z" stroke="#262D38" stroke-width="1.5" stroke-linecap="round" stroke-linejoin="round"/>
<path d="M39.168 29.1667V30H35.8346C35.3926 30 34.9687 29.8244 34.6561 29.5119C34.3436 29.1993 34.168 28.7754 34.168 28.3334V24.1667C35.4928 24.1706 36.7623 24.6987 37.6991 25.6355C38.636 26.5723 39.164 27.8418 39.168 29.1667Z" stroke="#262D38" stroke-width="1.5" stroke-linecap="round" stroke-linejoin="round"/>
<path d="M33.3331 35.8333C33.3392 36.4662 33.1074 37.0783 32.6836 37.5484C32.2598 38.0184 31.675 38.3122 31.0449 38.3715C30.4147 38.4308 29.7853 38.2514 29.2813 37.8686C28.7772 37.4859 28.4353 36.9278 28.3231 36.305C28.211 35.6821 28.3369 35.0398 28.6759 34.5053C29.0148 33.9708 29.5422 33.5832 30.1534 33.419C30.7647 33.2549 31.4153 33.3263 31.9763 33.6191C32.5374 33.9119 32.9681 34.4047 33.1831 35C33.284 35.2662 33.3349 35.5487 33.3331 35.8333Z" stroke="#262D38" stroke-width="1.5" stroke-linecap="round" stroke-linejoin="round"/>
<path d="M18.332 38.3333C18.8265 38.3333 19.3098 38.1867 19.721 37.912C20.1321 37.6373 20.4525 37.2468 20.6417 36.79C20.8309 36.3332 20.8805 35.8305 20.784 35.3456C20.6875 34.8606 20.4494 34.4152 20.0998 34.0655C19.7502 33.7159 19.3047 33.4778 18.8198 33.3814C18.3348 33.2849 17.8321 33.3344 17.3753 33.5236C16.9185 33.7128 16.5281 34.0333 16.2534 34.4444C15.9787 34.8555 15.832 35.3389 15.832 35.8333C15.832 36.4964 16.0954 37.1322 16.5643 37.6011C17.0331 38.0699 17.669 38.3333 18.332 38.3333Z" stroke="#262D38" stroke-width="1.5" stroke-linecap="round" stroke-linejoin="round"/>
</g>
<defs>
<clipPath id="clip0_52_72">
<rect width="40" height="40" fill="white"/>
</clipPath>
</defs>
</svg>
