<svg width="40" height="40" viewBox="0 0 40 40" fill="none" xmlns="http://www.w3.org/2000/svg">
<path d="M14.168 8.74335V7.84668C14.168 7.51838 14.1033 7.19329 13.9777 6.88997C13.852 6.58666 13.6679 6.31106 13.4357 6.07891C13.2036 5.84677 12.928 5.66262 12.6247 5.53698C12.3214 5.41134 11.9963 5.34668 11.668 5.34668C11.3397 5.34668 11.0146 5.41134 10.7113 5.53698C10.4079 5.66262 10.1323 5.84677 9.9002 6.07891C9.66805 6.31106 9.48391 6.58666 9.35827 6.88997C9.23263 7.19329 9.16797 7.51838 9.16797 7.84668V8.74335" fill="#B7DFEC"/>
<path d="M14.168 8.74335V7.84668C14.168 7.51838 14.1033 7.19329 13.9777 6.88997C13.852 6.58666 13.6679 6.31106 13.4357 6.07891C13.2036 5.84677 12.928 5.66262 12.6247 5.53698C12.3214 5.41134 11.9963 5.34668 11.668 5.34668C11.3397 5.34668 11.0146 5.41134 10.7113 5.53698C10.4079 5.66262 10.1323 5.84677 9.9002 6.07891C9.66806 6.31106 9.48391 6.58666 9.35827 6.88997C9.23263 7.19329 9.16797 7.51838 9.16797 7.84668V8.74335" stroke="#262D38" stroke-width="1.5" stroke-linecap="round" stroke-linejoin="round"/>
<path d="M19.168 8.74333V6.24333V6.17999C19.168 5.51695 18.9046 4.88107 18.4357 4.41223C17.9669 3.94338 17.331 3.67999 16.668 3.67999C16.0049 3.67999 15.369 3.94338 14.9002 4.41223C14.4314 4.88107 14.168 5.51695 14.168 6.17999V6.24333V8.74333" fill="#B7DFEC"/>
<path d="M19.168 8.74333V6.24333V6.17999C19.168 5.51695 18.9046 4.88107 18.4357 4.41223C17.9669 3.94338 17.331 3.67999 16.668 3.67999C16.0049 3.67999 15.369 3.94338 14.9002 4.41223C14.4314 4.88107 14.168 5.51695 14.168 6.17999V6.24333V8.74333" stroke="#262D38" stroke-width="1.5" stroke-linecap="round" stroke-linejoin="round"/>
<path d="M24.168 8.74664V3.80998V3.74664C24.168 3.0836 23.9046 2.44772 23.4357 1.97888C22.9669 1.51004 22.331 1.24664 21.668 1.24664C21.0049 1.24664 20.369 1.51004 19.9002 1.97888C19.4314 2.44772 19.168 3.0836 19.168 3.74664V3.80998V8.74664" fill="#B7DFEC"/>
<path d="M24.168 8.74664V3.80998V3.74664C24.168 3.0836 23.9046 2.44772 23.4357 1.97888C22.9669 1.51004 22.331 1.24664 21.668 1.24664C21.0049 1.24664 20.369 1.51004 19.9002 1.97888C19.4314 2.44772 19.168 3.0836 19.168 3.74664V3.80998V8.74664" stroke="#262D38" stroke-width="1.5" stroke-linecap="round" stroke-linejoin="round"/>
<path d="M29.168 8.74333V6.24333V6.17999C29.168 5.51695 28.9046 4.88107 28.4357 4.41223C27.9669 3.94338 27.331 3.67999 26.668 3.67999C26.0049 3.67999 25.369 3.94338 24.9002 4.41223C24.4314 4.88107 24.168 5.51695 24.168 6.17999V6.24333V8.74333" fill="#B7DFEC"/>
<path d="M29.168 8.74333V6.24333V6.17999C29.168 5.51695 28.9046 4.88107 28.4357 4.41223C27.9669 3.94338 27.331 3.67999 26.668 3.67999C26.0049 3.67999 25.369 3.94338 24.9002 4.41223C24.4314 4.88107 24.168 5.51695 24.168 6.17999V6.24333V8.74333" stroke="#262D38" stroke-width="1.5" stroke-linecap="round" stroke-linejoin="round"/>
<path d="M37.5013 14.58L31.668 8.74664" stroke="#262D38" stroke-width="1.5" stroke-linecap="round" stroke-linejoin="round"/>
<path d="M28.5474 24.64L29.0474 21.1934L28.5474 24.6384C28.4756 25.1406 28.2901 25.6198 28.005 26.0394C28.29 25.6201 28.4753 25.142 28.5474 24.64Z" fill="#4FAFCD"/>
<path d="M34.1562 21.1667C34.1562 21.1784 34.1646 21.1867 34.1646 21.2C34.1679 21.1884 34.1562 21.18 34.1562 21.1667Z" fill="#4FAFCD"/>
<path d="M3.33333 8.74835C3.11232 8.74835 2.90036 8.83615 2.74408 8.99243C2.5878 9.14871 2.5 9.36067 2.5 9.58169V27.915C2.5 28.136 2.5878 28.348 2.74408 28.5043C2.90036 28.6606 3.11232 28.7484 3.33333 28.7484H9.21833L29.2183 8.74835H3.33333Z" fill="#B7DFEC"/>
<path d="M11.0664 32.5634L12.4997 34.5734V38.74" stroke="#262D38" stroke-width="1.5" stroke-linecap="round" stroke-linejoin="round"/>
<path d="M27.5 38.7516V37.085C27.5 36.5675 27.6205 36.0571 27.8519 35.5943C28.0833 35.1314 28.4194 34.7288 28.8333 34.4183L32.8333 31.4183C33.2473 31.1078 33.5833 30.7052 33.8148 30.2423C34.0462 29.7795 34.1667 29.2691 34.1667 28.7516V21.2C34.1667 21.1883 34.1583 21.1783 34.1583 21.1666C34.1308 20.5597 33.8832 19.9836 33.4617 19.5459C33.0403 19.1083 32.4739 18.8391 31.8685 18.7887C31.263 18.7382 30.6599 18.91 30.1719 19.2719C29.6838 19.6337 29.3443 20.161 29.2167 20.755C29.1417 20.8929 29.0856 21.0404 29.05 21.1933L28.55 24.6383C28.4782 25.1405 28.2927 25.6197 28.0076 26.0394C27.7225 26.4591 27.3454 26.8081 26.905 27.06L24.1667 28.625C23.6587 28.9182 23.2372 29.3403 22.9445 29.8486C22.6519 30.3569 22.4986 30.9335 22.5 31.52V33.7516" stroke="#262D38" stroke-width="1.5" stroke-linecap="round" stroke-linejoin="round"/>
<path d="M19.168 13.7467V12.08" stroke="#262D38" stroke-width="1.5" stroke-linecap="round" stroke-linejoin="round"/>
<path d="M21.667 13.7466H18.282C17.7627 13.747 17.2597 13.928 16.8593 14.2587C16.4589 14.5894 16.1861 15.049 16.0875 15.5589C15.989 16.0687 16.0709 16.597 16.3193 17.053C16.5676 17.5091 16.9669 17.8645 17.4486 18.0583L20.8886 19.435C21.3704 19.6288 21.7697 19.9842 22.018 20.4403C22.2664 20.8963 22.3483 21.4246 22.2498 21.9344C22.1512 22.4443 21.8784 22.9039 21.478 23.2346C21.0776 23.5652 20.5746 23.7463 20.0553 23.7466H16.667" stroke="#262D38" stroke-width="1.5" stroke-linecap="round" stroke-linejoin="round"/>
<path d="M19.168 25.4133V23.7466" stroke="#262D38" stroke-width="1.5" stroke-linecap="round" stroke-linejoin="round"/>
<path d="M17.5 28.7466H3.33333C3.11232 28.7466 2.90036 28.6588 2.74408 28.5026C2.5878 28.3463 2.5 28.1343 2.5 27.9133V9.57998C2.5 9.35896 2.5878 9.147 2.74408 8.99072C2.90036 8.83444 3.11232 8.74664 3.33333 8.74664H36.6667C36.8877 8.74664 37.0996 8.83444 37.2559 8.99072C37.4122 9.147 37.5 9.35896 37.5 9.57998V27.08" stroke="#262D38" stroke-width="1.5" stroke-linecap="round" stroke-linejoin="round"/>
<path d="M2.5 14.58L8.33333 8.74664" stroke="#262D38" stroke-width="1.5" stroke-linecap="round" stroke-linejoin="round"/>
<path d="M2.5 22.9133L8.33333 28.7467" stroke="#262D38" stroke-width="1.5" stroke-linecap="round" stroke-linejoin="round"/>
</svg>
