<svg width="109" height="92" viewBox="0 0 109 92" fill="none" xmlns="http://www.w3.org/2000/svg">
<g clip-path="url(#clip0_52_464)">
<path d="M52.9314 26.6626C50.1726 24.4891 46.6616 23.4973 43.1701 23.905C39.6786 24.3128 36.4922 26.0869 34.3112 28.8373C32.6005 30.9984 31.365 35.1265 30.4961 39.2968C28.6858 35.4396 26.5285 31.7058 24.3638 29.9991C21.6055 27.8238 18.094 26.8307 14.6018 27.2383C11.1095 27.6458 7.92261 29.4206 5.74209 32.1723C3.56158 34.924 2.56608 38.4271 2.9746 41.911C3.38312 45.3949 5.1622 48.5742 7.92046 50.7495C12.8987 54.6775 28.8125 54.7903 31.9594 54.7723L32.3048 54.7512L32.6548 54.691C35.7111 53.9852 51.1724 50.2047 55.1067 45.2384C57.2819 42.4848 58.274 38.9831 57.8653 35.501C57.4567 32.0189 55.6808 28.8405 52.9268 26.6626H52.9314ZM11.8729 45.7621C10.4606 44.6249 9.55507 42.9777 9.35316 41.1783C9.15124 39.3789 9.66921 37.5727 10.7945 36.1521C11.9198 34.7316 13.5616 33.8113 15.3631 33.5914C17.1646 33.3715 18.9804 33.8696 20.4159 34.9775C22.0994 36.3064 24.7681 41.4489 27.3869 48.3326C19.7868 48.0376 13.4493 47.0082 11.8729 45.7621ZM50.1149 41.2954C48.8688 42.8665 42.9402 45.3287 35.6131 47.3709C36.4443 41.1118 37.8186 34.6525 39.306 32.7728C40.4405 31.3451 42.0961 30.4245 43.9098 30.2126C45.7236 30.0007 47.5476 30.515 48.9819 31.6426C50.4136 32.7749 51.3369 34.4273 51.5493 36.2376C51.7616 38.0479 51.2458 39.8684 50.1149 41.2999V41.2954Z" fill="white"/>
<path d="M55.1098 45.2384C56.7367 43.1866 57.7169 40.6995 57.9263 38.0918C58.1357 35.4841 57.565 32.8731 56.2863 30.5891C55.0076 28.3052 53.0785 26.451 50.743 25.2612C48.4076 24.0715 45.7708 23.5997 43.1665 23.9056C42.7481 23.9557 42.3358 24.0234 41.9295 24.1087C41.6192 24.787 41.4059 25.5053 41.2959 26.2428L40.5039 31.5914C41.8357 30.5666 43.4973 30.0633 45.1754 30.1763C46.8535 30.2892 48.4322 31.0106 49.6139 32.2046C50.7957 33.3985 51.4988 34.9824 51.5909 36.6578C51.6829 38.3332 51.1574 39.9843 50.1134 41.2999C49.2852 42.3533 46.3813 43.7846 42.373 45.2338L41.317 52.3071C46.6875 50.593 52.8303 48.1143 55.1098 45.2384Z" fill="#F8F8F8"/>
<path d="M52.9314 26.6626C50.1726 24.4891 46.6616 23.4973 43.1701 23.905C39.6786 24.3128 36.4922 26.0869 34.3112 28.8373C32.6005 30.9984 31.365 35.1265 30.4961 39.2968C28.6858 35.4396 26.5285 31.7058 24.3638 29.9991C21.6055 27.8238 18.094 26.8307 14.6018 27.2383C11.1095 27.6458 7.92261 29.4206 5.74209 32.1723C3.56158 34.924 2.56608 38.4271 2.9746 41.911C3.38312 45.3949 5.1622 48.5742 7.92046 50.7495C12.8987 54.6775 28.8125 54.7903 31.9594 54.7723L32.3048 54.7512L32.6548 54.691C35.7111 53.9852 51.1724 50.2047 55.1067 45.2384C57.2819 42.4848 58.274 38.9831 57.8653 35.501C57.4567 32.0189 55.6808 28.8405 52.9268 26.6626H52.9314ZM11.8729 45.7621C10.4606 44.6249 9.55507 42.9777 9.35316 41.1783C9.15124 39.3789 9.66921 37.5727 10.7945 36.1521C11.9198 34.7316 13.5616 33.8113 15.3631 33.5914C17.1646 33.3715 18.9804 33.8696 20.4159 34.9775C22.0994 36.3064 24.7681 41.4489 27.3869 48.3326C19.7868 48.0376 13.4493 47.0082 11.8729 45.7621ZM50.1149 41.2954C48.8688 42.8665 42.9402 45.3287 35.6131 47.3709C36.4443 41.1118 37.8186 34.6525 39.306 32.7728C40.4405 31.3451 42.0961 30.4245 43.9098 30.2126C45.7236 30.0007 47.5476 30.515 48.9819 31.6426C50.4136 32.7749 51.3369 34.4273 51.5493 36.2376C51.7616 38.0479 51.2458 39.8684 50.1149 41.2999V41.2954Z" stroke="#262D38" stroke-linecap="round" stroke-linejoin="round"/>
<path d="M0.480469 57.6701L63.8806 50.2647L65.3781 63.0239L1.97793 70.4293L0.480469 57.6701Z" fill="#4FAFCD"/>
<path d="M62.3044 97.5221L13.0334 103.277C12.6581 103.321 12.2778 103.291 11.9143 103.188C11.5507 103.086 11.211 102.913 10.9145 102.679C10.6181 102.445 10.3707 102.156 10.1865 101.826C10.0024 101.497 9.88504 101.135 9.84125 100.761L6.2207 69.9317L61.2077 63.5101L64.8283 94.3376C64.8724 94.7121 64.8422 95.0916 64.7392 95.4544C64.6362 95.8171 64.4626 96.1561 64.2281 96.4519C63.9937 96.7477 63.7032 96.9944 63.3731 97.1781C63.043 97.3617 62.6799 97.4786 62.3044 97.5221Z" fill="#4FAFCD"/>
<path d="M61.2091 63.5101L39.875 66.0023C40.2379 67.4564 41.0253 68.7704 42.1374 69.7777C43.2494 70.785 44.6362 71.4405 46.1219 71.6609L62.4476 74.0688L61.2091 63.5101Z" fill="#3D94AF"/>
<path d="M6.2207 69.9326L61.2062 63.51L62.1479 71.5339L7.16241 77.9564L6.2207 69.9326Z" fill="#3D94AF"/>
<path d="M62.3044 97.5221L13.0334 103.277C12.6581 103.321 12.2778 103.291 11.9143 103.188C11.5507 103.086 11.211 102.913 10.9145 102.679C10.6181 102.445 10.3707 102.156 10.1865 101.826C10.0024 101.497 9.88504 101.135 9.84125 100.761L6.2207 69.9317L61.2077 63.5101L64.8283 94.3376C64.8724 94.7121 64.8422 95.0916 64.7392 95.4544C64.6362 95.8171 64.4626 96.1561 64.2281 96.4519C63.9937 96.7477 63.7032 96.9944 63.3731 97.1781C63.043 97.3617 62.6799 97.4786 62.3044 97.5221Z" stroke="#262D38" stroke-linecap="round" stroke-linejoin="round"/>
<path d="M64.4613 55.2177L1.06107 62.6176L0.849872 60.8117C0.801069 60.3973 0.834597 59.9774 0.948538 59.576C1.06248 59.1745 1.2546 58.7994 1.51392 58.4721C1.77324 58.1448 2.09468 57.8716 2.45987 57.6683C2.82505 57.465 3.22682 57.3354 3.64222 57.2871L60.7171 50.6201C61.5559 50.5222 62.3993 50.7606 63.0618 51.283C63.7244 51.8054 64.1518 52.569 64.2501 53.4058L64.4613 55.2177Z" fill="#3D94AF"/>
<path d="M65.0086 59.8681L64.2543 53.4193C64.156 52.5825 63.7286 51.819 63.066 51.2966C62.4035 50.7742 61.5601 50.5357 60.7213 50.6336L38.5273 53.2252L40.0253 65.9842L62.2117 63.3912C62.6274 63.3434 63.0295 63.2142 63.3951 63.0112C63.7607 62.8082 64.0826 62.5353 64.3424 62.2081C64.6021 61.8809 64.7947 61.5058 64.909 61.1042C65.0233 60.7027 65.0572 60.2827 65.0086 59.8681Z" fill="#3D94AF"/>
<path d="M0.480469 57.6701L63.8806 50.2647L65.3781 63.0239L1.97793 70.4293L0.480469 57.6701Z" stroke="#262D38" stroke-linecap="round" stroke-linejoin="round"/>
<path d="M25.9102 54.6999L38.5261 53.2263L40.0235 65.9855L27.4076 67.4591L25.9102 54.6999Z" fill="white"/>
<path d="M27.4062 67.4586L40.0221 65.985L43.9747 99.6632L31.3589 101.137L27.4062 67.4586Z" fill="white"/>
<path d="M27.4062 67.4581L40.0221 65.9845L40.9639 74.0083L28.348 75.4819L27.4062 67.4581Z" fill="#F5F5F5"/>
<path d="M27.4062 67.4586L40.0221 65.985L43.9747 99.6632L31.3589 101.137L27.4062 67.4586Z" stroke="#262D38" stroke-linecap="round" stroke-linejoin="round"/>
<path d="M25.9082 54.7002L38.5241 53.2266L39.1055 58.1802L26.4896 59.6538L25.9082 54.7002Z" fill="#F5F5F5"/>
<path d="M25.9102 54.6999L38.5261 53.2263L40.0235 65.9855L27.4076 67.4591L25.9102 54.6999Z" stroke="#262D38" stroke-linecap="round" stroke-linejoin="round"/>
<path d="M99.5515 9.44137C97.6621 6.90722 94.842 5.22451 91.7102 4.76262C88.5784 4.30073 85.3908 5.0974 82.8472 6.97775C80.8514 8.45713 78.8073 11.759 77.0725 15.1828C76.4042 11.4053 75.4055 7.65799 73.9241 5.66242C72.0365 3.12608 69.2162 1.4417 66.0837 0.979826C62.9511 0.517949 59.763 1.31641 57.2206 3.19955C54.6782 5.08269 52.9898 7.89626 52.5268 11.0213C52.0638 14.1463 52.8642 17.3269 54.7518 19.8632C58.1582 24.4428 71.9705 28.2639 74.7131 28.9833L75.0148 29.0465L75.3331 29.0751C78.1571 29.1759 92.49 29.504 97.079 26.1058C99.6185 24.2204 101.305 21.4071 101.768 18.283C102.231 15.1589 101.433 11.9792 99.5485 9.44137H99.5515ZM59.3575 16.453C58.4503 15.1322 58.0914 13.5122 58.3561 11.9331C58.6208 10.3539 59.4886 8.93853 60.7772 7.98414C62.0658 7.02974 63.6749 6.61057 65.2667 6.81467C66.8585 7.01876 68.3092 7.83023 69.314 9.07868C70.465 10.6288 71.5768 15.7201 72.2375 22.3223C65.7055 20.2786 60.4361 17.9023 59.3575 16.453ZM93.6636 21.5126C92.2094 22.5872 86.4753 23.3412 79.6235 23.4044C81.8169 18.1551 84.5308 12.8591 86.2611 11.5724C87.583 10.5966 89.2387 10.1833 90.8654 10.4231C92.4922 10.6629 93.9573 11.5361 94.9399 12.8516C95.9188 14.1701 96.3342 15.8218 96.095 17.4451C95.8558 19.0684 94.9815 20.531 93.6636 21.5126Z" fill="white" stroke="#262D38" stroke-linecap="round" stroke-linejoin="round"/>
<path d="M44.957 35.5856L46.6531 24.1399L103.528 32.5275L101.832 43.9732L44.957 35.5856Z" fill="#90E1A2"/>
<path d="M91.0498 73.2547L46.849 66.7367C46.5124 66.6872 46.1889 66.572 45.8969 66.3977C45.6049 66.2234 45.3502 65.9934 45.1474 65.7208C44.9445 65.4483 44.7975 65.1386 44.7146 64.8093C44.6318 64.4801 44.6148 64.1378 44.6646 63.802L48.7619 36.1469L98.0918 43.4204L93.9915 71.0755C93.9419 71.4113 93.8264 71.7341 93.6517 72.0253C93.477 72.3166 93.2464 72.5707 92.9733 72.7731C92.7001 72.9755 92.3896 73.1222 92.0596 73.2048C91.7295 73.2874 91.3864 73.3044 91.0498 73.2547Z" fill="#90E1A2"/>
<path d="M75.9785 71.0318L91.052 73.2547C91.3886 73.3044 91.7318 73.2874 92.0618 73.2048C92.3918 73.1222 92.7023 72.9755 92.9755 72.7731C93.2486 72.5707 93.4792 72.3166 93.6539 72.0254C93.8286 71.7341 93.9441 71.4113 93.9937 71.0755L95.8794 58.3556C91.8701 58.9999 88.0357 60.4572 84.6129 62.6374C81.1901 64.8176 78.2515 67.6746 75.9785 71.0318Z" fill="#70BD81"/>
<path d="M47.6992 43.3451L48.7659 36.1469L98.0922 43.4213L97.0256 50.6195L47.6992 43.3451Z" fill="#70BD81"/>
<path d="M91.0498 73.2547L46.849 66.7367C46.5124 66.6872 46.1889 66.572 45.8969 66.3977C45.6049 66.2234 45.3502 65.9934 45.1474 65.7208C44.9445 65.4483 44.7975 65.1386 44.7146 64.8093C44.6318 64.4801 44.6148 64.1378 44.6646 63.802L48.7619 36.1469L98.0918 43.4204L93.9915 71.0755C93.9419 71.4113 93.8264 71.7341 93.6517 72.0254C93.477 72.3166 93.2464 72.5707 92.9733 72.7731C92.7001 72.9755 92.3896 73.1221 92.0596 73.2048C91.7295 73.2874 91.3864 73.3044 91.0498 73.2547Z" stroke="#262D38" stroke-linecap="round" stroke-linejoin="round"/>
<path d="M102.869 36.9716L45.9961 28.5845L46.2344 26.9711C46.2898 26.5997 46.4179 26.2427 46.6116 25.9207C46.8052 25.5986 47.0605 25.3178 47.363 25.0942C47.6654 24.8706 48.0091 24.7086 48.3743 24.6175C48.7395 24.5264 49.1191 24.5079 49.4914 24.5632L100.692 32.1136C101.064 32.1688 101.422 32.2966 101.745 32.4898C102.068 32.683 102.349 32.9377 102.573 33.2394C102.798 33.5412 102.96 33.884 103.051 34.2483C103.143 34.6126 103.161 34.9913 103.106 35.3628L102.869 36.9716Z" fill="#70BD81"/>
<path d="M44.957 35.5856L46.6531 24.1399L103.528 32.5275L101.832 43.9732L44.957 35.5856Z" stroke="#262D38" stroke-linecap="round" stroke-linejoin="round"/>
<path d="M67.7695 38.9505L69.4656 27.5048L80.7835 29.1739L79.0874 40.6196L67.7695 38.9505Z" fill="white"/>
<path d="M63.293 69.1631L67.7698 38.9512L79.0877 40.6203L74.6109 70.8322L63.293 69.1631Z" fill="white"/>
<path d="M66.7031 46.1479L67.7698 38.9496L79.0877 40.6187L78.0211 47.817L66.7031 46.1479Z" fill="#F5F5F5"/>
<path d="M63.293 69.1631L67.7698 38.9512L79.0877 40.6203L74.6109 70.8322L63.293 69.1631Z" stroke="#262D38" stroke-linecap="round" stroke-linejoin="round"/>
<path d="M68.8066 31.9492L69.4652 27.5051L80.7831 29.1743L80.1246 33.6183L68.8066 31.9492Z" fill="#F5F5F5"/>
<path d="M67.7695 38.9505L69.4656 27.5048L80.7835 29.1739L79.0874 40.6196L67.7695 38.9505Z" stroke="#262D38" stroke-linecap="round" stroke-linejoin="round"/>
<path d="M55.2832 79.7486C55.2832 83.2348 55.9715 86.687 57.3088 89.9078C58.6462 93.1287 60.6063 96.0553 63.0774 98.5205C65.5484 100.986 68.482 102.941 71.7106 104.275C74.9392 105.609 78.3996 106.296 81.8942 106.296C85.3888 106.296 88.8492 105.609 92.0778 104.275C95.3064 102.941 98.24 100.986 100.711 98.5205C103.182 96.0553 105.142 93.1287 106.48 89.9078C107.817 86.687 108.505 83.2348 108.505 79.7486C108.505 76.2623 107.817 72.8102 106.48 69.5893C105.142 66.3684 103.182 63.4418 100.711 60.9767C98.24 58.5115 95.3064 56.556 92.0778 55.2219C88.8492 53.8877 85.3888 53.2011 81.8942 53.2011C78.3996 53.2011 74.9392 53.8877 71.7106 55.2219C68.482 56.556 65.5484 58.5115 63.0774 60.9767C60.6063 63.4418 58.6462 66.3684 57.3088 69.5893C55.9715 72.8102 55.2832 76.2623 55.2832 79.7486Z" fill="#EED54F"/>
<path d="M63.0775 98.5214C58.0869 93.5427 55.2832 86.7902 55.2832 79.7493C55.2832 72.7084 58.0869 65.9559 63.0775 60.9772C68.0681 55.9985 74.8367 53.2015 81.8945 53.2015C88.9523 53.2015 95.7209 55.9985 100.712 60.9772L63.0775 98.5214Z" fill="#F5E175"/>
<path d="M60.9453 79.7486C60.9453 85.291 63.1523 90.6065 67.0808 94.5256C71.0093 98.4447 76.3375 100.646 81.8932 100.646C87.4489 100.646 92.7771 98.4447 96.7056 94.5256C100.634 90.6065 102.841 85.291 102.841 79.7486C102.841 74.2061 100.634 68.8907 96.7056 64.9716C92.7771 61.0524 87.4489 58.8507 81.8932 58.8507C76.3375 58.8507 71.0093 61.0524 67.0808 64.9716C63.1523 68.8907 60.9453 74.2061 60.9453 79.7486Z" stroke="#EED54F" stroke-linecap="round" stroke-linejoin="round"/>
<path d="M55.2832 79.7486C55.2832 83.2348 55.9715 86.687 57.3088 89.9078C58.6462 93.1287 60.6063 96.0553 63.0774 98.5205C65.5484 100.986 68.482 102.941 71.7106 104.275C74.9392 105.609 78.3996 106.296 81.8942 106.296C85.3888 106.296 88.8492 105.609 92.0778 104.275C95.3064 102.941 98.24 100.986 100.711 98.5205C103.182 96.0553 105.142 93.1287 106.48 89.9078C107.817 86.687 108.505 83.2348 108.505 79.7486C108.505 76.2623 107.817 72.8102 106.48 69.5893C105.142 66.3684 103.182 63.4418 100.711 60.9767C98.24 58.5115 95.3064 56.556 92.0778 55.2219C88.8492 53.8877 85.3888 53.2011 81.8942 53.2011C78.3996 53.2011 74.9392 53.8877 71.7106 55.2219C68.482 56.556 65.5484 58.5115 63.0774 60.9767C60.6063 63.4418 58.6462 66.3684 57.3088 69.5893C55.9715 72.8102 55.2832 76.2623 55.2832 79.7486Z" stroke="#262D38" stroke-linecap="round" stroke-linejoin="round"/>
<path d="M81.8812 72.603C85.7838 72.603 87.5534 76.1141 87.5534 79.6658C87.5534 83.2175 85.7838 86.7301 81.8812 86.7301C77.9785 86.7301 76.209 83.216 76.209 79.6658C76.209 76.1156 77.9846 72.603 81.8812 72.603ZM81.8812 83.7668C83.8031 83.7668 84.3552 81.3589 84.3552 79.6658C84.3552 77.9727 83.8031 75.5648 81.8812 75.5648C79.9593 75.5648 79.4071 77.9727 79.4071 79.6658C79.4071 81.3589 79.9593 83.7668 81.8812 83.7668Z" fill="#262D38"/>
<path d="M70.922 87.197C69.9427 87.197 69.0809 87.0407 68.3367 86.7281C67.5989 86.409 67.0211 85.9433 66.6033 85.331C66.1855 84.7123 65.9766 83.9666 65.9766 83.0938C65.9766 82.3318 66.1887 81.6609 66.6131 81.0813C67.0375 80.4951 67.6153 80.0392 68.3465 79.7135C67.7001 79.4009 67.1942 78.9743 66.8286 78.4337C66.4695 77.8866 66.2899 77.2614 66.2899 76.5579C66.2899 75.7112 66.4793 74.9916 66.8579 74.3989C67.2431 73.7997 67.7817 73.3437 68.4738 73.0311C69.1723 72.7185 69.9819 72.5622 70.9024 72.5622C71.823 72.5622 72.6293 72.7185 73.3213 73.0311C74.0199 73.3437 74.5617 73.7997 74.9469 74.3989C75.3321 74.9916 75.5247 75.7112 75.5247 76.5579C75.5247 77.2614 75.3386 77.8866 74.9665 78.4337C74.6009 78.9743 74.0982 79.4009 73.4584 79.7135C74.1961 80.0392 74.7739 80.4951 75.1917 81.0813C75.6161 81.6674 75.8283 82.3383 75.8283 83.0938C75.8283 83.9666 75.6226 84.7123 75.2113 85.331C74.8 85.9433 74.2255 86.409 73.4878 86.7281C72.75 87.0407 71.8948 87.197 70.922 87.197ZM70.922 84.8133C71.2746 84.8133 71.5847 84.7351 71.8523 84.5788C72.12 84.416 72.3289 84.188 72.4791 83.8949C72.6293 83.6018 72.7043 83.2534 72.7043 82.8496C72.7043 82.4523 72.626 82.1103 72.4693 81.8238C72.3191 81.5307 72.107 81.306 71.8328 81.1497C71.5651 80.9933 71.255 80.9152 70.9024 80.9152C70.5434 80.9152 70.23 80.9933 69.9623 81.1497C69.6946 81.306 69.4857 81.5307 69.3356 81.8238C69.1854 82.1103 69.1103 82.4523 69.1103 82.8496C69.1103 83.4553 69.2735 83.934 69.6 84.2857C69.9329 84.6374 70.3736 84.8133 70.922 84.8133ZM70.922 78.5021C71.2289 78.5021 71.49 78.4304 71.7054 78.2872C71.9274 78.1374 72.0972 77.9289 72.2147 77.6619C72.3322 77.3949 72.391 77.0757 72.391 76.7045C72.391 76.3528 72.3322 76.0467 72.2147 75.7861C72.0972 75.5191 71.9274 75.3139 71.7054 75.1707C71.4835 75.0274 71.2158 74.9557 70.9024 74.9557C70.4258 74.9557 70.0602 75.112 69.8056 75.4247C69.551 75.7373 69.4237 76.1639 69.4237 76.7045C69.4237 77.2646 69.551 77.7042 69.8056 78.0234C70.0668 78.3425 70.4389 78.5021 70.922 78.5021Z" fill="#262D38"/>
<path d="M91.1645 72.603C91.9605 72.628 92.7155 72.9609 93.2697 73.5314C93.8239 74.1019 94.1338 74.8652 94.1338 75.6596C94.1338 76.4541 93.8239 77.2173 93.2697 77.7878C92.7155 78.3583 91.9605 78.6913 91.1645 78.7162C90.3686 78.6913 89.6136 78.3583 89.0594 77.7878C88.5052 77.2173 88.1953 76.4541 88.1953 75.6596C88.1953 74.8652 88.5052 74.1019 89.0594 73.5314C89.6136 72.9609 90.3686 72.628 91.1645 72.603ZM96.6089 73.6038C96.9318 73.035 97.2365 72.5985 97.7871 72.5985C97.931 72.5939 98.0744 72.6178 98.209 72.6688C98.3436 72.7199 98.4668 72.797 98.5713 72.8958C98.6758 72.9947 98.7596 73.1132 98.8179 73.2445C98.8762 73.3758 98.9079 73.5174 98.911 73.661C98.8388 74.1719 98.6356 74.6555 98.3212 75.0651L92.1662 85.7233C91.8434 86.2921 91.5402 86.7301 90.988 86.7301C90.844 86.7347 90.7005 86.7107 90.5658 86.6596C90.4311 86.6085 90.3079 86.5312 90.2034 86.4322C90.0988 86.3333 90.015 86.2146 89.9568 86.0831C89.8986 85.9516 89.8671 85.8098 89.8642 85.6661C89.9373 85.155 90.1403 84.6711 90.454 84.2605L96.6089 73.6038ZM91.1645 76.5475C91.347 76.5689 91.5317 76.5344 91.694 76.4486C91.8563 76.3627 91.9886 76.2297 92.0733 76.067C92.158 75.9044 92.1911 75.7199 92.1682 75.5381C92.1453 75.3562 92.0674 75.1856 91.945 75.049C91.8226 74.9123 91.6614 74.8161 91.4828 74.773C91.3042 74.73 91.1168 74.7421 90.9453 74.8079C90.7738 74.8737 90.6264 74.99 90.5228 75.1413C90.4192 75.2926 90.3641 75.4718 90.365 75.6551C90.3553 75.767 90.3686 75.8797 90.4041 75.9864C90.4395 76.093 90.4964 76.1913 90.5712 76.2753C90.6461 76.3592 90.7373 76.4271 90.8393 76.4746C90.9413 76.5222 91.052 76.5486 91.1645 76.552V76.5475ZM97.6167 80.6109C98.4091 80.6413 99.1589 80.9767 99.7087 81.5468C100.259 82.1168 100.566 82.8771 100.566 83.6682C100.566 84.4594 100.259 85.2197 99.7087 85.7897C99.1589 86.3598 98.4091 86.6952 97.6167 86.7256C96.8242 86.6952 96.0744 86.3598 95.5246 85.7897C94.9747 85.2197 94.6675 84.4594 94.6675 83.6682C94.6675 82.8771 94.9747 82.1168 95.5246 81.5468C96.0744 80.9767 96.8242 80.6413 97.6167 80.6109ZM97.6167 84.5599C97.7991 84.5816 97.9839 84.5474 98.1464 84.4618C98.3089 84.3762 98.4415 84.2432 98.5264 84.0807C98.6113 83.9181 98.6447 83.7336 98.6219 83.5517C98.5992 83.3697 98.5215 83.199 98.3992 83.0622C98.2769 82.9254 98.1157 82.829 97.9371 82.7858C97.7585 82.7426 97.5709 82.7546 97.3994 82.8203C97.2278 82.886 97.0804 83.0023 96.9766 83.1536C96.8729 83.3049 96.8178 83.4842 96.8186 83.6675C96.8087 83.7793 96.8218 83.892 96.8571 83.9987C96.8924 84.1053 96.9491 84.2036 97.0238 84.2876C97.0985 84.3716 97.1897 84.4394 97.2916 84.487C97.3935 84.5347 97.5042 84.561 97.6167 84.5644V84.5599Z" fill="#262D38"/>
</g>
<defs>
<clipPath id="clip0_52_464">
<rect width="109" height="107" fill="white"/>
</clipPath>
</defs>
</svg>
