<svg style="display: none;" aria-hidden="true" xmlns="http://www.w3.org/2000/svg" xmlns:xlink="http://www.w3.org/1999/xlink"><symbol fill="currentColor" viewBox="0 0 15 16" id="svg-arr-down" xmlns="http://www.w3.org/2000/svg">
  <path d="M11.693 6.381a.626.626 0 0 0-.887 0L7.943 9.244a.625.625 0 0 1-.887 0L4.193 6.38a.625.625 0 1 0-.887.881l2.869 2.87a1.875 1.875 0 0 0 2.65 0l2.868-2.87a.625.625 0 0 0 0-.88Z"/>
</symbol><symbol fill="currentColor" viewBox="0 0 19 17" id="svg-arr-next" xmlns="http://www.w3.org/2000/svg">
  <path fill-rule="evenodd" d="M11.159.634a.5.5 0 0 1 .707.025l7 7.5a.5.5 0 0 1 0 .682l-7 7.5a.5.5 0 0 1-.732-.682L17.816 8.5l-6.681-7.159a.5.5 0 0 1 .024-.707Z" clip-rule="evenodd"/>
  <path fill-rule="evenodd" d="M18.5 8.5a.5.5 0 0 1-.5.5H1a.5.5 0 0 1 0-1h17a.5.5 0 0 1 .5.5Z" clip-rule="evenodd"/>
</symbol><symbol fill="currentColor" viewBox="0 0 19 17" id="svg-arr-prev" xmlns="http://www.w3.org/2000/svg">
  <path fill-rule="evenodd" d="M7.841 16.366a.5.5 0 0 1-.707-.025l-7-7.5a.5.5 0 0 1 0-.682l7-7.5a.5.5 0 0 1 .732.682L1.184 8.5l6.682 7.159a.5.5 0 0 1-.025.707Z" clip-rule="evenodd"/>
  <path fill-rule="evenodd" d="M.5 8.5A.5.5 0 0 1 1 8h17a.5.5 0 0 1 0 1H1a.5.5 0 0 1-.5-.5Z" clip-rule="evenodd"/>
</symbol><symbol fill="currentColor" viewBox="0 0 19 22" id="svg-cart" xmlns="http://www.w3.org/2000/svg">
  <path fill-rule="evenodd" d="M0 7.715c0-.967.784-1.75 1.75-1.75h15.053c.966 0 1.75.783 1.75 1.75v6.017a7.768 7.768 0 0 1-7.768 7.768H7.768A7.768 7.768 0 0 1 0 13.732V7.715Zm1.75-.25a.25.25 0 0 0-.25.25v6.017A6.268 6.268 0 0 0 7.768 20h3.017a6.268 6.268 0 0 0 6.268-6.268V7.715a.25.25 0 0 0-.25-.25H1.75Z" clip-rule="evenodd"/>
  <path fill-rule="evenodd" d="M6.757 2.166c-.627.413-.994.985-.994 1.742v7.018a.75.75 0 1 1-1.5 0V3.908c0-1.348.698-2.355 1.67-2.995C6.881.288 8.1 0 9.275 0c1.175 0 2.394.288 3.343.913.972.64 1.67 1.647 1.67 2.995v7.018a.75.75 0 1 1-1.5 0V3.908c0-.758-.367-1.33-.995-1.742-.649-.428-1.562-.666-2.518-.666-.956 0-1.87.238-2.519.666Z" clip-rule="evenodd"/>
</symbol><symbol fill="currentColor" viewBox="0 0 24 24" id="svg-checkmark" xmlns="http://www.w3.org/2000/svg">
  <path fill-rule="evenodd" d="M3.293 11.607a1 1 0 0 1 1.414 0l4.95 4.95L20.264 5.95a1 1 0 1 1 1.414 1.414L9.657 19.384l-6.364-6.363a1 1 0 0 1 0-1.414Z" clip-rule="evenodd"/>
</symbol><symbol fill="currentColor" viewBox="0 0 24 24" id="svg-clock" xmlns="http://www.w3.org/2000/svg">
  <path fill-rule="evenodd" d="M12.5 4.75a7.75 7.75 0 1 0 0 15.5 7.75 7.75 0 0 0 0-15.5ZM3.25 12.5a9.25 9.25 0 1 1 18.5 0 9.25 9.25 0 0 1-18.5 0Z" clip-rule="evenodd"/>
  <path fill-rule="evenodd" d="M12.5 7.886a.75.75 0 0 1 .75.75v4.326l1.712 1.712a.75.75 0 0 1-1.06 1.06l-1.932-1.931a.75.75 0 0 1-.22-.53V8.636a.75.75 0 0 1 .75-.75Z" clip-rule="evenodd"/>
</symbol><symbol fill="currentColor" viewBox="0 0 16 16" id="svg-close" xmlns="http://www.w3.org/2000/svg">
  <path d="M15.59 2.39A1.4 1.4 0 1 0 13.61.41L8 6.02 2.39.41A1.4 1.4 0 1 0 .41 2.39L6.02 8 .41 13.61a1.4 1.4 0 0 0 1.98 1.98L8 9.98l5.61 5.61a1.4 1.4 0 1 0 1.98-1.98L9.98 8l5.61-5.61Z"/>
</symbol><symbol fill="none" viewBox="0 0 3 16" id="svg-dots" xmlns="http://www.w3.org/2000/svg">
  <circle cx="1.5" cy="2" r="1.5" fill="#fff"/>
  <circle cx="1.5" cy="8" r="1.5" fill="#fff"/>
  <circle cx="1.5" cy="14" r="1.5" fill="#fff"/>
</symbol><symbol fill="none" viewBox="0 0 21 20" id="svg-home" xmlns="http://www.w3.org/2000/svg">
  <path fill="#54A8C2" d="m19.007 6.786-5.689-5.69a3.756 3.756 0 0 0-5.303 0l-5.69 5.69a2.234 2.234 0 0 0-.658 1.59v7.363a2.25 2.25 0 0 0 2.25 2.25h13.5a2.25 2.25 0 0 0 2.25-2.25V8.376a2.234 2.234 0 0 0-.66-1.59Zm-6.09 9.703h-4.5v-2.95a2.25 2.25 0 0 1 4.5 0v2.95Zm5.25-.75a.75.75 0 0 1-.75.75h-3v-2.95a3.75 3.75 0 1 0-7.5 0v2.95h-3a.75.75 0 0 1-.75-.75V8.376c0-.198.08-.389.22-.53L9.074 2.16a2.256 2.256 0 0 1 3.183 0l5.689 5.69c.14.14.218.33.22.527v7.363Z"/>
</symbol><symbol fill="currentColor" viewBox="0 0 13 3" id="svg-minus" xmlns="http://www.w3.org/2000/svg">
  <path d="M11.25.5h-10a1 1 0 0 0 0 2h10a1 1 0 1 0 0-2Z"/>
</symbol><symbol fill="currentColor" viewBox="0 0 17 17" id="svg-phone" xmlns="http://www.w3.org/2000/svg">
  <path fill-rule="evenodd" d="M4.298.695a2.75 2.75 0 0 1 2.691 1.369l.629 1.1a2.658 2.658 0 0 1-.428 3.199c-.29.29-.312.592-.21.784.225.424.607.999 1.24 1.632.634.633 1.209 1.015 1.633 1.241.191.102.494.08.784-.21a2.658 2.658 0 0 1 3.198-.428l1.1.629a2.75 2.75 0 0 1 1.37 2.691l-.18 1.612c-.138 1.25-1.185 2.384-2.629 2.159-1.892-.296-5.028-1.318-8.34-4.63C1.847 8.534.824 5.398.528 3.505c-.225-1.444.91-2.491 2.16-2.63l1.61-.18Zm7.4 10.176c-.613.612-1.615.97-2.55.473-.55-.292-1.245-.761-1.988-1.504-.743-.743-1.212-1.44-1.505-1.989-.497-.935-.139-1.936.474-2.549.37-.369.446-.94.187-1.393l-.63-1.101a1.25 1.25 0 0 0-1.223-.622l-1.611.179c-.61.067-.906.503-.843.907.251 1.606 1.14 4.443 4.208 7.511 3.069 3.068 5.906 3.957 7.51 4.208.405.063.84-.233.908-.843l.179-1.612a1.25 1.25 0 0 0-.622-1.223l-1.101-.629a1.158 1.158 0 0 0-1.394.187Z" clip-rule="evenodd"/>
</symbol><symbol fill="currentColor" viewBox="0 0 13 13" id="svg-plus" xmlns="http://www.w3.org/2000/svg">
  <path d="M11.25 5.5h-4v-4a1 1 0 0 0-2 0v4h-4a1 1 0 0 0 0 2h4v4a1 1 0 1 0 2 0v-4h4a1 1 0 1 0 0-2Z"/>
</symbol><symbol fill="currentColor" viewBox="0 0 15 16" id="svg-search" xmlns="http://www.w3.org/2000/svg">
  <path fill-rule="evenodd" d="M6.875 2.75a4.625 4.625 0 1 0 0 9.25 4.625 4.625 0 0 0 0-9.25ZM.25 7.375a6.625 6.625 0 1 1 13.25 0 6.625 6.625 0 0 1-13.25 0Z" clip-rule="evenodd"/>
  <path fill-rule="evenodd" d="M10.543 11.043a1 1 0 0 1 1.414 0l2.5 2.5a1 1 0 0 1-1.414 1.414l-2.5-2.5a1 1 0 0 1 0-1.414Z" clip-rule="evenodd"/>
</symbol><symbol fill="none" viewBox="0 0 98 18" id="svg-stars" xmlns="http://www.w3.org/2000/svg">
  <path fill="#EECD58" d="M8.308 1.658a.75.75 0 0 1 1.384 0l1.646 3.941a.75.75 0 0 0 .591.455l4.359.59a.75.75 0 0 1 .373 1.324l-3.356 2.739a.75.75 0 0 0-.257.75l1.073 4.635c.155.67-.599 1.178-1.162.783l-3.528-2.476a.75.75 0 0 0-.862 0l-3.528 2.476c-.563.395-1.317-.113-1.162-.783l1.073-4.635a.75.75 0 0 0-.257-.75L1.34 7.967a.75.75 0 0 1 .373-1.323l4.359-.59a.75.75 0 0 0 .592-.455l1.645-3.941Zm20 0a.75.75 0 0 1 1.384 0l1.645 3.941a.75.75 0 0 0 .592.455l4.359.59a.75.75 0 0 1 .373 1.324l-3.356 2.739a.75.75 0 0 0-.257.75l1.073 4.635c.155.67-.599 1.178-1.162.783l-3.528-2.476a.75.75 0 0 0-.862 0l-3.528 2.476c-.563.395-1.317-.113-1.162-.783l1.073-4.635a.75.75 0 0 0-.257-.75l-3.356-2.74a.75.75 0 0 1 .373-1.323l4.359-.59a.75.75 0 0 0 .591-.455l1.646-3.941Zm20 0a.75.75 0 0 1 1.384 0l1.645 3.941a.75.75 0 0 0 .592.455l4.359.59a.75.75 0 0 1 .373 1.324l-3.356 2.739a.75.75 0 0 0-.257.75l1.073 4.635c.155.67-.599 1.178-1.162.783l-3.528-2.476a.75.75 0 0 0-.862 0l-3.528 2.476c-.563.395-1.317-.113-1.162-.783l1.073-4.635a.75.75 0 0 0-.257-.75l-3.356-2.74a.75.75 0 0 1 .373-1.323l4.359-.59a.75.75 0 0 0 .592-.455l1.645-3.941Zm20 0a.75.75 0 0 1 1.384 0l1.646 3.941a.75.75 0 0 0 .591.455l4.359.59a.75.75 0 0 1 .373 1.324l-3.356 2.739a.75.75 0 0 0-.257.75l1.073 4.635c.155.67-.599 1.178-1.162.783l-3.528-2.476a.75.75 0 0 0-.862 0l-3.528 2.476c-.563.395-1.317-.113-1.162-.783l1.073-4.635a.75.75 0 0 0-.257-.75l-3.356-2.74a.75.75 0 0 1 .373-1.323l4.359-.59a.75.75 0 0 0 .591-.455l1.646-3.941Zm20 0a.75.75 0 0 1 1.384 0l1.646 3.941a.75.75 0 0 0 .591.455l4.359.59a.75.75 0 0 1 .373 1.324l-3.356 2.739a.75.75 0 0 0-.257.75l1.073 4.635c.155.67-.599 1.178-1.162.783l-3.528-2.476a.75.75 0 0 0-.862 0l-3.528 2.476c-.563.395-1.317-.113-1.162-.783l1.073-4.635a.75.75 0 0 0-.257-.75l-3.356-2.74a.75.75 0 0 1 .373-1.323l4.359-.59a.75.75 0 0 0 .591-.455l1.646-3.941Z"/>
</symbol></svg>