<svg width="46" height="30" viewBox="0 0 46 30" fill="none" xmlns="http://www.w3.org/2000/svg">
<path fill-rule="evenodd" clip-rule="evenodd" d="M22.2407 19.3866V15.8649H24.0582C24.803 15.8649 25.4317 15.6154 25.9441 15.1232L26.0671 14.9984C27.0033 13.9794 26.9418 12.3919 25.9441 11.4491C25.4453 10.95 24.7621 10.6796 24.0582 10.6935H21.1406V19.3866H22.2407ZM22.2408 14.7974V11.7611H24.086C24.4824 11.7611 24.8583 11.9135 25.1385 12.1909C25.733 12.7731 25.7467 13.7437 25.1726 14.3468C24.8924 14.6449 24.496 14.8112 24.086 14.7974H22.2408ZM31.1987 13.9031C30.7272 13.4664 30.085 13.2446 29.2718 13.2446C28.2264 13.2446 27.4406 13.6327 26.9213 14.4022L27.8915 15.0192C28.2469 14.4923 28.732 14.229 29.347 14.229C29.7365 14.229 30.1122 14.3746 30.4061 14.6379C30.6931 14.8875 30.8571 15.248 30.8571 15.6293V15.8857C30.4334 15.6501 29.9004 15.5253 29.2445 15.5253C28.4792 15.5253 27.8642 15.7055 27.4064 16.0729C26.9486 16.4403 26.7163 16.9256 26.7163 17.5426C26.7026 18.1041 26.9418 18.6379 27.3655 18.9983C27.7959 19.3866 28.3426 19.5807 28.9848 19.5807C29.7433 19.5807 30.3446 19.241 30.8024 18.5616H30.8502V19.3866H31.9025V15.7194C31.9025 14.9499 31.6702 14.3399 31.1987 13.9031ZM28.2129 18.2913C27.9874 18.1248 27.8507 17.8545 27.8507 17.5634C27.8507 17.2376 28.0011 16.9672 28.2949 16.7523C28.5956 16.5374 28.9715 16.4265 29.4157 16.4265C30.0308 16.4195 30.5091 16.5582 30.8508 16.8354C30.8508 17.3069 30.6663 17.7159 30.3041 18.0625C29.9761 18.3952 29.5319 18.5824 29.0672 18.5824C28.7596 18.5893 28.4589 18.4853 28.2129 18.2913ZM34.2667 22L37.9428 13.4387H36.7471L35.0457 17.7089H35.0252L33.2828 13.4387H32.087L34.499 19.0053L33.1324 22H34.2667Z" fill="#7C7C7C"/>
<path d="M18.4427 15.1025C18.4427 14.7628 18.4154 14.4231 18.3608 14.0904H13.7212V16.0106H16.3792C16.2699 16.6276 15.9146 17.1822 15.3952 17.5288V18.7766H16.9805C17.9097 17.9101 18.4427 16.6276 18.4427 15.1025Z" fill="#7C7C7C"/>
<path d="M13.7217 19.9827C15.0473 19.9827 16.1679 19.539 16.981 18.7764L15.3958 17.5287C14.9517 17.8337 14.3846 18.007 13.7217 18.007C12.4372 18.007 11.3507 17.1265 10.9612 15.9481H9.32812V17.2375C10.1618 18.922 11.8632 19.9827 13.7217 19.9827Z" fill="#7C7C7C"/>
<path d="M10.961 15.9481C10.7561 15.3311 10.7561 14.6587 10.961 14.0348V12.7523H9.32775C8.62382 14.1596 8.62382 15.8233 9.32775 17.2305L10.961 15.9481Z" fill="#7C7C7C"/>
<path d="M13.7217 11.976C14.4255 11.9621 15.102 12.2325 15.6076 12.7246L17.0152 11.2966C16.1201 10.4509 14.9449 9.98643 13.7217 10.0003C11.8632 10.0003 10.1618 11.0679 9.32812 12.7524L10.9612 14.0418C11.3507 12.8564 12.4372 11.976 13.7217 11.976Z" fill="#7C7C7C"/>
</svg>
