<svg width="46" height="30" viewBox="0 0 46 30" fill="none" xmlns="http://www.w3.org/2000/svg">
<path d="M15.2094 7H21.5937C22.4848 7 23.0391 7.7264 22.8312 8.62054L19.8589 21.3819C19.6491 22.273 18.7569 23 17.865 23H11.4814C10.5914 23 10.0359 22.273 10.2438 21.3819L13.2174 8.62054C13.4253 7.7264 14.3171 7 15.2094 7Z" fill="#7C7C7C"/>
<path d="M21.0625 7H28.4043C29.2953 7 28.8935 7.7264 28.6839 8.62054L25.712 21.3819C25.5035 22.273 25.5685 23 24.6756 23H17.3339C16.441 23 15.8884 22.273 16.0982 21.3819L19.0699 8.62054C19.2809 7.7264 20.1708 7 21.0625 7Z" fill="#7C7C7C"/>
<path d="M28.113 7H34.4973C35.3897 7 35.944 7.7264 35.7344 8.62054L32.7625 21.3819C32.5527 22.273 31.6598 23 30.7676 23H24.3862C23.4933 23 22.9395 22.273 23.1486 21.3819L26.121 8.62054C26.3289 7.7264 27.2201 7 28.113 7Z" fill="#7C7C7C"/>
<path d="M16.8769 11.0896C16.2204 11.0963 16.0265 11.0896 15.9646 11.075C15.9407 11.1881 15.4977 13.2318 15.4965 13.2335C15.4011 13.647 15.3317 13.9417 15.0959 14.132C14.9621 14.2426 14.8059 14.296 14.6247 14.296C14.3336 14.296 14.164 14.1515 14.1355 13.8773L14.13 13.7831C14.13 13.7831 14.2187 13.2293 14.2187 13.2262C14.2187 13.2262 14.6837 11.3638 14.767 11.1177C14.7713 11.1036 14.7726 11.0963 14.7737 11.0896C13.8686 11.0976 13.7082 11.0896 13.6971 11.075C13.6911 11.0951 13.6687 11.2106 13.6687 11.2106L13.1939 13.3096L13.1531 13.4876L13.0742 14.0699C13.0742 14.2426 13.1081 14.3836 13.1757 14.5028C13.392 14.8808 14.009 14.9375 14.358 14.9375C14.8077 14.9375 15.2296 14.8419 15.5147 14.6675C16.0095 14.3751 16.139 13.918 16.2545 13.5119L16.308 13.3035C16.308 13.3035 16.787 11.3693 16.8683 11.1177C16.8715 11.1036 16.8727 11.0963 16.8769 11.0896ZM18.5066 12.65C18.3911 12.65 18.1801 12.678 17.9906 12.7709C17.9218 12.8063 17.8567 12.847 17.7881 12.8876L17.8501 12.664L17.8161 12.6264C17.4142 12.7078 17.3242 12.7186 16.953 12.7709L16.9218 12.7916C16.8787 13.1491 16.8404 13.4178 16.6806 14.1204C16.6198 14.3793 16.5566 14.6408 16.4933 14.8991L16.5104 14.9319C16.8909 14.9118 17.0063 14.9118 17.337 14.9173L17.3638 14.8882C17.4058 14.673 17.4112 14.6226 17.5043 14.1867C17.548 13.98 17.6392 13.526 17.6842 13.3643C17.7668 13.326 17.8483 13.2883 17.9261 13.2883C18.1115 13.2883 18.0889 13.45 18.0818 13.5144C18.0738 13.6226 18.0063 13.9758 17.937 14.2791L17.8908 14.4749C17.8586 14.6194 17.8233 14.76 17.7911 14.9033L17.8051 14.9319C18.1801 14.9118 18.2945 14.9118 18.6147 14.9173L18.6524 14.8882C18.7103 14.5521 18.7272 14.4621 18.8299 13.9727L18.8816 13.7479C18.982 13.3078 19.0324 13.0846 18.9565 12.9029C18.8762 12.6992 18.6835 12.65 18.5066 12.65ZM20.3271 13.1108C20.1278 13.1491 20.0006 13.1746 19.8743 13.1911C19.749 13.2111 19.6269 13.2293 19.4342 13.2561L19.419 13.27L19.405 13.281C19.3849 13.4245 19.3709 13.5485 19.3443 13.6943C19.3217 13.8451 19.287 14.0164 19.2305 14.2626C19.1868 14.4511 19.1642 14.5167 19.1393 14.583C19.1151 14.6493 19.0883 14.7137 19.0391 14.8991L19.0506 14.9162L19.0603 14.9319C19.2403 14.9233 19.3581 14.9173 19.4792 14.9162C19.6001 14.9118 19.7254 14.9162 19.9193 14.9173L19.9362 14.9034L19.9544 14.8882C19.9824 14.721 19.9866 14.6761 20.0037 14.5945C20.0207 14.5071 20.05 14.386 20.1217 14.0626C20.1556 13.9108 20.1934 13.7594 20.2286 13.6044C20.2652 13.45 20.3035 13.298 20.3399 13.1461L20.3344 13.1277L20.3271 13.1108ZM20.3314 12.4895C20.1502 12.3826 19.8323 12.4166 19.6183 12.5642C19.405 12.709 19.3807 12.9144 19.5612 13.0227C19.7393 13.1266 20.0584 13.0956 20.2705 12.9467C20.4834 12.7989 20.51 12.5954 20.3314 12.4895ZM21.4268 14.9654C21.7933 14.9654 22.1689 14.8644 22.4516 14.5647C22.6692 14.3216 22.7689 13.96 22.8035 13.8111C22.916 13.3175 22.8284 13.087 22.7184 12.9466C22.5512 12.7327 22.2559 12.6641 21.9495 12.6641C21.7652 12.6641 21.3264 12.6823 20.9836 12.9983C20.7374 13.2263 20.6237 13.5356 20.555 13.8322C20.4858 14.1344 20.4061 14.6785 20.9064 14.8809C21.0608 14.9472 21.2833 14.9654 21.4268 14.9654ZM21.3982 13.8548C21.4827 13.481 21.5824 13.1673 21.837 13.1673C22.0365 13.1673 22.0509 13.4007 21.9622 13.7757C21.9464 13.859 21.8735 14.1685 21.775 14.3003C21.7063 14.3976 21.6249 14.4565 21.5349 14.4565C21.5082 14.4565 21.349 14.4565 21.3465 14.2202C21.3452 14.1035 21.3691 13.9843 21.3982 13.8548ZM23.7196 14.9173L23.7482 14.8882C23.7888 14.673 23.7955 14.6224 23.8855 14.1867C23.9304 13.9801 24.0235 13.526 24.0672 13.3643C24.15 13.3259 24.2301 13.2882 24.3104 13.2882C24.4945 13.2882 24.4721 13.4499 24.4648 13.5143C24.4581 13.6226 24.3906 13.9757 24.3201 14.279L24.2764 14.4748C24.2429 14.6195 24.2065 14.7599 24.1743 14.9033L24.1883 14.932C24.5645 14.9119 24.6746 14.9119 24.9967 14.9173L25.0356 14.8882C25.0921 14.552 25.1073 14.462 25.2131 13.9728L25.2636 13.7478C25.3644 13.3077 25.4154 13.0847 25.3407 12.9029C25.2581 12.6992 25.0642 12.6501 24.8898 12.6501C24.7742 12.6501 24.5621 12.6779 24.3736 12.771C24.3062 12.8063 24.2387 12.8469 24.1724 12.8877L24.2301 12.6641L24.1992 12.6263C23.7974 12.7078 23.7056 12.7187 23.3347 12.771L23.3063 12.7917C23.2613 13.1491 23.2247 13.4177 23.0649 14.1204C23.0041 14.3794 22.9409 14.6408 22.8777 14.8991L22.8947 14.932C23.2758 14.9119 23.3895 14.9119 23.7196 14.9173ZM26.4841 14.9319C26.5077 14.8164 26.6483 14.132 26.6495 14.132C26.6495 14.132 26.7692 13.6299 26.7765 13.6117C26.7765 13.6117 26.8141 13.5594 26.8518 13.5387H26.9072C27.4299 13.5387 28.0201 13.5387 28.4828 13.1984C28.7976 12.9649 29.0128 12.6203 29.1088 12.2014C29.1337 12.0987 29.1521 11.9765 29.1521 11.8543C29.1521 11.6939 29.1198 11.5352 29.0268 11.4112C28.7909 11.0811 28.3211 11.075 27.7788 11.0726C27.7771 11.0726 27.5114 11.075 27.5114 11.075C26.8173 11.0836 26.5389 11.0811 26.4245 11.0671C26.4148 11.1177 26.3966 11.2076 26.3966 11.2076C26.3966 11.2076 26.148 12.3601 26.148 12.362C26.148 12.362 25.5529 14.8122 25.5249 14.9277C26.131 14.9204 26.3795 14.9204 26.4841 14.9319ZM26.9449 12.8847C26.9449 12.8847 27.2092 11.7345 27.208 11.7389L27.2166 11.6799L27.2203 11.6349L27.326 11.6458C27.326 11.6458 27.8712 11.6927 27.884 11.6939C28.0992 11.7772 28.1879 11.9918 28.1259 12.2719C28.0695 12.5278 27.9034 12.743 27.6901 12.847C27.5144 12.9351 27.2992 12.9424 27.0774 12.9424H26.934L26.9449 12.8847ZM28.591 13.8761C28.5211 14.1739 28.4408 14.718 28.9386 14.9119C29.0973 14.9794 29.2396 14.9995 29.3841 14.9921C29.5368 14.9839 29.6782 14.9073 29.8093 14.7972C29.7974 14.8425 29.7856 14.8877 29.7738 14.9332L29.7963 14.9623C30.1544 14.9472 30.2655 14.9472 30.6535 14.9501L30.6886 14.9234C30.7453 14.5904 30.7986 14.267 30.9459 13.6299C31.0176 13.3248 31.0892 13.0226 31.1628 12.7187L31.1513 12.6852C30.7507 12.7594 30.6437 12.7753 30.2584 12.8299L30.2291 12.8537C30.2252 12.8847 30.2212 12.9144 30.2174 12.9441C30.1575 12.8474 30.0707 12.7647 29.9367 12.7132C29.7654 12.6458 29.363 12.7327 29.017 13.0476C28.774 13.2725 28.6573 13.5806 28.591 13.8761ZM29.4322 13.8943C29.518 13.5272 29.6165 13.2166 29.8717 13.2166C30.033 13.2166 30.118 13.3655 30.1007 13.6195C30.087 13.6828 30.0722 13.7496 30.0547 13.8251C30.0291 13.9341 30.0014 14.0423 29.9745 14.1506C29.9471 14.2247 29.9152 14.2945 29.8802 14.3411C29.8146 14.4341 29.6583 14.4919 29.5684 14.4919C29.5429 14.4919 29.3854 14.4919 29.3799 14.2597C29.3787 14.1441 29.4025 14.025 29.4322 13.8943ZM33.8252 12.6822L33.7942 12.6469C33.3979 12.7272 33.3262 12.74 32.962 12.7891L32.9353 12.8159C32.934 12.8203 32.9329 12.827 32.9311 12.833L32.9298 12.827C32.6587 13.4524 32.6667 13.3174 32.446 13.8098C32.4448 13.7874 32.4448 13.7734 32.4435 13.7496L32.3883 12.6822L32.3536 12.6469C31.9384 12.7272 31.9286 12.74 31.5452 12.7891L31.5153 12.8159C31.5111 12.8287 31.5111 12.8427 31.5086 12.8579L31.5111 12.8634C31.559 13.1083 31.5475 13.0537 31.5956 13.4402C31.618 13.6299 31.6479 13.8207 31.6703 14.008C31.7081 14.3216 31.7293 14.476 31.7755 14.9545C31.5166 15.3818 31.4552 15.5435 31.206 15.9185L31.2077 15.9222L31.0321 16.1998C31.0121 16.2291 30.9939 16.2492 30.9683 16.2577C30.9403 16.2716 30.9039 16.2741 30.8533 16.2741H30.7561L30.6115 16.7549L31.1075 16.7635C31.3986 16.7622 31.5816 16.6261 31.6801 16.4431L31.992 15.9087H31.987L32.0198 15.871C32.2296 15.4194 33.8252 12.6822 33.8252 12.6822ZM28.591 18.9973H28.3806L29.1593 16.4218H29.4176L29.4996 16.1565L29.5075 16.4515C29.4979 16.6339 29.6413 16.7956 30.0182 16.7688H30.4541L30.6041 16.2729H30.4401C30.3458 16.2729 30.3021 16.2491 30.3075 16.198L30.2996 15.8979H29.4924V15.8994C29.2315 15.9049 28.4522 15.9245 28.2944 15.9665C28.1034 16.0157 27.9022 16.1604 27.9022 16.1604L27.9813 15.8948H27.2262L27.0689 16.4218L26.2798 19.0367H26.1267L25.9765 19.5291H27.4804L27.4299 19.6932H28.171L28.2201 19.5291H28.428L28.591 18.9973ZM27.974 16.9451C27.8531 16.9786 27.628 17.0801 27.628 17.0801L27.8282 16.4218H28.428L28.2833 16.9014C28.2833 16.9014 28.098 16.9123 27.974 16.9451ZM27.9855 17.8855C27.9855 17.8855 27.797 17.9092 27.673 17.9372C27.5509 17.9742 27.3218 18.0909 27.3218 18.0909L27.5284 17.4059H28.1314L27.9855 17.8855ZM27.6494 19.0034H27.0476L27.222 18.4253H27.8219L27.6494 19.0034ZM29.0985 17.4059H29.9659L29.8412 17.8096H28.9623L28.8304 18.2509H29.5994L29.0171 19.0708C28.9764 19.131 28.9398 19.1523 28.8992 19.1693C28.8584 19.19 28.8049 19.2143 28.7429 19.2143H28.5296L28.383 19.6976H28.941C29.2311 19.6976 29.4024 19.5656 29.5289 19.3924L29.9282 18.8459L30.014 19.4008C30.0322 19.5048 30.1069 19.5656 30.1574 19.5893C30.2133 19.6173 30.271 19.6654 30.3526 19.6725C30.44 19.6763 30.5032 19.6792 30.5452 19.6792H30.8194L30.9841 19.1383H30.8759C30.8138 19.1383 30.7069 19.1279 30.6887 19.1085C30.6705 19.0848 30.6705 19.0484 30.6607 18.993L30.5737 18.4368H30.2175L30.3737 18.2509H31.2509L31.3858 17.8096H30.5737L30.7002 17.4059H31.5099L31.66 16.9081H29.2462L29.0985 17.4059ZM21.7726 19.1158L21.975 18.4423H22.8071L22.9591 17.9414H22.1263L22.2534 17.5269H23.0673L23.2181 17.0418H21.1817L21.0341 17.5269H21.4967L21.3733 17.9414H20.9094L20.7557 18.4509H21.2181L20.9483 19.3419C20.9119 19.4599 20.9654 19.5048 20.9994 19.5596C21.0341 19.613 21.0692 19.6483 21.1483 19.6684C21.2298 19.6866 21.2857 19.6975 21.3616 19.6975H22.2996L22.4668 19.1426L22.051 19.1997C21.9707 19.1997 21.7483 19.19 21.7726 19.1158ZM21.868 15.8917L21.6572 16.2728C21.612 16.3561 21.5714 16.4077 21.5349 16.4315C21.5026 16.4516 21.4388 16.46 21.3464 16.46H21.2364L21.0893 16.9476H21.4547C21.6304 16.9476 21.7653 16.8831 21.8297 16.8509C21.899 16.8139 21.9172 16.835 21.9707 16.7834L22.0941 16.6765H23.2351L23.3865 16.1689H22.5513L22.6971 15.8917H21.868ZM23.5524 19.1256C23.533 19.0976 23.547 19.0483 23.5767 18.9456L23.8885 17.9134H24.9979C25.1596 17.9111 25.2763 17.9092 25.3522 17.9037C25.4338 17.8952 25.5225 17.8661 25.6191 17.8138C25.7189 17.759 25.7699 17.7013 25.813 17.635C25.8611 17.5689 25.9383 17.4241 26.0046 17.201L26.3965 15.8948L25.2453 15.9015C25.2453 15.9015 24.8908 15.9538 24.7348 16.0115C24.5773 16.0759 24.3523 16.2558 24.3523 16.2558L24.4562 15.8977H23.7451L22.7495 19.1997C22.7141 19.3279 22.6905 19.421 22.685 19.4768C22.6832 19.537 22.761 19.5966 22.8114 19.6416C22.871 19.6866 22.9591 19.6793 23.0436 19.6866C23.1324 19.6933 23.2588 19.6975 23.4332 19.6975H23.9797L24.1475 19.131L23.6582 19.1773C23.606 19.1773 23.5681 19.1493 23.5524 19.1256ZM24.0898 17.2162H25.255L25.1809 17.4484C25.1705 17.4539 25.1456 17.4369 25.027 17.4509H24.018L24.0898 17.2162ZM24.3232 16.4376H25.4982L25.4137 16.7172C25.4137 16.7172 24.8599 16.7118 24.7712 16.7281C24.3809 16.7956 24.1529 17.0041 24.1529 17.0041L24.3232 16.4376ZM25.207 18.2259C25.1973 18.2606 25.1821 18.2818 25.1608 18.2976C25.1371 18.3129 25.0988 18.3183 25.0417 18.3183H24.8757L24.8855 18.0356H24.1949L24.1669 19.4179C24.1658 19.5176 24.1754 19.5754 24.2484 19.6216C24.3214 19.6793 24.5463 19.6866 24.8489 19.6866H25.2817L25.4379 19.1692L25.0612 19.1899L24.9359 19.1972C24.9188 19.1899 24.9025 19.1832 24.8842 19.165C24.8684 19.1493 24.8416 19.1589 24.846 19.0592L24.8489 18.7049L25.244 18.6885C25.4574 18.6885 25.5486 18.6191 25.6264 18.553C25.7006 18.4897 25.7249 18.4168 25.7529 18.3183L25.8192 18.0046H25.2762L25.207 18.2259Z" fill="#141519"/>
</svg>
