<svg xmlns="http://www.w3.org/2000/svg" width="30" height="30" fill="none" viewBox="0 0 30 30">
  <path fill="#25D366" d="M15 30c8.284 0 15-6.716 15-15 0-8.284-6.716-15-15-15C6.716 0 0 6.716 0 15c0 8.284 6.716 15 15 15Z"/>
  <path fill="#FDFDFD" fill-rule="evenodd" d="M15.494 23.345h-.003a8.911 8.911 0 0 1-4.263-1.085L6.5 23.5l1.265-4.622a8.903 8.903 0 0 1-1.19-4.46c.002-4.917 4.003-8.918 8.92-8.918a8.862 8.862 0 0 1 6.309 2.616 8.865 8.865 0 0 1 2.61 6.31c-.002 4.917-4.002 8.917-8.92 8.92Zm-4.047-2.7.27.16a7.403 7.403 0 0 0 3.774 1.034h.003c4.086 0 7.412-3.326 7.413-7.413a7.37 7.37 0 0 0-2.169-5.245 7.363 7.363 0 0 0-5.241-2.174c-4.09 0-7.415 3.325-7.417 7.412 0 1.401.392 2.765 1.134 3.946l.176.28-.749 2.736 2.806-.736Zm8.236-4.299c.155.075.26.126.305.2.056.094.056.54-.13 1.06-.186.521-1.076.996-1.504 1.06-.384.058-.87.082-1.404-.088-.324-.103-.739-.24-1.27-.47-2.09-.902-3.502-2.927-3.769-3.31a2.572 2.572 0 0 0-.039-.055l-.002-.002c-.118-.157-.908-1.212-.908-2.303 0-1.027.504-1.565.737-1.812l.043-.047a.819.819 0 0 1 .594-.28c.149 0 .298.002.428.009h.05c.13 0 .291-.001.451.382l.246.598c.192.467.404.982.441 1.057.056.112.093.242.019.39a5.916 5.916 0 0 0-.031.064 1.266 1.266 0 0 1-.192.308c-.037.044-.076.09-.114.138a3.652 3.652 0 0 1-.22.253c-.112.11-.228.232-.098.455s.577.953 1.24 1.543a5.755 5.755 0 0 0 1.645 1.04c.061.027.11.048.147.067.223.111.353.093.483-.056s.557-.65.706-.874c.148-.223.297-.186.5-.111.205.074 1.301.613 1.524.725l.122.06Z" clip-rule="evenodd"/>
</svg>
