<svg width="15" height="15" viewBox="0 0 15 15" fill="none" xmlns="http://www.w3.org/2000/svg">
<path d="M11.6938 5.88125C11.6357 5.82267 11.5665 5.77618 11.4904 5.74445C11.4142 5.71272 11.3325 5.69638 11.25 5.69638C11.1675 5.69638 11.0858 5.71272 11.0096 5.74445C10.9335 5.77618 10.8644 5.82267 10.8063 5.88125L7.94376 8.74375C7.88566 8.80233 7.81653 8.84882 7.74037 8.88056C7.66421 8.91229 7.58251 8.92862 7.50001 8.92862C7.4175 8.92862 7.33581 8.91229 7.25965 8.88056C7.18349 8.84882 7.11436 8.80233 7.05626 8.74375L4.19376 5.88125C4.13566 5.82267 4.06653 5.77618 3.99037 5.74445C3.91421 5.71272 3.83251 5.69638 3.75001 5.69638C3.6675 5.69638 3.58581 5.71272 3.50965 5.74445C3.43348 5.77618 3.36436 5.82267 3.30626 5.88125C3.18985 5.99836 3.12451 6.15676 3.12451 6.32188C3.12451 6.48699 3.18985 6.6454 3.30626 6.7625L6.17501 9.63125C6.52657 9.98237 7.00313 10.1796 7.50001 10.1796C7.99688 10.1796 8.47344 9.98237 8.82501 9.63125L11.6938 6.7625C11.8102 6.6454 11.8755 6.48699 11.8755 6.32188C11.8755 6.15676 11.8102 5.99836 11.6938 5.88125Z" fill="#B2B2B2"/>
</svg>
