<svg width="24" height="24" viewBox="0 0 24 24" fill="none" xmlns="http://www.w3.org/2000/svg">
<g clip-path="url(#clip0_1_3594)">
<path d="M14.3681 15.8916C14.165 15.8916 13.9619 16.0763 13.9619 16.6948C13.9619 17.3134 14.165 17.498 14.3681 17.498C14.5712 17.498 14.7743 17.3134 14.7743 16.6948C14.7743 16.0762 14.5712 15.8916 14.3681 15.8916Z" fill="url(#paint0_linear_1_3594)"/>
<path d="M9.63179 12.8452C9.42869 12.8452 9.22559 13.0299 9.22559 13.6484C9.22559 14.267 9.42869 14.4516 9.63179 14.4516C9.83489 14.4516 10.038 14.267 10.038 13.6484C10.038 13.0299 9.83489 12.8452 9.63179 12.8452Z" fill="url(#paint1_linear_1_3594)"/>
<path d="M19.0272 8.51439C16.9923 6.26695 15.7831 4.28854 15.1268 3.02456C14.4161 1.65549 14.1833 0.80654 14.1815 0.799784L13.9699 0L13.2144 0.337001C13.1261 0.376364 11.0386 1.32834 9.86891 3.66764C9.28175 4.84201 9.16432 6.14952 9.16925 7.03953C9.17211 7.55748 8.80513 8.00723 8.29669 8.10889C7.94022 8.18011 7.57353 8.0693 7.31624 7.81201L5.90888 6.40465L5.42475 7.07223C5.37451 7.14152 4.19137 8.77323 3.97597 9.09925C2.92416 10.6915 2.3757 12.5462 2.38992 14.463C2.40897 17.023 3.4157 19.4214 5.22465 21.2165C7.03352 23.0115 9.43963 24 11.9998 24C17.2987 24 21.6097 19.6889 21.6097 14.39C21.6098 12.4687 20.6685 10.3271 19.0272 8.51439ZM14.3678 18.4952C13.3892 18.4952 12.6506 17.8489 12.6506 16.6949C12.6506 15.5502 13.3891 14.8946 14.3678 14.8946C15.3464 14.8946 16.085 15.5501 16.085 16.6949C16.085 17.8489 15.3464 18.4952 14.3678 18.4952ZM13.4261 11.9404H14.9863L10.5734 18.4028H9.01316L13.4261 11.9404ZM7.91456 13.6483C7.91456 12.5036 8.65312 11.8481 9.63175 11.8481C10.6104 11.8481 11.3489 12.5036 11.3489 13.6483C11.3489 14.8023 10.6104 15.4486 9.63175 15.4486C8.65312 15.4486 7.91456 14.8023 7.91456 13.6483Z" fill="url(#paint2_linear_1_3594)"/>
</g>
<defs>
<linearGradient id="paint0_linear_1_3594" x1="13.96" y1="16.6948" x2="14.7762" y2="16.6948" gradientUnits="userSpaceOnUse">
<stop stop-color="#C9B09A"/>
<stop offset="1" stop-color="#C9B09A" stop-opacity="0.25"/>
</linearGradient>
<linearGradient id="paint1_linear_1_3594" x1="9.22369" y1="13.6484" x2="10.0399" y2="13.6484" gradientUnits="userSpaceOnUse">
<stop stop-color="#C9B09A"/>
<stop offset="1" stop-color="#C9B09A" stop-opacity="0.25"/>
</linearGradient>
<linearGradient id="paint2_linear_1_3594" x1="2.34486" y1="12" x2="21.6544" y2="12" gradientUnits="userSpaceOnUse">
<stop stop-color="#C9B09A"/>
<stop offset="1" stop-color="#C9B09A" stop-opacity="0.25"/>
</linearGradient>
<clipPath id="clip0_1_3594">
<rect width="24" height="24" fill="white"/>
</clipPath>
</defs>
</svg>
