<svg width="24" height="24" viewBox="0 0 24 24" fill="none" xmlns="http://www.w3.org/2000/svg">
<g clip-path="url(#clip0_1_3631)">
<path d="M3.87002 3.86992L3.00002 2.99992C2.61502 5.68992 2.75002 4.73992 2.50002 6.49992L6.25002 6.24992L5.28502 5.28492C6.83978 3.73132 8.88514 2.7649 11.0726 2.55033C13.26 2.33575 15.4542 2.8863 17.2812 4.10817C19.1082 5.33003 20.455 7.1476 21.0921 9.25117C21.7293 11.3547 21.6173 13.6142 20.7752 15.6444C19.9332 17.6747 18.4132 19.3501 16.4743 20.3853C14.5354 21.4205 12.2976 21.7514 10.1421 21.3215C7.98659 20.8916 6.04683 19.7277 4.65334 18.0279C3.25985 16.3282 2.49885 14.1979 2.50002 11.9999H0.500018C0.402551 15.0499 1.52068 18.0137 3.60843 20.2393C5.69618 22.4649 8.58253 23.7699 11.6325 23.8674C14.6825 23.9649 17.6463 22.8468 19.8719 20.759C22.0975 18.6713 23.4025 15.7849 23.5 12.7349C24.14 2.12492 11.295 -3.55508 3.87002 3.86992Z" fill="url(#paint0_linear_1_3631)"/>
<path d="M6.31502 7.24992L4.89002 7.33992C3.71746 9.12259 3.25825 11.2811 3.60359 13.3867C3.94892 15.4922 5.07354 17.391 6.7541 18.7057C8.43466 20.0204 10.5482 20.655 12.675 20.4834C14.8019 20.3119 16.7864 19.3467 18.2344 17.7795C19.6825 16.2124 20.4882 14.158 20.4915 12.0242C20.4948 9.8905 19.6956 7.83356 18.2524 6.26191C16.8092 4.69027 14.8277 3.71888 12.7015 3.54066C10.5752 3.36244 8.45967 3.99043 6.77502 5.29992C6.71502 5.29992 6.73002 5.29992 6.95502 5.54492C7.09088 5.68072 7.18474 5.85278 7.2254 6.04052C7.26605 6.22827 7.25177 6.42375 7.18427 6.60359C7.11676 6.78343 6.99888 6.94002 6.84473 7.05464C6.69058 7.16926 6.50668 7.23705 6.31502 7.24992ZM13.5 13.8299C13.345 12.8899 12.25 12.9999 11.65 12.9999C10.8593 13.0175 10.092 12.7313 9.50601 12.2002C8.92001 11.6691 8.55997 10.9335 8.50002 10.1449C8.46543 9.41185 8.70075 8.69153 9.16144 8.12026C9.62214 7.549 10.2763 7.16642 11 7.04492C11 5.90992 10.935 5.64492 11.295 5.29492C11.4349 5.15591 11.6127 5.06134 11.8061 5.0231C11.9995 4.98486 12.1999 5.00466 12.3821 5.08C12.5643 5.15534 12.7202 5.28287 12.8302 5.44655C12.9401 5.61022 12.9992 5.80275 13 5.99992V6.99992H14.5C14.6313 7.00353 14.7607 7.03297 14.8806 7.08656C15.0006 7.14015 15.1088 7.21684 15.1991 7.31226C15.2894 7.40767 15.36 7.51993 15.4069 7.64264C15.4538 7.76535 15.4761 7.8961 15.4725 8.02742C15.4689 8.15874 15.4395 8.28807 15.3859 8.40801C15.3323 8.52795 15.2556 8.63617 15.1602 8.72647C15.0648 8.81678 14.9525 8.8874 14.8298 8.93432C14.7071 8.98124 14.5763 9.00353 14.445 8.99992H11.5C11.3531 8.99778 11.2075 9.02804 11.0736 9.08857C10.9397 9.14909 10.8207 9.23838 10.7253 9.35009C10.6298 9.4618 10.5601 9.59318 10.5212 9.73487C10.4822 9.87657 10.475 10.0251 10.5 10.1699C10.655 11.1099 11.75 10.9999 12.35 10.9999C13.1407 10.9823 13.908 11.2685 14.494 11.7996C15.08 12.3307 15.4401 13.0663 15.5 13.8549C15.5346 14.588 15.2993 15.3083 14.8386 15.8796C14.3779 16.4508 13.7238 16.8334 13 16.9549C13 18.0899 13.065 18.3549 12.705 18.7049C12.5652 18.8439 12.3874 18.9385 12.1939 18.9767C12.0005 19.015 11.8001 18.9952 11.6179 18.9198C11.4357 18.8445 11.2798 18.717 11.1699 18.5533C11.0599 18.3896 11.0008 18.1971 11 17.9999V16.9999H9.50002C9.3687 16.9963 9.23937 16.9669 9.11943 16.9133C8.99948 16.8597 8.89127 16.783 8.80097 16.6876C8.71066 16.5922 8.64003 16.4799 8.59311 16.3572C8.5462 16.2345 8.52391 16.1037 8.52752 15.9724C8.53113 15.8411 8.56057 15.7118 8.61416 15.5918C8.66775 15.4719 8.74444 15.3637 8.83986 15.2734C8.93527 15.1831 9.04753 15.1124 9.17024 15.0655C9.29295 15.0186 9.4237 14.9963 9.55502 14.9999H12.5C12.647 15.0021 12.7926 14.9718 12.9265 14.9113C13.0604 14.8507 13.1793 14.7615 13.2748 14.6497C13.3702 14.538 13.4399 14.4067 13.4789 14.265C13.5178 14.1233 13.525 13.9747 13.5 13.8299Z" fill="url(#paint1_linear_1_3631)"/>
</g>
<defs>
<linearGradient id="paint0_linear_1_3631" x1="0.44048" y1="12.186" x2="23.5765" y2="12.186" gradientUnits="userSpaceOnUse">
<stop stop-color="#C9B09A"/>
<stop offset="1" stop-color="#C9B09A" stop-opacity="0.25"/>
</linearGradient>
<linearGradient id="paint1_linear_1_3631" x1="0.44048" y1="12.186" x2="23.5765" y2="12.186" gradientUnits="userSpaceOnUse">
<stop stop-color="#C9B09A"/>
<stop offset="1" stop-color="#C9B09A" stop-opacity="0.25"/>
</linearGradient>
<clipPath id="clip0_1_3631">
<rect width="24" height="24" fill="white"/>
</clipPath>
</defs>
</svg>
