<svg width="24" height="24" viewBox="0 0 24 24" fill="none" xmlns="http://www.w3.org/2000/svg">
<path d="M22.0737 6.17758C22.045 5.54619 22.045 4.9435 22.045 4.34081C22.045 3.85291 21.6719 3.47982 21.184 3.47982C17.5966 3.47982 14.8701 2.44664 12.6029 0.236771C12.2585 -0.0789238 11.7419 -0.0789238 11.3975 0.236771C9.13024 2.44664 6.40378 3.47982 2.81634 3.47982C2.32844 3.47982 1.95535 3.85291 1.95535 4.34081C1.95535 4.9435 1.95535 5.54619 1.92665 6.17758C1.81185 12.2045 1.63965 20.47 11.7132 23.9426L12.0002 24L12.2872 23.9426C22.332 20.47 22.1885 12.2332 22.0737 6.17758ZM11.3114 14.5291C11.1392 14.6726 10.9383 14.7587 10.7087 14.7587H10.68C10.4504 14.7587 10.2208 14.6439 10.0773 14.4717L7.40826 11.5157L8.69974 10.3677L10.7948 12.6924L15.4441 8.27264L16.6208 9.53543L11.3114 14.5291Z" fill="url(#paint0_linear_1_3622)"/>
<defs>
<linearGradient id="paint0_linear_1_3622" x1="1.85333" y1="12" x2="22.1459" y2="12" gradientUnits="userSpaceOnUse">
<stop stop-color="#C9B09A"/>
<stop offset="1" stop-color="#C9B09A" stop-opacity="0.25"/>
</linearGradient>
</defs>
</svg>
