<svg width="24" height="24" viewBox="0 0 24 24" fill="none" xmlns="http://www.w3.org/2000/svg">
<g clip-path="url(#clip0_1_3612)">
<path d="M19.7951 18.9009C19.8006 18.8341 19.8006 18.7669 19.7951 18.7001C19.7951 18.1086 19.5601 17.5413 19.1418 17.123C18.7235 16.7047 18.1562 16.4697 17.5646 16.4697C16.9731 16.4697 16.4058 16.7047 15.9875 17.123C15.5692 17.5413 15.3342 18.1086 15.3342 18.7001C15.3287 18.7669 15.3287 18.8341 15.3342 18.9009C15.3342 19.4924 15.5692 20.0597 15.9875 20.478C16.4058 20.8963 16.9731 21.1313 17.5646 21.1313C18.1562 21.1313 18.7235 20.8963 19.1418 20.478C19.5601 20.0597 19.7951 19.4924 19.7951 18.9009Z" fill="url(#paint0_linear_1_3612)"/>
<path d="M10.8732 18.9009C10.8787 18.8341 10.8787 18.7669 10.8732 18.7001C10.8732 18.1086 10.6382 17.5413 10.2199 17.123C9.80163 16.7047 9.23431 16.4697 8.64277 16.4697C8.05123 16.4697 7.48391 16.7047 7.06563 17.123C6.64734 17.5413 6.41235 18.1086 6.41235 18.7001C6.40682 18.7669 6.40682 18.8341 6.41235 18.9009C6.41235 19.4924 6.64734 20.0597 7.06563 20.478C7.48391 20.8963 8.05123 21.1313 8.64277 21.1313C9.23431 21.1313 9.80163 20.8963 10.2199 20.478C10.6382 20.0597 10.8732 19.4924 10.8732 18.9009Z" fill="url(#paint1_linear_1_3612)"/>
<path d="M2.50922 13.6035H0.836407C0.68284 13.6031 0.532216 13.6456 0.401476 13.7262C0.287867 13.7962 0.192668 13.8924 0.123831 14.0068C0.0549942 14.1211 0.0145187 14.2503 0.00578577 14.3834C-0.00294711 14.5166 0.0203163 14.65 0.0736324 14.7723C0.126949 14.8947 0.208769 15.0025 0.312259 15.0867C0.458223 15.2114 0.644488 15.2788 0.836407 15.2763H3.62443C3.84626 15.2763 4.059 15.3645 4.21586 15.5213C4.37271 15.6782 4.46084 15.8909 4.46084 16.1127C4.46084 16.3346 4.37271 16.5473 4.21586 16.7042C4.059 16.861 3.84626 16.9491 3.62443 16.9491H2.50922C2.28739 16.9491 2.07465 17.0373 1.91779 17.1941C1.76094 17.351 1.67281 17.5637 1.67281 17.7856C1.67281 18.0074 1.76094 18.2201 1.91779 18.377C2.07465 18.5338 2.28739 18.622 2.50922 18.622H5.5872C5.63517 18.0548 5.8441 17.5131 6.18941 17.0607C6.47801 16.6829 6.84904 16.3761 7.27423 16.1635C7.69941 15.9509 8.16752 15.8382 8.64287 15.8339C9.40897 15.831 10.1482 16.1159 10.7142 16.6323C11.2801 17.1487 11.6314 17.8588 11.6985 18.622H14.5089C14.5743 17.8566 14.9246 17.1437 15.4904 16.6242C16.0562 16.1047 16.7964 15.8164 17.5645 15.8164C18.3327 15.8164 19.0728 16.1047 19.6387 16.6242C20.2045 17.1437 20.5548 17.8566 20.6202 18.622H22.1369C22.3978 18.6272 22.6523 18.5408 22.856 18.3778C23.0598 18.2148 23.2 17.9855 23.2521 17.7298L23.9881 14.0496C23.9824 14.0239 23.9824 13.9972 23.9881 13.9715C24.004 13.8755 24.004 13.7776 23.9881 13.6816L21.8915 7.50333C21.7773 7.17522 21.5631 6.89118 21.279 6.69114C20.995 6.49109 20.6554 6.38512 20.308 6.38812H18.3006L18.4232 5.49595C18.4532 5.25956 18.4327 5.0195 18.363 4.79164C18.2934 4.56377 18.1761 4.35328 18.0191 4.17409C17.862 3.99489 17.6687 3.85107 17.4519 3.75212C17.2352 3.65318 16.9999 3.60136 16.7616 3.6001H4.18203C3.9602 3.6001 3.74746 3.68822 3.5906 3.84508C3.43375 4.00193 3.34563 4.21468 3.34563 4.4365C3.34563 4.65833 3.43375 4.87108 3.5906 5.02793C3.74746 5.18479 3.9602 5.27291 4.18203 5.27291H5.57604C5.79787 5.27291 6.01062 5.36103 6.16747 5.51789C6.32433 5.67475 6.41245 5.88749 6.41245 6.10932C6.41245 6.33115 6.32433 6.54389 6.16747 6.70075C6.01062 6.8576 5.79787 6.94572 5.57604 6.94572H0.836407C0.615477 6.94861 0.404408 7.03766 0.248173 7.1939C0.0919377 7.35013 0.00288923 7.5612 8.8299e-07 7.78213C-0.000308107 7.99349 0.0804885 8.19691 0.225733 8.35045C0.370978 8.504 0.569599 8.59596 0.780647 8.60739H3.62443C3.84626 8.60739 4.059 8.69551 4.21586 8.85236C4.37271 9.00922 4.46084 9.22196 4.46084 9.44379C4.46084 9.66562 4.37271 9.87836 4.21586 10.0352C4.059 10.1921 3.84626 10.2802 3.62443 10.2802H1.95162H1.77318C1.58725 10.3208 1.42073 10.4236 1.3011 10.5716C1.18148 10.7196 1.1159 10.904 1.11521 11.0943C1.11521 11.3161 1.20333 11.5289 1.36019 11.6857C1.51704 11.8426 1.72979 11.9307 1.95162 11.9307H2.50922C2.73105 11.9307 2.94379 12.0188 3.10065 12.1757C3.25751 12.3325 3.34563 12.5453 3.34563 12.7671C3.34563 12.9889 3.25751 13.2017 3.10065 13.3585C2.94379 13.5154 2.73105 13.6035 2.50922 13.6035ZM18.1221 8.02748H20.1518C20.2104 8.02836 20.2673 8.04695 20.315 8.08079C20.3628 8.11463 20.3992 8.16214 20.4195 8.21706L22.0254 13.0459H17.453L18.1221 8.02748Z" fill="url(#paint2_linear_1_3612)"/>
</g>
<defs>
<linearGradient id="paint0_linear_1_3612" x1="15.3197" y1="18.8005" x2="19.8096" y2="18.8005" gradientUnits="userSpaceOnUse">
<stop stop-color="#C9B09A"/>
<stop offset="1" stop-color="#C9B09A" stop-opacity="0.25"/>
</linearGradient>
<linearGradient id="paint1_linear_1_3612" x1="6.39779" y1="18.8005" x2="10.8877" y2="18.8005" gradientUnits="userSpaceOnUse">
<stop stop-color="#C9B09A"/>
<stop offset="1" stop-color="#C9B09A" stop-opacity="0.25"/>
</linearGradient>
<linearGradient id="paint2_linear_1_3612" x1="-0.0559229" y1="11.1111" x2="24.0557" y2="11.1111" gradientUnits="userSpaceOnUse">
<stop stop-color="#C9B09A"/>
<stop offset="1" stop-color="#C9B09A" stop-opacity="0.25"/>
</linearGradient>
<clipPath id="clip0_1_3612">
<rect width="24" height="24" fill="white"/>
</clipPath>
</defs>
</svg>
