<svg width="20" height="20" viewBox="0 0 20 20" fill="none" xmlns="http://www.w3.org/2000/svg">
<g clip-path="url(#clip0_1_2929)">
<path d="M11.9733 13.243C11.804 13.243 11.6348 13.3969 11.6348 13.9124C11.6348 14.4278 11.804 14.5817 11.9733 14.5817C12.1425 14.5817 12.3118 14.4278 12.3118 13.9124C12.3118 13.3969 12.1425 13.243 11.9733 13.243Z" fill="url(#paint0_linear_1_2929)"/>
<path d="M8.026 10.7042C7.85675 10.7042 7.6875 10.8581 7.6875 11.3736C7.6875 11.889 7.85675 12.0429 8.026 12.0429C8.19525 12.0429 8.3645 11.889 8.3645 11.3736C8.3645 10.8581 8.19525 10.7042 8.026 10.7042Z" fill="url(#paint1_linear_1_2929)"/>
<path d="M15.8558 7.09533C14.1601 5.22246 13.1524 3.57378 12.6055 2.52047C12.0133 1.37958 11.8192 0.672117 11.8177 0.666487L11.6414 0L11.0118 0.280834C10.9382 0.313636 9.19866 1.10695 8.22393 3.05637C7.73463 4.03501 7.63677 5.1246 7.64088 5.86627C7.64326 6.2979 7.33744 6.67269 6.91375 6.75741C6.61669 6.81676 6.31111 6.72441 6.0967 6.51L4.92391 5.33721L4.52047 5.89352C4.47859 5.95127 3.49264 7.31102 3.31315 7.58271C2.43663 8.90954 1.97959 10.4552 1.99144 12.0525C2.00731 14.1858 2.84625 16.1845 4.35372 17.6804C5.8611 19.1762 7.86619 20 9.99964 20C14.4155 20 18.008 16.4075 18.008 11.9916C18.008 10.3906 17.2236 8.60596 15.8558 7.09533ZM11.973 15.4126C11.1575 15.4126 10.542 14.8741 10.542 13.9124C10.542 12.9585 11.1575 12.4122 11.973 12.4122C12.7885 12.4122 13.404 12.9584 13.404 13.9124C13.404 14.8741 12.7885 15.4126 11.973 15.4126ZM11.1883 9.95031H12.4884L8.81097 15.3357H7.5108L11.1883 9.95031ZM6.5953 11.3736C6.5953 10.4196 7.21077 9.8734 8.02629 9.8734C8.84182 9.8734 9.45728 10.4196 9.45728 11.3736C9.45728 12.3353 8.84182 12.8738 8.02629 12.8738C7.21077 12.8738 6.5953 12.3353 6.5953 11.3736Z" fill="url(#paint2_linear_1_2929)"/>
</g>
<defs>
<linearGradient id="paint0_linear_1_2929" x1="11.6332" y1="13.9124" x2="12.3133" y2="13.9124" gradientUnits="userSpaceOnUse">
<stop stop-color="#C9B09A"/>
<stop offset="1" stop-color="#C9B09A" stop-opacity="0.25"/>
</linearGradient>
<linearGradient id="paint1_linear_1_2929" x1="7.68592" y1="11.3736" x2="8.36608" y2="11.3736" gradientUnits="userSpaceOnUse">
<stop stop-color="#C9B09A"/>
<stop offset="1" stop-color="#C9B09A" stop-opacity="0.25"/>
</linearGradient>
<linearGradient id="paint2_linear_1_2929" x1="1.95389" y1="9.99999" x2="18.0451" y2="9.99999" gradientUnits="userSpaceOnUse">
<stop stop-color="#C9B09A"/>
<stop offset="1" stop-color="#C9B09A" stop-opacity="0.25"/>
</linearGradient>
<clipPath id="clip0_1_2929">
<rect width="20" height="20" fill="white"/>
</clipPath>
</defs>
</svg>
