<svg xmlns="http://www.w3.org/2000/svg" xmlns:xlink="http://www.w3.org/1999/xlink"><defs><symbol viewBox="0 0 40 41" fill="none" id="bnb">
<path d="M39.4016 25.3381C36.7301 36.0525 25.877 42.5731 15.1601 39.9012C4.44772 37.2301 -2.07358 26.3775 0.599038 15.6639C3.26931 4.94838 14.1225 -1.57268 24.836 1.09847C35.5521 3.76961 42.073 14.6234 39.4013 25.3383L39.4015 25.3381H39.4016Z" fill="#F3BA2F" />
<path fill-rule="evenodd" clip-rule="evenodd" d="M20.0018 13.1934L14.8224 18.3722L14.8225 18.372L11.8089 15.3587L20.0018 7.16669L28.1974 15.3611L25.1838 18.3745L20.0018 13.1934ZM9.68077 17.4861L6.66699 20.5L9.68056 23.5128L12.6943 20.4994L9.68077 17.4861ZM14.8223 22.6281L20.0018 27.8067L25.1836 22.6257L28.1989 25.6374L28.1974 25.639L20.0018 33.8334L11.8089 25.6414L11.8046 25.6371L14.8223 22.6281ZM30.3231 17.4879L27.3093 20.5013L30.323 23.5145L33.3367 20.5011L30.3231 17.4879Z" fill="white" />
<path d="M23.0586 20.4984H23.0599L20.002 17.4407L17.7418 19.7L17.4822 19.9597L16.9466 20.4953L16.9424 20.4994L16.9466 20.5038L20.002 23.5593L23.0601 20.5016L23.0616 20.4999L23.0588 20.4984" fill="white" />
</symbol><symbol viewBox="0 0 40 41" fill="none" id="btc">
<path d="M39.4016 25.3381C36.7301 36.0525 25.877 42.5731 15.1601 39.9012C4.44772 37.2301 -2.07358 26.3775 0.599038 15.6639C3.26931 4.94838 14.1225 -1.57268 24.836 1.09847C35.5521 3.76961 42.073 14.6234 39.4013 25.3383L39.4015 25.3381H39.4016Z" fill="#F7931A" />
<path fill-rule="evenodd" clip-rule="evenodd" d="M28.8199 17.6504C29.218 14.9889 27.1915 13.5582 24.4203 12.6038L25.3193 8.99845L23.1244 8.45159L22.2492 11.962C21.6722 11.8181 21.0796 11.6825 20.4907 11.5481L21.3721 8.01451L19.1786 7.46765L18.2791 11.0718C17.8016 10.9631 17.3326 10.8557 16.8776 10.7425L16.8801 10.7311L13.8533 9.97534L13.2694 12.3194C13.2694 12.3194 14.8979 12.6926 14.8635 12.7156C15.7524 12.9374 15.9131 13.5257 15.8864 13.992L14.8624 18.0993C14.9236 18.1149 15.003 18.1374 15.0906 18.1726L15.0269 18.1567L15.0268 18.1566C14.9726 18.1431 14.9164 18.129 14.8586 18.1152L13.4232 23.8689C13.3146 24.1389 13.0389 24.5441 12.4175 24.3903C12.4395 24.4221 10.8222 23.9922 10.8222 23.9922L9.73242 26.5044L12.5887 27.2164C12.9015 27.2948 13.2106 27.3754 13.5166 27.4551L13.5168 27.4552C13.7306 27.5109 13.9428 27.5662 14.1536 27.6201L13.2454 31.2668L15.4377 31.8136L16.3372 28.2057C16.9362 28.3683 17.5174 28.5182 18.0864 28.6596L17.19 32.2505L19.385 32.7974L20.2932 29.1576C24.036 29.8658 26.8502 29.5803 28.0348 26.1953C28.9893 23.47 27.9873 21.898 26.0182 20.8729C27.4524 20.5422 28.5327 19.5991 28.8207 17.6507L28.82 17.6502L28.8199 17.6504ZM23.805 24.6818C23.1827 27.1821 19.2685 26.1484 17.4776 25.6755C17.3165 25.6329 17.1726 25.5949 17.0498 25.5644L18.2551 20.7332C18.4047 20.7706 18.5876 20.8116 18.7948 20.8581C20.6472 21.2738 24.4426 22.1254 23.8051 24.6818H23.805ZM19.1663 18.6158C20.6593 19.0142 23.9165 19.8834 24.4838 17.6108H24.484C25.0632 15.2866 21.8978 14.5859 20.3518 14.2436C20.1779 14.2051 20.0245 14.1712 19.8992 14.1399L18.8064 18.5216C18.9096 18.5473 19.0306 18.5796 19.1663 18.6158Z" fill="white" />
</symbol><symbol viewBox="0 0 40 41" fill="none" id="busd">
<circle cx="20" cy="20.5" r="20" fill="#F0B90B" />
<path d="M19.9405 7.16675L23.2292 10.5347L14.9479 18.816L11.6592 15.5273L19.9405 7.16675Z" fill="white" stroke="white" />
<path d="M24.933 12.1593L28.2217 15.5273L14.9479 28.8011L11.6592 25.5124L24.933 12.1593Z" fill="white" stroke="white" />
<path d="M9.95573 17.1518L13.2445 20.5198L9.95573 23.8085L6.66699 20.5198L9.95573 17.1518Z" fill="white" stroke="white" />
<path d="M29.9262 17.1518L33.2149 20.5198L19.9411 33.7936L16.6523 30.5049L29.9262 17.1518Z" fill="white" stroke="white" />
</symbol><symbol viewBox="0 0 20 20" fill="none" id="candy-box">
<path d="M4.99984 9.99999C4.99984 10.9205 4.25365 11.6667 3.33317 11.6667C2.4127 11.6667 1.6665 10.9205 1.6665 9.99999C1.6665 9.07951 2.4127 8.33332 3.33317 8.33332C4.25365 8.33332 4.99984 9.07951 4.99984 9.99999Z" fill="#B2B2B2" />
<path d="M11.6665 9.99999C11.6665 10.9205 10.9203 11.6667 9.99984 11.6667C9.07937 11.6667 8.33317 10.9205 8.33317 9.99999C8.33317 9.07951 9.07937 8.33332 9.99984 8.33332C10.9203 8.33332 11.6665 9.07951 11.6665 9.99999Z" fill="#B2B2B2" />
<path d="M18.3332 9.99999C18.3332 10.9205 17.587 11.6667 16.6665 11.6667C15.746 11.6667 14.9998 10.9205 14.9998 9.99999C14.9998 9.07952 15.746 8.33332 16.6665 8.33332C17.587 8.33332 18.3332 9.07952 18.3332 9.99999Z" fill="#B2B2B2" />
<path d="M4.99984 3.33332C4.99984 4.2538 4.25365 4.99999 3.33317 4.99999C2.4127 4.99999 1.6665 4.2538 1.6665 3.33332C1.6665 2.41285 2.4127 1.66666 3.33317 1.66666C4.25365 1.66666 4.99984 2.41285 4.99984 3.33332Z" fill="#B2B2B2" />
<path d="M11.6665 3.33332C11.6665 4.2538 10.9203 4.99999 9.99984 4.99999C9.07937 4.99999 8.33318 4.2538 8.33318 3.33332C8.33318 2.41285 9.07937 1.66666 9.99984 1.66666C10.9203 1.66666 11.6665 2.41285 11.6665 3.33332Z" fill="#B2B2B2" />
<path d="M18.3332 3.33332C18.3332 4.2538 17.587 4.99999 16.6665 4.99999C15.746 4.99999 14.9998 4.2538 14.9998 3.33332C14.9998 2.41285 15.746 1.66666 16.6665 1.66666C17.587 1.66666 18.3332 2.41285 18.3332 3.33332Z" fill="#B2B2B2" />
<path d="M4.99984 16.6667C4.99984 17.5871 4.25365 18.3333 3.33317 18.3333C2.4127 18.3333 1.6665 17.5871 1.6665 16.6667C1.6665 15.7462 2.4127 15 3.33317 15C4.25365 15 4.99984 15.7462 4.99984 16.6667Z" fill="#B2B2B2" />
<path d="M11.6665 16.6667C11.6665 17.5871 10.9203 18.3333 9.99984 18.3333C9.07937 18.3333 8.33318 17.5871 8.33318 16.6667C8.33318 15.7462 9.07937 15 9.99984 15C10.9203 15 11.6665 15.7462 11.6665 16.6667Z" fill="#B2B2B2" />
<path d="M18.3332 16.6667C18.3332 17.5871 17.587 18.3333 16.6665 18.3333C15.746 18.3333 14.9998 17.5871 14.9998 16.6667C14.9998 15.7462 15.746 15 16.6665 15C17.587 15 18.3332 15.7462 18.3332 16.6667Z" fill="#B2B2B2" />
</symbol><symbol viewBox="0 0 24 24" fill="none" id="chevron">
<path fill-rule="evenodd" clip-rule="evenodd" d="M12.0002 15.5002C11.7442 15.5002 11.4883 15.4023 11.2933 15.2073L7.29325 11.2072C6.90225 10.8162 6.90225 10.1842 7.29325 9.79325C7.68425 9.40225 8.31625 9.40225 8.70725 9.79325L12.0122 13.0982L15.3053 9.91825C15.7043 9.53525 16.3352 9.54625 16.7192 9.94325C17.1032 10.3403 17.0922 10.9742 16.6952 11.3572L12.6953 15.2193C12.5002 15.4073 12.2502 15.5002 12.0002 15.5002Z" fill="currentColor" />

</symbol><mask id="chevron_mask0_156_10598" style="mask-type:alpha" maskUnits="userSpaceOnUse" x="7" y="9" width="10" height="7">
<path fill-rule="evenodd" clip-rule="evenodd" d="M12.0002 15.5002C11.7442 15.5002 11.4883 15.4023 11.2933 15.2073L7.29325 11.2072C6.90225 10.8162 6.90225 10.1842 7.29325 9.79325C7.68425 9.40225 8.31625 9.40225 8.70725 9.79325L12.0122 13.0982L15.3053 9.91825C15.7043 9.53525 16.3352 9.54625 16.7192 9.94325C17.1032 10.3403 17.0922 10.9742 16.6952 11.3572L12.6953 15.2193C12.5002 15.4073 12.2502 15.5002 12.0002 15.5002Z" fill="none" />
</mask><symbol viewBox="0 0 24 24" fill="none" id="close">
  <path d="M6 6L18.7742 18.7742" stroke="#B2B2B2" stroke-width="1.5" stroke-linecap="round" stroke-linejoin="round" />
  <path d="M6 18.7742L18.7742 5.99998" stroke="#B2B2B2" stroke-width="1.5" stroke-linecap="round" stroke-linejoin="round" />
</symbol><symbol viewBox="0 0 24 24" fill="none" id="close-thin">
<path d="M6 6L18.7742 18.7742" stroke="currentColor" stroke-width="1.5" stroke-linecap="round" stroke-linejoin="round" />
<path d="M6 18.7742L18.7742 5.99998" stroke="currentColor" stroke-width="1.5" stroke-linecap="round" stroke-linejoin="round" />
</symbol><symbol viewBox="0 0 40 41" fill="none" id="eth">
<circle cx="20" cy="20.5" r="20" fill="#EDF0F4" />
<path d="M19.9452 8.5L19.7861 9.04043V24.721L19.9452 24.8797L27.2238 20.5773L19.9452 8.5Z" fill="#343434" />
<path d="M19.9458 8.5L12.667 20.5773L19.9458 24.8797V17.2688V8.5Z" fill="#8C8C8C" />
<path d="M19.9461 26.2579L19.8564 26.3672V31.9529L19.9461 32.2146L27.2292 21.9576L19.9461 26.2579Z" fill="#3C3C3B" />
<path d="M19.9458 32.2146V26.2579L12.667 21.9576L19.9458 32.2146Z" fill="#8C8C8C" />
<path d="M19.9453 24.8796L27.2239 20.5772L19.9453 17.2687V24.8796Z" fill="#141414" />
<path d="M12.667 20.5772L19.9458 24.8796V17.2687L12.667 20.5772Z" fill="#393939" />
</symbol><symbol viewBox="0 0 16 16" fill="none" id="fi-rr-angle-small-down">
<path d="M12.4726 6.27337C12.4106 6.21088 12.3369 6.16129 12.2556 6.12744C12.1744 6.0936 12.0872 6.07617 11.9992 6.07617C11.9112 6.07617 11.8241 6.0936 11.7428 6.12744C11.6616 6.16129 11.5879 6.21088 11.5259 6.27337L8.47256 9.3267C8.41058 9.38918 8.33685 9.43878 8.25561 9.47262C8.17437 9.50647 8.08723 9.5239 7.99923 9.5239C7.91122 9.5239 7.82408 9.50647 7.74284 9.47262C7.6616 9.43878 7.58787 9.38918 7.52589 9.3267L4.47256 6.27337C4.41058 6.21088 4.33685 6.16129 4.25561 6.12744C4.17437 6.0936 4.08723 6.07617 3.99923 6.07617C3.91122 6.07617 3.82408 6.0936 3.74284 6.12744C3.6616 6.16129 3.58787 6.21088 3.52589 6.27337C3.40173 6.39828 3.33203 6.56725 3.33203 6.74337C3.33203 6.91949 3.40173 7.08846 3.52589 7.21337L6.58589 10.2734C6.96089 10.6479 7.46922 10.8583 7.99923 10.8583C8.52923 10.8583 9.03756 10.6479 9.41256 10.2734L12.4726 7.21337C12.5967 7.08846 12.6664 6.91949 12.6664 6.74337C12.6664 6.56725 12.5967 6.39828 12.4726 6.27337Z" fill="currentColor" />
</symbol><symbol viewBox="0 0 20 20" fill="none" id="fi-sr-copy">
<g clip-path="url(#fi-sr-copy_clip0_1_6961)">
<path d="M12.5 16.6667H4.16667C3.062 16.6653 2.00296 16.2259 1.22185 15.4448C0.440735 14.6637 0.00132321 13.6047 0 12.5L0 4.16667C0.00132321 3.062 0.440735 2.00296 1.22185 1.22185C2.00296 0.440735 3.062 0.00132321 4.16667 0L12.5 0C13.6047 0.00132321 14.6637 0.440735 15.4448 1.22185C16.2259 2.00296 16.6653 3.062 16.6667 4.16667V12.5C16.6653 13.6047 16.2259 14.6637 15.4448 15.4448C14.6637 16.2259 13.6047 16.6653 12.5 16.6667V16.6667ZM20 15.8333V5C20 4.77899 19.9122 4.56702 19.7559 4.41074C19.5996 4.25446 19.3877 4.16667 19.1667 4.16667C18.9457 4.16667 18.7337 4.25446 18.5774 4.41074C18.4211 4.56702 18.3333 4.77899 18.3333 5V15.8333C18.3333 16.4964 18.0699 17.1323 17.6011 17.6011C17.1323 18.0699 16.4964 18.3333 15.8333 18.3333H5C4.77899 18.3333 4.56702 18.4211 4.41074 18.5774C4.25446 18.7337 4.16667 18.9457 4.16667 19.1667C4.16667 19.3877 4.25446 19.5996 4.41074 19.7559C4.56702 19.9122 4.77899 20 5 20H15.8333C16.938 19.9987 17.997 19.5593 18.7782 18.7782C19.5593 17.997 19.9987 16.938 20 15.8333V15.8333Z" fill="url(#fi-sr-copy_paint0_linear_1_6961)" />
</g>
<defs>


</defs>
</symbol><linearGradient id="fi-sr-copy_paint0_linear_1_6961" x1="-0.0466024" y1="9.99999" x2="20.0464" y2="9.99999" gradientUnits="userSpaceOnUse">
<stop stop-color="#C9B09A" />
<stop offset="1" stop-color="#C9B09A" stop-opacity="0.25" />
</linearGradient><clipPath id="fi-sr-copy_clip0_1_6961">
<rect width="20" height="20" fill="white" />
</clipPath><symbol viewBox="0 0 4 18" fill="none" id="fi-sr-menu-dots-vertical">
  <g clip-path="url(#fi-sr-menu-dots-vertical_clip0_1_1508)">
    <path d="M2.00002 3.00002C2.82845 3.00002 3.50003 2.32845 3.50003 1.50001C3.50003 0.671578 2.82845 0 2.00002 0C1.17158 0 0.5 0.671578 0.5 1.50001C0.5 2.32845 1.17158 3.00002 2.00002 3.00002Z" fill="#B2B2B2" />
    <path d="M2.00002 10.5C2.82845 10.5 3.50003 9.82842 3.50003 8.99999C3.50003 8.17155 2.82845 7.49997 2.00002 7.49997C1.17158 7.49997 0.5 8.17155 0.5 8.99999C0.5 9.82842 1.17158 10.5 2.00002 10.5Z" fill="#B2B2B2" />
    <path d="M2.00002 18C2.82845 18 3.50003 17.3284 3.50003 16.5C3.50003 15.6715 2.82845 15 2.00002 15C1.17158 15 0.5 15.6715 0.5 16.5C0.5 17.3284 1.17158 18 2.00002 18Z" fill="#B2B2B2" />
  </g>
  <defs>

  </defs>
</symbol><clipPath id="fi-sr-menu-dots-vertical_clip0_1_1508">
      <rect width="4" height="18" fill="white" />
    </clipPath><symbol viewBox="0 0 18 18" fill="currentColor" id="fi_15566232">
<path d="M10.2113 6.25098L11.3685 4.87234C11.5084 4.70535 11.5978 4.50197 11.6262 4.28602C11.6546 4.07007 11.6209 3.85049 11.529 3.65302C11.4371 3.45554 11.2908 3.28834 11.1073 3.17101C10.9238 3.05368 10.7106 2.99107 10.4928 2.99052C10.4589 2.99052 10.4251 2.9918 10.3906 2.99499C10.2408 3.00768 10.095 3.04997 9.96167 3.11943C9.82835 3.18889 9.71015 3.28412 9.61392 3.39961L8.45648 4.7785L10.2113 6.25098Z" />
<path d="M3.94545 3.6C4.119 3.59983 4.28538 3.53081 4.4081 3.4081C4.53081 3.28538 4.59983 3.119 4.6 2.94545V0.116692C4.42409 0.190155 4.2641 0.297054 4.1289 0.431463L1.43146 3.1289C1.29706 3.26411 1.19014 3.4241 1.11663 3.6H3.94545Z" />
<path d="M7.64581 8.78683C7.7956 8.77414 7.94138 8.73184 8.0747 8.66239C8.20801 8.59293 8.32621 8.4977 8.42244 8.38221L9.57988 7.00332L7.82511 5.53084L6.66783 6.90948C6.57116 7.02474 6.49816 7.15792 6.45297 7.3014C6.40779 7.44488 6.39131 7.59586 6.40449 7.74571C6.41767 7.89556 6.46024 8.04135 6.52977 8.17474C6.59931 8.30814 6.69444 8.42653 6.80973 8.52315C6.92432 8.62087 7.05738 8.69456 7.20101 8.73986C7.34463 8.78515 7.49589 8.80112 7.64581 8.78683Z" />
<path d="M14.9091 0H5.58182V2.94545C5.58136 3.37931 5.40881 3.79526 5.10204 4.10204C4.79526 4.40881 4.37931 4.58136 3.94545 4.58182H1V16.5273C1.00048 16.9177 1.1558 17.292 1.43188 17.5681C1.70797 17.8442 2.08228 17.9995 2.47273 18H14.9091C15.2995 17.9995 15.6739 17.8442 15.9499 17.5681C16.226 17.292 16.3813 16.9177 16.3818 16.5273V1.47273C16.3813 1.08228 16.226 0.707969 15.9499 0.431884C15.6739 0.155798 15.2995 0.000481523 14.9091 0ZM5.91612 6.27859L8.86158 2.76871C9.2242 2.33659 9.74362 2.06621 10.3056 2.01706C10.8676 1.96791 11.426 2.14402 11.8582 2.50664C12.2903 2.86926 12.5607 3.38869 12.6098 3.95065C12.659 4.51262 12.4829 5.0711 12.1202 5.50323L9.17479 9.0131C8.99591 9.22769 8.77623 9.40466 8.52848 9.53375C8.28073 9.66284 8.00983 9.7415 7.73146 9.76516C7.66818 9.7706 7.6049 9.77347 7.54226 9.77347C7.1376 9.7728 6.74152 9.65674 6.40051 9.43889C6.05949 9.22104 5.78768 8.91045 5.61696 8.54356C5.44625 8.17667 5.38372 7.7687 5.43671 7.36753C5.4897 6.96635 5.65601 6.58857 5.91612 6.27859ZM12.6182 16.0364H4.76364C4.63344 16.0364 4.50857 15.9846 4.41651 15.8926C4.32445 15.8005 4.27273 15.6757 4.27273 15.5455C4.27273 15.4153 4.32445 15.2904 4.41651 15.1983C4.50857 15.1063 4.63344 15.0545 4.76364 15.0545H12.6182C12.7484 15.0545 12.8732 15.1063 12.9653 15.1983C13.0574 15.2904 13.1091 15.4153 13.1091 15.5455C13.1091 15.6757 13.0574 15.8005 12.9653 15.8926C12.8732 15.9846 12.7484 16.0364 12.6182 16.0364ZM12.6182 14.0727H4.76364C4.63344 14.0727 4.50857 14.021 4.41651 13.9289C4.32445 13.8369 4.27273 13.712 4.27273 13.5818C4.27273 13.4516 4.32445 13.3268 4.41651 13.2347C4.50857 13.1426 4.63344 13.0909 4.76364 13.0909H12.6182C12.7484 13.0909 12.8732 13.1426 12.9653 13.2347C13.0574 13.3268 13.1091 13.4516 13.1091 13.5818C13.1091 13.712 13.0574 13.8369 12.9653 13.9289C12.8732 14.021 12.7484 14.0727 12.6182 14.0727ZM12.6182 12.1091H4.76364C4.63344 12.1091 4.50857 12.0574 4.41651 11.9653C4.32445 11.8732 4.27273 11.7484 4.27273 11.6182C4.27273 11.488 4.32445 11.3631 4.41651 11.2711C4.50857 11.179 4.63344 11.1273 4.76364 11.1273H12.6182C12.7484 11.1273 12.8732 11.179 12.9653 11.2711C13.0574 11.3631 13.1091 11.488 13.1091 11.6182C13.1091 11.7484 13.0574 11.8732 12.9653 11.9653C12.8732 12.0574 12.7484 12.1091 12.6182 12.1091Z" />
</symbol><symbol viewBox="0 0 18 18" fill="currentColor" id="fi_1685179">
<g clip-path="url(#fi_1685179_clip0_2060_130)">
<path d="M10.7758 11.9188C10.6235 11.9188 10.4712 12.0573 10.4712 12.5212C10.4712 12.9851 10.6235 13.1236 10.7758 13.1236C10.9282 13.1236 11.0805 12.9851 11.0805 12.5212C11.0805 12.0573 10.9282 11.9188 10.7758 11.9188Z" />
<path d="M7.22408 9.63383C7.07176 9.63383 6.91943 9.77233 6.91943 10.2362C6.91943 10.7002 7.07176 10.8386 7.22408 10.8386C7.37641 10.8386 7.52874 10.7002 7.52874 10.2362C7.52874 9.77233 7.37641 9.63383 7.22408 9.63383Z" />
<path d="M14.2706 6.38579C12.7445 4.70022 11.8375 3.2164 11.3454 2.26842C10.8124 1.24162 10.6377 0.604905 10.6363 0.599838L10.4777 0L9.91103 0.25275C9.84481 0.282273 8.27918 0.996259 7.40193 2.75073C6.96156 3.63151 6.87348 4.61214 6.87718 5.27965C6.87932 5.66811 6.60409 6.00542 6.22276 6.08167C5.95541 6.13508 5.68039 6.05197 5.48742 5.859L4.43191 4.80349L4.06881 5.30417C4.03112 5.35614 3.14377 6.57992 2.98222 6.82444C2.19336 8.01859 1.78202 9.40965 1.79268 10.8472C1.80697 12.7672 2.56202 14.566 3.91874 15.9124C5.27538 17.2586 7.07996 18 9.00006 18C12.9743 18 16.2076 14.7667 16.2076 10.7925C16.2076 9.35152 15.5016 7.74536 14.2706 6.38579ZM10.7761 13.8714C10.0421 13.8714 9.48818 13.3867 9.48818 12.5212C9.48818 11.6626 10.0421 11.171 10.7761 11.171C11.51 11.171 12.064 11.6626 12.064 12.5212C12.064 13.3867 11.51 13.8714 10.7761 13.8714ZM10.0698 8.95528H11.24L7.93026 13.8021H6.76011L10.0698 8.95528ZM5.93616 10.2362C5.93616 9.37767 6.49008 8.88606 7.22406 8.88606C7.95803 8.88606 8.51195 9.37767 8.51195 10.2362C8.51195 11.1017 7.95803 11.5864 7.22406 11.5864C6.49008 11.5864 5.93616 11.1017 5.93616 10.2362Z" />
</g>
<defs>

</defs>
</symbol><clipPath id="fi_1685179_clip0_2060_130">
<rect width="18" height="18" fill="white" />
</clipPath><symbol viewBox="0 0 20 24" fill="currentColor" id="fi_4223827">
<path d="M18.5554 4.10755C14.2309 4.10755 10.5209 1.19866 10.4821 1.16755C10.3447 1.05904 10.1748 1.00002 9.99984 1.00002C9.82483 1.00002 9.65493 1.05904 9.51761 1.16755C9.47873 1.19866 5.78428 4.10755 1.44428 4.10755C1.238 4.10755 1.04017 4.18949 0.89431 4.33535C0.748448 4.48122 0.666504 4.67905 0.666504 4.88533V11.8853C0.666504 17.1042 2.77428 19.6631 9.68095 22.7042C9.78122 22.7493 9.8899 22.7726 9.99984 22.7726C10.1098 22.7726 10.2185 22.7493 10.3187 22.7042C17.2254 19.6631 19.3332 17.1042 19.3332 11.8853V4.88533C19.3332 4.67905 19.2512 4.48122 19.1054 4.33535C18.9595 4.18949 18.7617 4.10755 18.5554 4.10755ZM14.4409 9.32644L8.9965 14.7709C8.9242 14.8438 8.83818 14.9016 8.7434 14.9411C8.64862 14.9806 8.54696 15.0009 8.44428 15.0009C8.34161 15.0009 8.23995 14.9806 8.14517 14.9411C8.05039 14.9016 7.96436 14.8438 7.89206 14.7709L5.55873 12.4375C5.41227 12.2911 5.32999 12.0925 5.32999 11.8853C5.32999 11.6782 5.41227 11.4796 5.55873 11.3331C5.70518 11.1866 5.90382 11.1044 6.11095 11.1044C6.31807 11.1044 6.51671 11.1866 6.66317 11.3331L8.44428 13.122L13.3365 8.22199C13.483 8.07553 13.6816 7.99325 13.8887 7.99325C14.0958 7.99325 14.2945 8.07553 14.4409 8.22199C14.5874 8.36845 14.6697 8.56709 14.6697 8.77421C14.6697 8.98134 14.5874 9.17998 14.4409 9.32644Z" />
</symbol><symbol viewBox="0 0 18 18" fill="currentColor" id="fi_4544406">
<g clip-path="url(#fi_4544406_clip0_2060_157)">
<path d="M2.90251 2.9025L2.25001 2.25C1.96126 4.2675 2.06251 3.555 1.87501 4.875L4.68751 4.6875L3.96376 3.96375C5.12983 2.79855 6.66385 2.07374 8.30443 1.91281C9.94501 1.75188 11.5906 2.16479 12.9609 3.08119C14.3312 3.99759 15.3413 5.36076 15.8191 6.93844C16.2969 8.51612 16.2129 10.2107 15.5814 11.7334C14.9499 13.2561 13.8099 14.5127 12.3558 15.289C10.9016 16.0654 9.22319 16.3136 7.60657 15.9912C5.98994 15.6688 4.53513 14.7958 3.49001 13.521C2.44489 12.2462 1.87414 10.6485 1.87501 9H0.375013C0.301913 11.2875 1.14051 13.5103 2.70632 15.1795C4.27213 16.8487 6.4369 17.8275 8.72439 17.9006C11.0119 17.9737 13.2347 17.1351 14.9039 15.5693C16.5731 14.0035 17.5519 11.8387 17.625 9.55125C18.105 1.59375 8.47126 -2.66625 2.90251 2.9025Z" />
<path d="M4.73626 5.4375L3.66751 5.505C2.7881 6.842 2.44369 8.46085 2.70269 10.0401C2.96169 11.6192 3.80516 13.0433 5.06557 14.0293C6.32599 15.0154 7.91116 15.4913 9.50628 15.3626C11.1014 15.234 12.5898 14.5101 13.6758 13.3347C14.7619 12.1593 15.3661 10.6185 15.3686 9.01823C15.3711 7.41793 14.7717 5.87523 13.6893 4.6965C12.6069 3.51776 11.1208 2.78922 9.52611 2.65556C7.9314 2.52189 6.34475 2.99289 5.08126 3.975C5.03626 3.975 5.04751 3.975 5.21626 4.15875C5.31816 4.2606 5.38856 4.38965 5.41905 4.53046C5.44954 4.67126 5.43883 4.81787 5.3882 4.95275C5.33757 5.08763 5.24916 5.20508 5.13355 5.29104C5.01794 5.37701 4.88001 5.42785 4.73626 5.4375ZM10.125 10.3725C10.0088 9.6675 9.18751 9.75 8.73751 9.75C8.14451 9.76322 7.569 9.54857 7.12951 9.15023C6.69001 8.75189 6.41998 8.2002 6.37501 7.60875C6.34907 7.05895 6.52556 6.51871 6.87108 6.09026C7.21661 5.66181 7.7072 5.37487 8.25001 5.28375C8.25001 4.4325 8.20126 4.23375 8.47126 3.97125C8.57614 3.86699 8.70949 3.79607 8.85456 3.76739C8.99964 3.73871 9.14995 3.75356 9.2866 3.81006C9.42326 3.86657 9.54016 3.96221 9.62262 4.08497C9.70507 4.20773 9.74939 4.35212 9.75001 4.5V5.25H10.875C10.9735 5.25271 11.0705 5.27479 11.1605 5.31498C11.2504 5.35518 11.3316 5.41269 11.3993 5.48425C11.467 5.55581 11.52 5.64001 11.5552 5.73204C11.5904 5.82407 11.6071 5.92213 11.6044 6.02063C11.6017 6.11912 11.5796 6.21611 11.5394 6.30607C11.4992 6.39603 11.4417 6.47719 11.3701 6.54491C11.2986 6.61264 11.2144 6.66561 11.1223 6.7008C11.0303 6.73599 10.9323 6.75271 10.8338 6.75H8.62501C8.51481 6.74839 8.40561 6.77109 8.30518 6.81649C8.20475 6.86188 8.11556 6.92885 8.04395 7.01263C7.97235 7.09641 7.92008 7.19494 7.89088 7.30122C7.86168 7.40749 7.85627 7.51889 7.87501 7.6275C7.99126 8.3325 8.81251 8.25 9.26251 8.25C9.85552 8.23678 10.431 8.45143 10.8705 8.84977C11.31 9.24811 11.5801 9.7998 11.625 10.3912C11.651 10.9411 11.4745 11.4813 11.1289 11.9097C10.7834 12.3382 10.2928 12.6251 9.75001 12.7163C9.75001 13.5675 9.79876 13.7662 9.52876 14.0288C9.42389 14.133 9.29053 14.2039 9.14546 14.2326C9.00039 14.2613 8.85008 14.2464 8.71342 14.1899C8.57677 14.1334 8.45986 14.0378 8.37741 13.915C8.29496 13.7923 8.25063 13.6479 8.25001 13.5V12.75H7.12501C7.02652 12.7473 6.92953 12.7252 6.83957 12.685C6.74961 12.6448 6.66845 12.5873 6.60072 12.5157C6.533 12.4442 6.48002 12.36 6.44484 12.268C6.40965 12.1759 6.39293 12.0779 6.39564 11.9794C6.39835 11.8809 6.42043 11.7839 6.46062 11.6939C6.50082 11.604 6.55833 11.5228 6.62989 11.4551C6.70145 11.3874 6.78565 11.3344 6.87768 11.2992C6.96971 11.264 7.06777 11.2473 7.16626 11.25H9.37501C9.48521 11.2516 9.59441 11.2289 9.69484 11.1835C9.79527 11.1381 9.88447 11.0712 9.95607 10.9874C10.0277 10.9036 10.0799 10.8051 10.1091 10.6988C10.1383 10.5925 10.1438 10.4811 10.125 10.3725Z" />
</g>
<defs>

</defs>
</symbol><clipPath id="fi_4544406_clip0_2060_157">
<rect width="18" height="18" fill="white" />
</clipPath><symbol viewBox="0 0 18 18" fill="currentColor" id="fi_9356319">
<g clip-path="url(#fi_9356319_clip0_2060_147)">
<path d="M14.8463 14.1755C14.8504 14.1254 14.8504 14.075 14.8463 14.0249C14.8463 13.5813 14.6701 13.1558 14.3563 12.8421C14.0426 12.5284 13.6171 12.3521 13.1735 12.3521C12.7298 12.3521 12.3043 12.5284 11.9906 12.8421C11.6769 13.1558 11.5007 13.5813 11.5007 14.0249C11.4965 14.075 11.4965 14.1254 11.5007 14.1755C11.5007 14.6191 11.6769 15.0446 11.9906 15.3583C12.3043 15.672 12.7298 15.8483 13.1735 15.8483C13.6171 15.8483 14.0426 15.672 14.3563 15.3583C14.6701 15.0446 14.8463 14.6191 14.8463 14.1755Z" />
<path d="M8.15489 14.1755C8.15904 14.1254 8.15904 14.075 8.15489 14.0249C8.15489 13.5813 7.97865 13.1558 7.66494 12.8421C7.35122 12.5284 6.92574 12.3521 6.48208 12.3521C6.03842 12.3521 5.61293 12.5284 5.29922 12.8421C4.98551 13.1558 4.80927 13.5813 4.80927 14.0249C4.80511 14.075 4.80511 14.1254 4.80927 14.1755C4.80927 14.6191 4.98551 15.0446 5.29922 15.3583C5.61293 15.672 6.03842 15.8483 6.48208 15.8483C6.92574 15.8483 7.35122 15.672 7.66494 15.3583C7.97865 15.0446 8.15489 14.6191 8.15489 14.1755Z" />
<path d="M1.88192 10.2025H0.627306C0.51213 10.2023 0.399162 10.2341 0.301107 10.2946C0.2159 10.3471 0.144501 10.4192 0.0928733 10.505C0.0412456 10.5907 0.010889 10.6876 0.00433933 10.7875C-0.00221033 10.8874 0.0152372 10.9874 0.0552243 11.0791C0.0952114 11.1709 0.156577 11.2518 0.234194 11.315C0.343667 11.4084 0.483366 11.459 0.627306 11.4572H2.71832C2.88469 11.4572 3.04425 11.5232 3.16189 11.6409C3.27954 11.7585 3.34563 11.9181 3.34563 12.0845C3.34563 12.2508 3.27954 12.4104 3.16189 12.528C3.04425 12.6457 2.88469 12.7118 2.71832 12.7118H1.88192C1.71554 12.7118 1.55599 12.7779 1.43834 12.8955C1.3207 13.0131 1.25461 13.1727 1.25461 13.3391C1.25461 13.5054 1.3207 13.665 1.43834 13.7826C1.55599 13.9003 1.71554 13.9664 1.88192 13.9664H4.1904C4.22638 13.541 4.38308 13.1348 4.64206 12.7954C4.85851 12.5121 5.13678 12.282 5.45567 12.1225C5.77456 11.9631 6.12564 11.8785 6.48215 11.8754C7.05673 11.8732 7.61118 12.0869 8.03563 12.4741C8.46009 12.8614 8.72358 13.394 8.77391 13.9664H10.8817C10.9307 13.3924 11.1934 12.8577 11.6178 12.4681C12.0422 12.0784 12.5973 11.8622 13.1734 11.8622C13.7495 11.8622 14.3046 12.0784 14.729 12.4681C15.1534 12.8577 15.4161 13.3924 15.4652 13.9664H16.6027C16.7983 13.9703 16.9892 13.9055 17.142 13.7833C17.2949 13.661 17.4 13.489 17.4391 13.2973L17.9911 10.5371C17.9868 10.5178 17.9868 10.4978 17.9911 10.4786C18.003 10.4066 18.003 10.3331 17.9911 10.2611L16.4187 5.6274C16.333 5.38132 16.1723 5.16829 15.9593 5.01826C15.7462 4.86823 15.4915 4.78875 15.231 4.791H13.7254L13.8174 4.12187C13.8399 3.94458 13.8245 3.76454 13.7723 3.59364C13.72 3.42273 13.6321 3.26487 13.5143 3.13047C13.3965 2.99608 13.2515 2.88821 13.089 2.814C12.9264 2.73979 12.7499 2.70093 12.5712 2.69998H3.13653C2.97015 2.69998 2.8106 2.76607 2.69295 2.88372C2.57531 3.00136 2.50922 3.16092 2.50922 3.32729C2.50922 3.49366 2.57531 3.65322 2.69295 3.77086C2.8106 3.8885 2.97015 3.95459 3.13653 3.95459H4.18203C4.34841 3.95459 4.50796 4.02068 4.62561 4.13832C4.74325 4.25597 4.80934 4.41552 4.80934 4.5819C4.80934 4.74827 4.74325 4.90783 4.62561 5.02547C4.50796 5.14311 4.34841 5.2092 4.18203 5.2092H0.627306C0.461608 5.21137 0.303306 5.27815 0.18613 5.39533C0.0689533 5.51251 0.00216693 5.67081 6.62243e-07 5.83651C-0.00023108 5.99502 0.0603663 6.14759 0.1693 6.26275C0.278233 6.37791 0.427199 6.44688 0.585485 6.45545H2.71832C2.88469 6.45545 3.04425 6.52154 3.16189 6.63918C3.27954 6.75682 3.34563 6.91638 3.34563 7.08275C3.34563 7.24912 3.27954 7.40868 3.16189 7.52632C3.04425 7.64397 2.88469 7.71006 2.71832 7.71006H1.46371H1.32989C1.19044 7.74051 1.06555 7.8176 0.975827 7.92861C0.886108 8.03962 0.836928 8.1779 0.836407 8.32063C0.836407 8.48701 0.902498 8.64656 1.02014 8.7642C1.13778 8.88185 1.29734 8.94794 1.46371 8.94794H1.88192C2.04829 8.94794 2.20784 9.01403 2.32549 9.13167C2.44313 9.24931 2.50922 9.40887 2.50922 9.57524C2.50922 9.74162 2.44313 9.90117 2.32549 10.0188C2.20784 10.1365 2.04829 10.2025 1.88192 10.2025ZM13.5916 6.02052H15.1139C15.1578 6.02118 15.2004 6.03512 15.2363 6.0605C15.2721 6.08588 15.2994 6.12151 15.3146 6.1627L16.519 9.78435H13.0898L13.5916 6.02052Z" />
</g>
<defs>

</defs>
</symbol><clipPath id="fi_9356319_clip0_2060_147">
<rect width="18" height="18" fill="white" />
</clipPath><symbol viewBox="0 0 20 21" fill="none" id="flag-us">
<g clip-path="url(#flag-us_clip0_1_5918)">
<path d="M10 20.5C15.5228 20.5 20 16.0228 20 10.5C20 4.97715 15.5228 0.5 10 0.5C4.47715 0.5 0 4.97715 0 10.5C0 16.0228 4.47715 20.5 10 20.5Z" fill="#F0F0F0" />
<path d="M9.56543 10.5001H20.0002C20.0002 9.59749 19.8799 8.72312 19.6557 7.89136H9.56543V10.5001Z" fill="#B15656" />
<path d="M9.56543 5.28266H18.5325C17.9203 4.28375 17.1376 3.40083 16.225 2.67395H9.56543V5.28266Z" fill="#B15656" />
<path d="M10.0002 20.5001C12.3537 20.5001 14.5169 19.6866 16.2251 18.3262H3.77539C5.48359 19.6866 7.64676 20.5001 10.0002 20.5001Z" fill="#B15656" />
<path d="M1.46797 15.7175H18.5325C19.0239 14.9156 19.4051 14.039 19.6557 13.1088H0.344727C0.595391 14.039 0.976523 14.9156 1.46797 15.7175Z" fill="#B15656" />
<path d="M4.63219 2.06164H5.54348L4.69582 2.67746L5.01961 3.67391L4.17199 3.05809L3.32437 3.67391L3.60406 2.81309C2.85773 3.43477 2.20359 4.16313 1.66453 4.97469H1.95652L1.41695 5.36668C1.33289 5.50691 1.25227 5.64937 1.175 5.79395L1.43266 6.58695L0.951953 6.2377C0.832461 6.49086 0.723164 6.74973 0.624922 7.01398L0.908789 7.88773H1.95652L1.10887 8.50356L1.43266 9.5L0.585039 8.88418L0.0773047 9.25309C0.0264844 9.6616 0 10.0777 0 10.5H10C10 4.97719 10 4.32609 10 0.5C8.02453 0.5 6.18301 1.07305 4.63219 2.06164ZM5.01961 9.5L4.17199 8.88418L3.32437 9.5L3.64816 8.50356L2.80051 7.88773H3.84824L4.17199 6.89129L4.49574 7.88773H5.54348L4.69582 8.50356L5.01961 9.5ZM4.69582 5.59051L5.01961 6.58695L4.17199 5.97113L3.32437 6.58695L3.64816 5.59051L2.80051 4.97469H3.84824L4.17199 3.97824L4.49574 4.97469H5.54348L4.69582 5.59051ZM8.60656 9.5L7.75895 8.88418L6.91133 9.5L7.23512 8.50356L6.38746 7.88773H7.4352L7.75895 6.89129L8.0827 7.88773H9.13043L8.28277 8.50356L8.60656 9.5ZM8.28277 5.59051L8.60656 6.58695L7.75895 5.97113L6.91133 6.58695L7.23512 5.59051L6.38746 4.97469H7.4352L7.75895 3.97824L8.0827 4.97469H9.13043L8.28277 5.59051ZM8.28277 2.67746L8.60656 3.67391L7.75895 3.05809L6.91133 3.67391L7.23512 2.67746L6.38746 2.06164H7.4352L7.75895 1.0652L8.0827 2.06164H9.13043L8.28277 2.67746Z" fill="#0052B4" />
</g>
<defs>

</defs>
</symbol><clipPath id="flag-us_clip0_1_5918">
<rect width="20" height="20" fill="white" transform="translate(0 0.5)" />
</clipPath><symbol viewBox="0 0 21 21" fill="currentColor" id="fries">
<path d="M3 3.5C2.58579 3.5 2.25 3.83579 2.25 4.25C2.25 4.66421 2.58579 5 3 5H17C17.4142 5 17.75 4.66421 17.75 4.25C17.75 3.83579 17.4142 3.5 17 3.5H3Z" />
<path d="M3 9.5C2.58579 9.5 2.25 9.83579 2.25 10.25C2.25 10.6642 2.58579 11 3 11H9C9.41421 11 9.75 10.6642 9.75 10.25C9.75 9.83579 9.41421 9.5 9 9.5H3Z" />
<path d="M3 15.5C2.58579 15.5 2.25 15.8358 2.25 16.25C2.25 16.6642 2.58579 17 3 17H17C17.4142 17 17.75 16.6642 17.75 16.25C17.75 15.8358 17.4142 15.5 17 15.5H3Z" />
</symbol><symbol viewBox="0 0 19 19" fill="currentColor" id="home">
<path d="M7.95 16.8V11.4H11.55V16.8H16.05V9.6H18.75L9.75 1.5L0.75 9.6H3.45V16.8H7.95Z" />
<defs>

</defs>
</symbol><clipPath id="home_clip0_1_3222">
<rect width="18" height="18" fill="white" transform="translate(0.75 0.5)" />
</clipPath><symbol viewBox="0 0 40 41" fill="none" id="ltc">
<ellipse cx="20.1663" cy="20.3333" rx="17.8333" ry="17.8333" fill="white" />
<path fill-rule="evenodd" clip-rule="evenodd" d="M0 20.5C0 9.45431 8.95427 0.5 19.9999 0.5H20.1161C25.405 0.51539 30.4712 2.63118 34.2001 6.38191C37.9291 10.1326 40.0153 15.2111 39.9998 20.5C39.9998 31.5457 31.0456 40.5 19.9999 40.5C8.95427 40.5 0 31.5457 0 20.5ZM18.2566 28.1997L20.339 21.1779L23.5835 20.2578L24.2615 17.9333L21.0653 18.9019L24.4552 7.37645V7.19243C24.4501 7.04342 24.386 6.90252 24.277 6.80079C24.168 6.69906 24.0231 6.64483 23.8741 6.65006H19.5641C19.2284 6.63971 18.9288 6.85942 18.8378 7.18274L14.8184 20.8389L11.6223 21.8074L10.8959 24.035L14.092 23.0665L11.2349 32.8002H28.2808C28.6177 32.8141 28.9193 32.5929 29.0072 32.2675L29.9757 28.9261V28.7421C29.9707 28.5931 29.9066 28.4522 29.7976 28.3504C29.6886 28.2487 29.5436 28.1945 29.3946 28.1997H18.2566Z" fill="#345D9D" />
</symbol><symbol viewBox="0 0 24 24" fill="none" id="menu-fries">
<path d="M5 5.25C4.58579 5.25 4.25 5.58579 4.25 6C4.25 6.41421 4.58579 6.75 5 6.75H19C19.4142 6.75 19.75 6.41421 19.75 6C19.75 5.58579 19.4142 5.25 19 5.25H5Z" fill="currentColor" />
<path d="M5 11.25C4.58579 11.25 4.25 11.5858 4.25 12C4.25 12.4142 4.58579 12.75 5 12.75H11C11.4142 12.75 11.75 12.4142 11.75 12C11.75 11.5858 11.4142 11.25 11 11.25H5Z" fill="currentColor" />
<path d="M5 17.25C4.58579 17.25 4.25 17.5858 4.25 18C4.25 18.4142 4.58579 18.75 5 18.75H19C19.4142 18.75 19.75 18.4142 19.75 18C19.75 17.5858 19.4142 17.25 19 17.25H5Z" fill="currentColor" />
</symbol><symbol viewBox="0 0 16 16" fill="none" id="minus">
<path d="M2 8L14 8" stroke="white" stroke-width="2" stroke-linecap="round" stroke-linejoin="round" />
</symbol><symbol viewBox="0 0 24 24" fill="none" id="paper-clip">
<path fill-rule="evenodd" clip-rule="evenodd" d="M9.29305 21V21C7.63705 21 6.06305 20.334 4.86105 19.125C2.47305 16.722 2.37505 12.912 4.64205 10.631L12.0281 3.201C12.7971 2.427 13.8351 2 14.9501 2C16.1431 2 17.2771 2.479 18.1421 3.349C19.8631 5.08 19.9291 7.831 18.2881 9.481L10.8931 16.91C10.4141 17.393 9.76905 17.658 9.07705 17.658V17.658C8.34605 17.658 7.65305 17.366 7.12705 16.837C6.07405 15.776 6.04105 14.085 7.05405 13.065L13.8791 6.21C14.2691 5.818 14.9011 5.816 15.2931 6.206C15.6841 6.596 15.6861 7.229 15.2961 7.62L8.47205 14.476C8.23205 14.718 8.26505 15.145 8.54605 15.427C8.69205 15.574 8.88605 15.658 9.07705 15.658V15.658C9.18705 15.658 9.34505 15.631 9.47505 15.5L16.8701 8.071C17.7371 7.198 17.6721 5.713 16.7241 4.759C15.8171 3.847 14.2781 3.775 13.4461 4.611L6.06005 12.041C4.56605 13.544 4.66405 16.09 6.28005 17.715C7.10305 18.544 8.17305 19 9.29305 19C10.2941 19 11.2221 18.622 11.9041 17.936L19.2911 10.506C19.6801 10.115 20.3131 10.112 20.7051 10.502C21.0961 10.892 21.0981 11.524 20.7091 11.916L13.3221 19.346C12.2621 20.412 10.8311 21 9.29305 21" fill="black" />

</symbol><mask id="paper-clip_mask0_269_6855" style="mask-type:alpha" maskUnits="userSpaceOnUse" x="3" y="2" width="18" height="19">
<path fill-rule="evenodd" clip-rule="evenodd" d="M9.29305 21V21C7.63705 21 6.06305 20.334 4.86105 19.125C2.47305 16.722 2.37505 12.912 4.64205 10.631L12.0281 3.201C12.7971 2.427 13.8351 2 14.9501 2C16.1431 2 17.2771 2.479 18.1421 3.349C19.8631 5.08 19.9291 7.831 18.2881 9.481L10.8931 16.91C10.4141 17.393 9.76905 17.658 9.07705 17.658V17.658C8.34605 17.658 7.65305 17.366 7.12705 16.837C6.07405 15.776 6.04105 14.085 7.05405 13.065L13.8791 6.21C14.2691 5.818 14.9011 5.816 15.2931 6.206C15.6841 6.596 15.6861 7.229 15.2961 7.62L8.47205 14.476C8.23205 14.718 8.26505 15.145 8.54605 15.427C8.69205 15.574 8.88605 15.658 9.07705 15.658V15.658C9.18705 15.658 9.34505 15.631 9.47505 15.5L16.8701 8.071C17.7371 7.198 17.6721 5.713 16.7241 4.759C15.8171 3.847 14.2781 3.775 13.4461 4.611L6.06005 12.041C4.56605 13.544 4.66405 16.09 6.28005 17.715C7.10305 18.544 8.17305 19 9.29305 19C10.2941 19 11.2221 18.622 11.9041 17.936L19.2911 10.506C19.6801 10.115 20.3131 10.112 20.7051 10.502C21.0961 10.892 21.0981 11.524 20.7091 11.916L13.3221 19.346C12.2621 20.412 10.8311 21 9.29305 21" fill="white" />
</mask><symbol viewBox="0 0 16 16" fill="none" id="plus">
<path d="M8 2V14" stroke="white" stroke-width="2" stroke-linecap="round" stroke-linejoin="round" />
<path d="M2 8L14 8" stroke="white" stroke-width="2" stroke-linecap="round" stroke-linejoin="round" />
</symbol><symbol viewBox="0 0 20 20" fill="currentColor" id="profile-circle-2">
<path d="M1.0415 10C1.0415 5.05245 5.05229 1.04167 9.99984 1.04167C14.9474 1.04167 18.9582 5.05245 18.9582 10C18.9582 12.5404 17.8999 14.8347 16.2019 16.4642C14.5929 18.0084 12.4067 18.9583 9.99984 18.9583C7.59302 18.9583 5.40678 18.0084 3.79776 16.4642C2.09975 14.8347 1.0415 12.5404 1.0415 10ZM15.0691 15.8071C14.7099 14.7327 13.6947 13.9583 12.4998 13.9583H7.49984C6.30495 13.9583 5.28976 14.7327 4.93056 15.8071C6.28611 16.9915 8.05869 17.7083 9.99984 17.7083C11.941 17.7083 13.7136 16.9915 15.0691 15.8071ZM9.99984 3.54167C7.81371 3.54167 6.0415 5.31388 6.0415 7.5C6.0415 9.68613 7.81371 11.4583 9.99984 11.4583C12.186 11.4583 13.9582 9.68613 13.9582 7.5C13.9582 5.31388 12.186 3.54167 9.99984 3.54167Z" />
</symbol><symbol viewBox="0 0 24 24" fill="currentColor" id="shopping_cart">
<path d="M8 18C6.9 18 6.01 18.9 6.01 20C6.01 21.1 6.9 22 8 22C9.1 22 10 21.1 10 20C10 18.9 9.1 18 8 18ZM2 2V4H4L7.6 11.59L6.25 14.04C6.09 14.32 6 14.65 6 15C6 16.1 6.9 17 8 17H20V15H8.42C8.28 15 8.17 14.89 8.17 14.75L8.2 14.63L9.1 13H16.55C17.3 13 17.96 12.59 18.3 11.97L21.88 5.48C21.96 5.34 22 5.17 22 5C22 4.45 21.55 4 21 4H6.21L5.27 2H2ZM18 18C16.9 18 16.01 18.9 16.01 20C16.01 21.1 16.9 22 18 22C19.1 22 20 21.1 20 20C20 18.9 19.1 18 18 18Z" />
</symbol><symbol viewBox="0 0 22 22" fill="currentColor" id="star">
<g clip-path="url(#star_clip0_2060_120)">
<path d="M10.3934 0.515887C10.5073 0.285127 10.7423 0.139038 10.9996 0.139038C11.257 0.138993 11.492 0.285082 11.606 0.515843L14.2431 5.85846C14.4911 6.36082 14.9704 6.70911 15.5248 6.78963L21.421 7.64674C21.6757 7.68379 21.8873 7.86215 21.9669 8.10693C22.0463 8.35166 21.9801 8.62036 21.7958 8.80001L17.5296 12.9591C17.1284 13.3502 16.9454 13.9137 17.04 14.4658L18.0466 20.3373C18.0901 20.591 17.9858 20.8473 17.7776 20.9984C17.5694 21.1498 17.2934 21.1697 17.0656 21.0499L11.7918 18.2778C11.2959 18.0172 10.7035 18.0172 10.2075 18.2779L4.93416 21.0499C4.70634 21.1696 4.43033 21.1496 4.22215 20.9984C4.01393 20.8471 3.90971 20.5907 3.95318 20.3371L4.96027 14.4661C5.05503 13.9137 4.87194 13.3502 4.47067 12.959L0.204194 8.80006C0.0199426 8.6204 -0.046429 8.3517 0.0331098 8.10697C0.112648 7.86224 0.324216 7.68388 0.578901 7.64679L6.47494 6.78972C7.02939 6.70911 7.50872 6.36087 7.75671 5.85842L10.3934 0.515887Z" />
</g>
<defs>

</defs>
</symbol><clipPath id="star_clip0_2060_120">
<rect width="22" height="21.2667" fill="white" />
</clipPath><symbol viewBox="0 0 20 18" fill="none" id="telegram">
<path d="M13 7L9 11L15 17L19 1L1 8L5 10L7 16L10 12" stroke="currentColor" stroke-width="2" stroke-linecap="round" stroke-linejoin="round" />
</symbol><symbol viewBox="0 0 20 20" fill="none" id="timer">
<path d="M4.97312 1.52981C5.24266 1.31418 5.28636 0.920875 5.07073 0.651337C4.85509 0.381798 4.46179 0.338097 4.19225 0.553728L2.10891 2.22039C1.83938 2.43603 1.79567 2.82933 2.01131 3.09887C2.22694 3.36841 2.62024 3.41211 2.88978 3.19648L4.97312 1.52981Z" fill="#B15656" />
<path d="M15.8064 0.553728C15.5369 0.338097 15.1436 0.381798 14.928 0.651337C14.7123 0.920875 14.756 1.31418 15.0256 1.52981L17.1089 3.19648C17.3785 3.41211 17.7718 3.36841 17.9874 3.09887C18.203 2.82933 18.1593 2.43603 17.8898 2.22039L15.8064 0.553728Z" fill="#B15656" />
<path fill-rule="evenodd" clip-rule="evenodd" d="M9.99935 1.04177C5.0518 1.04177 1.04102 5.05256 1.04102 10.0001C1.04102 14.9477 5.0518 18.9584 9.99935 18.9584C14.9469 18.9584 18.9577 14.9477 18.9577 10.0001C18.9577 5.05256 14.9469 1.04177 9.99935 1.04177ZM10.6243 6.66677C10.6243 6.3216 10.3445 6.04177 9.99935 6.04177C9.65417 6.04177 9.37435 6.3216 9.37435 6.66677V8.93797C9.37433 9.38282 9.37432 9.7612 9.40528 10.0752C9.43825 10.4097 9.50976 10.7198 9.68138 11.017C9.853 11.3143 10.0858 11.5312 10.359 11.727C10.6154 11.9108 10.9431 12.1 11.3284 12.3224L11.852 12.6247C12.1509 12.7973 12.5332 12.6949 12.7057 12.3959C12.8783 12.097 12.7759 11.7148 12.477 11.5422L11.9785 11.2544C11.5613 11.0135 11.2876 10.8547 11.0871 10.711C10.8978 10.5753 10.8156 10.4815 10.7639 10.392C10.7122 10.3025 10.6721 10.1844 10.6492 9.95258C10.625 9.70711 10.6243 9.39069 10.6243 8.90891L10.6243 6.66677Z" fill="#B15656" />
</symbol><symbol viewBox="0 0 20 20" fill="none" id="trash">
<path d="M5.00033 15.8333C5.00033 16.75 5.75033 17.5 6.66699 17.5H13.3337C14.2503 17.5 15.0003 16.75 15.0003 15.8333V5.83333H5.00033V15.8333ZM15.8337 3.33333H12.917L12.0837 2.5H7.91699L7.08366 3.33333H4.16699V5H15.8337V3.33333Z" fill="white" />
</symbol><symbol viewBox="0 0 40 41" fill="none" id="trx">
<path fill-rule="evenodd" clip-rule="evenodd" d="M20 40.5C9 40.5 0 31.5002 0 20.4004C0.1 9.40064 9 0.400827 20.1 0.500825C31.1 0.600823 40 9.50064 40 20.7004C39.9 31.6002 31 40.5 20 40.5Z" fill="#FC070C" />
<path fill-rule="evenodd" clip-rule="evenodd" d="M32.4119 14.5101L32.4118 14.51C31.4856 13.6106 30.5068 12.6603 29.6431 11.8937L29.5556 11.8324C29.41 11.7155 29.2458 11.6238 29.0699 11.5612L28.4033 11.4368C23.8033 10.5785 8.89296 7.79638 8.58625 7.83368C8.49553 7.84639 8.40882 7.87928 8.3325 7.92993L8.24937 7.99556C8.14702 8.09951 8.06928 8.22509 8.02187 8.36306L8 8.41993V8.73056V8.77868C9.01229 11.5974 11.6419 17.8924 14.07 23.7048L14.07 23.7048C16.1227 28.6188 18.0314 33.1879 18.6968 35.0198L18.6971 35.0206C18.7846 35.2921 18.9509 35.8074 19.2612 35.8336H19.3312C19.4975 35.8336 20.2062 34.8974 20.2062 34.8974C20.2062 34.8974 32.8762 19.5324 34.158 17.8962C34.324 17.6946 34.4705 17.4778 34.5955 17.2487C34.6605 16.884 34.5293 16.5119 34.2499 16.2687C33.7041 15.7647 33.0713 15.1503 32.4119 14.5101ZM23.4568 18.058L28.8643 13.5736L32.0361 16.4961L23.4568 18.058ZM12.0469 10.1349L21.3568 17.7648L27.11 12.913L12.0469 10.1349ZM22.1969 19.7642L31.7256 18.2286L20.8319 31.3536L22.1969 19.7642ZM20.5781 19.2086L10.7825 10.8961L19.1606 31.3623L20.5781 19.2086Z" fill="white" />
</symbol><symbol viewBox="0 0 40 41" fill="none" id="usdt">
<path d="M39.4016 25.3381C36.7301 36.0525 25.877 42.5731 15.1601 39.9012C4.44772 37.2301 -2.07358 26.3775 0.599038 15.6639C3.26931 4.94838 14.1225 -1.57268 24.836 1.09847C35.5521 3.76961 42.073 14.6234 39.4013 25.3383L39.4015 25.3381H39.4016Z" fill="#50AF95" />
<path fill-rule="evenodd" clip-rule="evenodd" d="M22.5336 22.7675C22.3922 22.7781 21.6615 22.8217 20.0314 22.8217C18.735 22.8217 17.8145 22.7828 17.4915 22.7675C12.4812 22.5471 8.74146 21.675 8.74146 20.6309C8.74146 19.5867 12.4812 18.7158 17.4915 18.4919V21.8989C17.8192 21.9225 18.7573 21.9779 20.0538 21.9779C21.6096 21.9779 22.3887 21.9131 22.5289 21.9001V18.4943C27.5286 18.717 31.2601 19.5891 31.2601 20.6309C31.2601 21.6727 27.5298 22.5447 22.5289 22.7663L22.5336 22.7675ZM22.5335 18.1419V15.0932H29.5109V10.444H10.514V15.0932H17.4902V18.1407C11.8199 18.4012 7.55566 19.5243 7.55566 20.8701C7.55566 22.2159 11.8199 23.3378 17.4902 23.5994V33.3691H22.5324V23.5959C28.1897 23.3355 32.4469 22.2136 32.4469 20.8689C32.4469 19.5243 28.1933 18.4023 22.5324 18.1407L22.5335 18.1419Z" fill="white" />
</symbol><symbol viewBox="0 0 20 20" fill="none" id="whatsapp">
<path d="M5.25301 16.494L5.97701 16.917C7.19795 17.6291 8.5866 18.0029 10 18C11.5823 18 13.129 17.5308 14.4446 16.6518C15.7602 15.7727 16.7855 14.5233 17.3911 13.0615C17.9966 11.5997 18.155 9.99113 17.8463 8.43928C17.5376 6.88743 16.7757 5.46197 15.6569 4.34315C14.538 3.22433 13.1126 2.4624 11.5607 2.15372C10.0089 1.84504 8.40036 2.00346 6.93855 2.60896C5.47674 3.21447 4.22731 4.23984 3.34826 5.55544C2.46921 6.87103 2.00001 8.41775 2.00001 10C2.00001 11.436 2.37701 12.813 3.08401 14.024L3.50601 14.748L2.85301 17.149L5.25301 16.494ZM0.00401338 20L1.35601 15.032C0.465151 13.5049 -0.00289063 11.768 1.34322e-05 10C1.34322e-05 4.477 4.47701 0 10 0C15.523 0 20 4.477 20 10C20 15.523 15.523 20 10 20C8.23279 20.0029 6.49667 19.5352 4.97001 18.645L0.00401338 20ZM6.39101 5.308C6.52501 5.298 6.66001 5.298 6.79401 5.304C6.84801 5.308 6.90201 5.314 6.95601 5.32C7.11501 5.338 7.29001 5.435 7.34901 5.569C7.64701 6.245 7.93701 6.926 8.21701 7.609C8.27901 7.761 8.24201 7.956 8.12401 8.146C8.04286 8.27448 7.95507 8.39865 7.86101 8.518C7.74801 8.663 7.50501 8.929 7.50501 8.929C7.50501 8.929 7.40601 9.047 7.44401 9.194C7.45801 9.25 7.50401 9.331 7.54601 9.399L7.60501 9.494C7.86101 9.921 8.20501 10.354 8.62501 10.762C8.74501 10.878 8.86201 10.997 8.98801 11.108C9.45601 11.521 9.98601 11.858 10.558 12.108L10.563 12.11C10.648 12.147 10.691 12.167 10.815 12.22C10.877 12.246 10.941 12.269 11.006 12.286C11.0732 12.3031 11.1439 12.2999 11.2093 12.2767C11.2746 12.2536 11.3316 12.2116 11.373 12.156C12.097 11.279 12.163 11.222 12.169 11.222V11.224C12.2193 11.1771 12.2791 11.1415 12.3443 11.1196C12.4095 11.0977 12.4786 11.09 12.547 11.097C12.607 11.101 12.668 11.112 12.724 11.137C13.255 11.38 14.124 11.759 14.124 11.759L14.706 12.02C14.804 12.067 14.893 12.178 14.896 12.285C14.9 12.352 14.906 12.46 14.883 12.658C14.851 12.917 14.773 13.228 14.695 13.391C14.6416 13.5022 14.5707 13.6042 14.485 13.693C14.3841 13.7989 14.2736 13.8954 14.155 13.981C14.114 14.0119 14.0723 14.0419 14.03 14.071C13.9056 14.1499 13.7778 14.2233 13.647 14.291C13.3895 14.4278 13.1052 14.5063 12.814 14.521C12.629 14.531 12.444 14.545 12.258 14.535C12.25 14.535 11.69 14.448 11.69 14.448C10.2683 14.074 8.9534 13.3735 7.85001 12.402C7.62401 12.203 7.41501 11.989 7.20101 11.776C6.31101 10.891 5.63901 9.936 5.23101 9.034C5.02218 8.59129 4.90938 8.1094 4.90001 7.62C4.89589 7.01285 5.09436 6.42167 5.46401 5.94C5.53701 5.846 5.60601 5.748 5.72501 5.635C5.85201 5.515 5.93201 5.451 6.01901 5.407C6.13469 5.34903 6.26088 5.31502 6.39001 5.307L6.39101 5.308Z" fill="currentColor" />
</symbol>
<symbol viewBox="0 0 20 20" fill="none" id="planet">
    <path fill-rule="evenodd" clip-rule="evenodd" d="M7.45513 1.35549C5.71534 1.86156 4.16862 2.88057 3.01701 4.27943C1.86541 5.67828 1.16246 7.39193 1 9.19654H5.11401C5.35251 6.4505 6.14868 3.78199 7.45385 1.35421L7.45513 1.35549ZM5.11401 10.8036H1C1.16212 12.6082 1.86477 14.3221 3.01615 15.7211C4.16753 17.1202 5.7141 18.1395 7.45385 18.6459C6.14868 16.2181 5.35251 13.5496 5.11401 10.8036ZM9.516 18.9892C7.95627 16.5175 7.00053 13.7133 6.72618 10.8036H13.1993C12.925 13.7133 11.9692 16.5175 10.4095 18.9892C10.1118 19.0036 9.81366 19.0036 9.516 18.9892ZM12.4729 18.6446C14.2125 18.1383 15.7589 17.1192 16.9103 15.7204C18.0617 14.3215 18.7644 12.608 18.9268 10.8036H14.8128C14.5743 13.5496 13.7781 16.2181 12.4729 18.6459V18.6446ZM14.8128 9.19654H18.9268C18.7647 7.39187 18.062 5.67805 16.9106 4.27896C15.7593 2.87988 14.2127 1.86057 12.4729 1.35421C13.7781 3.78198 14.5743 6.4505 14.8128 9.19654ZM9.516 1.01095C9.81408 0.996351 10.1127 0.996351 10.4108 1.01095C11.9701 3.48271 12.9254 6.28692 13.1993 9.19654H6.72747C7.00645 6.26916 7.96424 3.46264 9.516 1.01095Z" fill="url(#paint0_linear_1_1453)"/>
    <defs>
    <linearGradient id="paint0_linear_1_1453" x1="1" y1="10" x2="19" y2="10" gradientUnits="userSpaceOnUse">
    <stop stop-color="#C9B09A"/>
    <stop offset="1" stop-color="#C9B09A" stop-opacity="0.25"/>
    </linearGradient>
    </defs>
</symbol>
</defs></svg>