<svg width="24" height="24" viewBox="0 0 24 24" fill="none" xmlns="http://www.w3.org/2000/svg">
<g clip-path="url(#clip0_14717_3237)">
<path d="M20.812 4.05937L20.8121 4.05933C18.7215 1.87566 15.7774 0.515625 12.5156 0.515625C6.17297 0.515625 1.03125 5.65734 1.03125 12C1.03125 18.3427 6.17297 23.4844 12.5156 23.4844C14.8387 23.4844 17.0001 22.794 18.8073 21.6082L20.812 4.05937Z" fill="#65C4D3"/>
<path d="M23.1173 15.4125L23.5874 15.0609C23.7137 14.603 23.8125 14.1336 23.8816 13.6546L23.5874 13.3031L23.961 12.9515C23.9867 12.6377 24 12.3204 24 12C24 11.5747 23.976 11.155 23.931 10.7417L22.7182 8.73276V6.72384C22.211 5.74509 21.5675 4.84833 20.812 4.05933H4.21875V4.0598L1.03406 12.2381L0 14.8931V19.5C0 20.6648 0.944531 21.6093 2.10938 21.6093H18.8072C20.909 20.2302 22.5311 18.1803 23.369 15.764L23.1173 15.4125Z" fill="#D3DCFB"/>
<path d="M6.5625 20.2031V5.46558C6.5625 4.6889 7.19208 4.05933 7.96875 4.05933H4.21875V4.0598L1.03406 12.2381L0 14.8931V19.5C0 20.6648 0.944531 21.6093 2.10938 21.6093H7.96875C7.19208 21.6093 6.5625 20.9797 6.5625 20.2031Z" fill="#BEC8F7"/>
<path d="M2.10938 1.24683H3.28125C3.79903 1.24683 4.21875 1.66654 4.21875 2.18433V16.4531C4.21875 16.9709 3.79903 17.3906 3.28125 17.3906H2.10938C0.944391 17.3906 0 18.335 0 19.5V3.3562C0 2.19126 0.944391 1.24683 2.10938 1.24683Z" fill="#E9EFFF"/>
<path d="M2.34375 16.4531V2.18433C2.34375 1.66654 2.76347 1.24683 3.28125 1.24683H2.10938C0.944391 1.24683 0 2.19122 0 3.3562V19.5C0 18.335 0.944391 17.3906 2.10938 17.3906H3.28125C2.76347 17.3906 2.34375 16.9709 2.34375 16.4531Z" fill="#D3DCFB"/>
<path d="M9.30803 7.12571C9.30803 6.9038 9.12812 6.72394 8.90626 6.72394H8.10269V6.32218C8.10269 6.10027 7.92278 5.92041 7.70092 5.92041C7.47901 5.92041 7.29915 6.10032 7.29915 6.32218V6.72394C6.63344 6.72394 6.09381 7.26361 6.09381 7.92928C6.09381 8.595 6.63348 9.13463 7.29915 9.13463H8.10273C8.32464 9.13463 8.5045 9.31454 8.5045 9.53639C8.5045 9.7583 8.32459 9.93816 8.10273 9.93816H6.49558C6.27367 9.93816 6.09381 10.1181 6.09381 10.3399C6.09381 10.5618 6.27372 10.7417 6.49558 10.7417H7.29915V11.1435C7.29915 11.3654 7.47906 11.5452 7.70092 11.5452C7.92283 11.5452 8.10269 11.3653 8.10269 11.1435V10.7417H8.13869C8.78448 10.7418 9.30803 10.2183 9.30803 9.57249V9.54225C9.30803 8.87063 8.76836 8.33096 8.10264 8.33096C7.8123 8.33096 7.5219 8.33096 7.29897 8.33096C7.07706 8.33096 6.89734 8.15105 6.89734 7.92919C6.89734 7.70728 7.07725 7.52743 7.29911 7.52743H8.90626C9.12817 7.52752 9.30803 7.34761 9.30803 7.12571Z" fill="#5F5F9B"/>
<path d="M7.29909 9.93823H6.49552C6.27361 9.93823 6.09375 10.1181 6.09375 10.34C6.09375 10.5619 6.27366 10.7418 6.49552 10.7418H7.29909C7.07719 10.7418 6.89733 10.5619 6.89733 10.34C6.89733 10.1181 7.07719 9.93823 7.29909 9.93823Z" fill="#47477F"/>
<path d="M7.29909 6.72388C6.63338 6.72388 6.09375 7.26355 6.09375 7.92922C6.09375 8.59494 6.63342 9.13456 7.29909 9.13456C7.07719 9.13456 6.89733 8.95466 6.89733 8.7328C6.89733 8.51089 7.07723 8.33103 7.29909 8.33103H7.29895C7.07705 8.33103 6.89733 8.15113 6.89733 7.92927C6.89733 7.70736 7.07723 7.5275 7.29909 7.5275C7.07719 7.5275 6.89733 7.3476 6.89733 7.12574C6.89733 6.90374 7.07719 6.72388 7.29909 6.72388Z" fill="#47477F"/>
<path d="M22.7182 8.7328L23.0529 7.42742C22.9491 7.1886 22.8375 6.95394 22.7182 6.72388H11.7188C11.201 6.72388 10.7812 7.1436 10.7812 7.66138V9.80422C10.7812 10.322 11.201 10.7417 11.7188 10.7417H23.931C23.9051 10.5043 23.8713 10.2694 23.8312 10.0366L22.7182 8.7328Z" fill="#BEC8F7"/>
<path d="M14.5312 10.0386V7.427C14.5312 7.03869 14.8461 6.72388 15.2344 6.72388H11.7188C11.201 6.72388 10.7812 7.1436 10.7812 7.66138V9.80422C10.7812 10.322 11.201 10.7417 11.7188 10.7417H15.2344C14.8461 10.7417 14.5312 10.4269 14.5312 10.0386Z" fill="#A2B6F4"/>
<path d="M23.053 7.427H11.7188C11.5895 7.427 11.4844 7.53214 11.4844 7.66138V9.80427C11.4844 9.9335 11.5895 10.0386 11.7188 10.0386H23.833C23.6761 9.12674 23.4115 8.25177 23.053 7.427Z" fill="#E9EFFF"/>
<path d="M14.5312 7.427H11.7188C11.5895 7.427 11.4844 7.53214 11.4844 7.66138V9.80427C11.4844 9.9335 11.5895 10.0386 11.7188 10.0386H14.5312V7.427Z" fill="#D3DCFB"/>
<path d="M23.961 12.9517H6.44531C6.25116 12.9517 6.09375 13.1091 6.09375 13.3032C6.09375 13.4974 6.25116 13.6548 6.44531 13.6548H23.8816C23.9151 13.4226 23.9416 13.1881 23.961 12.9517Z" fill="#BEC8F7"/>
<path d="M9.77967 13.3032C9.77967 13.1091 9.93708 12.9517 10.1312 12.9517H6.44531C6.25116 12.9517 6.09375 13.1091 6.09375 13.3032C6.09375 13.4974 6.25116 13.6548 6.44531 13.6548H10.1312C9.93708 13.6548 9.77967 13.4974 9.77967 13.3032Z" fill="#A2B6F4"/>
<path d="M23.5875 15.061H6.44531C6.25116 15.061 6.09375 15.2184 6.09375 15.4126C6.09375 15.6068 6.25116 15.7642 6.44531 15.7642H23.369C23.4491 15.5331 23.5219 15.2986 23.5875 15.061Z" fill="#BEC8F7"/>
<path d="M9.77967 15.4126C9.77967 15.2184 9.93708 15.061 10.1312 15.061H6.44531C6.25116 15.061 6.09375 15.2184 6.09375 15.4126C6.09375 15.6068 6.25116 15.7642 6.44531 15.7642H10.1312C9.93708 15.7642 9.77967 15.6068 9.77967 15.4126Z" fill="#A2B6F4"/>
<path d="M12.3368 17.8735H6.44531C6.25116 17.8735 6.09375 17.7161 6.09375 17.522C6.09375 17.3278 6.25116 17.1704 6.44531 17.1704H12.3368C12.531 17.1704 12.6884 17.3278 12.6884 17.522C12.6884 17.7161 12.531 17.8735 12.3368 17.8735Z" fill="#BEC8F7"/>
<path d="M9.77967 17.522C9.77967 17.3278 9.93708 17.1704 10.1312 17.1704H6.44531C6.25116 17.1704 6.09375 17.3278 6.09375 17.522C6.09375 17.7161 6.25116 17.8735 6.44531 17.8735H10.1312C9.93708 17.8735 9.77967 17.7161 9.77967 17.522Z" fill="#A2B6F4"/>
</g>
<defs>
<clipPath id="clip0_14717_3237">
<rect width="24" height="24" fill="white"/>
</clipPath>
</defs>
</svg>
