<svg width="24" height="24" viewBox="0 0 24 24" fill="none" xmlns="http://www.w3.org/2000/svg">
<path d="M22.4405 12.7994L7.89776 20.8031C7.10049 21.2419 6.09848 20.9512 5.6597 20.154L1.22799 12.1015C0.789208 11.3042 1.07982 10.3022 1.87709 9.8634L16.4199 1.85976C17.2171 1.42098 18.2191 1.7116 18.6579 2.50887L23.0896 10.5614C23.5284 11.3586 23.2378 12.3607 22.4405 12.7994Z" fill="#FEBC1F"/>
<path d="M22.1229 12.2223L7.58013 20.2259C6.78287 20.6647 5.78085 20.3741 5.34207 19.5768L0.91036 11.5243C0.471581 10.727 0.762194 9.72503 1.55946 9.28625L16.1022 1.28261C16.8995 0.843834 17.9015 1.13445 18.3403 1.93172L22.772 9.98422C23.2108 10.7815 22.9202 11.7835 22.1229 12.2223Z" fill="#FFD475"/>
<path d="M16.1022 1.28263L1.55946 9.28628C0.762193 9.72506 0.471585 10.7271 0.910355 11.5243L5.34207 19.5769C5.34207 19.5769 1.2126 11.6795 17.5725 1.22538C17.1165 1.0205 16.5739 1.02304 16.1022 1.28263Z" fill="#FEBC1F"/>
<path d="M2.21296 12.5118L2.76946 13.5229C2.90974 13.7778 3.23009 13.8707 3.48498 13.7305L18.8266 5.28719C19.0814 5.14691 19.1744 4.82656 19.0341 4.57167L18.4776 3.56049C18.3373 3.3056 18.017 3.21269 17.7621 3.35297L2.42048 11.7962C2.16559 11.9365 2.07268 12.2569 2.21296 12.5118Z" fill="#1D2943"/>
<path d="M2.05872 12.2315L2.61523 13.2427C2.7555 13.4975 3.07585 13.5905 3.33074 13.4502L18.6723 5.00691C18.9272 4.86663 19.0201 4.54629 18.8798 4.2914L18.3233 3.28022C18.1831 3.02533 17.8627 2.93242 17.6078 3.0727L2.26624 11.516C2.01135 11.6562 1.91844 11.9766 2.05872 12.2315Z" fill="#4C5C75"/>
<path d="M19.811 22.9218L3.21131 22.9218C2.30127 22.9218 1.56354 22.1841 1.56354 21.274L1.56354 12.0826C1.56354 11.1726 2.30127 10.4348 3.2113 10.4348L19.811 10.4348C20.7211 10.4348 21.4588 11.1725 21.4588 12.0826L21.4588 21.274C21.4588 22.1841 20.7211 22.9218 19.811 22.9218Z" fill="#5094FF"/>
<path d="M3.2113 22.2631L19.811 22.2631C20.7211 22.2631 21.4588 21.5254 21.4588 20.6153L21.4588 11.4239C21.4588 10.5139 20.7211 9.77613 19.811 9.77613L3.21131 9.77612C2.30127 9.77612 1.56354 10.5139 1.56354 11.4239L1.56354 20.6153C1.56354 21.5254 2.30127 22.2631 3.2113 22.2631Z" fill="#57B3FE"/>
<path d="M3.21132 9.77612L19.811 9.77615C20.7211 9.77615 21.4588 10.5139 21.4588 11.4239L21.4588 20.6154C21.4588 20.6154 21.2688 11.7055 1.89563 10.4349C2.19631 10.0355 2.67292 9.77612 3.21132 9.77612Z" fill="#5094FF"/>
<path d="M20.1677 19.3058V19.5615H20.1643C20.1709 19.9074 19.8825 20.1979 19.5347 20.1979L17.8628 20.1979C17.5213 20.1979 17.2265 19.9127 17.2333 19.5615H17.2299V19.3058H17.2707C17.3694 19.0574 17.6383 18.8872 17.9207 18.8872L19.4768 18.8872C19.7593 18.8872 20.0282 19.0574 20.1269 19.3058H20.1677Z" fill="#E3E7F0"/>
<path d="M19.533 19.944L17.9168 19.9441C17.5912 19.9441 17.2835 19.723 17.2378 19.4006C17.1821 19.008 17.4858 18.6712 17.8676 18.6712L19.4774 18.6711C19.8227 18.6711 20.1443 18.9217 20.1653 19.2664C20.1886 19.6489 19.8861 19.944 19.533 19.944Z" fill="white"/>
<path d="M15.3759 19.3058V19.5615H15.3725C15.3792 19.9074 15.0907 20.1979 14.743 20.1979L13.0711 20.1979C12.7295 20.1979 12.4348 19.9127 12.4415 19.5615H12.4381V19.3058H12.4789C12.5777 19.0574 12.8465 18.8872 13.1289 18.8872L14.6851 18.8872C14.9675 18.8872 15.2364 19.0574 15.3351 19.3058H15.3759Z" fill="#E3E7F0"/>
<path d="M14.7412 19.944L13.1251 19.9441C12.7995 19.9441 12.4918 19.723 12.4461 19.4006C12.3904 19.008 12.694 18.6712 13.0759 18.6712L14.6857 18.6711C15.031 18.6711 15.3525 18.9217 15.3736 19.2664C15.3969 19.6489 15.0944 19.944 14.7412 19.944Z" fill="white"/>
<path d="M10.5843 19.3058V19.5615H10.5809C10.5875 19.9074 10.299 20.1979 9.95127 20.1979H8.27941C7.93782 20.1979 7.64307 19.9127 7.64983 19.5615H7.64642V19.3058H7.68726C7.78597 19.0574 8.05483 18.8872 8.33724 18.8872H9.8934C10.1759 18.8872 10.4447 19.0574 10.5434 19.3058H10.5843Z" fill="#E3E7F0"/>
<path d="M9.94953 19.944L8.3334 19.9441C8.00779 19.9441 7.70008 19.723 7.65437 19.4006C7.59871 19.008 7.90234 18.6712 8.28421 18.6712L9.89398 18.6711C10.2393 18.6711 10.5608 18.9217 10.5819 19.2664C10.6052 19.6489 10.3027 19.944 9.94953 19.944Z" fill="white"/>
<path d="M5.79251 19.3058V19.5615H5.7891C5.79576 19.9074 5.50729 20.1979 5.15952 20.1979L3.48766 20.1979C3.14607 20.1979 2.85132 19.9127 2.85808 19.5615H2.85468V19.3058H2.89551C2.99422 19.0574 3.26308 18.8872 3.54549 18.8872L5.10166 18.8872C5.3841 18.8872 5.65297 19.0574 5.75167 19.3058H5.79251Z" fill="#E3E7F0"/>
<path d="M5.15778 19.9443L3.54165 19.9443C3.21604 19.9443 2.90833 19.7232 2.86262 19.4008C2.80696 19.0083 3.11059 18.6714 3.49246 18.6714L5.10223 18.6714C5.44753 18.6714 5.76909 18.922 5.79012 19.2666C5.81346 19.6492 5.51095 19.9443 5.15778 19.9443Z" fill="white"/>
<path d="M2.85602 12.6796L2.85602 14.2171C2.85602 14.6047 3.17021 14.9189 3.55779 14.9189L6.43684 14.9189C6.82442 14.9189 7.13861 14.6047 7.13861 14.2171L7.13861 12.6796C7.13861 12.292 6.82441 11.9778 6.43684 11.9778L3.55779 11.9778C3.17021 11.9778 2.85602 12.292 2.85602 12.6796Z" fill="#FEBC1F"/>
<path d="M2.85602 12.4401L2.85602 13.9776C2.85602 14.3652 3.17021 14.6794 3.55779 14.6794L6.43684 14.6794C6.82442 14.6794 7.13861 14.3652 7.13861 13.9776V12.4401C7.13861 12.0525 6.82441 11.7383 6.43684 11.7383L3.55779 11.7383C3.17021 11.7383 2.85602 12.0525 2.85602 12.4401Z" fill="#FFD475"/>
<path d="M4.92273 13.0429V11.7383H4.5894V13.0429H2.85602V13.3763H3.80435V14.6794H4.13768V13.3763H5.63856V14.6794H5.97188V13.3763H7.13861V13.0429H4.92273Z" fill="#FEBC1F"/>
<path d="M19.8634 14.1941L17.9867 14.1941C17.8304 14.1941 17.6826 14.0879 17.6606 13.9331C17.6339 13.7445 17.7797 13.5828 17.9631 13.5828L19.8368 13.5828C20.0026 13.5828 20.157 13.7031 20.1671 13.8686C20.1783 14.0523 20.033 14.1941 19.8634 14.1941Z" fill="white"/>
<path d="M19.8634 12.8855L16.5686 12.8855C16.4122 12.8855 16.2644 12.7793 16.2425 12.6245C16.2158 12.4359 16.3616 12.2742 16.545 12.2742L19.8367 12.2742C20.0026 12.2742 20.157 12.3945 20.1671 12.56C20.1783 12.7437 20.033 12.8855 19.8634 12.8855Z" fill="white"/>
<path d="M19.3626 5.76001C20.147 6.76662 20.7882 7.86056 21.2794 9.03853C20.4938 8.03272 19.855 6.93735 19.3626 5.76001Z" fill="white"/>
<path d="M4.74506 9.03798C5.8882 8.16326 7.11928 7.43142 8.43567 6.84888C7.29325 7.72477 6.06074 8.45421 4.74506 9.03798Z" fill="white"/>
<path d="M14.1854 21.4359C15.6147 21.2669 17.0469 21.2654 18.4762 21.436C17.0469 21.6065 15.6147 21.6051 14.1854 21.4359Z" fill="white"/>
</svg>
