<svg width="24" height="24" viewBox="0 0 24 24" fill="none" xmlns="http://www.w3.org/2000/svg">
<g clip-path="url(#clip0_14717_3375)">
<path d="M21.4688 8.90625H2.53125C1.28861 8.90625 0.28125 9.91361 0.28125 11.1562V21.4688C0.28125 22.7114 1.28861 23.7188 2.53125 23.7188H21.4688C22.7114 23.7188 23.7188 22.7114 23.7188 21.4688V11.1562C23.7188 9.91361 22.7114 8.90625 21.4688 8.90625Z" fill="#D32F2F"/>
<path d="M3.65625 20.1562H2.34375C2.18842 20.1562 2.0625 20.2822 2.0625 20.4375V21.75C2.0625 21.9053 2.18842 22.0312 2.34375 22.0312H3.65625C3.81158 22.0312 3.9375 21.9053 3.9375 21.75V20.4375C3.9375 20.2822 3.81158 20.1562 3.65625 20.1562Z" fill="#FFC107"/>
<path d="M18.2812 21.8438H21.6562C21.8116 21.8438 21.9375 21.7178 21.9375 21.5625V20.625C21.9375 20.4697 21.8116 20.3438 21.6562 20.3438H18.2812C18.1259 20.3438 18 20.4697 18 20.625V21.5625C18 21.7178 18.1259 21.8438 18.2812 21.8438Z" fill="#FFC107"/>
<path d="M22.1498 0.506187C22.0263 0.383832 21.8595 0.315186 21.6857 0.315186C21.5119 0.315186 21.3451 0.383832 21.2216 0.506187L20.1609 1.56687C20.0399 1.69037 19.9725 1.85664 19.9734 2.02955C19.9743 2.20246 20.0434 2.36803 20.1656 2.49029C20.2879 2.61254 20.4535 2.6816 20.6264 2.68245C20.7993 2.68329 20.9656 2.61586 21.0891 2.49481L22.1498 1.43412C22.2721 1.3107 22.3407 1.14394 22.3407 0.970156C22.3407 0.796368 22.2721 0.629614 22.1498 0.506187Z" fill="#FFC107"/>
<path d="M22.1498 6.44137L21.0891 5.38124C20.9656 5.26019 20.7993 5.19276 20.6264 5.19361C20.4535 5.19446 20.2879 5.26351 20.1656 5.38577C20.0434 5.50802 19.9743 5.6736 19.9734 5.84651C19.9725 6.01942 20.0399 6.18569 20.1609 6.30918L21.2216 7.36987C21.2823 7.43181 21.3547 7.48111 21.4346 7.51491C21.5145 7.54871 21.6002 7.56634 21.687 7.56678C21.7737 7.56723 21.8597 7.55047 21.9399 7.51749C22.0201 7.48451 22.093 7.43595 22.1543 7.37463C22.2157 7.3133 22.2642 7.24043 22.2972 7.16022C22.3302 7.08001 22.347 6.99406 22.3466 6.90733C22.3461 6.8206 22.3285 6.73481 22.2947 6.65493C22.261 6.57504 22.2117 6.50265 22.1498 6.44193V6.44137Z" fill="#FFC107"/>
<path d="M1.85025 0.506187C1.97371 0.383832 2.1405 0.315186 2.31431 0.315186C2.48813 0.315186 2.65492 0.383832 2.77838 0.506187L3.83906 1.56687C3.96009 1.69037 4.02749 1.85664 4.0266 2.02955C4.02572 2.20246 3.95663 2.36803 3.83435 2.49029C3.71208 2.61254 3.54649 2.6816 3.37358 2.68245C3.20067 2.68329 3.03441 2.61586 2.91094 2.49481L1.85025 1.43356C1.72808 1.31016 1.65955 1.14353 1.65955 0.969875C1.65955 0.796224 1.72808 0.62959 1.85025 0.506187Z" fill="#FFC107"/>
<path d="M1.85027 6.44137L2.91096 5.38124C3.03443 5.26019 3.20068 5.19276 3.37359 5.19361C3.5465 5.19446 3.71209 5.26351 3.83437 5.38577C3.95665 5.50802 4.02574 5.6736 4.02662 5.84651C4.0275 6.01942 3.96011 6.18569 3.83908 6.30918L2.77839 7.36874C2.65492 7.48979 2.48866 7.55722 2.31576 7.55638C2.14285 7.55553 1.97726 7.48648 1.85498 7.36422C1.7327 7.24197 1.66361 7.07639 1.66273 6.90348C1.66185 6.73057 1.72924 6.5643 1.85027 6.44081V6.44137Z" fill="#FFC107"/>
<path d="M12.2427 11.4089L14.7623 11.947C14.9217 11.9809 15.0864 11.9809 15.2458 11.9471C15.4052 11.9132 15.5557 11.8462 15.6875 11.7504C15.8193 11.6546 15.9295 11.5322 16.011 11.391C16.0924 11.2499 16.1433 11.0932 16.1603 10.9311L16.4273 8.36859C16.4442 8.20592 16.4953 8.04867 16.5773 7.90715L17.8675 5.67721C17.949 5.5361 17.9999 5.37944 18.017 5.21737C18.034 5.05531 18.0168 4.89147 17.9665 4.73648C17.9161 4.5815 17.8337 4.43883 17.7247 4.31774C17.6156 4.19664 17.4823 4.09983 17.3335 4.03358L14.9788 2.9879C14.8294 2.92151 14.6956 2.82433 14.5862 2.70271L12.864 0.787397C12.7551 0.666143 12.6219 0.569171 12.473 0.502789C12.3242 0.436406 12.163 0.4021 12 0.4021C11.837 0.4021 11.6759 0.436406 11.527 0.502789C11.3782 0.569171 11.2449 0.666143 11.136 0.787397L9.41384 2.70365C9.30448 2.82527 9.17069 2.92245 9.02121 2.98883L6.66659 4.03358C6.5177 4.09983 6.38441 4.19664 6.27535 4.31774C6.1663 4.43883 6.08393 4.5815 6.03357 4.73648C5.98322 4.89147 5.96601 5.05531 5.98307 5.21737C6.00013 5.37944 6.05107 5.5361 6.13259 5.67721L7.42278 7.90715C7.50473 8.04867 7.55584 8.20592 7.57278 8.36859L7.83978 10.9311C7.85676 11.0932 7.90763 11.2499 7.98908 11.391C8.07053 11.5322 8.18074 11.6546 8.31257 11.7504C8.44439 11.8462 8.59488 11.9132 8.75427 11.9471C8.91366 11.9809 9.07839 11.9809 9.23778 11.947L11.7574 11.4089C11.9174 11.3748 12.0827 11.3748 12.2427 11.4089Z" fill="#FFC107"/>
<path d="M14.7669 2.86486L12 6.67486V0.401861C12.163 0.401336 12.3243 0.435428 12.4732 0.501883C12.6221 0.568338 12.7552 0.665643 12.8636 0.787361L14.5875 2.70211C14.6407 2.76326 14.7009 2.81789 14.7669 2.86486Z" fill="#FFA000"/>
<path d="M7.52136 8.12967L12 6.67505L8.31336 11.7505C8.1809 11.6552 8.07014 11.533 7.98837 11.3918C7.9066 11.2507 7.85569 11.0938 7.83899 10.9315L7.57368 8.36967C7.56531 8.28796 7.54776 8.20745 7.52136 8.12967Z" fill="#FFA000"/>
<path d="M12 6.67499L6.0343 4.7353C6.08427 4.58062 6.16633 4.43823 6.27512 4.31746C6.38391 4.19668 6.51698 4.10023 6.66561 4.03443L9.02211 2.98893C9.0962 2.95441 9.16683 2.91291 9.23305 2.86499L12 6.67499Z" fill="#FFA000"/>
<path d="M15.6866 11.7505C15.5555 11.847 15.4053 11.9145 15.246 11.9485C15.0868 11.9826 14.9222 11.9824 14.763 11.9479L12.2421 11.4096C12.1625 11.3925 12.0814 11.3841 12 11.3845V6.67505L15.6866 11.7505Z" fill="#FFA000"/>
<path d="M17.8669 5.6763L16.5773 7.90755C16.5365 7.97808 16.5035 8.05276 16.4786 8.1303L12 6.67493L17.9657 4.7373C18.0165 4.89191 18.034 5.05554 18.017 5.2174C17.9999 5.37925 17.9488 5.53566 17.8669 5.6763Z" fill="#FFA000"/>
</g>
<defs>
<clipPath id="clip0_14717_3375">
<rect width="24" height="24" fill="white"/>
</clipPath>
</defs>
</svg>
