<svg width="24" height="24" viewBox="0 0 24 24" fill="none" xmlns="http://www.w3.org/2000/svg">
<g clip-path="url(#clip0_14717_3138)">
<path fill-rule="evenodd" clip-rule="evenodd" d="M19.5431 12.3725C19.4165 12.3725 19.304 12.3022 19.2478 12.1897C19.2056 12.1054 19.2056 12.0069 19.2478 11.9226L18.362 11.6976L16.8014 11.4445L15.8735 11.5711L14.2988 11.8382L13.2443 12.5974L13.188 12.6396L13.1599 12.5693L12.5835 10.1792L10.9807 7.64841C10.9666 7.66247 10.9385 7.66247 10.8963 7.66247C10.7276 7.69059 10.5729 7.57811 10.5448 7.39534C10.1652 4.76616 11.4025 2.19323 13.7083 0.871612C16.8014 -0.913976 20.7663 0.140505 22.5518 3.23365C23.4095 4.73804 23.6485 6.48145 23.1986 8.1405C22.7487 9.81362 21.6801 11.2055 20.1757 12.0772C20.0211 12.1616 19.8524 12.26 19.6696 12.3444C19.6274 12.3584 19.5852 12.3725 19.5431 12.3725Z" fill="#7DD63E"/>
<path fill-rule="evenodd" clip-rule="evenodd" d="M19.543 12.3724C19.4165 12.3724 19.304 12.3021 19.2478 12.1896C19.2056 12.1053 19.2056 12.0068 19.2478 11.9225L18.362 11.6975L16.8014 11.4445L15.8734 11.571L14.2987 11.8381L13.2442 12.5974L13.188 12.6395L13.1599 12.5692L13.0193 11.9365C13.1318 11.8662 13.2583 11.7819 13.3708 11.7116C14.3971 11.1351 15.55 10.8118 16.717 10.8118C18.0527 10.8118 19.3321 11.2195 20.4147 11.9225C20.3444 11.9787 20.2601 12.0209 20.1757 12.0771C20.021 12.1615 19.8523 12.2599 19.6696 12.3443C19.6274 12.3583 19.5852 12.3724 19.543 12.3724Z" fill="#71C138"/>
<path fill-rule="evenodd" clip-rule="evenodd" d="M13.7504 12.232L13.2443 12.5975L13.188 12.6397L13.1599 12.5694L12.5835 10.1792L10.9806 7.64849C10.9666 7.66255 10.9385 7.66255 10.8963 7.66255C10.7276 7.69067 10.5729 7.57819 10.5448 7.39542C10.4885 7.07204 10.4745 6.74867 10.4745 6.42529C11.4446 7.00174 12.2741 7.81721 12.8506 8.82951C13.4692 9.89805 13.7645 11.0791 13.7504 12.232Z" fill="#71C138"/>
<path fill-rule="evenodd" clip-rule="evenodd" d="M19.4727 10.7977C19.4446 10.7977 19.4024 10.7977 19.3603 10.7836C18.5167 10.4462 17.6309 10.2775 16.7311 10.2775C15.9578 10.2775 15.1986 10.404 14.4815 10.643C14.3972 10.6711 14.2987 10.6571 14.2284 10.6149C14.1441 10.5727 14.0879 10.5024 14.0738 10.4181C13.9051 9.77132 13.652 9.15269 13.3146 8.56218C12.9631 7.94355 12.5132 7.38116 11.9929 6.88907C11.9226 6.83283 11.8945 6.74847 11.8805 6.66411C11.8102 4.7801 12.7803 3.02263 14.4112 2.08063C15.1845 1.64478 16.0562 1.40576 16.942 1.40576C18.7416 1.40576 20.4288 2.37588 21.3286 3.93652C22.6924 6.29856 21.9613 9.29328 19.6415 10.7555C19.5993 10.7836 19.543 10.7977 19.4727 10.7977Z" fill="#AAE480"/>
<path fill-rule="evenodd" clip-rule="evenodd" d="M16.7311 23.9998C14.4253 23.9998 12.2741 22.7485 11.1212 20.752C10.5026 19.6694 10.2074 18.4462 10.2636 17.1949C10.2777 17.0965 10.3198 17.0121 10.4042 16.9559C11.8805 15.9155 12.7803 14.2845 12.8787 12.4708C12.8787 12.3724 12.935 12.288 13.0053 12.2318C13.174 12.1193 13.3286 12.0068 13.4973 11.9225C14.4815 11.346 15.5922 11.0508 16.717 11.0508C19.0369 11.0508 21.174 12.288 22.3269 14.2845C24.1125 17.3777 23.058 21.3425 19.9648 23.1281C18.9806 23.6905 17.8699 23.9998 16.7311 23.9998Z" fill="#FFA721"/>
<path fill-rule="evenodd" clip-rule="evenodd" d="M10.2777 18.0526C10.2496 17.7714 10.2496 17.4902 10.2636 17.195C10.2777 17.0966 10.3199 17.0122 10.4042 16.956C11.8805 15.9156 12.7803 14.2846 12.8787 12.4709C12.8787 12.3725 12.935 12.2881 13.0053 12.2319C13.174 12.1194 13.3287 12.0069 13.4974 11.9226C13.5677 11.8663 13.652 11.8242 13.7364 11.782C13.877 14.2424 12.6678 16.6888 10.4042 17.9964C10.362 18.0105 10.3199 18.0386 10.2777 18.0526Z" fill="#FF961E"/>
<path fill-rule="evenodd" clip-rule="evenodd" d="M16.7311 22.5798C14.9314 22.5798 13.2443 21.6097 12.3444 20.0491C11.9648 19.3882 11.7399 18.6712 11.6836 17.926C11.6696 17.8136 11.7118 17.7151 11.7961 17.6589C13.0896 16.5341 13.9473 14.9735 14.2003 13.2723C14.2144 13.1738 14.2847 13.0895 14.369 13.0473C15.1002 12.6677 15.9016 12.4568 16.717 12.4568C18.5307 12.4568 20.2179 13.4269 21.1177 14.9875C22.5096 17.4058 21.6801 20.513 19.2618 21.9049C18.4886 22.3549 17.6168 22.5798 16.7311 22.5798Z" fill="#FFBF5D"/>
<path fill-rule="evenodd" clip-rule="evenodd" d="M16.7311 20.1615C16.5623 20.1615 16.4217 20.0209 16.4217 19.8522V19.4022H15.9578C15.775 19.4022 15.6344 19.2616 15.6344 19.0929C15.6344 18.9101 15.775 18.7696 15.9578 18.7696H17.195V17.8416H15.9578C15.775 17.8416 15.6344 17.701 15.6344 17.5182V15.9576C15.6344 15.7748 15.775 15.6342 15.9578 15.6342H16.4217V15.1984C16.4217 15.0156 16.5623 14.875 16.7311 14.875C16.9138 14.875 17.0544 15.0156 17.0544 15.1984V15.6342H17.5184C17.6871 15.6342 17.8418 15.7748 17.8418 15.9576C17.8418 16.1404 17.6871 16.281 17.5184 16.281H16.2671V17.2089H17.5184C17.6871 17.2089 17.8418 17.3495 17.8418 17.5182V19.0929C17.8418 19.2616 17.6871 19.4022 17.5184 19.4022H17.0544V19.8522C17.0544 20.0209 16.9138 20.1615 16.7311 20.1615Z" fill="white"/>
<path fill-rule="evenodd" clip-rule="evenodd" d="M17.0544 6.38282H16.1546C15.9718 6.38282 15.8312 6.24222 15.8312 6.05945V4.24574C15.8312 4.06296 15.9718 3.92236 16.1546 3.92236H17.0544C17.7293 3.92236 18.2917 4.47069 18.2917 5.15962C18.2917 5.83449 17.7293 6.38282 17.0544 6.38282ZM16.4639 5.75013H17.0544C17.3778 5.75013 17.6449 5.483 17.6449 5.15962C17.6449 4.82219 17.3778 4.56911 17.0544 4.56911H16.4639V5.75013Z" fill="white"/>
<path fill-rule="evenodd" clip-rule="evenodd" d="M17.4622 8.19664H16.1546C15.9718 8.19664 15.8312 8.05604 15.8312 7.87327V6.05956C15.8312 5.89084 15.9718 5.75024 16.1546 5.75024H17.4622C18.1511 5.75024 18.6994 6.29857 18.6994 6.97344C18.6994 7.64831 18.1511 8.19664 17.4622 8.19664ZM16.4639 7.56395H17.4622C17.7996 7.56395 18.0527 7.29682 18.0527 6.97344C18.0527 6.65007 17.7996 6.38293 17.4622 6.38293H16.4639V7.56395Z" fill="white"/>
<path fill-rule="evenodd" clip-rule="evenodd" d="M16.6045 4.56923C16.4217 4.56923 16.2811 4.42864 16.2811 4.24586V3.61317C16.2811 3.43039 16.4217 3.28979 16.6045 3.28979C16.7732 3.28979 16.9279 3.43039 16.9279 3.61317V4.24586C16.9279 4.42864 16.7732 4.56923 16.6045 4.56923Z" fill="white"/>
<path fill-rule="evenodd" clip-rule="evenodd" d="M16.6045 8.91382C16.4217 8.91382 16.2811 8.77322 16.2811 8.6045V7.95775C16.2811 7.78904 16.4217 7.64844 16.6045 7.64844C16.7732 7.64844 16.9279 7.78904 16.9279 7.95775V8.6045C16.9279 8.77322 16.7732 8.91382 16.6045 8.91382Z" fill="white"/>
<path fill-rule="evenodd" clip-rule="evenodd" d="M16.1546 4.56911H15.5079C15.3391 4.56911 15.1985 4.42851 15.1985 4.24574C15.1985 4.06296 15.3391 3.92236 15.5079 3.92236H16.1546C16.3233 3.92236 16.4639 4.06296 16.4639 4.24574C16.4639 4.42851 16.3233 4.56911 16.1546 4.56911Z" fill="white"/>
<path fill-rule="evenodd" clip-rule="evenodd" d="M16.1546 8.19665H15.5079C15.3391 8.19665 15.1985 8.05606 15.1985 7.87328C15.1985 7.70456 15.3391 7.56396 15.5079 7.56396H16.1546C16.3233 7.56396 16.4639 7.70456 16.4639 7.87328C16.4639 8.05606 16.3233 8.19665 16.1546 8.19665Z" fill="white"/>
<path fill-rule="evenodd" clip-rule="evenodd" d="M7.05798 18.6573C4.75218 18.6573 2.60104 17.42 1.44814 15.4235C0.576431 13.9191 0.351475 12.1757 0.801387 10.5167C1.2513 8.84358 2.31984 7.45166 3.81017 6.57996C4.79436 6.01757 5.91914 5.70825 7.04392 5.70825C9.34972 5.70825 11.5009 6.95957 12.6538 8.95606C14.4393 12.0351 13.3708 16 10.2777 17.7856C9.30754 18.362 8.18276 18.6573 7.05798 18.6573Z" fill="#8F46DA"/>
<path fill-rule="evenodd" clip-rule="evenodd" d="M7.058 17.2512C5.24429 17.2512 3.57118 16.2811 2.6573 14.7204C1.26538 12.3022 2.09491 9.19496 4.51319 7.80304C5.28647 7.35313 6.15818 7.12817 7.04394 7.12817C8.84359 7.12817 10.5308 8.0983 11.4306 9.65893C12.8366 12.0772 11.993 15.1704 9.5747 16.5623C8.81547 17.0122 7.94377 17.2512 7.058 17.2512Z" fill="#A46AE1"/>
<path fill-rule="evenodd" clip-rule="evenodd" d="M7.04392 13.455C7.00174 13.455 6.9455 13.441 6.90332 13.4129L4.4288 12.1334C4.34445 12.0772 4.28821 12.0069 4.26009 11.9085C4.24603 11.81 4.26009 11.7116 4.33039 11.6413L6.8049 8.56224C6.91738 8.42164 7.17046 8.42164 7.29699 8.56224L9.77151 11.6413C9.82775 11.7116 9.85587 11.81 9.84181 11.9085C9.81369 12.0069 9.75745 12.0772 9.67309 12.1334L7.19858 13.4129C7.1564 13.441 7.10016 13.455 7.04392 13.455ZM5.06149 11.7397L7.04392 12.7661L9.02634 11.7397L7.04392 9.27928L5.06149 11.7397Z" fill="white"/>
<path fill-rule="evenodd" clip-rule="evenodd" d="M7.04389 15.9156C6.94547 15.9156 6.84705 15.8594 6.77675 15.7751L4.30224 12.0211C4.23194 11.8946 4.246 11.7399 4.34442 11.6274C4.44284 11.529 4.59749 11.4868 4.72403 11.5571L7.04389 12.7663L9.37781 11.5571C9.50435 11.4868 9.659 11.529 9.75742 11.6274C9.85584 11.7399 9.8699 11.8946 9.78554 12.0211L7.31102 15.7751C7.25479 15.8594 7.15637 15.9156 7.04389 15.9156ZM5.51138 12.696L7.04389 15.0158L8.5764 12.696L7.19855 13.413C7.10013 13.4693 6.98765 13.4693 6.90329 13.413L5.51138 12.696Z" fill="white"/>
</g>
<defs>
<clipPath id="clip0_14717_3138">
<rect width="24" height="24" fill="white"/>
</clipPath>
</defs>
</svg>
