<svg width="24" height="24" viewBox="0 0 24 24" fill="none" xmlns="http://www.w3.org/2000/svg">
<path d="M6.375 19.125V21.375C6.39807 21.8951 6.5256 22.4052 6.75 22.875H17.25C17.4744 22.4052 17.6019 21.8951 17.625 21.375V19.125H6.375Z" fill="#FFCCBC"/>
<path d="M22.47 6.30743L20.5575 15.8662C20.4787 16.2562 20.2486 16.599 19.9176 16.8197C19.5865 17.0404 19.1815 17.1209 18.7913 17.0437L1.875 13.6537C1.5923 13.5974 1.33186 13.4607 1.125 13.2599V9.76868L2.61375 2.32868C2.69256 1.93871 2.92267 1.59586 3.2537 1.37517C3.58473 1.15448 3.98972 1.07394 4.38 1.15118L21.2963 4.54118C21.4894 4.57987 21.673 4.65628 21.8366 4.76604C22.0002 4.8758 22.1405 5.01674 22.2495 5.18081C22.3586 5.34488 22.4342 5.52884 22.472 5.72216C22.5098 5.91548 22.5091 6.11437 22.47 6.30743Z" fill="#66BB6A"/>
<path d="M22.47 6.30753L20.5575 15.8663C20.4787 16.2562 20.2486 16.5991 19.9176 16.8198C19.5865 17.0405 19.1815 17.121 18.7913 17.0438L1.875 13.6538C1.5923 13.5975 1.33186 13.4608 1.125 13.26V13.1288L16.9163 16.2938C17.3065 16.371 17.7115 16.2905 18.0426 16.0698C18.3736 15.8491 18.6037 15.5062 18.6825 15.1163L20.595 5.55753C20.6385 5.34621 20.6352 5.12793 20.5853 4.91803C20.5354 4.70813 20.4402 4.5117 20.3063 4.34253L21.2963 4.54128C21.4894 4.57997 21.673 4.65638 21.8366 4.76614C22.0002 4.87589 22.1405 5.01684 22.2495 5.18091C22.3586 5.34497 22.4342 5.52893 22.472 5.72226C22.5098 5.91558 22.5091 6.11447 22.47 6.30753Z" fill="#4CAF50"/>
<path d="M19.823 8.07014L18.7917 13.2179C18.5986 13.1791 18.3997 13.1788 18.2064 13.217C18.0132 13.2551 17.8293 13.331 17.6654 13.4402C17.5014 13.5494 17.3606 13.6899 17.251 13.8536C17.1413 14.0172 17.065 14.2009 17.0264 14.3941L4.52479 11.8898C4.56354 11.6967 4.56385 11.4978 4.52571 11.3046C4.48757 11.1113 4.41173 10.9275 4.30252 10.7635C4.19331 10.5996 4.05286 10.4587 3.88921 10.3491C3.72556 10.2394 3.54191 10.1631 3.34875 10.1245L4.38 4.97672C4.57316 5.01547 4.77205 5.01578 4.96533 4.97764C5.1586 4.93949 5.34247 4.86364 5.50641 4.75441C5.67036 4.64518 5.81118 4.50472 5.92083 4.34105C6.03047 4.17738 6.10679 3.99371 6.14543 3.80054L18.6468 6.30475C18.6081 6.4979 18.6078 6.69679 18.6459 6.89006C18.684 7.08333 18.7599 7.26719 18.8691 7.43113C18.9784 7.59508 19.1188 7.7359 19.2825 7.84554C19.4462 7.95518 19.6298 8.0315 19.823 8.07014Z" fill="#A5D6A7"/>
<path d="M21.375 6.375H2.625C1.79657 6.375 1.125 7.04657 1.125 7.875V17.625C1.125 18.4534 1.79657 19.125 2.625 19.125H21.375C22.2034 19.125 22.875 18.4534 22.875 17.625V7.875C22.875 7.04657 22.2034 6.375 21.375 6.375Z" fill="#81C784"/>
<path d="M22.875 7.875V17.625C22.8751 17.822 22.8363 18.0171 22.7609 18.1991C22.6856 18.3811 22.5751 18.5465 22.4358 18.6858C22.2965 18.8251 22.1311 18.9356 21.9491 19.0109C21.7671 19.0863 21.572 19.1251 21.375 19.125H2.625C2.428 19.1251 2.23292 19.0863 2.05091 19.0109C1.8689 18.9356 1.70352 18.8251 1.56422 18.6858C1.42492 18.5465 1.31443 18.3811 1.23907 18.1991C1.16371 18.0171 1.12495 17.822 1.125 17.625V17.49C1.26531 17.6503 1.43829 17.7788 1.63232 17.8667C1.82636 17.9547 2.03696 18.0001 2.25 18H19.5C19.697 18.0001 19.8921 17.9613 20.0741 17.8859C20.2561 17.8106 20.4215 17.7001 20.5608 17.5608C20.7001 17.4215 20.8106 17.2561 20.8859 17.0741C20.9613 16.8921 21.0001 16.697 21 16.5V7.5C21.0001 7.28696 20.9547 7.07636 20.8667 6.88232C20.7788 6.68829 20.6503 6.51531 20.49 6.375H21.375C21.572 6.37495 21.7671 6.41371 21.9491 6.48907C22.1311 6.56443 22.2965 6.67492 22.4358 6.81422C22.5751 6.95352 22.6856 7.1189 22.7609 7.30091C22.8363 7.48292 22.8751 7.678 22.875 7.875Z" fill="#66BB6A"/>
<path d="M20.625 10.125V15.375C20.428 15.3749 20.2329 15.4137 20.0509 15.4891C19.8689 15.5644 19.7035 15.6749 19.5642 15.8142C19.4249 15.9535 19.3144 16.1189 19.2391 16.3009C19.1637 16.4829 19.1249 16.678 19.125 16.875H4.875C4.87505 16.678 4.83629 16.4829 4.76093 16.3009C4.68557 16.1189 4.57508 15.9535 4.43578 15.8142C4.29648 15.6749 4.1311 15.5644 3.94909 15.4891C3.76708 15.4137 3.572 15.3749 3.375 15.375V10.125C3.572 10.1251 3.76708 10.0863 3.94909 10.0109C4.1311 9.93557 4.29648 9.82508 4.43578 9.68578C4.57508 9.54648 4.68557 9.3811 4.76093 9.19909C4.83629 9.01708 4.87505 8.822 4.875 8.625H19.125C19.1249 8.822 19.1637 9.01708 19.2391 9.19909C19.3144 9.3811 19.4249 9.54648 19.5642 9.68578C19.7035 9.82508 19.8689 9.93557 20.0509 10.0109C20.2329 10.0863 20.428 10.1251 20.625 10.125Z" fill="#A5D6A7"/>
<path d="M12 15.375C13.4497 15.375 14.625 14.1997 14.625 12.75C14.625 11.3003 13.4497 10.125 12 10.125C10.5503 10.125 9.375 11.3003 9.375 12.75C9.375 14.1997 10.5503 15.375 12 15.375Z" fill="#81C784"/>
<path d="M14.625 12.75C14.6253 13.0948 14.5575 13.4363 14.4257 13.7549C14.2939 14.0735 14.1005 14.3629 13.8567 14.6068C13.6129 14.8506 13.3234 15.0439 13.0048 15.1757C12.6862 15.3076 12.3448 15.3753 12 15.375C11.6791 15.3767 11.3609 15.3169 11.0625 15.1988C11.5588 15.0097 11.9859 14.6743 12.2873 14.237C12.5886 13.7997 12.75 13.2811 12.75 12.75C12.75 12.2189 12.5886 11.7004 12.2873 11.2631C11.9859 10.8258 11.5588 10.4904 11.0625 10.3013C11.3609 10.1832 11.6791 10.1233 12 10.125C12.3448 10.1248 12.6862 10.1925 13.0048 10.3243C13.3234 10.4562 13.6129 10.6495 13.8567 10.8933C14.1005 11.1371 14.2939 11.4266 14.4257 11.7452C14.5575 12.0638 14.6253 12.4052 14.625 12.75Z" fill="#66BB6A"/>
<path d="M16.875 10.875C16.2783 10.875 15.706 11.1121 15.284 11.534C14.8621 11.956 14.625 12.5283 14.625 13.125V16.875C13.8294 16.875 13.0663 17.1911 12.5037 17.7537C11.9411 18.3163 11.625 19.0794 11.625 19.875V22.875H17.25C17.4744 22.4052 17.6019 21.8951 17.625 21.375V11.625C17.625 11.4261 17.546 11.2353 17.4053 11.0947C17.2647 10.954 17.0739 10.875 16.875 10.875Z" fill="#FFCCBC"/>
<path d="M17.625 11.6248V11.6586C17.1008 11.7464 16.6247 12.0173 16.2814 12.4231C15.9381 12.8289 15.7498 13.3433 15.75 13.8748V17.2498C15.75 17.4487 15.671 17.6395 15.5303 17.7802C15.3897 17.9208 15.1989 17.9998 15 17.9998H14.625C14.1277 17.9998 13.6508 18.1974 13.2992 18.549C12.9475 18.9006 12.75 19.3775 12.75 19.8748V20.4373C12.75 20.5865 12.6907 20.7296 12.5852 20.8351C12.4798 20.9406 12.3367 20.9998 12.1875 20.9998C12.0383 20.9998 11.8952 20.9406 11.7898 20.8351C11.6843 20.7296 11.625 20.5865 11.625 20.4373V19.8748C11.6249 19.4808 11.7024 19.0907 11.8531 18.7266C12.0039 18.3626 12.2248 18.0319 12.5034 17.7533C12.782 17.4747 13.1128 17.2537 13.4768 17.103C13.8408 16.9522 14.231 16.8747 14.625 16.8748V13.1248C14.6254 12.5307 14.8607 11.9609 15.2794 11.5395C15.6981 11.118 16.2664 10.8791 16.8605 10.8748C16.96 10.8735 17.0589 10.8918 17.1513 10.9289C17.2437 10.9659 17.3279 11.0208 17.399 11.0906C17.4701 11.1603 17.5266 11.2434 17.5654 11.3351C17.6042 11.4268 17.6245 11.5253 17.625 11.6248Z" fill="#FFAB91"/>
</svg>
