<svg width="24" height="24" viewBox="0 0 24 24" fill="none" xmlns="http://www.w3.org/2000/svg">
<path d="M3.32053 20.7766C3.33697 20.7934 3.33697 20.8102 3.33697 20.827C3.33697 20.8773 3.30409 20.8941 3.27121 20.8773C3.25477 20.8605 3.23834 20.8438 3.2219 20.827C3.20546 20.7766 3.17258 20.743 3.12327 20.7262C3.09039 20.7094 3.05751 20.6591 3.04108 20.6255C3.04108 20.6087 3.04108 20.5919 3.04108 20.5751C3.04108 20.5751 3.07395 20.5584 3.09039 20.5751C3.17258 20.6423 3.23834 20.7094 3.32053 20.7766ZM3.4356 17.2175C3.46847 17.2511 3.51779 17.2846 3.58354 17.2846C3.58354 17.2343 3.51779 17.1839 3.48491 17.1503C3.30409 16.9657 3.18902 16.7474 3.15614 16.697C2.82738 16.1598 2.74519 15.3708 2.77806 15.2868C2.77806 15.27 2.77806 14.8335 2.72875 14.7664C2.71231 14.8 2.71231 14.8335 2.69587 14.8503C2.66299 15.0686 2.67943 15.3036 2.69587 15.5386C2.69587 15.6058 2.86025 16.6467 3.4356 17.2175ZM1.47943 15.5386H1.49587C1.49587 15.3204 1.51231 14.9343 1.52875 14.716C1.51231 14.716 1.49587 14.716 1.49587 14.716C1.46299 14.9175 1.49587 15.2868 1.47943 15.4883C1.46299 15.5051 1.46299 15.5219 1.47943 15.5386ZM3.5671 17.4861C3.5671 17.5029 3.5671 17.5197 3.5671 17.5365C3.59998 17.57 3.63286 17.5868 3.68217 17.5532C3.66573 17.5029 3.64929 17.4693 3.59998 17.4693C3.59998 17.4693 3.5671 17.4861 3.5671 17.4861ZM1.84108 17.3182C1.87395 17.4189 1.89039 17.5197 1.93971 17.6204C1.97258 17.6876 2.10409 18.0401 2.1534 18.0569C2.16984 18.0401 1.92327 17.5197 1.89039 17.1839C1.87395 17.1839 1.85751 17.1839 1.84108 17.1839C1.84108 17.2343 1.84108 17.2846 1.84108 17.3182ZM1.64382 16.1766C1.5945 16.3277 1.5945 16.4284 1.70957 16.6131C1.66025 16.4452 1.74245 16.4452 1.64382 16.1766ZM2.2356 18.6445C2.21916 18.6277 2.21916 18.6109 2.20272 18.5941C2.16984 18.7788 2.16984 18.7788 2.33423 18.8292C2.30135 18.762 2.26847 18.6949 2.2356 18.6445ZM1.43012 16.6635C1.41368 16.5627 1.3808 16.0759 1.3808 15.9248C1.3808 15.8912 1.3808 15.8408 1.3808 15.8073C1.34792 15.8408 1.34792 15.8576 1.34792 15.8912C1.31505 16.1262 1.34792 16.5963 1.34792 16.7138C1.36436 17.016 1.57806 18.0065 1.66025 18.3423C1.82464 18.8459 2.1534 19.4335 2.26847 19.5678C2.28491 19.6182 2.35066 19.635 2.39998 19.6518C2.21916 19.4503 2.07121 19.1313 2.07121 19.1313C1.5945 18.1408 1.46299 16.8649 1.43012 16.6635ZM14.252 22.3043C14.2192 22.2708 14.1534 22.2708 14.137 22.3211C14.1041 22.3883 14.0383 22.4051 13.989 22.4386C13.9561 22.4554 13.9397 22.489 13.9561 22.5226C13.9726 22.5394 14.0055 22.5562 14.0219 22.5562C14.1205 22.5226 14.2027 22.5058 14.252 22.4051C14.2685 22.3715 14.3013 22.3379 14.252 22.3043ZM13.7424 22.6233C13.7589 22.6401 13.7918 22.6737 13.8082 22.6569C13.8246 22.6569 13.8411 22.6065 13.8575 22.5897C13.8411 22.573 13.8082 22.5562 13.7753 22.5394C13.7589 22.5897 13.726 22.6233 13.7424 22.6233ZM3.09039 20.5751C3.07395 20.5751 3.05751 20.5751 3.04108 20.5751C3.04108 20.5919 3.02464 20.6087 3.04108 20.6255C3.07395 20.6591 3.09039 20.7094 3.12327 20.7262C3.17258 20.7598 3.20546 20.7766 3.2219 20.827C3.2219 20.8438 3.25477 20.8605 3.27121 20.8773C3.30409 20.8941 3.33697 20.8773 3.33697 20.827C3.33697 20.8102 3.33697 20.7766 3.32053 20.7766C3.23834 20.7094 3.17258 20.6423 3.09039 20.5751ZM22.4548 11.7445C22.4548 11.7613 22.4548 11.7781 22.4548 11.7948C22.4383 11.8452 22.4219 11.8956 22.4055 11.9459C22.4055 11.9459 20.9918 20.5751 20.7287 20.7094C20.6137 20.6591 20.0712 19.1985 20.0712 19.1985L20.0219 19.1481L19.989 18.997L19.9561 18.9467C19.8904 19.0306 19.8082 19.0978 19.726 19.1649C19.7096 19.1817 19.6931 19.1817 19.6603 19.1985C19.6603 19.1649 19.6603 19.1481 19.6603 19.1146C19.5616 19.1985 19.4301 19.3328 19.2164 19.5175C18.937 19.8197 18.526 20.189 17.9342 20.5584C17.8849 20.6423 17.7041 20.7598 17.7205 20.7598C17.6383 20.8102 17.5726 20.8605 17.4904 20.9109C17.4575 20.9781 17.4082 20.9949 17.3918 21.0116C17.326 21.0788 17.2438 21.1292 17.1616 21.1795C16.9644 21.2803 16.7671 21.381 16.5534 21.4985C16.4219 21.5824 16.274 21.6664 16.1424 21.7335C16.0931 21.7671 16.0603 21.8007 16.0109 21.8175C15.5835 22.0861 15.1397 22.3043 14.6466 22.4722C14.5479 22.5058 14.4493 22.5394 14.3507 22.5897C14.1534 22.7408 13.9397 22.8416 13.6931 22.8919C13.4466 22.9423 13.2 23.0598 12.937 23.1102C11.8849 23.4124 10.9644 23.5131 9.89587 23.597C9.20546 23.6474 8.28491 23.5299 8.13697 23.5131C8.18628 23.4627 8.21916 23.4292 8.28491 23.4627C8.31779 23.4795 8.3671 23.4795 8.41642 23.4795C8.46573 23.4795 8.53149 23.4459 8.5808 23.4459C9.10683 23.5299 10.274 23.4124 10.4877 23.3956C12.6082 23.1941 14.1534 22.0525 14.1534 22.0525C14.1534 22.0525 12.0164 23.1102 10.3397 23.2445C8.84382 23.362 7.49587 23.2277 7.36436 23.2109C7.28217 23.1941 7.01916 23.1605 6.67395 23.0766C6.47669 23.0598 6.23012 22.9927 5.90135 22.8751C5.85204 22.8751 5.80272 22.8751 5.76984 22.8248C5.72053 22.808 5.67121 22.7912 5.6219 22.7744C5.60546 22.7744 5.58902 22.7744 5.57258 22.7744C5.53971 22.7576 5.49039 22.7408 5.45751 22.724C5.42464 22.7073 5.4082 22.6905 5.37532 22.6737C5.14519 22.573 4.91505 22.4554 4.70135 22.3211C4.52053 22.2036 4.33971 22.0861 4.15888 21.9518C4.06025 21.9014 3.97806 21.8511 3.89587 21.7671C3.83012 21.6832 3.74793 21.616 3.66573 21.5321C2.89313 20.8102 2.44929 20.0883 2.41642 20.0547C2.46573 20.0211 2.48217 20.0547 2.49861 20.0715C2.53149 20.1051 2.84382 20.4912 2.90957 20.4912C2.94245 20.4408 2.90957 20.4073 2.87669 20.3569C2.76162 20.2226 2.84382 20.2897 2.72875 20.1554C2.67943 20.1051 2.71231 20.0715 2.7945 20.1554C2.99176 20.3065 2.99176 20.2562 3.09039 20.3401C3.10683 20.3569 3.20546 20.3905 3.27121 20.3737C3.30409 20.3233 3.15614 20.1386 3.10683 20.0715C3.02464 19.9372 2.86025 19.7861 2.82738 19.7693C2.76162 19.7357 2.86025 19.7357 2.82738 19.6686C2.81094 19.6182 2.61368 19.4839 2.63012 19.4C2.64656 19.3328 2.77806 19.5511 2.87669 19.6518C2.90957 19.6854 2.95888 19.6854 3.0082 19.7357C3.05751 19.7693 3.36984 20.273 3.4356 20.3401C3.51779 20.4073 3.91231 20.827 4.09313 20.9781C4.19176 21.0452 4.71779 21.4817 5.53971 21.7839C6.16436 22.0189 7.64382 22.1029 7.64382 22.1029C7.64382 22.1029 6.19724 21.8007 5.65477 21.5824C4.19176 20.9781 3.73149 20.3065 3.69861 20.2562C3.51779 20.0547 2.67943 19.0978 2.59724 18.997C2.5808 18.8963 2.44929 18.7452 2.44929 18.6949C2.44929 18.6445 2.51505 18.6613 2.53149 18.6781C2.56436 18.7116 2.66299 18.9467 2.71231 18.8795C2.77806 18.8292 2.64656 18.7788 2.64656 18.7284C2.61368 18.5605 2.54793 18.3591 2.46573 18.2919C2.39998 18.2416 2.3671 18.1408 2.28491 17.973C2.25203 17.9226 2.25203 17.8554 2.26847 17.8051C2.28491 17.8051 2.28491 17.8051 2.30135 17.7883C2.31779 17.8219 2.35066 17.8554 2.3671 17.9058C2.41642 18.0065 2.72875 18.5605 2.74519 18.5773C2.82738 18.6949 2.90957 18.7956 2.99176 18.8963C3.12327 19.081 3.30409 19.2992 3.50135 19.4671C3.81368 19.7693 4.12601 19.9036 4.12601 19.9036C3.38628 19.3832 3.13971 18.997 2.72875 18.2584C2.56436 17.9562 2.51505 17.7043 2.46573 17.6372C2.41642 17.5197 2.38354 17.4021 2.35066 17.335C2.30135 17.2343 2.21916 17.1503 2.1534 17.0496C2.10409 17.0832 2.16984 17.2678 2.18628 17.3182C2.20272 17.3686 2.2356 17.4021 2.21916 17.4693C2.18628 17.4861 2.1534 17.4357 2.1534 17.4357C2.10409 17.3518 2.00546 17.1 1.97258 17.0328C1.75888 16.5627 1.79176 16.1934 1.79176 15.9919C1.77532 15.7401 1.79176 15.5554 1.79176 15.3876C1.79176 15.1357 1.89039 14.2795 1.92327 14.0445C1.92327 14.0109 1.93971 13.9941 1.95614 13.9438C2.00546 14.0613 1.98902 14.1452 1.98902 14.2459C1.98902 14.3299 1.98902 14.8167 1.98902 14.9175C1.95614 15.2868 1.95614 15.6226 2.10409 15.9584C2.2356 16.2773 2.1534 16.3109 2.48217 17.1167C3.53423 19.5846 5.63834 19.8029 5.63834 19.8029C5.63834 19.8029 3.5671 19.0474 2.67943 17.2678C2.41642 16.7306 2.59724 17.2343 2.3671 16.3277C2.33423 16.1934 2.30135 16.0087 2.3671 16.0087C2.41642 16.0087 2.41642 15.8576 2.43286 15.7905C2.43286 15.7401 2.41642 15.6562 2.44929 15.6226C2.49861 15.6058 2.48217 15.8744 2.53149 15.9751C2.5808 16.0927 2.41642 15.9751 2.66299 16.5627C2.67943 16.6131 2.99176 17.3854 3.86299 18.0905C3.89587 18.1073 3.92875 18.124 3.96162 18.1408C4.07669 18.2248 4.19176 18.3255 4.32327 18.3927C4.40546 18.443 4.50409 18.4598 4.58628 18.5102C4.7671 18.5941 4.93149 18.6949 5.11231 18.7788C5.11231 18.7788 5.1945 18.8124 5.32601 18.8795C5.37532 18.8963 5.42464 18.9131 5.47395 18.9299C5.57258 18.9635 5.68765 18.997 5.78628 19.0138C5.80272 19.0138 5.81916 19.0138 5.8356 19.0138C5.98354 19.0474 6.11505 19.081 6.26299 19.0978C6.36162 19.1146 6.69039 19.1313 6.75614 19.1649C7.06847 19.1985 7.39724 19.2153 7.72601 19.2153C7.79176 19.2153 7.87395 19.1985 7.93971 19.1985C7.97258 19.1985 8.00546 19.1817 8.0219 19.2153C8.0219 19.2153 8.0219 19.2153 8.03834 19.2153C8.43286 19.1985 8.81094 19.1481 9.17258 19.081C9.32053 19.0474 9.50135 19.0306 9.63286 19.0138H9.6493C9.69861 19.0138 9.76436 18.997 9.7808 18.997C9.74793 18.997 9.86299 18.9803 9.89587 18.9635C9.94519 18.9467 9.9945 18.9131 10.0438 18.8963C10.2246 18.8459 10.389 18.762 10.5698 18.6949C10.9315 18.5605 11.3096 18.3927 11.6712 18.2584C11.6712 18.2584 11.8356 18.1912 12.0986 18.0737C12.4438 17.9058 12.7726 17.7211 13.1013 17.5532C13.1507 17.5197 13.2 17.4861 13.2493 17.5197C13.3972 17.4525 13.5452 17.3686 13.6931 17.2846C14.4329 16.8146 15.5342 15.908 15.5178 15.908C15.6164 15.8408 15.8137 15.6562 15.8137 15.673C15.9945 15.5219 16.0274 15.4883 16.0274 15.4379C16.0274 15.3876 15.7972 15.3372 15.7972 15.3372C15.7972 15.3372 13.9726 14.9511 13.9726 14.8839C13.9726 14.8167 15.0246 14.4978 15.7644 14.2124C15.8137 14.1788 15.863 14.1284 15.9123 14.1116C16.6027 13.927 17.7863 13.2554 18.4767 13.1043C20.6301 12.181 21.9123 11.5094 22.0767 11.4255C22.4548 11.2408 22.4712 11.627 22.4712 11.627L22.4548 11.7445ZM16.2904 15.7233C16.0603 15.9248 15.8466 16.1262 15.6164 16.3109C15.3863 16.5124 15.1561 16.697 14.926 16.8649C14.6959 17.0496 14.4493 17.2175 14.2027 17.3854C14.0712 17.4693 13.9561 17.5532 13.8246 17.6204C13.6931 17.7043 13.5616 17.7715 13.4301 17.8386C13.7096 17.7379 13.9726 17.6036 14.2356 17.4525C14.4986 17.3014 14.7452 17.1335 14.9753 16.9489C15.2055 16.7642 15.452 16.5795 15.6657 16.3613C15.7808 16.2605 15.8794 16.143 15.9945 16.0423C16.0931 15.9416 16.1918 15.8408 16.2904 15.7233Z" fill="url(#paint0_linear_14717_3213)"/>
<path d="M19.6438 7.24526C19.6603 7.34599 19.6274 7.42993 19.5616 7.42993C19.4959 6.43942 19.1013 5.73431 19.0685 5.66715C19.1507 5.65037 19.2 5.68394 19.2329 5.73431C19.2822 5.85183 19.5452 6.4562 19.6438 7.24526ZM19.0849 5.56642C19.0849 5.41533 18.1479 4.42482 18.0493 4.39124C18.0329 4.39124 18.0164 4.39124 17.9835 4.40803C18 4.44161 18.7561 5.11314 18.937 5.46569C18.9698 5.53285 19.0192 5.56642 19.0849 5.56642ZM17.589 4.08905C17.5726 4.08905 17.5561 4.08905 17.5233 4.08905C17.589 4.1562 17.8192 4.29051 17.8685 4.3073C17.8849 4.3073 17.7041 4.1562 17.589 4.08905ZM19.5945 7.95036C19.5945 7.98394 19.6274 8.01752 19.6603 8.01752C19.6603 7.86642 19.6931 7.69854 19.6274 7.58102C19.6109 7.58102 19.5945 7.59781 19.5945 7.59781C19.5945 7.71533 19.5945 7.83285 19.5945 7.95036ZM23.8027 8.38686C23.7698 8.57153 23.737 8.73942 23.6877 8.9073C23.6712 9.07518 23.5726 9.32701 23.4575 9.56204C23.4411 9.61241 23.4246 9.64599 23.3918 9.69635C23.326 9.83066 23.2767 9.93139 23.2274 9.98175C23.1616 10.1161 23.0794 10.2336 23.0466 10.2672C22.9972 10.3511 22.9479 10.4182 22.8986 10.5022C22.8822 10.5358 22.8164 10.5022 22.8329 10.4686C22.9808 10.1328 23.0466 9.83066 23.063 9.56204C22.9808 9.7635 22.7507 9.98175 22.7178 10.0657C22.7013 10.1328 22.5534 10.3679 22.537 10.3679C22.4219 10.4518 22.274 10.6365 22.2082 10.7708C22.1589 10.8547 21.9781 10.9555 21.9616 10.9891C21.9287 11.0394 21.8794 11.073 21.7972 11.0898C21.8301 10.9387 21.9123 10.9387 21.9616 10.8044C22.0274 10.6869 22.0767 10.6197 22.126 10.4854C22.0603 10.4854 21.9781 10.6869 21.9123 10.7036C21.8466 10.7372 21.7972 10.6869 21.7808 10.6869C21.8137 10.6029 21.8301 10.5022 21.8794 10.435C21.9781 10.3511 22.126 9.72993 22.126 9.67956C22.126 9.54526 22.2411 9.1927 22.274 9.09197C22.2904 9.02482 22.2082 8.78978 22.2411 8.6219C22.2575 8.57153 22.1918 8.52117 22.1589 8.52117C22.0931 8.53796 22.0603 8.82336 22.0603 8.89051C22.0603 8.89051 22.0603 8.92409 22.0438 8.95766C22.0603 9.02482 22.0767 9.05839 22.0767 9.07518C22.0767 9.12555 22.0603 9.25985 22.0438 9.46131C22.0109 9.66277 21.863 10.1664 21.7315 10.3343C21.6164 10.5022 21.6493 10.435 21.4849 10.5526C21.3205 10.6701 21.6329 10.5358 21.2712 10.7204C20.9096 10.9051 20.8603 10.9723 20.8438 11.0226C20.8274 11.073 20.8109 10.838 20.9096 10.7708C20.9096 10.754 20.926 10.7372 20.9424 10.7204L21.3534 9.6292C21.452 9.22628 21.4849 8.72263 21.4849 8.70584C21.5671 8.13504 21.2383 6.92628 21.2383 6.92628C21.2383 6.92628 21.4356 8.21898 21.3205 8.80657C21.2877 9.14234 21.1561 9.96496 20.7123 10.6701C20.6794 10.7204 20.3507 11.2241 20.3342 11.2241C20.1863 11.2912 20.0219 11.7277 19.9397 11.7109C19.8904 11.6438 19.9397 11.4423 20.0548 11.3752C20.137 11.3248 20.252 11.2241 20.252 11.1234C20.252 11.0898 20.4 10.6533 20.4493 10.6029C20.4986 10.5358 20.5479 10.3175 20.4822 10.3007C20.4329 10.2839 20.3835 10.3175 20.3671 10.3679C20.3342 10.4686 20.2192 10.7204 20.1863 10.7204C20.0877 10.7708 20.0383 10.8547 19.9726 10.9219C19.9397 10.9555 19.463 11.6774 19.3808 11.6774C19.3315 11.6774 19.0685 11.8788 19.0192 11.9292C18.9863 11.9796 18.937 12.0299 18.8877 12.0803C18.8712 12.0971 18.789 12.0971 18.7397 12.1139C18.7233 12.1139 18.6904 12.1139 18.6904 12.1307L18.7068 12.1139C18.7068 12.1139 18.8055 12.0131 18.8877 11.862C18.8712 11.8956 18.8548 11.9292 18.8383 11.9628C18.8548 11.946 18.8548 11.9292 18.8712 11.9124C18.8712 11.9124 18.8712 11.9124 18.8712 11.8956C18.8877 11.8788 18.8877 11.8453 18.9041 11.8285C18.9041 11.8285 18.9041 11.8285 18.9041 11.8117C18.9205 11.7949 18.9205 11.7613 18.937 11.7445V11.7277C18.9534 11.7109 18.9534 11.6774 18.9698 11.6606C18.9863 11.6438 18.9863 11.627 19.0027 11.5934C19.0027 11.5934 19.0027 11.5766 19.0192 11.5766C19.0685 11.4759 19.1178 11.3752 19.1507 11.2745C19.463 10.6029 19.5781 10.2336 19.7424 9.51168C19.7918 9.27664 19.874 8.35328 19.874 8.23577C19.874 8.05109 19.874 7.95037 19.8575 7.88321C19.7753 5.83504 18.8877 4.62628 17.852 3.93796C17.8192 3.92117 17.7863 3.90438 17.7698 3.88759C17.6383 3.80365 17.5233 3.71971 17.3918 3.65256C17.3096 3.60219 17.2109 3.5854 17.1123 3.55183C16.9315 3.48467 16.7507 3.40073 16.5698 3.31679C16.5698 3.31679 16.4877 3.28321 16.3397 3.23285C16.1589 3.18248 15.9616 3.13212 15.7808 3.08175C15.7644 3.08175 15.7479 3.08175 15.7479 3.06496C15.3534 2.99781 15.0246 2.96423 14.8109 2.96423C14.1205 2.96423 13.3479 3.0146 12.6082 3.14891C12.5589 3.16569 12.5096 3.18248 12.4603 3.18248C12.3616 3.19927 12.2794 3.24964 12.1808 3.26642C11.9835 3.31679 11.8027 3.35037 11.6055 3.40073C11.6055 3.40073 11.5233 3.41752 11.3918 3.4511C11.3753 3.4511 11.3753 3.4511 11.3589 3.46788C11.1781 3.53504 11.0137 3.60219 10.8329 3.66934C10.8164 3.66934 10.8 3.68613 10.7835 3.68613H10.7671C10.2246 3.88759 9.74793 4.08905 9.28765 4.3073C9.25477 4.32409 9.18902 4.37445 9.17258 4.37445C8.92601 4.49197 8.69587 4.64307 8.4493 4.79416L9.25477 5.06277C9.10683 5.12993 7.84108 5.53285 6.9534 5.7511C6.80546 5.80146 6.67395 5.86861 6.52601 5.8854C6.52601 5.86861 6.57532 5.85183 6.59176 5.83504C6.42738 5.86861 6.29587 5.90219 6.19724 5.90219C6.14793 5.90219 6.11505 5.90219 6.09861 5.8854C5.99998 5.76788 7.87395 3.19927 7.87395 3.19927L7.85751 3.98832C7.85751 3.98832 9.79724 2.51095 12 1.78905C12.0329 1.77226 12.0657 1.77226 12.0986 1.75547C12.115 1.75547 12.1315 1.73869 12.1315 1.73869C12.3452 1.65474 12.5753 1.5708 12.8055 1.52044C12.8548 1.52044 12.9041 1.50365 12.9534 1.47007C13.052 1.41971 13.3972 1.36934 13.463 1.36934C14.4 1.15109 15.3534 1.03358 16.2904 1.03358C16.389 1.03358 16.4877 1.01679 16.6027 1.01679C16.6356 1.01679 16.6849 1.01679 16.7178 1.01679C16.7342 1 16.7671 1 16.7835 1C16.8 1 16.8329 1 16.8657 1.01679C16.915 1.01679 16.9479 1.01679 16.9972 1.03358C17.0301 1.01679 17.0466 1 17.063 1C17.1123 1 17.1452 1 17.1945 1C17.326 1.03358 17.474 1.06715 17.6055 1.08394C17.6712 1.10073 17.737 1.10073 17.7863 1.10073C18.0164 1.13431 18.2466 1.16788 18.4767 1.25182C18.526 1.26861 18.5753 1.2854 18.6411 1.2854C18.7561 1.2854 18.8548 1.31898 18.9534 1.36934C19.0027 1.40292 19.0685 1.41971 19.1178 1.45328C20.3671 1.87299 21.5342 2.61168 22.537 3.77007C22.537 3.77007 22.6027 3.85401 22.7178 4.00511C22.7342 4.0219 22.7507 4.05547 22.7835 4.10584L22.8 4.12263C22.8 4.12263 22.8 4.13942 22.8164 4.13942C22.8164 4.1562 22.8329 4.17299 22.8493 4.17299C23.1452 4.62628 23.8192 5.90219 23.7534 7.53066C23.8356 7.88321 23.8356 8.10146 23.8027 8.38686ZM22.2411 4.00511C22.537 4.32409 22.8164 4.69343 23.0466 5.11314C23.0959 5.21387 23.1616 5.29781 23.2109 5.39854C23.1452 5.1635 23.0466 4.94526 22.9479 4.72701C22.8 4.44161 22.6356 4.17299 22.4383 3.93796C22.1424 3.56861 21.8466 3.28321 21.6164 3.09854C21.2548 2.79635 20.7287 2.46058 20.2027 2.25912C20.1863 2.25912 21.3205 3.0146 21.8466 3.56861C21.9781 3.71971 22.1096 3.8708 22.2411 4.00511ZM11.0137 2.49416C10.5205 2.71241 9.46847 3.26642 9.17258 3.55183C9.50135 3.36715 10.6192 2.77956 11.063 2.59489C12.115 2.15839 12.8219 1.90657 13.1835 1.78905C12.5424 1.88978 11.6219 2.22555 11.0137 2.49416Z" fill="url(#paint1_linear_14717_3213)"/>
<path d="M1.62738 10.6366C2.03834 9.91469 2.36711 9.39425 2.64656 9.05848C2.90957 8.72272 3.20546 8.4541 3.51779 8.23586C3.83012 8.01761 4.19176 7.84972 4.56985 7.74899C4.94793 7.64826 5.39177 7.5979 5.86848 7.5979H7.51231L6.95341 8.57162H5.21094C4.75067 8.57162 4.33971 8.67235 4.01094 8.8906C3.68218 9.10885 3.36985 9.4614 3.09039 9.93148H6.16437L5.6219 10.922H2.54793L1.2493 13.2388H0.164368L1.62738 10.6366Z" fill="#575756"/>
<path d="M8.35064 7.5979H10.6849C11.0794 7.5979 11.3753 7.61469 11.589 7.66505C11.8027 7.71542 11.9506 7.78257 12.0328 7.8833C12.1643 8.05119 12.2301 8.25264 12.1972 8.52126C12.1643 8.78987 12.0493 9.09206 11.852 9.42783C11.6548 9.76359 11.4411 10.049 11.2109 10.3008C10.9808 10.5359 10.7178 10.7373 10.4219 10.9052C10.1753 11.0395 9.94516 11.1234 9.68215 11.1906C9.43557 11.241 9.09037 11.2745 8.64653 11.2745H7.3479L6.24653 13.2388H5.17804L8.35064 7.5979ZM10.1095 8.6052H8.86023L7.92325 10.2672H9.23831C9.56708 10.2672 9.84653 10.2001 10.0767 10.0658C10.3068 9.93148 10.5041 9.71323 10.6685 9.44462C10.8328 9.14243 10.8821 8.92418 10.8 8.80666C10.7013 8.67235 10.4876 8.6052 10.1095 8.6052Z" fill="#575756"/>
<path d="M17.5232 8.60509H14.8767C14.5972 8.60509 14.3506 8.65545 14.1534 8.77297C13.9561 8.89049 13.7753 9.07516 13.6438 9.32698C13.5287 9.52844 13.4959 9.67954 13.5616 9.78027C13.6109 9.881 13.7589 9.93136 13.989 9.93136H15.4027C15.9945 9.93136 16.3397 10.0489 16.4548 10.3007C16.5698 10.5525 16.4548 10.9554 16.1424 11.5263C15.8137 12.1138 15.4356 12.5336 14.9917 12.8022C14.5479 13.0708 14.0219 13.2051 13.4137 13.2051H10.5205L11.0959 12.1978H13.7917C14.1041 12.1978 14.3342 12.1474 14.515 12.0467C14.6959 11.946 14.8438 11.7781 14.9753 11.5598C15.1068 11.3248 15.1397 11.1569 15.0904 11.0562C15.0246 10.9554 14.8602 10.9051 14.5808 10.9051H13.315C12.7232 10.9051 12.378 10.7708 12.2465 10.519C12.115 10.2671 12.2137 9.84742 12.526 9.29341C12.8712 8.68903 13.2493 8.25253 13.6931 7.98392C14.1369 7.7153 14.663 7.56421 15.2876 7.56421H18.0986L17.5232 8.60509Z" fill="#575756"/>
<defs>
<linearGradient id="paint0_linear_14717_3213" x1="1.32218" y1="17.4952" x2="22.4685" y2="17.4952" gradientUnits="userSpaceOnUse">
<stop stop-color="#5BC4F1"/>
<stop offset="0.1279" stop-color="#56BBE9"/>
<stop offset="0.3366" stop-color="#47A3D3"/>
<stop offset="0.6" stop-color="#307BAE"/>
<stop offset="0.905" stop-color="#0F447D"/>
<stop offset="1" stop-color="#04326C"/>
</linearGradient>
<linearGradient id="paint1_linear_14717_3213" x1="6.18023" y1="6.61124" x2="23.835" y2="6.61124" gradientUnits="userSpaceOnUse">
<stop stop-color="#04326C"/>
<stop offset="0.1279" stop-color="#093B74"/>
<stop offset="0.3366" stop-color="#18538A"/>
<stop offset="0.6" stop-color="#2F7BAE"/>
<stop offset="0.905" stop-color="#50B2E0"/>
<stop offset="1" stop-color="#5BC4F1"/>
</linearGradient>
</defs>
</svg>
