<svg width="24" height="24" viewBox="0 0 24 24" fill="none" xmlns="http://www.w3.org/2000/svg">
<path d="M22.8907 20.449H1.10935C0.70191 20.449 0.371582 20.1187 0.371582 19.7112V4.28879C0.371582 3.88135 0.701863 3.55103 1.10935 3.55103H22.8907C23.2981 3.55103 23.6285 3.88131 23.6285 4.28879V19.7112C23.6284 20.1187 23.2981 20.449 22.8907 20.449Z" fill="#FE255F"/>
<path d="M23.6283 4.28861V19.7114C23.6283 20.1188 23.2983 20.4488 22.8905 20.4488H1.10952C0.701704 20.4488 0.371704 20.1188 0.371704 19.7114V18.3047C1.95655 18.8002 3.64217 19.0674 5.39014 19.0674C14.2359 19.0674 21.4847 12.2297 22.139 3.55127H22.8905C23.2983 3.55127 23.6283 3.88127 23.6283 4.28861Z" fill="#E01152"/>
<path d="M23.6283 14.0615V19.7114C23.6283 20.1187 23.2983 20.4487 22.8904 20.4487H12.3394C16.8225 19.6795 20.7759 17.3601 23.6283 14.0615Z" fill="#C40047"/>
<path d="M17.6029 20.6918H15.9644C15.6589 20.6918 15.4111 20.4441 15.4111 20.1385V3.86142C15.4111 3.55584 15.6589 3.30811 15.9644 3.30811H17.6029C17.9084 3.30811 18.1562 3.55584 18.1562 3.86142V20.1384C18.1562 20.4441 17.9084 20.6918 17.6029 20.6918Z" fill="#FFC751"/>
<path d="M18.1563 6.85167V3.86142C18.1563 3.55598 17.9084 3.30811 17.6029 3.30811H17.0504C17.2728 3.639 17.403 4.03776 17.403 4.46639C17.403 5.5852 16.5188 6.49743 15.4111 6.54243V6.85167H18.1563Z" fill="#FFAF40"/>
<path d="M18.1563 14.8738V20.1384C18.1563 20.4438 17.9084 20.6917 17.6029 20.6917H15.9644C15.6589 20.6917 15.4111 20.4438 15.4111 20.1384V19.5209C16.6221 19.2863 17.7914 17.3955 18.1433 14.9664C18.1478 14.9354 18.1522 14.9048 18.1563 14.8738Z" fill="#FFAF40"/>
<path d="M0 9.46346V7.82504C0 7.51946 0.247734 7.27173 0.553312 7.27173H23.4467C23.7523 7.27173 24 7.51946 24 7.82504V9.46346C24 9.76904 23.7523 10.0168 23.4467 10.0168H0.553312C0.247734 10.0168 0 9.76904 0 9.46346Z" fill="#FFC751"/>
<path d="M13.3986 7.27173H11.7954C11.8035 7.35067 11.8075 7.43073 11.8075 7.51187C11.8075 8.7166 10.9204 9.71406 9.76361 9.88595C9.85989 9.96784 9.98458 10.0169 10.1207 10.0169H13.3987V7.27173H13.3986Z" fill="#FFAF40"/>
<path d="M10.6368 14.1423C10.5308 13.8397 10.6711 13.5043 10.963 13.3716C11.9335 12.9306 12.7685 12.2518 13.3997 11.3857C14.0137 10.5432 14.4028 9.57295 14.5402 8.55201C14.583 8.23383 14.8627 8.00161 15.1834 8.01548L16.5033 8.07253C16.8671 8.08823 17.1377 8.41116 17.0943 8.77261C16.9155 10.2591 16.3602 11.6723 15.4697 12.8942C14.5509 14.155 13.3278 15.1349 11.9052 15.756C11.5754 15.9 11.1928 15.7287 11.0738 15.3891L10.6368 14.1423Z" fill="#FFAF40"/>
<path d="M17.0944 8.77237C16.9153 10.2589 16.3602 11.6724 15.4696 12.8942C14.5509 14.1548 13.3276 15.1349 11.9052 15.7558C11.5752 15.8999 11.1929 15.7285 11.0738 15.3888L10.8959 14.8817C13.1766 14.7307 14.9797 12.8327 14.9797 10.5136C14.9797 9.82317 14.8198 9.17001 14.5347 8.58909C14.5367 8.57681 14.5386 8.5641 14.5401 8.55182C14.5828 8.23368 14.8625 8.00165 15.1833 8.01548L16.5035 8.07234C16.867 8.08814 17.1378 8.41125 17.0944 8.77237Z" fill="#FF993A"/>
<path d="M22.9304 14.1423C23.0364 13.8397 22.8961 13.5043 22.6042 13.3716C21.6337 12.9306 20.7987 12.2518 20.1675 11.3857C19.5535 10.5432 19.1643 9.57295 19.0269 8.55201C18.9841 8.23383 18.7045 8.00161 18.3837 8.01548L17.0639 8.07253C16.7001 8.08823 16.4295 8.41116 16.4729 8.77261C16.6517 10.2591 17.207 11.6723 18.0975 12.8942C19.0163 14.155 20.2394 15.1349 21.6619 15.756C21.9917 15.9 22.3744 15.7287 22.4934 15.3891L22.9304 14.1423Z" fill="#FFAF40"/>
<path d="M22.9305 14.1421L22.4933 15.3889C22.4103 15.6255 22.1998 15.7804 21.9677 15.8038C21.7998 13.2795 19.7124 11.2809 17.1524 11.2536C16.8055 10.4663 16.5761 9.6315 16.4727 8.77237C16.4293 8.4112 16.7001 8.08809 17.0636 8.07234L18.3838 8.01548C18.7046 8.00165 18.9843 8.23373 19.0269 8.55182C19.1645 9.57304 19.5537 10.5432 20.1676 11.3854C20.7985 12.2518 21.6338 12.9307 22.6043 13.3714C22.896 13.5043 23.0366 13.8397 22.9305 14.1421Z" fill="#FF993A"/>
<path d="M19.8463 10.5128L18.4391 10.0174C17.9455 9.84367 17.6152 9.37731 17.6152 8.85404V7.38821C17.6152 6.8649 17.9455 6.39859 18.4391 6.22482L19.8463 5.72945C20.6486 5.44703 21.4892 6.04229 21.4892 6.89284V9.34942C21.4892 10.2 20.6486 10.7952 19.8463 10.5128Z" fill="#FF993A"/>
<path d="M13.7208 10.5128L15.128 10.0174C15.6216 9.84367 15.9518 9.37735 15.9518 8.85404V7.38821C15.9518 6.8649 15.6216 6.39859 15.128 6.22482L13.7208 5.72945C12.9185 5.44703 12.0779 6.04229 12.0779 6.89284V9.34942C12.0779 10.2 12.9185 10.7952 13.7208 10.5128Z" fill="#FF993A"/>
<path d="M15.9515 7.38842V8.85369C15.9515 9.37747 15.6218 9.84369 15.1276 10.0172L13.7207 10.513C12.9519 10.7835 12.1477 10.2474 12.0828 9.45388C12.2168 9.47853 12.355 9.49086 12.4964 9.49086C13.798 9.49086 14.8538 8.4351 14.8538 7.13347C14.8538 6.7355 14.7552 6.36055 14.5808 6.03247L15.1276 6.22489C15.6218 6.39842 15.9515 6.86464 15.9515 7.38842Z" fill="#F97C15"/>
<path d="M17.1256 10.1111H16.4414C15.8504 10.1111 15.3713 9.63201 15.3713 9.04106V7.20112C15.3713 6.61017 15.8504 6.1311 16.4414 6.1311H17.1257C17.7166 6.1311 18.1957 6.61017 18.1957 7.20112V9.04106C18.1956 9.63201 17.7166 10.1111 17.1256 10.1111Z" fill="#FFE059"/>
<path d="M21.4894 6.89259V9.34949C21.4894 10.1997 20.6482 10.795 19.8465 10.513L18.4388 10.0171C18.2842 9.96285 18.1461 9.87984 18.0285 9.7754C18.0836 9.77952 18.1395 9.78116 18.1954 9.78116C19.6122 9.78116 20.7608 8.63249 20.7608 7.21574C20.7608 6.63032 20.5643 6.09009 20.2338 5.65841C20.8982 5.64604 21.4894 6.17971 21.4894 6.89259Z" fill="#F97C15"/>
<path d="M18.1954 7.69507V9.04108C18.1954 9.63227 17.7169 10.1108 17.1256 10.1108H16.4415C15.8504 10.1108 15.371 9.63227 15.371 9.04104V8.99252C15.6259 9.10352 15.9071 9.16521 16.2031 9.16521C17.1405 9.16521 17.9332 8.54608 18.1954 7.69507Z" fill="#FFC751"/>
<path d="M24 7.82504V9.4636C24 9.76904 23.7521 10.0169 23.4467 10.0169H21.4113C22.3983 9.7067 23.114 8.78448 23.114 7.6952C23.114 7.55059 23.1014 7.40931 23.0771 7.27173H23.4467C23.7521 7.27173 24 7.5196 24 7.82504Z" fill="#FFAF40"/>
<path d="M15.4111 16.635V14.0133C15.4111 13.5482 15.7882 13.1711 16.2533 13.1711C16.7184 13.1711 17.0954 13.5482 17.0954 14.0133V16.635C17.0954 17.1001 16.7184 17.4772 16.2533 17.4772C15.7882 17.4771 15.4111 17.1001 15.4111 16.635Z" fill="#FFE059"/>
<path d="M2.56255 7.27905H5.18427C5.64937 7.27905 6.02643 7.65612 6.02643 8.12121C6.02643 8.5863 5.64937 8.96336 5.18427 8.96336H2.56255C2.09746 8.96336 1.7204 8.5863 1.7204 8.12121C1.7204 7.65607 2.09741 7.27905 2.56255 7.27905Z" fill="#FFE059"/>
<path d="M2.56255 3.55103H7.52802C7.99312 3.55103 8.37018 3.92809 8.37018 4.39318C8.37018 4.85828 7.99312 5.23534 7.52802 5.23534H2.56255C2.09746 5.23534 1.7204 4.85828 1.7204 4.39318C1.7204 3.92809 2.09741 3.55103 2.56255 3.55103Z" fill="#FC709B"/>
<path d="M13.1907 7.51194C13.5992 7.51194 13.9304 7.18075 13.9304 6.7722C13.9304 6.36366 13.5992 6.03247 13.1907 6.03247C12.7821 6.03247 12.4509 6.36366 12.4509 6.7722C12.4509 7.18075 12.7821 7.51194 13.1907 7.51194Z" fill="#FFC751"/>
<path d="M9.81272 5.12874C10.2484 5.12874 10.6016 4.77556 10.6016 4.33988C10.6016 3.90421 10.2484 3.55103 9.81272 3.55103C9.37705 3.55103 9.02386 3.90421 9.02386 4.33988C9.02386 4.77556 9.37705 5.12874 9.81272 5.12874Z" fill="#FC709B"/>
<path d="M8.35616 18.7503H2.42352C2.03521 18.7503 1.7204 18.4355 1.7204 18.0472V15.626C1.7204 15.2377 2.03521 14.9229 2.42352 14.9229H8.35616C8.74448 14.9229 9.05929 15.2377 9.05929 15.626V18.0472C9.05929 18.4355 8.74448 18.7503 8.35616 18.7503Z" fill="#EEFDFF"/>
<path d="M9.05956 15.6262V18.0473C9.05956 18.4354 8.74456 18.7504 8.35643 18.7504H2.42346C2.03534 18.7504 1.72034 18.4354 1.72034 18.0473V17.7042C2.21487 17.8542 2.7394 17.9343 3.28268 17.9343C5.40706 17.9343 7.24409 16.7072 8.1244 14.9231H8.35643C8.74456 14.9231 9.05956 15.2376 9.05956 15.6262Z" fill="#B6F0FF"/>
<path d="M3.34274 14.0041H2.52543C2.08082 14.0041 1.7204 13.6437 1.7204 13.1991C1.7204 12.7545 2.08082 12.394 2.52543 12.394H3.34279C3.7874 12.394 4.14782 12.7545 4.14782 13.1991C4.14777 13.6437 3.78735 14.0041 3.34274 14.0041Z" fill="#FFE059"/>
</svg>
