<svg width="24" height="24" viewBox="0 0 24 24" fill="none" xmlns="http://www.w3.org/2000/svg">
<g clip-path="url(#clip0_14714_3014)">
<path d="M23.183 12.2673C23.183 11.4507 23.1173 10.634 22.986 9.83398H11.8316V14.4506H18.222C17.9591 15.934 17.1048 17.2673 15.8563 18.1005V21.1006H19.6675C21.9016 19.0173 23.183 15.934 23.183 12.2673Z" fill="#4285F4"/>
<path d="M11.8329 24C15.0199 24 17.714 22.9333 19.6688 21.1L15.8577 18.1001C14.7899 18.8334 13.4265 19.25 11.8329 19.25C8.74457 19.25 6.13255 17.1333 5.1962 14.3H1.2699V17.4C3.27418 21.45 7.36457 24 11.8329 24Z" fill="#34A853"/>
<path d="M5.19601 14.2999C4.70317 12.8166 4.70317 11.2001 5.19601 9.69998V6.6167H1.26928C-0.423095 10 -0.423095 14 1.26928 17.3832L5.19601 14.2999Z" fill="#FBBC04"/>
<path d="M11.8329 4.75057C13.525 4.71722 15.1513 5.36728 16.3669 6.55054L19.7511 3.11722C17.599 1.08393 14.7735 -0.0326248 11.8329 0.000726176C7.36457 0.000726176 3.27418 2.56735 1.2699 6.61725L5.1962 9.7172C6.13255 6.86724 8.74457 4.75057 11.8329 4.75057Z" fill="#EA4335"/>
</g>
<defs>
<clipPath id="clip0_14714_3014">
<rect width="24" height="24" fill="white"/>
</clipPath>
</defs>
</svg>
