<svg width="24" height="24" viewBox="0 0 24 24" fill="none" xmlns="http://www.w3.org/2000/svg">
<rect width="24" height="24" rx="3" fill="#F7BD0B"/>
<path d="M8.42577 8.70312L7.39377 8.9329V9.77112L6.81021 9.90224L6.79999 10.808L7.38399 10.6769L7.38043 13.0298C7.38043 13.8142 7.88977 14.1987 8.47999 14.0618C8.69243 14.0142 8.84754 13.9645 9.10532 13.8427L9.10265 12.992C8.99199 13.0342 8.8951 13.0649 8.77377 13.092C8.4631 13.1618 8.41465 12.9902 8.40977 12.7133L8.4151 10.4453L9.15065 10.28L9.16088 9.37424L8.42621 9.53957V8.70312H8.42577Z" fill="black"/>
<path d="M11.0493 8.87083C9.48044 9.22239 9.18222 10.9286 9.37466 12.0735C9.55022 13.1179 10.1902 13.7291 11.2489 13.4917C12.4293 13.2268 12.8044 12.3539 12.9169 11.6611L11.8355 11.9037C11.7538 12.2171 11.6116 12.5002 11.1853 12.5957C10.7209 12.6997 10.4947 12.3428 10.4178 11.8833C10.4022 11.7913 10.4049 11.7126 10.4044 11.6175L12.9333 11.0504C12.9538 10.7944 12.9569 10.5335 12.8982 10.1824C12.7493 9.29661 12.2076 8.61172 11.0498 8.87128L11.0493 8.87083ZM10.4138 10.8255C10.4569 10.2348 10.6902 9.83572 11.1622 9.72994C11.6191 9.62728 11.8262 9.91928 11.8893 10.2953C11.8978 10.3455 11.9089 10.4122 11.9062 10.4908L10.4133 10.8255H10.4138Z" fill="black"/>
<path d="M14.4067 9.01244C14.4089 8.6471 14.3853 8.31377 14.372 8.20355L13.3769 8.42666V12.9262L14.408 12.6947L14.4173 10.828C14.4213 9.84577 14.768 9.34488 15.4867 9.17466V7.98755C14.8044 8.14088 14.5747 8.43644 14.4071 9.01244H14.4067Z" fill="black"/>
<path d="M21.8377 9.50096C21.7591 9.9614 21.5635 10.2227 21.2222 10.2992C20.8506 10.3827 20.5804 10.1654 20.4671 9.5654C20.3364 8.87385 20.3973 7.6094 21.1253 7.44585C21.5875 7.34185 21.7511 7.6614 21.8217 7.99296L22.8226 7.76807C22.7715 7.20629 22.2657 6.28629 20.992 6.57207C19.5364 6.89873 19.1791 8.60318 19.4155 9.85296C19.6111 10.8858 20.2555 11.4103 21.2489 11.1872C22.4089 10.9267 22.812 10.1325 22.8697 9.26851L21.8386 9.50007L21.8377 9.50096Z" fill="black"/>
<path d="M18.9737 10.8058V8.67161C18.9808 7.49739 18.1866 7.21427 17.2315 7.4285C16.0111 7.70272 15.6946 8.40139 15.6817 9.12539L16.7355 8.88894C16.7795 8.66183 16.8053 8.34983 17.2982 8.23916C17.8515 8.11472 17.9271 8.51472 17.9342 8.84316L17.9493 9.11294C17.6488 9.18894 17.3822 9.2365 17.0648 9.31739C16.184 9.54183 15.3231 10.1245 15.5502 11.3241C15.6462 11.8321 16.0857 12.3592 16.8591 12.1854C17.5871 12.0218 17.788 11.6641 17.9346 11.3534C17.9657 11.4983 18.0368 11.7036 18.1084 11.8325L19.1435 11.5987L19.1493 11.5974C19.1493 11.5974 19.0813 11.5147 19.04 11.3392C18.9991 11.1658 18.9737 10.8058 18.9737 10.8058ZM17.9311 9.9125C17.9191 10.3929 17.8568 11.0667 17.1444 11.2267C16.8106 11.3018 16.6306 11.1423 16.5831 10.8925C16.5137 10.5258 16.7017 10.2667 17.2591 10.0374C17.4591 9.96627 17.676 9.9005 17.9333 9.84227L17.9306 9.9125H17.9311Z" fill="black"/>
<path d="M3.43908 21.2091C3.29197 21.2091 3.17241 21.0895 3.17241 20.9424C3.17241 20.9299 3.17241 20.9277 3.19819 20.4135C3.20753 20.2237 3.21953 19.9886 3.22664 19.8362C3.1373 19.8539 3.02886 19.8757 2.92264 19.8975C2.69686 19.9433 2.46353 19.9908 2.32708 20.0144C2.30975 20.0175 2.29241 20.0188 2.27375 20.0188C2.2693 20.0188 2.26441 20.0188 2.25864 20.0188C2.17153 20.0188 2.08841 19.9766 2.03864 19.9051C1.98886 19.8339 1.97464 19.7428 2.00441 19.6611L2.13108 19.3113L0.887525 18.3064C0.875525 18.2971 0.864859 18.2873 0.852414 18.2757L0.839081 18.2637C0.771525 18.2042 0.738192 18.1148 0.751081 18.0259C0.763525 17.9371 0.820414 17.8602 0.901748 17.8219L1.07241 17.7419L0.864414 17.1046C0.859081 17.0891 0.855081 17.0726 0.850192 17.0539L0.845303 17.0357C0.820859 16.9459 0.845303 16.8504 0.908859 16.7828C0.95997 16.7291 1.03019 16.6993 1.10264 16.6993C1.12086 16.6993 1.13953 16.7011 1.15775 16.7051L1.81241 16.8433C1.83153 16.7979 1.91419 16.6042 1.91419 16.6042C1.95197 16.5148 2.03553 16.4531 2.13241 16.4433C2.14175 16.4424 2.15064 16.4419 2.15953 16.4419C2.24619 16.4419 2.32841 16.4842 2.37864 16.5566C2.3853 16.5664 2.39108 16.5753 2.39641 16.5833C2.39641 16.5833 2.51064 16.7059 2.56797 16.7673L2.43997 16.1113C2.42708 16.0446 2.41419 15.9779 2.40086 15.9077L2.38219 15.8099C2.36308 15.7095 2.40308 15.6068 2.4853 15.5455C2.53197 15.5108 2.58797 15.4931 2.64441 15.4931C2.68664 15.4931 2.7293 15.5033 2.76841 15.5237L2.78841 15.5344C2.80441 15.5424 2.8173 15.5491 2.82975 15.5566L3.10041 15.7126L3.47775 14.9735C3.48441 14.9606 3.49153 14.9477 3.49997 14.9326L3.51019 14.9144C3.5573 14.8295 3.64664 14.7766 3.74353 14.7766C3.84041 14.7766 3.93019 14.8295 3.97686 14.9144L3.98708 14.9326C3.99553 14.9473 4.00264 14.9602 4.0093 14.9731L4.38708 15.7126L4.6573 15.5571C4.67019 15.5495 4.68308 15.5428 4.69908 15.5348L4.71908 15.5242C4.75819 15.5037 4.80041 15.4935 4.84308 15.4935C4.89908 15.4935 4.95508 15.5113 5.00219 15.5459C5.08441 15.6068 5.12441 15.7095 5.1053 15.8104C5.1053 15.8104 5.06041 16.0451 5.04753 16.1117L4.91953 16.7677C4.97686 16.7064 5.09108 16.5837 5.09108 16.5837C5.09641 16.5757 5.10175 16.5673 5.10886 16.5575C5.15908 16.4851 5.2413 16.4428 5.32797 16.4428C5.33686 16.4428 5.34619 16.4433 5.35508 16.4442C5.45153 16.4539 5.53508 16.5157 5.5733 16.6051C5.5733 16.6051 5.65775 16.8033 5.67508 16.8446L6.32975 16.7064C6.34797 16.7024 6.36664 16.7006 6.38486 16.7006C6.4573 16.7006 6.52753 16.7304 6.57864 16.7842C6.64264 16.8517 6.66664 16.9473 6.64219 17.0371L6.6373 17.0553C6.63241 17.0739 6.62797 17.0904 6.62264 17.1064L6.41464 17.7437L6.5853 17.8237C6.66664 17.8619 6.72353 17.9384 6.73597 18.0277C6.74841 18.1166 6.71553 18.2064 6.64797 18.2655L6.63464 18.2771C6.62219 18.2882 6.61108 18.2984 6.59953 18.3077L5.35553 19.3131L5.48219 19.6628C5.51197 19.7446 5.49953 19.8357 5.44975 19.9068C5.39997 19.9779 5.31819 20.0202 5.23153 20.0202C5.22219 20.0202 5.2173 20.0202 5.21241 20.0202C5.19375 20.0202 5.17641 20.0188 5.15908 20.0157C5.02264 19.9917 4.7893 19.9442 4.56353 19.8984C4.4573 19.8766 4.34886 19.8548 4.25953 19.8371C4.26708 19.9895 4.27864 20.2246 4.28841 20.4148C4.31419 20.9286 4.31419 20.9313 4.31419 20.9433C4.31419 21.0904 4.19464 21.2099 4.04753 21.2099H3.43997L3.43908 21.2091Z" fill="black"/>
<path d="M3.74266 15.0414C3.75421 15.0627 3.7631 15.0774 3.7711 15.0929C3.9191 15.3823 4.06666 15.6716 4.21421 15.9609C4.24266 16.0169 4.27155 16.0436 4.30977 16.0436C4.33288 16.0436 4.35955 16.0338 4.39155 16.0156C4.52399 15.9392 4.65644 15.8627 4.78844 15.7867C4.80266 15.7783 4.81777 15.7712 4.84133 15.7592C4.82044 15.8672 4.80221 15.9636 4.78355 16.0596C4.70399 16.4685 4.62444 16.8774 4.54488 17.2858C4.5351 17.3361 4.55333 17.3778 4.59333 17.3992C4.60799 17.4072 4.6231 17.4112 4.63777 17.4112C4.66399 17.4112 4.68977 17.3992 4.71377 17.3752C4.72177 17.3672 4.72977 17.3583 4.73733 17.3498C4.92221 17.1516 5.10755 16.9534 5.29244 16.7552C5.3031 16.7436 5.31066 16.7289 5.32533 16.7085C5.37777 16.8321 5.42399 16.9405 5.47021 17.0489C5.49644 17.1098 5.52088 17.1338 5.56799 17.1338C5.58266 17.1338 5.59999 17.1316 5.61999 17.1272C5.69733 17.1107 5.77422 17.0947 5.85155 17.0783C6.02622 17.0414 6.20088 17.0045 6.38222 16.9663C6.37599 16.9889 6.37244 17.0058 6.3671 17.0223C6.28577 17.2716 6.20444 17.5209 6.1231 17.7703C6.09422 17.8587 6.11021 17.8947 6.1951 17.9347C6.28533 17.9769 6.37555 18.0196 6.47021 18.0636C6.45421 18.0778 6.44221 18.0889 6.42977 18.0992C5.99244 18.4525 5.5551 18.8058 5.11822 19.1592C5.05022 19.2138 5.04355 19.2374 5.07333 19.3205C5.12444 19.4623 5.17599 19.6041 5.22977 19.7521C5.22133 19.7521 5.21555 19.7521 5.2111 19.7521C5.20844 19.7521 5.20621 19.7521 5.20399 19.7516C4.93555 19.7045 4.24977 19.5578 4.10844 19.5369C4.09821 19.5356 4.08888 19.5347 4.08044 19.5347C4.00221 19.5347 3.98266 19.5952 3.98444 19.6863C3.98533 19.7356 4.04577 20.9241 4.04577 20.9423H3.43821C3.43821 20.9241 3.49866 19.7352 3.49955 19.6863C3.50133 19.5952 3.48221 19.5347 3.40355 19.5347C3.3951 19.5347 3.38533 19.5356 3.37555 19.5369C3.23421 19.5578 2.54844 19.7045 2.27999 19.7516C2.27777 19.7516 2.27555 19.7521 2.27288 19.7521C2.26844 19.7521 2.26266 19.7521 2.25422 19.7521C2.30799 19.6041 2.35955 19.4623 2.41066 19.3205C2.44044 19.2374 2.43377 19.2138 2.36577 19.1592C1.92844 18.8058 1.4911 18.4525 1.05421 18.0992C1.04177 18.0889 1.02977 18.0778 1.01377 18.0636C1.10844 18.0192 1.19866 17.9769 1.28888 17.9347C1.37377 17.8952 1.38977 17.8587 1.36088 17.7703C1.27955 17.5209 1.19821 17.2716 1.11688 17.0223C1.11155 17.0058 1.10755 16.9889 1.10177 16.9663C1.2831 17.0045 1.45777 17.0414 1.63244 17.0783C1.70977 17.0947 1.78666 17.1107 1.86399 17.1272C1.88399 17.1316 1.90133 17.1338 1.91599 17.1338C1.96355 17.1338 1.98799 17.1098 2.01377 17.0489C2.05999 16.9405 2.10621 16.8321 2.15866 16.7085C2.17288 16.7294 2.18088 16.7436 2.19155 16.7552C2.37644 16.9538 2.56133 17.1516 2.74666 17.3498C2.75466 17.3583 2.76222 17.3667 2.77022 17.3752C2.79466 17.3992 2.82044 17.4112 2.84622 17.4112C2.86088 17.4112 2.87599 17.4072 2.89066 17.3992C2.93066 17.3778 2.94888 17.3361 2.9391 17.2858C2.85955 16.8769 2.77999 16.4681 2.70044 16.0596C2.68177 15.9632 2.66355 15.8667 2.64266 15.7592C2.66577 15.7712 2.68088 15.7787 2.69555 15.7867C2.82799 15.8632 2.96044 15.9396 3.09244 16.0156C3.12488 16.0343 3.1511 16.0436 3.17421 16.0436C3.21244 16.0436 3.24133 16.0169 3.26977 15.9609C3.41777 15.6716 3.56533 15.3823 3.71288 15.0929C3.72088 15.0774 3.72977 15.0623 3.74133 15.0414M3.74266 14.5081C3.54844 14.5081 3.36977 14.6138 3.27555 14.7836L3.26666 14.7996C3.25644 14.8183 3.24755 14.8343 3.2391 14.8503L3.01377 15.2916L2.98933 15.3396C2.98044 15.3343 2.9711 15.3294 2.96222 15.3241C2.94577 15.3147 2.92888 15.3058 2.90844 15.2952L2.89066 15.2858C2.81288 15.2449 2.72799 15.2249 2.6431 15.2249C2.53066 15.2249 2.41866 15.2605 2.32488 15.3303C2.16044 15.4525 2.08044 15.6578 2.1191 15.8587L2.13821 15.9578C2.15155 16.0281 2.16444 16.0943 2.17733 16.1605L2.17999 16.1743C2.17288 16.1743 2.16577 16.1743 2.15866 16.1743C2.14044 16.1743 2.12266 16.1752 2.10444 16.1769C1.9111 16.1969 1.74399 16.3201 1.66799 16.4987L1.65199 16.5361L1.62755 16.5307L1.21199 16.4427C1.17555 16.4352 1.13821 16.4312 1.10177 16.4312C0.956882 16.4312 0.815993 16.4903 0.714215 16.5983C0.586659 16.7334 0.538659 16.9249 0.587104 17.1041L0.591104 17.1192C0.595548 17.1361 0.601326 17.1592 0.610215 17.1858C0.655548 17.3245 0.700437 17.4627 0.745771 17.6014C0.60577 17.6832 0.509326 17.8249 0.486215 17.9872C0.460882 18.1654 0.527104 18.3441 0.662215 18.4627L0.673326 18.4725C0.685326 18.4832 0.700437 18.4969 0.719548 18.5121C1.08488 18.8072 1.45021 19.1023 1.81555 19.3978C1.81155 19.4085 1.80799 19.4192 1.80399 19.4298L1.75377 19.5689C1.69466 19.7325 1.71866 19.9147 1.81866 20.0569C1.91777 20.1983 2.0791 20.2827 2.2511 20.2841C2.26044 20.2841 2.26755 20.2841 2.27421 20.2841C2.30888 20.2841 2.34222 20.2809 2.37555 20.2752C2.5071 20.2521 2.7271 20.2076 2.94399 20.1636C2.93999 20.2441 2.93599 20.3249 2.93244 20.3987C2.90666 20.9192 2.90666 20.9201 2.90666 20.9405C2.90666 21.2352 3.14533 21.4738 3.43999 21.4738H4.04755C4.34221 21.4738 4.58088 21.2352 4.58088 20.9405C4.58088 20.9196 4.58088 20.9192 4.5551 20.3987C4.55155 20.3245 4.54755 20.2436 4.54355 20.1636C4.76088 20.2076 4.98044 20.2521 5.11377 20.2756C5.14533 20.2814 5.17866 20.2841 5.21333 20.2841C5.21999 20.2841 5.22755 20.2841 5.23644 20.2841C5.40888 20.2827 5.56977 20.1983 5.66888 20.0569C5.76888 19.9147 5.79288 19.7325 5.73377 19.5689L5.68355 19.4298C5.67955 19.4192 5.67599 19.4085 5.67199 19.3978C6.03733 19.1027 6.40266 18.8076 6.76799 18.5121C6.78666 18.4969 6.80177 18.4832 6.81422 18.4725L6.82533 18.4627C6.96044 18.3441 7.02666 18.1649 7.00133 17.9872C6.97821 17.8249 6.88222 17.6832 6.74177 17.6014C6.7871 17.4627 6.83199 17.3245 6.87733 17.1858C6.88622 17.1592 6.89199 17.1361 6.89644 17.1192L6.90044 17.1041C6.94888 16.9249 6.90044 16.7334 6.77333 16.5983C6.67155 16.4907 6.53066 16.4312 6.38577 16.4312C6.34933 16.4312 6.31199 16.4352 6.27555 16.4427L5.85999 16.5307L5.83555 16.5361L5.81955 16.4987C5.74355 16.3201 5.57644 16.1965 5.3831 16.1769C5.36488 16.1752 5.34666 16.1743 5.32888 16.1743C5.32177 16.1743 5.31466 16.1743 5.30755 16.1743L5.31022 16.1605C5.3231 16.0943 5.33599 16.0276 5.34933 15.9578L5.36844 15.8587C5.4071 15.6578 5.3271 15.4521 5.16266 15.3303C5.06888 15.2605 4.95688 15.2249 4.84444 15.2249C4.75999 15.2249 4.6751 15.2449 4.59688 15.2858L4.5791 15.2952C4.55821 15.3058 4.54177 15.3143 4.52577 15.3236C4.51644 15.3289 4.50755 15.3343 4.49821 15.3396L4.47377 15.2916L4.24844 14.8503C4.23999 14.8343 4.23155 14.8183 4.22088 14.7996L4.21199 14.7836C4.11821 14.6134 3.9391 14.5081 3.74488 14.5081H3.74266Z" fill="black"/>
<path d="M3.27597 14.7835C3.36975 14.6133 3.54886 14.508 3.74308 14.508C3.9373 14.508 4.10486 14.608 4.20086 14.7693V14.4031V12.6586C4.20886 11.8231 4.44841 11.3351 4.94886 11.2226C5.38841 11.124 5.5533 11.4515 5.54619 11.9573V14.6857L6.56441 14.456L6.57152 11.736C6.58041 10.4049 6.04308 9.98708 5.26975 10.1609C4.61019 10.3089 4.2053 11.0515 4.2053 11.0515V10.4933L3.16797 10.7195V14.9915L3.27641 14.784L3.27597 14.7835Z" fill="black"/>
<path d="M2.43956 9.38892V15.3782L1.37067 15.6182V9.62892L2.43956 9.38892Z" fill="black"/>
</svg>
