<svg width="24" height="24" viewBox="0 0 24 24" fill="none" xmlns="http://www.w3.org/2000/svg">
<path fill-rule="evenodd" clip-rule="evenodd" d="M7.68226 23.1867L8.09699 20.5447L7.17309 20.5232H2.76154L5.8274 1.02765C5.83693 0.968617 5.86781 0.913823 5.91298 0.874831C5.95831 0.835838 6.01596 0.814453 6.0764 0.814453H13.5152C15.9849 0.814453 17.6891 1.32973 18.5788 2.34691C18.996 2.8241 19.2616 3.32287 19.3902 3.87158C19.5251 4.44743 19.5274 5.13536 19.3958 5.97455L19.3863 6.03559V6.57342L19.8035 6.81043C20.1546 6.99734 20.4339 7.2112 20.648 7.45593C21.0048 7.86408 21.2356 8.38278 21.3331 8.9974C21.434 9.62959 21.4006 10.3822 21.2356 11.234C21.0452 12.2137 20.7376 13.0672 20.322 13.7654C19.9398 14.4087 19.453 14.9425 18.8747 15.356C18.3228 15.749 17.6669 16.0473 16.9255 16.2381C16.2068 16.4257 15.3877 16.5203 14.489 16.5203H13.9101C13.4963 16.5203 13.0942 16.6699 12.7786 16.9378C12.4621 17.2115 12.2528 17.5853 12.1886 17.994L12.1449 18.2319L11.412 22.8886L11.3788 23.0594C11.37 23.1136 11.3549 23.1405 11.3327 23.1587C11.313 23.1755 11.2846 23.1867 11.2566 23.1867H7.68226Z" fill="#28356A"/>
<path fill-rule="evenodd" clip-rule="evenodd" d="M20.1981 6.09766C20.1761 6.24001 20.1507 6.3854 20.1221 6.53503C19.1412 11.5862 15.785 13.3311 11.4986 13.3311H9.31602C8.79174 13.3311 8.34991 13.7127 8.26844 14.2312L6.83455 23.3528C6.7815 23.6934 7.04315 24.0001 7.3856 24.0001H11.2566C11.7149 24.0001 12.1043 23.6662 12.1766 23.2128L12.2145 23.0157L12.9433 18.3774L12.9903 18.1229C13.0615 17.668 13.4518 17.3339 13.9101 17.3339H14.489C18.2393 17.3339 21.1753 15.807 22.0335 11.3881C22.3917 9.5421 22.2062 8.00079 21.2577 6.91675C20.9708 6.59006 20.6147 6.31864 20.1981 6.09766Z" fill="#298FC2"/>
<path fill-rule="evenodd" clip-rule="evenodd" d="M19.1721 5.68733C19.0221 5.64344 18.8676 5.60379 18.7089 5.56792C18.5494 5.53295 18.3861 5.50199 18.218 5.47481C17.6296 5.37946 16.9848 5.33423 16.2941 5.33423H10.4636C10.3199 5.33423 10.1836 5.36677 10.0615 5.42557C9.79249 5.55522 9.59277 5.81053 9.54448 6.12308L8.30407 14.0017L8.26843 14.2313C8.35006 13.7127 8.79189 13.331 9.31601 13.331H11.4985C15.7849 13.331 19.1412 11.5852 20.1223 6.53492C20.1515 6.38545 20.1761 6.24003 20.1981 6.09767C19.95 5.96557 19.6812 5.85263 19.3918 5.7564C19.3202 5.73255 19.2465 5.7096 19.1721 5.68733Z" fill="#22284F"/>
<path fill-rule="evenodd" clip-rule="evenodd" d="M9.54451 6.12314C9.59296 5.81059 9.79253 5.5553 10.0616 5.42653C10.1844 5.3675 10.3199 5.33498 10.4636 5.33498H16.2941C16.9848 5.33498 17.6296 5.38042 18.2182 5.47577C18.3862 5.50272 18.5494 5.53391 18.7089 5.56888C18.8676 5.60452 19.0221 5.6444 19.1721 5.68806C19.2465 5.71035 19.3203 5.73351 19.3925 5.75645C19.6819 5.8527 19.951 5.96653 20.1992 6.09775C20.491 4.23113 20.1967 2.96022 19.1903 1.80936C18.0808 0.542234 16.0785 0 13.516 0H6.07706C5.55376 0 5.10733 0.381615 5.02636 0.901117L1.92797 20.5971C1.86687 20.9867 2.16663 21.3384 2.55852 21.3384H7.15091L9.54451 6.12314Z" fill="#28356A"/>
</svg>
