<svg width="24" height="24" viewBox="0 0 24 24" fill="none" xmlns="http://www.w3.org/2000/svg">
<rect width="24" height="24" rx="12" fill="#0B4A8E"/>
<path fill-rule="evenodd" clip-rule="evenodd" d="M13.327 6.87234C14.8838 6.87234 16.2731 7.59878 17.1865 8.73674L18 6.96953C16.7276 5.75113 14.9957 5 13.0855 5C10.1116 5 7.56747 6.81959 6.5233 9.39538H4.93677L4 11.4299H6.041C6.02566 11.6187 6.01578 11.8075 6.01578 12.0002C6.01578 12.2335 6.02768 12.4638 6.05051 12.6916H5.02478L4.08813 14.7267H6.57194C7.64585 17.2374 10.1582 19 13.0855 19C14.5609 19 15.9297 18.5521 17.0632 17.7873V15.293C16.1505 16.3458 14.8154 17.0111 13.327 17.0111C11.5871 17.0111 10.0568 16.1022 9.16554 14.7267H14.3669L15.3035 12.6916H8.40028C8.36472 12.4466 8.34569 12.1964 8.34569 11.9414C8.34569 11.7691 8.35449 11.5984 8.3709 11.4299H15.8839L16.8206 9.39538H9.02067C9.88322 7.88722 11.4884 6.87234 13.327 6.87234Z" fill="#F6BC25"/>
</svg>
