<svg width="47" height="20" viewBox="0 0 47 20" fill="none" xmlns="http://www.w3.org/2000/svg">
<path d="M0 10C0 4.47715 4.47715 0 10 0H21.7143V20H10C4.47715 20 0 15.5228 0 10Z" fill="white"/>
<path d="M46.4285 10C46.4285 4.47715 41.9513 0 36.4285 0H24.7142V20H36.4285C41.9513 20 46.4285 15.5228 46.4285 10Z" fill="white"/>
<mask id="mask0_1_693" style="mask-type:alpha" maskUnits="userSpaceOnUse" x="0" y="0" width="47" height="20">
<path d="M0 10C0 4.47715 4.47715 0 10 0H21.7143V20H10C4.47715 20 0 15.5228 0 10Z" fill="white"/>
<path d="M46.4286 10C46.4286 4.47715 41.9514 0 36.4286 0H24.7143V20H36.4286C41.9514 20 46.4286 15.5228 46.4286 10Z" fill="white"/>
</mask>
<g mask="url(#mask0_1_693)">
<path d="M31.5106 16H34.9148C34.9148 13.6767 34.9148 6.874 34.9148 4H31.5106V16Z" fill="#282828"/>
<path d="M11.0852 16H14.4894C14.4894 14.5422 14.4894 5.36962 14.4894 4H11.0852V16Z" fill="#282828"/>
<path d="M7 6.11764H9.72342V13.8824H7V6.11764Z" fill="#282828"/>
<path d="M15.8511 8.58823H30.1489V11.4118H15.8511V8.58823Z" fill="#282828"/>
<path d="M36.2766 6.11764H39V13.8824H36.2766V6.11764Z" fill="#282828"/>
</g>
</svg>
