<svg width="40" height="40" viewBox="0 0 40 40" fill="none" xmlns="http://www.w3.org/2000/svg">
<path d="M14.8533 39.3246C6.31112 37.0507 0 29.2482 0 20C0 19.9022 6.5295e-07 19.8075 0.00305689 19.7097C0.0764065 17.4817 1.13692 15.5318 2.75978 14.2757C3.97005 13.3343 5.49511 12.7781 7.15464 12.7781H12.7781V5.85881C12.7781 5.35453 13.1877 4.94194 13.695 4.94194C14.2023 4.94194 14.6119 5.35453 14.6119 5.85881V14.6119H7.15464C4.26345 14.6119 1.92543 16.8765 1.8368 19.7677C1.83374 19.8441 1.83374 19.9236 1.83374 20C1.83374 22.5031 2.34413 24.89 3.26406 27.066C3.32824 27.2158 3.39242 27.3625 3.45966 27.5122C5.2934 31.5342 8.55746 34.7799 12.5947 36.5862C12.827 37.0446 13.1051 37.4817 13.426 37.8943C13.8478 38.4352 14.3246 38.915 14.8533 39.3246Z" fill="#C9B09A"/>
<path d="M39.3276 25.1406C37.0568 33.6858 29.2512 40 20 40H19.9175C19.8472 40 19.78 40 19.7097 39.9969C17.4817 39.9266 15.5318 38.8661 14.2726 37.2402C13.3313 36.03 12.7781 34.5049 12.7781 32.8454V27.2219H5.8588C5.55318 27.2219 5.27812 27.0691 5.11308 26.8368C5.05807 26.7573 5.01528 26.6718 4.98472 26.577C4.95721 26.4914 4.94193 26.3998 4.94193 26.305C4.94193 25.7977 5.35452 25.3881 5.8588 25.3881H14.6119V32.8454C14.6119 35.7396 16.8765 38.0746 19.7677 38.1632C19.8105 38.1663 19.8564 38.1663 19.9022 38.1663H20C27.3839 38.1663 33.75 33.7408 36.5892 27.4022C37.0477 27.173 37.4817 26.8949 37.8943 26.574C38.4383 26.1522 38.9181 25.6724 39.3276 25.1406Z" fill="#C9B09A"/>
<path d="M40 20V20.0825C40 20.1498 40 20.2201 39.9969 20.2873C39.9266 22.5183 38.8661 24.4682 37.2402 25.7274C36.03 26.6687 34.5049 27.2219 32.8454 27.2219H27.2219V34.1381C27.2219 34.6455 26.8123 35.055 26.305 35.055C25.7977 35.055 25.3881 34.6455 25.3881 34.1381V25.3881H32.8454C35.7396 25.3881 38.0746 23.1235 38.1632 20.2323C38.1663 20.1895 38.1663 20.1436 38.1663 20.0978V20C38.1663 17.4969 37.6559 15.107 36.7359 12.934C34.9419 8.70416 31.5923 5.28729 27.4053 3.41382C27.173 2.95538 26.8949 2.51834 26.574 2.10575C26.1553 1.5648 25.6785 1.08496 25.1498 0.675425C33.6919 2.94926 40 10.7518 40 20Z" fill="#C9B09A"/>
<path d="M35.055 13.695C35.055 14.1993 34.6455 14.6119 34.1381 14.6119H25.3881V7.15465C25.3881 4.26345 23.1235 1.92543 20.2323 1.8368C20.1559 1.83374 20.0764 1.83374 20 1.83374C12.6192 1.83374 6.25 6.25917 3.41076 12.5978C2.95232 12.8301 2.51528 13.1082 2.10575 13.4291C1.56479 13.8478 1.08496 14.3307 0.675428 14.8594C2.94621 6.31418 10.7518 0 20 0C20.0978 0 20.1956 2.98467e-06 20.2934 0.00305922C22.5214 0.0733526 24.4713 1.13386 25.7274 2.75978C26.6687 3.97005 27.2219 5.49511 27.2219 7.15465V12.7781H34.1381C34.4866 12.7781 34.7891 12.9707 34.945 13.2579C35.0153 13.3863 35.055 13.5361 35.055 13.695Z" fill="#C9B09A"/>
</svg>
