<?xml version="1.0" encoding="UTF-8"?>
<svg xmlns="http://www.w3.org/2000/svg" xmlns:xlink="http://www.w3.org/1999/xlink" width="192px" height="192px" viewBox="0 0 192 192" version="1.1">
<g id="surface1">
<path style=" stroke:none;fill-rule:nonzero;fill:rgb(4.705882%,34.117647%,56.078431%);fill-opacity:1;" d="M 143.273438 87.242188 C 131.765625 83.328125 128.363281 82.164062 127.214844 81.789062 C 126.738281 81.632812 126.160156 81.445312 125.210938 81.527344 C 115.308594 82.398438 109.480469 82.914062 106.019531 83.214844 C 84.414062 97.304688 138.789062 93.015625 143.273438 87.242188 Z M 143.273438 87.242188 "/>
<path style=" stroke:none;fill-rule:nonzero;fill:rgb(4.705882%,34.117647%,56.078431%);fill-opacity:1;" d="M 150.511719 44.125 C 137.570312 39.738281 134.78125 38.777344 134.003906 38.539062 C 133.398438 38.351562 132.996094 38.394531 132.597656 38.429688 C 91.648438 42.003906 81.511719 42.871094 78.765625 43.136719 C 76.789062 43.324219 75.816406 43.648438 74.875 45.378906 C 72.652344 49.460938 60.105469 72.777344 40.136719 109.851562 C 39.539062 110.96875 40.195312 112.027344 41.484375 112.464844 L 57.746094 117.992188 C 57.703125 117.980469 124.679688 62.996094 148.710938 43.9375 C 149.3125 43.886719 150.007812 43.953125 150.511719 44.125 Z M 150.511719 44.125 "/>
<path style=" stroke:none;fill-rule:nonzero;fill:rgb(4.705882%,34.117647%,56.078431%);fill-opacity:1;" d="M 67.398438 110.890625 C 70.746094 112.027344 69.375 112.363281 49.578125 145.164062 C 48.851562 146.371094 49.414062 147.261719 50.492188 147.707031 C 51.441406 148.097656 54.480469 149.097656 67.070312 153.378906 C 73.558594 148.632812 113.882812 95.910156 67.398438 110.890625 Z M 67.398438 110.890625 "/>
<path style=" stroke:none;fill-rule:nonzero;fill:rgb(3.137255%,49.411765%,84.705882%);fill-opacity:1;" d="M 148.710938 43.9375 C 151.441406 43.699219 153.035156 45.632812 151.464844 47.28125 L 115.097656 85.457031 C 112.90625 87.761719 115.046875 89.375 117.507812 89.160156 L 141.472656 87.054688 C 144.375 86.800781 145.914062 88.972656 143.996094 90.613281 L 71.609375 152.410156 C 68.777344 154.824219 64.210938 153.253906 65.898438 150.476562 L 84.949219 119.132812 C 85.910156 117.546875 84.28125 116.011719 81.855469 116.226562 L 59.546875 118.183594 C 57.179688 118.394531 55.558594 116.941406 56.394531 115.378906 L 91.023438 51.085938 C 92.234375 48.832031 93.300781 48.804688 95.96875 48.570312 Z M 148.710938 43.9375 "/>
</g>
</svg>
