<svg width="46" height="30" viewBox="0 0 46 30" fill="none" xmlns="http://www.w3.org/2000/svg">
<path fill-rule="evenodd" clip-rule="evenodd" d="M33.8003 15C33.8003 20.5265 29.3224 25 23.7981 25C18.276 25 13.8003 20.5265 13.8003 15C13.8003 9.47351 18.276 5 23.7981 5C29.3224 5 33.8003 9.47351 33.8003 15ZM27.0669 11.419C27.4604 11.6762 27.7462 11.9883 27.9155 12.3577C28.0847 12.7292 28.1309 13.1161 28.0518 13.4898C28.0012 13.7734 27.8869 14.035 27.7176 14.268C27.5506 14.5032 27.3329 14.6966 27.0647 14.8505C26.7987 15.0066 26.4668 15.1099 26.0667 15.1693C26.4492 15.3451 26.7394 15.5166 26.9284 15.6793C27.2054 15.9123 27.4055 16.2003 27.5308 16.5476C27.6539 16.8861 27.6803 17.251 27.6077 17.6379C27.5242 18.0974 27.3066 18.4931 26.9592 18.8228C26.6097 19.1592 26.1656 19.3812 25.6227 19.4889C25.4226 19.5219 25.1962 19.5439 24.9434 19.5483L24.6532 21.0849L23.1936 20.8145L23.4574 19.3944C23.42 19.3856 23.387 19.3834 23.3496 19.3746L22.5187 19.2207L22.2549 20.6408L20.793 20.366L21.0568 18.9459L18.8278 18.5326L19.0498 17.3434L19.3927 17.4005C19.6192 17.4489 19.7752 17.4577 19.8632 17.4335C19.9511 17.4093 20.017 17.361 20.0654 17.2972C20.1138 17.2335 20.1577 17.073 20.2039 16.8224L21.1052 12.0125C21.1536 11.7531 21.1667 11.5883 21.147 11.5113C21.1272 11.4344 21.0832 11.3662 21.0085 11.3135C20.9381 11.2563 20.7886 11.2058 20.56 11.1662L20.2193 11.1024L20.4413 9.90877L22.6726 10.3264L22.9408 8.90415L24.4026 9.17894L24.1344 10.599L25.0731 10.7749L25.3413 9.3548L26.8009 9.62959L26.5174 11.1486C26.7262 11.2299 26.9175 11.3179 27.0669 11.419Z" fill="#7C7C7C"/>
<path d="M25.416 12.3862C25.2182 12.2763 24.8401 12.1708 24.2861 12.0675L23.3408 11.8894L22.9452 13.9932L23.8926 14.1712C24.3872 14.2614 24.7609 14.29 25.0137 14.2504C25.2665 14.2086 25.4644 14.1185 25.6183 13.9756C25.7656 13.8371 25.8645 13.6503 25.904 13.4304C25.948 13.2018 25.926 13.0018 25.8425 12.8171C25.7634 12.639 25.6227 12.4918 25.416 12.3862Z" fill="#7C7C7C"/>
<path d="M25.3567 16.3146C25.4424 16.5168 25.4578 16.7388 25.4138 17.0004C25.3567 17.3038 25.2248 17.5412 25.0159 17.7259C24.8049 17.9039 24.5763 18.0116 24.3235 18.0358C24.0685 18.06 23.7585 18.0358 23.3936 17.9699L22.7627 17.8468C22.5539 17.805 22.4286 17.7742 22.3824 17.7413C22.3384 17.7105 22.3142 17.6665 22.3033 17.605C22.2989 17.5588 22.3164 17.3961 22.3604 17.1345L22.7099 15.266L23.8289 15.4726C24.3191 15.5672 24.6752 15.6815 24.895 15.8134C25.1171 15.9453 25.2687 16.1167 25.3567 16.3146Z" fill="#7C7C7C"/>
</svg>
