<svg width="46" height="30" viewBox="0 0 46 30" fill="none" xmlns="http://www.w3.org/2000/svg">
<path d="M38.639 12.1239C38.6812 12.1692 38.7128 12.2145 38.7549 12.2712C38.7865 12.3165 38.8181 12.3505 38.8496 12.3959C38.8918 12.4412 38.934 12.4979 38.9656 12.5432C38.9971 12.5886 39.0393 12.6339 39.0709 12.6792C39.1131 12.7359 39.1552 12.7926 39.1971 12.8492C39.2393 12.9059 39.2709 12.9512 39.3131 13.0079C39.3553 13.0532 39.3868 13.0986 39.429 13.1439C39.4606 13.1892 39.4921 13.2232 39.5237 13.2686C39.5659 13.3252 39.6187 13.3819 39.6609 13.4386C39.7027 13.4839 39.7346 13.5406 39.7765 13.5859C39.8084 13.6313 39.8502 13.6653 39.8821 13.7106C39.9031 13.7333 39.9137 13.7559 39.9346 13.7786C39.9559 13.8126 39.9874 13.8353 40.0084 13.8693C40.0293 13.8919 40.0506 13.9259 40.0715 13.9486C40.0927 13.9713 40.1243 14.0053 40.1349 14.0393C40.1665 14.0846 40.2087 14.1186 40.2402 14.1753C40.2612 14.2093 40.2927 14.2319 40.314 14.2659C40.3562 14.3226 40.4087 14.3906 40.4509 14.4473C40.4718 14.4813 40.5034 14.5039 40.5246 14.5379C40.5562 14.5833 40.5877 14.6173 40.6193 14.6626C40.6406 14.6966 40.6721 14.7193 40.6931 14.7533C40.7246 14.7986 40.7565 14.8439 40.7881 14.8893C40.8196 14.9346 40.8618 14.9799 40.9037 15.0253C40.9356 15.0593 40.9565 15.0933 40.9774 15.1273C41.0093 15.1613 40.9987 15.1953 40.9671 15.2293C40.9249 15.2859 40.8827 15.3426 40.8302 15.3993C40.7984 15.4446 40.7565 15.49 40.7246 15.524C40.6827 15.5693 40.6509 15.626 40.609 15.6713C40.5771 15.7166 40.5352 15.762 40.5034 15.8073C40.4615 15.8526 40.4299 15.9093 40.3981 15.9546C40.3665 16 40.3243 16.0453 40.2927 16.0906C40.2718 16.1246 40.2402 16.1587 40.219 16.1927C40.1874 16.238 40.1559 16.272 40.1243 16.3173C40.0927 16.3513 40.0715 16.3853 40.0399 16.4193C39.9977 16.476 39.9452 16.5327 39.9031 16.5893C39.8715 16.6347 39.8293 16.68 39.7977 16.7253C39.7556 16.7707 39.7134 16.8273 39.6818 16.8727C39.6609 16.9067 39.629 16.9407 39.6081 16.9747C39.5765 17.02 39.5343 17.0653 39.5027 17.1107C39.4712 17.156 39.429 17.2013 39.3974 17.2467C39.3446 17.3033 39.3024 17.3713 39.2499 17.428C39.1971 17.496 39.1446 17.564 39.0918 17.632C39.0496 17.6773 39.0077 17.734 38.9759 17.7793C38.9443 17.8247 38.9128 17.87 38.8706 17.9153C38.839 17.9607 38.7968 18.006 38.7652 18.0514C38.7337 18.0967 38.6915 18.142 38.6599 18.1874C38.6599 18.1874 38.6493 18.1874 38.639 18.1987C38.639 16.1813 38.639 14.1639 38.639 12.1465C38.6284 12.1239 38.639 12.1239 38.639 12.1239Z" fill="#7C7C7C"/>
<path fill-rule="evenodd" clip-rule="evenodd" d="M6.66888 12.3248H5.6001C5.6001 14.8762 5.6001 17.4381 5.62105 20H6.73175V17.3126C6.76351 17.3506 6.79912 17.381 6.83391 17.4106C6.85651 17.4299 6.87877 17.4489 6.8994 17.4695C7.05657 17.6159 7.24518 17.7309 7.44427 17.8041C7.72718 17.9086 8.01009 17.9086 8.30348 17.8877C8.49209 17.8773 8.6807 17.8459 8.86931 17.7936C9.0684 17.7413 9.24653 17.6577 9.39322 17.5217C9.63422 17.3021 9.7914 17.0303 9.89618 16.727C9.99047 16.4447 10.0533 16.1624 10.0743 15.8591C10.0953 15.65 10.1162 15.4409 10.1162 15.2317C10.1162 15.0017 10.1057 14.7612 10.0953 14.5311C10.0848 14.3847 10.0638 14.2383 10.0429 14.092C10.0114 13.9037 9.96953 13.7155 9.91712 13.5273C9.84378 13.2763 9.72853 13.0567 9.56087 12.858C9.42465 12.6907 9.26747 12.5653 9.07887 12.4816C8.93219 12.4084 8.775 12.3666 8.61783 12.3248C8.35587 12.262 8.09392 12.2411 7.83196 12.2725C7.63288 12.2934 7.43379 12.3561 7.25566 12.4398C7.07753 12.5339 6.90988 12.6489 6.76318 12.7953C6.73175 12.8162 6.70031 12.8476 6.66888 12.879V12.3248ZM8.91122 14.3429C8.96362 14.573 8.98456 14.8239 8.96362 15.0644C8.96362 15.1007 8.96425 15.1376 8.9649 15.1749C8.96687 15.2879 8.9689 15.4039 8.95312 15.5141C8.92169 15.8277 8.87978 16.1519 8.72261 16.4342C8.5864 16.6852 8.38731 16.8421 8.1044 16.8839C7.96818 16.9048 7.83196 16.9152 7.69575 16.9048C7.44427 16.8839 7.22423 16.7793 7.06705 16.5702C6.90988 16.3715 6.82605 16.1415 6.77366 15.901C6.75271 15.765 6.73175 15.6186 6.72127 15.4827C6.71865 15.4304 6.71537 15.3781 6.7121 15.3258C6.70228 15.169 6.69246 15.0121 6.70031 14.8553C6.71079 14.4893 6.76318 14.1233 6.95179 13.7887C7.10896 13.5064 7.33949 13.3286 7.66431 13.2763C7.83196 13.2554 7.99962 13.2449 8.16726 13.3077C8.38731 13.3809 8.55496 13.5273 8.6807 13.726C8.79597 13.9142 8.86931 14.1233 8.91122 14.3429Z" fill="#7C7C7C"/>
<path fill-rule="evenodd" clip-rule="evenodd" d="M14.1752 17.5327V18.0211C14.5461 18.0211 14.9065 18.0211 15.2773 18.0319V17.956V14.0271C15.2773 13.8209 15.2456 13.6147 15.1714 13.4085C15.0336 13.0286 14.7793 12.7464 14.4296 12.5511C14.2176 12.4317 13.9951 12.3666 13.7513 12.3232C13.5076 12.2906 13.2639 12.2581 13.0201 12.2581C12.9142 12.2581 12.8082 12.2581 12.7022 12.2689C12.6068 12.2689 12.5221 12.2689 12.4267 12.2906C12.1935 12.334 11.9604 12.3883 11.7484 12.486C11.4517 12.6162 11.1974 12.7899 11.0066 13.0503C10.9854 13.0829 10.996 13.0937 11.0173 13.1155C11.0596 13.148 11.102 13.1914 11.1444 13.2348C11.208 13.3 11.2742 13.3624 11.3405 13.4248C11.4067 13.4872 11.4729 13.5496 11.5365 13.6147C11.563 13.6364 11.5868 13.6608 11.6107 13.6852C11.6345 13.7097 11.6584 13.7341 11.6849 13.7558C11.7061 13.7775 11.7272 13.7884 11.7591 13.7558C11.7944 13.7124 11.8297 13.6786 11.865 13.6448C11.8827 13.628 11.9003 13.6111 11.918 13.593C12.0452 13.4736 12.1935 13.3868 12.3525 13.3325C12.575 13.2457 12.8082 13.2131 13.0519 13.2457C13.2321 13.2674 13.4122 13.2891 13.5818 13.3542C13.8361 13.4519 14.0163 13.6147 14.0905 13.886C14.1208 13.9896 14.1318 14.1031 14.142 14.2077C14.1425 14.2126 14.143 14.2176 14.1434 14.2225C14.1504 14.323 14.1482 14.4235 14.1458 14.5272C14.1447 14.5802 14.1434 14.6341 14.1434 14.6892H14.1117C13.5924 14.6892 13.0625 14.6892 12.5327 14.7C12.4267 14.7 12.3207 14.7109 12.2147 14.7217C11.9392 14.7543 11.6849 14.852 11.4517 15.0039C11.1656 15.1884 10.9537 15.438 10.8477 15.7745C10.7735 16.0024 10.7417 16.2412 10.7735 16.4799C10.7841 16.5396 10.792 16.602 10.8 16.6644C10.8079 16.7268 10.8159 16.7892 10.8265 16.849C10.8795 17.0877 10.9748 17.3048 11.1338 17.4893C11.2822 17.6738 11.4729 17.804 11.6849 17.9017C11.9392 18.0102 12.1935 18.0645 12.4585 18.0645C12.6492 18.0645 12.84 18.0536 13.0307 18.0319C13.1685 18.0211 13.3062 17.9994 13.444 17.9668C13.6242 17.9234 13.7831 17.8149 13.9421 17.7064C14.0163 17.6521 14.0905 17.5978 14.1752 17.5327ZM14.0905 15.5031H14.154V16.0675C14.1434 16.2086 14.1328 16.3497 14.1011 16.4908C14.0692 16.6319 13.9739 16.7404 13.8679 16.8381C13.7089 16.9792 13.5288 17.0551 13.3274 17.0877C13.1897 17.1094 13.0519 17.1311 12.9142 17.1094C12.8612 17.104 12.8082 17.1013 12.7552 17.0986C12.7022 17.0959 12.6492 17.0931 12.5962 17.0877C12.4055 17.066 12.2147 17.0117 12.0664 16.8706C11.9816 16.7838 11.918 16.6753 11.8968 16.545C11.865 16.3823 11.8544 16.2195 11.9074 16.0567C11.971 15.8721 12.0876 15.7528 12.2465 15.6551C12.4267 15.5466 12.628 15.5031 12.84 15.5031H14.0905Z" fill="#7C7C7C"/>
<path fill-rule="evenodd" clip-rule="evenodd" d="M33.2077 16.0262C33.1646 15.8639 33.1431 15.7016 33.1216 15.5285C34.3588 15.5285 35.5746 15.5285 36.8225 15.5177C36.8234 15.5085 36.8242 15.4993 36.8251 15.4902C36.8349 15.3818 36.8441 15.2812 36.8441 15.1715C36.8441 15.1321 36.8412 15.0957 36.8384 15.0607C36.8358 15.0283 36.8333 14.9971 36.8333 14.9659C36.8333 14.8469 36.8225 14.7278 36.8118 14.6088C36.7903 14.4466 36.7688 14.2951 36.7365 14.1328C36.6612 13.7757 36.5321 13.4403 36.3169 13.1374C36.1878 12.9426 36.0264 12.7803 35.8435 12.6505C35.4777 12.4017 35.0689 12.2826 34.6278 12.261C34.4826 12.2529 34.3373 12.263 34.1921 12.2732C34.1436 12.2766 34.0952 12.2799 34.0468 12.2826C33.8531 12.2935 33.6703 12.3476 33.4874 12.4125C33.1646 12.5315 32.8957 12.7262 32.6697 12.9859C32.5406 13.1266 32.433 13.2889 32.3577 13.462C32.2717 13.6459 32.2071 13.8298 32.1533 14.0138C32.0672 14.2842 32.035 14.5547 32.0134 14.8361C32.0027 14.9983 32.0027 15.1498 32.0134 15.3121C32.0134 15.4275 32.023 15.5429 32.0326 15.6583C32.0373 15.716 32.0421 15.7737 32.0457 15.8314C32.0565 16.037 32.1103 16.2426 32.1748 16.4373C32.2717 16.7727 32.4223 17.0649 32.6482 17.3245C32.8418 17.5517 33.0785 17.7249 33.3583 17.8547C33.6595 17.9845 33.9823 18.0494 34.305 18.0603C34.531 18.0711 34.7461 18.0603 34.9721 18.0386C35.1119 18.0278 35.2518 18.0061 35.3809 17.9737C35.6391 17.9088 35.8866 17.8222 36.1125 17.6816C36.3061 17.5625 36.489 17.4111 36.6396 17.2271C36.6612 17.2055 36.6612 17.1839 36.6396 17.1622C36.5859 17.1081 36.5321 17.0567 36.4783 17.0054C36.4245 16.954 36.3707 16.9026 36.3169 16.8485L35.9619 16.4914C35.9135 16.5293 35.8677 16.5672 35.822 16.605C35.7763 16.6429 35.7306 16.6808 35.6821 16.7186C35.3809 16.9567 35.0259 17.0757 34.6386 17.0865C34.4772 17.0973 34.305 17.0649 34.1436 17.0324C33.9607 16.9891 33.7886 16.9134 33.6487 16.7944C33.4121 16.5888 33.283 16.3183 33.2077 16.0262ZM35.6606 14.6737H33.1431C33.1538 14.5764 33.1538 14.479 33.1538 14.3816C33.1592 14.3602 33.1645 14.3385 33.1699 14.3165C33.1971 14.2056 33.2255 14.0897 33.2614 13.9813C33.3906 13.6351 33.6165 13.3754 33.9715 13.2672C34.3266 13.159 34.6816 13.1807 35.0151 13.3646C35.2518 13.4944 35.4024 13.7 35.4992 13.938C35.553 14.0787 35.5961 14.2301 35.6283 14.3816C35.6427 14.4466 35.6475 14.5115 35.6522 14.5764C35.6546 14.6088 35.657 14.6413 35.6606 14.6737Z" fill="#7C7C7C"/>
<path d="M19.5009 12.2581C19.9138 12.2581 20.3376 12.2581 20.7614 12.2581C20.7614 12.2792 20.7614 12.2898 20.7505 12.3109C20.6418 12.5963 20.5332 12.8923 20.4245 13.1776C20.3376 13.3891 20.2616 13.611 20.1746 13.8224C20.0442 14.1712 19.903 14.52 19.7726 14.8794C19.6748 15.1331 19.577 15.3868 19.4792 15.6405C19.3488 15.9893 19.2076 16.3486 19.0772 16.6975C18.9794 16.9617 18.8816 17.226 18.7729 17.4902C18.6534 17.8073 18.5339 18.1244 18.4035 18.4415C18.2948 18.7163 18.197 18.9911 18.0667 19.2554C17.8928 19.6148 17.5886 19.8579 17.1865 19.953C17.0778 19.9741 16.9692 19.9847 16.8605 19.9953C16.7084 20.0059 16.5563 19.9953 16.4042 19.9953C16.2303 19.9953 16.0673 19.9953 15.8826 19.9953C15.8826 19.6676 15.8826 19.3294 15.8826 18.9806C15.9369 18.9806 15.9804 18.9806 16.0347 18.9806C16.2194 18.9806 16.3933 18.9806 16.578 18.9806C16.8714 18.97 17.1322 18.8115 17.23 18.5366C17.3495 18.2301 17.4582 17.913 17.5668 17.5959C17.5886 17.5325 17.5451 17.4902 17.5342 17.4374C17.4473 17.1942 17.3604 16.9617 17.2734 16.7291C17.1539 16.4015 17.0235 16.0738 16.904 15.7461C16.7519 15.3551 16.6106 14.964 16.4585 14.5729C16.3173 14.1924 16.1651 13.8118 16.0239 13.4313C15.8935 13.0719 15.7522 12.7126 15.6218 12.3532C15.611 12.3426 15.611 12.3215 15.6001 12.3003C15.9913 12.3003 16.3933 12.3003 16.7845 12.3003C16.8171 12.3003 16.8279 12.3215 16.8279 12.3426C16.8931 12.5329 16.9583 12.7231 17.0235 12.9134C17.1648 13.3045 17.2952 13.6956 17.4364 14.0866C17.5668 14.4566 17.6972 14.8266 17.8276 15.2071C17.9362 15.5136 18.0449 15.8201 18.1536 16.1267C18.1536 16.1372 18.1644 16.1478 18.1753 16.1584C18.6317 14.8371 19.0663 13.5476 19.5009 12.2581Z" fill="#7C7C7C"/>
<path d="M30.2097 17.7419C30.2097 17.7212 30.2097 17.6902 30.2097 17.6695C30.2097 16.5528 30.2097 15.4465 30.2097 14.3298C30.2097 14.0506 30.1253 13.7921 29.9354 13.5646C29.7771 13.3682 29.5556 13.2647 29.3129 13.2441C29.1968 13.2337 29.0807 13.2234 28.9647 13.2337C28.6587 13.2647 28.3949 13.3785 28.2155 13.637C28.0889 13.8128 28.0256 14.0092 27.9939 14.2264C27.9833 14.2987 27.9833 14.3711 27.9833 14.4435C27.9833 15.5188 27.9833 16.5839 27.9833 17.6592C27.9833 17.6799 27.9833 17.7005 27.9833 17.7316C27.6035 17.7316 27.2236 17.7316 26.8438 17.7316C26.8438 15.9221 26.8438 14.1126 26.8438 12.3031C27.2025 12.3031 27.5613 12.3031 27.9306 12.3031C27.9306 12.4789 27.9306 12.6547 27.9306 12.8512C28.0044 12.7891 28.0677 12.7271 28.1416 12.6754C28.3949 12.4893 28.6692 12.3652 28.9857 12.3031C29.1968 12.2618 29.4078 12.2514 29.6189 12.2618C29.8616 12.2721 30.1042 12.3238 30.3258 12.4272C30.5474 12.5306 30.7373 12.6754 30.9061 12.8512C31.075 13.0476 31.2016 13.2751 31.2649 13.5336C31.3177 13.7404 31.3388 13.9472 31.3388 14.154C31.3388 14.5159 31.3493 14.8778 31.3493 15.2397C31.3493 15.9014 31.3599 16.5632 31.3599 17.2249C31.3599 17.3904 31.3599 17.5661 31.3599 17.7419C30.9589 17.7419 30.5896 17.7419 30.2097 17.7419Z" fill="#7C7C7C"/>
<path d="M21.3599 10C21.754 10 22.1374 10 22.5315 10C22.5315 10.0211 22.5315 10.0421 22.5315 10.0632C22.5315 12.1159 22.5315 14.1581 22.5315 16.2003C22.5315 16.3687 22.5741 16.5372 22.7019 16.6635C22.7765 16.7372 22.8723 16.7793 22.9789 16.7793C23.1493 16.7793 23.309 16.7898 23.4795 16.7898C23.5221 16.7898 23.5753 16.7898 23.6179 16.7793C23.6179 17.0951 23.6179 17.4109 23.6179 17.7372C23.586 17.7372 23.5753 17.7372 23.554 17.7372C23.2771 17.7372 23.0108 17.7478 22.7339 17.7372C22.425 17.7267 22.148 17.632 21.9137 17.4425C21.6261 17.2214 21.4664 16.9162 21.4025 16.5687C21.3705 16.4003 21.3599 16.2214 21.3599 16.0529C21.3599 14.0528 21.3599 12.0633 21.3599 10.0632C21.3599 10.0526 21.3599 10.0316 21.3599 10Z" fill="#7C7C7C"/>
<path d="M24.5859 12.2581C24.9647 12.2581 25.3223 12.2581 25.6905 12.2581C25.6905 14.086 25.6905 15.914 25.6905 17.7419C25.3223 17.7419 24.9541 17.7419 24.5859 17.7419C24.5859 15.914 24.5859 14.086 24.5859 12.2581Z" fill="#7C7C7C"/>
<path d="M25.6905 11.2903C25.3223 11.2903 24.9541 11.2903 24.5859 11.2903C24.5859 10.8642 24.5859 10.438 24.5859 10C24.9541 10 25.3223 10 25.6905 10C25.6905 10.4262 25.6905 10.8523 25.6905 11.2903Z" fill="#7C7C7C"/>
</svg>
