<svg width="46" height="30" viewBox="0 0 46 30" fill="none" xmlns="http://www.w3.org/2000/svg">
<path d="M12.8324 11.0585L11.8451 15.1226C11.7292 15.5291 11.6711 15.8773 11.6131 16.2839C11.5549 15.8196 11.4967 15.4131 11.3808 15.0648L10.2197 11.0584H9.05827L7.95508 15.0648C7.83889 15.4714 7.78071 15.8774 7.72305 16.2839C7.66487 15.8773 7.60669 15.4712 7.49067 15.0067L6.50358 11.0585H5.40039L7.08409 17.6197H8.36166L9.46485 13.5552C9.58078 13.1487 9.63896 12.7422 9.69688 12.3357C9.75506 12.7423 9.81325 13.1487 9.92953 13.5552L11.0325 17.5617H12.31L13.8777 11.0586H12.8326L12.8324 11.0585Z" fill="#7C7C7C"/>
<path d="M16.084 12.684C14.6323 12.684 13.7031 13.7873 13.7031 15.2389C13.7031 16.9229 14.5741 17.6774 15.9094 17.6774C17.361 17.6774 18.2898 16.5741 18.2898 15.0647C18.2899 13.3808 17.3611 12.684 16.084 12.684ZM16.0259 16.7485C15.2129 16.7485 14.8063 16.2259 14.8063 15.1226C14.8063 14.0197 15.3869 13.5552 16.0259 13.5552C16.8386 13.5552 17.2448 14.1357 17.2448 15.1226C17.2448 16.2259 16.6644 16.7485 16.0259 16.7485Z" fill="#7C7C7C"/>
<path d="M19.7416 13.7871C19.858 13.4387 19.858 13.0322 19.858 12.742H18.8711V17.5613H19.9162V15.587C19.9162 14.1355 20.3807 13.4968 21.3097 13.6709V12.6258C20.4388 12.568 19.974 13.1485 19.7416 13.7871Z" fill="#7C7C7C"/>
<path d="M22.9936 11.0002H21.9482V15.6451V17.5613H22.9936H22.9938V14.6001H22.9936V11.0002Z" fill="#7C7C7C"/>
<path d="M26.8257 12.742C26.5935 12.6838 26.3609 12.6838 26.129 12.6838C24.5611 12.6838 23.6323 13.7871 23.6323 15.4129C23.6323 16.8064 24.2127 17.6772 25.3742 17.6772C26.1291 17.6772 26.7095 17.271 26.9419 16.69C26.8837 16.9226 26.8837 17.3287 26.8837 17.5611H27.8709V11H26.8258V12.742H26.8257ZM26.7675 13.6131V15.1224C26.7675 15.9354 26.3609 16.8646 25.6062 16.8646C24.9675 16.8646 24.6774 16.3419 24.6774 15.3549C24.6774 14.0773 25.2578 13.555 26.0709 13.555C26.3029 13.555 26.5935 13.555 26.8258 13.6131H26.7675Z" fill="#7C7C7C"/>
<path d="M30.3094 11.0002C29.6706 11.0002 29.1484 11.0584 28.6255 11.0584V17.5614H29.6706V15.1806H30.1353C31.703 15.1806 32.6902 14.2518 32.6902 12.9742C32.6902 11.7551 31.8771 11.0002 30.3094 11.0002ZM30.1353 14.3099C29.9612 14.3099 29.787 14.2517 29.6706 14.2517V11.8708H30.1934C31.1803 11.8708 31.5868 12.3353 31.5868 13.0321C31.5869 13.8452 31.0062 14.3099 30.1353 14.3099Z" fill="#7C7C7C"/>
<path d="M36.6961 17.5033V14.1938C36.6961 13.2649 36.2895 12.626 34.838 12.626C34.1994 12.626 33.5605 12.8004 33.0961 12.9744L33.2703 13.7873C33.6768 13.5551 34.1994 13.4389 34.6637 13.4389C35.4186 13.4389 35.6511 13.7873 35.6511 14.368V14.6583C33.8511 14.6583 32.8057 15.2389 32.8057 16.342C32.8057 17.1549 33.3284 17.6774 34.1413 17.6774C34.8962 17.6774 35.4768 17.2713 35.7088 16.6903C35.6549 16.9077 35.6513 17.2257 35.6511 17.5032H36.6961V17.5033ZM34.3736 16.8648C33.967 16.8648 33.735 16.5742 33.735 16.2259C33.735 15.768 34.1312 15.3664 35.5347 15.3557V15.5292C35.5347 16.168 35.0702 16.8648 34.3736 16.8648Z" fill="#7C7C7C"/>
<path d="M40.18 12.742L39.4833 14.7163C39.3092 15.2387 39.1349 15.8196 39.0186 16.2256C38.9607 15.8195 38.8446 15.3549 38.6702 14.9484L37.9155 12.742H36.7544L38.6122 17.5614L38.4381 18.0257C38.0897 18.8967 37.6833 19.1289 37.2188 19.1289C37.0447 19.1289 36.8122 19.1289 36.6382 19.0711L36.522 19.9418C36.6382 20 36.9283 20 37.1027 20C38.206 20 38.8446 19.5354 39.425 17.9098L41.283 12.7421L40.18 12.742Z" fill="#7C7C7C"/>
</svg>
