<svg xmlns="http://www.w3.org/2000/svg" width="25" height="15" fill="none" viewBox="0 0 25 15">
  <g clip-path="url(#a)">
    <path fill="#FF5F00" d="M15.764 1.822H9.219v11.356h6.545V1.822Z"/>
    <path fill="#EB001B" d="M9.635 7.5a6.991 6.991 0 0 1 .75-3.156 7.263 7.263 0 0 1 2.106-2.522A7.628 7.628 0 0 0 8.667.32a7.714 7.714 0 0 0-4.067.685 7.397 7.397 0 0 0-3.07 2.664A7.04 7.04 0 0 0 .389 7.5c0 1.355.395 2.683 1.14 3.831a7.397 7.397 0 0 0 3.07 2.664 7.714 7.714 0 0 0 4.068.685 7.627 7.627 0 0 0 3.824-1.502 7.264 7.264 0 0 1-2.106-2.52 7.005 7.005 0 0 1-.75-3.158Z"/>
    <path fill="#F79E1B" d="M24.594 7.5a7.043 7.043 0 0 1-1.14 3.831 7.395 7.395 0 0 1-3.071 2.665 7.713 7.713 0 0 1-4.067.684 7.626 7.626 0 0 1-3.825-1.502 7.276 7.276 0 0 0 2.105-2.522 7.02 7.02 0 0 0 .753-3.156 7.019 7.019 0 0 0-.752-3.156 7.276 7.276 0 0 0-2.105-2.523A7.628 7.628 0 0 1 16.315.32a7.714 7.714 0 0 1 4.068.685 7.397 7.397 0 0 1 3.072 2.664A7.039 7.039 0 0 1 24.593 7.5Zm-.714 4.477v-.233h.097v-.047h-.247v.047h.097v.233h.053Zm.48 0v-.28h-.075l-.088.193-.087-.194h-.075v.281h.053v-.212l.081.183h.056l.082-.183v.212h.053Z"/>
  </g>
  <defs>
    <clipPath id="a">
      <path fill="#fff" d="M0 0h25v15H0z"/>
    </clipPath>
  </defs>
</svg>
