<svg width="40" height="40" viewBox="0 0 40 40" fill="none" xmlns="http://www.w3.org/2000/svg">
<g clip-path="url(#clip0_319_2582)">
<path d="M39.1652 2.66005L24.5391 13.234L22.1391 14.9732C20.8678 15.9123 19.1321 15.9123 17.8608 14.9732L15.4608 13.234L0.817383 2.67748C1.63129 1.53834 2.94785 0.86357 4.34785 0.868805H35.6522C37.0418 0.868805 38.3479 1.5349 39.1652 2.66005Z" fill="#FFD54F"/>
<path d="M0.817453 2.67749L15.461 13.2341L1.26964 27.4253C0.453937 26.608 -0.00168804 25.5001 3.07084e-05 24.347V5.21663C-0.00340679 4.30358 0.281828 3.41491 0.817453 2.67749Z" fill="#FFC107"/>
<path d="M39.9999 5.2166V24.3471C40.0016 25.5001 39.546 26.6079 38.7304 27.4253L24.5391 13.234L39.1652 2.66003C39.7078 3.40097 39.9999 4.2966 39.9999 5.2166Z" fill="#FFC107"/>
<path d="M26.0868 32.1731C24.932 32.1731 24.3476 31.3035 24.3476 29.5644C24.3754 27.1348 22.4293 25.1418 19.9998 25.1139C17.5703 25.086 15.5772 27.0322 15.5493 29.4617C15.5215 31.8913 17.4676 33.8843 19.8971 33.9122C21.1997 33.9278 22.4415 33.3644 23.2885 32.3766C23.8659 33.3661 24.9424 33.9574 26.0868 33.9122C29.565 33.9122 29.565 30.6391 29.565 29.5644C29.565 24.2809 25.2833 19.9991 19.9998 19.9991C14.7163 19.9991 10.4346 24.2809 10.4346 29.5627C10.4346 34.8445 14.7164 39.1279 19.9998 39.1279C22.4815 39.1279 24.8659 38.1627 26.6503 36.4374C26.9964 36.1018 27.0033 35.5488 26.6677 35.2044C26.3321 34.8583 25.779 34.8513 25.4329 35.187C22.3216 38.187 17.3668 38.0983 14.3668 34.987C11.3668 31.8756 11.4555 26.9209 14.5668 23.9209C17.6782 20.9209 22.6329 21.0095 25.6329 24.1209C27.0416 25.5817 27.8277 27.5331 27.826 29.5626C27.8259 31.514 27.3877 32.1731 26.0868 32.1731ZM19.9998 32.1731C18.5598 32.1731 17.3911 31.0044 17.3911 29.5644C17.3911 28.1244 18.5598 26.9557 19.9998 26.9557C21.4398 26.9557 22.6085 28.1227 22.6085 29.5644C22.6086 31.0061 21.4398 32.1731 19.9998 32.1731Z" fill="#455A64"/>
<path d="M24.5391 13.234L22.1391 14.9731C20.8677 15.9123 19.1321 15.9123 17.8608 14.9731L15.4608 13.234L1.26953 27.4253C2.08695 28.2409 3.19477 28.6966 4.34781 28.6948H8.73914C9.21047 22.4756 14.633 17.8165 20.8505 18.2861C26.4157 18.707 30.8383 23.1296 31.2591 28.6948H35.6522C36.8052 28.6965 37.913 28.2409 38.7305 27.4253L24.5391 13.234Z" fill="#FFA000"/>
<path d="M35.6522 28.6949H32.1739C31.6939 28.6949 31.3044 28.3053 31.3044 27.8253C31.3044 27.3453 31.6939 26.9558 32.1739 26.9558H35.6522C37.0905 26.9558 38.2609 25.7853 38.2609 24.3471V5.21659C38.2609 3.77831 37.0904 2.60792 35.6522 2.60792H4.34789C2.90961 2.60792 1.73922 3.77659 1.73922 5.21659V24.3471C1.73922 25.7853 2.90969 26.9557 4.34789 26.9557H7.82617C8.30617 26.9557 8.6957 27.3435 8.6957 27.8253C8.6957 28.307 8.30617 28.6948 7.82617 28.6948H4.34789C1.95133 28.6949 0 26.7435 0 24.347V5.21659C0 2.82002 1.95133 0.868774 4.34789 0.868774H35.6523C38.0505 0.868774 40 2.81831 40 5.21659V24.3471C40 26.7435 38.0505 28.6949 35.6522 28.6949Z" fill="#2E2E2E"/>
<path d="M20.0016 16.5469C19.0711 16.5469 18.1407 16.2564 17.346 15.6756L3.83981 5.9209C3.44848 5.63918 3.36153 5.09653 3.64332 4.70699C3.92332 4.31567 4.4659 4.22871 4.85723 4.51051L18.3703 14.2687C19.3494 14.9835 20.6555 14.9835 21.6277 14.2722L35.1425 4.51051C35.532 4.23051 36.0746 4.31574 36.3564 4.70528C36.6381 5.09481 36.5494 5.63918 36.1616 5.91918L22.6486 15.6774C21.8589 16.2565 20.9303 16.5469 20.0016 16.5469Z" fill="#2E2E2E"/>
<path d="M4.34801 25.2166C4.12543 25.2166 3.90277 25.1314 3.73238 24.9627C3.39324 24.6236 3.39324 24.0722 3.73238 23.7332L12.428 15.0376C12.7671 14.6984 13.3185 14.6984 13.6575 15.0376C13.9967 15.3767 13.9967 15.928 13.6575 16.2671L4.96191 24.9627C4.79316 25.1314 4.57059 25.2166 4.34801 25.2166Z" fill="#2E2E2E"/>
<path d="M35.652 25.2166C35.4295 25.2166 35.2068 25.1313 35.0364 24.9627L26.3408 16.267C26.0016 15.9278 26.0016 15.3765 26.3408 15.0374C26.6799 14.6983 27.2313 14.6983 27.5703 15.0374L36.2659 23.7331C36.6051 24.0722 36.6051 24.6235 36.2659 24.9626C36.0973 25.1313 35.8747 25.2166 35.652 25.2166Z" fill="#2E2E2E"/>
<path d="M20.0052 39.1314C19.9513 39.1314 19.8973 39.1314 19.8434 39.1297C17.2887 39.088 14.9043 38.0532 13.127 36.2166C9.45915 32.4253 9.56001 26.3592 13.3495 22.6931C15.186 20.9157 17.6452 19.9592 20.1582 20.0026C22.7113 20.0444 25.0974 21.0791 26.8747 22.914C28.6086 24.707 29.5652 27.0687 29.5652 29.5644C29.5652 30.0444 29.1756 30.434 28.6956 30.434C28.2156 30.434 27.8261 30.0444 27.8261 29.5644C27.8261 27.5227 27.0435 25.5905 25.6226 24.1227C24.1687 22.6219 22.2174 21.7749 20.127 21.7401C18.0783 21.7401 16.0591 22.4897 14.5565 23.9437C11.4556 26.9437 11.3739 31.9072 14.3756 35.008C15.8295 36.5106 17.7809 37.3576 19.8713 37.3906C21.9687 37.4637 23.9374 36.6428 25.4417 35.1889C25.7861 34.8567 26.3374 34.8637 26.6713 35.2097C27.0052 35.5558 26.9965 36.1054 26.6504 36.4393C24.8538 38.1783 22.5009 39.1314 20.0052 39.1314Z" fill="#2E2E2E"/>
<path d="M20.0002 33.9122C17.6037 33.9122 15.6523 31.9608 15.6523 29.5644C15.6523 27.1679 17.6037 25.2166 20.0002 25.2166C22.3966 25.2166 24.348 27.1661 24.348 29.5644C24.348 31.9626 22.3967 33.9122 20.0002 33.9122ZM20.0002 26.9557C18.5619 26.9557 17.3915 28.1262 17.3915 29.5644C17.3915 31.0026 18.562 32.173 20.0002 32.173C21.4384 32.173 22.6088 31.0026 22.6088 29.5644C22.6089 28.1261 21.4384 26.9557 20.0002 26.9557Z" fill="#2E2E2E"/>
<path d="M26.0872 33.9122C23.9097 33.9122 22.6089 32.2861 22.6089 29.5644C22.6089 29.0844 22.9984 28.6948 23.4784 28.6948C23.9584 28.6948 24.3479 29.0826 24.3479 29.5644C24.3479 31.2948 24.934 32.173 26.0871 32.173C27.3879 32.173 27.8262 31.5139 27.8262 29.5644C27.8262 29.0844 28.2158 28.6948 28.6958 28.6948C29.1758 28.6948 29.5653 29.0826 29.5653 29.5644C29.5655 30.6391 29.5654 33.9122 26.0872 33.9122Z" fill="#2E2E2E"/>
</g>
<defs>
<clipPath id="clip0_319_2582">
<rect width="40" height="40" fill="white"/>
</clipPath>
</defs>
</svg>
