<svg width="45" height="30" viewBox="0 0 45 30" fill="none" xmlns="http://www.w3.org/2000/svg">
<path d="M34.5642 17.3702C33.6799 17.3826 32.6362 17.5807 31.8442 18.1363C31.5998 18.3059 31.6426 18.5413 31.9145 18.5101C32.805 18.403 34.7872 18.1627 35.1415 18.6155C35.4967 19.0684 34.7486 20.9366 34.418 21.7722C34.3157 22.0213 34.532 22.1245 34.7603 21.935C36.242 20.694 36.627 18.0923 36.3238 17.7181C36.1718 17.531 35.4484 17.3579 34.5642 17.3702ZM8.20438 18.3176C7.99779 18.346 7.90882 18.6079 8.12482 18.8154C11.8357 22.296 16.7391 24 22.1836 24C26.0669 24 30.575 22.7329 33.6871 20.3456C34.2015 19.9486 33.7633 19.3538 33.2356 19.5888C29.7465 21.1283 25.9568 21.8702 22.5074 21.8702C17.3954 21.8702 12.4467 20.803 8.44307 18.3787C8.35544 18.3256 8.27324 18.3081 8.20438 18.3176Z" fill="#FF9900"/>
<path d="M15.4563 8L15.2583 8.03331C14.6387 8.11099 14.0413 8.34277 13.5449 8.71793C13.434 8.78424 13.3347 8.87312 13.2248 8.96217C13.2134 8.94038 13.2026 8.91735 13.2026 8.89556C13.1798 8.77335 13.1688 8.64215 13.147 8.51994C13.1139 8.321 13.0037 8.22019 12.8047 8.22019H12.2848C11.9646 8.22019 11.9092 8.28787 11.9092 8.59766V18.1898C11.9205 18.3338 12.0081 18.4097 12.1294 18.4211H13.0915C13.2242 18.4211 13.3013 18.3338 13.3117 18.1898C13.3231 18.1452 13.3228 18.1011 13.3228 18.0565V14.7241C13.3674 14.7686 13.401 14.7911 13.4227 14.8129C14.2299 15.4874 15.1586 15.7076 16.176 15.5086C17.1045 15.3211 17.7448 14.7574 18.154 13.9285C18.4743 13.2985 18.6053 12.6579 18.6166 11.9616C18.6384 11.1989 18.5723 10.4648 18.2521 9.74671C17.876 8.86282 17.2357 8.27666 16.2741 8.07771C16.1301 8.04456 15.9759 8.03289 15.8319 8.0111C15.6992 7.99973 15.5775 8 15.4563 8ZM22.8187 8C22.7742 8.01137 22.7319 8.0222 22.6873 8.0222C22.2449 8.04399 21.813 8.09919 21.3829 8.20909C21.1062 8.2754 20.8414 8.37448 20.5761 8.46258C20.4103 8.51753 20.3319 8.63979 20.3319 8.816C20.3432 8.96 20.3319 9.11422 20.3319 9.25822C20.3432 9.47896 20.4324 9.53616 20.6427 9.48026C20.9961 9.39216 21.3496 9.29308 21.703 9.22677C22.2553 9.1273 22.8194 9.08247 23.3831 9.16016C23.6815 9.2151 23.9578 9.29298 24.1454 9.54688C24.3112 9.75719 24.3783 10.0217 24.3897 10.287C24.401 10.6631 24.4008 10.961 24.4008 11.3361C24.4008 11.3579 24.401 11.3794 24.3897 11.3898H24.3341C23.8586 11.2685 23.3732 11.2028 22.8872 11.1696C22.3784 11.1478 21.8707 11.1701 21.3847 11.3472C20.7992 11.5462 20.3226 11.899 20.0469 12.4741C19.8366 12.9165 19.803 13.3817 19.8693 13.8563C19.9688 14.4977 20.2789 14.9833 20.8426 15.2921C21.3845 15.5906 21.9591 15.6226 22.556 15.5345C23.2409 15.4351 23.848 15.148 24.3785 14.7056C24.4003 14.6838 24.4234 14.6737 24.4452 14.6519C24.4783 14.8291 24.5008 14.9953 24.534 15.1497C24.5558 15.2937 24.6456 15.3807 24.7782 15.3921H25.5184C25.6292 15.3921 25.7293 15.2931 25.7293 15.1719C25.7407 15.1387 25.7404 15.0933 25.7404 15.0498V10.3333C25.7376 10.1447 25.7254 9.94539 25.6923 9.75781C25.6042 9.17234 25.3606 8.68541 24.83 8.37562C24.5316 8.19846 24.2009 8.11046 23.8475 8.05551C23.6817 8.03277 23.5267 8.02179 23.3609 8H22.8187ZM26.6508 8.00185C26.5399 8.00185 26.4846 8.1001 26.5064 8.21094C26.5282 8.29999 26.5621 8.40038 26.5952 8.48849C27.4791 10.6769 28.3737 12.8639 29.269 15.0627C29.3467 15.2503 29.3571 15.4062 29.269 15.5938C29.1259 15.9244 29.0034 16.2669 28.8489 16.5985C28.7163 16.8969 28.4959 17.1191 28.1643 17.2072C27.9436 17.2631 27.7007 17.2848 27.4686 17.2516C27.3578 17.2403 27.2464 17.2186 27.1355 17.2072C26.9802 17.1959 26.9045 17.2616 26.8931 17.4274V17.8715C26.9045 18.1263 26.9816 18.2359 27.2355 18.2804C27.4789 18.324 27.7325 18.356 27.9978 18.3674C28.7708 18.3778 29.3799 18.0705 29.7778 17.396C29.9436 17.1307 30.0766 16.8541 30.1978 16.567C31.2693 13.8594 32.3305 11.163 33.3915 8.44408C33.4247 8.3664 33.4449 8.28794 33.4563 8.19984C33.4781 8.0672 33.4119 8.00181 33.2916 8.0037H32.3979C32.2435 7.99233 32.0994 8.09099 32.0445 8.23499C32.0227 8.30131 31.9996 8.35556 31.9779 8.42188L30.3977 12.9422C30.2868 13.2624 30.1644 13.5936 30.0535 13.947C30.0308 13.8911 30.0205 13.8691 30.0091 13.8359C29.4236 12.2226 28.8497 10.6107 28.2642 8.99733C28.1761 8.73206 28.0769 8.47593 27.9774 8.22204C27.9339 8.09983 27.8328 8.01295 27.6888 8.01295C27.3458 8.00158 27.0041 8.00185 26.6508 8.00185ZM15.4452 9.14905C16.1197 9.204 16.6717 9.53589 16.9587 10.3203C17.1359 10.8063 17.1808 11.2752 17.1808 11.7839C17.1808 12.2595 17.148 12.68 17.005 13.1328C16.6952 14.0944 15.9873 14.4698 15.0806 14.4262C14.4393 14.393 13.8982 14.1486 13.3894 13.7952C13.3345 13.7621 13.3013 13.7087 13.3117 13.6528V9.90029C13.3013 9.83397 13.3345 9.77987 13.3894 9.74671C14.0081 9.31566 14.6929 9.09411 15.4452 9.14905ZM22.6152 12.1336C22.8044 12.1171 22.9952 12.1206 23.1832 12.1429C23.5593 12.176 23.9358 12.2415 24.3119 12.2965C24.3896 12.3078 24.41 12.3412 24.41 12.4075C24.3986 12.6292 24.41 12.839 24.41 13.0607C24.41 13.2814 24.3989 13.481 24.3989 13.7027C24.4103 13.7577 24.3768 13.8009 24.3323 13.8341C23.8236 14.1988 23.2711 14.4431 22.6411 14.5095C22.3872 14.5312 22.1324 14.5312 21.8899 14.4317C21.6132 14.3323 21.405 14.0996 21.3274 13.823C21.2393 13.5359 21.2395 13.2376 21.3163 12.9496C21.4375 12.5735 21.7021 12.365 22.0564 12.2428C22.2388 12.1874 22.4259 12.1502 22.6152 12.1336Z" fill="black"/>
</svg>
