<svg width="94" height="50" viewBox="0 0 94 50" fill="none" xmlns="http://www.w3.org/2000/svg">
<g clip-path="url(#clip0_1_891)">
<g clip-path="url(#clip1_1_891)">
<path d="M0.644531 24.9986C0.644531 29.2772 3.29694 32.9248 7.03074 34.3572V15.6414C3.29626 17.0738 0.644531 20.7207 0.644531 24.9986ZM10.5335 15C10.2597 15 9.98867 15.0097 9.72039 15.0297V15.7331H9.77074C13.5397 15.7607 16.5742 18.6669 16.5473 22.2248C16.5225 25.7662 13.4687 28.6179 9.72177 28.6145V34.9683C9.98867 34.991 10.2604 35 10.5342 35C15.9935 35 20.4238 30.5221 20.4238 24.9986C20.4238 19.4759 15.9935 15 10.5342 15H10.5335ZM29.519 27.3324H26.3328L25.7742 28.9993H24.37L27.0997 20.9993H28.7825L31.49 28.9993H30.0749L29.519 27.3324ZM29.1169 26.1262L27.9245 22.5779L26.7314 26.1262H29.1169ZM35.679 23.1634H37.039V29H35.6797V28.3241H35.6349C35.2673 28.831 34.7659 29.1469 33.9969 29.1469C32.8273 29.1469 32.0694 28.291 32.0694 26.9841V23.1641H33.4294V26.8372C33.4294 27.491 33.7411 27.9641 34.488 27.9641C35.2673 27.9641 35.6804 27.4124 35.6804 26.7469V23.1641H35.679V23.1634ZM39.3245 27.3097C39.4142 27.8269 39.759 28.1434 40.4831 28.1434C41.1521 28.1434 41.5314 27.8607 41.5314 27.3779C41.5314 26.9834 41.3866 26.7462 40.7625 26.6676L39.7259 26.5434C38.5452 26.4083 38.0549 25.8441 38.0549 24.9324C38.0549 23.8172 38.9907 23.0179 40.439 23.0179C41.9542 23.0179 42.69 23.9076 42.7576 24.7862H41.4197C41.3528 24.3138 41.019 24.0207 40.4176 24.0207C39.7935 24.0207 39.3921 24.3138 39.3921 24.7648C39.3921 25.1366 39.5921 25.351 40.2611 25.4297L41.2866 25.5538C42.4231 25.6883 42.8694 26.2186 42.8694 27.1876C42.8694 28.3931 41.8328 29.1469 40.4735 29.1469C38.9025 29.1469 38.0666 28.3703 37.9562 27.3103L39.3245 27.3097ZM44.3494 24.1772H43.2466V23.1634H44.3618V21H45.7094V23.1628H47.0356V24.1766H45.7094V27.1731C45.7094 27.7034 45.9762 27.9179 46.49 27.9179H47.0466V28.9993H46.2556C44.9735 28.9993 44.3494 28.4131 44.3494 27.2641V24.1772ZM49.5528 28.9993H48.1928V23.1634H49.5528V24.0428H49.5976C49.8763 23.4007 50.3438 23.1634 50.8342 23.1634H51.4921V24.3807H50.8907C49.988 24.3807 49.5535 24.8193 49.5535 25.891L49.5528 28.9993ZM53.6749 29.1462C52.5721 29.1462 51.8259 28.4924 51.8259 27.4C51.8259 26.2517 52.6949 25.8117 53.6425 25.6876L54.868 25.529C55.3356 25.4848 55.4473 25.2703 55.4473 24.9324C55.4473 24.4359 55.1238 24.0538 54.4445 24.0538C53.7535 24.0538 53.3866 24.4366 53.33 24.9779H51.9487C51.9818 23.9855 52.8066 23.0179 54.4107 23.0179C55.9259 23.0179 56.8176 23.9186 56.8176 25.2483V27.9972C56.8176 28.3586 56.8735 28.7186 56.9404 29H55.5362C55.4991 28.7502 55.4806 28.498 55.4811 28.2455H55.4473C55.1466 28.751 54.5107 29.1462 53.6749 29.1462ZM54.7231 26.3186L54.1211 26.4531C53.5528 26.5772 53.1969 26.8145 53.1969 27.3428C53.1969 27.8738 53.508 28.1428 54.11 28.1428C54.8128 28.1428 55.4583 27.6814 55.4583 26.9152V26.0021C55.2914 26.1717 55.0245 26.2503 54.7231 26.3186ZM58.01 27.4221V20.5945H59.3694V27.3324C59.3694 27.6931 59.5259 27.9186 59.9266 27.9186H60.3728V28.9993H59.6597C58.6004 28.9993 58.01 28.3917 58.01 27.4221ZM62.8011 21.3379C62.8011 21.8103 62.4328 22.1717 61.9652 22.1717C61.8551 22.1734 61.7458 22.153 61.6437 22.1116C61.5416 22.0703 61.4489 22.0089 61.3709 21.9311C61.293 21.8533 61.2315 21.7607 61.19 21.6587C61.1485 21.5567 61.1279 21.4474 61.1294 21.3372C61.1294 20.8648 61.4976 20.5034 61.9652 20.5034C62.4328 20.5034 62.8011 20.8648 62.8011 21.3379ZM62.6445 23.1634V29H61.2845V23.1641H62.6445V23.1634ZM65.4425 29.1462C64.3397 29.1462 63.5928 28.4924 63.5928 27.4C63.5928 26.2517 64.4618 25.8117 65.41 25.6876L66.6349 25.529C67.1031 25.4848 67.2142 25.2703 67.2142 24.9324C67.2142 24.4359 66.8914 24.0538 66.2121 24.0538C65.5204 24.0538 65.1535 24.4366 65.0976 24.9779H63.7156C63.7494 23.9855 64.5742 23.0179 66.1776 23.0179C67.6935 23.0179 68.5852 23.9186 68.5852 25.2483V27.9972C68.5852 28.3586 68.6404 28.7186 68.708 29H67.3038C67.2667 28.7502 67.2482 28.498 67.2487 28.2455H67.2142C66.9128 28.751 66.2783 29.1462 65.4425 29.1462ZM66.49 26.3186L65.8887 26.4531C65.3197 26.5772 64.9638 26.8145 64.9638 27.3428C64.9638 27.8738 65.2762 28.1428 65.8776 28.1428C66.5797 28.1428 67.2259 27.6814 67.2259 26.9152V26.0021C67.0583 26.1717 66.79 26.2503 66.49 26.3186ZM75.4031 21C77.108 21 78.1887 21.9793 78.1887 23.5903C78.1887 25.2359 77.0969 26.2041 75.4031 26.2041H73.408V29H71.9714V21H75.4031ZM76.7293 23.5917C76.7293 22.6 76.128 22.1834 75.1362 22.1834H73.4093V25.0228H75.1362C76.128 25.0228 76.7293 24.6276 76.7293 23.5917ZM81.2535 23.0276C82.9252 23.0276 84.0397 24.2338 84.0397 26.0924C84.0397 27.951 82.9252 29.1455 81.2535 29.1455C79.5825 29.1455 78.468 27.951 78.468 26.0924C78.468 24.2338 79.5825 23.0276 81.2535 23.0276ZM82.6569 25.8566C82.6569 24.7634 82.1218 24.1214 81.2528 24.1214C80.3831 24.1214 79.8487 24.7634 79.8487 25.8566V26.3297C79.8487 27.4221 80.3831 28.0538 81.2528 28.0538C82.1218 28.0538 82.6569 27.4221 82.6569 26.3297V25.8566ZM86.0114 27.3097C86.1004 27.8269 86.4452 28.1434 87.17 28.1434C87.839 28.1434 88.2176 27.8607 88.2176 27.3779C88.2176 26.9834 88.0728 26.7462 87.4493 26.6676L86.4128 26.5434C85.2321 26.4083 84.7411 25.8441 84.7411 24.9324C84.7411 23.8172 85.6769 23.0179 87.1259 23.0179C88.6411 23.0179 89.3762 23.9076 89.4438 24.7862H88.1066C88.0397 24.3138 87.7052 24.0207 87.1038 24.0207C86.4797 24.0207 86.0783 24.3138 86.0783 24.7648C86.0783 25.1366 86.279 25.351 86.948 25.4297L87.9735 25.5538C89.1093 25.6883 89.5556 26.2186 89.5556 27.1876C89.5556 28.3931 88.519 29.1469 87.1604 29.1469C85.5887 29.1469 84.7528 28.3703 84.6424 27.3103L86.0114 27.3097ZM91.0362 24.1772H89.9335V23.1634H91.048V21H92.3956V23.1628H93.7218V24.1766H92.3956V27.1731C92.3956 27.7034 92.6631 27.9179 93.1762 27.9179H93.7328V28.9993H92.9418C91.6604 28.9993 91.0362 28.4131 91.0362 27.2641V24.1772Z" fill="#DC1928"/>
</g>
</g>
<defs>
<clipPath id="clip0_1_891">
<rect width="93.1034" height="50" fill="white" transform="translate(0.644531)"/>
</clipPath>
<clipPath id="clip1_1_891">
<rect width="93.1034" height="20" fill="white" transform="translate(0.644531 15)"/>
</clipPath>
</defs>
</svg>
