<svg width="46" height="30" viewBox="0 0 46 30" fill="none" xmlns="http://www.w3.org/2000/svg">
<path fill-rule="evenodd" clip-rule="evenodd" d="M33.7998 15C33.7998 20.5265 29.3219 25 23.7976 25C18.2755 25 13.7998 20.5265 13.7998 15C13.7998 9.47351 18.2755 5 23.7976 5C29.3219 5 33.7998 9.47351 33.7998 15ZM27.0665 11.419C27.4599 11.6762 27.7457 11.9883 27.915 12.3577C28.0843 12.7292 28.1304 13.1161 28.0513 13.4898C28.0007 13.7734 27.8864 14.035 27.7171 14.268C27.5501 14.5032 27.3324 14.6966 27.0643 14.8505C26.7983 15.0066 26.4663 15.1099 26.0662 15.1693C26.4487 15.3451 26.7389 15.5166 26.928 15.6793C27.2049 15.9123 27.405 16.2003 27.5303 16.5476C27.6534 16.8861 27.6798 17.251 27.6072 17.6379C27.5237 18.0974 27.3061 18.4931 26.9587 18.8228C26.6092 19.1592 26.1652 19.3812 25.6222 19.4889C25.4221 19.5219 25.1957 19.5439 24.9429 19.5483L24.6527 21.0849L23.1931 20.8145L23.4569 19.3944C23.4195 19.3856 23.3865 19.3834 23.3492 19.3746L22.5182 19.2207L22.2544 20.6408L20.7925 20.366L21.0563 18.9459L18.8273 18.5326L19.0493 17.3434L19.3922 17.4005C19.6187 17.4489 19.7747 17.4577 19.8627 17.4335C19.9506 17.4093 20.0166 17.361 20.0649 17.2972C20.1133 17.2335 20.1572 17.073 20.2034 16.8224L21.1047 12.0125C21.1531 11.7531 21.1663 11.5883 21.1465 11.5113C21.1267 11.4344 21.0827 11.3662 21.008 11.3135C20.9376 11.2563 20.7882 11.2058 20.5595 11.1662L20.2188 11.1024L20.4408 9.90877L22.6721 10.3264L22.9403 8.90415L24.4021 9.17894L24.1339 10.599L25.0726 10.7749L25.3408 9.3548L26.8005 9.62959L26.5169 11.1486C26.7257 11.2299 26.917 11.3179 27.0665 11.419Z" fill="#EC9021"/>
<path d="M25.4155 12.3862C25.2177 12.2763 24.8396 12.1708 24.2856 12.0675L23.3404 11.8894L22.9447 13.9932L23.8921 14.1712C24.3867 14.2614 24.7605 14.29 25.0133 14.2504C25.2661 14.2086 25.4639 14.1185 25.6178 13.9756C25.7651 13.8371 25.864 13.6503 25.9036 13.4304C25.9475 13.2018 25.9255 13.0018 25.842 12.8171C25.7629 12.639 25.6222 12.4918 25.4155 12.3862Z" fill="#EC9021"/>
<path d="M25.3562 16.3146C25.4419 16.5168 25.4573 16.7388 25.4133 17.0004C25.3562 17.3038 25.2243 17.5412 25.0155 17.7259C24.8044 17.9039 24.5758 18.0116 24.323 18.0358C24.068 18.06 23.758 18.0358 23.3931 17.9699L22.7622 17.8468C22.5534 17.805 22.4281 17.7742 22.3819 17.7413C22.3379 17.7105 22.3138 17.6665 22.3028 17.605C22.2984 17.5588 22.316 17.3961 22.3599 17.1345L22.7095 15.266L23.8284 15.4726C24.3186 15.5672 24.6747 15.6815 24.8945 15.8134C25.1166 15.9453 25.2683 16.1167 25.3562 16.3146Z" fill="#EC9021"/>
</svg>
