<svg width="86" height="50" viewBox="0 0 86 50" fill="none" xmlns="http://www.w3.org/2000/svg">
<g clip-path="url(#clip0_1_894)">
<g clip-path="url(#clip1_1_894)">
<path d="M9.13922 14.0782L0.496656 18.8488L10.1842 24.3412C10.2307 24.3694 10.2695 24.4088 10.297 24.4557C10.3245 24.5026 10.3398 24.5557 10.3417 24.61V32.86C10.3397 32.9147 10.3239 32.968 10.2959 33.0149C10.2679 33.0619 10.2286 33.1011 10.1815 33.1289L9.66309 33.4162C9.61522 33.4407 9.56215 33.4532 9.50841 33.4527H9.49809C9.44113 33.4556 9.38436 33.444 9.33309 33.419L8.81472 33.1295C8.76833 33.1012 8.72967 33.0618 8.7022 33.0149C8.67473 32.968 8.6593 32.9151 8.65728 32.8607V25.5045C8.6537 25.4762 8.64427 25.4489 8.62959 25.4244C8.61492 25.3999 8.59532 25.3787 8.57203 25.3622L0.0270938 20.5146L0.0195312 30.1568C0.0264167 30.276 0.0610897 30.3919 0.120778 30.4953C0.180466 30.5986 0.263514 30.6866 0.363281 30.7522L9.16328 35.916C9.26799 35.9707 9.3844 35.9993 9.50256 35.9993C9.62072 35.9993 9.73713 35.9707 9.84184 35.916L18.5229 30.7446C18.6214 30.6777 18.7032 30.589 18.7618 30.4854C18.8205 30.3818 18.8545 30.266 18.8612 30.1472V20.4115L13.082 23.8861C13.0354 23.9115 12.9832 23.9247 12.9301 23.9246C12.8729 23.9258 12.8166 23.9105 12.7678 23.8806L12.2646 23.5678C12.2197 23.5369 12.1826 23.4959 12.1562 23.4482C12.1299 23.4005 12.115 23.3473 12.1127 23.2928V22.6954C12.1153 22.6412 12.131 22.5885 12.1584 22.5417C12.1858 22.4949 12.2241 22.4554 12.2701 22.4265H12.2756C12.2951 22.3992 12.3196 22.3759 12.3478 22.3578L18.2912 18.7828L9.83497 14.0824C9.72854 14.0282 9.61061 14.0007 9.49122 14.0019C9.37198 13.999 9.25388 14.0257 9.14747 14.0796" fill="url(#paint0_linear_1_894)"/>
<path d="M44.0633 28.4774H44.0558C43.8891 28.4787 43.724 28.4444 43.5717 28.3767C43.4194 28.3089 43.2833 28.2094 43.1726 28.0848C43.0619 27.9602 42.9792 27.8133 42.9299 27.6541C42.8807 27.4948 42.8661 27.3269 42.887 27.1615V18.8462H40.7764V27.2976C40.7764 29.6021 42.0668 30.3556 44.0667 30.3659L44.0633 28.4774Z" fill="#414042"/>
<path d="M31.2199 22.8302C30.5473 22.4209 29.7695 22.2179 28.9828 22.2465C28.4313 22.2198 27.8803 22.3087 27.3653 22.5077C26.8503 22.7067 26.3827 23.0113 25.9925 23.402C25.6023 23.7926 25.2982 24.2606 25.0998 24.7758C24.9014 25.291 24.8131 25.8421 24.8405 26.3935C24.806 26.9466 24.8904 27.5006 25.0879 28.0183C25.2855 28.536 25.5916 29.0054 25.9858 29.3949C26.3799 29.7844 26.8529 30.0849 27.373 30.2762C27.893 30.4675 28.448 30.5452 29.0006 30.5041C29.8036 30.5244 30.5966 30.3224 31.292 29.9204V27.9184C30.7278 28.3752 30.0243 28.6251 29.2983 28.6265C28.9915 28.6505 28.6832 28.6088 28.3939 28.5041C28.1045 28.3994 27.8409 28.2341 27.6205 28.0194C27.4002 27.8046 27.2282 27.5453 27.1161 27.2588C27.004 26.9722 26.9543 26.6651 26.9704 26.3578C26.9496 26.0587 26.9933 25.7587 27.0987 25.478C27.204 25.1973 27.3684 24.9425 27.5809 24.731C27.7933 24.5195 28.0488 24.3561 28.33 24.252C28.6111 24.1479 28.9113 24.1054 29.2103 24.1275C29.946 24.1143 30.6607 24.3728 31.2178 24.8535L31.2199 22.8302ZM35.9526 22.2465C35.1368 22.2465 34.3392 22.4885 33.6609 22.9417C32.9825 23.395 32.4538 24.0392 32.1416 24.793C31.8294 25.5467 31.7477 26.3761 31.9069 27.1763C32.066 27.9765 32.4589 28.7115 33.0358 29.2884C33.6127 29.8652 34.3477 30.2581 35.1478 30.4173C35.948 30.5764 36.7774 30.4948 37.5312 30.1825C38.2849 29.8703 38.9291 29.3416 39.3824 28.6633C39.8357 27.9849 40.0776 27.1874 40.0776 26.3715C40.1007 25.8237 40.0097 25.277 39.8105 24.7661C39.6114 24.2552 39.3084 23.7912 38.9207 23.4035C38.5329 23.0158 38.0689 22.7127 37.558 22.5136C37.0471 22.3144 36.5005 22.2235 35.9526 22.2465ZM35.9526 28.6575C34.8066 28.6575 33.9781 27.7885 33.9781 26.3729C33.9781 24.9574 34.8031 24.0884 35.9526 24.0884C37.1021 24.0884 37.9271 24.9574 37.9271 26.3729C37.9271 27.7885 37.1021 28.6575 35.9526 28.6575ZM48.5799 29.7754C49.3587 30.2139 50.2412 30.4342 51.1347 30.4133C52.9668 30.4133 54.2546 29.633 54.2546 27.9157C54.2546 26.5001 53.5671 25.7191 51.5396 25.3458C50.7992 25.1698 50.518 24.9567 50.518 24.5497C50.518 24.1791 50.8171 23.878 51.5218 23.878C52.3291 23.8919 53.1117 24.1586 53.7596 24.6404V22.745C53.0582 22.3415 52.2591 22.1395 51.4503 22.1613C49.7604 22.1613 48.4541 22.9574 48.4541 24.6947C48.4541 26.1289 49.1945 26.837 50.9731 27.158C51.8373 27.334 52.1728 27.5286 52.1728 28.0085C52.1728 28.5035 51.7314 28.696 51.0811 28.696C50.1772 28.6572 49.3056 28.3493 48.5778 27.8119V29.7726L48.5799 29.7754ZM45.1527 30.3254H47.2744V22.406H45.1527V30.3254ZM46.2136 19.2435C46.0026 19.2426 45.7961 19.3043 45.6202 19.4208C45.4443 19.5373 45.307 19.7034 45.2256 19.898C45.1442 20.0927 45.1224 20.3071 45.163 20.5141C45.2036 20.7211 45.3047 20.9114 45.4535 21.061C45.6023 21.2105 45.7922 21.3124 45.9991 21.354C46.2059 21.3955 46.4204 21.3746 46.6154 21.2941C46.8104 21.2136 46.9771 21.077 47.0944 20.9017C47.2117 20.7263 47.2743 20.5201 47.2744 20.3092C47.2747 20.1695 47.2476 20.0312 47.1945 19.9021C47.1413 19.7729 47.0633 19.6555 46.9648 19.5566C46.8662 19.4576 46.7492 19.379 46.6203 19.3253C46.4914 19.2716 46.3532 19.2438 46.2136 19.2435ZM81.604 22.2465C80.7881 22.2465 79.9906 22.4885 79.3123 22.9417C78.6339 23.395 78.1052 24.0392 77.793 24.793C77.4808 25.5467 77.3991 26.3761 77.5583 27.1763C77.7174 27.9765 78.1103 28.7115 78.6872 29.2884C79.2641 29.8652 79.999 30.2581 80.7992 30.4173C81.5994 30.5764 82.4288 30.4948 83.1826 30.1825C83.9363 29.8703 84.5806 29.3416 85.0338 28.6633C85.4871 27.9849 85.729 27.1874 85.729 26.3715C85.7518 25.8237 85.6607 25.2772 85.4615 24.7664C85.2623 24.2556 84.9593 23.7917 84.5716 23.404C84.1839 23.0163 83.72 22.7132 83.2092 22.514C82.6984 22.3148 82.1518 22.2237 81.604 22.2465ZM81.604 28.6575C80.4579 28.6575 79.6302 27.7885 79.6302 26.3729C79.6302 24.9574 80.4551 24.0884 81.604 24.0884C82.7528 24.0884 83.5785 24.9574 83.5785 26.3729C83.5785 27.7885 82.75 28.6575 81.604 28.6575ZM54.9668 29.7754C55.7455 30.2139 56.6281 30.4343 57.5216 30.4133C59.3565 30.4133 60.6414 29.633 60.6414 27.9157C60.6414 26.5001 59.9539 25.7191 57.9265 25.3458C57.1861 25.1698 56.9049 24.9567 56.9049 24.5497C56.9049 24.1791 57.2039 23.878 57.9114 23.878C58.7185 23.892 59.5008 24.1587 60.1485 24.6404V22.745C59.4471 22.3415 58.648 22.1395 57.8392 22.1613C56.1486 22.1613 54.8431 22.9574 54.8431 24.6947C54.8431 26.1289 55.5842 26.837 57.3621 27.158C58.2269 27.334 58.5617 27.5286 58.5617 28.0085C58.5617 28.5035 58.1204 28.696 57.47 28.696C56.5661 28.6574 55.6944 28.3495 54.9668 27.8119V29.7754ZM61.5496 30.3254H63.6705V22.406H61.5531L61.5496 30.3254ZM62.6104 19.2435C62.3995 19.2426 62.193 19.3043 62.0171 19.4208C61.8412 19.5373 61.7039 19.7034 61.6225 19.898C61.5411 20.0927 61.5193 20.3071 61.5599 20.5141C61.6004 20.7211 61.7016 20.9114 61.8504 21.061C61.9992 21.2105 62.1891 21.3124 62.396 21.354C62.6028 21.3955 62.8173 21.3746 63.0123 21.2941C63.2073 21.2136 63.374 21.077 63.4913 20.9017C63.6086 20.7263 63.6713 20.5201 63.6713 20.3092C63.6718 20.0272 63.5604 19.7566 63.3615 19.5568C63.1625 19.3569 62.8924 19.2443 62.6104 19.2435ZM74.4993 25.3843C74.4993 24.5517 74.1309 24.1269 73.3018 24.1269C72.7929 24.1199 72.2885 24.2226 71.8229 24.428C71.9278 24.6865 71.9813 24.963 71.9804 25.242V30.3219H69.8491V25.3843C69.8491 24.5517 69.462 24.1269 68.6515 24.1269C68.2037 24.124 67.7581 24.1896 67.3301 24.3214V30.3226H65.2167V22.9416C66.3464 22.5026 67.5456 22.2698 68.7574 22.2541C69.5286 22.2143 70.2911 22.432 70.925 22.8729C71.7535 22.4674 72.6633 22.2558 73.5857 22.2541C75.4543 22.2541 76.6333 22.9801 76.6333 25.2984V30.324H74.5021V25.3864L74.4993 25.3843Z" fill="#414042"/>
</g>
</g>
<defs>
<linearGradient id="paint0_linear_1_894" x1="0.0948976" y1="30.6539" x2="19.5953" y2="21.7538" gradientUnits="userSpaceOnUse">
<stop stop-color="#F37021"/>
<stop offset="0.168" stop-color="#F47421"/>
<stop offset="0.387" stop-color="#F58022"/>
<stop offset="0.636" stop-color="#F79323"/>
<stop offset="0.903" stop-color="#FBAD26"/>
<stop offset="1" stop-color="#FDB927"/>
</linearGradient>
<clipPath id="clip0_1_894">
<rect width="85.7079" height="50" fill="white" transform="translate(0.0195312)"/>
</clipPath>
<clipPath id="clip1_1_894">
<rect width="85.7079" height="22" fill="white" transform="translate(0.0195312 14)"/>
</clipPath>
</defs>
</svg>
