<svg width="46" height="50" viewBox="0 0 46 50" fill="none" xmlns="http://www.w3.org/2000/svg">
<g clip-path="url(#clip0_1_899)">
<path fill-rule="evenodd" clip-rule="evenodd" d="M28.8694 22.6516H22.9998H17.1303V21.6603V20.669H22.9998H28.8694V21.6603V22.6516ZM24.9564 32.0676C24.9564 30.972 24.0798 30.0837 22.9998 30.0837C21.9185 30.0837 21.0433 30.972 21.0433 32.0676C21.0433 33.162 21.9185 34.0503 22.9998 34.0503C24.0798 34.0503 24.9564 33.162 24.9564 32.0676ZM22.9998 38.0168C29.8998 38.0168 35.622 32.8463 36.5585 26.1185H34.5772C33.6498 31.7468 28.8172 36.0329 22.9998 36.0329C20.8385 36.0329 19.0894 34.2577 19.0894 32.0676C19.0894 29.8776 20.8385 28.1037 22.9998 28.1037C25.1611 28.1037 26.9129 29.8255 26.9129 32.0676C26.9129 32.5046 26.8255 32.9181 26.6964 33.312C27.4777 32.9885 28.2029 32.5607 28.8694 32.0546C28.8694 28.782 26.2398 26.1198 22.9998 26.1198C19.7585 26.1198 17.1303 28.782 17.1303 32.0676C17.1303 35.352 19.7585 38.0168 22.9998 38.0168ZM9.45939 26.1185C10.0803 30.5024 12.7059 34.2237 16.3803 36.2846C15.6198 35.0624 15.1737 33.6198 15.1737 32.0676V26.1185H9.45939ZM32.7824 24.1359H38.652C38.652 32.8972 31.6437 39.9994 22.9998 39.9994C14.3559 39.9994 7.34766 32.8972 7.34766 24.1359H17.1303V26.8346C18.5637 25.1833 20.6585 24.1359 22.9998 24.1359C26.7329 24.1359 29.8503 26.7863 30.6316 30.3316C31.9764 28.6346 32.7824 26.4811 32.7824 24.1359ZM27.8911 13.229C30.0511 13.229 31.8042 15.0042 31.8042 17.1942V19.1781H29.8477V17.1942C29.8477 16.0998 28.9711 15.2116 27.8911 15.2116C27.7164 15.2116 27.5494 15.2429 27.3877 15.2859C27.6981 15.8546 27.8911 16.499 27.8911 17.1942V19.1781H25.9346V17.1942C25.9346 16.0998 25.0581 15.2116 23.9781 15.2116V19.1781H22.0216V15.2116C20.9403 15.2116 20.065 16.0998 20.065 17.1942V19.1781H18.1085V17.1942C18.1085 16.499 18.3003 15.8546 18.612 15.2872C18.4503 15.2429 18.2833 15.2116 18.1085 15.2116C17.0272 15.2116 16.152 16.0998 16.152 17.1942V19.1781H14.1955V17.1942C14.1955 15.0042 15.9472 13.229 18.1085 13.229C18.8272 13.229 19.4977 13.4298 20.0755 13.7729C20.6507 13.4363 21.3094 13.229 22.0216 13.229C22.3542 13.229 22.6711 13.285 22.979 13.3633C23.2985 13.2785 23.6324 13.229 23.9781 13.229C24.6942 13.229 25.3555 13.4377 25.9333 13.7781C26.5111 13.4377 27.175 13.229 27.8911 13.229ZM23.4264 10.9346H24.3485V11.7994H23.4264V12.7333H22.5733V11.7994H21.6511V10.9346H22.5733V9.99939H23.4264V10.9346Z" fill="#002453"/>
</g>
<defs>
<clipPath id="clip0_1_899">
<rect width="31.3043" height="30" fill="white" transform="translate(7.34766 10)"/>
</clipPath>
</defs>
</svg>
