<svg width="36" height="50" viewBox="0 0 36 50" fill="none" xmlns="http://www.w3.org/2000/svg">
<g clip-path="url(#clip0_1_873)">
<g clip-path="url(#clip1_1_873)">
<path d="M35.8271 7.5H0.827148V42.5H35.8271V7.5Z" fill="#FFCC00"/>
<path d="M15.0165 30.328H18.066L14.9862 33.4375H11.9364L15.0165 30.328ZM7.82243 33.4375H10.8729L13.9517 30.328H10.9026L7.82243 33.4375ZM21.824 30.328H18.7738L21.854 33.4375H24.9038L21.824 30.328ZM25.9379 30.328H22.8877L25.9676 33.4375H29.0171L25.9379 30.328ZM30.4506 17.8871C30.0177 24.2226 25.2549 29.7714 18.1882 29.7687C10.1944 29.7663 7.104 22.8329 7.52015 17.5793L9.86798 16.8342C9.48628 19.824 10.4141 21.9804 11.0537 22.9686C10.292 18.739 13.4926 15.3152 17.4985 15.3125C21.1019 15.3101 24.0822 17.9352 24.0678 21.7012C24.5966 20.2637 24.9646 18.0753 25.0403 16.5434L30.4506 17.8871ZM21.8397 21.8341C21.8397 19.4483 19.9016 17.5146 17.5091 17.5146C15.1183 17.5146 13.1798 19.4483 13.1798 21.8341C13.1798 24.2199 15.1183 26.1537 17.5091 26.1537C19.9016 26.1537 21.8397 24.2199 21.8397 21.8341Z" fill="black"/>
</g>
</g>
<defs>
<clipPath id="clip0_1_873">
<rect width="35" height="50" fill="white" transform="translate(0.827148)"/>
</clipPath>
<clipPath id="clip1_1_873">
<rect width="35" height="35" fill="white" transform="translate(0.827148 7.5)"/>
</clipPath>
</defs>
</svg>
