<svg width="80" height="50" viewBox="0 0 80 50" fill="none" xmlns="http://www.w3.org/2000/svg">
<g clip-path="url(#clip0_1_844)">
<g clip-path="url(#clip1_1_844)">
<path d="M0.745117 29.675H10.3151L9.76512 30.445H0.745117V29.675Z" fill="#D40511"/>
<path d="M79.6701 30.445H67.9551L68.5601 29.675H79.7251V30.445H79.6701Z" fill="#D40511"/>
<path d="M0.745117 28.245H11.4151L10.8101 29.015H0.745117L0.745117 28.245Z" fill="#D40511"/>
<path d="M0.745117 26.815H12.5151L11.9101 27.585H0.745117L0.745117 26.815Z" fill="#D40511"/>
<path d="M79.6697 29.015H69.0547L69.6597 28.245H79.7247V29.015H79.6697Z" fill="#D40511"/>
<path d="M70.7056 26.815H79.6706V27.585H70.1006L70.7056 26.815Z" fill="#D40511"/>
<path d="M11.085 30.445L16.145 23.68H22.415C23.13 23.68 23.13 23.955 22.745 24.395C22.415 24.835 21.81 25.66 21.48 26.1C21.315 26.375 20.985 26.76 22.03 26.76H30.445C29.785 27.75 27.475 30.5 23.405 30.5C20.105 30.445 11.085 30.445 11.085 30.445Z" fill="#D40511"/>
<path d="M40.0702 26.815L37.3202 30.5H30.1152L32.8652 26.815H40.0702Z" fill="#D40511"/>
<path d="M50.5754 26.815L47.8254 30.5H40.5654L43.3154 26.815H50.5754Z" fill="#D40511"/>
<path d="M52.9403 26.815C52.9403 26.815 52.3903 27.53 52.1703 27.86C51.2353 29.07 52.0603 30.5 55.0303 30.5H66.6903L69.4403 26.815H52.9403Z" fill="#D40511"/>
<path d="M14.6599 19.5L12.1299 22.855H25.8799C26.5949 22.855 26.5949 23.13 26.2099 23.57C25.8799 24.01 25.2749 24.835 24.9449 25.275C24.7799 25.495 24.4499 25.935 25.4949 25.935H31.1049C31.1049 25.935 32.0399 24.725 32.7549 23.68C33.7999 22.305 32.8649 19.445 29.1799 19.445C25.8799 19.5 14.6599 19.5 14.6599 19.5Z" fill="#D40511"/>
<path d="M51.1797 25.935H33.4697L38.3097 19.5H45.5697L42.8197 23.185H46.0647L48.8147 19.5H56.0747L51.1797 25.935Z" fill="#D40511"/>
<path d="M66.0849 19.5L61.2449 25.935H53.5449L58.3849 19.5H66.0849Z" fill="#D40511"/>
</g>
</g>
<defs>
<clipPath id="clip0_1_844">
<rect width="78.925" height="50" fill="white" transform="translate(0.745117)"/>
</clipPath>
<clipPath id="clip1_1_844">
<rect width="78.925" height="11" fill="white" transform="translate(0.745117 19.5)"/>
</clipPath>
</defs>
</svg>
