<svg width="46" height="30" viewBox="0 0 46 30" fill="none" xmlns="http://www.w3.org/2000/svg">
<path fill-rule="evenodd" clip-rule="evenodd" d="M13.7559 15.6466C13.7559 11.1141 17.4301 7.43994 21.9623 7.43994C26.4948 7.43994 30.1691 11.1141 30.1691 15.6466C30.1691 20.179 26.4948 23.8535 21.9623 23.8535C17.4301 23.8535 13.7559 20.179 13.7559 15.6466Z" fill="#FFFFFE"/>
<path fill-rule="evenodd" clip-rule="evenodd" d="M26.926 15.4852C26.9227 13.3837 25.6091 11.5913 23.758 10.8815V20.0887C25.6091 19.378 26.9227 17.5872 26.926 15.4852ZM20.2268 20.0869V10.8824C18.3774 11.5945 17.0658 13.3843 17.0609 15.4852C17.0658 17.5858 18.3774 19.3754 20.2268 20.0869ZM21.9933 7.70304C17.6954 7.70469 14.2134 11.1874 14.2127 15.4852C14.2134 19.7826 17.6954 23.2648 21.9933 23.2655C26.2911 23.2648 29.774 19.7826 29.775 15.4852C29.774 11.1874 26.2911 7.70469 21.9933 7.70304ZM21.9743 23.9999C17.2713 24.0224 13.4004 20.2121 13.4004 15.5741C13.4004 10.5051 17.2713 6.99908 21.9743 7H24.1782C28.8257 6.99908 33.0672 10.5035 33.0672 15.5741C33.0672 20.2105 28.8257 23.9999 24.1782 23.9999H21.9743Z" fill="#0069AA"/>
</svg>
