<svg width="46" height="30" viewBox="0 0 46 30" fill="none" xmlns="http://www.w3.org/2000/svg">
<path fill-rule="evenodd" clip-rule="evenodd" d="M16.5054 14.9841C16.5054 16.6415 17.8068 17.9266 19.4817 17.9266C19.9551 17.9266 20.3607 17.8336 20.8606 17.5981V16.3034C20.4211 16.7435 20.0315 16.921 19.5329 16.921C18.4251 16.921 17.6388 16.1178 17.6388 14.9758C17.6388 13.8933 18.4499 13.0393 19.4817 13.0393C20.0062 13.0393 20.4034 13.2265 20.8606 13.6737V12.3797C20.3779 12.1349 19.981 12.0333 19.5076 12.0333C17.8412 12.0333 16.5054 13.3445 16.5054 14.9841ZM13.6828 13.6147C13.6828 13.9194 13.8765 14.0804 14.5366 14.3246C15.7877 14.7823 16.1584 15.1877 16.1584 16.0837C16.1584 17.1752 15.3566 17.9353 14.2137 17.9353C13.3767 17.9353 12.768 17.6057 12.2613 16.8617L12.9719 16.1775C13.2251 16.6671 13.6477 16.9296 14.1723 16.9296C14.6631 16.9296 15.0263 16.5911 15.0263 16.1343C15.0263 15.8975 14.9163 15.6942 14.6965 15.5507C14.586 15.4827 14.3668 15.3816 13.9361 15.2295C12.9031 14.8579 12.5489 14.4601 12.5489 13.6833C12.5489 12.7605 13.3098 12.0677 14.3076 12.0677C14.9259 12.0677 15.4916 12.279 15.9645 12.6927L15.389 13.4462C15.1025 13.1251 14.8315 12.9896 14.5022 12.9896C14.0281 12.9896 13.6828 13.2596 13.6828 13.6147ZM10.7472 17.7997H11.8471V12.1609H10.7472V17.7997ZM8.49898 16.3967C8.15347 16.7089 7.70448 16.8451 6.99385 16.8451H6.69866V13.1161H6.99385C7.70448 13.1161 8.13582 13.2434 8.49898 13.5723C8.87935 13.9108 9.10809 14.4359 9.10809 14.9759C9.10809 15.5173 8.87935 16.0582 8.49898 16.3967ZM7.2141 12.1609H5.59961V17.7995H7.2056C8.05957 17.7995 8.67609 17.5982 9.21745 17.1485C9.86076 16.6164 10.2411 15.814 10.2411 14.9842C10.2411 13.32 8.99786 12.1609 7.2141 12.1609ZM28.0779 12.1609L29.5815 15.9484L31.1048 12.1609H32.297L29.8611 17.9444H29.2691L26.8763 12.1609H28.0779ZM32.7944 17.7996H35.9136V16.8449H33.8934V15.3229H35.8393V14.3677H33.8934V13.1162H35.9136V12.1607H32.7944V17.7996ZM37.7406 14.7568H38.0619C38.7645 14.7568 39.1368 14.4516 39.1368 13.8847C39.1368 13.336 38.7645 13.049 38.0794 13.049H37.7406V14.7568ZM38.2731 12.1606C39.5414 12.1606 40.2685 12.7698 40.2685 13.8255C40.2685 14.6888 39.8124 15.2557 38.9839 15.424L40.7592 17.7995H39.4065L37.8842 15.5343H37.7406V17.7995H36.642V12.1606H38.2731Z" fill="#1D1D1B"/>
<path fill-rule="evenodd" clip-rule="evenodd" d="M26.7467 16.6161C27.6393 15.2201 27.2316 13.3657 25.8359 12.4731C24.4401 11.5805 22.5854 11.988 21.6926 13.3839C20.8001 14.7794 21.208 16.6345 22.6037 17.5271C23.9995 18.4197 25.8541 18.0116 26.7467 16.6161Z" fill="url(#paint0_linear_1_261)"/>
<defs>
<linearGradient id="paint0_linear_1_261" x1="28.3627" y1="14.089" x2="23.3087" y2="10.8569" gradientUnits="userSpaceOnUse">
<stop stop-color="#F6A000"/>
<stop offset="0.623918" stop-color="#E47E02"/>
<stop offset="1" stop-color="#D36002"/>
</linearGradient>
</defs>
</svg>
