<svg width="57" height="50" viewBox="0 0 57 50" fill="none" xmlns="http://www.w3.org/2000/svg">
<g clip-path="url(#clip0_1_881)">
<path d="M36.6899 30.66C35.6499 30.93 34.2999 31.06 33.1299 31.06C30.1299 31.06 28.1299 29.46 28.1299 26.53C28.1299 23.76 29.9799 21.96 32.6999 21.96C33.2999 21.96 33.9499 22.04 34.3399 22.24V18.2H36.6899V30.65V30.66ZM34.3399 24.31C33.886 24.113 33.3945 24.0174 32.8999 24.03C31.4699 24.03 30.5099 24.91 30.5099 26.46C30.5099 28.12 31.5499 29.06 33.2099 29.06C33.5099 29.06 33.9499 29.03 34.3399 28.96V24.3V24.31ZM55.9199 30.66C54.8799 30.93 53.5399 31.06 52.3599 31.06C49.3599 31.06 47.3599 29.46 47.3599 26.53C47.3599 23.76 49.2199 21.96 51.9299 21.96C52.5399 21.96 53.1799 22.04 53.5799 22.24V18.2H55.9199V30.65V30.66ZM53.5799 24.31C53.1229 24.1116 52.6279 24.016 52.1299 24.03C50.6999 24.03 49.7499 24.91 49.7499 26.46C49.7499 28.12 50.7799 29.06 52.4499 29.06C52.7399 29.06 53.1899 29.03 53.5799 28.96V24.3V24.31ZM40.3799 24.29C40.7599 24.13 41.3099 24.07 41.7799 24.07C43.2199 24.07 44.2199 24.91 44.2199 26.42C44.2199 28.19 43.1199 28.99 41.6399 29.02V31.06H41.7599C44.7899 31.06 46.5999 29.36 46.5999 26.34C46.5999 23.58 44.6699 21.96 41.8199 21.96C40.3699 21.96 38.9499 22.3 38.0099 22.69V34.39H40.3699V24.29H40.3799Z" fill="#3C3C3B"/>
<path d="M15.3996 23.71C15.3473 23.738 15.2889 23.7527 15.2296 23.7527C15.1703 23.7527 15.1119 23.738 15.0596 23.71L14.5096 23.37C14.4609 23.3398 14.4198 23.2988 14.3896 23.25V23.24C14.3543 23.1862 14.3336 23.1242 14.3296 23.06L14.3096 22.41C14.3106 22.3498 14.3267 22.2907 14.3564 22.2383C14.3861 22.1859 14.4284 22.1418 14.4796 22.11L21.1796 18.21L11.7796 13.09C11.6612 13.0325 11.5313 13.0026 11.3996 13.0026C11.268 13.0026 11.138 13.0325 11.0196 13.09L1.61961 18.2L12.1496 24.33C12.2008 24.3618 12.2432 24.4059 12.2729 24.4583C12.3026 24.5107 12.3186 24.5698 12.3196 24.63V33.57C12.3186 33.6302 12.3026 33.6893 12.2729 33.7417C12.2432 33.7941 12.2008 33.8382 12.1496 33.87L11.5796 34.17C11.5278 34.2002 11.4695 34.2173 11.4096 34.22H11.3996C11.3372 34.2221 11.2753 34.2083 11.2196 34.18L10.6496 33.86C10.5966 33.8294 10.5522 33.7858 10.5207 33.7333C10.4892 33.6808 10.4716 33.6212 10.4696 33.56V25.6C10.4659 25.5676 10.4549 25.5364 10.4376 25.5087C10.4203 25.4811 10.3971 25.4576 10.3696 25.44L1.09961 20.05V30.63C1.09961 30.86 1.26961 31.16 1.46961 31.28L11.0296 36.91C11.1443 36.968 11.2711 36.9982 11.3996 36.9982C11.5282 36.9982 11.6549 36.968 11.7696 36.91L21.3296 31.28C21.5296 31.15 21.6996 30.86 21.6996 30.63V20.05L15.3996 23.71Z" fill="url(#paint0_linear_1_881)"/>
</g>
<defs>
<linearGradient id="paint0_linear_1_881" x1="1.19961" y1="33.37" x2="11.6296" y2="24.62" gradientUnits="userSpaceOnUse">
<stop stop-color="#BE0737"/>
<stop offset="0.04" stop-color="#C00736"/>
<stop offset="0.63" stop-color="#D8062C"/>
<stop offset="1" stop-color="#E10528"/>
</linearGradient>
<clipPath id="clip0_1_881">
<rect width="56" height="50" fill="white" transform="translate(0.0996094)"/>
</clipPath>
</defs>
</svg>
