<svg width="58" height="50" viewBox="0 0 58 50" fill="none" xmlns="http://www.w3.org/2000/svg">
<g clip-path="url(#clip0_1_840)">
<path fill-rule="evenodd" clip-rule="evenodd" d="M32.4734 17.5H24.7749L20.8066 32.5H28.5051L29.2988 29.6429H26.1242L27.0765 26.0714H29.6162L30.4099 23.2143H27.8701L28.5845 20.4365H31.7591L32.4734 17.5ZM41.6797 17.5L38.4257 24.3254H38.1876L38.5844 17.5H33.7432L29.7749 32.5H33.9813L35.5686 26.0714H35.648L35.4892 32.5H36.9178L40.1717 26.0714H40.2511L38.3464 32.5H42.5527L46.5209 17.5H41.6797ZM57.4733 19.5635L55.4892 17.5H50.7273L47.6321 19.5635L46.3622 24.246L48.5844 26.3095L51.2828 26.5476L50.4892 29.6429H49.4575L50.013 27.6587H45.4892L44.7749 30.4365L46.7591 32.5H51.8384L54.9336 30.4365L56.2035 25.6746L53.9813 23.6111L51.2828 23.373L52.0765 20.4365H53.1083L52.5527 22.4206H56.759L57.4733 19.5635Z" fill="#0033A1"/>
<path fill-rule="evenodd" clip-rule="evenodd" d="M0.250977 17.5H22.87L22.3144 19.4841H2.79062L0.250977 17.5ZM22.0764 20.3571L21.6001 22.0238H5.80653L3.8224 20.3571H22.0764ZM21.4414 22.8175L20.8859 24.881H9.37796L6.83822 22.8175H21.4414ZM20.6478 25.754L20.1716 27.4206H12.3938L10.4096 25.754H20.6478ZM19.9334 28.2143L18.743 32.5L13.4256 28.2143H19.9334Z" fill="#FF8400"/>
</g>
<defs>
<clipPath id="clip0_1_840">
<rect width="57.2222" height="50" fill="white" transform="translate(0.250977)"/>
</clipPath>
</defs>
</svg>
