<svg width="66" height="50" viewBox="0 0 66 50" fill="none" xmlns="http://www.w3.org/2000/svg">
<g clip-path="url(#clip0_1_864)">
<path d="M48.7001 15V19.2614H42.4686V22.1023H48.7001V26.0795H42.4686V30.0568H48.7001V34.3182H37.9365V15H48.7001ZM54.3652 34.3182H48.7001L54.0819 28.0682L48.7001 22.1023H54.3652L57.1977 24.9432L59.747 22.1023H65.412L59.747 28.0682L65.412 34.3182H59.4637L56.9145 31.1932L54.3652 34.3182Z" fill="#FF6600"/>
<path d="M33.5175 15V22.8977H33.4892C32.4978 21.7614 31.2515 21.3636 29.7786 21.3636C26.8328 21.3636 24.5951 23.3807 23.8303 26.0511C22.9239 23.0966 20.6295 21.3068 17.2022 21.3068C14.4263 21.3068 12.2453 22.5284 11.1123 24.5739V22.0455H5.36222V19.2898H11.6221V15H0.263672V34.2898H5.36222V26.1932H10.4608C10.3191 26.7898 10.2342 27.4148 10.2342 28.0966C10.2342 32.1023 13.2933 34.9432 17.2022 34.9432C20.4879 34.9432 22.669 33.3807 23.802 30.5682H19.4399C18.8451 31.4205 18.3918 31.6761 17.2022 31.6761C15.8426 31.6761 14.6529 30.4545 14.6529 29.0341H23.5754C23.9436 32.2443 26.4362 35 29.8353 35C31.3082 35 32.6678 34.2614 33.4892 33.0398H33.5175V34.2898H38.0213V15H33.5175ZM14.7945 26.25C15.0778 25.0284 16.0125 24.2045 17.2022 24.2045C18.5051 24.2045 19.4116 25 19.6382 26.25H14.7945ZM30.7983 31.3636C29.1271 31.3636 28.1074 29.8011 28.1074 28.1818C28.1074 26.4489 29.0138 24.8011 30.7983 24.8011C32.6678 24.8011 33.4042 26.4489 33.4042 28.1818C33.4042 29.8295 32.6111 31.3636 30.7983 31.3636Z" fill="#4D148C"/>
</g>
<defs>
<clipPath id="clip0_1_864">
<rect width="65.1481" height="50" fill="white" transform="translate(0.263672)"/>
</clipPath>
</defs>
</svg>
