<svg width="56" height="50" viewBox="0 0 56 50" fill="none" xmlns="http://www.w3.org/2000/svg">
<g clip-path="url(#clip0_1_885)">
<g clip-path="url(#clip1_1_885)">
<path d="M51.8431 33.9216C53.4834 33.9216 54.8133 32.5962 54.8133 30.9613C54.8133 29.3263 53.4834 28.0009 51.8431 28.0009C50.2028 28.0009 48.873 29.3263 48.873 30.9613C48.873 32.5962 50.2028 33.9216 51.8431 33.9216Z" fill="#FFD100"/>
<path d="M9.51448 24.3846V28.2579H12.7476C12.2752 28.9968 11.2101 29.3904 10.488 29.3904C8.05438 29.3904 6.83758 28.0079 6.83758 25.2179C6.83758 22.137 8.4436 20.5605 11.6319 20.5605C12.8974 20.5605 14.5527 20.8756 16.329 21.4339V16.8007C15.8175 16.5825 15.0392 16.4128 14.0412 16.2425C13.019 16.0727 12.1184 16 11.3394 16C8.17534 16 5.66872 16.8492 3.79516 18.5469C1.92094 20.2453 0.97168 22.5255 0.97168 25.4124C0.97168 28.0563 1.70206 30.1426 3.1621 31.6713C4.6222 33.2235 6.59368 34 9.076 34C11.5685 34 13.8588 32.7106 14.5968 31.0735L14.5809 33.7085H18.1865V24.3846H9.51448Z" fill="#061AB1"/>
<path d="M19.9873 33.7084V16.291H25.585V29.1722H31.6935V33.7084H19.9873Z" fill="#061AB1"/>
<path d="M33.7357 33.272V28.5176C34.5634 28.7843 35.537 29.0025 36.6322 29.1971C37.7274 29.391 38.6767 29.4881 39.48 29.4881C40.8427 29.4881 41.5488 29.1486 41.5488 28.5419C41.5488 28.154 41.3299 27.9594 40.332 27.7412L38.3848 27.3048C35.0505 26.5526 33.4932 24.8791 33.4932 22.0406C33.4932 20.1725 34.1505 18.693 35.4403 17.6014C36.7288 16.5334 38.5301 16 40.7935 16C42.3508 16 44.7365 16.3152 46.1965 16.6795V21.2157C45.4419 21.0217 44.5419 20.8278 43.4467 20.6574C42.3515 20.4877 41.4995 20.415 40.8671 20.415C39.6746 20.415 38.9929 20.7544 38.9929 21.3611C38.9929 21.7248 39.3091 21.9679 39.9664 22.1376L42.2299 22.671C45.5398 23.4474 47.0728 25.1451 47.0728 28.0321C47.0728 29.876 46.3912 31.3312 45.0527 32.3986C43.7143 33.466 41.8644 33.9993 39.5037 33.9993C37.2646 33.9993 35.0012 33.6842 33.7357 33.272Z" fill="#061AB1"/>
</g>
</g>
<defs>
<clipPath id="clip0_1_885">
<rect width="55" height="50" fill="white" transform="translate(0.37207)"/>
</clipPath>
<clipPath id="clip1_1_885">
<rect width="55" height="18" fill="white" transform="translate(0.37207 16)"/>
</clipPath>
</defs>
</svg>
