<svg width="46" height="30" viewBox="0 0 46 30" fill="none" xmlns="http://www.w3.org/2000/svg">
<path fill-rule="evenodd" clip-rule="evenodd" d="M13.6006 15C13.6006 9.47715 18.0777 5 23.6005 5H23.6587C26.3031 5.00769 28.8362 6.06559 30.7006 7.94096C32.5651 9.81632 33.6082 12.3555 33.6005 15C33.6005 20.5228 29.1234 25 23.6005 25C18.0777 25 13.6006 20.5228 13.6006 15ZM22.7289 18.8499L23.77 15.339L25.3923 14.8789L25.7313 13.7167L24.1332 14.201L25.8281 8.43824V8.34623C25.8256 8.27172 25.7936 8.20128 25.7391 8.15041C25.6846 8.09955 25.6121 8.07243 25.5376 8.07505H23.3826C23.2148 8.06987 23.065 8.17973 23.0194 8.34139L21.0098 15.1695L19.4117 15.6537L19.0485 16.7675L20.6466 16.2833L19.218 21.1501H27.741C27.9094 21.1571 28.0602 21.0465 28.1042 20.8838L28.5884 19.2131V19.121C28.5859 19.0465 28.5539 18.9761 28.4994 18.9252C28.4449 18.8744 28.3724 18.8472 28.2979 18.8499H22.7289Z" fill="#345D9D"/>
</svg>
