<svg width="46" height="30" viewBox="0 0 46 30" fill="none" xmlns="http://www.w3.org/2000/svg">
<path d="M25.9265 21.3974H19.3154V9.60449H25.9265V21.3974Z" fill="#6C6BBD"/>
<path d="M19.7394 15.5C19.7394 13.1078 20.8679 10.9768 22.6252 9.60356C21.3401 8.59937 19.7183 8 17.9557 8C13.7829 8 10.4004 11.3578 10.4004 15.5C10.4004 19.6422 13.7829 23 17.9557 23C19.7183 23 21.3401 22.4007 22.6252 21.3965C20.8679 20.0232 19.7394 17.8922 19.7394 15.5Z" fill="#EB001B"/>
<path d="M34.8434 15.5C34.8434 19.6422 31.4609 23 27.2882 23C25.5255 23 23.9037 22.4007 22.6182 21.3965C24.376 20.0232 25.5044 17.8922 25.5044 15.5C25.5044 13.1078 24.376 10.9768 22.6182 9.60356C23.9037 8.59937 25.5255 8 27.2882 8C31.4609 8 34.8434 11.3578 34.8434 15.5Z" fill="#0099DF"/>
</svg>
