<svg width="46" height="30" viewBox="0 0 46 30" fill="none" xmlns="http://www.w3.org/2000/svg">
<path d="M11.3702 10.4562C10.9281 10.1523 10.3513 10 9.63969 10H6.88467C6.66652 10 6.54599 10.1091 6.5231 10.327L5.4039 17.3524C5.39227 17.4214 5.40954 17.4845 5.45553 17.5419C5.50127 17.5994 5.5588 17.6279 5.62769 17.6279H6.9363C7.16583 17.6279 7.29198 17.5191 7.31514 17.3008L7.62503 15.4069C7.63635 15.3151 7.67672 15.2405 7.74561 15.183C7.81445 15.1256 7.90055 15.0881 8.00387 15.0709C8.10718 15.0538 8.2046 15.0452 8.2966 15.0452C8.38834 15.0452 8.49734 15.051 8.62381 15.0625C8.74996 15.0739 8.83038 15.0795 8.86486 15.0795C9.852 15.0795 10.6268 14.8014 11.1894 14.2445C11.7517 13.6878 12.0332 12.9159 12.0332 11.9285C12.0332 11.2513 11.812 10.7606 11.3702 10.4562ZM9.94969 12.5656C9.89211 12.9675 9.74306 13.2314 9.50201 13.3577C9.2609 13.4842 8.91654 13.547 8.46891 13.547L7.90066 13.5643L8.19345 11.7218C8.21629 11.5957 8.29086 11.5325 8.41723 11.5325H8.74449C9.20343 11.5325 9.53653 11.5987 9.74316 11.7305C9.94969 11.8626 10.0186 12.1411 9.94969 12.5656Z" fill="#003087"/>
<path d="M40.4441 10H39.17C39.0434 10 38.9689 10.0632 38.9461 10.1894L37.8268 17.3524L37.8096 17.3868C37.8096 17.4445 37.8326 17.4988 37.8786 17.5505C37.9243 17.6021 37.9819 17.6279 38.0507 17.6279H39.1872C39.405 17.6279 39.5256 17.5191 39.5489 17.3008L40.6681 10.2582V10.241C40.668 10.0804 40.5932 10 40.4441 10Z" fill="#009CDE"/>
<path d="M25.0503 12.7719C25.0503 12.7147 25.0272 12.66 24.9816 12.6085C24.9355 12.5568 24.8838 12.5309 24.8266 12.5309H23.5007C23.3742 12.5309 23.2709 12.5886 23.1908 12.703L21.3656 15.3893L20.608 12.8065C20.5504 12.6229 20.4242 12.5309 20.2292 12.5309H18.9376C18.8801 12.5309 18.8284 12.5568 18.7828 12.6085C18.7367 12.66 18.7139 12.7147 18.7139 12.7719C18.7139 12.7951 18.8258 13.1336 19.0496 13.7879C19.2734 14.4423 19.5145 15.1483 19.7728 15.906C20.0311 16.6635 20.1658 17.0655 20.1774 17.1111C19.2361 18.3969 18.7655 19.0857 18.7655 19.1774C18.7655 19.3267 18.8401 19.4013 18.9893 19.4013H20.3152C20.4415 19.4013 20.5447 19.344 20.6252 19.2292L25.016 12.8925C25.0388 12.8696 25.0503 12.8296 25.0503 12.7719Z" fill="#003087"/>
<path d="M37.3966 12.5315H36.0879C35.9271 12.5315 35.8298 12.7209 35.7954 13.0997C35.4966 12.6408 34.9517 12.4109 34.1595 12.4109C33.333 12.4109 32.6297 12.7209 32.0502 13.3408C31.4704 13.9607 31.1807 14.6898 31.1807 15.5276C31.1807 16.205 31.3786 16.7445 31.7746 17.1461C32.1706 17.5482 32.7015 17.7488 33.3675 17.7488C33.7003 17.7488 34.0389 17.6798 34.3833 17.5422C34.7277 17.4045 34.9972 17.2209 35.1927 16.9912C35.1927 17.0027 35.181 17.0543 35.1582 17.1461C35.1351 17.2381 35.1238 17.3071 35.1238 17.3527C35.1238 17.5366 35.1982 17.6282 35.3477 17.6282H36.5359C36.7536 17.6282 36.8801 17.5193 36.9145 17.3011L37.6205 12.807C37.6318 12.7381 37.6146 12.675 37.5688 12.6176C37.5228 12.5603 37.4655 12.5315 37.3966 12.5315ZM35.1496 15.9236C34.8569 16.2106 34.5039 16.354 34.0907 16.354C33.7576 16.354 33.4881 16.2624 33.2814 16.0786C33.0747 15.8952 32.9714 15.6426 32.9714 15.321C32.9714 14.8965 33.1148 14.5375 33.4019 14.2448C33.6886 13.9521 34.0447 13.8057 34.4695 13.8057C34.7906 13.8057 35.0576 13.9004 35.2701 14.0898C35.4823 14.2792 35.5888 14.5405 35.5888 14.8734C35.5887 15.2866 35.4423 15.6368 35.1496 15.9236Z" fill="#009CDE"/>
<path d="M17.8362 12.5315H16.5276C16.3666 12.5315 16.2693 12.7209 16.2348 13.0997C15.9248 12.6408 15.3795 12.4109 14.599 12.4109C13.7725 12.4109 13.0693 12.7209 12.4896 13.3408C11.9099 13.9607 11.6201 14.6898 11.6201 15.5276C11.6201 16.205 11.8182 16.7445 12.2142 17.1461C12.6103 17.5482 13.141 17.7488 13.8069 17.7488C14.1282 17.7488 14.4613 17.6798 14.8056 17.5422C15.15 17.4045 15.4255 17.2209 15.6321 16.9912C15.5861 17.1289 15.5632 17.2495 15.5632 17.3527C15.5632 17.5366 15.6378 17.6282 15.7871 17.6282H16.9752C17.1931 17.6282 17.3195 17.5193 17.354 17.3011L18.0599 12.807C18.0712 12.7381 18.054 12.675 18.0083 12.6176C17.9623 12.5603 17.905 12.5315 17.8362 12.5315ZM15.5891 15.9322C15.2963 16.2137 14.9374 16.354 14.513 16.354C14.1799 16.354 13.913 16.2624 13.7122 16.0786C13.5113 15.8952 13.4109 15.6426 13.4109 15.321C13.4109 14.8965 13.5543 14.5375 13.8414 14.2448C14.1282 13.9521 14.4841 13.8057 14.909 13.8057C15.2302 13.8057 15.4971 13.9004 15.7097 14.0898C15.9219 14.2792 16.0282 14.5405 16.0282 14.8734C16.0282 15.2981 15.8818 15.6512 15.5891 15.9322Z" fill="#003087"/>
<path d="M30.9307 10.4562C30.4887 10.1523 29.912 10 29.2003 10H26.4625C26.2328 10 26.1064 10.1091 26.0837 10.327L24.9645 17.3524C24.9528 17.4214 24.97 17.4845 25.0161 17.5418C25.0617 17.5993 25.1193 17.6279 25.1882 17.6279H26.6001C26.7379 17.6279 26.8296 17.5534 26.8756 17.4041L27.1856 15.4068C27.197 15.315 27.2372 15.2404 27.3062 15.1829C27.3751 15.1256 27.4611 15.088 27.5645 15.0708C27.6677 15.0538 27.7652 15.0452 27.8572 15.0452C27.9489 15.0452 28.0579 15.051 28.1843 15.0624C28.3105 15.0739 28.3911 15.0795 28.4253 15.0795C29.4126 15.0795 30.1873 14.8013 30.7499 14.2444C31.3124 13.6877 31.5936 12.9158 31.5936 11.9284C31.5937 11.2513 31.3726 10.7606 30.9307 10.4562ZM29.1658 13.2888C28.9132 13.461 28.5344 13.547 28.0294 13.547L27.4784 13.5643L27.7712 11.7218C27.7939 11.5957 27.8685 11.5325 27.9949 11.5325H28.3048C28.5573 11.5325 28.7581 11.544 28.9076 11.5669C29.0566 11.59 29.2003 11.6616 29.338 11.7821C29.4759 11.9027 29.5447 12.0778 29.5447 12.3073C29.5447 12.7894 29.4182 13.1165 29.1658 13.2888Z" fill="#009CDE"/>
</svg>
