<svg width="36" height="50" viewBox="0 0 36 50" fill="none" xmlns="http://www.w3.org/2000/svg">
<g clip-path="url(#clip0_1_870)">
<g clip-path="url(#clip1_1_870)">
<path d="M12.4823 23.1688C11.1241 23.1688 10.0316 23.922 10.0316 25.6183C10.0316 27.2767 11.1241 28.0679 12.4823 28.0679C13.8358 28.0679 14.9307 27.2767 14.9307 25.6183C14.9307 23.922 13.8358 23.1688 12.4823 23.1688ZM12.4823 26.903C11.8749 26.903 11.4206 26.4416 11.4206 25.6183C11.4206 24.7227 11.8749 24.3313 12.4823 24.3313C13.0861 24.3313 13.5416 24.7227 13.5416 25.6183C13.5416 26.4416 13.0861 26.903 12.4823 26.903ZM21.3091 23.2115C21.3091 23.2364 21.3293 23.2565 21.3542 23.2565H22.3851C22.4669 23.2565 22.5333 23.3242 22.5333 23.4036V24.2957C22.5333 24.3218 22.5132 24.3419 22.4883 24.3419H21.3542C21.3293 24.3419 21.3091 24.3621 21.3091 24.387V26.1189C21.3091 26.7832 21.5606 26.9801 21.9806 26.9801C22.1775 26.9801 22.4871 26.8592 22.5321 26.8592C22.5571 26.8592 22.5784 26.8793 22.5784 26.9042V27.7583C22.5784 27.8224 22.5416 27.8675 22.5013 27.8888C22.3139 27.9897 21.9995 28.0584 21.5345 28.0584C20.722 28.0584 19.9675 27.6492 19.9675 26.3431V23.3313C19.9675 23.0644 20.0719 22.8105 20.2368 22.6302C20.4562 22.3882 21.162 21.9351 21.2534 21.9351C21.2925 21.9351 21.3091 21.9469 21.3091 21.9837V23.2115ZM4.92005 23.4084C4.92005 23.3242 4.98766 23.2577 5.07186 23.2577H6.85837C8.61279 23.2577 9.52147 24.3111 9.52147 25.6741C9.52147 27.0383 8.50484 27.9825 6.82989 27.9825H6.30796C6.28302 27.9825 6.26166 28.0027 6.26166 28.0288V30.2388C6.26166 30.2755 6.24627 30.2874 6.20594 30.2874C6.11458 30.2874 5.40877 29.8342 5.18931 29.5923C5.02441 29.4107 4.92005 29.1569 4.92005 28.8912V23.4084ZM8.19644 25.6053C8.19644 25.0252 7.82159 24.4819 6.83109 24.4819H6.30557C6.28067 24.4819 6.26051 24.5021 6.26051 24.5282V26.7085C6.26051 26.7334 6.28067 26.7548 6.30557 26.7548H6.85718C8.03747 26.7548 8.19644 25.9351 8.19644 25.6053ZM19.2771 26.5258C19.2771 27.5211 18.5618 28.0679 17.1668 28.0679C16.3684 28.0679 15.525 27.788 15.5179 27.7856C15.4551 27.7619 15.4135 27.7049 15.4135 27.6397V26.7121C15.4135 26.6812 15.4396 26.6575 15.4716 26.6575C15.4764 26.6575 15.4895 26.6599 15.4906 26.6611C15.7884 26.7571 16.754 26.9968 17.2676 26.9968C17.5713 26.9968 17.7303 26.9517 17.8323 26.8497C17.9023 26.7797 17.9343 26.705 17.9343 26.6148C17.9343 26.3111 17.5535 26.2269 17.1846 26.1462C17.1383 26.1367 17.1585 26.1415 17.0339 26.1118C16.2261 25.9208 15.3744 25.7239 15.3744 24.6836C15.3744 24.2221 15.5677 23.839 15.9295 23.5733C16.2902 23.3075 16.8109 23.1688 17.4349 23.1688C17.996 23.1688 18.6614 23.3538 18.8845 23.425C18.9545 23.4475 18.9948 23.5092 18.9948 23.5721V24.4973C18.9924 24.5401 18.9473 24.5602 18.9165 24.5484C18.2771 24.3087 17.6923 24.2245 17.2723 24.2245C16.939 24.2245 16.7231 24.3692 16.7231 24.5934C16.7231 24.852 17.0387 24.922 17.4384 25.0122C17.4871 25.0229 17.7054 25.0727 17.7623 25.0845C18.0897 25.1569 18.4277 25.2305 18.7054 25.4119C19.0897 25.6634 19.2771 26.0276 19.2771 26.5258ZM26.5096 27.9659C26.4942 27.9659 26.4811 27.9529 26.4811 27.9374V25.1225C26.4811 24.4973 26.2688 24.2305 25.7706 24.2305C25.5926 24.2305 25.378 24.2969 25.1644 24.4179C24.9521 24.5412 24.786 24.6433 24.7267 24.6789C24.7101 24.6895 24.6923 24.718 24.6923 24.7405V27.9386C24.6923 27.9541 24.6793 27.9671 24.6638 27.9671H23.4088C23.3934 27.9671 23.3791 27.9541 23.3791 27.9386V23.4096C23.3791 23.336 23.4396 23.2755 23.5144 23.2755H24.665C24.6804 23.2755 24.6947 23.2886 24.6947 23.304V23.6599C24.6947 23.6812 24.7125 23.699 24.7338 23.699C24.7421 23.699 24.7528 23.6943 24.7563 23.6919L24.7943 23.6634C24.9343 23.5555 25.1502 23.4333 25.2949 23.3775C25.6093 23.2577 25.9485 23.1877 26.2237 23.1877C27.2498 23.1877 27.792 23.7773 27.792 24.8912V27.9362C27.792 27.9529 27.7789 27.9647 27.7623 27.9647H26.5096V27.9659ZM28.8275 27.9659C28.8121 27.9659 28.799 27.9529 28.799 27.9374V21.0015C28.799 20.9766 28.8038 20.9695 28.8382 20.9695C28.9165 20.9695 29.6164 21.4096 29.843 21.6587C30.0114 21.8437 30.1075 22.0952 30.1075 22.3491V27.9374C30.1075 27.9529 30.0944 27.9659 30.079 27.9659H28.8275ZM12.4811 15.9102C12.4574 15.9102 12.4349 15.9173 12.4076 15.9339C12.1964 16.0928 12.0102 16.2767 11.8489 16.4831C11.8014 16.5365 11.8014 16.5982 11.8512 16.6622C12.0042 16.8603 12.1798 17.0371 12.372 17.1877C12.4076 17.2162 12.4432 17.2293 12.4799 17.2293C12.5167 17.2293 12.5523 17.215 12.5879 17.1866C12.7801 17.0359 12.9556 16.8591 13.1087 16.6622C13.1585 16.5982 13.1585 16.5365 13.1087 16.4796C12.9509 16.2755 12.7647 16.0917 12.5582 15.9363C12.5286 15.9173 12.5061 15.9102 12.4811 15.9102ZM12.4811 17.6101C12.3803 17.6101 12.2735 17.6124 12.1632 17.6172C12.1241 17.6172 12.0885 17.6314 12.0612 17.6599C12.0221 17.699 12.0066 17.7619 12.0066 17.8034C12.0102 18.0205 12.0245 19.1664 12.0339 19.8959C12.0387 20.2483 12.041 20.5033 12.0422 20.5116C12.0422 20.5638 12.0802 20.6729 12.1976 20.6729H12.7658C12.8501 20.6729 12.9082 20.6136 12.9201 20.5187C12.9201 20.5163 12.9201 20.5139 12.9201 20.5116C12.9201 20.4938 12.9319 19.5199 12.9545 17.839V17.8058C12.9556 17.7738 12.945 17.705 12.9011 17.661C12.8738 17.6326 12.8382 17.6195 12.7967 17.6195C12.6899 17.6136 12.5831 17.6101 12.4811 17.6101ZM13.9224 17.7654C13.7919 17.7654 13.6852 17.8378 13.6294 17.9624C13.4657 18.3265 13.3471 18.6587 13.232 19.0715C13.219 19.1201 13.2237 19.1605 13.2463 19.1901C13.2617 19.2103 13.2925 19.234 13.3542 19.234H13.7979C13.8987 19.234 13.9355 19.1806 13.9497 19.1367C14.0221 18.89 14.0743 18.7464 14.1668 18.5424C14.168 18.5401 14.1751 18.527 14.2024 18.527C14.213 18.527 14.2237 18.5282 14.2344 18.5317L14.4598 18.6065C14.4859 18.616 14.5025 18.6385 14.5108 18.6563C14.5274 18.6907 14.5298 18.737 14.5179 18.7714C14.5155 18.7785 14.0624 20.0454 13.9272 20.4677C13.907 20.533 13.9094 20.5839 13.9366 20.6219C13.9615 20.6563 14.0043 20.6741 14.0636 20.6741H14.6128C14.7029 20.6741 14.7623 20.6385 14.7884 20.5662C14.8085 20.5116 14.837 20.4321 14.8702 20.3384L14.8833 20.3028C15.0482 19.8425 15.2985 19.145 15.3518 18.9469C15.442 18.6112 15.4669 18.2435 14.9746 18.0608C14.818 18.0027 14.6697 17.9529 14.5333 17.9113C14.3601 17.858 14.1929 17.8188 14.0458 17.7844L14.028 17.7797C13.9877 17.769 13.9545 17.7654 13.9224 17.7654ZM11.0398 17.7654C11.0078 17.7654 10.9746 17.769 10.9426 17.7773L10.92 17.782C10.773 17.8164 10.6069 17.8556 10.4337 17.909C10.2984 17.9505 10.1502 18.0003 9.99238 18.0585C9.49892 18.2411 9.52501 18.6089 9.61518 18.9445C9.66617 19.1355 9.89868 19.7892 10.0956 20.336C10.13 20.4297 10.1573 20.5092 10.1774 20.5638C10.2035 20.6361 10.2629 20.6717 10.353 20.6717H10.9023C10.9758 20.6717 11.0114 20.6432 11.0292 20.6195C11.0565 20.5827 11.0589 20.5318 11.0387 20.4665C10.9046 20.0502 10.4515 18.782 10.4467 18.7702C10.4349 18.7358 10.4372 18.6907 10.4539 18.6551C10.4621 18.6373 10.4776 18.6148 10.506 18.6053L10.7326 18.5306C10.7409 18.5282 10.7516 18.527 10.7623 18.527C10.7848 18.527 10.7955 18.5365 10.7979 18.5424C10.8916 18.7512 10.9449 18.8959 11.0149 19.1367C11.028 19.1818 11.0648 19.234 11.1656 19.234H11.6104C11.6591 19.234 11.6959 19.2198 11.7184 19.1901C11.7409 19.1605 11.7457 19.1213 11.7314 19.0727C11.6152 18.6575 11.4965 18.3253 11.334 17.9624C11.3068 17.9031 11.2249 17.7654 11.0398 17.7654ZM14.5013 21.094H10.4669C10.3257 21.094 10.2059 21.2127 10.2059 21.3538V21.8615C10.2059 22.0205 10.2735 22.0976 10.4147 22.0976H14.5547C14.6947 22.0976 14.7623 22.0205 14.7623 21.8615V21.3538C14.7623 21.2127 14.6425 21.094 14.5013 21.094ZM33.9296 25.0193C33.9248 22.1865 28.6033 17.2803 22.9331 14.1545C16.3922 10.5472 8.94851 8.42143 6.49656 9.77256C3.70177 11.3147 2.17033 19.0122 2.16914 25.0193C2.17033 31.0751 3.6128 38.6741 6.49656 40.2649C9.10983 41.705 16.2297 39.5792 22.9331 35.8841C28.6923 32.7085 33.9248 27.9897 33.9296 25.0193ZM8.45978 7.98608C12.5879 7.98608 19.2012 10.5958 23.5986 13.0205C26.1146 14.4072 28.9699 16.4309 31.1786 18.4902C33.2985 20.4653 35.2985 22.9244 35.302 25.0193C35.2985 26.992 33.6971 29.3064 31.1193 31.6693C28.9307 33.6741 26.0885 35.6456 23.5998 37.0181C19.3518 39.3598 12.8773 42.0952 8.60925 42.0952C7.44912 42.0952 6.49775 41.8948 5.77886 41.4985C3.88919 40.457 2.67804 37.6504 1.96274 34.9007C1.19406 31.9505 0.799038 28.4025 0.797852 25.0205C0.797852 21.7109 1.2249 18.1545 1.96867 15.2625C2.87496 11.7405 4.19287 9.41669 5.77886 8.54124C6.44434 8.17232 7.3471 7.98608 8.45978 7.98608Z" fill="#F56900"/>
</g>
</g>
<defs>
<clipPath id="clip0_1_870">
<rect width="35" height="50" fill="white" transform="translate(0.554688)"/>
</clipPath>
<clipPath id="clip1_1_870">
<rect width="35" height="35" fill="white" transform="translate(0.554688 7.5)"/>
</clipPath>
</defs>
</svg>
