<svg width="46" height="30" viewBox="0 0 46 30" fill="none" xmlns="http://www.w3.org/2000/svg">
<path fill-rule="evenodd" clip-rule="evenodd" d="M12.7255 13.1898H10.223C10.223 12.779 10.1747 12.5032 10.0787 12.3628C9.92985 12.1552 9.51872 12.0512 8.84601 12.0512C8.19271 12.0512 7.75955 12.111 7.54822 12.2307C7.33698 12.3508 7.23128 12.6121 7.23128 13.0142C7.23128 13.3783 7.32486 13.618 7.51254 13.7329C7.64706 13.8144 7.82465 13.8624 8.04623 13.8766L8.55085 13.9123C9.63248 13.9841 10.308 14.0347 10.5775 14.0635C11.4328 14.1497 12.0528 14.3773 12.4376 14.7462C12.7404 15.034 12.9209 15.41 12.9786 15.8744C13.0122 16.1522 13.029 16.4666 13.029 16.8158C13.029 17.6209 12.9522 18.2105 12.7985 18.5842C12.5198 19.2698 11.8939 19.7028 10.92 19.8846C10.5119 19.9615 9.88772 20 9.04818 20C7.64664 20 6.66995 19.9165 6.11847 19.7487C5.44161 19.5432 4.99539 19.1269 4.77943 18.4998C4.65914 18.1508 4.59961 17.5696 4.59961 16.7559H7.10209C7.10209 16.8466 7.10235 16.916 7.10235 16.9638C7.10235 17.398 7.22712 17.6773 7.47609 17.8017C7.64859 17.8875 7.85695 17.9325 8.10184 17.9378H9.02182C9.49134 17.9378 9.791 17.9138 9.92018 17.8655C10.1502 17.775 10.3012 17.6293 10.3733 17.4276C10.4117 17.3035 10.4307 17.1429 10.4307 16.9464C10.4307 16.5061 10.27 16.2382 9.94934 16.1422C9.8294 16.1042 9.27137 16.0513 8.27536 15.9842C7.47558 15.9271 6.92001 15.8721 6.60883 15.8188C5.7895 15.6655 5.24348 15.3502 4.97102 14.8715C4.73153 14.4647 4.61173 13.8492 4.61173 13.026C4.61173 12.399 4.67648 11.8963 4.80587 11.5181C4.93536 11.1398 5.14405 10.8527 5.43203 10.6562C5.85389 10.3548 6.39372 10.1778 7.05081 10.1249C7.59756 10.0772 8.20407 10.0529 8.87127 10.0529C9.92154 10.0529 10.67 10.1132 11.1163 10.233C12.2053 10.5257 12.7497 11.3457 12.7497 12.6932C12.7497 12.8037 12.7417 12.9689 12.7255 13.1898Z" fill="#0B4A8E"/>
<path fill-rule="evenodd" clip-rule="evenodd" d="M26.4205 15.0984H28.0974C28.6292 15.0793 28.9526 15.0383 29.0689 14.9743C29.2279 14.8868 29.3346 14.7118 29.3878 14.4491C29.4217 14.2743 29.4386 14.0144 29.4386 13.6692C29.4386 13.2462 29.405 12.9328 29.3371 12.728C29.2404 12.4411 29.0087 12.2664 28.6416 12.203C28.5692 12.1934 28.3954 12.1884 28.1201 12.1884H26.4205V15.0984ZM23.7305 20V10H28.7422C29.4295 10 29.9541 10.0562 30.3145 10.1683C31.1388 10.4268 31.6918 10.9558 31.9751 11.7554C32.1213 12.1751 32.1945 12.8069 32.1945 13.6506C32.1945 14.6649 32.1134 15.3939 31.9529 15.8377C31.6315 16.7154 30.9698 17.2209 29.9706 17.3519C29.8531 17.3715 29.3532 17.3892 28.4708 17.4032L28.0242 17.4182H26.4205V20H23.7305Z" fill="#0B4A8E"/>
<path fill-rule="evenodd" clip-rule="evenodd" d="M37.4019 16.3236L36.1415 11.9887L34.9184 16.3236H37.4019ZM37.9361 18.2717H34.3395L33.8563 20H31.0732L34.0763 10H38.134L41.1739 20H38.4493L37.9361 18.2717Z" fill="#0B4A8E"/>
<path fill-rule="evenodd" clip-rule="evenodd" d="M20.0174 11.407C21.1269 11.407 22.1171 11.9183 22.768 12.7193L23.3478 11.4754C22.441 10.6178 21.2067 10.0891 19.8453 10.0891C17.7258 10.0891 15.9126 11.3699 15.1685 13.1829H14.0377L13.3701 14.6149H14.8247C14.8138 14.7478 14.8068 14.8807 14.8068 15.0163C14.8068 15.1805 14.8152 15.3426 14.8315 15.5029H14.1005L13.4329 16.9354H15.2031C15.9685 18.7026 17.759 19.9432 19.8453 19.9432C20.8968 19.9432 21.8724 19.628 22.6802 19.0896V17.334C22.0297 18.075 21.0782 18.5433 20.0174 18.5433C18.7774 18.5433 17.6867 17.9036 17.0516 16.9354H20.7585L21.4261 15.5029H16.5062C16.4808 15.3305 16.4673 15.1544 16.4673 14.9749C16.4673 14.8536 16.4735 14.7335 16.4852 14.6149H21.8397L22.5073 13.1829H16.9483C17.563 12.1213 18.7071 11.407 20.0174 11.407Z" fill="#F6BC25"/>
</svg>
