<svg width="46" height="30" viewBox="0 0 46 30" fill="none" xmlns="http://www.w3.org/2000/svg">
<path fill-rule="evenodd" clip-rule="evenodd" d="M35.2129 10.9828V19.8997H37.666V10.5469L35.2129 10.9828Z" fill="#862165"/>
<path fill-rule="evenodd" clip-rule="evenodd" d="M31.6318 10.9828L34.0834 10.5469V19.8997H31.6318V10.9828Z" fill="#862165"/>
<path fill-rule="evenodd" clip-rule="evenodd" d="M28.1396 19.8998V13.059H30.5924V19.8998H28.1396Z" fill="#862165"/>
<path fill-rule="evenodd" clip-rule="evenodd" d="M28.1572 11.2017C28.1572 10.5383 28.6989 10 29.3659 10C30.034 10 30.5753 10.5383 30.5753 11.2017C30.5753 11.8657 30.034 12.4027 29.3659 12.4027C28.6989 12.4027 28.1572 11.8657 28.1572 11.2017Z" fill="#862165"/>
<path fill-rule="evenodd" clip-rule="evenodd" d="M26.7563 12.9584C24.4902 13.031 23.3389 14.0419 23.3389 16.0512V19.8996H25.812V16.7608C25.812 15.5582 25.9707 15.0427 27.4072 14.9935V12.994C27.1656 12.9428 26.7563 12.9584 26.7563 12.9584Z" fill="#862165"/>
<path fill-rule="evenodd" clip-rule="evenodd" d="M20.1019 13.051C20.0477 13.1877 19.6557 14.2902 18.7051 15.4327V10.5469L16.1738 11.0445V19.8997H18.7051V17.1621C19.438 18.255 19.8002 19.8997 19.8002 19.8997H22.8315C22.5318 18.6608 21.2202 16.3772 21.2202 16.3772C22.3978 14.8933 22.9144 13.3129 22.9969 13.051H20.1019Z" fill="#862165"/>
<path fill-rule="evenodd" clip-rule="evenodd" d="M11.9295 14.0264C11.6196 14.0065 10.9015 13.9601 10.9015 13.318C10.9015 12.5432 11.9346 12.5432 12.3223 12.5432C13.0042 12.5432 13.8865 12.7431 14.5173 12.9308C14.5173 12.9308 14.8685 13.0542 15.1674 13.1799L15.1953 13.1877V11.0655L15.158 11.0542C14.4132 10.7955 13.5486 10.5469 11.9448 10.5469C9.17985 10.5469 8.2002 12.1467 8.2002 13.5186C8.2002 14.3086 8.54115 16.1696 11.7068 16.3839C11.9759 16.4003 12.6884 16.4412 12.6884 17.1047C12.6884 17.6527 12.1051 17.9751 11.1243 17.9751C10.0495 17.9751 9.00624 17.7035 8.37303 17.4447V19.6296C9.32127 19.8774 10.3905 20 11.6436 20C14.346 20 15.5575 18.486 15.5575 16.9849C15.5575 15.2836 14.2027 14.1778 11.9295 14.0264Z" fill="#862165"/>
</svg>
