<svg width="62" height="50" viewBox="0 0 62 50" fill="none" xmlns="http://www.w3.org/2000/svg">
<g clip-path="url(#clip0_1_868)">
<path d="M54.4989 20.1916C54.6307 20.1916 54.7624 20.3234 54.7624 20.4551V22.2994C54.7624 22.4311 54.6307 22.5629 54.4989 22.5629H52.3912C52.1277 22.5629 51.8642 22.497 51.8642 22.497V29.8084C51.8642 29.9401 51.7325 30.0719 51.6007 30.0719H49.2953C49.1636 30.0719 49.0319 29.9401 49.0319 29.8084V22.6287C49.0319 22.6287 48.8343 22.6946 48.6367 22.6946H46.3971C46.2654 22.6946 46.1337 22.5629 46.1337 22.4311V20.521C46.1337 20.3892 46.2654 20.2575 46.3971 20.2575H54.4989V20.1916ZM7.53487 20.2575C7.40313 20.2575 7.2714 20.3892 7.2714 20.521V22.3653C7.2714 22.497 7.40313 22.6287 7.53487 22.6287H9.77439C9.972 22.6287 10.1696 22.5629 10.1696 22.5629V29.8743C10.1696 30.006 10.3013 30.1377 10.4331 30.1377H12.7385C12.8702 30.1377 13.0019 30.006 13.0019 29.8743V22.6287C13.0019 22.6287 13.2654 22.6946 13.5289 22.6946H15.6367C15.7684 22.6946 15.9001 22.5629 15.9001 22.4311V20.521C15.9001 20.3892 15.7684 20.2575 15.6367 20.2575H7.53487ZM50.4151 14C46.1995 14 42.5109 16.4371 40.6666 19.9281C38.8223 16.4371 35.1995 14 30.984 14C26.7684 14 23.1456 16.4371 21.3013 19.9281C19.457 16.4371 15.8343 14 11.6187 14C5.62469 14 0.68457 18.9401 0.68457 25C0.68457 31.0599 5.55882 36 11.6187 36C15.8343 36 19.457 33.5629 21.3013 30.0719C23.1456 33.5629 26.7684 36 30.984 36C35.1995 36 38.8223 33.5629 40.6666 30.0719C42.5109 33.5629 46.1337 36 50.3492 36C56.3433 36 61.2834 31.0599 61.2834 25C61.2834 18.9401 56.4091 14 50.4151 14ZM11.6187 33.497C6.94206 33.497 3.18756 29.6766 3.18756 25C3.18756 20.3234 7.00792 16.503 11.6187 16.503C16.2953 16.503 20.0498 20.3234 20.0498 25C20.0498 29.6766 16.2953 33.497 11.6187 33.497ZM30.984 33.497C26.3073 33.497 22.5528 29.6766 22.5528 25C22.5528 20.3234 26.3732 16.503 30.984 16.503C35.6606 16.503 39.4151 20.3234 39.4151 25C39.481 29.6766 35.6606 33.497 30.984 33.497ZM50.4151 33.497C45.7385 33.497 41.984 29.6766 41.984 25C41.984 20.3234 45.8043 16.503 50.4151 16.503C55.0918 16.503 58.8462 20.3234 58.8462 25C58.8462 29.6766 55.0259 33.497 50.4151 33.497ZM35.1995 20.0599C35.3971 20.0599 35.5289 20.1916 35.5289 20.3234V29.6108C35.5289 29.7425 35.3971 29.8743 35.2654 29.8743H33.3552C33.2235 29.8743 33.0918 29.8084 33.0259 29.7425C33.0259 29.7425 29.5349 25 29.469 24.8683C29.3373 24.7365 29.2055 24.4072 29.2055 24.4072V29.5449C29.2055 29.6766 29.0738 29.8084 28.9421 29.8084H26.7684C26.6367 29.8084 26.5049 29.6766 26.5049 29.5449V20.3234C26.5049 20.1916 26.6367 20.0599 26.7684 20.0599H28.6786C28.8103 20.0599 28.9421 20.1257 29.0079 20.1916C29.0079 20.1916 32.4331 24.8024 32.5648 25.0659C32.6965 25.1976 32.8283 25.5269 32.8283 25.5269V20.3234C32.8283 20.1916 32.96 20.0599 33.0918 20.0599C33.0918 20.0599 35.0678 20.0599 35.1995 20.0599Z" fill="#FF6600"/>
</g>
<defs>
<clipPath id="clip0_1_868">
<rect width="60.5988" height="50" fill="white" transform="translate(0.68457)"/>
</clipPath>
</defs>
</svg>
