<svg width="27" height="50" viewBox="0 0 27 50" fill="none" xmlns="http://www.w3.org/2000/svg">
<g clip-path="url(#clip0_1_860)">
<g clip-path="url(#clip1_1_860)">
<path d="M4.81859 35.1125C2.617 33.31 1.4541 30.7154 1.4541 27.6165V12.8859C4.93069 11.0429 9.14037 10.1089 13.9669 10.1089C18.7933 10.1089 23.0035 11.0429 26.4796 12.8859V27.6165C26.4796 30.7154 25.3167 33.3082 23.1151 35.1125C21.101 36.7634 14.7013 39.5715 13.9664 39.8911C13.2324 39.5715 6.83272 36.7638 4.81859 35.1125Z" fill="#330000"/>
<path d="M25.7944 12.7128C24.1859 12.5635 22.515 12.4649 20.813 12.4649C14.5008 12.4649 7.73369 13.8218 2.13923 18.9529V27.7235C2.13923 30.58 3.19561 32.9654 5.20277 34.6013C6.97502 36.0433 12.429 38.5133 13.9668 39.192C15.4851 38.5235 20.9251 36.0861 22.7285 34.6013C24.7482 32.937 25.7944 30.607 25.7944 27.7235V12.7128ZM3.29562 26.8109V19.6879H5.56047V26.9113C5.56047 27.5542 5.71584 28.5059 6.75453 28.5059C7.13095 28.5211 7.50338 28.424 7.8244 28.2268V19.6879H10.0865V29.5185C9.06485 30.1562 7.87563 30.4731 6.6722 30.4284C4.43014 30.4284 3.29329 29.2115 3.29329 26.8109M13.5184 35.0325H11.2521V20.2647C12.1689 19.7016 13.2312 19.4213 14.3064 19.4586C17.0113 19.4586 18.4975 21.5109 18.4975 24.8139C18.4975 28.117 17.0555 30.3893 14.539 30.3893C14.1945 30.3955 13.851 30.3521 13.5189 30.2605L13.5184 35.0325ZM13.5184 28.4087C13.7537 28.4968 14.0026 28.5431 14.2538 28.5454C15.5563 28.5454 16.1805 27.3486 16.1805 24.8707C16.1805 22.3323 15.6358 21.2825 14.3199 21.2825C14.0438 21.2802 13.7703 21.3358 13.517 21.4457L13.5184 28.4087ZM19.011 22.4119C19.0252 21.6179 19.3528 20.8618 19.9224 20.3086C20.492 19.7553 21.2572 19.4497 22.0513 19.4586C22.94 19.4115 23.818 19.6713 24.538 20.1945V22.1653C24.0043 21.6085 23.2787 21.2759 22.5085 21.235C21.8661 21.2294 21.1977 21.5118 21.1758 22.3174C21.154 23.1422 21.821 23.4678 22.6643 23.9636C24.5571 25.0763 24.9231 26.0764 24.8794 27.3979C24.8362 28.8469 23.8375 30.4293 21.5987 30.4293C20.7207 30.4195 19.8612 30.1768 19.1077 29.726V27.6388C19.7063 28.1797 20.4688 28.5043 21.2735 28.5608C22.1048 28.565 22.6518 28.0887 22.6322 27.2983C22.615 26.5871 22.2136 26.2006 21.2168 25.6149C19.3482 24.519 19.0124 23.6171 19.0091 22.4119M4.44456 35.5251C2.15179 33.6473 0.942383 30.9489 0.942383 27.7235V12.3905C4.56085 10.4722 8.9431 9.5 13.9668 9.5C18.9905 9.5 23.3728 10.4722 26.9912 12.3905V27.7235C26.9912 30.9489 25.7818 33.6473 23.4891 35.5256C21.3931 37.2439 14.7315 40.1665 13.9668 40.4991C13.2021 40.1665 6.54056 37.2439 4.44456 35.5251ZM22.2806 38.7389V40.0697H22.5206V39.5143H22.5546C22.5727 39.5413 22.916 40.0697 22.916 40.0697H23.2067C23.2067 40.0697 22.842 39.5362 22.8048 39.486C22.888 39.4718 22.9633 39.4284 23.0173 39.3636C23.0713 39.2987 23.1003 39.2168 23.0993 39.1324C23.1004 39.0762 23.0893 39.0205 23.0667 38.969C23.0441 38.9175 23.0105 38.8716 22.9684 38.8343C22.9263 38.7971 22.8765 38.7695 22.8227 38.7534C22.7688 38.7374 22.7121 38.7332 22.6564 38.7412L22.2806 38.7389ZM22.6304 38.9334C22.8346 38.9334 22.863 39.0334 22.863 39.1194C22.863 39.2441 22.8095 39.3283 22.5522 39.3283H22.5211V38.9324L22.6304 38.9334ZM23.57 39.4078C23.5696 39.5859 23.5165 39.7599 23.4173 39.9078C23.3181 40.0557 23.1773 40.1709 23.0127 40.2388C22.8481 40.3068 22.667 40.3244 22.4924 40.2895C22.3178 40.2546 22.1574 40.1687 22.0316 40.0427C21.9057 39.9167 21.82 39.7563 21.7853 39.5816C21.7505 39.407 21.7684 39.2259 21.8365 39.0614C21.9046 38.8968 22.0199 38.7561 22.1679 38.6571C22.3159 38.5581 22.49 38.5051 22.6681 38.5049C22.7866 38.5048 22.904 38.5281 23.0136 38.5734C23.1231 38.6188 23.2226 38.6853 23.3064 38.7692C23.3902 38.853 23.4566 38.9526 23.5019 39.0622C23.5471 39.1718 23.5702 39.2893 23.57 39.4078ZM22.6653 38.3124C22.4491 38.3126 22.2379 38.377 22.0583 38.4972C21.8787 38.6175 21.7387 38.7882 21.6561 38.988C21.5735 39.1877 21.5519 39.4075 21.5941 39.6195C21.6363 39.8315 21.7404 40.0262 21.8932 40.1791C22.046 40.3319 22.2407 40.4361 22.4527 40.4784C22.6647 40.5207 22.8844 40.4992 23.0842 40.4167C23.284 40.3342 23.4548 40.1943 23.5751 40.0147C23.6955 39.8352 23.7599 39.624 23.7603 39.4078C23.7599 39.1175 23.6444 38.8391 23.4392 38.6338C23.2339 38.4284 22.9556 38.3129 22.6653 38.3124Z" fill="#FFBE00"/>
</g>
</g>
<defs>
<clipPath id="clip0_1_860">
<rect width="26.0489" height="50" fill="white" transform="translate(0.942383)"/>
</clipPath>
<clipPath id="clip1_1_860">
<rect width="26.0489" height="31" fill="white" transform="translate(0.942383 9.5)"/>
</clipPath>
</defs>
</svg>
