<svg width="83" height="50" viewBox="0 0 83 50" fill="none" xmlns="http://www.w3.org/2000/svg">
<g clip-path="url(#clip0_1_825)">
<g clip-path="url(#clip1_1_825)">
<path d="M14.1064 30.0426L16.234 20H2.12766L0 30.0426H14.1064Z" fill="white"/>
<path d="M10.4894 22.1064C12.1277 22.4893 12.1703 22.8936 12.1703 22.8936C13.2341 22.8936 13.5107 22.8936 13.7022 23.0851C14.3192 23.6596 13.2766 25.0638 13.2766 25.0638C13.149 25.1489 1.4043 29.7447 1.4043 29.7447H13.766L15.7447 20.4042H2.46813C2.46813 20.4042 10.2979 22.0638 10.4894 22.1064Z" fill="#333366"/>
<path d="M11.7021 23.4681C11.5319 23.5532 11.0212 23.6383 10.851 23.6596C10.6808 23.6809 10.5957 23.6809 10.5957 23.7234C10.5957 23.7873 10.8297 23.766 10.9149 23.766C11.2978 23.766 12.8085 23.6596 13.1702 23.7234C13.4468 23.766 13.1276 24.3192 13.0425 24.6596C13.0212 24.7873 13.1063 24.7234 13.1489 24.6596C13.2553 24.4894 13.5532 23.9362 13.5744 23.7234C13.617 23.2979 13.3191 23.2341 12.8085 23.2341H12.0212C11.9574 23.2341 11.9361 23.2553 11.9149 23.2979C11.851 23.3617 11.7446 23.4256 11.7021 23.4681Z" fill="#333366"/>
<path d="M6.80841 26.617L0.489258 29.7447L2.02117 22.5745H8.40415C8.51054 22.5745 11.8297 22.5745 11.8935 23.234H6.14883L7.04245 25.9574C8.06373 25.4681 10.5744 24.4468 12.085 24.383C12.7233 24.3617 12.9786 24.4681 12.851 24.5532C12.7659 24.5957 12.1488 24.6808 11.6595 24.8085C10.8084 25.0213 10.7659 25.0213 9.87224 25.3191C8.87224 25.6596 8.04245 26.0425 6.80841 26.617Z" fill="#333366"/>
<path d="M20.0425 29.9574C17.5744 29.9574 16.1063 28.9787 16.5957 26.7872C17.4042 23 17.9361 20.4681 17.9361 20.4681H19.9999C19.9999 20.4681 18.7446 26.2979 18.7872 26.1702C18.468 27.617 18.7872 28.4894 20.3616 28.4894C21.8723 28.4894 22.6382 27.617 22.9574 26.1702C23.1489 25.3404 24.1701 20.4681 24.1701 20.4681H26.234C24.851 26.7872 26.234 20.4681 24.8723 26.7872C24.3616 28.9574 22.4893 29.9574 20.0425 29.9574Z" fill="#333366"/>
<path d="M37.2549 26.234C36.9358 26.234 36.2549 26.1915 35.9145 26.1277L36.1698 24.7872C36.4251 24.8085 36.7656 24.8511 37.0847 24.8511C38.489 24.8511 38.9996 23.8936 39.106 23.3191C39.3188 22.2979 38.8081 21.9362 38.0634 21.9362H36.3826L34.723 29.7872H32.6592L34.6379 20.4681H39.106C41.1273 20.4681 41.3613 22.234 41.106 23.4042C40.723 25.1489 39.0847 26.234 37.2549 26.234Z" fill="#333366"/>
<path d="M32.8932 21.9574H30.7017C29.574 21.9574 29.0847 22.1915 28.9783 22.6383C28.6591 24.1277 32.6804 25.2979 32.2974 27.5957C32.0847 28.8723 30.9783 29.7872 28.4038 29.7872H25.2549L25.574 28.2979H28.0847C28.8719 28.2979 29.8294 28.3404 29.9996 27.5532C30.2974 26.2128 26.34 24.8936 26.6379 22.6596C26.8294 21.3191 28.0208 20.4681 30.4251 20.4681H33.1911L32.8932 21.9574Z" fill="#333366"/>
<path d="M48.234 21.9574H46.0425C44.9149 21.9574 44.4255 22.1915 44.3191 22.6383C44 24.1277 48.0212 25.2979 47.6383 27.5957C47.4255 28.8723 46.3191 29.7872 43.7446 29.7872H40.5957L40.9149 28.2979H43.4468C44.234 28.2979 45.1914 28.3404 45.3617 27.5532C45.6595 26.2128 41.7021 24.8936 42 22.6596C42.1914 21.3191 43.3829 20.4681 45.7872 20.4681H48.5531L48.234 21.9574Z" fill="#333366"/>
<path d="M48.9362 28.1277C48.4894 28.1277 48.1064 28.4894 48.1064 28.9575C48.1064 29.4043 48.4681 29.7873 48.9362 29.7873C49.383 29.7873 49.766 29.4256 49.766 28.9575C49.766 28.4894 49.383 28.1277 48.9362 28.1277Z" fill="#333366"/>
<path fill-rule="evenodd" clip-rule="evenodd" d="M79.8302 20.4255L77.8089 29.766H76.0855L77.6174 22.8298L73.511 29.766H71.7451L70.7663 23.2766L69.3408 29.766H67.6387L69.6174 20.4255H72.0855L73.128 27.2979L77.128 20.4255H79.8302Z" fill="#333366"/>
<path d="M54.3833 29.9575C53.1493 29.9575 52.0429 29.6809 51.2344 29.0851C50.4259 28.4894 49.9365 27.5532 49.9365 26.2979C49.9365 25.9149 49.9791 25.5107 50.0855 25.0639C50.7663 21.7234 53.5535 20.2341 56.3833 20.2341C57.0642 20.2341 57.8089 20.3192 58.4684 20.4468L58.6174 20.4681L58.277 21.9788L58.1493 21.9575C57.6812 21.9149 57.3621 21.8724 56.9365 21.8724C56.5535 21.8724 56.1918 21.8936 55.7876 21.9362C54.7876 22.0851 54.4897 22.2553 53.9365 22.617C53.1067 23.1277 52.3833 24 52.128 25.149C52.0642 25.4468 52.0216 25.7234 52.0216 25.9788C52.0216 26.8085 52.3621 27.383 52.9578 27.766C53.5323 28.149 54.3833 28.3617 55.3408 28.3617C55.9153 28.3617 56.1918 28.3405 56.745 28.2766L56.9578 28.2553L56.6387 29.7234L56.5323 29.7447C55.7663 29.8724 55.1706 29.9575 54.3833 29.9575Z" fill="#333366"/>
<path d="M63.7876 20.4042C60.9365 20.4042 58.5748 21.8936 57.894 25.1489C57.3408 27.7659 58.9365 29.9149 61.7663 29.9149C64.6387 29.9149 66.9366 28.4893 67.66 25.1489C68.2131 22.4255 66.5961 20.4042 63.7876 20.4042ZM65.7451 25.1702C65.2983 27.5106 63.894 28.5106 62.128 28.5106C60.3834 28.5106 59.4259 27 59.7451 25.1702C60.1706 22.8723 61.6174 21.851 63.3621 21.851C65.1068 21.8298 66.1068 23.2553 65.7451 25.1702Z" fill="#333366"/>
<path d="M80.8514 21.5957C80.8514 21.0426 81.277 20.617 81.8089 20.617C82.3408 20.617 82.7663 21.0426 82.7663 21.5957C82.7663 22.1702 82.3408 22.5957 81.8089 22.5957C81.2557 22.5957 80.8514 22.1702 80.8514 21.5957ZM80.6387 21.5957C80.6387 22.2553 81.1706 22.766 81.8089 22.766C82.4472 22.766 82.9791 22.2553 82.9791 21.5957C82.9791 20.9362 82.4472 20.4468 81.8089 20.4468C81.1706 20.4255 80.6387 20.9362 80.6387 21.5957ZM81.3621 22.2766H81.5748V21.7021H81.8089L82.1706 22.2979H82.4046L82.0217 21.7021C82.2344 21.6809 82.3834 21.5745 82.3834 21.3404C82.3834 21.0851 82.2344 20.9574 81.9153 20.9574H81.3834V22.2766M81.5748 21.0851H81.8514C82.0004 21.0851 82.1493 21.1064 82.1493 21.2979C82.1493 21.5106 81.9791 21.5319 81.7876 21.5319H81.5748V21.0851Z" fill="#333366"/>
</g>
</g>
<defs>
<clipPath id="clip0_1_825">
<rect width="82.9787" height="50" fill="white"/>
</clipPath>
<clipPath id="clip1_1_825">
<rect width="82.9787" height="10" fill="white" transform="translate(0 20)"/>
</clipPath>
</defs>
</svg>
