<?xml version='1.0' encoding='utf-8'?>
<svg xmlns="http://www.w3.org/2000/svg" xmlns:xlink="http://www.w3.org/1999/xlink" viewBox="0 0 45 30" width="45" height="30"><path d="M9.79673 12.5001C10.4614 12.5001 11.0002 13.0389 11.0002 13.7036V18.5002H6.2035C5.53882 18.5002 5 17.9614 5 17.2967V15.9536C5 15.289 5.53882 14.7501 6.2035 14.7501H7.5001V16.6564C7.5001 16.8463 7.65406 17.0002 7.84396 17.0002H8.50013V14.344C8.50013 14.1541 8.34616 14.0002 8.15627 14.0001H5.08596V12.5001H9.79673ZM15.5002 17.0002L15.5003 10H18.0004V18.5002H13.2038C12.5391 18.5002 12.0003 17.9614 12.0003 17.2967V13.7036C12.0003 13.0389 12.5391 12.5001 13.2038 12.5001H14.5002V16.6564C14.5002 16.8463 14.6541 17.0002 14.844 17.0002H15.5002ZM22.5005 17.0002V12.5001H25.0006V19.7965C25.0006 20.4612 24.4618 21 23.7971 21H19.0864V19.2503H22.5005V18.5002H20.2039C19.5392 18.5002 19.0004 17.9614 19.0004 17.2967V12.5001H21.5004V16.6564C21.5004 16.8463 21.6544 17.0002 21.8443 17.0002H22.5005ZM30.7973 12.5001C31.462 12.5001 32.0008 13.0389 32.0008 13.7036V15.0467C32.0008 15.7114 31.462 16.2502 30.7973 16.2502H29.5007V14.344C29.5007 14.1541 29.3468 14.0002 29.1568 14.0002H28.5007V16.6564C28.5007 16.8463 28.6546 17.0002 28.8445 17.0002H31.9148V18.5002H27.2042C26.5395 18.5002 26.0007 17.9614 26.0007 17.2967V12.5001H30.7973ZM37.7976 12.5001C38.4622 12.5001 39.0011 13.0389 39.0011 13.7036V18.5002H36.501V14.344C36.501 14.1548 36.3462 14.0001 36.1571 14.0001H35.5009V18.5002H33.0008V12.5001H37.7976Z" fill="#7C7C7C" />
</svg>