<?xml version='1.0' encoding='utf-8'?>
<svg xmlns="http://www.w3.org/2000/svg" xmlns:xlink="http://www.w3.org/1999/xlink" viewBox="0 0 45 30" width="45" height="30"><path d="M34.5642 17.3702C33.6799 17.3826 32.6362 17.5807 31.8442 18.1363C31.5998 18.3059 31.6426 18.5413 31.9145 18.5101C32.805 18.403 34.7872 18.1627 35.1415 18.6155C35.4967 19.0684 34.7486 20.9366 34.418 21.7722C34.3157 22.0213 34.532 22.1245 34.7603 21.935C36.242 20.694 36.627 18.0923 36.3238 17.7181C36.1718 17.531 35.4484 17.3579 34.5642 17.3702ZM8.20438 18.3176C7.99779 18.346 7.90882 18.6079 8.12482 18.8154C11.8357 22.296 16.7391 24 22.1836 24C26.0669 24 30.575 22.7329 33.6871 20.3456C34.2015 19.9486 33.7633 19.3538 33.2356 19.5888C29.7465 21.1283 25.9568 21.8702 22.5074 21.8702C17.3954 21.8702 12.4467 20.803 8.44307 18.3787C8.35544 18.3256 8.27324 18.3081 8.20438 18.3176Z" fill="#7C7C7C" />
<path d="M15.4558 8L15.2578 8.03331C14.6382 8.11099 14.0408 8.34277 13.5444 8.71793C13.4335 8.78424 13.3342 8.87312 13.2243 8.96217C13.2129 8.94038 13.2021 8.91735 13.2021 8.89556C13.1793 8.77335 13.1684 8.64215 13.1466 8.51994C13.1134 8.321 13.0032 8.22019 12.8043 8.22019H12.2843C11.9641 8.22019 11.9087 8.28787 11.9087 8.59766V18.1898C11.9201 18.3338 12.0076 18.4097 12.1289 18.4211H13.0911C13.2237 18.4211 13.3008 18.3338 13.3112 18.1898C13.3226 18.1452 13.3223 18.1011 13.3223 18.0565V14.7241C13.3669 14.7686 13.4005 14.7911 13.4223 14.8129C14.2294 15.4874 15.1581 15.7076 16.1756 15.5086C17.104 15.3211 17.7443 14.7574 18.1536 13.9285C18.4738 13.2985 18.6048 12.6579 18.6161 11.9616C18.6379 11.1989 18.5718 10.4648 18.2516 9.74671C17.8755 8.86282 17.2352 8.27666 16.2736 8.07771C16.1296 8.04456 15.9754 8.03289 15.8314 8.0111C15.6988 7.99973 15.577 8 15.4558 8ZM22.8182 8C22.7737 8.01137 22.7314 8.0222 22.6869 8.0222C22.2444 8.04399 21.8125 8.09919 21.3824 8.20909C21.1057 8.2754 20.8409 8.37448 20.5756 8.46258C20.4098 8.51753 20.3314 8.63979 20.3314 8.816C20.3428 8.96 20.3314 9.11422 20.3314 9.25822C20.3428 9.47896 20.4319 9.53616 20.6422 9.48026C20.9956 9.39216 21.3491 9.29308 21.7025 9.22677C22.2548 9.1273 22.8189 9.08247 23.3826 9.16016C23.681 9.2151 23.9573 9.29298 24.1449 9.54688C24.3107 9.75719 24.3778 10.0217 24.3892 10.287C24.4005 10.6631 24.4003 10.961 24.4003 11.3361C24.4003 11.3579 24.4005 11.3794 24.3892 11.3898H24.3337C23.8581 11.2685 23.3727 11.2028 22.8867 11.1696C22.378 11.1478 21.8702 11.1701 21.3842 11.3472C20.7988 11.5462 20.3221 11.899 20.0464 12.4741C19.8361 12.9165 19.8025 13.3817 19.8688 13.8563C19.9683 14.4977 20.2784 14.9833 20.8421 15.2921C21.384 15.5906 21.9586 15.6226 22.5555 15.5345C23.2404 15.4351 23.8475 15.148 24.3781 14.7056C24.3999 14.6838 24.4229 14.6737 24.4447 14.6519C24.4778 14.8291 24.5003 14.9953 24.5335 15.1497C24.5553 15.2937 24.6451 15.3807 24.7777 15.3921H25.5179C25.6287 15.3921 25.7288 15.2931 25.7288 15.1719C25.7402 15.1387 25.7399 15.0933 25.7399 15.0498V10.3333C25.7371 10.1447 25.725 9.94539 25.6918 9.75781C25.6037 9.17234 25.3601 8.68541 24.8295 8.37562C24.5311 8.19846 24.2004 8.11046 23.847 8.05551C23.6812 8.03277 23.5262 8.02179 23.3604 8H22.8182ZM26.6503 8.00185C26.5394 8.00185 26.4842 8.1001 26.5059 8.21094C26.5277 8.29999 26.5616 8.40038 26.5948 8.48849C27.4787 10.6769 28.3732 12.8639 29.2685 15.0627C29.3462 15.2503 29.3566 15.4062 29.2685 15.5938C29.1254 15.9244 29.0029 16.2669 28.8485 16.5985C28.7158 16.8969 28.4954 17.1191 28.1638 17.2072C27.9431 17.2631 27.7002 17.2848 27.4681 17.2516C27.3573 17.2403 27.2459 17.2186 27.1351 17.2072C26.9797 17.1959 26.904 17.2616 26.8927 17.4274V17.8715C26.904 18.1263 26.9811 18.2359 27.235 18.2804C27.4784 18.324 27.732 18.356 27.9973 18.3674C28.7704 18.3778 29.3794 18.0705 29.7773 17.396C29.9431 17.1307 30.0761 16.8541 30.1973 16.567C31.2688 13.8594 32.33 11.163 33.391 8.44408C33.4242 8.3664 33.4444 8.28794 33.4558 8.19984C33.4776 8.0672 33.4114 8.00181 33.2911 8.0037H32.3974C32.243 7.99233 32.0989 8.09099 32.044 8.23499C32.0222 8.30131 31.9992 8.35556 31.9774 8.42188L30.3972 12.9422C30.2863 13.2624 30.1639 13.5936 30.053 13.947C30.0303 13.8911 30.02 13.8691 30.0086 13.8359C29.4231 12.2226 28.8492 10.6107 28.2638 8.99733C28.1756 8.73206 28.0764 8.47593 27.977 8.22204C27.9334 8.09983 27.8323 8.01295 27.6883 8.01295C27.3454 8.00158 27.0036 8.00185 26.6503 8.00185ZM15.4447 9.14905C16.1192 9.204 16.6712 9.53589 16.9582 10.3203C17.1354 10.8063 17.1803 11.2752 17.1803 11.7839C17.1803 12.2595 17.1476 12.68 17.0045 13.1328C16.6947 14.0944 15.9868 14.4698 15.0802 14.4262C14.4388 14.393 13.8977 14.1486 13.389 13.7952C13.334 13.7621 13.3008 13.7087 13.3112 13.6528V9.90029C13.3008 9.83397 13.334 9.77987 13.389 9.74671C14.0076 9.31566 14.6925 9.09411 15.4447 9.14905ZM22.6147 12.1336C22.8039 12.1171 22.9947 12.1206 23.1827 12.1429C23.5589 12.176 23.9353 12.2415 24.3115 12.2965C24.3891 12.3078 24.4095 12.3412 24.4095 12.4075C24.3981 12.6292 24.4095 12.839 24.4095 13.0607C24.4095 13.2814 24.3984 13.481 24.3984 13.7027C24.4098 13.7577 24.3763 13.8009 24.3318 13.8341C23.8231 14.1988 23.2706 14.4431 22.6406 14.5095C22.3867 14.5312 22.1319 14.5312 21.8894 14.4317C21.6127 14.3323 21.4046 14.0996 21.3269 13.823C21.2388 13.5359 21.239 13.2376 21.3158 12.9496C21.437 12.5735 21.7016 12.365 22.0559 12.2428C22.2383 12.1874 22.4255 12.1502 22.6147 12.1336Z" fill="#7C7C7C" />
</svg>