<?xml version='1.0' encoding='utf-8'?>
<svg xmlns="http://www.w3.org/2000/svg" xmlns:xlink="http://www.w3.org/1999/xlink" viewBox="0 0 46 30" width="46" height="30"><path fill-rule="evenodd" clip-rule="evenodd" d="M15.2178 18.8202C15.1495 18.9208 15.0359 18.9809 14.9139 18.9809H13.8179C13.666 18.9809 13.5318 18.8895 13.4759 18.7482L13.0798 17.7443H9.99446L9.6036 18.7469C9.54825 18.8891 9.41379 18.981 9.26107 18.981H8.16749C8.04607 18.981 7.93262 18.9211 7.86393 18.8208C7.79533 18.7204 7.78084 18.5929 7.82496 18.4797L10.6359 11.267C10.6912 11.1248 10.8257 11.0329 10.9785 11.0329H12.068C12.2198 11.0329 12.3541 11.1243 12.41 11.2656L15.2559 18.4784C15.3007 18.5916 15.2864 18.7194 15.2178 18.8202ZM12.3381 15.864H10.7272L11.5276 13.8101L12.3381 15.864Z" fill="#7C7C7C" />
<path d="M22.9338 18.5544C22.9338 18.7571 22.7689 18.9221 22.5662 18.9221H21.6208C21.4181 18.9221 21.2532 18.7571 21.2532 18.5544V15.3944L19.6425 18.5776C19.5796 18.7019 19.4542 18.7791 19.315 18.7793C19.1756 18.7793 19.0501 18.7024 18.987 18.5787L17.3602 15.3862V18.5545C17.3602 18.7573 17.1953 18.9222 16.9926 18.9222H16.0472C15.8445 18.9222 15.6796 18.7573 15.6796 18.5545V11.4217C15.6796 11.2189 15.8445 11.054 16.0472 11.054H16.8091C16.9478 11.054 17.0733 11.1308 17.1365 11.2545L19.3101 15.5123L21.464 11.2557C21.5269 11.1313 21.6526 11.054 21.7921 11.054H22.5662C22.7689 11.054 22.9338 11.2189 22.9338 11.4217V18.5544Z" fill="#7C7C7C" />
<path d="M31.0922 18.6324C31.0922 18.8351 30.9273 19 30.7246 19H26.2078C26.0051 19 25.8402 18.8351 25.8402 18.6324V11.4926C25.8402 11.2898 26.0051 11.1249 26.2078 11.1249H30.5992C30.8019 11.1249 30.9668 11.2898 30.9668 11.4926V12.3627C30.9668 12.5654 30.8019 12.7304 30.5992 12.7304H27.4457V14.2597H30.0143C30.217 14.2597 30.3819 14.4247 30.3819 14.6274V15.4975C30.3819 15.7003 30.217 15.8652 30.0143 15.8652H27.4457V17.3946H30.7247C30.9274 17.3946 31.0923 17.5595 31.0923 17.7622L31.0922 18.6324Z" fill="#7C7C7C" />
<path d="M38.0038 18.3578L37.238 18.9121C37.1747 18.9578 37.1003 18.9819 37.0223 18.9819C37.0028 18.9819 36.9834 18.9804 36.9639 18.9772C36.8686 18.962 36.7812 18.9083 36.7244 18.8297L34.8979 16.3065L33.0795 18.8286C33.0232 18.9069 32.9359 18.9609 32.8402 18.9765C32.7479 18.9923 32.6457 18.9691 32.5663 18.9117L31.7997 18.3589C31.7199 18.3015 31.6674 18.2165 31.6518 18.1196C31.6361 18.0226 31.659 17.9253 31.7165 17.8457L33.8607 14.8715L31.8949 12.1343C31.7768 11.9695 31.8146 11.7394 31.9792 11.6212L32.7469 11.0699C32.8099 11.0247 32.884 11.0008 32.9612 11.0008C33.0794 11.0008 33.191 11.058 33.26 11.154L34.8981 13.435L36.5438 11.1526C36.6014 11.073 36.6861 11.0205 36.7831 11.0049C36.8816 10.9889 36.9784 11.0127 37.057 11.0697L37.8236 11.6224C37.9034 11.6798 37.9559 11.7648 37.9715 11.8618C37.9872 11.9587 37.9643 12.056 37.9068 12.1356L35.9342 14.8715L38.0858 17.8442C38.2048 18.0086 38.1679 18.2389 38.0038 18.3578Z" fill="#7C7C7C" />
</svg>