<?xml version='1.0' encoding='utf-8'?>
<svg xmlns="http://www.w3.org/2000/svg" xmlns:xlink="http://www.w3.org/1999/xlink" viewBox="0 0 46 30" width="46" height="30"><path fill-rule="evenodd" clip-rule="evenodd" d="M14.4417 11.4181C14.1312 11.7897 13.6343 12.0828 13.1374 12.0409C13.0753 11.5385 13.3185 11.0047 13.6032 10.6751C13.9137 10.2931 14.4572 10.0209 14.8972 10C14.949 10.5233 14.7471 11.0362 14.4417 11.4181ZM14.892 12.1404C14.4543 12.1149 14.0549 12.2735 13.7322 12.4015C13.5246 12.484 13.3488 12.5538 13.215 12.5538C13.0649 12.5538 12.8818 12.4802 12.6763 12.3976C12.407 12.2895 12.099 12.1658 11.7761 12.1717C11.036 12.1822 10.3476 12.6061 9.96973 13.2811C9.19333 14.6313 9.76788 16.6304 10.5184 17.7293C10.8859 18.2735 11.3258 18.8702 11.9055 18.8492C12.1606 18.8395 12.344 18.7608 12.5339 18.6793C12.7524 18.5855 12.9795 18.4881 13.334 18.4881C13.6763 18.4881 13.8935 18.583 14.1019 18.6741C14.3001 18.7607 14.4904 18.8438 14.7729 18.8387C15.3734 18.8283 15.7512 18.2945 16.1187 17.7502C16.5153 17.1661 16.6895 16.5961 16.716 16.5096L16.7191 16.4995C16.7191 16.4995 16.7136 16.4966 16.7049 16.4926C16.5723 16.4312 15.5591 15.9623 15.5493 14.7046C15.5396 13.649 16.353 13.1141 16.4811 13.0299C16.4889 13.0247 16.4942 13.0213 16.4965 13.0195C15.9789 12.245 15.1715 12.1613 14.892 12.1404ZM19.0482 18.7812V10.6228H22.0761C23.6393 10.6228 24.7314 11.7112 24.7314 13.3021C24.7314 14.893 23.6185 15.9919 22.0348 15.9919H20.3008V18.7812H19.0482ZM20.3008 11.6903H21.7449C22.8318 11.6903 23.4529 12.2764 23.4529 13.3073C23.4529 14.3383 22.8318 14.9296 21.7397 14.9296H20.3008V11.6903ZM28.8669 17.8026C28.5356 18.441 27.8058 18.844 27.0191 18.844C25.8545 18.844 25.0419 18.1427 25.0419 17.0857C25.0419 16.039 25.8287 15.4372 27.2831 15.3482L28.8462 15.254V14.804C28.8462 14.1394 28.4166 13.7783 27.6506 13.7783C27.0191 13.7783 26.5585 14.108 26.4653 14.6104H25.3369C25.3732 13.5533 26.3566 12.784 27.6868 12.784C29.1205 12.784 30.0522 13.5428 30.0522 14.7203V18.7812H28.8928V17.8026H28.8669ZM27.3555 17.8759C26.6879 17.8759 26.2634 17.5514 26.2634 17.0542C26.2634 16.5414 26.6723 16.2431 27.4539 16.196L28.8462 16.107V16.5676C28.8462 17.3316 28.2044 17.8759 27.3555 17.8759ZM33.8979 19.1004C33.3958 20.529 32.8213 21 31.5997 21C31.5066 21 31.1961 20.9895 31.1235 20.9686V19.99C31.2012 20.0005 31.3927 20.0109 31.4911 20.0109C32.0449 20.0109 32.3555 19.7755 32.5469 19.1632L32.6608 18.8021L30.5387 12.8625H31.8482L33.3233 17.6822H33.3492L34.8243 12.8625H36.0976L33.8979 19.1004Z" fill="#7C7C7C" />
</svg>