<?xml version='1.0' encoding='utf-8'?>
<svg xmlns="http://www.w3.org/2000/svg" xmlns:xlink="http://www.w3.org/1999/xlink" viewBox="0 0 45 30" width="45" height="30"><path d="M32.6986 17.419C31.363 22.7762 25.937 26.0365 20.5792 24.7006C15.2236 23.365 11.9633 17.9387 13.2995 12.582C14.6345 7.22419 20.0604 3.96366 25.4166 5.29923C30.7741 6.63481 34.0341 12.0617 32.6984 17.4191L32.6985 17.419H32.6986Z" fill="#7C7C7C" />
<path fill-rule="evenodd" clip-rule="evenodd" d="M23.0002 11.3467L20.4107 13.9361L20.4108 13.936L18.9042 12.4293L23.0002 8.33334L27.0975 12.4306L25.5908 13.9372L23.0002 11.3467ZM17.8402 13.4931L16.3335 15L17.8401 16.5064L19.3468 14.9997L17.8402 13.4931ZM20.4107 16.0641L23.0002 18.6533L25.5908 16.0628L27.0982 17.5687L27.0975 17.5695L23.0002 21.6667L18.9042 17.5707L18.902 17.5685L20.4107 16.0641ZM28.1602 13.4939L26.6535 15.0007L28.1602 16.5073L29.6668 15.0006L28.1602 13.4939Z" fill="#141519" />
<path d="M24.528 14.9992H24.5286L22.9999 13.4703L21.8699 14.6L21.7401 14.7299L21.4723 14.9976L21.4702 14.9997L21.4723 15.0019L22.9999 16.5296L24.5287 15.0008L24.5295 14.9999L24.5281 14.9992" fill="#141519" />
</svg>