<?xml version='1.0' encoding='utf-8'?>
<svg xmlns="http://www.w3.org/2000/svg" xmlns:xlink="http://www.w3.org/1999/xlink" viewBox="0 0 46 30" width="46" height="30"><path d="M31.5002 8.60358C31.3091 8.07811 31.0052 7.60089 30.6098 7.20552C30.2144 6.81014 29.7372 6.50622 29.2117 6.31513C28.2288 6 27.3359 6 25.5202 6H20.0729C18.2722 6 17.3643 6 16.3964 6.30013C15.8701 6.49201 15.3924 6.79708 14.997 7.1938C14.6016 7.59052 14.2981 8.06922 14.1079 8.59608C13.8003 9.57149 13.8003 10.4719 13.8003 12.2726V17.7274C13.8003 19.5356 13.8003 20.4285 14.1004 21.4039C14.2915 21.9294 14.5954 22.4066 14.9908 22.802C15.3862 23.1974 15.8634 23.5013 16.3889 23.6924C17.3643 24 18.2647 24 20.0654 24H25.5277C27.3359 24 28.2363 24 29.2042 23.6999C29.7318 23.5089 30.211 23.2043 30.6078 22.8075C31.0046 22.4107 31.3092 21.9315 31.5002 21.4039C31.8078 20.4285 31.8078 19.5281 31.8078 17.7274V12.2876C31.8078 10.4794 31.8078 9.57899 31.5002 8.60358ZM26.8707 12.0775L26.1729 12.7753C26.1049 12.8386 26.0159 12.8744 25.923 12.8757C25.8302 12.8771 25.7401 12.844 25.6702 12.7828C24.9945 12.2121 24.1388 11.8985 23.2542 11.8975C22.5264 11.8975 21.7986 12.1376 21.7986 12.8053C21.7986 13.4806 22.5789 13.7057 23.4793 14.0434C25.055 14.5686 26.3605 15.2288 26.3605 16.7745C26.3605 18.4552 25.055 19.6107 22.9241 19.7382L22.729 20.6386C22.7118 20.7213 22.6665 20.7956 22.6009 20.8489C22.5353 20.9022 22.4534 20.9313 22.3689 20.9312H21.0258L20.9583 20.9237C20.8621 20.9021 20.7784 20.8436 20.725 20.7608C20.6717 20.678 20.653 20.5775 20.6732 20.481L20.8832 19.5281C20.0746 19.3254 19.3309 18.92 18.7223 18.3501V18.3426C18.6888 18.3092 18.6621 18.2694 18.6439 18.2256C18.6258 18.1819 18.6164 18.1349 18.6164 18.0875C18.6164 18.0401 18.6258 17.9932 18.6439 17.9494C18.6621 17.9056 18.6888 17.8659 18.7223 17.8324L19.4727 17.1046C19.5408 17.0408 19.6307 17.0053 19.724 17.0053C19.8174 17.0053 19.9072 17.0408 19.9754 17.1046C20.6581 17.7499 21.5735 18.11 22.5189 18.095C23.4943 18.095 24.1471 17.6824 24.1471 17.0296C24.1471 16.3768 23.4868 16.2043 22.2413 15.7391C20.9208 15.2664 19.6677 14.5986 19.6677 13.0379C19.6677 11.2222 21.1759 10.3368 22.9616 10.2543L23.1492 9.33139C23.1666 9.24937 23.2122 9.17601 23.2779 9.12396C23.3437 9.07191 23.4255 9.04443 23.5093 9.04627H24.8449L24.9199 9.05377C25.115 9.09879 25.2426 9.28637 25.1975 9.48145L24.995 10.5094C25.6702 10.7345 26.308 11.0871 26.8557 11.5523L26.8707 11.5673C27.0133 11.7174 27.0133 11.9425 26.8707 12.0775Z" fill="#7C7C7C" />
</svg>