<?xml version='1.0' encoding='utf-8'?>
<svg xmlns="http://www.w3.org/2000/svg" xmlns:xlink="http://www.w3.org/1999/xlink" viewBox="0 0 46 30" width="46" height="30"><path fill-rule="evenodd" clip-rule="evenodd" d="M16.5059 14.9841C16.5059 16.6415 17.8073 17.9266 19.4822 17.9266C19.9556 17.9266 20.3611 17.8335 20.8611 17.598V16.3034C20.4215 16.7434 20.032 16.921 19.5333 16.921C18.4256 16.921 17.6393 16.1177 17.6393 14.9758C17.6393 13.8933 18.4504 13.0393 19.4822 13.0393C20.0067 13.0393 20.4039 13.2265 20.8611 13.6737V12.3797C20.3784 12.1348 19.9815 12.0333 19.5081 12.0333C17.8417 12.0333 16.5059 13.3445 16.5059 14.9841ZM13.6833 13.6146C13.6833 13.9193 13.877 14.0803 14.5371 14.3246C15.7881 14.7823 16.1589 15.1877 16.1589 16.0837C16.1589 17.1751 15.357 17.9352 14.2142 17.9352C13.3772 17.9352 12.7685 17.6056 12.2618 16.8617L12.9724 16.1774C13.2256 16.6671 13.6482 16.9296 14.1728 16.9296C14.6636 16.9296 15.0268 16.5911 15.0268 16.1342C15.0268 15.8974 14.9168 15.6942 14.697 15.5506C14.5865 15.4826 14.3673 15.3816 13.9366 15.2295C12.9036 14.8578 12.5494 14.46 12.5494 13.6832C12.5494 12.7604 13.3103 12.0676 14.3081 12.0676C14.9264 12.0676 15.4921 12.2789 15.965 12.6926L15.3895 13.4462C15.103 13.1251 14.832 12.9895 14.5026 12.9895C14.0286 12.9895 13.6833 13.2595 13.6833 13.6146ZM10.7477 17.7996H11.8476V12.1608H10.7477V17.7996ZM8.49946 16.3967C8.15396 16.7089 7.70497 16.845 6.99434 16.845H6.69915V13.116H6.99434C7.70497 13.116 8.13631 13.2433 8.49946 13.5723C8.87983 13.9108 9.10858 14.4358 9.10858 14.9759C9.10858 15.5172 8.87983 16.0582 8.49946 16.3967ZM7.21459 12.1608H5.6001V17.7994H7.20609C8.06006 17.7994 8.67658 17.5981 9.21794 17.1485C9.86125 16.6163 10.2416 15.814 10.2416 14.9841C10.2416 13.32 8.99835 12.1608 7.21459 12.1608ZM28.0784 12.1608L29.582 15.9483L31.1052 12.1608H32.2975L29.8615 17.9443H29.2696L26.8768 12.1608H28.0784ZM32.7949 17.7995H35.9141V16.8449H33.8939V15.3228H35.8398V14.3677H33.8939V13.1162H35.9141V12.1607H32.7949V17.7995ZM37.7411 14.7567H38.0624C38.765 14.7567 39.1373 14.4515 39.1373 13.8847C39.1373 13.3359 38.765 13.049 38.0798 13.049H37.7411V14.7567ZM38.2735 12.1606C39.5419 12.1606 40.269 12.7697 40.269 13.8254C40.269 14.6888 39.8129 15.2556 38.9844 15.424L40.7596 17.7995H39.407L37.8847 15.5342H37.7411V17.7995H36.6425V12.1606H38.2735Z" fill="#7C7C7C" />
<path fill-rule="evenodd" clip-rule="evenodd" d="M26.7471 16.6161C27.6398 15.2201 27.2321 13.3657 25.8364 12.4731C24.4406 11.5805 22.5858 11.988 21.6931 13.3839C20.8006 14.7794 21.2085 16.6345 22.6042 17.5271C24 18.4197 25.8546 18.0116 26.7471 16.6161Z" fill="#7C7C7C" />
</svg>