<?xml version='1.0' encoding='utf-8'?>
<svg xmlns="http://www.w3.org/2000/svg" xmlns:xlink="http://www.w3.org/1999/xlink" viewBox="0 0 46 30" width="46" height="30"><path fill-rule="evenodd" clip-rule="evenodd" d="M13.6001 15C13.6001 9.47715 18.0772 5 23.6001 5H23.6582C26.3026 5.00769 28.8357 6.06559 30.7002 7.94096C32.5646 9.81632 33.6077 12.3555 33.6 15C33.6 20.5228 29.1229 25 23.6001 25C18.0772 25 13.6001 20.5228 13.6001 15ZM22.7284 18.8499L23.7695 15.339L25.3918 14.8789L25.7308 13.7167L24.1327 14.201L25.8276 8.43824V8.34623C25.8251 8.27172 25.7931 8.20128 25.7386 8.15041C25.6841 8.09955 25.6116 8.07243 25.5371 8.07505H23.3821C23.2143 8.06987 23.0645 8.17973 23.0189 8.34139L21.0093 15.1695L19.4112 15.6537L19.048 16.7675L20.6461 16.2833L19.2175 21.1501H27.7405C27.9089 21.1571 28.0597 21.0465 28.1037 20.8838L28.5879 19.2131V19.121C28.5854 19.0465 28.5534 18.9761 28.4989 18.9252C28.4444 18.8744 28.3719 18.8472 28.2974 18.8499H22.7284Z" fill="#7C7C7C" />
</svg>