<?xml version='1.0' encoding='utf-8'?>
<svg xmlns="http://www.w3.org/2000/svg" xmlns:xlink="http://www.w3.org/1999/xlink" viewBox="0 0 46 30" width="46" height="30"><path d="M25.9265 21.3974H19.3154V9.60455H25.9265V21.3974Z" fill="#909090" />
<path d="M19.739 15.5C19.739 13.1078 20.8674 10.9768 22.6247 9.60356C21.3396 8.59937 19.7178 8 17.9552 8C13.7824 8 10.3999 11.3578 10.3999 15.5C10.3999 19.6422 13.7824 23 17.9552 23C19.7178 23 21.3396 22.4007 22.6247 21.3965C20.8674 20.0232 19.739 17.8922 19.739 15.5Z" fill="#7C7C7C" />
<path d="M34.843 15.5C34.843 19.6422 31.4604 23 27.2877 23C25.525 23 23.9032 22.4007 22.6177 21.3965C24.3755 20.0232 25.5039 17.8922 25.5039 15.5C25.5039 13.1078 24.3755 10.9768 22.6177 9.60356C23.9032 8.59937 25.525 8 27.2877 8C31.4604 8 34.843 11.3578 34.843 15.5Z" fill="#7C7C7C" />
</svg>