<?xml version='1.0' encoding='utf-8'?>
<svg xmlns="http://www.w3.org/2000/svg" xmlns:xlink="http://www.w3.org/1999/xlink" viewBox="0 0 46 30" width="46" height="30"><g clip-path="url(#clip0_1_254)">
<path d="M25.9639 9.82211H19.4189V21.1779H25.9639V9.82211Z" fill="#909090" />
<path d="M19.8352 15.5006C19.8347 14.4042 20.0916 13.323 20.5852 12.3439C21.0856 11.3535 21.8062 10.4909 22.6919 9.82227C21.5786 8.98107 20.2558 8.46139 18.8677 8.31977C17.4751 8.17483 16.0693 8.41162 14.801 9.00477C13.5484 9.58844 12.4843 10.5114 11.7294 11.6689C10.987 12.8092 10.5911 14.1401 10.5894 15.5006C10.5894 16.8556 10.9844 18.1839 11.7294 19.3323C12.4841 20.4897 13.5479 21.4126 14.8002 21.9964C16.0687 22.5897 17.4748 22.8265 18.8677 22.6814C20.2558 22.5398 21.5786 22.0201 22.6919 21.1789C21.8066 20.5105 21.0863 19.6481 20.586 18.6581C20.092 17.6789 19.8348 16.5974 19.8352 15.5006Z" fill="#7C7C7C" />
<path d="M34.7939 15.4999C34.7939 16.8549 34.3989 18.1832 33.6547 19.3315C32.8999 20.4891 31.8358 21.4121 30.5831 21.9957C29.3148 22.5889 27.909 22.8257 26.5164 22.6807C25.128 22.5392 23.8049 22.0195 22.6914 21.1782C23.5761 20.5091 24.2961 19.6465 24.7964 18.6565C25.2904 17.6775 25.5481 16.5964 25.5489 15.4999C25.5482 14.4036 25.2908 13.3228 24.7972 12.344C24.297 11.3537 23.577 10.4909 22.6922 9.82152C23.8053 8.98046 25.1277 8.46078 26.5156 8.31902C27.9084 8.17392 29.3145 8.41072 30.5831 9.00402C31.8357 9.58769 32.8998 10.5106 33.6547 11.6682C34.3968 12.8085 34.7924 14.1394 34.7939 15.4999ZM34.0806 19.9774V19.744H34.1772V19.6974H33.9306V19.744H34.0272V19.9774H34.0806ZM34.5606 19.9774V19.6965H34.4847L34.3972 19.8899L34.3097 19.6965H34.2347V19.9774H34.2881V19.7657L34.3697 19.9482H34.4256L34.5072 19.7649V19.9774H34.5606Z" fill="#7C7C7C" />
</g>
<defs>
<clipPath id="clip0_1_254">
<rect width="25" height="15" fill="white" transform="translate(10.2002 8)" />
</clipPath>
</defs>
</svg>