<?xml version='1.0' encoding='utf-8'?>
<svg xmlns="http://www.w3.org/2000/svg" xmlns:xlink="http://www.w3.org/1999/xlink" viewBox="0 0 46 30" width="46" height="30"><path d="M11.3697 10.4561C10.9277 10.1523 10.3508 9.99994 9.6392 9.99994H6.88418C6.66603 9.99994 6.54551 10.109 6.52261 10.327L5.40342 17.3524C5.39178 17.4214 5.40905 17.4845 5.45505 17.5418C5.50078 17.5993 5.55831 17.6279 5.6272 17.6279H6.93582C7.16534 17.6279 7.2915 17.519 7.31465 17.3008L7.62454 15.4068C7.63586 15.315 7.67623 15.2404 7.74512 15.1829C7.81396 15.1256 7.90007 15.088 8.00338 15.0708C8.10669 15.0538 8.20411 15.0452 8.29611 15.0452C8.38785 15.0452 8.49685 15.051 8.62332 15.0624C8.74948 15.0739 8.8299 15.0794 8.86437 15.0794C9.85151 15.0794 10.6263 14.8013 11.1889 14.2444C11.7512 13.6877 12.0327 12.9158 12.0327 11.9284C12.0327 11.2512 11.8115 10.7605 11.3697 10.4561ZM9.9492 12.5656C9.89162 12.9674 9.74257 13.2313 9.50152 13.3576C9.26042 13.4841 8.91605 13.5469 8.46843 13.5469L7.90017 13.5642L8.19296 11.7218C8.2158 11.5956 8.29038 11.5324 8.41674 11.5324H8.744C9.20294 11.5324 9.53604 11.5986 9.74267 11.7304C9.9492 11.8625 10.0181 12.141 9.9492 12.5656Z" fill="#7C7C7C" />
<path d="M40.4441 9.99994H39.17C39.0434 9.99994 38.9689 10.0631 38.9461 10.1894L37.8268 17.3524L37.8096 17.3868C37.8096 17.4445 37.8326 17.4987 37.8786 17.5504C37.9243 17.602 37.9819 17.6278 38.0507 17.6278H39.1872C39.405 17.6278 39.5256 17.519 39.5489 17.3007L40.6681 10.2581V10.241C40.668 10.0803 40.5932 9.99994 40.4441 9.99994Z" fill="#7C7C7C" />
<path d="M25.0503 12.7719C25.0503 12.7146 25.0272 12.66 24.9816 12.6084C24.9355 12.5568 24.8838 12.5309 24.8266 12.5309H23.5007C23.3742 12.5309 23.2709 12.5885 23.1908 12.703L21.3656 15.3893L20.608 12.8064C20.5504 12.6229 20.4242 12.5309 20.2292 12.5309H18.9376C18.8801 12.5309 18.8284 12.5567 18.7828 12.6084C18.7367 12.66 18.7139 12.7147 18.7139 12.7719C18.7139 12.7951 18.8258 13.1335 19.0496 13.7878C19.2734 14.4422 19.5145 15.1482 19.7728 15.906C20.0311 16.6635 20.1658 17.0655 20.1774 17.1111C19.2361 18.3969 18.7655 19.0857 18.7655 19.1773C18.7655 19.3267 18.8401 19.4012 18.9893 19.4012H20.3152C20.4415 19.4012 20.5447 19.344 20.6252 19.2291L25.016 12.8924C25.0388 12.8696 25.0503 12.8296 25.0503 12.7719Z" fill="#7C7C7C" />
<path d="M37.3961 12.5314H36.0874C35.9266 12.5314 35.8293 12.7208 35.7949 13.0996C35.4961 12.6407 34.9512 12.4108 34.159 12.4108C33.3325 12.4108 32.6292 12.7208 32.0497 13.3407C31.4699 13.9606 31.1802 14.6897 31.1802 15.5275C31.1802 16.205 31.3781 16.7444 31.7741 17.146C32.1702 17.5481 32.7011 17.7487 33.367 17.7487C33.6998 17.7487 34.0385 17.6797 34.3828 17.5421C34.7272 17.4044 34.9968 17.2208 35.1922 16.9911C35.1922 17.0026 35.1805 17.0542 35.1578 17.146C35.1346 17.238 35.1233 17.307 35.1233 17.3526C35.1233 17.5365 35.1977 17.6281 35.3472 17.6281H36.5354C36.7532 17.6281 36.8796 17.5193 36.914 17.301L37.62 12.8069C37.6314 12.738 37.6141 12.675 37.5684 12.6175C37.5223 12.5602 37.465 12.5314 37.3961 12.5314ZM35.1491 15.9235C34.8564 16.2105 34.5034 16.354 34.0902 16.354C33.7571 16.354 33.4876 16.2623 33.2809 16.0785C33.0742 15.8951 32.9709 15.6425 32.9709 15.3209C32.9709 14.8964 33.1144 14.5375 33.4014 14.2447C33.6881 13.952 34.0442 13.8056 34.469 13.8056C34.7901 13.8056 35.0571 13.9004 35.2696 14.0897C35.4819 14.2791 35.5883 14.5404 35.5883 14.8733C35.5882 15.2865 35.4418 15.6367 35.1491 15.9235Z" fill="#7C7C7C" />
<path d="M17.8352 12.5314H16.5266C16.3657 12.5314 16.2683 12.7208 16.2338 13.0996C15.9239 12.6407 15.3786 12.4108 14.598 12.4108C13.7715 12.4108 13.0683 12.7208 12.4887 13.3407C11.9089 13.9606 11.6191 14.6897 11.6191 15.5275C11.6191 16.205 11.8172 16.7444 12.2132 17.146C12.6093 17.5481 13.1401 17.7487 13.806 17.7487C14.1272 17.7487 14.4603 17.6797 14.8046 17.5421C15.149 17.4044 15.4245 17.2208 15.6311 16.9911C15.5851 17.1288 15.5622 17.2494 15.5622 17.3526C15.5622 17.5365 15.6368 17.6281 15.7861 17.6281H16.9742C17.1921 17.6281 17.3185 17.5193 17.353 17.301L18.0589 12.8069C18.0703 12.738 18.0531 12.675 18.0073 12.6175C17.9614 12.5602 17.9041 12.5314 17.8352 12.5314ZM15.5881 15.9321C15.2954 16.2136 14.9365 16.354 14.512 16.354C14.1789 16.354 13.912 16.2623 13.7113 16.0785C13.5103 15.8951 13.4099 15.6425 13.4099 15.3209C13.4099 14.8964 13.5533 14.5375 13.8404 14.2447C14.1272 13.952 14.4831 13.8056 14.908 13.8056C15.2292 13.8056 15.4961 13.9004 15.7087 14.0897C15.9209 14.2791 16.0272 14.5404 16.0272 14.8733C16.0272 15.298 15.8809 15.6511 15.5881 15.9321Z" fill="#7C7C7C" />
<path d="M30.9303 10.4561C30.4883 10.1523 29.9115 9.99994 29.1998 9.99994H26.462C26.2323 9.99994 26.106 10.109 26.0832 10.327L24.964 17.3523C24.9523 17.4213 24.9695 17.4844 25.0156 17.5418C25.0612 17.5993 25.1189 17.6278 25.1878 17.6278H26.5996C26.7374 17.6278 26.8292 17.5533 26.8752 17.404L27.1851 15.4068C27.1965 15.315 27.2367 15.2403 27.3057 15.1829C27.3746 15.1255 27.4606 15.088 27.564 15.0708C27.6672 15.0537 27.7647 15.0451 27.8567 15.0451C27.9485 15.0451 28.0575 15.0509 28.1838 15.0623C28.31 15.0738 28.3906 15.0794 28.4248 15.0794C29.4121 15.0794 30.1868 14.8012 30.7494 14.2444C31.3119 13.6877 31.5931 12.9157 31.5931 11.9284C31.5932 11.2512 31.3721 10.7605 30.9303 10.4561ZM29.1653 13.2887C28.9128 13.4609 28.5339 13.5469 28.0289 13.5469L27.4779 13.5642L27.7707 11.7218C27.7934 11.5956 27.868 11.5324 27.9945 11.5324H28.3043C28.5568 11.5324 28.7577 11.5439 28.9071 11.5668C29.0561 11.59 29.1998 11.6615 29.3375 11.782C29.4754 11.9026 29.5442 12.0777 29.5442 12.3073C29.5442 12.7894 29.4177 13.1165 29.1653 13.2887Z" fill="#7C7C7C" />
</svg>