<?xml version='1.0' encoding='utf-8'?>
<svg xmlns="http://www.w3.org/2000/svg" xmlns:xlink="http://www.w3.org/1999/xlink" viewBox="0 0 46 30" width="46" height="30"><path fill-rule="evenodd" clip-rule="evenodd" d="M12.726 13.1898H10.2235C10.2235 12.779 10.1752 12.5032 10.0792 12.3628C9.93033 12.1552 9.51921 12.0512 8.8465 12.0512C8.1932 12.0512 7.76004 12.111 7.54871 12.2307C7.33747 12.3508 7.23177 12.6121 7.23177 13.0142C7.23177 13.3783 7.32535 13.618 7.51302 13.7329C7.64755 13.8144 7.82514 13.8624 8.04672 13.8766L8.55134 13.9123C9.63297 13.9841 10.3085 14.0347 10.578 14.0635C11.4333 14.1497 12.0533 14.3773 12.4381 14.7462C12.7409 15.034 12.9214 15.41 12.9791 15.8744C13.0127 16.1522 13.0295 16.4666 13.0295 16.8158C13.0295 17.6209 12.9527 18.2105 12.7989 18.5842C12.5203 19.2698 11.8944 19.7028 10.9205 19.8846C10.5124 19.9615 9.8882 20 9.04867 20C7.64713 20 6.67044 19.9165 6.11896 19.7487C5.4421 19.5432 4.99588 19.1269 4.77992 18.4998C4.65963 18.1508 4.6001 17.5696 4.6001 16.7559H7.10258C7.10258 16.8466 7.10284 16.916 7.10284 16.9638C7.10284 17.398 7.22761 17.6773 7.47657 17.8017C7.64908 17.8875 7.85743 17.9325 8.10233 17.9378H9.02231C9.49183 17.9378 9.79148 17.9138 9.92067 17.8655C10.1507 17.775 10.3017 17.6293 10.3738 17.4276C10.4122 17.3035 10.4312 17.1429 10.4312 16.9464C10.4312 16.5061 10.2705 16.2382 9.94983 16.1422C9.82988 16.1042 9.27186 16.0513 8.27585 15.9842C7.47607 15.9271 6.9205 15.8721 6.60932 15.8188C5.78998 15.6655 5.24396 15.3502 4.97151 14.8715C4.73202 14.4647 4.61222 13.8492 4.61222 13.026C4.61222 12.399 4.67697 11.8963 4.80635 11.5181C4.93585 11.1398 5.14454 10.8527 5.43252 10.6562C5.85437 10.3548 6.39421 10.1778 7.0513 10.1249C7.59805 10.0772 8.20456 10.0529 8.87176 10.0529C9.92203 10.0529 10.6705 10.1132 11.1168 10.233C12.2058 10.5257 12.7502 11.3457 12.7502 12.6932C12.7502 12.8037 12.7421 12.9689 12.726 13.1898Z" fill="#7C7C7C" />
<path fill-rule="evenodd" clip-rule="evenodd" d="M26.4205 15.0984H28.0974C28.6292 15.0793 28.9526 15.0383 29.0689 14.9743C29.2279 14.8868 29.3346 14.7118 29.3878 14.4491C29.4217 14.2743 29.4386 14.0144 29.4386 13.6692C29.4386 13.2462 29.405 12.9328 29.3371 12.728C29.2404 12.4411 29.0087 12.2664 28.6416 12.203C28.5692 12.1934 28.3954 12.1884 28.1201 12.1884H26.4205V15.0984ZM23.7305 20V10H28.7422C29.4295 10 29.9541 10.0562 30.3145 10.1683C31.1388 10.4268 31.6918 10.9558 31.9751 11.7554C32.1213 12.1751 32.1945 12.8069 32.1945 13.6506C32.1945 14.6649 32.1134 15.3939 31.9529 15.8377C31.6315 16.7154 30.9698 17.2209 29.9706 17.3519C29.8531 17.3715 29.3532 17.3892 28.4708 17.4032L28.0242 17.4182H26.4205V20H23.7305Z" fill="#7C7C7C" />
<path fill-rule="evenodd" clip-rule="evenodd" d="M37.4024 16.3236L36.142 11.9887L34.9189 16.3236H37.4024ZM37.9366 18.2717H34.34L33.8568 20H31.0737L34.0768 10H38.1345L41.1744 20H38.4498L37.9366 18.2717Z" fill="#7C7C7C" />
<path fill-rule="evenodd" clip-rule="evenodd" d="M20.0179 11.4069C21.1274 11.4069 22.1176 11.9182 22.7685 12.7192L23.3483 11.4753C22.4415 10.6177 21.2072 10.0891 19.8458 10.0891C17.7263 10.0891 15.9131 11.3698 15.1689 13.1828H14.0382L13.3706 14.6149H14.8252C14.8143 14.7477 14.8072 14.8806 14.8072 15.0162C14.8072 15.1804 14.8157 15.3426 14.832 15.5029H14.101L13.4334 16.9354H15.2036C15.969 18.7025 17.7595 19.9432 19.8458 19.9432C20.8973 19.9432 21.8729 19.6279 22.6807 19.0896V17.3339C22.0302 18.075 21.0787 18.5432 20.0179 18.5432C18.7779 18.5432 17.6872 17.9035 17.052 16.9354H20.759L21.4266 15.5029H16.5067C16.4813 15.3305 16.4677 15.1543 16.4677 14.9749C16.4677 14.8536 16.474 14.7335 16.4857 14.6149H21.8402L22.5078 13.1828H16.9488C17.5635 12.1213 18.7076 11.4069 20.0179 11.4069Z" fill="#7C7C7C" />
</svg>