<?xml version='1.0' encoding='utf-8'?>
<svg xmlns="http://www.w3.org/2000/svg" xmlns:xlink="http://www.w3.org/1999/xlink" viewBox="0 0 46 30" width="46" height="30"><path fill-rule="evenodd" clip-rule="evenodd" d="M23.7825 10.7617L21.647 11.2303V9.45997L23.7825 9V10.7617ZM28.2237 11.7423C27.3899 11.7423 26.8539 12.1416 26.5561 12.4192L26.4455 11.8812H24.5737V22L26.7008 21.5401L26.7093 19.0841C27.0156 19.3098 27.4665 19.6308 28.2152 19.6308C29.7381 19.6308 31.1249 18.3812 31.1249 15.6302C31.1164 13.1135 29.7126 11.7423 28.2237 11.7423ZM27.7132 17.7216C27.2112 17.7216 26.9134 17.5394 26.7093 17.3137L26.7008 14.0942C26.922 13.8425 27.2283 13.6689 27.7132 13.6689C28.4874 13.6689 29.0235 14.5541 29.0235 15.6909C29.0235 16.8538 28.4959 17.7216 27.7132 17.7216ZM37.8293 15.717C37.8293 13.4954 36.7743 11.7423 34.7579 11.7423C32.7329 11.7423 31.5078 13.4954 31.5078 15.6996C31.5078 18.3118 32.9542 19.6308 35.0301 19.6308C36.0427 19.6308 36.8084 19.3965 37.3869 19.0668V17.3311C36.8084 17.6262 36.1447 17.8084 35.3024 17.8084C34.4771 17.8084 33.7455 17.5134 33.6518 16.4894H37.8123C37.8123 16.4415 37.8154 16.3328 37.8189 16.2076C37.8237 16.0376 37.8293 15.837 37.8293 15.717ZM33.6263 14.8925C33.6263 13.9119 34.2134 13.504 34.7494 13.504C35.2684 13.504 35.8214 13.9119 35.8214 14.8925H33.6263ZM21.647 11.8899H23.7825V19.4834H21.647V11.8899ZM19.2221 11.8899L19.3583 12.5321C19.8602 11.5948 20.8557 11.7857 21.128 11.8899V13.8859C20.8642 13.7904 20.0134 13.6689 19.5114 14.3371V19.4834H17.3844V11.8899H19.2221ZM15.1042 10.0067L13.0282 10.4579L13.0197 17.4092C13.0197 18.6936 13.9641 19.6396 15.2233 19.6396C15.921 19.6396 16.4315 19.5094 16.7122 19.3532V17.5915C16.44 17.7043 15.0957 18.1035 15.0957 16.8191V13.7383H16.7122V11.8899H15.0957L15.1042 10.0067ZM10.076 13.6255C9.62503 13.6255 9.35273 13.7557 9.35273 14.0942C9.35273 14.4637 9.82128 14.6262 10.4026 14.8279C11.3503 15.1567 12.5976 15.5894 12.6029 17.1923C12.6029 18.7457 11.3862 19.6396 9.61653 19.6396C8.8848 19.6396 8.08507 19.492 7.29378 19.1449V17.0794C8.0085 17.4787 8.9103 17.7737 9.61653 17.7737C10.093 17.7737 10.4333 17.6435 10.4333 17.2444C10.4333 16.835 9.92535 16.6479 9.31215 16.4221C8.37827 16.078 7.2002 15.6441 7.2002 14.1983C7.2002 12.6622 8.34879 11.7423 10.076 11.7423C10.7821 11.7423 11.4798 11.8552 12.1859 12.1416V14.1809C11.5393 13.8251 10.7225 13.6255 10.076 13.6255Z" fill="#7C7C7C" />
</svg>