<?xml version='1.0' encoding='utf-8'?>
<svg xmlns="http://www.w3.org/2000/svg" xmlns:xlink="http://www.w3.org/1999/xlink" viewBox="0 0 46 30" width="46" height="30"><path fill-rule="evenodd" clip-rule="evenodd" d="M23.4004 25C17.9004 25 13.4004 20.5001 13.4004 14.9502C13.4504 9.45032 17.9004 4.95041 23.4504 5.00041C28.9504 5.05041 33.4004 9.50032 33.4004 15.1002C33.3504 20.5501 28.9004 25 23.4004 25Z" fill="#7C7C7C" />
<path fill-rule="evenodd" clip-rule="evenodd" d="M29.6064 12.005L29.6063 12.005C29.1432 11.5553 28.6538 11.0802 28.2219 10.6968L28.1782 10.6662C28.1054 10.6078 28.0233 10.5619 27.9354 10.5306L27.602 10.4684C25.302 10.0392 17.8469 8.64819 17.6935 8.66684C17.6482 8.67319 17.6048 8.68964 17.5666 8.71497L17.5251 8.74778C17.4739 8.79975 17.435 8.86254 17.4113 8.93153L17.4004 8.95997V9.11528V9.13934C17.9065 10.5487 19.2214 13.6962 20.4354 16.6024L20.4354 16.6024C21.4618 19.0594 22.4161 21.344 22.7488 22.2599L22.7489 22.2603C22.7927 22.396 22.8758 22.6537 23.031 22.6668H23.066C23.1491 22.6668 23.5035 22.1987 23.5035 22.1987C23.5035 22.1987 29.8385 14.5162 30.4794 13.6981C30.5624 13.5973 30.6356 13.4889 30.6982 13.3743C30.7306 13.192 30.665 13.006 30.5253 12.8843C30.2525 12.6324 29.9361 12.3252 29.6064 12.005ZM25.1288 13.7789L27.8325 11.5367L29.4185 12.998L25.1288 13.7789ZM19.4238 9.81737L24.0788 13.6324L26.9554 11.2064L19.4238 9.81737ZM24.4988 14.6321L29.2632 13.8642L23.8163 20.4267L24.4988 14.6321ZM23.6894 14.3542L18.7916 10.198L22.9807 20.4311L23.6894 14.3542Z" fill="#141519" />
</svg>