<?xml version='1.0' encoding='utf-8'?>
<svg xmlns="http://www.w3.org/2000/svg" xmlns:xlink="http://www.w3.org/1999/xlink" viewBox="0 0 45 30" width="45" height="30"><path fill-rule="evenodd" clip-rule="evenodd" d="M15.6618 6.08545L12.015 13.7456C12.0011 13.7741 11.9967 13.8063 12.0024 13.8374C12.0082 13.8686 12.0237 13.8971 12.0468 13.9188L21.896 23.3567C21.924 23.3836 21.9612 23.3985 22 23.3985C22.0388 23.3985 22.076 23.3836 22.104 23.3567L31.9532 13.9194C31.9763 13.8977 31.9918 13.8692 31.9976 13.838C32.0033 13.8069 31.9989 13.7747 31.985 13.7462L28.3382 6.08604C28.3264 6.06031 28.3075 6.03852 28.2837 6.02327C28.2598 6.00801 28.2321 5.99994 28.2038 6.00001H15.7973C15.7689 5.99966 15.741 6.00754 15.7169 6.0227C15.6929 6.03786 15.6738 6.05965 15.6618 6.08545Z" fill="#7C7C7C" />
<path fill-rule="evenodd" clip-rule="evenodd" d="M23.2659 14.5323C23.1952 14.5376 22.8299 14.5594 22.015 14.5594C21.3668 14.5594 20.9066 14.54 20.7451 14.5323C18.2403 14.4221 16.3706 13.9861 16.3706 13.464C16.3706 12.9419 18.2403 12.5065 20.7451 12.3945V14.098C20.909 14.1098 21.378 14.1375 22.0262 14.1375C22.804 14.1375 23.1934 14.1051 23.2636 14.0986V12.3957C25.7631 12.5071 27.6287 12.9431 27.6287 13.464C27.6287 13.9849 25.7637 14.4209 23.2636 14.5317L23.2659 14.5323ZM23.2659 12.2195V10.6952H26.7542V8.37061H17.2568V10.6952H20.7446V12.2189C17.9097 12.3492 15.7778 12.9107 15.7778 13.5836C15.7778 14.2565 17.9097 14.8175 20.7446 14.9483V19.8331H23.2653V14.9466C26.0937 14.8163 28.222 14.2554 28.222 13.583C28.222 12.9107 26.0955 12.3498 23.2653 12.2189L23.2659 12.2195Z" fill="#141519" />
<circle cx="27.1366" cy="19.75" r="4.58333" fill="#C3C3C3" />
<path d="M27.1333 16.5417L27.0933 16.6778V20.6257L27.1333 20.6657L28.9659 19.5824L27.1333 16.5417Z" fill="#141519" />
<path d="M27.1353 16.5417L25.3027 19.5824L27.1353 20.6656V18.7494V16.5417Z" fill="#141519" />
<path d="M27.1373 21.0127L27.1147 21.0402V22.4465L27.1373 22.5124L28.971 19.93L27.1373 21.0127Z" fill="#141519" />
<path d="M27.1353 22.5124V21.0127L25.3027 19.93L27.1353 22.5124Z" fill="#141519" />
</svg>