<?xml version='1.0' encoding='utf-8'?>
<svg xmlns="http://www.w3.org/2000/svg" xmlns:xlink="http://www.w3.org/1999/xlink" viewBox="0 0 46 30" width="46" height="30"><path fill-rule="evenodd" clip-rule="evenodd" d="M16.4621 6.08545L12.8153 13.7456C12.8014 13.7741 12.797 13.8063 12.8027 13.8374C12.8085 13.8686 12.824 13.8971 12.8471 13.9188L22.6963 23.3567C22.7243 23.3836 22.7615 23.3985 22.8003 23.3985C22.8391 23.3985 22.8763 23.3836 22.9043 23.3567L32.7535 13.9194C32.7766 13.8977 32.7921 13.8692 32.7978 13.838C32.8036 13.8069 32.7992 13.7747 32.7853 13.7462L29.1385 6.08604C29.1267 6.06031 29.1078 6.03852 29.084 6.02327C29.0601 6.00801 29.0324 5.99994 29.0041 6.00001H16.5976C16.5692 5.99966 16.5413 6.00754 16.5172 6.0227C16.4932 6.03786 16.474 6.05965 16.4621 6.08545Z" fill="#7C7C7C" />
<path fill-rule="evenodd" clip-rule="evenodd" d="M24.0662 14.5323C23.9955 14.5376 23.6302 14.5594 22.8153 14.5594C22.1671 14.5594 21.7069 14.54 21.5454 14.5323C19.0406 14.4221 17.1709 13.9861 17.1709 13.464C17.1709 12.9419 19.0406 12.5065 21.5454 12.3945V14.098C21.7092 14.1098 22.1783 14.1375 22.8265 14.1375C23.6043 14.1375 23.9937 14.1051 24.0639 14.0986V12.3957C26.5634 12.5071 28.429 12.9431 28.429 13.464C28.429 13.9849 26.564 14.4209 24.0639 14.5317L24.0662 14.5323ZM24.0662 12.2195V10.6952H27.5545V8.37061H18.0571V10.6952H21.5448V12.2189C18.71 12.3492 16.5781 12.9107 16.5781 13.5836C16.5781 14.2565 18.71 14.8175 21.5448 14.9483V19.8331H24.0656V14.9466C26.894 14.8163 29.0223 14.2554 29.0223 13.583C29.0223 12.9107 26.8958 12.3498 24.0656 12.2189L24.0662 12.2195Z" fill="#141519" />
<circle cx="28.2171" cy="19.75" r="4.58333" fill="#C3C3C3" />
<path d="M28.2651 23.5001L31.48 18.9452L28.2651 19.7599V23.5001Z" fill="#141519" />
<path d="M24.9248 16.8333L28.152 19.5249L30.295 17.6391L24.9248 16.8333Z" fill="#141519" />
<path d="M28.0397 23.3777V19.7252L24.9062 17.1123L28.0397 23.3777Z" fill="#141519" />
<path d="M28.5757 19.4495L31.5277 18.7014L30.5434 17.7175L28.5757 19.4495Z" fill="#141519" />
</svg>