<svg width="171" height="33" viewBox="0 0 171 33" fill="none" xmlns="http://www.w3.org/2000/svg">
<g clip-path="url(#clip0_1_1635)">
<path d="M32.7535 2.7876C28.261 -1.87576 21.261 -0.403188 17.4998 6.33166C13.7385 -0.404455 6.73851 -1.87576 2.24601 2.7876C-2.10274 7.30029 -1.64899 23.5936 17.4998 33.0001C36.6485 23.5936 37.1023 7.30029 32.7535 2.7876ZM18.2348 10.976C18.5835 9.60475 19.656 8.71716 20.631 8.99319C21.606 9.26921 22.1135 10.6038 21.766 11.9738C21.4185 13.3438 20.3448 14.2327 19.3698 13.9566C18.3948 13.6806 17.886 12.3473 18.2348 10.976ZM14.3685 8.99319C15.3435 8.71716 16.416 9.60602 16.7648 10.976C17.1135 12.3473 16.6048 13.6819 15.6298 13.9566C14.6548 14.2314 13.5823 13.3438 13.2335 11.9738C12.8848 10.6038 13.3948 9.26795 14.3685 8.99319ZM9.48476 15.7723C9.13601 14.4011 9.64476 13.0665 10.6198 12.7917C11.5948 12.517 12.6673 13.4046 13.016 14.7746C13.3648 16.1459 12.856 17.4804 11.881 17.7552C10.906 18.03 9.83226 17.1436 9.48476 15.7723ZM20.8335 24.1368C19.961 24.1368 19.0873 23.6506 18.4548 23.1859C17.876 22.763 17.1248 22.763 16.546 23.1859C15.9123 23.6506 15.0398 24.1368 14.166 24.1368C13.2098 24.1368 12.4998 23.4062 12.4998 22.3641C12.4998 18.8188 15.1235 15.2735 17.4998 15.2735C19.876 15.2735 22.4998 18.8188 22.4998 22.3641C22.4998 23.4062 21.7898 24.1368 20.8335 24.1368ZM25.5148 15.7723C25.166 17.1436 24.0935 18.0312 23.1185 17.7552C22.1435 17.4792 21.636 16.1446 21.9835 14.7746C22.3323 13.4033 23.4048 12.5157 24.3798 12.7917C25.3548 13.0678 25.8635 14.4011 25.5148 15.7723Z" fill="#6E6F96"/>
</g>
<path d="M55.336 9.738V11.885H51.802V23H49.142V11.885H45.608V9.738H55.336ZM59.9368 14.108C60.2788 13.5507 60.7222 13.1137 61.2668 12.797C61.8242 12.4803 62.4575 12.322 63.1668 12.322V15.115H62.4638C61.6278 15.115 60.9945 15.3113 60.5638 15.704C60.1458 16.0967 59.9368 16.7807 59.9368 17.756V23H57.2768V12.474H59.9368V14.108ZM74.8955 12.474V23H72.2165V21.67C71.8745 22.126 71.4248 22.487 70.8675 22.753C70.3228 23.0063 69.7275 23.133 69.0815 23.133C68.2581 23.133 67.5298 22.962 66.8965 22.62C66.2631 22.2653 65.7628 21.7523 65.3955 21.081C65.0408 20.397 64.8635 19.5863 64.8635 18.649V12.474H67.5235V18.269C67.5235 19.105 67.7325 19.751 68.1505 20.207C68.5685 20.6503 69.1385 20.872 69.8605 20.872C70.5951 20.872 71.1715 20.6503 71.5895 20.207C72.0075 19.751 72.2165 19.105 72.2165 18.269V12.474H74.8955ZM87.305 17.509C87.305 17.889 87.2797 18.231 87.229 18.535H79.534C79.5973 19.295 79.8633 19.8903 80.332 20.321C80.8007 20.7517 81.377 20.967 82.061 20.967C83.049 20.967 83.752 20.5427 84.17 19.694H87.039C86.735 20.7073 86.1523 21.5433 85.291 22.202C84.4297 22.848 83.372 23.171 82.118 23.171C81.1047 23.171 80.1927 22.9493 79.382 22.506C78.584 22.05 77.957 21.4103 77.501 20.587C77.0577 19.7637 76.836 18.8137 76.836 17.737C76.836 16.6477 77.0577 15.6913 77.501 14.868C77.9443 14.0447 78.565 13.4113 79.363 12.968C80.161 12.5247 81.0793 12.303 82.118 12.303C83.1187 12.303 84.0117 12.5183 84.797 12.949C85.595 13.3797 86.2093 13.994 86.64 14.792C87.0833 15.5773 87.305 16.483 87.305 17.509ZM84.55 16.749C84.5373 16.065 84.2903 15.5203 83.809 15.115C83.3277 14.697 82.7387 14.488 82.042 14.488C81.3833 14.488 80.826 14.6907 80.37 15.096C79.9267 15.4887 79.6543 16.0397 79.553 16.749H84.55ZM98.9175 13.842C98.9175 14.5513 98.7465 15.2163 98.4045 15.837C98.0752 16.4577 97.5495 16.958 96.8275 17.338C96.1182 17.718 95.2189 17.908 94.1295 17.908H91.9065V23H89.2465V9.738H94.1295C95.1555 9.738 96.0295 9.91533 96.7515 10.27C97.4735 10.6247 98.0119 11.1123 98.3665 11.733C98.7339 12.3537 98.9175 13.0567 98.9175 13.842ZM94.0155 15.761C94.7502 15.761 95.2949 15.5963 95.6495 15.267C96.0042 14.925 96.1815 14.45 96.1815 13.842C96.1815 12.55 95.4595 11.904 94.0155 11.904H91.9065V15.761H94.0155ZM110.591 17.509C110.591 17.889 110.566 18.231 110.515 18.535H102.82C102.883 19.295 103.149 19.8903 103.618 20.321C104.087 20.7517 104.663 20.967 105.347 20.967C106.335 20.967 107.038 20.5427 107.456 19.694H110.325C110.021 20.7073 109.438 21.5433 108.577 22.202C107.716 22.848 106.658 23.171 105.404 23.171C104.391 23.171 103.479 22.9493 102.668 22.506C101.87 22.05 101.243 21.4103 100.787 20.587C100.344 19.7637 100.122 18.8137 100.122 17.737C100.122 16.6477 100.344 15.6913 100.787 14.868C101.23 14.0447 101.851 13.4113 102.649 12.968C103.447 12.5247 104.365 12.303 105.404 12.303C106.405 12.303 107.298 12.5183 108.083 12.949C108.881 13.3797 109.495 13.994 109.926 14.792C110.369 15.5773 110.591 16.483 110.591 17.509ZM107.836 16.749C107.823 16.065 107.576 15.5203 107.095 15.115C106.614 14.697 106.025 14.488 105.328 14.488C104.669 14.488 104.112 14.6907 103.656 15.096C103.213 15.4887 102.94 16.0397 102.839 16.749H107.836ZM115.63 14.659V19.751C115.63 20.1057 115.712 20.3653 115.877 20.53C116.054 20.682 116.345 20.758 116.751 20.758H117.986V23H116.314C114.072 23 112.951 21.9107 112.951 19.732V14.659H111.697V12.474H112.951V9.871H115.63V12.474H117.986V14.659H115.63ZM134.358 9.738V23H131.698V14.374L128.145 23H126.131L122.559 14.374V23H119.899V9.738H122.92L127.138 19.599L131.356 9.738H134.358ZM146.773 17.509C146.773 17.889 146.747 18.231 146.697 18.535H139.002C139.065 19.295 139.331 19.8903 139.8 20.321C140.268 20.7517 140.845 20.967 141.529 20.967C142.517 20.967 143.22 20.5427 143.638 19.694H146.507C146.203 20.7073 145.62 21.5433 144.759 22.202C143.897 22.848 142.84 23.171 141.586 23.171C140.572 23.171 139.66 22.9493 138.85 22.506C138.052 22.05 137.425 21.4103 136.969 20.587C136.525 19.7637 136.304 18.8137 136.304 17.737C136.304 16.6477 136.525 15.6913 136.969 14.868C137.412 14.0447 138.033 13.4113 138.831 12.968C139.629 12.5247 140.547 12.303 141.586 12.303C142.586 12.303 143.479 12.5183 144.265 12.949C145.063 13.3797 145.677 13.994 146.108 14.792C146.551 15.5773 146.773 16.483 146.773 17.509ZM144.018 16.749C144.005 16.065 143.758 15.5203 143.277 15.115C142.795 14.697 142.206 14.488 141.51 14.488C140.851 14.488 140.294 14.6907 139.838 15.096C139.394 15.4887 139.122 16.0397 139.021 16.749H144.018ZM148.03 17.699C148.03 16.635 148.239 15.6913 148.657 14.868C149.088 14.0447 149.671 13.4113 150.405 12.968C151.14 12.5247 151.957 12.303 152.856 12.303C153.54 12.303 154.193 12.455 154.813 12.759C155.434 13.0503 155.928 13.443 156.295 13.937V8.94H158.993V23H156.295V21.442C155.966 21.9613 155.504 22.3793 154.908 22.696C154.313 23.0127 153.623 23.171 152.837 23.171C151.951 23.171 151.14 22.943 150.405 22.487C149.671 22.031 149.088 21.3913 148.657 20.568C148.239 19.732 148.03 18.7757 148.03 17.699ZM156.314 17.737C156.314 17.091 156.188 16.54 155.934 16.084C155.681 15.6153 155.339 15.2607 154.908 15.02C154.478 14.7667 154.015 14.64 153.521 14.64C153.027 14.64 152.571 14.7603 152.153 15.001C151.735 15.2417 151.393 15.5963 151.127 16.065C150.874 16.521 150.747 17.0657 150.747 17.699C150.747 18.3323 150.874 18.8897 151.127 19.371C151.393 19.8397 151.735 20.2007 152.153 20.454C152.584 20.7073 153.04 20.834 153.521 20.834C154.015 20.834 154.478 20.7137 154.908 20.473C155.339 20.2197 155.681 19.865 155.934 19.409C156.188 18.9403 156.314 18.383 156.314 17.737ZM165.619 23.171C164.758 23.171 163.985 23.019 163.301 22.715C162.617 22.3983 162.073 21.974 161.667 21.442C161.275 20.91 161.059 20.321 161.021 19.675H163.7C163.751 20.0803 163.947 20.416 164.289 20.682C164.644 20.948 165.081 21.081 165.6 21.081C166.107 21.081 166.5 20.9797 166.778 20.777C167.07 20.5743 167.215 20.3147 167.215 19.998C167.215 19.656 167.038 19.4027 166.683 19.238C166.341 19.0607 165.79 18.8707 165.03 18.668C164.245 18.478 163.599 18.2817 163.092 18.079C162.598 17.8763 162.168 17.566 161.8 17.148C161.446 16.73 161.268 16.1663 161.268 15.457C161.268 14.8743 161.433 14.3423 161.762 13.861C162.104 13.3797 162.586 12.9997 163.206 12.721C163.84 12.4423 164.581 12.303 165.429 12.303C166.683 12.303 167.684 12.6197 168.431 13.253C169.179 13.8737 169.59 14.716 169.666 15.78H167.12C167.082 15.362 166.905 15.0327 166.588 14.792C166.284 14.5387 165.873 14.412 165.353 14.412C164.872 14.412 164.498 14.5007 164.232 14.678C163.979 14.8553 163.852 15.1023 163.852 15.419C163.852 15.7737 164.03 16.046 164.384 16.236C164.739 16.4133 165.29 16.597 166.037 16.787C166.797 16.977 167.424 17.1733 167.918 17.376C168.412 17.5787 168.837 17.8953 169.191 18.326C169.559 18.744 169.749 19.3013 169.761 19.998C169.761 20.606 169.59 21.1507 169.248 21.632C168.919 22.1133 168.438 22.4933 167.804 22.772C167.184 23.038 166.455 23.171 165.619 23.171Z" fill="#6E6F96"/>
<defs>
<clipPath id="clip0_1_1635">
<rect width="35" height="33" fill="white"/>
</clipPath>
</defs>
</svg>
