<svg width="171" height="48" viewBox="0 0 171 48" fill="none" xmlns="http://www.w3.org/2000/svg">
<g clip-path="url(#clip0_1_144)">
<path d="M32.7535 10.2875C28.261 5.62414 21.261 7.09672 17.4998 13.8316C13.7385 7.09545 6.73851 5.62414 2.24601 10.2875C-2.10274 14.8002 -1.64899 31.0935 17.4998 40.5C36.6485 31.0935 37.1023 14.8002 32.7535 10.2875ZM18.2348 18.4759C18.5835 17.1047 19.656 16.2171 20.631 16.4931C21.606 16.7691 22.1135 18.1037 21.766 19.4737C21.4185 20.8437 20.3448 21.7326 19.3698 21.4565C18.3948 21.1805 17.886 19.8472 18.2348 18.4759ZM14.3685 16.4931C15.3435 16.2171 16.416 17.1059 16.7648 18.4759C17.1135 19.8472 16.6048 21.1818 15.6298 21.4565C14.6548 21.7313 13.5823 20.8437 13.2335 19.4737C12.8848 18.1037 13.3948 16.7679 14.3685 16.4931ZM9.48476 23.2723C9.13601 21.901 9.64476 20.5664 10.6198 20.2917C11.5948 20.0169 12.6673 20.9045 13.016 22.2745C13.3648 23.6458 12.856 24.9803 11.881 25.2551C10.906 25.5299 9.83226 24.6435 9.48476 23.2723ZM20.8335 31.6367C19.961 31.6367 19.0873 31.1505 18.4548 30.6858C17.876 30.2629 17.1248 30.2629 16.546 30.6858C15.9123 31.1505 15.0398 31.6367 14.166 31.6367C13.2098 31.6367 12.4998 30.9061 12.4998 29.864C12.4998 26.3187 15.1235 22.7734 17.4998 22.7734C19.876 22.7734 22.4998 26.3187 22.4998 29.864C22.4998 30.9061 21.7898 31.6367 20.8335 31.6367ZM25.5148 23.2723C25.166 24.6435 24.0935 25.5311 23.1185 25.2551C22.1435 24.9791 21.636 23.6445 21.9835 22.2745C22.3323 20.9032 23.4048 20.0156 24.3798 20.2917C25.3548 20.5677 25.8635 21.901 25.5148 23.2723Z" fill="#474CE6"/>
</g>
<path d="M55.336 17.238V19.385H51.802V30.5H49.142V19.385H45.608V17.238H55.336ZM59.9368 21.608C60.2788 21.0507 60.7222 20.6137 61.2668 20.297C61.8242 19.9803 62.4575 19.822 63.1668 19.822V22.615H62.4638C61.6278 22.615 60.9945 22.8113 60.5638 23.204C60.1458 23.5967 59.9368 24.2807 59.9368 25.256V30.5H57.2768V19.974H59.9368V21.608ZM74.8955 19.974V30.5H72.2165V29.17C71.8745 29.626 71.4248 29.987 70.8675 30.253C70.3228 30.5063 69.7275 30.633 69.0815 30.633C68.2581 30.633 67.5298 30.462 66.8965 30.12C66.2631 29.7653 65.7628 29.2523 65.3955 28.581C65.0408 27.897 64.8635 27.0863 64.8635 26.149V19.974H67.5235V25.769C67.5235 26.605 67.7325 27.251 68.1505 27.707C68.5685 28.1503 69.1385 28.372 69.8605 28.372C70.5951 28.372 71.1715 28.1503 71.5895 27.707C72.0075 27.251 72.2165 26.605 72.2165 25.769V19.974H74.8955ZM87.305 25.009C87.305 25.389 87.2797 25.731 87.229 26.035H79.534C79.5973 26.795 79.8633 27.3903 80.332 27.821C80.8007 28.2517 81.377 28.467 82.061 28.467C83.049 28.467 83.752 28.0427 84.17 27.194H87.039C86.735 28.2073 86.1523 29.0433 85.291 29.702C84.4297 30.348 83.372 30.671 82.118 30.671C81.1047 30.671 80.1927 30.4493 79.382 30.006C78.584 29.55 77.957 28.9103 77.501 28.087C77.0577 27.2637 76.836 26.3137 76.836 25.237C76.836 24.1477 77.0577 23.1913 77.501 22.368C77.9443 21.5447 78.565 20.9113 79.363 20.468C80.161 20.0247 81.0793 19.803 82.118 19.803C83.1187 19.803 84.0117 20.0183 84.797 20.449C85.595 20.8797 86.2093 21.494 86.64 22.292C87.0833 23.0773 87.305 23.983 87.305 25.009ZM84.55 24.249C84.5373 23.565 84.2903 23.0203 83.809 22.615C83.3277 22.197 82.7387 21.988 82.042 21.988C81.3833 21.988 80.826 22.1907 80.37 22.596C79.9267 22.9887 79.6543 23.5397 79.553 24.249H84.55ZM98.9175 21.342C98.9175 22.0513 98.7465 22.7163 98.4045 23.337C98.0752 23.9577 97.5495 24.458 96.8275 24.838C96.1182 25.218 95.2189 25.408 94.1295 25.408H91.9065V30.5H89.2465V17.238H94.1295C95.1555 17.238 96.0295 17.4153 96.7515 17.77C97.4735 18.1247 98.0119 18.6123 98.3665 19.233C98.7339 19.8537 98.9175 20.5567 98.9175 21.342ZM94.0155 23.261C94.7502 23.261 95.2949 23.0963 95.6495 22.767C96.0042 22.425 96.1815 21.95 96.1815 21.342C96.1815 20.05 95.4595 19.404 94.0155 19.404H91.9065V23.261H94.0155ZM110.591 25.009C110.591 25.389 110.566 25.731 110.515 26.035H102.82C102.883 26.795 103.149 27.3903 103.618 27.821C104.087 28.2517 104.663 28.467 105.347 28.467C106.335 28.467 107.038 28.0427 107.456 27.194H110.325C110.021 28.2073 109.438 29.0433 108.577 29.702C107.716 30.348 106.658 30.671 105.404 30.671C104.391 30.671 103.479 30.4493 102.668 30.006C101.87 29.55 101.243 28.9103 100.787 28.087C100.344 27.2637 100.122 26.3137 100.122 25.237C100.122 24.1477 100.344 23.1913 100.787 22.368C101.23 21.5447 101.851 20.9113 102.649 20.468C103.447 20.0247 104.365 19.803 105.404 19.803C106.405 19.803 107.298 20.0183 108.083 20.449C108.881 20.8797 109.495 21.494 109.926 22.292C110.369 23.0773 110.591 23.983 110.591 25.009ZM107.836 24.249C107.823 23.565 107.576 23.0203 107.095 22.615C106.614 22.197 106.025 21.988 105.328 21.988C104.669 21.988 104.112 22.1907 103.656 22.596C103.213 22.9887 102.94 23.5397 102.839 24.249H107.836ZM115.63 22.159V27.251C115.63 27.6057 115.712 27.8653 115.877 28.03C116.054 28.182 116.345 28.258 116.751 28.258H117.986V30.5H116.314C114.072 30.5 112.951 29.4107 112.951 27.232V22.159H111.697V19.974H112.951V17.371H115.63V19.974H117.986V22.159H115.63ZM134.358 17.238V30.5H131.698V21.874L128.145 30.5H126.131L122.559 21.874V30.5H119.899V17.238H122.92L127.138 27.099L131.356 17.238H134.358ZM146.773 25.009C146.773 25.389 146.747 25.731 146.697 26.035H139.002C139.065 26.795 139.331 27.3903 139.8 27.821C140.268 28.2517 140.845 28.467 141.529 28.467C142.517 28.467 143.22 28.0427 143.638 27.194H146.507C146.203 28.2073 145.62 29.0433 144.759 29.702C143.897 30.348 142.84 30.671 141.586 30.671C140.572 30.671 139.66 30.4493 138.85 30.006C138.052 29.55 137.425 28.9103 136.969 28.087C136.525 27.2637 136.304 26.3137 136.304 25.237C136.304 24.1477 136.525 23.1913 136.969 22.368C137.412 21.5447 138.033 20.9113 138.831 20.468C139.629 20.0247 140.547 19.803 141.586 19.803C142.586 19.803 143.479 20.0183 144.265 20.449C145.063 20.8797 145.677 21.494 146.108 22.292C146.551 23.0773 146.773 23.983 146.773 25.009ZM144.018 24.249C144.005 23.565 143.758 23.0203 143.277 22.615C142.795 22.197 142.206 21.988 141.51 21.988C140.851 21.988 140.294 22.1907 139.838 22.596C139.394 22.9887 139.122 23.5397 139.021 24.249H144.018ZM148.03 25.199C148.03 24.135 148.239 23.1913 148.657 22.368C149.088 21.5447 149.671 20.9113 150.405 20.468C151.14 20.0247 151.957 19.803 152.856 19.803C153.54 19.803 154.193 19.955 154.813 20.259C155.434 20.5503 155.928 20.943 156.295 21.437V16.44H158.993V30.5H156.295V28.942C155.966 29.4613 155.504 29.8793 154.908 30.196C154.313 30.5127 153.623 30.671 152.837 30.671C151.951 30.671 151.14 30.443 150.405 29.987C149.671 29.531 149.088 28.8913 148.657 28.068C148.239 27.232 148.03 26.2757 148.03 25.199ZM156.314 25.237C156.314 24.591 156.188 24.04 155.934 23.584C155.681 23.1153 155.339 22.7607 154.908 22.52C154.478 22.2667 154.015 22.14 153.521 22.14C153.027 22.14 152.571 22.2603 152.153 22.501C151.735 22.7417 151.393 23.0963 151.127 23.565C150.874 24.021 150.747 24.5657 150.747 25.199C150.747 25.8323 150.874 26.3897 151.127 26.871C151.393 27.3397 151.735 27.7007 152.153 27.954C152.584 28.2073 153.04 28.334 153.521 28.334C154.015 28.334 154.478 28.2137 154.908 27.973C155.339 27.7197 155.681 27.365 155.934 26.909C156.188 26.4403 156.314 25.883 156.314 25.237ZM165.619 30.671C164.758 30.671 163.985 30.519 163.301 30.215C162.617 29.8983 162.073 29.474 161.667 28.942C161.275 28.41 161.059 27.821 161.021 27.175H163.7C163.751 27.5803 163.947 27.916 164.289 28.182C164.644 28.448 165.081 28.581 165.6 28.581C166.107 28.581 166.5 28.4797 166.778 28.277C167.07 28.0743 167.215 27.8147 167.215 27.498C167.215 27.156 167.038 26.9027 166.683 26.738C166.341 26.5607 165.79 26.3707 165.03 26.168C164.245 25.978 163.599 25.7817 163.092 25.579C162.598 25.3763 162.168 25.066 161.8 24.648C161.446 24.23 161.268 23.6663 161.268 22.957C161.268 22.3743 161.433 21.8423 161.762 21.361C162.104 20.8797 162.586 20.4997 163.206 20.221C163.84 19.9423 164.581 19.803 165.429 19.803C166.683 19.803 167.684 20.1197 168.431 20.753C169.179 21.3737 169.59 22.216 169.666 23.28H167.12C167.082 22.862 166.905 22.5327 166.588 22.292C166.284 22.0387 165.873 21.912 165.353 21.912C164.872 21.912 164.498 22.0007 164.232 22.178C163.979 22.3553 163.852 22.6023 163.852 22.919C163.852 23.2737 164.03 23.546 164.384 23.736C164.739 23.9133 165.29 24.097 166.037 24.287C166.797 24.477 167.424 24.6733 167.918 24.876C168.412 25.0787 168.837 25.3953 169.191 25.826C169.559 26.244 169.749 26.8013 169.761 27.498C169.761 28.106 169.59 28.6507 169.248 29.132C168.919 29.6133 168.438 29.9933 167.804 30.272C167.184 30.538 166.455 30.671 165.619 30.671Z" fill="black"/>
<defs>
<clipPath id="clip0_1_144">
<rect width="35" height="33" fill="white" transform="translate(0 7.5)"/>
</clipPath>
</defs>
</svg>
