<svg xmlns="http://www.w3.org/2000/svg" width="30" height="30" fill="none" viewBox="0 0 30 30">
  <path fill="url(#a)" d="M15 30c8.284 0 15-6.716 15-15 0-8.284-6.716-15-15-15C6.716 0 0 6.716 0 15c0 8.284 6.716 15 15 15Z"/>
  <path fill="#C8DAEA" d="M12.25 21.875c-.486 0-.403-.183-.571-.646l-1.429-4.703 11-6.526"/>
  <path fill="#A9C9DD" d="M12.25 21.875c.375 0 .54-.172.75-.375l2-1.945-2.495-1.504"/>
  <path fill="url(#b)" d="m12.505 18.051 6.045 4.466c.69.38 1.188.184 1.36-.64l2.46-11.595c.252-1.01-.385-1.469-1.045-1.169L6.877 14.684c-.987.396-.98.946-.18 1.191l3.708 1.158 8.584-5.416c.405-.246.777-.114.472.157"/>
  <defs>
    <linearGradient id="a" x1="11.252" x2="3.752" y1="1.251" y2="18.75" gradientUnits="userSpaceOnUse">
      <stop stop-color="#37AEE2"/>
      <stop offset="1" stop-color="#1E96C8"/>
    </linearGradient>
    <linearGradient id="b" x1="13.122" x2="14.725" y1="15.921" y2="21.106" gradientUnits="userSpaceOnUse">
      <stop stop-color="#EFF7FC"/>
      <stop offset="1" stop-color="#fff"/>
    </linearGradient>
  </defs>
</svg>
