<svg xmlns="http://www.w3.org/2000/svg" width="136" height="20" fill="none"><path fill="#293843" d="M7.594 19.645H5.063q-.663 0-.663-.63V3.986q0-.33-.332-.33H.633Q0 3.656 0 3.026V.985q0-.63.633-.63h11.39q.633 0 .633.63v2.04q0 .63-.633.63H8.588q-.36 0-.361.33v15.03q0 .63-.633.63m10.558 0H15.59q-.633 0-.633-.63V.985q0-.63.633-.63h7.172q2.35 0 3.677 1.29 1.325 1.29 1.325 3.63v2.34q0 3.39-2.682 4.5v.12l3.225 6.69q.27.72-.512.72h-2.441q-.543 0-.784-.12-.24-.12-.392-.51l-3.013-6.48h-2.019q-.362 0-.362.33v6.15q0 .63-.632.63m.964-10.17h2.953q.964 0 1.416-.39.453-.42.452-1.32v-2.34q0-.93-.452-1.35-.451-.42-1.416-.42h-2.953q-.332 0-.332.33v5.16q0 .33.332.33M41.351.355h2.531q.663 0 .663.6v13.8q0 2.34-1.326 3.63-1.296 1.26-3.646 1.26h-3.315q-2.38 0-3.676-1.26t-1.296-3.63V.986q0-.63.633-.63h2.561q.633 0 .633.63v13.59q0 .96.392 1.38.421.39 1.356.39h2.08q.963 0 1.355-.39.422-.42.422-1.38V.986q0-.63.633-.63Zm17.435 19.29h-9.854q-.633 0-.633-.63V.985q0-.63.633-.63h9.854q.602 0 .602.63v2.04q0 .63-.602.63h-6.298q-.362 0-.362.33v3.9q0 .33.362.33h5.153q.633 0 .633.63v2.04q0 .63-.633.63h-5.153q-.362 0-.362.33v4.17q0 .33.362.33h6.298q.602 0 .602.63v2.04q0 .63-.602.63m9.538-8.04h-5.726q-.633 0-.633-.63v-1.77q0-.66.633-.66h5.726q.633 0 .633.66v1.77q0 .63-.633.63m6.976 8.04h-2.56q-.634 0-.634-.63V.985q0-.63.633-.63h7.353q2.35 0 3.646 1.29 1.296 1.26 1.296 3.6v2.88q0 2.34-1.296 3.63-1.296 1.26-3.646 1.26h-3.797q-.362 0-.362.33v5.67q0 .63-.633.63m.965-9.96h3.194q.965 0 1.356-.39.392-.42.392-1.35v-2.52q0-.96-.392-1.35-.391-.42-1.356-.42h-3.194q-.332 0-.332.33v5.37q0 .33.332.33m15.798-8.7v18.03q0 .63-.633.63h-2.56q-.634 0-.634-.63V.985q0-.63.633-.63h2.561q.633 0 .633.63m14.603 18.66h-9.914q-.633 0-.633-.63V.985q0-.63.633-.63h2.562q.632 0 .632.63v15q0 .33.362.33h6.358q.603 0 .603.66v2.04q0 .63-.603.63m13.537 0h-9.914q-.633 0-.633-.63V.985q0-.63.633-.63h2.561q.633 0 .633.63v15q0 .33.362.33h6.358q.603 0 .603.66v2.04q0 .63-.603.63m2.508-4.919v-.6q0-.63.633-.63h2.561q.633 0 .633.63v.24q0 1.14.452 1.56t1.657.42h1.417q1.174 0 1.627-.45.482-.45.482-1.68v-.36q0-.87-.723-1.32-.693-.48-1.748-.57t-2.29-.33a18 18 0 0 1-2.26-.66q-1.055-.42-1.778-1.59-.693-1.2-.693-3.06v-1.05q0-2.34 1.326-3.63t3.676-1.29h3.013q2.38 0 3.707 1.29t1.326 3.63v.57q0 .63-.633.63h-2.561q-.633 0-.633-.63v-.18q0-1.17-.452-1.59t-1.658-.42h-1.175q-1.236 0-1.687.48-.422.45-.422 1.8v.57q0 1.41 2.471 1.62 2.56.21 4.55 1.02 1.055.45 1.748 1.62.723 1.14.723 2.94v1.02q0 2.34-1.326 3.63t-3.676 1.29h-3.285q-2.35 0-3.676-1.29t-1.326-3.63"/></svg>