<svg xmlns="http://www.w3.org/2000/svg" width="136" height="20" fill="none" viewBox="0 0 136 20">
  <path fill="#293843" d="M7.594 19.645H5.063c-.442 0-.663-.21-.663-.63V3.986c0-.22-.11-.33-.332-.33H.633c-.422 0-.633-.21-.633-.63V.985c0-.42.21-.63.633-.63h11.39c.422 0 .633.21.633.63v2.04c0 .42-.21.63-.633.63H8.588c-.24 0-.361.11-.361.33v15.03c0 .42-.211.63-.633.63Zm10.558 0H15.59c-.422 0-.633-.21-.633-.63V.985c0-.42.211-.63.633-.63h7.172c1.567 0 2.793.43 3.677 1.29.883.86 1.325 2.07 1.325 3.63v2.34c0 2.26-.894 3.76-2.682 4.5v.12l3.225 6.69c.18.48.01.72-.512.72h-2.441c-.362 0-.623-.04-.784-.12-.16-.08-.291-.25-.392-.51l-3.013-6.48h-2.019c-.241 0-.362.11-.362.33v6.15c0 .42-.21.63-.632.63Zm.964-10.17h2.953c.643 0 1.115-.13 1.416-.39.302-.28.452-.72.452-1.32v-2.34c0-.62-.15-1.07-.452-1.35-.301-.28-.773-.42-1.416-.42h-2.953c-.221 0-.332.11-.332.33v5.16c0 .22.11.33.332.33ZM41.351.355h2.531c.442 0 .663.2.663.6v13.8c0 1.56-.442 2.77-1.326 3.63-.864.84-2.079 1.26-3.646 1.26h-3.315c-1.587 0-2.812-.42-3.676-1.26-.864-.84-1.296-2.05-1.296-3.63V.986c0-.42.211-.63.633-.63h2.561c.422 0 .633.21.633.63v13.59c0 .64.13 1.1.392 1.38.281.26.733.39 1.356.39h2.08c.642 0 1.094-.13 1.355-.39.282-.28.422-.74.422-1.38V.986c0-.42.211-.63.633-.63Zm17.435 19.29h-9.854c-.422 0-.633-.21-.633-.63V.985c0-.42.211-.63.633-.63h9.854c.402 0 .602.21.602.63v2.04c0 .42-.2.63-.602.63h-6.298c-.241 0-.362.11-.362.33v3.9c0 .22.12.33.362.33h5.153c.422 0 .633.21.633.63v2.04c0 .42-.211.63-.633.63h-5.153c-.241 0-.362.11-.362.33v4.17c0 .22.12.33.362.33h6.298c.402 0 .602.21.602.63v2.04c0 .42-.2.63-.602.63Zm9.538-8.04h-5.726c-.422 0-.633-.21-.633-.63v-1.77c0-.44.211-.66.633-.66h5.726c.422 0 .633.22.633.66v1.77c0 .42-.211.63-.633.63Zm6.976 8.04h-2.56c-.423 0-.634-.21-.634-.63V.985c0-.42.211-.63.633-.63h7.353c1.567 0 2.782.43 3.646 1.29.864.84 1.296 2.04 1.296 3.6v2.88c0 1.56-.432 2.77-1.296 3.63-.864.84-2.08 1.26-3.646 1.26h-3.797c-.241 0-.362.11-.362.33v5.67c0 .42-.21.63-.633.63Zm.965-9.96h3.194c.643 0 1.095-.13 1.356-.39.261-.28.392-.73.392-1.35v-2.52c0-.64-.13-1.09-.392-1.35-.261-.28-.713-.42-1.356-.42h-3.194c-.221 0-.332.11-.332.33v5.37c0 .22.11.33.332.33Zm15.798-8.7v18.03c0 .42-.21.63-.633.63h-2.56c-.423 0-.634-.21-.634-.63V.985c0-.42.211-.63.633-.63h2.561c.422 0 .633.21.633.63Zm14.603 18.66h-9.914c-.422 0-.633-.21-.633-.63V.985c0-.42.211-.63.633-.63h2.562c.422 0 .632.21.632.63v15c0 .22.121.33.362.33h6.358c.402 0 .603.22.603.66v2.04c0 .42-.201.63-.603.63Zm13.537 0h-9.914c-.422 0-.633-.21-.633-.63V.985c0-.42.211-.63.633-.63h2.561c.422 0 .633.21.633.63v15c0 .22.121.33.362.33h6.358c.402 0 .603.22.603.66v2.04c0 .42-.201.63-.603.63Zm2.508-4.919v-.6c0-.42.211-.63.633-.63h2.561c.422 0 .633.21.633.63v.24c0 .76.151 1.28.452 1.56.301.28.854.42 1.657.42h1.417c.783 0 1.325-.15 1.627-.45.321-.3.482-.86.482-1.68v-.36c0-.58-.241-1.02-.723-1.32-.462-.32-1.045-.51-1.748-.57-.703-.06-1.467-.17-2.29-.33a17.59 17.59 0 0 1-2.26-.66c-.703-.28-1.296-.81-1.778-1.59-.462-.8-.693-1.82-.693-3.06v-1.05c0-1.56.442-2.77 1.326-3.63.884-.86 2.109-1.29 3.676-1.29h3.013c1.587 0 2.823.43 3.707 1.29.884.86 1.326 2.07 1.326 3.63v.57c0 .42-.211.63-.633.63h-2.561c-.422 0-.633-.21-.633-.63v-.18c0-.78-.151-1.31-.452-1.59-.302-.28-.854-.42-1.658-.42h-1.175c-.824 0-1.386.16-1.687.48-.282.3-.422.9-.422 1.8v.57c0 .94.823 1.48 2.471 1.62 1.707.14 3.224.48 4.55 1.02.703.3 1.286.84 1.748 1.62.482.76.723 1.74.723 2.94v1.02c0 1.56-.442 2.77-1.326 3.63-.884.86-2.109 1.29-3.676 1.29h-3.285c-1.567 0-2.792-.43-3.676-1.29-.884-.86-1.326-2.07-1.326-3.63Z"/>
</svg>
