<svg xmlns="http://www.w3.org/2000/svg" width="183" height="43" fill="none"><path fill="#BBC2CC" d="m130.117 42.53 3-5.794-4.32-7.71h3.72l2.38 4.574 2.32-4.575h3.66l-7.18 13.504zM128.083 35.079v2.676q-1.02.5-2.22.5-2.12 0-3.52-1.359-1.38-1.338-1.38-3.336 0-2.057 1.44-3.456 1.42-1.358 3.6-1.358 1.08 0 2.08.5v2.676q-.82-.579-1.66-.579-.94 0-1.56.62-.62.618-.62 1.537 0 .88.56 1.499.64.678 1.64.679.94 0 1.64-.6M115.919 29.884v-.859h3.2v8.93h-3.2v-.98q-.92 1.28-2.78 1.28-1.88 0-3.22-1.42-1.28-1.358-1.28-3.275 0-2.197 1.38-3.576 1.26-1.258 3.22-1.258 1.64 0 2.68 1.158m-1.96 1.558q-.8 0-1.4.58-.64.62-.64 1.458 0 .879.62 1.458.639.6 1.44.6.819 0 1.44-.62.6-.6.6-1.438 0-.86-.62-1.458a2.05 2.05 0 0 0-1.44-.58M91.538 37.954v-8.929h3.2v1.079q1.02-1.239 2.68-1.239.98 0 1.72.4.8.42 1.24 1.278a3.1 3.1 0 0 1 1.22-1.238q.78-.44 1.86-.44 1.64 0 2.48.82.84.818.84 2.456v5.813h-3.2V33.54q0-1.479-.46-1.918-.34-.3-.84-.3-.56 0-.94.36-.58.56-.58 1.698v4.574h-3.2V33.54q0-1.479-.42-1.918-.34-.36-.96-.36-.56 0-.88.32-.56.54-.56 1.958v4.414zM83.354 37.955v-8.93h3.2v1.459q.44-.84 1.26-1.239.66-.36 1.66-.36a.3.3 0 0 1 .1.02q.06 0 .2.02h.34v3.017a3.05 3.05 0 0 0-1.38-.32q-.94 0-1.46.48-.72.66-.72 2.038v3.815zM77.95 29.884v-.859h3.2v8.93h-3.2v-.98q-.92 1.28-2.78 1.28-1.88 0-3.22-1.42-1.28-1.358-1.28-3.275 0-2.197 1.38-3.576 1.26-1.258 3.22-1.258 1.64 0 2.68 1.158m-1.96 1.558q-.8 0-1.4.58-.64.62-.64 1.458 0 .879.62 1.458.64.6 1.44.6.82 0 1.44-.62.6-.6.6-1.438 0-.86-.62-1.458a2.04 2.04 0 0 0-1.44-.58M60.073 37.954V23.392h3.2v6.752a3.5 3.5 0 0 1 1-.88q.76-.439 1.84-.439 1.68 0 2.64.959.54.54.68 1.119.16.56.16 1.378v5.673h-3.2V33.44q0-1.299-.4-1.738-.34-.38-1.02-.38-.74 0-1.16.38-.54.5-.54 1.458v4.794zM54.04 33.54h-2.18v4.415H48.4V24.631h5.52q2.14 0 3.38 1.198 1.24 1.2 1.24 3.237 0 2.157-1.18 3.316t-3.32 1.158m-2.18-6.113v3.317h1.16q1 0 1.46-.42.44-.38.44-1.219 0-.798-.4-1.198-.46-.48-1.48-.48zM171.635 16.98V8.05h3.2V9.17q1-1.318 2.84-1.318 1.68 0 2.64.958.52.52.68 1.08.16.558.16 1.418v5.673h-3.2v-4.515q0-1.318-.4-1.738-.36-.38-1.02-.38-.72 0-1.18.42-.52.48-.52 1.418v4.795zM166.231 8.91v-.86h3.2v8.93h-3.2v-.979q-.92 1.279-2.78 1.279-1.88 0-3.22-1.419-1.28-1.357-1.28-3.276 0-2.197 1.38-3.576 1.26-1.258 3.22-1.258 1.64 0 2.68 1.159m-1.96 1.558q-.8 0-1.4.579-.64.62-.64 1.458 0 .879.62 1.459.64.6 1.44.599.82 0 1.44-.62.6-.598.6-1.438a1.95 1.95 0 0 0-.62-1.458 2.04 2.04 0 0 0-1.44-.58M153.94 8.05h3.2v8.93h-3.2zm.32-2.437a1.78 1.78 0 0 1-.52-1.278q0-.739.52-1.259.54-.54 1.28-.539.74 0 1.26.54.54.519.54 1.258 0 .74-.54 1.278-.52.52-1.26.52t-1.28-.52M151.736 2.417V16.98h-3.2V16q-1 1.28-2.7 1.28-1.86 0-3.14-1.24-1.44-1.397-1.44-3.555 0-2.157 1.46-3.536 1.26-1.198 3.16-1.198 1.58 0 2.66 1.158V2.417zm-5.16 12.146q.76 0 1.38-.54.68-.62.68-1.518 0-.8-.6-1.438-.56-.6-1.46-.6-.84 0-1.42.58-.62.62-.62 1.518 0 .78.62 1.398.6.6 1.42.6M136.212 8.91v-.86h3.2v8.93h-3.2v-.979q-.92 1.279-2.78 1.279-1.88 0-3.22-1.419-1.28-1.357-1.28-3.276 0-2.197 1.38-3.576 1.26-1.258 3.22-1.258 1.64 0 2.68 1.159m-1.96 1.558q-.8 0-1.4.579-.64.62-.64 1.458 0 .879.62 1.459.639.6 1.44.599.819 0 1.44-.62.6-.598.6-1.438 0-.858-.62-1.458a2.05 2.05 0 0 0-1.44-.58M117.592 16.98V8.05h3.2V9.17q1-1.318 2.84-1.318 1.68 0 2.64.958.52.52.68 1.08.16.558.16 1.418v5.673h-3.2v-4.515q0-1.318-.4-1.738-.36-.38-1.02-.38-.72 0-1.18.42-.52.48-.52 1.418v4.795zM112.188 8.91v-.86h3.2v8.93h-3.2v-.979q-.92 1.279-2.78 1.279-1.88 0-3.22-1.419-1.28-1.357-1.28-3.276 0-2.197 1.38-3.576 1.26-1.258 3.22-1.258 1.64 0 2.68 1.159m-1.96 1.558q-.8 0-1.4.579-.64.62-.64 1.458 0 .879.62 1.459.64.6 1.44.599.82 0 1.44-.62.6-.598.6-1.438a1.95 1.95 0 0 0-.62-1.458 2.04 2.04 0 0 0-1.44-.58M103.371 12.525v4.095q-1.82.66-3 .659-3.12 0-5.16-1.998a7 7 0 0 1-1.5-2.237 7 7 0 0 1-.52-2.617q0-1.378.54-2.677a7.3 7.3 0 0 1 1.48-2.237q2.04-2.077 5.04-2.077 1.44 0 3.12.679V8.25q-1.18-1.458-3.02-1.458-1.42 0-2.4.878-1.16 1.08-1.16 2.737 0 1.578 1.08 2.597.98.92 2.48.919 1.74 0 3.02-1.398M86.975 12.765v.34h-6.66q0 .939.56 1.498.44.44 1.32.44.6 0 1.04-.24a1.35 1.35 0 0 0 .56-.6h3.06q-.3 1.08-1.08 1.838-1.28 1.239-3.64 1.239-2.34 0-3.7-1.359-1.32-1.318-1.32-3.376 0-2.157 1.34-3.456t3.66-1.298q2.14 0 3.44 1.219 1.42 1.358 1.42 3.755m-6.56-1.498h3.62a2 2 0 0 0-.52-.959q-.48-.48-1.32-.48-.82 0-1.3.48a1.83 1.83 0 0 0-.48.959M65.698 8.05h3.2v4.994q0 .858.48 1.298.38.34 1.12.34t1.14-.38q.46-.459.46-1.258V8.05h3.2v5.573q0 1.518-.86 2.397-1.22 1.26-3.86 1.259-2.84 0-4.04-1.279-.84-.879-.84-2.377zM57.514 16.98V8.05h3.2v1.458q.441-.84 1.26-1.238.66-.36 1.66-.36a.3.3 0 0 1 .1.02q.06 0 .2.02h.34v3.016a3.05 3.05 0 0 0-1.38-.32q-.94 0-1.46.48-.72.66-.72 2.038v3.815zM56.28 6.592h-2.84v10.387h-3.46V6.592h-2.84V3.655h9.14z"/><path fill="#BBC2CC" fill-opacity=".2" fill-rule="evenodd" d="M20.18 7.423a5.75 5.75 0 0 1 3.279-5.184 5.8 5.8 0 0 0-2.534-.552c-3.158.04-5.661 2.662-5.661 5.816v9.343h1.639a3.277 3.277 0 0 0 3.278-3.275zM6.567 20.944a5.737 5.737 0 0 1 5.742-5.736H7.39a5.74 5.74 0 0 0-5.752 5.736c0 3.164 2.574 5.736 5.752 5.736h4.917a5.743 5.743 0 0 1-5.742-5.736m13.615 13.682v-6.308a3.277 3.277 0 0 0-3.278-3.275h-1.64v9.503c0 3.154 2.504 5.776 5.662 5.816.905.01 1.77-.19 2.534-.552a5.75 5.75 0 0 1-3.278-5.184" clip-rule="evenodd"/><path fill="#BBC2CC" d="M21.005 42c-4.072 0-7.38-3.305-7.38-7.374v-6.308H7.39c-4.072 0-7.39-3.305-7.39-7.374s3.318-7.373 7.39-7.373h6.235V7.423c0-4.068 3.308-7.373 7.38-7.373s7.38 3.305 7.38 7.373v6.148h6.235c4.072 0 7.38 3.305 7.38 7.373a1.639 1.639 0 0 1-3.278 0c0-2.26-1.84-4.098-4.102-4.098h-7.873a1.64 1.64 0 0 1-1.64-1.637V7.423c0-2.26-1.84-4.098-4.102-4.098a4.105 4.105 0 0 0-4.102 4.098v7.786c0 .904-.734 1.637-1.64 1.637H7.39a4.105 4.105 0 0 0-4.102 4.098c0 2.26 1.84 4.099 4.102 4.099h7.874c.905 0 1.639.733 1.639 1.637v7.946c0 2.26 1.84 4.099 4.102 4.099a4.105 4.105 0 0 0 4.103-4.099V26.68a1.638 1.638 0 0 1 3.277 0v7.946c0 4.069-3.308 7.374-7.38 7.374"/><path fill="#BBC2CC" d="M34.62 28.318H33.14a1.639 1.639 0 1 1 0-3.275h1.479c.553 0 1.096-.12 1.639-.352a1.63 1.63 0 0 1 2.161.844 1.65 1.65 0 0 1-.844 2.16 7.4 7.4 0 0 1-2.956.623"/></svg>