<svg xmlns="http://www.w3.org/2000/svg" width="186" height="43" fill="none"><path fill="#fff" d="M14.58 24.878a5.25 5.25 0 0 0 3.429 1.265 5.26 5.26 0 0 0 3.427-1.265 14.6 14.6 0 0 0-3.427-.407c-1.181 0-2.329.141-3.428.407"/><path fill="#fff" d="M18.009 20.229c-1.835 0-3.605.274-5.273.783a5.26 5.26 0 0 0 1.845 3.866c1.099-.266 2.247-.407 3.428-.407 1.18 0 2.328.141 3.427.407a5.26 5.26 0 0 0 1.845-3.866 18 18 0 0 0-5.272-.783"/><path fill="#fff" d="M23.283 20.871a5.273 5.273 0 0 0-5.274-5.271 5.273 5.273 0 0 0-5.273 5.412 18 18 0 0 1 5.273-.783c1.834 0 3.604.274 5.272.783z"/><path fill="#fff" d="M18.009 3C8.063 3 0 11.059 0 21c0 3.12.794 6.056 2.192 8.614a18.1 18.1 0 0 1 6.592-6.848A9.4 9.4 0 0 1 8.618 21c0-5.184 4.205-9.386 9.39-9.386 5.187 0 9.39 4.202 9.39 9.386q0 .907-.165 1.766a18.1 18.1 0 0 1 6.592 6.848A17.9 17.9 0 0 0 36.017 21c0-9.941-8.062-18-18.008-18"/><path fill="#fff" fill-rule="evenodd" d="M7.98 35.952c0-4 1.454-6.8 3.11-8.607a9.37 9.37 0 0 0 6.919 3.04 9.37 9.37 0 0 0 6.88-2.997c1.67 1.831 3.15 4.635 3.15 8.564A17.93 17.93 0 0 1 18.008 39a17.93 17.93 0 0 1-10.03-3.048" clip-rule="evenodd"/><path fill="#fff" fill-rule="evenodd" d="M18.009 26.143a5.25 5.25 0 0 1-3.428-1.265c-.935.337-2.268 1.13-3.492 2.467a9.37 9.37 0 0 0 6.92 3.04 9.37 9.37 0 0 0 6.88-2.997c-1.213-1.329-2.527-2.146-3.453-2.51a5.26 5.26 0 0 1-3.427 1.265" clip-rule="evenodd"/><path fill="#fff" d="M8.784 22.766a18.1 18.1 0 0 0-6.592 6.848q.633 1.158 1.422 2.205c0-4.03 3.447-7.714 5.17-9.053M33.825 29.614a18.1 18.1 0 0 0-6.592-6.848c1.723 1.463 5.17 5.322 5.17 9.053a18 18 0 0 0 1.422-2.205M44.561 13.016q0-1.768.765-3.145a5.4 5.4 0 0 1 2.125-2.159q1.377-.782 3.111-.782 2.126 0 3.638 1.122t2.023 3.06h-3.196a2.57 2.57 0 0 0-1.02-1.139 2.8 2.8 0 0 0-1.479-.391q-1.342 0-2.176.935-.833.934-.833 2.499t.833 2.499q.832.935 2.176.935a2.8 2.8 0 0 0 1.479-.391q.663-.39 1.02-1.139h3.196q-.51 1.938-2.023 3.06-1.513 1.105-3.638 1.105-1.734 0-3.111-.765a5.56 5.56 0 0 1-2.125-2.159q-.765-1.377-.765-3.145m16.298-5.95v7.14q0 1.071.527 1.649t1.547.578 1.564-.578.544-1.649v-7.14h2.907v7.123q0 1.598-.68 2.703a4.34 4.34 0 0 1-1.836 1.666q-1.14.561-2.55.561t-2.533-.544a4.2 4.2 0 0 1-1.75-1.666q-.647-1.122-.647-2.72V7.066zm13.449 12.053q-1.31 0-2.347-.425a3.9 3.9 0 0 1-1.665-1.258q-.613-.833-.647-2.006h3.094q.069.663.46 1.02.39.34 1.02.34.645 0 1.02-.289.374-.306.374-.833a.96.96 0 0 0-.306-.731 2.3 2.3 0 0 0-.732-.476 11 11 0 0 0-1.223-.425q-1.156-.357-1.887-.714a3.5 3.5 0 0 1-1.258-1.054q-.528-.697-.528-1.819 0-1.666 1.207-2.601 1.207-.952 3.145-.952 1.972 0 3.18.952 1.207.935 1.291 2.618h-3.144q-.035-.578-.425-.901-.392-.34-1.004-.34-.525 0-.85.289-.323.272-.323.799 0 .578.544.901.545.323 1.7.697 1.156.39 1.87.748.732.357 1.258 1.037.528.68.527 1.751 0 1.02-.527 1.853-.51.832-1.496 1.326-.986.493-2.328.493M89.033 7.066v2.329h-3.162V19h-2.906V9.395h-3.163V7.066zm7.103 12.053a6.3 6.3 0 0 1-3.093-.782 5.94 5.94 0 0 1-2.228-2.176Q90 14.751 90 12.999q0-1.751.817-3.145a5.94 5.94 0 0 1 2.227-2.176 6.3 6.3 0 0 1 3.093-.782q1.684 0 3.078.782a5.66 5.66 0 0 1 2.209 2.176q.816 1.395.816 3.145t-.816 3.162a5.8 5.8 0 0 1-2.21 2.176q-1.393.782-3.076.782m0-2.652q1.429 0 2.279-.952.867-.952.866-2.516 0-1.581-.867-2.516-.85-.952-2.278-.952-1.444 0-2.311.935-.85.935-.85 2.533 0 1.58.85 2.533.867.935 2.311.935m21.236-9.401V19h-2.907v-7.157L111.796 19h-2.346l-2.686-7.174V19h-2.907V7.066h3.434l3.349 8.262 3.315-8.262zm4.997 2.329v2.414h3.893v2.244h-3.893v2.618h4.403V19h-7.31V7.066h7.31v2.329zM134.745 19l-2.482-4.505h-.697V19h-2.907V7.066h4.879q1.411 0 2.397.493 1.004.493 1.496 1.36.493.85.493 1.904 0 1.19-.68 2.125-.663.934-1.972 1.326L138.026 19zm-3.179-6.562h1.802q.8 0 1.19-.391.408-.39.408-1.105 0-.68-.408-1.071-.39-.39-1.19-.391h-1.802zM49.372 36.119q-1.31 0-2.346-.425t-1.666-1.258q-.612-.833-.646-2.006h3.094q.068.663.459 1.02.39.34 1.02.34.645 0 1.02-.289.374-.306.374-.833a.96.96 0 0 0-.306-.731 2.3 2.3 0 0 0-.731-.476 11 11 0 0 0-1.224-.425q-1.156-.357-1.887-.714a3.5 3.5 0 0 1-1.258-1.054q-.527-.697-.527-1.819 0-1.666 1.207-2.601 1.207-.952 3.145-.952 1.972 0 3.179.952 1.207.935 1.292 2.618h-3.145q-.034-.578-.425-.901-.39-.34-1.003-.34-.527 0-.85.289-.323.272-.323.799 0 .578.544.901.545.323 1.7.697 1.156.39 1.87.748.731.357 1.258 1.037t.527 1.751q0 1.02-.527 1.853-.51.832-1.496 1.326-.986.493-2.329.493m9.048-9.724v2.414h3.893v2.244H58.42v2.618h4.403V36h-7.31V24.066h7.31v2.329zM70.796 36l-2.482-4.505h-.697V36H64.71V24.066h4.88q1.41 0 2.396.493 1.004.493 1.496 1.36.493.85.493 1.904 0 1.19-.68 2.125-.663.934-1.972 1.326L74.077 36zm-3.179-6.562h1.802q.8 0 1.19-.391.408-.39.408-1.105 0-.68-.408-1.071-.39-.39-1.19-.391h-1.802zm19.386-5.372L82.77 36h-3.638L74.9 24.066h3.094l2.958 9.01 2.975-9.01zm4.122 0V36h-2.907V24.066zm1.614 5.95q0-1.768.765-3.145a5.4 5.4 0 0 1 2.125-2.159q1.377-.782 3.11-.782 2.126 0 3.639 1.122t2.023 3.06h-3.196a2.57 2.57 0 0 0-1.02-1.139 2.8 2.8 0 0 0-1.48-.391q-1.342 0-2.175.935-.834.935-.833 2.499 0 1.565.833 2.499.832.935 2.176.935a2.8 2.8 0 0 0 1.479-.391q.663-.39 1.02-1.139h3.196q-.51 1.938-2.023 3.06-1.514 1.105-3.638 1.105-1.734 0-3.111-.765a5.56 5.56 0 0 1-2.125-2.159q-.765-1.377-.765-3.145m16.349-3.621v2.414h3.893v2.244h-3.893v2.618h4.403V36h-7.31V24.066h7.31v2.329zm14.211 9.724q-1.31 0-2.346-.425-1.038-.425-1.666-1.258-.613-.833-.646-2.006h3.094q.067.663.459 1.02.39.34 1.02.34.645 0 1.02-.289.374-.306.374-.833a.96.96 0 0 0-.306-.731 2.3 2.3 0 0 0-.731-.476 11 11 0 0 0-1.224-.425q-1.157-.357-1.887-.714a3.5 3.5 0 0 1-1.258-1.054q-.528-.697-.527-1.819 0-1.666 1.207-2.601 1.206-.952 3.145-.952 1.971 0 3.179.952 1.206.935 1.292 2.618h-3.145q-.035-.578-.425-.901-.391-.34-1.003-.34-.528 0-.85.289-.323.272-.323.799 0 .578.544.901.543.323 1.7.697 1.156.39 1.87.748.73.357 1.258 1.037.527.68.527 1.751 0 1.02-.527 1.853-.51.832-1.496 1.326-.987.493-2.329.493m16.375-12.053-4.131 7.99V36h-2.907v-3.944l-4.131-7.99h3.298l2.312 4.998 2.295-4.998zm5.489 12.053q-1.31 0-2.346-.425t-1.666-1.258q-.612-.833-.646-2.006h3.094q.067.663.459 1.02.392.34 1.02.34.647 0 1.02-.289.374-.306.374-.833a.96.96 0 0 0-.306-.731 2.3 2.3 0 0 0-.731-.476 11 11 0 0 0-1.224-.425q-1.156-.357-1.887-.714a3.5 3.5 0 0 1-1.258-1.054q-.527-.697-.527-1.819 0-1.666 1.207-2.601 1.207-.952 3.145-.952 1.972 0 3.179.952 1.207.935 1.292 2.618h-3.145q-.034-.578-.425-.901-.391-.34-1.003-.34-.527 0-.85.289-.323.272-.323.799 0 .578.544.901t1.7.697q1.156.39 1.87.748.731.357 1.258 1.037t.527 1.751q0 1.02-.527 1.853-.51.832-1.496 1.326-.986.493-2.329.493m14.726-12.053v2.329h-3.162V36h-2.907v-9.605h-3.162v-2.329zm4.366 2.329v2.414h3.893v2.244h-3.893v2.618h4.403V36h-7.31V24.066h7.31v2.329zm19.805-2.329V36h-2.907v-7.157L178.484 36h-2.346l-2.686-7.174V36h-2.907V24.066h3.434l3.349 8.262 3.315-8.262z"/></svg>