<svg style="display: none;" aria-hidden="true" xmlns="http://www.w3.org/2000/svg" xmlns:xlink="http://www.w3.org/1999/xlink"><symbol fill="none" viewBox="0 0 22 16" id="svg-affiliate" xmlns="http://www.w3.org/2000/svg">
  <path fill="#454D58" d="M11 8.882c3.399 0 5.72 1.552 5.72 3.97 0 1.704-1.13 2.648-2.64 2.648H7.92c-1.51 0-2.64-.944-2.64-2.647 0-2.419 2.321-3.97 5.72-3.97Zm7.04 0c2.416 0 3.96 1.462 3.96 3.31 0 1.492-1.137 2.426-2.42 2.426h-.66a.881.881 0 0 1-.88-.883c0-.487.394-.882.88-.882h.66c.38 0 .66-.23.66-.662 0-.849-.734-1.544-2.2-1.544a.881.881 0 0 1-.88-.882c0-.488.394-.883.88-.883Zm-14.08 0c.486 0 .88.395.88.883a.881.881 0 0 1-.88.882c-1.466 0-2.2.695-2.2 1.544 0 .432.28.662.66.662h.66a.881.881 0 0 1 0 1.765h-.66c-1.283 0-2.42-.934-2.42-2.427 0-1.847 1.544-3.309 3.96-3.309ZM11 10.647c-2.541 0-3.96.948-3.96 2.206 0 .65.278.882.88.882h6.16c.602 0 .88-.232.88-.882 0-1.258-1.419-2.206-3.96-2.206Zm5.28-9.265a3.084 3.084 0 0 1 3.08 3.089 3.084 3.084 0 0 1-3.08 3.088.881.881 0 0 1-.88-.883c0-.487.394-.882.88-.882l.127-.006A1.322 1.322 0 0 0 17.6 4.471c0-.731-.591-1.324-1.32-1.324l-.103-.006a.882.882 0 0 1 .103-1.759Zm-10.56 0a.882.882 0 0 1 .103 1.759l-.103.006c-.729 0-1.32.593-1.32 1.324 0 .688.523 1.253 1.193 1.317l.127.006a.881.881 0 0 1 0 1.765A3.084 3.084 0 0 1 2.64 4.47a3.084 3.084 0 0 1 3.08-3.089ZM11 .5c1.944 0 3.52 1.58 3.52 3.53A3.525 3.525 0 0 1 11 7.559a3.525 3.525 0 0 1-3.52-3.53A3.525 3.525 0 0 1 11 .5Zm0 1.765c-.972 0-1.76.79-1.76 1.764 0 .975.788 1.765 1.76 1.765s1.76-.79 1.76-1.765c0-.974-.788-1.764-1.76-1.764Z"/>
</symbol><symbol fill="currentColor" viewBox="0 0 17 16" id="svg-arr-down" xmlns="http://www.w3.org/2000/svg">
  <path d="M13.14 6.273a.667.667 0 0 0-.947 0L9.14 9.327a.667.667 0 0 1-.946 0L5.14 6.273a.667.667 0 1 0-.946.94l3.06 3.06a2 2 0 0 0 2.826 0l3.06-3.06a.667.667 0 0 0 0-.94Z"/>
</symbol><symbol fill="currentColor" viewBox="0 0 10 15" id="svg-arr-next" xmlns="http://www.w3.org/2000/svg">
  <path d="m6.836 7.5-5.793 5.793a1 1 0 1 0 1.414 1.414l6.5-6.5a1 1 0 0 0 0-1.414l-6.5-6.5a1 1 0 0 0-1.414 1.414L6.836 7.5Z"/>
</symbol><symbol fill="currentColor" viewBox="0 0 10 15" id="svg-arr-prev" xmlns="http://www.w3.org/2000/svg">
  <path d="m3.164 7.5 5.793-5.793A1 1 0 0 0 7.543.293l-6.5 6.5a1 1 0 0 0 0 1.414l6.5 6.5a1 1 0 0 0 1.414-1.414L3.164 7.5Z"/>
</symbol><symbol fill="none" viewBox="0 0 24 20" id="svg-cart" xmlns="http://www.w3.org/2000/svg">
  <path fill="#000" fill-rule="evenodd" d="M2.451 2.025C2.136 2 1.728 2 1.111 2H1a1 1 0 1 1 0-2h.148c.57 0 1.054 0 1.454.03.421.032.822.101 1.213.277a3.5 3.5 0 0 1 1.482 1.255c.094.142.172.288.238.438h14.782c.51 0 .958 0 1.322.032.38.034.792.112 1.17.348a2.5 2.5 0 0 1 1.086 1.46c.118.43.074.847-.003 1.22-.073.359-.202.788-.349 1.277l-1.401 4.67-.043.143c-.201.674-.377 1.266-.745 1.725a3 3 0 0 1-1.219.907c-.546.22-1.163.22-1.866.218H9.176c-.452 0-.845 0-1.173-.025a3.032 3.032 0 0 1-1.037-.238 3 3 0 0 1-1.27-1.076 3.031 3.031 0 0 1-.405-.983c-.078-.32-.143-.708-.217-1.153L4.07 4.507c-.102-.609-.17-1.01-.245-1.318-.072-.295-.136-.431-.195-.52a1.5 1.5 0 0 0-.635-.538c-.097-.043-.242-.084-.545-.106ZM6.014 4l.024.142 1.003 6.02c.081.49.134.802.192 1.039.055.225.1.309.129.353a1 1 0 0 0 .423.358c.048.022.138.051.369.069.243.018.56.019 1.057.019h8.908c.943 0 1.131-.018 1.267-.073a1 1 0 0 0 .407-.302c.091-.115.163-.29.433-1.193l1.39-4.63c.162-.541.264-.884.317-1.143.042-.208.035-.28.033-.292a.5.5 0 0 0-.216-.29c-.01-.005-.078-.034-.29-.052C21.198 4 20.84 4 20.275 4H6.014Zm15.737.077h-.001.001Zm.215.289v.001-.001Z" clip-rule="evenodd"/>
  <path fill="#000" d="M7 18a2 2 0 1 1 4 0 2 2 0 0 1-4 0Zm9 0a2 2 0 1 1 4 0 2 2 0 0 1-4 0Z"/>
</symbol><symbol fill="none" viewBox="0 0 24 24" id="svg-checkmark" xmlns="http://www.w3.org/2000/svg">
  <path stroke="#000" stroke-linecap="round" stroke-width="2" d="m4 12.314 5.657 5.657L20.97 6.657"/>
</symbol><symbol fill="none" viewBox="0 0 24 24" id="svg-clock" xmlns="http://www.w3.org/2000/svg">
  <circle cx="12.5" cy="12.5" r="8.5" stroke="#000" stroke-width="1.5"/>
  <path stroke="#000" stroke-linecap="round" stroke-linejoin="round" stroke-width="1.5" d="M12.5 8.636v4.637l1.932 1.931"/>
</symbol><symbol fill="currentColor" viewBox="0 0 16 16" id="svg-close" xmlns="http://www.w3.org/2000/svg">
  <path d="M15.59 2.39A1.4 1.4 0 1 0 13.61.41L8 6.02 2.39.41A1.4 1.4 0 1 0 .41 2.39L6.02 8 .41 13.61a1.4 1.4 0 0 0 1.98 1.98L8 9.98l5.61 5.61a1.4 1.4 0 1 0 1.98-1.98L9.98 8l5.61-5.61Z"/>
</symbol><symbol fill="none" viewBox="0 0 24 25" id="svg-f-01" xmlns="http://www.w3.org/2000/svg">
  <path fill="#454D58" d="M11.507.045c.33-.06.655-.06.986 0 .33.059.598.154 1.134.397l8.58 3.9c.528.24.793.404 1.055.66.26.253.451.55.574.89.124.346.164.655.164 1.234v10.35c0 .579-.04.888-.164 1.233a2.33 2.33 0 0 1-.574.89c-.262.257-.527.421-1.054.66l-8.77 3.985c-.414.183-.656.262-.945.313-.33.06-.655.06-.986 0-.33-.059-.598-.154-1.134-.397l-8.58-3.9c-.528-.24-.793-.404-1.055-.66a2.336 2.336 0 0 1-.574-.89C.04 18.363 0 18.054 0 17.475L.002 6.921c.01-.452.053-.726.162-1.028.123-.34.315-.638.574-.89.262-.257.527-.421 1.054-.66l8.77-3.985c.414-.182.656-.261.945-.313ZM2 7.354v10.231c.002.2.01.3.024.372l.022.074a.34.34 0 0 0 .088.137c.07.069.151.119.486.27l8.38 3.81V11.432l-.042-.015-.2-.082L2 7.354Zm20-.001-8.759 3.982a3 3 0 0 1-.24.097L13 22.248l8.38-3.81c.215-.097.326-.152.396-.198l.032-.022.058-.05a.339.339 0 0 0 .088-.137c.034-.093.046-.187.046-.555V7.353ZM6.5 4.399 3.416 5.801l8.17 3.713a1 1 0 0 0 .713.044l.115-.044 2.669-1.213L6.5 4.399Zm5.64-2.386a.751.751 0 0 0-.28 0c-.136.025-.262.07-.66.25L8.917 3.3 17.5 7.202l3.083-1.401-7.784-3.538a5.187 5.187 0 0 0-.516-.214l-.05-.015-.093-.02Z"/>
</symbol><symbol fill="none" viewBox="0 0 24 20" id="svg-f-02" xmlns="http://www.w3.org/2000/svg">
  <path fill="#454D58" d="M12 .067c1.687 0 3.293.349 4.751.978l.328.147a12 12 0 0 1 3.406 2.39A11.965 11.965 0 0 1 24 12.067c0 .425-.022.846-.065 1.26a1 1 0 1 1-1.99-.208 9.966 9.966 0 0 0-2.874-8.123 10.048 10.048 0 0 0-3.112-2.115l-.005-.002A9.964 9.964 0 0 0 12 2.067a9.959 9.959 0 0 0-4.7 1.17l-.066.037A10.038 10.038 0 0 0 4.93 4.996 9.966 9.966 0 0 0 2 12.067c0 2.014.594 3.886 1.617 5.454a1 1 0 1 1-1.676 1.092A11.948 11.948 0 0 1 0 12.067c0-3.313 1.344-6.314 3.515-8.485a12.038 12.038 0 0 1 3.74-2.54l.006-.002A11.964 11.964 0 0 1 12 .067Z"/>
  <path fill="#454D58" fill-rule="evenodd" d="m14.077 9.867 8.905 7.247c1 .814.084 2.4-1.12 1.94l-10.73-4.088a3.04 3.04 0 0 1-.318-.143 3 3 0 1 1 2.979-5.162c.097.062.192.13.284.206ZM12.5 11.2a1 1 0 1 0-1 1.733 1 1 0 0 0 1-1.732Z" clip-rule="evenodd"/>
</symbol><symbol fill="none" viewBox="0 0 24 23" id="svg-f-03" xmlns="http://www.w3.org/2000/svg">
  <path fill="#454D58" fill-rule="evenodd" d="M5.466.603h13.068c.67 0 1.222 0 1.675.03.47.033.903.101 1.321.274a4 4 0 0 1 2.165 2.165c.173.418.241.852.273 1.32.04.578.031 1.159.031 1.737 0 .21 0 .414-.012.589a2.03 2.03 0 0 1-.14.65 2 2 0 0 1-1.082 1.082 2.23 2.23 0 0 1-.766.146v8.247c0 .805 0 1.47-.044 2.01-.046.562-.144 1.08-.392 1.564a4 4 0 0 1-1.747 1.748c-.486.248-1.002.346-1.565.392-.54.044-1.205.044-2.01.044H7.759c-.805 0-1.47 0-2.01-.044-.563-.046-1.08-.144-1.564-.392a4 4 0 0 1-1.748-1.748c-.248-.485-.346-1.002-.392-1.564C2 18.313 2 17.648 2 16.843V8.596a2.213 2.213 0 0 1-.766-.146A2 2 0 0 1 .153 7.368a2.029 2.029 0 0 1-.14-.65A9.143 9.143 0 0 1 0 6.128c0-.576-.009-1.158.03-1.735.033-.47.101-.903.274-1.321A4 4 0 0 1 2.47.907c.418-.173.852-.241 1.32-.273C4.244.603 4.796.603 5.466.603Zm-2.982 6c-.248 0-.387-.002-.475-.009A7.659 7.659 0 0 1 2 6.102c0-.712 0-1.197.026-1.573.025-.367.07-.558.126-.692a2 2 0 0 1 1.082-1.082c.134-.055.325-.101.692-.126.377-.026.86-.026 1.573-.026h13c.712 0 1.197 0 1.573.026.367.025.558.07.692.126a2 2 0 0 1 1.082 1.082c.055.134.101.325.126.692.026.376.026.86.026 1.573 0 .258 0 .402-.008.492a7.337 7.337 0 0 1-.475.008H2.484Zm1.516 2v8.199c0 .856.001 1.439.038 1.889.036.438.1.662.18.819a2 2 0 0 0 .874.873c.157.08.381.145.82.18.45.038 1.032.038 1.888.038h8.4c.856 0 1.439 0 1.889-.037.438-.036.662-.1.819-.18a2 2 0 0 0 .873-.875c.08-.156.145-.38.18-.819.038-.45.039-1.032.039-1.888v-8.2H4Z" clip-rule="evenodd"/>
  <path fill="#454D58" fill-rule="evenodd" d="M16.207 10.895a1 1 0 0 1 0 1.414l-5 5a1 1 0 0 1-1.414 0l-2-2a1 1 0 1 1 1.414-1.414l1.293 1.293 4.293-4.293a1 1 0 0 1 1.414 0Z" clip-rule="evenodd"/>
</symbol><symbol fill="none" viewBox="0 0 24 22" id="svg-f-04" xmlns="http://www.w3.org/2000/svg">
  <path fill="#454D58" d="M15.963 14.719a.923.923 0 0 1 1.305 1.305l-1.195 1.193h7.004c.473 0 .863.357.917.816l.006.107c0 .51-.413.924-.923.924h-7.002l1.193 1.193a.923.923 0 0 1 .077 1.218l-.077.087a.923.923 0 0 1-1.305 0l-2.77-2.769a.923.923 0 0 1 0-1.305l2.77-2.77Zm4.345-5.952c0-.986-.068-1.337-.261-1.698a1.593 1.593 0 0 0-.668-.668c-.361-.193-.712-.26-1.698-.26H1.846v8.45c0 .986.068 1.337.26 1.697.156.29.379.513.67.669.36.193.711.26 1.697.26h5.68a.923.923 0 0 1 0 1.847h-5.68c-1.265 0-1.904-.124-2.569-.48A3.44 3.44 0 0 1 .48 17.16C.123 16.494 0 15.855 0 14.591V4.293h.002v-.05c.016-.924.13-1.439.415-1.974a3.02 3.02 0 0 1 1.251-1.25C2.248.71 2.804.601 3.881.601h10.7c1.076 0 1.633.107 2.212.417a3.02 3.02 0 0 1 1.251 1.251c.293.548.405 1.076.417 2.043.78.05 1.276.186 1.788.46A3.44 3.44 0 0 1 21.675 6.2c.355.665.479 1.304.479 2.568v5.681a.923.923 0 1 1-1.846 0v-5.68Zm-3.693 1.989a.923.923 0 1 1 0 1.846H14.77a.923.923 0 0 1 0-1.846h1.846ZM14.58 2.448H3.881c-.798 0-1.067.052-1.342.2a1.174 1.174 0 0 0-.494.493c-.135.252-.19.5-.198 1.153h14.767c-.008-.654-.063-.9-.198-1.153a1.174 1.174 0 0 0-.493-.494c-.276-.147-.544-.199-1.343-.199Z"/>
</symbol><symbol fill="currentColor" viewBox="0 0 21 20" id="svg-minus" xmlns="http://www.w3.org/2000/svg">
  <path fill-opacity=".75" fill-rule="evenodd" d="M14.32 0c1.78.019 2.686.21 3.625.713a5.04 5.04 0 0 1 2.092 2.092c.502.94.694 1.845.713 3.626v7.138c-.019 1.78-.21 2.687-.713 3.626a5.04 5.04 0 0 1-2.092 2.092c-.94.502-1.845.694-3.626.713H7.181c-1.78-.019-2.687-.21-3.626-.713a5.04 5.04 0 0 1-2.092-2.092C.961 16.255.77 15.35.75 13.57V6.431c.019-1.78.21-2.687.713-3.626A5.04 5.04 0 0 1 3.555.713C4.495.211 5.4.02 7.18 0h7.138Zm-.306 1.817H7.486l-.507.004c-1.345.026-1.947.164-2.567.496a3.222 3.222 0 0 0-1.345 1.345c-.332.62-.47 1.222-.496 2.567l-.004.507v6.528l.004.507c.026 1.345.164 1.947.496 2.567a3.222 3.222 0 0 0 1.345 1.345c.62.332 1.222.47 2.567.496l.507.004h6.528l.507-.004c1.345-.026 1.947-.164 2.567-.496a3.221 3.221 0 0 0 1.345-1.345c.332-.62.47-1.222.496-2.567l.004-.507V6.736l-.004-.507c-.026-1.345-.164-1.947-.496-2.567a3.222 3.222 0 0 0-1.345-1.345c-.62-.332-1.222-.47-2.567-.496l-.507-.004Zm-6.9 7.275h7.275a.91.91 0 0 1 0 1.819H7.114a.91.91 0 0 1 0-1.819Z" clip-rule="evenodd"/>
</symbol><symbol fill="currentColor" viewBox="0 0 19 18" id="svg-phone" xmlns="http://www.w3.org/2000/svg">
  <path d="M10.235.787c0-.435.353-.787.788-.787a7.308 7.308 0 0 1 7.31 7.306.787.787 0 0 1-1.575 0 5.734 5.734 0 0 0-5.735-5.732.787.787 0 0 1-.788-.787Z"/>
  <path fill-rule="evenodd" d="M8.453 9.891c.413.412.772.725 1.063.938 1.672-1.671 4.274-1.823 6.025-.352l.806.679c1.598 1.344 1.758 3.739.385 5.35-.705.815-1.697 1.327-2.71 1.422-3.136.422-6.29-1.025-9.437-4.171C1.437 10.61-.012 7.458.403 4.395c.029-.326.097-.647.202-.96a4.195 4.195 0 0 1 1.239-1.827c1.604-1.363 4-1.204 5.343.394l.678.805c1.474 1.747 1.323 4.35-.315 5.987.178.325.49.685.903 1.097Zm2.212 2.016-.578.578a.561.561 0 0 1-.59.13c-.575-.211-1.294-.748-2.158-1.611-.862-.862-1.4-1.581-1.61-2.157a.56.56 0 0 1 .129-.59l.579-.577C7.503 6.614 7.6 4.936 6.66 3.821l-.679-.806c-.775-.92-2.17-1.013-3.118-.208a2.612 2.612 0 0 0-.768 1.136c-.065.192-.107.39-.125.592-.347 2.575.896 5.278 3.728 8.109 2.832 2.83 5.536 4.071 8.113 3.724a2.613 2.613 0 0 0 1.729-.892c.806-.946.713-2.342-.208-3.116l-.806-.68c-1.117-.937-2.795-.839-3.862.227Z" clip-rule="evenodd"/>
  <path d="M13.406 6.899c.48-.054.802-.527.573-.95a3.945 3.945 0 0 0-1.6-1.597c-.423-.228-.896.094-.95.573l-.138 1.243a.787.787 0 0 0 .87.87l1.245-.14Z"/>
</symbol><symbol fill="currentColor" viewBox="0 0 21 20" id="svg-plus" xmlns="http://www.w3.org/2000/svg">
  <path fill-opacity=".75" d="M14.32 0c1.78.019 2.686.21 3.625.713a5.04 5.04 0 0 1 2.092 2.092c.502.94.694 1.845.713 3.626v7.138c-.019 1.78-.21 2.687-.713 3.626a5.04 5.04 0 0 1-2.092 2.092c-.94.502-1.845.694-3.626.713H7.181c-1.78-.019-2.687-.21-3.626-.713a5.04 5.04 0 0 1-2.092-2.092C.961 16.255.77 15.35.75 13.57V6.431c.019-1.78.21-2.687.713-3.626A5.04 5.04 0 0 1 3.555.713C4.495.211 5.4.02 7.18 0h7.138Zm-.306 1.817H7.486l-.507.004c-1.345.026-1.947.164-2.567.496a3.222 3.222 0 0 0-1.345 1.345c-.332.62-.47 1.222-.496 2.567l-.004.507v6.528l.004.507c.026 1.345.164 1.947.496 2.567a3.222 3.222 0 0 0 1.345 1.345c.62.332 1.222.47 2.567.496l.507.004h6.528l.507-.004c1.345-.026 1.947-.164 2.567-.496a3.221 3.221 0 0 0 1.345-1.345c.332-.62.47-1.222.496-2.567l.004-.507V6.736l-.004-.507c-.026-1.345-.164-1.947-.496-2.567a3.222 3.222 0 0 0-1.345-1.345c-.62-.332-1.222-.47-2.567-.496l-.507-.004Zm-3.262 3.638a.91.91 0 0 1 .909.91v2.727h2.728a.91.91 0 0 1 0 1.819H11.66v2.728a.91.91 0 0 1-1.819 0V10.91H7.115a.91.91 0 0 1 0-1.819h2.727V6.365a.91.91 0 0 1 .91-.91Z"/>
</symbol><symbol fill="none" viewBox="0 0 24 24" id="svg-pref-01" xmlns="http://www.w3.org/2000/svg">
  <path fill="#454D58" d="M15.167 8.317a.772.772 0 0 0-.26-1.052.754.754 0 0 0-1.04.263l-5.175 8.72a.772.772 0 0 0 .26 1.052c.36.218.825.1 1.04-.263l5.175-8.72Z"/>
  <path fill="#454D58" fill-rule="evenodd" d="M6.926 9.201c0-1.13.905-2.045 2.022-2.045 1.117 0 2.023.916 2.023 2.045v.511c0 1.13-.906 2.045-2.023 2.045a2.034 2.034 0 0 1-2.022-2.045v-.511Zm2.7 0v.511a.681.681 0 0 1-.678.685.681.681 0 0 1-.677-.685v-.511c0-.378.303-.685.677-.685.375 0 .678.307.678.685Zm5.39 3.579a2.034 2.034 0 0 0-2.023 2.045v.51c0 1.13.906 2.046 2.023 2.046a2.034 2.034 0 0 0 2.022-2.045v-.511c0-1.13-.905-2.045-2.022-2.045Zm.677 2.556v-.511a.681.681 0 0 0-.677-.685.681.681 0 0 0-.678.684v.512c0 .378.304.685.678.685a.681.681 0 0 0 .677-.685Z" clip-rule="evenodd"/>
  <path fill="#454D58" fill-rule="evenodd" d="M14.385 1.023a3.292 3.292 0 0 0-4.77 0l-.77.805c-.276.29-.67.435-1.065.393l-1.102-.117c-1.866-.198-3.523 1.208-3.654 3.1l-.078 1.117a1.312 1.312 0 0 1-.567.993l-.917.627C-.094 9.002-.47 11.156.633 12.69l.65.906c.235.325.307.742.198 1.129l-.305 1.076c-.517 1.824.564 3.718 2.385 4.178l1.074.27c.387.098.707.37.87.738l.45 1.022a3.302 3.302 0 0 0 4.483 1.65l.995-.49a1.282 1.282 0 0 1 1.134 0l.995.49a3.302 3.302 0 0 0 4.483-1.65l.45-1.022c.163-.368.483-.64.87-.737l1.074-.271c1.82-.46 2.902-2.354 2.385-4.178l-.305-1.076a1.32 1.32 0 0 1 .197-1.13l.65-.905c1.103-1.536.728-3.689-.828-4.75l-.917-.627a1.312 1.312 0 0 1-.567-.993l-.078-1.117c-.131-1.892-1.788-3.298-3.654-3.1l-1.102.117a1.286 1.286 0 0 1-1.065-.393l-.77-.805ZM11.07 2.444a1.284 1.284 0 0 1 1.862 0l.77.805a3.296 3.296 0 0 0 2.73 1.005l1.101-.116a1.299 1.299 0 0 1 1.427 1.21l.077 1.116A3.361 3.361 0 0 0 20.49 9.01l.918.627c.607.414.753 1.254.323 1.853l-.65.906a3.384 3.384 0 0 0-.505 2.894l.305 1.076a1.31 1.31 0 0 1-.931 1.63l-1.074.272c-.99.25-1.811.946-2.227 1.889l-.45 1.022a1.288 1.288 0 0 1-1.75.644l-.995-.49a3.284 3.284 0 0 0-2.906 0l-.995.49a1.289 1.289 0 0 1-1.75-.644l-.45-1.023a3.327 3.327 0 0 0-2.227-1.888l-1.074-.271a1.31 1.31 0 0 1-.93-1.63l.304-1.077a3.384 3.384 0 0 0-.505-2.894l-.65-.906a1.317 1.317 0 0 1 .323-1.853l.918-.627a3.361 3.361 0 0 0 1.453-2.545l.077-1.116a1.299 1.299 0 0 1 1.427-1.21l1.1.116A3.296 3.296 0 0 0 10.3 3.25l.77-.805Z" clip-rule="evenodd"/>
</symbol><symbol fill="none" viewBox="0 0 24 24" id="svg-pref-02" xmlns="http://www.w3.org/2000/svg">
  <path fill="#454D58" d="M12 0c6.627 0 12 5.373 12 12s-5.373 12-12 12S0 18.627 0 12 5.373 0 12 0Zm0 2C6.477 2 2 6.477 2 12s4.477 10 10 10 10-4.477 10-10S17.523 2 12 2Zm4.29 6.29c.39-.39 1.03-.39 1.42 0 .39.39.39 1.03 0 1.42l-7.003 6.997a1 1 0 0 1-1.414 0l-3.5-3.5a1 1 0 1 1 1.414-1.414L10 14.586l6.29-6.296Z"/>
</symbol><symbol fill="none" viewBox="0 0 24 22" id="svg-pref-03" xmlns="http://www.w3.org/2000/svg">
  <path fill="#454D58" fill-rule="evenodd" d="M5.466 0h13.068c.67 0 1.222 0 1.675.032.47.032.903.1 1.321.273a4 4 0 0 1 2.165 2.165c.173.418.241.852.273 1.32.04.578.031 1.159.031 1.737 0 .21 0 .414-.012.589a2.03 2.03 0 0 1-.14.65 2 2 0 0 1-1.082 1.082 2.23 2.23 0 0 1-.766.146v8.247c0 .805 0 1.47-.044 2.01-.046.563-.144 1.08-.392 1.564a4 4 0 0 1-1.747 1.748c-.486.248-1.002.346-1.565.392-.54.044-1.205.044-2.01.044H7.759c-.805 0-1.47 0-2.01-.044-.563-.046-1.08-.144-1.564-.392a4 4 0 0 1-1.748-1.748c-.248-.485-.346-1.002-.392-1.564C2 17.711 2 17.046 2 16.241V7.994a2.213 2.213 0 0 1-.766-.146A2 2 0 0 1 .153 6.766a2.029 2.029 0 0 1-.14-.65A9.143 9.143 0 0 1 0 5.526c0-.576-.009-1.158.03-1.735.033-.47.101-.903.274-1.321A4 4 0 0 1 2.47.305c.418-.173.852-.241 1.32-.273C4.244 0 4.796 0 5.466 0ZM2.484 6c-.248 0-.387 0-.475-.008A7.659 7.659 0 0 1 2 5.5c0-.712 0-1.197.026-1.573.025-.367.07-.558.126-.692a2 2 0 0 1 1.082-1.082c.134-.055.325-.101.692-.126C4.304 2 4.787 2 5.5 2h13c.712 0 1.197 0 1.573.026.367.025.558.07.692.126a2 2 0 0 1 1.082 1.082c.055.134.101.325.126.692.026.376.026.86.026 1.573 0 .258 0 .402-.008.492a7.337 7.337 0 0 1-.475.008H2.484ZM4 8v8.2c0 .856.001 1.439.038 1.889.036.438.1.662.18.819a2 2 0 0 0 .874.873c.157.08.381.145.82.18C6.361 20 6.943 20 7.8 20h8.4c.856 0 1.439-.001 1.889-.038.438-.036.662-.1.819-.18a2 2 0 0 0 .873-.875c.08-.156.145-.38.18-.819.038-.45.039-1.032.039-1.888V8H4Z" clip-rule="evenodd"/>
  <path fill="#454D58" fill-rule="evenodd" d="M16.207 10.293a1 1 0 0 1 0 1.414l-5 5a1 1 0 0 1-1.414 0l-2-2a1 1 0 1 1 1.414-1.414l1.293 1.293 4.293-4.293a1 1 0 0 1 1.414 0Z" clip-rule="evenodd"/>
</symbol><symbol fill="none" viewBox="0 0 24 22" id="svg-pref-04" xmlns="http://www.w3.org/2000/svg">
  <path fill="#454D58" d="M15.963 14.501a.923.923 0 1 1 1.305 1.306L16.073 17h7.004c.473 0 .863.356.917.816l.006.107c0 .51-.413.923-.923.923h-7.002l1.193 1.194a.923.923 0 0 1 .077 1.218l-.077.087a.923.923 0 0 1-1.305 0l-2.77-2.77a.923.923 0 0 1 0-1.305l2.77-2.769Zm4.345-5.951c0-.986-.068-1.337-.261-1.698a1.593 1.593 0 0 0-.668-.668c-.361-.193-.712-.26-1.698-.26H1.846v8.45c0 .985.068 1.336.26 1.697.156.29.379.513.67.668.36.193.711.261 1.697.261h5.68a.923.923 0 0 1 0 1.846h-5.68c-1.265 0-1.904-.123-2.569-.479A3.44 3.44 0 0 1 .48 16.942C.123 16.277 0 15.638 0 14.373V4.077h.002v-.05c.016-.924.13-1.44.415-1.974A3.02 3.02 0 0 1 1.668.802c.58-.31 1.136-.417 2.213-.417h10.7c1.076 0 1.633.107 2.212.417a3.02 3.02 0 0 1 1.251 1.251c.293.548.405 1.076.417 2.043.78.05 1.276.186 1.788.46a3.44 3.44 0 0 1 1.426 1.425c.355.665.479 1.304.479 2.569v5.68a.923.923 0 1 1-1.846 0V8.55Zm-3.693 1.989a.923.923 0 0 1 0 1.846H14.77a.923.923 0 1 1 0-1.846h1.846ZM14.58 2.23H3.881c-.798 0-1.067.052-1.342.199a1.174 1.174 0 0 0-.494.494c-.135.252-.19.499-.198 1.153h14.767c-.008-.654-.063-.901-.198-1.153a1.174 1.174 0 0 0-.493-.494c-.276-.147-.544-.2-1.343-.2Z"/>
</symbol><symbol fill="currentColor" viewBox="0 0 16 16" id="svg-search" xmlns="http://www.w3.org/2000/svg">
  <path fill-rule="evenodd" d="M7.333 2.083a5.25 5.25 0 1 0 0 10.5 5.25 5.25 0 0 0 0-10.5Zm-6.75 5.25a6.75 6.75 0 1 1 13.5 0 6.75 6.75 0 0 1-13.5 0Z" clip-rule="evenodd"/>
  <path fill-rule="evenodd" d="M11.47 11.47a.75.75 0 0 1 1.06 0l2.667 2.666a.75.75 0 0 1-1.06 1.061L11.47 12.53a.75.75 0 0 1 0-1.06Z" clip-rule="evenodd"/>
</symbol><symbol fill="none" viewBox="0 0 78 14" id="svg-stars" xmlns="http://www.w3.org/2000/svg">
  <path fill="#EED54F" d="M6.308 1.658a.75.75 0 0 1 1.384 0l1.09 2.609a.75.75 0 0 0 .59.454l2.916.395a.75.75 0 0 1 .373 1.324L10.43 8.262a.75.75 0 0 0-.257.75l.713 3.08c.155.67-.599 1.178-1.162.783l-2.292-1.609a.75.75 0 0 0-.862 0l-2.292 1.609c-.563.395-1.317-.113-1.162-.783l.713-3.08a.75.75 0 0 0-.257-.75L1.34 6.44a.75.75 0 0 1 .373-1.324l2.915-.395a.75.75 0 0 0 .592-.454l1.089-2.609Zm16 0a.75.75 0 0 1 1.384 0l1.09 2.609a.75.75 0 0 0 .59.454l2.916.395a.75.75 0 0 1 .373 1.324l-2.233 1.822a.75.75 0 0 0-.256.75l.713 3.08c.155.67-.599 1.178-1.162.783l-2.292-1.609a.75.75 0 0 0-.862 0l-2.292 1.609c-.563.395-1.317-.113-1.162-.783l.713-3.08a.75.75 0 0 0-.257-.75L17.34 6.44a.75.75 0 0 1 .373-1.324l2.915-.395a.75.75 0 0 0 .592-.454l1.089-2.609Zm16 0a.75.75 0 0 1 1.384 0l1.09 2.609a.75.75 0 0 0 .59.454l2.916.395a.75.75 0 0 1 .373 1.324l-2.233 1.822a.75.75 0 0 0-.256.75l.713 3.08c.155.67-.599 1.178-1.162.783l-2.292-1.609a.75.75 0 0 0-.862 0l-2.292 1.609c-.563.395-1.317-.113-1.162-.783l.713-3.08a.75.75 0 0 0-.257-.75L33.34 6.44a.75.75 0 0 1 .373-1.324l2.915-.395a.75.75 0 0 0 .592-.454l1.089-2.609Zm16 0a.75.75 0 0 1 1.384 0l1.09 2.609a.75.75 0 0 0 .59.454l2.916.395a.75.75 0 0 1 .373 1.324l-2.233 1.822a.75.75 0 0 0-.256.75l.713 3.08c.155.67-.599 1.178-1.162.783l-2.292-1.609a.75.75 0 0 0-.862 0l-2.292 1.609c-.563.395-1.317-.113-1.162-.783l.713-3.08a.75.75 0 0 0-.257-.75L49.34 6.44a.75.75 0 0 1 .373-1.324l2.915-.395a.75.75 0 0 0 .592-.454l1.089-2.609Zm16 0a.75.75 0 0 1 1.384 0l1.09 2.609a.75.75 0 0 0 .59.454l2.916.395a.75.75 0 0 1 .373 1.324l-2.233 1.822a.75.75 0 0 0-.256.75l.713 3.08c.155.67-.599 1.178-1.162.783l-2.292-1.609a.75.75 0 0 0-.862 0l-2.292 1.609c-.563.395-1.317-.113-1.162-.783l.713-3.08a.75.75 0 0 0-.257-.75L65.34 6.44a.75.75 0 0 1 .373-1.324l2.915-.395a.75.75 0 0 0 .592-.454l1.089-2.609Z"/>
</symbol><symbol fill="currentColor" viewBox="0 0 18 20" id="svg-trash-bin" xmlns="http://www.w3.org/2000/svg">
  <path d="M9 .804c1.86 0 3.072.966 3.46 2.74h4.757a.783.783 0 0 1 0 1.565h-.864L15.09 17.094a2.348 2.348 0 0 1-2.335 2.102H5.244a2.348 2.348 0 0 1-2.335-2.102L1.647 5.109H.783a.783.783 0 0 1 0-1.566H5.54C5.928 1.77 7.14.804 9 .804Zm5.778 4.305H3.221l1.245 11.82a.782.782 0 0 0 .778.701h7.512c.4 0 .736-.302.778-.7l1.244-11.821ZM9 6.674c.432 0 .783.35.783.782v7.827a.783.783 0 0 1-1.566 0V7.457c0-.433.35-.783.783-.783Zm3.17 0a.783.783 0 0 1 .742.822l-.391 7.826a.783.783 0 0 1-1.564-.079l.392-7.826a.783.783 0 0 1 .82-.742Zm-6.34 0c.432-.02.8.312.821.743l.392 7.826a.783.783 0 0 1-1.564.079l-.391-7.826a.783.783 0 0 1 .742-.821ZM9 2.37c-.991 0-1.565.355-1.84 1.173h3.68C10.566 2.725 9.992 2.37 9 2.37Z"/>
</symbol><symbol fill="none" viewBox="0 0 24 25" id="svg-verified" xmlns="http://www.w3.org/2000/svg">
  <path fill="#fff" d="M16.283.5c2.137.023 3.224.253 4.351.856a6.048 6.048 0 0 1 2.51 2.51c.603 1.127.833 2.214.856 4.35v8.567c-.023 2.137-.253 3.224-.856 4.351a6.048 6.048 0 0 1-2.51 2.51c-1.127.603-2.214.833-4.35.856H7.716c-2.137-.023-3.224-.253-4.351-.856a6.048 6.048 0 0 1-2.51-2.51C.253 20.008.023 18.92 0 16.785V8.216c.023-2.136.253-3.223.856-4.35a6.048 6.048 0 0 1 2.51-2.51C4.493.753 5.58.523 7.716.5h8.567Zm-.366 2.18H8.083l-.608.006c-1.614.03-2.337.197-3.08.594A3.866 3.866 0 0 0 2.78 4.895c-.397.743-.564 1.466-.594 3.08l-.006.608v7.834l.006.608c.03 1.615.197 2.337.594 3.08.374.7.916 1.241 1.615 1.615.743.398 1.466.564 3.08.594l.608.006h7.834l.608-.006c1.615-.03 2.337-.197 3.08-.594a3.866 3.866 0 0 0 1.615-1.615c.398-.743.564-1.465.594-3.08l.006-.608V8.583l-.006-.608c-.03-1.614-.197-2.337-.594-3.08a3.866 3.866 0 0 0-1.615-1.615c-.743-.397-1.465-.564-3.08-.594l-.608-.006Zm.06 6.214a1.091 1.091 0 0 1 1.543 1.543l-6.11 6.11a1.091 1.091 0 0 1-1.543 0L7.03 13.71a1.091 1.091 0 1 1 1.543-1.543l2.065 2.065 5.338-5.338Z"/>
</symbol></svg>