<svg xmlns="http://www.w3.org/2000/svg" width="24" height="24" fill="none" viewBox="0 0 24 24">
  <path fill="#454D58" d="M15.167 8.317a.772.772 0 0 0-.26-1.052.754.754 0 0 0-1.04.263l-5.175 8.72a.772.772 0 0 0 .26 1.052c.36.218.825.1 1.04-.263l5.175-8.72Z"/>
  <path fill="#454D58" fill-rule="evenodd" d="M6.926 9.201c0-1.13.905-2.045 2.022-2.045 1.117 0 2.023.916 2.023 2.045v.511c0 1.13-.906 2.045-2.023 2.045a2.034 2.034 0 0 1-2.022-2.045v-.511Zm2.7 0v.511a.681.681 0 0 1-.678.685.681.681 0 0 1-.677-.685v-.511c0-.378.303-.685.677-.685.375 0 .678.307.678.685Zm5.39 3.579a2.034 2.034 0 0 0-2.023 2.045v.51c0 1.13.906 2.046 2.023 2.046a2.034 2.034 0 0 0 2.022-2.045v-.511c0-1.13-.905-2.045-2.022-2.045Zm.677 2.556v-.511a.681.681 0 0 0-.677-.685.681.681 0 0 0-.678.684v.512c0 .378.304.685.678.685a.681.681 0 0 0 .677-.685Z" clip-rule="evenodd"/>
  <path fill="#454D58" fill-rule="evenodd" d="M14.385 1.023a3.292 3.292 0 0 0-4.77 0l-.77.805c-.276.29-.67.435-1.065.393l-1.102-.117c-1.866-.198-3.523 1.208-3.654 3.1l-.078 1.117a1.312 1.312 0 0 1-.567.993l-.917.627C-.094 9.002-.47 11.156.633 12.69l.65.906c.235.325.307.742.198 1.129l-.305 1.076c-.517 1.824.564 3.718 2.385 4.178l1.074.27c.387.098.707.37.87.738l.45 1.022a3.302 3.302 0 0 0 4.483 1.65l.995-.49a1.282 1.282 0 0 1 1.134 0l.995.49a3.302 3.302 0 0 0 4.483-1.65l.45-1.022c.163-.368.483-.64.87-.737l1.074-.271c1.82-.46 2.902-2.354 2.385-4.178l-.305-1.076a1.32 1.32 0 0 1 .197-1.13l.65-.905c1.103-1.536.728-3.689-.828-4.75l-.917-.627a1.312 1.312 0 0 1-.567-.993l-.078-1.117c-.131-1.892-1.788-3.298-3.654-3.1l-1.102.117a1.286 1.286 0 0 1-1.065-.393l-.77-.805ZM11.07 2.444a1.284 1.284 0 0 1 1.862 0l.77.805a3.296 3.296 0 0 0 2.73 1.005l1.101-.116a1.299 1.299 0 0 1 1.427 1.21l.077 1.116A3.361 3.361 0 0 0 20.49 9.01l.918.627c.607.414.753 1.254.323 1.853l-.65.906a3.384 3.384 0 0 0-.505 2.894l.305 1.076a1.31 1.31 0 0 1-.931 1.63l-1.074.272c-.99.25-1.811.946-2.227 1.889l-.45 1.022a1.288 1.288 0 0 1-1.75.644l-.995-.49a3.284 3.284 0 0 0-2.906 0l-.995.49a1.289 1.289 0 0 1-1.75-.644l-.45-1.023a3.327 3.327 0 0 0-2.227-1.888l-1.074-.271a1.31 1.31 0 0 1-.93-1.63l.304-1.077a3.384 3.384 0 0 0-.505-2.894l-.65-.906a1.317 1.317 0 0 1 .323-1.853l.918-.627a3.361 3.361 0 0 0 1.453-2.545l.077-1.116a1.299 1.299 0 0 1 1.427-1.21l1.1.116A3.296 3.296 0 0 0 10.3 3.25l.77-.805Z" clip-rule="evenodd"/>
</svg>
