<svg width="50" height="51" viewBox="0 0 50 51" fill="none" xmlns="http://www.w3.org/2000/svg">
<path d="M37.5 43.8284C43.253 43.8284 47.9167 39.1647 47.9167 33.4118C47.9167 27.6588 43.253 22.9951 37.5 22.9951C31.7471 22.9951 27.0834 27.6588 27.0834 33.4118C27.0834 39.1647 31.7471 43.8284 37.5 43.8284Z" fill="#F5E175"/>
<path d="M44.7667 27.9159C44.2667 26.5909 43.5542 25.4534 42.6292 24.5034C42.1646 24.0263 41.6542 23.6055 41.0979 23.2367C41.1104 23.1555 41.1458 23.0805 41.1458 22.9951V12.5784C41.1458 9.41799 38.5771 6.84924 35.4167 6.84924H10.4167C7.25625 6.84924 4.6875 9.41799 4.6875 12.5784V29.2451C4.6875 32.4055 7.25625 34.9742 10.4167 34.9742H24.3167C24.4479 35.5847 24.6021 36.1826 24.8292 36.7409C25.3708 38.0659 26.1375 39.2034 27.1292 40.1534C28.1208 41.1034 29.2854 41.8367 30.6292 42.3534C31.9708 42.8701 33.4417 43.1284 35.0417 43.1284C37.125 43.1284 38.975 42.6117 40.5917 41.5784L39.3167 39.1534C38.7 39.5534 38.0292 39.8576 37.3042 40.0659C36.5771 40.2742 35.8167 40.3784 35.0146 40.3784C33.8812 40.3784 32.8271 40.1867 31.8521 39.8034C30.8771 39.4201 30.0271 38.8701 29.3021 38.1534C28.575 37.4367 28.0146 36.5826 27.6125 35.5909C27.2146 34.5992 27.0125 33.5034 27.0125 32.3034C27.0125 31.1367 27.2 30.0659 27.5771 29.0909C27.9521 28.1159 28.4917 27.2701 29.2 26.5534C29.9104 25.8367 30.7542 25.2784 31.7396 24.8784C32.7229 24.4784 33.8229 24.2784 35.0396 24.2784C36.2729 24.2784 37.3542 24.4742 38.2896 24.8659C39.225 25.2576 40.0021 25.8117 40.6271 26.5284C41.2521 27.2451 41.7229 28.0826 42.0396 29.0409C42.3563 29.9992 42.5167 31.0451 42.5167 32.1784C42.5167 33.1951 42.3979 33.9117 42.1667 34.3284C41.9333 34.7451 41.575 34.9534 41.0896 34.9534C40.7062 34.9534 40.4062 34.7909 40.1896 34.4659C39.9708 34.1409 39.8646 33.6867 39.8646 33.1034V26.9534H37.3646V27.9055C37.1479 27.618 36.8625 27.3576 36.4292 27.1534C35.7854 26.8534 35.0583 26.7034 34.2396 26.7034C33.2062 26.7034 32.2833 26.9576 31.4646 27.4659C30.6479 27.9742 30.0083 28.6492 29.5396 29.4909C29.0729 30.3326 28.8396 31.2534 28.8396 32.2534C28.8396 33.2701 29.0771 34.1826 29.5521 34.9909C30.0292 35.7992 30.6646 36.4326 31.4646 36.8909C32.2667 37.3492 33.15 37.5784 34.1146 37.5784C34.6646 37.5784 35.1979 37.4992 35.7146 37.3409C36.2312 37.1826 36.6812 36.9617 37.0646 36.6784C37.3458 36.4701 37.5312 36.2201 37.6687 35.9492C37.7021 35.9992 37.7146 36.068 37.7521 36.1159C38.1437 36.6242 38.6354 36.9951 39.2271 37.2284C39.8187 37.4617 40.4042 37.5784 40.9896 37.5784C41.8729 37.5784 42.6521 37.3701 43.3271 36.9534C44.0021 36.5367 44.5354 35.9326 44.9292 35.1409C45.3208 34.3492 45.5146 33.4117 45.5146 32.3284C45.5146 30.7117 45.2646 29.2409 44.7667 27.9159ZM10.4167 9.97424H35.4167C35.4521 9.97424 35.4792 9.99299 35.5146 9.99299L24.4292 17.9097C23.5271 18.5555 22.3125 18.5576 21.4042 17.9097L10.3208 9.99299C10.3542 9.99299 10.3812 9.97424 10.4167 9.97424ZM34.9917 21.5284C33.4083 21.5284 31.95 21.7867 30.6167 22.3034C29.2812 22.8201 28.1208 23.5534 27.1292 24.5034C26.1354 25.4534 25.3687 26.5909 24.8292 27.9159C24.3438 29.1034 24.1104 30.4284 24.0583 31.8492H10.4167C8.98125 31.8492 7.8125 30.6805 7.8125 29.2451V12.5784C7.8125 12.4117 7.87708 12.268 7.90625 12.1097L19.5854 20.4513C20.5833 21.1617 21.7479 21.518 22.9167 21.518C24.0854 21.518 25.25 21.1617 26.2458 20.4513L37.9271 12.1097C37.9562 12.268 38.0208 12.4117 38.0208 12.5784V21.9388C37.0708 21.6951 36.0792 21.5284 34.9917 21.5284ZM36.8417 33.5659C36.6104 33.9909 36.2875 34.3284 35.8792 34.5784C35.4708 34.8284 35 34.9534 34.4667 34.9534C33.95 34.9534 33.4792 34.8326 33.0542 34.5909C32.6292 34.3492 32.2917 34.0117 32.0417 33.5784C31.7917 33.1451 31.6667 32.6617 31.6667 32.1284C31.6667 31.5784 31.7917 31.0909 32.0417 30.6659C32.2917 30.2409 32.6333 29.9117 33.0667 29.6784C33.5 29.4451 33.975 29.3367 34.4917 29.3534C35.275 29.3701 35.9229 29.6451 36.4312 30.1784C36.9375 30.7117 37.1917 31.3701 37.1917 32.1534C37.1917 32.6701 37.075 33.1409 36.8417 33.5659Z" fill="black"/>
</svg>
