<svg width="42" height="42" viewBox="0 0 42 42" fill="none" xmlns="http://www.w3.org/2000/svg">
<path d="M41.3434 21.5843C42.0465 20.812 42.0012 19.619 41.2449 18.9L40.0439 17.7602C39.4793 17.225 39.2956 16.4021 39.5752 15.6778L40.1717 14.1332C40.5472 13.1586 40.0758 12.0641 39.1092 11.6673L37.5779 11.0388C36.8589 10.7432 36.3876 10.0428 36.3876 9.26524V7.60886C36.3823 6.56496 35.5487 5.7128 34.5048 5.69416L32.8484 5.6622C32.0709 5.64622 31.3811 5.16422 31.0989 4.43989L30.497 2.89534C30.1189 1.92335 29.0324 1.43069 28.0497 1.78753L26.4945 2.35475C25.7649 2.62105 24.9447 2.42133 24.4201 1.84612L23.3016 0.623804C22.5959 -0.145804 21.4055 -0.212378 20.6199 0.474676L19.3737 1.5665C18.7878 2.0778 17.9516 2.18698 17.2566 1.84079L15.7733 1.10581C14.8386 0.642444 13.7041 1.00994 13.2195 1.93666L12.4525 3.40398C12.093 4.0937 11.3527 4.49581 10.5778 4.42657L8.92671 4.27744C7.88814 4.18157 6.96142 4.9352 6.84424 5.97377L6.65783 7.61951C6.56995 8.39178 6.0267 9.03623 5.2784 9.24926L3.68592 9.70464C2.68197 9.99224 2.09345 11.0282 2.35709 12.0374L2.77784 13.6406C2.9749 14.3915 2.70061 15.1904 2.08013 15.6591L0.759285 16.6604C-0.0715711 17.2915 -0.247329 18.4712 0.365161 19.3154L1.33716 20.6576C1.79253 21.286 1.82449 22.1302 1.41705 22.7906L0.546245 24.1994C-0.00233304 25.0888 0.261304 26.2525 1.13743 26.8198L2.52752 27.7198C3.17995 28.1433 3.51283 28.9155 3.37169 29.6798L3.07077 31.3096C2.8817 32.3348 3.54479 33.3255 4.56738 33.5385L6.18915 33.874C6.95076 34.0312 7.54195 34.633 7.68575 35.3973L7.992 37.0244C8.1864 38.0496 9.16372 38.734 10.1943 38.5609L11.8294 38.2893C12.5963 38.1615 13.3633 38.5103 13.7734 39.1707L14.6468 40.5768C15.1981 41.4636 16.3565 41.7485 17.2539 41.2159L18.6786 40.3718C19.347 39.975 20.1885 40.0229 20.8117 40.4889L22.1352 41.4849C22.9687 42.1134 24.1511 41.9589 24.7982 41.1387L25.8235 39.8365C26.3055 39.2267 27.107 38.9657 27.8553 39.1761L29.4505 39.6261C30.4544 39.9111 31.5036 39.3385 31.8072 38.3399L32.2919 36.7554C32.5182 36.0124 33.1733 35.4798 33.9483 35.4053L35.5967 35.2508C36.6352 35.1523 37.4075 34.2415 37.3303 33.2003L37.2104 31.5492C37.1545 30.7743 37.57 30.042 38.2677 29.6931L39.7483 28.9528C40.683 28.4868 41.0718 27.3577 40.6244 26.415L39.9161 24.9184C39.5832 24.2153 39.7083 23.3818 40.2303 22.8066L41.3434 21.5816V21.5843Z" fill="#474CE6"/>
</svg>
