<svg width="200" height="171" viewBox="0 0 200 171" fill="none" xmlns="http://www.w3.org/2000/svg">
<path d="M58.278 230.446H97.04L97.04 134.142H58.278L58.278 230.446Z" fill="#71859E"/>
<path d="M42.0777 231.268C42.0777 231.268 40.1201 227.356 28.9892 225.85C17.8546 224.344 5.9688 213.361 5.81709 203.13C5.81709 203.13 4.76247 204.584 5.21392 207.592C5.21392 207.592 3.4081 199.77 3.45991 197.061C3.45991 197.061 2.65692 198.815 2.65692 200.473C2.65692 200.473 1.05093 193.953 2.95665 189.186C2.95665 189.186 1.6541 191.344 1.05093 193.397C1.05093 193.397 0.49956 188.631 1.60229 186.074C1.60229 186.074 0.751192 187.429 0.199827 189.135C0.199827 189.135 0.299736 180.76 2.15736 177.549C2.15736 177.549 0.503259 179.806 0 181.46C0 181.46 0.399648 175.239 2.15736 172.383C2.15736 172.383 0.551365 174.137 0 175.343C0 175.343 1.05463 170.928 3.16018 168.623C3.16018 168.623 1.45427 169.578 1.00282 170.377C1.00282 170.377 2.20547 165.763 6.11683 161.799C6.11683 161.799 2.70502 163.605 1.00282 166.011C1.00282 166.011 2.5089 161.045 5.01409 157.884C5.01409 157.884 3.10837 158.388 2.10555 159.59C2.10555 159.59 3.30819 157.081 5.96881 154.325C5.96881 154.325 3.55982 155.727 2.40899 157.033C2.40899 157.033 4.86607 151.164 8.77744 148.156C8.77744 148.156 6.00581 149.54 4.95488 150.521C4.95488 150.521 6.46096 145.913 9.73215 141.813C9.73215 141.813 7.92634 142.339 7.51189 142.827C7.51189 142.827 9.28069 138.239 11.4603 136.847C11.4603 136.847 9.09197 137.636 8.18907 138.727C8.18907 138.727 9.88017 134.29 12.4002 132.596C12.4002 132.596 10.9718 132.973 10.2576 133.761C10.2576 133.761 11.8377 128.91 13.9432 127.441C13.9432 127.441 11.8377 128.947 11.4973 129.398C11.4973 129.398 13.1143 125.073 15.4086 122.741C15.4086 122.741 13.2661 124.096 12.7739 124.584C12.7739 124.584 14.5797 119.507 17.7399 116.761C17.7399 116.761 15.3309 117.738 14.7684 118.416C14.7684 118.416 15.6454 115.03 21.037 109.238C26.4285 103.447 67.4553 135.016 67.4553 135.016C60.7834 173.844 57.6306 225.965 42.0777 231.26V231.268Z" fill="#71859E"/>
<path d="M117.259 231.268C117.259 231.268 119.217 227.356 130.348 225.85C141.482 224.344 153.368 213.361 153.52 203.13C153.52 203.13 154.575 204.584 154.123 207.592C154.123 207.592 155.929 199.77 155.877 197.061C155.877 197.061 156.68 198.815 156.68 200.473C156.68 200.473 158.286 193.953 156.38 189.186C156.38 189.186 157.683 191.344 158.286 193.397C158.286 193.397 158.838 188.631 157.735 186.074C157.735 186.074 158.586 187.429 159.137 189.135C159.137 189.135 159.037 180.76 157.18 177.549C157.18 177.549 158.834 179.806 159.337 181.46C159.337 181.46 158.937 175.239 157.18 172.383C157.18 172.383 158.786 174.137 159.337 175.343C159.337 175.343 158.282 170.928 156.177 168.623C156.177 168.623 157.883 169.578 158.334 170.377C158.334 170.377 157.132 165.763 153.22 161.799C153.22 161.799 156.632 163.605 158.334 166.011C158.334 166.011 156.828 161.045 154.323 157.884C154.323 157.884 156.229 158.388 157.232 159.59C157.232 159.59 156.029 157.081 153.368 154.325C153.368 154.325 155.777 155.727 156.928 157.033C156.928 157.033 154.471 151.164 150.56 148.156C150.56 148.156 153.331 149.54 154.382 150.521C154.382 150.521 152.876 145.913 149.605 141.813C149.605 141.813 151.411 142.339 151.825 142.827C151.825 142.827 150.056 138.239 147.877 136.847C147.877 136.847 150.245 137.636 151.148 138.727C151.148 138.727 149.457 134.29 146.937 132.596C146.937 132.596 148.365 132.973 149.079 133.761C149.079 133.761 147.499 128.91 145.394 127.441C145.394 127.441 147.499 128.947 147.84 129.398C147.84 129.398 146.223 125.073 143.928 122.741C143.928 122.741 146.071 124.096 146.563 124.584C146.563 124.584 144.757 119.507 141.597 116.761C141.597 116.761 144.006 117.738 144.569 118.416C144.569 118.416 143.692 115.03 138.3 109.238C132.909 103.447 91.8818 135.016 91.8818 135.016L117.259 231.26V231.268Z" fill="#71859E"/>
<path d="M30.6436 72.4709C30.6436 72.4709 25.1263 81.2965 23.4204 82.2993C23.4204 82.2993 25.0375 82.1254 26.2401 81.2595C26.2401 81.2595 23.2687 83.402 22.7802 86.0367C22.2918 88.6715 21.5406 91.0767 21.5406 91.0767C21.5406 91.0767 22.9689 89.6484 23.8718 89.1969C23.8718 89.1969 23.2317 89.6484 22.103 91.4172C20.9744 93.186 21.2741 93.9372 20.9374 94.8771C20.6007 95.817 19.8458 97.0196 19.8458 97.0196C19.8458 97.0196 21.4259 96.1907 21.7256 95.5913C21.7256 95.5913 21.1372 97.3453 20.7339 97.7745C20.3342 98.2001 19.5312 99.9319 19.1797 101.234C19.1797 101.234 20.46 99.7802 21.2593 99.2029C21.2593 99.2029 20.3305 100.709 19.7311 103.34C19.1279 105.975 19.8051 109.509 19.8051 109.509C19.8051 109.509 20.3083 107.98 20.9078 106.626C20.9078 106.626 20.5081 110.186 19.9531 111.844C19.398 113.501 19.8014 117.209 19.6533 118.715C19.5053 120.221 19.8051 127.419 19.8051 127.419C19.8051 127.419 21.4962 124.636 22.5878 123.47C22.5878 123.47 20.2565 128.647 20.1566 136.522C20.1566 136.522 20.9596 134.364 21.7626 133.362C21.7626 133.362 20.56 142.391 22.1141 146.15C23.6683 149.914 24.4195 153.322 24.4195 153.322C24.4195 153.322 23.8163 163.254 26.9284 172.882C30.0368 182.511 37.7633 203.074 40.2685 207.788C42.7737 212.503 48.0912 219.526 43.4768 224.54C38.8623 229.554 37.3895 233.947 40.9013 237.758C47.1846 244.578 82.1537 247.842 76.529 230.957C70.4899 212.825 75.2709 217.214 75.5743 198.759C75.8741 180.302 63.6367 166.159 63.6367 166.159C63.6367 166.159 71.0598 171.476 72.2624 174.984C72.2624 174.984 70.6565 161.241 56.8168 151.113L57.568 87.9203L30.6362 72.4747L30.6436 72.4709Z" fill="#71859E"/>
<path d="M126.189 72.4709C126.189 72.4709 131.706 81.2965 133.412 82.2993C133.412 82.2993 131.795 82.1254 130.592 81.2595C130.592 81.2595 133.564 83.402 134.052 86.0367C134.541 88.6715 135.292 91.0767 135.292 91.0767C135.292 91.0767 133.863 89.6484 132.96 89.1969C132.96 89.1969 133.601 89.6484 134.729 91.4172C135.858 93.186 135.558 93.9372 135.895 94.8771C136.232 95.817 136.987 97.0196 136.987 97.0196C136.987 97.0196 135.406 96.1907 135.107 95.5913C135.107 95.5913 135.695 97.3453 136.098 97.7745C136.498 98.2001 137.301 99.9319 137.653 101.234C137.653 101.234 136.372 99.7802 135.573 99.2029C135.573 99.2029 136.502 100.709 137.101 103.34C137.704 105.975 137.027 109.509 137.027 109.509C137.027 109.509 136.524 107.98 135.924 106.626C135.924 106.626 136.324 110.186 136.879 111.844C137.434 113.501 137.031 117.209 137.179 118.715C137.327 120.221 137.027 127.419 137.027 127.419C137.027 127.419 135.336 124.636 134.245 123.47C134.245 123.47 136.576 128.647 136.676 136.522C136.676 136.522 135.873 134.364 135.07 133.362C135.07 133.362 136.272 142.391 134.718 146.15C133.164 149.914 132.413 153.322 132.413 153.322C132.413 153.322 133.016 163.254 129.904 172.882C126.796 182.511 119.069 203.074 116.564 207.788C114.055 212.503 108.741 219.526 113.356 224.54C117.97 229.554 119.443 233.947 115.931 237.758C109.648 244.578 74.6786 247.842 80.3032 230.957C86.3423 212.825 81.5614 217.214 81.258 198.759C80.9582 180.302 93.1956 166.159 93.1956 166.159C93.1956 166.159 85.7725 171.476 84.5698 174.984C84.5698 174.984 86.1758 161.241 100.015 151.113L99.2643 87.9203L126.196 72.4747L126.189 72.4709Z" fill="#71859E"/>
<path d="M95.7414 243.579C90.6829 243.579 86.2978 242.687 83.4596 241.015C79.7296 238.817 78.5417 235.305 80.0219 230.864C83.8001 219.519 83.3227 217.08 82.368 212.222C81.7907 209.28 81.0728 205.62 80.9618 198.759C80.725 184.132 88.4108 172.083 91.608 167.72C89.3544 169.511 85.6318 172.738 84.8288 175.077C84.7807 175.214 84.6401 175.295 84.4957 175.262C84.3514 175.228 84.2589 175.095 84.2737 174.947C84.2811 174.877 85.1655 167.783 90.6459 160.116C90.7384 159.986 90.916 159.957 91.0455 160.049C91.175 160.142 91.2046 160.319 91.1121 160.449C87.3636 165.689 85.802 170.636 85.1951 173.197C87.5116 169.881 92.7588 166.103 93.0178 165.918C93.1363 165.833 93.2991 165.851 93.3953 165.959C93.4952 166.066 93.4952 166.229 93.399 166.34C93.2769 166.48 81.2357 180.616 81.5317 198.748C81.6427 205.557 82.3532 209.191 82.9268 212.107C83.9 217.065 84.3884 219.552 80.5622 231.042C79.1597 235.253 80.2291 238.443 83.7446 240.519C92.2704 245.548 111.402 242.228 115.705 237.558C118.854 234.139 118.036 230.061 113.13 224.729C109.037 220.281 112.39 214.475 115.08 209.809C115.52 209.043 115.938 208.321 116.297 207.648C118.732 203.07 126.433 182.651 129.619 172.786C132.675 163.32 132.12 153.429 132.113 153.333C132.113 153.307 132.113 153.281 132.12 153.255C132.128 153.222 132.894 149.777 134.441 146.036C135.947 142.387 134.785 133.484 134.774 133.395C134.755 133.269 134.825 133.143 134.944 133.095C135.062 133.043 135.199 133.08 135.281 133.18C135.658 133.654 136.032 134.357 136.328 134.99C135.98 128.122 133.989 123.633 133.971 123.585C133.911 123.455 133.956 123.307 134.074 123.23C134.189 123.152 134.348 123.171 134.444 123.274C135.184 124.066 136.18 125.561 136.768 126.479C136.842 124.488 136.998 119.892 136.883 118.745C136.827 118.19 136.842 117.379 136.864 116.447C136.898 114.889 136.935 112.954 136.598 111.936C136.043 110.271 135.651 106.807 135.632 106.663C135.617 106.522 135.706 106.393 135.843 106.356C135.98 106.319 136.121 106.385 136.18 106.515C136.454 107.133 136.709 107.792 136.905 108.324C137.053 107.081 137.19 105.053 136.816 103.41C136.235 100.861 135.332 99.3731 135.321 99.3583C135.251 99.2435 135.269 99.0918 135.369 98.9993C135.469 98.9068 135.621 98.8957 135.732 98.9771C136.102 99.2435 136.557 99.6765 136.957 100.08C136.587 99.1325 136.135 98.2407 135.884 97.9743C135.451 97.5154 134.892 95.8724 134.829 95.6874C134.781 95.5431 134.851 95.3877 134.992 95.3322C135.129 95.273 135.292 95.3322 135.358 95.4691C135.462 95.6763 135.806 95.9539 136.191 96.2166C135.987 95.8317 135.769 95.384 135.625 94.9806C135.506 94.6513 135.462 94.3479 135.414 94.0296C135.321 93.4154 135.218 92.7197 134.489 91.5762C133.419 89.8999 132.801 89.4411 132.794 89.4374C132.672 89.3486 132.638 89.1821 132.716 89.0562C132.794 88.9304 132.957 88.8823 133.09 88.9489C133.593 89.2006 134.233 89.7223 134.725 90.1627C134.459 89.208 134.067 87.6871 133.771 86.0996C133.312 83.624 130.477 81.5407 130.426 81.5036C130.296 81.4111 130.27 81.2335 130.363 81.104C130.455 80.9745 130.633 80.9449 130.762 81.0374C131.291 81.4185 131.913 81.6591 132.424 81.8071C130.218 79.4425 126.148 72.9482 125.952 72.6337C125.867 72.5005 125.907 72.3229 126.044 72.2378C126.177 72.1527 126.355 72.1934 126.44 72.3303C127.965 74.7689 132.217 81.2705 133.564 82.0661C133.678 82.1364 133.734 82.2733 133.689 82.4029C133.649 82.5324 133.523 82.6138 133.386 82.599C133.349 82.5953 132.868 82.5398 132.239 82.3547C133.101 83.254 134.067 84.5454 134.337 85.996C134.818 88.5826 135.562 90.9805 135.569 91.0027C135.61 91.1285 135.558 91.2654 135.443 91.332C135.329 91.3986 135.184 91.3838 135.092 91.2913C135.088 91.2876 134.977 91.1766 134.803 91.0138C134.859 91.0989 134.914 91.184 134.973 91.2728C135.769 92.5198 135.887 93.3117 135.984 93.9519C136.028 94.2554 136.069 94.5144 136.169 94.7919C136.494 95.6911 137.227 96.8679 137.234 96.8827C137.305 96.9937 137.29 97.1343 137.201 97.2305C137.112 97.3267 136.972 97.3489 136.857 97.2897C136.764 97.2416 136.287 96.9863 135.813 96.6569C135.991 97.0751 136.172 97.4488 136.309 97.5894C136.768 98.0742 137.586 99.8837 137.934 101.171C137.967 101.301 137.908 101.434 137.793 101.497C137.675 101.56 137.53 101.534 137.442 101.434C137.434 101.427 136.99 100.924 136.472 100.402C136.764 101.109 137.109 102.078 137.382 103.288C137.989 105.949 137.338 109.427 137.308 109.575C137.282 109.705 137.175 109.797 137.046 109.808C136.905 109.816 136.794 109.734 136.753 109.612C136.753 109.605 136.672 109.368 136.542 108.998C136.705 109.986 136.912 111.059 137.149 111.766C137.519 112.876 137.482 114.785 137.445 116.469C137.427 117.35 137.412 118.179 137.464 118.7C137.616 120.207 137.327 127.149 137.316 127.441C137.312 127.567 137.223 127.674 137.101 127.707C136.979 127.741 136.85 127.685 136.783 127.578C136.772 127.559 135.976 126.257 135.136 125.076C135.843 127.241 136.894 131.315 136.961 136.529C136.961 136.67 136.864 136.788 136.727 136.814C136.587 136.84 136.454 136.762 136.405 136.633C136.398 136.618 136.002 135.556 135.499 134.598C135.769 137.236 136.213 143.294 134.984 146.272C133.545 149.758 132.786 152.978 132.701 153.359C132.738 154.073 133.168 163.727 130.178 172.982C126.984 182.866 119.265 203.337 116.815 207.936C116.453 208.621 116.035 209.346 115.591 210.116C112.993 214.619 109.759 220.222 113.566 224.359C118.717 229.958 119.535 234.28 116.142 237.965C113.914 240.382 108.075 242.465 101.262 243.264C99.3678 243.487 97.5176 243.598 95.7488 243.598L95.7414 243.579Z" fill="#111A29"/>
<path d="M61.09 243.579C59.3212 243.579 57.471 243.472 55.5764 243.246C48.7676 242.447 42.9246 240.367 40.6969 237.947C37.3036 234.261 38.1214 229.939 43.2724 224.341C47.0802 220.203 43.846 214.597 41.2483 210.098C40.8042 209.328 40.3861 208.603 40.0234 207.918C37.5774 203.318 29.8546 182.848 26.6612 172.964C23.6712 163.709 24.1005 154.054 24.1375 153.34C24.0487 152.959 23.2938 149.736 21.8543 146.254C20.6221 143.275 21.0698 137.217 21.3399 134.579C20.8367 135.537 20.437 136.599 20.4333 136.614C20.3852 136.744 20.2483 136.822 20.1114 136.796C19.9745 136.77 19.8746 136.651 19.8783 136.511C19.9449 131.297 20.9995 127.223 21.7026 125.058C20.8626 126.238 20.067 127.541 20.0559 127.559C19.9893 127.667 19.8635 127.718 19.7377 127.689C19.6155 127.656 19.5267 127.548 19.523 127.422C19.5119 127.126 19.2233 120.188 19.375 118.682C19.4268 118.16 19.4083 117.331 19.3935 116.454C19.3602 114.771 19.3195 112.861 19.6895 111.751C19.9264 111.044 20.1336 109.967 20.2964 108.983C20.1669 109.353 20.0855 109.594 20.0855 109.601C20.0448 109.727 19.9301 109.805 19.7932 109.797C19.6636 109.79 19.5563 109.694 19.5304 109.564C19.5008 109.416 18.8495 105.938 19.4564 103.277C19.7339 102.067 20.0744 101.097 20.3667 100.391C19.8487 100.912 19.4046 101.416 19.3972 101.423C19.3084 101.523 19.1641 101.549 19.0457 101.486C18.9273 101.423 18.8717 101.286 18.9051 101.16C19.2529 99.8726 20.0707 98.0631 20.5295 97.5784C20.6628 97.4341 20.8478 97.064 21.0254 96.6459C20.5517 96.9752 20.0744 97.2305 19.9819 97.2786C19.8672 97.3378 19.7265 97.3156 19.6377 97.2194C19.5489 97.1232 19.5378 96.9826 19.6044 96.8716C19.6118 96.8605 20.3445 95.6838 20.6702 94.7808C20.7701 94.5033 20.8108 94.2443 20.8552 93.9409C20.9514 93.3044 21.0698 92.5088 21.8654 91.2617C21.9246 91.1729 21.9801 91.0841 22.0356 91.0027C21.8617 91.1692 21.7507 91.2765 21.747 91.2802C21.6545 91.3727 21.5102 91.3912 21.3954 91.3209C21.2844 91.2543 21.2326 91.1174 21.2696 90.9916C21.277 90.9694 22.0245 88.5678 22.5019 85.9849C22.772 84.5343 23.7378 83.2429 24.6 82.3437C23.9709 82.5287 23.4899 82.5842 23.4529 82.5879C23.316 82.6027 23.1939 82.5213 23.1495 82.3918C23.105 82.2623 23.1606 82.1216 23.2753 82.055C24.6259 81.2631 28.874 74.7578 30.3986 72.3192C30.4837 72.186 30.6576 72.1453 30.7945 72.2267C30.9278 72.3118 30.9685 72.4857 30.8871 72.6226C30.6909 72.9372 26.6205 79.4314 24.415 81.796C24.9257 81.648 25.5473 81.4075 26.0765 81.0263C26.206 80.9338 26.3836 80.9634 26.4761 81.0929C26.5687 81.2225 26.5391 81.4001 26.4132 81.4926C26.3577 81.5333 23.5269 83.6129 23.068 86.0885C22.772 87.6797 22.3798 89.1969 22.1133 90.1516C22.6092 89.7112 23.2494 89.1895 23.7489 88.9379C23.8858 88.8712 24.045 88.9194 24.1227 89.0489C24.2004 89.1784 24.1634 89.3449 24.0413 89.43C24.0376 89.43 23.4196 89.8926 22.3502 91.5689C21.6212 92.7123 21.5176 93.408 21.425 94.0223C21.3769 94.3405 21.3325 94.6402 21.2141 94.9733C21.0698 95.3803 20.8515 95.8244 20.648 96.2092C21.0328 95.9465 21.3769 95.669 21.4769 95.4617C21.5435 95.3285 21.7063 95.2693 21.8432 95.3248C21.9838 95.384 22.0541 95.5394 22.006 95.68C21.9431 95.8651 21.3843 97.5081 20.9514 97.9669C20.7035 98.2333 20.2483 99.1252 19.8783 100.069C20.2742 99.6654 20.7331 99.2288 21.1031 98.966C21.2141 98.8846 21.3658 98.8957 21.4658 98.9882C21.5657 99.0808 21.5879 99.2325 21.5139 99.3472C21.5065 99.362 20.6036 100.85 20.0189 103.399C19.6414 105.042 19.7821 107.074 19.9301 108.313C20.1262 107.78 20.3815 107.122 20.6554 106.504C20.7146 106.374 20.8552 106.308 20.9921 106.345C21.129 106.382 21.2178 106.511 21.203 106.652C21.1882 106.8 20.7923 110.263 20.2372 111.925C19.8968 112.943 19.9375 114.878 19.9708 116.436C19.9893 117.372 20.0078 118.179 19.9523 118.734C19.8376 119.881 19.993 124.477 20.067 126.468C20.6554 125.546 21.6508 124.055 22.3909 123.263C22.4871 123.159 22.6425 123.145 22.7572 123.219C22.8756 123.296 22.9163 123.448 22.8608 123.574C22.8386 123.622 20.8515 128.118 20.5036 134.979C20.7997 134.346 21.1697 133.643 21.5509 133.169C21.6323 133.069 21.7692 133.036 21.8876 133.084C22.006 133.136 22.0763 133.258 22.0578 133.384C22.0467 133.473 20.8811 142.38 22.3909 146.024C23.9376 149.766 24.7036 153.211 24.711 153.244C24.7184 153.27 24.7184 153.296 24.7184 153.322C24.711 153.422 24.156 163.313 27.2125 172.775C30.3986 182.64 38.0992 203.056 40.5341 207.637C40.893 208.31 41.3112 209.032 41.7515 209.798C44.4455 214.464 47.7944 220.27 43.7017 224.718C38.7949 230.05 37.9771 234.128 41.1262 237.547C45.4298 242.221 64.5647 245.537 73.0868 240.508C76.6022 238.432 77.6754 235.246 76.2692 231.031C72.443 219.545 72.9314 217.054 73.9009 212.096C74.4745 209.176 75.185 205.546 75.296 198.737C75.592 180.609 63.5508 166.469 63.4287 166.329C63.3325 166.218 63.3362 166.055 63.4324 165.948C63.5286 165.84 63.6914 165.822 63.8098 165.907C64.0689 166.092 69.3161 169.87 71.6326 173.186C71.022 170.621 69.4604 165.67 65.7156 160.438C65.6231 160.308 65.6527 160.131 65.7822 160.038C65.9117 159.946 66.0893 159.975 66.1818 160.105C71.6659 167.768 72.5466 174.862 72.554 174.936C72.5725 175.08 72.4763 175.217 72.3319 175.251C72.1876 175.284 72.0433 175.202 71.9989 175.066C71.1996 172.727 67.4733 169.5 65.2197 167.709C68.4132 172.072 76.1027 184.12 75.8659 198.748C75.7548 205.609 75.037 209.269 74.4597 212.21C73.505 217.069 73.0276 219.508 76.8058 230.853C78.2859 235.294 77.0981 238.806 73.3681 241.004C70.5335 242.676 66.1448 243.568 61.0863 243.568L61.09 243.579Z" fill="#111A29"/>
<path d="M57.5754 87.5798H99.2571L100.008 150.772C100.008 150.772 89.4584 162.036 78.9417 162.958C68.4251 163.879 56.8242 150.772 56.8242 150.772L57.5754 87.5798Z" fill="#71859E"/>
<path d="M59.4212 138.006C59.4212 138.006 51.0952 135.467 49.1673 131.101C49.1673 131.101 49.2672 133.639 50.7917 134.993C50.7917 134.993 39.2538 132.692 33.7031 122.268C33.7031 122.268 38.0363 137.969 59.4212 138.002V138.006Z" fill="#59738A"/>
<path d="M94.5605 138.006C94.5605 138.006 102.887 135.467 104.814 131.101C104.814 131.101 104.715 133.639 103.19 134.993C103.19 134.993 114.728 132.692 120.279 122.268C120.279 122.268 115.945 137.969 94.5605 138.002V138.006Z" fill="#59738A"/>
<path d="M69.2836 158.021C64.5396 156.012 59.6958 149.921 58.1231 147.815C61.398 151.793 70.8378 155.964 70.8378 155.964C65.5202 153.2 62.0048 146.317 62.0048 146.317C66.3898 152.966 74.3865 155.046 78.4126 155.686C82.4386 155.046 90.439 152.966 94.8203 146.317C94.8203 146.317 91.3086 153.2 85.9874 155.964C85.9874 155.964 95.4309 151.793 98.7021 147.815C97.1294 149.921 92.2855 156.012 87.5415 158.021C87.5415 158.021 98.2284 155.128 101.644 150.946C101.644 150.946 96.0488 160.09 81.532 163.283C80.5292 163.505 79.4709 163.616 78.4089 163.616C77.3468 163.616 76.2885 163.505 75.2857 163.283C60.7689 160.09 55.1738 150.946 55.1738 150.946C58.5856 155.128 69.2762 158.021 69.2762 158.021H69.2836Z" fill="#59738A"/>
<path d="M144.987 49.9352C137.242 36.1585 137.989 31.7661 137.989 31.7661C146.626 27.4477 136.054 17.0236 126.521 10.9178C117.363 5.04896 109.533 6.32931 108.933 6.44032C104.256 1.9961 93.5505 -0.065045 82.8525 0.00156286C82.8266 0.00156286 82.8007 0.00156286 82.7748 0.00156286C82.7489 0.00156286 82.723 0.00156286 82.6971 0.00156286C71.9991 -0.065045 61.2938 1.9961 56.6164 6.44032C56.017 6.32931 48.1868 5.05266 39.0282 10.9178C29.4959 17.0236 18.9238 27.4477 27.5606 31.7661C27.5606 31.7661 28.3044 36.1585 20.5631 49.9352C13.2621 62.9201 5.52081 103.621 56.7681 114.26C74.1084 118.045 91.4486 118.045 108.789 114.26C160.033 103.621 152.291 62.9201 144.994 49.9352H144.987Z" fill="#71859E"/>
<path d="M149.279 81.1854C142.74 79.3944 135.206 77.0261 135.206 75.6199C135.206 73.1369 145.135 74.1805 144.746 71.8344C144.35 69.4809 128.153 69.3514 126.843 66.2134C125.729 63.538 144.161 63.9081 149.634 64.0709C150.482 69.3218 150.593 75.2499 149.279 81.1817V81.1854Z" fill="#59738A"/>
<path d="M38.7027 66.2175C37.3965 69.3555 21.196 69.485 20.8 71.8385C20.4078 74.1883 30.3397 73.1411 30.3397 75.624C30.3397 77.0302 22.8057 79.3985 16.267 81.1895C14.9533 75.2577 15.0643 69.3296 15.9117 64.0787C21.3884 63.9159 39.8166 63.5458 38.7027 66.2212V66.2175Z" fill="#59738A"/>
<path d="M76.0993 74.2434C76.0993 74.2434 58.8368 68.2006 54.0891 82.8765C49.3415 97.5524 70.7041 98.6293 77.3945 92.5865C84.0849 86.5437 86.4569 78.1289 76.0993 74.2434Z" fill="#FEFEFE"/>
<path d="M89.5176 74.2434C89.5176 74.2434 106.78 68.2006 111.528 82.8765C116.275 97.5524 94.9128 98.6293 88.2224 92.5865C81.532 86.5437 79.1601 78.1289 89.5176 74.2434Z" fill="#FEFEFE"/>
<path d="M82.0866 83.391L72.2656 95.2176C72.2656 95.2176 75.5775 99.8505 83.1486 100.583C90.7197 101.316 97.3398 93.8336 97.3398 93.8336L82.0903 83.391H82.0866Z" fill="#FEFEFE"/>
<path d="M86.5123 70.9462C84.3808 70.0988 81.994 69.9952 79.8256 70.7427C78.6007 71.1645 77.3463 71.8713 76.7949 73.0444C75.5553 75.6865 80.895 77.2 82.8377 77.3073C84.7805 77.4146 89.3135 74.6652 88.9878 73.0444C88.8139 72.1822 87.8037 71.4606 86.5123 70.9462Z" fill="#FF766C"/>
<path d="M90.6165 74.8724C90.931 74.273 90.7941 73.5366 90.2797 73.0999C89.6581 72.5708 88.6959 72.6448 88.2149 73.3071C86.0316 76.3008 82.8086 76.4673 82.8086 76.4673C82.8086 76.4673 79.5892 76.2971 77.4022 73.3071C76.9212 72.6485 75.9591 72.5708 75.3374 73.0999C74.823 73.5403 74.6861 74.273 75.0006 74.8724C75.9702 76.7375 78.368 80.4231 82.2276 80.6377C82.2276 80.6377 82.8049 87.9757 77.195 92.4347C77.195 92.4347 78.2015 94.0185 82.8049 88.9119C87.4082 94.0185 88.4147 92.4347 88.4147 92.4347C82.8049 87.9757 83.3821 80.6377 83.3821 80.6377C87.2417 80.4231 89.6396 76.7375 90.6091 74.8724H90.6165Z" fill="#252B45"/>
<path d="M60.6538 99.8098C60.5983 99.8098 60.5428 99.795 60.491 99.758C60.3614 99.6692 60.3281 99.4878 60.417 99.3583L69.6495 85.9997C69.7384 85.8702 69.916 85.8369 70.0492 85.9257C70.1787 86.0146 70.212 86.1959 70.1232 86.3254L60.8906 99.684C60.8351 99.7654 60.7463 99.8061 60.6538 99.8061V99.8098Z" fill="#111A29"/>
<path d="M38.7547 97.4526C38.6474 97.4526 38.5475 97.3934 38.4994 97.2935C38.4291 97.1529 38.4883 96.979 38.6289 96.9087L67.5034 82.5695C67.6477 82.4992 67.8179 82.5584 67.8883 82.699C67.9586 82.8396 67.8994 83.0135 67.7587 83.0838L38.8842 97.423C38.8435 97.4452 38.7991 97.4526 38.7584 97.4526H38.7547Z" fill="#111A29"/>
<path d="M68.1178 80.2678C68.1178 80.2678 68.1104 80.2678 68.1067 80.2678L48.6609 79.4833C48.5018 79.4759 48.3796 79.3426 48.387 79.1872C48.3944 79.0281 48.5277 78.9023 48.6831 78.9134L68.1289 79.6979C68.288 79.7053 68.4101 79.8385 68.4027 79.9939C68.3953 80.1494 68.2695 80.2678 68.1178 80.2678Z" fill="#111A29"/>
<path d="M104.892 99.8097C104.8 99.8097 104.711 99.7653 104.655 99.6876L95.4228 86.3291C95.334 86.1995 95.3636 86.0219 95.4968 85.9294C95.6264 85.8406 95.804 85.8739 95.8965 86.0034L105.129 99.362C105.218 99.4915 105.188 99.6691 105.055 99.7616C105.003 99.7949 104.948 99.8134 104.892 99.8134V99.8097Z" fill="#111A29"/>
<path d="M126.795 97.4526C126.755 97.4526 126.71 97.4415 126.669 97.423L97.7949 83.0838C97.6543 83.0135 97.5951 82.8433 97.6654 82.699C97.7357 82.5584 97.9059 82.4992 98.0503 82.5695L126.925 96.9087C127.065 96.979 127.125 97.1492 127.054 97.2935C127.002 97.3934 126.903 97.4526 126.799 97.4526H126.795Z" fill="#111A29"/>
<path d="M97.4288 80.2678C97.2771 80.2678 97.1476 80.1457 97.1439 79.9939C97.1365 79.8348 97.2586 79.7016 97.4177 79.6979L116.864 78.9134C117.019 78.9023 117.156 79.0281 117.16 79.1872C117.167 79.3463 117.045 79.4796 116.886 79.4833L97.4399 80.2678C97.4399 80.2678 97.4325 80.2678 97.4288 80.2678Z" fill="#111A29"/>
<path d="M121.008 51.5375C121.008 51.5375 118.277 42.9414 108.345 42.2087C99.5602 41.5611 88.0185 52.8733 98.8571 64.0931L117.674 60.7701C117.674 60.7701 120.142 57.2694 119.676 51.5375H121.008Z" fill="#252B45"/>
<path d="M115.336 64.1247C119.878 59.5828 119.878 52.2188 115.336 47.6768C110.794 43.1348 103.43 43.1348 98.888 47.6768C94.3461 52.2188 94.3461 59.5828 98.888 64.1247C103.43 68.6667 110.794 68.6667 115.336 64.1247Z" fill="white"/>
<path d="M113.707 59.7323C117.35 56.0892 117.35 50.1825 113.707 46.5394C110.064 42.8963 104.158 42.8963 100.514 46.5394C96.8713 50.1825 96.8713 56.0892 100.514 59.7323C104.158 63.3754 110.064 63.3754 113.707 59.7323Z" fill="#252B45"/>
<path d="M103.079 49.3542C103.079 50.8159 101.895 52.0037 100.43 52.0037C98.9644 52.0037 97.7803 50.8196 97.7803 49.3542C97.7803 47.8888 98.9644 46.7047 100.43 46.7047C101.895 46.7047 103.079 47.8888 103.079 49.3542Z" fill="white"/>
<path d="M71.8331 51.5375C71.8331 51.5375 69.1022 42.9414 59.1702 42.2087C50.3854 41.5611 38.8437 52.8733 49.6823 64.0931L68.499 60.7701C68.499 60.7701 70.9672 57.2694 70.5009 51.5375H71.8331Z" fill="#252B45"/>
<path d="M62.3879 66.6478C68.3223 64.1897 71.1404 57.3862 68.6823 51.4518C66.2242 45.5175 59.4207 42.6994 53.4864 45.1575C47.552 47.6156 44.7339 54.419 47.192 60.3534C49.6501 66.2878 56.4536 69.1059 62.3879 66.6478Z" fill="white"/>
<path d="M67.0145 55.2755C68.198 50.2611 65.0924 45.2367 60.0781 44.0532C55.0637 42.8697 50.0393 45.9753 48.8558 50.9896C47.6723 56.004 50.7778 61.0284 55.7922 62.2119C60.8066 63.3954 65.831 60.2899 67.0145 55.2755Z" fill="#252B45"/>
<path d="M53.9074 49.3542C53.9074 50.8159 52.7196 52.0037 51.2579 52.0037C49.7962 52.0037 48.6084 50.8196 48.6084 49.3542C48.6084 47.8888 49.7962 46.7047 51.2579 46.7047C52.7196 46.7047 53.9074 47.8888 53.9074 49.3542Z" fill="white"/>
<path d="M137.989 31.766C143.839 28.839 140.871 23.1107 135.387 17.8228C135.387 17.8228 138.847 27.9509 133.792 24.4577C126.306 19.2807 123.705 16.8385 109.799 15.0511C124.552 18.6406 136.061 28.5799 137.992 31.766H137.989Z" fill="#59738A"/>
<path d="M27.5013 31.766C21.6509 28.839 24.6186 23.1107 30.1027 17.8228C30.1027 17.8228 26.6428 27.9509 31.6976 24.4577C39.1836 19.2807 41.785 16.8385 55.6912 15.0511C40.9376 18.6406 29.4292 28.5799 27.4976 31.766H27.5013Z" fill="#59738A"/>
<path d="M81.3828 21.2865C77.0089 21.12 77.7934 7.5357 78.5557 0.0867196C79.9359 0.0201117 81.3162 -0.0131913 82.6965 0.00531091H82.8445C83.344 0.00531091 83.8584 0.00531063 84.358 0.0238128C85.0721 7.45429 85.7715 21.1237 81.3828 21.2902V21.2865Z" fill="#252B45"/>
<path d="M75.6325 0.286499C75.6177 8.44966 73.9044 23.3291 69.6822 21.2865C65.4933 19.2734 67.7024 7.52085 69.2677 1.1339C71.2956 0.752754 73.4233 0.46782 75.6362 0.286499H75.6325Z" fill="#252B45"/>
<path d="M93.7392 21.2864C89.4837 23.3328 87.7852 8.26829 87.7852 0.138428C89.9314 0.253141 92.0259 0.452964 94.0352 0.771202C95.6153 7.07305 97.991 19.2438 93.7355 21.2864H93.7392Z" fill="#252B45"/>
<path d="M82.7747 117.372C74.0639 117.372 65.353 116.428 56.7014 114.541C37.2852 110.511 24.4336 101.86 18.5055 88.8306C11.3785 73.1667 16.5702 56.4481 20.3076 49.7984C27.1497 37.624 27.32 32.7949 27.283 31.9549C25.2551 30.9003 24.1746 29.4386 24.0784 27.6069C23.7972 22.2894 31.8678 15.166 38.869 10.6811C48.035 4.80851 55.8059 6.00745 56.6644 6.16287C56.8199 6.19247 56.9235 6.34049 56.8939 6.49591C56.8643 6.65133 56.7162 6.75494 56.5608 6.72534C56.2278 6.66613 48.3162 5.30807 39.1799 11.1622C31.7679 15.9098 24.4003 22.8259 24.6557 27.5736C24.7445 29.224 25.7621 30.5487 27.6863 31.5109C27.7677 31.5516 27.8269 31.6293 27.8417 31.7181C27.8713 31.9031 28.5152 36.3695 20.8109 50.0759C16.5221 57.7062 12.5071 74.2583 19.031 88.5901C24.8777 101.445 37.5961 109.986 56.8235 113.979C74.0454 117.738 91.504 117.738 108.726 113.979C127.957 109.986 140.672 101.445 146.522 88.5901C153.042 74.2583 149.031 57.7025 144.742 50.0759C144.664 49.939 144.713 49.7614 144.853 49.6874C144.994 49.6097 145.168 49.6578 145.242 49.7984C148.983 56.4518 154.171 73.1704 147.044 88.8343C141.116 101.864 128.264 110.515 108.844 114.545C100.196 116.432 91.4855 117.376 82.7784 117.376L82.7747 117.372Z" fill="#111A29"/>
</svg>
