<svg width="288" height="211" viewBox="0 0 288 211" fill="none" xmlns="http://www.w3.org/2000/svg">
<path d="M146.724 228.581C132.766 232.426 103.775 221.228 103.775 221.228C103.101 238.562 91.972 245.407 91.972 245.407C92.4037 255.613 77.7055 244.601 77.7055 244.601L64.6655 245.279C64.6655 245.279 49.1616 244.395 53.2676 229.165C53.2676 229.165 50.7118 221.997 53.4919 213.145C53.4919 213.145 51.443 209.563 53.1987 203.221C54.9544 196.879 60.3161 194.413 60.3161 194.413C69.1527 131.116 121.673 161.27 121.673 161.27L155.523 222.368C155.523 222.368 150.529 227.532 146.724 228.581Z" fill="#D19973"/>
<path d="M89.7888 201.707C90.2593 201.808 90.6808 202.117 90.9087 202.582C95.1343 211.214 96.0237 219.206 93.5525 226.336C89.9241 236.806 80.3922 241.491 79.9882 241.685C79.1787 242.074 78.2065 241.735 77.8178 240.925C77.4285 240.116 77.7685 239.145 78.5764 238.755C78.7111 238.689 87.3357 234.394 90.4915 225.235C92.6531 218.963 91.8106 211.822 87.9873 204.012C87.5922 203.206 87.9264 202.232 88.7331 201.837C89.074 201.67 89.4446 201.633 89.7888 201.707Z" fill="#432918"/>
<path d="M85.1405 162.7C93.2083 146.298 129.022 136.928 129.022 136.928C129.022 136.928 179.72 129.682 193.689 181.767L204.96 235.829C204.96 235.829 183.609 254.142 148.931 259.287C144.656 259.921 140.178 260.356 135.513 260.531C116.032 261.261 93.2819 257.474 68.3569 244.874C68.3569 244.874 69.6348 194.226 85.1405 162.7Z" fill="#D19973"/>
<path d="M141.93 261.653C139.809 261.842 137.685 261.977 135.57 262.056C112.957 262.904 90.1117 257.582 67.6683 246.236C67.1422 245.97 66.8164 245.425 66.8313 244.835C66.8439 244.326 68.2967 193.489 83.7709 162.027C92.0517 145.191 127.147 135.841 128.636 135.451C128.692 135.436 128.749 135.425 128.807 135.417C129.34 135.341 142.001 133.61 156.591 138.364C165.191 141.167 172.652 145.654 178.766 151.702C186.389 159.244 191.906 169.227 195.163 181.372C195.171 181.4 195.177 181.428 195.183 181.456L206.454 235.518C206.568 236.062 206.376 236.625 205.954 236.987C205.068 237.747 183.869 255.646 149.155 260.797C146.764 261.151 144.349 261.438 141.93 261.653ZM69.9164 243.949C91.6126 254.759 113.656 259.823 135.455 259.005C139.872 258.84 144.33 258.426 148.707 257.777C179.113 253.266 199.363 238.317 203.276 235.229L192.203 182.122C186.559 161.119 174.296 147.385 155.755 141.302C142.421 136.929 130.432 138.289 129.32 138.428C127.346 138.961 93.9886 148.176 86.5103 163.374C72.4989 191.862 70.1973 236.817 69.9164 243.949Z" fill="#432918"/>
<path d="M134.044 156.396C184.201 155.05 214.68 241.499 134.718 245.427C54.8339 249.421 84.3772 158.353 134.044 156.396Z" fill="#8F6F59"/>
<path d="M166.743 142.737C178.379 139.144 203.041 147.81 203.041 147.81C203.161 133.219 212.341 127.177 212.341 127.177C211.715 118.607 224.356 127.486 224.356 127.486L235.302 126.58C235.302 126.58 248.36 126.922 245.301 139.833C245.301 139.833 247.635 145.794 245.526 153.308C245.526 153.308 247.341 156.266 246.029 161.644C244.716 167.021 240.272 169.233 240.272 169.233C234.477 222.678 189.542 198.681 189.542 198.681L159.506 148.188C159.506 148.188 163.571 143.717 166.743 142.737Z" fill="#D19973"/>
<path d="M208.548 163.757C208.097 163.732 207.661 163.509 207.381 163.111C202.191 155.733 200.187 148.457 201.426 141.484C203.244 131.244 211.388 125.495 211.734 125.256C212.427 124.776 213.378 124.947 213.858 125.641C214.338 126.333 214.166 127.283 213.475 127.764C213.36 127.845 205.999 133.098 204.426 142.053C203.348 148.186 205.182 154.68 209.878 161.354C210.363 162.044 210.197 162.996 209.508 163.481C209.216 163.686 208.878 163.775 208.548 163.757Z" fill="#432918"/>
<path d="M235.097 61.6007C223.894 72.4848 204.783 82.7319 202.258 83.5857C195.985 85.7079 191.032 93.678 195.33 106.383C199.629 119.087 208.403 122.413 214.676 120.291C217.2 119.437 242.26 112.756 260.4 115.8C260.4 115.8 279.099 110.18 267.87 80.4843C256.642 50.7877 235.096 61.6009 235.096 61.6009L235.097 61.6007Z" fill="white"/>
<path d="M209.332 115.287C203.122 108.935 200.777 99.8565 200.857 91.2294C200.88 88.7381 201.34 86.1648 202.126 83.6342C195.916 85.8228 191.061 93.7673 195.329 106.383C199.627 119.087 208.402 122.413 214.675 120.291C214.793 120.251 214.928 120.215 215.072 120.18C213.032 118.748 211.113 117.109 209.331 115.287L209.332 115.287Z" fill="#C24E4E"/>
<path d="M256.753 76.3141C254.213 77.4037 252.7 81.6934 254.233 86.2247C255.766 90.756 259.521 93.1054 262.252 92.5695C263.848 92.2565 267.69 89.4546 265.27 82.4905C263.157 76.4098 259.211 75.2593 256.753 76.3138L256.753 76.3141Z" fill="white"/>
<path d="M210.328 122.386C207.984 122.26 205.623 121.521 203.465 120.199C199.279 117.633 195.966 113.025 193.885 106.872C191.803 100.719 191.638 95.0463 193.407 90.4662C194.958 86.4476 198.007 83.413 201.77 82.1402C204.266 81.2959 222.996 71.23 234.033 60.5064C234.145 60.3975 234.273 60.3067 234.412 60.2369C234.757 60.0641 242.959 56.0423 252.166 59.636C259.525 62.5077 265.289 69.3406 269.298 79.9447C273.716 91.6298 274.18 101.153 270.675 108.25C267.204 115.281 261.098 117.184 260.84 117.262C260.615 117.329 260.379 117.344 260.148 117.306C242.809 114.396 218.269 120.687 215.165 121.737C213.613 122.262 211.975 122.475 210.328 122.386ZM235.972 62.8774C224.587 73.8477 205.336 84.1563 202.748 85.0318C199.803 86.0281 197.497 88.3486 196.254 91.5658C194.746 95.4714 194.927 100.426 196.776 105.894C198.626 111.361 201.491 115.408 205.06 117.596C208.001 119.398 211.242 119.842 214.187 118.845C214.429 118.763 240.581 111.09 260.263 114.231C261.41 113.791 265.484 111.924 267.971 106.831C271.048 100.528 270.534 91.8453 266.443 81.0239C262.76 71.2833 257.597 65.0496 251.096 62.4951C243.891 59.6636 237.186 62.3404 235.972 62.8774Z" fill="#432918"/>
<path d="M246.285 48.2325C234.883 53.1241 228.087 72.3834 234.97 92.7281C241.852 113.073 258.714 123.62 270.975 121.215C278.138 119.81 295.386 107.231 284.522 75.9643C275.036 48.6631 257.319 43.4985 246.285 48.2325Z" fill="white"/>
<path d="M266.237 123.044C260.933 122.757 255.254 120.573 250.049 116.73C242.683 111.291 236.814 102.941 233.525 93.2167C230.214 83.4307 229.78 73.1497 232.303 64.2678C234.708 55.8018 239.585 49.4457 245.683 46.8291C251.292 44.4234 257.747 44.5835 263.862 47.282C270.495 50.2089 279.714 57.4741 285.964 75.4632C292.206 93.4265 289.113 104.864 285.419 111.295C281.556 118.023 275.529 121.877 271.269 122.712C269.652 123.03 267.964 123.138 266.237 123.044ZM246.887 49.6352C236.393 54.1372 229.681 72.331 236.416 92.2387C243.119 112.049 259.422 121.928 270.682 119.717C274.145 119.038 279.405 115.637 282.772 109.775C286.149 103.894 288.945 93.3415 283.081 76.4651C277.19 59.5132 268.708 52.7573 262.629 50.0749C257.3 47.7231 251.708 47.5671 246.887 49.6352Z" fill="#432918"/>
<path d="M250.004 54.9022C240.928 58.7959 237.088 74.3993 242.567 90.5944C248.046 106.789 258.375 115.851 269.196 114.333C275.631 113.429 288.168 102.549 279.471 77.6768C272.798 58.5947 258.788 51.1339 250.004 54.9022Z" fill="#C24E4E"/>
<path d="M240.54 76.6357C239.949 93.5014 249.509 104.606 249.509 104.606L266.188 89.1138L260.591 75.9276L240.54 76.6352L240.54 76.6357Z" fill="white"/>
<path d="M240.484 75.0638L257.745 74.4546C257.736 75.5126 257.8 76.5591 257.927 77.5955L242.087 78.1548C242.095 90.2414 247.446 99.0772 249.709 102.272L261.606 91.2227C261.626 91.2883 261.647 91.3539 261.666 91.4195C262.024 92.6291 262.979 93.2218 263.974 93.3173L250.579 105.759C250.267 106.049 249.85 106.2 249.424 106.177L249.421 106.177C248.994 106.152 248.595 105.956 248.316 105.632C247.909 105.16 238.363 93.8625 238.968 76.5809C238.996 75.7556 239.658 75.0929 240.484 75.0638Z" fill="#432918"/>
<path d="M261.152 94.2057C258.008 94.0358 254.345 91.4653 252.742 86.7288C251.047 81.7184 252.568 76.3975 256.132 74.8683C257.699 74.1962 259.487 74.2346 261.165 74.9738C262.866 75.7248 265.216 77.5481 266.755 81.974C268.297 86.4148 267.488 89.3195 266.538 90.9743C265.411 92.9351 263.688 93.8906 262.554 94.1127C262.105 94.2006 261.634 94.2314 261.151 94.2052L261.152 94.2057ZM258.645 77.5429C258.198 77.5188 257.766 77.5903 257.373 77.7599C255.789 78.4389 254.395 81.7961 255.722 85.721C257.073 89.7145 260.208 91.3687 261.949 91.026C262.222 90.9729 263.148 90.5607 263.81 89.4082C264.706 87.8489 264.697 85.6355 263.784 83.0069C262.874 80.3877 261.493 78.5575 259.895 77.8527C259.478 77.6691 259.056 77.5656 258.645 77.5433L258.645 77.5429Z" fill="#432918"/>
<path d="M214.988 121.704C214.668 121.687 214.352 121.57 214.089 121.349C203.398 112.357 200.629 102.328 200.189 95.497C199.711 88.0765 201.772 82.8213 201.86 82.6014C202.173 81.8185 203.06 81.4384 203.843 81.7503C204.625 82.0627 205.006 82.9491 204.696 83.7313C204.676 83.7798 202.779 88.6721 203.245 95.4379C203.865 104.455 208.175 112.386 216.053 119.012C216.699 119.555 216.782 120.518 216.239 121.163C215.918 121.545 215.45 121.729 214.988 121.704Z" fill="#432918"/>
<path d="M265.797 116.001C255.491 115.444 246.25 106.25 241.12 91.0835C238.422 83.1096 237.789 74.8435 239.336 67.8074C240.899 60.695 244.474 55.6135 249.401 53.4993C253.141 51.8957 257.685 52.1051 262.195 54.0906C270.19 57.6087 277.011 66.022 280.911 77.1731C286.324 92.6535 283.571 102.283 280.309 107.635C277.022 113.026 272.382 115.427 269.408 115.845C268.193 116.015 266.988 116.066 265.797 116.001ZM250.605 56.3051C246.665 57.9953 243.644 62.4268 242.317 68.463C240.888 74.964 241.489 82.6503 244.011 90.1053C249.235 105.545 258.802 114.251 268.983 112.821C271.481 112.471 275.146 110.24 277.702 106.046C280.622 101.257 283.048 92.5346 278.029 78.1809C274.408 67.8254 268.188 60.0633 260.966 56.8847C257.238 55.2441 253.558 55.0377 250.605 56.3051Z" fill="#432918"/>
<path d="M238.898 112.971C235.91 111.861 213.777 119.082 213.777 119.082C213.777 119.082 218.797 158.923 220.079 162.08C221.361 165.237 235.545 164.914 234.698 157.058C233.852 149.203 236.381 121.734 236.381 121.734C236.381 121.734 241.886 114.082 238.898 112.971Z" fill="white"/>
<path d="M224.532 165.445C221.875 165.301 219.408 164.483 218.665 162.654C217.345 159.406 212.779 123.371 212.263 119.273C212.172 118.551 212.603 117.864 213.294 117.634C213.349 117.616 218.822 115.794 224.591 114.132C236.683 110.65 238.263 111.236 239.022 111.518C239.874 111.835 240.497 112.486 240.779 113.351C241.634 115.984 239.002 120.488 237.867 122.251C237.569 125.571 235.448 149.772 236.216 156.895C236.635 160.788 234.092 163.815 229.411 164.993C227.968 165.356 226.212 165.535 224.532 165.445ZM215.449 120.137C217.401 135.541 220.637 159.398 221.493 161.505C221.947 162.22 225.894 163.042 229.582 161.76C232.196 160.851 233.407 159.324 233.18 157.222C232.327 149.306 234.757 122.722 234.861 121.594C234.884 121.343 234.97 121.101 235.109 120.89C236.799 118.341 238.111 115.256 237.9 114.37C235.893 114.013 225.023 116.995 215.449 120.137Z" fill="#432918"/>
<path d="M246.028 161.644C245.787 162.634 245.438 163.517 245.031 164.298C243.821 163.806 221.478 158.046 221.96 157.527C222.442 157.009 220.64 160.589 219.08 160.414C214.386 159.888 210.151 147.06 208.925 142.34C208.206 139.574 207.468 138.393 206.661 135.656C209.321 130.834 213.771 125.075 218.607 125.064C223.443 125.053 224.356 127.486 224.356 127.486L235.302 126.58C235.302 126.58 248.359 126.922 245.3 139.833C245.3 139.833 247.634 145.794 245.525 153.308C245.525 153.308 247.341 156.266 246.028 161.644Z" fill="#D19973"/>
<path d="M245.719 153.053C244.938 153.011 244.305 152.378 244.278 151.581L244.085 145.918C244.082 145.855 244.084 145.792 244.09 145.729C244.334 143.008 243.752 141.045 242.309 139.727C239.892 137.521 234.94 137.025 227.986 138.295C227.156 138.447 226.362 137.897 226.21 137.068C226.059 136.239 226.608 135.443 227.438 135.292C235.478 133.824 241.174 134.558 244.367 137.473C246.513 139.432 247.445 142.269 247.139 145.906L247.328 151.477C247.357 152.32 246.698 153.026 245.855 153.055C245.809 153.056 245.764 153.056 245.719 153.053Z" fill="#432918"/>
<path d="M245.527 144.053C245.517 144.052 245.508 144.052 245.498 144.051C244.657 143.99 244.025 143.259 244.086 142.418L244.441 137.534C244.72 134.434 243.991 132.169 242.217 130.584C237.281 126.177 226.077 128.416 225.964 128.438C225.14 128.611 224.332 128.076 224.162 127.252C223.992 126.426 224.522 125.619 225.347 125.449C225.868 125.341 238.161 122.876 244.245 128.303C246.758 130.545 247.848 133.733 247.484 137.781L247.131 142.64C247.071 143.471 246.355 144.098 245.527 144.053Z" fill="#432918"/>
<path d="M220.578 146.224C214.309 145.885 212.144 134.812 211.916 133.543C211.767 132.714 212.32 131.92 213.149 131.771C213.979 131.624 214.772 132.175 214.921 133.005C215.51 136.265 217.704 143.011 220.748 143.176C220.764 143.177 220.779 143.177 220.795 143.178C222.801 143.242 224.116 142.268 224.816 140.202C226.232 136.023 224.344 129.179 221.143 126.887C220.107 126.146 218.42 125.38 216.257 125.943C213.62 126.63 209.505 129.511 204.881 139.336C204.523 140.099 203.612 140.426 202.85 140.067C202.088 139.708 201.76 138.798 202.119 138.036C206.236 129.29 210.733 124.228 215.488 122.989C218.067 122.317 220.706 122.82 222.92 124.405C227.252 127.506 229.578 135.659 227.708 141.181C226.585 144.495 224.03 146.335 220.698 146.229C220.658 146.228 220.617 146.226 220.578 146.224Z" fill="#432918"/>
<path d="M226.025 173.01C225.2 172.966 224.558 172.27 224.583 171.44C224.609 170.597 225.312 169.935 226.155 169.961C226.199 169.962 230.815 170.072 235.48 168.416C241.436 166.302 244.713 162.379 245.219 156.756C245.393 154.823 244.32 153.087 242.03 151.597C235.633 147.433 221.384 146.542 215.283 149.926C214.039 150.615 213.368 151.813 213.395 153.298C213.432 155.293 214.872 158.138 218.804 160.136C219.218 160.346 219.387 160.321 219.388 160.321C219.735 160.105 220.105 158.462 220.022 156.861C219.985 156.153 220.439 155.512 221.12 155.314C221.8 155.116 222.527 155.412 222.875 156.028C224.317 158.578 229.124 159.772 232.539 159.25C234.162 159.001 234.805 158.465 234.849 158.259C235.026 157.434 235.835 156.909 236.661 157.085C237.485 157.261 238.011 158.072 237.834 158.897C237.459 160.651 235.743 161.848 233.002 162.267C230.123 162.708 225.771 162.221 222.745 160.187C222.461 161.253 221.949 162.291 221.041 162.884C220.328 163.349 219.122 163.721 217.422 162.858C213.057 160.64 210.411 157.087 210.343 153.353C210.296 150.763 211.589 148.484 213.803 147.256C220.928 143.304 236.294 144.221 243.696 149.039C247.82 151.724 248.454 154.866 248.26 157.029C247.644 163.877 243.549 168.819 236.418 171.323C231.222 173.147 226.271 173.019 226.062 173.013C226.05 173.012 226.038 173.011 226.025 173.01Z" fill="#432918"/>
<path d="M202.439 144.701C201.554 144.439 181.676 138.666 162.894 141.928C163.013 142.939 163.148 143.949 163.297 144.958C181.441 141.787 201.363 147.567 201.573 147.628C202.382 147.866 203.23 147.406 203.469 146.597C203.708 145.789 203.247 144.94 202.439 144.701Z" fill="#432918"/>
<path d="M214.461 150.115C213.996 150.089 213.549 149.853 213.271 149.436C210.92 145.9 210.094 142.77 210.817 140.135C211.569 137.392 213.692 136.301 213.931 136.185C214.692 135.82 215.603 136.139 215.969 136.898C216.332 137.652 216.02 138.556 215.273 138.927C215.197 138.967 214.116 139.562 213.746 140.997C213.304 142.713 214.019 145.047 215.813 147.745C216.28 148.448 216.089 149.395 215.387 149.861C215.103 150.051 214.778 150.132 214.461 150.115Z" fill="#432918"/>
<path d="M181.683 83.6235C181.208 80.8999 180.633 78.2303 179.987 75.648C179.692 67.9858 177.874 53.4195 168.686 46.3458C163.515 42.3647 150.234 35.8972 131.583 35.4357C131.481 35.4418 131.38 35.4514 131.278 35.4583C131.175 35.4553 131.075 35.4502 130.972 35.4472C130.81 35.4571 130.652 35.4714 130.491 35.4827C130.33 35.4783 130.171 35.4693 130.009 35.4655C129.907 35.4717 129.806 35.4813 129.704 35.4881C129.601 35.4852 129.501 35.4802 129.398 35.4772C110.778 36.6498 97.7529 43.6191 92.7384 47.7947C83.8268 55.2135 82.565 69.8385 82.5638 77.5066C82.0157 80.1108 81.5421 82.8012 81.1721 85.5412C64.0117 120.565 73.2159 147.288 132.121 146.165C191.025 145.041 200.167 117.967 181.683 83.6235Z" fill="#D19973"/>
<path d="M200.028 66.5455C198.491 57.8099 191.942 43.9192 180.061 39.2621C156.511 30.0339 154.947 39.0112 154.947 39.0112C154.947 39.0112 162.897 42.8055 168.701 45.8104C168.719 45.8844 168.743 45.9365 168.774 45.96C168.774 45.96 168.194 73.9486 176.692 82.8778C182.159 88.6223 201.563 75.2811 200.028 66.5455Z" fill="#8F6F59"/>
<path d="M61.9902 69.1787C63.1925 60.3909 69.2063 46.2603 80.9021 41.1534C104.082 31.0335 105.987 39.9448 105.987 39.9448C105.987 39.9448 98.188 44.0396 92.503 47.2635C92.4877 47.3383 92.4661 47.391 92.4355 47.4156C92.4355 47.4156 94.0826 75.3619 85.9318 84.6082C80.6881 90.5577 60.7888 77.9664 61.9902 69.1787Z" fill="#8F6F59"/>
<path d="M168.546 92.5103C163.317 92.6101 157.07 103.885 150.163 100.464C144.449 97.6342 138.831 95.0269 132.318 95.1068C132.054 95.1099 131.792 95.1255 131.529 95.1386C131.266 95.136 131.003 95.1301 130.739 95.137C124.228 95.3053 118.714 98.1249 113.111 101.171C106.34 104.853 99.6679 93.8243 94.4384 93.9239C75.835 94.2786 72.5315 139.214 132.355 138.458C192.165 136.932 187.15 92.1556 168.546 92.5103Z" fill="#8F6F59"/>
<path d="M109.289 57.4795C100.982 57.9268 94.767 67.2845 95.4102 78.2999C96.0534 89.3154 103.346 97.9004 111.711 97.3552C120.018 96.9072 126.232 87.549 125.589 76.5348C124.869 65.5402 117.576 56.9536 109.289 57.4795Z" fill="#8F6F59"/>
<path d="M150.656 56.6905C142.349 57.1378 136.135 66.4956 136.778 77.5108C137.421 88.5264 144.713 97.1113 153.079 96.566C161.386 96.118 167.6 86.7598 166.957 75.7457C166.236 64.7513 158.943 56.1648 150.656 56.6905Z" fill="#8F6F59"/>
<path d="M125.885 41.7135C130.424 41.4329 134.182 42.4907 134.281 44.0764C134.379 45.6622 130.78 47.1749 126.241 47.4559C121.702 47.7363 117.944 46.6787 117.845 45.093C117.747 43.5072 121.347 41.9944 125.885 41.7135Z" fill="#FAB395"/>
<path d="M139.419 45.8944C141.539 45.7632 143.295 46.2573 143.341 46.9982C143.386 47.739 141.705 48.446 139.585 48.5771C137.465 48.7083 135.709 48.2142 135.663 47.4734C135.618 46.7325 137.299 46.0255 139.419 45.8944Z" fill="#FAB395"/>
<path d="M155.74 105.941C155.74 105.941 133.657 118.917 133.413 104.968L131.837 104.992L129.91 105.023C130.055 118.972 107.969 106.606 107.969 106.606C107.082 110.219 113.029 112.006 113.029 112.006C113.029 112.006 108.995 135.065 132.251 134.741C155.508 134.417 150.834 111.479 150.834 111.479C150.834 111.479 156.727 109.527 155.74 105.94L155.74 105.941Z" fill="#432918"/>
<path d="M139.064 120.094C139.083 121.487 135.992 122.661 132.159 122.714C128.326 122.767 125.203 121.68 125.184 120.287C125.164 118.893 128.256 117.72 132.089 117.667C135.922 117.613 139.044 118.7 139.064 120.094Z" fill="#C24E4E"/>
<path d="M131.567 90.0413C125.616 90.2926 119.819 92.7429 119.786 96.62C119.748 101.005 128.769 105.401 131.78 105.359C134.792 105.318 143.682 100.323 143.522 95.9394C143.381 92.0645 137.522 90.1264 131.567 90.0409L131.567 90.0413Z" fill="#432918"/>
<path d="M135.206 93.5271C135.254 94.3146 133.249 95.0762 130.728 95.2276C128.207 95.379 126.126 94.864 126.079 94.0764C126.031 93.2893 128.036 92.5276 130.556 92.3763C133.077 92.2243 135.159 92.7398 135.206 93.5271Z" fill="white"/>
<path d="M137.33 92.7505C137.835 92.7406 138.252 93.1419 138.262 93.647C138.272 94.152 137.871 94.5696 137.365 94.5794C136.86 94.5893 136.443 94.188 136.433 93.6829C136.423 93.1779 136.825 92.7605 137.33 92.7505Z" fill="white"/>
<path d="M163.726 87.6026C160.883 99.2905 140.615 98.2542 140.053 80.8466C139.829 73.8847 143.796 62.8105 152.408 62.9003C162.029 63.0004 165.925 78.5589 163.726 87.6021L163.726 87.6026Z" fill="#432918"/>
<path d="M161.472 88.4955C158.874 99.1776 140.35 98.2302 139.837 82.3213C139.632 75.9584 143.258 65.8381 151.129 65.9199C159.921 66.0112 163.481 80.2303 161.472 88.4955Z" fill="white"/>
<path d="M141.938 81.9306C141.737 88.3805 144.792 93.7103 148.762 93.8337C152.731 93.9579 156.112 88.829 156.313 82.3779C156.515 75.928 153.459 70.5979 149.49 70.4741C145.52 70.3506 142.139 75.4794 141.938 81.9305L141.938 81.9306Z" fill="#432918"/>
<path d="M152.644 72.7528C154.39 72.813 155.734 74.9208 155.647 77.4612C155.559 80.0011 154.072 82.0114 152.326 81.9506C150.58 81.8903 149.236 79.7822 149.323 77.2419C149.411 74.7023 150.898 72.6922 152.644 72.7528Z" fill="white"/>
<path d="M99.4205 88.8099C102.587 100.414 122.819 98.8134 122.895 81.3977C122.926 74.4322 118.653 63.4727 110.045 63.8024C100.431 64.1705 96.9704 79.8313 99.4209 88.81L99.4205 88.8099Z" fill="#432918"/>
<path d="M101.699 89.6399C104.593 100.245 123.083 98.7827 123.153 82.8657C123.18 76.4997 119.275 66.484 111.409 66.7851C102.623 67.1214 99.4592 81.4343 101.699 89.6399Z" fill="white"/>
<path d="M121.043 82.5332C121.424 88.9751 118.518 94.3877 114.554 94.6218C110.589 94.8563 107.066 89.8239 106.686 83.3809C106.305 76.939 109.211 71.5261 113.175 71.2915C117.14 71.0575 120.663 76.0902 121.043 82.5332Z" fill="#432918"/>
<path d="M116.626 73.5664C114.881 73.6751 113.596 75.82 113.755 78.3562C113.913 80.8927 115.455 82.8606 117.199 82.7515C118.943 82.6426 120.228 80.4978 120.069 77.9613C119.911 75.4251 118.368 73.4577 116.626 73.5664Z" fill="white"/>
<path d="M143.113 58.5931C142.903 57.7869 142.748 56.953 142.788 56.1563C142.775 55.3372 142.933 54.5422 143.142 53.7258C143.613 52.1226 144.608 50.5311 146.141 49.2602C147.661 47.9843 149.749 47.1728 151.79 46.9965C153.843 46.8073 155.809 47.178 157.492 47.8385C160.877 49.1812 163.257 51.5796 164.745 54.3259C165.474 55.7157 165.983 57.2118 166.177 58.786C166.267 59.5754 166.293 60.375 166.204 61.183C166.174 61.5799 165.997 62.3895 165.997 62.3895C165.997 62.3895 165.765 63.1917 165.581 63.5851L164.985 63.7791C164.556 62.6462 163.97 61.5763 163.29 60.5759C162.625 59.5661 161.864 58.6182 161.026 57.7503C159.359 56.0198 157.405 54.517 155.2 53.6682C154.109 53.2291 152.957 52.9617 151.806 52.9521C150.653 52.9332 149.518 53.2082 148.485 53.722C146.396 54.7592 144.859 56.7516 143.676 58.868L143.113 58.5936L143.113 58.5931Z" fill="#432918"/>
<path d="M118.169 59.3698C116.904 57.3021 115.29 55.3711 113.162 54.417C112.109 53.9442 110.964 53.7141 109.813 53.7784C108.663 53.8327 107.522 54.1456 106.45 54.6274C104.28 55.5622 102.387 57.1407 100.789 58.9355C99.9855 59.8358 99.2632 60.8129 98.6379 61.8481C97.9979 62.875 97.4552 63.9666 97.0701 65.1155L96.4674 64.9451C96.2681 64.5588 96.0036 63.7668 96.0036 63.7668C96.0036 63.7668 95.7961 62.9647 95.7494 62.5693C95.6297 61.7655 95.6237 60.9653 95.6827 60.1731C95.8138 58.5926 96.2643 57.0775 96.9382 55.6601C98.3167 52.8573 100.601 50.3672 103.931 48.8923C105.585 48.1666 107.536 47.7188 109.594 47.8268C111.64 47.9228 113.759 48.6514 115.328 49.8664C116.91 51.0761 117.967 52.6271 118.501 54.2105C118.742 55.0181 118.931 55.8063 118.95 56.6252C119.022 57.4198 118.899 58.2591 118.721 59.0729L118.169 59.3693L118.169 59.3698Z" fill="#432918"/>
<path d="M118.282 106.05C118.838 106.039 119.297 106.481 119.308 107.036C119.319 107.592 118.877 108.051 118.322 108.062C117.766 108.073 117.307 107.631 117.296 107.076C117.285 106.52 117.727 106.061 118.282 106.05Z" fill="#432918"/>
<path d="M123.639 107.447C124.194 107.436 124.653 107.878 124.664 108.434C124.675 108.989 124.234 109.448 123.678 109.459C123.123 109.47 122.664 109.029 122.652 108.473C122.642 107.918 123.083 107.458 123.639 107.447Z" fill="#432918"/>
<path d="M122.178 103.391C122.733 103.381 123.192 103.822 123.203 104.377C123.214 104.933 122.773 105.392 122.217 105.403C121.662 105.414 121.203 104.973 121.192 104.417C121.181 103.862 121.622 103.402 122.178 103.391Z" fill="#432918"/>
<path d="M145.399 105.517C145.955 105.506 146.414 105.947 146.425 106.503C146.436 107.058 145.995 107.517 145.439 107.528C144.883 107.539 144.424 107.098 144.413 106.542C144.402 105.987 144.844 105.528 145.399 105.517Z" fill="#432918"/>
<path d="M140.102 107.124C140.658 107.113 141.117 107.554 141.128 108.11C141.139 108.665 140.698 109.124 140.142 109.135C139.587 109.146 139.127 108.705 139.116 108.149C139.106 107.594 139.547 107.134 140.102 107.124Z" fill="#432918"/>
<path d="M141.402 103.013C141.958 103.002 142.417 103.444 142.428 103.999C142.439 104.555 141.997 105.014 141.442 105.025C140.886 105.036 140.427 104.594 140.416 104.039C140.405 103.483 140.847 103.024 141.402 103.013Z" fill="#432918"/>
<path d="M139.834 111.686C139.814 112.192 140.402 114.624 141.563 114.669C142.725 114.714 144.066 111.387 144.086 110.881C144.106 110.375 139.853 111.18 139.833 111.686L139.834 111.686Z" fill="white"/>
<path d="M124.087 111.995C124.047 111.491 119.766 110.854 119.805 111.359C119.845 111.863 121.317 115.135 122.475 115.044C123.634 114.954 124.126 112.5 124.086 111.996L124.087 111.995Z" fill="white"/>
<path d="M92.7526 48.9787C92.6954 48.9903 92.6371 48.9987 92.5776 49.004C91.7003 49.0829 90.9255 48.435 90.8471 47.558C90.687 45.7702 89.9318 45.0176 89.8998 44.9867L89.9317 45.0152L92.02 42.6042C92.1961 42.7565 93.7475 44.1827 94.0242 47.2734C94.0972 48.0914 93.5393 48.8201 92.7526 48.9787Z" fill="#432918"/>
<path d="M169.091 47.5227C169.006 47.5399 168.919 47.5502 168.83 47.5533C167.95 47.5841 167.211 46.8958 167.18 46.0157C167.029 41.7063 167.803 40.9021 168.094 40.5991C168.704 39.9636 169.714 39.9448 170.349 40.5545C170.925 41.1088 170.995 41.9912 170.546 42.6245C170.405 43.0943 170.322 44.5763 170.368 45.9041C170.396 46.695 169.842 47.3713 169.091 47.5227Z" fill="#432918"/>
</svg>
