<svg width="124" height="194" viewBox="0 0 124 194" fill="none" xmlns="http://www.w3.org/2000/svg">
<path d="M123.202 193.022C120.198 166.595 110.657 146.467 110.657 146.467H12.5446C12.5446 146.467 3.00364 166.596 0 193.022H123.202Z" fill="#D1AB99"/>
<path d="M12.7847 193.022C12.7847 193.022 4.83392 178.28 3.42044 156.804C2.00696 135.329 11.1946 128.1 16.3184 121.21C21.4423 114.319 22.5024 112.199 23.5869 103.142H99.6149C100.699 112.199 101.759 114.319 106.883 121.21C112.007 128.1 121.195 135.329 119.781 156.804C118.368 178.28 110.417 193.022 110.417 193.022H12.7847Z" fill="#F0E5CA"/>
<path d="M90.346 109.195C90.7543 130.574 77.8567 148.349 61.6008 148.349C45.3454 148.349 32.4478 130.574 32.8561 109.195H90.346Z" fill="white"/>
<path d="M109.644 193.022L100.214 126.153C99.9542 124.309 98.2174 122.8 96.3545 122.8H26.8465C24.984 122.8 23.2473 124.309 22.9869 126.153L13.5566 193.022H109.644Z" fill="#474CE6"/>
<path d="M61.6005 121.21C84.7183 121.21 103.459 109.858 103.459 95.8551C103.459 81.8522 84.7183 70.5006 61.6005 70.5006C38.4828 70.5006 19.7422 81.8522 19.7422 95.8551C19.7422 109.858 38.4828 121.21 61.6005 121.21Z" fill="#363636"/>
<path d="M61.6008 21.3818C53.5614 21.3818 50.1163 22.8839 48.3495 22.5301C46.5826 22.1767 44.9925 16.7876 34.3825 9.45537C23.7726 2.12318 14.2489 -0.0856045 11.7753 0.00251644C9.30168 0.0910803 8.24157 5.39162 8.06489 12.1056C7.8882 18.8197 7.00478 24.1202 6.73599 29.3326C6.4672 34.5451 7.44627 48.0617 7.00478 52.3021C6.56329 56.5425 6.47473 57.5145 8.26062 59.5462C10.0465 61.5783 11.4219 64.4934 11.3338 65.3462C11.2452 66.1991 9.125 70.0592 8.33014 78.8048C7.53483 87.5509 13.7192 94.5298 18.8431 99.3888C23.967 104.248 34.3032 106.721 40.1675 107.713C40.655 108.085 61.6017 110.343 61.6017 110.343C61.6017 110.343 82.5484 108.085 83.0359 107.713C88.9002 106.721 99.2365 104.247 104.36 99.3888C109.484 94.5298 115.668 87.5509 114.873 78.8048C114.078 70.0587 111.958 66.1991 111.87 65.3462C111.781 64.4934 113.157 61.5778 114.943 59.5462C116.729 57.5141 116.64 56.5425 116.199 52.3021C115.757 48.0617 116.736 34.5451 116.467 29.3326C116.199 24.1202 115.315 18.8197 115.139 12.1056C114.962 5.39162 113.902 0.0910803 111.428 0.00251644C108.955 -0.0856045 99.4309 2.12273 88.8209 9.45537C78.211 16.788 76.6208 22.1767 74.854 22.5301C73.0858 22.8834 69.6407 21.3818 61.6008 21.3818Z" fill="#F0E5CA"/>
<path d="M61.6007 117.345C51.132 117.345 43.38 111.183 41.1933 108.731C39.0067 106.28 38.5431 107.208 33.905 104.292C29.2669 101.377 22.2438 94.795 20.5208 89.8921C18.7982 84.9892 20.2117 81.2345 22.0667 79.9977C23.9221 78.761 24.5402 81.1021 28.1625 82.3832C31.7848 83.6643 34.5232 81.235 38.3314 77.3918C42.1392 73.549 49.1442 66.4811 51.9273 64.0518C54.7104 61.6225 58.5089 61.0039 61.6007 61.0039C64.6924 61.0039 68.4914 61.6225 71.274 64.0518C74.0567 66.4811 81.0617 73.549 84.8699 77.3918C88.6777 81.2345 91.4165 83.6643 95.0388 82.3832C98.6611 81.1021 99.2793 78.761 101.135 79.9977C102.99 81.2345 104.404 84.9892 102.681 89.8921C100.958 94.795 93.9344 101.377 89.2963 104.292C84.6582 107.208 84.1946 106.28 82.008 108.731C79.8213 111.183 72.0693 117.345 61.6007 117.345Z" fill="#8F8471"/>
<path d="M61.6014 64.4048C59.4811 64.4048 56.8752 64.5372 54.3573 65.3325C51.8394 66.1278 48.7477 69.5286 49.2777 72.5323C49.8078 75.5359 51.8837 76.6403 52.3256 76.9937C52.7676 77.3471 54.0482 77.8328 54.0925 77.2589C54.1368 76.6846 54.8435 75.8012 55.6826 76.2431C56.5218 76.685 55.1083 78.6724 55.1526 79.2467C55.1969 79.8211 58.0238 82.5595 61.6018 82.5595C65.1798 82.5595 68.0067 79.8206 68.051 79.2467C68.0953 78.6724 66.6818 76.6846 67.521 76.2431C68.3601 75.8016 69.0669 76.685 69.1111 77.2589C69.1554 77.8333 70.4361 77.3471 70.878 76.9937C71.3195 76.6403 73.3959 75.5359 73.9259 72.5323C74.456 69.5286 71.3638 66.1274 68.8463 65.3325C66.3276 64.5372 63.7216 64.4048 61.6014 64.4048Z" fill="#212121"/>
<path d="M61.6011 103.983C61.6011 103.983 57.935 103.983 53.8269 103.983C49.7189 103.983 47.6873 101.686 46.45 101.2C45.2132 100.714 42.5187 101.818 39.957 100.626C37.3953 99.4331 33.7287 96.9152 29.444 93.2491C25.1593 89.583 23.8344 87.7719 23.481 86.3584C23.1276 84.9449 27.5447 85.5631 28.7815 86.6675C30.0183 87.7719 29.1792 89.9802 30.0183 92.41C30.8575 94.8393 38.9854 99.7869 43.2697 99.4773C47.5544 99.1683 51.7506 94.8836 54.0036 92.2333C56.2567 89.583 60.7177 86.6675 61.6011 86.6675C62.4845 86.6675 66.9459 89.5826 69.1985 92.2333C71.4511 94.8836 75.6477 99.1683 79.9325 99.4773C84.2172 99.7864 92.3447 94.8393 93.1838 92.41C94.0229 89.9807 93.1838 87.7719 94.4206 86.6675C95.6574 85.5631 100.075 84.9449 99.7211 86.3584C99.3678 87.7719 98.0429 89.583 93.7581 93.2491C89.4734 96.9152 85.8073 99.4331 83.2452 100.626C80.683 101.818 77.9889 100.714 76.7517 101.2C75.5149 101.686 73.4828 103.983 69.3752 103.983C65.2672 103.983 61.6011 103.983 61.6011 103.983Z" fill="#212121"/>
<path d="M61.6007 93.3816C55.2405 93.3816 53.3847 95.4137 52.4127 96.5176C51.4411 97.622 51.3969 100.317 53.3404 100.935C55.2839 101.553 59.3034 101.332 61.6007 101.332C63.8981 101.332 67.9176 101.553 69.8611 100.935C71.8046 100.316 71.7603 97.622 70.7888 96.5176C69.8172 95.4137 67.9614 93.3816 61.6007 93.3816Z" fill="#D83F3F"/>
<path d="M84.2237 128.13C83.637 128.13 83.0967 127.746 82.924 127.155C80.3344 118.281 76.6378 107.079 74.6384 103.454C72.7587 100.047 69.8068 99.9481 69.476 99.9481H53.7254C53.3946 99.9481 50.4428 100.047 48.563 103.454C46.5637 107.078 42.867 118.28 40.2774 127.155C40.068 127.873 39.3192 128.287 38.5974 128.076C37.8796 127.866 37.4669 127.114 37.6768 126.395C40.3948 117.081 44.0813 105.97 46.1913 102.146C48.1888 98.5244 51.498 97.2394 53.7254 97.2394H69.476C71.7039 97.2394 75.0131 98.5244 77.0102 102.146C79.1202 105.971 82.8071 117.081 85.5247 126.395C85.7346 127.114 85.3214 127.866 84.6041 128.076C84.477 128.112 84.3495 128.13 84.2237 128.13Z" fill="#F0E5CA"/>
<path d="M69.0381 102.801C71.2469 103.596 73.3228 102.845 73.4995 102.139C73.6762 101.432 71.9093 97.8983 71.2686 97.9426C70.1868 98.7813 69.2591 101.122 69.0381 102.801Z" fill="white"/>
<path d="M54.1642 102.801C51.9554 103.596 49.8795 102.845 49.7028 102.139C49.5261 101.432 51.2929 97.8983 51.9333 97.9426C53.0155 98.7813 53.9432 101.122 54.1642 102.801Z" fill="white"/>
<path d="M97.734 66.5949C98.4202 61.6736 94.9868 57.1278 90.0652 56.4415C85.1437 55.7553 80.5977 59.1885 79.9115 64.1098C79.2252 69.0311 82.6587 73.5769 87.5802 74.2632C92.5018 74.9495 97.0478 71.5163 97.734 66.5949Z" fill="#363636"/>
<path d="M96.7505 65.3463C96.7505 69.7262 93.1999 73.2772 88.8196 73.2772C84.4396 73.2772 80.8887 69.7267 80.8887 65.3463C80.8887 60.9664 84.4392 57.4154 88.8196 57.4154C93.1999 57.4154 96.7505 60.9664 96.7505 65.3463Z" fill="white"/>
<path d="M95.7292 66.9734C96.6336 63.1554 94.2716 59.3272 90.4537 58.4229C86.6357 57.5185 82.8075 59.8804 81.9031 63.6984C80.9988 67.5164 83.3607 71.3446 87.1787 72.249C90.9966 73.1533 94.8248 70.7914 95.7292 66.9734Z" fill="#363636"/>
<path d="M91.3353 57.8293C90.7317 58.2478 90.335 58.9439 90.335 59.7339C90.335 61.0145 91.3729 62.0525 92.6536 62.0525C93.7509 62.0525 94.6648 61.2882 94.9057 60.2644C93.9749 59.1507 92.7426 58.3005 91.3353 57.8293Z" fill="white"/>
<path d="M75.2742 41.0824C69.4857 41.9423 67.3628 48.6386 68.6045 51.5688C69.8462 54.4989 74.4648 54.3005 78.339 53.8037C82.2128 53.3068 88.2719 49.7607 88.1722 47.1782C88.073 44.5953 83.9654 39.7907 75.2742 41.0824Z" fill="white"/>
<path d="M43.1392 67.4227C44.281 62.5869 41.2863 57.7409 36.4502 56.599C31.6141 55.457 26.768 58.4515 25.6261 63.2874C24.4843 68.1232 27.479 72.9692 32.3151 74.1111C37.1512 75.2531 41.9973 72.2585 43.1392 67.4227Z" fill="#363636"/>
<path d="M42.3129 65.3463C42.3129 69.7262 38.7624 73.2772 34.3821 73.2772C30.0021 73.2772 26.4512 69.7267 26.4512 65.3463C26.4512 60.9664 30.0017 57.4154 34.3821 57.4154C38.7624 57.4154 42.3129 60.9664 42.3129 65.3463Z" fill="white"/>
<path d="M41.296 66.9875C42.1976 63.1692 39.8331 59.3429 36.0148 58.4413C32.1964 57.5396 28.3701 59.9041 27.4685 63.7225C26.5668 67.5408 28.9313 71.3671 32.7497 72.2688C36.5681 73.1704 40.3944 70.8059 41.296 66.9875Z" fill="#363636"/>
<path d="M36.8988 57.8293C36.2952 58.2478 35.8984 58.9439 35.8984 59.7339C35.8984 61.0145 36.9364 62.0525 38.2175 62.0525C39.3148 62.0525 40.2288 61.2882 40.4697 60.2644C39.5384 59.1507 38.306 58.3005 36.8988 57.8293Z" fill="white"/>
<path d="M47.928 41.0824C53.7165 41.9423 55.8389 48.6386 54.5977 51.5688C53.356 54.4989 48.7374 54.3005 44.8632 53.8037C40.9894 53.3068 34.9303 49.7607 35.0295 47.1782C35.1292 44.5953 39.2363 39.7907 47.928 41.0824Z" fill="white"/>
<path d="M108.911 10.957C108.433 9.644 105.024 10.3383 100.695 13.872C96.3657 17.4057 91.2418 25.6218 90.6236 28.0954C90.005 30.569 90.381 32.5125 92.1363 34.1027C93.8921 35.6928 95.7475 38.255 97.161 37.1944C98.5745 36.1343 99.1045 34.9861 100.253 35.9576C101.401 36.9292 101.578 39.5888 101.49 40.8654C101.402 42.142 101.313 43.2903 101.755 44.5271C102.197 45.7639 105.201 51.3297 105.907 52.5664C106.614 53.8032 107.497 53.8032 108.911 50.7115C110.324 47.6197 114.565 26.5057 108.911 10.957Z" fill="#D1AB99"/>
<path d="M22.5071 13.8725C18.1781 10.3388 14.7683 9.64449 14.291 10.9574C8.63708 26.5057 12.8775 47.6198 14.291 50.712C15.7045 53.8037 16.5879 53.8037 17.2946 52.5669C18.0014 51.3301 21.005 45.7644 21.4465 44.5276C21.8884 43.2908 21.7999 42.1421 21.7113 40.8659C21.6232 39.5892 21.7999 36.9301 22.9481 35.9581C24.0963 34.9866 24.6268 36.1348 26.0399 37.1949C27.4533 38.255 29.3088 35.6933 31.0645 34.1032C32.8203 32.513 33.1958 30.5695 32.5772 28.0959C31.9599 25.6223 26.8361 17.4062 22.5071 13.8725Z" fill="#D1AB99"/>
<path d="M49.6909 156.804C47.8554 156.804 46.2364 156.392 44.8314 155.568C43.4272 154.744 42.3405 153.601 41.5731 152.141C40.8044 150.68 40.4209 149.07 40.4209 147.309C40.4209 145.587 40.823 144.06 41.6293 142.731C42.4344 141.402 43.5397 140.343 44.9438 139.557C46.348 138.77 47.9302 138.377 49.6909 138.377C51.4887 138.34 53.0899 138.733 54.4946 139.557C55.8987 140.381 57.0031 141.505 57.8091 142.928C58.6141 144.352 59.0166 145.961 59.0166 147.759C59.0166 149.408 58.6137 150.915 57.8091 152.281C57.0036 153.649 55.9076 154.736 54.5225 155.54C53.136 156.346 51.5255 156.768 49.6909 156.804ZM49.8033 150.231C50.2896 150.231 50.7209 150.044 51.0959 149.67C51.4697 149.295 51.6574 148.865 51.6574 148.377C51.6574 147.853 51.4697 147.403 51.0959 147.028C50.7209 146.655 50.2896 146.467 49.8033 146.467C49.3167 146.467 48.8854 146.655 48.5116 147.028C48.1366 147.403 47.9493 147.853 47.9493 148.377C47.9493 148.865 48.1366 149.295 48.5116 149.67C48.8854 150.044 49.3162 150.231 49.8033 150.231ZM64.8601 159.67C62.088 164.164 59.8598 167.722 58.1744 170.344C56.489 172.966 55.1212 174.83 54.0735 175.934C53.0244 177.039 52.0692 177.591 51.208 177.591C50.6828 177.591 50.0744 177.366 49.3818 176.917C48.6888 176.467 48.3425 175.831 48.3425 175.007C48.3425 174.146 48.6883 172.965 49.3818 171.467C50.0744 169.97 51.1517 167.984 52.6122 165.512C54.0735 163.04 55.9634 159.914 58.2864 156.129C61.058 151.635 63.2956 148.087 65 145.484C66.704 142.881 68.0989 141.027 69.1855 139.922C70.2718 138.817 71.2265 138.264 72.051 138.264C72.6125 138.264 73.2209 138.48 73.8763 138.91C74.5312 139.341 74.8598 139.969 74.8598 140.792C74.8598 141.655 74.5131 142.834 73.8201 144.332C73.1271 145.831 72.0506 147.816 70.5897 150.287C69.1293 152.759 67.2194 155.887 64.8601 159.67ZM73.4552 177.479C71.6197 177.479 70.0003 177.057 68.5957 176.215C67.1915 175.372 66.1048 174.23 65.3374 172.788C64.5687 171.346 64.1852 169.745 64.1852 167.984C64.1852 166.263 64.5873 164.736 65.3937 163.406C66.1987 162.077 67.304 161.018 68.7082 160.232C70.1124 159.445 71.6946 159.052 73.4552 159.052C75.253 159.015 76.8543 159.408 78.2589 160.232C79.6631 161.056 80.7675 162.18 81.5734 163.603C82.3784 165.027 82.781 166.637 82.781 168.434C82.781 170.082 82.378 171.59 81.5734 172.957C80.7679 174.324 79.6719 175.41 78.2868 176.215C76.9003 177.02 75.2898 177.441 73.4552 177.479ZM73.5677 170.905C74.0539 170.905 74.4852 170.719 74.8603 170.344C75.234 169.97 75.4218 169.539 75.4218 169.051C75.4218 168.528 75.234 168.078 74.8603 167.703C74.4852 167.329 74.0539 167.141 73.5677 167.141C73.081 167.141 72.6497 167.329 72.276 167.703C71.9009 168.078 71.7136 168.528 71.7136 169.051C71.7136 169.539 71.9009 169.97 72.276 170.344C72.6497 170.719 73.0806 170.905 73.5677 170.905Z" fill="white"/>
</svg>
