<svg width="152" height="32" viewBox="0 0 152 32" fill="none" xmlns="http://www.w3.org/2000/svg">
<g clip-path="url(#clip0_1_1443)">
<path d="M11.1767 30.7235C4.74896 28.991 0 23.0462 0 16C0 15.9255 4.91434e-07 15.8533 0.00230023 15.7788C0.057494 14.0813 0.855504 12.5957 2.07667 11.6386C2.98736 10.9214 4.13493 10.4976 5.38369 10.4976H9.6152V5.22576C9.6152 4.84155 9.92342 4.52719 10.3051 4.52719C10.6869 4.52719 10.9951 4.84155 10.9951 5.22576V11.8948H5.38369C3.20814 11.8948 1.44884 13.6202 1.38215 15.823C1.37984 15.8812 1.37984 15.9418 1.37984 16C1.37984 17.9071 1.7639 19.7257 2.45612 21.3836C2.50442 21.4977 2.55271 21.6095 2.60331 21.7236C3.98315 24.788 6.43928 27.2609 9.4772 28.6371C9.652 28.9864 9.86126 29.3194 10.1027 29.6337C10.4201 30.0459 10.7789 30.4114 11.1767 30.7235Z" fill="#C9B09A"/>
<path d="M29.5931 19.9166C27.8844 26.4273 22.0109 31.2381 15.0496 31.2381H14.9875C14.9346 31.2381 14.884 31.2381 14.8311 31.2357C13.1546 31.1822 11.6874 30.3742 10.7398 29.1354C10.0315 28.2133 9.61527 27.0514 9.61527 25.787V21.5024H4.40867C4.1787 21.5024 3.97172 21.386 3.84754 21.209C3.80614 21.1484 3.77394 21.0833 3.75095 21.011C3.73025 20.9458 3.71875 20.876 3.71875 20.8038C3.71875 20.4173 4.02921 20.1052 4.40867 20.1052H10.9952V25.787C10.9952 27.9921 12.6992 29.7711 14.8748 29.8386C14.907 29.841 14.9415 29.841 14.976 29.841H15.0496C20.6058 29.841 25.3961 26.4692 27.5325 21.6398C27.8775 21.4651 28.2041 21.2533 28.5146 21.0088C28.9239 20.6874 29.285 20.3218 29.5931 19.9166Z" fill="#C9B09A"/>
<path d="M30.0992 16V16.0629C30.0992 16.1141 30.0992 16.1677 30.0969 16.2189C30.044 17.9187 29.246 19.4043 28.0225 20.3637C27.1119 21.0809 25.9643 21.5024 24.7156 21.5024H20.484V26.7719C20.484 27.1585 20.1758 27.4705 19.7941 27.4705C19.4123 27.4705 19.1041 27.1585 19.1041 26.7719V20.1052H24.7156C26.8934 20.1052 28.6504 18.3798 28.7171 16.177C28.7194 16.1444 28.7194 16.1094 28.7194 16.0745V16C28.7194 14.0929 28.3353 12.272 27.6431 10.6164C26.2931 7.39365 23.7726 4.79032 20.622 3.36291C20.4472 3.01362 20.2379 2.68064 19.9965 2.36629C19.6814 1.95414 19.3226 1.58854 18.9248 1.27652C25.3525 3.00896 30.0992 8.95375 30.0992 16Z" fill="#C9B09A"/>
<path d="M26.3781 11.1962C26.3781 11.5804 26.0699 11.8948 25.6881 11.8948H19.104V6.21307C19.104 4.01025 17.3999 2.2289 15.2244 2.16137C15.1669 2.15904 15.1071 2.15904 15.0496 2.15904C9.49569 2.15904 4.70303 5.5308 2.56657 10.3602C2.22161 10.5372 1.89274 10.7491 1.58458 10.9936C1.17752 11.3126 0.816464 11.6805 0.508301 12.0834C2.21701 5.57271 8.09052 0.761906 15.0496 0.761906C15.1232 0.761906 15.1967 0.761906 15.2703 0.764237C16.9469 0.817791 18.4141 1.6258 19.3593 2.86459C20.0676 3.78671 20.4839 4.94866 20.4839 6.21307V10.4976H25.6881C25.9504 10.4976 26.178 10.6443 26.2953 10.8632C26.3482 10.961 26.3781 11.0751 26.3781 11.1962Z" fill="#C9B09A"/>
<path d="M41.4447 2.9375C40.8666 2.9375 40.3449 2.96479 39.8795 3.01935C39.4141 3.06895 39.0124 3.12351 38.6744 3.18303C38.2825 3.25744 37.9322 3.33928 37.6235 3.42857L37.8366 2.22322C37.8954 2.22818 37.9836 2.23314 38.1012 2.2381C38.2187 2.24306 38.3485 2.24802 38.4906 2.25298C38.6376 2.25794 38.7895 2.2629 38.9462 2.26786C39.1079 2.26786 39.2598 2.27034 39.4019 2.2753C39.5439 2.2753 39.6688 2.27778 39.7766 2.28274C39.8893 2.28274 39.9701 2.28274 40.0191 2.28274H44.2151C44.2641 2.28274 44.3424 2.28274 44.4502 2.28274C44.5629 2.27778 44.6903 2.2753 44.8323 2.2753C44.9744 2.27034 45.1238 2.26786 45.2806 2.26786C45.4422 2.2629 45.5941 2.25794 45.7361 2.25298C45.8832 2.24802 46.0154 2.24306 46.133 2.2381C46.2505 2.23314 46.3387 2.22818 46.3975 2.22322L46.6106 3.42857C46.2971 3.33928 45.9443 3.25744 45.5524 3.18303C45.2144 3.12351 44.8127 3.06895 44.3473 3.01935C43.8819 2.96479 43.3602 2.9375 42.7821 2.9375V10.0431C42.7821 10.4648 42.787 10.8344 42.7968 11.1518C42.8115 11.4643 42.8262 11.7346 42.8409 11.9628C42.8605 12.191 42.8825 12.3819 42.907 12.5357C42.9364 12.6894 42.9658 12.8184 42.9952 12.9226V12.9524H41.239V12.9226C41.2684 12.8184 41.2953 12.6894 41.3198 12.5357C41.3443 12.3819 41.3663 12.191 41.3859 11.9628C41.4055 11.7346 41.4202 11.4643 41.43 11.1518C41.4398 10.8344 41.4447 10.4648 41.4447 10.0431V2.9375ZM49.2193 10.0431C49.2193 10.4648 49.2242 10.8344 49.234 11.1518C49.2487 11.4643 49.2634 11.7346 49.2781 11.9628C49.2977 12.191 49.3197 12.3819 49.3442 12.5357C49.3736 12.6894 49.403 12.8184 49.4324 12.9226V12.9524H47.6688V12.9226C47.6982 12.8184 47.7251 12.6894 47.7496 12.5357C47.779 12.3819 47.8035 12.191 47.8231 11.9628C47.8427 11.7346 47.8574 11.4643 47.8672 11.1518C47.877 10.8344 47.8819 10.4648 47.8819 10.0431V5.19941C47.8819 4.77778 47.877 4.41071 47.8672 4.09822C47.8574 3.78076 47.8427 3.50794 47.8231 3.27976C47.8035 3.04663 47.779 2.85317 47.7496 2.69941C47.7251 2.54564 47.6982 2.41667 47.6688 2.3125V2.28274C47.7668 2.29266 47.8696 2.30258 47.9774 2.3125C48.0705 2.32242 48.1734 2.32986 48.286 2.33482C48.4036 2.33482 48.5237 2.33482 48.6461 2.33482C48.8371 2.33482 49.0943 2.3125 49.4177 2.26786C49.7459 2.21826 50.1623 2.19346 50.6669 2.19346C51.1372 2.19346 51.5708 2.25794 51.9676 2.3869C52.3693 2.51587 52.7171 2.70437 53.0111 2.95238C53.305 3.2004 53.5328 3.50546 53.6944 3.86756C53.861 4.2247 53.9443 4.63145 53.9443 5.0878C53.9443 5.44494 53.8978 5.77728 53.8047 6.08482C53.7165 6.3874 53.5891 6.6627 53.4226 6.91071C53.2609 7.15873 53.0649 7.37947 52.8347 7.57292C52.6045 7.76137 52.3473 7.92015 52.0632 8.04914L54.6424 11.7173C54.7698 11.9008 54.8873 12.0595 54.9951 12.1934C55.1078 12.3274 55.2132 12.4414 55.3111 12.5357C55.414 12.6299 55.512 12.7093 55.6051 12.7738C55.6981 12.8334 55.7936 12.883 55.8916 12.9226V12.9524H53.768C53.7532 12.8581 53.7042 12.7341 53.621 12.5803C53.5426 12.4216 53.4495 12.2654 53.3418 12.1116L50.7404 8.39878C50.5003 8.42362 50.253 8.43604 49.9982 8.43604C49.7435 8.43604 49.4838 8.41372 49.2193 8.36907V10.0431ZM49.2193 7.78872C49.6994 7.87794 50.1379 7.89036 50.5347 7.82591C50.9364 7.76137 51.2793 7.62004 51.5634 7.40178C51.8525 7.18354 52.0753 6.8884 52.2322 6.51637C52.3938 6.13938 52.4746 5.68303 52.4746 5.14732C52.4746 4.7753 52.433 4.438 52.3497 4.13541C52.2664 3.83284 52.1415 3.57738 51.975 3.36905C51.8133 3.15576 51.6075 2.99206 51.3577 2.87797C51.1078 2.75893 50.8164 2.69941 50.4832 2.69941C50.2726 2.69941 50.0889 2.70933 49.9321 2.72917C49.7753 2.74405 49.643 2.76141 49.5353 2.78125C49.4079 2.80605 49.3026 2.83333 49.2193 2.86309V7.78872ZM64.0998 5.19941C64.0998 4.77778 64.0949 4.41071 64.0851 4.09822C64.0753 3.78076 64.0606 3.50794 64.041 3.27976C64.0214 3.04663 63.9994 2.85317 63.9748 2.69941C63.9504 2.54564 63.9234 2.41667 63.894 2.3125V2.28274H65.2021V2.3125C65.1726 2.41667 65.1433 2.54564 65.1139 2.69941C65.0894 2.85317 65.0674 3.04663 65.0477 3.27976C65.033 3.50794 65.0183 3.78076 65.0036 4.09822C64.9938 4.41071 64.989 4.77778 64.989 5.19941V9.2173C64.989 9.92655 64.8885 10.5317 64.6877 11.0328C64.4868 11.5337 64.2076 11.9454 63.8499 12.2679C63.4924 12.5853 63.0637 12.816 62.5639 12.9598C62.0643 13.1086 61.5181 13.183 60.9253 13.183C60.3325 13.183 59.779 13.1136 59.2646 12.9747C58.7551 12.8358 58.3092 12.6126 57.9271 12.3051C57.5499 11.9925 57.2535 11.5908 57.038 11.0997C56.8224 10.6037 56.7147 10.001 56.7147 9.29166V5.19941C56.7147 4.77778 56.7098 4.41071 56.7 4.09822C56.6901 3.78076 56.6755 3.50794 56.6559 3.27976C56.6362 3.04663 56.6118 2.85317 56.5824 2.69941C56.5579 2.54564 56.531 2.41667 56.5016 2.3125V2.28274H58.2651V2.3125C58.2358 2.41667 58.2064 2.54564 58.177 2.69941C58.1525 2.85317 58.1304 3.04663 58.1109 3.27976C58.0912 3.50794 58.0766 3.78076 58.0668 4.09822C58.0569 4.41071 58.052 4.77778 58.052 5.19941V9.37349C58.052 9.96381 58.1378 10.4524 58.3092 10.8393C58.4856 11.2213 58.7159 11.5263 59 11.7544C59.2841 11.9777 59.6075 12.1339 59.97 12.2232C60.3325 12.3125 60.7024 12.3572 61.0796 12.3572C61.4568 12.3572 61.8267 12.3125 62.1892 12.2232C62.5518 12.1339 62.8726 11.9777 63.1519 11.7544C63.436 11.5263 63.6638 11.2213 63.8353 10.8393C64.0116 10.4524 64.0998 9.96381 64.0998 9.37349V5.19941ZM67.2449 2.28274C67.8572 2.28274 68.4647 2.28026 69.0673 2.2753C69.6748 2.27034 70.2308 2.26538 70.7354 2.26042C71.24 2.2505 71.6711 2.2381 72.0287 2.22322C72.3863 2.20834 72.6288 2.1885 72.7562 2.16369L72.3961 3.15327C72.2345 3.10863 72.0458 3.06895 71.8303 3.03423C71.6441 3.00447 71.4164 2.97718 71.1469 2.95238C70.8823 2.92262 70.5762 2.90774 70.2284 2.90774C70.1107 2.90774 69.9687 2.9127 69.8022 2.92262C69.6405 2.92758 69.4837 2.93502 69.3319 2.94494C69.1555 2.95487 68.9767 2.96479 68.7954 2.97471V7.03721C69.3 7.03225 69.7556 7.01736 70.1622 6.99256C70.5689 6.96776 70.9142 6.94296 71.1983 6.91816C71.5314 6.8884 71.8254 6.85367 72.0801 6.81399L71.8524 7.89288C71.5143 7.84823 71.169 7.80602 70.8162 7.7664C70.5125 7.73166 70.1818 7.70187 69.8242 7.67711C69.4666 7.64732 69.1236 7.63246 68.7954 7.63246V12.2976C69.3735 12.2976 69.905 12.2728 70.39 12.2232C70.875 12.1736 71.2988 12.1166 71.6613 12.0521C72.0826 11.9826 72.4671 11.9008 72.815 11.8066L72.6019 13.0119C72.543 13.0069 72.4549 13.002 72.3373 12.997C72.2198 12.9921 72.0875 12.9871 71.9405 12.9822C71.7985 12.9772 71.6465 12.9722 71.4849 12.9672C71.3282 12.9672 71.1787 12.9648 71.0367 12.9598C70.8946 12.9598 70.7672 12.9573 70.6546 12.9524C70.5468 12.9524 70.4684 12.9524 70.4194 12.9524H67.2449V12.9226C67.2743 12.8184 67.3012 12.6894 67.3258 12.5357C67.3551 12.3819 67.3796 12.191 67.3992 11.9628C67.4188 11.7346 67.4335 11.4643 67.4433 11.1518C67.4531 10.8344 67.458 10.4648 67.458 10.0431V5.19941C67.458 4.77778 67.4531 4.41071 67.4433 4.09822C67.4335 3.78076 67.4188 3.50794 67.3992 3.27976C67.3796 3.04663 67.3551 2.85317 67.3258 2.69941C67.3012 2.54564 67.2743 2.41667 67.2449 2.3125V2.28274Z" fill="#B2B2B2"/>
<path d="M40.2253 24.2277C40.7054 24.317 41.1438 24.3269 41.5407 24.2574C41.9424 24.183 42.2853 24.0293 42.5695 23.7961C42.8585 23.558 43.0814 23.2381 43.2381 22.8363C43.3998 22.4345 43.4806 21.9435 43.4806 21.3631C43.4806 20.9613 43.439 20.5967 43.3557 20.2693C43.2724 19.937 43.1475 19.6568 42.9809 19.4286C42.8193 19.1954 42.6136 19.0168 42.3637 18.8929C42.1138 18.7639 41.8223 18.6994 41.4892 18.6994C41.2786 18.6994 41.0948 18.7093 40.9381 18.7291C40.7814 18.7441 40.6491 18.7614 40.5413 18.7813C40.4139 18.806 40.3086 18.8334 40.2253 18.8631V24.2277ZM38.6748 18.2827C38.7728 18.2926 38.8756 18.3026 38.9834 18.3125C39.0765 18.3224 39.1794 18.3298 39.2921 18.3349C39.4096 18.3349 39.5297 18.3349 39.6521 18.3349C39.8432 18.3349 40.1004 18.3125 40.4237 18.2679C40.7519 18.2183 41.1684 18.1934 41.673 18.1934C42.1433 18.1934 42.5768 18.2629 42.9736 18.4018C43.3753 18.5406 43.7232 18.7441 44.0171 19.0119C44.311 19.2798 44.5388 19.6072 44.7005 19.9941C44.8671 20.376 44.9503 20.8125 44.9503 21.3035C44.9503 21.9633 44.8205 22.5337 44.5609 23.0149C44.3012 23.496 43.9534 23.8854 43.5174 24.183C43.0814 24.4807 42.5792 24.684 42.011 24.7931C41.4427 24.8973 40.8475 24.9022 40.2253 24.808V26.0431C40.2253 26.4648 40.2302 26.8344 40.24 27.1518C40.2547 27.4643 40.2694 27.7346 40.2841 27.9628C40.3037 28.191 40.3257 28.3819 40.3502 28.5357C40.3796 28.6894 40.409 28.8184 40.4384 28.9226V28.9524H38.6748V28.9226C38.7042 28.8184 38.7312 28.6894 38.7556 28.5357C38.785 28.3819 38.8095 28.191 38.8291 27.9628C38.8487 27.7346 38.8634 27.4643 38.8732 27.1518C38.883 26.8344 38.8879 26.4648 38.8879 26.0431V21.1994C38.8879 20.7778 38.883 20.4107 38.8732 20.0982C38.8634 19.7807 38.8487 19.508 38.8291 19.2798C38.8095 19.0466 38.785 18.8532 38.7556 18.6994C38.7312 18.5456 38.7042 18.4167 38.6748 18.3125V18.2827ZM47.9411 26.0431C47.9411 26.4648 47.946 26.8344 47.9558 27.1518C47.9705 27.4643 47.9852 27.7346 47.9999 27.9628C48.0195 28.191 48.0415 28.3819 48.0661 28.5357C48.0954 28.6894 48.1248 28.8184 48.1542 28.9226V28.9524H46.3906V28.9226C46.42 28.8184 46.447 28.6894 46.4714 28.5357C46.5008 28.3819 46.5253 28.191 46.5449 27.9628C46.5645 27.7346 46.5792 27.4643 46.589 27.1518C46.5988 26.8344 46.6037 26.4648 46.6037 26.0431V21.1994C46.6037 20.7778 46.5988 20.4107 46.589 20.0982C46.5792 19.7807 46.5645 19.508 46.5449 19.2798C46.5253 19.0466 46.5008 18.8532 46.4714 18.6994C46.447 18.5456 46.42 18.4167 46.3906 18.3125V18.2827C46.4886 18.2926 46.5914 18.3026 46.6992 18.3125C46.7923 18.3224 46.8952 18.3298 47.0079 18.3349C47.1255 18.3349 47.2455 18.3349 47.3679 18.3349C47.559 18.3349 47.8162 18.3125 48.1395 18.2679C48.4677 18.2183 48.8842 18.1934 49.3888 18.1934C49.8591 18.1934 50.2926 18.2579 50.6894 18.3869C51.0911 18.5159 51.439 18.7044 51.7329 18.9524C52.0268 19.2004 52.2547 19.5054 52.4163 19.8676C52.5829 20.2247 52.6661 20.6315 52.6661 21.0878C52.6661 21.445 52.6196 21.7773 52.5265 22.0848C52.4383 22.3874 52.3109 22.6627 52.1444 22.9107C51.9827 23.1587 51.7868 23.3794 51.5565 23.573C51.3262 23.7614 51.069 23.9202 50.7849 24.0491L53.3643 27.7173C53.4916 27.9008 53.6092 28.0595 53.7169 28.1934C53.8297 28.3274 53.9349 28.4414 54.0329 28.5357C54.1358 28.6299 54.2338 28.7093 54.3269 28.7738C54.42 28.8334 54.5155 28.883 54.6134 28.9226V28.9524H52.4898C52.475 28.8581 52.4261 28.7341 52.3428 28.5803C52.2644 28.4216 52.1714 28.2654 52.0636 28.1116L49.4622 24.3988C49.2222 24.4236 48.9748 24.436 48.72 24.436C48.4653 24.436 48.2057 24.4137 47.9411 24.3691V26.0431ZM47.9411 23.7887C48.4212 23.8779 48.8596 23.8904 49.2565 23.8259C49.6582 23.7614 50.0011 23.62 50.2853 23.4018C50.5743 23.1835 50.7972 22.8884 50.9539 22.5163C51.1156 22.1394 51.1964 21.683 51.1964 21.1474C51.1964 20.7753 51.1548 20.438 51.0715 20.1354C50.9882 19.8328 50.8633 19.5774 50.6967 19.3691C50.5351 19.1557 50.3294 18.9921 50.0795 18.8779C49.8296 18.7589 49.5381 18.6994 49.205 18.6994C48.9944 18.6994 48.8106 18.7093 48.6539 18.7291C48.4972 18.7441 48.3649 18.7614 48.2571 18.7813C48.1297 18.806 48.0244 18.8334 47.9411 18.8631V23.7887ZM55.2822 18.2827C55.8945 18.2827 56.502 18.2802 57.1046 18.2753C57.7121 18.2703 58.2681 18.2654 58.7727 18.2604C59.2772 18.2505 59.7084 18.2381 60.0659 18.2232C60.4236 18.2083 60.666 18.1885 60.7934 18.1637L60.4334 19.1533C60.2717 19.1086 60.0831 19.069 59.8675 19.0342C59.6814 19.0045 59.4536 18.9772 59.1841 18.9524C58.9196 18.9226 58.6134 18.9077 58.2656 18.9077C58.148 18.9077 58.006 18.9127 57.8394 18.9226C57.6777 18.9275 57.521 18.935 57.3691 18.9449C57.1928 18.9549 57.0139 18.9648 56.8326 18.9747V23.0372C57.3372 23.0322 57.7929 23.0174 58.1995 22.9925C58.6061 22.9678 58.9515 22.9429 59.2356 22.9182C59.5687 22.8884 59.8626 22.8536 60.1174 22.814L59.8896 23.8929C59.5516 23.8482 59.2062 23.806 58.8535 23.7664C58.5497 23.7317 58.2191 23.7019 57.8614 23.6771C57.5038 23.6473 57.1609 23.6325 56.8326 23.6325V28.2976C57.4108 28.2976 57.9423 28.2728 58.4273 28.2232C58.9123 28.1736 59.336 28.1166 59.6985 28.0521C60.1198 27.9826 60.5044 27.9008 60.8522 27.8066L60.6391 29.0119C60.5803 29.0069 60.4921 29.002 60.3746 28.997C60.257 28.9921 60.1247 28.9871 59.9778 28.9822C59.8357 28.9772 59.6838 28.9722 59.5222 28.9672C59.3654 28.9672 59.216 28.9648 59.074 28.9598C58.9319 28.9598 58.8045 28.9573 58.6918 28.9524C58.584 28.9524 58.5057 28.9524 58.4566 28.9524H55.2822V28.9226C55.3116 28.8184 55.3385 28.6894 55.363 28.5357C55.3924 28.3819 55.4169 28.191 55.4365 27.9628C55.4561 27.7346 55.4707 27.4643 55.4806 27.1518C55.4904 26.8344 55.4953 26.4648 55.4953 26.0431V21.1994C55.4953 20.7778 55.4904 20.4107 55.4806 20.0982C55.4707 19.7807 55.4561 19.508 55.4365 19.2798C55.4169 19.0466 55.3924 18.8532 55.363 18.6994C55.3385 18.5456 55.3116 18.4167 55.2822 18.3125V18.2827ZM62.1382 28.9226C62.1921 28.8433 62.2533 28.7267 62.3219 28.573C62.3905 28.4142 62.4444 28.2158 62.4836 27.9777C62.5375 27.6305 62.5962 27.2411 62.66 26.8095C62.7285 26.373 62.7971 25.9166 62.8657 25.4405C62.9392 24.9643 63.0102 24.4782 63.0788 23.9822C63.1523 23.4811 63.2208 22.9901 63.2846 22.509C63.3531 22.0228 63.4168 21.5566 63.4756 21.1101C63.5393 20.6587 63.5957 20.247 63.6446 19.875C63.6936 19.503 63.7328 19.1806 63.7622 18.9077C63.7965 18.6299 63.821 18.4216 63.8357 18.2827H64.7689L69.3911 27.0328L73.9764 18.2827H74.6746L75.8798 27.1221C75.9137 27.3998 75.9506 27.6379 75.9897 27.8363C76.0288 28.0347 76.0679 28.2059 76.1078 28.3497C76.1469 28.4886 76.1831 28.6052 76.2177 28.6994C76.2568 28.7887 76.2937 28.8631 76.3283 28.9226V28.9524H74.4762V28.9226C74.5007 28.868 74.5227 28.7787 74.5423 28.6548C74.5668 28.5307 74.579 28.3819 74.579 28.2083C74.579 28.1438 74.5766 28.0794 74.5717 28.0149C74.5668 27.9454 74.5594 27.871 74.5497 27.7917L73.6164 20.6637L69.2808 28.9226L68.7738 28.8631L64.4089 20.5893C64.2374 21.7649 64.088 22.8512 63.9606 23.8482C63.9067 24.2748 63.8529 24.7014 63.799 25.128C63.745 25.5496 63.696 25.9439 63.6519 26.311C63.6128 26.6781 63.5809 27.003 63.5565 27.2857C63.5319 27.5635 63.5197 27.7694 63.5197 27.9032C63.5197 28.0719 63.5246 28.2207 63.5344 28.3497C63.5442 28.4787 63.554 28.5878 63.5638 28.6771C63.5785 28.7813 63.5932 28.873 63.6078 28.9524H62.1382V28.9226ZM78.0545 28.9226C78.0846 28.8184 78.1109 28.6894 78.1357 28.5357C78.1598 28.3819 78.1824 28.191 78.202 27.9628C78.2215 27.7346 78.2358 27.4643 78.2456 27.1518C78.2554 26.8344 78.2606 26.4648 78.2606 26.0431V21.1994C78.2606 20.7778 78.2554 20.4107 78.2456 20.0982C78.2358 19.7807 78.2215 19.508 78.202 19.2798C78.1824 19.0466 78.1598 18.8532 78.1357 18.6994C78.1109 18.5456 78.0846 18.4167 78.0545 18.3125V18.2827H79.8107V18.3125C79.7814 18.4167 79.7521 18.5456 79.7227 18.6994C79.6986 18.8532 79.6761 19.0466 79.6565 19.2798C79.6422 19.508 79.6271 19.7807 79.6128 20.0982C79.6031 20.4107 79.5978 20.7778 79.5978 21.1994V26.0431C79.5978 26.4648 79.6031 26.8344 79.6128 27.1518C79.6271 27.4643 79.6422 27.7346 79.6565 27.9628C79.6761 28.191 79.6986 28.3819 79.7227 28.5357C79.7521 28.6894 79.7814 28.8184 79.8107 28.9226V28.9524H78.0545V28.9226ZM89.526 21.1994C89.526 20.7778 89.5207 20.4107 89.5109 20.0982C89.5011 19.7807 89.4868 19.508 89.4665 19.2798C89.4469 19.0466 89.4251 18.8532 89.401 18.6994C89.3762 18.5456 89.3491 18.4167 89.3198 18.3125V18.2827H90.6276V18.3125C90.5982 18.4167 90.5689 18.5456 90.5395 18.6994C90.5155 18.8532 90.4929 19.0466 90.4733 19.2798C90.459 19.508 90.444 19.7807 90.4297 20.0982C90.4199 20.4107 90.4146 20.7778 90.4146 21.1994V25.2173C90.4146 25.9265 90.3145 26.5317 90.1136 27.0328C89.9127 27.5337 89.6336 27.9454 89.2761 28.2679C88.918 28.5853 88.4898 28.816 87.9902 28.9598C87.4905 29.1086 86.9442 29.183 86.3513 29.183C85.7583 29.183 85.2045 29.1136 84.6906 28.9747C84.1811 28.8358 83.7349 28.6126 83.3526 28.3051C82.9757 27.9925 82.6792 27.5908 82.464 27.0997C82.248 26.6037 82.1404 26.001 82.1404 25.2917V21.1994C82.1404 20.7778 82.1359 20.4107 82.1261 20.0982C82.1163 19.7807 82.1013 19.508 82.0817 19.2798C82.0622 19.0466 82.0373 18.8532 82.008 18.6994C81.9839 18.5456 81.9568 18.4167 81.9275 18.3125V18.2827H83.6913V18.3125C83.6619 18.4167 83.6326 18.5456 83.6032 18.6994C83.5784 18.8532 83.5566 19.0466 83.537 19.2798C83.5174 19.508 83.5024 19.7807 83.4926 20.0982C83.4828 20.4107 83.4783 20.7778 83.4783 21.1994V25.3735C83.4783 25.9638 83.5633 26.4524 83.7349 26.8393C83.9117 27.2213 84.142 27.5263 84.4257 27.7544C84.7101 27.9777 85.0337 28.1339 85.3956 28.2232C85.7583 28.3125 86.1285 28.3572 86.5055 28.3572C86.8825 28.3572 87.2527 28.3125 87.6154 28.2232C87.9774 28.1339 88.2987 27.9777 88.5778 27.7544C88.8615 27.5263 89.0895 27.2213 89.2611 26.8393C89.4372 26.4524 89.526 25.9638 89.526 25.3735V21.1994ZM92.1491 28.9226C92.2033 28.8433 92.2642 28.7267 92.3327 28.573C92.4012 28.4142 92.4553 28.2158 92.4945 27.9777C92.5486 27.6305 92.6073 27.2411 92.6705 26.8095C92.739 26.373 92.8083 25.9166 92.8767 25.4405C92.9497 24.9643 93.0212 24.4782 93.0897 23.9822C93.1634 23.4811 93.2319 22.9901 93.2951 22.509C93.3643 22.0228 93.4275 21.5566 93.4862 21.1101C93.5502 20.6587 93.6066 20.247 93.6555 19.875C93.7044 19.503 93.7436 19.1806 93.7729 18.9077C93.8075 18.6299 93.8316 18.4216 93.8467 18.2827H94.7797L99.4022 27.0328L103.987 18.2827H104.685L105.891 27.1221C105.925 27.3998 105.962 27.6379 106.001 27.8363C106.04 28.0347 106.079 28.2059 106.118 28.3497C106.157 28.4886 106.194 28.6052 106.229 28.6994C106.268 28.7887 106.305 28.8631 106.339 28.9226V28.9524H104.487V28.9226C104.511 28.868 104.533 28.7787 104.553 28.6548C104.578 28.5307 104.59 28.3819 104.59 28.2083C104.59 28.1438 104.587 28.0794 104.582 28.0149C104.578 27.9454 104.57 27.871 104.56 27.7917L103.627 20.6637L99.2916 28.9226L98.7844 28.8631L94.4201 20.5893C94.2485 21.7649 94.0987 22.8512 93.9716 23.8482C93.9174 24.2748 93.864 24.7014 93.8098 25.128C93.7556 25.5496 93.7067 25.9439 93.6631 26.311C93.6239 26.6781 93.5916 27.003 93.5675 27.2857C93.5427 27.5635 93.5306 27.7694 93.5306 27.9032C93.5306 28.0719 93.5351 28.2207 93.5449 28.3497C93.5547 28.4787 93.5645 28.5878 93.5743 28.6771C93.5893 28.7813 93.6044 28.873 93.6187 28.9524H92.1491V28.9226ZM111.99 28.9226C112.044 28.8433 112.105 28.7267 112.173 28.573C112.242 28.4142 112.296 28.2158 112.335 27.9777C112.389 27.6305 112.448 27.2411 112.511 26.8095C112.58 26.373 112.649 25.9166 112.717 25.4405C112.791 24.9643 112.862 24.4782 112.93 23.9822C113.004 23.4811 113.072 22.9901 113.136 22.509C113.205 22.0228 113.268 21.5566 113.327 21.1101C113.391 20.6587 113.447 20.247 113.496 19.875C113.545 19.503 113.584 19.1806 113.613 18.9077C113.648 18.6299 113.672 18.4216 113.687 18.2827H114.62L119.243 27.0328L123.828 18.2827H124.526L125.731 27.1221C125.765 27.3998 125.802 27.6379 125.841 27.8363C125.88 28.0347 125.919 28.2059 125.959 28.3497C125.998 28.4886 126.035 28.6052 126.069 28.6994C126.108 28.7887 126.145 28.8631 126.18 28.9226V28.9524H124.328V28.9226C124.352 28.868 124.374 28.7787 124.393 28.6548C124.418 28.5307 124.43 28.3819 124.43 28.2083C124.43 28.1438 124.428 28.0794 124.424 28.0149C124.418 27.9454 124.411 27.871 124.401 27.7917L123.468 20.6637L119.132 28.9226L118.625 28.8631L114.261 20.5893C114.089 21.7649 113.939 22.8512 113.812 23.8482C113.758 24.2748 113.704 24.7014 113.65 25.128C113.597 25.5496 113.547 25.9439 113.504 26.311C113.464 26.6781 113.432 27.003 113.408 27.2857C113.383 27.5635 113.371 27.7694 113.371 27.9032C113.371 28.0719 113.376 28.2207 113.386 28.3497C113.396 28.4787 113.406 28.5878 113.416 28.6771C113.43 28.7813 113.445 28.873 113.459 28.9524H111.99V28.9226ZM127.84 18.2827C128.452 18.2827 129.06 18.2802 129.662 18.2753C130.27 18.2703 130.826 18.2654 131.33 18.2604C131.835 18.2505 132.267 18.2381 132.624 18.2232C132.981 18.2083 133.224 18.1885 133.352 18.1637L132.991 19.1533C132.829 19.1086 132.641 19.069 132.425 19.0342C132.239 19.0045 132.011 18.9772 131.742 18.9524C131.478 18.9226 131.172 18.9077 130.823 18.9077C130.706 18.9077 130.564 18.9127 130.397 18.9226C130.236 18.9275 130.079 18.935 129.927 18.9449C129.751 18.9549 129.572 18.9648 129.391 18.9747V23.0372C129.896 23.0322 130.351 23.0174 130.758 22.9925C131.164 22.9678 131.51 22.9429 131.793 22.9182C132.127 22.8884 132.421 22.8536 132.675 22.814L132.448 23.8929C132.109 23.8482 131.764 23.806 131.412 23.7664C131.108 23.7317 130.777 23.7019 130.419 23.6771C130.062 23.6473 129.719 23.6325 129.391 23.6325V28.2976C129.968 28.2976 130.5 28.2728 130.985 28.2232C131.47 28.1736 131.894 28.1166 132.257 28.0521C132.678 27.9826 133.063 27.9008 133.41 27.8066L133.197 29.0119C133.139 29.0069 133.05 29.002 132.932 28.997C132.815 28.9921 132.683 28.9871 132.536 28.9822C132.394 28.9772 132.242 28.9722 132.08 28.9672C131.923 28.9672 131.774 28.9648 131.632 28.9598C131.49 28.9598 131.363 28.9573 131.25 28.9524C131.142 28.9524 131.063 28.9524 131.014 28.9524H127.84V28.9226C127.87 28.8184 127.896 28.6894 127.921 28.5357C127.95 28.3819 127.975 28.191 127.995 27.9628C128.014 27.7346 128.029 27.4643 128.038 27.1518C128.048 26.8344 128.053 26.4648 128.053 26.0431V21.1994C128.053 20.7778 128.048 20.4107 128.038 20.0982C128.029 19.7807 128.014 19.508 127.995 19.2798C127.975 19.0466 127.95 18.8532 127.921 18.6994C127.896 18.5456 127.87 18.4167 127.84 18.3125V18.2827ZM136.827 18.9226C136.818 19.4782 136.808 20.0164 136.798 20.5372C136.793 20.7604 136.788 20.9886 136.783 21.2217C136.783 21.4549 136.781 21.6855 136.776 21.9137C136.776 22.1369 136.773 22.3527 136.769 22.561C136.769 22.7644 136.769 22.9454 136.769 23.1042C136.769 23.4365 136.771 23.8383 136.776 24.3095C136.781 24.7807 136.786 25.2644 136.79 25.7604C136.8 26.2565 136.812 26.7326 136.827 27.189C136.842 27.6453 136.859 28.0248 136.878 28.3274C136.947 28.3373 137.038 28.3497 137.151 28.3646C137.268 28.3745 137.391 28.3845 137.518 28.3944C137.645 28.3993 137.77 28.4043 137.893 28.4092C138.015 28.4142 138.118 28.4167 138.201 28.4167C138.544 28.4167 138.894 28.3944 139.253 28.3497C139.614 28.3001 139.963 28.2108 140.295 28.0818C140.634 27.9529 140.949 27.7768 141.244 27.5536C141.542 27.3254 141.802 27.0328 142.022 26.6756C142.248 26.3185 142.424 25.8894 142.551 25.3884C142.679 24.8824 142.743 24.2872 142.743 23.6027C142.743 22.8437 142.652 22.1691 142.471 21.5789C142.29 20.9836 142.022 20.4827 141.669 20.0759C141.322 19.6692 140.888 19.3616 140.369 19.1533C139.855 18.94 139.262 18.8334 138.591 18.8334C138.459 18.8334 138.309 18.8383 138.143 18.8482C137.976 18.8532 137.809 18.8606 137.643 18.8706C137.481 18.8755 137.327 18.8854 137.18 18.9003C137.038 18.9102 136.921 18.9176 136.827 18.9226ZM135.218 18.253C135.331 18.2579 135.436 18.2629 135.534 18.2679C135.617 18.2728 135.703 18.2778 135.791 18.2827C135.879 18.2827 135.951 18.2827 136.004 18.2827C136.097 18.2827 136.252 18.2778 136.467 18.2679C136.687 18.2579 136.937 18.248 137.217 18.2381C137.496 18.2282 137.785 18.2183 138.084 18.2083C138.388 18.1984 138.672 18.1934 138.936 18.1934C139.647 18.1934 140.323 18.2827 140.964 18.4613C141.606 18.6398 142.17 18.9326 142.654 19.3393C143.14 19.7461 143.524 20.2792 143.808 20.939C144.092 21.5987 144.235 22.4098 144.235 23.372C144.235 24.0615 144.159 24.6815 144.007 25.2322C143.86 25.7827 143.651 26.2689 143.382 26.6904C143.113 27.1121 142.789 27.4742 142.412 27.7768C142.04 28.0744 141.626 28.3199 141.17 28.5134C140.719 28.7068 140.237 28.8482 139.723 28.9375C139.208 29.0268 138.677 29.0714 138.128 29.0714C137.932 29.0714 137.694 29.064 137.415 29.0491C137.141 29.0392 136.864 29.0268 136.585 29.0119C136.306 28.997 136.041 28.9822 135.791 28.9672C135.546 28.9573 135.355 28.9524 135.218 28.9524V28.9226C135.247 28.8184 135.274 28.6894 135.299 28.5357C135.328 28.3819 135.352 28.191 135.372 27.9628C135.392 27.7346 135.407 27.4643 135.416 27.1518C135.426 26.8344 135.431 26.4648 135.431 26.0431V21.1994C135.431 20.7778 135.426 20.4082 135.416 20.0907C135.407 19.7684 135.392 19.493 135.372 19.2649C135.352 19.0318 135.328 18.8358 135.299 18.6771C135.274 18.5183 135.247 18.3869 135.218 18.2827V18.253ZM150.355 19.9792H150.194C150.155 19.8651 150.091 19.7361 150.003 19.5922C149.92 19.4484 149.807 19.3145 149.665 19.1905C149.528 19.0615 149.359 18.9549 149.158 18.8706C148.962 18.7862 148.729 18.7441 148.46 18.7441C148.22 18.7441 148.007 18.7813 147.82 18.8556C147.634 18.9301 147.478 19.0342 147.35 19.1682C147.228 19.3021 147.135 19.4608 147.071 19.6443C147.008 19.8279 146.975 20.0312 146.975 20.2545C146.975 20.6116 147.073 20.9539 147.269 21.2812C147.47 21.6037 147.72 21.9236 148.019 22.2411C148.318 22.5586 148.641 22.876 148.989 23.1934C149.336 23.5109 149.66 23.8408 149.959 24.183C150.257 24.5253 150.505 24.885 150.701 25.2619C150.902 25.6339 151.002 26.0357 151.002 26.4673C151.002 26.7897 150.946 27.1146 150.833 27.442C150.726 27.7644 150.556 28.0546 150.326 28.3125C150.096 28.5704 149.8 28.7813 149.437 28.9449C149.075 29.1037 148.643 29.183 148.144 29.183C147.865 29.183 147.597 29.1557 147.343 29.1012C147.093 29.0516 146.86 28.9896 146.645 28.9152C146.434 28.8358 146.243 28.7515 146.071 28.6622C145.905 28.573 145.767 28.491 145.66 28.4167L145.829 26.7723H146.013C146.067 27.0055 146.155 27.2286 146.278 27.442C146.4 27.6503 146.549 27.8363 146.725 28C146.907 28.1587 147.113 28.2877 147.343 28.3869C147.573 28.4811 147.825 28.5283 148.099 28.5283C148.349 28.5283 148.573 28.491 148.768 28.4167C148.969 28.3373 149.141 28.2306 149.283 28.0968C149.424 27.9579 149.533 27.7941 149.606 27.6056C149.685 27.4171 149.724 27.2113 149.724 26.9881C149.724 26.6756 149.668 26.3879 149.555 26.125C149.442 25.8571 149.293 25.6042 149.106 25.3661C148.925 25.128 148.717 24.8973 148.482 24.6741C148.251 24.4509 148.014 24.2277 147.769 24.0045C147.524 23.7763 147.284 23.5432 147.049 23.3051C146.819 23.067 146.61 22.814 146.424 22.5461C146.243 22.2733 146.096 21.9832 145.983 21.6756C145.871 21.3631 145.814 21.0208 145.814 20.6488C145.814 20.2569 145.888 19.9048 146.035 19.5922C146.187 19.2748 146.385 19.0045 146.63 18.7813C146.88 18.558 147.162 18.3869 147.475 18.2679C147.789 18.1488 148.112 18.0893 148.445 18.0893C148.69 18.0893 148.915 18.1091 149.121 18.1488C149.327 18.1885 149.51 18.2356 149.672 18.2902C149.839 18.3448 149.984 18.3993 150.105 18.4539C150.228 18.5084 150.329 18.5531 150.407 18.5878L150.355 19.9792Z" fill="#B2B2B2"/>
</g>
<defs>
<clipPath id="clip0_1_1443">
<rect width="152" height="32" fill="white"/>
</clipPath>
</defs>
</svg>
