<svg width="151" height="112" viewBox="0 0 151 112" fill="none" xmlns="http://www.w3.org/2000/svg">
<path d="M140.012 111.416H10.9587C5.29563 111.416 0.704788 106.825 0.704788 101.162V10.5193C0.704788 4.85623 5.29561 0.265381 10.9587 0.265381H140.012C145.675 0.265381 150.266 4.8562 150.266 10.5193V101.162C150.266 106.825 145.675 111.416 140.012 111.416Z" fill="#404049"/>
<path d="M129.887 98.4356H105.112C101.101 98.4356 97.8499 95.1844 97.8499 91.1738C97.8499 87.1633 101.101 83.9121 105.112 83.9121H129.887C133.897 83.9121 137.149 87.1633 137.149 91.1738C137.149 95.1844 133.897 98.4356 129.887 98.4356Z" fill="#F0F0FC"/>
<path d="M0.703918 33.5796H150.266V50.9116H0.703918V33.5796Z" fill="#1EC873"/>
<path d="M36.4109 0.265625H53.743V111.416H36.4109V0.265625Z" fill="#1EC873"/>
<path opacity="0.1" d="M150.5 10.8815L150.059 101.515C150.031 107.198 145.423 111.762 139.74 111.734L10.6703 111.106C5.03688 111.079 0.472492 106.47 0.500125 100.787L0.565117 91.1738C80.8075 127.983 153.9 71.8264 127.668 0.500488L140.28 0.561846C145.964 0.589502 150.527 5.19851 150.5 10.8815Z" fill="black"/>
<path d="M45.076 42.4531C43.5269 45.8272 41.4265 50.4408 33.7832 56.0871C28.1711 60.2532 17.9111 62.8699 14.3303 57.1202C12.0236 53.4707 12.9188 46.8944 15.4321 42.2465C14.1237 39.8364 13.263 36.91 13.0219 34.1554C12.8498 31.5732 13.2285 29.1288 14.3303 27.3729C16.878 23.2757 22.869 23.4134 28.1022 25.3759C30.2024 26.1334 32.1649 27.2007 33.7832 28.4057C41.4265 34.0522 43.5269 38.6657 45.076 42.04C45.0073 42.1087 45.0073 42.3842 45.076 42.4531Z" fill="#28D17C"/>
<path d="M45.076 42.4531C46.6252 45.8272 48.7256 50.4408 56.3689 56.0871C61.9809 60.2532 72.2409 62.8699 75.8218 57.1202C78.1285 53.4707 77.2333 46.8944 74.72 42.2465C76.0284 39.8364 76.8891 36.91 77.1301 34.1554C77.3022 31.5732 76.9235 29.1288 75.8218 27.3729C73.274 23.2757 67.283 23.4134 62.0499 25.3759C59.9497 26.1334 57.9872 27.2007 56.3689 28.4057C48.7256 34.0522 46.6252 38.6657 45.076 42.04C45.1447 42.1087 45.1447 42.3842 45.076 42.4531Z" fill="#28D17C"/>
<path d="M45.0758 52.5943C50.7919 52.5943 55.4258 47.9604 55.4258 42.2443C55.4258 36.5281 50.7919 31.8943 45.0758 31.8943C39.3597 31.8943 34.7258 36.5281 34.7258 42.2443C34.7258 47.9604 39.3597 52.5943 45.0758 52.5943Z" fill="#41F69B"/>
</svg>
