<svg xmlns="http://www.w3.org/2000/svg" width="50" height="50" fill="none" viewBox="0 0 50 50">
  <rect width="50" height="50" fill="url(#a)" rx="15"/>
  <path fill="#fff" d="M41 19.12c-.078.478-.14.963-.243 1.441-.383 1.793-1.26 3.312-2.537 4.62-.697.712-1.41 1.417-2.13 2.114-.728.705-1.832.462-2.114-.454-.164-.517-.008-.963.376-1.339.673-.666 1.347-1.339 2.02-2.005 1.496-1.495 2.216-3.304 2.114-5.418-.203-4.127-4.032-7.173-8.104-6.492-1.496.251-2.772.924-3.845 1.997a1775.944 1775.944 0 0 0-5.434 5.442c-.04.04-.07.079-.125.141.086.094.172.18.258.266 3.43 3.438 6.867 6.868 10.297 10.305.752.752.752 1.394-.008 2.154l-6.17 6.17c-1.12 1.127-2.396 2.004-3.923 2.466-.65.196-1.34.298-2.005.439-.101.023-.203.04-.305.055h-1.316c-.062-.016-.117-.04-.18-.047-1.84-.172-3.5-.807-4.956-1.95-2.13-1.683-3.375-3.884-3.626-6.593-.274-3.03.729-5.607 2.874-7.752 4.252-4.252 8.504-8.504 12.748-12.756.642-.642 1.339-1.221 2.138-1.66 2.725-1.503 5.56-1.715 8.41-.493 2.928 1.253 4.784 3.492 5.535 6.609.118.47.165.963.251 1.44v1.3Zm-21.815 1.84c-.032.024-.086.063-.126.102-1.832 1.832-3.688 3.65-5.497 5.505-2.16 2.216-2.662 5.278-1.354 8.01 1.973 4.143 7.556 5.262 10.915 2.122 2.005-1.879 3.908-3.868 5.857-5.81.032-.031.047-.062.063-.086-3.296-3.28-6.578-6.554-9.858-9.843Z"/>
  <path fill="#fff" d="M31.588 13.733c1.214.024 2.294.447 3.187 1.308.525.501.564 1.245.11 1.762a1.214 1.214 0 0 1-1.762.094c-.924-.846-2.005-.775-2.67-.352-.212.133-.4.297-.58.47a471.9 471.9 0 0 0-2.803 2.803c-.36.36-.775.524-1.277.415-.837-.188-1.221-1.198-.736-1.911.07-.102.157-.196.243-.282.963-.963 1.926-1.934 2.89-2.897.94-.924 2.059-1.402 3.398-1.41ZM18.402 36.261c-1.206-.024-2.271-.446-3.164-1.292-.54-.509-.595-1.26-.125-1.785.462-.517 1.206-.564 1.762-.087.673.588 1.417.846 2.27.525.345-.133.682-.368.948-.626.97-.932 1.903-1.895 2.858-2.843.462-.462 1.018-.563 1.535-.297a1.24 1.24 0 0 1 .462 1.793 2.02 2.02 0 0 1-.266.305c-.956.956-1.911 1.919-2.866 2.874-.948.94-2.068 1.425-3.414 1.433Z"/>
  <defs>
    <linearGradient id="a" x1="0" x2="50.495" y1="0" y2=".505" gradientUnits="userSpaceOnUse">
      <stop stop-color="#42E291"/>
      <stop offset="1" stop-color="#28D17C"/>
    </linearGradient>
  </defs>
</svg>
