<svg xmlns="http://www.w3.org/2000/svg" width="186" height="44" fill="none" viewBox="0 0 186 44">
  <path fill="#28D17C" d="M14.58 25.378a5.254 5.254 0 0 0 3.429 1.265 5.255 5.255 0 0 0 3.427-1.265 14.584 14.584 0 0 0-3.427-.407c-1.181 0-2.329.141-3.428.407Z"/>
  <path fill="#28D17C" d="M18.009 20.729c-1.835 0-3.605.274-5.273.783a5.258 5.258 0 0 0 1.845 3.866 14.557 14.557 0 0 1 3.428-.407c1.18 0 2.328.141 3.427.407a5.259 5.259 0 0 0 1.845-3.866 18.015 18.015 0 0 0-5.272-.783Z"/>
  <path fill="#28D17C" d="M23.283 21.371a5.273 5.273 0 0 0-5.274-5.271 5.273 5.273 0 0 0-5.273 5.412 18.015 18.015 0 0 1 5.273-.783c1.834 0 3.604.274 5.272.783a5.49 5.49 0 0 0 .002-.14Z"/>
  <path fill="#262D38" d="M18.009 3.5C8.063 3.5 0 11.559 0 21.5c0 3.12.794 6.056 2.192 8.614a18.09 18.09 0 0 1 6.592-6.848 9.431 9.431 0 0 1-.166-1.766c0-5.184 4.205-9.386 9.39-9.386 5.187 0 9.39 4.202 9.39 9.386 0 .604-.056 1.194-.165 1.766a18.09 18.09 0 0 1 6.592 6.848 17.913 17.913 0 0 0 2.192-8.614c0-9.941-8.062-18-18.008-18Z"/>
  <path fill="#28D17C" fill-rule="evenodd" d="M7.98 36.452c0-4 1.454-6.8 3.11-8.607a9.367 9.367 0 0 0 6.919 3.04 9.367 9.367 0 0 0 6.88-2.997c1.67 1.831 3.15 4.635 3.15 8.564a17.931 17.931 0 0 1-10.03 3.048 17.932 17.932 0 0 1-10.03-3.048Z" clip-rule="evenodd"/>
  <path fill="#28D17C" fill-rule="evenodd" d="M18.009 26.643a5.254 5.254 0 0 1-3.428-1.265c-.935.337-2.268 1.13-3.492 2.467a9.367 9.367 0 0 0 6.92 3.04 9.367 9.367 0 0 0 6.88-2.997c-1.213-1.329-2.527-2.146-3.453-2.51a5.255 5.255 0 0 1-3.427 1.265Z" clip-rule="evenodd"/>
  <path fill="#262D38" d="M8.784 23.266a18.09 18.09 0 0 0-6.592 6.848 18.02 18.02 0 0 0 1.422 2.205c0-4.03 3.447-7.714 5.17-9.053Zm25.041 6.848a18.09 18.09 0 0 0-6.592-6.848c1.723 1.463 5.17 5.322 5.17 9.053a18.017 18.017 0 0 0 1.422-2.205Zm10.736-16.598c0-1.179.255-2.227.765-3.145a5.41 5.41 0 0 1 2.125-2.159c.918-.521 1.955-.782 3.111-.782 1.417 0 2.63.374 3.638 1.122 1.009.748 1.683 1.768 2.023 3.06h-3.196a2.565 2.565 0 0 0-1.02-1.139 2.8 2.8 0 0 0-1.479-.391c-.895 0-1.62.312-2.176.935-.555.623-.833 1.456-.833 2.499 0 1.043.278 1.876.833 2.499.555.623 1.28.935 2.176.935a2.8 2.8 0 0 0 1.479-.391 2.56 2.56 0 0 0 1.02-1.139h3.196c-.34 1.292-1.014 2.312-2.023 3.06-1.009.737-2.221 1.105-3.638 1.105-1.156 0-2.193-.255-3.111-.765a5.558 5.558 0 0 1-2.125-2.159c-.51-.918-.765-1.966-.765-3.145Zm16.298-5.95v7.14c0 .714.176 1.264.527 1.649.352.385.867.578 1.547.578.68 0 1.202-.193 1.564-.578.363-.385.544-.935.544-1.649v-7.14h2.907v7.123c0 1.065-.226 1.966-.68 2.703a4.342 4.342 0 0 1-1.836 1.666c-.76.374-1.61.561-2.55.561-.94 0-1.785-.181-2.533-.544a4.2 4.2 0 0 1-1.75-1.666c-.431-.748-.647-1.655-.647-2.72V7.566h2.907Zm13.449 12.053c-.873 0-1.655-.142-2.347-.425a3.884 3.884 0 0 1-1.665-1.258c-.409-.555-.624-1.224-.647-2.006h3.094c.046.442.199.782.46 1.02.26.227.6.34 1.02.34.43 0 .77-.096 1.02-.289.249-.204.374-.482.374-.833a.962.962 0 0 0-.306-.731 2.268 2.268 0 0 0-.732-.476 11.042 11.042 0 0 0-1.223-.425c-.771-.238-1.4-.476-1.887-.714a3.487 3.487 0 0 1-1.258-1.054c-.352-.465-.528-1.071-.528-1.819 0-1.11.403-1.978 1.207-2.601.805-.635 1.853-.952 3.145-.952 1.315 0 2.375.317 3.18.952.804.623 1.235 1.496 1.291 2.618h-3.144c-.023-.385-.165-.686-.425-.901-.261-.227-.596-.34-1.004-.34-.35 0-.634.096-.85.289-.215.181-.323.448-.323.799 0 .385.182.686.544.901.363.215.93.448 1.7.697.771.26 1.394.51 1.87.748.488.238.907.584 1.258 1.037.352.453.527 1.037.527 1.751 0 .68-.175 1.298-.527 1.853-.34.555-.838.997-1.496 1.326-.657.329-1.433.493-2.328.493ZM89.032 7.566v2.329H85.87V19.5h-2.906V9.895h-3.163V7.566h9.231Zm7.103 12.053a6.276 6.276 0 0 1-3.093-.782 5.944 5.944 0 0 1-2.228-2.176c-.543-.94-.816-1.995-.816-3.162 0-1.167.273-2.216.817-3.145a5.944 5.944 0 0 1 2.227-2.176 6.276 6.276 0 0 1 3.093-.782c1.123 0 2.148.26 3.078.782a5.66 5.66 0 0 1 2.209 2.176c.544.93.816 1.978.816 3.145s-.272 2.221-.816 3.162a5.817 5.817 0 0 1-2.21 2.176c-.929.521-1.954.782-3.076.782Zm0-2.652c.953 0 1.712-.317 2.279-.952.578-.635.866-1.473.866-2.516 0-1.054-.288-1.893-.867-2.516-.566-.635-1.326-.952-2.278-.952-.963 0-1.733.312-2.311.935-.567.623-.85 1.468-.85 2.533 0 1.054.283 1.898.85 2.533.578.623 1.348.935 2.311.935Zm21.236-9.401V19.5h-2.907v-7.157l-2.669 7.157h-2.346l-2.686-7.174V19.5h-2.907V7.566h3.434l3.349 8.262 3.315-8.262h3.417Zm4.997 2.329v2.414h3.893v2.244h-3.893v2.618h4.403V19.5h-7.31V7.566h7.31v2.329h-4.403Zm12.376 9.605-2.482-4.505h-.697V19.5h-2.907V7.566h4.879c.941 0 1.74.164 2.397.493.669.329 1.168.782 1.496 1.36.329.567.493 1.201.493 1.904 0 .793-.226 1.502-.68 2.125-.442.623-1.099 1.065-1.972 1.326l2.754 4.726h-3.281Zm-3.179-6.562h1.802c.533 0 .93-.13 1.19-.391.272-.26.408-.629.408-1.105 0-.453-.136-.81-.408-1.071-.26-.26-.657-.391-1.19-.391h-1.802v2.958ZM49.372 36.619c-.873 0-1.655-.142-2.346-.425a3.883 3.883 0 0 1-1.666-1.258c-.408-.555-.623-1.224-.646-2.006h3.094c.045.442.198.782.459 1.02.26.227.6.34 1.02.34.43 0 .77-.096 1.02-.289.25-.204.374-.482.374-.833a.962.962 0 0 0-.306-.731 2.27 2.27 0 0 0-.731-.476 11.042 11.042 0 0 0-1.224-.425c-.77-.238-1.4-.476-1.887-.714a3.486 3.486 0 0 1-1.258-1.054c-.351-.465-.527-1.071-.527-1.819 0-1.11.402-1.978 1.207-2.601.805-.635 1.853-.952 3.145-.952 1.315 0 2.374.317 3.179.952.805.623 1.235 1.496 1.292 2.618h-3.145c-.023-.385-.164-.686-.425-.901-.26-.227-.595-.34-1.003-.34-.351 0-.635.096-.85.289-.215.181-.323.448-.323.799 0 .385.181.686.544.901.363.215.93.448 1.7.697.77.26 1.394.51 1.87.748.487.238.907.584 1.258 1.037.351.453.527 1.037.527 1.751 0 .68-.176 1.298-.527 1.853-.34.555-.839.997-1.496 1.326-.657.329-1.434.493-2.329.493Zm9.048-9.724v2.414h3.893v2.244H58.42v2.618h4.403V36.5h-7.31V24.566h7.31v2.329H58.42ZM70.796 36.5l-2.482-4.505h-.697V36.5H64.71V24.566h4.88c.94 0 1.739.164 2.396.493.669.329 1.168.782 1.496 1.36.329.567.493 1.201.493 1.904 0 .793-.226 1.502-.68 2.125-.442.623-1.1 1.065-1.972 1.326l2.754 4.726h-3.28Zm-3.179-6.562h1.802c.533 0 .93-.13 1.19-.391.272-.26.408-.629.408-1.105 0-.453-.136-.81-.408-1.071-.26-.26-.657-.391-1.19-.391h-1.802v2.958Zm19.386-5.372L82.77 36.5h-3.638L74.9 24.566h3.094l2.958 9.01 2.975-9.01h3.077Zm4.122 0V36.5h-2.907V24.566h2.907Zm1.614 5.95c0-1.179.255-2.227.765-3.145a5.412 5.412 0 0 1 2.125-2.159c.918-.521 1.955-.782 3.11-.782 1.417 0 2.63.374 3.639 1.122 1.008.748 1.683 1.768 2.023 3.06h-3.196a2.565 2.565 0 0 0-1.02-1.139 2.8 2.8 0 0 0-1.48-.391c-.895 0-1.62.312-2.175.935-.556.623-.833 1.456-.833 2.499 0 1.043.277 1.876.833 2.499.555.623 1.28.935 2.176.935a2.8 2.8 0 0 0 1.479-.391 2.56 2.56 0 0 0 1.02-1.139h3.196c-.34 1.292-1.015 2.312-2.023 3.06-1.009.737-2.222 1.105-3.638 1.105-1.156 0-2.193-.255-3.111-.765a5.559 5.559 0 0 1-2.125-2.159c-.51-.918-.765-1.966-.765-3.145Zm16.349-3.621v2.414h3.893v2.244h-3.893v2.618h4.403V36.5h-7.31V24.566h7.31v2.329h-4.403Zm14.211 9.724c-.873 0-1.655-.142-2.346-.425a3.877 3.877 0 0 1-1.666-1.258c-.408-.555-.624-1.224-.646-2.006h3.094c.045.442.198.782.459 1.02.26.227.6.34 1.02.34.43 0 .77-.096 1.02-.289.249-.204.374-.482.374-.833a.962.962 0 0 0-.306-.731 2.28 2.28 0 0 0-.731-.476 11.148 11.148 0 0 0-1.224-.425c-.771-.238-1.4-.476-1.887-.714a3.478 3.478 0 0 1-1.258-1.054c-.352-.465-.527-1.071-.527-1.819 0-1.11.402-1.978 1.207-2.601.804-.635 1.853-.952 3.145-.952 1.314 0 2.374.317 3.179.952.804.623 1.235 1.496 1.292 2.618h-3.145c-.023-.385-.165-.686-.425-.901-.261-.227-.595-.34-1.003-.34-.352 0-.635.096-.85.289-.216.181-.323.448-.323.799 0 .385.181.686.544.901.362.215.929.448 1.7.697.77.26 1.394.51 1.87.748.487.238.906.584 1.258 1.037.351.453.527 1.037.527 1.751 0 .68-.176 1.298-.527 1.853-.34.555-.839.997-1.496 1.326-.658.329-1.434.493-2.329.493Zm16.375-12.053-4.131 7.99V36.5h-2.907v-3.944l-4.131-7.99h3.298l2.312 4.998 2.295-4.998h3.264Zm5.489 12.053c-.873 0-1.655-.142-2.346-.425a3.883 3.883 0 0 1-1.666-1.258c-.408-.555-.623-1.224-.646-2.006h3.094c.045.442.198.782.459 1.02.261.227.601.34 1.02.34.431 0 .771-.096 1.02-.289.249-.204.374-.482.374-.833a.962.962 0 0 0-.306-.731 2.27 2.27 0 0 0-.731-.476 10.998 10.998 0 0 0-1.224-.425c-.771-.238-1.4-.476-1.887-.714a3.486 3.486 0 0 1-1.258-1.054c-.351-.465-.527-1.071-.527-1.819 0-1.11.402-1.978 1.207-2.601.805-.635 1.853-.952 3.145-.952 1.315 0 2.374.317 3.179.952.805.623 1.235 1.496 1.292 2.618h-3.145c-.023-.385-.164-.686-.425-.901-.261-.227-.595-.34-1.003-.34-.351 0-.635.096-.85.289-.215.181-.323.448-.323.799 0 .385.181.686.544.901.363.215.929.448 1.7.697.771.26 1.394.51 1.87.748.487.238.907.584 1.258 1.037.351.453.527 1.037.527 1.751 0 .68-.176 1.298-.527 1.853-.34.555-.839.997-1.496 1.326-.657.329-1.434.493-2.329.493Zm14.726-12.053v2.329h-3.162V36.5h-2.907v-9.605h-3.162v-2.329h9.231Zm4.366 2.329v2.414h3.893v2.244h-3.893v2.618h4.403V36.5h-7.31V24.566h7.31v2.329h-4.403Zm19.805-2.329V36.5h-2.907v-7.157l-2.669 7.157h-2.346l-2.686-7.174V36.5h-2.907V24.566h3.434l3.349 8.262 3.315-8.262h3.417Z"/>
</svg>
