<svg xmlns="http://www.w3.org/2000/svg" width="25" height="15" fill="none" viewBox="0 0 25 15">
  <path fill="#0085F3" d="M4.584 7.98h1.003L5.082 6.7l-.498 1.28Z"/>
  <path fill="#0085F3" d="M23.71 0H1.137C.51 0 0 .509 0 1.136v12.728C0 14.49.509 15 1.136 15h22.575c.627 0 1.136-.509 1.136-1.136V1.136C24.847.51 24.338 0 23.711 0ZM7.38 9.82a.228.228 0 0 1-.19.1h-.681a.228.228 0 0 1-.213-.146l-.247-.624h-1.92l-.244.624a.227.227 0 0 1-.213.145h-.68a.229.229 0 0 1-.214-.312l1.75-4.49a.227.227 0 0 1 .213-.145h.678c.095 0 .178.057.213.145l1.772 4.49c.028.07.019.15-.024.212Zm4.803-.166a.23.23 0 0 1-.229.229h-.588a.23.23 0 0 1-.229-.23V7.688l-1.003 1.981a.228.228 0 0 1-.408 0L8.713 7.683v1.972a.23.23 0 0 1-.23.229h-.588a.23.23 0 0 1-.229-.23v-4.44a.23.23 0 0 1 .23-.228h.474c.086 0 .164.048.203.125l1.353 2.65 1.341-2.65a.228.228 0 0 1 .204-.125h.482a.23.23 0 0 1 .23.229v4.44Zm5.079.048a.23.23 0 0 1-.23.23h-2.81a.23.23 0 0 1-.23-.23V5.258a.23.23 0 0 1 .23-.229h2.733a.23.23 0 0 1 .229.229V5.8a.23.23 0 0 1-.23.228h-1.962v.952h1.599a.23.23 0 0 1 .229.23v.541a.23.23 0 0 1-.23.229h-1.598v.952h2.04a.23.23 0 0 1 .23.229v.541Zm4.302-.17-.477.344a.228.228 0 0 1-.32-.05L19.63 8.253l-1.132 1.57a.23.23 0 0 1-.32.052l-.477-.344a.227.227 0 0 1-.052-.32l1.335-1.85-1.224-1.705a.23.23 0 0 1 .053-.319l.478-.343a.228.228 0 0 1 .32.052l1.019 1.42 1.024-1.42a.227.227 0 0 1 .32-.052l.477.344a.227.227 0 0 1 .052.32L20.275 7.36l1.34 1.85a.23.23 0 0 1-.052.32Z"/>
</svg>
