<svg xmlns="http://www.w3.org/2000/svg" width="18" height="18" fill="none" viewBox="0 0 18 18">
  <g clip-path="url(#a)">
    <path fill="#BD3D44" fill-rule="evenodd" d="M0 0h34v1.385H0V0Zm0 2.77h34v1.384H0V2.769Zm0 2.768h34v1.385H0V5.538Zm0 2.77h34v1.384H0V8.308Zm0 2.769h34v1.384H0v-1.384Zm0 2.77h34v1.384H0v-1.385Zm0 2.768h34V18H0v-1.385Z" clip-rule="evenodd"/>
    <path fill="#fff" fill-rule="evenodd" d="M0 1h34v1.364H0V1Zm0 2.727h34v1.364H0V3.727Zm0 2.728h34v1.363H0V6.455Zm0 2.727h34v1.364H0V9.181Zm0 2.727h34v1.364H0v-1.364Zm0 2.727h34V16H0v-1.364Z" clip-rule="evenodd"/>
    <path fill="#192F5D" fill-rule="evenodd" d="M0 0h14v10H0V0Z" clip-rule="evenodd"/>
    <path fill="#fff" fill-rule="evenodd" d="m1.494 0 .133.399h.374L1.694.64l.12.384-.32-.242-.294.242.12-.384L1 .399h.4L1.495 0Zm2.202 0 .12.399h.388l-.32.242.133.384-.32-.242-.321.242.133-.384-.32-.242h.387L3.696 0ZM5.9 0l.12.399h.387l-.32.242.133.384L5.9.783l-.32.242.133-.384-.32-.242h.387L5.899 0Zm2.189 0 .133.399h.374L8.288.64l.12.384-.32-.242-.307.242.12-.384-.32-.242h.4L8.088 0Zm2.202 0 .12.399h.388l-.32.242.133.384-.334-.242-.307.242.12-.384-.32-.242h.387L10.29 0Zm2.203 0 .12.399H13l-.32.242.133.384-.32-.242-.32.242.133-.384-.32-.242h.387l.12-.399ZM2.602.997l.12.399h.387l-.32.242.133.384-.32-.242-.32.242.133-.384-.32-.242h.387l.12-.4Zm2.189 0 .133.399h.374l-.307.242.12.384-.32-.242-.307.242.12-.384-.32-.242h.4l.107-.4Zm2.202 0 .12.399h.388l-.32.242.133.384-.32-.242-.321.242.133-.384-.32-.242h.387l.12-.4Zm2.203 0 .12.399h.387l-.32.242.133.384-.32-.242-.32.242.133-.384-.32-.242h.387l.12-.4Zm2.189 0 .133.399h.36l-.306.242.12.384-.32-.242-.307.242.12-.384-.32-.242h.4l.12-.4Zm-9.878.997.107.398h.4l-.32.242.12.385-.32-.242-.294.242.12-.385L1 2.392h.4l.107-.398Zm2.19 0 .12.398h.387l-.307.242.12.385-.32-.242-.308.242.12-.385-.32-.242h.387l.12-.398Zm2.202 0 .12.398h.387l-.32.242.133.385-.32-.242-.32.242.133-.385-.32-.242h.387l.12-.398Zm2.189 0 .133.398h.374l-.307.242.12.385-.32-.242-.307.242.12-.385-.32-.242h.4l.107-.398Zm2.202 0 .12.398h.388l-.307.242.12.385-.32-.242-.308.242.12-.385-.32-.242h.387l.12-.398Zm2.203 0 .12.398H13l-.32.242.133.385-.32-.242-.32.242.133-.385-.32-.242h.387l.12-.398Zm-9.891.996.12.4h.387l-.32.241.133.385-.32-.242-.32.242.133-.385-.32-.242h.387l.12-.399Zm2.189 0 .133.4h.374l-.307.241.12.385-.32-.242-.307.242.12-.385-.32-.242h.4l.107-.399Zm2.202 0 .12.4h.388l-.307.241.12.385-.32-.242-.308.242.12-.385-.32-.242h.387l.12-.399Zm2.203 0 .12.4h.387l-.32.241.133.385-.32-.242-.32.242.133-.385-.32-.242h.387l.12-.399Zm2.189 0 .133.4h.36l-.306.241.12.385-.32-.242-.307.242.12-.385-.32-.242h.4l.12-.399Zm-9.878.997.107.399h.4l-.32.242.12.385-.32-.242-.294.242.12-.385L1 4.386h.4l.107-.399Zm2.19 0 .12.399h.387l-.307.242.12.385-.32-.242-.308.242.12-.385-.32-.242h.387l.12-.399Zm2.202 0 .12.399h.387l-.32.242.133.385-.32-.242-.32.242.133-.385-.32-.242h.387l.12-.399Zm2.189 0 .133.399h.374l-.307.242.12.385-.32-.242-.307.242.12-.385-.32-.242h.4l.107-.399Zm2.202 0 .12.399h.388l-.307.242.12.385-.32-.242-.308.242.12-.385-.32-.242h.387l.12-.399Zm2.203 0 .12.399H13l-.32.242.133.385-.32-.242-.32.242.133-.385-.32-.242h.387l.12-.399Zm-9.891.997.12.399h.387l-.32.242.133.384-.32-.242-.32.242.133-.384-.32-.242h.387l.12-.399Zm2.189 0 .133.399h.374l-.307.242.12.384-.32-.242-.307.242.12-.384-.32-.242h.4l.107-.399Zm2.202 0 .12.399h.388l-.307.242.12.384-.32-.242-.308.242.12-.384-.32-.242h.387l.12-.399Zm2.203 0 .12.399h.387l-.32.242.133.384-.32-.242-.32.242.133-.384-.32-.242h.387l.12-.399Zm2.189 0 .133.399h.36l-.306.242.12.384-.32-.242-.307.242.12-.384-.32-.242h.4l.12-.399Zm-9.878.997.107.399h.4l-.32.242.12.384-.32-.242-.294.242.12-.384L1 6.38h.4l.107-.399Zm2.19 0 .12.399h.387l-.307.242.12.384-.32-.242-.308.242.12-.384-.32-.242h.387l.12-.399Zm2.202 0 .12.399h.387l-.32.242.133.384-.32-.242-.32.242.133-.384-.32-.242h.387l.12-.399Zm2.189 0 .133.399h.374l-.307.242.12.384-.32-.242-.307.242.12-.384-.32-.242h.4l.107-.399Zm2.202 0 .12.399h.388l-.307.242.12.384-.32-.242-.308.242.12-.384-.32-.242h.387l.12-.399Zm2.203 0 .12.399H13l-.32.242.133.384-.32-.242-.32.242.133-.384-.32-.242h.387l.12-.399Zm-9.891.997.12.399h.387l-.32.242.133.384-.32-.242-.32.242.133-.384-.32-.242h.387l.12-.4Zm2.189 0 .133.399h.374l-.307.242.12.384-.32-.242-.307.242.12-.384-.32-.242h.4l.107-.4Zm2.202 0 .12.399h.388l-.307.242.12.384-.32-.242-.308.242.12-.384-.32-.242h.387l.12-.4Zm2.203 0 .12.399h.387l-.32.242.133.384-.32-.242-.32.242.133-.384-.32-.242h.387l.12-.4Zm2.189 0 .133.399h.36l-.306.242.12.384-.32-.242-.307.242.12-.384-.32-.242h.4l.12-.4Zm-9.878.997.107.398h.4l-.32.243.12.384-.32-.242L1.2 9l.12-.384L1 8.373h.4l.107-.398Zm2.19 0 .12.398h.387l-.307.243.12.384-.32-.242L3.388 9l.12-.384-.32-.243h.387l.12-.398Zm2.202 0 .12.398h.387l-.32.243.133.384-.32-.242-.32.242.133-.384-.32-.243h.387l.12-.398Zm2.189 0 .133.398h.374l-.307.243.12.384-.32-.242L7.78 9l.12-.384-.32-.243h.4l.107-.398Zm2.202 0 .12.398h.388l-.307.243.12.384-.32-.242L9.982 9l.12-.384-.32-.243h.387l.12-.398Zm2.203 0 .12.398H13l-.32.243.133.384-.32-.242-.32.242.133-.384-.32-.243h.387l.12-.398Z" clip-rule="evenodd"/>
  </g>
  <defs>
    <clipPath id="a">
      <rect width="18" height="18" fill="#fff" rx="9"/>
    </clipPath>
  </defs>
</svg>
