<svg xmlns="http://www.w3.org/2000/svg" width="45" height="15" fill="none" viewBox="0 0 45 15">
  <g clip-path="url(#a)">
    <path fill="#0085F3" d="m18.018.804-2.286 13.42h3.657L21.678.804h-3.66Zm-5.353.015L9.082 9.97 8.7 8.59c-.706-1.665-2.712-4.057-5.066-5.565l3.275 11.193 3.87-.007L16.54.816 12.665.82Z"/>
    <path fill="#0085F3" d="M7.311 1.78C7.1.962 6.483.72 5.718.69H.047L0 .957c4.413 1.07 7.332 3.65 8.545 6.752L7.31 1.78Zm21.78 1.597a6.76 6.76 0 0 1 2.737.514l.33.155.495-2.908C31.93.865 30.794.573 29.377.573c-3.614 0-6.162 1.821-6.182 4.43-.023 1.928 1.815 3.004 3.203 3.646 1.426.659 1.904 1.077 1.897 1.665-.011.899-1.136 1.31-2.188 1.31-1.465 0-2.242-.201-3.443-.702l-.472-.214-.514 3.003c.855.376 2.435.698 4.075.715 3.845 0 6.344-1.798 6.37-4.585.016-1.525-.96-2.689-3.073-3.645-1.28-.622-2.062-1.035-2.055-1.665 0-.557.664-1.154 2.096-1.154ZM42.041.82h-2.827c-.877 0-1.53.24-1.916 1.115l-5.43 12.299h3.84s.626-1.654.769-2.016l4.684.005c.108.469.445 2.01.445 2.01H45L42.04.82Zm-4.512 8.65c.301-.77 1.458-3.75 1.458-3.75-.02.036.298-.777.487-1.282l.247 1.157.847 3.875h-3.039Z"/>
  </g>
  <defs>
    <clipPath id="a">
      <path fill="#fff" d="M0 0h45v15H0z"/>
    </clipPath>
  </defs>
</svg>
