<svg width="32" height="32" viewBox="0 0 32 32" fill="none" xmlns="http://www.w3.org/2000/svg">
<g clip-path="url(#clip0_2_8324)">
<path d="M31.9078 15.04L29.3813 9.29C29.2928 9.08608 29.1474 8.91235 28.9628 8.78988C28.7781 8.66741 28.5621 8.60145 28.3409 8.6H22.2247L22.5905 5.2765C22.6085 5.11516 22.5923 4.95182 22.5431 4.79721C22.4938 4.64261 22.4126 4.50025 22.3047 4.3795C22.1978 4.26037 22.0673 4.16506 21.9216 4.0997C21.7759 4.03434 21.6182 4.00038 21.4587 4H5.71646C5.41326 4 5.12248 4.12116 4.90808 4.33683C4.69368 4.55249 4.57324 4.845 4.57324 5.15C4.57324 5.455 4.69368 5.7475 4.90808 5.96317C5.12248 6.17884 5.41326 6.3 5.71646 6.3H11.4326C11.7358 6.3 12.0266 6.42116 12.241 6.63683C12.4554 6.85249 12.5758 7.145 12.5758 7.45C12.5758 7.755 12.4554 8.0475 12.241 8.26317C12.0266 8.47884 11.7358 8.6 11.4326 8.6H3.43001C3.12681 8.6 2.83602 8.72116 2.62163 8.93683C2.40723 9.15249 2.28678 9.445 2.28678 9.75C2.28678 10.055 2.40723 10.3475 2.62163 10.5632C2.83602 10.7788 3.12681 10.9 3.43001 10.9H14.8623C15.1655 10.9 15.4563 11.0212 15.6707 11.2368C15.8851 11.4525 16.0055 11.745 16.0055 12.05C16.0055 12.355 15.8851 12.6475 15.6707 12.8632C15.4563 13.0788 15.1655 13.2 14.8623 13.2H6.85969C6.55649 13.2 6.2657 13.3212 6.05131 13.5368C5.83691 13.7525 5.71646 14.045 5.71646 14.35C5.71646 14.655 5.83691 14.9475 6.05131 15.1632C6.2657 15.3788 6.55649 15.5 6.85969 15.5H11.4326C11.7358 15.5 12.0266 15.6212 12.241 15.8368C12.4554 16.0525 12.5758 16.345 12.5758 16.65C12.5758 16.955 12.4554 17.2475 12.241 17.4632C12.0266 17.6788 11.7358 17.8 11.4326 17.8H2.28678C1.98358 17.8 1.69279 17.9212 1.4784 18.1368C1.264 18.3525 1.14355 18.645 1.14355 18.95C1.14355 19.255 1.264 19.5475 1.4784 19.7632C1.69279 19.9788 1.98358 20.1 2.28678 20.1H4.57324C4.87644 20.1 5.16722 20.2212 5.38162 20.4368C5.59601 20.6525 5.71646 20.945 5.71646 21.25C5.71646 21.555 5.59601 21.8475 5.38162 22.0632C5.16722 22.2788 4.87644 22.4 4.57324 22.4H3.43001C3.12681 22.4 2.83602 22.5212 2.62163 22.7368C2.40723 22.9525 2.28678 23.245 2.28678 23.55C2.28678 23.855 2.40723 24.1475 2.62163 24.3632C2.83602 24.5788 3.12681 24.7 3.43001 24.7H6.6882C6.81165 25.185 7.0466 25.634 7.37414 26.011C7.6517 26.3231 7.9918 26.5727 8.37209 26.7431C8.75238 26.9136 9.16424 27.0011 9.58057 27C10.2851 26.9797 10.968 26.7507 11.5435 26.3415C12.1191 25.9323 12.5617 25.3613 12.8159 24.7H21.5502C21.6736 25.185 21.9086 25.634 22.2361 26.011C22.5136 26.3231 22.8538 26.5727 23.234 26.7431C23.6143 26.9136 24.0262 27.0011 24.4425 27C25.147 26.9797 25.8299 26.7507 26.4055 26.3415C26.9811 25.9323 27.4237 25.3613 27.6778 24.7H29.9643C30.2469 24.7017 30.5202 24.5981 30.7313 24.4091C30.9424 24.22 31.0764 23.9591 31.1075 23.6765L31.9878 15.6265C32.0192 15.4273 31.9913 15.2233 31.9078 15.04ZM9.58057 24.7C9.48577 24.7041 9.39127 24.6866 9.30416 24.6488C9.21704 24.6109 9.13957 24.5537 9.07755 24.4815C8.98781 24.3698 8.92215 24.2406 8.88476 24.102C8.84736 23.9634 8.83904 23.8185 8.86034 23.6765C8.88954 23.3536 9.02812 23.0506 9.25288 22.8182C9.47765 22.5858 9.77495 22.4382 10.095 22.4C10.1898 22.3959 10.2843 22.4134 10.3714 22.4512C10.4585 22.4891 10.536 22.5463 10.598 22.6185C10.6878 22.7302 10.7534 22.8594 10.7908 22.998C10.8282 23.1366 10.8365 23.2815 10.8153 23.4235C10.7861 23.7464 10.6475 24.0494 10.4227 24.2818C10.1979 24.5141 9.90064 24.6618 9.58057 24.7ZM24.4425 24.7C24.3477 24.7041 24.2532 24.6866 24.1661 24.6488C24.079 24.6109 24.0015 24.5537 23.9395 24.4815C23.8498 24.3698 23.7841 24.2406 23.7467 24.102C23.7093 23.9634 23.701 23.8185 23.7223 23.6765C23.7515 23.3536 23.8901 23.0506 24.1148 22.8182C24.3396 22.5858 24.6369 22.4382 24.957 22.4C25.0518 22.3959 25.1463 22.4134 25.2334 22.4512C25.3205 22.4891 25.398 22.5463 25.46 22.6185C25.5497 22.7302 25.6154 22.8594 25.6528 22.998C25.6902 23.1366 25.6985 23.2815 25.6772 23.4235C25.648 23.7464 25.5094 24.0494 25.2847 24.2818C25.0599 24.5141 24.7626 24.6618 24.4425 24.7ZM29.587 16.65H24.534C24.3744 16.6496 24.2168 16.6157 24.0711 16.5503C23.9254 16.4849 23.7949 16.3896 23.688 16.2705C23.5801 16.1497 23.4989 16.0074 23.4496 15.8528C23.4003 15.6982 23.3842 15.5348 23.4022 15.3735L23.7794 11.9235C23.8131 11.643 23.9483 11.3848 24.1592 11.1981C24.37 11.0115 24.6418 10.9095 24.9227 10.9115H27.5864L29.7242 15.684L29.587 16.65Z" fill="#4494DE"/>
<path d="M2.28645 15.5002C2.58966 15.5002 2.88044 15.379 3.09484 15.1634C3.30923 14.9477 3.42968 14.6552 3.42968 14.3502C3.42968 14.0452 3.30923 13.7527 3.09484 13.537C2.88044 13.3214 2.58966 13.2002 2.28645 13.2002H1.14323C0.840024 13.2002 0.54924 13.3214 0.334843 13.537C0.120447 13.7527 0 14.0452 0 14.3502C0 14.6552 0.120447 14.9477 0.334843 15.1634C0.54924 15.379 0.840024 15.5002 1.14323 15.5002H2.28645Z" fill="#4494DE"/>
</g>
<defs>
<clipPath id="clip0_2_8324">
<rect width="32" height="32" fill="white"/>
</clipPath>
</defs>
</svg>
