<svg xmlns="http://www.w3.org/2000/svg" width="50" height="50" fill="none" viewBox="0 0 50 50">
  <g clip-path="url(#a)">
    <path fill="#42E291" d="M34.503 15.455h-21.58v16.15h21.58v-16.15Z"/>
    <path fill="#293843" d="M36.725 34.383H24.786a.555.555 0 1 1 0-1.11H36.17V13.788H11.258v1.954a.556.556 0 0 1-1.11 0v-2.51c0-.306.248-.555.555-.555h26.023c.307 0 .556.249.556.555v20.595a.555.555 0 0 1-.556.555Zm-21.345 0h-4.678a.555.555 0 0 1-.556-.556V31.03a.555.555 0 1 1 1.111 0v2.243h4.123a.555.555 0 1 1 0 1.111Z"/>
    <path fill="#293843" d="M49.444 34.384a.555.555 0 0 1-.555-.552l-.053-7.854L43.141 20h-5.86v13.273h3.158a.555.555 0 1 1 0 1.11h-3.714a.555.555 0 0 1-.556-.555V19.444c0-.306.249-.555.556-.555h6.654c.152 0 .297.062.402.172l6.011 6.31a.556.556 0 0 1 .154.38L50 33.823a.556.556 0 0 1-.552.56h-.004Z"/>
    <path fill="#293843" d="M44.94 26.31h-4.703a.555.555 0 0 1-.555-.556v-6.31a.555.555 0 1 1 1.11 0V25.2h4.148a.555.555 0 1 1 0 1.11ZM18.32 37.323a3.5 3.5 0 0 1-3.496-3.495 3.499 3.499 0 0 1 3.496-3.495 3.499 3.499 0 0 1 3.494 3.495 3.5 3.5 0 0 1-3.494 3.495Zm0-5.879a2.387 2.387 0 0 0-2.385 2.384 2.387 2.387 0 0 0 2.385 2.384 2.386 2.386 0 0 0 2.383-2.384 2.387 2.387 0 0 0-2.383-2.384Zm25.059 5.879a3.499 3.499 0 0 1-3.496-3.495 3.499 3.499 0 0 1 3.496-3.495 3.499 3.499 0 0 1 3.495 3.495 3.499 3.499 0 0 1-3.495 3.495Zm0-5.879a2.387 2.387 0 0 0-2.384 2.384 2.387 2.387 0 0 0 2.384 2.384 2.387 2.387 0 0 0 2.384-2.384 2.387 2.387 0 0 0-2.384-2.384Zm-19.666-7.358H.556a.556.556 0 0 1 0-1.111h23.157a.556.556 0 0 1 0 1.11Zm0-4.703H6.435a.556.556 0 0 1 0-1.111h17.279a.556.556 0 1 1 0 1.11Zm0 9.406H6.435a.555.555 0 1 1 0-1.111h17.279a.555.555 0 1 1 0 1.11Z"/>
  </g>
  <defs>
    <clipPath id="a">
      <path fill="#fff" d="M0 0h50v50H0z"/>
    </clipPath>
  </defs>
</svg>
