<svg xmlns="http://www.w3.org/2000/svg" width="50" height="48" fill="none" viewBox="0 0 50 48">
  <path fill="#42E291" d="M46.111 17.745H3.89v15.249h42.22V17.745Z"/>
  <path fill="#293843" d="M29.774 17.818a.566.566 0 0 1-.393-.157l-2.853-2.739a.518.518 0 0 1 0-.754l2.853-2.74a.571.571 0 0 1 .786 0 .518.518 0 0 1 0 .755l-2.46 2.362 2.46 2.362a.518.518 0 0 1 0 .754.565.565 0 0 1-.393.157Z"/>
  <path fill="#293843" d="M49.444 36.727H.556A.545.545 0 0 1 0 36.194V14.545c0-.294.249-.533.556-.533h21.388c.307 0 .555.239.555.533a.545.545 0 0 1-.555.533H1.11V35.66h47.78V15.078H26.92a.545.545 0 0 1-.556-.533c0-.294.248-.533.556-.533h22.523c.308 0 .556.239.556.533v21.649a.544.544 0 0 1-.556.533Z"/>
  <path fill="#293843" d="M25 31.503c-3.523 0-6.389-2.752-6.389-6.133 0-3.382 2.866-6.134 6.389-6.134s6.389 2.752 6.389 6.134c0 3.381-2.866 6.133-6.389 6.133Zm0-11.2c-2.91 0-5.278 2.273-5.278 5.067 0 2.793 2.368 5.066 5.278 5.066 2.91 0 5.278-2.273 5.278-5.066 0-2.794-2.368-5.067-5.278-5.067Zm-7.45 11.2H9.331a.545.545 0 0 1-.556-.533c0-1.504-1.26-2.714-2.81-2.714a.545.545 0 0 1-.555-.534v-4.705c0-.295.249-.534.556-.534 1.541 0 2.801-1.204 2.81-2.684a.545.545 0 0 1 .555-.53h8.217c.307 0 .556.239.556.533a.545.545 0 0 1-.556.533H9.846c-.253 1.64-1.614 2.943-3.324 3.177v3.714c1.725.236 3.091 1.553 3.33 3.21h7.697c.307 0 .556.239.556.534a.544.544 0 0 1-.556.533Zm23.118.001H32.45a.544.544 0 0 1-.556-.534c0-.295.248-.533.556-.533h7.7c.245-1.65 1.608-2.958 3.326-3.194V23.53c-1.718-.234-3.081-1.543-3.326-3.193h-7.7a.545.545 0 0 1-.556-.533c0-.294.248-.534.556-.534h8.217c.307 0 .555.24.555.534 0 1.487 1.26 2.697 2.81 2.697.308 0 .556.24.556.534v4.705a.544.544 0 0 1-.556.534c-1.55 0-2.81 1.21-2.81 2.698a.544.544 0 0 1-.555.533Z"/>
</svg>
