<svg width="24" height="24" viewBox="0 0 24 24" fill="none" xmlns="http://www.w3.org/2000/svg">
<path fill-rule="evenodd" clip-rule="evenodd" d="M8.43568 2.75683C9.45905 -0.829098 14.541 -0.829098 15.5644 2.75683C15.8912 3.90199 17.0677 4.58125 18.2229 4.2917C21.84 3.385 24.381 7.78611 21.7872 10.4653C20.9589 11.3209 20.9589 12.6795 21.7872 13.5351C24.381 16.2143 21.84 20.6154 18.2229 19.7087C17.0677 19.4192 15.8912 20.0984 15.5644 21.2436C14.541 24.8295 9.45905 24.8295 8.43568 21.2436C8.10886 20.0984 6.93235 19.4192 5.7772 19.7087C2.16002 20.6154 -0.380965 16.2143 2.21285 13.5351C3.04118 12.6795 3.04118 11.3209 2.21285 10.4653C-0.380964 7.78611 2.16002 3.385 5.7772 4.2917C6.93235 4.58125 8.10886 3.90199 8.43568 2.75683ZM15.1872 8.81302C15.4801 9.10592 15.4801 9.58079 15.1872 9.87368L9.53039 15.5305C9.2375 15.8234 8.76262 15.8234 8.46973 15.5305C8.17684 15.2376 8.17684 14.7628 8.46973 14.4699L14.1266 8.81302C14.4195 8.52013 14.8944 8.52013 15.1872 8.81302ZM9.00006 10.0002C8.44778 10.0002 8.00006 9.55253 8.00006 9.00024C8.00006 8.44796 8.44778 8.00024 9.00006 8.00024C9.55235 8.00024 10.0001 8.44796 10.0001 9.00024C10.0001 9.55253 9.55235 10.0002 9.00006 10.0002ZM15.0001 16.0002C14.4478 16.0002 14.0001 15.5525 14.0001 15.0002C14.0001 14.448 14.4478 14.0002 15.0001 14.0002C15.5523 14.0002 16.0001 14.448 16.0001 15.0002C16.0001 15.5525 15.5523 16.0002 15.0001 16.0002Z" fill="#4494DE"/>
</svg>
