<svg width="32" height="32" viewBox="0 0 32 32" fill="none" xmlns="http://www.w3.org/2000/svg">
<g clip-path="url(#clip0_2_7575)">
<path d="M30.6666 23.6L6.78272 31.7132C5.7518 32.062 4.63678 31.5066 4.28958 30.4838L0.105188 18.1656C-0.245159 17.1327 0.30881 16.02 1.33394 15.6719L14.9546 11.0456C17.2526 12.2892 16.9561 12.1287 18.2071 12.805L5.99959 16.9519C6.31021 18.5011 5.54936 20.0554 4.17895 20.7425L5.95021 25.9588C7.49673 25.666 9.02161 26.475 9.70335 27.8563L26.0009 22.32C25.6973 20.8069 26.4207 19.2317 27.8216 18.5294L26.0503 13.3137C25.3734 13.445 24.6884 13.3662 24.0747 13.1056C24.2841 12.6083 24.2539 12.277 24.2547 11.5825C27.8702 11.5871 27.285 11.5864 28.6622 11.5881L31.8953 21.1069C32.2441 22.1331 31.6928 23.2519 30.6666 23.6ZM20.5421 18.0931C21.3963 20.6088 20.048 23.3269 17.5428 24.1775C15.0387 25.0286 12.3097 23.6834 11.4584 21.1787C10.6042 18.663 11.9525 15.9449 14.4577 15.0944C16.9621 14.2437 19.6915 15.5887 20.5421 18.0931ZM17.2934 22.1756L17.1365 21.7144C17.5523 21.3797 17.7574 20.7933 17.5653 20.2281C17.3221 19.5131 16.5502 19.1443 15.8496 19.3825C15.6328 19.4556 15.3965 19.3394 15.3227 19.1225C15.249 18.9069 15.3653 18.6712 15.5796 18.5975C15.5809 18.5969 15.5815 18.5969 15.5828 18.5962C15.584 18.5956 15.5859 18.595 15.5871 18.5944L16.4196 18.3119C17.0058 18.113 16.7058 17.2239 16.1178 17.4244L15.7246 17.5575L15.5946 17.1756C15.3961 16.5891 14.508 16.89 14.7071 17.4769L14.864 17.9387C14.4371 18.2856 14.2484 18.8744 14.4352 19.4244C14.6752 20.1306 15.4446 20.51 16.1509 20.27C16.3676 20.1965 16.6039 20.3116 16.6778 20.5294C16.7519 20.7494 16.6336 20.9832 16.4184 21.0562L15.5809 21.3406C15.0001 21.5377 15.2889 22.4286 15.8828 22.2281L16.2759 22.0944L16.4059 22.4769C16.6044 23.0613 17.4929 22.7636 17.2934 22.1756ZM11.4263 8.07051L21.2966 13.4114C22.2075 13.9046 23.3155 13.2457 23.3164 12.2093L23.3189 10.6434L29.5118 10.652H29.5134C30.3343 10.652 31.0033 9.98421 31.0051 9.16218L31.0107 4.62225C31.0125 3.7906 30.3379 3.12835 29.5215 3.12835L23.3294 3.12029L23.3312 1.55473C23.3331 0.517603 22.2269 -0.143761 21.3137 0.346719L11.4292 5.66107C10.4713 6.17617 10.4696 7.55284 11.4263 8.07051Z" fill="#4494DE"/>
</g>
<defs>
<clipPath id="clip0_2_7575">
<rect width="32" height="32" fill="white"/>
</clipPath>
</defs>
</svg>
