<svg width="32" height="32" viewBox="0 0 32 32" fill="none" xmlns="http://www.w3.org/2000/svg">
<path d="M26.4403 3.33082C23.4074 3.74011 20.2119 3.78218 17.2368 4.33817C16.6047 4.44432 16.1877 4.86205 15.7459 5.29424L2.92687 18.095C1.69064 19.3293 1.69145 21.3524 2.92687 22.5859L9.93622 29.5751C11.1716 30.8087 13.1918 30.8087 14.4272 29.5751L27.3872 16.6334C27.9695 16.1031 28.2134 15.4315 28.3342 14.6498L29.2206 6.10013C29.303 5.29537 29.0448 4.53335 28.5265 4.01582C28.0081 3.49828 27.2455 3.24864 26.4403 3.33082ZM24.1143 7.06718C24.4984 7.07411 24.8648 7.22975 25.1363 7.50126C25.4139 7.7787 25.5699 8.15487 25.5699 8.54708C25.5699 8.93929 25.4139 9.31546 25.1363 9.5929C24.9986 9.73052 24.8352 9.8397 24.6553 9.91419C24.4753 9.98868 24.2825 10.027 24.0877 10.027C23.8929 10.027 23.7001 9.98868 23.5201 9.91419C23.3402 9.8397 23.1768 9.73052 23.0391 9.5929C22.7615 9.31546 22.6055 8.93929 22.6055 8.54708C22.6055 8.15487 22.7615 7.7787 23.0391 7.50126C23.1799 7.36045 23.3477 7.24943 23.5324 7.17485C23.7171 7.10026 23.915 7.06364 24.1143 7.06718ZM13.4473 13.2194C14.0855 13.2194 14.722 13.4618 15.2056 13.9447C16.1728 14.9104 16.1735 16.493 15.2056 17.4594C14.2377 18.4258 12.6453 18.4325 11.678 17.4667C10.7108 16.501 10.7175 14.9111 11.6853 13.9447C12.1693 13.4615 12.8091 13.2193 13.4473 13.2194ZM13.4473 14.5711C13.1597 14.5705 12.8727 14.6808 12.6487 14.9044C12.2008 15.3517 12.1977 16.0621 12.6414 16.5052C13.0852 16.9482 13.7888 16.9396 14.2367 16.4924C14.6846 16.0451 14.6878 15.3475 14.244 14.9044C14.0222 14.6829 13.7349 14.5716 13.4473 14.5711ZM7.39585 18.7983C7.39646 18.7983 7.39708 18.7983 7.39769 18.7983L18.2734 19.1316C18.4534 19.1361 18.6244 19.2117 18.7489 19.3417C18.8735 19.4717 18.9415 19.6457 18.9383 19.8258C18.9361 19.9159 18.916 20.0046 18.8793 20.0869C18.8426 20.1692 18.7899 20.2434 18.7243 20.3052C18.6588 20.367 18.5816 20.4153 18.4973 20.4471C18.413 20.4789 18.3232 20.4937 18.2331 20.4906L7.35739 20.1683C7.26731 20.1661 7.17855 20.146 7.09626 20.1093C7.01397 20.0726 6.93977 20.0199 6.87795 19.9543C6.81613 19.8888 6.76792 19.8116 6.73609 19.7273C6.70427 19.643 6.68947 19.5532 6.69254 19.4631C6.69477 19.3732 6.71476 19.2846 6.75137 19.2024C6.78798 19.1203 6.84048 19.0462 6.90585 18.9844C6.97122 18.9226 7.04817 18.8743 7.13227 18.8424C7.21636 18.8104 7.30594 18.7955 7.39585 18.7983ZM12.4601 21.0932C13.1001 21.0915 13.7403 21.3301 14.2239 21.813C15.1911 22.7788 15.1844 24.3687 14.2166 25.3351C13.2487 26.3015 11.6636 26.3009 10.6963 25.3351C9.72907 24.3693 9.72844 22.7867 10.6963 21.8203C11.1802 21.3371 11.8201 21.0949 12.4601 21.0932ZM12.4601 22.4504C12.1743 22.4517 11.8892 22.5656 11.6652 22.7892C11.2173 23.2365 11.2141 23.9323 11.6579 24.3754C12.1016 24.8184 12.8052 24.8226 13.2532 24.3754C13.7011 23.9281 13.6969 23.225 13.2532 22.7819C13.0313 22.5604 12.7459 22.4491 12.4601 22.4504Z" fill="#4494DE"/>
<path d="M25.1139 0.501063C24.9608 0.51483 24.817 0.579938 24.7056 0.685807C24.5943 0.791676 24.522 0.932086 24.5005 1.08422L23.5353 7.5392C23.5221 7.62766 23.5264 7.71787 23.5481 7.80466C23.5697 7.89144 23.6083 7.97312 23.6615 8.04501C23.7147 8.1169 23.7816 8.17761 23.8583 8.22366C23.9349 8.26971 24.0199 8.3002 24.1084 8.31339C24.1969 8.32661 24.2871 8.32227 24.3739 8.30062C24.4607 8.27897 24.5423 8.24043 24.6142 8.18721C24.6861 8.13399 24.7468 8.06713 24.7929 7.99045C24.8389 7.91376 24.8694 7.82876 24.8826 7.74029L25.8478 1.28531C25.8611 1.19685 25.8567 1.10664 25.8351 1.01985C25.8134 0.933065 25.7749 0.851392 25.7217 0.779499C25.6684 0.707605 25.6016 0.646901 25.5249 0.600851C25.4482 0.554802 25.3632 0.52431 25.2747 0.511117C25.2217 0.501415 25.1677 0.498029 25.1139 0.501063Z" fill="#4494DE"/>
</svg>
