<svg width="32" height="32" viewBox="0 0 32 32" fill="none" xmlns="http://www.w3.org/2000/svg">
<g clip-path="url(#clip0_2_7552)">
<path d="M6.875 7H16.25C16.7677 7 17.1875 6.58025 17.1875 6.0625V4.0625C17.1875 3.54475 16.7677 3.125 16.25 3.125H14.6875C14.6875 1.39912 13.2884 0 11.5625 0C9.83663 0 8.4375 1.39912 8.4375 3.125H6.875C6.35725 3.125 5.9375 3.54475 5.9375 4.0625V6.0625C5.9375 6.58025 6.35725 7 6.875 7Z" fill="#4494DE"/>
<path d="M22.1875 5.125H19.0625V6.0625C19.0625 7.61331 17.8008 8.875 16.25 8.875H6.875C5.32419 8.875 4.0625 7.61331 4.0625 6.0625V5.125H0.9375C0.41975 5.125 0 5.54475 0 6.0625V31.0625C0 31.5802 0.41975 32 0.9375 32H22.1875C22.7052 32 23.125 31.5802 23.125 31.0625V6.0625C23.125 5.54475 22.7052 5.125 22.1875 5.125ZM4.6875 13.875H6.25V12.3125C6.25 11.7948 6.66975 11.375 7.1875 11.375C7.70525 11.375 8.125 11.7948 8.125 12.3125V13.875H9.6875C10.2052 13.875 10.625 14.2948 10.625 14.8125C10.625 15.3302 10.2052 15.75 9.6875 15.75H8.125V17.3125C8.125 17.8302 7.70525 18.25 7.1875 18.25C6.66975 18.25 6.25 17.8302 6.25 17.3125V15.75H4.6875C4.16975 15.75 3.75 15.3302 3.75 14.8125C3.75 14.2948 4.16975 13.875 4.6875 13.875ZM18.4375 27H4.6875C4.16975 27 3.75 26.5802 3.75 26.0625C3.75 25.5448 4.16975 25.125 4.6875 25.125H18.4375C18.9552 25.125 19.375 25.5448 19.375 26.0625C19.375 26.5802 18.9552 27 18.4375 27ZM18.4375 22.625H4.6875C4.16975 22.625 3.75 22.2052 3.75 21.6875C3.75 21.1698 4.16975 20.75 4.6875 20.75H18.4375C18.9552 20.75 19.375 21.1698 19.375 21.6875C19.375 22.2052 18.9552 22.625 18.4375 22.625ZM18.4375 18.25H12.8125C12.2948 18.25 11.875 17.8302 11.875 17.3125C11.875 16.7948 12.2948 16.375 12.8125 16.375H18.4375C18.9552 16.375 19.375 16.7948 19.375 17.3125C19.375 17.8302 18.9552 18.25 18.4375 18.25ZM18.4375 13.875H12.8125C12.2948 13.875 11.875 13.4552 11.875 12.9375C11.875 12.4198 12.2948 12 12.8125 12H18.4375C18.9552 12 19.375 12.4198 19.375 12.9375C19.375 13.4552 18.9552 13.875 18.4375 13.875Z" fill="#4494DE"/>
<path d="M31.0625 10.75H30.75V12.625H31.0625C31.5803 12.625 32 12.2053 32 11.6875C32 11.1697 31.5803 10.75 31.0625 10.75Z" fill="#4494DE"/>
<path d="M26.0625 25.5938C26.0625 27.1994 26.5599 28.7921 27.4688 30.1139V31.0625C27.4688 31.5802 27.8885 32 28.4062 32C28.924 32 29.3438 31.5802 29.3438 31.0625V30.1139C30.2526 28.7921 30.75 27.1994 30.75 25.5938V12.625H26.0625V25.5938Z" fill="#4494DE"/>
<path d="M29.8125 6.375H27C26.4822 6.375 26.0625 6.79475 26.0625 7.3125V10.75H30.75V7.3125C30.75 6.79475 30.3302 6.375 29.8125 6.375Z" fill="#4494DE"/>
</g>
<defs>
<clipPath id="clip0_2_7552">
<rect width="32" height="32" fill="white"/>
</clipPath>
</defs>
</svg>
