<svg xmlns="http://www.w3.org/2000/svg" width="20" height="20" fill="none" viewBox="0 0 20 20">
  <g clip-path="url(#a)">
    <path fill="#28D17C" d="M3.75 14.584H1.667A1.667 1.667 0 0 0 0 16.25v2.084A1.667 1.667 0 0 0 1.667 20H3.75a1.667 1.667 0 0 0 1.667-1.666V16.25a1.667 1.667 0 0 0-1.667-1.666Zm0 3.75H1.667V16.25H3.75v2.084Zm14.583-3.75H16.25a1.666 1.666 0 0 0-1.667 1.666v2.084A1.666 1.666 0 0 0 16.25 20h2.083A1.667 1.667 0 0 0 20 18.334V16.25a1.666 1.666 0 0 0-1.667-1.666Zm0 3.75H16.25V16.25h2.083v2.084ZM3.75 7.291H1.667A1.667 1.667 0 0 0 0 8.958v2.083a1.667 1.667 0 0 0 1.667 1.667H3.75a1.667 1.667 0 0 0 1.667-1.667V8.958A1.667 1.667 0 0 0 3.75 7.291Zm0 3.75H1.667V8.958H3.75v2.083Zm14.583-3.75H16.25a1.666 1.666 0 0 0-1.667 1.667v2.083a1.667 1.667 0 0 0 1.667 1.667h2.083A1.667 1.667 0 0 0 20 11.041V8.958a1.667 1.667 0 0 0-1.667-1.667Zm0 3.75H16.25V8.958h2.083v2.083ZM3.75 0H1.667A1.667 1.667 0 0 0 0 1.667V3.75a1.667 1.667 0 0 0 1.667 1.667H3.75A1.667 1.667 0 0 0 5.417 3.75V1.667A1.667 1.667 0 0 0 3.75 0Zm0 3.75H1.667V1.667H3.75V3.75Zm7.292 10.834H8.958a1.667 1.667 0 0 0-1.666 1.666v2.084A1.667 1.667 0 0 0 8.958 20h2.084a1.667 1.667 0 0 0 1.666-1.666V16.25a1.666 1.666 0 0 0-1.666-1.666Zm0 3.75H8.958V16.25h2.084v2.084Zm0-11.043H8.958a1.667 1.667 0 0 0-1.666 1.667v2.083a1.667 1.667 0 0 0 1.666 1.667h2.084a1.667 1.667 0 0 0 1.666-1.667V8.958a1.667 1.667 0 0 0-1.666-1.667Zm0 3.75H8.958V8.958h2.084v2.083Zm0-11.041H8.958a1.667 1.667 0 0 0-1.666 1.667V3.75a1.667 1.667 0 0 0 1.666 1.667h2.084a1.667 1.667 0 0 0 1.666-1.667V1.667A1.667 1.667 0 0 0 11.042 0Zm0 3.75H8.958V1.667h2.084V3.75ZM18.333 0H16.25a1.666 1.666 0 0 0-1.667 1.667V3.75a1.667 1.667 0 0 0 1.667 1.667h2.083A1.667 1.667 0 0 0 20 3.75V1.667A1.667 1.667 0 0 0 18.333 0Zm0 3.75H16.25V1.667h2.083V3.75Z"/>
  </g>
  <defs>
    <clipPath id="a">
      <path fill="#fff" d="M0 0h20v20H0z"/>
    </clipPath>
  </defs>
</svg>
