<svg width="32" height="32" viewBox="0 0 32 32" fill="none" xmlns="http://www.w3.org/2000/svg">
<path fill-rule="evenodd" clip-rule="evenodd" d="M22.0872 22.5349C21.8713 22.3462 21.8494 22.0181 22.0381 21.8024C22.227 21.5869 22.555 21.5649 22.7707 21.7537L24.6698 23.421L27.4005 18.9304C27.5498 18.6855 27.8695 18.6082 28.1146 18.7576C28.3596 18.907 28.437 19.2268 28.2876 19.4716L25.2359 24.4901L25.2354 24.4897C25.22 24.5146 25.2028 24.5385 25.183 24.5611C24.9944 24.7769 24.6661 24.7989 24.4504 24.6101L22.0872 22.5349ZM25.1365 16.1364C28.215 16.1364 30.7105 18.6317 30.7105 21.7103C30.7105 24.7887 28.215 27.2842 25.1365 27.2842C22.058 27.2842 19.5624 24.7887 19.5624 21.7103C19.5624 18.6316 22.058 16.1364 25.1365 16.1364ZM24.0996 28.2448L22.6267 31.6246L21.9044 30.0876L20.2866 30.6053L21.6991 27.3636C22.4201 27.803 23.2316 28.108 24.0996 28.2448ZM26.1734 28.2448L27.6463 31.6246L28.3686 30.0876L29.9862 30.605L28.5739 27.3636C27.8529 27.803 27.0411 28.108 26.1734 28.2448ZM13.7889 0.375L17.9626 2.78438L5.46311 10.0011V13.4368L9.59424 15.8219V12.3863L22.0936 5.16956L26.2886 7.59156V15.1948C25.9143 15.1291 25.5293 15.0946 25.1364 15.0946C21.4826 15.0946 18.5207 18.0564 18.5207 21.7103C18.5207 23.2203 19.0272 24.6119 19.8788 25.7254L13.7889 29.2416L1.28955 22.0246V7.5915L13.7889 0.375Z" fill="#4494DE"/>
</svg>
