<svg width="99" height="18" viewBox="0 0 99 18" fill="none" xmlns="http://www.w3.org/2000/svg">
<path d="M8.80788 1.65797C9.06452 1.0432 9.93548 1.0432 10.1921 1.65797L11.8375 5.5994C11.94 5.84509 12.1651 6.01799 12.429 6.0537L16.7876 6.64362C17.4378 6.73162 17.6695 7.55311 17.1612 7.96792L13.8047 10.7069C13.5832 10.8876 13.4837 11.1786 13.5482 11.4571L14.6207 16.0919C14.7758 16.762 14.0222 17.27 13.4592 16.8748L9.93086 14.3985C9.67229 14.217 9.32771 14.217 9.06914 14.3985L5.54077 16.8749C4.97773 17.27 4.22414 16.7621 4.37921 16.0919L5.45169 11.4571C5.51613 11.1786 5.41665 10.8876 5.19518 10.7069L1.8388 7.96792C1.33048 7.5531 1.56222 6.73162 2.2124 6.64362L6.57102 6.0537C6.83485 6.01799 7.05998 5.84509 7.16254 5.5994L8.80788 1.65797Z" fill="url(#paint0_linear_2_7526)"/>
<path d="M28.8079 1.65797C29.0645 1.0432 29.9355 1.0432 30.1921 1.65797L31.8375 5.5994C31.94 5.84509 32.1651 6.01799 32.429 6.0537L36.7876 6.64362C37.4378 6.73162 37.6695 7.55311 37.1612 7.96792L33.8047 10.7069C33.5832 10.8876 33.4837 11.1786 33.5482 11.4571L34.6207 16.0919C34.7758 16.762 34.0222 17.27 33.4592 16.8748L29.9309 14.3985C29.6723 14.217 29.3277 14.217 29.0691 14.3985L25.5408 16.8749C24.9777 17.27 24.2241 16.7621 24.3792 16.0919L25.4517 11.4571C25.5161 11.1786 25.4167 10.8876 25.1952 10.7069L21.8388 7.96792C21.3305 7.5531 21.5622 6.73162 22.2124 6.64362L26.571 6.0537C26.8349 6.01799 27.06 5.84509 27.1625 5.5994L28.8079 1.65797Z" fill="url(#paint1_linear_2_7526)"/>
<path d="M48.8079 1.65797C49.0645 1.0432 49.9355 1.0432 50.1921 1.65797L51.8375 5.5994C51.94 5.84509 52.1651 6.01799 52.429 6.0537L56.7876 6.64362C57.4378 6.73162 57.6695 7.55311 57.1612 7.96792L53.8047 10.7069C53.5832 10.8876 53.4837 11.1786 53.5482 11.4571L54.6207 16.0919C54.7758 16.762 54.0222 17.27 53.4592 16.8748L49.9309 14.3985C49.6723 14.217 49.3277 14.217 49.0691 14.3985L45.5408 16.8749C44.9777 17.27 44.2241 16.7621 44.3792 16.0919L45.4517 11.4571C45.5161 11.1786 45.4167 10.8876 45.1952 10.7069L41.8388 7.96792C41.3305 7.5531 41.5622 6.73162 42.2124 6.64362L46.571 6.0537C46.8349 6.01799 47.06 5.84509 47.1625 5.5994L48.8079 1.65797Z" fill="url(#paint2_linear_2_7526)"/>
<path d="M68.8079 1.65797C69.0645 1.0432 69.9355 1.0432 70.1921 1.65797L71.8375 5.5994C71.94 5.84509 72.1651 6.01799 72.429 6.0537L76.7876 6.64362C77.4378 6.73162 77.6695 7.55311 77.1612 7.96792L73.8047 10.7069C73.5832 10.8876 73.4837 11.1786 73.5482 11.4571L74.6207 16.0919C74.7758 16.762 74.0222 17.27 73.4592 16.8748L69.9309 14.3985C69.6723 14.217 69.3277 14.217 69.0691 14.3985L65.5408 16.8749C64.9777 17.27 64.2241 16.7621 64.3792 16.0919L65.4517 11.4571C65.5161 11.1786 65.4167 10.8876 65.1952 10.7069L61.8388 7.96792C61.3305 7.5531 61.5622 6.73162 62.2124 6.64362L66.571 6.0537C66.8349 6.01799 67.06 5.84509 67.1625 5.5994L68.8079 1.65797Z" fill="url(#paint3_linear_2_7526)"/>
<path d="M88.8079 1.65797C89.0645 1.0432 89.9355 1.0432 90.1921 1.65797L91.8375 5.5994C91.94 5.84509 92.1651 6.01799 92.429 6.0537L96.7876 6.64362C97.4378 6.73162 97.6695 7.55311 97.1612 7.96792L93.8047 10.7069C93.5832 10.8876 93.4837 11.1786 93.5482 11.4571L94.6207 16.0919C94.7758 16.762 94.0222 17.27 93.4592 16.8748L89.9309 14.3985C89.6723 14.217 89.3277 14.217 89.0691 14.3985L85.5408 16.8749C84.9777 17.27 84.2241 16.7621 84.3792 16.0919L85.4517 11.4571C85.5161 11.1786 85.4167 10.8876 85.1952 10.7069L81.8388 7.96792C81.3305 7.5531 81.5622 6.73162 82.2124 6.64362L86.571 6.0537C86.8349 6.01799 87.06 5.84509 87.1625 5.5994L88.8079 1.65797Z" fill="url(#paint4_linear_2_7526)"/>
<defs>
<linearGradient id="paint0_linear_2_7526" x1="7.04546" y1="5.72727" x2="15.6966" y2="8.29289" gradientUnits="userSpaceOnUse">
<stop stop-color="#EDC948"/>
<stop offset="1" stop-color="#F3A228"/>
</linearGradient>
<linearGradient id="paint1_linear_2_7526" x1="27.0455" y1="5.72727" x2="35.6966" y2="8.29289" gradientUnits="userSpaceOnUse">
<stop stop-color="#EDC948"/>
<stop offset="1" stop-color="#F3A228"/>
</linearGradient>
<linearGradient id="paint2_linear_2_7526" x1="47.0455" y1="5.72727" x2="55.6966" y2="8.29289" gradientUnits="userSpaceOnUse">
<stop stop-color="#EDC948"/>
<stop offset="1" stop-color="#F3A228"/>
</linearGradient>
<linearGradient id="paint3_linear_2_7526" x1="67.0455" y1="5.72727" x2="75.6966" y2="8.29289" gradientUnits="userSpaceOnUse">
<stop stop-color="#EDC948"/>
<stop offset="1" stop-color="#F3A228"/>
</linearGradient>
<linearGradient id="paint4_linear_2_7526" x1="87.0455" y1="5.72727" x2="95.6966" y2="8.29289" gradientUnits="userSpaceOnUse">
<stop stop-color="#EDC948"/>
<stop offset="1" stop-color="#F3A228"/>
</linearGradient>
</defs>
</svg>
