<svg width="236" height="40" viewBox="0 0 236 40" fill="none" xmlns="http://www.w3.org/2000/svg">
<path d="M34.5947 14.0511V9.37128C34.5947 8.31945 34.1768 7.31069 33.4331 6.56694C32.6893 5.82318 31.6806 5.40534 30.6287 5.40534H26.0481L22.796 2.15327C22.0529 1.41461 21.0477 1 20 1C18.9523 1 17.9471 1.41461 17.204 2.15327L14.0511 5.40534H9.37128C8.31945 5.40534 7.31069 5.82318 6.56694 6.56694C5.82318 7.31069 5.40534 8.31945 5.40534 9.37128V14.0511L2.15327 17.204C1.41461 17.9471 1 18.9523 1 20C1 21.0477 1.41461 22.0529 2.15327 22.796L5.40534 26.0481V30.6287C5.40534 31.6806 5.82318 32.6893 6.56694 33.4331C7.31069 34.1768 8.31945 34.5947 9.37128 34.5947H14.0511L17.204 37.8467C17.9471 38.5854 18.9523 39 20 39C21.0477 39 22.0529 38.5854 22.796 37.8467L26.0481 34.5947H30.6287C31.6806 34.5947 32.6893 34.1768 33.4331 33.4331C34.1768 32.6893 34.5947 31.6806 34.5947 30.6287V26.0481L37.8467 22.796C38.5854 22.0529 39 21.0477 39 20C39 18.9523 38.5854 17.9471 37.8467 17.204L34.5947 14.0511Z" fill="#4494DE"/>
<path d="M18.5126 24.9574C18.2517 24.9589 17.993 24.9088 17.7514 24.8102C17.5098 24.7115 17.29 24.5661 17.1047 24.3823L14.0509 21.4078C13.6775 21.0344 13.4678 20.528 13.4678 19.9999C13.4678 19.4719 13.6775 18.9654 14.0509 18.592C14.4243 18.2186 14.9308 18.0089 15.4589 18.0089C15.9869 18.0089 16.4934 18.2186 16.8668 18.592L18.4333 20.1784L22.9743 15.6176C23.3477 15.2231 23.8625 14.9932 24.4055 14.9783C24.9484 14.9634 25.475 15.1649 25.8695 15.5383C26.2639 15.9117 26.4938 16.4264 26.5087 16.9694C26.5236 17.5123 26.3222 18.039 25.9488 18.4334L19.9999 24.3823C19.8053 24.5759 19.5726 24.7269 19.3166 24.8259C19.0606 24.9249 18.7868 24.9697 18.5126 24.9574Z" fill="white"/>
<path d="M50.03 5.495H52.16L54.83 12.215L57.5 5.495H59.63L55.4 15.5H54.23L50.03 5.495ZM66.3433 5.495V7.175H62.7433V9.41H66.1933V11.09H62.7433V13.82H66.3433V15.5H60.7933V5.495H66.3433ZM68.2347 5.495H71.1297C72.2297 5.495 73.0797 5.745 73.6797 6.245C74.3397 6.805 74.6697 7.555 74.6697 8.495C74.6697 9.535 74.2797 10.32 73.4997 10.85C73.1997 11.06 72.8347 11.205 72.4047 11.285L75.5247 15.5H73.0947L70.4247 11.48H70.1847V15.5H68.2347V5.495ZM70.1847 7.085V10.1H70.7397C70.8997 10.1 71.0547 10.09 71.2047 10.07C71.3647 10.04 71.5697 9.985 71.8197 9.905C72.0697 9.815 72.2697 9.66 72.4197 9.44C72.5797 9.21 72.6597 8.925 72.6597 8.585C72.6597 8.245 72.5847 7.965 72.4347 7.745C72.2847 7.515 72.0847 7.36 71.8347 7.28C71.5847 7.19 71.3847 7.135 71.2347 7.115C71.0847 7.095 70.9297 7.085 70.7697 7.085H70.1847ZM76.848 5.495H78.798V15.5H76.848V5.495ZM86.3914 5.495V7.175H83.0314V9.41H86.1814V11.09H83.0314V15.5H81.0814V5.495H86.3914ZM88.0687 5.495H90.0187V15.5H88.0687V5.495ZM97.8521 5.495V7.175H94.2521V9.41H97.7021V11.09H94.2521V13.82H97.8521V15.5H92.3021V5.495H97.8521ZM99.7435 5.495H102.354C103.144 5.495 103.834 5.565 104.424 5.705C105.014 5.835 105.564 6.09 106.074 6.47C106.684 6.93 107.154 7.51 107.484 8.21C107.824 8.91 107.994 9.675 107.994 10.505C107.994 12.255 107.324 13.6 105.984 14.54C105.444 14.92 104.894 15.175 104.334 15.305C103.774 15.435 103.104 15.5 102.324 15.5H99.7435V5.495ZM101.694 7.175V13.82H102.294C103.314 13.82 104.129 13.6 104.739 13.16C105.129 12.88 105.434 12.505 105.654 12.035C105.874 11.555 105.984 11.045 105.984 10.505C105.984 9.975 105.874 9.475 105.654 9.005C105.444 8.525 105.144 8.135 104.754 7.835C104.164 7.395 103.344 7.175 102.294 7.175H101.694ZM113.293 5.495H116.203C116.823 5.495 117.328 5.55 117.718 5.66C118.118 5.76 118.493 5.96 118.843 6.26C119.523 6.86 119.863 7.665 119.863 8.675C119.863 9.615 119.588 10.36 119.038 10.91C118.448 11.5 117.603 11.795 116.503 11.795H115.243V15.5H113.293V5.495ZM115.243 7.175V10.115H116.038C116.608 10.115 117.033 10.01 117.313 9.8C117.673 9.52 117.853 9.13 117.853 8.63C117.853 8.14 117.668 7.76 117.298 7.49C116.998 7.28 116.538 7.175 115.918 7.175H115.243ZM123.256 5.495V9.365H127.486V5.495H129.436V15.5H127.486V11.045H123.256V15.5H121.306V5.495H123.256ZM138.531 15.5L137.646 13.4H133.611L132.726 15.5H130.611L134.916 5.495H136.446L140.631 15.5H138.531ZM134.226 11.81H137.076L135.651 8.21L134.226 11.81ZM141.799 5.495H144.694C145.794 5.495 146.644 5.745 147.244 6.245C147.904 6.805 148.234 7.555 148.234 8.495C148.234 9.535 147.844 10.32 147.064 10.85C146.764 11.06 146.399 11.205 145.969 11.285L149.089 15.5H146.659L143.989 11.48H143.749V15.5H141.799V5.495ZM143.749 7.085V10.1H144.304C144.464 10.1 144.619 10.09 144.769 10.07C144.929 10.04 145.134 9.985 145.384 9.905C145.634 9.815 145.834 9.66 145.984 9.44C146.144 9.21 146.224 8.925 146.224 8.585C146.224 8.245 146.149 7.965 145.999 7.745C145.849 7.515 145.649 7.36 145.399 7.28C145.149 7.19 144.949 7.135 144.799 7.115C144.649 7.095 144.494 7.085 144.334 7.085H143.749ZM149.902 15.5L151.762 5.495H153.172L155.827 11.855L158.602 5.495H160.012L161.692 15.5H159.712L158.812 9.335L156.127 15.5H155.467L152.902 9.335L151.882 15.5H149.902ZM170.274 15.5L169.389 13.4H165.354L164.469 15.5H162.354L166.659 5.495H168.189L172.374 15.5H170.274ZM165.969 11.81H168.819L167.394 8.21L165.969 11.81ZM180.48 12.86V15.14C179.74 15.53 178.915 15.725 178.005 15.725C176.545 15.725 175.325 15.26 174.345 14.33C173.275 13.3 172.74 12.025 172.74 10.505C172.74 8.885 173.275 7.58 174.345 6.59C175.285 5.71 176.51 5.27 178.02 5.27C178.9 5.27 179.72 5.475 180.48 5.885V8.165C179.83 7.415 179.025 7.04 178.065 7.04C177.085 7.04 176.285 7.385 175.665 8.075C175.055 8.755 174.75 9.575 174.75 10.535C174.75 11.585 175.09 12.42 175.77 13.04C176.45 13.65 177.24 13.955 178.14 13.955C179.08 13.955 179.86 13.59 180.48 12.86ZM184.538 15.5V10.925L181.103 5.495H183.413L185.558 8.975L187.703 5.495H190.013L186.488 10.925V15.5H184.538ZM200.561 6.44L199.541 7.775C199.111 7.205 198.566 6.92 197.906 6.92C197.426 6.92 197.076 7.04 196.856 7.28C196.636 7.51 196.526 7.78 196.526 8.09C196.526 8.36 196.631 8.585 196.841 8.765C197.001 8.915 197.401 9.105 198.041 9.335C199.031 9.675 199.706 10.01 200.066 10.34C200.636 10.85 200.921 11.55 200.921 12.44C200.921 13.42 200.596 14.215 199.946 14.825C199.306 15.425 198.471 15.725 197.441 15.725C196.001 15.725 194.851 15.095 193.991 13.835L195.266 12.62C195.486 13.07 195.791 13.405 196.181 13.625C196.571 13.845 196.966 13.955 197.366 13.955C197.816 13.955 198.186 13.83 198.476 13.58C198.766 13.32 198.911 12.985 198.911 12.575C198.911 12.225 198.781 11.925 198.521 11.675C198.281 11.455 197.766 11.21 196.976 10.94C196.236 10.69 195.681 10.4 195.311 10.07C194.781 9.61 194.516 8.99 194.516 8.21C194.516 7.4 194.791 6.71 195.341 6.14C195.891 5.56 196.686 5.27 197.726 5.27C198.856 5.27 199.801 5.66 200.561 6.44ZM207.888 7.175H205.638V15.5H203.688V7.175H201.438V5.495H207.888V7.175ZM209.689 6.74C210.689 5.76 211.974 5.27 213.544 5.27C215.114 5.27 216.394 5.76 217.384 6.74C218.384 7.72 218.884 8.975 218.884 10.505C218.884 12.035 218.384 13.29 217.384 14.27C216.394 15.24 215.114 15.725 213.544 15.725C211.974 15.725 210.689 15.24 209.689 14.27C208.699 13.29 208.204 12.035 208.204 10.505C208.204 8.975 208.699 7.72 209.689 6.74ZM211.144 12.995C211.764 13.635 212.564 13.955 213.544 13.955C214.524 13.955 215.324 13.635 215.944 12.995C216.564 12.345 216.874 11.515 216.874 10.505C216.874 9.495 216.559 8.665 215.929 8.015C215.309 7.365 214.514 7.04 213.544 7.04C212.574 7.04 211.774 7.365 211.144 8.015C210.524 8.665 210.214 9.495 210.214 10.505C210.214 11.515 210.524 12.345 211.144 12.995ZM220.681 5.495H223.576C224.676 5.495 225.526 5.745 226.126 6.245C226.786 6.805 227.116 7.555 227.116 8.495C227.116 9.535 226.726 10.32 225.946 10.85C225.646 11.06 225.281 11.205 224.851 11.285L227.971 15.5H225.541L222.871 11.48H222.631V15.5H220.681V5.495ZM222.631 7.085V10.1H223.186C223.346 10.1 223.501 10.09 223.651 10.07C223.811 10.04 224.016 9.985 224.266 9.905C224.516 9.815 224.716 9.66 224.866 9.44C225.026 9.21 225.106 8.925 225.106 8.585C225.106 8.245 225.031 7.965 224.881 7.745C224.731 7.515 224.531 7.36 224.281 7.28C224.031 7.19 223.831 7.135 223.681 7.115C223.531 7.095 223.376 7.085 223.216 7.085H222.631ZM234.844 5.495V7.175H231.244V9.41H234.694V11.09H231.244V13.82H234.844V15.5H229.294V5.495H234.844Z" fill="#262D38"/>
<path d="M51.946 35.5H50.882L52.436 25.644L56.02 33.526L59.674 25.63L61.13 35.5H60.066L59.184 29.004L56.006 35.892L52.87 29.004L51.946 35.5ZM67.9519 34.8C67.3733 35.3787 66.6406 35.668 65.7539 35.668C64.8673 35.668 64.1299 35.3787 63.5419 34.8C62.9633 34.2213 62.6739 33.4933 62.6739 32.616C62.6739 31.7293 62.9633 30.9967 63.5419 30.418C64.1299 29.8393 64.8673 29.55 65.7539 29.55C66.6406 29.55 67.3733 29.8393 67.9519 30.418C68.5399 30.9967 68.8339 31.7293 68.8339 32.616C68.8339 33.4933 68.5399 34.2213 67.9519 34.8ZM67.1959 31.02C66.8039 30.6373 66.3233 30.446 65.7539 30.446C65.1846 30.446 64.6993 30.642 64.2979 31.034C63.9059 31.4167 63.7099 31.944 63.7099 32.616C63.7099 33.288 63.9106 33.8153 64.3119 34.198C64.7133 34.5807 65.1939 34.772 65.7539 34.772C66.3139 34.772 66.7946 34.5807 67.1959 34.198C67.5973 33.8153 67.7979 33.288 67.7979 32.616C67.7979 31.9347 67.5973 31.4027 67.1959 31.02ZM70.3797 35.5V29.69H71.3877V30.32C71.7144 29.8067 72.1531 29.55 72.7037 29.55C72.9837 29.55 73.2824 29.6293 73.5997 29.788L73.1237 30.698C72.9371 30.5673 72.7411 30.502 72.5357 30.502C72.1811 30.502 71.9104 30.6233 71.7237 30.866C71.4997 31.1647 71.3877 31.6873 71.3877 32.434V35.5H70.3797ZM78.4925 33.554L79.3325 34.016C79.1365 34.3893 78.8985 34.702 78.6185 34.954C78.0865 35.43 77.4425 35.668 76.6865 35.668C75.9025 35.668 75.2258 35.416 74.6565 34.912C74.0965 34.3987 73.8165 33.638 73.8165 32.63C73.8165 31.7433 74.0685 31.0107 74.5725 30.432C75.0858 29.844 75.7718 29.55 76.6305 29.55C77.6012 29.55 78.3338 29.9047 78.8285 30.614C79.2205 31.174 79.4025 31.902 79.3745 32.798H74.8525C74.8618 33.386 75.0438 33.862 75.3985 34.226C75.7532 34.59 76.1872 34.772 76.7005 34.772C77.1578 34.772 77.5545 34.632 77.8905 34.352C78.1518 34.128 78.3525 33.862 78.4925 33.554ZM74.9225 31.958H78.3385C78.2545 31.5007 78.0538 31.1367 77.7365 30.866C77.4285 30.586 77.0598 30.446 76.6305 30.446C76.2105 30.446 75.8372 30.5907 75.5105 30.88C75.1932 31.16 74.9972 31.5193 74.9225 31.958ZM86.9603 35.5V27.142H85.3923L85.9383 26.162H87.9963V35.5H86.9603ZM96.6747 34.268C96.0307 35.2013 95.2327 35.668 94.2807 35.668C93.3287 35.668 92.5307 35.2013 91.8867 34.268C91.2614 33.3627 90.9487 32.2193 90.9487 30.838C90.9487 29.4567 91.2614 28.3133 91.8867 27.408C92.5307 26.4747 93.3287 26.008 94.2807 26.008C95.2327 26.008 96.0307 26.4747 96.6747 27.408C97.3 28.3133 97.6127 29.4567 97.6127 30.838C97.6127 32.2193 97.3 33.3627 96.6747 34.268ZM95.8907 27.996C95.4614 27.3053 94.9247 26.96 94.2807 26.96C93.6367 26.96 93.1 27.3053 92.6707 27.996C92.2134 28.724 91.9847 29.6713 91.9847 30.838C91.9847 32.0047 92.2134 32.952 92.6707 33.68C93.1 34.3707 93.6367 34.716 94.2807 34.716C94.9247 34.716 95.4614 34.3707 95.8907 33.68C96.348 32.952 96.5767 32.0047 96.5767 30.838C96.5767 29.6713 96.348 28.724 95.8907 27.996ZM104.632 34.268C103.988 35.2013 103.19 35.668 102.238 35.668C101.286 35.668 100.488 35.2013 99.8437 34.268C99.2184 33.3627 98.9057 32.2193 98.9057 30.838C98.9057 29.4567 99.2184 28.3133 99.8437 27.408C100.488 26.4747 101.286 26.008 102.238 26.008C103.19 26.008 103.988 26.4747 104.632 27.408C105.257 28.3133 105.57 29.4567 105.57 30.838C105.57 32.2193 105.257 33.3627 104.632 34.268ZM103.848 27.996C103.418 27.3053 102.882 26.96 102.238 26.96C101.594 26.96 101.057 27.3053 100.628 27.996C100.17 28.724 99.9417 29.6713 99.9417 30.838C99.9417 32.0047 100.17 32.952 100.628 33.68C101.057 34.3707 101.594 34.716 102.238 34.716C102.882 34.716 103.418 34.3707 103.848 33.68C104.305 32.952 104.534 32.0047 104.534 30.838C104.534 29.6713 104.305 28.724 103.848 27.996ZM116.934 35.5L115.842 32.868H111.866L110.746 35.5H109.598L113.896 25.714L118.082 35.5H116.934ZM112.272 31.888H115.436L113.868 28.15L112.272 31.888ZM120.155 34.688V38.72H119.147V29.69H120.155V30.502C120.669 29.8673 121.331 29.55 122.143 29.55C123.011 29.55 123.697 29.858 124.201 30.474C124.715 31.0807 124.971 31.7993 124.971 32.63C124.971 33.47 124.719 34.1887 124.215 34.786C123.711 35.374 123.035 35.668 122.185 35.668C121.336 35.668 120.659 35.3413 120.155 34.688ZM122.045 34.772C122.615 34.772 123.072 34.5667 123.417 34.156C123.763 33.736 123.935 33.2273 123.935 32.63C123.935 31.958 123.744 31.426 123.361 31.034C122.979 30.642 122.535 30.446 122.031 30.446C121.527 30.446 121.079 30.642 120.687 31.034C120.295 31.426 120.099 31.9533 120.099 32.616C120.099 33.2227 120.277 33.736 120.631 34.156C120.995 34.5667 121.467 34.772 122.045 34.772ZM127.524 34.688V38.72H126.516V29.69H127.524V30.502C128.038 29.8673 128.7 29.55 129.512 29.55C130.38 29.55 131.066 29.858 131.57 30.474C132.084 31.0807 132.34 31.7993 132.34 32.63C132.34 33.47 132.088 34.1887 131.584 34.786C131.08 35.374 130.404 35.668 129.554 35.668C128.705 35.668 128.028 35.3413 127.524 34.688ZM129.414 34.772C129.984 34.772 130.441 34.5667 130.786 34.156C131.132 33.736 131.304 33.2273 131.304 32.63C131.304 31.958 131.113 31.426 130.73 31.034C130.348 30.642 129.904 30.446 129.4 30.446C128.896 30.446 128.448 30.642 128.056 31.034C127.664 31.426 127.468 31.9533 127.468 32.616C127.468 33.2227 127.646 33.736 128 34.156C128.364 34.5667 128.836 34.772 129.414 34.772ZM133.886 35.5V29.69H134.894V30.32C135.22 29.8067 135.659 29.55 136.21 29.55C136.49 29.55 136.788 29.6293 137.106 29.788L136.63 30.698C136.443 30.5673 136.247 30.502 136.042 30.502C135.687 30.502 135.416 30.6233 135.23 30.866C135.006 31.1647 134.894 31.6873 134.894 32.434V35.5H133.886ZM142.6 34.8C142.022 35.3787 141.289 35.668 140.402 35.668C139.516 35.668 138.778 35.3787 138.19 34.8C137.612 34.2213 137.322 33.4933 137.322 32.616C137.322 31.7293 137.612 30.9967 138.19 30.418C138.778 29.8393 139.516 29.55 140.402 29.55C141.289 29.55 142.022 29.8393 142.6 30.418C143.188 30.9967 143.482 31.7293 143.482 32.616C143.482 33.4933 143.188 34.2213 142.6 34.8ZM141.844 31.02C141.452 30.6373 140.972 30.446 140.402 30.446C139.833 30.446 139.348 30.642 138.946 31.034C138.554 31.4167 138.358 31.944 138.358 32.616C138.358 33.288 138.559 33.8153 138.96 34.198C139.362 34.5807 139.842 34.772 140.402 34.772C140.962 34.772 141.443 34.5807 141.844 34.198C142.246 33.8153 142.446 33.288 142.446 32.616C142.446 31.9347 142.246 31.4027 141.844 31.02ZM144.188 29.69H145.308L147.044 33.61L148.78 29.69H149.9L147.044 35.878L144.188 29.69ZM155.274 33.554L156.114 34.016C155.918 34.3893 155.68 34.702 155.4 34.954C154.868 35.43 154.224 35.668 153.468 35.668C152.684 35.668 152.007 35.416 151.438 34.912C150.878 34.3987 150.598 33.638 150.598 32.63C150.598 31.7433 150.85 31.0107 151.354 30.432C151.867 29.844 152.553 29.55 153.412 29.55C154.382 29.55 155.115 29.9047 155.61 30.614C156.002 31.174 156.184 31.902 156.156 32.798H151.634C151.643 33.386 151.825 33.862 152.18 34.226C152.534 34.59 152.968 34.772 153.482 34.772C153.939 34.772 154.336 34.632 154.672 34.352C154.933 34.128 155.134 33.862 155.274 33.554ZM151.704 31.958H155.12C155.036 31.5007 154.835 31.1367 154.518 30.866C154.21 30.586 153.841 30.446 153.412 30.446C152.992 30.446 152.618 30.5907 152.292 30.88C151.974 31.16 151.778 31.5193 151.704 31.958ZM162.154 30.516V25.294H163.162V35.5H162.154V34.688C161.65 35.3413 160.987 35.668 160.166 35.668C159.382 35.668 158.715 35.3973 158.164 34.856C157.613 34.3147 157.338 33.5587 157.338 32.588C157.338 31.636 157.609 30.894 158.15 30.362C158.701 29.8207 159.373 29.55 160.166 29.55C161.006 29.55 161.669 29.872 162.154 30.516ZM160.278 30.446C159.746 30.446 159.293 30.6373 158.92 31.02C158.556 31.3933 158.374 31.916 158.374 32.588C158.374 33.232 158.542 33.7593 158.878 34.17C159.223 34.5713 159.69 34.772 160.278 34.772C160.866 34.772 161.333 34.562 161.678 34.142C162.033 33.722 162.21 33.2087 162.21 32.602C162.21 31.9113 162.014 31.3793 161.622 31.006C161.23 30.6327 160.782 30.446 160.278 30.446ZM172.889 30.11V31.314C172.431 30.7353 171.825 30.446 171.069 30.446C170.499 30.446 170.014 30.642 169.613 31.034C169.211 31.4167 169.011 31.944 169.011 32.616C169.011 33.288 169.211 33.8153 169.613 34.198C170.014 34.5807 170.495 34.772 171.055 34.772C171.801 34.772 172.427 34.4687 172.931 33.862V35.066C172.38 35.4673 171.764 35.668 171.083 35.668C170.177 35.668 169.431 35.3833 168.843 34.814C168.264 34.2353 167.975 33.5073 167.975 32.63C167.975 31.7433 168.269 31.0107 168.857 30.432C169.445 29.844 170.187 29.55 171.083 29.55C171.755 29.55 172.357 29.7367 172.889 30.11ZM178.789 33.554L179.629 34.016C179.433 34.3893 179.195 34.702 178.915 34.954C178.383 35.43 177.739 35.668 176.983 35.668C176.199 35.668 175.523 35.416 174.953 34.912C174.393 34.3987 174.113 33.638 174.113 32.63C174.113 31.7433 174.365 31.0107 174.869 30.432C175.383 29.844 176.069 29.55 176.927 29.55C177.898 29.55 178.631 29.9047 179.125 30.614C179.517 31.174 179.699 31.902 179.671 32.798H175.149C175.159 33.386 175.341 33.862 175.695 34.226C176.05 34.59 176.484 34.772 176.997 34.772C177.455 34.772 177.851 34.632 178.187 34.352C178.449 34.128 178.649 33.862 178.789 33.554ZM175.219 31.958H178.635C178.551 31.5007 178.351 31.1367 178.033 30.866C177.725 30.586 177.357 30.446 176.927 30.446C176.507 30.446 176.134 30.5907 175.807 30.88C175.49 31.16 175.294 31.5193 175.219 31.958ZM181.218 35.5V29.69H182.226V30.32C182.552 29.8067 182.991 29.55 183.542 29.55C183.822 29.55 184.12 29.6293 184.438 29.788L183.962 30.698C183.775 30.5673 183.579 30.502 183.374 30.502C183.019 30.502 182.748 30.6233 182.562 30.866C182.338 31.1647 182.226 31.6873 182.226 32.434V35.5H181.218ZM187.678 30.614H186.67V35.5H185.662V30.614H185.046V29.69H185.662V27.59H186.67V29.69H187.678V30.614ZM188.628 29.69H189.636V35.5H188.628V29.69ZM188.628 27.996C188.488 27.856 188.418 27.688 188.418 27.492C188.418 27.296 188.488 27.128 188.628 26.988C188.768 26.848 188.936 26.778 189.132 26.778C189.328 26.778 189.496 26.848 189.636 26.988C189.776 27.128 189.846 27.296 189.846 27.492C189.846 27.688 189.776 27.856 189.636 27.996C189.496 28.136 189.328 28.206 189.132 28.206C188.936 28.206 188.768 28.136 188.628 27.996ZM194.004 30.614H192.576V35.5H191.568V30.614H191.008V29.69H191.568V27.506C191.568 26.806 191.68 26.2973 191.904 25.98C192.287 25.4107 192.926 25.126 193.822 25.126C194.737 25.126 195.376 25.4107 195.74 25.98C195.964 26.344 196.076 26.8527 196.076 27.506V27.744H195.068V27.506C195.068 27.1047 195.003 26.8013 194.872 26.596C194.676 26.2973 194.326 26.148 193.822 26.148C193.318 26.148 192.968 26.2973 192.772 26.596C192.641 26.7827 192.576 27.086 192.576 27.506V29.69H194.004V30.614ZM195.068 29.69H196.076V35.5H195.068V29.69ZM202.529 30.11V31.314C202.072 30.7353 201.465 30.446 200.709 30.446C200.14 30.446 199.655 30.642 199.253 31.034C198.852 31.4167 198.651 31.944 198.651 32.616C198.651 33.288 198.852 33.8153 199.253 34.198C199.655 34.5807 200.135 34.772 200.695 34.772C201.442 34.772 202.067 34.4687 202.571 33.862V35.066C202.021 35.4673 201.405 35.668 200.723 35.668C199.818 35.668 199.071 35.3833 198.483 34.814C197.905 34.2353 197.615 33.5073 197.615 32.63C197.615 31.7433 197.909 31.0107 198.497 30.432C199.085 29.844 199.827 29.55 200.723 29.55C201.395 29.55 201.997 29.7367 202.529 30.11ZM208.57 30.516V29.69H209.578V35.5H208.57V34.688C208.066 35.3413 207.403 35.668 206.582 35.668C205.798 35.668 205.131 35.3973 204.58 34.856C204.029 34.3147 203.754 33.5587 203.754 32.588C203.754 31.636 204.025 30.894 204.566 30.362C205.117 29.8207 205.789 29.55 206.582 29.55C207.422 29.55 208.085 29.872 208.57 30.516ZM206.694 30.446C206.162 30.446 205.709 30.6373 205.336 31.02C204.972 31.3933 204.79 31.916 204.79 32.588C204.79 33.232 204.958 33.7593 205.294 34.17C205.639 34.5713 206.106 34.772 206.694 34.772C207.282 34.772 207.749 34.562 208.094 34.142C208.449 33.722 208.626 33.2087 208.626 32.602C208.626 31.9113 208.43 31.3793 208.038 31.006C207.646 30.6327 207.198 30.446 206.694 30.446ZM213.531 30.614H212.523V35.5H211.515V30.614H210.899V29.69H211.515V27.59H212.523V29.69H213.531V30.614ZM218.793 33.554L219.633 34.016C219.437 34.3893 219.199 34.702 218.919 34.954C218.387 35.43 217.743 35.668 216.987 35.668C216.203 35.668 215.527 35.416 214.957 34.912C214.397 34.3987 214.117 33.638 214.117 32.63C214.117 31.7433 214.369 31.0107 214.873 30.432C215.387 29.844 216.073 29.55 216.931 29.55C217.902 29.55 218.635 29.9047 219.129 30.614C219.521 31.174 219.703 31.902 219.675 32.798H215.153C215.163 33.386 215.345 33.862 215.699 34.226C216.054 34.59 216.488 34.772 217.001 34.772C217.459 34.772 217.855 34.632 218.191 34.352C218.453 34.128 218.653 33.862 218.793 33.554ZM215.223 31.958H218.639C218.555 31.5007 218.355 31.1367 218.037 30.866C217.729 30.586 217.361 30.446 216.931 30.446C216.511 30.446 216.138 30.5907 215.811 30.88C215.494 31.16 215.298 31.5193 215.223 31.958ZM224.442 30.6L223.616 31.034C223.457 30.642 223.186 30.446 222.804 30.446C222.608 30.446 222.44 30.502 222.3 30.614C222.169 30.726 222.104 30.8893 222.104 31.104C222.104 31.3 222.164 31.4493 222.286 31.552C222.416 31.6453 222.668 31.7713 223.042 31.93C223.779 32.238 224.264 32.5367 224.498 32.826C224.703 33.078 224.806 33.3907 224.806 33.764C224.806 34.352 224.614 34.8187 224.232 35.164C223.858 35.5 223.382 35.668 222.804 35.668C222.692 35.668 222.57 35.654 222.44 35.626C222.309 35.6073 222.127 35.5607 221.894 35.486C221.67 35.402 221.455 35.248 221.25 35.024C221.044 34.8 220.886 34.52 220.774 34.184L221.642 33.82C221.875 34.4547 222.267 34.772 222.818 34.772C223.126 34.772 223.359 34.6787 223.518 34.492C223.686 34.3053 223.77 34.0907 223.77 33.848C223.77 33.7173 223.746 33.6053 223.7 33.512C223.662 33.4093 223.592 33.3207 223.49 33.246C223.396 33.1713 223.303 33.1107 223.21 33.064C223.126 33.0173 223 32.9567 222.832 32.882C222.085 32.5553 221.614 32.2707 221.418 32.028C221.24 31.804 221.152 31.5193 221.152 31.174C221.152 30.67 221.306 30.2733 221.614 29.984C221.931 29.6947 222.342 29.55 222.846 29.55C223.583 29.55 224.115 29.9 224.442 30.6Z" fill="#262D38"/>
</svg>
