<svg width="16" height="17" viewBox="0 0 16 17" fill="none" xmlns="http://www.w3.org/2000/svg">
<g clip-path="url(#clip0_1_5980)">
<path d="M8 17C12.4183 17 16 13.1944 16 8.5C16 3.80558 12.4183 0 8 0C3.58172 0 0 3.80558 0 8.5C0 13.1944 3.58172 17 8 17Z" fill="#F0F0F0"/>
<path d="M1.65355 3.32503C1.02514 4.19372 0.551297 5.19496 0.275391 6.28266H4.4372L1.65355 3.32503Z" fill="#0052B4"/>
<path d="M15.7242 6.28266C15.4483 5.19499 14.9745 4.19375 14.3461 3.32506L11.5625 6.28266H15.7242Z" fill="#0052B4"/>
<path d="M0.275391 10.7174C0.551328 11.8051 1.02517 12.8063 1.65355 13.675L4.43711 10.7174H0.275391Z" fill="#0052B4"/>
<path d="M12.8705 1.75714C12.0529 1.08946 11.1106 0.586 10.0869 0.292816V4.71471L12.8705 1.75714Z" fill="#0052B4"/>
<path d="M3.12939 15.2429C3.94699 15.9105 4.88933 16.414 5.91302 16.7072V12.2853L3.12939 15.2429Z" fill="#0052B4"/>
<path d="M5.91299 0.292816C4.8893 0.586 3.94696 1.08946 3.12939 1.75711L5.91299 4.71468V0.292816Z" fill="#0052B4"/>
<path d="M10.0869 16.7072C11.1106 16.414 12.0529 15.9105 12.8705 15.2429L10.0869 12.2853V16.7072Z" fill="#0052B4"/>
<path d="M11.5625 10.7174L14.3461 13.675C14.9745 12.8064 15.4483 11.8051 15.7242 10.7174H11.5625Z" fill="#0052B4"/>
<path d="M15.9323 7.39131H9.04353H9.0435V0.0719512C8.70191 0.0247031 8.35366 0 8 0C7.64628 0 7.29809 0.0247031 6.95653 0.0719512V7.39125V7.39128H0.0677188C0.02325 7.75422 0 8.12424 0 8.5C0 8.87583 0.02325 9.24578 0.0677188 9.60869H6.95647H6.9565V16.928C7.29809 16.9753 7.64628 17 8 17C8.35366 17 8.70191 16.9753 9.04347 16.928V9.60875V9.60872H15.9323C15.9768 9.24578 16 8.87583 16 8.5C16 8.12424 15.9768 7.75422 15.9323 7.39131Z" fill="#D80027"/>
<path d="M10.0869 10.7174L13.6568 14.5104C13.821 14.336 13.9776 14.1537 14.127 13.9647L11.0707 10.7174H10.0869V10.7174Z" fill="#D80027"/>
<path d="M5.91317 10.7174H5.91311L2.34326 14.5104C2.50739 14.6848 2.67898 14.8513 2.85686 15.01L5.91317 11.7626V10.7174Z" fill="#D80027"/>
<path d="M5.91317 6.28266V6.2826L2.3433 2.48957C2.17911 2.66395 2.02248 2.84627 1.87305 3.03526L4.92939 6.28263H5.91317V6.28266Z" fill="#D80027"/>
<path d="M10.0869 6.28266L13.6568 2.48961C13.4927 2.31516 13.3211 2.14874 13.1432 1.99L10.0869 5.23736V6.28266Z" fill="#D80027"/>
</g>
<defs>
<clipPath id="clip0_1_5980">
<rect width="16" height="17" fill="white"/>
</clipPath>
</defs>
</svg>
