<svg xmlns="http://www.w3.org/2000/svg" width="18" height="18" fill="none" viewBox="0 0 18 18">
  <g clip-path="url(#a)">
    <path fill="#D80027" d="M9 18A9 9 0 1 0 9 0a9 9 0 0 0 0 18Z"/>
    <path fill="#FFDA44" d="m4.925 5.477.777 2.39h2.514L6.184 9.349l.777 2.39-2.036-1.476L2.89 11.74l.78-2.391-2.035-1.48h2.513l.777-2.39Zm5.745 8.463-.594-.732-.88.341.51-.79-.594-.736.91.243.514-.791.05.942.913.243-.882.337.053.942Zm1.181-2.145.281-.9-.77-.545.943-.014.277-.9.306.893.942-.01-.756.562.303.893-.77-.545-.756.566Zm1.593-5.189-.415.847.675.657-.931-.133-.415.844-.162-.928-.935-.134.837-.44-.162-.931.675.657.833-.44ZM10.695 4.04l-.07.938.875.355-.918.225-.067.942-.495-.801-.918.225.608-.72-.499-.799.875.355.609-.72Z"/>
  </g>
  <defs>
    <clipPath id="a">
      <path fill="#fff" d="M0 0h18v18H0z"/>
    </clipPath>
  </defs>
</svg>
