<svg xmlns="http://www.w3.org/2000/svg" width="18" height="18" fill="none" viewBox="0 0 18 18">
  <g clip-path="url(#a)">
    <path fill="#F0F0F0" d="M9 18A9 9 0 1 0 9 0a9 9 0 0 0 0 18Z"/>
    <path fill="#D80027" d="M8.609 9H18a9 9 0 0 0-.31-2.348H8.609V9Zm0-4.696h8.07a9.047 9.047 0 0 0-2.077-2.347H8.61v2.347ZM9 18a8.962 8.962 0 0 0 5.602-1.956H3.398A8.962 8.962 0 0 0 9 18Zm-7.679-4.304h15.358a8.946 8.946 0 0 0 1.01-2.348H.31a8.946 8.946 0 0 0 1.011 2.348Z"/>
    <path fill="#0052B4" d="M9 9V0a9 9 0 0 0-9 9h9Z"/>
    <path fill="#FFDA44" d="M5.985 7.704A2.226 2.226 0 1 1 7.043 3.52a2.74 2.74 0 1 0 0 3.916c-.314.17-.675.268-1.058.268Z"/>
    <path fill="#FFDA44" d="m6.612 3.913.395.826.892-.206-.4.824.718.57-.893.2.002.916-.714-.573-.715.573.003-.915-.894-.202.718-.569-.4-.824.893.206.395-.826Z"/>
  </g>
  <defs>
    <clipPath id="a">
      <path fill="#fff" d="M0 0h18v18H0z"/>
    </clipPath>
  </defs>
</svg>
