<svg xmlns="http://www.w3.org/2000/svg" width="18" height="18" fill="none" viewBox="0 0 18 18">
  <g clip-path="url(#a)">
    <path fill="#6DA544" d="M0 9a9.003 9.003 0 0 0 5.87 8.44L6.652 9 5.87.56A9.003 9.003 0 0 0 0 9Z"/>
    <path fill="#D80027" d="M18 9A9 9 0 0 0 5.87.56v16.88A9 9 0 0 0 18 9Z"/>
    <path fill="#FFDA44" d="M5.87 12.13a3.13 3.13 0 1 0 0-6.26 3.13 3.13 0 0 0 0 6.26Z"/>
    <path fill="#D80027" d="M4.109 7.435V9.39a1.76 1.76 0 0 0 3.522 0V7.435H4.109Z"/>
    <path fill="#F0F0F0" d="M5.87 9.978a.588.588 0 0 1-.587-.587V8.61h1.173v.782a.588.588 0 0 1-.586.587Z"/>
  </g>
  <defs>
    <clipPath id="a">
      <path fill="#fff" d="M0 0h18v18H0z"/>
    </clipPath>
  </defs>
</svg>
