<svg width="97" height="50" viewBox="0 0 97 50" fill="none" xmlns="http://www.w3.org/2000/svg">
<g clip-path="url(#clip0_8713_7455)">
<path d="M21.1064 30.0426L23.234 20H9.12766L7 30.0426H21.1064Z" fill="white"/>
<path d="M17.4893 22.1064C19.1276 22.4894 19.1702 22.8937 19.1702 22.8937C20.234 22.8937 20.5106 22.8937 20.7021 23.0851C21.3191 23.6596 20.2766 25.0639 20.2766 25.0639C20.1489 25.149 8.40424 29.7447 8.40424 29.7447H20.7659L22.7447 20.4043H9.46807C9.46807 20.4043 17.2979 22.0639 17.4893 22.1064Z" fill="#333366"/>
<path d="M18.7021 23.4682C18.5319 23.5533 18.0213 23.6384 17.8511 23.6597C17.6809 23.6809 17.5958 23.6809 17.5958 23.7235C17.5958 23.7873 17.8298 23.766 17.9149 23.766C18.2979 23.766 19.8085 23.6597 20.1702 23.7235C20.4468 23.766 20.1277 24.3192 20.0426 24.6597C20.0213 24.7873 20.1064 24.7235 20.149 24.6597C20.2553 24.4895 20.5532 23.9363 20.5745 23.7235C20.617 23.298 20.3192 23.2341 19.8085 23.2341H19.0213C18.9575 23.2341 18.9362 23.2554 18.9149 23.298C18.8511 23.3618 18.7447 23.4256 18.7021 23.4682Z" fill="#333366"/>
<path d="M13.8085 26.617L7.48938 29.7447L9.0213 22.5745H15.4043C15.5107 22.5745 18.8298 22.5745 18.8936 23.234H13.149L14.0426 25.9574C15.0639 25.4681 17.5745 24.4468 19.0851 24.383C19.7234 24.3617 19.9787 24.4681 19.8511 24.5532C19.766 24.5957 19.149 24.6808 18.6596 24.8085C17.8085 25.0213 17.766 25.0213 16.8724 25.3191C15.8724 25.6596 15.0426 26.0425 13.8085 26.617Z" fill="#333366"/>
<path d="M27.0425 29.9574C24.5745 29.9574 23.1064 28.9787 23.5957 26.7872C24.4042 22.9999 24.9362 20.468 24.9362 20.468H27C27 20.468 25.7447 26.2978 25.7872 26.1701C25.4681 27.617 25.7872 28.4893 27.3617 28.4893C28.8723 28.4893 29.6383 27.617 29.9574 26.1701C30.1489 25.3404 31.1702 20.468 31.1702 20.468H33.234C31.8511 26.7872 33.234 20.468 31.8723 26.7872C31.3617 28.9574 29.4893 29.9574 27.0425 29.9574Z" fill="#333366"/>
<path d="M44.2554 26.234C43.9362 26.234 43.2554 26.1914 42.9149 26.1276L43.1702 24.7872C43.4256 24.8084 43.766 24.851 44.0851 24.851C45.4894 24.851 46 23.8935 46.1064 23.3191C46.3192 22.2978 45.8085 21.9361 45.0639 21.9361H43.383L41.7234 29.7872H39.6596L41.6383 20.468H46.1064C48.1277 20.468 48.3617 22.234 48.1064 23.4042C47.7234 25.1489 46.0851 26.234 44.2554 26.234Z" fill="#333366"/>
<path d="M39.8936 21.9574H37.7021C36.5745 21.9574 36.0851 22.1914 35.9787 22.6382C35.6596 24.1276 39.6808 25.2978 39.2979 27.5957C39.0851 28.8723 37.9787 29.7872 35.4042 29.7872H32.2553L32.5745 28.2978H35.0851C35.8723 28.2978 36.8298 28.3404 37 27.5531C37.2979 26.2127 33.3404 24.8935 33.6383 22.6595C33.8298 21.3191 35.0213 20.468 37.4255 20.468H40.1915L39.8936 21.9574Z" fill="#333366"/>
<path d="M55.2341 21.9574H53.0426C51.9149 21.9574 51.4256 22.1914 51.3192 22.6382C51 24.1276 55.0213 25.2978 54.6383 27.5957C54.4256 28.8723 53.3192 29.7872 50.7447 29.7872H47.5958L47.9149 28.2978H50.4468C51.2341 28.2978 52.1915 28.3404 52.3617 27.5531C52.6596 26.2127 48.7021 24.8935 49 22.6595C49.1915 21.3191 50.383 20.468 52.7873 20.468H55.5532L55.2341 21.9574Z" fill="#333366"/>
<path d="M55.9362 28.1277C55.4894 28.1277 55.1064 28.4894 55.1064 28.9575C55.1064 29.4043 55.4681 29.7873 55.9362 29.7873C56.383 29.7873 56.766 29.4256 56.766 28.9575C56.766 28.4894 56.383 28.1277 55.9362 28.1277Z" fill="#333366"/>
<path fill-rule="evenodd" clip-rule="evenodd" d="M86.8298 20.4255L84.8085 29.766H83.0851L84.617 22.8298L80.5106 29.766H78.7447L77.766 23.2766L76.3404 29.766H74.6383L76.617 20.4255H79.0851L80.1277 27.2979L84.1277 20.4255H86.8298Z" fill="#333366"/>
<path d="M61.383 29.9575C60.149 29.9575 59.0426 29.6809 58.2341 29.0852C57.4256 28.4895 56.9362 27.5533 56.9362 26.298C56.9362 25.915 56.9788 25.5107 57.0852 25.0639C57.766 21.7235 60.5532 20.2341 63.383 20.2341C64.0639 20.2341 64.8086 20.3192 65.4681 20.4469L65.6171 20.4682L65.2766 21.9788L65.149 21.9575C64.6809 21.915 64.3618 21.8724 63.9362 21.8724C63.5532 21.8724 63.1915 21.8937 62.7873 21.9363C61.7873 22.0852 61.4894 22.2554 60.9362 22.6171C60.1064 23.1277 59.383 24.0001 59.1277 25.149C59.0639 25.4469 59.0213 25.7235 59.0213 25.9788C59.0213 26.8086 59.3618 27.3831 59.9575 27.766C60.532 28.149 61.383 28.3618 62.3405 28.3618C62.9149 28.3618 63.1915 28.3405 63.7447 28.2767L63.9575 28.2554L63.6384 29.7235L63.532 29.7448C62.766 29.8724 62.1703 29.9575 61.383 29.9575Z" fill="#333366"/>
<path d="M70.7872 20.4043C67.9362 20.4043 65.5745 21.8937 64.8936 25.149C64.3404 27.766 65.9362 29.9149 68.766 29.9149C71.6383 29.9149 73.9362 28.4894 74.6596 25.149C75.2128 22.4256 73.5958 20.4043 70.7872 20.4043ZM72.7447 25.1703C72.2979 27.5107 70.8936 28.5107 69.1277 28.5107C67.383 28.5107 66.4255 27 66.7447 25.1703C67.1702 22.8724 68.617 21.8511 70.3617 21.8511C72.1064 21.8298 73.1064 23.2554 72.7447 25.1703Z" fill="#333366"/>
<path d="M87.8511 21.5959C87.8511 21.0427 88.2766 20.6171 88.8085 20.6171C89.3404 20.6171 89.766 21.0427 89.766 21.5959C89.766 22.1703 89.3404 22.5959 88.8085 22.5959C88.2553 22.5959 87.8511 22.1703 87.8511 21.5959ZM87.6383 21.5959C87.6383 22.2554 88.1702 22.7661 88.8085 22.7661C89.4468 22.7661 89.9787 22.2554 89.9787 21.5959C89.9787 20.9363 89.4468 20.4469 88.8085 20.4469C88.1702 20.4257 87.6383 20.9363 87.6383 21.5959ZM88.3617 22.2767H88.5745V21.7022H88.8085L89.1702 22.298H89.4043L89.0213 21.7022C89.2341 21.681 89.383 21.5746 89.383 21.3405C89.383 21.0852 89.2341 20.9576 88.9149 20.9576H88.383V22.2767M88.5745 21.0852H88.8511C89 21.0852 89.1489 21.1065 89.1489 21.298C89.1489 21.5108 88.9787 21.532 88.7872 21.532H88.5745V21.0852Z" fill="#333366"/>
</g>
<defs>
<clipPath id="clip0_8713_7455">
<rect width="82.9787" height="10" fill="white" transform="translate(7 20)"/>
</clipPath>
</defs>
</svg>
