<svg xmlns="http://www.w3.org/2000/svg" width="30" height="30" fill="none" viewBox="0 0 30 30">
  <rect width="30" height="30" fill="#404EED" rx="15"/>
  <path fill="#fff" d="M20.692 10.47c-1.363-1.097-3.518-1.283-3.61-1.29a.34.34 0 0 0-.34.201 2.271 2.271 0 0 0-.104.285c.902.153 2.01.459 3.011 1.08a.341.341 0 0 1 .02.57.341.341 0 0 1-.381.013c-1.723-1.07-3.873-1.123-4.288-1.123-.414 0-2.567.054-4.288 1.123a.343.343 0 1 1-.361-.583c1.002-.62 2.11-.927 3.01-1.078-.051-.17-.099-.277-.102-.287a.337.337 0 0 0-.34-.2c-.093.007-2.248.192-3.63 1.304-.72.667-2.164 4.567-2.164 7.939 0 .06.016.118.046.17.995 1.75 3.711 2.206 4.33 2.227h.01a.342.342 0 0 0 .278-.14l.626-.862c-1.69-.436-2.552-1.177-2.602-1.221a.342.342 0 1 1 .454-.514c.02.02 1.609 1.367 4.733 1.367 3.13 0 4.718-1.353 4.735-1.367a.342.342 0 0 1 .451.514c-.049.044-.912.785-2.6 1.22l.625.862a.342.342 0 0 0 .277.14h.01c.62-.02 3.336-.477 4.332-2.226a.346.346 0 0 0 .045-.17c0-3.372-1.443-7.272-2.183-7.954Zm-7.918 6.584c-.662 0-1.198-.612-1.198-1.37 0-.756.536-1.369 1.198-1.369.663 0 1.199.613 1.199 1.37 0 .757-.536 1.37-1.199 1.37Zm4.452 0c-.663 0-1.199-.612-1.199-1.37 0-.756.536-1.369 1.198-1.369.663 0 1.199.613 1.199 1.37 0 .757-.536 1.37-1.198 1.37Z"/>
</svg>
