<svg xmlns="http://www.w3.org/2000/svg" width="30" height="30" fill="none" viewBox="0 0 30 30">
  <rect width="30" height="30" fill="#3A76F0" rx="15"/>
  <path fill="#fff" fill-rule="evenodd" d="m13.335 7.125-.212-.852a9.369 9.369 0 0 0-2.595 1.075l.451.75a8.5 8.5 0 0 1 2.356-.973Zm4.08 0 .212-.852a9.43 9.43 0 0 1 2.597 1.072l-.453.753a8.5 8.5 0 0 0-2.356-.973ZM6.273 13.123a9.369 9.369 0 0 1 1.075-2.595l.75.451a8.5 8.5 0 0 0-.973 2.356l-.852-.212Zm.7.98a8.57 8.57 0 0 0 0 2.546l-.868.13a9.437 9.437 0 0 1 0-2.809l.869.132Zm12.798 8.546.45.753a9.344 9.344 0 0 1-2.592 1.072l-.211-.852a8.4 8.4 0 0 0 2.353-.973Zm4.005-6.001a8.56 8.56 0 0 0 0-2.546l.869-.132c.14.932.14 1.878 0 2.81l-.869-.132Zm-.151.764.852.212a9.428 9.428 0 0 1-1.072 2.598l-.753-.454a8.48 8.48 0 0 0 .973-2.356Zm-9.655 7.233.132-.869a8.585 8.585 0 0 0 2.546 0l.132.869c-.932.14-1.878.14-2.81 0Zm6.444-2.433a8.459 8.459 0 0 0 1.8-1.798l.71.525a9.42 9.42 0 0 1-1.988 1.98l-.522-.707Zm1.8-11.876a8.472 8.472 0 0 0-1.8-1.8l.528-.707a9.385 9.385 0 0 1 1.98 1.98l-.707.527Zm-11.878-1.8a8.47 8.47 0 0 0-1.8 1.8l-.707-.528a9.383 9.383 0 0 1 1.98-1.98l.527.707Zm12.313 2.443.753-.45a9.23 9.23 0 0 1 1.072 2.592l-.852.211a8.4 8.4 0 0 0-.973-2.353Zm-6.001-4.005a8.588 8.588 0 0 0-2.546 0l-.132-.869a9.437 9.437 0 0 1 2.81 0l-.132.869ZM7.172 23.578l1.814-.423.2.863-1.814.415a.88.88 0 0 1-.821-.233.88.88 0 0 1-.234-.822l.423-1.815.855.2-.423 1.815Zm.605-2.603-.855-.198.214-.93a9.326 9.326 0 0 1-.863-2.226l.852-.212c.2.811.52 1.59.946 2.307l-.294 1.259Zm1.99 2.001 1.256-.294.008-.005c.718.428 1.493.75 2.301.95l-.211.853a9.276 9.276 0 0 1-2.23-.863l-.926.214-.198-.855Z" clip-rule="evenodd"/>
  <path fill="#fff" d="M15.375 7.757a7.617 7.617 0 0 0-6.444 11.67L8.2 22.553l3.126-.731a7.618 7.618 0 1 0 4.05-14.064Z"/>
</svg>
