<svg xmlns="http://www.w3.org/2000/svg" width="30" height="30" fill="none" viewBox="0 0 30 30">
  <path fill="#00AEF3" d="M15 30c8.284 0 15-6.716 15-15 0-8.284-6.716-15-15-15C6.716 0 0 6.716 0 15c0 8.284 6.716 15 15 15Z"/>
  <path fill="#fff" fill-rule="evenodd" d="M23 18.637c0-.697-.166-1.354-.46-1.939.116-.52.176-1.06.176-1.615 0-4.155-3.416-7.524-7.631-7.524-.444 0-.88.038-1.305.11A4.447 4.447 0 0 0 11.426 7C8.981 7 7 8.953 7 11.364a4.3 4.3 0 0 0 .608 2.207 7.48 7.48 0 0 0-.155 1.512c0 4.156 3.417 7.525 7.632 7.525a7.85 7.85 0 0 0 1.398-.126c.623.33 1.334.518 2.092.518C21.019 23 23 21.046 23 18.637ZM19.534 17c0 .62-.181 1.184-.535 1.678-.353.494-.874.883-1.551 1.16-.669.274-1.47.414-2.384.414-1.096 0-2.015-.19-2.733-.566a3.542 3.542 0 0 1-1.256-1.1c-.324-.46-.488-.917-.488-1.359a.94.94 0 0 1 .318-.71c.209-.194.477-.291.797-.291.261 0 .488.076.672.23.175.147.326.365.447.644.136.306.283.564.438.765.15.197.366.36.64.49.277.128.65.194 1.109.194.63 0 1.148-.133 1.537-.395.38-.255.565-.563.565-.939a.922.922 0 0 0-.294-.713 2.137 2.137 0 0 0-.815-.444 16.501 16.501 0 0 0-1.4-.342c-.793-.167-1.465-.364-2-.59-.547-.229-.988-.547-1.311-.945-.327-.405-.494-.912-.494-1.508 0-.568.174-1.08.518-1.522.34-.439.84-.782 1.482-1.015.633-.23 1.386-.347 2.239-.347.681 0 1.28.077 1.78.231.504.154.927.362 1.26.619.336.26.587.535.743.822.158.29.239.58.239.858 0 .27-.106.514-.314.726a1.053 1.053 0 0 1-.783.324c-.283 0-.505-.068-.657-.202-.143-.125-.292-.32-.456-.598a2.493 2.493 0 0 0-.685-.836c-.257-.193-.685-.29-1.275-.29-.545 0-.991.108-1.322.323-.317.205-.473.441-.473.721 0 .17.05.315.154.437.107.132.26.245.454.341.2.1.407.18.614.235.212.058.568.145 1.056.256a17.7 17.7 0 0 1 1.687.436c.509.16.947.356 1.306.587.365.234.654.535.86.895.206.362.31.807.31 1.326Z" clip-rule="evenodd"/>
</svg>
