<svg width="20" height="20" viewBox="0 0 20 20" fill="none" xmlns="http://www.w3.org/2000/svg">
<g clip-path="url(#clip0_72_3387)">
<path d="M20 10C20 15.5228 15.5228 20 10 20C4.47719 20 0 15.5228 0 10C0 10.0023 10 0.00113281 10 0C15.5228 0 20 4.47719 20 10Z" fill="#0052B4"/>
<path d="M10.0002 0C9.99967 0 9.99908 3.90625e-05 9.99854 3.90625e-05L10.0002 0Z" fill="#F0F0F0"/>
<path d="M9.97314 10H9.9999C9.9999 9.99094 9.9999 9.98227 9.9999 9.97324C9.991 9.98219 9.98209 9.9911 9.97314 10Z" fill="#F0F0F0"/>
<path d="M10 5.21742C10 3.45785 10 2.30484 10 3.8147e-05H9.99832C4.47625 0.000936584 0 4.47769 0 10H5.21738V7.06203L8.15535 10H9.97328C9.98223 9.99109 9.99113 9.98219 10 9.97324C10 9.29953 10 8.6984 10 8.15543L7.06203 5.21742H10Z" fill="#F0F0F0"/>
<path d="M5.05904 1.30434C3.49502 2.19492 2.19479 3.49516 1.3042 5.05918V10H3.91291V3.91309V3.91305H9.99986C9.99986 3.09027 9.99986 2.30645 9.99986 1.30434H5.05904Z" fill="#D80027"/>
<path d="M9.99986 8.77028L6.44701 5.21746H5.21729C5.21729 5.21742 5.21729 5.21746 5.21729 5.21746L9.99982 10H9.99986C9.99986 10 9.99986 9.15215 9.99986 8.77028Z" fill="#D80027"/>
<path d="M6.03107 11.7391L6.5799 12.8867L7.81924 12.6003L7.26424 13.7449L8.26088 14.5352L7.01998 14.8149L7.02346 16.0869L6.03107 15.2911L5.03873 16.0869L5.04221 14.8149L3.80127 14.5352L4.79795 13.7449L4.24287 12.6003L5.48229 12.8867L6.03107 11.7391Z" fill="#F0F0F0"/>
<path d="M14.9718 13.913L15.2462 14.4868L15.8659 14.3436L15.5884 14.9159L16.0867 15.3111L15.4663 15.4509L15.468 16.0869L14.9718 15.689L14.4756 16.0869L14.4774 15.4509L13.8569 15.3111L14.3553 14.9159L14.0778 14.3436L14.6974 14.4868L14.9718 13.913Z" fill="#F0F0F0"/>
<path d="M12.4191 7.82609L12.6935 8.39992L13.3132 8.25663L13.0357 8.82894L13.534 9.22413L12.9136 9.36398L12.9153 9.99999L12.4191 9.60206L11.9229 9.99999L11.9246 9.36398L11.3042 9.22413L11.8025 8.82894L11.525 8.25663L12.1447 8.39992L12.4191 7.82609Z" fill="#F0F0F0"/>
<path d="M14.9718 4.34781L15.2462 4.92164L15.8659 4.77839L15.5884 5.3507L16.0867 5.74586L15.4663 5.88574L15.468 6.52175L14.9718 6.12382L14.4756 6.52175L14.4774 5.88574L13.8569 5.74586L14.3552 5.3507L14.0778 4.77839L14.6974 4.92164L14.9718 4.34781Z" fill="#F0F0F0"/>
<path d="M17.2018 6.95652L17.4762 7.53035L18.0959 7.38707L17.8184 7.95937L18.3167 8.35457L17.6963 8.49445L17.698 9.13043L17.2018 8.73254L16.7057 9.13043L16.7073 8.49445L16.0869 8.35457L16.5852 7.95937L16.3077 7.38707L16.9274 7.53035L17.2018 6.95652Z" fill="#F0F0F0"/>
<path d="M15.6072 10L15.823 10.6643H16.5215L15.9564 11.0749L16.1723 11.7391L15.6072 11.3286L15.0421 11.7391L15.2579 11.0749L14.6929 10.6643H15.3913L15.6072 10Z" fill="#F0F0F0"/>
</g>
<defs>
<clipPath id="clip0_72_3387">
<rect width="20" height="20" fill="white"/>
</clipPath>
</defs>
</svg>
