<svg xmlns="http://www.w3.org/2000/svg" width="18" height="18" fill="none" viewBox="0 0 18 18">
  <g clip-path="url(#a)">
    <path fill="#F0F0F0" d="M9 18A9 9 0 1 0 9 0a9 9 0 0 0 0 18Z"/>
    <path fill="#D80027" d="M7.043 7.826h10.88A8.998 8.998 0 0 0 7.043.214v7.612Zm-2.347 0V1.094a9.006 9.006 0 0 0-4.62 6.732h4.62Zm0 2.348H.076a9.005 9.005 0 0 0 4.62 6.732v-6.732Zm2.347 0v7.612a9.001 9.001 0 0 0 10.881-7.612H7.044Z"/>
  </g>
  <defs>
    <clipPath id="a">
      <path fill="#fff" d="M0 0h18v18H0z"/>
    </clipPath>
  </defs>
</svg>
