<svg xmlns="http://www.w3.org/2000/svg" width="18" height="18" fill="none" viewBox="0 0 18 18">
  <g clip-path="url(#a)">
    <path fill="#0052B4" d="M18 9A9 9 0 0 1 0 9c0 .002 9-8.999 9-9a9 9 0 0 1 9 9Z"/>
    <path fill="#F0F0F0" d="M8.976 9H9v-.024A6.834 6.834 0 0 1 8.976 9ZM9 4.696V0h-.002A9 9 0 0 0 0 9h4.696V6.356L7.34 9h1.636L9 8.976V7.34L6.356 4.696H9Z"/>
    <path fill="#D80027" d="M4.553 1.174a9.043 9.043 0 0 0-3.379 3.38V9h2.348V3.522H9V1.174H4.553Z"/>
    <path fill="#D80027" d="M9 7.893 5.802 4.696H4.696L9 9V7.893Zm6.586-1.215.194.598h.629l-.509.37.194.598-.508-.37-.509.37.194-.598-.508-.37h.629l.194-.598Zm-2.247 4.305.291.896h.943l-.763.555.292.897-.763-.555-.763.555.291-.897-.763-.554h.943l.292-.897Zm.085-7.043.242.747h.786l-.636.461.243.748-.635-.462-.636.462.243-.748-.636-.461h.786l.243-.748Zm-2.163 2.712.292.897h.943l-.763.554.291.897-.763-.554-.763.554.292-.897-.763-.554h.943l.291-.897Z"/>
  </g>
  <defs>
    <clipPath id="a">
      <path fill="#fff" d="M0 0h18v18H0z"/>
    </clipPath>
  </defs>
</svg>
