<svg width="32" height="32" viewBox="0 0 32 32" fill="none" xmlns="http://www.w3.org/2000/svg">
<path d="M17.41 22.04L29.46 9.39C29.03 9.15 28.53 9 28 9H24.36C23.65 12.97 20.18 16 16 16C11.82 16 8.35 12.97 7.64 9H4C3.47 9 2.98 9.15 2.54 9.39L14.59 22.04C15.32 22.8 16.67 22.8 17.4 22.04H17.41Z" fill="#BCBCBC"/>
<path d="M30.78 10.9L21.98 20.14L30.69 29.29C30.88 28.9 30.99 28.47 30.99 28.01V12C30.99 11.61 30.91 11.24 30.77 10.9H30.78Z" fill="#BCBCBC"/>
<path d="M18.85 23.42C18.11 24.2 17.07 24.64 16 24.64C14.93 24.64 13.89 24.19 13.15 23.42L11.4 21.58L2.71 30.7C3.1 30.89 3.53 31 4 31H28C28.46 31 28.89 30.89 29.29 30.7L20.61 21.59L18.86 23.43L18.85 23.42Z" fill="#BCBCBC"/>
<path d="M1.22 10.9C1.08 11.24 1 11.61 1 12V28C1 28.46 1.11 28.89 1.3 29.28L10.01 20.13L1.22 10.9Z" fill="#BCBCBC"/>
<path fill-rule="evenodd" clip-rule="evenodd" d="M16 14C19.58 14 22.5 11.08 22.5 7.5C22.5 3.92 19.58 1 16 1C12.42 1 9.5 3.92 9.5 7.5C9.5 11.08 12.42 14 16 14ZM14.23 6.67C13.86 6.26 13.22 6.24 12.82 6.61L12.81 6.6C12.41 6.97 12.38 7.6 12.76 8.01L14.52 9.92C14.71 10.12 14.98 10.24 15.25 10.24C15.52 10.24 15.79 10.13 15.98 9.92L19.22 6.42C19.6 6.02 19.58 5.39 19.17 5.01C18.77 4.64 18.14 4.66 17.76 5.07L15.26 7.78L14.23 6.67Z" fill="white"/>
</svg>
