<svg width="18" height="18" viewBox="0 0 18 18" fill="none" xmlns="http://www.w3.org/2000/svg">
<path d="M8.30788 1.65797C8.56452 1.0432 9.43548 1.0432 9.69212 1.65797L11.3375 5.5994C11.44 5.84509 11.6651 6.01799 11.929 6.0537L16.2876 6.64362C16.9378 6.73162 17.1695 7.55311 16.6612 7.96792L13.3047 10.7069C13.0832 10.8876 12.9837 11.1786 13.0482 11.4571L14.1207 16.0919C14.2758 16.762 13.5222 17.27 12.9592 16.8748L9.43086 14.3985C9.17229 14.217 8.82771 14.217 8.56914 14.3985L5.04077 16.8749C4.47773 17.27 3.72414 16.7621 3.87921 16.0919L4.95169 11.4571C5.01613 11.1786 4.91665 10.8876 4.69518 10.7069L1.3388 7.96792C0.830475 7.5531 1.06222 6.73162 1.7124 6.64362L6.07102 6.0537C6.33485 6.01799 6.55998 5.84509 6.66254 5.5994L8.30788 1.65797Z" fill="#FF9A42"/>
</svg>
