<svg xmlns="http://www.w3.org/2000/svg" xmlns:xlink="http://www.w3.org/1999/xlink"><defs><symbol viewBox="0 0 40 41" fill="none" id="bnb">
<path d="M39.4016 25.3381C36.7301 36.0525 25.877 42.5731 15.1601 39.9012C4.44772 37.2301 -2.07358 26.3775 0.599038 15.6639C3.26931 4.94838 14.1225 -1.57268 24.836 1.09847C35.5521 3.76961 42.073 14.6234 39.4013 25.3383L39.4015 25.3381H39.4016Z" fill="#F3BA2F" />
<path fill-rule="evenodd" clip-rule="evenodd" d="M20.0018 13.1934L14.8224 18.3722L14.8225 18.372L11.8089 15.3587L20.0018 7.16669L28.1974 15.3611L25.1838 18.3745L20.0018 13.1934ZM9.68077 17.4861L6.66699 20.5L9.68056 23.5128L12.6943 20.4994L9.68077 17.4861ZM14.8223 22.6281L20.0018 27.8067L25.1836 22.6257L28.1989 25.6374L28.1974 25.639L20.0018 33.8334L11.8089 25.6414L11.8046 25.6371L14.8223 22.6281ZM30.3231 17.4879L27.3093 20.5013L30.323 23.5145L33.3367 20.5011L30.3231 17.4879Z" fill="white" />
<path d="M23.0586 20.4984H23.0599L20.002 17.4407L17.7418 19.7L17.4822 19.9597L16.9466 20.4953L16.9424 20.4994L16.9466 20.5038L20.002 23.5593L23.0601 20.5016L23.0616 20.4999L23.0588 20.4984" fill="white" />
</symbol><symbol viewBox="0 0 40 41" fill="none" id="btc">
<path d="M39.4016 25.3381C36.7301 36.0525 25.877 42.5731 15.1601 39.9012C4.44772 37.2301 -2.07358 26.3775 0.599038 15.6639C3.26931 4.94838 14.1225 -1.57268 24.836 1.09847C35.5521 3.76961 42.073 14.6234 39.4013 25.3383L39.4015 25.3381H39.4016Z" fill="#F7931A" />
<path fill-rule="evenodd" clip-rule="evenodd" d="M28.8199 17.6504C29.218 14.9889 27.1915 13.5582 24.4203 12.6038L25.3193 8.99845L23.1244 8.45159L22.2492 11.962C21.6722 11.8181 21.0796 11.6825 20.4907 11.5481L21.3721 8.01451L19.1786 7.46765L18.2791 11.0718C17.8016 10.9631 17.3326 10.8557 16.8776 10.7425L16.8801 10.7311L13.8533 9.97534L13.2694 12.3194C13.2694 12.3194 14.8979 12.6926 14.8635 12.7156C15.7524 12.9374 15.9131 13.5257 15.8864 13.992L14.8624 18.0993C14.9236 18.1149 15.003 18.1374 15.0906 18.1726L15.0269 18.1567L15.0268 18.1566C14.9726 18.1431 14.9164 18.129 14.8586 18.1152L13.4232 23.8689C13.3146 24.1389 13.0389 24.5441 12.4175 24.3903C12.4395 24.4221 10.8222 23.9922 10.8222 23.9922L9.73242 26.5044L12.5887 27.2164C12.9015 27.2948 13.2106 27.3754 13.5166 27.4551L13.5168 27.4552C13.7306 27.5109 13.9428 27.5662 14.1536 27.6201L13.2454 31.2668L15.4377 31.8136L16.3372 28.2057C16.9362 28.3683 17.5174 28.5182 18.0864 28.6596L17.19 32.2505L19.385 32.7974L20.2932 29.1576C24.036 29.8658 26.8502 29.5803 28.0348 26.1953C28.9893 23.47 27.9873 21.898 26.0182 20.8729C27.4524 20.5422 28.5327 19.5991 28.8207 17.6507L28.82 17.6502L28.8199 17.6504ZM23.805 24.6818C23.1827 27.1821 19.2685 26.1484 17.4776 25.6755C17.3165 25.6329 17.1726 25.5949 17.0498 25.5644L18.2551 20.7332C18.4047 20.7706 18.5876 20.8116 18.7948 20.8581C20.6472 21.2738 24.4426 22.1254 23.8051 24.6818H23.805ZM19.1663 18.6158C20.6593 19.0142 23.9165 19.8834 24.4838 17.6108H24.484C25.0632 15.2866 21.8978 14.5859 20.3518 14.2436C20.1779 14.2051 20.0245 14.1712 19.8992 14.1399L18.8064 18.5216C18.9096 18.5473 19.0306 18.5796 19.1663 18.6158Z" fill="white" />
</symbol><symbol viewBox="0 0 24 24" fill="none" id="burger">
<path fill-rule="evenodd" clip-rule="evenodd" d="M10.8001 18C10.8001 17.3372 11.3374 16.8 12.0001 16.8H19.2001C19.8629 16.8 20.4001 17.3372 20.4001 18C20.4001 18.6628 19.8629 19.2 19.2001 19.2H12.0001C11.3374 19.2 10.8001 18.6628 10.8001 18ZM3.6001 6C3.6001 5.33726 4.13735 4.8 4.8001 4.8H19.2001C19.8629 4.8 20.4001 5.33726 20.4001 6C20.4001 6.66274 19.8629 7.2 19.2001 7.2H4.8001C4.13735 7.2 3.6001 6.66274 3.6001 6ZM3.6001 12C3.6001 11.3373 4.13735 10.8 4.8001 10.8H19.2001C19.8629 10.8 20.4001 11.3373 20.4001 12C20.4001 12.6628 19.8629 13.2 19.2001 13.2H4.8001C4.13735 13.2 3.6001 12.6628 3.6001 12Z" fill="currentColor" />
</symbol><symbol viewBox="0 0 40 41" fill="none" id="busd">
<circle cx="20" cy="20.5" r="20" fill="#F0B90B" />
<path d="M19.9405 7.16675L23.2292 10.5347L14.9479 18.816L11.6592 15.5273L19.9405 7.16675Z" fill="white" stroke="white" />
<path d="M24.933 12.1593L28.2217 15.5273L14.9479 28.8011L11.6592 25.5124L24.933 12.1593Z" fill="white" stroke="white" />
<path d="M9.95573 17.1518L13.2445 20.5198L9.95573 23.8085L6.66699 20.5198L9.95573 17.1518Z" fill="white" stroke="white" />
<path d="M29.9262 17.1518L33.2149 20.5198L19.9411 33.7936L16.6523 30.5049L29.9262 17.1518Z" fill="white" stroke="white" />
</symbol><symbol viewBox="0 0 24 24" fill="none" id="candy-box">
<path d="M5 7C4.60444 7 4.21776 6.8827 3.88886 6.66294C3.55996 6.44318 3.30362 6.13082 3.15224 5.76537C3.00087 5.39992 2.96126 4.99778 3.03843 4.60982C3.1156 4.22186 3.30608 3.86549 3.58579 3.58579C3.86549 3.30608 4.22186 3.1156 4.60982 3.03843C4.99778 2.96126 5.39992 3.00087 5.76537 3.15224C6.13082 3.30362 6.44318 3.55996 6.66294 3.88886C6.8827 4.21776 7 4.60444 7 5C7 5.53043 6.78929 6.03914 6.41421 6.41421C6.03914 6.78929 5.53043 7 5 7ZM14 5C14 4.60444 13.8827 4.21776 13.6629 3.88886C13.4432 3.55996 13.1308 3.30362 12.7654 3.15224C12.3999 3.00087 11.9978 2.96126 11.6098 3.03843C11.2219 3.1156 10.8655 3.30608 10.5858 3.58579C10.3061 3.86549 10.1156 4.22186 10.0384 4.60982C9.96126 4.99778 10.0009 5.39992 10.1522 5.76537C10.3036 6.13082 10.56 6.44318 10.8889 6.66294C11.2178 6.8827 11.6044 7 12 7C12.5304 7 13.0391 6.78929 13.4142 6.41421C13.7893 6.03914 14 5.53043 14 5ZM21 5C21 4.60444 20.8827 4.21776 20.6629 3.88886C20.4432 3.55996 20.1308 3.30362 19.7654 3.15224C19.3999 3.00087 18.9978 2.96126 18.6098 3.03843C18.2219 3.1156 17.8655 3.30608 17.5858 3.58579C17.3061 3.86549 17.1156 4.22186 17.0384 4.60982C16.9613 4.99778 17.0009 5.39992 17.1522 5.76537C17.3036 6.13082 17.56 6.44318 17.8889 6.66294C18.2178 6.8827 18.6044 7 19 7C19.5304 7 20.0391 6.78929 20.4142 6.41421C20.7893 6.03914 21 5.53043 21 5ZM7 12C7 11.6044 6.8827 11.2178 6.66294 10.8889C6.44318 10.56 6.13082 10.3036 5.76537 10.1522C5.39992 10.0009 4.99778 9.96126 4.60982 10.0384C4.22186 10.1156 3.86549 10.3061 3.58579 10.5858C3.30608 10.8655 3.1156 11.2219 3.03843 11.6098C2.96126 11.9978 3.00087 12.3999 3.15224 12.7654C3.30362 13.1308 3.55996 13.4432 3.88886 13.6629C4.21776 13.8827 4.60444 14 5 14C5.53043 14 6.03914 13.7893 6.41421 13.4142C6.78929 13.0391 7 12.5304 7 12ZM14 12C14 11.6044 13.8827 11.2178 13.6629 10.8889C13.4432 10.56 13.1308 10.3036 12.7654 10.1522C12.3999 10.0009 11.9978 9.96126 11.6098 10.0384C11.2219 10.1156 10.8655 10.3061 10.5858 10.5858C10.3061 10.8655 10.1156 11.2219 10.0384 11.6098C9.96126 11.9978 10.0009 12.3999 10.1522 12.7654C10.3036 13.1308 10.56 13.4432 10.8889 13.6629C11.2178 13.8827 11.6044 14 12 14C12.5304 14 13.0391 13.7893 13.4142 13.4142C13.7893 13.0391 14 12.5304 14 12ZM21 12C21 11.6044 20.8827 11.2178 20.6629 10.8889C20.4432 10.56 20.1308 10.3036 19.7654 10.1522C19.3999 10.0009 18.9978 9.96126 18.6098 10.0384C18.2219 10.1156 17.8655 10.3061 17.5858 10.5858C17.3061 10.8655 17.1156 11.2219 17.0384 11.6098C16.9613 11.9978 17.0009 12.3999 17.1522 12.7654C17.3036 13.1308 17.56 13.4432 17.8889 13.6629C18.2178 13.8827 18.6044 14 19 14C19.5304 14 20.0391 13.7893 20.4142 13.4142C20.7893 13.0391 21 12.5304 21 12ZM7 19C7 18.6044 6.8827 18.2178 6.66294 17.8889C6.44318 17.56 6.13082 17.3036 5.76537 17.1522C5.39992 17.0009 4.99778 16.9613 4.60982 17.0384C4.22186 17.1156 3.86549 17.3061 3.58579 17.5858C3.30608 17.8655 3.1156 18.2219 3.03843 18.6098C2.96126 18.9978 3.00087 19.3999 3.15224 19.7654C3.30362 20.1308 3.55996 20.4432 3.88886 20.6629C4.21776 20.8827 4.60444 21 5 21C5.53043 21 6.03914 20.7893 6.41421 20.4142C6.78929 20.0391 7 19.5304 7 19ZM14 19C14 18.6044 13.8827 18.2178 13.6629 17.8889C13.4432 17.56 13.1308 17.3036 12.7654 17.1522C12.3999 17.0009 11.9978 16.9613 11.6098 17.0384C11.2219 17.1156 10.8655 17.3061 10.5858 17.5858C10.3061 17.8655 10.1156 18.2219 10.0384 18.6098C9.96126 18.9978 10.0009 19.3999 10.1522 19.7654C10.3036 20.1308 10.56 20.4432 10.8889 20.6629C11.2178 20.8827 11.6044 21 12 21C12.5304 21 13.0391 20.7893 13.4142 20.4142C13.7893 20.0391 14 19.5304 14 19ZM21 19C21 18.6044 20.8827 18.2178 20.6629 17.8889C20.4432 17.56 20.1308 17.3036 19.7654 17.1522C19.3999 17.0009 18.9978 16.9613 18.6098 17.0384C18.2219 17.1156 17.8655 17.3061 17.5858 17.5858C17.3061 17.8655 17.1156 18.2219 17.0384 18.6098C16.9613 18.9978 17.0009 19.3999 17.1522 19.7654C17.3036 20.1308 17.56 20.4432 17.8889 20.6629C18.2178 20.8827 18.6044 21 19 21C19.5304 21 20.0391 20.7893 20.4142 20.4142C20.7893 20.0391 21 19.5304 21 19Z" fill="currentColor" />
</symbol><symbol viewBox="0 0 24 24" fill="none" id="cart">
<path d="M8 18C6.9 18 6.01 18.9 6.01 20C6.01 21.1 6.9 22 8 22C9.1 22 10 21.1 10 20C10 18.9 9.1 18 8 18ZM2 2V4H4L7.6 11.59L6.25 14.04C6.09 14.32 6 14.65 6 15C6 16.1 6.9 17 8 17H20V15H8.42C8.28 15 8.17 14.89 8.17 14.75L8.2 14.63L9.1 13H16.55C17.3 13 17.96 12.59 18.3 11.97L21.88 5.48C21.96 5.34 22 5.17 22 5C22 4.45 21.55 4 21 4H6.21L5.27 2H2ZM18 18C16.9 18 16.01 18.9 16.01 20C16.01 21.1 16.9 22 18 22C19.1 22 20 21.1 20 20C20 18.9 19.1 18 18 18Z" fill="currentColor" />
</symbol><symbol viewBox="0 0 24 24" fill="none" id="chevron">
<path fill-rule="evenodd" clip-rule="evenodd" d="M12.0002 15.5002C11.7442 15.5002 11.4883 15.4023 11.2933 15.2073L7.29325 11.2072C6.90225 10.8162 6.90225 10.1842 7.29325 9.79325C7.68425 9.40225 8.31625 9.40225 8.70725 9.79325L12.0122 13.0982L15.3053 9.91825C15.7043 9.53525 16.3352 9.54625 16.7192 9.94325C17.1032 10.3403 17.0922 10.9742 16.6952 11.3572L12.6953 15.2193C12.5002 15.4073 12.2502 15.5002 12.0002 15.5002Z" fill="currentColor" />

</symbol><mask id="chevron_mask0_156_10598" style="mask-type:alpha" maskUnits="userSpaceOnUse" x="7" y="9" width="10" height="7">
<path fill-rule="evenodd" clip-rule="evenodd" d="M12.0002 15.5002C11.7442 15.5002 11.4883 15.4023 11.2933 15.2073L7.29325 11.2072C6.90225 10.8162 6.90225 10.1842 7.29325 9.79325C7.68425 9.40225 8.31625 9.40225 8.70725 9.79325L12.0122 13.0982L15.3053 9.91825C15.7043 9.53525 16.3352 9.54625 16.7192 9.94325C17.1032 10.3403 17.0922 10.9742 16.6952 11.3572L12.6953 15.2193C12.5002 15.4073 12.2502 15.5002 12.0002 15.5002Z" fill="none" />
</mask><symbol viewBox="0 0 16 16" fill="none" id="chevron-down">
<path d="M12.6176 5.66666L7.97544 10.3088L3.33333 5.66666" stroke="currentColor" stroke-width="1.5" stroke-linecap="round" stroke-linejoin="round" />
</symbol><symbol viewBox="0 0 18 18" fill="none" id="chevron-down-small">
<path d="M12.4425 6.22125L9 9.65625L5.5575 6.22125L4.5 7.27875L9 11.7788L13.5 7.27875L12.4425 6.22125Z" fill="currentColor" />
</symbol><symbol viewBox="0 0 24 24" fill="none" id="chevron-left">
<path d="M15.5 5.07367L8.53683 12.0368L15.5 19" stroke="currentColor" stroke-width="1.5" stroke-linecap="round" stroke-linejoin="round" />
</symbol><symbol viewBox="0 0 24 24" fill="none" id="chevron-left-small">
<path d="M15.7051 7.41L11.1251 12L15.7051 16.59L14.2951 18L8.29508 12L14.2951 6L15.7051 7.41Z" fill="currentColor" />
</symbol><symbol viewBox="0 0 16 16" fill="none" id="chevron-right">
<path d="M5.66699 3.38245L10.3091 8.02456L5.66699 12.6667" stroke="currentColor" stroke-width="1.5" stroke-linecap="round" stroke-linejoin="round" />
</symbol><symbol viewBox="0 0 18 18" fill="none" id="chevron-right-small">
<path d="M6.22119 5.5575L9.65619 9L6.22119 12.4425L7.27869 13.5L11.7787 9L7.27869 4.5L6.22119 5.5575Z" fill="currentColor" />
</symbol><symbol viewBox="0 0 24 24" fill="none" id="close">
<path d="M6 6L18.7742 18.7742" stroke="currentColor" stroke-width="2" stroke-linecap="round" stroke-linejoin="round" />
<path d="M6 18.7742L18.7742 5.99998" stroke="currentColor" stroke-width="2" stroke-linecap="round" stroke-linejoin="round" />
</symbol><symbol viewBox="0 0 24 24" fill="none" id="close-thin">
<path d="M6 6L18.7742 18.7742" stroke="currentColor" stroke-width="1.5" stroke-linecap="round" stroke-linejoin="round" />
<path d="M6 18.7742L18.7742 5.99998" stroke="currentColor" stroke-width="1.5" stroke-linecap="round" stroke-linejoin="round" />
</symbol><symbol viewBox="0 0 32 32" fill="none" id="eth">
<circle cx="16" cy="16" r="16" fill="#DDDDDD" />
<path d="M15.9554 6.3999L15.8281 6.83224V19.3767L15.9554 19.5037L21.7783 16.0617L15.9554 6.3999Z" fill="#343434" />
<path d="M15.9558 6.3999L10.1328 16.0617L15.9558 19.5037V13.415V6.3999Z" fill="#8C8C8C" />
<path d="M15.9565 20.6062L15.8848 20.6937V25.1622L15.9565 25.3716L21.7829 17.166L15.9565 20.6062Z" fill="#3C3C3B" />
<path d="M15.9558 25.3716V20.6062L10.1328 17.166L15.9558 25.3716Z" fill="#8C8C8C" />
<path d="M15.9551 19.5038L21.778 16.0618L15.9551 13.415V19.5038Z" fill="#141414" />
<path d="M10.1328 16.0618L15.9558 19.5038V13.415L10.1328 16.0618Z" fill="#393939" />
</symbol><symbol viewBox="0 0 20 20" fill="none" id="fi-sr-copy">
<g clip-path="url(#fi-sr-copy_clip0_1_8345)">
<path d="M12.5 16.6667H4.16667C3.062 16.6653 2.00296 16.2259 1.22185 15.4448C0.440735 14.6637 0.00132321 13.6047 0 12.5L0 4.16667C0.00132321 3.062 0.440735 2.00296 1.22185 1.22185C2.00296 0.440735 3.062 0.00132321 4.16667 0L12.5 0C13.6047 0.00132321 14.6637 0.440735 15.4448 1.22185C16.2259 2.00296 16.6653 3.062 16.6667 4.16667V12.5C16.6653 13.6047 16.2259 14.6637 15.4448 15.4448C14.6637 16.2259 13.6047 16.6653 12.5 16.6667V16.6667ZM20 15.8333V5C20 4.77899 19.9122 4.56702 19.7559 4.41074C19.5996 4.25446 19.3877 4.16667 19.1667 4.16667C18.9457 4.16667 18.7337 4.25446 18.5774 4.41074C18.4211 4.56702 18.3333 4.77899 18.3333 5V15.8333C18.3333 16.4964 18.0699 17.1323 17.6011 17.6011C17.1323 18.0699 16.4964 18.3333 15.8333 18.3333H5C4.77899 18.3333 4.56702 18.4211 4.41074 18.5774C4.25446 18.7337 4.16667 18.9457 4.16667 19.1667C4.16667 19.3877 4.25446 19.5996 4.41074 19.7559C4.56702 19.9122 4.77899 20 5 20H15.8333C16.938 19.9987 17.997 19.5593 18.7782 18.7782C19.5593 17.997 19.9987 16.938 20 15.8333V15.8333Z" fill="currentColor" />
</g>
<defs>

</defs>
</symbol><clipPath id="fi-sr-copy_clip0_1_8345">
<rect width="20" height="20" fill="white" />
</clipPath><symbol viewBox="0 0 18 16" fill="none" id="fi-sr-menu-dots-vertical">
<g clip-path="url(#fi-sr-menu-dots-vertical_clip0_2008_7781)">
<path d="M9.00034 2.66669C9.73673 2.66669 10.3337 2.06973 10.3337 1.33334C10.3337 0.596958 9.73673 0 9.00034 0C8.26395 0 7.66699 0.596958 7.66699 1.33334C7.66699 2.06973 8.26395 2.66669 9.00034 2.66669Z" fill="#B4B5CE" />
<path d="M9.00034 9.33335C9.73673 9.33335 10.3337 8.73639 10.3337 8C10.3337 7.26361 9.73673 6.66665 9.00034 6.66665C8.26395 6.66665 7.66699 7.26361 7.66699 8C7.66699 8.73639 8.26395 9.33335 9.00034 9.33335Z" fill="#B4B5CE" />
<path d="M9.00034 16C9.73673 16 10.3337 15.403 10.3337 14.6666C10.3337 13.9303 9.73673 13.3333 9.00034 13.3333C8.26395 13.3333 7.66699 13.9303 7.66699 14.6666C7.66699 15.403 8.26395 16 9.00034 16Z" fill="#B4B5CE" />
</g>
<defs>

</defs>
</symbol><clipPath id="fi-sr-menu-dots-vertical_clip0_2008_7781">
<rect width="3.55556" height="16" fill="currentColor" transform="translate(7.22266)" />
</clipPath><symbol viewBox="0 0 17 20" fill="none" id="fi_13122678">
<path d="M14.3438 0.069458H2.65633C2.20508 0.0721317 1.77303 0.260779 1.45394 0.594467C1.13486 0.928156 0.954461 1.37997 0.951904 1.85187V18.1482C0.954461 18.6201 1.13486 19.0719 1.45394 19.4056C1.77303 19.7392 2.20508 19.9279 2.65633 19.9306H14.3438C14.7951 19.9279 15.2271 19.7392 15.5462 19.4056C15.8653 19.0719 16.0457 18.6201 16.0483 18.1482V1.85187C16.0457 1.37997 15.8653 0.928156 15.5462 0.594467C15.2271 0.260779 14.7951 0.0721317 14.3438 0.069458ZM4.84774 3.8889C4.85026 3.68713 4.92803 3.49436 5.06448 3.35167C5.20092 3.20898 5.38526 3.12765 5.57821 3.12501H7.04888C7.6275 3.12501 8.18241 3.36538 8.59155 3.79324C9.0007 4.2211 9.23055 4.80141 9.23055 5.40649C9.22984 5.75927 9.15328 6.10736 9.00654 6.42501L9.9805 7.44353L10.9545 6.42501C11.0929 6.29008 11.2761 6.21662 11.4653 6.22011C11.6546 6.2236 11.8351 6.30377 11.969 6.44373C12.1028 6.58369 12.1794 6.77251 12.1828 6.97041C12.1861 7.16831 12.1159 7.35984 11.9869 7.50464L11.0129 8.52316L11.9869 9.54168C12.1236 9.68491 12.2005 9.87906 12.2005 10.0815C12.2005 10.2839 12.1236 10.4781 11.9869 10.6213C11.8499 10.7644 11.6642 10.8447 11.4707 10.8447C11.2771 10.8447 11.0914 10.7644 10.9545 10.6213L9.9805 9.60279L9.00654 10.6213C8.86958 10.7644 8.68392 10.8447 8.49034 10.8447C8.29677 10.8447 8.11111 10.7644 7.97414 10.6213C7.83735 10.4781 7.76052 10.2839 7.76052 10.0815C7.76052 9.87906 7.83735 9.68491 7.97414 9.54168L8.9481 8.52316L7.97414 7.50464C7.67062 7.65768 7.3371 7.73441 7.00019 7.72872H6.30867V10C6.30867 10.2026 6.23171 10.3969 6.09473 10.5402C5.95774 10.6834 5.77194 10.7639 5.57821 10.7639C5.38447 10.7639 5.19868 10.6834 5.06169 10.5402C4.9247 10.3969 4.84774 10.2026 4.84774 10V3.8889ZM12.3959 16.875H4.60425C4.41052 16.875 4.22472 16.7945 4.08773 16.6513C3.95074 16.508 3.87378 16.3137 3.87378 16.1111C3.87378 15.9085 3.95074 15.7142 4.08773 15.571C4.22472 15.4277 4.41052 15.3472 4.60425 15.3472H12.3959C12.5896 15.3472 12.7754 15.4277 12.9124 15.571C13.0494 15.7142 13.1264 15.9085 13.1264 16.1111C13.1264 16.3137 13.0494 16.508 12.9124 16.6513C12.7754 16.7945 12.5896 16.875 12.3959 16.875ZM12.3959 13.8195H4.60425C4.41052 13.8195 4.22472 13.739 4.08773 13.5957C3.95074 13.4525 3.87378 13.2582 3.87378 13.0556C3.87378 12.853 3.95074 12.6587 4.08773 12.5154C4.22472 12.3722 4.41052 12.2917 4.60425 12.2917H12.3959C12.5896 12.2917 12.7754 12.3722 12.9124 12.5154C13.0494 12.6587 13.1264 12.853 13.1264 13.0556C13.1264 13.2582 13.0494 13.4525 12.9124 13.5957C12.7754 13.739 12.5896 13.8195 12.3959 13.8195ZM7.04888 6.18057H6.30867V4.65279H7.04888C7.24262 4.65279 7.42841 4.73327 7.5654 4.87653C7.70239 5.01979 7.77935 5.21408 7.77935 5.41668C7.77935 5.61928 7.70239 5.81357 7.5654 5.95683C7.42841 6.10009 7.24262 6.18057 7.04888 6.18057Z" fill="white" />
</symbol><symbol viewBox="0 0 32 32" fill="none" id="fi_16917400">
<path d="M17.41 22.04L29.46 9.39C29.03 9.15 28.53 9 28 9H24.36C23.65 12.97 20.18 16 16 16C11.82 16 8.35 12.97 7.64 9H4C3.47 9 2.98 9.15 2.54 9.39L14.59 22.04C15.32 22.8 16.67 22.8 17.4 22.04H17.41Z" fill="#BCBCBC" />
<path d="M30.78 10.9L21.98 20.14L30.69 29.29C30.88 28.9 30.99 28.47 30.99 28.01V12C30.99 11.61 30.91 11.24 30.77 10.9H30.78Z" fill="#BCBCBC" />
<path d="M18.85 23.42C18.11 24.2 17.07 24.64 16 24.64C14.93 24.64 13.89 24.19 13.15 23.42L11.4 21.58L2.71 30.7C3.1 30.89 3.53 31 4 31H28C28.46 31 28.89 30.89 29.29 30.7L20.61 21.59L18.86 23.43L18.85 23.42Z" fill="#BCBCBC" />
<path d="M1.22 10.9C1.08 11.24 1 11.61 1 12V28C1 28.46 1.11 28.89 1.3 29.28L10.01 20.13L1.22 10.9Z" fill="#BCBCBC" />
<path fill-rule="evenodd" clip-rule="evenodd" d="M16 14C19.58 14 22.5 11.08 22.5 7.5C22.5 3.92 19.58 1 16 1C12.42 1 9.5 3.92 9.5 7.5C9.5 11.08 12.42 14 16 14ZM14.23 6.67C13.86 6.26 13.22 6.24 12.82 6.61L12.81 6.6C12.41 6.97 12.38 7.6 12.76 8.01L14.52 9.92C14.71 10.12 14.98 10.24 15.25 10.24C15.52 10.24 15.79 10.13 15.98 9.92L19.22 6.42C19.6 6.02 19.58 5.39 19.17 5.01C18.77 4.64 18.14 4.66 17.76 5.07L15.26 7.78L14.23 6.67Z" fill="white" />
</symbol><symbol viewBox="0 0 32 32" fill="none" id="fi_17047229">
<path d="M22.5 14C17.81 14 14 17.81 14 22.5C14 27.19 17.81 31 22.5 31C27.19 31 31 27.19 31 22.5C31 17.81 27.19 14 22.5 14ZM26.53 21.13L22.42 25.28C22.23 25.47 21.98 25.58 21.71 25.58C21.44 25.58 21.19 25.48 21 25.29L18.47 22.76C18.08 22.37 18.08 21.74 18.47 21.35C18.86 20.96 19.49 20.96 19.88 21.35L21.7 23.17L25.1 19.74C25.49 19.35 26.12 19.34 26.51 19.74C26.9 20.13 26.91 20.76 26.51 21.15L26.53 21.13Z" fill="white" />
<path d="M12.3 25.18C7.52999 22.01 4.99999 17.49 4.99999 12.12V9.73001C4.99999 9.23001 5.36999 8.81001 5.85999 8.74001C8.41999 8.39001 10.61 7.64001 12.38 6.52001C12.7 6.32001 13.11 6.32001 13.44 6.52001C15.26 7.64001 17.51 8.39001 20.14 8.75001C20.63 8.82001 21 9.24001 21 9.74001V12.12C21.49 12.05 21.99 12 22.5 12C23.36 12 24.19 12.12 24.99 12.31C24.99 12.25 24.99 12.19 24.99 12.12V6.00001C24.99 5.45001 24.54 5.00001 23.99 5.00001C15.99 5.00001 13.74 1.57001 13.7 1.49001C13.52 1.18001 13.16 1.02001 12.82 1.01001C12.46 1.01001 12.12 1.22001 11.95 1.54001C11.93 1.57001 9.98999 5.00001 1.98999 5.00001C1.43999 5.00001 0.98999 5.45001 0.98999 6.00001V12.12C0.98999 19.69 5.02999 26 12.37 29.88C12.52 29.96 12.68 30 12.84 30C13 30 13.16 29.96 13.31 29.88C13.7 29.67 14.08 29.45 14.45 29.23C13.48 28.07 12.76 26.71 12.36 25.21C12.34 25.2 12.31 25.19 12.29 25.18H12.3Z" fill="#BCBCBC" />
<path d="M7 10.58V12.12C7 16.3 8.7 19.76 12 22.46C12.02 17.93 14.92 14.07 18.97 12.62C18.97 12.45 19 12.29 19 12.12V10.6C16.7 10.2 14.66 9.51004 12.93 8.54004C11.23 9.51004 9.24 10.2 7 10.59V10.58Z" fill="#BCBCBC" />
</symbol><symbol viewBox="0 0 22 22" fill="none" id="fi_3126544">
<g clip-path="url(#fi_3126544_clip0_1_733)">
<path d="M5.34495 9.58167C4.94277 9.58167 4.60327 10.0247 4.60327 10.5485C4.60327 11.0727 4.94272 11.5157 5.34495 11.5157C5.74714 11.5157 6.08703 11.0727 6.08703 10.5485C6.08703 10.0247 5.74714 9.58167 5.34495 9.58167Z" fill="white" />
<path d="M11.8489 14.6945C11.4467 14.6945 11.1072 15.1375 11.1072 15.6617C11.1072 16.1855 11.4466 16.6285 11.8489 16.6285C12.251 16.6285 12.591 16.1855 12.591 15.6617C12.591 15.1375 12.251 14.6945 11.8489 14.6945Z" fill="white" />
<path d="M16.0639 6.86173C9.52909 0.84877 9.86335 1.07844 9.34381 0.876614C8.60548 0.583739 7.72694 0.73688 7.12009 1.29513L1.07039 6.86173C0.390156 7.48736 0 8.37767 0 9.30493V19.1624C0 20.3238 0.940199 21.2692 2.09563 21.2692H15.0382C16.1937 21.2692 17.1338 20.3238 17.1338 19.1624V9.30493C17.1339 8.37767 16.7437 7.48736 16.0639 6.86173ZM7.94342 4.74853C7.98248 4.37393 8.32605 4.10791 8.71045 4.18005C9.07809 4.25671 9.28516 4.60948 9.21663 4.93802C9.14379 5.28804 8.81452 5.51101 8.45866 5.44419C8.11877 5.37329 7.91132 5.06452 7.94342 4.74853ZM3.31427 10.5485C3.31427 9.30451 4.22525 8.29259 5.34505 8.29259C6.46529 8.29259 7.37623 9.30451 7.37623 10.5485C7.37623 11.7924 6.46525 12.8047 5.34505 12.8047C4.22525 12.8047 3.31427 11.7924 3.31427 10.5485ZM7.00928 17.4088C6.55381 17.4088 6.23593 16.9419 6.41545 16.5147L9.55311 9.03638C9.69104 8.7081 10.0687 8.55341 10.397 8.69134C10.7253 8.82884 10.8796 9.20697 10.7421 9.53525L7.60396 17.0135C7.50041 17.2602 7.2615 17.4088 7.00928 17.4088ZM11.849 17.9176C10.7292 17.9176 9.81823 16.9057 9.81823 15.6617C9.81823 14.4178 10.7292 13.4054 11.849 13.4054C12.9688 13.4054 13.8802 14.4178 13.8802 15.6617C13.8802 16.9057 12.9688 17.9176 11.849 17.9176Z" fill="white" />
<path d="M21.8383 13.9404C19.7397 7.83135 18.574 4.43476 18.5575 4.39617C18.1927 3.55141 17.4837 2.89442 16.6131 2.59406C16.5632 2.57709 16.8579 2.64868 12.1833 1.53961L16.9363 5.91297C17.8811 6.7818 18.423 8.01801 18.423 9.30492V17.658L20.7417 16.6655C21.7906 16.2117 22.2783 14.9936 21.8383 13.9404Z" fill="#BCBCBC" />
</g>
<defs>

</defs>
</symbol><clipPath id="fi_3126544_clip0_1_733">
<rect width="22" height="22" fill="white" />
</clipPath><symbol viewBox="0 0 22 16" fill="none" id="fi_4212257">
<g clip-path="url(#fi_4212257_clip0_1_752)">
<path d="M21.9292 7.68L20.1928 3.68C20.132 3.53814 20.0321 3.41729 19.9052 3.33209C19.7783 3.24689 19.6298 3.20101 19.4778 3.2H15.2742L15.5256 0.888C15.538 0.775765 15.5269 0.662134 15.4931 0.554583C15.4592 0.447033 15.4034 0.348 15.3292 0.264C15.2558 0.181126 15.1661 0.114823 15.0659 0.0693561C14.9658 0.023889 14.8574 0.000263863 14.7478 0H3.9285C3.72012 0 3.52027 0.0842856 3.37292 0.234315C3.22557 0.384344 3.14279 0.587826 3.14279 0.8C3.14279 1.01217 3.22557 1.21566 3.37292 1.36568C3.52027 1.51571 3.72012 1.6 3.9285 1.6H7.85707C8.06546 1.6 8.26531 1.68428 8.41266 1.83431C8.56001 1.98434 8.64279 2.18783 8.64279 2.4C8.64279 2.61217 8.56001 2.81565 8.41266 2.96568C8.26531 3.11571 8.06546 3.2 7.85707 3.2H2.35707C2.14869 3.2 1.94884 3.28428 1.80149 3.43431C1.65414 3.58434 1.57136 3.78782 1.57136 4C1.57136 4.21217 1.65414 4.41565 1.80149 4.56568C1.94884 4.71571 2.14869 4.8 2.35707 4.8H10.2142C10.4226 4.8 10.6224 4.88428 10.7698 5.03431C10.9172 5.18434 10.9999 5.38782 10.9999 5.6C10.9999 5.81217 10.9172 6.01565 10.7698 6.16568C10.6224 6.31571 10.4226 6.4 10.2142 6.4H4.71422C4.50583 6.4 4.30598 6.48428 4.15863 6.63431C4.01128 6.78434 3.9285 6.98782 3.9285 7.2C3.9285 7.41217 4.01128 7.61565 4.15863 7.76568C4.30598 7.91571 4.50583 8 4.71422 8H7.85707C8.06546 8 8.26531 8.08428 8.41266 8.23431C8.56001 8.38434 8.64279 8.58782 8.64279 8.8C8.64279 9.01217 8.56001 9.21565 8.41266 9.36568C8.26531 9.51571 8.06546 9.59999 7.85707 9.59999H1.57136C1.36297 9.59999 1.16312 9.68428 1.01577 9.83431C0.868425 9.98434 0.785645 10.1878 0.785645 10.4C0.785645 10.6122 0.868425 10.8157 1.01577 10.9657C1.16312 11.1157 1.36297 11.2 1.57136 11.2H3.14279C3.35117 11.2 3.55102 11.2843 3.69837 11.4343C3.84572 11.5843 3.9285 11.7878 3.9285 12C3.9285 12.2122 3.84572 12.4157 3.69837 12.5657C3.55102 12.7157 3.35117 12.8 3.14279 12.8H2.35707C2.14869 12.8 1.94884 12.8843 1.80149 13.0343C1.65414 13.1843 1.57136 13.3878 1.57136 13.6C1.57136 13.8122 1.65414 14.0156 1.80149 14.1657C1.94884 14.3157 2.14869 14.4 2.35707 14.4H4.59636C4.6812 14.7374 4.84268 15.0498 5.06779 15.312C5.25854 15.5291 5.49229 15.7027 5.75366 15.8213C6.01502 15.9399 6.29808 16.0008 6.58422 16C7.06841 15.9859 7.53774 15.8265 7.93332 15.5419C8.3289 15.2573 8.63311 14.86 8.80779 14.4H14.8106C14.8955 14.7374 15.057 15.0498 15.2821 15.312C15.4728 15.5291 15.7066 15.7027 15.9679 15.8213C16.2293 15.9399 16.5124 16.0008 16.7985 16C17.2827 15.9859 17.752 15.8265 18.1476 15.5419C18.5432 15.2573 18.8474 14.86 19.0221 14.4H20.5935C20.7877 14.4012 20.9755 14.3291 21.1206 14.1976C21.2657 14.0661 21.3579 13.8846 21.3792 13.688L21.9842 8.088C22.0058 7.94945 21.9866 7.80751 21.9292 7.68ZM6.58422 14.4C6.51906 14.4029 6.45411 14.3907 6.39424 14.3643C6.33437 14.338 6.28113 14.2982 6.2385 14.248C6.17682 14.1703 6.1317 14.0804 6.106 13.984C6.0803 13.8876 6.07458 13.7868 6.08922 13.688C6.10928 13.4634 6.20453 13.2526 6.35901 13.0909C6.51348 12.9293 6.71781 12.8266 6.93779 12.8C7.00294 12.7971 7.06789 12.8093 7.12776 12.8356C7.18763 12.862 7.24088 12.9017 7.2835 12.952C7.34518 13.0297 7.3903 13.1196 7.416 13.216C7.44171 13.3124 7.44742 13.4132 7.43279 13.512C7.41272 13.7366 7.31747 13.9474 7.163 14.109C7.00852 14.2707 6.80419 14.3734 6.58422 14.4ZM16.7985 14.4C16.7333 14.4029 16.6684 14.3907 16.6085 14.3643C16.5487 14.338 16.4954 14.2982 16.4528 14.248C16.3911 14.1703 16.346 14.0804 16.3203 13.984C16.2946 13.8876 16.2889 13.7868 16.3035 13.688C16.3236 13.4634 16.4188 13.2526 16.5733 13.0909C16.7278 12.9293 16.9321 12.8266 17.1521 12.8C17.2172 12.7971 17.2822 12.8093 17.342 12.8356C17.4019 12.862 17.4552 12.9017 17.4978 12.952C17.5595 13.0297 17.6046 13.1196 17.6303 13.216C17.656 13.3124 17.6617 13.4132 17.6471 13.512C17.627 13.7366 17.5318 13.9474 17.3773 14.109C17.2228 14.2707 17.0185 14.3734 16.7985 14.4ZM20.3342 8.8H16.8614C16.7517 8.79973 16.6433 8.77611 16.5432 8.73064C16.4431 8.68517 16.3534 8.61887 16.2799 8.536C16.2058 8.452 16.1499 8.35296 16.1161 8.24541C16.0822 8.13786 16.0711 8.02423 16.0835 7.912L16.3428 5.512C16.3659 5.31687 16.4588 5.13725 16.6038 5.00741C16.7487 4.87756 16.9355 4.80658 17.1285 4.808H18.9592L20.4285 8.128L20.3342 8.8Z" fill="white" />
<path d="M1.57143 7.99999C1.77981 7.99999 1.97966 7.91571 2.12701 7.76568C2.27436 7.61565 2.35714 7.41217 2.35714 7.19999C2.35714 6.98782 2.27436 6.78434 2.12701 6.63431C1.97966 6.48428 1.77981 6.39999 1.57143 6.39999H0.785714C0.57733 6.39999 0.37748 6.48428 0.23013 6.63431C0.0827803 6.78434 0 6.98782 0 7.19999C0 7.41217 0.0827803 7.61565 0.23013 7.76568C0.37748 7.91571 0.57733 7.99999 0.785714 7.99999H1.57143Z" fill="white" />
</g>
<defs>

</defs>
</symbol><clipPath id="fi_4212257_clip0_1_752">
<rect width="22" height="16" fill="white" />
</clipPath><symbol viewBox="0 0 22 22" fill="none" id="fi_6948561">
<g clip-path="url(#fi_6948561_clip0_1_761)">
<path d="M19.0667 0H22V2.93333C20.3822 2.93333 19.0667 1.61777 19.0667 0ZM20.8413 10.5087C21.2738 10.8754 21.6627 11.2933 22 11.7405V10.2667C21.5896 10.2667 21.1936 10.3548 20.8413 10.5087ZM2.93333 0H0V2.93333C1.61777 2.93333 2.93333 1.61777 2.93333 0ZM0 10.2667V13.2H2.93333C2.93333 11.5822 1.61777 10.2667 0 10.2667ZM11 4.4C9.78685 4.4 8.8 5.38685 8.8 6.6C8.8 7.81315 9.78685 8.8 11 8.8C12.2132 8.8 13.2 7.81315 13.2 6.6C13.2 5.38685 12.2132 4.4 11 4.4ZM22 4.4V8.8C21.054 8.8 20.181 9.09326 19.4699 9.60674C18.473 9.0861 17.3357 8.8 16.1333 8.8C15.1945 8.8 14.3 8.97617 13.4786 9.2988C14.2048 8.63135 14.6667 7.67064 14.6667 6.6C14.6667 4.57617 13.0238 2.93333 11 2.93333C8.97617 2.93333 7.33333 4.57617 7.33333 6.6C7.33333 8.62383 8.97617 10.2667 11 10.2667C11.3079 10.2667 11.6087 10.2301 11.8945 10.1567C10.8167 10.9194 9.95156 11.9754 9.41589 13.2H4.4C4.4 10.7726 2.42702 8.8 0 8.8V4.4C2.42702 4.4 4.4 2.42738 4.4 0H17.6C17.6 2.42738 19.573 4.4 22 4.4ZM5.86667 6.6C5.86667 6.19681 5.53652 5.86667 5.13333 5.86667C4.73014 5.86667 4.4 6.19681 4.4 6.6C4.4 7.00319 4.73014 7.33333 5.13333 7.33333C5.53652 7.33333 5.86667 7.00319 5.86667 6.6ZM17.6 6.6C17.6 6.19681 17.2699 5.86667 16.8667 5.86667C16.4635 5.86667 16.1333 6.19681 16.1333 6.6C16.1333 7.00319 16.4635 7.33333 16.8667 7.33333C17.2699 7.33333 17.6 7.00319 17.6 6.6ZM22 16.1333C22 19.3739 19.3746 22 16.1333 22C12.8921 22 10.2667 19.3739 10.2667 16.1333C10.2667 12.8928 12.8921 10.2667 16.1333 10.2667C19.3746 10.2667 22 12.8928 22 16.1333ZM19.4333 16.8667C19.4333 15.2493 18.1178 13.9333 16.5 13.9333H15.337L16.0703 13.2L15.0333 12.163L12.5297 14.6667L15.0333 17.1703L16.0703 16.1333L15.337 15.4H16.5C17.3085 15.4 17.9667 16.0578 17.9667 16.8667C17.9667 17.6756 17.3085 18.3333 16.5 18.3333H14.3V19.8H16.5C18.1178 19.8 19.4333 18.4841 19.4333 16.8667Z" fill="white" />
</g>
<defs>

</defs>
</symbol><clipPath id="fi_6948561_clip0_1_761">
<rect width="22" height="22" fill="white" />
</clipPath><symbol viewBox="0 0 20 20" fill="none" id="flag-us">
<g clip-path="url(#flag-us_clip0_1_7860)">
<path d="M10 20C15.5228 20 20 15.5228 20 10C20 4.47715 15.5228 0 10 0C4.47715 0 0 4.47715 0 10C0 15.5228 4.47715 20 10 20Z" fill="#F0F0F0" />
<path d="M9.56543 10.0001H20.0002C20.0002 9.09749 19.8799 8.22312 19.6557 7.39136H9.56543V10.0001Z" fill="#E73838" />
<path d="M9.56543 4.78266H18.5325C17.9203 3.78375 17.1376 2.90083 16.225 2.17395H9.56543V4.78266Z" fill="#E73838" />
<path d="M10.0002 20.0001C12.3537 20.0001 14.5169 19.1866 16.2251 17.8262H3.77539C5.48359 19.1866 7.64676 20.0001 10.0002 20.0001Z" fill="#E73838" />
<path d="M1.46797 15.2175H18.5325C19.0239 14.4156 19.4051 13.539 19.6557 12.6088H0.344727C0.595391 13.539 0.976523 14.4156 1.46797 15.2175Z" fill="#E73838" />
<path d="M4.63219 1.56164H5.54348L4.69582 2.17746L5.01961 3.17391L4.17199 2.55809L3.32437 3.17391L3.60406 2.31309C2.85773 2.93477 2.20359 3.66313 1.66453 4.47469H1.95652L1.41695 4.86668C1.33289 5.00691 1.25227 5.14937 1.175 5.29395L1.43266 6.08695L0.951953 5.7377C0.832461 5.99086 0.723164 6.24973 0.624922 6.51398L0.908789 7.38773H1.95652L1.10887 8.00356L1.43266 9L0.585039 8.38418L0.0773047 8.75309C0.0264844 9.1616 0 9.57769 0 10H10C10 4.47719 10 3.82609 10 0C8.02453 0 6.18301 0.573047 4.63219 1.56164ZM5.01961 9L4.17199 8.38418L3.32437 9L3.64816 8.00356L2.80051 7.38773H3.84824L4.17199 6.39129L4.49574 7.38773H5.54348L4.69582 8.00356L5.01961 9ZM4.69582 5.09051L5.01961 6.08695L4.17199 5.47113L3.32437 6.08695L3.64816 5.09051L2.80051 4.47469H3.84824L4.17199 3.47824L4.49574 4.47469H5.54348L4.69582 5.09051ZM8.60656 9L7.75895 8.38418L6.91133 9L7.23512 8.00356L6.38746 7.38773H7.4352L7.75895 6.39129L8.0827 7.38773H9.13043L8.28277 8.00356L8.60656 9ZM8.28277 5.09051L8.60656 6.08695L7.75895 5.47113L6.91133 6.08695L7.23512 5.09051L6.38746 4.47469H7.4352L7.75895 3.47824L8.0827 4.47469H9.13043L8.28277 5.09051ZM8.28277 2.17746L8.60656 3.17391L7.75895 2.55809L6.91133 3.17391L7.23512 2.17746L6.38746 1.56164H7.4352L7.75895 0.565195L8.0827 1.56164H9.13043L8.28277 2.17746Z" fill="#0052B4" />
</g>
<defs>

</defs>
</symbol><clipPath id="flag-us_clip0_1_7860">
<rect width="20" height="20" fill="white" />
</clipPath><symbol viewBox="0 0 40 41" fill="none" id="ltc">
<ellipse cx="20.1663" cy="20.3333" rx="17.8333" ry="17.8333" fill="white" />
<path fill-rule="evenodd" clip-rule="evenodd" d="M0 20.5C0 9.45431 8.95427 0.5 19.9999 0.5H20.1161C25.405 0.51539 30.4712 2.63118 34.2001 6.38191C37.9291 10.1326 40.0153 15.2111 39.9998 20.5C39.9998 31.5457 31.0456 40.5 19.9999 40.5C8.95427 40.5 0 31.5457 0 20.5ZM18.2566 28.1997L20.339 21.1779L23.5835 20.2578L24.2615 17.9333L21.0653 18.9019L24.4552 7.37645V7.19243C24.4501 7.04342 24.386 6.90252 24.277 6.80079C24.168 6.69906 24.0231 6.64483 23.8741 6.65006H19.5641C19.2284 6.63971 18.9288 6.85942 18.8378 7.18274L14.8184 20.8389L11.6223 21.8074L10.8959 24.035L14.092 23.0665L11.2349 32.8002H28.2808C28.6177 32.8141 28.9193 32.5929 29.0072 32.2675L29.9757 28.9261V28.7421C29.9707 28.5931 29.9066 28.4522 29.7976 28.3504C29.6886 28.2487 29.5436 28.1945 29.3946 28.1997H18.2566Z" fill="#345D9D" />
</symbol><symbol viewBox="0 0 16 16" fill="none" id="minus">
<path d="M2 8L14 8" stroke="currentColor" stroke-width="2" stroke-linecap="round" stroke-linejoin="round" />
</symbol><symbol viewBox="0 0 24 24" fill="none" id="paper-clip">
<path fill-rule="evenodd" clip-rule="evenodd" d="M9.29305 21V21C7.63705 21 6.06305 20.334 4.86105 19.125C2.47305 16.722 2.37505 12.912 4.64205 10.631L12.0281 3.201C12.7971 2.427 13.8351 2 14.9501 2C16.1431 2 17.2771 2.479 18.1421 3.349C19.8631 5.08 19.9291 7.831 18.2881 9.481L10.8931 16.91C10.4141 17.393 9.76905 17.658 9.07705 17.658V17.658C8.34605 17.658 7.65305 17.366 7.12705 16.837C6.07405 15.776 6.04105 14.085 7.05405 13.065L13.8791 6.21C14.2691 5.818 14.9011 5.816 15.2931 6.206C15.6841 6.596 15.6861 7.229 15.2961 7.62L8.47205 14.476C8.23205 14.718 8.26505 15.145 8.54605 15.427C8.69205 15.574 8.88605 15.658 9.07705 15.658V15.658C9.18705 15.658 9.34505 15.631 9.47505 15.5L16.8701 8.071C17.7371 7.198 17.6721 5.713 16.7241 4.759C15.8171 3.847 14.2781 3.775 13.4461 4.611L6.06005 12.041C4.56605 13.544 4.66405 16.09 6.28005 17.715C7.10305 18.544 8.17305 19 9.29305 19C10.2941 19 11.2221 18.622 11.9041 17.936L19.2911 10.506C19.6801 10.115 20.3131 10.112 20.7051 10.502C21.0961 10.892 21.0981 11.524 20.7091 11.916L13.3221 19.346C12.2621 20.412 10.8311 21 9.29305 21" fill="black" />

</symbol><mask id="paper-clip_mask0_269_6855" style="mask-type:alpha" maskUnits="userSpaceOnUse" x="3" y="2" width="18" height="19">
<path fill-rule="evenodd" clip-rule="evenodd" d="M9.29305 21V21C7.63705 21 6.06305 20.334 4.86105 19.125C2.47305 16.722 2.37505 12.912 4.64205 10.631L12.0281 3.201C12.7971 2.427 13.8351 2 14.9501 2C16.1431 2 17.2771 2.479 18.1421 3.349C19.8631 5.08 19.9291 7.831 18.2881 9.481L10.8931 16.91C10.4141 17.393 9.76905 17.658 9.07705 17.658V17.658C8.34605 17.658 7.65305 17.366 7.12705 16.837C6.07405 15.776 6.04105 14.085 7.05405 13.065L13.8791 6.21C14.2691 5.818 14.9011 5.816 15.2931 6.206C15.6841 6.596 15.6861 7.229 15.2961 7.62L8.47205 14.476C8.23205 14.718 8.26505 15.145 8.54605 15.427C8.69205 15.574 8.88605 15.658 9.07705 15.658V15.658C9.18705 15.658 9.34505 15.631 9.47505 15.5L16.8701 8.071C17.7371 7.198 17.6721 5.713 16.7241 4.759C15.8171 3.847 14.2781 3.775 13.4461 4.611L6.06005 12.041C4.56605 13.544 4.66405 16.09 6.28005 17.715C7.10305 18.544 8.17305 19 9.29305 19C10.2941 19 11.2221 18.622 11.9041 17.936L19.2911 10.506C19.6801 10.115 20.3131 10.112 20.7051 10.502C21.0961 10.892 21.0981 11.524 20.7091 11.916L13.3221 19.346C12.2621 20.412 10.8311 21 9.29305 21" fill="white" />
</mask><symbol viewBox="0 0 16 15" fill="none" id="paw">
<g clip-path="url(#paw_clip0_1_4477)">
<path d="M15.5154 6.7575C15.249 6.20402 14.8514 5.72436 14.3573 5.36045C13.8632 4.99654 13.2876 4.75948 12.6809 4.67C11.3186 4.495 8.95567 5.4075 7.85282 7.225C8.99903 7.60681 9.99433 8.34401 10.6948 9.33C10.7125 9.35769 10.7245 9.38863 10.7302 9.42101C10.7359 9.45339 10.7351 9.48658 10.7279 9.51866C10.7207 9.55074 10.7072 9.58107 10.6883 9.6079C10.6693 9.63474 10.6452 9.65754 10.6174 9.675C10.5613 9.70956 10.4939 9.7208 10.4295 9.70633C10.3652 9.69186 10.3091 9.65281 10.2731 9.5975C9.62844 8.67483 8.69371 7.9953 7.61828 7.6675C7.61828 7.67 7.6158 7.67 7.6158 7.6725C6.77867 7.43434 5.89443 7.41626 5.04831 7.62C5.04832 7.61967 5.04826 7.61934 5.04813 7.61903C5.04801 7.61873 5.04783 7.61845 5.04759 7.61822C5.04736 7.61798 5.04708 7.6178 5.04678 7.61768C5.04647 7.61755 5.04614 7.61749 5.04581 7.6175C4.6103 7.72074 4.18518 7.86384 3.7758 8.045C3.7458 8.05842 3.71345 8.06577 3.6806 8.06664C3.64776 8.06751 3.61507 8.06188 3.5844 8.05007C3.55374 8.03825 3.5257 8.02049 3.5019 7.9978C3.4781 7.9751 3.459 7.94793 3.4457 7.91783C3.4324 7.88772 3.42517 7.85529 3.4244 7.82238C3.42364 7.78947 3.42937 7.75673 3.44126 7.72604C3.45315 7.69535 3.47097 7.66732 3.49369 7.64355C3.51642 7.61977 3.5436 7.60073 3.57369 7.5875C3.97043 7.412 4.38105 7.26984 4.80129 7.1625C4.3437 6.10402 4.14769 4.95056 4.2299 3.8L5.17305 3.9875L4.76635 2.7225C4.74959 2.66997 4.75052 2.61337 4.76901 2.56143C4.78749 2.50948 4.8225 2.46506 4.86865 2.435L5.47247 2.04C5.52805 2.00419 5.59554 1.9919 5.66014 2.00582C5.72475 2.01975 5.78122 2.05876 5.81719 2.1143C5.85316 2.16985 5.8657 2.23741 5.85206 2.3022C5.83843 2.36699 5.79973 2.42373 5.74444 2.46L5.30031 2.75L5.63964 3.81L6.13867 3.51C6.38573 3.36321 6.58522 3.14805 6.71315 2.89037C6.84107 2.63269 6.89198 2.34348 6.85976 2.0575C6.73271 1.33036 6.41592 0.649833 5.94155 0.0849984C5.91327 0.0524463 5.87695 0.0279189 5.83622 0.0138773C5.79549 -0.00016441 5.75179 -0.00322645 5.70951 0.00499838L2.96487 0.504998C2.91113 0.51496 2.86209 0.542162 2.82514 0.582498C0.215237 3.46 0.0231124 10.4475 0.015627 10.745C0.0154028 10.8018 0.0338117 10.8572 0.0680247 10.9025C0.185296 11.0575 3.03972 14.7375 7.48604 15H7.50101C7.51609 14.9996 7.53111 14.9979 7.54592 14.995C8.39365 14.8085 9.17702 14.4005 9.81648 13.8125C9.24168 13.5564 8.70911 13.2141 8.23707 12.7975C8.18925 12.7521 8.16114 12.6897 8.15881 12.6238C8.15648 12.5579 8.1801 12.4936 8.22459 12.445C8.27038 12.3971 8.33303 12.3689 8.39921 12.3666C8.46539 12.3643 8.52987 12.3879 8.5789 12.4325C9.05354 12.8535 9.59603 13.1908 10.1833 13.43L10.1858 13.4275C11.5182 13.965 13.6615 14.155 15.3432 11.1325C15.7585 10.4033 15.9801 9.57954 15.9869 8.74C15.9877 8.05118 15.8261 7.37191 15.5154 6.7575ZM3.63606 12.41C3.61351 12.4444 3.58279 12.4727 3.54665 12.4924C3.5105 12.512 3.47007 12.5224 3.42896 12.5225C3.37925 12.5223 3.33068 12.5075 3.28923 12.48C2.48019 11.9353 1.74108 11.293 1.08853 10.5675C1.06674 10.5429 1.05001 10.5142 1.03928 10.4831C1.02855 10.452 1.02405 10.4191 1.02601 10.3862C1.02798 10.3534 1.03639 10.3212 1.05076 10.2916C1.06512 10.262 1.08517 10.2356 1.10974 10.2137C1.13431 10.1919 1.16294 10.1751 1.19398 10.1644C1.22503 10.1537 1.25788 10.1491 1.29066 10.1511C1.32345 10.1531 1.35552 10.1615 1.38506 10.1759C1.41459 10.1903 1.44101 10.2104 1.4628 10.235C2.08569 10.9298 2.79222 11.5445 3.56619 12.065C3.62107 12.1015 3.65924 12.1583 3.67234 12.223C3.68544 12.2877 3.67239 12.3549 3.63606 12.41ZM14.5148 7.545C14.48 7.56259 14.4416 7.572 14.4025 7.5725C14.3563 7.57291 14.311 7.56021 14.2717 7.53588C14.2324 7.51155 14.2008 7.47657 14.1805 7.435C14.0246 7.10038 13.7895 6.80904 13.4955 6.58637C13.2015 6.3637 12.8576 6.21647 12.4938 6.1575C12.4611 6.15366 12.4295 6.14338 12.4009 6.12725C12.3722 6.11112 12.347 6.08946 12.3267 6.06352C12.3064 6.03757 12.2915 6.00786 12.2827 5.9761C12.274 5.94434 12.2716 5.91116 12.2757 5.87847C12.2798 5.84578 12.2904 5.81423 12.3067 5.78565C12.3231 5.75706 12.3449 5.73201 12.371 5.71193C12.3971 5.69184 12.4269 5.67714 12.4586 5.66866C12.4904 5.66017 12.5236 5.65808 12.5561 5.6625C13.0012 5.73069 13.4226 5.90751 13.7833 6.17737C14.144 6.44724 14.4329 6.80187 14.6246 7.21C14.6543 7.26902 14.6594 7.33745 14.6389 7.40025C14.6183 7.46306 14.5737 7.51512 14.5148 7.545Z" fill="currentColor" />
</g>
<defs>

</defs>
</symbol><clipPath id="paw_clip0_1_4477">
<rect width="16" height="15" fill="white" />
</clipPath><symbol viewBox="0 0 16 16" fill="none" id="plus">
<path d="M8 2V14" stroke="currentColor" stroke-width="2" stroke-linecap="round" stroke-linejoin="round" />
<path d="M2 8L14 8" stroke="currentColor" stroke-width="2" stroke-linecap="round" stroke-linejoin="round" />
</symbol><symbol viewBox="0 0 18 18" fill="none" id="search">
<path d="M8.25 15C11.9779 15 15 11.9779 15 8.25C15 4.52208 11.9779 1.5 8.25 1.5C4.52208 1.5 1.5 4.52208 1.5 8.25C1.5 11.9779 4.52208 15 8.25 15Z" stroke="currentColor" stroke-width="2" stroke-linecap="round" stroke-linejoin="round" />
<path d="M16.5 16.5L13.5 13.5" stroke="currentColor" stroke-width="2" stroke-linecap="round" stroke-linejoin="round" />
</symbol><symbol viewBox="0 0 20 18" fill="none" id="telegram">
<path d="M13 7L9 11L15 17L19 1L1 8L5 10L7 16L10 12" stroke="currentColor" stroke-width="2" stroke-linecap="round" stroke-linejoin="round" />
</symbol><symbol viewBox="0 0 20 20" fill="none" id="timer">
<path d="M9.99102 1.66675C5.39102 1.66675 1.66602 5.40008 1.66602 10.0001C1.66602 14.6001 5.39102 18.3334 9.99102 18.3334C14.5993 18.3334 18.3327 14.6001 18.3327 10.0001C18.3327 5.40008 14.5993 1.66675 9.99102 1.66675ZM12.741 13.9251L9.16602 10.3417V5.83341H10.8327V9.65841L13.9243 12.7501L12.741 13.9251Z" fill="currentColor" />
</symbol><symbol viewBox="0 0 20 20" fill="none" id="trash">
<path d="M5.00033 15.8333C5.00033 16.75 5.75033 17.5 6.66699 17.5H13.3337C14.2503 17.5 15.0003 16.75 15.0003 15.8333V5.83333H5.00033V15.8333ZM15.8337 3.33333H12.917L12.0837 2.5H7.91699L7.08366 3.33333H4.16699V5H15.8337V3.33333Z" fill="currentColor" />
</symbol><symbol viewBox="0 0 40 41" fill="none" id="trx">
<path fill-rule="evenodd" clip-rule="evenodd" d="M20 40.5C9 40.5 0 31.5002 0 20.4004C0.1 9.40064 9 0.400827 20.1 0.500825C31.1 0.600823 40 9.50064 40 20.7004C39.9 31.6002 31 40.5 20 40.5Z" fill="#FC070C" />
<path fill-rule="evenodd" clip-rule="evenodd" d="M32.4119 14.5101L32.4118 14.51C31.4856 13.6106 30.5068 12.6603 29.6431 11.8937L29.5556 11.8324C29.41 11.7155 29.2458 11.6238 29.0699 11.5612L28.4033 11.4368C23.8033 10.5785 8.89296 7.79638 8.58625 7.83368C8.49553 7.84639 8.40882 7.87928 8.3325 7.92993L8.24937 7.99556C8.14702 8.09951 8.06928 8.22509 8.02187 8.36306L8 8.41993V8.73056V8.77868C9.01229 11.5974 11.6419 17.8924 14.07 23.7048L14.07 23.7048C16.1227 28.6188 18.0314 33.1879 18.6968 35.0198L18.6971 35.0206C18.7846 35.2921 18.9509 35.8074 19.2612 35.8336H19.3312C19.4975 35.8336 20.2062 34.8974 20.2062 34.8974C20.2062 34.8974 32.8762 19.5324 34.158 17.8962C34.324 17.6946 34.4705 17.4778 34.5955 17.2487C34.6605 16.884 34.5293 16.5119 34.2499 16.2687C33.7041 15.7647 33.0713 15.1503 32.4119 14.5101ZM23.4568 18.058L28.8643 13.5736L32.0361 16.4961L23.4568 18.058ZM12.0469 10.1349L21.3568 17.7648L27.11 12.913L12.0469 10.1349ZM22.1969 19.7642L31.7256 18.2286L20.8319 31.3536L22.1969 19.7642ZM20.5781 19.2086L10.7825 10.8961L19.1606 31.3623L20.5781 19.2086Z" fill="white" />
</symbol><symbol viewBox="0 0 40 41" fill="none" id="usdt">
<path d="M39.4016 25.3381C36.7301 36.0525 25.877 42.5731 15.1601 39.9012C4.44772 37.2301 -2.07358 26.3775 0.599038 15.6639C3.26931 4.94838 14.1225 -1.57268 24.836 1.09847C35.5521 3.76961 42.073 14.6234 39.4013 25.3383L39.4015 25.3381H39.4016Z" fill="#50AF95" />
<path fill-rule="evenodd" clip-rule="evenodd" d="M22.5336 22.7675C22.3922 22.7781 21.6615 22.8217 20.0314 22.8217C18.735 22.8217 17.8145 22.7828 17.4915 22.7675C12.4812 22.5471 8.74146 21.675 8.74146 20.6309C8.74146 19.5867 12.4812 18.7158 17.4915 18.4919V21.8989C17.8192 21.9225 18.7573 21.9779 20.0538 21.9779C21.6096 21.9779 22.3887 21.9131 22.5289 21.9001V18.4943C27.5286 18.717 31.2601 19.5891 31.2601 20.6309C31.2601 21.6727 27.5298 22.5447 22.5289 22.7663L22.5336 22.7675ZM22.5335 18.1419V15.0932H29.5109V10.444H10.514V15.0932H17.4902V18.1407C11.8199 18.4012 7.55566 19.5243 7.55566 20.8701C7.55566 22.2159 11.8199 23.3378 17.4902 23.5994V33.3691H22.5324V23.5959C28.1897 23.3355 32.4469 22.2136 32.4469 20.8689C32.4469 19.5243 28.1933 18.4023 22.5324 18.1407L22.5335 18.1419Z" fill="white" />
</symbol><symbol viewBox="0 0 20 20" fill="none" id="whatsapp">
<path d="M5.25301 16.494L5.97701 16.917C7.19795 17.6291 8.5866 18.0029 10 18C11.5823 18 13.129 17.5308 14.4446 16.6518C15.7602 15.7727 16.7855 14.5233 17.3911 13.0615C17.9966 11.5997 18.155 9.99113 17.8463 8.43928C17.5376 6.88743 16.7757 5.46197 15.6569 4.34315C14.538 3.22433 13.1126 2.4624 11.5607 2.15372C10.0089 1.84504 8.40036 2.00346 6.93855 2.60896C5.47674 3.21447 4.22731 4.23984 3.34826 5.55544C2.46921 6.87103 2.00001 8.41775 2.00001 10C2.00001 11.436 2.37701 12.813 3.08401 14.024L3.50601 14.748L2.85301 17.149L5.25301 16.494ZM0.00401338 20L1.35601 15.032C0.465151 13.5049 -0.00289063 11.768 1.34322e-05 10C1.34322e-05 4.477 4.47701 0 10 0C15.523 0 20 4.477 20 10C20 15.523 15.523 20 10 20C8.23279 20.0029 6.49667 19.5352 4.97001 18.645L0.00401338 20ZM6.39101 5.308C6.52501 5.298 6.66001 5.298 6.79401 5.304C6.84801 5.308 6.90201 5.314 6.95601 5.32C7.11501 5.338 7.29001 5.435 7.34901 5.569C7.64701 6.245 7.93701 6.926 8.21701 7.609C8.27901 7.761 8.24201 7.956 8.12401 8.146C8.04286 8.27448 7.95507 8.39865 7.86101 8.518C7.74801 8.663 7.50501 8.929 7.50501 8.929C7.50501 8.929 7.40601 9.047 7.44401 9.194C7.45801 9.25 7.50401 9.331 7.54601 9.399L7.60501 9.494C7.86101 9.921 8.20501 10.354 8.62501 10.762C8.74501 10.878 8.86201 10.997 8.98801 11.108C9.45601 11.521 9.98601 11.858 10.558 12.108L10.563 12.11C10.648 12.147 10.691 12.167 10.815 12.22C10.877 12.246 10.941 12.269 11.006 12.286C11.0732 12.3031 11.1439 12.2999 11.2093 12.2767C11.2746 12.2536 11.3316 12.2116 11.373 12.156C12.097 11.279 12.163 11.222 12.169 11.222V11.224C12.2193 11.1771 12.2791 11.1415 12.3443 11.1196C12.4095 11.0977 12.4786 11.09 12.547 11.097C12.607 11.101 12.668 11.112 12.724 11.137C13.255 11.38 14.124 11.759 14.124 11.759L14.706 12.02C14.804 12.067 14.893 12.178 14.896 12.285C14.9 12.352 14.906 12.46 14.883 12.658C14.851 12.917 14.773 13.228 14.695 13.391C14.6416 13.5022 14.5707 13.6042 14.485 13.693C14.3841 13.7989 14.2736 13.8954 14.155 13.981C14.114 14.0119 14.0723 14.0419 14.03 14.071C13.9056 14.1499 13.7778 14.2233 13.647 14.291C13.3895 14.4278 13.1052 14.5063 12.814 14.521C12.629 14.531 12.444 14.545 12.258 14.535C12.25 14.535 11.69 14.448 11.69 14.448C10.2683 14.074 8.9534 13.3735 7.85001 12.402C7.62401 12.203 7.41501 11.989 7.20101 11.776C6.31101 10.891 5.63901 9.936 5.23101 9.034C5.02218 8.59129 4.90938 8.1094 4.90001 7.62C4.89589 7.01285 5.09436 6.42167 5.46401 5.94C5.53701 5.846 5.60601 5.748 5.72501 5.635C5.85201 5.515 5.93201 5.451 6.01901 5.407C6.13469 5.34903 6.26088 5.31502 6.39001 5.307L6.39101 5.308Z" fill="currentColor" />
</symbol></defs></svg>