<svg width="34" height="34" viewBox="0 0 34 34" fill="none" xmlns="http://www.w3.org/2000/svg">
<circle cx="17" cy="17" r="17" fill="#616EDE"/>
<g filter="url(#filter0_d_1_8548)">
<path fill-rule="evenodd" clip-rule="evenodd" d="M17 26.5C22.5228 26.5 27 22.0228 27 16.5C27 10.9772 22.5228 6.5 17 6.5C11.4772 6.5 7 10.9772 7 16.5C7 22.0228 11.4772 26.5 17 26.5ZM22.5588 14.0003C22.8351 13.6917 22.8089 13.2175 22.5003 12.9412C22.1917 12.6649 21.7175 12.6911 21.4412 12.9997L18.0721 16.7629C17.3894 17.5254 16.9296 18.0363 16.5365 18.3667C16.1621 18.6814 15.9421 18.75 15.75 18.75C15.5579 18.75 15.3379 18.6814 14.9635 18.3667C14.5704 18.0363 14.1106 17.5254 13.4279 16.7629L12.5588 15.7921C12.2825 15.4835 11.8083 15.4573 11.4997 15.7336C11.1911 16.0099 11.1649 16.484 11.4412 16.7926L12.3475 17.8049C12.9834 18.5152 13.5137 19.1076 13.9984 19.5149C14.511 19.9458 15.0639 20.25 15.75 20.25C16.4361 20.25 16.989 19.9458 17.5016 19.5149C17.9863 19.1076 18.5166 18.5152 19.1525 17.8049L22.5588 14.0003Z" fill="url(#paint0_linear_1_8548)"/>
</g>
<defs>
<filter id="filter0_d_1_8548" x="7" y="6.5" width="20" height="23" filterUnits="userSpaceOnUse" color-interpolation-filters="sRGB">
<feFlood flood-opacity="0" result="BackgroundImageFix"/>
<feColorMatrix in="SourceAlpha" type="matrix" values="0 0 0 0 0 0 0 0 0 0 0 0 0 0 0 0 0 0 127 0" result="hardAlpha"/>
<feOffset dy="3"/>
<feComposite in2="hardAlpha" operator="out"/>
<feColorMatrix type="matrix" values="0 0 0 0 0.178072 0 0 0 0 0.205659 0 0 0 0 0.443333 0 0 0 0.5 0"/>
<feBlend mode="normal" in2="BackgroundImageFix" result="effect1_dropShadow_1_8548"/>
<feBlend mode="normal" in="SourceGraphic" in2="effect1_dropShadow_1_8548" result="shape"/>
</filter>
<linearGradient id="paint0_linear_1_8548" x1="18.035" y1="6.5" x2="18.035" y2="26.5" gradientUnits="userSpaceOnUse">
<stop stop-color="white"/>
<stop offset="0.3" stop-color="#AFB5EA"/>
<stop offset="0.6" stop-color="#EFF0FA"/>
<stop offset="1" stop-color="white"/>
<stop offset="1" stop-color="white"/>
</linearGradient>
</defs>
</svg>
