<svg width="25" height="28" viewBox="0 0 25 28" fill="none" xmlns="http://www.w3.org/2000/svg">
<g filter="url(#filter0_d_1_7577)">
<path d="M13.3202 22.8984L3.12231 12.7005V14.7839C3.12231 15.3359 3.34106 15.8672 3.7369 16.2526L11.8515 24.3672C12.664 25.1797 13.9869 25.1797 14.7994 24.3672L21.2681 17.8984C22.0806 17.0859 22.0806 15.763 21.2681 14.9505L13.3202 22.8984Z" fill="url(#paint0_linear_1_7577)"/>
<path d="M11.8515 19.1589C12.664 19.9714 13.9869 19.9714 14.7994 19.1589L21.2681 12.6901C22.0806 11.8776 22.0806 10.5547 21.2681 9.74219L13.1536 1.6276C12.7577 1.24219 12.2265 1.02344 11.6744 1.02344H5.20565C4.05981 1.02344 3.12231 1.96094 3.12231 3.10677V9.57552C3.12231 10.1276 3.34106 10.6589 3.7369 11.0443L11.8515 19.1589ZM7.5494 4.14844C8.26815 4.14844 8.85148 4.73177 8.85148 5.45052C8.85148 6.16927 8.26815 6.7526 7.5494 6.7526C6.83065 6.7526 6.24731 6.16927 6.24731 5.45052C6.24731 4.73177 6.83065 4.14844 7.5494 4.14844Z" fill="url(#paint1_linear_1_7577)"/>
</g>
<defs>
<filter id="filter0_d_1_7577" x="3.12231" y="1.02344" width="18.7551" height="26.9531" filterUnits="userSpaceOnUse" color-interpolation-filters="sRGB">
<feFlood flood-opacity="0" result="BackgroundImageFix"/>
<feColorMatrix in="SourceAlpha" type="matrix" values="0 0 0 0 0 0 0 0 0 0 0 0 0 0 0 0 0 0 127 0" result="hardAlpha"/>
<feOffset dy="3"/>
<feComposite in2="hardAlpha" operator="out"/>
<feColorMatrix type="matrix" values="0 0 0 0 0 0 0 0 0 0 0 0 0 0 0 0 0 0 0.5 0"/>
<feBlend mode="normal" in2="BackgroundImageFix" result="effect1_dropShadow_1_7577"/>
<feBlend mode="normal" in="SourceGraphic" in2="effect1_dropShadow_1_7577" result="shape"/>
</filter>
<linearGradient id="paint0_linear_1_7577" x1="13.4705" y1="1.02344" x2="13.4705" y2="24.9766" gradientUnits="userSpaceOnUse">
<stop stop-color="white"/>
<stop offset="0.3" stop-color="#AFB5EA"/>
<stop offset="0.6" stop-color="#EFF0FA"/>
<stop offset="1" stop-color="white"/>
<stop offset="1" stop-color="white"/>
</linearGradient>
<linearGradient id="paint1_linear_1_7577" x1="13.4705" y1="1.02344" x2="13.4705" y2="24.9766" gradientUnits="userSpaceOnUse">
<stop stop-color="white"/>
<stop offset="0.3" stop-color="#AFB5EA"/>
<stop offset="0.6" stop-color="#EFF0FA"/>
<stop offset="1" stop-color="white"/>
<stop offset="1" stop-color="white"/>
</linearGradient>
</defs>
</svg>
