<svg width="16" height="16" viewBox="0 0 16 16" fill="none" xmlns="http://www.w3.org/2000/svg">
<path d="M12.4726 6.27337C12.4106 6.21088 12.3369 6.16129 12.2556 6.12744C12.1744 6.0936 12.0872 6.07617 11.9992 6.07617C11.9112 6.07617 11.8241 6.0936 11.7428 6.12744C11.6616 6.16129 11.5879 6.21088 11.5259 6.27337L8.47256 9.3267C8.41058 9.38918 8.33685 9.43878 8.25561 9.47262C8.17437 9.50647 8.08723 9.5239 7.99923 9.5239C7.91122 9.5239 7.82408 9.50647 7.74284 9.47262C7.6616 9.43878 7.58787 9.38918 7.52589 9.3267L4.47256 6.27337C4.41058 6.21088 4.33685 6.16129 4.25561 6.12744C4.17437 6.0936 4.08723 6.07617 3.99923 6.07617C3.91122 6.07617 3.82408 6.0936 3.74284 6.12744C3.6616 6.16129 3.58787 6.21088 3.52589 6.27337C3.40173 6.39828 3.33203 6.56725 3.33203 6.74337C3.33203 6.91949 3.40173 7.08846 3.52589 7.21337L6.58589 10.2734C6.96089 10.6479 7.46922 10.8583 7.99923 10.8583C8.52923 10.8583 9.03756 10.6479 9.41256 10.2734L12.4726 7.21337C12.5967 7.08846 12.6664 6.91949 12.6664 6.74337C12.6664 6.56725 12.5967 6.39828 12.4726 6.27337Z" fill="#262D38"/>
</svg>
