<svg width="25" height="29" viewBox="0 0 25 29" fill="none" xmlns="http://www.w3.org/2000/svg">
<g filter="url(#filter0_d_1_7604)">
<path d="M4.03119 4.53126L3.12494 3.62501C2.7239 6.42709 2.86452 5.43751 2.6041 7.27084L6.51035 7.01042L5.50515 6.00522C7.12469 4.38689 9.25527 3.3802 11.5339 3.15668C13.8124 2.93317 16.098 3.50666 18.0012 4.77943C19.9043 6.05221 21.3072 7.94551 21.9709 10.1367C22.6346 12.328 22.5179 14.6815 21.6408 16.7963C20.7637 18.9112 19.1804 20.6565 17.1607 21.7348C15.141 22.8131 12.8099 23.1577 10.5646 22.71C8.31929 22.2622 6.29871 21.0498 4.84715 19.2792C3.3956 17.5086 2.60289 15.2895 2.6041 13H0.52077C0.419242 16.1771 1.58396 19.2644 3.7587 21.5827C5.93344 23.901 8.94005 25.2605 12.1171 25.362C15.2942 25.4635 18.3815 24.2988 20.6998 22.1241C23.0181 19.9493 24.3776 16.9427 24.4791 13.7656C25.1458 2.71355 11.7656 -3.20312 4.03119 4.53126Z" fill="url(#paint0_linear_1_7604)"/>
<path d="M6.57806 8.05209L5.09369 8.14584C3.87227 10.0028 3.39393 12.2512 3.75365 14.4445C4.11338 16.6379 5.28486 18.6157 7.03544 19.9852C8.78602 21.3547 10.9876 22.0157 13.2031 21.837C15.4185 21.6583 17.4857 20.6529 18.9941 19.0204C20.5025 17.388 21.3418 15.248 21.3452 13.0253C21.3487 10.8027 20.5161 8.66005 19.0128 7.02292C17.5095 5.38579 15.4455 4.37392 13.2306 4.18828C11.0158 4.00264 8.81208 4.65679 7.05723 6.02084C6.99473 6.02084 7.01035 6.02084 7.24473 6.27605C7.38625 6.41751 7.48403 6.59674 7.52637 6.79231C7.56872 6.98787 7.55385 7.19149 7.48353 7.37883C7.41321 7.56616 7.29042 7.72928 7.12985 7.84868C6.96927 7.96807 6.77771 8.03869 6.57806 8.05209ZM14.0624 14.9063C13.901 13.9271 12.7604 14.0417 12.1354 14.0417C11.3117 14.06 10.5124 13.7619 9.90201 13.2087C9.2916 12.6554 8.91655 11.8892 8.8541 11.0677C8.81807 10.3041 9.0632 9.55377 9.54309 8.9587C10.023 8.36363 10.7044 7.96511 11.4583 7.83855C11.4583 6.65626 11.3906 6.38022 11.7656 6.01563C11.9112 5.87083 12.0964 5.77232 12.2979 5.73249C12.4994 5.69266 12.7082 5.71328 12.898 5.79176C13.0878 5.87024 13.2501 6.00308 13.3647 6.17358C13.4792 6.34407 13.5407 6.54462 13.5416 6.75001V7.79167H15.1041C15.2409 7.79543 15.3756 7.8261 15.5006 7.88193C15.6255 7.93775 15.7382 8.01764 15.8323 8.11703C15.9264 8.21641 15.9999 8.33336 16.0488 8.46118C16.0977 8.589 16.1209 8.72519 16.1171 8.86199C16.1134 8.99878 16.0827 9.13349 16.0269 9.25843C15.971 9.38338 15.8912 9.4961 15.7918 9.59017C15.6924 9.68423 15.5754 9.7578 15.4476 9.80668C15.3198 9.85555 15.1836 9.87877 15.0468 9.87501H11.9791C11.826 9.87278 11.6744 9.9043 11.5349 9.96735C11.3954 10.0304 11.2715 10.1234 11.1721 10.2398C11.0726 10.3561 11 10.493 10.9595 10.6406C10.9189 10.7882 10.9114 10.9429 10.9374 11.0938C11.0989 12.0729 12.2395 11.9583 12.8645 11.9583C13.6881 11.94 14.4875 12.2381 15.0979 12.7914C15.7083 13.3446 16.0833 14.1108 16.1458 14.9323C16.1818 15.6959 15.9367 16.4462 15.4568 17.0413C14.9769 17.6364 14.2955 18.0349 13.5416 18.1615C13.5416 19.3438 13.6093 19.6198 13.2343 19.9844C13.0887 20.1292 12.9034 20.2277 12.7019 20.2675C12.5005 20.3074 12.2917 20.2867 12.1019 20.2083C11.9121 20.1298 11.7497 19.9969 11.6352 19.8264C11.5207 19.6559 11.4591 19.4554 11.4583 19.25V18.2083H9.89577C9.75898 18.2046 9.62426 18.1739 9.49932 18.1181C9.37438 18.0623 9.26166 17.9824 9.16759 17.883C9.07352 17.7836 8.99995 17.6667 8.95108 17.5388C8.90221 17.411 8.87899 17.2748 8.88275 17.138C8.88651 17.0012 8.91718 16.8665 8.973 16.7416C9.02883 16.6166 9.10872 16.5039 9.2081 16.4098C9.30749 16.3158 9.42443 16.2422 9.55225 16.1933C9.68007 16.1445 9.81627 16.1212 9.95306 16.125H13.0208C13.1738 16.1272 13.3255 16.0957 13.465 16.0327C13.6045 15.9696 13.7283 15.8766 13.8278 15.7602C13.9273 15.6439 13.9998 15.507 14.0404 15.3594C14.081 15.2118 14.0885 15.0571 14.0624 14.9063Z" fill="url(#paint1_linear_1_7604)"/>
</g>
<defs>
<filter id="filter0_d_1_7604" x="0.514648" y="1.01965" width="23.9885" height="27.3485" filterUnits="userSpaceOnUse" color-interpolation-filters="sRGB">
<feFlood flood-opacity="0" result="BackgroundImageFix"/>
<feColorMatrix in="SourceAlpha" type="matrix" values="0 0 0 0 0 0 0 0 0 0 0 0 0 0 0 0 0 0 127 0" result="hardAlpha"/>
<feOffset dy="3"/>
<feComposite in2="hardAlpha" operator="out"/>
<feColorMatrix type="matrix" values="0 0 0 0 0 0 0 0 0 0 0 0 0 0 0 0 0 0 0.5 0"/>
<feBlend mode="normal" in2="BackgroundImageFix" result="effect1_dropShadow_1_7604"/>
<feBlend mode="normal" in="SourceGraphic" in2="effect1_dropShadow_1_7604" result="shape"/>
</filter>
<linearGradient id="paint0_linear_1_7604" x1="13.7503" y1="1.01965" x2="13.7503" y2="25.3681" gradientUnits="userSpaceOnUse">
<stop stop-color="white"/>
<stop offset="0.3" stop-color="#AFB5EA"/>
<stop offset="0.6" stop-color="#EFF0FA"/>
<stop offset="1" stop-color="white"/>
<stop offset="1" stop-color="white"/>
</linearGradient>
<linearGradient id="paint1_linear_1_7604" x1="13.7503" y1="1.01965" x2="13.7503" y2="25.3681" gradientUnits="userSpaceOnUse">
<stop stop-color="white"/>
<stop offset="0.3" stop-color="#AFB5EA"/>
<stop offset="0.6" stop-color="#EFF0FA"/>
<stop offset="1" stop-color="white"/>
<stop offset="1" stop-color="white"/>
</linearGradient>
</defs>
</svg>
