<svg width="25" height="26" viewBox="0 0 25 26" fill="none" xmlns="http://www.w3.org/2000/svg">
<g filter="url(#filter0_d_1_7590)">
<path d="M20.4546 19.8182C20.4603 19.7501 20.4603 19.6817 20.4546 19.6137C20.4546 19.0109 20.2152 18.4328 19.789 18.0066C19.3627 17.5804 18.7847 17.3409 18.1819 17.3409C17.5791 17.3409 17.0011 17.5804 16.5748 18.0066C16.1486 18.4328 15.9092 19.0109 15.9092 19.6137C15.9035 19.6817 15.9035 19.7501 15.9092 19.8182C15.9092 20.421 16.1486 20.999 16.5748 21.4253C17.0011 21.8515 17.5791 22.0909 18.1819 22.0909C18.7847 22.0909 19.3627 21.8515 19.789 21.4253C20.2152 20.999 20.4546 20.421 20.4546 19.8182Z" fill="url(#paint0_linear_1_7590)"/>
<path d="M11.3637 19.8182C11.3694 19.7501 11.3694 19.6817 11.3637 19.6137C11.3637 19.0109 11.1243 18.4328 10.6981 18.0066C10.2718 17.5804 9.69376 17.3409 9.091 17.3409C8.48823 17.3409 7.91016 17.5804 7.48394 18.0066C7.05772 18.4328 6.81827 19.0109 6.81827 19.6137C6.81263 19.6817 6.81263 19.7501 6.81827 19.8182C6.81827 20.421 7.05772 20.999 7.48394 21.4253C7.91016 21.8515 8.48823 22.0909 9.091 22.0909C9.69376 22.0909 10.2718 21.8515 10.6981 21.4253C11.1243 20.999 11.3637 20.421 11.3637 19.8182Z" fill="url(#paint1_linear_1_7590)"/>
<path d="M2.841 14.4205H1.13645C0.979973 14.4201 0.826491 14.4634 0.693272 14.5455C0.577508 14.6168 0.480502 14.7149 0.41036 14.8314C0.340217 14.9479 0.298974 15.0795 0.290075 15.2152C0.281177 15.3509 0.304881 15.4868 0.359209 15.6114C0.413536 15.7361 0.496909 15.846 0.602362 15.9318C0.751094 16.0588 0.940893 16.1275 1.13645 16.125H3.97736C4.2034 16.125 4.42018 16.2148 4.58001 16.3746C4.73984 16.5345 4.82964 16.7513 4.82964 16.9773C4.82964 17.2033 4.73984 17.4201 4.58001 17.5799C4.42018 17.7398 4.2034 17.8296 3.97736 17.8296H2.841C2.61496 17.8296 2.39818 17.9194 2.23835 18.0792C2.07852 18.239 1.98873 18.4558 1.98873 18.6818C1.98873 18.9079 2.07852 19.1247 2.23835 19.2845C2.39818 19.4443 2.61496 19.5341 2.841 19.5341H5.97736C6.02625 18.9562 6.23914 18.4043 6.591 17.9432C6.88507 17.5583 7.26314 17.2456 7.69639 17.029C8.12964 16.8124 8.60663 16.6975 9.091 16.6932C9.87164 16.6902 10.6249 16.9806 11.2016 17.5067C11.7783 18.0329 12.1363 18.7565 12.2046 19.5341H15.0683C15.135 18.7543 15.4919 18.0278 16.0684 17.4985C16.645 16.9691 17.3992 16.6754 18.1819 16.6754C18.9646 16.6754 19.7188 16.9691 20.2954 17.4985C20.8719 18.0278 21.2289 18.7543 21.2955 19.5341H22.841C23.1068 19.5395 23.3662 19.4514 23.5738 19.2853C23.7814 19.1192 23.9242 18.8856 23.9774 18.625L24.7274 14.875C24.7215 14.8488 24.7215 14.8217 24.7274 14.7955C24.7435 14.6976 24.7435 14.5978 24.7274 14.5L22.591 8.20457C22.4746 7.87024 22.2563 7.5808 21.9669 7.37697C21.6774 7.17313 21.3314 7.06515 20.9774 7.0682H18.9319L19.0569 6.15911C19.0875 5.91824 19.0665 5.67363 18.9956 5.44144C18.9246 5.20925 18.8051 4.99477 18.6451 4.81217C18.485 4.62958 18.288 4.48303 18.0672 4.3822C17.8463 4.28138 17.6065 4.22858 17.3637 4.22729H4.54554C4.31951 4.22729 4.10273 4.31709 3.9429 4.47692C3.78306 4.63675 3.69327 4.85353 3.69327 5.07957C3.69327 5.3056 3.78306 5.52238 3.9429 5.68222C4.10273 5.84205 4.31951 5.93184 4.54554 5.93184H5.966C6.19204 5.93184 6.40881 6.02163 6.56865 6.18147C6.72848 6.3413 6.81827 6.55808 6.81827 6.78411C6.81827 7.01015 6.72848 7.22693 6.56865 7.38676C6.40881 7.54659 6.19204 7.63639 5.966 7.63639H1.13645C0.911332 7.63933 0.696259 7.73007 0.53706 7.88927C0.377861 8.04846 0.287124 8.26354 0.284181 8.48866C0.283866 8.70403 0.366195 8.9113 0.514195 9.06776C0.662195 9.22422 0.864583 9.31793 1.07964 9.32957H3.97736C4.2034 9.32957 4.42018 9.41936 4.58001 9.57919C4.73984 9.73902 4.82964 9.9558 4.82964 10.1818C4.82964 10.4079 4.73984 10.6247 4.58001 10.7845C4.42018 10.9443 4.2034 11.0341 3.97736 11.0341H2.091C1.90154 11.0755 1.73186 11.1802 1.60996 11.331C1.48807 11.4819 1.42125 11.6697 1.42054 11.8637C1.42054 12.0897 1.51034 12.3065 1.67017 12.4663C1.83 12.6261 2.04678 12.7159 2.27282 12.7159H2.841C3.06704 12.7159 3.28381 12.8057 3.44365 12.9656C3.60348 13.1254 3.69327 13.3422 3.69327 13.5682C3.69327 13.7942 3.60348 14.011 3.44365 14.1709C3.28381 14.3307 3.06704 14.4205 2.841 14.4205ZM18.7501 8.73866H20.8183C20.8779 8.73956 20.9359 8.7585 20.9846 8.79298C21.0333 8.82746 21.0704 8.87587 21.091 8.93184L22.7274 13.8523H18.0683L18.7501 8.73866Z" fill="url(#paint2_linear_1_7590)"/>
</g>
<defs>
<filter id="filter0_d_1_7590" x="0.28418" y="4.22729" width="24.4553" height="20.8636" filterUnits="userSpaceOnUse" color-interpolation-filters="sRGB">
<feFlood flood-opacity="0" result="BackgroundImageFix"/>
<feColorMatrix in="SourceAlpha" type="matrix" values="0 0 0 0 0 0 0 0 0 0 0 0 0 0 0 0 0 0 127 0" result="hardAlpha"/>
<feOffset dy="3"/>
<feComposite in2="hardAlpha" operator="out"/>
<feColorMatrix type="matrix" values="0 0 0 0 0 0 0 0 0 0 0 0 0 0 0 0 0 0 0.5 0"/>
<feBlend mode="normal" in2="BackgroundImageFix" result="effect1_dropShadow_1_7590"/>
<feBlend mode="normal" in="SourceGraphic" in2="effect1_dropShadow_1_7590" result="shape"/>
</filter>
<linearGradient id="paint0_linear_1_7590" x1="13.7774" y1="4.22729" x2="13.7774" y2="22.0909" gradientUnits="userSpaceOnUse">
<stop stop-color="white"/>
<stop offset="0.3" stop-color="#AFB5EA"/>
<stop offset="0.6" stop-color="#EFF0FA"/>
<stop offset="1" stop-color="white"/>
<stop offset="1" stop-color="white"/>
</linearGradient>
<linearGradient id="paint1_linear_1_7590" x1="13.7774" y1="4.22729" x2="13.7774" y2="22.0909" gradientUnits="userSpaceOnUse">
<stop stop-color="white"/>
<stop offset="0.3" stop-color="#AFB5EA"/>
<stop offset="0.6" stop-color="#EFF0FA"/>
<stop offset="1" stop-color="white"/>
<stop offset="1" stop-color="white"/>
</linearGradient>
<linearGradient id="paint2_linear_1_7590" x1="13.7774" y1="4.22729" x2="13.7774" y2="22.0909" gradientUnits="userSpaceOnUse">
<stop stop-color="white"/>
<stop offset="0.3" stop-color="#AFB5EA"/>
<stop offset="0.6" stop-color="#EFF0FA"/>
<stop offset="1" stop-color="white"/>
<stop offset="1" stop-color="white"/>
</linearGradient>
</defs>
</svg>
