<svg xmlns="http://www.w3.org/2000/svg" xmlns:xlink="http://www.w3.org/1999/xlink"><defs><symbol viewBox="0 0 20 20" fill="none" id="account_balance_wallet">
<g clip-path="url(#account_balance_wallet_clip0_1_129)">
<g filter="url(#account_balance_wallet_filter0_d_1_129)">
<path d="M17.083 15V15.8333C17.083 16.75 16.333 17.5 15.4163 17.5H3.74967C2.82467 17.5 2.08301 16.75 2.08301 15.8333V4.16667C2.08301 3.25 2.82467 2.5 3.74967 2.5H15.4163C16.333 2.5 17.083 3.25 17.083 4.16667V5H9.58301C8.65801 5 7.91634 5.75 7.91634 6.66667V13.3333C7.91634 14.25 8.65801 15 9.58301 15H17.083ZM9.58301 13.3333H17.9163V6.66667H9.58301V13.3333ZM12.9163 11.25C12.2247 11.25 11.6663 10.6917 11.6663 10C11.6663 9.30833 12.2247 8.75 12.9163 8.75C13.608 8.75 14.1663 9.30833 14.1663 10C14.1663 10.6917 13.608 11.25 12.9163 11.25Z" fill="url(#account_balance_wallet_paint0_linear_1_129)" />
</g>
</g>
<defs>
<filter id="account_balance_wallet_filter0_d_1_129" x="2.08301" y="2.5" width="15.833" height="18" filterUnits="userSpaceOnUse" color-interpolation-filters="sRGB">
<feFlood flood-opacity="0" result="BackgroundImageFix"></feFlood>
<feColorMatrix in="SourceAlpha" type="matrix" values="0 0 0 0 0 0 0 0 0 0 0 0 0 0 0 0 0 0 127 0" result="hardAlpha"></feColorMatrix>
<feOffset dy="3"></feOffset>
<feComposite in2="hardAlpha" operator="out"></feComposite>
<feColorMatrix type="matrix" values="0 0 0 0 0.178072 0 0 0 0 0.205659 0 0 0 0 0.443333 0 0 0 0.5 0"></feColorMatrix>
<feBlend mode="normal" in2="BackgroundImageFix" result="effect1_dropShadow_1_129"></feBlend>
<feBlend mode="normal" in="SourceGraphic" in2="effect1_dropShadow_1_129" result="shape"></feBlend>
</filter>


</defs>
</symbol><linearGradient id="account_balance_wallet_paint0_linear_1_129" x1="10.8191" y1="2.5" x2="10.8191" y2="17.5" gradientUnits="userSpaceOnUse">
<stop stop-color="white" />
<stop offset="0.3" stop-color="#AFB5EA" />
<stop offset="0.6" stop-color="#EFF0FA" />
<stop offset="1" stop-color="white" />
<stop offset="1" stop-color="white" />
</linearGradient><clipPath id="account_balance_wallet_clip0_1_129">
<rect width="20" height="20" fill="white" />
</clipPath><symbol viewBox="0 0 20 23" fill="none" id="arrow-circle">
<g filter="url(#arrow-circle_filter0_d_1_1406)">
<path fill-rule="evenodd" clip-rule="evenodd" d="M20 10C20 4.47715 15.5228 2.41411e-07 10 0C4.47715 -2.41411e-07 2.41411e-07 4.47715 0 10C-2.41411e-07 15.5228 4.47715 20 10 20C15.5228 20 20 15.5228 20 10ZM6 9.25C5.58579 9.25 5.25 9.58579 5.25 10C5.25 10.4142 5.58579 10.75 6 10.75H12.9362C12.9251 10.7642 12.9137 10.7787 12.9018 10.7935C12.6427 11.1161 12.2573 11.4997 11.6824 12.0695L10.272 13.4673C9.97784 13.7589 9.97573 14.2338 10.2673 14.528C10.5589 14.8222 11.0338 14.8243 11.328 14.5327L12.7691 13.1043C13.3053 12.573 13.7525 12.1298 14.0713 11.7328C14.4057 11.3163 14.6601 10.8787 14.7281 10.3455C14.7427 10.2308 14.75 10.1154 14.75 10C14.75 9.8846 14.7427 9.76921 14.7281 9.65451C14.6601 9.12131 14.4057 8.68367 14.0713 8.26724C13.7525 7.87022 13.3053 7.42704 12.7691 6.89566L11.328 5.46731C11.0338 5.17573 10.5589 5.17784 10.2673 5.47204C9.97573 5.76624 9.97784 6.24111 10.272 6.53269L11.6824 7.93054C12.2573 8.50033 12.6427 8.88386 12.9018 9.20649C12.9137 9.22128 12.9251 9.23579 12.9362 9.25H6Z" fill="url(#arrow-circle_paint0_linear_1_1406)" />
</g>
<defs>
<filter id="arrow-circle_filter0_d_1_1406" x="0" y="0" width="20" height="23" filterUnits="userSpaceOnUse" color-interpolation-filters="sRGB">
<feFlood flood-opacity="0" result="BackgroundImageFix"></feFlood>
<feColorMatrix in="SourceAlpha" type="matrix" values="0 0 0 0 0 0 0 0 0 0 0 0 0 0 0 0 0 0 127 0" result="hardAlpha"></feColorMatrix>
<feOffset dy="3"></feOffset>
<feComposite in2="hardAlpha" operator="out"></feComposite>
<feColorMatrix type="matrix" values="0 0 0 0 0.178072 0 0 0 0 0.205659 0 0 0 0 0.443333 0 0 0 0.5 0"></feColorMatrix>
<feBlend mode="normal" in2="BackgroundImageFix" result="effect1_dropShadow_1_1406"></feBlend>
<feBlend mode="normal" in="SourceGraphic" in2="effect1_dropShadow_1_1406" result="shape"></feBlend>
</filter>

</defs>
</symbol><linearGradient id="arrow-circle_paint0_linear_1_1406" x1="11.035" y1="-1.32414e-06" x2="11.035" y2="20" gradientUnits="userSpaceOnUse">
<stop stop-color="white" />
<stop offset="0.3" stop-color="#AFB5EA" />
<stop offset="0.6" stop-color="#EFF0FA" />
<stop offset="1" stop-color="white" />
<stop offset="1" stop-color="white" />
</linearGradient><symbol viewBox="0 0 40 41" fill="none" id="bnb">
<path d="M39.4016 25.3381C36.7301 36.0525 25.877 42.5731 15.1601 39.9012C4.44772 37.2301 -2.07358 26.3775 0.599038 15.6639C3.26931 4.94838 14.1225 -1.57268 24.836 1.09847C35.5521 3.76961 42.073 14.6234 39.4013 25.3383L39.4015 25.3381H39.4016Z" fill="#F3BA2F" />
<path fill-rule="evenodd" clip-rule="evenodd" d="M20.0018 13.1934L14.8224 18.3722L14.8225 18.372L11.8089 15.3587L20.0018 7.16669L28.1974 15.3611L25.1838 18.3745L20.0018 13.1934ZM9.68077 17.4861L6.66699 20.5L9.68056 23.5128L12.6943 20.4994L9.68077 17.4861ZM14.8223 22.6281L20.0018 27.8067L25.1836 22.6257L28.1989 25.6374L28.1974 25.639L20.0018 33.8334L11.8089 25.6414L11.8046 25.6371L14.8223 22.6281ZM30.3231 17.4879L27.3093 20.5013L30.323 23.5145L33.3367 20.5011L30.3231 17.4879Z" fill="white" />
<path d="M23.0586 20.4984H23.0599L20.002 17.4407L17.7418 19.7L17.4822 19.9597L16.9466 20.4953L16.9424 20.4994L16.9466 20.5038L20.002 23.5593L23.0601 20.5016L23.0616 20.4999L23.0588 20.4984" fill="white" />
</symbol><symbol viewBox="0 0 40 41" fill="none" id="btc">
<path d="M39.4016 25.3381C36.7301 36.0525 25.877 42.5731 15.1601 39.9012C4.44772 37.2301 -2.07358 26.3775 0.599038 15.6639C3.26931 4.94838 14.1225 -1.57268 24.836 1.09847C35.5521 3.76961 42.073 14.6234 39.4013 25.3383L39.4015 25.3381H39.4016Z" fill="#F7931A" />
<path fill-rule="evenodd" clip-rule="evenodd" d="M28.8199 17.6504C29.218 14.9889 27.1915 13.5582 24.4203 12.6038L25.3193 8.99845L23.1244 8.45159L22.2492 11.962C21.6722 11.8181 21.0796 11.6825 20.4907 11.5481L21.3721 8.01451L19.1786 7.46765L18.2791 11.0718C17.8016 10.9631 17.3326 10.8557 16.8776 10.7425L16.8801 10.7311L13.8533 9.97534L13.2694 12.3194C13.2694 12.3194 14.8979 12.6926 14.8635 12.7156C15.7524 12.9374 15.9131 13.5257 15.8864 13.992L14.8624 18.0993C14.9236 18.1149 15.003 18.1374 15.0906 18.1726L15.0269 18.1567L15.0268 18.1566C14.9726 18.1431 14.9164 18.129 14.8586 18.1152L13.4232 23.8689C13.3146 24.1389 13.0389 24.5441 12.4175 24.3903C12.4395 24.4221 10.8222 23.9922 10.8222 23.9922L9.73242 26.5044L12.5887 27.2164C12.9015 27.2948 13.2106 27.3754 13.5166 27.4551L13.5168 27.4552C13.7306 27.5109 13.9428 27.5662 14.1536 27.6201L13.2454 31.2668L15.4377 31.8136L16.3372 28.2057C16.9362 28.3683 17.5174 28.5182 18.0864 28.6596L17.19 32.2505L19.385 32.7974L20.2932 29.1576C24.036 29.8658 26.8502 29.5803 28.0348 26.1953C28.9893 23.47 27.9873 21.898 26.0182 20.8729C27.4524 20.5422 28.5327 19.5991 28.8207 17.6507L28.82 17.6502L28.8199 17.6504ZM23.805 24.6818C23.1827 27.1821 19.2685 26.1484 17.4776 25.6755C17.3165 25.6329 17.1726 25.5949 17.0498 25.5644L18.2551 20.7332C18.4047 20.7706 18.5876 20.8116 18.7948 20.8581C20.6472 21.2738 24.4426 22.1254 23.8051 24.6818H23.805ZM19.1663 18.6158C20.6593 19.0142 23.9165 19.8834 24.4838 17.6108H24.484C25.0632 15.2866 21.8978 14.5859 20.3518 14.2436C20.1779 14.2051 20.0245 14.1712 19.8992 14.1399L18.8064 18.5216C18.9096 18.5473 19.0306 18.5796 19.1663 18.6158Z" fill="white" />
</symbol><symbol viewBox="0 0 40 41" fill="none" id="busd">
<circle cx="20" cy="20.5" r="20" fill="#F0B90B" />
<path d="M19.9405 7.16675L23.2292 10.5347L14.9479 18.816L11.6592 15.5273L19.9405 7.16675Z" fill="white" stroke="white" />
<path d="M24.933 12.1593L28.2217 15.5273L14.9479 28.8011L11.6592 25.5124L24.933 12.1593Z" fill="white" stroke="white" />
<path d="M9.95573 17.1518L13.2445 20.5198L9.95573 23.8085L6.66699 20.5198L9.95573 17.1518Z" fill="white" stroke="white" />
<path d="M29.9262 17.1518L33.2149 20.5198L19.9411 33.7936L16.6523 30.5049L29.9262 17.1518Z" fill="white" stroke="white" />
</symbol><symbol viewBox="0 0 24 24" fill="none" id="buy-1">
<g filter="url(#buy-1_filter0_d_1_150)">
<path fill-rule="evenodd" clip-rule="evenodd" d="M14.4697 3.46967C14.7626 3.17678 15.2375 3.17678 15.5304 3.46967L19.3107 7.25001H22C22.4142 7.25001 22.75 7.5858 22.75 8.00001C22.75 8.41422 22.4142 8.75001 22 8.75001H21.4557C21.2293 9.60606 20.9365 10.593 20.5959 11.7414L19.5708 15.1969C19.1636 16.5702 18.914 17.412 18.4765 18.0966C17.7233 19.2751 16.5663 20.1386 15.2223 20.5256C14.4416 20.7503 13.5635 20.7502 12.1312 20.75H11.8688C10.4365 20.7502 9.55843 20.7503 8.77772 20.5256C7.43365 20.1386 6.2767 19.2751 5.52349 18.0966C5.08598 17.412 4.83637 16.5702 4.42921 15.1969L3.40431 11.742C3.06357 10.5934 2.77073 9.60621 2.54431 8.75001H2C1.58579 8.75001 1.25 8.41422 1.25 8.00001C1.25 7.5858 1.58579 7.25001 2 7.25001H4.93198L8.71231 3.46969C9.0052 3.17679 9.48008 3.17679 9.77297 3.46969C10.0659 3.76258 10.0659 4.23745 9.77297 4.53035L7.05331 7.25001H17.1894L14.4697 4.53033C14.1768 4.23744 14.1768 3.76256 14.4697 3.46967ZM10.75 12C10.75 11.5858 10.4142 11.25 10 11.25C9.58579 11.25 9.25 11.5858 9.25 12V16C9.25 16.4142 9.58579 16.75 10 16.75C10.4142 16.75 10.75 16.4142 10.75 16V12ZM14.75 12C14.75 11.5858 14.4142 11.25 14 11.25C13.5858 11.25 13.25 11.5858 13.25 12V16C13.25 16.4142 13.5858 16.75 14 16.75C14.4142 16.75 14.75 16.4142 14.75 16V12Z" fill="url(#buy-1_paint0_linear_1_150)" />
</g>
<defs>
<filter id="buy-1_filter0_d_1_150" x="1.25" y="3.25" width="21.5" height="20.5" filterUnits="userSpaceOnUse" color-interpolation-filters="sRGB">
<feFlood flood-opacity="0" result="BackgroundImageFix"></feFlood>
<feColorMatrix in="SourceAlpha" type="matrix" values="0 0 0 0 0 0 0 0 0 0 0 0 0 0 0 0 0 0 127 0" result="hardAlpha"></feColorMatrix>
<feOffset dy="3"></feOffset>
<feComposite in2="hardAlpha" operator="out"></feComposite>
<feColorMatrix type="matrix" values="0 0 0 0 0.178072 0 0 0 0 0.205659 0 0 0 0 0.443333 0 0 0 0.5 0"></feColorMatrix>
<feBlend mode="normal" in2="BackgroundImageFix" result="effect1_dropShadow_1_150"></feBlend>
<feBlend mode="normal" in="SourceGraphic" in2="effect1_dropShadow_1_150" result="shape"></feBlend>
</filter>

</defs>
</symbol><linearGradient id="buy-1_paint0_linear_1_150" x1="13.1126" y1="3.25" x2="13.1126" y2="20.75" gradientUnits="userSpaceOnUse">
<stop stop-color="white" />
<stop offset="0.3" stop-color="#AFB5EA" />
<stop offset="0.6" stop-color="#EFF0FA" />
<stop offset="1" stop-color="white" />
<stop offset="1" stop-color="white" />
</linearGradient><symbol viewBox="0 0 24 24" fill="none" id="chevron">
<path fill-rule="evenodd" clip-rule="evenodd" d="M12.0002 15.5002C11.7442 15.5002 11.4883 15.4023 11.2933 15.2073L7.29325 11.2072C6.90225 10.8162 6.90225 10.1842 7.29325 9.79325C7.68425 9.40225 8.31625 9.40225 8.70725 9.79325L12.0122 13.0982L15.3053 9.91825C15.7043 9.53525 16.3352 9.54625 16.7192 9.94325C17.1032 10.3403 17.0922 10.9742 16.6952 11.3572L12.6953 15.2193C12.5002 15.4073 12.2502 15.5002 12.0002 15.5002Z" fill="currentColor" />

</symbol><mask id="chevron_mask0_156_10598" style="mask-type:alpha" maskUnits="userSpaceOnUse" x="7" y="9" width="10" height="7">
<path fill-rule="evenodd" clip-rule="evenodd" d="M12.0002 15.5002C11.7442 15.5002 11.4883 15.4023 11.2933 15.2073L7.29325 11.2072C6.90225 10.8162 6.90225 10.1842 7.29325 9.79325C7.68425 9.40225 8.31625 9.40225 8.70725 9.79325L12.0122 13.0982L15.3053 9.91825C15.7043 9.53525 16.3352 9.54625 16.7192 9.94325C17.1032 10.3403 17.0922 10.9742 16.6952 11.3572L12.6953 15.2193C12.5002 15.4073 12.2502 15.5002 12.0002 15.5002Z" fill="none" />
</mask><symbol viewBox="0 0 18 18" fill="none" id="close">
<path d="M4.5 4.5L14.0806 14.0806" stroke="currentColor" stroke-width="2" stroke-linecap="round" stroke-linejoin="round" />
<path d="M4.5 14.0807L14.0806 4.50004" stroke="currentColor" stroke-width="2" stroke-linecap="round" stroke-linejoin="round" />
</symbol><symbol viewBox="0 0 24 24" fill="none" id="close-thin">
<path d="M6 6L18.7742 18.7742" stroke="currentColor" stroke-width="1.5" stroke-linecap="round" stroke-linejoin="round" />
<path d="M6 18.7742L18.7742 5.99998" stroke="currentColor" stroke-width="1.5" stroke-linecap="round" stroke-linejoin="round" />
</symbol><symbol viewBox="0 0 20 23" fill="none" id="discount">
<g filter="url(#discount_filter0_d_1_166)">
<path d="M10.6564 17.9187L2.49805 9.76037V11.427C2.49805 11.8687 2.67305 12.2937 2.98971 12.602L9.48138 19.0937C10.1314 19.7437 11.1897 19.7437 11.8397 19.0937L17.0147 13.9187C17.6647 13.2687 17.6647 12.2104 17.0147 11.5604L10.6564 17.9187Z" fill="url(#discount_paint0_linear_1_166)" />
<path d="M9.48138 14.927C10.1314 15.577 11.1897 15.577 11.8397 14.927L17.0147 9.75203C17.6647 9.10203 17.6647 8.0437 17.0147 7.3937L10.523 0.902034C10.2064 0.593701 9.78138 0.418701 9.33971 0.418701H4.16471C3.24805 0.418701 2.49805 1.1687 2.49805 2.08537V7.26037C2.49805 7.70203 2.67305 8.12703 2.98971 8.43537L9.48138 14.927ZM6.03971 2.9187C6.61471 2.9187 7.08138 3.38537 7.08138 3.96037C7.08138 4.53537 6.61471 5.00203 6.03971 5.00203C5.46471 5.00203 4.99805 4.53537 4.99805 3.96037C4.99805 3.38537 5.46471 2.9187 6.03971 2.9187Z" fill="url(#discount_paint1_linear_1_166)" />
</g>
<defs>
<filter id="discount_filter0_d_1_166" x="2.49805" y="0.418701" width="15.0039" height="22.1625" filterUnits="userSpaceOnUse" color-interpolation-filters="sRGB">
<feFlood flood-opacity="0" result="BackgroundImageFix"></feFlood>
<feColorMatrix in="SourceAlpha" type="matrix" values="0 0 0 0 0 0 0 0 0 0 0 0 0 0 0 0 0 0 127 0" result="hardAlpha"></feColorMatrix>
<feOffset dy="3"></feOffset>
<feComposite in2="hardAlpha" operator="out"></feComposite>
<feColorMatrix type="matrix" values="0 0 0 0 0.178072 0 0 0 0 0.205659 0 0 0 0 0.443333 0 0 0 0.5 0"></feColorMatrix>
<feBlend mode="normal" in2="BackgroundImageFix" result="effect1_dropShadow_1_166"></feBlend>
<feBlend mode="normal" in="SourceGraphic" in2="effect1_dropShadow_1_166" result="shape"></feBlend>
</filter>


</defs>
</symbol><linearGradient id="discount_paint0_linear_1_166" x1="10.7766" y1="0.4187" x2="10.7766" y2="19.5812" gradientUnits="userSpaceOnUse">
<stop stop-color="white" />
<stop offset="0.3" stop-color="#AFB5EA" />
<stop offset="0.6" stop-color="#EFF0FA" />
<stop offset="1" stop-color="white" />
<stop offset="1" stop-color="white" />
</linearGradient><linearGradient id="discount_paint1_linear_1_166" x1="10.7766" y1="0.4187" x2="10.7766" y2="19.5812" gradientUnits="userSpaceOnUse">
<stop stop-color="white" />
<stop offset="0.3" stop-color="#AFB5EA" />
<stop offset="0.6" stop-color="#EFF0FA" />
<stop offset="1" stop-color="white" />
<stop offset="1" stop-color="white" />
</linearGradient><symbol viewBox="0 0 40 41" fill="none" id="eth">
<circle cx="20" cy="20.5" r="20" fill="#EDF0F4" />
<path d="M19.9452 8.5L19.7861 9.04043V24.721L19.9452 24.8797L27.2238 20.5773L19.9452 8.5Z" fill="#343434" />
<path d="M19.9458 8.5L12.667 20.5773L19.9458 24.8797V17.2688V8.5Z" fill="#8C8C8C" />
<path d="M19.9461 26.2579L19.8564 26.3672V31.9529L19.9461 32.2146L27.2292 21.9576L19.9461 26.2579Z" fill="#3C3C3B" />
<path d="M19.9458 32.2146V26.2579L12.667 21.9576L19.9458 32.2146Z" fill="#8C8C8C" />
<path d="M19.9453 24.8796L27.2239 20.5772L19.9453 17.2687V24.8796Z" fill="#141414" />
<path d="M12.667 20.5772L19.9458 24.8796V17.2687L12.667 20.5772Z" fill="#393939" />
</symbol><symbol viewBox="0 0 16 16" fill="none" id="fi-rr-angle-small-down">
<path d="M12.4726 6.27337C12.4106 6.21088 12.3369 6.16129 12.2556 6.12744C12.1744 6.0936 12.0872 6.07617 11.9992 6.07617C11.9112 6.07617 11.8241 6.0936 11.7428 6.12744C11.6616 6.16129 11.5879 6.21088 11.5259 6.27337L8.47256 9.3267C8.41058 9.38918 8.33685 9.43878 8.25561 9.47262C8.17437 9.50647 8.08723 9.5239 7.99923 9.5239C7.91122 9.5239 7.82408 9.50647 7.74284 9.47262C7.6616 9.43878 7.58787 9.38918 7.52589 9.3267L4.47256 6.27337C4.41058 6.21088 4.33685 6.16129 4.25561 6.12744C4.17437 6.0936 4.08723 6.07617 3.99923 6.07617C3.91122 6.07617 3.82408 6.0936 3.74284 6.12744C3.6616 6.16129 3.58787 6.21088 3.52589 6.27337C3.40173 6.39828 3.33203 6.56725 3.33203 6.74337C3.33203 6.91949 3.40173 7.08846 3.52589 7.21337L6.58589 10.2734C6.96089 10.6479 7.46922 10.8583 7.99923 10.8583C8.52923 10.8583 9.03756 10.6479 9.41256 10.2734L12.4726 7.21337C12.5967 7.08846 12.6664 6.91949 12.6664 6.74337C12.6664 6.56725 12.5967 6.39828 12.4726 6.27337Z" fill="currentColor" />
</symbol><symbol viewBox="0 0 18 18" fill="none" id="fi-rr-copy">
<g clip-path="url(#fi-rr-copy_clip0_1_8357)">
<path d="M11.25 15H3.75C2.7558 14.9988 1.80267 14.6033 1.09966 13.9003C0.396661 13.1973 0.00119089 12.2442 0 11.25L0 3.75C0.00119089 2.7558 0.396661 1.80267 1.09966 1.09966C1.80267 0.396661 2.7558 0.00119089 3.75 0L11.25 0C12.2442 0.00119089 13.1973 0.396661 13.9003 1.09966C14.6033 1.80267 14.9988 2.7558 15 3.75V11.25C14.9988 12.2442 14.6033 13.1973 13.9003 13.9003C13.1973 14.6033 12.2442 14.9988 11.25 15ZM3.75 1.5C3.15326 1.5 2.58097 1.73705 2.15901 2.15901C1.73705 2.58097 1.5 3.15326 1.5 3.75V11.25C1.5 11.8467 1.73705 12.419 2.15901 12.841C2.58097 13.2629 3.15326 13.5 3.75 13.5H11.25C11.8467 13.5 12.419 13.2629 12.841 12.841C13.2629 12.419 13.5 11.8467 13.5 11.25V3.75C13.5 3.15326 13.2629 2.58097 12.841 2.15901C12.419 1.73705 11.8467 1.5 11.25 1.5H3.75ZM18 14.25V4.5C18 4.30109 17.921 4.11032 17.7803 3.96967C17.6397 3.82902 17.4489 3.75 17.25 3.75C17.0511 3.75 16.8603 3.82902 16.7197 3.96967C16.579 4.11032 16.5 4.30109 16.5 4.5V14.25C16.5 14.8467 16.2629 15.419 15.841 15.841C15.419 16.2629 14.8467 16.5 14.25 16.5H4.5C4.30109 16.5 4.11032 16.579 3.96967 16.7197C3.82902 16.8603 3.75 17.0511 3.75 17.25C3.75 17.4489 3.82902 17.6397 3.96967 17.7803C4.11032 17.921 4.30109 18 4.5 18H14.25C15.2442 17.9988 16.1973 17.6033 16.9003 16.9003C17.6033 16.1973 17.9988 15.2442 18 14.25Z" fill="#616EDE" />
</g>
<defs>

</defs>
</symbol><clipPath id="fi-rr-copy_clip0_1_8357">
<rect width="18" height="18" fill="white" />
</clipPath><symbol viewBox="0 0 18 18" fill="none" id="fi-sr-menu-dots-vertical">
<path d="M8.5 5.00002C9.32843 5.00002 10 4.32845 10 3.50001C10 2.67158 9.32843 2 8.5 2C7.67157 2 7 2.67158 7 3.50001C7 4.32845 7.67157 5.00002 8.5 5.00002Z" fill="currentColor" />
<path d="M8.5 10.5C9.32843 10.5 10 9.82845 10 9.00002C10 8.17158 9.32843 7.5 8.5 7.5C7.67157 7.5 7 8.17158 7 9.00002C7 9.82845 7.67157 10.5 8.5 10.5Z" fill="currentColor" />
<path d="M8.5 16C9.32843 16 10 15.3285 10 14.5C10 13.6716 9.32843 13 8.5 13C7.67157 13 7 13.6716 7 14.5C7 15.3285 7.67157 16 8.5 16Z" fill="currentColor" />
</symbol><symbol viewBox="0 0 40 43" fill="none" id="fi_4519375">
<g filter="url(#fi_4519375_filter0_d_1_194)">
<path d="M20.4353 9.28333C20.3031 9.20686 20.1531 9.16659 20.0004 9.16659C19.8477 9.16659 19.6977 9.20686 19.5655 9.28333L10.9367 14.2643C10.8045 14.3411 10.6948 14.4511 10.6184 14.5834C10.542 14.7158 10.5016 14.8659 10.5013 15.0187V24.9813C10.5017 25.1343 10.5422 25.2846 10.6187 25.4171C10.6952 25.5496 10.8052 25.6597 10.9375 25.7365L19.5647 30.7167C19.6969 30.793 19.8469 30.8332 19.9996 30.8332C20.1523 30.8332 20.3023 30.793 20.4345 30.7167L29.0633 25.7353C29.1955 25.6586 29.3052 25.5486 29.3816 25.4162C29.458 25.2839 29.4984 25.1338 29.4987 24.981V15.0187C29.4983 14.8657 29.4578 14.7154 29.3813 14.5829C29.3048 14.4504 29.1948 14.3403 29.0625 14.2635L20.4353 9.28333ZM24.7558 17.8112L19.2 23.3667C19.0437 23.5229 18.8318 23.6107 18.6108 23.6107C18.3899 23.6107 18.1779 23.5229 18.0217 23.3667L15.2442 20.5892C15.0924 20.432 15.0084 20.2215 15.0103 20.003C15.0122 19.7845 15.0998 19.5755 15.2543 19.421C15.4088 19.2665 15.6178 19.1788 15.8363 19.1769C16.0548 19.175 16.2653 19.259 16.4225 19.4108L18.6108 21.5992L23.5775 16.6333C23.7347 16.4815 23.9452 16.3975 24.1637 16.3994C24.3822 16.4013 24.5912 16.489 24.7457 16.6435C24.9002 16.798 24.9878 17.007 24.9897 17.2255C24.9916 17.444 24.9076 17.654 24.7558 17.8112Z" fill="url(#fi_4519375_paint0_linear_1_194)" />
<path d="M20 0C16.0444 0 12.1776 1.17298 8.8886 3.37061C5.59962 5.56824 3.03617 8.69181 1.52242 12.3463C0.0086658 16.0009 -0.387401 20.0222 0.384303 23.9018C1.15601 27.7814 3.06082 31.3451 5.85787 34.1421C8.65492 36.9392 12.2186 38.844 16.0982 39.6157C19.9778 40.3874 23.9992 39.9913 27.6537 38.4776C31.3082 36.9638 34.4318 34.4004 36.6294 31.1114C38.827 27.8224 40 23.9556 40 20C40 14.6957 37.8929 9.60859 34.1421 5.85786C30.3914 2.10714 25.3043 0 20 0ZM31.1653 24.9813C31.1644 25.4264 31.0469 25.8635 30.8245 26.249C30.602 26.6345 30.2824 26.955 29.8975 27.1785L21.2687 32.1598C20.8828 32.3824 20.4451 32.4996 19.9996 32.4996C19.5541 32.4996 19.1164 32.3824 18.7305 32.1598L10.1033 27.1793C9.71825 26.9558 9.39848 26.6352 9.17588 26.2495C8.95329 25.8639 8.83564 25.4266 8.83467 24.9813V15.0187C8.83557 14.5736 8.9531 14.1365 9.17555 13.751C9.39801 13.3655 9.71761 13.045 10.1025 12.8215L18.7313 7.84017C19.1172 7.61743 19.5549 7.50017 20.0004 7.50017C20.446 7.50017 20.8836 7.61743 21.2695 7.84017L29.8967 12.8207C30.2818 13.0442 30.6015 13.3648 30.8241 13.7505C31.0467 14.1361 31.1644 14.5734 31.1653 15.0187V24.9813Z" fill="url(#fi_4519375_paint1_linear_1_194)" />
</g>
<defs>
<filter id="fi_4519375_filter0_d_1_194" x="0" y="0" width="40" height="43" filterUnits="userSpaceOnUse" color-interpolation-filters="sRGB">
<feFlood flood-opacity="0" result="BackgroundImageFix"></feFlood>
<feColorMatrix in="SourceAlpha" type="matrix" values="0 0 0 0 0 0 0 0 0 0 0 0 0 0 0 0 0 0 127 0" result="hardAlpha"></feColorMatrix>
<feOffset dy="3"></feOffset>
<feComposite in2="hardAlpha" operator="out"></feComposite>
<feColorMatrix type="matrix" values="0 0 0 0 0.178072 0 0 0 0 0.205659 0 0 0 0 0.443333 0 0 0 0.5 0"></feColorMatrix>
<feBlend mode="normal" in2="BackgroundImageFix" result="effect1_dropShadow_1_194"></feBlend>
<feBlend mode="normal" in="SourceGraphic" in2="effect1_dropShadow_1_194" result="shape"></feBlend>
</filter>


</defs>
</symbol><linearGradient id="fi_4519375_paint0_linear_1_194" x1="22.07" y1="-2.64828e-06" x2="22.07" y2="40" gradientUnits="userSpaceOnUse">
<stop stop-color="white" />
<stop offset="0.3" stop-color="#AFB5EA" />
<stop offset="0.6" stop-color="#EFF0FA" />
<stop offset="1" stop-color="white" />
<stop offset="1" stop-color="white" />
</linearGradient><linearGradient id="fi_4519375_paint1_linear_1_194" x1="22.07" y1="-2.64828e-06" x2="22.07" y2="40" gradientUnits="userSpaceOnUse">
<stop stop-color="white" />
<stop offset="0.3" stop-color="#AFB5EA" />
<stop offset="0.6" stop-color="#EFF0FA" />
<stop offset="1" stop-color="white" />
<stop offset="1" stop-color="white" />
</linearGradient><symbol viewBox="0 0 20 23" fill="none" id="fi_4544406">
<g filter="url(#fi_4544406_filter0_d_1_186)">
<path d="M3.22534 3.22505L2.50034 2.50005C2.17951 4.74172 2.29201 3.95005 2.08367 5.41672L5.20867 5.20839L4.40451 4.40422C5.70014 3.10956 7.40461 2.30421 9.22747 2.12539C11.0503 1.94658 12.8788 2.40538 14.4013 3.4236C15.9238 4.44182 17.0462 5.95646 17.5771 7.70943C18.108 9.46241 18.0147 11.3453 17.313 13.0371C16.6113 14.729 15.3447 16.1252 13.7289 16.9879C12.1132 17.8505 10.2483 18.1262 8.45207 17.768C6.65582 17.4098 5.03935 16.4399 3.87811 15.0234C2.71687 13.607 2.0827 11.8317 2.08367 10.0001H0.417007C0.335784 12.5417 1.26756 15.0115 3.00735 16.8662C4.74714 18.7208 7.15243 19.8084 9.69409 19.8896C12.2357 19.9709 14.7056 19.0391 16.5602 17.2993C18.4149 15.5595 19.5025 13.1542 19.5837 10.6126C20.117 1.77089 9.41284 -2.96245 3.22534 3.22505Z" fill="url(#fi_4544406_paint0_linear_1_186)" />
<path d="M5.26284 6.04172L4.07534 6.11672C3.09821 7.60228 2.71553 9.401 3.00331 11.1557C3.29109 12.9103 4.22828 14.4926 5.62874 15.5882C7.02921 16.6838 8.79051 17.2126 10.5629 17.0696C12.3352 16.9267 13.989 16.1223 15.1957 14.8164C16.4024 13.5104 17.0738 11.7984 17.0766 10.0203C17.0794 8.2422 16.4133 6.52809 15.2107 5.21838C14.008 3.90868 12.3568 3.09919 10.5849 2.95067C8.81299 2.80216 7.05005 3.32548 5.64617 4.41672C5.59617 4.41672 5.60867 4.41672 5.79617 4.62089C5.90939 4.73406 5.98761 4.87744 6.02149 5.03389C6.05537 5.19035 6.04347 5.35324 5.98721 5.50311C5.93096 5.65298 5.83273 5.78347 5.70427 5.87899C5.57581 5.9745 5.42256 6.031 5.26284 6.04172ZM11.2503 11.5251C11.1212 10.7417 10.2087 10.8334 9.70867 10.8334C9.04978 10.8481 8.41033 10.6096 7.922 10.167C7.43367 9.72438 7.13363 9.11138 7.08367 8.45422C7.05485 7.84333 7.25095 7.24306 7.63486 6.76701C8.01878 6.29095 8.56388 5.97214 9.16701 5.87089C9.16701 4.92505 9.11284 4.70422 9.41284 4.41255C9.52937 4.29671 9.67754 4.21791 9.83873 4.18604C9.99992 4.15418 10.1669 4.17067 10.3188 4.23346C10.4706 4.29624 10.6005 4.40251 10.6921 4.53891C10.7837 4.67531 10.833 4.83575 10.8337 5.00005V5.83339H12.0837C12.1931 5.8364 12.3009 5.86093 12.4008 5.90559C12.5008 5.95025 12.591 6.01416 12.6662 6.09367C12.7415 6.17318 12.8003 6.26673 12.8394 6.36899C12.8785 6.47125 12.8971 6.5802 12.8941 6.68964C12.8911 6.79907 12.8665 6.90684 12.8219 7.0068C12.7772 7.10675 12.7133 7.19693 12.6338 7.27218C12.5543 7.34743 12.4607 7.40629 12.3585 7.44539C12.2562 7.48449 12.1473 7.50306 12.0378 7.50005H9.58367C9.46123 7.49827 9.3399 7.52349 9.22831 7.57393C9.11672 7.62437 9.01761 7.69878 8.93805 7.79186C8.85849 7.88495 8.80042 7.99444 8.76797 8.11252C8.73553 8.2306 8.72951 8.35438 8.75034 8.47505C8.87951 9.25839 9.79201 9.16672 10.292 9.16672C10.9509 9.15203 11.5904 9.39054 12.0787 9.83313C12.567 10.2757 12.867 10.8887 12.917 11.5459C12.9458 12.1568 12.7497 12.757 12.3658 13.2331C11.9819 13.7092 11.4368 14.028 10.8337 14.1292C10.8337 15.0751 10.8878 15.2959 10.5878 15.5876C10.4713 15.7034 10.3231 15.7822 10.162 15.8141C10.0008 15.8459 9.83375 15.8294 9.68191 15.7667C9.53006 15.7039 9.40017 15.5976 9.30856 15.4612C9.21694 15.3248 9.1677 15.1644 9.16701 15.0001V14.1667H7.91701C7.80757 14.1637 7.6998 14.1392 7.59985 14.0945C7.4999 14.0499 7.40972 13.9859 7.33446 13.9064C7.25921 13.8269 7.20035 13.7334 7.16125 13.6311C7.12216 13.5289 7.10358 13.4199 7.10659 13.3105C7.1096 13.201 7.13413 13.0933 7.17879 12.9933C7.22345 12.8934 7.28736 12.8032 7.36687 12.7279C7.44638 12.6527 7.53994 12.5938 7.64219 12.5547C7.74445 12.5156 7.85341 12.497 7.96284 12.5001H10.417C10.5395 12.5018 10.6608 12.4766 10.7724 12.4262C10.884 12.3757 10.9831 12.3013 11.0626 12.2082C11.1422 12.1152 11.2003 12.0057 11.2327 11.8876C11.2652 11.7695 11.2712 11.6457 11.2503 11.5251Z" fill="url(#fi_4544406_paint1_linear_1_186)" />
</g>
<defs>
<filter id="fi_4544406_filter0_d_1_186" x="0.412109" y="0.415771" width="19.1904" height="22.4788" filterUnits="userSpaceOnUse" color-interpolation-filters="sRGB">
<feFlood flood-opacity="0" result="BackgroundImageFix"></feFlood>
<feColorMatrix in="SourceAlpha" type="matrix" values="0 0 0 0 0 0 0 0 0 0 0 0 0 0 0 0 0 0 127 0" result="hardAlpha"></feColorMatrix>
<feOffset dy="3"></feOffset>
<feComposite in2="hardAlpha" operator="out"></feComposite>
<feColorMatrix type="matrix" values="0 0 0 0 0.178072 0 0 0 0 0.205659 0 0 0 0 0.443333 0 0 0 0.5 0"></feColorMatrix>
<feBlend mode="normal" in2="BackgroundImageFix" result="effect1_dropShadow_1_186"></feBlend>
<feBlend mode="normal" in="SourceGraphic" in2="effect1_dropShadow_1_186" result="shape"></feBlend>
</filter>


</defs>
</symbol><linearGradient id="fi_4544406_paint0_linear_1_186" x1="11.0006" y1="0.41577" x2="11.0006" y2="19.8945" gradientUnits="userSpaceOnUse">
<stop stop-color="white" />
<stop offset="0.3" stop-color="#AFB5EA" />
<stop offset="0.6" stop-color="#EFF0FA" />
<stop offset="1" stop-color="white" />
<stop offset="1" stop-color="white" />
</linearGradient><linearGradient id="fi_4544406_paint1_linear_1_186" x1="11.0006" y1="0.41577" x2="11.0006" y2="19.8945" gradientUnits="userSpaceOnUse">
<stop stop-color="white" />
<stop offset="0.3" stop-color="#AFB5EA" />
<stop offset="0.6" stop-color="#EFF0FA" />
<stop offset="1" stop-color="white" />
<stop offset="1" stop-color="white" />
</linearGradient><symbol viewBox="0 0 20 23" fill="none" id="fi_483466">
<g filter="url(#fi_483466_filter0_d_1_172)">
<path d="M17.3774 4.28824L13.2118 0.122578C13.1363 0.0469141 13.0321 0 12.9167 0H4.16668C3.24789 0 2.5 0.747461 2.5 1.66668V18.3334C2.5 19.2525 3.24789 20 4.16668 20H15.8334C16.7521 20 17.5 19.2525 17.5 18.3333V4.58332C17.5 4.46793 17.4531 4.36367 17.3774 4.28824ZM6.25 17.5C5.5607 17.5 5 16.9393 5 16.25C5 15.5607 5.5607 15 6.25 15C6.9393 15 7.5 15.5607 7.5 16.25C7.5 16.9393 6.9393 17.5 6.25 17.5ZM6.25 13.3333C5.5607 13.3333 5 12.7726 5 12.0833C5 11.394 5.5607 10.8333 6.25 10.8333C6.9393 10.8333 7.5 11.394 7.5 12.0833C7.5 12.7726 6.9393 13.3333 6.25 13.3333ZM8.75 9.16668H7.08332C6.85301 9.16668 6.66664 8.98031 6.66664 8.75V7.5H5.41664C5.18633 7.5 4.99996 7.31363 4.99996 7.08332V5.41664C4.99996 5.18633 5.18633 4.99996 5.41664 4.99996H6.66664V3.75C6.66664 3.51969 6.85301 3.33332 7.08332 3.33332H8.75C8.98031 3.33332 9.16668 3.51969 9.16668 3.75V5H10.4167C10.647 5 10.8334 5.18637 10.8334 5.41668V7.08336C10.8334 7.31367 10.647 7.50004 10.4167 7.50004H9.16668V8.75004C9.16668 8.98031 8.98031 9.16668 8.75 9.16668ZM14.5833 16.6667H9.58332C9.35301 16.6667 9.16664 16.4803 9.16664 16.25C9.16664 16.0197 9.35301 15.8333 9.58332 15.8333H14.5833C14.8136 15.8333 15 16.0197 15 16.25C15 16.4803 14.8136 16.6667 14.5833 16.6667ZM14.5833 12.5H9.58332C9.35301 12.5 9.16664 12.3136 9.16664 12.0833C9.16664 11.853 9.35301 11.6666 9.58332 11.6666H14.5833C14.8136 11.6666 15 11.853 15 12.0833C15 12.3136 14.8136 12.5 14.5833 12.5ZM14.1667 4.16668C13.7069 4.16668 13.3334 3.79273 13.3334 3.33336V1.42254L16.0775 4.16668H14.1667Z" fill="url(#fi_483466_paint0_linear_1_172)" />
</g>
<defs>
<filter id="fi_483466_filter0_d_1_172" x="2.5" y="0" width="15" height="23" filterUnits="userSpaceOnUse" color-interpolation-filters="sRGB">
<feFlood flood-opacity="0" result="BackgroundImageFix"></feFlood>
<feColorMatrix in="SourceAlpha" type="matrix" values="0 0 0 0 0 0 0 0 0 0 0 0 0 0 0 0 0 0 127 0" result="hardAlpha"></feColorMatrix>
<feOffset dy="3"></feOffset>
<feComposite in2="hardAlpha" operator="out"></feComposite>
<feColorMatrix type="matrix" values="0 0 0 0 0.178072 0 0 0 0 0.205659 0 0 0 0 0.443333 0 0 0 0.5 0"></feColorMatrix>
<feBlend mode="normal" in2="BackgroundImageFix" result="effect1_dropShadow_1_172"></feBlend>
<feBlend mode="normal" in="SourceGraphic" in2="effect1_dropShadow_1_172" result="shape"></feBlend>
</filter>

</defs>
</symbol><linearGradient id="fi_483466_paint0_linear_1_172" x1="10.7763" y1="-1.32414e-06" x2="10.7763" y2="20" gradientUnits="userSpaceOnUse">
<stop stop-color="white" />
<stop offset="0.3" stop-color="#AFB5EA" />
<stop offset="0.6" stop-color="#EFF0FA" />
<stop offset="1" stop-color="white" />
<stop offset="1" stop-color="white" />
</linearGradient><symbol viewBox="0 0 20 21" fill="none" id="fi_9356319">
<g filter="url(#fi_9356319_filter0_d_1_179)">
<path d="M16.3639 15.4545C16.3684 15.4001 16.3684 15.3454 16.3639 15.2909C16.3639 14.8087 16.1723 14.3462 15.8314 14.0053C15.4904 13.6643 15.0279 13.4727 14.5457 13.4727C14.0635 13.4727 13.601 13.6643 13.2601 14.0053C12.9191 14.3462 12.7275 14.8087 12.7275 15.2909C12.723 15.3454 12.723 15.4001 12.7275 15.4545C12.7275 15.9368 12.9191 16.3992 13.2601 16.7402C13.601 17.0812 14.0635 17.2727 14.5457 17.2727C15.0279 17.2727 15.4904 17.0812 15.8314 16.7402C16.1723 16.3992 16.3639 15.9368 16.3639 15.4545Z" fill="url(#fi_9356319_paint0_linear_1_179)" />
<path d="M9.09118 15.4545C9.09569 15.4001 9.09569 15.3454 9.09118 15.2909C9.09118 14.8087 8.89962 14.3462 8.55864 14.0053C8.21767 13.6643 7.75521 13.4727 7.27299 13.4727C6.79078 13.4727 6.32832 13.6643 5.98735 14.0053C5.64637 14.3462 5.45481 14.8087 5.45481 15.2909C5.4503 15.3454 5.4503 15.4001 5.45481 15.4545C5.45481 15.9368 5.64637 16.3992 5.98735 16.7402C6.32832 17.0812 6.79078 17.2727 7.27299 17.2727C7.75521 17.2727 8.21767 17.0812 8.55864 16.7402C8.89962 16.3992 9.09118 15.9368 9.09118 15.4545Z" fill="url(#fi_9356319_paint1_linear_1_179)" />
<path d="M2.27299 11.1364H0.909358C0.784174 11.1361 0.661388 11.1707 0.554813 11.2364C0.462201 11.2934 0.384597 11.3719 0.328483 11.4651C0.272369 11.5583 0.239374 11.6636 0.232255 11.7721C0.225137 11.8807 0.2441 11.9894 0.287562 12.0891C0.331024 12.1889 0.397723 12.2767 0.482085 12.3454C0.601071 12.447 0.75291 12.502 0.909358 12.5H3.18209C3.36291 12.5 3.53634 12.5718 3.6642 12.6997C3.79207 12.8276 3.8639 13.001 3.8639 13.1818C3.8639 13.3626 3.79207 13.5361 3.6642 13.6639C3.53634 13.7918 3.36291 13.8636 3.18209 13.8636H2.27299C2.09216 13.8636 1.91874 13.9355 1.79088 14.0633C1.66301 14.1912 1.59118 14.3646 1.59118 14.5454C1.59118 14.7263 1.66301 14.8997 1.79088 15.0276C1.91874 15.1554 2.09216 15.2273 2.27299 15.2273H4.78209C4.82119 14.7649 4.99151 14.3234 5.27299 13.9545C5.50825 13.6466 5.81071 13.3965 6.15731 13.2232C6.50391 13.0499 6.8855 12.958 7.27299 12.9545C7.8975 12.9521 8.50013 13.1844 8.96147 13.6053C9.42281 14.0263 9.70921 14.6052 9.7639 15.2273H12.0548C12.1082 14.6034 12.3937 14.0222 12.8549 13.5987C13.3162 13.1753 13.9196 12.9403 14.5457 12.9403C15.1719 12.9403 15.7753 13.1753 16.2365 13.5987C16.6977 14.0222 16.9833 14.6034 17.0366 15.2273H18.273C18.4857 15.2316 18.6931 15.1611 18.8592 15.0282C19.0253 14.8954 19.1396 14.7084 19.1821 14.5L19.7821 11.5C19.7774 11.479 19.7774 11.4573 19.7821 11.4364C19.795 11.3581 19.795 11.2783 19.7821 11.2L18.073 6.16363C17.9799 5.89617 17.8052 5.66462 17.5737 5.50155C17.3421 5.33848 17.0653 5.2521 16.7821 5.25454H15.1457L15.2457 4.52727C15.2702 4.33457 15.2534 4.13888 15.1966 3.95312C15.1398 3.76737 15.0443 3.59579 14.9162 3.44971C14.7882 3.30364 14.6306 3.1864 14.4539 3.10574C14.2772 3.02508 14.0854 2.98284 13.8912 2.98181H3.63663C3.4558 2.98181 3.28238 3.05365 3.15451 3.18151C3.02665 3.30938 2.95481 3.4828 2.95481 3.66363C2.95481 3.84446 3.02665 4.01788 3.15451 4.14575C3.28238 4.27361 3.4558 4.34545 3.63663 4.34545H4.77299C4.95382 4.34545 5.12725 4.41728 5.25511 4.54515C5.38298 4.67301 5.45481 4.84644 5.45481 5.02727C5.45481 5.2081 5.38298 5.38152 5.25511 5.50938C5.12725 5.63725 4.95382 5.70908 4.77299 5.70908H0.909358C0.729261 5.71144 0.557202 5.78403 0.429843 5.91139C0.302484 6.03875 0.229894 6.21081 0.22754 6.3909C0.227288 6.5632 0.293151 6.72902 0.411551 6.85418C0.529951 6.97935 0.691862 7.05432 0.863903 7.06363H3.18209C3.36291 7.06363 3.53634 7.13546 3.6642 7.26333C3.79207 7.3912 3.8639 7.56462 3.8639 7.74545C3.8639 7.92628 3.79207 8.0997 3.6642 8.22757C3.53634 8.35543 3.36291 8.42727 3.18209 8.42727H1.67299C1.52143 8.46036 1.38568 8.54415 1.28817 8.66481C1.19065 8.78546 1.1372 8.93577 1.13663 9.0909C1.13663 9.27173 1.20846 9.44515 1.33633 9.57302C1.4642 9.70089 1.63762 9.77272 1.81845 9.77272H2.27299C2.45382 9.77272 2.62725 9.84455 2.75511 9.97242C2.88298 10.1003 2.95481 10.2737 2.95481 10.4545C2.95481 10.6354 2.88298 10.8088 2.75511 10.9367C2.62725 11.0645 2.45382 11.1364 2.27299 11.1364ZM15.0003 6.5909H16.6548C16.7025 6.59162 16.7489 6.60678 16.7879 6.63436C16.8268 6.66195 16.8565 6.70067 16.873 6.74545L18.1821 10.6818H14.4548L15.0003 6.5909Z" fill="url(#fi_9356319_paint2_linear_1_179)" />
</g>
<defs>
<filter id="fi_9356319_filter0_d_1_179" x="0.227539" y="2.98181" width="19.5645" height="17.2909" filterUnits="userSpaceOnUse" color-interpolation-filters="sRGB">
<feFlood flood-opacity="0" result="BackgroundImageFix"></feFlood>
<feColorMatrix in="SourceAlpha" type="matrix" values="0 0 0 0 0 0 0 0 0 0 0 0 0 0 0 0 0 0 127 0" result="hardAlpha"></feColorMatrix>
<feOffset dy="3"></feOffset>
<feComposite in2="hardAlpha" operator="out"></feComposite>
<feColorMatrix type="matrix" values="0 0 0 0 0.178072 0 0 0 0 0.205659 0 0 0 0 0.443333 0 0 0 0.5 0"></feColorMatrix>
<feBlend mode="normal" in2="BackgroundImageFix" result="effect1_dropShadow_1_179"></feBlend>
<feBlend mode="normal" in="SourceGraphic" in2="effect1_dropShadow_1_179" result="shape"></feBlend>
</filter>



</defs>
</symbol><linearGradient id="fi_9356319_paint0_linear_1_179" x1="11.0221" y1="2.98181" x2="11.0221" y2="17.2727" gradientUnits="userSpaceOnUse">
<stop stop-color="white" />
<stop offset="0.3" stop-color="#AFB5EA" />
<stop offset="0.6" stop-color="#EFF0FA" />
<stop offset="1" stop-color="white" />
<stop offset="1" stop-color="white" />
</linearGradient><linearGradient id="fi_9356319_paint1_linear_1_179" x1="11.0221" y1="2.98181" x2="11.0221" y2="17.2727" gradientUnits="userSpaceOnUse">
<stop stop-color="white" />
<stop offset="0.3" stop-color="#AFB5EA" />
<stop offset="0.6" stop-color="#EFF0FA" />
<stop offset="1" stop-color="white" />
<stop offset="1" stop-color="white" />
</linearGradient><linearGradient id="fi_9356319_paint2_linear_1_179" x1="11.0221" y1="2.98181" x2="11.0221" y2="17.2727" gradientUnits="userSpaceOnUse">
<stop stop-color="white" />
<stop offset="0.3" stop-color="#AFB5EA" />
<stop offset="0.6" stop-color="#EFF0FA" />
<stop offset="1" stop-color="white" />
<stop offset="1" stop-color="white" />
</linearGradient><symbol viewBox="0 0 20 20" fill="none" id="flag-us">
<g clip-path="url(#flag-us_clip0_1_7525)">
<path d="M10 20C15.5228 20 20 15.5228 20 10C20 4.47715 15.5228 0 10 0C4.47715 0 0 4.47715 0 10C0 15.5228 4.47715 20 10 20Z" fill="#F0F0F0" />
<path d="M9.56519 10H20C20 9.09743 19.8796 8.22305 19.6555 7.3913H9.56519V10Z" fill="#D80027" />
<path d="M9.56519 4.7826H18.5322C17.9201 3.78369 17.1374 2.90076 16.2248 2.17389H9.56519V4.7826Z" fill="#D80027" />
<path d="M9.99999 20C12.3535 20 14.5166 19.1865 16.2248 17.826H3.77515C5.48335 19.1865 7.64651 20 9.99999 20Z" fill="#D80027" />
<path d="M1.46772 15.2174H18.5323C19.0237 14.4154 19.4048 13.5389 19.6555 12.6086H0.344482C0.595146 13.5389 0.976279 14.4154 1.46772 15.2174Z" fill="#D80027" />
<path d="M4.63219 1.56164H5.54348L4.69582 2.17746L5.01961 3.17391L4.17199 2.55809L3.32437 3.17391L3.60406 2.31309C2.85773 2.93477 2.20359 3.66313 1.66453 4.47469H1.95652L1.41695 4.86668C1.33289 5.00691 1.25227 5.14937 1.175 5.29395L1.43266 6.08695L0.951953 5.7377C0.832461 5.99086 0.723164 6.24973 0.624922 6.51398L0.908789 7.38773H1.95652L1.10887 8.00356L1.43266 9L0.585039 8.38418L0.0773047 8.75309C0.0264844 9.1616 0 9.57769 0 10H10C10 4.47719 10 3.82609 10 0C8.02453 0 6.18301 0.573047 4.63219 1.56164ZM5.01961 9L4.17199 8.38418L3.32437 9L3.64816 8.00356L2.80051 7.38773H3.84824L4.17199 6.39129L4.49574 7.38773H5.54348L4.69582 8.00356L5.01961 9ZM4.69582 5.09051L5.01961 6.08695L4.17199 5.47113L3.32437 6.08695L3.64816 5.09051L2.80051 4.47469H3.84824L4.17199 3.47824L4.49574 4.47469H5.54348L4.69582 5.09051ZM8.60656 9L7.75895 8.38418L6.91133 9L7.23512 8.00356L6.38746 7.38773H7.4352L7.75895 6.39129L8.0827 7.38773H9.13043L8.28277 8.00356L8.60656 9ZM8.28277 5.09051L8.60656 6.08695L7.75895 5.47113L6.91133 6.08695L7.23512 5.09051L6.38746 4.47469H7.4352L7.75895 3.47824L8.0827 4.47469H9.13043L8.28277 5.09051ZM8.28277 2.17746L8.60656 3.17391L7.75895 2.55809L6.91133 3.17391L7.23512 2.17746L6.38746 1.56164H7.4352L7.75895 0.565195L8.0827 1.56164H9.13043L8.28277 2.17746Z" fill="#0052B4" />
</g>
<defs>

</defs>
</symbol><clipPath id="flag-us_clip0_1_7525">
<rect width="20" height="20" fill="white" />
</clipPath><symbol viewBox="0 0 21 23" fill="none" id="home">
<g filter="url(#home_filter0_d_1_1569)">
<path fill-rule="evenodd" clip-rule="evenodd" d="M9.53411 2.99239C9.88376 2.72695 10.3107 2.58325 10.7497 2.58325C11.1887 2.58325 11.6156 2.72695 11.9652 2.99239L12.8498 3.66383C15.4482 5.63784 17.6742 8.05899 19.4234 10.8138L19.7076 11.2601C19.8362 11.4627 19.9081 11.6962 19.9157 11.936C19.9233 12.1759 19.8663 12.4135 19.7507 12.6238C19.6351 12.8342 19.4652 13.0096 19.2586 13.1318C19.052 13.2541 18.8164 13.3186 18.5764 13.3186H17.6504C17.704 14.5516 17.637 15.7859 17.4493 17.0068C17.359 17.5945 17.0611 18.1304 16.6098 18.5173C16.1584 18.9043 15.5833 19.1168 14.9887 19.1163H12.4249V14.699C12.4249 14.2547 12.2484 13.8286 11.9343 13.5144C11.6201 13.2003 11.194 13.0238 10.7497 13.0238C10.3054 13.0238 9.87926 13.2003 9.5651 13.5144C9.25093 13.8286 9.07443 14.2547 9.07443 14.699V19.1163H6.51063C5.91637 19.1162 5.34176 18.9035 4.89071 18.5166C4.43965 18.1297 4.14192 17.5942 4.05136 17.0068C3.86373 15.7859 3.79672 14.5503 3.85033 13.3186H2.92291C2.6829 13.3186 2.44731 13.2541 2.24074 13.1318C2.03418 13.0096 1.86423 12.8342 1.74865 12.6238C1.63306 12.4135 1.57609 12.1759 1.58368 11.936C1.59127 11.6962 1.66314 11.4627 1.79179 11.2601L2.07457 10.8124C3.82431 8.05801 6.05077 5.63732 8.64958 3.66383L9.53411 2.99239Z" fill="url(#home_paint0_linear_1_1569)" />
</g>
<defs>
<filter id="home_filter0_d_1_1569" x="1.58301" y="2.58325" width="18.3335" height="19.5331" filterUnits="userSpaceOnUse" color-interpolation-filters="sRGB">
<feFlood flood-opacity="0" result="BackgroundImageFix"></feFlood>
<feColorMatrix in="SourceAlpha" type="matrix" values="0 0 0 0 0 0 0 0 0 0 0 0 0 0 0 0 0 0 127 0" result="hardAlpha"></feColorMatrix>
<feOffset dy="3"></feOffset>
<feComposite in2="hardAlpha" operator="out"></feComposite>
<feColorMatrix type="matrix" values="0 0 0 0 0.178072 0 0 0 0 0.205659 0 0 0 0 0.443333 0 0 0 0.5 0"></feColorMatrix>
<feBlend mode="normal" in2="BackgroundImageFix" result="effect1_dropShadow_1_1569"></feBlend>
<feBlend mode="normal" in="SourceGraphic" in2="effect1_dropShadow_1_1569" result="shape"></feBlend>
</filter>

</defs>
</symbol><linearGradient id="home_paint0_linear_1_1569" x1="11.6984" y1="2.58325" x2="11.6984" y2="19.1163" gradientUnits="userSpaceOnUse">
<stop stop-color="white" />
<stop offset="0.3" stop-color="#AFB5EA" />
<stop offset="0.6" stop-color="#EFF0FA" />
<stop offset="1" stop-color="white" />
<stop offset="1" stop-color="white" />
</linearGradient><symbol viewBox="0 0 40 41" fill="none" id="ltc">
<ellipse cx="20.1663" cy="20.3333" rx="17.8333" ry="17.8333" fill="white" />
<path fill-rule="evenodd" clip-rule="evenodd" d="M0 20.5C0 9.45431 8.95427 0.5 19.9999 0.5H20.1161C25.405 0.51539 30.4712 2.63118 34.2001 6.38191C37.9291 10.1326 40.0153 15.2111 39.9998 20.5C39.9998 31.5457 31.0456 40.5 19.9999 40.5C8.95427 40.5 0 31.5457 0 20.5ZM18.2566 28.1997L20.339 21.1779L23.5835 20.2578L24.2615 17.9333L21.0653 18.9019L24.4552 7.37645V7.19243C24.4501 7.04342 24.386 6.90252 24.277 6.80079C24.168 6.69906 24.0231 6.64483 23.8741 6.65006H19.5641C19.2284 6.63971 18.9288 6.85942 18.8378 7.18274L14.8184 20.8389L11.6223 21.8074L10.8959 24.035L14.092 23.0665L11.2349 32.8002H28.2808C28.6177 32.8141 28.9193 32.5929 29.0072 32.2675L29.9757 28.9261V28.7421C29.9707 28.5931 29.9066 28.4522 29.7976 28.3504C29.6886 28.2487 29.5436 28.1945 29.3946 28.1997H18.2566Z" fill="#345D9D" />
</symbol><symbol viewBox="0 0 24 24" fill="none" id="menu-fries">
<path d="M5 5.25C4.58579 5.25 4.25 5.58579 4.25 6C4.25 6.41421 4.58579 6.75 5 6.75H19C19.4142 6.75 19.75 6.41421 19.75 6C19.75 5.58579 19.4142 5.25 19 5.25H5Z" fill="currentColor" />
<path d="M5 11.25C4.58579 11.25 4.25 11.5858 4.25 12C4.25 12.4142 4.58579 12.75 5 12.75H11C11.4142 12.75 11.75 12.4142 11.75 12C11.75 11.5858 11.4142 11.25 11 11.25H5Z" fill="currentColor" />
<path d="M5 17.25C4.58579 17.25 4.25 17.5858 4.25 18C4.25 18.4142 4.58579 18.75 5 18.75H19C19.4142 18.75 19.75 18.4142 19.75 18C19.75 17.5858 19.4142 17.25 19 17.25H5Z" fill="currentColor" />
</symbol><symbol viewBox="0 0 34 35" fill="none" id="minus">
<circle cx="17" cy="17.5" r="17" fill="#616EDE" />
<g filter="url(#minus_filter0_d_1_7389)">
<path fill-rule="evenodd" clip-rule="evenodd" d="M17 27C22.5228 27 27 22.5228 27 17C27 11.4772 22.5228 7 17 7C11.4772 7 7 11.4772 7 17C7 22.5228 11.4772 27 17 27ZM14 16.25C13.5858 16.25 13.25 16.5858 13.25 17C13.25 17.4142 13.5858 17.75 14 17.75H20C20.4142 17.75 20.75 17.4142 20.75 17C20.75 16.5858 20.4142 16.25 20 16.25H14Z" fill="url(#minus_paint0_linear_1_7389)" />
</g>
<defs>
<filter id="minus_filter0_d_1_7389" x="7" y="7" width="20" height="23" filterUnits="userSpaceOnUse" color-interpolation-filters="sRGB">
<feFlood flood-opacity="0" result="BackgroundImageFix"></feFlood>
<feColorMatrix in="SourceAlpha" type="matrix" values="0 0 0 0 0 0 0 0 0 0 0 0 0 0 0 0 0 0 127 0" result="hardAlpha"></feColorMatrix>
<feOffset dy="3"></feOffset>
<feComposite in2="hardAlpha" operator="out"></feComposite>
<feColorMatrix type="matrix" values="0 0 0 0 0.178072 0 0 0 0 0.205659 0 0 0 0 0.443333 0 0 0 0.5 0"></feColorMatrix>
<feBlend mode="normal" in2="BackgroundImageFix" result="effect1_dropShadow_1_7389"></feBlend>
<feBlend mode="normal" in="SourceGraphic" in2="effect1_dropShadow_1_7389" result="shape"></feBlend>
</filter>

</defs>
</symbol><linearGradient id="minus_paint0_linear_1_7389" x1="18.035" y1="7" x2="18.035" y2="27" gradientUnits="userSpaceOnUse">
<stop stop-color="white" />
<stop offset="0.3" stop-color="#AFB5EA" />
<stop offset="0.6" stop-color="#EFF0FA" />
<stop offset="1" stop-color="white" />
<stop offset="1" stop-color="white" />
</linearGradient><symbol viewBox="0 0 24 24" fill="none" id="paper-clip">
<path fill-rule="evenodd" clip-rule="evenodd" d="M9.29305 21V21C7.63705 21 6.06305 20.334 4.86105 19.125C2.47305 16.722 2.37505 12.912 4.64205 10.631L12.0281 3.201C12.7971 2.427 13.8351 2 14.9501 2C16.1431 2 17.2771 2.479 18.1421 3.349C19.8631 5.08 19.9291 7.831 18.2881 9.481L10.8931 16.91C10.4141 17.393 9.76905 17.658 9.07705 17.658V17.658C8.34605 17.658 7.65305 17.366 7.12705 16.837C6.07405 15.776 6.04105 14.085 7.05405 13.065L13.8791 6.21C14.2691 5.818 14.9011 5.816 15.2931 6.206C15.6841 6.596 15.6861 7.229 15.2961 7.62L8.47205 14.476C8.23205 14.718 8.26505 15.145 8.54605 15.427C8.69205 15.574 8.88605 15.658 9.07705 15.658V15.658C9.18705 15.658 9.34505 15.631 9.47505 15.5L16.8701 8.071C17.7371 7.198 17.6721 5.713 16.7241 4.759C15.8171 3.847 14.2781 3.775 13.4461 4.611L6.06005 12.041C4.56605 13.544 4.66405 16.09 6.28005 17.715C7.10305 18.544 8.17305 19 9.29305 19C10.2941 19 11.2221 18.622 11.9041 17.936L19.2911 10.506C19.6801 10.115 20.3131 10.112 20.7051 10.502C21.0961 10.892 21.0981 11.524 20.7091 11.916L13.3221 19.346C12.2621 20.412 10.8311 21 9.29305 21" fill="black" />

</symbol><mask id="paper-clip_mask0_269_6855" style="mask-type:alpha" maskUnits="userSpaceOnUse" x="3" y="2" width="18" height="19">
<path fill-rule="evenodd" clip-rule="evenodd" d="M9.29305 21V21C7.63705 21 6.06305 20.334 4.86105 19.125C2.47305 16.722 2.37505 12.912 4.64205 10.631L12.0281 3.201C12.7971 2.427 13.8351 2 14.9501 2C16.1431 2 17.2771 2.479 18.1421 3.349C19.8631 5.08 19.9291 7.831 18.2881 9.481L10.8931 16.91C10.4141 17.393 9.76905 17.658 9.07705 17.658V17.658C8.34605 17.658 7.65305 17.366 7.12705 16.837C6.07405 15.776 6.04105 14.085 7.05405 13.065L13.8791 6.21C14.2691 5.818 14.9011 5.816 15.2931 6.206C15.6841 6.596 15.6861 7.229 15.2961 7.62L8.47205 14.476C8.23205 14.718 8.26505 15.145 8.54605 15.427C8.69205 15.574 8.88605 15.658 9.07705 15.658V15.658C9.18705 15.658 9.34505 15.631 9.47505 15.5L16.8701 8.071C17.7371 7.198 17.6721 5.713 16.7241 4.759C15.8171 3.847 14.2781 3.775 13.4461 4.611L6.06005 12.041C4.56605 13.544 4.66405 16.09 6.28005 17.715C7.10305 18.544 8.17305 19 9.29305 19C10.2941 19 11.2221 18.622 11.9041 17.936L19.2911 10.506C19.6801 10.115 20.3131 10.112 20.7051 10.502C21.0961 10.892 21.0981 11.524 20.7091 11.916L13.3221 19.346C12.2621 20.412 10.8311 21 9.29305 21" fill="white" />
</mask><symbol viewBox="0 0 34 35" fill="none" id="plus">
<circle cx="17" cy="17.5" r="17" fill="#616EDE" />
<g filter="url(#plus_filter0_d_1_7393)">
<path fill-rule="evenodd" clip-rule="evenodd" d="M17 27C22.5228 27 27 22.5228 27 17C27 11.4772 22.5228 7 17 7C11.4772 7 7 11.4772 7 17C7 22.5228 11.4772 27 17 27ZM17.75 14C17.75 13.5858 17.4142 13.25 17 13.25C16.5858 13.25 16.25 13.5858 16.25 14V16.25H14C13.5858 16.25 13.25 16.5858 13.25 17C13.25 17.4142 13.5858 17.75 14 17.75H16.25V20C16.25 20.4142 16.5858 20.75 17 20.75C17.4142 20.75 17.75 20.4142 17.75 20V17.75H20C20.4142 17.75 20.75 17.4142 20.75 17C20.75 16.5858 20.4142 16.25 20 16.25H17.75V14Z" fill="url(#plus_paint0_linear_1_7393)" />
</g>
<defs>
<filter id="plus_filter0_d_1_7393" x="7" y="7" width="20" height="23" filterUnits="userSpaceOnUse" color-interpolation-filters="sRGB">
<feFlood flood-opacity="0" result="BackgroundImageFix"></feFlood>
<feColorMatrix in="SourceAlpha" type="matrix" values="0 0 0 0 0 0 0 0 0 0 0 0 0 0 0 0 0 0 127 0" result="hardAlpha"></feColorMatrix>
<feOffset dy="3"></feOffset>
<feComposite in2="hardAlpha" operator="out"></feComposite>
<feColorMatrix type="matrix" values="0 0 0 0 0.178072 0 0 0 0 0.205659 0 0 0 0 0.443333 0 0 0 0.5 0"></feColorMatrix>
<feBlend mode="normal" in2="BackgroundImageFix" result="effect1_dropShadow_1_7393"></feBlend>
<feBlend mode="normal" in="SourceGraphic" in2="effect1_dropShadow_1_7393" result="shape"></feBlend>
</filter>

</defs>
</symbol><linearGradient id="plus_paint0_linear_1_7393" x1="18.035" y1="7" x2="18.035" y2="27" gradientUnits="userSpaceOnUse">
<stop stop-color="white" />
<stop offset="0.3" stop-color="#AFB5EA" />
<stop offset="0.6" stop-color="#EFF0FA" />
<stop offset="1" stop-color="white" />
<stop offset="1" stop-color="white" />
</linearGradient><symbol viewBox="0 0 20 22" fill="none" id="profile-circle-2">
<g filter="url(#profile-circle-2_filter0_d_1_134)">
<path fill-rule="evenodd" clip-rule="evenodd" d="M1.04199 10.0001C1.04199 5.05253 5.05277 1.04175 10.0003 1.04175C14.9479 1.04175 18.9587 5.05253 18.9587 10.0001C18.9587 12.5405 17.9004 14.8348 16.2024 16.4643C14.5934 18.0084 12.4071 18.9584 10.0003 18.9584C7.59351 18.9584 5.40726 18.0084 3.79825 16.4643C2.10023 14.8348 1.04199 12.5405 1.04199 10.0001ZM15.0696 15.8072C14.7104 14.7327 13.6952 13.9584 12.5003 13.9584H7.50033C6.30543 13.9584 5.29025 14.7327 4.93105 15.8072C6.28659 16.9916 8.05918 17.7084 10.0003 17.7084C11.9415 17.7084 13.7141 16.9916 15.0696 15.8072ZM10.0003 3.54175C7.8142 3.54175 6.04199 5.31395 6.04199 7.50008C6.04199 9.68621 7.8142 11.4584 10.0003 11.4584C12.1865 11.4584 13.9587 9.68621 13.9587 7.50008C13.9587 5.31395 12.1865 3.54175 10.0003 3.54175Z" fill="url(#profile-circle-2_paint0_linear_1_134)" />
</g>
<defs>
<filter id="profile-circle-2_filter0_d_1_134" x="1.04199" y="1.04175" width="17.917" height="20.9167" filterUnits="userSpaceOnUse" color-interpolation-filters="sRGB">
<feFlood flood-opacity="0" result="BackgroundImageFix"></feFlood>
<feColorMatrix in="SourceAlpha" type="matrix" values="0 0 0 0 0 0 0 0 0 0 0 0 0 0 0 0 0 0 127 0" result="hardAlpha"></feColorMatrix>
<feOffset dy="3"></feOffset>
<feComposite in2="hardAlpha" operator="out"></feComposite>
<feColorMatrix type="matrix" values="0 0 0 0 0.178072 0 0 0 0 0.205659 0 0 0 0 0.443333 0 0 0 0.5 0"></feColorMatrix>
<feBlend mode="normal" in2="BackgroundImageFix" result="effect1_dropShadow_1_134"></feBlend>
<feBlend mode="normal" in="SourceGraphic" in2="effect1_dropShadow_1_134" result="shape"></feBlend>
</filter>

</defs>
</symbol><linearGradient id="profile-circle-2_paint0_linear_1_134" x1="10.9275" y1="1.04175" x2="10.9275" y2="18.9584" gradientUnits="userSpaceOnUse">
<stop stop-color="white" />
<stop offset="0.3" stop-color="#AFB5EA" />
<stop offset="0.6" stop-color="#EFF0FA" />
<stop offset="1" stop-color="white" />
<stop offset="1" stop-color="white" />
</linearGradient><symbol viewBox="0 0 18 21" fill="none" id="search">
<g filter="url(#search_filter0_d_1_146)">
<path d="M16.5 16.5L13.5 13.5M15 8.25C15 11.9779 11.9779 15 8.25 15C4.52208 15 1.5 11.9779 1.5 8.25C1.5 4.52208 4.52208 1.5 8.25 1.5C11.9779 1.5 15 4.52208 15 8.25Z" stroke="url(#search_paint0_linear_1_146)" stroke-width="2" stroke-linecap="round" stroke-linejoin="round" shape-rendering="crispEdges" />
</g>
<defs>
<filter id="search_filter0_d_1_146" x="0.5" y="0.5" width="17" height="20" filterUnits="userSpaceOnUse" color-interpolation-filters="sRGB">
<feFlood flood-opacity="0" result="BackgroundImageFix"></feFlood>
<feColorMatrix in="SourceAlpha" type="matrix" values="0 0 0 0 0 0 0 0 0 0 0 0 0 0 0 0 0 0 127 0" result="hardAlpha"></feColorMatrix>
<feOffset dy="3"></feOffset>
<feComposite in2="hardAlpha" operator="out"></feComposite>
<feColorMatrix type="matrix" values="0 0 0 0 0.178072 0 0 0 0 0.205659 0 0 0 0 0.443333 0 0 0 0.5 0"></feColorMatrix>
<feBlend mode="normal" in2="BackgroundImageFix" result="effect1_dropShadow_1_146"></feBlend>
<feBlend mode="normal" in="SourceGraphic" in2="effect1_dropShadow_1_146" result="shape"></feBlend>
</filter>

</defs>
</symbol><linearGradient id="search_paint0_linear_1_146" x1="9.77626" y1="1.5" x2="9.77626" y2="16.5" gradientUnits="userSpaceOnUse">
<stop stop-color="white" />
<stop offset="0.3" stop-color="#AFB5EA" />
<stop offset="0.6" stop-color="#EFF0FA" />
<stop offset="1" stop-color="white" />
<stop offset="1" stop-color="white" />
</linearGradient><symbol viewBox="0 0 32 33" fill="none" id="star">
<g filter="url(#star_filter0_d_1_159)">
<path d="M16 24.1105L25.888 30L23.264 18.9L32 11.4316L20.496 10.4684L16 0L11.504 10.4684L0 11.4316L8.736 18.9L6.112 30L16 24.1105Z" fill="url(#star_paint0_linear_1_159)" />
</g>
<defs>
<filter id="star_filter0_d_1_159" x="0" y="0" width="32" height="33" filterUnits="userSpaceOnUse" color-interpolation-filters="sRGB">
<feFlood flood-opacity="0" result="BackgroundImageFix"></feFlood>
<feColorMatrix in="SourceAlpha" type="matrix" values="0 0 0 0 0 0 0 0 0 0 0 0 0 0 0 0 0 0 127 0" result="hardAlpha"></feColorMatrix>
<feOffset dy="3"></feOffset>
<feComposite in2="hardAlpha" operator="out"></feComposite>
<feColorMatrix type="matrix" values="0 0 0 0 0.178072 0 0 0 0 0.205659 0 0 0 0 0.443333 0 0 0 0.5 0"></feColorMatrix>
<feBlend mode="normal" in2="BackgroundImageFix" result="effect1_dropShadow_1_159"></feBlend>
<feBlend mode="normal" in="SourceGraphic" in2="effect1_dropShadow_1_159" result="shape"></feBlend>
</filter>

</defs>
</symbol><linearGradient id="star_paint0_linear_1_159" x1="17.656" y1="-1.98621e-06" x2="17.656" y2="30" gradientUnits="userSpaceOnUse">
<stop stop-color="white" />
<stop offset="0.3" stop-color="#AFB5EA" />
<stop offset="0.6" stop-color="#EFF0FA" />
<stop offset="1" stop-color="white" />
<stop offset="1" stop-color="white" />
</linearGradient><symbol viewBox="0 0 20 18" fill="none" id="telegram">
<path d="M13 7L9 11L15 17L19 1L1 8L5 10L7 16L10 12" stroke="currentColor" stroke-width="2" stroke-linecap="round" stroke-linejoin="round" />
</symbol><symbol viewBox="0 0 20 20" fill="none" id="timer">
<path d="M4.97373 1.52971C5.24327 1.31408 5.28697 0.920774 5.07134 0.651236C4.8557 0.381697 4.4624 0.337996 4.19286 0.553627L2.10952 2.22029C1.83999 2.43592 1.79629 2.82923 2.01192 3.09877C2.22755 3.36831 2.62085 3.41201 2.89039 3.19638L4.97373 1.52971Z" fill="#E14C5C" />
<path d="M15.8071 0.553627C15.5375 0.337996 15.1442 0.381697 14.9286 0.651236C14.713 0.920774 14.7567 1.31408 15.0262 1.52971L17.1095 3.19638C17.3791 3.41201 17.7724 3.36831 17.988 3.09877C18.2036 2.82923 18.1599 2.43592 17.8904 2.22029L15.8071 0.553627Z" fill="#E14C5C" />
<path fill-rule="evenodd" clip-rule="evenodd" d="M9.99996 1.04167C5.05241 1.04167 1.04163 5.05245 1.04163 10C1.04163 14.9476 5.05241 18.9583 9.99996 18.9583C14.9475 18.9583 18.9583 14.9476 18.9583 10C18.9583 5.05245 14.9475 1.04167 9.99996 1.04167ZM10.625 6.66667C10.625 6.32149 10.3451 6.04167 9.99996 6.04167C9.65478 6.04167 9.37496 6.3215 9.37496 6.66667V8.93787C9.37494 9.38272 9.37493 9.7611 9.40589 10.0751C9.43886 10.4096 9.51037 10.7197 9.68199 11.0169C9.85361 11.3142 10.0864 11.5311 10.3596 11.7269C10.616 11.9107 10.9437 12.0999 11.329 12.3223L11.8526 12.6246C12.1515 12.7972 12.5338 12.6948 12.7063 12.3958C12.8789 12.0969 12.7765 11.7147 12.4776 11.5421L11.9792 11.2543C11.5619 11.0134 11.2882 10.8546 11.0878 10.7109C10.8984 10.5752 10.8162 10.4814 10.7645 10.3919C10.7128 10.3024 10.6727 10.1843 10.6499 9.95248C10.6257 9.70701 10.625 9.39059 10.625 8.90881L10.625 6.66667Z" fill="#E14C5C" />
</symbol><symbol viewBox="0 0 15 21" fill="none" id="trash">
<g filter="url(#trash_filter0_d_1_7410)">
<path fill-rule="evenodd" clip-rule="evenodd" d="M12.5041 11.6788L12.7227 10.1079C12.7899 9.62459 12.8514 9.18275 12.9061 8.77745C13.0184 7.94452 13.0746 7.52806 12.8255 7.2432C12.5765 6.95833 12.1485 6.95833 11.2925 6.95833H3.29087C2.43485 6.95833 2.00684 6.95833 1.75781 7.2432C1.50878 7.52806 1.56495 7.94452 1.67727 8.77744C1.73194 9.18287 1.79339 9.62442 1.86068 10.1079L2.07929 11.6788C2.31689 13.386 2.43569 14.2397 2.68758 14.9253C3.15862 16.2073 3.97286 17.1623 4.94471 17.5724C5.46442 17.7917 6.07351 17.7917 7.29168 17.7917C8.50984 17.7917 9.11893 17.7917 9.63864 17.5724C10.6105 17.1623 11.4247 16.2073 11.8958 14.9253C12.1477 14.2397 12.2665 13.386 12.5041 11.6788ZM6.25 8.625C6.25 8.27982 5.97018 8 5.625 8C5.27982 8 5 8.27982 5 8.625V15.2917C5 15.6368 5.27982 15.9167 5.625 15.9167C5.97018 15.9167 6.25 15.6368 6.25 15.2917V8.625ZM9.58333 8.625C9.58333 8.27982 9.30351 8 8.95833 8C8.61316 8 8.33333 8.27982 8.33333 8.625V15.2917C8.33333 15.6368 8.61316 15.9167 8.95833 15.9167C9.30351 15.9167 9.58333 15.6368 9.58333 15.2917V8.625Z" fill="url(#trash_paint0_linear_1_7410)" />
<path d="M7.29167 0.5C5.10554 0.5 3.33333 2.27221 3.33333 4.45833V4.66667H0.625C0.279822 4.66667 0 4.94649 0 5.29167C0 5.63684 0.279822 5.91667 0.625 5.91667H13.9583C14.3035 5.91667 14.5833 5.63684 14.5833 5.29167C14.5833 4.94649 14.3035 4.66667 13.9583 4.66667H11.25V4.45833C11.25 2.27221 9.47779 0.5 7.29167 0.5Z" fill="url(#trash_paint1_linear_1_7410)" />
</g>
<defs>
<filter id="trash_filter0_d_1_7410" x="0" y="0.5" width="14.5833" height="20.2916" filterUnits="userSpaceOnUse" color-interpolation-filters="sRGB">
<feFlood flood-opacity="0" result="BackgroundImageFix"></feFlood>
<feColorMatrix in="SourceAlpha" type="matrix" values="0 0 0 0 0 0 0 0 0 0 0 0 0 0 0 0 0 0 127 0" result="hardAlpha"></feColorMatrix>
<feOffset dy="3"></feOffset>
<feComposite in2="hardAlpha" operator="out"></feComposite>
<feColorMatrix type="matrix" values="0 0 0 0 0.178072 0 0 0 0 0.205659 0 0 0 0 0.443333 0 0 0 0.5 0"></feColorMatrix>
<feBlend mode="normal" in2="BackgroundImageFix" result="effect1_dropShadow_1_7410"></feBlend>
<feBlend mode="normal" in="SourceGraphic" in2="effect1_dropShadow_1_7410" result="shape"></feBlend>
</filter>


</defs>
</symbol><linearGradient id="trash_paint0_linear_1_7410" x1="8.04637" y1="0.499999" x2="8.04637" y2="17.7917" gradientUnits="userSpaceOnUse">
<stop stop-color="white" />
<stop offset="0.3" stop-color="#FECCD1" />
<stop offset="0.6" stop-color="#FFECEE" />
<stop offset="1" stop-color="white" />
<stop offset="1" stop-color="white" />
</linearGradient><linearGradient id="trash_paint1_linear_1_7410" x1="8.04637" y1="0.499999" x2="8.04637" y2="17.7917" gradientUnits="userSpaceOnUse">
<stop stop-color="white" />
<stop offset="0.3" stop-color="#FECCD1" />
<stop offset="0.6" stop-color="#FFECEE" />
<stop offset="1" stop-color="white" />
<stop offset="1" stop-color="white" />
</linearGradient><symbol viewBox="0 0 40 41" fill="none" id="trx">
<path fill-rule="evenodd" clip-rule="evenodd" d="M20 40.5C9 40.5 0 31.5002 0 20.4004C0.1 9.40064 9 0.400827 20.1 0.500825C31.1 0.600823 40 9.50064 40 20.7004C39.9 31.6002 31 40.5 20 40.5Z" fill="#FC070C" />
<path fill-rule="evenodd" clip-rule="evenodd" d="M32.4119 14.5101L32.4118 14.51C31.4856 13.6106 30.5068 12.6603 29.6431 11.8937L29.5556 11.8324C29.41 11.7155 29.2458 11.6238 29.0699 11.5612L28.4033 11.4368C23.8033 10.5785 8.89296 7.79638 8.58625 7.83368C8.49553 7.84639 8.40882 7.87928 8.3325 7.92993L8.24937 7.99556C8.14702 8.09951 8.06928 8.22509 8.02187 8.36306L8 8.41993V8.73056V8.77868C9.01229 11.5974 11.6419 17.8924 14.07 23.7048L14.07 23.7048C16.1227 28.6188 18.0314 33.1879 18.6968 35.0198L18.6971 35.0206C18.7846 35.2921 18.9509 35.8074 19.2612 35.8336H19.3312C19.4975 35.8336 20.2062 34.8974 20.2062 34.8974C20.2062 34.8974 32.8762 19.5324 34.158 17.8962C34.324 17.6946 34.4705 17.4778 34.5955 17.2487C34.6605 16.884 34.5293 16.5119 34.2499 16.2687C33.7041 15.7647 33.0713 15.1503 32.4119 14.5101ZM23.4568 18.058L28.8643 13.5736L32.0361 16.4961L23.4568 18.058ZM12.0469 10.1349L21.3568 17.7648L27.11 12.913L12.0469 10.1349ZM22.1969 19.7642L31.7256 18.2286L20.8319 31.3536L22.1969 19.7642ZM20.5781 19.2086L10.7825 10.8961L19.1606 31.3623L20.5781 19.2086Z" fill="white" />
</symbol><symbol viewBox="0 0 40 41" fill="none" id="usdt">
<path d="M39.4016 25.3381C36.7301 36.0525 25.877 42.5731 15.1601 39.9012C4.44772 37.2301 -2.07358 26.3775 0.599038 15.6639C3.26931 4.94838 14.1225 -1.57268 24.836 1.09847C35.5521 3.76961 42.073 14.6234 39.4013 25.3383L39.4015 25.3381H39.4016Z" fill="#50AF95" />
<path fill-rule="evenodd" clip-rule="evenodd" d="M22.5336 22.7675C22.3922 22.7781 21.6615 22.8217 20.0314 22.8217C18.735 22.8217 17.8145 22.7828 17.4915 22.7675C12.4812 22.5471 8.74146 21.675 8.74146 20.6309C8.74146 19.5867 12.4812 18.7158 17.4915 18.4919V21.8989C17.8192 21.9225 18.7573 21.9779 20.0538 21.9779C21.6096 21.9779 22.3887 21.9131 22.5289 21.9001V18.4943C27.5286 18.717 31.2601 19.5891 31.2601 20.6309C31.2601 21.6727 27.5298 22.5447 22.5289 22.7663L22.5336 22.7675ZM22.5335 18.1419V15.0932H29.5109V10.444H10.514V15.0932H17.4902V18.1407C11.8199 18.4012 7.55566 19.5243 7.55566 20.8701C7.55566 22.2159 11.8199 23.3378 17.4902 23.5994V33.3691H22.5324V23.5959C28.1897 23.3355 32.4469 22.2136 32.4469 20.8689C32.4469 19.5243 28.1933 18.4023 22.5324 18.1407L22.5335 18.1419Z" fill="white" />
</symbol><symbol viewBox="0 0 20 20" fill="none" id="whatsapp">
<path d="M5.25301 16.494L5.97701 16.917C7.19795 17.6291 8.5866 18.0029 10 18C11.5823 18 13.129 17.5308 14.4446 16.6518C15.7602 15.7727 16.7855 14.5233 17.3911 13.0615C17.9966 11.5997 18.155 9.99113 17.8463 8.43928C17.5376 6.88743 16.7757 5.46197 15.6569 4.34315C14.538 3.22433 13.1126 2.4624 11.5607 2.15372C10.0089 1.84504 8.40036 2.00346 6.93855 2.60896C5.47674 3.21447 4.22731 4.23984 3.34826 5.55544C2.46921 6.87103 2.00001 8.41775 2.00001 10C2.00001 11.436 2.37701 12.813 3.08401 14.024L3.50601 14.748L2.85301 17.149L5.25301 16.494ZM0.00401338 20L1.35601 15.032C0.465151 13.5049 -0.00289063 11.768 1.34322e-05 10C1.34322e-05 4.477 4.47701 0 10 0C15.523 0 20 4.477 20 10C20 15.523 15.523 20 10 20C8.23279 20.0029 6.49667 19.5352 4.97001 18.645L0.00401338 20ZM6.39101 5.308C6.52501 5.298 6.66001 5.298 6.79401 5.304C6.84801 5.308 6.90201 5.314 6.95601 5.32C7.11501 5.338 7.29001 5.435 7.34901 5.569C7.64701 6.245 7.93701 6.926 8.21701 7.609C8.27901 7.761 8.24201 7.956 8.12401 8.146C8.04286 8.27448 7.95507 8.39865 7.86101 8.518C7.74801 8.663 7.50501 8.929 7.50501 8.929C7.50501 8.929 7.40601 9.047 7.44401 9.194C7.45801 9.25 7.50401 9.331 7.54601 9.399L7.60501 9.494C7.86101 9.921 8.20501 10.354 8.62501 10.762C8.74501 10.878 8.86201 10.997 8.98801 11.108C9.45601 11.521 9.98601 11.858 10.558 12.108L10.563 12.11C10.648 12.147 10.691 12.167 10.815 12.22C10.877 12.246 10.941 12.269 11.006 12.286C11.0732 12.3031 11.1439 12.2999 11.2093 12.2767C11.2746 12.2536 11.3316 12.2116 11.373 12.156C12.097 11.279 12.163 11.222 12.169 11.222V11.224C12.2193 11.1771 12.2791 11.1415 12.3443 11.1196C12.4095 11.0977 12.4786 11.09 12.547 11.097C12.607 11.101 12.668 11.112 12.724 11.137C13.255 11.38 14.124 11.759 14.124 11.759L14.706 12.02C14.804 12.067 14.893 12.178 14.896 12.285C14.9 12.352 14.906 12.46 14.883 12.658C14.851 12.917 14.773 13.228 14.695 13.391C14.6416 13.5022 14.5707 13.6042 14.485 13.693C14.3841 13.7989 14.2736 13.8954 14.155 13.981C14.114 14.0119 14.0723 14.0419 14.03 14.071C13.9056 14.1499 13.7778 14.2233 13.647 14.291C13.3895 14.4278 13.1052 14.5063 12.814 14.521C12.629 14.531 12.444 14.545 12.258 14.535C12.25 14.535 11.69 14.448 11.69 14.448C10.2683 14.074 8.9534 13.3735 7.85001 12.402C7.62401 12.203 7.41501 11.989 7.20101 11.776C6.31101 10.891 5.63901 9.936 5.23101 9.034C5.02218 8.59129 4.90938 8.1094 4.90001 7.62C4.89589 7.01285 5.09436 6.42167 5.46401 5.94C5.53701 5.846 5.60601 5.748 5.72501 5.635C5.85201 5.515 5.93201 5.451 6.01901 5.407C6.13469 5.34903 6.26088 5.31502 6.39001 5.307L6.39101 5.308Z" fill="currentColor" />
</symbol><symbol viewBox="0 0 20 22" fill="none" id="world">
<g filter="url(#world_filter0_d_1_121)">
<path fill-rule="evenodd" clip-rule="evenodd" d="M7.45513 1.35549C5.71534 1.86156 4.16862 2.88057 3.01701 4.27943C1.86541 5.67828 1.16246 7.39193 1 9.19654H5.11401C5.35251 6.4505 6.14868 3.78199 7.45385 1.35421L7.45513 1.35549ZM5.11401 10.8036H1C1.16212 12.6082 1.86477 14.3221 3.01615 15.7211C4.16753 17.1202 5.7141 18.1395 7.45385 18.6459C6.14868 16.2181 5.35251 13.5496 5.11401 10.8036ZM9.516 18.9892C7.95627 16.5175 7.00053 13.7133 6.72618 10.8036H13.1993C12.925 13.7133 11.9692 16.5175 10.4095 18.9892C10.1118 19.0036 9.81366 19.0036 9.516 18.9892ZM12.4729 18.6446C14.2125 18.1383 15.7589 17.1192 16.9103 15.7204C18.0617 14.3215 18.7644 12.608 18.9268 10.8036H14.8128C14.5743 13.5496 13.7781 16.2181 12.4729 18.6459V18.6446ZM14.8128 9.19654H18.9268C18.7647 7.39187 18.062 5.67805 16.9106 4.27896C15.7593 2.87988 14.2127 1.86057 12.4729 1.35421C13.7781 3.78198 14.5743 6.4505 14.8128 9.19654ZM9.516 1.01095C9.81408 0.996351 10.1127 0.996351 10.4108 1.01095C11.9701 3.48271 12.9254 6.28692 13.1993 9.19654H6.72747C7.00645 6.26916 7.96424 3.46264 9.516 1.01095Z" fill="url(#world_paint0_linear_1_121)" />
</g>
<defs>
<filter id="world_filter0_d_1_121" x="1" y="1" width="17.9268" height="21" filterUnits="userSpaceOnUse" color-interpolation-filters="sRGB">
<feFlood flood-opacity="0" result="BackgroundImageFix"></feFlood>
<feColorMatrix in="SourceAlpha" type="matrix" values="0 0 0 0 0 0 0 0 0 0 0 0 0 0 0 0 0 0 127 0" result="hardAlpha"></feColorMatrix>
<feOffset dy="3"></feOffset>
<feComposite in2="hardAlpha" operator="out"></feComposite>
<feColorMatrix type="matrix" values="0 0 0 0 0.178072 0 0 0 0 0.205659 0 0 0 0 0.443333 0 0 0 0.5 0"></feColorMatrix>
<feBlend mode="normal" in2="BackgroundImageFix" result="effect1_dropShadow_1_121"></feBlend>
<feBlend mode="normal" in="SourceGraphic" in2="effect1_dropShadow_1_121" result="shape"></feBlend>
</filter>

</defs>
</symbol><linearGradient id="world_paint0_linear_1_121" x1="10.8911" y1="0.999999" x2="10.8911" y2="19" gradientUnits="userSpaceOnUse">
<stop stop-color="white" />
<stop offset="0.3" stop-color="#AFB5EA" />
<stop offset="0.6" stop-color="#EFF0FA" />
<stop offset="1" stop-color="white" />
<stop offset="1" stop-color="white" />
</linearGradient></defs></svg>