<?xml version="1.0" encoding="UTF-8"?>
<svg xmlns="http://www.w3.org/2000/svg" xmlns:xlink="http://www.w3.org/1999/xlink" width="192px" height="192px" viewBox="0 0 192 192" version="1.1">
<g id="surface1">
<path style=" stroke:none;fill-rule:evenodd;fill:rgb(26.666667%,58.039216%,87.058824%);fill-opacity:0.2;" d="M 93.753906 58.691406 C 93.753906 52.410156 97.449219 47.007812 102.742188 44.472656 C 100.648438 43.480469 98.277344 42.929688 95.792969 42.957031 C 87.132812 43.070312 80.265625 50.261719 80.265625 58.914062 L 80.265625 84.535156 L 84.761719 84.535156 C 89.726562 84.535156 93.753906 80.515625 93.753906 75.554688 Z M 56.410156 95.777344 C 56.410156 87.070312 63.46875 80.046875 72.15625 80.046875 L 58.671875 80.046875 C 49.957031 80.046875 42.894531 87.070312 42.894531 95.777344 C 42.894531 104.457031 49.957031 111.511719 58.671875 111.511719 L 72.15625 111.511719 C 63.46875 111.511719 56.410156 104.457031 56.410156 95.777344 Z M 93.753906 133.304688 L 93.753906 116.003906 C 93.753906 111.042969 89.726562 107.019531 84.761719 107.019531 L 80.265625 107.019531 L 80.265625 133.085938 C 80.265625 141.738281 87.132812 148.929688 95.792969 149.039062 C 98.277344 149.066406 100.648438 148.515625 102.742188 147.523438 C 97.449219 144.988281 93.753906 139.589844 93.753906 133.304688 Z M 93.753906 133.304688 "/>
<path style=" stroke:none;fill-rule:nonzero;fill:rgb(26.666667%,58.039216%,87.058824%);fill-opacity:1;" d="M 96.015625 153.53125 C 84.84375 153.53125 75.769531 144.464844 75.769531 133.308594 L 75.769531 116.003906 L 58.671875 116.003906 C 47.5 116.003906 38.398438 106.9375 38.398438 95.78125 C 38.398438 84.621094 47.5 75.554688 58.671875 75.554688 L 75.769531 75.554688 L 75.769531 58.691406 C 75.769531 47.535156 84.84375 38.46875 96.015625 38.46875 C 107.183594 38.46875 116.257812 47.535156 116.257812 58.691406 L 116.257812 75.554688 L 133.355469 75.554688 C 144.527344 75.554688 153.601562 84.621094 153.601562 95.78125 C 153.601562 98.257812 151.585938 100.269531 149.105469 100.269531 C 146.621094 100.269531 144.609375 98.257812 144.609375 95.78125 C 144.609375 89.578125 139.5625 84.539062 133.355469 84.539062 L 111.761719 84.539062 C 109.28125 84.539062 107.265625 82.527344 107.265625 80.046875 L 107.265625 58.691406 C 107.265625 52.492188 102.21875 47.449219 96.015625 47.449219 C 89.808594 47.449219 84.761719 52.492188 84.761719 58.691406 L 84.761719 80.046875 C 84.761719 82.527344 82.746094 84.539062 80.265625 84.539062 L 58.671875 84.539062 C 52.464844 84.539062 47.417969 89.578125 47.417969 95.78125 C 47.417969 101.980469 52.464844 107.019531 58.671875 107.019531 L 80.265625 107.019531 C 82.746094 107.019531 84.761719 109.03125 84.761719 111.511719 L 84.761719 133.308594 C 84.761719 139.507812 89.808594 144.550781 96.015625 144.550781 C 102.21875 144.550781 107.265625 139.507812 107.265625 133.308594 L 107.265625 111.511719 C 107.265625 109.03125 109.28125 107.019531 111.761719 107.019531 C 114.242188 107.019531 116.257812 109.03125 116.257812 111.511719 L 116.257812 133.308594 C 116.257812 144.464844 107.183594 153.53125 96.015625 153.53125 Z M 96.015625 153.53125 "/>
<path style=" stroke:none;fill-rule:nonzero;fill:rgb(14.901961%,17.647059%,21.960784%);fill-opacity:1;" d="M 133.355469 116.003906 L 129.300781 116.003906 C 126.820312 116.003906 124.804688 113.992188 124.804688 111.511719 C 124.804688 109.03125 126.820312 107.019531 129.300781 107.019531 L 133.355469 107.019531 C 134.875 107.019531 136.363281 106.691406 137.851562 106.054688 C 140.140625 105.039062 142.789062 106.085938 143.78125 108.371094 C 144.773438 110.628906 143.726562 113.277344 141.464844 114.296875 C 138.84375 115.425781 136.113281 116.003906 133.355469 116.003906 Z M 133.355469 116.003906 "/>
</g>
</svg>
