<svg width="120" height="120" viewBox="0 0 120 120" fill="none" xmlns="http://www.w3.org/2000/svg">
<path d="M105.346 62.3313L82.7469 99.2967C81.549 101.256 78.9895 101.873 77.0301 100.676L16.0353 63.3857C14.0759 62.1878 13.4586 59.6283 14.6565 57.6689L37.2557 20.7035C38.4536 18.7441 41.0131 18.1268 42.9725 19.3247L103.967 56.6145C105.927 57.8124 106.544 60.3719 105.346 62.3313Z" fill="#67B9D3"/>
<path d="M26.8029 69.9759L16.0354 63.3932C14.0662 62.1893 13.4636 59.6277 14.6566 57.6764L37.2574 20.7084C38.4612 18.7393 41.0049 18.1257 42.9742 19.3296L53.7416 25.9124C51.7904 24.7195 49.2287 25.3221 48.0248 27.2912L25.4241 64.2592C24.2311 66.2105 24.8516 68.783 26.8029 69.9759Z" fill="#54A8C2"/>
<path d="M99.9048 38.3371V81.6634C99.9048 83.96 98.043 85.8217 95.7465 85.8217H24.2559C21.9594 85.8217 20.0977 83.96 20.0977 81.6634V38.3371C20.0977 36.0406 21.9594 34.1788 24.2559 34.1788H95.7465C98.043 34.1788 99.9048 36.0406 99.9048 38.3371Z" fill="#67B9D3"/>
<path d="M36.8855 85.8305H24.2652C21.9571 85.8305 20.1069 83.9593 20.1069 81.6722V38.3429C20.1069 36.035 21.9571 34.1847 24.2652 34.1847H36.8855C34.5985 34.1847 32.7272 36.035 32.7272 38.3429V81.6722C32.7272 83.9593 34.5985 85.8305 36.8855 85.8305Z" fill="#54A8C2"/>
<path d="M20.1069 48.3015H99.904V56.5133H20.1069V48.3015Z" fill="#F7D4BE"/>
<path d="M20.1069 48.3015H40.8981V56.5133H20.1069V48.3015Z" fill="#E6BFA6"/>
<path d="M44.4248 34.178H52.6366V85.8221H44.4248V34.178Z" fill="#F7D4BE"/>
<path d="M44.4248 34.1794H48.5307V85.8236H44.4248V34.1794Z" fill="#E6BFA6"/>
<path d="M55.7419 46.4567L69.6647 60.3794L62.8016 61.7934L61.3876 68.6565L47.4648 54.7337L55.7419 46.4567Z" fill="#F7D4BE"/>
<path d="M47.4658 54.7295L50.8575 51.3378L62.5471 63.0274L61.3911 68.6548L47.4658 54.7295Z" fill="#E6BFA6"/>
<path d="M49.5963 54.7337L35.6735 68.6565L34.2595 61.7934L27.3965 60.3794L41.3193 46.4567L49.5963 54.7337Z" fill="#F7D4BE"/>
<path d="M41.3233 46.4578L44.7149 49.8495L33.0253 61.5391L27.3979 60.3831L41.3233 46.4578Z" fill="#E6BFA6"/>
<path d="M69.066 46.3941L68.0519 48.8423C65.7986 54.2823 59.562 56.8656 54.122 54.6123L51.6738 53.5982C49.921 52.8721 49.0886 50.8626 49.8146 49.1098L50.8287 46.6616C53.082 41.2216 59.3187 38.6383 64.7587 40.8917L67.2069 41.9057C68.9597 42.6318 69.7921 44.6413 69.066 46.3941Z" fill="#F7D4BE"/>
<path d="M55.3149 48.5256L54.3027 50.9694C53.6848 52.461 54.197 54.142 55.4554 55.0536C55.0006 54.9396 54.559 54.7938 54.1147 54.6097L51.671 53.5976C49.9255 52.8745 49.0889 50.8548 49.8119 49.1092L50.8241 46.6655C53.0787 41.2226 59.3173 38.6383 64.7603 40.8928L67.2042 41.9051C67.4581 42.0103 67.6987 42.1472 67.9105 42.3092C62.8302 40.93 57.3854 43.527 55.3149 48.5256Z" fill="#E6BFA6"/>
<path d="M27.9953 46.3941L29.0094 48.8423C31.2627 54.2823 37.4994 56.8656 42.9393 54.6123L45.3875 53.5982C47.1403 52.8721 47.9727 50.8626 47.2467 49.1098L46.2326 46.6616C43.9793 41.2216 37.7426 38.6383 32.3026 40.8917L29.8544 41.9057C28.1016 42.6318 27.2693 44.6413 27.9953 46.3941Z" fill="#F7D4BE"/>
<path d="M46.0921 53.1951C45.8804 53.3572 45.6396 53.4941 45.3858 53.5992L42.942 54.6115C37.4991 56.866 31.2604 54.2818 29.0058 48.8389L27.9936 46.3951C27.2705 44.6496 28.107 42.6299 29.8527 41.9068L32.2965 40.8945C32.7407 40.7105 33.1823 40.5648 33.6371 40.4508C32.3787 41.3625 31.8664 43.0433 32.4843 44.535L33.4966 46.9788C35.567 51.9773 41.0117 54.5744 46.0921 53.1951Z" fill="#E6BFA6"/>
<path d="M53.5633 51.828C53.5633 54.6251 51.3152 56.8734 48.5444 56.8734C45.7471 56.8734 43.499 54.6251 43.499 51.828C43.499 49.057 45.7471 46.8089 48.5444 46.8089C51.3152 46.8089 53.5633 49.057 53.5633 51.828Z" fill="#F7D4BE"/>
<path d="M50.4431 56.504C49.8575 56.7355 49.2175 56.8717 48.5501 56.8717C45.745 56.8717 43.498 54.6248 43.498 51.8332C43.498 49.0552 45.745 46.8083 48.5501 46.8083C49.2175 46.8083 49.8575 46.9445 50.4431 47.176C48.591 47.9113 47.2838 49.7225 47.2838 51.8331C47.2838 53.9575 48.591 55.7686 50.4431 56.504Z" fill="#E6BFA6"/>
<path d="M104.542 55.6732L101.008 53.5122V38.338C101.008 35.4409 98.6547 33.0733 95.7429 33.0733H67.5752L43.5482 18.3843C41.0723 16.8706 37.8274 17.6533 36.3144 20.1278L28.4005 33.0733H24.2576C21.3606 33.0733 18.993 35.4409 18.993 38.338V48.462L13.7163 57.0935C12.2026 59.567 12.9728 62.8064 15.4605 64.3258L18.993 66.4855V81.6615C18.993 84.5586 21.3606 86.9263 24.2576 86.9263H52.4274L76.4555 101.616C77.292 102.127 78.2327 102.39 79.1891 102.39C79.6034 102.39 80.0206 102.341 80.4328 102.242C81.7993 101.912 82.9553 101.07 83.6878 99.8727L91.6026 86.9263H95.7429C98.6547 86.9263 101.008 84.5586 101.008 81.6615V71.5427L106.287 62.907C107.8 60.4325 107.018 57.1869 104.542 55.6732ZM98.8019 38.338V47.1987H69.9265L70.0848 46.8166C71.042 44.5045 69.9405 41.8448 67.6291 40.8855L65.1812 39.8716C62.2774 38.671 59.0805 38.6695 56.1767 39.873C55.2989 40.2364 54.4885 40.7074 53.7396 41.2531V35.2792H95.7429C97.4341 35.2792 98.8019 36.6468 98.8019 38.338ZM45.5279 84.7188V60.3625L47.9492 57.9409C48.6869 57.9937 48.6791 57.9646 49.112 57.9407L51.5337 60.3623V84.7188H45.5279ZM68.047 45.9722L67.0331 48.4193C66.0558 50.7789 64.219 52.6157 61.8601 53.5923C59.5006 54.5717 56.9027 54.5717 54.5445 53.5923L54.4156 53.5389C54.4167 53.5355 54.4185 53.5326 54.4194 53.5292C54.7104 52.5504 54.7183 51.5365 54.5959 50.9556L61.5959 48.0586C62.1547 47.8233 62.4195 47.1762 62.1842 46.6174C61.9488 46.0438 61.3018 45.7939 60.7428 46.0145L53.9048 48.8527C53.4366 48.0189 52.7783 47.3174 52.0042 46.7744C53.598 43.2892 57.0495 41.1827 60.6911 41.1827C61.9083 41.1827 63.1448 41.4168 64.3367 41.9109L66.7846 42.9233C67.9723 43.4159 68.5388 44.7845 68.047 45.9722ZM48.5518 55.7645C46.3754 55.7645 44.6105 54.0145 44.5958 51.838V51.8233C44.5958 49.6654 46.3775 47.9115 48.5518 47.9115C50.7127 47.9115 52.4636 49.6933 52.4636 51.8233V51.838C52.4489 54.0145 50.6988 55.7645 48.5518 55.7645ZM45.5279 43.3388V35.2817H51.5337V43.3388C50.9104 44.1108 50.3902 44.9707 49.9721 45.8956C49.5181 45.7643 49.0349 45.7056 48.5518 45.7056C48.0518 45.7056 47.5517 45.7645 47.0959 45.8968C47.0941 45.8972 47.0925 45.8982 47.0907 45.8985C46.6724 44.9725 46.1519 44.1116 45.5279 43.3388ZM45.0688 46.7779C45.0681 46.7784 45.0672 46.7786 45.0665 46.7791C44.287 47.3233 43.6401 48.0292 43.1694 48.8527L36.3166 46.0145C35.7576 45.7938 35.1106 46.0438 34.8754 46.6174C34.6399 47.1762 34.9047 47.8233 35.4782 48.0586L42.4635 50.9556C42.4046 51.235 42.3899 51.5292 42.3899 51.8233C42.3899 52.4255 42.4783 52.9981 42.6395 53.5418L42.5178 53.5922C37.65 55.6086 32.0448 53.2892 30.0285 48.4193L29.0146 45.9722C28.5227 44.7845 29.0893 43.4159 30.277 42.9247L32.7248 41.9108C37.4858 39.9368 42.9454 42.1209 45.0688 46.7779ZM28.1355 49.5702C28.9859 51.4691 30.2964 53.0739 31.9468 54.2695L30.6389 55.5775H21.21V49.5702L28.1355 49.5702ZM33.9143 55.4207C34.0629 55.4895 34.2057 55.5671 34.3577 55.6301C37.1689 56.7952 40.3601 56.8728 43.3622 55.6316L43.6415 55.5159C44.156 56.2061 44.8166 56.7792 45.5657 57.2051L36.341 66.4298L35.34 61.5714C35.2517 61.1405 34.9142 60.8031 34.4826 60.714L29.6235 59.7116L33.9143 55.4207ZM51.4949 57.2042C52.2442 56.7925 52.9052 56.2197 53.4341 55.5291C53.4355 55.5273 53.4364 55.5248 53.4378 55.5229L53.7001 55.6316C55.152 56.2318 56.6772 56.5334 58.2023 56.5334C59.7275 56.5334 61.2527 56.2318 62.7046 55.6301C62.8564 55.5672 62.999 55.4896 63.1474 55.4209L67.438 59.7116L62.5796 60.714C62.1481 60.803 61.8106 61.1405 61.7223 61.5713L60.7206 66.4297L51.4949 57.2042ZM65.1149 54.2697C66.8141 53.0388 68.1568 51.3768 69.0045 49.4045H98.8015V55.4118H66.2572L65.1149 54.2697ZM38.1965 21.2795C38.7723 20.3374 39.7791 19.8176 40.8088 19.8176C41.3516 19.8176 41.9016 19.9626 42.3978 20.2656L63.3474 33.0733H30.9866L38.1965 21.2795ZM24.2576 35.2792H43.322V41.2531C42.573 40.7075 41.7627 40.2364 40.8849 39.873C37.981 38.6695 34.7842 38.671 31.8804 39.8716L29.4325 40.8869C27.1211 41.8448 26.0196 44.5045 26.9768 46.8166L27.2037 47.3643H21.1989V38.338C21.1989 36.6468 22.5664 35.2792 24.2576 35.2792ZM16.6108 62.4445C15.1697 61.562 14.7162 59.6829 15.5984 58.2453L18.993 52.6923V63.9009L16.6108 62.4445ZM21.1989 81.6615V57.7834H28.433L26.617 59.5996C25.9975 60.2191 26.3156 61.2823 27.1742 61.4594L33.3266 62.7274L34.594 68.8798C34.7719 69.7443 35.8371 70.0536 36.4537 69.437L43.322 62.5685V84.7204H24.2576C22.5664 84.7204 21.1989 83.3527 21.1989 81.6615ZM81.8064 98.7209C81.3806 99.4175 80.7093 99.9057 79.9158 100.098C79.1238 100.288 78.3023 100.161 77.6058 99.7348L56.6549 86.9263H89.0172L81.8064 98.7209ZM95.7429 84.7204H53.7396V62.5684L60.6079 69.437C61.2245 70.0537 62.2898 69.7442 62.4676 68.8798L63.7357 62.7274L69.8874 61.4593C70.7453 61.2825 71.0646 60.2196 70.4446 59.5996L68.4627 57.6177H98.8019V81.6615C98.8019 83.3527 97.4341 84.7204 95.7429 84.7204ZM104.406 61.7552L101.008 67.3137V56.0972L103.391 57.5545C104.829 58.4349 105.284 60.319 104.406 61.7552Z" fill="black"/>
<path d="M90.9112 69.8147H74.9408C74.3319 69.8147 73.8379 70.3087 73.8379 70.9176C73.8379 71.5266 74.3319 72.0206 74.9408 72.0206H90.9112C91.5201 72.0206 92.0142 71.5266 92.0142 70.9176C92.0142 70.3087 91.5201 69.8147 90.9112 69.8147Z" fill="black"/>
<path d="M90.9112 75.766H74.9408C74.3319 75.766 73.8379 76.26 73.8379 76.8689C73.8379 77.4778 74.3319 77.9719 74.9408 77.9719H90.9112C91.5201 77.9719 92.0142 77.4778 92.0142 76.8689C92.0142 76.26 91.5201 75.766 90.9112 75.766Z" fill="black"/>
<path d="M14.0463 18.1229H15.9183V19.9956C15.9183 20.6046 16.4123 21.0986 17.0212 21.0986C17.6301 21.0986 18.1242 20.6046 18.1242 19.9956V18.1229H19.9969C20.6058 18.1229 21.0998 17.6289 21.0998 17.02C21.0998 16.4111 20.6058 15.9171 19.9969 15.9171H18.1242V14.0443C18.1242 13.4354 17.6301 12.9414 17.0212 12.9414C16.4123 12.9414 15.9183 13.4354 15.9183 14.0443V15.9171H14.0463C13.4374 15.9171 12.9434 16.4111 12.9434 17.02C12.9434 17.6289 13.4374 18.1229 14.0463 18.1229Z" fill="black"/>
<path d="M97.2088 101.131H95.3368V99.2595C95.3368 98.6506 94.8428 98.1566 94.2339 98.1566C93.625 98.1566 93.1309 98.6506 93.1309 99.2595V101.131H91.2582C90.6493 101.131 90.1553 101.625 90.1553 102.234C90.1553 102.843 90.6493 103.337 91.2582 103.337H93.1309V105.209C93.1309 105.818 93.625 106.312 94.2339 106.312C94.8428 106.312 95.3368 105.818 95.3368 105.209V103.337H97.2088C97.8177 103.337 98.3117 102.843 98.3117 102.234C98.3117 101.625 97.8177 101.131 97.2088 101.131Z" fill="black"/>
<path d="M17.8752 98.9704C15.6546 98.9704 13.8311 100.794 13.8311 103.014C13.8311 105.25 15.6546 107.059 17.8752 107.059C20.1105 107.059 21.9193 105.25 21.9193 103.014C21.9193 100.794 20.1105 98.9704 17.8752 98.9704ZM17.8752 104.853C16.8606 104.853 16.0369 104.029 16.0369 103.014C16.0369 102 16.8606 101.176 17.8752 101.176C18.8898 101.176 19.7134 102 19.7134 103.014C19.7134 104.029 18.8898 104.853 17.8752 104.853Z" fill="black"/>
<path d="M83.4782 26.1762C85.7135 26.1762 87.5223 24.3674 87.5223 22.1468C87.5223 19.9115 85.7135 18.088 83.4782 18.088C81.2429 18.088 79.4341 19.9115 79.4341 22.1468C79.4341 24.3674 81.2429 26.1762 83.4782 26.1762ZM83.4782 20.2939C84.493 20.2939 85.3164 21.1321 85.3164 22.1468C85.3164 23.1615 84.493 23.9704 83.4782 23.9704C82.4634 23.9704 81.64 23.1615 81.64 22.1468C81.64 21.1321 82.4634 20.2939 83.4782 20.2939Z" fill="black"/>
<path d="M24.6005 27.7722C25.2094 27.7722 25.7034 27.2782 25.7034 26.6693V26.2542C25.7034 25.6453 25.2094 25.1513 24.6005 25.1513C23.9916 25.1513 23.4976 25.6453 23.4976 26.2542V26.6693C23.4976 27.2782 23.9916 27.7722 24.6005 27.7722Z" fill="black"/>
<path d="M55.0067 18.3298C55.6157 18.3298 56.1097 17.8357 56.1097 17.2268V16.8118C56.1097 16.2029 55.6157 15.7088 55.0067 15.7088C54.3978 15.7088 53.9038 16.2029 53.9038 16.8118V17.2268C53.9038 17.8357 54.3978 18.3298 55.0067 18.3298Z" fill="black"/>
<path d="M67.9106 26.5975C68.5195 26.5975 69.0135 26.1035 69.0135 25.4945V25.0795C69.0135 24.4706 68.5195 23.9766 67.9106 23.9766C67.3016 23.9766 66.8076 24.4706 66.8076 25.0795V25.4945C66.8076 26.1035 67.3016 26.5975 67.9106 26.5975Z" fill="black"/>
<path d="M104.5 37.6283C105.109 37.6283 105.603 37.1343 105.603 36.5254V36.1104C105.603 35.5014 105.109 35.0074 104.5 35.0074C103.891 35.0074 103.397 35.5014 103.397 36.1104V36.5254C103.397 37.1343 103.891 37.6283 104.5 37.6283Z" fill="black"/>
<path d="M97.2089 18.3298C97.8178 18.3298 98.3118 17.8357 98.3118 17.2268V16.8118C98.3118 16.2029 97.8178 15.7088 97.2089 15.7088C96.6 15.7088 96.106 16.2029 96.106 16.8118V17.2268C96.106 17.8357 96.6 18.3298 97.2089 18.3298Z" fill="black"/>
<path d="M46.477 91.4628C45.8681 91.4628 45.374 91.9568 45.374 92.5657V92.9808C45.374 93.5897 45.8681 94.0837 46.477 94.0837C47.0859 94.0837 47.5799 93.5897 47.5799 92.9808V92.5657C47.5799 91.9568 47.0859 91.4628 46.477 91.4628Z" fill="black"/>
<path d="M60.0009 101.704C59.392 101.704 58.8979 102.198 58.8979 102.807V103.222C58.8979 103.831 59.392 104.325 60.0009 104.325C60.6098 104.325 61.1038 103.831 61.1038 103.222V102.807C61.1038 102.198 60.6098 101.704 60.0009 101.704Z" fill="black"/>
<path d="M103.455 91.2545C102.846 91.2545 102.352 91.7486 102.352 92.3575V92.774C102.352 93.3829 102.846 93.8769 103.455 93.8769C104.063 93.8769 104.557 93.3829 104.557 92.774V92.3575C104.557 91.7486 104.063 91.2545 103.455 91.2545Z" fill="black"/>
<path d="M31.5888 96.3772C30.9799 96.3772 30.4858 96.8712 30.4858 97.4801V97.8952C30.4858 98.5041 30.9799 98.9981 31.5888 98.9981C32.1977 98.9981 32.6917 98.5041 32.6917 97.8952V97.4801C32.6917 96.8712 32.1977 96.3772 31.5888 96.3772Z" fill="black"/>
<path d="M16.3055 86.0386V85.6235C16.3055 85.0146 15.8115 84.5206 15.2026 84.5206C14.5936 84.5206 14.0996 85.0146 14.0996 85.6235V86.0386C14.0996 86.6475 14.5936 87.1415 15.2026 87.1415C15.8115 87.1415 16.3055 86.6475 16.3055 86.0386Z" fill="black"/>
</svg>
