<svg xmlns="http://www.w3.org/2000/svg" width="279" height="40" fill="none" viewBox="0 0 279 40">
  <path fill="url(#a)" d="M22.161 34.437c-.995.948-1.928 1.959-2.97 2.83-4.912 4.057-11.987 3.513-16.247-1.198-4.104-4.555-3.902-11.707.513-16.123C8.992 14.38 14.558 8.845 20.11 3.31c3.452-3.436 8.784-4.276 13.309-2.146 4.291 2.022 6.934 6.717 6.514 11.506-.248 2.876-1.383 5.333-3.42 7.37-4.695 4.71-9.407 9.422-14.117 14.132-.078.078-.156.187-.234.265Zm-13.34 3.622-.326-.186C2.058 34.56.767 26.274 5.883 21.159L22.255 4.787a11.764 11.764 0 0 1 1.88-1.508c1.991-1.306 4.23-1.633 6.578-1.493-.11-.217-.28-.233-.42-.248-3.56-.591-6.701.264-9.282 2.814C15.46 9.856 9.91 15.375 4.42 20.957 1.31 24.144.533 27.969 2.135 32.136c1.181 3.078 3.482 5.053 6.685 5.923Z"/>
  <path fill="#54A8C2" d="M44.24 32.57c-.514.125-.763.576-1.09.918-1.352 1.306-2.596 2.737-4.057 3.95-5.022 4.135-12.89 3.14-16.683-2.084-.202-.28-.389-.544-.233-.902l-.016.016c.902-.482 1.508-1.29 2.24-1.975a1045.8 1045.8 0 0 0 8.395-8.054c1.71-1.648 3.42-3.265 5.115-4.928 3.685-3.638 4.431-9.422 1.835-13.885-.7-1.181-.7-1.181.28-2.16 4.633-4.65 12.174-4.618 16.73.077 4.4 4.525 4.4 11.863-.016 16.34-3.856 3.903-7.743 7.775-11.615 11.662-.17.17-.45.28-.42.59l.016-.015c-.295.031-.45.187-.482.482v-.031ZM58.931 8.426c.078-.28-.047-.42-.109-.59-.73-1.742-2.021-3.08-3.436-4.23C51.267.231 44.799.402 40.725 3.87c-.357.31-.466.544-.14.948.39.482.545-.031.731-.155 3.079-2.302 6.5-2.986 10.2-2.068 3.311.808 5.721 2.845 7.416 5.83Z"/>
  <path fill="#54A8C2" d="M44.674 32.12c.933-.575 1.617-1.415 2.426-2.146 1.415-1.274 2.798-2.596 4.182-3.902 2.768-2.581 5.535-5.146 8.272-7.743.357-.326.606-.42 1.057-.155 4.291 2.487 6.499 7.478 5.504 12.516-.917 4.695-5.069 8.535-9.889 9.173-4.913.653-9.78-1.882-11.971-6.204-.187-.373-.42-.715-.047-1.104l-.016.016c.234-.093.436-.202.482-.482v.031Zm21.348-2.69c-.016-1.555-.358-3.032-.996-4.493C64 22.605 62.43 20.817 60.3 19.48c-.389-.25-.637-.25-.995.093-4.571 4.291-9.142 8.551-13.729 12.827-.326.31-.42.56-.109.902.373.388.498-.078.653-.218 4.385-4.058 8.754-8.132 13.107-12.22.436-.405.715-.405 1.182-.11 3.203 2.022 4.99 4.945 5.613 8.676Z"/>
  <path fill="#2E2E2E" d="M83.976 13.025h5.2V29.5h-5.2V13.025Zm-7.15-2.275h19.5v4.6h-19.5v-4.6Zm25.309 8.2h6.825c.833 0 1.483-.192 1.95-.575.467-.383.7-.917.7-1.6 0-.7-.233-1.233-.7-1.6-.467-.383-1.117-.575-1.95-.575h-7.55l2.325-2.475V29.5H98.56V10.75h11.125c1.433 0 2.683.258 3.75.775 1.067.5 1.9 1.2 2.5 2.1.6.883.9 1.933.9 3.15 0 1.183-.3 2.225-.9 3.125-.6.9-1.433 1.6-2.5 2.1s-2.317.75-3.75.75h-7.55v-3.8Zm2.8 1.775h5.825l6.725 8.775h-6l-6.55-8.775Zm19.693.4c0 .85.158 1.592.475 2.225a3.412 3.412 0 0 0 1.45 1.425c.65.333 1.441.5 2.375.5.95 0 1.741-.167 2.375-.5a3.273 3.273 0 0 0 1.425-1.425c.316-.633.475-1.375.475-2.225V10.75h5.2v10.625c0 1.717-.4 3.217-1.2 4.5-.784 1.267-1.884 2.258-3.3 2.975-1.417.7-3.075 1.05-4.975 1.05-1.884 0-3.542-.35-4.975-1.05-1.417-.717-2.525-1.708-3.325-2.975-.784-1.283-1.175-2.783-1.175-4.5V10.75h5.175v10.375Zm33.048-2.875V22h-13.725v-3.75h13.725Zm-10.2 1.875-1.225 7.525-2.1-2.35h14.35v4.2h-17.425l1.425-9.375-1.425-9.375h17.3v4.2h-14.225l2.1-2.35 1.225 7.525Zm29.575-9.375c2.216 0 4.158.392 5.825 1.175 1.683.767 2.983 1.858 3.9 3.275.933 1.4 1.4 3.042 1.4 4.925s-.467 3.533-1.4 4.95c-.917 1.4-2.217 2.492-3.9 3.275-1.667.767-3.609 1.15-5.825 1.15h-9.35V10.75h9.35Zm-4.2 16.575-2.475-2.425h7.075c1.116 0 2.083-.192 2.9-.575.833-.4 1.475-.958 1.925-1.675.45-.717.675-1.558.675-2.525 0-.983-.225-1.825-.675-2.525-.45-.717-1.092-1.267-1.925-1.65-.817-.4-1.784-.6-2.9-.6h-7.075l2.475-2.425v14.4Zm21.569-8.375h6.825c.834 0 1.484-.192 1.95-.575.467-.383.7-.917.7-1.6 0-.7-.233-1.233-.7-1.6-.466-.383-1.116-.575-1.95-.575h-7.55l2.325-2.475V29.5h-5.175V10.75h11.125c1.434 0 2.684.258 3.75.775 1.067.5 1.9 1.2 2.5 2.1.6.883.9 1.933.9 3.15 0 1.183-.3 2.225-.9 3.125-.6.9-1.433 1.6-2.5 2.1-1.066.5-2.316.75-3.75.75h-7.55v-3.8Zm2.8 1.775h5.825l6.725 8.775h-6l-6.55-8.775Zm19.693.4c0 .85.158 1.592.475 2.225a3.412 3.412 0 0 0 1.45 1.425c.65.333 1.441.5 2.375.5.95 0 1.741-.167 2.375-.5a3.273 3.273 0 0 0 1.425-1.425c.316-.633.475-1.375.475-2.225V10.75h5.2v10.625c0 1.717-.4 3.217-1.2 4.5-.784 1.267-1.884 2.258-3.3 2.975-1.417.7-3.075 1.05-4.975 1.05-1.884 0-3.542-.35-4.975-1.05-1.417-.717-2.525-1.708-3.325-2.975-.784-1.283-1.175-2.783-1.175-4.5V10.75h5.175v10.375Zm36.223.25a9.77 9.77 0 0 1-.7 3.25 8.109 8.109 0 0 1-1.775 2.725c-.767.8-1.733 1.425-2.9 1.875-1.15.45-2.492.675-4.025.675-1.467 0-2.842-.208-4.125-.625a10.296 10.296 0 0 1-3.4-1.9 8.763 8.763 0 0 1-2.275-3.075c-.533-1.217-.8-2.608-.8-4.175 0-1.567.275-2.958.825-4.175a8.635 8.635 0 0 1 2.3-3.075c1-.833 2.15-1.458 3.45-1.875 1.317-.433 2.75-.65 4.3-.65 2.067 0 3.85.317 5.35.95 1.5.633 2.708 1.5 3.625 2.6.917 1.1 1.508 2.375 1.775 3.825h-5.225a3.198 3.198 0 0 0-1.025-1.625c-.5-.467-1.133-.817-1.9-1.05-.75-.25-1.608-.375-2.575-.375-1.167 0-2.175.208-3.025.625a4.365 4.365 0 0 0-1.975 1.825c-.467.8-.7 1.8-.7 3 0 1.217.25 2.242.75 3.075.5.833 1.208 1.458 2.125 1.875.933.417 2.025.625 3.275.625 1.217 0 2.292-.167 3.225-.5.933-.35 1.675-.858 2.225-1.525.567-.667.892-1.467.975-2.4l2.225.1Zm-8.15 2.075V19.8h9.95v9.7h-3.675l-.725-7.425.975 1.375h-6.525Zm12.197-.1h5.275c.083.517.325.967.725 1.35.4.383.933.683 1.6.9.683.2 1.483.3 2.4.3 1.266 0 2.266-.158 3-.475.733-.333 1.1-.817 1.1-1.45 0-.483-.209-.858-.625-1.125-.417-.267-1.217-.458-2.4-.575l-3.5-.325c-2.584-.233-4.459-.817-5.625-1.75-1.167-.95-1.75-2.225-1.75-3.825 0-1.3.375-2.4 1.125-3.3.766-.9 1.833-1.575 3.2-2.025 1.383-.467 2.991-.7 4.825-.7 1.8 0 3.4.258 4.8.775 1.4.5 2.508 1.217 3.325 2.15a5.174 5.174 0 0 1 1.35 3.25h-5.25a1.845 1.845 0 0 0-.65-1.15c-.35-.333-.834-.583-1.45-.75-.617-.183-1.359-.275-2.225-.275-1.167 0-2.092.158-2.775.475-.684.3-1.025.75-1.025 1.35 0 .433.2.783.6 1.05.416.267 1.158.45 2.225.55l3.725.375c1.783.167 3.208.458 4.275.875 1.066.4 1.841.958 2.325 1.675.483.717.725 1.608.725 2.675 0 1.317-.392 2.467-1.175 3.45-.784.967-1.884 1.725-3.3 2.275-1.417.533-3.067.8-4.95.8-1.934 0-3.642-.267-5.125-.8-1.467-.55-2.617-1.317-3.45-2.3a5.58 5.58 0 0 1-1.325-3.45Z"/>
  <defs>
    <linearGradient id="a" x1="19.988" x2="19.988" y1=".001" y2="39.989" gradientUnits="userSpaceOnUse">
      <stop stop-color="#72BAD0"/>
      <stop offset=".281" stop-color="#76C8E1"/>
      <stop offset="1" stop-color="#54A8C2"/>
    </linearGradient>
  </defs>
</svg>
