<?xml version="1.0" encoding="UTF-8"?>
<svg xmlns="http://www.w3.org/2000/svg" xmlns:xlink="http://www.w3.org/1999/xlink" width="192px" height="192px" viewBox="0 0 192 192" version="1.1">
<defs>
<linearGradient id="linear0" gradientUnits="userSpaceOnUse" x1="19.988" y1="0.00103" x2="19.988" y2="39.989" gradientTransform="matrix(1.719405,0,0,2.880003,38.957568,38.399873)">
<stop offset="0" style="stop-color:rgb(44.705882%,72.941176%,81.568627%);stop-opacity:1;"/>
<stop offset="0.281" style="stop-color:rgb(46.27451%,78.431373%,88.235294%);stop-opacity:1;"/>
<stop offset="1" style="stop-color:rgb(32.941176%,65.882353%,76.078431%);stop-opacity:1;"/>
</linearGradient>
</defs>
<g id="surface1">
<path style=" stroke:none;fill-rule:nonzero;fill:url(#linear0);" d="M 77.0625 137.578125 C 75.351562 140.308594 73.746094 143.21875 71.953125 145.730469 C 63.507812 157.414062 51.34375 155.847656 44.019531 142.277344 C 36.964844 129.160156 37.308594 108.5625 44.902344 95.84375 C 54.417969 79.8125 63.988281 63.875 73.535156 47.933594 C 79.46875 38.035156 88.636719 35.617188 96.417969 41.753906 C 103.796875 47.574219 108.339844 61.097656 107.617188 74.890625 C 107.191406 83.171875 105.242188 90.25 101.738281 96.113281 C 93.664062 109.679688 85.5625 123.25 77.464844 136.816406 C 77.332031 137.039062 77.195312 137.355469 77.0625 137.578125 Z M 54.125 148.011719 L 53.5625 147.472656 C 42.496094 137.933594 40.277344 114.070312 49.074219 99.335938 L 77.222656 52.1875 C 78.207031 50.558594 79.292969 49.101562 80.457031 47.84375 C 83.878906 44.082031 87.726562 43.140625 91.765625 43.542969 C 91.578125 42.917969 91.285156 42.871094 91.042969 42.828125 C 84.921875 41.128906 79.523438 43.589844 75.085938 50.933594 C 65.539062 66.785156 55.996094 82.679688 46.558594 98.757812 C 41.210938 107.933594 39.875 118.949219 42.628906 130.953125 C 44.660156 139.816406 48.617188 145.503906 54.121094 148.011719 Z M 54.125 148.011719 "/>
<path style=" stroke:none;fill-rule:nonzero;fill:rgb(32.941176%,65.882353%,76.078431%);fill-opacity:1;" d="M 115.023438 132.203125 C 114.140625 132.5625 113.710938 133.859375 113.148438 134.84375 C 110.824219 138.605469 108.6875 142.726562 106.175781 146.222656 C 97.539062 158.128906 84.011719 155.265625 77.488281 140.21875 C 77.140625 139.414062 76.820312 138.652344 77.089844 137.621094 L 77.0625 137.667969 C 78.613281 136.28125 79.652344 133.953125 80.914062 131.980469 C 85.75 124.292969 90.5625 116.5625 95.347656 108.785156 C 98.289062 104.039062 101.226562 99.382812 104.140625 94.589844 C 110.476562 84.113281 111.761719 67.457031 107.296875 54.601562 C 106.09375 51.203125 106.09375 51.203125 107.777344 48.382812 C 115.746094 34.988281 128.710938 35.082031 136.542969 48.605469 C 144.109375 61.636719 144.109375 82.769531 136.515625 95.664062 C 129.886719 106.902344 123.203125 118.054688 116.546875 129.25 C 116.253906 129.738281 115.773438 130.054688 115.824219 130.949219 L 115.851562 130.90625 C 115.34375 130.996094 115.078125 131.445312 115.023438 132.292969 Z M 140.285156 62.667969 C 140.417969 61.859375 140.203125 61.457031 140.097656 60.96875 C 138.839844 55.949219 136.621094 52.097656 134.1875 48.785156 C 127.105469 39.066406 115.984375 39.558594 108.980469 49.546875 C 108.367188 50.4375 108.179688 51.113281 108.738281 52.277344 C 109.410156 53.664062 109.675781 52.1875 109.996094 51.828125 C 115.289062 45.199219 121.171875 43.230469 127.535156 45.875 C 133.226562 48.199219 137.371094 54.066406 140.285156 62.664062 Z M 140.285156 62.667969 "/>
<path style=" stroke:none;fill-rule:nonzero;fill:rgb(32.941176%,65.882353%,76.078431%);fill-opacity:1;" d="M 115.769531 130.90625 C 117.375 129.25 118.550781 126.832031 119.941406 124.726562 C 122.375 121.054688 124.753906 117.25 127.132812 113.488281 C 131.890625 106.054688 136.648438 98.667969 141.355469 91.1875 C 141.96875 90.25 142.398438 89.976562 143.171875 90.742188 C 150.550781 97.902344 154.347656 112.277344 152.636719 126.789062 C 151.058594 140.308594 143.921875 151.367188 135.632812 153.207031 C 127.183594 155.085938 118.816406 147.785156 115.050781 135.339844 C 114.726562 134.261719 114.328125 133.277344 114.96875 132.160156 L 114.941406 132.203125 C 115.34375 131.9375 115.691406 131.621094 115.769531 130.816406 Z M 152.476562 123.160156 C 152.449219 118.679688 151.859375 114.425781 150.761719 110.21875 C 149 103.503906 146.300781 98.351562 142.636719 94.503906 C 141.96875 93.78125 141.542969 93.78125 140.925781 94.769531 C 133.066406 107.128906 125.207031 119.398438 117.320312 131.710938 C 116.761719 132.605469 116.597656 133.324219 117.132812 134.308594 C 117.773438 135.425781 117.988281 134.085938 118.257812 133.683594 C 125.796875 121.996094 133.308594 110.261719 140.792969 98.488281 C 141.542969 97.320312 142.023438 97.320312 142.824219 98.171875 C 148.332031 103.996094 151.40625 112.414062 152.476562 123.160156 Z M 152.476562 123.160156 "/>
</g>
</svg>
