<svg width="160" height="30" viewBox="0 0 160 30" fill="none" xmlns="http://www.w3.org/2000/svg">
<path d="M6.7849 15.7979L11.0206 23.2089C11.6211 24.2595 12.7308 24.9067 13.9317 24.9067H22.4031C23.604 24.9067 24.7137 24.2595 25.3142 23.2089L29.5499 15.7979C30.1504 14.7473 30.1504 13.453 29.5499 12.4024L21.801 0L20.5431 2.46355C20.2828 2.97335 19.7625 3.29368 19.1946 3.29368H13.9317C12.7309 3.29368 11.6211 3.94086 11.0207 4.99145L6.78496 12.4024C6.18448 13.453 6.18448 14.7474 6.7849 15.7979Z" fill="#13163F"/>
<path d="M23.2153 17.5976L18.9796 25.0086C18.3791 26.0592 17.2695 26.7063 16.0685 26.7063H10.8057C10.2378 26.7063 9.71746 27.0267 9.45716 27.5365L8.19932 30L0.450353 17.5976C-0.150118 16.547 -0.150118 15.2527 0.450353 14.2021L4.68608 6.7911C5.28655 5.7405 6.39621 5.09332 7.59715 5.09332H16.0685C17.2694 5.09332 18.3791 5.7405 18.9796 6.7911L23.2153 14.2021C23.8158 15.2527 23.8158 16.547 23.2153 17.5976Z" fill="#1C77CB"/>
<path fill-rule="evenodd" clip-rule="evenodd" d="M16.0689 5.09314C17.2697 5.09325 18.3796 5.74088 18.98 6.79138L23.2154 14.2025C23.8156 15.253 23.8157 16.5475 23.2154 17.598L19.0376 24.9066H13.9322C12.7314 24.9066 11.6216 24.2597 11.021 23.2094L6.78471 15.7982C6.18435 14.7478 6.18444 13.4532 6.78471 12.4027L10.9634 5.09314H16.0689Z" fill="black" fill-opacity="0.2"/>
<path d="M7.33376 19.6418C6.33432 18.5151 5.80281 17.0493 5.84781 15.5439C5.89281 14.0385 6.51094 12.6071 7.57589 11.5422C8.64084 10.4772 10.0722 9.85909 11.5776 9.81408C13.083 9.76908 14.5488 10.3006 15.6755 11.3L7.33376 19.6418ZM7.93066 20.2387C9.05733 21.2381 10.5231 21.7696 12.0285 21.7246C13.5339 21.6796 14.9653 21.0615 16.0303 19.9965C17.0952 18.9316 17.7133 17.5002 17.7583 15.9948C17.8033 14.4894 17.2718 13.0236 16.2724 11.8969L7.93066 20.2387Z" fill="white"/>
<path d="M40.271 21.5V9.22309H41.8402V21.5H40.271ZM36.5602 9.77693V8.28155H45.5325V9.77693H36.5602ZM45.804 21.5V12.0846H47.2993V13.5985H47.3732C47.4963 13.2415 47.6993 12.9339 47.9824 12.6754C48.2778 12.4046 48.6101 12.1954 48.9793 12.0477C49.3609 11.8877 49.7363 11.8077 50.1055 11.8077C50.3886 11.8077 50.6101 11.8262 50.7701 11.8631C50.9301 11.8877 51.0778 11.9308 51.2132 11.9923V13.6908C51.0163 13.5923 50.8009 13.5185 50.567 13.4692C50.3455 13.42 50.1178 13.3954 49.884 13.3954C49.4286 13.3954 49.0101 13.5246 48.6286 13.7831C48.247 14.0415 47.9393 14.3862 47.7055 14.8169C47.484 15.2477 47.3732 15.7215 47.3732 16.2385V21.5H45.804ZM55.8677 21.7954C54.7107 21.7954 53.8369 21.4569 53.2461 20.78C52.6677 20.1031 52.3784 19.18 52.3784 18.0108V12.0846H53.9477V17.7708C53.9477 18.7062 54.163 19.3769 54.5938 19.7831C55.0246 20.1769 55.56 20.3739 56.2 20.3739C56.7538 20.3739 57.2338 20.2323 57.64 19.9492C58.0461 19.6539 58.36 19.2785 58.5815 18.8231C58.803 18.3677 58.9138 17.8939 58.9138 17.4015V12.0846H60.483V21.5H58.9877V20.1339H58.9138C58.7538 20.4292 58.5138 20.7062 58.1938 20.9646C57.8861 21.2108 57.5292 21.4077 57.123 21.5554C56.7292 21.7154 56.3107 21.7954 55.8677 21.7954ZM66.7709 21.7954C65.8601 21.7954 65.0478 21.58 64.334 21.1492C63.6325 20.7185 63.0786 20.1277 62.6725 19.3769C62.2786 18.6262 62.0817 17.7708 62.0817 16.8108C62.0817 15.9123 62.2663 15.0815 62.6355 14.3185C63.0171 13.5554 63.5463 12.9462 64.2232 12.4908C64.9125 12.0231 65.7186 11.7892 66.6417 11.7892C67.5771 11.7892 68.3771 11.9985 69.0417 12.4169C69.7186 12.8231 70.2355 13.3892 70.5925 14.1154C70.9617 14.8415 71.1463 15.6723 71.1463 16.6077C71.1463 16.6939 71.1401 16.78 71.1278 16.8662C71.1278 16.9523 71.1217 17.0262 71.1094 17.0877H63.0048V15.7954H69.4848C69.4725 15.5369 69.4109 15.26 69.3001 14.9646C69.2017 14.6569 69.0355 14.3739 68.8017 14.1154C68.5801 13.8446 68.2909 13.6292 67.934 13.4692C67.5894 13.2969 67.1586 13.2108 66.6417 13.2108C66.0263 13.2108 65.4909 13.3708 65.0355 13.6908C64.5925 13.9985 64.2478 14.4231 64.0017 14.9646C63.7678 15.5062 63.6509 16.1215 63.6509 16.8108C63.6509 17.6108 63.8048 18.2754 64.1125 18.8046C64.4201 19.3339 64.814 19.7277 65.294 19.9862C65.7863 20.2446 66.2971 20.3739 66.8263 20.3739C67.5155 20.3739 68.0817 20.2139 68.5248 19.8939C68.9801 19.5615 69.3432 19.1554 69.614 18.6754L70.9432 19.3215C70.574 20.0354 70.0448 20.6262 69.3555 21.0939C68.6663 21.5615 67.8048 21.7954 66.7709 21.7954ZM73.0579 21.5V8.28155H75.3287L79.5379 19.1185H79.6118L83.821 8.28155H86.0918V21.5H84.541V13.1L84.6149 10.5892H84.541L80.221 21.5H78.9287L74.6087 10.5892H74.5349L74.6087 13.1V21.5H73.0579ZM92.7058 21.7954C91.795 21.7954 90.9827 21.58 90.2688 21.1492C89.5673 20.7185 89.0135 20.1277 88.6073 19.3769C88.2135 18.6262 88.0165 17.7708 88.0165 16.8108C88.0165 15.9123 88.2012 15.0815 88.5704 14.3185C88.9519 13.5554 89.4812 12.9462 90.1581 12.4908C90.8473 12.0231 91.6535 11.7892 92.5765 11.7892C93.5119 11.7892 94.3119 11.9985 94.9765 12.4169C95.6535 12.8231 96.1704 13.3892 96.5273 14.1154C96.8965 14.8415 97.0812 15.6723 97.0812 16.6077C97.0812 16.6939 97.075 16.78 97.0627 16.8662C97.0627 16.9523 97.0565 17.0262 97.0442 17.0877H88.9396V15.7954H95.4196C95.4073 15.5369 95.3458 15.26 95.235 14.9646C95.1365 14.6569 94.9704 14.3739 94.7365 14.1154C94.515 13.8446 94.2258 13.6292 93.8688 13.4692C93.5242 13.2969 93.0935 13.2108 92.5765 13.2108C91.9612 13.2108 91.4258 13.3708 90.9704 13.6908C90.5273 13.9985 90.1827 14.4231 89.9365 14.9646C89.7027 15.5062 89.5858 16.1215 89.5858 16.8108C89.5858 17.6108 89.7396 18.2754 90.0473 18.8046C90.355 19.3339 90.7488 19.7277 91.2288 19.9862C91.7212 20.2446 92.2319 20.3739 92.7612 20.3739C93.4504 20.3739 94.0165 20.2139 94.4596 19.8939C94.915 19.5615 95.2781 19.1554 95.5488 18.6754L96.8781 19.3215C96.5088 20.0354 95.9796 20.6262 95.2904 21.0939C94.6012 21.5615 93.7396 21.7954 92.7058 21.7954ZM102.685 21.7954C101.836 21.7954 101.067 21.58 100.377 21.1492C99.7005 20.7185 99.1651 20.1277 98.7712 19.3769C98.3774 18.6262 98.1805 17.7646 98.1805 16.7923C98.1805 15.82 98.3774 14.9585 98.7712 14.2077C99.1651 13.4569 99.7005 12.8662 100.377 12.4354C101.067 12.0046 101.836 11.7892 102.685 11.7892C103.19 11.7892 103.651 11.8692 104.07 12.0292C104.488 12.1892 104.851 12.3985 105.159 12.6569C105.479 12.9154 105.725 13.1923 105.897 13.4877H105.971L105.897 12.1769V8.28155H107.467V21.5H105.971V20.1154H105.897C105.725 20.3985 105.479 20.6692 105.159 20.9277C104.851 21.1862 104.488 21.3954 104.07 21.5554C103.651 21.7154 103.19 21.7954 102.685 21.7954ZM102.851 20.3739C103.393 20.3739 103.897 20.2323 104.365 19.9492C104.845 19.6539 105.233 19.2415 105.528 18.7123C105.824 18.1708 105.971 17.5308 105.971 16.7923C105.971 16.0539 105.824 15.42 105.528 14.8908C105.233 14.3492 104.845 13.9369 104.365 13.6539C103.897 13.3585 103.393 13.2108 102.851 13.2108C102.31 13.2108 101.799 13.3585 101.319 13.6539C100.851 13.9369 100.47 14.3492 100.174 14.8908C99.8789 15.42 99.7312 16.0539 99.7312 16.7923C99.7312 17.5185 99.8789 18.1523 100.174 18.6939C100.47 19.2354 100.851 19.6539 101.319 19.9492C101.799 20.2323 102.31 20.3739 102.851 20.3739ZM112.85 21.7954C112.149 21.7954 111.527 21.6846 110.986 21.4631C110.456 21.2292 110.013 20.9215 109.656 20.54C109.312 20.1462 109.053 19.7215 108.881 19.2662L110.284 18.6385C110.53 19.2046 110.887 19.6415 111.355 19.9492C111.822 20.2569 112.358 20.4108 112.961 20.4108C113.539 20.4108 114.019 20.2939 114.401 20.06C114.795 19.8262 114.992 19.4815 114.992 19.0262C114.992 18.7431 114.912 18.5092 114.752 18.3246C114.592 18.1277 114.358 17.9615 114.05 17.8262C113.742 17.6908 113.367 17.5677 112.924 17.4569L111.779 17.1615C111.336 17.0385 110.918 16.8662 110.524 16.6446C110.13 16.4231 109.81 16.14 109.564 15.7954C109.33 15.4385 109.213 15.0077 109.213 14.5031C109.213 13.9369 109.379 13.4508 109.712 13.0446C110.044 12.6385 110.481 12.3308 111.022 12.1215C111.564 11.9 112.142 11.7892 112.758 11.7892C113.299 11.7892 113.804 11.8692 114.272 12.0292C114.752 12.1769 115.17 12.4046 115.527 12.7123C115.884 13.0077 116.155 13.3769 116.339 13.82L114.973 14.4477C114.739 13.98 114.426 13.6539 114.032 13.4692C113.638 13.2846 113.201 13.1923 112.721 13.1923C112.204 13.1923 111.755 13.3092 111.373 13.5431C110.992 13.7646 110.801 14.0723 110.801 14.4662C110.801 14.86 110.955 15.1554 111.262 15.3523C111.582 15.5492 111.97 15.7092 112.426 15.8323L113.792 16.1831C114.715 16.4169 115.41 16.7677 115.878 17.2354C116.346 17.6908 116.579 18.2508 116.579 18.9154C116.579 19.5062 116.413 20.0169 116.081 20.4477C115.749 20.8785 115.299 21.2108 114.733 21.4446C114.167 21.6785 113.539 21.7954 112.85 21.7954ZM124.679 21.7954C123.706 21.7954 122.795 21.6231 121.946 21.2785C121.109 20.9215 120.377 20.4292 119.749 19.8015C119.122 19.1739 118.629 18.4415 118.272 17.6046C117.928 16.7677 117.755 15.8631 117.755 14.8908C117.755 13.9185 117.928 13.0139 118.272 12.1769C118.629 11.34 119.122 10.6077 119.749 9.98001C120.377 9.35232 121.109 8.86616 121.946 8.52155C122.795 8.16462 123.706 7.98616 124.679 7.98616C125.38 7.98616 126.026 8.07232 126.617 8.24462C127.208 8.40462 127.749 8.64462 128.242 8.96462C128.746 9.28462 129.208 9.67847 129.626 10.1462L127.872 11.8446C127.614 11.5369 127.325 11.2723 127.005 11.0508C126.697 10.8292 126.352 10.6569 125.971 10.5339C125.589 10.4108 125.165 10.3492 124.697 10.3492C123.872 10.3492 123.122 10.54 122.445 10.9215C121.78 11.2908 121.251 11.8139 120.857 12.4908C120.463 13.1677 120.266 13.9677 120.266 14.8908C120.266 15.8015 120.463 16.6015 120.857 17.2908C121.251 17.9677 121.78 18.4969 122.445 18.8785C123.122 19.2477 123.872 19.4323 124.697 19.4323C125.435 19.4323 126.088 19.2785 126.654 18.9708C127.232 18.6631 127.743 18.2385 128.186 17.6969L129.959 19.3769C129.528 19.8939 129.042 20.3369 128.5 20.7062C127.959 21.0631 127.368 21.3339 126.728 21.5185C126.088 21.7031 125.405 21.7954 124.679 21.7954ZM131.659 21.5V8.28155H134.078V11.6231L133.93 13.2662H134.078C134.348 12.8354 134.736 12.4846 135.241 12.2139C135.758 11.9308 136.324 11.7892 136.939 11.7892C137.715 11.7892 138.367 11.9492 138.896 12.2692C139.425 12.5769 139.819 13.02 140.078 13.5985C140.348 14.1769 140.484 14.86 140.484 15.6477V21.5H138.065V15.9431C138.065 15.5246 137.985 15.18 137.825 14.9092C137.678 14.6262 137.468 14.4108 137.198 14.2631C136.939 14.1154 136.631 14.0415 136.275 14.0415C135.844 14.0415 135.462 14.1646 135.13 14.4108C134.798 14.6446 134.539 14.9646 134.355 15.3708C134.17 15.7769 134.078 16.2262 134.078 16.7185V21.5H131.659ZM145.443 21.7954C144.778 21.7954 144.187 21.6662 143.67 21.4077C143.166 21.1369 142.766 20.7615 142.47 20.2815C142.175 19.8015 142.027 19.2477 142.027 18.62C142.027 17.9677 142.193 17.4077 142.526 16.94C142.87 16.4723 143.326 16.1092 143.892 15.8508C144.47 15.5923 145.11 15.4631 145.812 15.4631C146.193 15.4631 146.538 15.4877 146.846 15.5369C147.166 15.5739 147.449 15.6231 147.695 15.6846C147.941 15.7462 148.144 15.8139 148.304 15.8877V15.4815C148.304 14.9769 148.113 14.5646 147.732 14.2446C147.35 13.9123 146.827 13.7462 146.163 13.7462C145.72 13.7462 145.289 13.8508 144.87 14.06C144.464 14.2569 144.126 14.5215 143.855 14.8539L142.304 13.6354C142.612 13.2415 142.969 12.9092 143.375 12.6385C143.781 12.3554 144.23 12.1462 144.723 12.0108C145.215 11.8631 145.732 11.7892 146.273 11.7892C147.713 11.7892 148.809 12.1215 149.56 12.7862C150.31 13.4508 150.686 14.4231 150.686 15.7031V21.5H148.304V20.54H148.157C147.984 20.7615 147.769 20.9708 147.51 21.1677C147.252 21.3523 146.95 21.5 146.606 21.6108C146.261 21.7339 145.873 21.7954 145.443 21.7954ZM146.015 19.9123C146.507 19.9123 146.92 19.8077 147.252 19.5985C147.597 19.3769 147.855 19.0939 148.027 18.7492C148.212 18.4046 148.304 18.0415 148.304 17.66C148.033 17.5246 147.726 17.42 147.381 17.3462C147.037 17.26 146.686 17.2169 146.329 17.2169C145.615 17.2169 145.123 17.3523 144.852 17.6231C144.581 17.8939 144.446 18.2262 144.446 18.62C144.446 18.9892 144.575 19.2969 144.833 19.5431C145.104 19.7892 145.498 19.9123 146.015 19.9123ZM151.718 14.1523V12.0846H153.454V14.1523H151.718ZM156.481 21.6477C155.509 21.6477 154.746 21.3708 154.192 20.8169C153.638 20.2508 153.361 19.4754 153.361 18.4908V9.42616H155.78V18.0477C155.78 18.5031 155.872 18.8415 156.057 19.0631C156.241 19.2723 156.543 19.3769 156.961 19.3769C157.158 19.3769 157.343 19.3523 157.515 19.3031C157.687 19.2415 157.903 19.1308 158.161 18.9708V21.3339C157.891 21.4323 157.614 21.5062 157.331 21.5554C157.06 21.6169 156.777 21.6477 156.481 21.6477ZM155.687 14.1523V12.0846H158.087V14.1523H155.687Z" fill="#13163F"/>
</svg>
