<svg width="160" height="30" viewBox="0 0 160 30" fill="none" xmlns="http://www.w3.org/2000/svg">
<path d="M6.7849 15.7979L11.0206 23.2089C11.6211 24.2595 12.7308 24.9067 13.9317 24.9067H22.4031C23.604 24.9067 24.7137 24.2595 25.3142 23.2089L29.5499 15.7979C30.1504 14.7473 30.1504 13.453 29.5499 12.4024L21.801 0L20.5431 2.46355C20.2828 2.97335 19.7625 3.29368 19.1946 3.29368H13.9317C12.7309 3.29368 11.6211 3.94086 11.0207 4.99145L6.78496 12.4024C6.18448 13.453 6.18448 14.7474 6.7849 15.7979Z" fill="#797B97"/>
<path d="M23.2153 17.5977L18.9796 25.0086C18.3791 26.0592 17.2695 26.7064 16.0685 26.7064H10.8057C10.2378 26.7064 9.71746 27.0267 9.45716 27.5365L8.19932 30.0001L0.450353 17.5977C-0.150118 16.5471 -0.150118 15.2527 0.450353 14.2022L4.68608 6.79116C5.28655 5.74056 6.39621 5.09338 7.59715 5.09338H16.0685C17.2694 5.09338 18.3791 5.74056 18.9796 6.79116L23.2153 14.2022C23.8158 15.2527 23.8158 16.5471 23.2153 17.5977Z" fill="#797B97"/>
<path fill-rule="evenodd" clip-rule="evenodd" d="M16.0689 5.09314C17.2697 5.09325 18.3796 5.74088 18.98 6.79138L23.2154 14.2025C23.8156 15.253 23.8157 16.5475 23.2154 17.598L19.0376 24.9066H13.9322C12.7314 24.9066 11.6216 24.2597 11.021 23.2094L6.78471 15.7982C6.18435 14.7478 6.18444 13.4532 6.78471 12.4027L10.9634 5.09314H16.0689Z" fill="black" fill-opacity="0.2"/>
<path d="M7.33376 19.6417C6.33432 18.515 5.80281 17.0492 5.84781 15.5438C5.89281 14.0384 6.51094 12.607 7.57589 11.5421C8.64084 10.4771 10.0722 9.85901 11.5776 9.81401C13.083 9.76901 14.5488 10.3005 15.6755 11.3L7.33376 19.6417ZM7.93066 20.2386C9.05733 21.238 10.5231 21.7695 12.0285 21.7245C13.5339 21.6795 14.9653 21.0614 16.0303 19.9965C17.0952 18.9315 17.7133 17.5001 17.7583 15.9947C17.8033 14.4893 17.2718 13.0235 16.2724 11.8969L7.93066 20.2386Z" fill="#F0F5FA"/>
<path d="M40.271 21.5001V9.22314H41.8402V21.5001H40.271ZM36.5602 9.77699V8.2816H45.5325V9.77699H36.5602ZM45.804 21.5001V12.0847H47.2993V13.5985H47.3732C47.4963 13.2416 47.6993 12.9339 47.9824 12.6754C48.2778 12.4047 48.6101 12.1954 48.9793 12.0478C49.3609 11.8878 49.7363 11.8078 50.1055 11.8078C50.3886 11.8078 50.6101 11.8262 50.7701 11.8631C50.9301 11.8878 51.0778 11.9308 51.2132 11.9924V13.6908C51.0163 13.5924 50.8009 13.5185 50.567 13.4693C50.3455 13.4201 50.1178 13.3954 49.884 13.3954C49.4286 13.3954 49.0101 13.5247 48.6286 13.7831C48.247 14.0416 47.9393 14.3862 47.7055 14.817C47.484 15.2478 47.3732 15.7216 47.3732 16.2385V21.5001H45.804ZM55.8677 21.7954C54.7107 21.7954 53.8369 21.457 53.2461 20.7801C52.6677 20.1031 52.3784 19.1801 52.3784 18.0108V12.0847H53.9477V17.7708C53.9477 18.7062 54.163 19.377 54.5938 19.7831C55.0246 20.177 55.56 20.3739 56.2 20.3739C56.7538 20.3739 57.2338 20.2324 57.64 19.9493C58.0461 19.6539 58.36 19.2785 58.5815 18.8231C58.803 18.3678 58.9138 17.8939 58.9138 17.4016V12.0847H60.483V21.5001H58.9877V20.1339H58.9138C58.7538 20.4293 58.5138 20.7062 58.1938 20.9647C57.8861 21.2108 57.5292 21.4078 57.123 21.5554C56.7292 21.7154 56.3107 21.7954 55.8677 21.7954ZM66.7709 21.7954C65.8601 21.7954 65.0478 21.5801 64.334 21.1493C63.6325 20.7185 63.0786 20.1278 62.6725 19.377C62.2786 18.6262 62.0817 17.7708 62.0817 16.8108C62.0817 15.9124 62.2663 15.0816 62.6355 14.3185C63.0171 13.5554 63.5463 12.9462 64.2232 12.4908C64.9125 12.0231 65.7186 11.7893 66.6417 11.7893C67.5771 11.7893 68.3771 11.9985 69.0417 12.417C69.7186 12.8231 70.2355 13.3893 70.5925 14.1154C70.9617 14.8416 71.1463 15.6724 71.1463 16.6078C71.1463 16.6939 71.1401 16.7801 71.1278 16.8662C71.1278 16.9524 71.1217 17.0262 71.1094 17.0878H63.0048V15.7954H69.4848C69.4725 15.537 69.4109 15.2601 69.3001 14.9647C69.2017 14.657 69.0355 14.3739 68.8017 14.1154C68.5801 13.8447 68.2909 13.6293 67.934 13.4693C67.5894 13.297 67.1586 13.2108 66.6417 13.2108C66.0263 13.2108 65.4909 13.3708 65.0355 13.6908C64.5925 13.9985 64.2478 14.4231 64.0017 14.9647C63.7678 15.5062 63.6509 16.1216 63.6509 16.8108C63.6509 17.6108 63.8048 18.2754 64.1125 18.8047C64.4201 19.3339 64.814 19.7278 65.294 19.9862C65.7863 20.2447 66.2971 20.3739 66.8263 20.3739C67.5155 20.3739 68.0817 20.2139 68.5248 19.8939C68.9801 19.5616 69.3432 19.1554 69.614 18.6754L70.9432 19.3216C70.574 20.0354 70.0448 20.6262 69.3555 21.0939C68.6663 21.5616 67.8048 21.7954 66.7709 21.7954ZM73.0579 21.5001V8.2816H75.3287L79.5379 19.1185H79.6118L83.821 8.2816H86.0918V21.5001H84.541V13.1001L84.6149 10.5893H84.541L80.221 21.5001H78.9287L74.6087 10.5893H74.5349L74.6087 13.1001V21.5001H73.0579ZM92.7058 21.7954C91.795 21.7954 90.9827 21.5801 90.2688 21.1493C89.5673 20.7185 89.0135 20.1278 88.6073 19.377C88.2135 18.6262 88.0165 17.7708 88.0165 16.8108C88.0165 15.9124 88.2012 15.0816 88.5704 14.3185C88.9519 13.5554 89.4812 12.9462 90.1581 12.4908C90.8473 12.0231 91.6535 11.7893 92.5765 11.7893C93.5119 11.7893 94.3119 11.9985 94.9765 12.417C95.6535 12.8231 96.1704 13.3893 96.5273 14.1154C96.8965 14.8416 97.0812 15.6724 97.0812 16.6078C97.0812 16.6939 97.075 16.7801 97.0627 16.8662C97.0627 16.9524 97.0565 17.0262 97.0442 17.0878H88.9396V15.7954H95.4196C95.4073 15.537 95.3458 15.2601 95.235 14.9647C95.1365 14.657 94.9704 14.3739 94.7365 14.1154C94.515 13.8447 94.2258 13.6293 93.8688 13.4693C93.5242 13.297 93.0935 13.2108 92.5765 13.2108C91.9612 13.2108 91.4258 13.3708 90.9704 13.6908C90.5273 13.9985 90.1827 14.4231 89.9365 14.9647C89.7027 15.5062 89.5858 16.1216 89.5858 16.8108C89.5858 17.6108 89.7396 18.2754 90.0473 18.8047C90.355 19.3339 90.7488 19.7278 91.2288 19.9862C91.7212 20.2447 92.2319 20.3739 92.7612 20.3739C93.4504 20.3739 94.0165 20.2139 94.4596 19.8939C94.915 19.5616 95.2781 19.1554 95.5488 18.6754L96.8781 19.3216C96.5088 20.0354 95.9796 20.6262 95.2904 21.0939C94.6012 21.5616 93.7396 21.7954 92.7058 21.7954ZM102.685 21.7954C101.836 21.7954 101.067 21.5801 100.377 21.1493C99.7005 20.7185 99.1651 20.1278 98.7712 19.377C98.3774 18.6262 98.1805 17.7647 98.1805 16.7924C98.1805 15.8201 98.3774 14.9585 98.7712 14.2078C99.1651 13.457 99.7005 12.8662 100.377 12.4354C101.067 12.0047 101.836 11.7893 102.685 11.7893C103.19 11.7893 103.651 11.8693 104.07 12.0293C104.488 12.1893 104.851 12.3985 105.159 12.657C105.479 12.9154 105.725 13.1924 105.897 13.4878H105.971L105.897 12.177V8.2816H107.467V21.5001H105.971V20.1154H105.897C105.725 20.3985 105.479 20.6693 105.159 20.9278C104.851 21.1862 104.488 21.3954 104.07 21.5554C103.651 21.7154 103.19 21.7954 102.685 21.7954ZM102.851 20.3739C103.393 20.3739 103.897 20.2324 104.365 19.9493C104.845 19.6539 105.233 19.2416 105.528 18.7124C105.824 18.1708 105.971 17.5308 105.971 16.7924C105.971 16.0539 105.824 15.4201 105.528 14.8908C105.233 14.3493 104.845 13.937 104.365 13.6539C103.897 13.3585 103.393 13.2108 102.851 13.2108C102.31 13.2108 101.799 13.3585 101.319 13.6539C100.851 13.937 100.47 14.3493 100.174 14.8908C99.8789 15.4201 99.7312 16.0539 99.7312 16.7924C99.7312 17.5185 99.8789 18.1524 100.174 18.6939C100.47 19.2354 100.851 19.6539 101.319 19.9493C101.799 20.2324 102.31 20.3739 102.851 20.3739ZM112.85 21.7954C112.149 21.7954 111.527 21.6847 110.986 21.4631C110.456 21.2293 110.013 20.9216 109.656 20.5401C109.312 20.1462 109.053 19.7216 108.881 19.2662L110.284 18.6385C110.53 19.2047 110.887 19.6416 111.355 19.9493C111.822 20.257 112.358 20.4108 112.961 20.4108C113.539 20.4108 114.019 20.2939 114.401 20.0601C114.795 19.8262 114.992 19.4816 114.992 19.0262C114.992 18.7431 114.912 18.5093 114.752 18.3247C114.592 18.1278 114.358 17.9616 114.05 17.8262C113.742 17.6908 113.367 17.5678 112.924 17.457L111.779 17.1616C111.336 17.0385 110.918 16.8662 110.524 16.6447C110.13 16.4231 109.81 16.1401 109.564 15.7954C109.33 15.4385 109.213 15.0078 109.213 14.5031C109.213 13.937 109.379 13.4508 109.712 13.0447C110.044 12.6385 110.481 12.3308 111.022 12.1216C111.564 11.9001 112.142 11.7893 112.758 11.7893C113.299 11.7893 113.804 11.8693 114.272 12.0293C114.752 12.177 115.17 12.4047 115.527 12.7124C115.884 13.0078 116.155 13.377 116.339 13.8201L114.973 14.4478C114.739 13.9801 114.426 13.6539 114.032 13.4693C113.638 13.2847 113.201 13.1924 112.721 13.1924C112.204 13.1924 111.755 13.3093 111.373 13.5431C110.992 13.7647 110.801 14.0724 110.801 14.4662C110.801 14.8601 110.955 15.1554 111.262 15.3524C111.582 15.5493 111.97 15.7093 112.426 15.8324L113.792 16.1831C114.715 16.417 115.41 16.7678 115.878 17.2354C116.346 17.6908 116.579 18.2508 116.579 18.9154C116.579 19.5062 116.413 20.017 116.081 20.4478C115.749 20.8785 115.299 21.2108 114.733 21.4447C114.167 21.6785 113.539 21.7954 112.85 21.7954ZM124.679 21.7954C123.706 21.7954 122.795 21.6231 121.946 21.2785C121.109 20.9216 120.377 20.4293 119.749 19.8016C119.122 19.1739 118.629 18.4416 118.272 17.6047C117.928 16.7678 117.755 15.8631 117.755 14.8908C117.755 13.9185 117.928 13.0139 118.272 12.177C118.629 11.3401 119.122 10.6078 119.749 9.98006C120.377 9.35237 121.109 8.86622 121.946 8.5216C122.795 8.16468 123.706 7.98622 124.679 7.98622C125.38 7.98622 126.026 8.07237 126.617 8.24468C127.208 8.40468 127.749 8.64468 128.242 8.96468C128.746 9.28468 129.208 9.67853 129.626 10.1462L127.872 11.8447C127.614 11.537 127.325 11.2724 127.005 11.0508C126.697 10.8293 126.352 10.657 125.971 10.5339C125.589 10.4108 125.165 10.3493 124.697 10.3493C123.872 10.3493 123.122 10.5401 122.445 10.9216C121.78 11.2908 121.251 11.8139 120.857 12.4908C120.463 13.1678 120.266 13.9678 120.266 14.8908C120.266 15.8016 120.463 16.6016 120.857 17.2908C121.251 17.9678 121.78 18.497 122.445 18.8785C123.122 19.2478 123.872 19.4324 124.697 19.4324C125.435 19.4324 126.088 19.2785 126.654 18.9708C127.232 18.6631 127.743 18.2385 128.186 17.697L129.959 19.377C129.528 19.8939 129.042 20.337 128.5 20.7062C127.959 21.0631 127.368 21.3339 126.728 21.5185C126.088 21.7031 125.405 21.7954 124.679 21.7954ZM131.659 21.5001V8.2816H134.078V11.6231L133.93 13.2662H134.078C134.348 12.8354 134.736 12.4847 135.241 12.2139C135.758 11.9308 136.324 11.7893 136.939 11.7893C137.715 11.7893 138.367 11.9493 138.896 12.2693C139.425 12.577 139.819 13.0201 140.078 13.5985C140.348 14.177 140.484 14.8601 140.484 15.6478V21.5001H138.065V15.9431C138.065 15.5247 137.985 15.1801 137.825 14.9093C137.678 14.6262 137.468 14.4108 137.198 14.2631C136.939 14.1154 136.631 14.0416 136.275 14.0416C135.844 14.0416 135.462 14.1647 135.13 14.4108C134.798 14.6447 134.539 14.9647 134.355 15.3708C134.17 15.777 134.078 16.2262 134.078 16.7185V21.5001H131.659ZM145.443 21.7954C144.778 21.7954 144.187 21.6662 143.67 21.4078C143.166 21.137 142.766 20.7616 142.47 20.2816C142.175 19.8016 142.027 19.2478 142.027 18.6201C142.027 17.9678 142.193 17.4078 142.526 16.9401C142.87 16.4724 143.326 16.1093 143.892 15.8508C144.47 15.5924 145.11 15.4631 145.812 15.4631C146.193 15.4631 146.538 15.4878 146.846 15.537C147.166 15.5739 147.449 15.6231 147.695 15.6847C147.941 15.7462 148.144 15.8139 148.304 15.8878V15.4816C148.304 14.977 148.113 14.5647 147.732 14.2447C147.35 13.9124 146.827 13.7462 146.163 13.7462C145.72 13.7462 145.289 13.8508 144.87 14.0601C144.464 14.257 144.126 14.5216 143.855 14.8539L142.304 13.6354C142.612 13.2416 142.969 12.9093 143.375 12.6385C143.781 12.3554 144.23 12.1462 144.723 12.0108C145.215 11.8631 145.732 11.7893 146.273 11.7893C147.713 11.7893 148.809 12.1216 149.56 12.7862C150.31 13.4508 150.686 14.4231 150.686 15.7031V21.5001H148.304V20.5401H148.157C147.984 20.7616 147.769 20.9708 147.51 21.1678C147.252 21.3524 146.95 21.5001 146.606 21.6108C146.261 21.7339 145.873 21.7954 145.443 21.7954ZM146.015 19.9124C146.507 19.9124 146.92 19.8078 147.252 19.5985C147.597 19.377 147.855 19.0939 148.027 18.7493C148.212 18.4047 148.304 18.0416 148.304 17.6601C148.033 17.5247 147.726 17.4201 147.381 17.3462C147.037 17.2601 146.686 17.217 146.329 17.217C145.615 17.217 145.123 17.3524 144.852 17.6231C144.581 17.8939 144.446 18.2262 144.446 18.6201C144.446 18.9893 144.575 19.297 144.833 19.5431C145.104 19.7893 145.498 19.9124 146.015 19.9124ZM151.718 14.1524V12.0847H153.454V14.1524H151.718ZM156.481 21.6478C155.509 21.6478 154.746 21.3708 154.192 20.817C153.638 20.2508 153.361 19.4754 153.361 18.4908V9.42622H155.78V18.0478C155.78 18.5031 155.872 18.8416 156.057 19.0631C156.241 19.2724 156.543 19.377 156.961 19.377C157.158 19.377 157.343 19.3524 157.515 19.3031C157.687 19.2416 157.903 19.1308 158.161 18.9708V21.3339C157.891 21.4324 157.614 21.5062 157.331 21.5554C157.06 21.617 156.777 21.6478 156.481 21.6478ZM155.687 14.1524V12.0847H158.087V14.1524H155.687Z" fill="#797B97"/>
</svg>
