<svg width="71" height="50" viewBox="0 0 71 50" fill="none" xmlns="http://www.w3.org/2000/svg">
<g clip-path="url(#clip0_8714_7596)">
<path d="M44.0486 30.66C43.0086 30.93 41.6586 31.06 40.4886 31.06C37.4886 31.06 35.4886 29.46 35.4886 26.53C35.4886 23.76 37.3386 21.96 40.0586 21.96C40.6586 21.96 41.3086 22.04 41.6986 22.24V18.2H44.0486V30.65V30.66ZM41.6986 24.31C41.2447 24.1129 40.7532 24.0174 40.2586 24.03C38.8286 24.03 37.8686 24.91 37.8686 26.46C37.8686 28.12 38.9086 29.06 40.5686 29.06C40.8686 29.06 41.3086 29.03 41.6986 28.96V24.3V24.31ZM63.2786 30.66C62.2386 30.93 60.8986 31.06 59.7186 31.06C56.7186 31.06 54.7186 29.46 54.7186 26.53C54.7186 23.76 56.5786 21.96 59.2886 21.96C59.8986 21.96 60.5386 22.04 60.9386 22.24V18.2H63.2786V30.65V30.66ZM60.9386 24.31C60.4816 24.1115 59.9866 24.0159 59.4886 24.03C58.0586 24.03 57.1086 24.91 57.1086 26.46C57.1086 28.12 58.1386 29.06 59.8086 29.06C60.0986 29.06 60.5486 29.03 60.9386 28.96V24.3V24.31ZM47.7386 24.29C48.1186 24.13 48.6686 24.07 49.1386 24.07C50.5786 24.07 51.5786 24.91 51.5786 26.42C51.5786 28.19 50.4786 28.99 48.9986 29.02V31.06H49.1186C52.1486 31.06 53.9586 29.36 53.9586 26.34C53.9586 23.58 52.0286 21.96 49.1786 21.96C47.7286 21.96 46.3086 22.3 45.3686 22.69V34.3899H47.7286V24.29H47.7386Z" fill="#3C3C3B"/>
<path d="M22.7586 23.7101C22.7063 23.7381 22.6479 23.7527 22.5886 23.7527C22.5292 23.7527 22.4708 23.7381 22.4186 23.7101L21.8686 23.3701C21.8198 23.3399 21.7787 23.2988 21.7486 23.2501V23.2401C21.7133 23.1863 21.6926 23.1243 21.6886 23.0601L21.6686 22.4101C21.6695 22.3498 21.6856 22.2908 21.7153 22.2384C21.745 22.186 21.7874 22.1418 21.8386 22.1101L28.5386 18.2101L19.1386 13.0901C19.0201 13.0326 18.8902 13.0027 18.7586 13.0027C18.6269 13.0027 18.497 13.0326 18.3786 13.0901L8.97856 18.2001L19.5086 24.3301C19.5597 24.3618 19.6021 24.406 19.6318 24.4584C19.6615 24.5108 19.6776 24.5698 19.6786 24.6301V33.5701C19.6776 33.6303 19.6615 33.6893 19.6318 33.7417C19.6021 33.7942 19.5597 33.8383 19.5086 33.8701L18.9386 34.1701C18.8868 34.2003 18.8284 34.2174 18.7686 34.2201H18.7586C18.6961 34.2221 18.6342 34.2084 18.5786 34.1801L18.0086 33.8601C17.9555 33.8295 17.9112 33.7859 17.8797 33.7334C17.8482 33.6809 17.8306 33.6212 17.8286 33.5601V25.6001C17.8248 25.5676 17.8139 25.5365 17.7966 25.5088C17.7793 25.4811 17.756 25.4576 17.7286 25.4401L8.45856 20.0501V30.6301C8.45856 30.8601 8.62856 31.1601 8.82856 31.2801L18.3886 36.9101C18.5033 36.9681 18.63 36.9983 18.7586 36.9983C18.8871 36.9983 19.0138 36.9681 19.1286 36.9101L28.6886 31.2801C28.8886 31.1501 29.0586 30.8601 29.0586 30.6301V20.0501L22.7586 23.7101Z" fill="url(#paint0_linear_8714_7596)"/>
</g>
<defs>
<linearGradient id="paint0_linear_8714_7596" x1="8.55856" y1="33.3701" x2="18.9886" y2="24.6201" gradientUnits="userSpaceOnUse">
<stop stop-color="#BE0737"/>
<stop offset="0.04" stop-color="#C00736"/>
<stop offset="0.63" stop-color="#D8062C"/>
<stop offset="1" stop-color="#E10528"/>
</linearGradient>
<clipPath id="clip0_8714_7596">
<rect width="56" height="24" fill="white" transform="translate(7.45856 13)"/>
</clipPath>
</defs>
</svg>
