<svg width="70" height="50" viewBox="0 0 70 50" fill="none" xmlns="http://www.w3.org/2000/svg">
<path d="M58.9293 33.9217C60.5697 33.9217 61.8996 32.5963 61.8996 30.9613C61.8996 29.3263 60.5697 28.001 58.9293 28.001C57.289 28.001 55.9593 29.3263 55.9593 30.9613C55.9593 32.5963 57.289 33.9217 58.9293 33.9217Z" fill="#FFD100"/>
<path d="M16.6014 24.3846V28.2579H19.8345C19.3621 28.9968 18.297 29.3904 17.5749 29.3904C15.1413 29.3904 13.9245 28.0079 13.9245 25.2179C13.9245 22.137 15.5305 20.5605 18.7188 20.5605C19.9843 20.5605 21.6396 20.8756 23.4159 21.4339V16.8007C22.9044 16.5825 22.126 16.4128 21.1281 16.2425C20.1059 16.0727 19.2052 16 18.4263 16C15.2622 16 12.7556 16.8492 10.882 18.5469C9.00782 20.2453 8.05856 22.5255 8.05856 25.4124C8.05856 28.0563 8.78894 30.1426 10.249 31.6713C11.7091 33.2235 13.6806 34 16.1629 34C18.6554 34 20.9457 32.7106 21.6837 31.0735L21.6678 33.7085H25.2734V24.3846H16.6014Z" fill="#061AB1"/>
<path d="M27.0734 33.7085V16.291H32.6711V29.1723H38.7796V33.7085H27.0734Z" fill="#061AB1"/>
<path d="M40.8222 33.272V28.5176C41.6498 28.7843 42.6234 29.0025 43.7186 29.1971C44.8138 29.391 45.7631 29.4881 46.5664 29.4881C47.9292 29.4881 48.6352 29.1486 48.6352 28.5419C48.6352 28.154 48.4163 27.9594 47.4184 27.7412L45.4712 27.3048C42.1369 26.5526 40.5796 24.8791 40.5796 22.0406C40.5796 20.1725 41.2369 18.693 42.5268 17.6014C43.8153 16.5334 45.6165 16 47.8799 16C49.4373 16 51.8229 16.3152 53.283 16.6795V21.2157C52.5283 21.0217 51.6283 20.8278 50.5331 20.6574C49.4379 20.4877 48.5859 20.415 47.9535 20.415C46.761 20.415 46.0793 20.7544 46.0793 21.3611C46.0793 21.7248 46.3955 21.9679 47.0529 22.1376L49.3163 22.671C52.6263 23.4474 54.1593 25.1451 54.1593 28.0321C54.1593 29.876 53.4776 31.3312 52.1391 32.3986C50.8007 33.466 48.9508 33.9993 46.5901 33.9993C44.351 33.9993 42.0876 33.6842 40.8222 33.272Z" fill="#061AB1"/>
</svg>
