<svg style="display: none;" aria-hidden="true" xmlns="http://www.w3.org/2000/svg" xmlns:xlink="http://www.w3.org/1999/xlink"><symbol fill="currentColor" viewBox="0 0 20 20" id="svg-arr-next"><g clip-path="url(#aa)"><path d="M19.267 8.258 16.04 5a.833.833 0 0 0-1.183 0 .833.833 0 0 0 0 1.183l2.967 2.984H.833a.833.833 0 0 0 0 1.666h17.042l-3.017 3.017a.834.834 0 0 0 0 1.15.834.834 0 0 0 1.183 0l3.226-3.208a2.5 2.5 0 0 0 0-3.534Z"/></g><defs><clipPath id="aa"><path d="M0 0h20v20H0z" transform="rotate(-180 10 10)"/></clipPath></defs></symbol><symbol fill="currentColor" viewBox="0 0 20 20" id="svg-arr-prev"><g clip-path="url(#ba)"><path d="M.733 11.742 3.958 15a.833.833 0 0 0 1.184 0 .833.833 0 0 0 0-1.183l-2.967-2.984h16.992a.833.833 0 1 0 0-1.666H2.125L5.142 6.15a.833.833 0 0 0 0-1.15.833.833 0 0 0-1.184 0L.733 8.208a2.5 2.5 0 0 0 0 3.534Z"/></g><defs><clipPath id="ba"><path d="M0 0h20v20H0z"/></clipPath></defs></symbol><symbol fill="none" viewBox="0 0 35 35" id="svg-c-01"><path fill="#477215" d="M22.119 12.129a1.125 1.125 0 0 0-.38-1.535 1.1 1.1 0 0 0-1.517.384l-7.546 12.717a1.125 1.125 0 0 0 .38 1.534 1.1 1.1 0 0 0 1.517-.383l7.546-12.717Z"/><path fill="#477215" fill-rule="evenodd" d="M10.1 13.418c0-1.647 1.32-2.982 2.95-2.982 1.629 0 2.95 1.335 2.95 2.982v.746c0 1.647-1.321 2.982-2.95 2.982-1.63 0-2.95-1.335-2.95-2.982v-.746Zm3.938 0v.746a.994.994 0 0 1-.988.999.993.993 0 0 1-.988-1v-.745c0-.552.442-.999.988-.999.545 0 .988.447.988 1Zm7.86 5.219c-1.629 0-2.95 1.335-2.95 2.982v.746c0 1.647 1.321 2.982 2.95 2.982 1.629 0 2.95-1.335 2.95-2.982v-.746c0-1.647-1.321-2.982-2.95-2.982Zm.988 3.728v-.746a.993.993 0 0 0-.988-.999.994.994 0 0 0-.988 1v.745c0 .551.442.999.988.999a.994.994 0 0 0 .988-1Z" clip-rule="evenodd"/><path fill="#477215" fill-rule="evenodd" d="M20.979 1.492a4.8 4.8 0 0 0-6.957 0l-1.123 1.174a1.876 1.876 0 0 1-1.554.572l-1.606-.17C7.018 2.78 4.602 4.83 4.41 7.59l-.113 1.628a1.913 1.913 0 0 1-.827 1.449l-1.338.913C-.137 13.128-.684 16.268.923 18.507l.95 1.321c.34.476.446 1.083.286 1.648l-.444 1.569c-.754 2.66.823 5.422 3.478 6.092l1.567.395c.563.142 1.03.539 1.267 1.075l.657 1.491c1.114 2.528 4.078 3.619 6.538 2.406l1.451-.715a1.87 1.87 0 0 1 1.654 0l1.451.715c2.46 1.213 5.424.122 6.538-2.406l.657-1.49a1.893 1.893 0 0 1 1.267-1.076l1.567-.395c2.655-.67 4.232-3.432 3.478-6.092l-.444-1.57a1.926 1.926 0 0 1 .287-1.647l.949-1.32c1.607-2.24 1.06-5.38-1.209-6.928l-1.338-.913a1.913 1.913 0 0 1-.827-1.449L30.59 7.59c-.192-2.76-2.608-4.81-5.33-4.522l-1.605.17a1.876 1.876 0 0 1-1.555-.572l-1.122-1.174Zm-4.837 2.073a1.873 1.873 0 0 1 2.716 0l1.121 1.174a4.807 4.807 0 0 0 3.983 1.465l1.606-.17a1.894 1.894 0 0 1 2.08 1.765l.113 1.628a4.902 4.902 0 0 0 2.12 3.712l1.337.913a1.922 1.922 0 0 1 .472 2.703l-.949 1.321a4.935 4.935 0 0 0-.736 4.22l.445 1.57a1.91 1.91 0 0 1-1.358 2.377l-1.566.396a4.851 4.851 0 0 0-3.247 2.755l-.657 1.49a1.88 1.88 0 0 1-2.551.94l-1.452-.716a4.79 4.79 0 0 0-4.238 0l-1.452.716a1.88 1.88 0 0 1-2.55-.94l-.658-1.49a4.851 4.851 0 0 0-3.247-2.755l-1.566-.396a1.91 1.91 0 0 1-1.358-2.377l.445-1.57a4.935 4.935 0 0 0-.736-4.22l-.949-1.32a1.922 1.922 0 0 1 .472-2.704l1.338-.913a4.902 4.902 0 0 0 2.12-3.712L7.351 7.8a1.894 1.894 0 0 1 2.08-1.765l1.606.17A4.807 4.807 0 0 0 15.02 4.74l1.121-1.174Z" clip-rule="evenodd"/></symbol><symbol fill="none" viewBox="0 0 35 36" id="svg-c-02"><path fill="#477215" d="M16.967 2.058a3.577 3.577 0 0 1 1.283 0c.43.077.778.2 1.474.517l11.162 5.073c.685.312 1.03.525 1.372.858.336.329.586.716.745 1.159.162.449.214.85.214 1.604v13.463c0 .752-.052 1.154-.214 1.603-.16.443-.409.83-.745 1.159-.342.333-.687.546-1.372.858l-11.407 5.183c-.54.237-.853.34-1.229.407a3.573 3.573 0 0 1-1.283 0c-.43-.077-.778-.2-1.475-.517l-11.16-5.073c-.686-.312-1.03-.525-1.373-.858a3.04 3.04 0 0 1-.745-1.159c-.162-.449-.214-.85-.214-1.604l.003-13.73c.012-.586.069-.943.21-1.336.16-.443.41-.83.746-1.159.342-.333.687-.546 1.372-.858l11.407-5.183c.54-.237.853-.34 1.229-.407ZM4.6 11.565l.001 13.308c.002.261.012.391.031.484l.028.096a.44.44 0 0 0 .114.178c.092.09.198.155.633.352l10.9 4.955V16.87a3.53 3.53 0 0 1-.055-.02l-.26-.106L4.6 11.565Zm26.015 0-11.393 5.179a3.933 3.933 0 0 1-.312.126l-.002 14.068 10.9-4.954c.28-.128.423-.2.515-.26l.041-.028.077-.065a.44.44 0 0 0 .114-.178c.044-.12.06-.244.06-.721V11.564Zm-20.16-3.844L6.443 9.545l10.627 4.83a1.3 1.3 0 0 0 .927.058l.15-.057 3.472-1.579-11.164-5.075Zm7.336-3.104a.978.978 0 0 0-.364 0c-.177.032-.341.09-.858.325l-2.972 1.35 11.165 5.075 4.01-1.823-10.124-4.602a6.557 6.557 0 0 0-.671-.278l-.067-.02-.12-.026Z"/></symbol><symbol fill="none" viewBox="0 0 35 36" id="svg-c-03"><path fill="#477215" d="M17 4c2.108 0 4.117.436 5.939 1.222l.41.184a14.963 14.963 0 0 1 4.258 2.987A14.957 14.957 0 0 1 32 19c0 .531-.028 1.057-.082 1.574a1.25 1.25 0 0 1-2.486-.26c.045-.43.068-.87.068-1.314a12.46 12.46 0 0 0-3.661-8.839 12.556 12.556 0 0 0-3.89-2.644l-.006-.002A12.456 12.456 0 0 0 17 6.5a12.449 12.449 0 0 0-5.874 1.463l-.083.045A12.547 12.547 0 0 0 8.16 10.16 12.457 12.457 0 0 0 4.5 19c0 2.517.743 4.857 2.02 6.817a1.25 1.25 0 0 1-2.093 1.366A14.936 14.936 0 0 1 2 19 14.96 14.96 0 0 1 6.393 8.393 15.047 15.047 0 0 1 11.07 5.22l.007-.003A14.954 14.954 0 0 1 17 4Z"/><path fill="#477215" fill-rule="evenodd" d="m19.596 16.25 11.131 9.058c1.25 1.018.106 3-1.4 2.426l-13.412-5.11a3.784 3.784 0 0 1-.398-.18 3.75 3.75 0 1 1 3.723-6.452c.122.078.24.164.356.257Zm-1.971 1.668a1.25 1.25 0 1 0-1.25 2.165 1.25 1.25 0 0 0 1.25-2.165Z" clip-rule="evenodd"/></symbol><symbol fill="currentColor" viewBox="0 0 16 16" id="svg-close"><path d="M15.59 2.39A1.4 1.4 0 1 0 13.61.41L8 6.02 2.39.41A1.4 1.4 0 1 0 .41 2.39L6.02 8 .41 13.61a1.4 1.4 0 0 0 1.98 1.98L8 9.98l5.61 5.61a1.4 1.4 0 1 0 1.98-1.98L9.98 8l5.61-5.61Z"/></symbol></svg>