<svg width="40" height="40" viewBox="0 0 40 40" fill="none" xmlns="http://www.w3.org/2000/svg">
<g clip-path="url(#clip0_233_33)">
<path d="M39.7131 15.5627L35.4092 12.0441V5.51697C35.4092 4.198 34.3362 3.125 33.017 3.125H26.7188C26.2872 3.125 25.9375 3.47473 25.9375 3.90625C25.9375 4.33777 26.2872 4.6875 26.7188 4.6875H33.017C33.4744 4.6875 33.8467 5.05981 33.8467 5.51697V19.3835L23.5938 27.179L13.3408 19.3835V12.4179C13.3408 12.4179 13.3408 12.4176 13.3408 12.4173V5.51697C13.3408 5.05981 13.7131 4.6875 14.1705 4.6875H20.4688C20.9003 4.6875 21.25 4.33777 21.25 3.90625C21.25 3.47473 20.9003 3.125 20.4688 3.125H14.1705C12.8513 3.125 11.7783 4.198 11.7783 5.51697V12.0441L7.47437 15.5627C7.29279 15.7111 7.1875 15.9332 7.1875 16.1676V24.841H3.67188C3.24036 24.841 2.89062 25.1907 2.89062 25.6223C2.89062 26.0535 3.24036 26.4035 3.67188 26.4035H7.1875V34.483C7.1875 35.802 8.2605 36.875 9.57947 36.875H37.608C38.927 36.875 40 35.802 40 34.483V16.1676C40 15.9332 39.8947 15.7111 39.7131 15.5627ZM38.4375 34.1278L29.1937 24.884L38.4375 17.8561V34.1278ZM35.4092 14.0622L38.0289 16.2039L35.4092 18.1955V14.0622ZM23.5938 28.9417C23.7604 28.9417 23.927 28.8885 24.0668 28.7823L27.9385 25.8386L37.4124 35.3125H9.77509L19.249 25.8386L23.121 28.7823C23.2605 28.8885 23.4271 28.9417 23.5938 28.9417ZM8.75 17.8561L17.9938 24.884L8.75 34.1278V17.8561ZM11.7783 18.1955L9.15863 16.2039L11.7783 14.0622V18.1955Z" fill="#477215"/>
<path d="M5 29.841H0.78125C0.349731 29.841 0 30.1907 0 30.6223C0 31.0535 0.349731 31.4035 0.78125 31.4035H5C5.43152 31.4035 5.78125 31.0535 5.78125 30.6223C5.78125 30.1907 5.43152 29.841 5 29.841Z" fill="#477215"/>
<path d="M23.5938 4.6875C23.7991 4.6875 24.0009 4.60388 24.1461 4.45862C24.2914 4.31335 24.375 4.11163 24.375 3.90625C24.375 3.70087 24.2914 3.49915 24.1461 3.35388C24.0009 3.20862 23.7991 3.125 23.5938 3.125C23.3884 3.125 23.1866 3.20862 23.0414 3.35388C22.8961 3.49915 22.8125 3.70087 22.8125 3.90625C22.8125 4.11163 22.8961 4.31335 23.0414 4.45862C23.1866 4.60388 23.3884 4.6875 23.5938 4.6875Z" fill="#477215"/>
<path d="M17.2552 14.4525C17.2552 17.9477 20.0986 20.7913 23.5938 20.7913C27.0889 20.7913 29.9323 17.9477 29.9323 14.4525C29.9323 10.9573 27.0889 8.11401 23.5938 8.11401C20.0986 8.11401 17.2552 10.9573 17.2552 14.4525ZM28.3698 14.4525C28.3698 17.0862 26.2274 19.2288 23.5938 19.2288C20.9601 19.2288 18.8177 17.0862 18.8177 14.4525C18.8177 11.8188 20.9601 9.67651 23.5938 9.67651C26.2274 9.67651 28.3698 11.8192 28.3698 14.4525Z" fill="#477215"/>
<path d="M22.3767 13.7311C22.0715 13.4259 21.5771 13.4259 21.272 13.7311C20.9668 14.0359 20.9668 14.5306 21.272 14.8358L22.6511 16.2149C22.8036 16.3675 23.0035 16.4438 23.2034 16.4438C23.4033 16.4438 23.6032 16.3675 23.7558 16.2149L26.1758 13.7949C26.4807 13.49 26.4807 12.9953 26.1758 12.6901C25.8707 12.3849 25.376 12.3849 25.0708 12.6901L23.2034 14.5575L22.3767 13.7311Z" fill="#477215"/>
</g>
<defs>
<clipPath id="clip0_233_33">
<rect width="40" height="40" fill="white"/>
</clipPath>
</defs>
</svg>
