<svg width="32" height="32" viewBox="0 0 32 32" fill="none" xmlns="http://www.w3.org/2000/svg">
<g clip-path="url(#clip0_1_4350)">
<path d="M16 7.6875C11.5817 7.6875 8 11.4091 8 16C8 20.5909 11.5817 24.3125 16 24.3125C20.4183 24.3125 24 20.5909 24 16C24 11.4091 20.4183 7.6875 16 7.6875ZM16.9375 20.9059V22.0276H15.0625V20.9081C13.6376 20.726 12.5324 19.5065 12.5324 18.0329H14.4074C14.4074 18.5978 14.867 19.0574 15.4319 19.0574H16.5486C17.1331 19.0574 17.6086 18.5819 17.6086 17.9975C17.6086 17.413 17.1331 16.9376 16.5486 16.9376H15.4514C13.8331 16.9376 12.5165 15.6209 12.5165 14.0026C12.5165 12.5162 13.6274 11.2852 15.0625 11.0942V9.9725H16.9375V11.0974C18.3611 11.2992 19.4596 12.5254 19.4596 14.0038H17.5846C17.5846 13.4187 17.1086 12.9426 16.5234 12.9426H15.4514C14.8669 12.9426 14.3915 13.4181 14.3915 14.0026C14.3915 14.5871 14.8669 15.0625 15.4514 15.0625H16.5486C18.167 15.0625 19.4836 16.3791 19.4836 17.9974C19.4835 19.4839 18.3726 20.7149 16.9375 20.9059Z" fill="#28D17C"/>
<path d="M28.0004 16C28.0004 22.6274 22.6278 28 16.0004 28C12.6867 28 9.6867 26.6569 7.51514 24.4853L9.18645 22.8139C9.12633 22.6538 9.11914 22.6345 9.05902 22.4744L2.44064 22.0281C2.35533 22.1134 2.31383 22.1549 2.22852 22.2402L2.67483 28.8586C2.83495 28.9187 2.85427 28.9259 3.01439 28.986L4.68664 27.3137C7.58214 30.2091 11.5821 32 16.0004 32C24.837 32 32.0004 24.8366 32.0004 16H28.0004Z" fill="#28D17C"/>
<path d="M16 4C19.3137 4 22.3137 5.34313 24.4853 7.51469L24.4849 7.51506L22.8131 9.18688C22.8731 9.347 22.8804 9.36631 22.9405 9.52644L29.5589 9.97275C29.6442 9.88744 29.6857 9.84594 29.771 9.76062L29.3247 3.14225C29.1646 3.08212 29.1453 3.07494 28.9851 3.01481L27.3136 4.68625C24.4183 1.79088 20.4183 0 16 0C7.16344 0 0 7.16344 0 16H4C4 9.37256 9.37256 4 16 4Z" fill="#28D17C"/>
</g>
<defs>
<clipPath id="clip0_1_4350">
<rect width="32" height="32" fill="white"/>
</clipPath>
</defs>
</svg>
