<svg width="24" height="24" viewBox="0 0 24 24" fill="none" xmlns="http://www.w3.org/2000/svg">
<g clip-path="url(#clip0_1_3185)">
<path d="M14.8125 16.8724C15.2008 16.8724 15.5156 16.5576 15.5156 16.1693C15.5156 15.781 15.2008 15.4662 14.8125 15.4662C14.4242 15.4662 14.1094 15.781 14.1094 16.1693C14.1094 16.5576 14.4242 16.8724 14.8125 16.8724Z" fill="#28D17C"/>
<path d="M9.1875 8.43494C9.57583 8.43494 9.89062 8.12014 9.89062 7.73181C9.89062 7.34349 9.57583 7.02869 9.1875 7.02869C8.79917 7.02869 8.48438 7.34349 8.48438 7.73181C8.48438 8.12014 8.79917 8.43494 9.1875 8.43494Z" fill="#28D17C"/>
<path d="M22.9026 10.3644C22.1047 9.84252 21.8053 8.72398 22.2345 7.87184C22.6101 7.12822 22.6499 6.48964 22.3519 5.97397C22.0539 5.4583 21.4812 5.17334 20.649 5.12595C19.6966 5.07238 18.8782 4.25389 18.8246 3.30083C18.7772 2.46931 18.4922 1.89664 17.9766 1.59866C17.4609 1.30274 16.8223 1.34117 16.0787 1.71608C15.2265 2.1418 14.1073 1.84588 13.5855 1.04797C12.6723 -0.345905 11.3278 -0.345905 10.4146 1.04797C9.89208 1.84517 8.7742 2.14386 7.92141 1.71608C7.17708 1.34117 6.5385 1.30274 6.02353 1.59866C5.50786 1.89664 5.22291 2.46931 5.17552 3.30153C5.12194 4.25389 4.30345 5.07238 3.35039 5.12595C2.51887 5.17334 1.9462 5.4583 1.64822 5.97397C1.35023 6.48964 1.39003 7.12822 1.76564 7.87184C2.19478 8.72398 1.89544 9.84252 1.09683 10.365C0.4005 10.8224 0 11.3552 0 11.9505C0 12.5458 0.4005 13.0794 1.09744 13.536C1.8953 14.0585 2.19469 15.1771 1.76555 16.0292C1.38994 16.7728 1.35014 17.4114 1.64812 17.927C1.94611 18.4427 2.51878 18.7277 3.351 18.7751C4.30336 18.8286 5.12184 19.6471 5.17542 20.6002C5.22281 21.4317 5.50777 22.0044 6.02344 22.3024C6.53981 22.5997 7.17698 22.5598 7.92131 22.1849C8.77345 21.7565 9.89128 22.0545 10.4145 22.8538C10.8718 23.55 11.4046 23.9974 12 23.9974C12.5953 23.9974 13.1281 23.55 13.5861 22.853C14.1073 22.0538 15.2238 21.753 16.0786 22.1849C16.8223 22.5598 17.4629 22.5997 17.9765 22.3024C18.4922 22.0044 18.7771 21.4317 18.8245 20.5995C18.8781 19.6471 19.6966 18.8286 20.6497 18.7751C21.4812 18.7277 22.0538 18.4427 22.3518 17.927C22.6498 17.4114 22.61 16.7728 22.2344 16.0292C21.8053 15.177 22.1046 14.0585 22.9025 13.536C23.5995 13.0794 24 12.5458 24 11.9505C24 11.3552 23.5995 10.8224 22.9026 10.3644ZM9.1875 5.62241C10.3507 5.62241 11.2969 6.56863 11.2969 7.73178C11.2969 8.89494 10.3507 9.84116 9.1875 9.84116C8.02434 9.84116 7.07812 8.89494 7.07812 7.73178C7.07812 6.56863 8.02434 5.62241 9.1875 5.62241ZM8.34361 17.9971L7.21889 17.1539L15.6564 5.90394L16.7811 6.74713L8.34361 17.9971ZM14.8125 18.2787C13.6493 18.2787 12.7031 17.3324 12.7031 16.1693C12.7031 15.0061 13.6493 14.0599 14.8125 14.0599C15.9757 14.0599 16.9219 15.0061 16.9219 16.1693C16.9219 17.3324 15.9757 18.2787 14.8125 18.2787Z" fill="#28D17C"/>
</g>
<defs>
<clipPath id="clip0_1_3185">
<rect width="24" height="24" fill="white"/>
</clipPath>
</defs>
</svg>
