<svg width="45" height="30" viewBox="0 0 45 30" fill="none" xmlns="http://www.w3.org/2000/svg">
<rect x="0.5" y="0.5" width="44" height="29" rx="4.5" stroke="black" stroke-opacity="0.05"/>
<path fill-rule="evenodd" clip-rule="evenodd" d="M21.4409 19.3867V15.865H23.2584C24.0032 15.865 24.6319 15.6155 25.1443 15.1233L25.2673 14.9986C26.2035 13.9795 26.142 12.392 25.1443 11.4492C24.6455 10.9501 23.9622 10.6798 23.2584 10.6936H20.3408V19.3867H21.4409ZM21.441 14.7975V11.7612H23.2862C23.6826 11.7612 24.0585 11.9137 24.3387 12.191C24.9332 12.7733 24.9469 13.7438 24.3728 14.3469C24.0926 14.645 23.6962 14.8114 23.2862 14.7975H21.441ZM30.3989 13.9033C29.9274 13.4665 29.2852 13.2447 28.472 13.2447C27.4266 13.2447 26.6408 13.6329 26.1215 14.4024L27.0917 15.0193C27.447 14.4925 27.9322 14.2291 28.5472 14.2291C28.9367 14.2291 29.3124 14.3747 29.6063 14.6381C29.8933 14.8877 30.0573 15.2481 30.0573 15.6294V15.8859C29.6336 15.6502 29.1006 15.5254 28.4447 15.5254C27.6794 15.5254 27.0644 15.7056 26.6066 16.0731C26.1488 16.4404 25.9165 16.9257 25.9165 17.5427C25.9028 18.1042 26.142 18.638 26.5656 18.9984C26.9961 19.3867 27.5428 19.5808 28.185 19.5808C28.9435 19.5808 29.5448 19.2411 30.0026 18.5617H30.0504V19.3867H31.1027V15.7195C31.1027 14.95 30.8704 14.34 30.3989 13.9033ZM27.4131 18.2914C27.1876 18.125 27.0509 17.8546 27.0509 17.5635C27.0509 17.2377 27.2013 16.9673 27.4951 16.7524C27.7958 16.5375 28.1717 16.4266 28.6159 16.4266C29.231 16.4196 29.7093 16.5583 30.051 16.8356C30.051 17.307 29.8665 17.716 29.5043 18.0626C29.1763 18.3954 28.7321 18.5825 28.2674 18.5825C27.9598 18.5895 27.6591 18.4855 27.4131 18.2914ZM33.4669 22.0001L37.143 13.4388H35.9472L34.2459 17.709H34.2254L32.483 13.4388H31.2872L33.6992 19.0054L32.3326 22.0001H33.4669Z" fill="#3C4043"/>
<path d="M17.6428 15.1025C17.6428 14.7628 17.6154 14.4231 17.5608 14.0903H12.9213V16.0106H15.5793C15.4699 16.6276 15.1146 17.1822 14.5953 17.5287V18.7766H16.1806C17.1098 17.91 17.6428 16.6276 17.6428 15.1025Z" fill="#4285F4"/>
<path d="M12.9218 19.9826C14.2474 19.9826 15.368 19.5389 16.1811 18.7764L14.5959 17.5286C14.1517 17.8336 13.5846 18.0069 12.9218 18.0069C11.6372 18.0069 10.5508 17.1265 10.1613 15.948H8.5282V17.2374C9.36186 18.922 11.0632 19.9826 12.9218 19.9826Z" fill="#34A853"/>
<path d="M10.1612 15.948C9.95625 15.331 9.95625 14.6586 10.1612 14.0347V12.7522H8.52795C7.82402 14.1595 7.82402 15.8232 8.52795 17.2304L10.1612 15.948Z" fill="#FBBC04"/>
<path d="M12.9218 11.976C13.6256 11.9621 14.3021 12.2325 14.8077 12.7246L16.2153 11.2966C15.3201 10.4509 14.1449 9.98643 12.9218 10.0003C11.0632 10.0003 9.36186 11.0679 8.5282 12.7524L10.1613 14.0418C10.5508 12.8564 11.6372 11.976 12.9218 11.976Z" fill="#EA4335"/>
</svg>
