<?xml version="1.0" encoding="UTF-8"?>
<svg xmlns="http://www.w3.org/2000/svg" xmlns:xlink="http://www.w3.org/1999/xlink" width="0" height="0">
<symbol id="worldpay" width="46" height="30" viewBox="0 0 46 30" fill="none">
<path d="M12.8324 11.0585L11.8451 15.1226C11.7292 15.5291 11.6711 15.8773 11.6131 16.2839C11.5549 15.8196 11.4967 15.4131 11.3808 15.0648L10.2197 11.0584H9.05827L7.95508 15.0648C7.83889 15.4714 7.78071 15.8774 7.72305 16.2839C7.66487 15.8773 7.60669 15.4712 7.49067 15.0067L6.50358 11.0585H5.40039L7.08409 17.6197H8.36166L9.46485 13.5552C9.58078 13.1487 9.63896 12.7422 9.69688 12.3357C9.75506 12.7423 9.81325 13.1487 9.92953 13.5552L11.0325 17.5617H12.31L13.8777 11.0586H12.8326L12.8324 11.0585Z" fill="#7C7C7C"/>
<path d="M16.084 12.684C14.6323 12.684 13.7031 13.7873 13.7031 15.2389C13.7031 16.9229 14.5741 17.6774 15.9094 17.6774C17.361 17.6774 18.2898 16.5741 18.2898 15.0647C18.2899 13.3808 17.3611 12.684 16.084 12.684ZM16.0259 16.7485C15.2129 16.7485 14.8063 16.2259 14.8063 15.1226C14.8063 14.0197 15.3869 13.5552 16.0259 13.5552C16.8386 13.5552 17.2448 14.1357 17.2448 15.1226C17.2448 16.2259 16.6644 16.7485 16.0259 16.7485Z" fill="#7C7C7C"/>
<path d="M19.7416 13.7871C19.858 13.4387 19.858 13.0322 19.858 12.742H18.8711V17.5613H19.9162V15.587C19.9162 14.1355 20.3807 13.4968 21.3097 13.6709V12.6258C20.4388 12.568 19.974 13.1485 19.7416 13.7871Z" fill="#7C7C7C"/>
<path d="M22.9936 11.0002H21.9482V15.6451V17.5613H22.9936H22.9938V14.6001H22.9936V11.0002Z" fill="#7C7C7C"/>
<path d="M26.8257 12.742C26.5935 12.6838 26.3609 12.6838 26.129 12.6838C24.5611 12.6838 23.6323 13.7871 23.6323 15.4129C23.6323 16.8064 24.2127 17.6772 25.3742 17.6772C26.1291 17.6772 26.7095 17.271 26.9419 16.69C26.8837 16.9226 26.8837 17.3287 26.8837 17.5611H27.8709V11H26.8258V12.742H26.8257ZM26.7675 13.6131V15.1224C26.7675 15.9354 26.3609 16.8646 25.6062 16.8646C24.9675 16.8646 24.6774 16.3419 24.6774 15.3549C24.6774 14.0773 25.2578 13.555 26.0709 13.555C26.3029 13.555 26.5935 13.555 26.8258 13.6131H26.7675Z" fill="#7C7C7C"/>
<path d="M30.3094 11.0002C29.6706 11.0002 29.1484 11.0584 28.6255 11.0584V17.5614H29.6706V15.1806H30.1353C31.703 15.1806 32.6902 14.2518 32.6902 12.9742C32.6902 11.7551 31.8771 11.0002 30.3094 11.0002ZM30.1353 14.3099C29.9612 14.3099 29.787 14.2517 29.6706 14.2517V11.8708H30.1934C31.1803 11.8708 31.5868 12.3353 31.5868 13.0321C31.5869 13.8452 31.0062 14.3099 30.1353 14.3099Z" fill="#7C7C7C"/>
<path d="M36.6961 17.5033V14.1938C36.6961 13.2649 36.2895 12.626 34.838 12.626C34.1994 12.626 33.5605 12.8004 33.0961 12.9744L33.2703 13.7873C33.6768 13.5551 34.1994 13.4389 34.6637 13.4389C35.4186 13.4389 35.6511 13.7873 35.6511 14.368V14.6583C33.8511 14.6583 32.8057 15.2389 32.8057 16.342C32.8057 17.1549 33.3284 17.6774 34.1413 17.6774C34.8962 17.6774 35.4768 17.2713 35.7088 16.6903C35.6549 16.9077 35.6513 17.2257 35.6511 17.5032H36.6961V17.5033ZM34.3736 16.8648C33.967 16.8648 33.735 16.5742 33.735 16.2259C33.735 15.768 34.1312 15.3664 35.5347 15.3557V15.5292C35.5347 16.168 35.0702 16.8648 34.3736 16.8648Z" fill="#7C7C7C"/>
<path d="M40.18 12.742L39.4833 14.7163C39.3092 15.2387 39.1349 15.8196 39.0186 16.2256C38.9607 15.8195 38.8446 15.3549 38.6702 14.9484L37.9155 12.742H36.7544L38.6122 17.5614L38.4381 18.0257C38.0897 18.8967 37.6833 19.1289 37.2188 19.1289C37.0447 19.1289 36.8122 19.1289 36.6382 19.0711L36.522 19.9418C36.6382 20 36.9283 20 37.1027 20C38.206 20 38.8446 19.5354 39.425 17.9098L41.283 12.7421L40.18 12.742Z" fill="#7C7C7C"/>
</symbol>

<symbol id="visa" width="45" height="30" viewBox="0 0 45 30" fill="none">
<g clip-path="url(#clip0_1_250)">
<path d="M19.0118 10.5359L17.4877 19.483H19.9259L21.4518 10.5359H19.0124H19.0118ZM15.443 10.5459L13.0547 16.6477L12.8 15.7265C12.3294 14.6165 10.9918 13.0218 9.42236 12.0171L11.6059 19.4789L14.1859 19.4742L18.0265 10.5442L15.443 10.5459Z" fill="#7C7C7C"/>
<path d="M11.8741 11.1867C11.7329 10.6414 11.3218 10.4791 10.8118 10.4597H7.03118L7 10.6379C9.94176 11.3514 11.8882 13.0714 12.6965 15.1391L11.8741 11.1867ZM26.3941 12.2514C27.0195 12.2375 27.641 12.3541 28.2188 12.5938L28.4388 12.6973L28.7688 10.7585C28.2865 10.5767 27.5294 10.382 26.5847 10.382C24.1753 10.382 22.4765 11.5961 22.4635 13.335C22.4476 14.6203 23.6735 15.3379 24.5988 15.7661C25.5494 16.205 25.8676 16.4838 25.8635 16.8761C25.8559 17.475 25.1059 17.7497 24.4047 17.7497C23.4282 17.7497 22.91 17.615 22.1094 17.2814L21.7947 17.1385L21.4518 19.1408C22.0224 19.3914 23.0753 19.6061 24.1688 19.6173C26.7318 19.6173 28.3982 18.4185 28.4153 16.5603C28.4259 15.5438 27.7759 14.7679 26.3665 14.1308C25.5135 13.7161 24.9918 13.4403 24.9965 13.0208C24.9965 12.6491 25.4394 12.2514 26.3941 12.2514ZM35.0271 10.5461H33.1429C32.5576 10.5461 32.1224 10.7055 31.8653 11.2891L28.2447 19.4885H30.8053C30.8053 19.4885 31.2229 18.3861 31.3176 18.1444L34.4406 18.1479C34.5129 18.4603 34.7376 19.4885 34.7376 19.4885H37L35.0271 10.5461ZM32.0194 16.3132C32.22 15.7997 32.9912 13.8126 32.9912 13.8126C32.9776 13.8373 33.19 13.295 33.3159 12.9585L33.4806 13.7297L34.0453 16.3132H32.0194Z" fill="#7C7C7C"/>
</g>
<defs>
<clipPath>
<rect width="30" height="10" fill="white" transform="translate(7 10)"/>
</clipPath>
</defs>
</symbol>

<symbol id="usdt(trc20)" width="46" height="30" viewBox="0 0 46 30" fill="none">
<path fill-rule="evenodd" clip-rule="evenodd" d="M16.4621 6.08545L12.8153 13.7456C12.8014 13.7741 12.797 13.8063 12.8027 13.8374C12.8085 13.8686 12.824 13.8971 12.8471 13.9188L22.6963 23.3567C22.7243 23.3836 22.7615 23.3985 22.8003 23.3985C22.8391 23.3985 22.8763 23.3836 22.9043 23.3567L32.7535 13.9194C32.7766 13.8977 32.7921 13.8692 32.7978 13.838C32.8036 13.8069 32.7992 13.7747 32.7853 13.7462L29.1385 6.08604C29.1267 6.06031 29.1078 6.03852 29.084 6.02327C29.0601 6.00801 29.0324 5.99994 29.0041 6.00001H16.5976C16.5692 5.99966 16.5413 6.00754 16.5172 6.0227C16.4932 6.03786 16.474 6.05965 16.4621 6.08545Z" fill="#7C7C7C"/>
<path fill-rule="evenodd" clip-rule="evenodd" d="M24.0662 14.5323C23.9955 14.5376 23.6302 14.5594 22.8153 14.5594C22.1671 14.5594 21.7069 14.54 21.5454 14.5323C19.0406 14.4221 17.1709 13.9861 17.1709 13.464C17.1709 12.9419 19.0406 12.5065 21.5454 12.3945V14.098C21.7092 14.1098 22.1783 14.1375 22.8265 14.1375C23.6043 14.1375 23.9937 14.1051 24.0639 14.0986V12.3957C26.5634 12.5071 28.429 12.9431 28.429 13.464C28.429 13.9849 26.564 14.4209 24.0639 14.5317L24.0662 14.5323ZM24.0662 12.2195V10.6952H27.5545V8.37061H18.0571V10.6952H21.5448V12.2189C18.71 12.3492 16.5781 12.9107 16.5781 13.5836C16.5781 14.2565 18.71 14.8175 21.5448 14.9483V19.8331H24.0656V14.9466C26.894 14.8163 29.0223 14.2554 29.0223 13.583C29.0223 12.9107 26.8958 12.3498 24.0656 12.2189L24.0662 12.2195Z" fill="#141519"/>
<circle cx="28.2171" cy="19.75" r="4.58333" fill="#C3C3C3"/>
<path d="M28.2651 23.5001L31.48 18.9452L28.2651 19.7599V23.5001Z" fill="#141519"/>
<path d="M24.9248 16.8333L28.152 19.5249L30.295 17.6391L24.9248 16.8333Z" fill="#141519"/>
<path d="M28.0397 23.3777V19.7252L24.9062 17.1123L28.0397 23.3777Z" fill="#141519"/>
<path d="M28.5757 19.4495L31.5277 18.7014L30.5434 17.7175L28.5757 19.4495Z" fill="#141519"/>
</symbol>

<symbol id="usdt(erc20)" width="45" height="30" viewBox="0 0 45 30" fill="none">
<path fill-rule="evenodd" clip-rule="evenodd" d="M15.6618 6.08545L12.015 13.7456C12.0011 13.7741 11.9967 13.8063 12.0024 13.8374C12.0082 13.8686 12.0237 13.8971 12.0468 13.9188L21.896 23.3567C21.924 23.3836 21.9612 23.3985 22 23.3985C22.0388 23.3985 22.076 23.3836 22.104 23.3567L31.9532 13.9194C31.9763 13.8977 31.9918 13.8692 31.9976 13.838C32.0033 13.8069 31.9989 13.7747 31.985 13.7462L28.3382 6.08604C28.3264 6.06031 28.3075 6.03852 28.2837 6.02327C28.2598 6.00801 28.2321 5.99994 28.2038 6.00001H15.7973C15.7689 5.99966 15.741 6.00754 15.7169 6.0227C15.6929 6.03786 15.6738 6.05965 15.6618 6.08545Z" fill="#7C7C7C"/>
<path fill-rule="evenodd" clip-rule="evenodd" d="M23.2659 14.5323C23.1952 14.5376 22.8299 14.5594 22.015 14.5594C21.3668 14.5594 20.9066 14.54 20.7451 14.5323C18.2403 14.4221 16.3706 13.9861 16.3706 13.464C16.3706 12.9419 18.2403 12.5065 20.7451 12.3945V14.098C20.909 14.1098 21.378 14.1375 22.0262 14.1375C22.804 14.1375 23.1934 14.1051 23.2636 14.0986V12.3957C25.7631 12.5071 27.6287 12.9431 27.6287 13.464C27.6287 13.9849 25.7637 14.4209 23.2636 14.5317L23.2659 14.5323ZM23.2659 12.2195V10.6952H26.7542V8.37061H17.2568V10.6952H20.7446V12.2189C17.9097 12.3492 15.7778 12.9107 15.7778 13.5836C15.7778 14.2565 17.9097 14.8175 20.7446 14.9483V19.8331H23.2653V14.9466C26.0937 14.8163 28.222 14.2554 28.222 13.583C28.222 12.9107 26.0955 12.3498 23.2653 12.2189L23.2659 12.2195Z" fill="#141519"/>
<circle cx="27.1366" cy="19.75" r="4.58333" fill="#C3C3C3"/>
<path d="M27.1333 16.5417L27.0933 16.6778V20.6257L27.1333 20.6657L28.9659 19.5824L27.1333 16.5417Z" fill="#141519"/>
<path d="M27.1353 16.5417L25.3027 19.5824L27.1353 20.6656V18.7494V16.5417Z" fill="#141519"/>
<path d="M27.1373 21.0127L27.1147 21.0402V22.4465L27.1373 22.5124L28.971 19.93L27.1373 21.0127Z" fill="#141519"/>
<path d="M27.1353 22.5124V21.0127L25.3027 19.93L27.1353 22.5124Z" fill="#141519"/>
</symbol>

<symbol id="union-pay" width="46" height="30" viewBox="0 0 46 30" fill="none">
<path d="M15.2094 7H21.5937C22.4848 7 23.0391 7.7264 22.8312 8.62054L19.8589 21.3819C19.6491 22.273 18.7569 23 17.865 23H11.4814C10.5914 23 10.0359 22.273 10.2438 21.3819L13.2174 8.62054C13.4253 7.7264 14.3171 7 15.2094 7Z" fill="#7C7C7C"/>
<path d="M21.0625 7H28.4043C29.2953 7 28.8935 7.7264 28.6839 8.62054L25.712 21.3819C25.5035 22.273 25.5685 23 24.6756 23H17.3339C16.441 23 15.8884 22.273 16.0982 21.3819L19.0699 8.62054C19.2809 7.7264 20.1708 7 21.0625 7Z" fill="#7C7C7C"/>
<path d="M28.113 7H34.4973C35.3897 7 35.944 7.7264 35.7344 8.62054L32.7625 21.3819C32.5527 22.273 31.6598 23 30.7676 23H24.3862C23.4933 23 22.9395 22.273 23.1486 21.3819L26.121 8.62054C26.3289 7.7264 27.2201 7 28.113 7Z" fill="#7C7C7C"/>
<path d="M16.8769 11.0896C16.2204 11.0963 16.0265 11.0896 15.9646 11.075C15.9407 11.1881 15.4977 13.2318 15.4965 13.2335C15.4011 13.647 15.3317 13.9417 15.0959 14.132C14.9621 14.2426 14.8059 14.296 14.6247 14.296C14.3336 14.296 14.164 14.1515 14.1355 13.8773L14.13 13.7831C14.13 13.7831 14.2187 13.2293 14.2187 13.2262C14.2187 13.2262 14.6837 11.3638 14.767 11.1177C14.7713 11.1036 14.7726 11.0963 14.7737 11.0896C13.8686 11.0976 13.7082 11.0896 13.6971 11.075C13.6911 11.0951 13.6687 11.2106 13.6687 11.2106L13.1939 13.3096L13.1531 13.4876L13.0742 14.0699C13.0742 14.2426 13.1081 14.3836 13.1757 14.5028C13.392 14.8808 14.009 14.9375 14.358 14.9375C14.8077 14.9375 15.2296 14.8419 15.5147 14.6675C16.0095 14.3751 16.139 13.918 16.2545 13.5119L16.308 13.3035C16.308 13.3035 16.787 11.3693 16.8683 11.1177C16.8715 11.1036 16.8727 11.0963 16.8769 11.0896ZM18.5066 12.65C18.3911 12.65 18.1801 12.678 17.9906 12.7709C17.9218 12.8063 17.8567 12.847 17.7881 12.8876L17.8501 12.664L17.8161 12.6264C17.4142 12.7078 17.3242 12.7186 16.953 12.7709L16.9218 12.7916C16.8787 13.1491 16.8404 13.4178 16.6806 14.1204C16.6198 14.3793 16.5566 14.6408 16.4933 14.8991L16.5104 14.9319C16.8909 14.9118 17.0063 14.9118 17.337 14.9173L17.3638 14.8882C17.4058 14.673 17.4112 14.6226 17.5043 14.1867C17.548 13.98 17.6392 13.526 17.6842 13.3643C17.7668 13.326 17.8483 13.2883 17.9261 13.2883C18.1115 13.2883 18.0889 13.45 18.0818 13.5144C18.0738 13.6226 18.0063 13.9758 17.937 14.2791L17.8908 14.4749C17.8586 14.6194 17.8233 14.76 17.7911 14.9033L17.8051 14.9319C18.1801 14.9118 18.2945 14.9118 18.6147 14.9173L18.6524 14.8882C18.7103 14.5521 18.7272 14.4621 18.8299 13.9727L18.8816 13.7479C18.982 13.3078 19.0324 13.0846 18.9565 12.9029C18.8762 12.6992 18.6835 12.65 18.5066 12.65ZM20.3271 13.1108C20.1278 13.1491 20.0006 13.1746 19.8743 13.1911C19.749 13.2111 19.6269 13.2293 19.4342 13.2561L19.419 13.27L19.405 13.281C19.3849 13.4245 19.3709 13.5485 19.3443 13.6943C19.3217 13.8451 19.287 14.0164 19.2305 14.2626C19.1868 14.4511 19.1642 14.5167 19.1393 14.583C19.1151 14.6493 19.0883 14.7137 19.0391 14.8991L19.0506 14.9162L19.0603 14.9319C19.2403 14.9233 19.3581 14.9173 19.4792 14.9162C19.6001 14.9118 19.7254 14.9162 19.9193 14.9173L19.9362 14.9034L19.9544 14.8882C19.9824 14.721 19.9866 14.6761 20.0037 14.5945C20.0207 14.5071 20.05 14.386 20.1217 14.0626C20.1556 13.9108 20.1934 13.7594 20.2286 13.6044C20.2652 13.45 20.3035 13.298 20.3399 13.1461L20.3344 13.1277L20.3271 13.1108ZM20.3314 12.4895C20.1502 12.3826 19.8323 12.4166 19.6183 12.5642C19.405 12.709 19.3807 12.9144 19.5612 13.0227C19.7393 13.1266 20.0584 13.0956 20.2705 12.9467C20.4834 12.7989 20.51 12.5954 20.3314 12.4895ZM21.4268 14.9654C21.7933 14.9654 22.1689 14.8644 22.4516 14.5647C22.6692 14.3216 22.7689 13.96 22.8035 13.8111C22.916 13.3175 22.8284 13.087 22.7184 12.9466C22.5512 12.7327 22.2559 12.6641 21.9495 12.6641C21.7652 12.6641 21.3264 12.6823 20.9836 12.9983C20.7374 13.2263 20.6237 13.5356 20.555 13.8322C20.4858 14.1344 20.4061 14.6785 20.9064 14.8809C21.0608 14.9472 21.2833 14.9654 21.4268 14.9654ZM21.3982 13.8548C21.4827 13.481 21.5824 13.1673 21.837 13.1673C22.0365 13.1673 22.0509 13.4007 21.9622 13.7757C21.9464 13.859 21.8735 14.1685 21.775 14.3003C21.7063 14.3976 21.6249 14.4565 21.5349 14.4565C21.5082 14.4565 21.349 14.4565 21.3465 14.2202C21.3452 14.1035 21.3691 13.9843 21.3982 13.8548ZM23.7196 14.9173L23.7482 14.8882C23.7888 14.673 23.7955 14.6224 23.8855 14.1867C23.9304 13.9801 24.0235 13.526 24.0672 13.3643C24.15 13.3259 24.2301 13.2882 24.3104 13.2882C24.4945 13.2882 24.4721 13.4499 24.4648 13.5143C24.4581 13.6226 24.3906 13.9757 24.3201 14.279L24.2764 14.4748C24.2429 14.6195 24.2065 14.7599 24.1743 14.9033L24.1883 14.932C24.5645 14.9119 24.6746 14.9119 24.9967 14.9173L25.0356 14.8882C25.0921 14.552 25.1073 14.462 25.2131 13.9728L25.2636 13.7478C25.3644 13.3077 25.4154 13.0847 25.3407 12.9029C25.2581 12.6992 25.0642 12.6501 24.8898 12.6501C24.7742 12.6501 24.5621 12.6779 24.3736 12.771C24.3062 12.8063 24.2387 12.8469 24.1724 12.8877L24.2301 12.6641L24.1992 12.6263C23.7974 12.7078 23.7056 12.7187 23.3347 12.771L23.3063 12.7917C23.2613 13.1491 23.2247 13.4177 23.0649 14.1204C23.0041 14.3794 22.9409 14.6408 22.8777 14.8991L22.8947 14.932C23.2758 14.9119 23.3895 14.9119 23.7196 14.9173ZM26.4841 14.9319C26.5077 14.8164 26.6483 14.132 26.6495 14.132C26.6495 14.132 26.7692 13.6299 26.7765 13.6117C26.7765 13.6117 26.8141 13.5594 26.8518 13.5387H26.9072C27.4299 13.5387 28.0201 13.5387 28.4828 13.1984C28.7976 12.9649 29.0128 12.6203 29.1088 12.2014C29.1337 12.0987 29.1521 11.9765 29.1521 11.8543C29.1521 11.6939 29.1198 11.5352 29.0268 11.4112C28.7909 11.0811 28.3211 11.075 27.7788 11.0726C27.7771 11.0726 27.5114 11.075 27.5114 11.075C26.8173 11.0836 26.5389 11.0811 26.4245 11.0671C26.4148 11.1177 26.3966 11.2076 26.3966 11.2076C26.3966 11.2076 26.148 12.3601 26.148 12.362C26.148 12.362 25.5529 14.8122 25.5249 14.9277C26.131 14.9204 26.3795 14.9204 26.4841 14.9319ZM26.9449 12.8847C26.9449 12.8847 27.2092 11.7345 27.208 11.7389L27.2166 11.6799L27.2203 11.6349L27.326 11.6458C27.326 11.6458 27.8712 11.6927 27.884 11.6939C28.0992 11.7772 28.1879 11.9918 28.1259 12.2719C28.0695 12.5278 27.9034 12.743 27.6901 12.847C27.5144 12.9351 27.2992 12.9424 27.0774 12.9424H26.934L26.9449 12.8847ZM28.591 13.8761C28.5211 14.1739 28.4408 14.718 28.9386 14.9119C29.0973 14.9794 29.2396 14.9995 29.3841 14.9921C29.5368 14.9839 29.6782 14.9073 29.8093 14.7972C29.7974 14.8425 29.7856 14.8877 29.7738 14.9332L29.7963 14.9623C30.1544 14.9472 30.2655 14.9472 30.6535 14.9501L30.6886 14.9234C30.7453 14.5904 30.7986 14.267 30.9459 13.6299C31.0176 13.3248 31.0892 13.0226 31.1628 12.7187L31.1513 12.6852C30.7507 12.7594 30.6437 12.7753 30.2584 12.8299L30.2291 12.8537C30.2252 12.8847 30.2212 12.9144 30.2174 12.9441C30.1575 12.8474 30.0707 12.7647 29.9367 12.7132C29.7654 12.6458 29.363 12.7327 29.017 13.0476C28.774 13.2725 28.6573 13.5806 28.591 13.8761ZM29.4322 13.8943C29.518 13.5272 29.6165 13.2166 29.8717 13.2166C30.033 13.2166 30.118 13.3655 30.1007 13.6195C30.087 13.6828 30.0722 13.7496 30.0547 13.8251C30.0291 13.9341 30.0014 14.0423 29.9745 14.1506C29.9471 14.2247 29.9152 14.2945 29.8802 14.3411C29.8146 14.4341 29.6583 14.4919 29.5684 14.4919C29.5429 14.4919 29.3854 14.4919 29.3799 14.2597C29.3787 14.1441 29.4025 14.025 29.4322 13.8943ZM33.8252 12.6822L33.7942 12.6469C33.3979 12.7272 33.3262 12.74 32.962 12.7891L32.9353 12.8159C32.934 12.8203 32.9329 12.827 32.9311 12.833L32.9298 12.827C32.6587 13.4524 32.6667 13.3174 32.446 13.8098C32.4448 13.7874 32.4448 13.7734 32.4435 13.7496L32.3883 12.6822L32.3536 12.6469C31.9384 12.7272 31.9286 12.74 31.5452 12.7891L31.5153 12.8159C31.5111 12.8287 31.5111 12.8427 31.5086 12.8579L31.5111 12.8634C31.559 13.1083 31.5475 13.0537 31.5956 13.4402C31.618 13.6299 31.6479 13.8207 31.6703 14.008C31.7081 14.3216 31.7293 14.476 31.7755 14.9545C31.5166 15.3818 31.4552 15.5435 31.206 15.9185L31.2077 15.9222L31.0321 16.1998C31.0121 16.2291 30.9939 16.2492 30.9683 16.2577C30.9403 16.2716 30.9039 16.2741 30.8533 16.2741H30.7561L30.6115 16.7549L31.1075 16.7635C31.3986 16.7622 31.5816 16.6261 31.6801 16.4431L31.992 15.9087H31.987L32.0198 15.871C32.2296 15.4194 33.8252 12.6822 33.8252 12.6822ZM28.591 18.9973H28.3806L29.1593 16.4218H29.4176L29.4996 16.1565L29.5075 16.4515C29.4979 16.6339 29.6413 16.7956 30.0182 16.7688H30.4541L30.6041 16.2729H30.4401C30.3458 16.2729 30.3021 16.2491 30.3075 16.198L30.2996 15.8979H29.4924V15.8994C29.2315 15.9049 28.4522 15.9245 28.2944 15.9665C28.1034 16.0157 27.9022 16.1604 27.9022 16.1604L27.9813 15.8948H27.2262L27.0689 16.4218L26.2798 19.0367H26.1267L25.9765 19.5291H27.4804L27.4299 19.6932H28.171L28.2201 19.5291H28.428L28.591 18.9973ZM27.974 16.9451C27.8531 16.9786 27.628 17.0801 27.628 17.0801L27.8282 16.4218H28.428L28.2833 16.9014C28.2833 16.9014 28.098 16.9123 27.974 16.9451ZM27.9855 17.8855C27.9855 17.8855 27.797 17.9092 27.673 17.9372C27.5509 17.9742 27.3218 18.0909 27.3218 18.0909L27.5284 17.4059H28.1314L27.9855 17.8855ZM27.6494 19.0034H27.0476L27.222 18.4253H27.8219L27.6494 19.0034ZM29.0985 17.4059H29.9659L29.8412 17.8096H28.9623L28.8304 18.2509H29.5994L29.0171 19.0708C28.9764 19.131 28.9398 19.1523 28.8992 19.1693C28.8584 19.19 28.8049 19.2143 28.7429 19.2143H28.5296L28.383 19.6976H28.941C29.2311 19.6976 29.4024 19.5656 29.5289 19.3924L29.9282 18.8459L30.014 19.4008C30.0322 19.5048 30.1069 19.5656 30.1574 19.5893C30.2133 19.6173 30.271 19.6654 30.3526 19.6725C30.44 19.6763 30.5032 19.6792 30.5452 19.6792H30.8194L30.9841 19.1383H30.8759C30.8138 19.1383 30.7069 19.1279 30.6887 19.1085C30.6705 19.0848 30.6705 19.0484 30.6607 18.993L30.5737 18.4368H30.2175L30.3737 18.2509H31.2509L31.3858 17.8096H30.5737L30.7002 17.4059H31.5099L31.66 16.9081H29.2462L29.0985 17.4059ZM21.7726 19.1158L21.975 18.4423H22.8071L22.9591 17.9414H22.1263L22.2534 17.5269H23.0673L23.2181 17.0418H21.1817L21.0341 17.5269H21.4967L21.3733 17.9414H20.9094L20.7557 18.4509H21.2181L20.9483 19.3419C20.9119 19.4599 20.9654 19.5048 20.9994 19.5596C21.0341 19.613 21.0692 19.6483 21.1483 19.6684C21.2298 19.6866 21.2857 19.6975 21.3616 19.6975H22.2996L22.4668 19.1426L22.051 19.1997C21.9707 19.1997 21.7483 19.19 21.7726 19.1158ZM21.868 15.8917L21.6572 16.2728C21.612 16.3561 21.5714 16.4077 21.5349 16.4315C21.5026 16.4516 21.4388 16.46 21.3464 16.46H21.2364L21.0893 16.9476H21.4547C21.6304 16.9476 21.7653 16.8831 21.8297 16.8509C21.899 16.8139 21.9172 16.835 21.9707 16.7834L22.0941 16.6765H23.2351L23.3865 16.1689H22.5513L22.6971 15.8917H21.868ZM23.5524 19.1256C23.533 19.0976 23.547 19.0483 23.5767 18.9456L23.8885 17.9134H24.9979C25.1596 17.9111 25.2763 17.9092 25.3522 17.9037C25.4338 17.8952 25.5225 17.8661 25.6191 17.8138C25.7189 17.759 25.7699 17.7013 25.813 17.635C25.8611 17.5689 25.9383 17.4241 26.0046 17.201L26.3965 15.8948L25.2453 15.9015C25.2453 15.9015 24.8908 15.9538 24.7348 16.0115C24.5773 16.0759 24.3523 16.2558 24.3523 16.2558L24.4562 15.8977H23.7451L22.7495 19.1997C22.7141 19.3279 22.6905 19.421 22.685 19.4768C22.6832 19.537 22.761 19.5966 22.8114 19.6416C22.871 19.6866 22.9591 19.6793 23.0436 19.6866C23.1324 19.6933 23.2588 19.6975 23.4332 19.6975H23.9797L24.1475 19.131L23.6582 19.1773C23.606 19.1773 23.5681 19.1493 23.5524 19.1256ZM24.0898 17.2162H25.255L25.1809 17.4484C25.1705 17.4539 25.1456 17.4369 25.027 17.4509H24.018L24.0898 17.2162ZM24.3232 16.4376H25.4982L25.4137 16.7172C25.4137 16.7172 24.8599 16.7118 24.7712 16.7281C24.3809 16.7956 24.1529 17.0041 24.1529 17.0041L24.3232 16.4376ZM25.207 18.2259C25.1973 18.2606 25.1821 18.2818 25.1608 18.2976C25.1371 18.3129 25.0988 18.3183 25.0417 18.3183H24.8757L24.8855 18.0356H24.1949L24.1669 19.4179C24.1658 19.5176 24.1754 19.5754 24.2484 19.6216C24.3214 19.6793 24.5463 19.6866 24.8489 19.6866H25.2817L25.4379 19.1692L25.0612 19.1899L24.9359 19.1972C24.9188 19.1899 24.9025 19.1832 24.8842 19.165C24.8684 19.1493 24.8416 19.1589 24.846 19.0592L24.8489 18.7049L25.244 18.6885C25.4574 18.6885 25.5486 18.6191 25.6264 18.553C25.7006 18.4897 25.7249 18.4168 25.7529 18.3183L25.8192 18.0046H25.2762L25.207 18.2259Z" fill="#141519"/>
</symbol>

<symbol id="tron" width="46" height="30" viewBox="0 0 46 30" fill="none">
<path fill-rule="evenodd" clip-rule="evenodd" d="M23.4004 25C17.9004 25 13.4004 20.5001 13.4004 14.9502C13.4504 9.45032 17.9004 4.95041 23.4504 5.00041C28.9504 5.05041 33.4004 9.50032 33.4004 15.1002C33.3504 20.5501 28.9004 25 23.4004 25Z" fill="#7C7C7C"/>
<path fill-rule="evenodd" clip-rule="evenodd" d="M29.6064 12.005L29.6063 12.005C29.1432 11.5553 28.6538 11.0802 28.2219 10.6968L28.1782 10.6662C28.1054 10.6078 28.0233 10.5619 27.9354 10.5306L27.602 10.4684C25.302 10.0392 17.8469 8.64819 17.6935 8.66684C17.6482 8.67319 17.6048 8.68964 17.5666 8.71497L17.5251 8.74778C17.4739 8.79975 17.435 8.86254 17.4113 8.93153L17.4004 8.95997V9.11528V9.13934C17.9065 10.5487 19.2214 13.6962 20.4354 16.6024L20.4354 16.6024C21.4618 19.0594 22.4161 21.344 22.7488 22.2599L22.7489 22.2603C22.7927 22.396 22.8758 22.6537 23.031 22.6668H23.066C23.1491 22.6668 23.5035 22.1987 23.5035 22.1987C23.5035 22.1987 29.8385 14.5162 30.4794 13.6981C30.5624 13.5973 30.6356 13.4889 30.6982 13.3743C30.7306 13.192 30.665 13.006 30.5253 12.8843C30.2525 12.6324 29.9361 12.3252 29.6064 12.005ZM25.1288 13.7789L27.8325 11.5367L29.4185 12.998L25.1288 13.7789ZM19.4238 9.81737L24.0788 13.6324L26.9554 11.2064L19.4238 9.81737ZM24.4988 14.6321L29.2632 13.8642L23.8163 20.4267L24.4988 14.6321ZM23.6894 14.3542L18.7916 10.198L22.9807 20.4311L23.6894 14.3542Z" fill="#141519"/>
</symbol>

<symbol id="stripe" width="46" height="30" viewBox="0 0 46 30" fill="none">
<path fill-rule="evenodd" clip-rule="evenodd" d="M23.7825 10.7617L21.647 11.2303V9.45997L23.7825 9V10.7617ZM28.2237 11.7423C27.3899 11.7423 26.8539 12.1416 26.5561 12.4192L26.4455 11.8812H24.5737V22L26.7008 21.5401L26.7093 19.0841C27.0156 19.3098 27.4665 19.6308 28.2152 19.6308C29.7381 19.6308 31.1249 18.3812 31.1249 15.6302C31.1164 13.1135 29.7126 11.7423 28.2237 11.7423ZM27.7132 17.7216C27.2112 17.7216 26.9134 17.5394 26.7093 17.3137L26.7008 14.0942C26.922 13.8425 27.2283 13.6689 27.7132 13.6689C28.4874 13.6689 29.0235 14.5541 29.0235 15.6909C29.0235 16.8538 28.4959 17.7216 27.7132 17.7216ZM37.8293 15.717C37.8293 13.4954 36.7743 11.7423 34.7579 11.7423C32.7329 11.7423 31.5078 13.4954 31.5078 15.6996C31.5078 18.3118 32.9542 19.6308 35.0301 19.6308C36.0427 19.6308 36.8084 19.3965 37.3869 19.0668V17.3311C36.8084 17.6262 36.1447 17.8084 35.3024 17.8084C34.4771 17.8084 33.7455 17.5134 33.6518 16.4894H37.8123C37.8123 16.4415 37.8154 16.3328 37.8189 16.2076C37.8237 16.0376 37.8293 15.837 37.8293 15.717ZM33.6263 14.8925C33.6263 13.9119 34.2134 13.504 34.7494 13.504C35.2684 13.504 35.8214 13.9119 35.8214 14.8925H33.6263ZM21.647 11.8899H23.7825V19.4834H21.647V11.8899ZM19.2221 11.8899L19.3583 12.5321C19.8602 11.5948 20.8557 11.7857 21.128 11.8899V13.8859C20.8642 13.7904 20.0134 13.6689 19.5114 14.3371V19.4834H17.3844V11.8899H19.2221ZM15.1042 10.0067L13.0282 10.4579L13.0197 17.4092C13.0197 18.6936 13.9641 19.6396 15.2233 19.6396C15.921 19.6396 16.4315 19.5094 16.7122 19.3532V17.5915C16.44 17.7043 15.0957 18.1035 15.0957 16.8191V13.7383H16.7122V11.8899H15.0957L15.1042 10.0067ZM10.076 13.6255C9.62503 13.6255 9.35273 13.7557 9.35273 14.0942C9.35273 14.4637 9.82128 14.6262 10.4026 14.8279C11.3503 15.1567 12.5976 15.5894 12.6029 17.1923C12.6029 18.7457 11.3862 19.6396 9.61653 19.6396C8.8848 19.6396 8.08507 19.492 7.29378 19.1449V17.0794C8.0085 17.4787 8.9103 17.7737 9.61653 17.7737C10.093 17.7737 10.4333 17.6435 10.4333 17.2444C10.4333 16.835 9.92535 16.6479 9.31215 16.4221C8.37827 16.078 7.2002 15.6441 7.2002 14.1983C7.2002 12.6622 8.34879 11.7423 10.076 11.7423C10.7821 11.7423 11.4798 11.8552 12.1859 12.1416V14.1809C11.5393 13.8251 10.7225 13.6255 10.076 13.6255Z" fill="#7C7C7C"/>
</symbol>

<symbol id="skrill" width="46" height="30" viewBox="0 0 46 30" fill="none">
<path fill-rule="evenodd" clip-rule="evenodd" d="M35.2129 10.9828V19.8997H37.666V10.5469L35.2129 10.9828Z" fill="#7C7C7C"/>
<path fill-rule="evenodd" clip-rule="evenodd" d="M31.6318 10.9828L34.0834 10.5469V19.8997H31.6318V10.9828Z" fill="#7C7C7C"/>
<path fill-rule="evenodd" clip-rule="evenodd" d="M28.1396 19.8997V13.0589H30.5924V19.8997H28.1396Z" fill="#7C7C7C"/>
<path fill-rule="evenodd" clip-rule="evenodd" d="M28.1567 11.2017C28.1567 10.5383 28.6984 10 29.3654 10C30.0336 10 30.5748 10.5383 30.5748 11.2017C30.5748 11.8657 30.0336 12.4027 29.3654 12.4027C28.6984 12.4027 28.1567 11.8657 28.1567 11.2017Z" fill="#7C7C7C"/>
<path fill-rule="evenodd" clip-rule="evenodd" d="M26.7563 12.9584C24.4902 13.0311 23.3389 14.0419 23.3389 16.0513V19.8996H25.812V16.7608C25.812 15.5583 25.9707 15.0427 27.4072 14.9935V12.994C27.1656 12.9428 26.7563 12.9584 26.7563 12.9584Z" fill="#7C7C7C"/>
<path fill-rule="evenodd" clip-rule="evenodd" d="M20.1024 13.051C20.0482 13.1877 19.6562 14.2902 18.7056 15.4327V10.5469L16.1743 11.0445V19.8997H18.7056V17.1621C19.4385 18.255 19.8007 19.8997 19.8007 19.8997H22.832C22.5323 18.6608 21.2207 16.3772 21.2207 16.3772C22.3983 14.8933 22.9149 13.3129 22.9974 13.051H20.1024Z" fill="#7C7C7C"/>
<path fill-rule="evenodd" clip-rule="evenodd" d="M11.9295 14.0264C11.6196 14.0065 10.9015 13.9601 10.9015 13.318C10.9015 12.5432 11.9346 12.5432 12.3223 12.5432C13.0042 12.5432 13.8865 12.7431 14.5173 12.9308C14.5173 12.9308 14.8685 13.0542 15.1674 13.1799L15.1953 13.1877V11.0655L15.158 11.0542C14.4132 10.7955 13.5486 10.5469 11.9448 10.5469C9.17985 10.5469 8.2002 12.1467 8.2002 13.5186C8.2002 14.3086 8.54115 16.1696 11.7068 16.3839C11.9759 16.4003 12.6884 16.4412 12.6884 17.1047C12.6884 17.6527 12.1051 17.9751 11.1243 17.9751C10.0495 17.9751 9.00624 17.7035 8.37303 17.4447V19.6296C9.32127 19.8774 10.3905 20 11.6436 20C14.346 20 15.5575 18.486 15.5575 16.9849C15.5575 15.2836 14.2027 14.1778 11.9295 14.0264Z" fill="#7C7C7C"/>
</symbol>

<symbol id="sepa" width="46" height="30" viewBox="0 0 46 30" fill="none">
<path fill-rule="evenodd" clip-rule="evenodd" d="M12.726 13.1898H10.2235C10.2235 12.779 10.1752 12.5032 10.0792 12.3628C9.93033 12.1552 9.51921 12.0512 8.8465 12.0512C8.1932 12.0512 7.76004 12.111 7.54871 12.2307C7.33747 12.3508 7.23177 12.6121 7.23177 13.0142C7.23177 13.3783 7.32535 13.618 7.51302 13.7329C7.64755 13.8144 7.82514 13.8624 8.04672 13.8766L8.55134 13.9123C9.63297 13.9841 10.3085 14.0347 10.578 14.0635C11.4333 14.1497 12.0533 14.3773 12.4381 14.7462C12.7409 15.034 12.9214 15.41 12.9791 15.8744C13.0127 16.1522 13.0295 16.4666 13.0295 16.8158C13.0295 17.6209 12.9527 18.2105 12.7989 18.5842C12.5203 19.2698 11.8944 19.7028 10.9205 19.8846C10.5124 19.9615 9.8882 20 9.04867 20C7.64713 20 6.67044 19.9165 6.11896 19.7487C5.4421 19.5432 4.99588 19.1269 4.77992 18.4998C4.65963 18.1508 4.6001 17.5696 4.6001 16.7559H7.10258C7.10258 16.8466 7.10284 16.916 7.10284 16.9638C7.10284 17.398 7.22761 17.6773 7.47657 17.8017C7.64908 17.8875 7.85743 17.9325 8.10233 17.9378H9.02231C9.49183 17.9378 9.79148 17.9138 9.92067 17.8655C10.1507 17.775 10.3017 17.6293 10.3738 17.4276C10.4122 17.3035 10.4312 17.1429 10.4312 16.9464C10.4312 16.5061 10.2705 16.2382 9.94983 16.1422C9.82988 16.1042 9.27186 16.0513 8.27585 15.9842C7.47607 15.9271 6.9205 15.8721 6.60932 15.8188C5.78998 15.6655 5.24396 15.3502 4.97151 14.8715C4.73202 14.4647 4.61222 13.8492 4.61222 13.026C4.61222 12.399 4.67697 11.8963 4.80635 11.5181C4.93585 11.1398 5.14454 10.8527 5.43252 10.6562C5.85437 10.3548 6.39421 10.1778 7.0513 10.1249C7.59805 10.0772 8.20456 10.0529 8.87176 10.0529C9.92203 10.0529 10.6705 10.1132 11.1168 10.233C12.2058 10.5257 12.7502 11.3457 12.7502 12.6932C12.7502 12.8037 12.7421 12.9689 12.726 13.1898Z" fill="#7C7C7C"/>
<path fill-rule="evenodd" clip-rule="evenodd" d="M26.4205 15.0984H28.0974C28.6292 15.0793 28.9526 15.0383 29.0689 14.9743C29.2279 14.8868 29.3346 14.7118 29.3878 14.4491C29.4217 14.2743 29.4386 14.0144 29.4386 13.6692C29.4386 13.2462 29.405 12.9328 29.3371 12.728C29.2404 12.4411 29.0087 12.2664 28.6416 12.203C28.5692 12.1934 28.3954 12.1884 28.1201 12.1884H26.4205V15.0984ZM23.7305 20V10H28.7422C29.4295 10 29.9541 10.0562 30.3145 10.1683C31.1388 10.4268 31.6918 10.9558 31.9751 11.7554C32.1213 12.1751 32.1945 12.8069 32.1945 13.6506C32.1945 14.6649 32.1134 15.3939 31.9529 15.8377C31.6315 16.7154 30.9698 17.2209 29.9706 17.3519C29.8531 17.3715 29.3532 17.3892 28.4708 17.4032L28.0242 17.4182H26.4205V20H23.7305Z" fill="#7C7C7C"/>
<path fill-rule="evenodd" clip-rule="evenodd" d="M37.4024 16.3236L36.142 11.9887L34.9189 16.3236H37.4024ZM37.9366 18.2717H34.34L33.8568 20H31.0737L34.0768 10H38.1345L41.1744 20H38.4498L37.9366 18.2717Z" fill="#7C7C7C"/>
<path fill-rule="evenodd" clip-rule="evenodd" d="M20.0179 11.4069C21.1274 11.4069 22.1176 11.9182 22.7685 12.7192L23.3483 11.4753C22.4415 10.6177 21.2072 10.0891 19.8458 10.0891C17.7263 10.0891 15.9131 11.3698 15.1689 13.1828H14.0382L13.3706 14.6149H14.8252C14.8143 14.7477 14.8072 14.8806 14.8072 15.0162C14.8072 15.1804 14.8157 15.3426 14.832 15.5029H14.101L13.4334 16.9354H15.2036C15.969 18.7025 17.7595 19.9432 19.8458 19.9432C20.8973 19.9432 21.8729 19.6279 22.6807 19.0896V17.3339C22.0302 18.075 21.0787 18.5432 20.0179 18.5432C18.7779 18.5432 17.6872 17.9035 17.052 16.9354H20.759L21.4266 15.5029H16.5067C16.4813 15.3305 16.4677 15.1543 16.4677 14.9749C16.4677 14.8536 16.474 14.7335 16.4857 14.6149H21.8402L22.5078 13.1828H16.9488C17.5635 12.1213 18.7076 11.4069 20.0179 11.4069Z" fill="#7C7C7C"/>
</symbol>

<symbol id="paypal" width="46" height="30" viewBox="0 0 46 30" fill="none">
<path d="M11.3697 10.4561C10.9277 10.1523 10.3508 9.99994 9.6392 9.99994H6.88418C6.66603 9.99994 6.54551 10.109 6.52261 10.327L5.40342 17.3524C5.39178 17.4214 5.40905 17.4845 5.45505 17.5418C5.50078 17.5993 5.55831 17.6279 5.6272 17.6279H6.93582C7.16534 17.6279 7.2915 17.519 7.31465 17.3008L7.62454 15.4068C7.63586 15.315 7.67623 15.2404 7.74512 15.1829C7.81396 15.1256 7.90007 15.088 8.00338 15.0708C8.10669 15.0538 8.20411 15.0452 8.29611 15.0452C8.38785 15.0452 8.49685 15.051 8.62332 15.0624C8.74948 15.0739 8.8299 15.0794 8.86437 15.0794C9.85151 15.0794 10.6263 14.8013 11.1889 14.2444C11.7512 13.6877 12.0327 12.9158 12.0327 11.9284C12.0327 11.2512 11.8115 10.7605 11.3697 10.4561ZM9.9492 12.5656C9.89162 12.9674 9.74257 13.2313 9.50152 13.3576C9.26042 13.4841 8.91605 13.5469 8.46843 13.5469L7.90017 13.5642L8.19296 11.7218C8.2158 11.5956 8.29038 11.5324 8.41674 11.5324H8.744C9.20294 11.5324 9.53604 11.5986 9.74267 11.7304C9.9492 11.8625 10.0181 12.141 9.9492 12.5656Z" fill="#7C7C7C"/>
<path d="M40.4441 9.99994H39.17C39.0434 9.99994 38.9689 10.0631 38.9461 10.1894L37.8268 17.3524L37.8096 17.3868C37.8096 17.4445 37.8326 17.4987 37.8786 17.5504C37.9243 17.602 37.9819 17.6278 38.0507 17.6278H39.1872C39.405 17.6278 39.5256 17.519 39.5489 17.3007L40.6681 10.2581V10.241C40.668 10.0803 40.5932 9.99994 40.4441 9.99994Z" fill="#7C7C7C"/>
<path d="M25.0503 12.7719C25.0503 12.7146 25.0272 12.66 24.9816 12.6084C24.9355 12.5568 24.8838 12.5309 24.8266 12.5309H23.5007C23.3742 12.5309 23.2709 12.5885 23.1908 12.703L21.3656 15.3893L20.608 12.8064C20.5504 12.6229 20.4242 12.5309 20.2292 12.5309H18.9376C18.8801 12.5309 18.8284 12.5567 18.7828 12.6084C18.7367 12.66 18.7139 12.7147 18.7139 12.7719C18.7139 12.7951 18.8258 13.1335 19.0496 13.7878C19.2734 14.4422 19.5145 15.1482 19.7728 15.906C20.0311 16.6635 20.1658 17.0655 20.1774 17.1111C19.2361 18.3969 18.7655 19.0857 18.7655 19.1773C18.7655 19.3267 18.8401 19.4012 18.9893 19.4012H20.3152C20.4415 19.4012 20.5447 19.344 20.6252 19.2291L25.016 12.8924C25.0388 12.8696 25.0503 12.8296 25.0503 12.7719Z" fill="#7C7C7C"/>
<path d="M37.3961 12.5314H36.0874C35.9266 12.5314 35.8293 12.7208 35.7949 13.0996C35.4961 12.6407 34.9512 12.4108 34.159 12.4108C33.3325 12.4108 32.6292 12.7208 32.0497 13.3407C31.4699 13.9606 31.1802 14.6897 31.1802 15.5275C31.1802 16.205 31.3781 16.7444 31.7741 17.146C32.1702 17.5481 32.7011 17.7487 33.367 17.7487C33.6998 17.7487 34.0385 17.6797 34.3828 17.5421C34.7272 17.4044 34.9968 17.2208 35.1922 16.9911C35.1922 17.0026 35.1805 17.0542 35.1578 17.146C35.1346 17.238 35.1233 17.307 35.1233 17.3526C35.1233 17.5365 35.1977 17.6281 35.3472 17.6281H36.5354C36.7532 17.6281 36.8796 17.5193 36.914 17.301L37.62 12.8069C37.6314 12.738 37.6141 12.675 37.5684 12.6175C37.5223 12.5602 37.465 12.5314 37.3961 12.5314ZM35.1491 15.9235C34.8564 16.2105 34.5034 16.354 34.0902 16.354C33.7571 16.354 33.4876 16.2623 33.2809 16.0785C33.0742 15.8951 32.9709 15.6425 32.9709 15.3209C32.9709 14.8964 33.1144 14.5375 33.4014 14.2447C33.6881 13.952 34.0442 13.8056 34.469 13.8056C34.7901 13.8056 35.0571 13.9004 35.2696 14.0897C35.4819 14.2791 35.5883 14.5404 35.5883 14.8733C35.5882 15.2865 35.4418 15.6367 35.1491 15.9235Z" fill="#7C7C7C"/>
<path d="M17.8352 12.5314H16.5266C16.3657 12.5314 16.2683 12.7208 16.2338 13.0996C15.9239 12.6407 15.3786 12.4108 14.598 12.4108C13.7715 12.4108 13.0683 12.7208 12.4887 13.3407C11.9089 13.9606 11.6191 14.6897 11.6191 15.5275C11.6191 16.205 11.8172 16.7444 12.2132 17.146C12.6093 17.5481 13.1401 17.7487 13.806 17.7487C14.1272 17.7487 14.4603 17.6797 14.8046 17.5421C15.149 17.4044 15.4245 17.2208 15.6311 16.9911C15.5851 17.1288 15.5622 17.2494 15.5622 17.3526C15.5622 17.5365 15.6368 17.6281 15.7861 17.6281H16.9742C17.1921 17.6281 17.3185 17.5193 17.353 17.301L18.0589 12.8069C18.0703 12.738 18.0531 12.675 18.0073 12.6175C17.9614 12.5602 17.9041 12.5314 17.8352 12.5314ZM15.5881 15.9321C15.2954 16.2136 14.9365 16.354 14.512 16.354C14.1789 16.354 13.912 16.2623 13.7113 16.0785C13.5103 15.8951 13.4099 15.6425 13.4099 15.3209C13.4099 14.8964 13.5533 14.5375 13.8404 14.2447C14.1272 13.952 14.4831 13.8056 14.908 13.8056C15.2292 13.8056 15.4961 13.9004 15.7087 14.0897C15.9209 14.2791 16.0272 14.5404 16.0272 14.8733C16.0272 15.298 15.8809 15.6511 15.5881 15.9321Z" fill="#7C7C7C"/>
<path d="M30.9303 10.4561C30.4883 10.1523 29.9115 9.99994 29.1998 9.99994H26.462C26.2323 9.99994 26.106 10.109 26.0832 10.327L24.964 17.3523C24.9523 17.4213 24.9695 17.4844 25.0156 17.5418C25.0612 17.5993 25.1189 17.6278 25.1878 17.6278H26.5996C26.7374 17.6278 26.8292 17.5533 26.8752 17.404L27.1851 15.4068C27.1965 15.315 27.2367 15.2403 27.3057 15.1829C27.3746 15.1255 27.4606 15.088 27.564 15.0708C27.6672 15.0537 27.7647 15.0451 27.8567 15.0451C27.9485 15.0451 28.0575 15.0509 28.1838 15.0623C28.31 15.0738 28.3906 15.0794 28.4248 15.0794C29.4121 15.0794 30.1868 14.8012 30.7494 14.2444C31.3119 13.6877 31.5931 12.9157 31.5931 11.9284C31.5932 11.2512 31.3721 10.7605 30.9303 10.4561ZM29.1653 13.2887C28.9128 13.4609 28.5339 13.5469 28.0289 13.5469L27.4779 13.5642L27.7707 11.7218C27.7934 11.5956 27.868 11.5324 27.9945 11.5324H28.3043C28.5568 11.5324 28.7577 11.5439 28.9071 11.5668C29.0561 11.59 29.1998 11.6615 29.3375 11.782C29.4754 11.9026 29.5442 12.0777 29.5442 12.3073C29.5442 12.7894 29.4177 13.1165 29.1653 13.2887Z" fill="#7C7C7C"/>
</symbol>

<symbol id="payline" width="46" height="30" viewBox="0 0 46 30" fill="none">
<path d="M38.639 12.1239C38.6812 12.1692 38.7128 12.2145 38.7549 12.2712C38.7865 12.3165 38.8181 12.3505 38.8496 12.3959C38.8918 12.4412 38.934 12.4979 38.9656 12.5432C38.9971 12.5886 39.0393 12.6339 39.0709 12.6792C39.1131 12.7359 39.1552 12.7926 39.1971 12.8492C39.2393 12.9059 39.2709 12.9512 39.3131 13.0079C39.3553 13.0532 39.3868 13.0986 39.429 13.1439C39.4606 13.1892 39.4921 13.2232 39.5237 13.2686C39.5659 13.3252 39.6187 13.3819 39.6609 13.4386C39.7027 13.4839 39.7346 13.5406 39.7765 13.5859C39.8084 13.6313 39.8502 13.6653 39.8821 13.7106C39.9031 13.7333 39.9137 13.7559 39.9346 13.7786C39.9559 13.8126 39.9874 13.8353 40.0084 13.8693C40.0293 13.8919 40.0506 13.9259 40.0715 13.9486C40.0927 13.9713 40.1243 14.0053 40.1349 14.0393C40.1665 14.0846 40.2087 14.1186 40.2402 14.1753C40.2612 14.2093 40.2927 14.2319 40.314 14.2659C40.3562 14.3226 40.4087 14.3906 40.4509 14.4473C40.4718 14.4813 40.5034 14.5039 40.5246 14.5379C40.5562 14.5833 40.5877 14.6173 40.6193 14.6626C40.6406 14.6966 40.6721 14.7193 40.6931 14.7533C40.7246 14.7986 40.7565 14.8439 40.7881 14.8893C40.8196 14.9346 40.8618 14.9799 40.9037 15.0253C40.9356 15.0593 40.9565 15.0933 40.9774 15.1273C41.0093 15.1613 40.9987 15.1953 40.9671 15.2293C40.9249 15.2859 40.8827 15.3426 40.8302 15.3993C40.7984 15.4446 40.7565 15.49 40.7246 15.524C40.6827 15.5693 40.6509 15.626 40.609 15.6713C40.5771 15.7166 40.5352 15.762 40.5034 15.8073C40.4615 15.8526 40.4299 15.9093 40.3981 15.9546C40.3665 16 40.3243 16.0453 40.2927 16.0906C40.2718 16.1246 40.2402 16.1587 40.219 16.1927C40.1874 16.238 40.1559 16.272 40.1243 16.3173C40.0927 16.3513 40.0715 16.3853 40.0399 16.4193C39.9977 16.476 39.9452 16.5327 39.9031 16.5893C39.8715 16.6347 39.8293 16.68 39.7977 16.7253C39.7556 16.7707 39.7134 16.8273 39.6818 16.8727C39.6609 16.9067 39.629 16.9407 39.6081 16.9747C39.5765 17.02 39.5343 17.0653 39.5027 17.1107C39.4712 17.156 39.429 17.2013 39.3974 17.2467C39.3446 17.3033 39.3024 17.3713 39.2499 17.428C39.1971 17.496 39.1446 17.564 39.0918 17.632C39.0496 17.6773 39.0077 17.734 38.9759 17.7793C38.9443 17.8247 38.9128 17.87 38.8706 17.9153C38.839 17.9607 38.7968 18.006 38.7652 18.0514C38.7337 18.0967 38.6915 18.142 38.6599 18.1874C38.6599 18.1874 38.6493 18.1874 38.639 18.1987C38.639 16.1813 38.639 14.1639 38.639 12.1465C38.6284 12.1239 38.639 12.1239 38.639 12.1239Z" fill="#7C7C7C"/>
<path fill-rule="evenodd" clip-rule="evenodd" d="M6.66888 12.3248H5.6001C5.6001 14.8762 5.6001 17.4381 5.62105 20H6.73175V17.3126C6.76351 17.3506 6.79912 17.381 6.83391 17.4106C6.85651 17.4299 6.87877 17.4489 6.8994 17.4695C7.05657 17.6159 7.24518 17.7309 7.44427 17.8041C7.72718 17.9086 8.01009 17.9086 8.30348 17.8877C8.49209 17.8773 8.6807 17.8459 8.86931 17.7936C9.0684 17.7413 9.24653 17.6577 9.39322 17.5217C9.63422 17.3021 9.7914 17.0303 9.89618 16.727C9.99047 16.4447 10.0533 16.1624 10.0743 15.8591C10.0953 15.65 10.1162 15.4409 10.1162 15.2317C10.1162 15.0017 10.1057 14.7612 10.0953 14.5311C10.0848 14.3847 10.0638 14.2383 10.0429 14.092C10.0114 13.9037 9.96953 13.7155 9.91712 13.5273C9.84378 13.2763 9.72853 13.0567 9.56087 12.858C9.42465 12.6907 9.26747 12.5653 9.07887 12.4816C8.93219 12.4084 8.775 12.3666 8.61783 12.3248C8.35587 12.262 8.09392 12.2411 7.83196 12.2725C7.63288 12.2934 7.43379 12.3561 7.25566 12.4398C7.07753 12.5339 6.90988 12.6489 6.76318 12.7953C6.73175 12.8162 6.70031 12.8476 6.66888 12.879V12.3248ZM8.91122 14.3429C8.96362 14.573 8.98456 14.8239 8.96362 15.0644C8.96362 15.1007 8.96425 15.1376 8.9649 15.1749C8.96687 15.2879 8.9689 15.4039 8.95312 15.5141C8.92169 15.8277 8.87978 16.1519 8.72261 16.4342C8.5864 16.6852 8.38731 16.8421 8.1044 16.8839C7.96818 16.9048 7.83196 16.9152 7.69575 16.9048C7.44427 16.8839 7.22423 16.7793 7.06705 16.5702C6.90988 16.3715 6.82605 16.1415 6.77366 15.901C6.75271 15.765 6.73175 15.6186 6.72127 15.4827C6.71865 15.4304 6.71537 15.3781 6.7121 15.3258C6.70228 15.169 6.69246 15.0121 6.70031 14.8553C6.71079 14.4893 6.76318 14.1233 6.95179 13.7887C7.10896 13.5064 7.33949 13.3286 7.66431 13.2763C7.83196 13.2554 7.99962 13.2449 8.16726 13.3077C8.38731 13.3809 8.55496 13.5273 8.6807 13.726C8.79597 13.9142 8.86931 14.1233 8.91122 14.3429Z" fill="#7C7C7C"/>
<path fill-rule="evenodd" clip-rule="evenodd" d="M14.1752 17.5327V18.0211C14.5461 18.0211 14.9065 18.0211 15.2773 18.0319V17.956V14.0271C15.2773 13.8209 15.2456 13.6147 15.1714 13.4085C15.0336 13.0286 14.7793 12.7464 14.4296 12.5511C14.2176 12.4317 13.9951 12.3666 13.7513 12.3232C13.5076 12.2906 13.2639 12.2581 13.0201 12.2581C12.9142 12.2581 12.8082 12.2581 12.7022 12.2689C12.6068 12.2689 12.5221 12.2689 12.4267 12.2906C12.1935 12.334 11.9604 12.3883 11.7484 12.486C11.4517 12.6162 11.1974 12.7899 11.0066 13.0503C10.9854 13.0829 10.996 13.0937 11.0173 13.1155C11.0596 13.148 11.102 13.1914 11.1444 13.2348C11.208 13.3 11.2742 13.3624 11.3405 13.4248C11.4067 13.4872 11.4729 13.5496 11.5365 13.6147C11.563 13.6364 11.5868 13.6608 11.6107 13.6852C11.6345 13.7097 11.6584 13.7341 11.6849 13.7558C11.7061 13.7775 11.7272 13.7884 11.7591 13.7558C11.7944 13.7124 11.8297 13.6786 11.865 13.6448C11.8827 13.628 11.9003 13.6111 11.918 13.593C12.0452 13.4736 12.1935 13.3868 12.3525 13.3325C12.575 13.2457 12.8082 13.2131 13.0519 13.2457C13.2321 13.2674 13.4122 13.2891 13.5818 13.3542C13.8361 13.4519 14.0163 13.6147 14.0905 13.886C14.1208 13.9896 14.1318 14.1031 14.142 14.2077C14.1425 14.2126 14.143 14.2176 14.1434 14.2225C14.1504 14.323 14.1482 14.4235 14.1458 14.5272C14.1447 14.5802 14.1434 14.6341 14.1434 14.6892H14.1117C13.5924 14.6892 13.0625 14.6892 12.5327 14.7C12.4267 14.7 12.3207 14.7109 12.2147 14.7217C11.9392 14.7543 11.6849 14.852 11.4517 15.0039C11.1656 15.1884 10.9537 15.438 10.8477 15.7745C10.7735 16.0024 10.7417 16.2412 10.7735 16.4799C10.7841 16.5396 10.792 16.602 10.8 16.6644C10.8079 16.7268 10.8159 16.7892 10.8265 16.849C10.8795 17.0877 10.9748 17.3048 11.1338 17.4893C11.2822 17.6738 11.4729 17.804 11.6849 17.9017C11.9392 18.0102 12.1935 18.0645 12.4585 18.0645C12.6492 18.0645 12.84 18.0536 13.0307 18.0319C13.1685 18.0211 13.3062 17.9994 13.444 17.9668C13.6242 17.9234 13.7831 17.8149 13.9421 17.7064C14.0163 17.6521 14.0905 17.5978 14.1752 17.5327ZM14.0905 15.5031H14.154V16.0675C14.1434 16.2086 14.1328 16.3497 14.1011 16.4908C14.0692 16.6319 13.9739 16.7404 13.8679 16.8381C13.7089 16.9792 13.5288 17.0551 13.3274 17.0877C13.1897 17.1094 13.0519 17.1311 12.9142 17.1094C12.8612 17.104 12.8082 17.1013 12.7552 17.0986C12.7022 17.0959 12.6492 17.0931 12.5962 17.0877C12.4055 17.066 12.2147 17.0117 12.0664 16.8706C11.9816 16.7838 11.918 16.6753 11.8968 16.545C11.865 16.3823 11.8544 16.2195 11.9074 16.0567C11.971 15.8721 12.0876 15.7528 12.2465 15.6551C12.4267 15.5466 12.628 15.5031 12.84 15.5031H14.0905Z" fill="#7C7C7C"/>
<path fill-rule="evenodd" clip-rule="evenodd" d="M33.2077 16.0262C33.1646 15.8639 33.1431 15.7016 33.1216 15.5285C34.3588 15.5285 35.5746 15.5285 36.8225 15.5177C36.8234 15.5085 36.8242 15.4993 36.8251 15.4902C36.8349 15.3818 36.8441 15.2812 36.8441 15.1715C36.8441 15.1321 36.8412 15.0957 36.8384 15.0607C36.8358 15.0283 36.8333 14.9971 36.8333 14.9659C36.8333 14.8469 36.8225 14.7278 36.8118 14.6088C36.7903 14.4466 36.7688 14.2951 36.7365 14.1328C36.6612 13.7757 36.5321 13.4403 36.3169 13.1374C36.1878 12.9426 36.0264 12.7803 35.8435 12.6505C35.4777 12.4017 35.0689 12.2826 34.6278 12.261C34.4826 12.2529 34.3373 12.263 34.1921 12.2732C34.1436 12.2766 34.0952 12.2799 34.0468 12.2826C33.8531 12.2935 33.6703 12.3476 33.4874 12.4125C33.1646 12.5315 32.8957 12.7262 32.6697 12.9859C32.5406 13.1266 32.433 13.2889 32.3577 13.462C32.2717 13.6459 32.2071 13.8298 32.1533 14.0138C32.0672 14.2842 32.035 14.5547 32.0134 14.8361C32.0027 14.9983 32.0027 15.1498 32.0134 15.3121C32.0134 15.4275 32.023 15.5429 32.0326 15.6583C32.0373 15.716 32.0421 15.7737 32.0457 15.8314C32.0565 16.037 32.1103 16.2426 32.1748 16.4373C32.2717 16.7727 32.4223 17.0649 32.6482 17.3245C32.8418 17.5517 33.0785 17.7249 33.3583 17.8547C33.6595 17.9845 33.9823 18.0494 34.305 18.0603C34.531 18.0711 34.7461 18.0603 34.9721 18.0386C35.1119 18.0278 35.2518 18.0061 35.3809 17.9737C35.6391 17.9088 35.8866 17.8222 36.1125 17.6816C36.3061 17.5625 36.489 17.4111 36.6396 17.2271C36.6612 17.2055 36.6612 17.1839 36.6396 17.1622C36.5859 17.1081 36.5321 17.0567 36.4783 17.0054C36.4245 16.954 36.3707 16.9026 36.3169 16.8485L35.9619 16.4914C35.9135 16.5293 35.8677 16.5672 35.822 16.605C35.7763 16.6429 35.7306 16.6808 35.6821 16.7186C35.3809 16.9567 35.0259 17.0757 34.6386 17.0865C34.4772 17.0973 34.305 17.0649 34.1436 17.0324C33.9607 16.9891 33.7886 16.9134 33.6487 16.7944C33.4121 16.5888 33.283 16.3183 33.2077 16.0262ZM35.6606 14.6737H33.1431C33.1538 14.5764 33.1538 14.479 33.1538 14.3816C33.1592 14.3602 33.1645 14.3385 33.1699 14.3165C33.1971 14.2056 33.2255 14.0897 33.2614 13.9813C33.3906 13.6351 33.6165 13.3754 33.9715 13.2672C34.3266 13.159 34.6816 13.1807 35.0151 13.3646C35.2518 13.4944 35.4024 13.7 35.4992 13.938C35.553 14.0787 35.5961 14.2301 35.6283 14.3816C35.6427 14.4466 35.6475 14.5115 35.6522 14.5764C35.6546 14.6088 35.657 14.6413 35.6606 14.6737Z" fill="#7C7C7C"/>
<path d="M19.5009 12.2581C19.9138 12.2581 20.3376 12.2581 20.7614 12.2581C20.7614 12.2792 20.7614 12.2898 20.7505 12.3109C20.6418 12.5963 20.5332 12.8923 20.4245 13.1776C20.3376 13.3891 20.2616 13.611 20.1746 13.8224C20.0442 14.1712 19.903 14.52 19.7726 14.8794C19.6748 15.1331 19.577 15.3868 19.4792 15.6405C19.3488 15.9893 19.2076 16.3486 19.0772 16.6975C18.9794 16.9617 18.8816 17.226 18.7729 17.4902C18.6534 17.8073 18.5339 18.1244 18.4035 18.4415C18.2948 18.7163 18.197 18.9911 18.0667 19.2554C17.8928 19.6148 17.5886 19.8579 17.1865 19.953C17.0778 19.9741 16.9692 19.9847 16.8605 19.9953C16.7084 20.0059 16.5563 19.9953 16.4042 19.9953C16.2303 19.9953 16.0673 19.9953 15.8826 19.9953C15.8826 19.6676 15.8826 19.3294 15.8826 18.9806C15.9369 18.9806 15.9804 18.9806 16.0347 18.9806C16.2194 18.9806 16.3933 18.9806 16.578 18.9806C16.8714 18.97 17.1322 18.8115 17.23 18.5366C17.3495 18.2301 17.4582 17.913 17.5668 17.5959C17.5886 17.5325 17.5451 17.4902 17.5342 17.4374C17.4473 17.1942 17.3604 16.9617 17.2734 16.7291C17.1539 16.4015 17.0235 16.0738 16.904 15.7461C16.7519 15.3551 16.6106 14.964 16.4585 14.5729C16.3173 14.1924 16.1651 13.8118 16.0239 13.4313C15.8935 13.0719 15.7522 12.7126 15.6218 12.3532C15.611 12.3426 15.611 12.3215 15.6001 12.3003C15.9913 12.3003 16.3933 12.3003 16.7845 12.3003C16.8171 12.3003 16.8279 12.3215 16.8279 12.3426C16.8931 12.5329 16.9583 12.7231 17.0235 12.9134C17.1648 13.3045 17.2952 13.6956 17.4364 14.0866C17.5668 14.4566 17.6972 14.8266 17.8276 15.2071C17.9362 15.5136 18.0449 15.8201 18.1536 16.1267C18.1536 16.1372 18.1644 16.1478 18.1753 16.1584C18.6317 14.8371 19.0663 13.5476 19.5009 12.2581Z" fill="#7C7C7C"/>
<path d="M30.2097 17.7419C30.2097 17.7212 30.2097 17.6902 30.2097 17.6695C30.2097 16.5528 30.2097 15.4465 30.2097 14.3298C30.2097 14.0506 30.1253 13.7921 29.9354 13.5646C29.7771 13.3682 29.5556 13.2647 29.3129 13.2441C29.1968 13.2337 29.0807 13.2234 28.9647 13.2337C28.6587 13.2647 28.3949 13.3785 28.2155 13.637C28.0889 13.8128 28.0256 14.0092 27.9939 14.2264C27.9833 14.2987 27.9833 14.3711 27.9833 14.4435C27.9833 15.5188 27.9833 16.5839 27.9833 17.6592C27.9833 17.6799 27.9833 17.7005 27.9833 17.7316C27.6035 17.7316 27.2236 17.7316 26.8438 17.7316C26.8438 15.9221 26.8438 14.1126 26.8438 12.3031C27.2025 12.3031 27.5613 12.3031 27.9306 12.3031C27.9306 12.4789 27.9306 12.6547 27.9306 12.8512C28.0044 12.7891 28.0677 12.7271 28.1416 12.6754C28.3949 12.4893 28.6692 12.3652 28.9857 12.3031C29.1968 12.2618 29.4078 12.2514 29.6189 12.2618C29.8616 12.2721 30.1042 12.3238 30.3258 12.4272C30.5474 12.5306 30.7373 12.6754 30.9061 12.8512C31.075 13.0476 31.2016 13.2751 31.2649 13.5336C31.3177 13.7404 31.3388 13.9472 31.3388 14.154C31.3388 14.5159 31.3493 14.8778 31.3493 15.2397C31.3493 15.9014 31.3599 16.5632 31.3599 17.2249C31.3599 17.3904 31.3599 17.5661 31.3599 17.7419C30.9589 17.7419 30.5896 17.7419 30.2097 17.7419Z" fill="#7C7C7C"/>
<path d="M21.3599 10C21.754 10 22.1374 10 22.5315 10C22.5315 10.0211 22.5315 10.0421 22.5315 10.0632C22.5315 12.1159 22.5315 14.1581 22.5315 16.2003C22.5315 16.3687 22.5741 16.5372 22.7019 16.6635C22.7765 16.7372 22.8723 16.7793 22.9789 16.7793C23.1493 16.7793 23.309 16.7898 23.4795 16.7898C23.5221 16.7898 23.5753 16.7898 23.6179 16.7793C23.6179 17.0951 23.6179 17.4109 23.6179 17.7372C23.586 17.7372 23.5753 17.7372 23.554 17.7372C23.2771 17.7372 23.0108 17.7478 22.7339 17.7372C22.425 17.7267 22.148 17.632 21.9137 17.4425C21.6261 17.2214 21.4664 16.9162 21.4025 16.5687C21.3705 16.4003 21.3599 16.2214 21.3599 16.0529C21.3599 14.0528 21.3599 12.0633 21.3599 10.0632C21.3599 10.0526 21.3599 10.0316 21.3599 10Z" fill="#7C7C7C"/>
<path d="M24.5859 12.2581C24.9647 12.2581 25.3223 12.2581 25.6905 12.2581C25.6905 14.086 25.6905 15.914 25.6905 17.7419C25.3223 17.7419 24.9541 17.7419 24.5859 17.7419C24.5859 15.914 24.5859 14.086 24.5859 12.2581Z" fill="#7C7C7C"/>
<path d="M25.6905 11.2903C25.3223 11.2903 24.9541 11.2903 24.5859 11.2903C24.5859 10.8642 24.5859 10.438 24.5859 10C24.9541 10 25.3223 10 25.6905 10C25.6905 10.4262 25.6905 10.8523 25.6905 11.2903Z" fill="#7C7C7C"/>
</symbol>

<symbol id="mastercard" width="46" height="30" viewBox="0 0 46 30" fill="none">
<g clip-path="url(#clip0_1_254)">
<path d="M25.9639 9.82211H19.4189V21.1779H25.9639V9.82211Z" fill="#909090"/>
<path d="M19.8352 15.5006C19.8347 14.4042 20.0916 13.323 20.5852 12.3439C21.0856 11.3535 21.8062 10.4909 22.6919 9.82227C21.5786 8.98107 20.2558 8.46139 18.8677 8.31977C17.4751 8.17483 16.0693 8.41162 14.801 9.00477C13.5484 9.58844 12.4843 10.5114 11.7294 11.6689C10.987 12.8092 10.5911 14.1401 10.5894 15.5006C10.5894 16.8556 10.9844 18.1839 11.7294 19.3323C12.4841 20.4897 13.5479 21.4126 14.8002 21.9964C16.0687 22.5897 17.4748 22.8265 18.8677 22.6814C20.2558 22.5398 21.5786 22.0201 22.6919 21.1789C21.8066 20.5105 21.0863 19.6481 20.586 18.6581C20.092 17.6789 19.8348 16.5974 19.8352 15.5006Z" fill="#7C7C7C"/>
<path d="M34.7939 15.4999C34.7939 16.8549 34.3989 18.1832 33.6547 19.3315C32.8999 20.4891 31.8358 21.4121 30.5831 21.9957C29.3148 22.5889 27.909 22.8257 26.5164 22.6807C25.128 22.5392 23.8049 22.0195 22.6914 21.1782C23.5761 20.5091 24.2961 19.6465 24.7964 18.6565C25.2904 17.6775 25.5481 16.5964 25.5489 15.4999C25.5482 14.4036 25.2908 13.3228 24.7972 12.344C24.297 11.3537 23.577 10.4909 22.6922 9.82152C23.8053 8.98046 25.1277 8.46078 26.5156 8.31902C27.9084 8.17392 29.3145 8.41072 30.5831 9.00402C31.8357 9.58769 32.8998 10.5106 33.6547 11.6682C34.3968 12.8085 34.7924 14.1394 34.7939 15.4999ZM34.0806 19.9774V19.744H34.1772V19.6974H33.9306V19.744H34.0272V19.9774H34.0806ZM34.5606 19.9774V19.6965H34.4847L34.3972 19.8899L34.3097 19.6965H34.2347V19.9774H34.2881V19.7657L34.3697 19.9482H34.4256L34.5072 19.7649V19.9774H34.5606Z" fill="#7C7C7C"/>
</g>
<defs>
<clipPath>
<rect width="25" height="15" fill="white" transform="translate(10.2002 8)"/>
</clipPath>
</defs>
</symbol>

<symbol id="maestro" width="46" height="30" viewBox="0 0 46 30" fill="none">
<path d="M25.9265 21.3974H19.3154V9.60455H25.9265V21.3974Z" fill="#909090"/>
<path d="M19.739 15.5C19.739 13.1078 20.8674 10.9768 22.6247 9.60356C21.3396 8.59937 19.7178 8 17.9552 8C13.7824 8 10.3999 11.3578 10.3999 15.5C10.3999 19.6422 13.7824 23 17.9552 23C19.7178 23 21.3396 22.4007 22.6247 21.3965C20.8674 20.0232 19.739 17.8922 19.739 15.5Z" fill="#7C7C7C"/>
<path d="M34.843 15.5C34.843 19.6422 31.4604 23 27.2877 23C25.525 23 23.9032 22.4007 22.6177 21.3965C24.3755 20.0232 25.5039 17.8922 25.5039 15.5C25.5039 13.1078 24.3755 10.9768 22.6177 9.60356C23.9032 8.59937 25.525 8 27.2877 8C31.4604 8 34.843 11.3578 34.843 15.5Z" fill="#7C7C7C"/>
</symbol>

<symbol id="litecoin" width="46" height="30" viewBox="0 0 46 30" fill="none">
<path fill-rule="evenodd" clip-rule="evenodd" d="M13.6001 15C13.6001 9.47715 18.0772 5 23.6001 5H23.6582C26.3026 5.00769 28.8357 6.06559 30.7002 7.94096C32.5646 9.81632 33.6077 12.3555 33.6 15C33.6 20.5228 29.1229 25 23.6001 25C18.0772 25 13.6001 20.5228 13.6001 15ZM22.7284 18.8499L23.7695 15.339L25.3918 14.8789L25.7308 13.7167L24.1327 14.201L25.8276 8.43824V8.34623C25.8251 8.27172 25.7931 8.20128 25.7386 8.15041C25.6841 8.09955 25.6116 8.07243 25.5371 8.07505H23.3821C23.2143 8.06987 23.0645 8.17973 23.0189 8.34139L21.0093 15.1695L19.4112 15.6537L19.048 16.7675L20.6461 16.2833L19.2175 21.1501H27.7405C27.9089 21.1571 28.0597 21.0465 28.1037 20.8838L28.5879 19.2131V19.121C28.5854 19.0465 28.5534 18.9761 28.4989 18.9252C28.4444 18.8744 28.3719 18.8472 28.2974 18.8499H22.7284Z" fill="#7C7C7C"/>
</symbol>

<symbol id="jcb" width="45" height="30" viewBox="0 0 45 30" fill="none">
<path d="M29.0659 16.9286H30.7967C30.8461 16.9286 30.9615 16.9121 31.011 16.9121C31.3406 16.8462 31.6209 16.5495 31.6209 16.1374C31.6209 15.7418 31.3406 15.4451 31.011 15.3626C30.9615 15.3462 30.8626 15.3462 30.7967 15.3462H29.0659V16.9286Z" fill="#7C7C7C"/>
<path d="M30.599 6C28.9507 6 27.599 7.33516 27.599 9V12.1154H31.8353C31.9342 12.1154 32.0496 12.1154 32.132 12.1319C33.088 12.1813 33.7968 12.6758 33.7968 13.533C33.7968 14.2088 33.3188 14.7857 32.4287 14.9011V14.9341C33.4012 15 34.143 15.544 34.143 16.3846C34.143 17.2912 33.3188 17.8846 32.2309 17.8846H27.5825V23.9835H31.9836C33.632 23.9835 34.9836 22.6484 34.9836 20.9835V6H30.599Z" fill="#7C7C7C"/>
<path d="M31.4066 13.7308C31.4066 13.3352 31.1264 13.0714 30.7967 13.022C30.7637 13.022 30.6813 13.0055 30.6319 13.0055H29.0659V14.456H30.6319C30.6813 14.456 30.7802 14.456 30.7967 14.4396C31.1264 14.3901 31.4066 14.1264 31.4066 13.7308Z" fill="#7C7C7C"/>
<path d="M14.0165 6C12.3681 6 11.0165 7.33516 11.0165 9V16.4011C11.8571 16.8132 12.7308 17.0769 13.6044 17.0769C14.6429 17.0769 15.2033 16.4506 15.2033 15.5934V12.0989H17.7747V15.5769C17.7747 16.9286 16.9341 18.033 14.0824 18.033C12.3516 18.033 11 17.6538 11 17.6538V23.967H15.4011C17.0495 23.967 18.4011 22.6319 18.4011 20.967V6H14.0165Z" fill="#7C7C7C"/>
<path d="M22.3076 6C20.6593 6 19.3076 7.33516 19.3076 9V12.9231C20.0659 12.2802 21.3845 11.8681 23.5109 11.967C24.6483 12.0165 25.8681 12.3297 25.8681 12.3297V13.5989C25.2582 13.2857 24.5329 13.0055 23.5933 12.9396C21.9779 12.8242 21.0054 13.6154 21.0054 15C21.0054 16.4011 21.9779 17.1923 23.5933 17.0604C24.5329 16.9945 25.2582 16.6978 25.8681 16.4011V17.6703C25.8681 17.6703 24.6648 17.9835 23.5109 18.033C21.3845 18.1319 20.0659 17.7198 19.3076 17.0769V24H23.7087C25.3571 24 26.7087 22.6648 26.7087 21V6H22.3076Z" fill="#7C7C7C"/>
</symbol>

<symbol id="google-pay" width="46" height="30" viewBox="0 0 46 30" fill="none">
<path fill-rule="evenodd" clip-rule="evenodd" d="M22.2407 19.3866V15.8649H24.0582C24.803 15.8649 25.4317 15.6154 25.9441 15.1232L26.0671 14.9984C27.0033 13.9794 26.9418 12.3919 25.9441 11.4491C25.4453 10.95 24.7621 10.6796 24.0582 10.6935H21.1406V19.3866H22.2407ZM22.2408 14.7974V11.7611H24.086C24.4824 11.7611 24.8583 11.9135 25.1385 12.1909C25.733 12.7731 25.7467 13.7437 25.1726 14.3468C24.8924 14.6449 24.496 14.8112 24.086 14.7974H22.2408ZM31.1987 13.9031C30.7272 13.4664 30.085 13.2446 29.2718 13.2446C28.2264 13.2446 27.4406 13.6327 26.9213 14.4022L27.8915 15.0192C28.2469 14.4923 28.732 14.229 29.347 14.229C29.7365 14.229 30.1122 14.3746 30.4061 14.6379C30.6931 14.8875 30.8571 15.248 30.8571 15.6293V15.8857C30.4334 15.6501 29.9004 15.5253 29.2445 15.5253C28.4792 15.5253 27.8642 15.7055 27.4064 16.0729C26.9486 16.4403 26.7163 16.9256 26.7163 17.5426C26.7026 18.1041 26.9418 18.6379 27.3655 18.9983C27.7959 19.3866 28.3426 19.5807 28.9848 19.5807C29.7433 19.5807 30.3446 19.241 30.8024 18.5616H30.8502V19.3866H31.9025V15.7194C31.9025 14.9499 31.6702 14.3399 31.1987 13.9031ZM28.2129 18.2913C27.9874 18.1248 27.8507 17.8545 27.8507 17.5634C27.8507 17.2376 28.0011 16.9672 28.2949 16.7523C28.5956 16.5374 28.9715 16.4265 29.4157 16.4265C30.0308 16.4195 30.5091 16.5582 30.8508 16.8354C30.8508 17.3069 30.6663 17.7159 30.3041 18.0625C29.9761 18.3952 29.5319 18.5824 29.0672 18.5824C28.7596 18.5893 28.4589 18.4853 28.2129 18.2913ZM34.2667 22L37.9428 13.4387H36.7471L35.0457 17.7089H35.0252L33.2828 13.4387H32.087L34.499 19.0053L33.1324 22H34.2667Z" fill="#7C7C7C"/>
<path d="M18.4427 15.1025C18.4427 14.7628 18.4154 14.4231 18.3608 14.0904H13.7212V16.0106H16.3792C16.2699 16.6276 15.9146 17.1822 15.3952 17.5288V18.7766H16.9805C17.9097 17.9101 18.4427 16.6276 18.4427 15.1025Z" fill="#7C7C7C"/>
<path d="M13.7217 19.9827C15.0473 19.9827 16.1679 19.539 16.981 18.7764L15.3958 17.5287C14.9517 17.8337 14.3846 18.007 13.7217 18.007C12.4372 18.007 11.3507 17.1265 10.9612 15.9481H9.32812V17.2375C10.1618 18.922 11.8632 19.9827 13.7217 19.9827Z" fill="#7C7C7C"/>
<path d="M10.961 15.9481C10.7561 15.3311 10.7561 14.6587 10.961 14.0348V12.7523H9.32775C8.62382 14.1596 8.62382 15.8233 9.32775 17.2305L10.961 15.9481Z" fill="#7C7C7C"/>
<path d="M13.7217 11.976C14.4255 11.9621 15.102 12.2325 15.6076 12.7246L17.0152 11.2966C16.1201 10.4509 14.9449 9.98643 13.7217 10.0003C11.8632 10.0003 10.1618 11.0679 9.32812 12.7524L10.9612 14.0418C11.3507 12.8564 12.4372 11.976 13.7217 11.976Z" fill="#7C7C7C"/>
</symbol>

<symbol id="ethereum" width="46" height="30" viewBox="0 0 46 30" fill="none">
<path d="M22.3388 5L22.2046 5.45578V18.6802L22.3388 18.8141L28.4773 15.1855L22.3388 5Z" fill="#727272"/>
<path d="M22.3389 5L16.2002 15.1855L22.3389 18.8141V12.3953V5Z" fill="#7C7C7C"/>
<path d="M22.3388 19.9763L22.2632 20.0685V24.7792L22.3388 25L28.4811 16.3496L22.3388 19.9763Z" fill="#7C7C7C"/>
<path d="M22.3389 25V19.9763L16.2002 16.3496L22.3389 25Z" fill="#7C7C7C"/>
<path d="M22.3389 18.8141L28.4774 15.1855L22.3389 12.3953V18.8141Z" fill="#6A6A6A"/>
<path d="M16.2002 15.1855L22.3389 18.8141V12.3953L16.2002 15.1855Z" fill="#8B8B8B"/>
</symbol>

<symbol id="discover" width="46" height="30" viewBox="0 0 46 30" fill="none">
<path fill-rule="evenodd" clip-rule="evenodd" d="M16.5059 14.9841C16.5059 16.6415 17.8073 17.9266 19.4822 17.9266C19.9556 17.9266 20.3611 17.8335 20.8611 17.598V16.3034C20.4215 16.7434 20.032 16.921 19.5333 16.921C18.4256 16.921 17.6393 16.1177 17.6393 14.9758C17.6393 13.8933 18.4504 13.0393 19.4822 13.0393C20.0067 13.0393 20.4039 13.2265 20.8611 13.6737V12.3797C20.3784 12.1348 19.9815 12.0333 19.5081 12.0333C17.8417 12.0333 16.5059 13.3445 16.5059 14.9841ZM13.6833 13.6146C13.6833 13.9193 13.877 14.0803 14.5371 14.3246C15.7881 14.7823 16.1589 15.1877 16.1589 16.0837C16.1589 17.1751 15.357 17.9352 14.2142 17.9352C13.3772 17.9352 12.7685 17.6056 12.2618 16.8617L12.9724 16.1774C13.2256 16.6671 13.6482 16.9296 14.1728 16.9296C14.6636 16.9296 15.0268 16.5911 15.0268 16.1342C15.0268 15.8974 14.9168 15.6942 14.697 15.5506C14.5865 15.4826 14.3673 15.3816 13.9366 15.2295C12.9036 14.8578 12.5494 14.46 12.5494 13.6832C12.5494 12.7604 13.3103 12.0676 14.3081 12.0676C14.9264 12.0676 15.4921 12.2789 15.965 12.6926L15.3895 13.4462C15.103 13.1251 14.832 12.9895 14.5026 12.9895C14.0286 12.9895 13.6833 13.2595 13.6833 13.6146ZM10.7477 17.7996H11.8476V12.1608H10.7477V17.7996ZM8.49946 16.3967C8.15396 16.7089 7.70497 16.845 6.99434 16.845H6.69915V13.116H6.99434C7.70497 13.116 8.13631 13.2433 8.49946 13.5723C8.87983 13.9108 9.10858 14.4358 9.10858 14.9759C9.10858 15.5172 8.87983 16.0582 8.49946 16.3967ZM7.21459 12.1608H5.6001V17.7994H7.20609C8.06006 17.7994 8.67658 17.5981 9.21794 17.1485C9.86125 16.6163 10.2416 15.814 10.2416 14.9841C10.2416 13.32 8.99835 12.1608 7.21459 12.1608ZM28.0784 12.1608L29.582 15.9483L31.1052 12.1608H32.2975L29.8615 17.9443H29.2696L26.8768 12.1608H28.0784ZM32.7949 17.7995H35.9141V16.8449H33.8939V15.3228H35.8398V14.3677H33.8939V13.1162H35.9141V12.1607H32.7949V17.7995ZM37.7411 14.7567H38.0624C38.765 14.7567 39.1373 14.4515 39.1373 13.8847C39.1373 13.3359 38.765 13.049 38.0798 13.049H37.7411V14.7567ZM38.2735 12.1606C39.5419 12.1606 40.269 12.7697 40.269 13.8254C40.269 14.6888 39.8129 15.2556 38.9844 15.424L40.7596 17.7995H39.407L37.8847 15.5342H37.7411V17.7995H36.6425V12.1606H38.2735Z" fill="#7C7C7C"/>
<path fill-rule="evenodd" clip-rule="evenodd" d="M26.7471 16.6161C27.6398 15.2201 27.2321 13.3657 25.8364 12.4731C24.4406 11.5805 22.5858 11.988 21.6931 13.3839C20.8006 14.7794 21.2085 16.6345 22.6042 17.5271C24 18.4197 25.8546 18.0116 26.7471 16.6161Z" fill="#7C7C7C"/>
</symbol>

<symbol id="dinners-club" width="46" height="30" viewBox="0 0 46 30" fill="none">
<path fill-rule="evenodd" clip-rule="evenodd" d="M13.7559 15.6466C13.7559 11.1141 17.4301 7.43994 21.9623 7.43994C26.4948 7.43994 30.1691 11.1141 30.1691 15.6466C30.1691 20.179 26.4948 23.8535 21.9623 23.8535C17.4301 23.8535 13.7559 20.179 13.7559 15.6466Z" fill="#141519"/>
<path fill-rule="evenodd" clip-rule="evenodd" d="M26.9255 15.4852C26.9222 13.3837 25.6086 11.5913 23.7575 10.8815V20.0887C25.6086 19.378 26.9222 17.5872 26.9255 15.4852ZM20.2263 20.0869V10.8824C18.3769 11.5945 17.0653 13.3843 17.0604 15.4852C17.0653 17.5858 18.3769 19.3754 20.2263 20.0869ZM21.9929 7.70304C17.695 7.70469 14.2129 11.1874 14.2122 15.4852C14.2129 19.7826 17.695 23.2648 21.9929 23.2655C26.2907 23.2648 29.7735 19.7826 29.7745 15.4852C29.7735 11.1874 26.2907 7.70469 21.9929 7.70304ZM21.9738 23.9999C17.2708 24.0224 13.3999 20.2121 13.3999 15.5741C13.3999 10.5051 17.2708 6.99908 21.9738 7H24.1777C28.8252 6.99908 33.0668 10.5035 33.0668 15.5741C33.0668 20.2105 28.8252 23.9999 24.1777 23.9999H21.9738Z" fill="#7C7C7C"/>
</symbol>

<symbol id="cashapp" width="46" height="30" viewBox="0 0 46 30" fill="none">
<path d="M31.5002 8.60358C31.3091 8.07811 31.0052 7.60089 30.6098 7.20552C30.2144 6.81014 29.7372 6.50622 29.2117 6.31513C28.2288 6 27.3359 6 25.5202 6H20.0729C18.2722 6 17.3643 6 16.3964 6.30013C15.8701 6.49201 15.3924 6.79708 14.997 7.1938C14.6016 7.59052 14.2981 8.06922 14.1079 8.59608C13.8003 9.57149 13.8003 10.4719 13.8003 12.2726V17.7274C13.8003 19.5356 13.8003 20.4285 14.1004 21.4039C14.2915 21.9294 14.5954 22.4066 14.9908 22.802C15.3862 23.1974 15.8634 23.5013 16.3889 23.6924C17.3643 24 18.2647 24 20.0654 24H25.5277C27.3359 24 28.2363 24 29.2042 23.6999C29.7318 23.5089 30.211 23.2043 30.6078 22.8075C31.0046 22.4107 31.3092 21.9315 31.5002 21.4039C31.8078 20.4285 31.8078 19.5281 31.8078 17.7274V12.2876C31.8078 10.4794 31.8078 9.57899 31.5002 8.60358ZM26.8707 12.0775L26.1729 12.7753C26.1049 12.8386 26.0159 12.8744 25.923 12.8757C25.8302 12.8771 25.7401 12.844 25.6702 12.7828C24.9945 12.2121 24.1388 11.8985 23.2542 11.8975C22.5264 11.8975 21.7986 12.1376 21.7986 12.8053C21.7986 13.4806 22.5789 13.7057 23.4793 14.0434C25.055 14.5686 26.3605 15.2288 26.3605 16.7745C26.3605 18.4552 25.055 19.6107 22.9241 19.7382L22.729 20.6386C22.7118 20.7213 22.6665 20.7956 22.6009 20.8489C22.5353 20.9022 22.4534 20.9313 22.3689 20.9312H21.0258L20.9583 20.9237C20.8621 20.9021 20.7784 20.8436 20.725 20.7608C20.6717 20.678 20.653 20.5775 20.6732 20.481L20.8832 19.5281C20.0746 19.3254 19.3309 18.92 18.7223 18.3501V18.3426C18.6888 18.3092 18.6621 18.2694 18.6439 18.2256C18.6258 18.1819 18.6164 18.1349 18.6164 18.0875C18.6164 18.0401 18.6258 17.9932 18.6439 17.9494C18.6621 17.9056 18.6888 17.8659 18.7223 17.8324L19.4727 17.1046C19.5408 17.0408 19.6307 17.0053 19.724 17.0053C19.8174 17.0053 19.9072 17.0408 19.9754 17.1046C20.6581 17.7499 21.5735 18.11 22.5189 18.095C23.4943 18.095 24.1471 17.6824 24.1471 17.0296C24.1471 16.3768 23.4868 16.2043 22.2413 15.7391C20.9208 15.2664 19.6677 14.5986 19.6677 13.0379C19.6677 11.2222 21.1759 10.3368 22.9616 10.2543L23.1492 9.33139C23.1666 9.24937 23.2122 9.17601 23.2779 9.12396C23.3437 9.07191 23.4255 9.04443 23.5093 9.04627H24.8449L24.9199 9.05377C25.115 9.09879 25.2426 9.28637 25.1975 9.48145L24.995 10.5094C25.6702 10.7345 26.308 11.0871 26.8557 11.5523L26.8707 11.5673C27.0133 11.7174 27.0133 11.9425 26.8707 12.0775Z" fill="#7C7C7C"/>
</symbol>

<symbol id="bitcoin" width="46" height="30" viewBox="0 0 46 30" fill="none">
<path fill-rule="evenodd" clip-rule="evenodd" d="M33.8003 15C33.8003 20.5265 29.3224 25 23.7981 25C18.276 25 13.8003 20.5265 13.8003 15C13.8003 9.47351 18.276 5 23.7981 5C29.3224 5 33.8003 9.47351 33.8003 15ZM27.0669 11.419C27.4604 11.6762 27.7462 11.9883 27.9155 12.3577C28.0847 12.7292 28.1309 13.1161 28.0518 13.4898C28.0012 13.7734 27.8869 14.035 27.7176 14.268C27.5506 14.5032 27.3329 14.6966 27.0647 14.8505C26.7987 15.0066 26.4668 15.1099 26.0667 15.1693C26.4492 15.3451 26.7394 15.5166 26.9284 15.6793C27.2054 15.9123 27.4055 16.2003 27.5308 16.5476C27.6539 16.8861 27.6803 17.251 27.6077 17.6379C27.5242 18.0974 27.3066 18.4931 26.9592 18.8228C26.6097 19.1592 26.1656 19.3812 25.6227 19.4889C25.4226 19.5219 25.1962 19.5439 24.9434 19.5483L24.6532 21.0849L23.1936 20.8145L23.4574 19.3944C23.42 19.3856 23.387 19.3834 23.3496 19.3746L22.5187 19.2207L22.2549 20.6408L20.793 20.366L21.0568 18.9459L18.8278 18.5326L19.0498 17.3434L19.3927 17.4005C19.6192 17.4489 19.7752 17.4577 19.8632 17.4335C19.9511 17.4093 20.017 17.361 20.0654 17.2972C20.1138 17.2335 20.1577 17.073 20.2039 16.8224L21.1052 12.0125C21.1536 11.7531 21.1667 11.5883 21.147 11.5113C21.1272 11.4344 21.0832 11.3662 21.0085 11.3135C20.9381 11.2563 20.7886 11.2058 20.56 11.1662L20.2193 11.1024L20.4413 9.90877L22.6726 10.3264L22.9408 8.90415L24.4026 9.17894L24.1344 10.599L25.0731 10.7749L25.3413 9.3548L26.8009 9.62959L26.5174 11.1486C26.7262 11.2299 26.9175 11.3179 27.0669 11.419Z" fill="#7C7C7C"/>
<path d="M25.416 12.3862C25.2182 12.2763 24.8401 12.1708 24.2861 12.0675L23.3408 11.8894L22.9452 13.9932L23.8926 14.1712C24.3872 14.2614 24.7609 14.29 25.0137 14.2504C25.2665 14.2086 25.4644 14.1185 25.6183 13.9756C25.7656 13.8371 25.8645 13.6503 25.904 13.4304C25.948 13.2018 25.926 13.0018 25.8425 12.8171C25.7634 12.639 25.6227 12.4918 25.416 12.3862Z" fill="#7C7C7C"/>
<path d="M25.3567 16.3146C25.4424 16.5168 25.4578 16.7388 25.4138 17.0004C25.3567 17.3038 25.2248 17.5412 25.0159 17.7259C24.8049 17.9039 24.5763 18.0116 24.3235 18.0358C24.0685 18.06 23.7585 18.0358 23.3936 17.9699L22.7627 17.8468C22.5539 17.805 22.4286 17.7742 22.3824 17.7413C22.3384 17.7105 22.3142 17.6665 22.3033 17.605C22.2989 17.5588 22.3164 17.3961 22.3604 17.1345L22.7099 15.266L23.8289 15.4726C24.3191 15.5672 24.6752 15.6815 24.895 15.8134C25.1171 15.9453 25.2687 16.1167 25.3567 16.3146Z" fill="#7C7C7C"/>
</symbol>

<symbol id="binance-coin" width="45" height="30" viewBox="0 0 45 30" fill="none">
<path d="M32.6986 17.419C31.363 22.7762 25.937 26.0365 20.5792 24.7006C15.2236 23.365 11.9633 17.9387 13.2995 12.582C14.6345 7.22419 20.0604 3.96366 25.4166 5.29923C30.7741 6.63481 34.0341 12.0617 32.6984 17.4191L32.6985 17.419H32.6986Z" fill="#7C7C7C"/>
<path fill-rule="evenodd" clip-rule="evenodd" d="M23.0002 11.3467L20.4107 13.9361L20.4108 13.936L18.9042 12.4293L23.0002 8.33334L27.0975 12.4306L25.5908 13.9372L23.0002 11.3467ZM17.8402 13.4931L16.3335 15L17.8401 16.5064L19.3468 14.9997L17.8402 13.4931ZM20.4107 16.0641L23.0002 18.6533L25.5908 16.0628L27.0982 17.5687L27.0975 17.5695L23.0002 21.6667L18.9042 17.5707L18.902 17.5685L20.4107 16.0641ZM28.1602 13.4939L26.6535 15.0007L28.1602 16.5073L29.6668 15.0006L28.1602 13.4939Z" fill="#141519"/>
<path d="M24.528 14.9992H24.5286L22.9999 13.4703L21.8699 14.6L21.7401 14.7299L21.4723 14.9976L21.4702 14.9997L21.4723 15.0019L22.9999 16.5296L24.5287 15.0008L24.5295 14.9999L24.5281 14.9992" fill="#141519"/>
</symbol>

<symbol id="apple-pay" width="46" height="30" viewBox="0 0 46 30" fill="none">
<path fill-rule="evenodd" clip-rule="evenodd" d="M14.4417 11.4181C14.1312 11.7897 13.6343 12.0828 13.1374 12.0409C13.0753 11.5385 13.3185 11.0047 13.6032 10.6751C13.9137 10.2931 14.4572 10.0209 14.8972 10C14.949 10.5233 14.7471 11.0362 14.4417 11.4181ZM14.892 12.1404C14.4543 12.1149 14.0549 12.2735 13.7322 12.4015C13.5246 12.484 13.3488 12.5538 13.215 12.5538C13.0649 12.5538 12.8818 12.4802 12.6763 12.3976C12.407 12.2895 12.099 12.1658 11.7761 12.1717C11.036 12.1822 10.3476 12.6061 9.96973 13.2811C9.19333 14.6313 9.76788 16.6304 10.5184 17.7293C10.8859 18.2735 11.3258 18.8702 11.9055 18.8492C12.1606 18.8395 12.344 18.7608 12.5339 18.6793C12.7524 18.5855 12.9795 18.4881 13.334 18.4881C13.6763 18.4881 13.8935 18.583 14.1019 18.6741C14.3001 18.7607 14.4904 18.8438 14.7729 18.8387C15.3734 18.8283 15.7512 18.2945 16.1187 17.7502C16.5153 17.1661 16.6895 16.5961 16.716 16.5096L16.7191 16.4995C16.7191 16.4995 16.7136 16.4966 16.7049 16.4926C16.5723 16.4312 15.5591 15.9623 15.5493 14.7046C15.5396 13.649 16.353 13.1141 16.4811 13.0299C16.4889 13.0247 16.4942 13.0213 16.4965 13.0195C15.9789 12.245 15.1715 12.1613 14.892 12.1404ZM19.0482 18.7812V10.6228H22.0761C23.6393 10.6228 24.7314 11.7112 24.7314 13.3021C24.7314 14.893 23.6185 15.9919 22.0348 15.9919H20.3008V18.7812H19.0482ZM20.3008 11.6903H21.7449C22.8318 11.6903 23.4529 12.2764 23.4529 13.3073C23.4529 14.3383 22.8318 14.9296 21.7397 14.9296H20.3008V11.6903ZM28.8669 17.8026C28.5356 18.441 27.8058 18.844 27.0191 18.844C25.8545 18.844 25.0419 18.1427 25.0419 17.0857C25.0419 16.039 25.8287 15.4372 27.2831 15.3482L28.8462 15.254V14.804C28.8462 14.1394 28.4166 13.7783 27.6506 13.7783C27.0191 13.7783 26.5585 14.108 26.4653 14.6104H25.3369C25.3732 13.5533 26.3566 12.784 27.6868 12.784C29.1205 12.784 30.0522 13.5428 30.0522 14.7203V18.7812H28.8928V17.8026H28.8669ZM27.3555 17.8759C26.6879 17.8759 26.2634 17.5514 26.2634 17.0542C26.2634 16.5414 26.6723 16.2431 27.4539 16.196L28.8462 16.107V16.5676C28.8462 17.3316 28.2044 17.8759 27.3555 17.8759ZM33.8979 19.1004C33.3958 20.529 32.8213 21 31.5997 21C31.5066 21 31.1961 20.9895 31.1235 20.9686V19.99C31.2012 20.0005 31.3927 20.0109 31.4911 20.0109C32.0449 20.0109 32.3555 19.7755 32.5469 19.1632L32.6608 18.8021L30.5387 12.8625H31.8482L33.3233 17.6822H33.3492L34.8243 12.8625H36.0976L33.8979 19.1004Z" fill="#7C7C7C"/>
</symbol>

<symbol id="amex" width="46" height="30" viewBox="0 0 46 30" fill="none">
<path fill-rule="evenodd" clip-rule="evenodd" d="M15.2178 18.8202C15.1495 18.9208 15.0359 18.9809 14.9139 18.9809H13.8179C13.666 18.9809 13.5318 18.8895 13.4759 18.7482L13.0798 17.7443H9.99446L9.6036 18.7469C9.54825 18.8891 9.41379 18.981 9.26107 18.981H8.16749C8.04607 18.981 7.93262 18.9211 7.86393 18.8208C7.79533 18.7204 7.78084 18.5929 7.82496 18.4797L10.6359 11.267C10.6912 11.1248 10.8257 11.0329 10.9785 11.0329H12.068C12.2198 11.0329 12.3541 11.1243 12.41 11.2656L15.2559 18.4784C15.3007 18.5916 15.2864 18.7194 15.2178 18.8202ZM12.3381 15.864H10.7272L11.5276 13.8101L12.3381 15.864Z" fill="#7C7C7C"/>
<path d="M22.9338 18.5544C22.9338 18.7571 22.7689 18.9221 22.5662 18.9221H21.6208C21.4181 18.9221 21.2532 18.7571 21.2532 18.5544V15.3944L19.6425 18.5776C19.5796 18.7019 19.4542 18.7791 19.315 18.7793C19.1756 18.7793 19.0501 18.7024 18.987 18.5787L17.3602 15.3862V18.5545C17.3602 18.7573 17.1953 18.9222 16.9926 18.9222H16.0472C15.8445 18.9222 15.6796 18.7573 15.6796 18.5545V11.4217C15.6796 11.2189 15.8445 11.054 16.0472 11.054H16.8091C16.9478 11.054 17.0733 11.1308 17.1365 11.2545L19.3101 15.5123L21.464 11.2557C21.5269 11.1313 21.6526 11.054 21.7921 11.054H22.5662C22.7689 11.054 22.9338 11.2189 22.9338 11.4217V18.5544Z" fill="#7C7C7C"/>
<path d="M31.0922 18.6324C31.0922 18.8351 30.9273 19 30.7246 19H26.2078C26.0051 19 25.8402 18.8351 25.8402 18.6324V11.4926C25.8402 11.2898 26.0051 11.1249 26.2078 11.1249H30.5992C30.8019 11.1249 30.9668 11.2898 30.9668 11.4926V12.3627C30.9668 12.5654 30.8019 12.7304 30.5992 12.7304H27.4457V14.2597H30.0143C30.217 14.2597 30.3819 14.4247 30.3819 14.6274V15.4975C30.3819 15.7003 30.217 15.8652 30.0143 15.8652H27.4457V17.3946H30.7247C30.9274 17.3946 31.0923 17.5595 31.0923 17.7622L31.0922 18.6324Z" fill="#7C7C7C"/>
<path d="M38.0038 18.3578L37.238 18.9121C37.1747 18.9578 37.1003 18.9819 37.0223 18.9819C37.0028 18.9819 36.9834 18.9804 36.9639 18.9772C36.8686 18.962 36.7812 18.9083 36.7244 18.8297L34.8979 16.3065L33.0795 18.8286C33.0232 18.9069 32.9359 18.9609 32.8402 18.9765C32.7479 18.9923 32.6457 18.9691 32.5663 18.9117L31.7997 18.3589C31.7199 18.3015 31.6674 18.2165 31.6518 18.1196C31.6361 18.0226 31.659 17.9253 31.7165 17.8457L33.8607 14.8715L31.8949 12.1343C31.7768 11.9695 31.8146 11.7394 31.9792 11.6212L32.7469 11.0699C32.8099 11.0247 32.884 11.0008 32.9612 11.0008C33.0794 11.0008 33.191 11.058 33.26 11.154L34.8981 13.435L36.5438 11.1526C36.6014 11.073 36.6861 11.0205 36.7831 11.0049C36.8816 10.9889 36.9784 11.0127 37.057 11.0697L37.8236 11.6224C37.9034 11.6798 37.9559 11.7648 37.9715 11.8618C37.9872 11.9587 37.9643 12.056 37.9068 12.1356L35.9342 14.8715L38.0858 17.8442C38.2048 18.0086 38.1679 18.2389 38.0038 18.3578Z" fill="#7C7C7C"/>
</symbol>

<symbol id="amazon-pay" width="45" height="30" viewBox="0 0 45 30" fill="none">
<path d="M34.5642 17.3702C33.6799 17.3826 32.6362 17.5807 31.8442 18.1363C31.5998 18.3059 31.6426 18.5413 31.9145 18.5101C32.805 18.403 34.7872 18.1627 35.1415 18.6155C35.4967 19.0684 34.7486 20.9366 34.418 21.7722C34.3157 22.0213 34.532 22.1245 34.7603 21.935C36.242 20.694 36.627 18.0923 36.3238 17.7181C36.1718 17.531 35.4484 17.3579 34.5642 17.3702ZM8.20438 18.3176C7.99779 18.346 7.90882 18.6079 8.12482 18.8154C11.8357 22.296 16.7391 24 22.1836 24C26.0669 24 30.575 22.7329 33.6871 20.3456C34.2015 19.9486 33.7633 19.3538 33.2356 19.5888C29.7465 21.1283 25.9568 21.8702 22.5074 21.8702C17.3954 21.8702 12.4467 20.803 8.44307 18.3787C8.35544 18.3256 8.27324 18.3081 8.20438 18.3176Z" fill="#7C7C7C"/>
<path d="M15.4558 8L15.2578 8.03331C14.6382 8.11099 14.0408 8.34277 13.5444 8.71793C13.4335 8.78424 13.3342 8.87312 13.2243 8.96217C13.2129 8.94038 13.2021 8.91735 13.2021 8.89556C13.1793 8.77335 13.1684 8.64215 13.1466 8.51994C13.1134 8.321 13.0032 8.22019 12.8043 8.22019H12.2843C11.9641 8.22019 11.9087 8.28787 11.9087 8.59766V18.1898C11.9201 18.3338 12.0076 18.4097 12.1289 18.4211H13.0911C13.2237 18.4211 13.3008 18.3338 13.3112 18.1898C13.3226 18.1452 13.3223 18.1011 13.3223 18.0565V14.7241C13.3669 14.7686 13.4005 14.7911 13.4223 14.8129C14.2294 15.4874 15.1581 15.7076 16.1756 15.5086C17.104 15.3211 17.7443 14.7574 18.1536 13.9285C18.4738 13.2985 18.6048 12.6579 18.6161 11.9616C18.6379 11.1989 18.5718 10.4648 18.2516 9.74671C17.8755 8.86282 17.2352 8.27666 16.2736 8.07771C16.1296 8.04456 15.9754 8.03289 15.8314 8.0111C15.6988 7.99973 15.577 8 15.4558 8ZM22.8182 8C22.7737 8.01137 22.7314 8.0222 22.6869 8.0222C22.2444 8.04399 21.8125 8.09919 21.3824 8.20909C21.1057 8.2754 20.8409 8.37448 20.5756 8.46258C20.4098 8.51753 20.3314 8.63979 20.3314 8.816C20.3428 8.96 20.3314 9.11422 20.3314 9.25822C20.3428 9.47896 20.4319 9.53616 20.6422 9.48026C20.9956 9.39216 21.3491 9.29308 21.7025 9.22677C22.2548 9.1273 22.8189 9.08247 23.3826 9.16016C23.681 9.2151 23.9573 9.29298 24.1449 9.54688C24.3107 9.75719 24.3778 10.0217 24.3892 10.287C24.4005 10.6631 24.4003 10.961 24.4003 11.3361C24.4003 11.3579 24.4005 11.3794 24.3892 11.3898H24.3337C23.8581 11.2685 23.3727 11.2028 22.8867 11.1696C22.378 11.1478 21.8702 11.1701 21.3842 11.3472C20.7988 11.5462 20.3221 11.899 20.0464 12.4741C19.8361 12.9165 19.8025 13.3817 19.8688 13.8563C19.9683 14.4977 20.2784 14.9833 20.8421 15.2921C21.384 15.5906 21.9586 15.6226 22.5555 15.5345C23.2404 15.4351 23.8475 15.148 24.3781 14.7056C24.3999 14.6838 24.4229 14.6737 24.4447 14.6519C24.4778 14.8291 24.5003 14.9953 24.5335 15.1497C24.5553 15.2937 24.6451 15.3807 24.7777 15.3921H25.5179C25.6287 15.3921 25.7288 15.2931 25.7288 15.1719C25.7402 15.1387 25.7399 15.0933 25.7399 15.0498V10.3333C25.7371 10.1447 25.725 9.94539 25.6918 9.75781C25.6037 9.17234 25.3601 8.68541 24.8295 8.37562C24.5311 8.19846 24.2004 8.11046 23.847 8.05551C23.6812 8.03277 23.5262 8.02179 23.3604 8H22.8182ZM26.6503 8.00185C26.5394 8.00185 26.4842 8.1001 26.5059 8.21094C26.5277 8.29999 26.5616 8.40038 26.5948 8.48849C27.4787 10.6769 28.3732 12.8639 29.2685 15.0627C29.3462 15.2503 29.3566 15.4062 29.2685 15.5938C29.1254 15.9244 29.0029 16.2669 28.8485 16.5985C28.7158 16.8969 28.4954 17.1191 28.1638 17.2072C27.9431 17.2631 27.7002 17.2848 27.4681 17.2516C27.3573 17.2403 27.2459 17.2186 27.1351 17.2072C26.9797 17.1959 26.904 17.2616 26.8927 17.4274V17.8715C26.904 18.1263 26.9811 18.2359 27.235 18.2804C27.4784 18.324 27.732 18.356 27.9973 18.3674C28.7704 18.3778 29.3794 18.0705 29.7773 17.396C29.9431 17.1307 30.0761 16.8541 30.1973 16.567C31.2688 13.8594 32.33 11.163 33.391 8.44408C33.4242 8.3664 33.4444 8.28794 33.4558 8.19984C33.4776 8.0672 33.4114 8.00181 33.2911 8.0037H32.3974C32.243 7.99233 32.0989 8.09099 32.044 8.23499C32.0222 8.30131 31.9992 8.35556 31.9774 8.42188L30.3972 12.9422C30.2863 13.2624 30.1639 13.5936 30.053 13.947C30.0303 13.8911 30.02 13.8691 30.0086 13.8359C29.4231 12.2226 28.8492 10.6107 28.2638 8.99733C28.1756 8.73206 28.0764 8.47593 27.977 8.22204C27.9334 8.09983 27.8323 8.01295 27.6883 8.01295C27.3454 8.00158 27.0036 8.00185 26.6503 8.00185ZM15.4447 9.14905C16.1192 9.204 16.6712 9.53589 16.9582 10.3203C17.1354 10.8063 17.1803 11.2752 17.1803 11.7839C17.1803 12.2595 17.1476 12.68 17.0045 13.1328C16.6947 14.0944 15.9868 14.4698 15.0802 14.4262C14.4388 14.393 13.8977 14.1486 13.389 13.7952C13.334 13.7621 13.3008 13.7087 13.3112 13.6528V9.90029C13.3008 9.83397 13.334 9.77987 13.389 9.74671C14.0076 9.31566 14.6925 9.09411 15.4447 9.14905ZM22.6147 12.1336C22.8039 12.1171 22.9947 12.1206 23.1827 12.1429C23.5589 12.176 23.9353 12.2415 24.3115 12.2965C24.3891 12.3078 24.4095 12.3412 24.4095 12.4075C24.3981 12.6292 24.4095 12.839 24.4095 13.0607C24.4095 13.2814 24.3984 13.481 24.3984 13.7027C24.4098 13.7577 24.3763 13.8009 24.3318 13.8341C23.8231 14.1988 23.2706 14.4431 22.6406 14.5095C22.3867 14.5312 22.1319 14.5312 21.8894 14.4317C21.6127 14.3323 21.4046 14.0996 21.3269 13.823C21.2388 13.5359 21.239 13.2376 21.3158 12.9496C21.437 12.5735 21.7016 12.365 22.0559 12.2428C22.2383 12.1874 22.4255 12.1502 22.6147 12.1336Z" fill="#7C7C7C"/>
</symbol>

<symbol id="adyen" width="45" height="30" viewBox="0 0 45 30" fill="none">
<path d="M9.79673 12.5001C10.4614 12.5001 11.0002 13.0389 11.0002 13.7036V18.5002H6.2035C5.53882 18.5002 5 17.9614 5 17.2967V15.9536C5 15.289 5.53882 14.7501 6.2035 14.7501H7.5001V16.6564C7.5001 16.8463 7.65406 17.0002 7.84396 17.0002H8.50013V14.344C8.50013 14.1541 8.34616 14.0002 8.15627 14.0001H5.08596V12.5001H9.79673ZM15.5002 17.0002L15.5003 10H18.0004V18.5002H13.2038C12.5391 18.5002 12.0003 17.9614 12.0003 17.2967V13.7036C12.0003 13.0389 12.5391 12.5001 13.2038 12.5001H14.5002V16.6564C14.5002 16.8463 14.6541 17.0002 14.844 17.0002H15.5002ZM22.5005 17.0002V12.5001H25.0006V19.7965C25.0006 20.4612 24.4618 21 23.7971 21H19.0864V19.2503H22.5005V18.5002H20.2039C19.5392 18.5002 19.0004 17.9614 19.0004 17.2967V12.5001H21.5004V16.6564C21.5004 16.8463 21.6544 17.0002 21.8443 17.0002H22.5005ZM30.7973 12.5001C31.462 12.5001 32.0008 13.0389 32.0008 13.7036V15.0467C32.0008 15.7114 31.462 16.2502 30.7973 16.2502H29.5007V14.344C29.5007 14.1541 29.3468 14.0002 29.1568 14.0002H28.5007V16.6564C28.5007 16.8463 28.6546 17.0002 28.8445 17.0002H31.9148V18.5002H27.2042C26.5395 18.5002 26.0007 17.9614 26.0007 17.2967V12.5001H30.7973ZM37.7976 12.5001C38.4622 12.5001 39.0011 13.0389 39.0011 13.7036V18.5002H36.501V14.344C36.501 14.1548 36.3462 14.0001 36.1571 14.0001H35.5009V18.5002H33.0008V12.5001H37.7976Z" fill="#7C7C7C"/>
</symbol>

</svg>