<?xml version="1.0" encoding="UTF-8"?>
<svg xmlns="http://www.w3.org/2000/svg" xmlns:xlink="http://www.w3.org/1999/xlink" width="0" height="0">
<symbol id="worldpay" width="45" height="30" viewBox="0 0 45 30" fill="none">
<rect x="0.5" y="0.5" width="44" height="29" rx="4.5" stroke="black" stroke-opacity="0.05"/>
<path d="M12.432 11.0584L11.4447 15.1225C11.3288 15.529 11.2708 15.8773 11.2127 16.2838C11.1545 15.8195 11.0963 15.413 10.9805 15.0647L9.81926 11.0583H8.65788L7.55469 15.0647C7.4385 15.4713 7.38032 15.8773 7.32266 16.2838C7.26448 15.8772 7.2063 15.4711 7.09028 15.0066L6.10319 11.0584H5L6.6837 17.6196H7.96127L9.06446 13.5551C9.18039 13.1486 9.23857 12.7421 9.29649 12.3357C9.35467 12.7422 9.41286 13.1486 9.52914 13.5551L10.6321 17.5616H11.9096L13.4773 11.0585H12.4322L12.432 11.0584Z" fill="#3466B7"/>
<path d="M15.6837 12.6841C14.232 12.6841 13.3029 13.7874 13.3029 15.2389C13.3029 16.923 14.1738 17.6775 15.5092 17.6775C16.9607 17.6775 17.8896 16.5742 17.8896 15.0648C17.8896 13.3809 16.9608 12.6841 15.6837 12.6841ZM15.6256 16.7486C14.8126 16.7486 14.406 16.226 14.406 15.1227C14.406 14.0197 14.9866 13.5552 15.6256 13.5552C16.4383 13.5552 16.8445 14.1358 16.8445 15.1227C16.8445 16.226 16.2641 16.7486 15.6256 16.7486Z" fill="#3466B7"/>
<path d="M19.3412 13.7871C19.4576 13.4387 19.4576 13.0322 19.4576 12.742H18.4707V17.5613H19.5158V15.5871C19.5158 14.1355 19.9803 13.4969 20.9093 13.6709V12.6258C20.0384 12.5681 19.5736 13.1486 19.3412 13.7871Z" fill="#3466B7"/>
<path d="M22.5931 11.0002H21.5477V15.6451V17.5613H22.5931H22.5933V14.6001H22.5931V11.0002Z" fill="#3466B7"/>
<path d="M26.4253 12.742C26.1931 12.6838 25.9605 12.6838 25.7286 12.6838C24.1606 12.6838 23.2319 13.7871 23.2319 15.4129C23.2319 16.8064 23.8123 17.6772 24.9738 17.6772C25.7286 17.6772 26.3091 17.271 26.5414 16.69C26.4833 16.9226 26.4833 17.3287 26.4833 17.5611H27.4704V11H26.4253V12.742H26.4253ZM26.3671 13.6131V15.1224C26.3671 15.9354 25.9605 16.8646 25.2057 16.8646C24.5671 16.8646 24.277 16.3419 24.277 15.3549C24.277 14.0773 24.8574 13.555 25.6705 13.555C25.9025 13.555 26.1931 13.555 26.4253 13.6131H26.3671Z" fill="#3466B7"/>
<path d="M29.9088 11.0002C29.27 11.0002 28.7479 11.0584 28.2249 11.0584V17.5615H29.27V15.1806H29.7348C31.3025 15.1806 32.2897 14.2518 32.2897 12.9742C32.2897 11.7551 31.4766 11.0002 29.9088 11.0002ZM29.7348 14.3099C29.5606 14.3099 29.3864 14.2517 29.27 14.2517V11.8709H29.7928C30.7797 11.8709 31.1863 12.3354 31.1863 13.0322C31.1864 13.8452 30.6056 14.3099 29.7348 14.3099Z" fill="#3466B7"/>
<path d="M36.2959 17.5033V14.1938C36.2959 13.2649 35.8893 12.626 34.4378 12.626C33.7992 12.626 33.1603 12.8004 32.6959 12.9744L32.87 13.7873C33.2766 13.5551 33.7992 13.4389 34.2635 13.4389C35.0184 13.4389 35.2509 13.7873 35.2509 14.368V14.6583C33.4509 14.6583 32.4055 15.2389 32.4055 16.342C32.4055 17.1549 32.9282 17.6774 33.7411 17.6774C34.496 17.6774 35.0766 17.2713 35.3086 16.6903C35.2547 16.9077 35.2511 17.2257 35.2509 17.5032H36.2959V17.5033ZM33.9734 16.8648C33.5668 16.8648 33.3348 16.5742 33.3348 16.2259C33.3348 15.768 33.731 15.3664 35.1345 15.3557V15.5292C35.1345 16.168 34.67 16.8648 33.9734 16.8648Z" fill="#3466B7"/>
<path d="M39.7796 12.7419L39.0829 14.7162C38.9088 15.2386 38.7345 15.8195 38.6182 16.2255C38.5603 15.8194 38.4442 15.3548 38.2698 14.9483L37.5151 12.7419H36.3541L38.2118 17.5613L38.0378 18.0256C37.6894 18.8966 37.2829 19.1288 36.8184 19.1288C36.6443 19.1288 36.4118 19.1288 36.2378 19.0711L36.1216 19.9418C36.2378 20 36.5279 20 36.7024 20C37.8056 20 38.4442 19.5354 39.0246 17.9098L40.8827 12.742L39.7796 12.7419Z" fill="#3466B7"/>
</symbol>

<symbol id="usdt(trc20)" width="45" height="30" viewBox="0 0 45 30" fill="none">
<rect x="0.5" y="0.5" width="44" height="29" rx="4.5" stroke="black" stroke-opacity="0.05"/>
<path fill-rule="evenodd" clip-rule="evenodd" d="M15.6618 6.08545L12.015 13.7456C12.0011 13.7741 11.9967 13.8063 12.0024 13.8374C12.0082 13.8686 12.0237 13.8971 12.0468 13.9188L21.896 23.3567C21.924 23.3836 21.9612 23.3985 22 23.3985C22.0388 23.3985 22.076 23.3836 22.104 23.3567L31.9532 13.9194C31.9763 13.8977 31.9918 13.8692 31.9976 13.838C32.0033 13.8069 31.9989 13.7747 31.985 13.7462L28.3382 6.08604C28.3264 6.06031 28.3075 6.03852 28.2837 6.02327C28.2598 6.00801 28.2321 5.99994 28.2038 6.00001H15.7973C15.7689 5.99966 15.741 6.00754 15.7169 6.0227C15.6929 6.03786 15.6738 6.05965 15.6618 6.08545Z" fill="#50AF95"/>
<path fill-rule="evenodd" clip-rule="evenodd" d="M23.2657 14.5323C23.195 14.5376 22.8296 14.5594 22.0147 14.5594C21.3666 14.5594 20.9064 14.54 20.7449 14.5323C18.24 14.4221 16.3704 13.9861 16.3704 13.464C16.3704 12.9419 18.24 12.5065 20.7449 12.3945V14.098C20.9087 14.1098 21.3777 14.1375 22.0259 14.1375C22.8037 14.1375 23.1932 14.1051 23.2633 14.0986V12.3957C25.7629 12.5071 27.6284 12.9431 27.6284 13.464C27.6284 13.9849 25.7635 14.4209 23.2633 14.5317L23.2657 14.5323ZM23.2657 12.2195V10.6952H26.754V8.37061H17.2566V10.6952H20.7443V12.2189C17.9095 12.3492 15.7776 12.9107 15.7776 13.5836C15.7776 14.2565 17.9095 14.8175 20.7443 14.9483V19.8331H23.2651V14.9466C26.0935 14.8163 28.2218 14.2554 28.2218 13.583C28.2218 12.9107 26.0952 12.3498 23.2651 12.2189L23.2657 12.2195Z" fill="white"/>
<circle cx="27.4166" cy="19.7501" r="4.58333" fill="#FF060A"/>
<path d="M27.4647 23.5L30.6796 18.9451L27.4647 19.7599V23.5Z" fill="white"/>
<path d="M24.1241 16.8333L27.3513 19.5248L29.4942 17.639L24.1241 16.8333Z" fill="white"/>
<path d="M27.239 23.3777V19.7252L24.1056 17.1123L27.239 23.3777Z" fill="white"/>
<path d="M27.7751 19.4495L30.7271 18.7014L29.7428 17.7175L27.7751 19.4495Z" fill="white"/>
</symbol>

<symbol id="usdt(erc20)" width="45" height="30" viewBox="0 0 45 30" fill="none">
<rect x="0.5" y="0.5" width="44" height="29" rx="4.5" stroke="black" stroke-opacity="0.05"/>
<path fill-rule="evenodd" clip-rule="evenodd" d="M15.6618 6.08545L12.015 13.7456C12.0011 13.7741 11.9967 13.8063 12.0024 13.8374C12.0082 13.8686 12.0237 13.8971 12.0468 13.9188L21.896 23.3567C21.924 23.3836 21.9612 23.3985 22 23.3985C22.0388 23.3985 22.076 23.3836 22.104 23.3567L31.9532 13.9194C31.9763 13.8977 31.9918 13.8692 31.9976 13.838C32.0033 13.8069 31.9989 13.7747 31.985 13.7462L28.3382 6.08604C28.3264 6.06031 28.3075 6.03852 28.2837 6.02327C28.2598 6.00801 28.2321 5.99994 28.2038 6.00001H15.7973C15.7689 5.99966 15.741 6.00754 15.7169 6.0227C15.6929 6.03786 15.6738 6.05965 15.6618 6.08545Z" fill="#50AF95"/>
<path fill-rule="evenodd" clip-rule="evenodd" d="M23.2657 14.5323C23.195 14.5376 22.8296 14.5594 22.0147 14.5594C21.3666 14.5594 20.9064 14.54 20.7449 14.5323C18.24 14.4221 16.3704 13.9861 16.3704 13.464C16.3704 12.9419 18.24 12.5065 20.7449 12.3945V14.098C20.9087 14.1098 21.3777 14.1375 22.0259 14.1375C22.8037 14.1375 23.1932 14.1051 23.2633 14.0986V12.3957C25.7629 12.5071 27.6284 12.9431 27.6284 13.464C27.6284 13.9849 25.7635 14.4209 23.2633 14.5317L23.2657 14.5323ZM23.2657 12.2195V10.6952H26.754V8.37061H17.2566V10.6952H20.7443V12.2189C17.9095 12.3492 15.7776 12.9107 15.7776 13.5836C15.7776 14.2565 17.9095 14.8175 20.7443 14.9483V19.8331H23.2651V14.9466C26.0935 14.8163 28.2218 14.2554 28.2218 13.583C28.2218 12.9107 26.0952 12.3498 23.2651 12.2189L23.2657 12.2195Z" fill="white"/>
<circle cx="27.1367" cy="19.7501" r="4.58333" fill="#34364B"/>
<path d="M27.1331 16.5417L27.0931 16.6778V20.6257L27.1331 20.6657L28.9657 19.5825L27.1331 16.5417Z" fill="white"/>
<path d="M27.1353 16.5417L25.3027 19.5825L27.1353 20.6657V18.7495V16.5417Z" fill="white"/>
<path d="M27.1371 21.0128L27.1146 21.0404V22.4467L27.1371 22.5126L28.9708 19.9302L27.1371 21.0128Z" fill="white"/>
<path d="M27.1353 22.5126V21.0128L25.3027 19.9302L27.1353 22.5126Z" fill="white"/>
</symbol>

<symbol id="unionpay" width="45" height="30" viewBox="0 0 45 30" fill="none">
<rect x="0.5" y="0.5" width="44" height="29" rx="4.5" stroke="black" stroke-opacity="0.05"/>
<path d="M15.0092 7H21.3935C22.2847 7 22.8389 7.7264 22.631 8.62054L19.6587 21.3819C19.4489 22.273 18.5567 23 17.6649 23H11.2812C10.3912 23 9.83571 22.273 10.0436 21.3819L13.0172 8.62054C13.2251 7.7264 14.1169 7 15.0092 7Z" fill="#E21836"/>
<path d="M20.8622 7H28.204C29.095 7 28.6932 7.7264 28.4836 8.62054L25.5118 21.3819C25.3032 22.273 25.3683 23 24.4754 23H17.1336C16.2407 23 15.6881 22.273 15.8979 21.3819L18.8696 8.62054C19.0806 7.7264 19.9706 7 20.8622 7Z" fill="#00447C"/>
<path d="M27.9128 7H34.2971C35.1895 7 35.7438 7.7264 35.5342 8.62054L32.5623 21.3819C32.3525 22.273 31.4596 23 30.5674 23H24.186C23.2931 23 22.7393 22.273 22.9485 21.3819L25.9208 8.62054C26.1287 7.7264 27.0199 7 27.9128 7Z" fill="#007B84"/>
<path d="M16.6766 11.0897C16.02 11.0964 15.8261 11.0897 15.7642 11.075C15.7404 11.1882 15.2974 13.2318 15.2961 13.2335C15.2007 13.647 15.1313 13.9417 14.8956 14.132C14.7618 14.2427 14.6055 14.2961 14.4244 14.2961C14.1332 14.2961 13.9636 14.1515 13.9351 13.8773L13.9297 13.7832C13.9297 13.7832 14.0184 13.2293 14.0184 13.2262C14.0184 13.2262 14.4834 11.3639 14.5666 11.1177C14.571 11.1037 14.5722 11.0964 14.5733 11.0897C13.6683 11.0976 13.5078 11.0897 13.4968 11.075C13.4907 11.0951 13.4683 11.2106 13.4683 11.2106L12.9935 13.3096L12.9528 13.4876L12.8739 14.0699C12.8739 14.2427 12.9078 14.3837 12.9753 14.5029C13.1916 14.8808 13.8086 14.9375 14.1577 14.9375C14.6074 14.9375 15.0292 14.8419 15.3143 14.6675C15.8092 14.3751 15.9386 13.9181 16.0541 13.5119L16.1076 13.3036C16.1076 13.3036 16.5866 11.3693 16.668 11.1177C16.6711 11.1037 16.6724 11.0964 16.6766 11.0897ZM18.3062 12.6501C18.1908 12.6501 17.9798 12.6781 17.7902 12.771C17.7214 12.8063 17.6564 12.8471 17.5878 12.8877L17.6497 12.6641L17.6158 12.6264C17.2138 12.7078 17.1239 12.7187 16.7526 12.771L16.7215 12.7917C16.6784 13.1491 16.6401 13.4178 16.4803 14.1204C16.4194 14.3794 16.3563 14.6408 16.2929 14.8991L16.31 14.9319C16.6905 14.9119 16.806 14.9119 17.1367 14.9173L17.1634 14.8882C17.2054 14.673 17.2109 14.6226 17.3039 14.1867C17.3477 13.9801 17.4389 13.526 17.4838 13.3643C17.5665 13.326 17.648 13.2884 17.7258 13.2884C17.9111 13.2884 17.8886 13.4501 17.8814 13.5145C17.8735 13.6226 17.8059 13.9759 17.7367 14.2792L17.6905 14.4749C17.6583 14.6195 17.6229 14.76 17.5907 14.9033L17.6047 14.9319C17.9798 14.9119 18.0941 14.9119 18.4144 14.9173L18.452 14.8882C18.5099 14.5521 18.5269 14.4622 18.6296 13.9728L18.6813 13.7479C18.7816 13.3078 18.832 13.0847 18.7561 12.9029C18.6758 12.6992 18.4832 12.6501 18.3062 12.6501ZM20.1268 13.1108C19.9274 13.1491 19.8003 13.1746 19.6739 13.1911C19.5487 13.2112 19.4265 13.2294 19.2339 13.2561L19.2186 13.27L19.2046 13.281C19.1845 13.4245 19.1705 13.5485 19.1439 13.6943C19.1214 13.8451 19.0867 14.0165 19.0302 14.2626C18.9864 14.4511 18.9639 14.5168 18.939 14.583C18.9147 14.6493 18.8879 14.7138 18.8388 14.8991L18.8503 14.9162L18.8599 14.9319C19.04 14.9234 19.1578 14.9173 19.2788 14.9162C19.3997 14.9119 19.525 14.9162 19.7189 14.9173L19.7359 14.9035L19.7541 14.8882C19.7821 14.7211 19.7863 14.6761 19.8034 14.5946C19.8204 14.5071 19.8496 14.386 19.9214 14.0627C19.9553 13.9108 19.9931 13.7594 20.0283 13.6044C20.0648 13.45 20.1031 13.298 20.1395 13.1461L20.1341 13.1278L20.1268 13.1108ZM20.131 12.4896C19.9499 12.3827 19.632 12.4166 19.418 12.5643C19.2047 12.709 19.1804 12.9144 19.3609 13.0227C19.5389 13.1266 19.8581 13.0957 20.0702 12.9468C20.283 12.7989 20.3097 12.5954 20.131 12.4896ZM21.2264 14.9654C21.5929 14.9654 21.9686 14.8644 22.2513 14.5647C22.4688 14.3217 22.5686 13.96 22.6031 13.8111C22.7156 13.3175 22.628 13.087 22.518 12.9467C22.3509 12.7327 22.0555 12.6641 21.7491 12.6641C21.5649 12.6641 21.1261 12.6823 20.7833 12.9983C20.5371 13.2263 20.4233 13.5357 20.3547 13.8323C20.2855 14.1345 20.2058 14.6785 20.7061 14.8809C20.8604 14.9472 21.083 14.9654 21.2264 14.9654ZM21.1978 13.8548C21.2823 13.481 21.3821 13.1673 21.6366 13.1673C21.8361 13.1673 21.8506 13.4008 21.7619 13.7758C21.746 13.859 21.6732 14.1685 21.5747 14.3003C21.5059 14.3976 21.4245 14.4566 21.3346 14.4566C21.3078 14.4566 21.1486 14.4566 21.1461 14.2202C21.1449 14.1035 21.1687 13.9843 21.1978 13.8548ZM23.5192 14.9174L23.5479 14.8883C23.5885 14.6731 23.5952 14.6225 23.6851 14.1868C23.7301 13.9801 23.8231 13.526 23.8669 13.3644C23.9496 13.3259 24.0298 13.2883 24.1101 13.2883C24.2942 13.2883 24.2718 13.4499 24.2644 13.5144C24.2578 13.6227 24.1902 13.9758 24.1197 14.279L24.076 14.4748C24.0425 14.6195 24.0061 14.7599 23.9739 14.9034L23.9879 14.932C24.3642 14.9119 24.4742 14.9119 24.7963 14.9174L24.8352 14.8883C24.8917 14.552 24.907 14.462 25.0128 13.9728L25.0632 13.7478C25.164 13.3077 25.2151 13.0847 25.1404 12.903C25.0578 12.6993 24.8639 12.6501 24.6894 12.6501C24.5738 12.6501 24.3617 12.678 24.1733 12.771C24.1059 12.8063 24.0383 12.8469 23.9721 12.8877L24.0298 12.6641L23.9988 12.6263C23.597 12.7078 23.5052 12.7187 23.1344 12.771L23.1059 12.7917C23.0609 13.1491 23.0244 13.4177 22.8646 14.1205C22.8037 14.3794 22.7405 14.6408 22.6774 14.8992L22.6943 14.932C23.0754 14.9119 23.1892 14.9119 23.5192 14.9174ZM26.2837 14.9319C26.3074 14.8164 26.4479 14.1321 26.4492 14.1321C26.4492 14.1321 26.5688 13.6299 26.5761 13.6117C26.5761 13.6117 26.6138 13.5594 26.6515 13.5387H26.7069C27.2296 13.5387 27.8198 13.5387 28.2824 13.1984C28.5972 12.965 28.8124 12.6203 28.9084 12.2014C28.9333 12.0987 28.9517 11.9765 28.9517 11.8544C28.9517 11.6939 28.9195 11.5352 28.8264 11.4112C28.5905 11.0811 28.1207 11.0751 27.5784 11.0726C27.5767 11.0726 27.3111 11.0751 27.3111 11.0751C26.6169 11.0836 26.3385 11.0811 26.2241 11.0671C26.2145 11.1177 26.1963 11.2077 26.1963 11.2077C26.1963 11.2077 25.9476 12.3601 25.9476 12.362C25.9476 12.362 25.3526 14.8122 25.3246 14.9277C25.9307 14.9204 26.1792 14.9204 26.2837 14.9319ZM26.7445 12.8847C26.7445 12.8847 27.0089 11.7346 27.0076 11.7389L27.0162 11.6799L27.0199 11.635L27.1256 11.6459C27.1256 11.6459 27.6709 11.6927 27.6836 11.6939C27.8988 11.7772 27.9875 11.9918 27.9256 12.2719C27.8691 12.5279 27.7031 12.7431 27.4897 12.847C27.314 12.9351 27.0988 12.9424 26.8771 12.9424H26.7336L26.7445 12.8847ZM28.3906 13.8761C28.3208 14.174 28.2405 14.718 28.7383 14.9119C28.897 14.9794 29.0392 14.9995 29.1838 14.9922C29.3364 14.9839 29.4779 14.9074 29.6089 14.7972C29.5971 14.8425 29.5853 14.8878 29.5734 14.9332L29.596 14.9623C29.9541 14.9472 30.0652 14.9472 30.4531 14.9502L30.4883 14.9234C30.5449 14.5904 30.5983 14.267 30.7455 13.63C30.8172 13.3248 30.8888 13.0226 30.9624 12.7187L30.9509 12.6852C30.5504 12.7595 30.4433 12.7753 30.058 12.83L30.0288 12.8538C30.0249 12.8847 30.0208 12.9145 30.0171 12.9442C29.9572 12.8474 29.8703 12.7648 29.7364 12.7132C29.565 12.6459 29.1626 12.7327 28.8167 13.0477C28.5736 13.2725 28.4569 13.5806 28.3906 13.8761ZM29.2319 13.8943C29.3176 13.5273 29.4161 13.2167 29.6713 13.2167C29.8327 13.2167 29.9177 13.3656 29.9004 13.6195C29.8867 13.6829 29.8719 13.7496 29.8543 13.8251C29.8288 13.9342 29.8011 14.0423 29.7742 14.1506C29.7468 14.2247 29.7149 14.2946 29.6799 14.3411C29.6142 14.4342 29.458 14.4919 29.368 14.4919C29.3425 14.4919 29.185 14.4919 29.1796 14.2597C29.1783 14.1441 29.2021 14.0251 29.2319 13.8943ZM33.6249 12.6823L33.5939 12.6469C33.1976 12.7272 33.1258 12.74 32.7617 12.7892L32.7349 12.8159C32.7337 12.8203 32.7326 12.827 32.7307 12.8331L32.7295 12.827C32.4584 13.4524 32.4663 13.3175 32.2457 13.8098C32.2444 13.7874 32.2444 13.7734 32.2432 13.7496L32.1879 12.6823L32.1532 12.6469C31.7381 12.7272 31.7283 12.74 31.3448 12.7892L31.315 12.8159C31.3108 12.8287 31.3108 12.8427 31.3083 12.8579L31.3108 12.8634C31.3587 13.1083 31.3472 13.0537 31.3953 13.4402C31.4177 13.6299 31.4475 13.8207 31.47 14.0081C31.5078 14.3216 31.5289 14.476 31.5751 14.9545C31.3162 15.3818 31.2549 15.5435 31.0056 15.9185L31.0073 15.9223L30.8318 16.1999C30.8117 16.2291 30.7935 16.2492 30.768 16.2578C30.74 16.2716 30.7036 16.2741 30.653 16.2741H30.5557L30.4112 16.7549L30.9071 16.7635C31.1983 16.7622 31.3813 16.6261 31.4798 16.4431L31.7916 15.9087H31.7866L31.8195 15.8711C32.0292 15.4195 33.6249 12.6823 33.6249 12.6823ZM28.3906 18.9974H28.1802L28.9589 16.4218H29.2172L29.2992 16.1565L29.3072 16.4516C29.2975 16.6339 29.441 16.7956 29.8179 16.7689H30.2538L30.4038 16.2729H30.2398C30.1455 16.2729 30.1017 16.2491 30.1072 16.1981L30.0992 15.8979H29.2921V15.8995C29.0311 15.9049 28.2518 15.9245 28.094 15.9665C27.9031 16.0157 27.7019 16.1604 27.7019 16.1604L27.7809 15.8948H27.0259L26.8686 16.4218L26.0795 19.0367H25.9264L25.7762 19.5291H27.28L27.2296 19.6933H27.9706L28.0198 19.5291H28.2277L28.3906 18.9974ZM27.7736 16.9452C27.6527 16.9786 27.4277 17.0801 27.4277 17.0801L27.6278 16.4218H28.2277L28.083 16.9014C28.083 16.9014 27.8976 16.9123 27.7736 16.9452ZM27.7851 17.8855C27.7851 17.8855 27.5967 17.9092 27.4727 17.9372C27.3505 17.9742 27.1214 18.0909 27.1214 18.0909L27.3281 17.4059H27.9311L27.7851 17.8855ZM27.449 19.0034H26.8473L27.0217 18.4253H27.6216L27.449 19.0034ZM28.8982 17.4059H29.7655L29.6409 17.8096H28.762L28.63 18.2509H29.3991L28.8168 19.0708C28.776 19.131 28.7394 19.1524 28.6988 19.1693C28.6581 19.19 28.6045 19.2143 28.5426 19.2143H28.3292L28.1827 19.6976H28.7407C29.0307 19.6976 29.2021 19.5657 29.3286 19.3925L29.7279 18.846L29.8136 19.4009C29.8318 19.5048 29.9065 19.5657 29.9571 19.5893C30.013 19.6173 30.0707 19.6654 30.1522 19.6726C30.2397 19.6763 30.3029 19.6793 30.3449 19.6793H30.6191L30.7837 19.1384H30.6756C30.6135 19.1384 30.5066 19.1279 30.4884 19.1085C30.4702 19.0848 30.4702 19.0484 30.4603 18.993L30.3734 18.4369H30.0172L30.1734 18.2509H31.0506L31.1855 17.8096H30.3734L30.4999 17.4059H31.3095L31.4597 16.9081H29.0458L28.8982 17.4059ZM21.5722 19.1158L21.7747 18.4424H22.6067L22.7588 17.9414H21.9259L22.0531 17.5269H22.8669L23.0177 17.0419H20.9814L20.8337 17.5269H21.2963L21.1729 17.9414H20.7091L20.5553 18.4509H21.0178L20.748 19.3419C20.7116 19.4599 20.7651 19.5049 20.799 19.5597C20.8337 19.613 20.8689 19.6483 20.9479 19.6684C21.0295 19.6866 21.0853 19.6975 21.1613 19.6975H22.0993L22.2664 19.1426L21.8506 19.1997C21.7703 19.1997 21.548 19.1901 21.5722 19.1158ZM21.6677 15.8918L21.4568 16.2728C21.4117 16.3561 21.3711 16.4078 21.3345 16.4316C21.3023 16.4516 21.2385 16.4601 21.1461 16.4601H21.036L20.889 16.9476H21.2544C21.4301 16.9476 21.565 16.8832 21.6294 16.8509C21.6986 16.8139 21.7168 16.8351 21.7704 16.7834L21.8938 16.6765H23.0347L23.1861 16.1689H22.351L22.4968 15.8918H21.6677ZM23.3521 19.1256C23.3326 19.0976 23.3466 19.0483 23.3764 18.9456L23.6882 17.9134H24.7976C24.9592 17.9111 25.0759 17.9092 25.1519 17.9038C25.2334 17.8952 25.3221 17.8661 25.4188 17.8138C25.5185 17.7591 25.5695 17.7013 25.6127 17.635C25.6607 17.5689 25.7379 17.4242 25.8042 17.201L26.1962 15.8948L25.045 15.9015C25.045 15.9015 24.6905 15.9538 24.5344 16.0115C24.3769 16.076 24.1519 16.2558 24.1519 16.2558L24.2559 15.8978H23.5447L22.5491 19.1997C22.5138 19.3279 22.4901 19.421 22.4847 19.4768C22.4828 19.5371 22.5606 19.5967 22.6111 19.6416C22.6707 19.6866 22.7587 19.6793 22.8432 19.6866C22.9321 19.6933 23.0584 19.6975 23.2329 19.6975H23.7794L23.9471 19.1311L23.4579 19.1773C23.4056 19.1773 23.3678 19.1493 23.3521 19.1256ZM23.8894 17.2163H25.0546L24.9806 17.4484C24.9701 17.4539 24.9452 17.4369 24.8267 17.4509H23.8177L23.8894 17.2163ZM24.1228 16.4376H25.2978L25.2134 16.7172C25.2134 16.7172 24.6595 16.7118 24.5708 16.7281C24.1806 16.7957 23.9526 17.0042 23.9526 17.0042L24.1228 16.4376ZM25.0066 18.2259C24.997 18.2606 24.9817 18.2818 24.9604 18.2977C24.9368 18.3129 24.8985 18.3184 24.8414 18.3184H24.6753L24.6851 18.0356H23.9945L23.9665 19.4179C23.9654 19.5177 23.9751 19.5754 24.0481 19.6216C24.1211 19.6793 24.3459 19.6867 24.6486 19.6867H25.0813L25.2376 19.1693L24.8608 19.1899L24.7356 19.1973C24.7184 19.1899 24.7021 19.1833 24.6839 19.165C24.668 19.1493 24.6413 19.159 24.6456 19.0592L24.6486 18.7049L25.0437 18.6886C25.257 18.6886 25.3482 18.6192 25.426 18.553C25.5002 18.4897 25.5245 18.4169 25.5525 18.3184L25.6188 18.0047H25.0759L25.0066 18.2259Z" fill="#FEFEFE"/>
</symbol>

<symbol id="tron" width="45" height="30" viewBox="0 0 45 30" fill="none">
<rect x="0.5" y="0.5" width="44" height="29" rx="4.5" stroke="black" stroke-opacity="0.05"/>
<path fill-rule="evenodd" clip-rule="evenodd" d="M23 25C17.5 25 13 20.5001 13 14.9502C13.05 9.45032 17.5 4.95041 23.05 5.00041C28.55 5.05041 33 9.50032 33 15.1002C32.95 20.5501 28.5 25 23 25" fill="#FC070C"/>
<path fill-rule="evenodd" clip-rule="evenodd" d="M29.206 12.0051L29.2059 12.0051C28.7428 11.5554 28.2534 11.0803 27.8215 10.6969L27.7778 10.6663C27.705 10.6078 27.6229 10.562 27.535 10.5307L27.2016 10.4685C24.9016 10.0393 17.4465 8.64828 17.2931 8.66693C17.2478 8.67329 17.2044 8.68973 17.1662 8.71506L17.1247 8.74787C17.0735 8.79985 17.0346 8.86264 17.0109 8.93162L17 8.96006V9.11537V9.13943C17.5061 10.5488 18.821 13.6963 20.035 16.6025L20.035 16.6025C21.0614 19.0595 22.0157 21.3441 22.3484 22.26L22.3485 22.2604C22.3923 22.3961 22.4754 22.6538 22.6306 22.6669H22.6656C22.7487 22.6669 23.1031 22.1988 23.1031 22.1988C23.1031 22.1988 29.4381 14.5163 30.079 13.6982C30.162 13.5974 30.2352 13.489 30.2978 13.3744C30.3302 13.1921 30.2646 13.0061 30.125 12.8844C29.8521 12.6324 29.5357 12.3252 29.206 12.0051ZM24.7284 13.779L27.4322 11.5368L29.0181 12.9981L24.7284 13.779ZM19.0234 9.81746L23.6784 13.6325L26.555 11.2065L19.0234 9.81746ZM24.0984 14.6321L28.8628 13.8643L23.4159 20.4268L24.0984 14.6321ZM23.289 14.3543L18.3912 10.1981L22.5803 20.4312L23.289 14.3543Z" fill="white"/>
</symbol>

<symbol id="stripe" width="45" height="30" viewBox="0 0 45 30" fill="none">
<rect x="0.5" y="0.5" width="44" height="29" rx="4.5" stroke="black" stroke-opacity="0.05"/>
<path fill-rule="evenodd" clip-rule="evenodd" d="M23.5823 10.7617L21.4468 11.2303V9.45997L23.5823 9V10.7617ZM28.0235 11.7423C27.1897 11.7423 26.6537 12.1416 26.3559 12.4192L26.2453 11.8812H24.3735V22L26.5006 21.5401L26.5091 19.0841C26.8154 19.3098 27.2663 19.6308 28.015 19.6308C29.5379 19.6308 30.9247 18.3812 30.9247 15.6302C30.9162 13.1135 29.5124 11.7423 28.0235 11.7423ZM27.513 17.7216C27.011 17.7216 26.7132 17.5394 26.5091 17.3137L26.5006 14.0942C26.7218 13.8425 27.0281 13.6689 27.513 13.6689C28.2872 13.6689 28.8233 14.5541 28.8233 15.6909C28.8233 16.8538 28.2957 17.7216 27.513 17.7216ZM37.6291 15.717C37.6291 13.4954 36.5741 11.7423 34.5577 11.7423C32.5328 11.7423 31.3076 13.4954 31.3076 15.6996C31.3076 18.3118 32.754 19.6308 34.8299 19.6308C35.8425 19.6308 36.6082 19.3965 37.1867 19.0668V17.3311C36.6082 17.6262 35.9445 17.8084 35.1022 17.8084C34.2769 17.8084 33.5453 17.5134 33.4516 16.4894H37.6121C37.6121 16.4415 37.6152 16.3328 37.6187 16.2076C37.6235 16.0376 37.6291 15.837 37.6291 15.717ZM33.4261 14.8925C33.4261 13.9119 34.0132 13.504 34.5492 13.504C35.0682 13.504 35.6212 13.9119 35.6212 14.8925H33.4261ZM21.4468 11.8899H23.5823V19.4834H21.4468V11.8899ZM19.0219 11.8899L19.1581 12.5321C19.66 11.5948 20.6555 11.7857 20.9278 11.8899V13.8859C20.664 13.7904 19.8132 13.6689 19.3112 14.3371V19.4834H17.1842V11.8899H19.0219ZM14.904 10.0067L12.828 10.4579L12.8195 17.4092C12.8195 18.6936 13.7639 19.6396 15.0231 19.6396C15.7208 19.6396 16.2313 19.5094 16.512 19.3532V17.5915C16.2398 17.7043 14.8955 18.1035 14.8955 16.8191V13.7383H16.512V11.8899H14.8955L14.904 10.0067ZM9.87577 13.6255C9.42483 13.6255 9.15254 13.7557 9.15254 14.0942C9.15254 14.4637 9.62109 14.6262 10.2024 14.8279C11.1501 15.1567 12.3974 15.5894 12.4027 17.1923C12.4027 18.7457 11.186 19.6396 9.41633 19.6396C8.6846 19.6396 7.88488 19.492 7.09359 19.1449V17.0794C7.8083 17.4787 8.7101 17.7737 9.41633 17.7737C9.89277 17.7737 10.2331 17.6435 10.2331 17.2444C10.2331 16.835 9.72515 16.6479 9.11196 16.4221C8.17807 16.078 7 15.6441 7 14.1983C7 12.6622 8.14859 11.7423 9.87577 11.7423C10.5819 11.7423 11.2796 11.8552 11.9857 12.1416V14.1809C11.3392 13.8251 10.5224 13.6255 9.87577 13.6255Z" fill="#6772E5"/>
</symbol>

<symbol id="skrill" width="45" height="30" viewBox="0 0 45 30" fill="none">
<rect x="0.5" y="0.5" width="44" height="29" rx="4.5" stroke="black" stroke-opacity="0.05"/>
<path fill-rule="evenodd" clip-rule="evenodd" d="M35.0126 10.9828V19.8997H37.4657V10.5469L35.0126 10.9828Z" fill="#862165"/>
<path fill-rule="evenodd" clip-rule="evenodd" d="M31.4318 10.9828L33.8833 10.5469V19.8997H31.4318V10.9828Z" fill="#862165"/>
<path fill-rule="evenodd" clip-rule="evenodd" d="M27.9396 19.8997V13.0588H30.3924V19.8997H27.9396Z" fill="#862165"/>
<path fill-rule="evenodd" clip-rule="evenodd" d="M27.9566 11.2017C27.9566 10.5383 28.4983 10 29.1653 10C29.8334 10 30.3747 10.5383 30.3747 11.2017C30.3747 11.8657 29.8334 12.4027 29.1653 12.4027C28.4983 12.4027 27.9566 11.8657 27.9566 11.2017Z" fill="#862165"/>
<path fill-rule="evenodd" clip-rule="evenodd" d="M26.5562 12.9585C24.2901 13.0312 23.1388 14.042 23.1388 16.0513V19.8997H25.6119V16.7609C25.6119 15.5584 25.7706 15.0428 27.2071 14.9936V12.9941C26.9655 12.9429 26.5562 12.9585 26.5562 12.9585Z" fill="#862165"/>
<path fill-rule="evenodd" clip-rule="evenodd" d="M19.9021 13.051C19.8479 13.1877 19.4559 14.2902 18.5053 15.4327V10.5469L15.974 11.0445V19.8997H18.5053V17.1621C19.2382 18.255 19.6004 19.8997 19.6004 19.8997H22.6317C22.332 18.6608 21.0204 16.3772 21.0204 16.3772C22.198 14.8933 22.7146 13.3129 22.7971 13.051H19.9021Z" fill="#862165"/>
<path fill-rule="evenodd" clip-rule="evenodd" d="M11.7293 14.0264C11.4194 14.0065 10.7013 13.9601 10.7013 13.318C10.7013 12.5432 11.7344 12.5432 12.1221 12.5432C12.804 12.5432 13.6863 12.7431 14.3171 12.9308C14.3171 12.9308 14.6683 13.0542 14.9673 13.1799L14.9951 13.1877V11.0655L14.9578 11.0542C14.213 10.7955 13.3485 10.5469 11.7446 10.5469C8.97966 10.5469 8 12.1467 8 13.5186C8 14.3086 8.34095 16.1696 11.5066 16.3839C11.7757 16.4003 12.4882 16.4412 12.4882 17.1047C12.4882 17.6527 11.9049 17.9751 10.9241 17.9751C9.84934 17.9751 8.80604 17.7035 8.17283 17.4447V19.6296C9.12107 19.8774 10.1903 20 11.4434 20C14.1458 20 15.3573 18.486 15.3573 16.9849C15.3573 15.2836 14.0025 14.1778 11.7293 14.0264Z" fill="#862165"/>
</symbol>

<symbol id="sepa" width="45" height="30" viewBox="0 0 45 30" fill="none">
<rect x="0.5" y="0.5" width="44" height="29" rx="4.5" stroke="black" stroke-opacity="0.05"/>
<path fill-rule="evenodd" clip-rule="evenodd" d="M12.1259 13.19H9.62336C9.62336 12.7791 9.57513 12.5033 9.47909 12.363C9.33024 12.1553 8.91911 12.0513 8.2464 12.0513C7.5931 12.0513 7.15994 12.1111 6.94861 12.2308C6.73737 12.3509 6.63167 12.6122 6.63167 13.0143C6.63167 13.3784 6.72525 13.6181 6.91293 13.733C7.04745 13.8145 7.22504 13.8625 7.44662 13.8767L7.95124 13.9124C9.03287 13.9842 9.70838 14.0348 9.97786 14.0636C10.8332 14.1499 11.4532 14.3775 11.838 14.7463C12.1408 15.0341 12.3213 15.4101 12.379 15.8745C12.4126 16.1523 12.4294 16.4667 12.4294 16.816C12.4294 17.621 12.3526 18.2106 12.1988 18.5843C11.9202 19.2699 11.2943 19.7029 10.3204 19.8847C9.91233 19.9616 9.28811 20.0001 8.44857 20.0001C7.04703 20.0001 6.07034 19.9166 5.51886 19.7488C4.842 19.5434 4.39578 19.127 4.17983 18.5C4.05953 18.151 4 17.5697 4 16.756H6.50248C6.50248 16.8467 6.50274 16.9162 6.50274 16.964C6.50274 17.3981 6.62752 17.6775 6.87648 17.8018C7.04898 17.8876 7.25734 17.9326 7.50223 17.9379H8.42221C8.89173 17.9379 9.19139 17.9139 9.32057 17.8656C9.55063 17.7751 9.7016 17.6294 9.77374 17.4277C9.81205 17.3036 9.83113 17.143 9.83113 16.9465C9.83113 16.5062 9.67041 16.2384 9.34973 16.1423C9.22979 16.1043 8.67176 16.0515 7.67575 15.9843C6.87597 15.9272 6.3204 15.8723 6.00922 15.8189C5.18989 15.6656 4.64387 15.3503 4.37141 14.8716C4.13192 14.4648 4.01212 13.8494 4.01212 13.0261C4.01212 12.3992 4.07688 11.8964 4.20626 11.5183C4.33575 11.1399 4.54444 10.8528 4.83242 10.6564C5.25428 10.3549 5.79411 10.1779 6.4512 10.125C6.99795 10.0773 7.60446 10.053 8.27166 10.053C9.32193 10.053 10.0704 10.1133 10.5167 10.2331C11.6057 10.5258 12.1501 11.3458 12.1501 12.6933C12.1501 12.8038 12.1421 12.9691 12.1259 13.19Z" fill="#0B4A8E"/>
<path fill-rule="evenodd" clip-rule="evenodd" d="M25.8206 15.0984H27.4976C28.0293 15.0793 28.3527 15.0383 28.4691 14.9743C28.628 14.8868 28.7348 14.7118 28.7879 14.4491C28.8218 14.2743 28.8388 14.0144 28.8388 13.6692C28.8388 13.2462 28.8051 12.9328 28.7373 12.728C28.6406 12.4411 28.4088 12.2664 28.0418 12.203C27.9693 12.1934 27.7955 12.1884 27.5203 12.1884H25.8206V15.0984ZM23.1306 20V10H28.1423C28.8297 10 29.3542 10.0562 29.7147 10.1683C30.5389 10.4268 31.092 10.9558 31.3753 11.7554C31.5215 12.1751 31.5946 12.8069 31.5946 13.6506C31.5946 14.6649 31.5135 15.3939 31.353 15.8377C31.0316 16.7154 30.3699 17.2209 29.3708 17.3519C29.2533 17.3715 28.7533 17.3892 27.871 17.4032L27.4243 17.4182H25.8206V20H23.1306Z" fill="#0B4A8E"/>
<path fill-rule="evenodd" clip-rule="evenodd" d="M36.8025 16.3236L35.5421 11.9887L34.3189 16.3236H36.8025ZM37.3367 18.2717H33.7401L33.2569 20H30.4738L33.4769 10H37.5346L40.5745 20H37.8498L37.3367 18.2717Z" fill="#0B4A8E"/>
<path fill-rule="evenodd" clip-rule="evenodd" d="M19.4179 11.407C20.5274 11.407 21.5176 11.9183 22.1685 12.7193L22.7483 11.4754C21.8415 10.6178 20.6072 10.0891 19.2458 10.0891C17.1263 10.0891 15.3131 11.3699 14.5689 13.1829H13.4382L12.7706 14.6149H14.2252C14.2143 14.7478 14.2072 14.8807 14.2072 15.0163C14.2072 15.1805 14.2157 15.3426 14.232 15.5029H13.501L12.8334 16.9354H14.6036C15.369 18.7026 17.1595 19.9432 19.2458 19.9432C20.2973 19.9432 21.2728 19.628 22.0807 19.0896V17.334C21.4302 18.075 20.4787 18.5433 19.4179 18.5433C18.1779 18.5433 17.0872 17.9036 16.452 16.9354H20.159L20.8265 15.5029H15.9067C15.8813 15.3305 15.8677 15.1544 15.8677 14.9749C15.8677 14.8536 15.874 14.7335 15.8857 14.6149H21.2402L21.9078 13.1829H16.3488C16.9635 12.1213 18.1075 11.407 19.4179 11.407Z" fill="#F6BC25"/>
</symbol>

<symbol id="paypal" width="45" height="30" viewBox="0 0 45 30" fill="none">
<rect x="0.5" y="0.5" width="44" height="29" rx="4.5" stroke="black" stroke-opacity="0.05"/>
<path d="M10.9698 10.4562C10.5278 10.1523 9.95092 10 9.2393 10H6.48428C6.26613 10 6.1456 10.1091 6.12271 10.327L5.00351 17.3524C4.99188 17.4214 5.00914 17.4845 5.05514 17.5419C5.10088 17.5994 5.15841 17.6279 5.2273 17.6279H6.53591C6.76544 17.6279 6.89159 17.5191 6.91475 17.3008L7.22464 15.4069C7.23596 15.3151 7.27632 15.2405 7.34522 15.183C7.41406 15.1256 7.50016 15.0881 7.60348 15.0709C7.70679 15.0538 7.80421 15.0452 7.89621 15.0452C7.98795 15.0452 8.09695 15.051 8.22342 15.0625C8.34957 15.0739 8.42999 15.0795 8.46447 15.0795C9.45161 15.0795 10.2264 14.8014 10.789 14.2445C11.3513 13.6878 11.6328 12.9159 11.6328 11.9285C11.6328 11.2513 11.4116 10.7606 10.9698 10.4562ZM9.54929 12.5656C9.49172 12.9675 9.34267 13.2314 9.10162 13.3577C8.86051 13.4842 8.51615 13.547 8.06852 13.547L7.50027 13.5643L7.79305 11.7218C7.8159 11.5957 7.89047 11.5325 8.01684 11.5325H8.3441C8.80304 11.5325 9.13614 11.5987 9.34277 11.7305C9.54929 11.8626 9.61819 12.1411 9.54929 12.5656Z" fill="#003087"/>
<path d="M40.0439 10H38.7698C38.6432 10 38.5687 10.0632 38.546 10.1894L37.4267 17.3524L37.4094 17.3868C37.4094 17.4445 37.4324 17.4988 37.4784 17.5505C37.5241 17.6021 37.5817 17.6279 37.6505 17.6279H38.7871C39.0049 17.6279 39.1255 17.5191 39.1487 17.3008L40.2679 10.2582V10.241C40.2679 10.0804 40.193 10 40.0439 10Z" fill="#009CDE"/>
<path d="M24.6502 12.7721C24.6502 12.7148 24.6271 12.6602 24.5815 12.6086C24.5354 12.557 24.4837 12.531 24.4265 12.531H23.1006C22.9741 12.531 22.8708 12.5887 22.7907 12.7032L20.9655 15.3894L20.2079 12.8066C20.1503 12.623 20.0241 12.531 19.8291 12.531H18.5375C18.48 12.531 18.4283 12.5569 18.3827 12.6086C18.3366 12.6602 18.3138 12.7148 18.3138 12.7721C18.3138 12.7952 18.4257 13.1337 18.6495 13.788C18.8733 14.4424 19.1144 15.1484 19.3727 15.9061C19.631 16.6636 19.7658 17.0656 19.7773 17.1113C18.836 18.397 18.3654 19.0858 18.3654 19.1775C18.3654 19.3269 18.44 19.4014 18.5893 19.4014H19.9151C20.0414 19.4014 20.1447 19.3441 20.2251 19.2293L24.6159 12.8926C24.6387 12.8697 24.6502 12.8297 24.6502 12.7721Z" fill="#003087"/>
<path d="M36.9961 12.5315H35.6874C35.5266 12.5315 35.4293 12.7209 35.3949 13.0997C35.0961 12.6408 34.5512 12.4109 33.759 12.4109C32.9324 12.4109 32.2292 12.7209 31.6497 13.3408C31.0699 13.9607 30.7802 14.6898 30.7802 15.5276C30.7802 16.205 30.9781 16.7445 31.3741 17.1461C31.7701 17.5482 32.301 17.7488 32.967 17.7488C33.2998 17.7488 33.6384 17.6798 33.9828 17.5422C34.3272 17.4045 34.5967 17.2209 34.7922 16.9912C34.7922 17.0027 34.7805 17.0543 34.7577 17.1461C34.7346 17.2381 34.7233 17.3071 34.7233 17.3527C34.7233 17.5366 34.7977 17.6282 34.9471 17.6282H36.1353C36.3531 17.6282 36.4796 17.5193 36.514 17.3011L37.22 12.807C37.2313 12.7381 37.2141 12.675 37.1683 12.6176C37.1223 12.5603 37.065 12.5315 36.9961 12.5315ZM34.7491 15.9236C34.4564 16.2106 34.1034 16.354 33.6902 16.354C33.3571 16.354 33.0876 16.2624 32.8809 16.0786C32.6742 15.8952 32.5709 15.6426 32.5709 15.321C32.5709 14.8965 32.7143 14.5375 33.0014 14.2448C33.2881 13.9521 33.6442 13.8057 34.069 13.8057C34.3901 13.8057 34.657 13.9004 34.8696 14.0898C35.0818 14.2792 35.1882 14.5405 35.1882 14.8734C35.1882 15.2866 35.0418 15.6368 34.7491 15.9236Z" fill="#009CDE"/>
<path d="M17.4356 12.5315H16.1269C15.966 12.5315 15.8686 12.7209 15.8342 13.0997C15.5242 12.6408 14.9789 12.4109 14.1983 12.4109C13.3718 12.4109 12.6686 12.7209 12.089 13.3408C11.5092 13.9607 11.2195 14.6898 11.2195 15.5276C11.2195 16.205 11.4175 16.7445 11.8136 17.1461C12.2096 17.5482 12.7404 17.7488 13.4063 17.7488C13.7276 17.7488 14.0607 17.6798 14.405 17.5422C14.7493 17.4045 15.0249 17.2209 15.2315 16.9912C15.1854 17.1289 15.1626 17.2495 15.1626 17.3527C15.1626 17.5366 15.2372 17.6282 15.3864 17.6282H16.5745C16.7925 17.6282 16.9189 17.5193 16.9534 17.3011L17.6593 12.807C17.6706 12.7381 17.6534 12.675 17.6077 12.6176C17.5617 12.5603 17.5044 12.5315 17.4356 12.5315ZM15.1885 15.9322C14.8957 16.2137 14.5368 16.354 14.1123 16.354C13.7792 16.354 13.5123 16.2624 13.3116 16.0786C13.1106 15.8952 13.0102 15.6426 13.0102 15.321C13.0102 14.8965 13.1537 14.5375 13.4408 14.2448C13.7276 13.9521 14.0834 13.8057 14.5083 13.8057C14.8296 13.8057 15.0965 13.9004 15.3091 14.0898C15.5213 14.2792 15.6276 14.5405 15.6276 14.8734C15.6276 15.2981 15.4812 15.6512 15.1885 15.9322Z" fill="#003087"/>
<path d="M30.5304 10.4562C30.0884 10.1523 29.5117 10 28.8 10H26.0622C25.8324 10 25.7061 10.1091 25.6833 10.327L24.5641 17.3524C24.5525 17.4214 24.5697 17.4845 24.6158 17.5418C24.6613 17.5993 24.719 17.6279 24.7879 17.6279H26.1998C26.3375 17.6279 26.4293 17.5534 26.4753 17.4041L26.7853 15.4068C26.7967 15.315 26.8369 15.2404 26.9058 15.1829C26.9747 15.1256 27.0607 15.088 27.1641 15.0708C27.2674 15.0538 27.3648 15.0452 27.4569 15.0452C27.5486 15.0452 27.6576 15.051 27.7839 15.0624C27.9102 15.0739 27.9908 15.0795 28.025 15.0795C29.0123 15.0795 29.787 14.8013 30.3496 14.2444C30.912 13.6877 31.1933 12.9158 31.1933 11.9284C31.1934 11.2513 30.9722 10.7606 30.5304 10.4562ZM28.7655 13.2888C28.5129 13.461 28.1341 13.547 27.6291 13.547L27.078 13.5643L27.3708 11.7218C27.3936 11.5957 27.4681 11.5325 27.5946 11.5325H27.9045C28.1569 11.5325 28.3578 11.544 28.5073 11.5669C28.6563 11.59 28.8 11.6616 28.9377 11.7821C29.0755 11.9027 29.1443 12.0778 29.1443 12.3073C29.1443 12.7894 29.0179 13.1165 28.7655 13.2888Z" fill="#009CDE"/>
</symbol>

<symbol id="payline" width="45" height="30" viewBox="0 0 45 30" fill="none">
<rect x="0.5" y="0.5" width="44" height="29" rx="4.5" stroke="black" stroke-opacity="0.05"/>
<path d="M38.039 12.1238C38.0812 12.1691 38.1128 12.2144 38.155 12.2711C38.1865 12.3165 38.2181 12.3505 38.2496 12.3958C38.2918 12.4411 38.334 12.4978 38.3656 12.5431C38.3971 12.5885 38.4393 12.6338 38.4709 12.6791C38.5131 12.7358 38.5553 12.7925 38.5971 12.8491C38.6393 12.9058 38.6709 12.9511 38.7131 13.0078C38.7553 13.0531 38.7868 13.0985 38.829 13.1438C38.8606 13.1891 38.8921 13.2231 38.9237 13.2685C38.9659 13.3251 39.0187 13.3818 39.0609 13.4385C39.1028 13.4838 39.1346 13.5405 39.1765 13.5858C39.2084 13.6312 39.2503 13.6652 39.2821 13.7105C39.3031 13.7332 39.3137 13.7558 39.3346 13.7785C39.3559 13.8125 39.3875 13.8352 39.4084 13.8692C39.4293 13.8918 39.4506 13.9258 39.4715 13.9485C39.4928 13.9712 39.5243 14.0052 39.535 14.0392C39.5665 14.0845 39.6087 14.1185 39.6403 14.1752C39.6612 14.2092 39.6928 14.2318 39.714 14.2658C39.7562 14.3225 39.8087 14.3905 39.8509 14.4472C39.8718 14.4812 39.9034 14.5039 39.9246 14.5379C39.9562 14.5832 39.9878 14.6172 40.0193 14.6625C40.0406 14.6965 40.0721 14.7192 40.0931 14.7532C40.1246 14.7985 40.1565 14.8439 40.1881 14.8892C40.2196 14.9345 40.2618 14.9799 40.3037 15.0252C40.3356 15.0592 40.3565 15.0932 40.3775 15.1272C40.4093 15.1612 40.3987 15.1952 40.3671 15.2292C40.325 15.2859 40.2828 15.3425 40.2303 15.3992C40.1984 15.4445 40.1565 15.4899 40.1246 15.5239C40.0828 15.5692 40.0509 15.6259 40.009 15.6712C39.9771 15.7165 39.9353 15.7619 39.9034 15.8072C39.8615 15.8525 39.83 15.9092 39.7981 15.9545C39.7665 15.9999 39.7243 16.0452 39.6928 16.0905C39.6718 16.1245 39.6403 16.1586 39.619 16.1926C39.5875 16.2379 39.5559 16.2719 39.5243 16.3172C39.4928 16.3512 39.4715 16.3852 39.44 16.4192C39.3978 16.4759 39.3453 16.5326 39.3031 16.5892C39.2715 16.6346 39.2293 16.6799 39.1978 16.7252C39.1556 16.7706 39.1134 16.8272 39.0818 16.8726C39.0609 16.9066 39.029 16.9406 39.0081 16.9746C38.9765 17.0199 38.9343 17.0653 38.9028 17.1106C38.8712 17.1559 38.829 17.2013 38.7975 17.2466C38.7446 17.3033 38.7025 17.3713 38.65 17.4279C38.5971 17.4959 38.5446 17.5639 38.4918 17.6319C38.4496 17.6773 38.4078 17.7339 38.3759 17.7793C38.3443 17.8246 38.3128 17.8699 38.2706 17.9153C38.239 17.9606 38.1968 18.0059 38.1653 18.0513C38.1337 18.0966 38.0915 18.1419 38.06 18.1873C38.06 18.1873 38.0493 18.1873 38.039 18.1986C38.039 16.1812 38.039 14.1638 38.039 12.1464C38.0284 12.1238 38.039 12.1238 38.039 12.1238Z" fill="#7FA9B3"/>
<path fill-rule="evenodd" clip-rule="evenodd" d="M6.06878 12.3248H5C5 14.8762 5 17.4381 5.02096 20H6.13165V17.3126C6.16341 17.3506 6.19902 17.381 6.23381 17.4106C6.25641 17.4299 6.27867 17.4489 6.2993 17.4695C6.45648 17.6159 6.64508 17.7309 6.84417 17.8041C7.12708 17.9086 7.41 17.9086 7.70339 17.8877C7.892 17.8773 8.0806 17.8459 8.26921 17.7936C8.46831 17.7413 8.64643 17.6577 8.79312 17.5217C9.03412 17.3021 9.19131 17.0303 9.29609 16.727C9.39037 16.4447 9.45324 16.1624 9.47421 15.8591C9.49518 15.65 9.51612 15.4409 9.51612 15.2317C9.51612 15.0017 9.50565 14.7612 9.49518 14.5311C9.48468 14.3847 9.46374 14.2383 9.44277 14.092C9.41134 13.9037 9.36943 13.7155 9.31702 13.5273C9.24368 13.2763 9.12843 13.0567 8.96077 12.858C8.82456 12.6907 8.66737 12.5653 8.47878 12.4816C8.33209 12.4084 8.1749 12.3666 8.01773 12.3248C7.75578 12.262 7.49382 12.2411 7.23186 12.2725C7.03278 12.2934 6.83369 12.3561 6.65556 12.4398C6.47743 12.5339 6.30978 12.6489 6.16309 12.7953C6.13165 12.8162 6.10021 12.8476 6.06878 12.879V12.3248ZM8.31112 14.3429C8.36353 14.573 8.38446 14.8239 8.36353 15.0644C8.36353 15.1007 8.36415 15.1376 8.36481 15.1749C8.36678 15.2879 8.36881 15.4039 8.35303 15.5141C8.32159 15.8277 8.27968 16.1519 8.12252 16.4342C7.9863 16.6852 7.78721 16.842 7.5043 16.8839C7.36808 16.9048 7.23186 16.9152 7.09565 16.9048C6.84417 16.8839 6.62413 16.7793 6.46695 16.5702C6.30978 16.3715 6.22595 16.1415 6.17356 15.901C6.15261 15.765 6.13165 15.6186 6.12117 15.4827C6.11855 15.4304 6.11528 15.3781 6.112 15.3258C6.10218 15.169 6.09236 15.0121 6.10021 14.8553C6.11069 14.4893 6.16309 14.1233 6.35169 13.7887C6.50887 13.5064 6.73939 13.3286 7.06421 13.2763C7.23186 13.2554 7.39952 13.2449 7.56717 13.3077C7.78721 13.3809 7.95486 13.5273 8.0806 13.726C8.19587 13.9142 8.26921 14.1233 8.31112 14.3429Z" fill="#183B56"/>
<path fill-rule="evenodd" clip-rule="evenodd" d="M13.5753 17.5327V18.0211C13.9462 18.0211 14.3065 18.0211 14.6774 18.0319V17.956V14.0271C14.6774 13.8209 14.6456 13.6147 14.5715 13.4085C14.4337 13.0286 14.1794 12.7464 13.8296 12.5511C13.6177 12.4317 13.3952 12.3666 13.1514 12.3232C12.9077 12.2906 12.664 12.2581 12.4202 12.2581C12.3142 12.2581 12.2083 12.2581 12.1023 12.2689C12.0069 12.2689 11.9221 12.2689 11.8268 12.2906C11.5936 12.334 11.3605 12.3883 11.1485 12.486C10.8518 12.6162 10.5975 12.7899 10.4067 13.0503C10.3855 13.0829 10.3961 13.0937 10.4173 13.1155C10.4597 13.148 10.5021 13.1914 10.5445 13.2348C10.6081 13.3 10.6743 13.3624 10.7406 13.4248C10.8068 13.4872 10.873 13.5496 10.9366 13.6147C10.9631 13.6364 10.9869 13.6608 11.0108 13.6852C11.0346 13.7097 11.0585 13.7341 11.085 13.7558C11.1061 13.7775 11.1273 13.7884 11.1591 13.7558C11.1945 13.7124 11.2298 13.6786 11.2651 13.6448C11.2828 13.628 11.3004 13.6111 11.3181 13.593C11.4453 13.4736 11.5936 13.3868 11.7526 13.3325C11.9751 13.2457 12.2083 13.2131 12.452 13.2457C12.6321 13.2674 12.8123 13.2891 12.9819 13.3542C13.2362 13.4519 13.4164 13.6147 13.4905 13.886C13.5209 13.9896 13.5319 14.1031 13.5421 14.2077C13.5425 14.2126 13.543 14.2176 13.5435 14.2225C13.5505 14.323 13.5483 14.4235 13.5459 14.5272C13.5447 14.5802 13.5435 14.6341 13.5435 14.6892H13.5117C12.9925 14.6892 12.4626 14.6892 11.9327 14.7C11.8268 14.7 11.7208 14.7109 11.6148 14.7217C11.3393 14.7543 11.085 14.852 10.8518 15.0039C10.5657 15.1884 10.3537 15.438 10.2478 15.7745C10.1736 16.0024 10.1418 16.2412 10.1736 16.4799C10.1842 16.5396 10.1921 16.602 10.2001 16.6644C10.208 16.7268 10.216 16.7892 10.2266 16.849C10.2796 17.0877 10.3749 17.3048 10.5339 17.4893C10.6822 17.6738 10.873 17.804 11.085 17.9017C11.3393 18.0102 11.5936 18.0645 11.8586 18.0645C12.0493 18.0645 12.2401 18.0536 12.4308 18.0319C12.5686 18.0211 12.7063 17.9994 12.8441 17.9668C13.0242 17.9234 13.1832 17.8149 13.3422 17.7064C13.4164 17.6521 13.4906 17.5978 13.5753 17.5327ZM13.4905 15.5031H13.5541V16.0675C13.5435 16.2086 13.5329 16.3497 13.5011 16.4908C13.4693 16.6319 13.374 16.7404 13.268 16.8381C13.109 16.9792 12.9289 17.0551 12.7275 17.0877C12.5898 17.1094 12.452 17.1311 12.3142 17.1094C12.2612 17.104 12.2083 17.1013 12.1553 17.0986C12.1023 17.0959 12.0493 17.0931 11.9963 17.0877C11.8056 17.066 11.6148 17.0117 11.4665 16.8706C11.3817 16.7838 11.3181 16.6753 11.2969 16.545C11.2651 16.3823 11.2545 16.2195 11.3075 16.0567C11.3711 15.8721 11.4876 15.7528 11.6466 15.6551C11.8268 15.5466 12.0281 15.5031 12.2401 15.5031H13.4905Z" fill="#183B56"/>
<path fill-rule="evenodd" clip-rule="evenodd" d="M32.6074 16.0262C32.5644 15.8639 32.5429 15.7016 32.5214 15.5285C33.7586 15.5285 34.9743 15.5285 36.2223 15.5177C36.2232 15.5085 36.224 15.4993 36.2248 15.4902C36.2347 15.3818 36.2439 15.2812 36.2439 15.1715C36.2439 15.1321 36.241 15.0957 36.2381 15.0607C36.2356 15.0283 36.2331 14.9971 36.2331 14.9659C36.2331 14.8469 36.2223 14.7278 36.2116 14.6088C36.19 14.4466 36.1685 14.2951 36.1363 14.1328C36.061 13.7757 35.9318 13.4403 35.7167 13.1374C35.5876 12.9426 35.4262 12.7803 35.2433 12.6505C34.8775 12.4017 34.4687 12.2826 34.0276 12.261C33.8823 12.2529 33.7371 12.263 33.5918 12.2732C33.5434 12.2766 33.495 12.2799 33.4466 12.2826C33.2529 12.2935 33.0701 12.3476 32.8871 12.4125C32.5644 12.5315 32.2954 12.7262 32.0695 12.9859C31.9404 13.1266 31.8328 13.2889 31.7575 13.462C31.6714 13.6459 31.6069 13.8298 31.5531 14.0138C31.467 14.2842 31.4347 14.5547 31.4132 14.8361C31.4025 14.9983 31.4025 15.1498 31.4132 15.3121C31.4132 15.4275 31.4228 15.5429 31.4323 15.6583C31.4371 15.716 31.4419 15.7737 31.4455 15.8314C31.4562 16.037 31.5101 16.2426 31.5746 16.4373C31.6714 16.7727 31.8221 17.0649 32.048 17.3245C32.2416 17.5517 32.4783 17.7249 32.7581 17.8547C33.0593 17.9845 33.3821 18.0494 33.7048 18.0603C33.9307 18.0711 34.1459 18.0603 34.3718 18.0386C34.5117 18.0278 34.6516 18.0061 34.7807 17.9737C35.0389 17.9088 35.2863 17.8222 35.5123 17.6816C35.7059 17.5625 35.8888 17.4111 36.0394 17.2271C36.061 17.2055 36.061 17.1839 36.0394 17.1622C35.9856 17.1081 35.9318 17.0567 35.878 17.0054C35.8243 16.954 35.7705 16.9026 35.7167 16.8485L35.3616 16.4914C35.3132 16.5293 35.2675 16.5672 35.2218 16.605C35.1761 16.6429 35.1303 16.6808 35.0819 16.7186C34.7807 16.9567 34.4256 17.0757 34.0383 17.0865C33.877 17.0973 33.7048 17.0649 33.5434 17.0324C33.3605 16.9891 33.1884 16.9134 33.0485 16.7944C32.8118 16.5888 32.6827 16.3183 32.6074 16.0262ZM35.0604 14.6737H32.5429C32.5536 14.5764 32.5536 14.479 32.5536 14.3816C32.559 14.3602 32.5643 14.3385 32.5697 14.3165C32.5969 14.2056 32.6253 14.0897 32.6612 13.9813C32.7903 13.6351 33.0162 13.3754 33.3713 13.2672C33.7263 13.159 34.0814 13.1807 34.4149 13.3646C34.6516 13.4944 34.8022 13.7 34.899 13.938C34.9528 14.0787 34.9958 14.2301 35.0281 14.3816C35.0425 14.4466 35.0472 14.5115 35.052 14.5764C35.0544 14.6088 35.0568 14.6413 35.0604 14.6737Z" fill="#183B56"/>
<path d="M18.9008 12.2581C19.3137 12.2581 19.7375 12.2581 20.1613 12.2581C20.1613 12.2792 20.1613 12.2898 20.1504 12.3109C20.0417 12.5963 19.9331 12.8923 19.8244 13.1776C19.7375 13.3891 19.6615 13.611 19.5745 13.8224C19.4441 14.1712 19.3029 14.52 19.1725 14.8794C19.0747 15.1331 18.9769 15.3868 18.8791 15.6405C18.7487 15.9893 18.6075 16.3486 18.4771 16.6975C18.3793 16.9617 18.2815 17.226 18.1728 17.4902C18.0533 17.8073 17.9338 18.1244 17.8034 18.4415C17.6947 18.7163 17.5969 18.9911 17.4666 19.2554C17.2927 19.6148 16.9885 19.8579 16.5864 19.953C16.4777 19.9741 16.3691 19.9847 16.2604 19.9953C16.1083 20.0059 15.9562 19.9953 15.8041 19.9953C15.6302 19.9953 15.4672 19.9953 15.2825 19.9953C15.2825 19.6676 15.2825 19.3294 15.2825 18.9806C15.3368 18.9806 15.3803 18.9806 15.4346 18.9806C15.6193 18.9806 15.7932 18.9806 15.9779 18.9806C16.2713 18.97 16.5321 18.8115 16.6299 18.5366C16.7494 18.2301 16.8581 17.913 16.9667 17.5959C16.9885 17.5325 16.945 17.4902 16.9341 17.4374C16.8472 17.1942 16.7603 16.9617 16.6733 16.7291C16.5538 16.4015 16.4234 16.0738 16.3039 15.7461C16.1518 15.3551 16.0105 14.964 15.8584 14.5729C15.7172 14.1924 15.565 13.8118 15.4238 13.4313C15.2934 13.0719 15.1521 12.7126 15.0217 12.3532C15.0109 12.3426 15.0109 12.3215 15 12.3003C15.3912 12.3003 15.7932 12.3003 16.1844 12.3003C16.217 12.3003 16.2278 12.3215 16.2278 12.3426C16.293 12.5329 16.3582 12.7231 16.4234 12.9134C16.5647 13.3045 16.6951 13.6956 16.8363 14.0866C16.9667 14.4566 17.0971 14.8266 17.2275 15.2071C17.3362 15.5136 17.4448 15.8201 17.5535 16.1267C17.5535 16.1372 17.5643 16.1478 17.5752 16.1584C18.0316 14.8371 18.4662 13.5476 18.9008 12.2581Z" fill="#183B56"/>
<path d="M29.6098 17.7419C29.6098 17.7212 29.6098 17.6902 29.6098 17.6695C29.6098 16.5528 29.6098 15.4465 29.6098 14.3298C29.6098 14.0506 29.5254 13.7921 29.3354 13.5646C29.1771 13.3682 28.9556 13.2647 28.7129 13.2441C28.5968 13.2337 28.4807 13.2234 28.3647 13.2337C28.0587 13.2647 27.7949 13.3785 27.6155 13.637C27.4889 13.8128 27.4256 14.0092 27.3939 14.2264C27.3834 14.2987 27.3834 14.3711 27.3834 14.4435C27.3834 15.5188 27.3834 16.5839 27.3834 17.6592C27.3834 17.6799 27.3834 17.7005 27.3834 17.7316C27.0035 17.7316 26.6236 17.7316 26.2438 17.7316C26.2438 15.9221 26.2438 14.1126 26.2438 12.3031C26.6026 12.3031 26.9613 12.3031 27.3306 12.3031C27.3306 12.4789 27.3306 12.6547 27.3306 12.8512C27.4045 12.7891 27.4678 12.7271 27.5416 12.6754C27.7949 12.4893 28.0692 12.3652 28.3858 12.3031C28.5968 12.2618 28.8079 12.2514 29.0189 12.2618C29.2616 12.2721 29.5043 12.3238 29.7258 12.4272C29.9474 12.5306 30.1374 12.6754 30.3062 12.8512C30.475 13.0476 30.6016 13.2751 30.665 13.5336C30.7177 13.7404 30.7388 13.9472 30.7388 14.154C30.7388 14.5159 30.7494 14.8778 30.7494 15.2397C30.7494 15.9014 30.7599 16.5632 30.7599 17.2249C30.7599 17.3904 30.7599 17.5661 30.7599 17.7419C30.359 17.7419 29.9896 17.7419 29.6098 17.7419Z" fill="#183B56"/>
<path d="M20.7599 10C21.154 10 21.5375 10 21.9316 10C21.9316 10.0211 21.9316 10.0421 21.9316 10.0632C21.9316 12.1159 21.9316 14.1581 21.9316 16.2003C21.9316 16.3687 21.9742 16.5372 22.102 16.6635C22.1766 16.7372 22.2724 16.7793 22.3789 16.7793C22.5494 16.7793 22.7091 16.7898 22.8795 16.7898C22.9222 16.7898 22.9754 16.7898 23.018 16.7793C23.018 17.0951 23.018 17.4109 23.018 17.7372C22.9861 17.7372 22.9754 17.7372 22.9541 17.7372C22.6772 17.7372 22.4109 17.7478 22.1339 17.7372C21.8251 17.7267 21.5481 17.632 21.3138 17.4425C21.0262 17.2214 20.8664 16.9162 20.8025 16.5687C20.7706 16.4003 20.7599 16.2214 20.7599 16.0529C20.7599 14.0528 20.7599 12.0633 20.7599 10.0632C20.7599 10.0526 20.7599 10.0316 20.7599 10Z" fill="#183B56"/>
<path d="M23.9858 12.2581C24.3645 12.2581 24.7221 12.2581 25.0903 12.2581C25.0903 14.086 25.0903 15.914 25.0903 17.7419C24.7221 17.7419 24.354 17.7419 23.9858 17.7419C23.9858 15.914 23.9858 14.086 23.9858 12.2581Z" fill="#183B56"/>
<path d="M25.0903 11.2903C24.7221 11.2903 24.354 11.2903 23.9858 11.2903C23.9858 10.8642 23.9858 10.438 23.9858 10C24.354 10 24.7221 10 25.0903 10C25.0903 10.4262 25.0903 10.8523 25.0903 11.2903Z" fill="#183B56"/>
</symbol>

<symbol id="mastercard" width="45" height="30" viewBox="0 0 45 30" fill="none">
<rect x="0.5" y="0.5" width="44" height="29" rx="4.5" stroke="black" stroke-opacity="0.05"/>
<g clip-path="url(#clip0_8640_3235)">
<path d="M25.7637 9.82202H19.2188V21.1779H25.7637V9.82202Z" fill="#FF5F00"/>
<path d="M19.6348 15.5006C19.6343 14.4042 19.8912 13.323 20.3848 12.3439C20.8852 11.3535 21.6058 10.4909 22.4915 9.82227C21.3782 8.98107 20.0555 8.46139 18.6673 8.31977C17.2747 8.17483 15.8689 8.41162 14.6006 9.00477C13.348 9.58844 12.2839 10.5114 11.529 11.6689C10.7867 12.8092 10.3907 14.1401 10.389 15.5006C10.389 16.8556 10.784 18.1839 11.529 19.3323C12.2837 20.4897 13.3475 21.4126 14.5998 21.9964C15.8683 22.5897 17.2744 22.8265 18.6673 22.6814C20.0555 22.5398 21.3782 22.0201 22.4915 21.1789C21.6063 20.5105 20.8859 19.6481 20.3856 18.6581C19.8916 17.6789 19.6344 16.5974 19.6348 15.5006Z" fill="#EB001B"/>
<path d="M34.5935 15.4999C34.5935 16.8549 34.1985 18.1833 33.4544 19.3316C32.6995 20.4892 31.6354 21.4121 30.3827 21.9958C29.1144 22.589 27.7086 22.8258 26.316 22.6808C24.9276 22.5393 23.6046 22.0196 22.491 21.1783C23.3757 20.5092 24.0957 19.6466 24.596 18.6566C25.09 17.6776 25.3477 16.5965 25.3485 15.4999C25.3478 14.4037 25.0904 13.3229 24.5969 12.3441C24.0967 11.3538 23.3767 10.491 22.4919 9.82161C23.6049 8.98055 24.9273 8.46087 26.3152 8.31911C27.7081 8.17401 29.1142 8.41081 30.3827 9.00411C31.6354 9.58778 32.6995 10.5107 33.4544 11.6683C34.1964 12.8086 34.5921 14.1395 34.5935 15.4999V15.4999ZM33.8802 19.9774V19.7441H33.9769V19.6974H33.7302V19.7441H33.8269V19.9774H33.8802ZM34.3602 19.9774V19.6966H34.2844L34.1969 19.8899L34.1094 19.6966H34.0344V19.9774H34.0877V19.7658L34.1694 19.9483H34.2252L34.3069 19.7649V19.9774H34.3602V19.9774Z" fill="#F79E1B"/>
</g>
<defs>
<clipPath>
<rect width="25" height="15" fill="white" transform="translate(10 8)"/>
</clipPath>
</defs>
</symbol>

<symbol id="maestro" width="45" height="30" viewBox="0 0 45 30" fill="none">
<rect x="0.5" y="0.5" width="44" height="29" rx="4.5" stroke="black" stroke-opacity="0.05"/>
<path d="M25.5266 21.3974H18.9155V9.60449H25.5266V21.3974Z" fill="#6C6BBD"/>
<path d="M19.3391 15.5C19.3391 13.1078 20.4675 10.9768 22.2248 9.60356C20.9397 8.59937 19.3179 8 17.5553 8C13.3825 8 10 11.3578 10 15.5C10 19.6422 13.3825 23 17.5553 23C19.3179 23 20.9397 22.4007 22.2248 21.3965C20.4675 20.0232 19.3391 17.8922 19.3391 15.5Z" fill="#EB001B"/>
<path d="M34.4429 15.5C34.4429 19.6422 31.0604 23 26.8877 23C25.125 23 23.5032 22.4007 22.2177 21.3965C23.9754 20.0232 25.1039 17.8922 25.1039 15.5C25.1039 13.1078 23.9754 10.9768 22.2177 9.60356C23.5032 8.59937 25.125 8 26.8877 8C31.0604 8 34.4429 11.3578 34.4429 15.5Z" fill="#0099DF"/>
</symbol>

<symbol id="litecoin" width="45" height="30" viewBox="0 0 45 30" fill="none">
<rect x="0.5" y="0.5" width="44" height="29" rx="4.5" stroke="black" stroke-opacity="0.05"/>
<path fill-rule="evenodd" clip-rule="evenodd" d="M13 15C13 9.47715 17.4771 5 23 5H23.0581C25.7025 5.00769 28.2356 6.06559 30.1001 7.94096C31.9645 9.81632 33.0076 12.3555 32.9999 15C32.9999 20.5228 28.5228 25 23 25C17.4771 25 13 20.5228 13 15ZM22.1283 18.8499L23.1694 15.339L24.7917 14.8789L25.1307 13.7167L23.5326 14.201L25.2276 8.43824V8.34623C25.225 8.27172 25.193 8.20128 25.1385 8.15041C25.084 8.09955 25.0115 8.07243 24.937 8.07505H22.782C22.6142 8.06987 22.4644 8.17973 22.4188 8.34139L20.4092 15.1695L18.8111 15.6537L18.4479 16.7675L20.046 16.2833L18.6174 21.1501H27.1404C27.3088 21.1571 27.4596 21.0465 27.5036 20.8838L27.9878 19.2131V19.121C27.9853 19.0465 27.9533 18.9761 27.8988 18.9252C27.8443 18.8744 27.7718 18.8472 27.6973 18.8499H22.1283Z" fill="#345D9D"/>
</symbol>

<symbol id="jsb" width="45" height="30" viewBox="0 0 45 30" fill="none">
<rect x="0.5" y="0.5" width="44" height="29" rx="4.5" stroke="black" stroke-opacity="0.05"/>
<path d="M29.0662 16.9286H30.797C30.8464 16.9286 30.9618 16.9121 31.0113 16.9121C31.3409 16.8462 31.6212 16.5495 31.6212 16.1374C31.6212 15.7418 31.3409 15.4451 31.0113 15.3627C30.9618 15.3462 30.8629 15.3462 30.797 15.3462H29.0662V16.9286Z" fill="url(#paint0_linear_8640_3242)"/>
<path d="M30.5992 6C28.9508 6 27.5992 7.33516 27.5992 9V12.1154H31.8355C31.9344 12.1154 32.0497 12.1154 32.1322 12.1319C33.0882 12.1813 33.797 12.6758 33.797 13.533C33.797 14.2088 33.319 14.7857 32.4289 14.9011V14.9341C33.4014 15 34.1431 15.544 34.1431 16.3846C34.1431 17.2912 33.319 17.8846 32.2311 17.8846H27.5827V23.9835H31.9838C33.6322 23.9835 34.9838 22.6484 34.9838 20.9835V6H30.5992Z" fill="url(#paint1_linear_8640_3242)"/>
<path d="M31.4069 13.7309C31.4069 13.3353 31.1267 13.0715 30.797 13.0221C30.764 13.0221 30.6816 13.0056 30.6322 13.0056H29.0662V14.4562H30.6322C30.6816 14.4562 30.7805 14.4562 30.797 14.4397C31.1267 14.3902 31.4069 14.1265 31.4069 13.7309Z" fill="url(#paint2_linear_8640_3242)"/>
<path d="M14.0165 6C12.3681 6 11.0165 7.33516 11.0165 9V16.4011C11.8571 16.8132 12.7308 17.0769 13.6044 17.0769C14.6429 17.0769 15.2033 16.4505 15.2033 15.5934V12.0989H17.7747V15.5769C17.7747 16.9286 16.9341 18.033 14.0824 18.033C12.3516 18.033 11 17.6538 11 17.6538V23.967H15.4011C17.0495 23.967 18.4011 22.6319 18.4011 20.967V6H14.0165Z" fill="url(#paint3_linear_8640_3242)"/>
<path d="M22.3077 6C20.6594 6 19.3077 7.33516 19.3077 9V12.9231C20.066 12.2802 21.3847 11.8681 23.511 11.967C24.6484 12.0165 25.8682 12.3297 25.8682 12.3297V13.5989C25.2583 13.2857 24.533 13.0055 23.5935 12.9396C21.9781 12.8242 21.0055 13.6154 21.0055 15C21.0055 16.4011 21.9781 17.1923 23.5935 17.0604C24.533 16.9945 25.2583 16.6978 25.8682 16.4011V17.6703C25.8682 17.6703 24.6649 17.9835 23.511 18.033C21.3847 18.1319 20.066 17.7198 19.3077 17.0769V24H23.7088C25.3572 24 26.7088 22.6648 26.7088 21V6H22.3077Z" fill="url(#paint4_linear_8640_3242)"/>
<defs>
<linearGradient x1="27.596" y1="16.1391" x2="35.0041" y2="16.1391" gradientUnits="userSpaceOnUse">
<stop stop-color="#007940"/>
<stop offset="0.2285" stop-color="#00873F"/>
<stop offset="0.7433" stop-color="#40A737"/>
<stop offset="1" stop-color="#5CB531"/>
</linearGradient>
<linearGradient id="paint1_linear_8640_3242" x1="27.5962" y1="14.9843" x2="35.004" y2="14.9843" gradientUnits="userSpaceOnUse">
<stop stop-color="#007940"/>
<stop offset="0.2285" stop-color="#00873F"/>
<stop offset="0.7433" stop-color="#40A737"/>
<stop offset="1" stop-color="#5CB531"/>
</linearGradient>
<linearGradient id="paint2_linear_8640_3242" x1="27.5959" y1="13.7284" x2="35.0035" y2="13.7284" gradientUnits="userSpaceOnUse">
<stop stop-color="#007940"/>
<stop offset="0.2285" stop-color="#00873F"/>
<stop offset="0.7433" stop-color="#40A737"/>
<stop offset="1" stop-color="#5CB531"/>
</linearGradient>
<linearGradient id="paint3_linear_8640_3242" x1="11.0127" y1="14.9843" x2="18.5349" y2="14.9843" gradientUnits="userSpaceOnUse">
<stop stop-color="#1F286F"/>
<stop offset="0.4751" stop-color="#004E94"/>
<stop offset="0.8261" stop-color="#0066B1"/>
<stop offset="1" stop-color="#006FBC"/>
</linearGradient>
<linearGradient id="paint4_linear_8640_3242" x1="19.2649" y1="14.9843" x2="26.5703" y2="14.9843" gradientUnits="userSpaceOnUse">
<stop stop-color="#6C2C2F"/>
<stop offset="0.1735" stop-color="#882730"/>
<stop offset="0.5731" stop-color="#BE1833"/>
<stop offset="0.8585" stop-color="#DC0436"/>
<stop offset="1" stop-color="#E60039"/>
</linearGradient>
</defs>
</symbol>

<symbol id="google-pay" width="45" height="30" viewBox="0 0 45 30" fill="none">
<rect x="0.5" y="0.5" width="44" height="29" rx="4.5" stroke="black" stroke-opacity="0.05"/>
<path fill-rule="evenodd" clip-rule="evenodd" d="M21.4409 19.3867V15.865H23.2584C24.0032 15.865 24.6319 15.6155 25.1443 15.1233L25.2673 14.9986C26.2035 13.9795 26.142 12.392 25.1443 11.4492C24.6455 10.9501 23.9622 10.6798 23.2584 10.6936H20.3408V19.3867H21.4409ZM21.441 14.7975V11.7612H23.2862C23.6826 11.7612 24.0585 11.9137 24.3387 12.191C24.9332 12.7733 24.9469 13.7438 24.3728 14.3469C24.0926 14.645 23.6962 14.8114 23.2862 14.7975H21.441ZM30.3989 13.9033C29.9274 13.4665 29.2852 13.2447 28.472 13.2447C27.4266 13.2447 26.6408 13.6329 26.1215 14.4024L27.0917 15.0193C27.447 14.4925 27.9322 14.2291 28.5472 14.2291C28.9367 14.2291 29.3124 14.3747 29.6063 14.6381C29.8933 14.8877 30.0573 15.2481 30.0573 15.6294V15.8859C29.6336 15.6502 29.1006 15.5254 28.4447 15.5254C27.6794 15.5254 27.0644 15.7056 26.6066 16.0731C26.1488 16.4404 25.9165 16.9257 25.9165 17.5427C25.9028 18.1042 26.142 18.638 26.5656 18.9984C26.9961 19.3867 27.5428 19.5808 28.185 19.5808C28.9435 19.5808 29.5448 19.2411 30.0026 18.5617H30.0504V19.3867H31.1027V15.7195C31.1027 14.95 30.8704 14.34 30.3989 13.9033ZM27.4131 18.2914C27.1876 18.125 27.0509 17.8546 27.0509 17.5635C27.0509 17.2377 27.2013 16.9673 27.4951 16.7524C27.7958 16.5375 28.1717 16.4266 28.6159 16.4266C29.231 16.4196 29.7093 16.5583 30.051 16.8356C30.051 17.307 29.8665 17.716 29.5043 18.0626C29.1763 18.3954 28.7321 18.5825 28.2674 18.5825C27.9598 18.5895 27.6591 18.4855 27.4131 18.2914ZM33.4669 22.0001L37.143 13.4388H35.9472L34.2459 17.709H34.2254L32.483 13.4388H31.2872L33.6992 19.0054L32.3326 22.0001H33.4669Z" fill="#3C4043"/>
<path d="M17.6428 15.1025C17.6428 14.7628 17.6154 14.4231 17.5608 14.0903H12.9213V16.0106H15.5793C15.4699 16.6276 15.1146 17.1822 14.5953 17.5287V18.7766H16.1806C17.1098 17.91 17.6428 16.6276 17.6428 15.1025Z" fill="#4285F4"/>
<path d="M12.9218 19.9826C14.2474 19.9826 15.368 19.5389 16.1811 18.7764L14.5959 17.5286C14.1517 17.8336 13.5846 18.0069 12.9218 18.0069C11.6372 18.0069 10.5508 17.1265 10.1613 15.948H8.5282V17.2374C9.36186 18.922 11.0632 19.9826 12.9218 19.9826Z" fill="#34A853"/>
<path d="M10.1612 15.948C9.95625 15.331 9.95625 14.6586 10.1612 14.0347V12.7522H8.52795C7.82402 14.1595 7.82402 15.8232 8.52795 17.2304L10.1612 15.948Z" fill="#FBBC04"/>
<path d="M12.9218 11.976C13.6256 11.9621 14.3021 12.2325 14.8077 12.7246L16.2153 11.2966C15.3201 10.4509 14.1449 9.98643 12.9218 10.0003C11.0632 10.0003 9.36186 11.0679 8.5282 12.7524L10.1613 14.0418C10.5508 12.8564 11.6372 11.976 12.9218 11.976Z" fill="#EA4335"/>
</symbol>

<symbol id="ethereum" width="45" height="30" viewBox="0 0 45 30" fill="none">
<rect x="0.5" y="0.5" width="44" height="29" rx="4.5" stroke="black" stroke-opacity="0.05"/>
<path d="M22.1386 5L22.0045 5.45578V18.6802L22.1386 18.8141L28.2771 15.1855L22.1386 5Z" fill="#343434"/>
<path d="M22.1387 5L16 15.1855L22.1387 18.8141V12.3953V5Z" fill="#8C8C8C"/>
<path d="M22.1387 19.9763L22.063 20.0685V24.7792L22.1387 25L28.2809 16.3496L22.1387 19.9763Z" fill="#3C3C3B"/>
<path d="M22.1387 25V19.9763L16 16.3496L22.1387 25Z" fill="#8C8C8C"/>
<path d="M22.1387 18.814L28.2772 15.1855L22.1387 12.3953V18.814Z" fill="#141414"/>
<path d="M16 15.1855L22.1387 18.814V12.3953L16 15.1855Z" fill="#393939"/>
</symbol>

<symbol id="discover" width="45" height="30" viewBox="0 0 45 30" fill="none">
<rect x="0.5" y="0.5" width="44" height="29" rx="4.5" stroke="black" stroke-opacity="0.05"/>
<path fill-rule="evenodd" clip-rule="evenodd" d="M15.9058 14.984C15.9058 16.6414 17.2072 17.9265 18.8821 17.9265C19.3555 17.9265 19.761 17.8335 20.261 17.598V16.3033C19.8215 16.7434 19.4319 16.9209 18.9333 16.9209C17.8255 16.9209 17.0392 16.1177 17.0392 14.9757C17.0392 13.8932 17.8503 13.0392 18.8821 13.0392C19.4066 13.0392 19.8038 13.2264 20.261 13.6736V12.3796C19.7783 12.1347 19.3814 12.0332 18.908 12.0332C17.2416 12.0332 15.9058 13.3444 15.9058 14.984ZM13.0832 13.6145C13.0832 13.9193 13.2769 14.0803 13.937 14.3245C15.1881 14.7822 15.5588 15.1876 15.5588 16.0836C15.5588 17.1751 14.7569 17.9351 13.6141 17.9351C12.7771 17.9351 12.1684 17.6056 11.6617 16.8616L12.3723 16.1773C12.6255 16.667 13.0481 16.9295 13.5727 16.9295C14.0635 16.9295 14.4267 16.591 14.4267 16.1342C14.4267 15.8974 14.3167 15.6941 14.0969 15.5506C13.9864 15.4826 13.7672 15.3815 13.3365 15.2294C12.3035 14.8578 11.9493 14.46 11.9493 13.6832C11.9493 12.7603 12.7102 12.0675 13.708 12.0675C14.3263 12.0675 14.892 12.2789 15.3649 12.6925L14.7894 13.4461C14.5029 13.125 14.2319 12.9895 13.9025 12.9895C13.4285 12.9895 13.0832 13.2595 13.0832 13.6145ZM10.1476 17.7995H11.2475V12.1607H10.1476V17.7995ZM7.89937 16.3966C7.55386 16.7088 7.10487 16.845 6.39424 16.845H6.09905V13.116H6.39424C7.10487 13.116 7.53621 13.2432 7.89937 13.5722C8.27974 13.9107 8.50848 14.4358 8.50848 14.9758C8.50848 15.5172 8.27974 16.0581 7.89937 16.3966ZM6.61449 12.1607H5V17.7993H6.60599C7.45996 17.7993 8.07648 17.598 8.61784 17.1484C9.26115 16.6162 9.64152 15.8139 9.64152 14.9841C9.64152 13.3199 8.39825 12.1607 6.61449 12.1607ZM27.4783 12.1607L28.9819 15.9483L30.5051 12.1607H31.6974L29.2615 17.9442H28.6695L26.2767 12.1607H27.4783ZM32.1948 17.7995H35.314V16.8448H33.2938V15.3227H35.2397V14.3676H33.2938V13.1161H35.314V12.1606H32.1948V17.7995ZM37.141 14.7566H37.4623C38.1649 14.7566 38.5372 14.4514 38.5372 13.8846C38.5372 13.3359 38.1649 13.0489 37.4797 13.0489H37.141V14.7566ZM37.6734 12.1605C38.9418 12.1605 39.6689 12.7696 39.6689 13.8253C39.6689 14.6887 39.2128 15.2555 38.3843 15.4239L40.1595 17.7994H38.8069L37.2846 15.5341H37.141V17.7994H36.0424V12.1605H37.6734Z" fill="#1D1D1B"/>
<path fill-rule="evenodd" clip-rule="evenodd" d="M26.1469 16.6161C27.0395 15.2201 26.6319 13.3657 25.2361 12.4731C23.8403 11.5805 21.9856 11.988 21.0928 13.3839C20.2003 14.7794 20.6082 16.6345 22.004 17.5271C23.3997 18.4197 25.2543 18.0116 26.1469 16.6161Z" fill="url(#paint0_linear_8640_3240)"/>
<defs>
<linearGradient x1="27.763" y1="14.089" x2="22.7089" y2="10.8569" gradientUnits="userSpaceOnUse">
<stop stop-color="#F6A000"/>
<stop offset="0.623918" stop-color="#E47E02"/>
<stop offset="1" stop-color="#D36002"/>
</linearGradient>
</defs>
</symbol>

<symbol id="dinners-club" width="45" height="30" viewBox="0 0 45 30" fill="none">
<rect x="0.5" y="0.5" width="44" height="29" rx="4.5" stroke="black" stroke-opacity="0.05"/>
<path fill-rule="evenodd" clip-rule="evenodd" d="M13.356 15.6466C13.356 11.1141 17.0302 7.43994 21.5624 7.43994C26.0949 7.43994 29.7692 11.1141 29.7692 15.6466C29.7692 20.179 26.0949 23.8535 21.5624 23.8535C17.0302 23.8535 13.356 20.179 13.356 15.6466Z" fill="#FFFFFE"/>
<path fill-rule="evenodd" clip-rule="evenodd" d="M26.5256 15.4852C26.5223 13.3837 25.2087 11.5913 23.3576 10.8815V20.0887C25.2087 19.378 26.5223 17.5872 26.5256 15.4852ZM19.8264 20.0869V10.8824C17.977 11.5945 16.6654 13.3843 16.6605 15.4852C16.6654 17.5858 17.977 19.3754 19.8264 20.0869ZM21.593 7.70304C17.295 7.70469 13.813 11.1874 13.8123 15.4852C13.813 19.7826 17.295 23.2648 21.593 23.2655C25.8908 23.2648 29.3736 19.7826 29.3746 15.4852C29.3736 11.1874 25.8908 7.70469 21.593 7.70304ZM21.5739 23.9999C16.8709 24.0224 13 20.2121 13 15.5741C13 10.5051 16.8709 6.99908 21.5739 7H23.7778C28.4253 6.99908 32.6669 10.5035 32.6669 15.5741C32.6669 20.2105 28.4253 23.9999 23.7778 23.9999H21.5739Z" fill="#0069AA"/>
</symbol>

<symbol id="cashapp" width="45" height="30" viewBox="0 0 45 30" fill="none">
<rect x="0.5" y="0.5" width="44" height="29" rx="4.5" stroke="black" stroke-opacity="0.05"/>
<path d="M30.6999 8.60358C30.5088 8.07811 30.2049 7.60089 29.8095 7.20552C29.4141 6.81014 28.9369 6.50622 28.4114 6.31513C27.4285 6 26.5356 6 24.7199 6H19.2726C17.4719 6 16.564 6 15.5961 6.30013C15.0698 6.49201 14.5921 6.79708 14.1967 7.1938C13.8013 7.59052 13.4978 8.06922 13.3076 8.59608C13 9.57149 13 10.4719 13 12.2726V17.7274C13 19.5356 13 20.4285 13.3001 21.4039C13.4912 21.9294 13.7951 22.4066 14.1905 22.802C14.5859 23.1974 15.0631 23.5013 15.5886 23.6924C16.564 24 17.4644 24 19.2651 24H24.7274C26.5356 24 27.436 24 28.4039 23.6999C28.9315 23.5089 29.4107 23.2043 29.8075 22.8075C30.2043 22.4107 30.5089 21.9315 30.6999 21.4039C31.0075 20.4285 31.0075 19.5281 31.0075 17.7274V12.2876C31.0075 10.4794 31.0075 9.57899 30.6999 8.60358ZM26.0704 12.0775L25.3727 12.7753C25.3047 12.8386 25.2156 12.8744 25.1227 12.8757C25.0299 12.8771 24.9398 12.844 24.8699 12.7828C24.1942 12.2121 23.3385 11.8985 22.4539 11.8975C21.7261 11.8975 20.9983 12.1376 20.9983 12.8053C20.9983 13.4806 21.7787 13.7057 22.679 14.0434C24.2547 14.5686 25.5602 15.2288 25.5602 16.7745C25.5602 18.4552 24.2547 19.6107 22.1238 19.7382L21.9287 20.6386C21.9115 20.7213 21.8662 20.7956 21.8006 20.8489C21.735 20.9022 21.6531 20.9313 21.5686 20.9312H20.2255L20.158 20.9237C20.0618 20.9021 19.9781 20.8436 19.9247 20.7608C19.8714 20.678 19.8527 20.5775 19.8729 20.481L20.083 19.5281C19.2743 19.3254 18.5306 18.92 17.9221 18.3501V18.3426C17.8885 18.3092 17.8618 18.2694 17.8437 18.2256C17.8255 18.1819 17.8161 18.1349 17.8161 18.0875C17.8161 18.0401 17.8255 17.9932 17.8437 17.9494C17.8618 17.9056 17.8885 17.8659 17.9221 17.8324L18.6724 17.1046C18.7405 17.0408 18.8304 17.0053 18.9237 17.0053C19.0171 17.0053 19.1069 17.0408 19.1751 17.1046C19.8579 17.7499 20.7732 18.11 21.7186 18.095C22.694 18.095 23.3468 17.6824 23.3468 17.0296C23.3468 16.3768 22.6865 16.2043 21.441 15.7391C20.1205 15.2664 18.8674 14.5986 18.8674 13.0379C18.8674 11.2222 20.3756 10.3368 22.1613 10.2543L22.3489 9.33139C22.3663 9.24937 22.4119 9.17601 22.4776 9.12396C22.5434 9.07191 22.6252 9.04443 22.709 9.04627H24.0446L24.1196 9.05377C24.3147 9.09879 24.4423 9.28637 24.3972 9.48145L24.1947 10.5094C24.8699 10.7345 25.5077 11.0871 26.0554 11.5523L26.0704 11.5673C26.213 11.7174 26.213 11.9425 26.0704 12.0775Z" fill="#00CC47"/>
<path d="M26.0704 12.0775L25.3727 12.7753C25.3047 12.8386 25.2156 12.8744 25.1227 12.8757C25.0299 12.8771 24.9398 12.844 24.8699 12.7828C24.1942 12.2121 23.3385 11.8985 22.4539 11.8975C21.7261 11.8975 20.9983 12.1376 20.9983 12.8053C20.9983 13.4806 21.7787 13.7057 22.679 14.0434C24.2547 14.5686 25.5602 15.2288 25.5602 16.7745C25.5602 18.4552 24.2547 19.6107 22.1238 19.7382L21.9287 20.6386C21.9115 20.7213 21.8662 20.7956 21.8006 20.8489C21.735 20.9022 21.6531 20.9313 21.5686 20.9312H20.2255L20.158 20.9237C20.0618 20.9021 19.9781 20.8436 19.9247 20.7608C19.8714 20.678 19.8527 20.5775 19.8729 20.481L20.083 19.5281C19.2743 19.3254 18.5306 18.92 17.9221 18.3501V18.3426C17.8885 18.3092 17.8618 18.2694 17.8437 18.2256C17.8255 18.1819 17.8161 18.1349 17.8161 18.0875C17.8161 18.0401 17.8255 17.9932 17.8437 17.9494C17.8618 17.9056 17.8885 17.8659 17.9221 17.8324L18.6724 17.1046C18.7405 17.0408 18.8304 17.0053 18.9237 17.0053C19.0171 17.0053 19.1069 17.0408 19.1751 17.1046C19.8579 17.7499 20.7732 18.11 21.7186 18.095C22.694 18.095 23.3468 17.6824 23.3468 17.0296C23.3468 16.3768 22.6865 16.2043 21.441 15.7391C20.1205 15.2664 18.8674 14.5986 18.8674 13.0379C18.8674 11.2222 20.3756 10.3368 22.1613 10.2543L22.3489 9.33139C22.3663 9.24937 22.4119 9.17601 22.4776 9.12396C22.5434 9.07191 22.6252 9.04443 22.709 9.04627H24.0446L24.1196 9.05377C24.3147 9.09879 24.4423 9.28637 24.3972 9.48145L24.1947 10.5094C24.8699 10.7345 25.5077 11.0871 26.0554 11.5523L26.0704 11.5673C26.213 11.7174 26.213 11.9425 26.0704 12.0775Z" fill="white"/>
</symbol>

<symbol id="bitcoin" width="45" height="30" viewBox="0 0 45 30" fill="none">
<rect x="0.5" y="0.5" width="44" height="29" rx="4.5" stroke="black" stroke-opacity="0.05"/>
<path fill-rule="evenodd" clip-rule="evenodd" d="M33 15C33 20.5265 28.5221 25 22.9978 25C17.4757 25 13 20.5265 13 15C13 9.47351 17.4757 5 22.9978 5C28.5221 5 33 9.47351 33 15ZM26.2666 11.419C26.6601 11.6762 26.9459 11.9883 27.1152 12.3577C27.2845 12.7292 27.3306 13.1161 27.2515 13.4898C27.2009 13.7734 27.0866 14.035 26.9173 14.268C26.7503 14.5032 26.5326 14.6966 26.2644 14.8505C25.9985 15.0066 25.6665 15.1099 25.2664 15.1693C25.6489 15.3451 25.9391 15.5166 26.1282 15.6793C26.4051 15.9123 26.6052 16.2003 26.7305 16.5476C26.8536 16.8861 26.88 17.251 26.8074 17.6379C26.7239 18.0974 26.5063 18.4931 26.1589 18.8228C25.8094 19.1592 25.3654 19.3812 24.8224 19.4889C24.6223 19.5219 24.3959 19.5439 24.1431 19.5483L23.8529 21.0849L22.3933 20.8145L22.6571 19.3944C22.6197 19.3856 22.5867 19.3834 22.5493 19.3746L21.7184 19.2207L21.4546 20.6408L19.9927 20.366L20.2565 18.9459L18.0275 18.5326L18.2495 17.3434L18.5924 17.4005C18.8189 17.4489 18.9749 17.4577 19.0629 17.4335C19.1508 17.4093 19.2167 17.361 19.2651 17.2972C19.3135 17.2335 19.3574 17.073 19.4036 16.8224L20.3049 12.0125C20.3533 11.7531 20.3665 11.5883 20.3467 11.5113C20.3269 11.4344 20.2829 11.3662 20.2082 11.3135C20.1378 11.2563 19.9883 11.2058 19.7597 11.1662L19.419 11.1024L19.641 9.90877L21.8723 10.3264L22.1405 8.90415L23.6023 9.17894L23.3341 10.599L24.2728 10.7749L24.541 9.3548L26.0007 9.62959L25.7171 11.1486C25.9259 11.2299 26.1172 11.3179 26.2666 11.419Z" fill="#EC9021"/>
<path d="M24.6157 12.3862C24.4179 12.2763 24.0398 12.1708 23.4858 12.0675L22.5406 11.8894L22.1449 13.9932L23.0923 14.1712C23.5869 14.2614 23.9606 14.29 24.2135 14.2504C24.4663 14.2086 24.6641 14.1185 24.818 13.9756C24.9653 13.8371 25.0642 13.6503 25.1038 13.4304C25.1477 13.2018 25.1257 13.0018 25.0422 12.8171C24.9631 12.639 24.8224 12.4918 24.6157 12.3862Z" fill="#EC9021"/>
<path d="M24.5564 16.3146C24.6421 16.5168 24.6575 16.7388 24.6135 17.0004C24.5564 17.3038 24.4245 17.5412 24.2156 17.7259C24.0046 17.9039 23.776 18.0116 23.5232 18.0358C23.2682 18.06 22.9582 18.0358 22.5933 17.9699L21.9624 17.8468C21.7536 17.805 21.6283 17.7742 21.5821 17.7413C21.5381 17.7105 21.514 17.6665 21.503 17.605C21.4986 17.5588 21.5162 17.3961 21.5601 17.1345L21.9096 15.266L23.0286 15.4726C23.5188 15.5672 23.8749 15.6815 24.0947 15.8134C24.3168 15.9453 24.4685 16.1167 24.5564 16.3146Z" fill="#EC9021"/>
</symbol>

<symbol id="binance-coin" width="45" height="30" viewBox="0 0 45 30" fill="none">
<rect x="0.5" y="0.5" width="44" height="29" rx="4.5" stroke="black" stroke-opacity="0.05"/>
<path d="M32.6986 17.419C31.363 22.7762 25.937 26.0365 20.5792 24.7006C15.2236 23.365 11.9633 17.9387 13.2995 12.582C14.6345 7.22419 20.0604 3.96366 25.4166 5.29923C30.7741 6.63481 34.0341 12.0617 32.6984 17.4191L32.6985 17.419H32.6986Z" fill="#F3BA2F"/>
<path fill-rule="evenodd" clip-rule="evenodd" d="M23 11.3466L20.4106 13.936L20.4106 13.9359L18.904 12.4293L23 8.33325L27.0973 12.4305L25.5907 13.9371L23 11.3466ZM17.8401 13.493L16.3333 14.9999L17.84 16.5063L19.3467 14.9996L17.8401 13.493ZM20.4106 16.064L23 18.6533L25.5906 16.0627L27.0981 17.5686L27.0973 17.5694L23 21.6666L18.904 17.5706L18.9019 17.5685L20.4106 16.064ZM28.1601 13.4939L26.6533 15.0006L28.16 16.5072L29.6667 15.0005L28.1601 13.4939Z" fill="white"/>
<path d="M24.5281 14.9991H24.5287L23 13.4702L21.87 14.5999V14.5999L21.7402 14.7297L21.4725 14.9975L21.4703 14.9996L21.4725 15.0018L23 16.5295L24.5288 15.0007L24.5296 14.9998L24.5282 14.9991" fill="white"/>
</symbol>

<symbol id="apple-pay" width="45" height="30" viewBox="0 0 45 30" fill="none">
<rect x="0.5" y="0.5" width="44" height="29" rx="4.5" stroke="black" stroke-opacity="0.05"/>
<path fill-rule="evenodd" clip-rule="evenodd" d="M13.8416 11.4181C13.5311 11.7897 13.0342 12.0828 12.5373 12.0409C12.4752 11.5385 12.7184 11.0047 13.0031 10.6751C13.3136 10.2931 13.8571 10.0209 14.2971 10C14.3489 10.5233 14.147 11.0362 13.8416 11.4181ZM14.2919 12.1404C13.8542 12.1149 13.4548 12.2735 13.1321 12.4015C12.9245 12.484 12.7487 12.5538 12.6149 12.5538C12.4648 12.5538 12.2817 12.4802 12.0762 12.3976C11.8069 12.2895 11.4989 12.1658 11.176 12.1717C10.4359 12.1822 9.74748 12.6061 9.36963 13.2811C8.59324 14.6313 9.16778 16.6304 9.91826 17.7293C10.2858 18.2735 10.7257 18.8702 11.3054 18.8492C11.5605 18.8395 11.7439 18.7608 11.9338 18.6793C12.1523 18.5855 12.3794 18.4881 12.7339 18.4881C13.0762 18.4881 13.2934 18.583 13.5018 18.6741C13.7 18.7607 13.8903 18.8438 14.1728 18.8387C14.7733 18.8283 15.1511 18.2945 15.5186 17.7502C15.9152 17.1661 16.0894 16.5961 16.1159 16.5096L16.119 16.4995C16.119 16.4995 16.1135 16.4966 16.1048 16.4926C15.9722 16.4312 14.959 15.9623 14.9492 14.7046C14.9395 13.649 15.7529 13.1141 15.881 13.0299C15.8888 13.0247 15.8941 13.0213 15.8964 13.0195C15.3788 12.245 14.5714 12.1613 14.2919 12.1404ZM18.4481 18.7812V10.6228H21.476C23.0392 10.6228 24.1313 11.7112 24.1313 13.3021C24.1313 14.893 23.0184 15.9919 21.4347 15.9919H19.7007V18.7812H18.4481ZM19.7007 11.6903H21.1448C22.2317 11.6903 22.8528 12.2764 22.8528 13.3073C22.8528 14.3383 22.2317 14.9296 21.1396 14.9296H19.7007V11.6903ZM28.2668 17.8026C27.9355 18.441 27.2057 18.844 26.419 18.844C25.2544 18.844 24.4418 18.1427 24.4418 17.0857C24.4418 16.039 25.2286 15.4372 26.683 15.3482L28.2461 15.254V14.804C28.2461 14.1394 27.8165 13.7783 27.0505 13.7783C26.419 13.7783 25.9584 14.108 25.8652 14.6104H24.7368C24.7731 13.5533 25.7565 12.784 27.0867 12.784C28.5204 12.784 29.4521 13.5428 29.4521 14.7203V18.7812H28.2927V17.8026H28.2668ZM26.7554 17.8759C26.0878 17.8759 25.6633 17.5514 25.6633 17.0542C25.6633 16.5414 26.0722 16.2431 26.8538 16.196L28.2461 16.107V16.5676C28.2461 17.3316 27.6043 17.8759 26.7554 17.8759ZM33.2978 19.1004C32.7957 20.529 32.2212 21 30.9997 21C30.9065 21 30.596 20.9895 30.5235 20.9686V19.99C30.6011 20.0005 30.7927 20.0109 30.891 20.0109C31.4448 20.0109 31.7554 19.7755 31.9468 19.1632L32.0607 18.8021L29.9386 12.8625H31.2481L32.7232 17.6822H32.7491L34.2242 12.8625H35.4975L33.2978 19.1004Z" fill="black"/>
</symbol>

<symbol id="amex" width="45" height="30" viewBox="0 0 45 30" fill="none">
<rect x="0.5" y="0.5" width="44" height="29" rx="4.5" stroke="black" stroke-opacity="0.05"/>
<path fill-rule="evenodd" clip-rule="evenodd" d="M14.418 18.8202C14.3497 18.9208 14.2361 18.9809 14.1141 18.9809H13.0181C12.8662 18.9809 12.732 18.8895 12.6761 18.7482L12.28 17.7443H9.19465L8.8038 18.7469C8.74844 18.8891 8.61399 18.981 8.46126 18.981H7.36769C7.24626 18.981 7.13282 18.9211 7.06412 18.8208C6.99553 18.7204 6.98103 18.5929 7.02515 18.4797L9.83613 11.267C9.89139 11.1248 10.0259 11.0329 10.1787 11.0329H11.2681C11.42 11.0329 11.5543 11.1243 11.6102 11.2656L14.4561 18.4784C14.5009 18.5916 14.4866 18.7194 14.418 18.8202ZM11.5383 15.864H9.92741L10.7278 13.8101L11.5383 15.864Z" fill="#0085F3"/>
<path d="M22.134 18.5544C22.134 18.7571 21.9691 18.9221 21.7664 18.9221H20.821C20.6183 18.9221 20.4534 18.7571 20.4534 18.5544V15.3944L18.8427 18.5776C18.7798 18.7019 18.6544 18.7791 18.5152 18.7793C18.3758 18.7793 18.2503 18.7024 18.1872 18.5787L16.5604 15.3862V18.5545C16.5604 18.7573 16.3955 18.9222 16.1928 18.9222H15.2474C15.0447 18.9222 14.8797 18.7573 14.8797 18.5545V11.4217C14.8797 11.2189 15.0447 11.054 15.2474 11.054H16.0092C16.148 11.054 16.2735 11.1308 16.3367 11.2545L18.5103 15.5123L20.6642 11.2557C20.7271 11.1313 20.8528 11.054 20.9923 11.054H21.7664C21.9691 11.054 22.134 11.2189 22.134 11.4217V18.5544Z" fill="#0085F3"/>
<path d="M30.2924 18.6324C30.2924 18.8351 30.1275 19 29.9248 19H25.408C25.2053 19 25.0404 18.8351 25.0404 18.6324V11.4926C25.0404 11.2898 25.2053 11.1249 25.408 11.1249H29.7994C30.0021 11.1249 30.167 11.2898 30.167 11.4926V12.3627C30.167 12.5654 30.0021 12.7304 29.7994 12.7304H26.6459V14.2597H29.2145C29.4172 14.2597 29.5821 14.4247 29.5821 14.6274V15.4975C29.5821 15.7003 29.4172 15.8652 29.2145 15.8652H26.6459V17.3946H29.9249C30.1276 17.3946 30.2925 17.5595 30.2925 17.7622L30.2924 18.6324Z" fill="#0085F3"/>
<path d="M37.204 18.3578L36.4382 18.9121C36.3749 18.9578 36.3005 18.9819 36.2225 18.9819C36.203 18.9819 36.1836 18.9804 36.1641 18.9772C36.0688 18.962 35.9814 18.9083 35.9246 18.8297L34.0981 16.3065L32.2797 18.8286C32.2234 18.9069 32.1361 18.9609 32.0404 18.9765C31.9481 18.9923 31.8459 18.9691 31.7664 18.9117L30.9999 18.3589C30.9201 18.3015 30.8676 18.2165 30.852 18.1196C30.8363 18.0226 30.8592 17.9253 30.9167 17.8457L33.0609 14.8715L31.0951 12.1343C30.977 11.9695 31.0148 11.7394 31.1794 11.6212L31.9471 11.0699C32.0101 11.0247 32.0842 11.0008 32.1614 11.0008C32.2796 11.0008 32.3912 11.058 32.4602 11.154L34.0983 13.435L35.744 11.1526C35.8016 11.073 35.8863 11.0205 35.9833 11.0049C36.0818 10.9889 36.1786 11.0127 36.2572 11.0697L37.0238 11.6224C37.1035 11.6798 37.1561 11.7648 37.1717 11.8618C37.1874 11.9587 37.1645 12.056 37.107 12.1356L35.1344 14.8715L37.286 17.8442C37.405 18.0086 37.3681 18.2389 37.204 18.3578Z" fill="#0085F3"/>
</symbol>

<symbol id="amazon-pay" width="45" height="30" viewBox="0 0 45 30" fill="none">
<rect x="0.5" y="0.5" width="44" height="29" rx="4.5" stroke="black" stroke-opacity="0.05"/>
<path d="M34.5642 17.3702C33.6799 17.3826 32.6362 17.5807 31.8442 18.1363C31.5998 18.3059 31.6426 18.5413 31.9145 18.5101C32.805 18.403 34.7872 18.1627 35.1415 18.6155C35.4967 19.0684 34.7486 20.9366 34.418 21.7722C34.3157 22.0213 34.532 22.1245 34.7603 21.935C36.242 20.694 36.627 18.0923 36.3238 17.7181C36.1718 17.531 35.4484 17.3579 34.5642 17.3702ZM8.20438 18.3176C7.99779 18.346 7.90882 18.6079 8.12482 18.8154C11.8357 22.296 16.7391 24 22.1836 24C26.0669 24 30.575 22.7329 33.6871 20.3456C34.2015 19.9486 33.7633 19.3538 33.2356 19.5888C29.7465 21.1283 25.9568 21.8702 22.5074 21.8702C17.3954 21.8702 12.4467 20.803 8.44307 18.3787C8.35544 18.3256 8.27324 18.3081 8.20438 18.3176Z" fill="#FF9900"/>
<path d="M15.4558 8L15.2578 8.03331C14.6383 8.11099 14.0409 8.34277 13.5444 8.71793C13.4336 8.78424 13.3342 8.87312 13.2243 8.96217C13.213 8.94038 13.2021 8.91735 13.2021 8.89556C13.1794 8.77335 13.1684 8.64215 13.1466 8.51994C13.1135 8.321 13.0033 8.22019 12.8043 8.22019H12.2844C11.9642 8.22019 11.9088 8.28787 11.9088 8.59766V18.1898C11.9201 18.3338 12.0077 18.4097 12.1289 18.4211H13.0911C13.2237 18.4211 13.3009 18.3338 13.3113 18.1898C13.3227 18.1452 13.3224 18.1011 13.3224 18.0565V14.7241C13.3669 14.7686 13.4005 14.7911 13.4223 14.8129C14.2295 15.4874 15.1581 15.7076 16.1756 15.5086C17.104 15.3211 17.7444 14.7574 18.1536 13.9285C18.4738 13.2985 18.6048 12.6579 18.6162 11.9616C18.638 11.1989 18.5719 10.4648 18.2517 9.74671C17.8756 8.86282 17.2353 8.27666 16.2737 8.07771C16.1297 8.04456 15.9755 8.03289 15.8315 8.0111C15.6988 7.99973 15.5771 8 15.4558 8ZM22.8183 8C22.7738 8.01137 22.7314 8.0222 22.6869 8.0222C22.2445 8.04399 21.8125 8.09919 21.3824 8.20909C21.1058 8.2754 20.841 8.37448 20.5757 8.46258C20.4099 8.51753 20.3315 8.63979 20.3315 8.816C20.3428 8.96 20.3315 9.11422 20.3315 9.25822C20.3428 9.47896 20.432 9.53616 20.6423 9.48026C20.9957 9.39216 21.3492 9.29308 21.7025 9.22677C22.2549 9.1273 22.819 9.08247 23.3826 9.16016C23.6811 9.2151 23.9574 9.29298 24.145 9.54688C24.3108 9.75719 24.3779 10.0217 24.3892 10.287C24.4006 10.6631 24.4003 10.961 24.4003 11.3361C24.4003 11.3579 24.4006 11.3794 24.3892 11.3898H24.3337C23.8581 11.2685 23.3728 11.2028 22.8868 11.1696C22.378 11.1478 21.8703 11.1701 21.3843 11.3472C20.7988 11.5462 20.3222 11.899 20.0465 12.4741C19.8362 12.9165 19.8026 13.3817 19.8689 13.8563C19.9683 14.4977 20.2785 14.9833 20.8421 15.2921C21.384 15.5906 21.9587 15.6226 22.5555 15.5345C23.2405 15.4351 23.8476 15.148 24.3781 14.7056C24.3999 14.6838 24.4229 14.6737 24.4447 14.6519C24.4779 14.8291 24.5004 14.9953 24.5336 15.1497C24.5553 15.2937 24.6452 15.3807 24.7778 15.3921H25.5179C25.6288 15.3921 25.7289 15.2931 25.7289 15.1719C25.7402 15.1387 25.74 15.0933 25.74 15.0498V10.3333C25.7371 10.1447 25.725 9.94539 25.6919 9.75781C25.6038 9.17234 25.3601 8.68541 24.8296 8.37562C24.5312 8.19846 24.2004 8.11046 23.8471 8.05551C23.6813 8.03277 23.5262 8.02179 23.3604 8H22.8183ZM26.6503 8.00185C26.5395 8.00185 26.4842 8.1001 26.506 8.21094C26.5278 8.29999 26.5617 8.40038 26.5948 8.48849C27.4787 10.6769 28.3733 12.8639 29.2685 15.0627C29.3462 15.2503 29.3566 15.4062 29.2685 15.5938C29.1255 15.9244 29.0029 16.2669 28.8485 16.5985C28.7159 16.8969 28.4955 17.1191 28.1639 17.2072C27.9432 17.2631 27.7003 17.2848 27.4682 17.2516C27.3573 17.2403 27.246 17.2186 27.1351 17.2072C26.9797 17.1959 26.9041 17.2616 26.8927 17.4274V17.8715C26.9041 18.1263 26.9811 18.2359 27.235 18.2804C27.4785 18.324 27.7321 18.356 27.9974 18.3674C28.7704 18.3778 29.3795 18.0705 29.7774 17.396C29.9432 17.1307 30.0761 16.8541 30.1974 16.567C31.2689 13.8594 32.33 11.163 33.3911 8.44408C33.4242 8.3664 33.4445 8.28794 33.4558 8.19984C33.4776 8.0672 33.4115 8.00181 33.2912 8.0037H32.3975C32.243 7.99233 32.099 8.09099 32.044 8.23499C32.0222 8.30131 31.9992 8.35556 31.9774 8.42188L30.3972 12.9422C30.2864 13.2624 30.1639 13.5936 30.0531 13.947C30.0303 13.8911 30.02 13.8691 30.0087 13.8359C29.4232 12.2226 28.8493 10.6107 28.2638 8.99733C28.1757 8.73206 28.0765 8.47593 27.977 8.22204C27.9334 8.09983 27.8324 8.01295 27.6884 8.01295C27.3454 8.00158 27.0037 8.00185 26.6503 8.00185ZM15.4447 9.14905C16.1193 9.204 16.6712 9.53589 16.9583 10.3203C17.1355 10.8063 17.1803 11.2752 17.1803 11.7839C17.1803 12.2595 17.1476 12.68 17.0046 13.1328C16.6948 14.0944 15.9868 14.4698 15.0802 14.4262C14.4388 14.393 13.8978 14.1486 13.389 13.7952C13.3341 13.7621 13.3009 13.7087 13.3113 13.6528V9.90029C13.3009 9.83397 13.3341 9.77987 13.389 9.74671C14.0076 9.31566 14.6925 9.09411 15.4447 9.14905ZM22.6148 12.1336C22.804 12.1171 22.9948 12.1206 23.1828 12.1429C23.5589 12.176 23.9354 12.2415 24.3115 12.2965C24.3892 12.3078 24.4096 12.3412 24.4096 12.4075C24.3982 12.6292 24.4096 12.839 24.4096 13.0607C24.4096 13.2814 24.3985 13.481 24.3985 13.7027C24.4098 13.7577 24.3764 13.8009 24.3319 13.8341C23.8231 14.1988 23.2707 14.4431 22.6407 14.5095C22.3868 14.5312 22.132 14.5312 21.8894 14.4317C21.6128 14.3323 21.4046 14.0996 21.3269 13.823C21.2388 13.5359 21.2391 13.2376 21.3158 12.9496C21.4371 12.5735 21.7016 12.365 22.056 12.2428C22.2383 12.1874 22.4255 12.1502 22.6148 12.1336Z" fill="black"/>
</symbol>

<symbol id="adyen" width="45" height="30" viewBox="0 0 45 30" fill="none">
<rect x="0.5" y="0.5" width="44" height="29" rx="4.5" stroke="black" stroke-opacity="0.05"/>
<path d="M9.79673 12.5001C10.4614 12.5001 11.0002 13.0389 11.0002 13.7036V18.5002H6.2035C5.53882 18.5002 5 17.9614 5 17.2967V15.9536C5 15.289 5.53882 14.7501 6.2035 14.7501H7.5001V16.6564C7.5001 16.8463 7.65406 17.0002 7.84396 17.0002H8.50013V14.344C8.50013 14.1541 8.34616 14.0002 8.15627 14.0001H5.08596V12.5001H9.79673ZM15.5002 17.0002L15.5003 10H18.0004V18.5002H13.2038C12.5391 18.5002 12.0003 17.9614 12.0003 17.2967V13.7036C12.0003 13.0389 12.5391 12.5001 13.2038 12.5001H14.5002V16.6564C14.5002 16.8463 14.6541 17.0002 14.844 17.0002H15.5002ZM22.5005 17.0002V12.5001H25.0006V19.7965C25.0006 20.4612 24.4618 21 23.7971 21H19.0864V19.2503H22.5005V18.5002H20.2039C19.5392 18.5002 19.0004 17.9614 19.0004 17.2967V12.5001H21.5004V16.6564C21.5004 16.8463 21.6544 17.0002 21.8443 17.0002H22.5005ZM30.7973 12.5001C31.462 12.5001 32.0008 13.0389 32.0008 13.7036V15.0467C32.0008 15.7114 31.462 16.2502 30.7973 16.2502H29.5007V14.344C29.5007 14.1541 29.3468 14.0002 29.1568 14.0002H28.5007V16.6564C28.5007 16.8463 28.6546 17.0002 28.8445 17.0002H31.9148V18.5002H27.2042C26.5395 18.5002 26.0007 17.9614 26.0007 17.2967V12.5001H30.7973ZM37.7976 12.5001C38.4622 12.5001 39.0011 13.0389 39.0011 13.7036V18.5002H36.501V14.344C36.501 14.1548 36.3462 14.0001 36.1571 14.0001H35.5009V18.5002H33.0008V12.5001H37.7976Z" fill="#32AA52"/>
</symbol>

<symbol id="visa" width="45" height="30" viewBox="0 0 45 30" fill="none">
<rect x="0.5" y="0.5" width="44" height="29" rx="4.5" stroke="black" stroke-opacity="0.05"/>
<g clip-path="url(#clip0_8640_3228)">
<path d="M19.0118 10.5359L17.4877 19.4829H19.926L21.4518 10.5359H19.0124H19.0118ZM15.443 10.5459L13.0548 16.6477L12.8001 15.7265C12.3295 14.6165 10.9918 13.0218 9.42242 12.0171L11.606 19.4788L14.186 19.4741L18.0265 10.5441L15.443 10.5459Z" fill="#0085F3"/>
<path d="M11.8741 11.1868C11.7329 10.6415 11.3218 10.4791 10.8118 10.4597H7.03118L7 10.638C9.94176 11.3515 11.8882 13.0715 12.6965 15.1391L11.8741 11.1868ZM26.3941 12.2515C27.0195 12.2376 27.641 12.3542 28.2188 12.5938L28.4388 12.6974L28.7688 10.7586C28.2865 10.5768 27.5294 10.3821 26.5847 10.3821C24.1753 10.3821 22.4765 11.5962 22.4635 13.335C22.4476 14.6203 23.6735 15.338 24.5988 15.7662C25.5494 16.205 25.8676 16.4838 25.8635 16.8762C25.8559 17.475 25.1059 17.7497 24.4047 17.7497C23.4282 17.7497 22.91 17.615 22.1094 17.2815L21.7947 17.1386L21.4518 19.1409C22.0224 19.3915 23.0753 19.6062 24.1688 19.6174C26.7318 19.6174 28.3982 18.4186 28.4153 16.5603C28.4259 15.5438 27.7759 14.768 26.3665 14.1309C25.5135 13.7162 24.9918 13.4403 24.9965 13.0209C24.9965 12.6491 25.4394 12.2515 26.3941 12.2515V12.2515ZM35.0271 10.5462H33.1429C32.5576 10.5462 32.1224 10.7056 31.8653 11.2891L28.2447 19.4885H30.8053C30.8053 19.4885 31.2229 18.3862 31.3176 18.1444L34.4406 18.148C34.5129 18.4603 34.7376 19.4885 34.7376 19.4885H37L35.0271 10.5462ZM32.0194 16.3133C32.22 15.7997 32.9912 13.8127 32.9912 13.8127C32.9776 13.8374 33.19 13.295 33.3159 12.9586L33.4806 13.7297L34.0453 16.3133H32.0194Z" fill="#0085F3"/>
</g>
<defs>
<clipPath>
<rect width="30" height="10" fill="white" transform="translate(7 10)"/>
</clipPath>
</defs>
</symbol>

</svg>