<svg width="45" height="30" viewBox="0 0 45 30" fill="none" xmlns="http://www.w3.org/2000/svg">
<rect x="0.5" y="0.5" width="44" height="29" rx="4.5" stroke="black" stroke-opacity="0.05"/>
<path fill-rule="evenodd" clip-rule="evenodd" d="M23 25C17.5 25 13 20.5001 13 14.9502C13.05 9.45032 17.5 4.95041 23.05 5.00041C28.55 5.05041 33 9.50032 33 15.1002C32.95 20.5501 28.5 25 23 25" fill="#FC070C"/>
<path fill-rule="evenodd" clip-rule="evenodd" d="M29.206 12.0051L29.2059 12.0051C28.7428 11.5554 28.2534 11.0803 27.8215 10.6969L27.7778 10.6663C27.705 10.6078 27.6229 10.562 27.535 10.5307L27.2016 10.4685C24.9016 10.0393 17.4465 8.64828 17.2931 8.66693C17.2478 8.67329 17.2044 8.68973 17.1662 8.71506L17.1247 8.74787C17.0735 8.79985 17.0346 8.86264 17.0109 8.93162L17 8.96006V9.11537V9.13943C17.5061 10.5488 18.821 13.6963 20.035 16.6025L20.035 16.6025C21.0614 19.0595 22.0157 21.3441 22.3484 22.26L22.3485 22.2604C22.3923 22.3961 22.4754 22.6538 22.6306 22.6669H22.6656C22.7487 22.6669 23.1031 22.1988 23.1031 22.1988C23.1031 22.1988 29.4381 14.5163 30.079 13.6982C30.162 13.5974 30.2352 13.489 30.2978 13.3744C30.3302 13.1921 30.2646 13.0061 30.125 12.8844C29.8521 12.6324 29.5357 12.3252 29.206 12.0051ZM24.7284 13.779L27.4322 11.5368L29.0181 12.9981L24.7284 13.779ZM19.0234 9.81746L23.6784 13.6325L26.555 11.2065L19.0234 9.81746ZM24.0984 14.6321L28.8628 13.8643L23.4159 20.4268L24.0984 14.6321ZM23.289 14.3543L18.3912 10.1981L22.5803 20.4312L23.289 14.3543Z" fill="white"/>
</svg>
