<svg width="45" height="30" viewBox="0 0 45 30" fill="none" xmlns="http://www.w3.org/2000/svg">
<rect x="0.5" y="0.5" width="44" height="29" rx="4.5" stroke="black" stroke-opacity="0.05"/>
<path d="M15.0092 7H21.3935C22.2847 7 22.8389 7.7264 22.631 8.62054L19.6587 21.3819C19.4489 22.273 18.5567 23 17.6649 23H11.2812C10.3912 23 9.83571 22.273 10.0436 21.3819L13.0172 8.62054C13.2251 7.7264 14.1169 7 15.0092 7Z" fill="#E21836"/>
<path d="M20.8622 7H28.204C29.095 7 28.6932 7.7264 28.4836 8.62054L25.5118 21.3819C25.3032 22.273 25.3683 23 24.4754 23H17.1336C16.2407 23 15.6881 22.273 15.8979 21.3819L18.8696 8.62054C19.0806 7.7264 19.9706 7 20.8622 7Z" fill="#00447C"/>
<path d="M27.9128 7H34.2971C35.1895 7 35.7438 7.7264 35.5342 8.62054L32.5623 21.3819C32.3525 22.273 31.4596 23 30.5674 23H24.186C23.2931 23 22.7393 22.273 22.9485 21.3819L25.9208 8.62054C26.1287 7.7264 27.0199 7 27.9128 7Z" fill="#007B84"/>
<path d="M16.6766 11.0897C16.02 11.0964 15.8261 11.0897 15.7642 11.075C15.7404 11.1882 15.2974 13.2318 15.2961 13.2335C15.2007 13.647 15.1313 13.9417 14.8956 14.132C14.7618 14.2427 14.6055 14.2961 14.4244 14.2961C14.1332 14.2961 13.9636 14.1515 13.9351 13.8773L13.9297 13.7832C13.9297 13.7832 14.0184 13.2293 14.0184 13.2262C14.0184 13.2262 14.4834 11.3639 14.5666 11.1177C14.571 11.1037 14.5722 11.0964 14.5733 11.0897C13.6683 11.0976 13.5078 11.0897 13.4968 11.075C13.4907 11.0951 13.4683 11.2106 13.4683 11.2106L12.9935 13.3096L12.9528 13.4876L12.8739 14.0699C12.8739 14.2427 12.9078 14.3837 12.9753 14.5029C13.1916 14.8808 13.8086 14.9375 14.1577 14.9375C14.6074 14.9375 15.0292 14.8419 15.3143 14.6675C15.8092 14.3751 15.9386 13.9181 16.0541 13.5119L16.1076 13.3036C16.1076 13.3036 16.5866 11.3693 16.668 11.1177C16.6711 11.1037 16.6724 11.0964 16.6766 11.0897ZM18.3062 12.6501C18.1908 12.6501 17.9798 12.6781 17.7902 12.771C17.7214 12.8063 17.6564 12.8471 17.5878 12.8877L17.6497 12.6641L17.6158 12.6264C17.2138 12.7078 17.1239 12.7187 16.7526 12.771L16.7215 12.7917C16.6784 13.1491 16.6401 13.4178 16.4803 14.1204C16.4194 14.3794 16.3563 14.6408 16.2929 14.8991L16.31 14.9319C16.6905 14.9119 16.806 14.9119 17.1367 14.9173L17.1634 14.8882C17.2054 14.673 17.2109 14.6226 17.3039 14.1867C17.3477 13.9801 17.4389 13.526 17.4838 13.3643C17.5665 13.326 17.648 13.2884 17.7258 13.2884C17.9111 13.2884 17.8886 13.4501 17.8814 13.5145C17.8735 13.6226 17.8059 13.9759 17.7367 14.2792L17.6905 14.4749C17.6583 14.6195 17.6229 14.76 17.5907 14.9033L17.6047 14.9319C17.9798 14.9119 18.0941 14.9119 18.4144 14.9173L18.452 14.8882C18.5099 14.5521 18.5269 14.4622 18.6296 13.9728L18.6813 13.7479C18.7816 13.3078 18.832 13.0847 18.7561 12.9029C18.6758 12.6992 18.4832 12.6501 18.3062 12.6501ZM20.1268 13.1108C19.9274 13.1491 19.8003 13.1746 19.6739 13.1911C19.5487 13.2112 19.4265 13.2294 19.2339 13.2561L19.2186 13.27L19.2046 13.281C19.1845 13.4245 19.1705 13.5485 19.1439 13.6943C19.1214 13.8451 19.0867 14.0165 19.0302 14.2626C18.9864 14.4511 18.9639 14.5168 18.939 14.583C18.9147 14.6493 18.8879 14.7138 18.8388 14.8991L18.8503 14.9162L18.8599 14.9319C19.04 14.9234 19.1578 14.9173 19.2788 14.9162C19.3997 14.9119 19.525 14.9162 19.7189 14.9173L19.7359 14.9035L19.7541 14.8882C19.7821 14.7211 19.7863 14.6761 19.8034 14.5946C19.8204 14.5071 19.8496 14.386 19.9214 14.0627C19.9553 13.9108 19.9931 13.7594 20.0283 13.6044C20.0648 13.45 20.1031 13.298 20.1395 13.1461L20.1341 13.1278L20.1268 13.1108ZM20.131 12.4896C19.9499 12.3827 19.632 12.4166 19.418 12.5643C19.2047 12.709 19.1804 12.9144 19.3609 13.0227C19.5389 13.1266 19.8581 13.0957 20.0702 12.9468C20.283 12.7989 20.3097 12.5954 20.131 12.4896ZM21.2264 14.9654C21.5929 14.9654 21.9686 14.8644 22.2513 14.5647C22.4688 14.3217 22.5686 13.96 22.6031 13.8111C22.7156 13.3175 22.628 13.087 22.518 12.9467C22.3509 12.7327 22.0555 12.6641 21.7491 12.6641C21.5649 12.6641 21.1261 12.6823 20.7833 12.9983C20.5371 13.2263 20.4233 13.5357 20.3547 13.8323C20.2855 14.1345 20.2058 14.6785 20.7061 14.8809C20.8604 14.9472 21.083 14.9654 21.2264 14.9654ZM21.1978 13.8548C21.2823 13.481 21.3821 13.1673 21.6366 13.1673C21.8361 13.1673 21.8506 13.4008 21.7619 13.7758C21.746 13.859 21.6732 14.1685 21.5747 14.3003C21.5059 14.3976 21.4245 14.4566 21.3346 14.4566C21.3078 14.4566 21.1486 14.4566 21.1461 14.2202C21.1449 14.1035 21.1687 13.9843 21.1978 13.8548ZM23.5192 14.9174L23.5479 14.8883C23.5885 14.6731 23.5952 14.6225 23.6851 14.1868C23.7301 13.9801 23.8231 13.526 23.8669 13.3644C23.9496 13.3259 24.0298 13.2883 24.1101 13.2883C24.2942 13.2883 24.2718 13.4499 24.2644 13.5144C24.2578 13.6227 24.1902 13.9758 24.1197 14.279L24.076 14.4748C24.0425 14.6195 24.0061 14.7599 23.9739 14.9034L23.9879 14.932C24.3642 14.9119 24.4742 14.9119 24.7963 14.9174L24.8352 14.8883C24.8917 14.552 24.907 14.462 25.0128 13.9728L25.0632 13.7478C25.164 13.3077 25.2151 13.0847 25.1404 12.903C25.0578 12.6993 24.8639 12.6501 24.6894 12.6501C24.5738 12.6501 24.3617 12.678 24.1733 12.771C24.1059 12.8063 24.0383 12.8469 23.9721 12.8877L24.0298 12.6641L23.9988 12.6263C23.597 12.7078 23.5052 12.7187 23.1344 12.771L23.1059 12.7917C23.0609 13.1491 23.0244 13.4177 22.8646 14.1205C22.8037 14.3794 22.7405 14.6408 22.6774 14.8992L22.6943 14.932C23.0754 14.9119 23.1892 14.9119 23.5192 14.9174ZM26.2837 14.9319C26.3074 14.8164 26.4479 14.1321 26.4492 14.1321C26.4492 14.1321 26.5688 13.6299 26.5761 13.6117C26.5761 13.6117 26.6138 13.5594 26.6515 13.5387H26.7069C27.2296 13.5387 27.8198 13.5387 28.2824 13.1984C28.5972 12.965 28.8124 12.6203 28.9084 12.2014C28.9333 12.0987 28.9517 11.9765 28.9517 11.8544C28.9517 11.6939 28.9195 11.5352 28.8264 11.4112C28.5905 11.0811 28.1207 11.0751 27.5784 11.0726C27.5767 11.0726 27.3111 11.0751 27.3111 11.0751C26.6169 11.0836 26.3385 11.0811 26.2241 11.0671C26.2145 11.1177 26.1963 11.2077 26.1963 11.2077C26.1963 11.2077 25.9476 12.3601 25.9476 12.362C25.9476 12.362 25.3526 14.8122 25.3246 14.9277C25.9307 14.9204 26.1792 14.9204 26.2837 14.9319ZM26.7445 12.8847C26.7445 12.8847 27.0089 11.7346 27.0076 11.7389L27.0162 11.6799L27.0199 11.635L27.1256 11.6459C27.1256 11.6459 27.6709 11.6927 27.6836 11.6939C27.8988 11.7772 27.9875 11.9918 27.9256 12.2719C27.8691 12.5279 27.7031 12.7431 27.4897 12.847C27.314 12.9351 27.0988 12.9424 26.8771 12.9424H26.7336L26.7445 12.8847ZM28.3906 13.8761C28.3208 14.174 28.2405 14.718 28.7383 14.9119C28.897 14.9794 29.0392 14.9995 29.1838 14.9922C29.3364 14.9839 29.4779 14.9074 29.6089 14.7972C29.5971 14.8425 29.5853 14.8878 29.5734 14.9332L29.596 14.9623C29.9541 14.9472 30.0652 14.9472 30.4531 14.9502L30.4883 14.9234C30.5449 14.5904 30.5983 14.267 30.7455 13.63C30.8172 13.3248 30.8888 13.0226 30.9624 12.7187L30.9509 12.6852C30.5504 12.7595 30.4433 12.7753 30.058 12.83L30.0288 12.8538C30.0249 12.8847 30.0208 12.9145 30.0171 12.9442C29.9572 12.8474 29.8703 12.7648 29.7364 12.7132C29.565 12.6459 29.1626 12.7327 28.8167 13.0477C28.5736 13.2725 28.4569 13.5806 28.3906 13.8761ZM29.2319 13.8943C29.3176 13.5273 29.4161 13.2167 29.6713 13.2167C29.8327 13.2167 29.9177 13.3656 29.9004 13.6195C29.8867 13.6829 29.8719 13.7496 29.8543 13.8251C29.8288 13.9342 29.8011 14.0423 29.7742 14.1506C29.7468 14.2247 29.7149 14.2946 29.6799 14.3411C29.6142 14.4342 29.458 14.4919 29.368 14.4919C29.3425 14.4919 29.185 14.4919 29.1796 14.2597C29.1783 14.1441 29.2021 14.0251 29.2319 13.8943ZM33.6249 12.6823L33.5939 12.6469C33.1976 12.7272 33.1258 12.74 32.7617 12.7892L32.7349 12.8159C32.7337 12.8203 32.7326 12.827 32.7307 12.8331L32.7295 12.827C32.4584 13.4524 32.4663 13.3175 32.2457 13.8098C32.2444 13.7874 32.2444 13.7734 32.2432 13.7496L32.1879 12.6823L32.1532 12.6469C31.7381 12.7272 31.7283 12.74 31.3448 12.7892L31.315 12.8159C31.3108 12.8287 31.3108 12.8427 31.3083 12.8579L31.3108 12.8634C31.3587 13.1083 31.3472 13.0537 31.3953 13.4402C31.4177 13.6299 31.4475 13.8207 31.47 14.0081C31.5078 14.3216 31.5289 14.476 31.5751 14.9545C31.3162 15.3818 31.2549 15.5435 31.0056 15.9185L31.0073 15.9223L30.8318 16.1999C30.8117 16.2291 30.7935 16.2492 30.768 16.2578C30.74 16.2716 30.7036 16.2741 30.653 16.2741H30.5557L30.4112 16.7549L30.9071 16.7635C31.1983 16.7622 31.3813 16.6261 31.4798 16.4431L31.7916 15.9087H31.7866L31.8195 15.8711C32.0292 15.4195 33.6249 12.6823 33.6249 12.6823ZM28.3906 18.9974H28.1802L28.9589 16.4218H29.2172L29.2992 16.1565L29.3072 16.4516C29.2975 16.6339 29.441 16.7956 29.8179 16.7689H30.2538L30.4038 16.2729H30.2398C30.1455 16.2729 30.1017 16.2491 30.1072 16.1981L30.0992 15.8979H29.2921V15.8995C29.0311 15.9049 28.2518 15.9245 28.094 15.9665C27.9031 16.0157 27.7019 16.1604 27.7019 16.1604L27.7809 15.8948H27.0259L26.8686 16.4218L26.0795 19.0367H25.9264L25.7762 19.5291H27.28L27.2296 19.6933H27.9706L28.0198 19.5291H28.2277L28.3906 18.9974ZM27.7736 16.9452C27.6527 16.9786 27.4277 17.0801 27.4277 17.0801L27.6278 16.4218H28.2277L28.083 16.9014C28.083 16.9014 27.8976 16.9123 27.7736 16.9452ZM27.7851 17.8855C27.7851 17.8855 27.5967 17.9092 27.4727 17.9372C27.3505 17.9742 27.1214 18.0909 27.1214 18.0909L27.3281 17.4059H27.9311L27.7851 17.8855ZM27.449 19.0034H26.8473L27.0217 18.4253H27.6216L27.449 19.0034ZM28.8982 17.4059H29.7655L29.6409 17.8096H28.762L28.63 18.2509H29.3991L28.8168 19.0708C28.776 19.131 28.7394 19.1524 28.6988 19.1693C28.6581 19.19 28.6045 19.2143 28.5426 19.2143H28.3292L28.1827 19.6976H28.7407C29.0307 19.6976 29.2021 19.5657 29.3286 19.3925L29.7279 18.846L29.8136 19.4009C29.8318 19.5048 29.9065 19.5657 29.9571 19.5893C30.013 19.6173 30.0707 19.6654 30.1522 19.6726C30.2397 19.6763 30.3029 19.6793 30.3449 19.6793H30.6191L30.7837 19.1384H30.6756C30.6135 19.1384 30.5066 19.1279 30.4884 19.1085C30.4702 19.0848 30.4702 19.0484 30.4603 18.993L30.3734 18.4369H30.0172L30.1734 18.2509H31.0506L31.1855 17.8096H30.3734L30.4999 17.4059H31.3095L31.4597 16.9081H29.0458L28.8982 17.4059ZM21.5722 19.1158L21.7747 18.4424H22.6067L22.7588 17.9414H21.9259L22.0531 17.5269H22.8669L23.0177 17.0419H20.9814L20.8337 17.5269H21.2963L21.1729 17.9414H20.7091L20.5553 18.4509H21.0178L20.748 19.3419C20.7116 19.4599 20.7651 19.5049 20.799 19.5597C20.8337 19.613 20.8689 19.6483 20.9479 19.6684C21.0295 19.6866 21.0853 19.6975 21.1613 19.6975H22.0993L22.2664 19.1426L21.8506 19.1997C21.7703 19.1997 21.548 19.1901 21.5722 19.1158ZM21.6677 15.8918L21.4568 16.2728C21.4117 16.3561 21.3711 16.4078 21.3345 16.4316C21.3023 16.4516 21.2385 16.4601 21.1461 16.4601H21.036L20.889 16.9476H21.2544C21.4301 16.9476 21.565 16.8832 21.6294 16.8509C21.6986 16.8139 21.7168 16.8351 21.7704 16.7834L21.8938 16.6765H23.0347L23.1861 16.1689H22.351L22.4968 15.8918H21.6677ZM23.3521 19.1256C23.3326 19.0976 23.3466 19.0483 23.3764 18.9456L23.6882 17.9134H24.7976C24.9592 17.9111 25.0759 17.9092 25.1519 17.9038C25.2334 17.8952 25.3221 17.8661 25.4188 17.8138C25.5185 17.7591 25.5695 17.7013 25.6127 17.635C25.6607 17.5689 25.7379 17.4242 25.8042 17.201L26.1962 15.8948L25.045 15.9015C25.045 15.9015 24.6905 15.9538 24.5344 16.0115C24.3769 16.076 24.1519 16.2558 24.1519 16.2558L24.2559 15.8978H23.5447L22.5491 19.1997C22.5138 19.3279 22.4901 19.421 22.4847 19.4768C22.4828 19.5371 22.5606 19.5967 22.6111 19.6416C22.6707 19.6866 22.7587 19.6793 22.8432 19.6866C22.9321 19.6933 23.0584 19.6975 23.2329 19.6975H23.7794L23.9471 19.1311L23.4579 19.1773C23.4056 19.1773 23.3678 19.1493 23.3521 19.1256ZM23.8894 17.2163H25.0546L24.9806 17.4484C24.9701 17.4539 24.9452 17.4369 24.8267 17.4509H23.8177L23.8894 17.2163ZM24.1228 16.4376H25.2978L25.2134 16.7172C25.2134 16.7172 24.6595 16.7118 24.5708 16.7281C24.1806 16.7957 23.9526 17.0042 23.9526 17.0042L24.1228 16.4376ZM25.0066 18.2259C24.997 18.2606 24.9817 18.2818 24.9604 18.2977C24.9368 18.3129 24.8985 18.3184 24.8414 18.3184H24.6753L24.6851 18.0356H23.9945L23.9665 19.4179C23.9654 19.5177 23.9751 19.5754 24.0481 19.6216C24.1211 19.6793 24.3459 19.6867 24.6486 19.6867H25.0813L25.2376 19.1693L24.8608 19.1899L24.7356 19.1973C24.7184 19.1899 24.7021 19.1833 24.6839 19.165C24.668 19.1493 24.6413 19.159 24.6456 19.0592L24.6486 18.7049L25.0437 18.6886C25.257 18.6886 25.3482 18.6192 25.426 18.553C25.5002 18.4897 25.5245 18.4169 25.5525 18.3184L25.6188 18.0047H25.0759L25.0066 18.2259Z" fill="#FEFEFE"/>
</svg>
