<svg width="212" height="48" viewBox="0 0 212 48" fill="none" xmlns="http://www.w3.org/2000/svg">
<g clip-path="url(#clip0_1_154)">
<path d="M28.3944 6.5C25.0893 6.5 22.1129 7.93525 20 10.2353C17.8871 7.93525 14.9107 6.5 11.6076 6.5C5.19751 6.5 0 11.8914 0 18.5422C0 19.0206 0.0347045 19.4929 0.087782 19.957C0.261304 22.7866 1.30244 25.8942 3.52149 29.0857C5.23426 31.5494 7.83709 34.1622 10.7421 36.3949C13.7205 38.6847 17.0154 40.5759 20.002 41.5C22.9887 40.5759 26.2836 38.6847 29.262 36.3949C32.167 34.1622 34.7698 31.5494 36.4826 29.0857C38.7016 25.8942 39.7428 22.7866 39.9163 19.957C39.9694 19.4929 40.0041 19.0226 40.0041 18.5422C40 11.8914 34.8045 6.5 28.3944 6.5Z" fill="#28D17C"/>
<path d="M20.0082 10.266C20.0164 10.2558 19.9817 10.1985 19.9327 10.1638C17.8525 8.01498 14.9536 6.67583 11.7384 6.67583C8.02907 6.67583 4.73419 8.44842 2.63967 11.1983C1.43726 12.7746 1.05755 14.905 1.64753 16.8003C1.93129 17.7141 2.42736 18.4992 3.07041 19.1473C3.60323 19.683 4.23403 20.1226 4.92812 20.4599C4.77297 21.0447 4.65661 21.6376 4.60762 22.2407C4.57087 22.715 4.57495 23.1955 4.64232 23.6678C4.66069 23.8007 4.68723 23.9295 4.71785 24.0583C4.94037 24.1646 5.16697 24.2607 5.3997 24.3445C7.45339 25.0887 10.1297 25.5548 11.7629 23.5287C11.9813 23.1301 12.1895 22.7232 12.3814 22.3102C12.7795 21.4515 13.1143 20.5581 13.3266 19.6339C13.4307 19.178 13.5063 18.7139 13.543 18.2457C13.543 18.2212 13.545 18.1967 13.5471 18.1721C15.6498 15.6001 18.0505 12.3248 20.0082 10.266Z" fill="#20B66A"/>
<path d="M14.5146 38.9852C14.5146 38.9852 14.5228 38.9873 14.5228 38.9852C14.5208 38.9852 14.5167 38.9852 14.5146 38.9852Z" fill="white"/>
<path d="M12.3591 32.1975C13.98 27.9837 16.0745 26.2888 16.3787 25.7818C16.6686 25.3013 16.6339 24.919 16.4236 24.7636C15.9867 24.4426 15.3376 24.461 14.6149 25.1378C13.2553 26.4095 12.4857 27.7568 12.4387 26.6609C12.3591 25.1705 13.3696 21.3738 14.6108 18.4461C15.1457 17.1499 14.8088 16.6776 14.4863 16.5733C13.8698 16.3689 12.8511 17.937 12.1937 19.6728C11.6568 20.877 10.7137 24.737 10.3197 24.6042C10.1482 24.5408 10.1666 24.0092 10.1686 24.0092C10.2605 22.0649 11.3323 18.5401 12.2815 15.8925C12.7756 14.4777 12.4244 13.9931 12.0998 13.9032C11.4731 13.7294 10.5341 15.4713 9.88283 17.3257C9.30919 18.6096 8.53548 24.1666 8.04145 23.9274C8.04145 23.9274 7.83119 23.8129 7.85977 23.2486C7.98429 21.2348 8.46403 19.1596 9.18466 16.2114C9.58683 14.6515 9.20712 14.171 8.87436 14.1097C8.23539 13.9911 7.40248 15.9477 6.88396 17.982C6.42259 19.4131 6.12046 24.1871 5.59989 23.9417C5.44882 23.8743 5.47945 23.2507 5.48149 23.2507C5.59377 21.3656 5.62439 21.5129 6.00205 18.6199C6.23478 17.0906 5.85303 16.6755 5.54885 16.6571C4.965 16.6203 4.37707 18.5667 4.08514 20.5499C3.69727 21.7807 3.72381 26.0885 4.5118 30.4065C6.09188 32.5471 8.23743 34.6243 10.6259 36.4623C11.7936 37.3599 12.996 38.1593 14.3475 38.8687C13.633 38.3085 10.9791 35.7754 12.355 32.1975H12.3591Z" fill="white"/>
<path d="M31.1543 6.84348C31.1727 6.84348 31.191 6.84757 31.2094 6.84961C31.1747 6.83939 31.1563 6.83734 31.1543 6.84348Z" fill="white"/>
<path d="M32.7815 8.54042C33.1959 9.75895 33.2817 12.0304 31.3443 13.9114C28.1923 16.8718 25.5119 18.1721 25.0587 18.5524C23.9645 19.4683 24.7546 20.5846 26.3285 19.8323C28.0168 18.9899 29.554 18.2948 29.1477 19.313C28.6068 20.7032 26.1264 23.7455 23.789 25.9024C22.7682 26.8633 22.8826 27.4317 23.1316 27.6607C23.6093 28.1023 25.1833 27.0923 26.4939 25.7818C27.4778 24.9067 29.9255 21.7786 30.2297 22.0608C30.3604 22.1896 30.1235 22.666 30.1235 22.666C29.2396 24.3997 26.8144 27.17 24.8607 29.192C23.8277 30.2777 23.9482 30.8624 24.2095 31.0812C24.7076 31.4982 26.2816 30.2981 27.6371 28.8772C28.6884 27.9449 31.7445 23.1955 32.0976 23.6167C32.0976 23.6167 32.2589 23.6657 32.0017 24.1687C31.0606 25.9535 29.6846 27.7915 27.8147 30.1775C26.8062 31.4328 26.9532 32.0278 27.2329 32.22C27.7657 32.5921 29.3294 31.1527 30.64 29.511C31.6505 28.3967 33.888 24.1707 34.2636 24.6103C34.3738 24.735 34.088 25.2891 34.088 25.2891C33.2102 26.9594 33.2429 26.8143 31.7077 29.2922C30.8666 30.5905 31.0442 31.1261 31.3137 31.2672C31.8302 31.5412 33.3776 29.7379 34.5351 28.1044C36.452 25.3954 38.9099 18.7548 38.8364 13.2632C37.4707 10.084 34.8821 7.74306 31.3117 6.88028C31.6383 7.00704 32.4202 7.45479 32.7876 8.54042H32.7815Z" fill="white"/>
</g>
<path d="M54.807 22.5C54.6677 22.5 54.5537 22.4557 54.465 22.367C54.3763 22.2783 54.332 22.1643 54.332 22.025V11.841H50.874C50.7473 11.841 50.6397 11.7967 50.551 11.708C50.4623 11.6193 50.418 11.5117 50.418 11.385V9.675C50.418 9.53567 50.4623 9.42167 50.551 9.333C50.6397 9.24433 50.7473 9.2 50.874 9.2H60.83C60.9693 9.2 61.0833 9.24433 61.172 9.333C61.2607 9.42167 61.305 9.53567 61.305 9.675V11.385C61.305 11.5117 61.2607 11.6193 61.172 11.708C61.0833 11.7967 60.9693 11.841 60.83 11.841H57.391V22.025C57.391 22.1643 57.3467 22.2783 57.258 22.367C57.1693 22.4557 57.0553 22.5 56.916 22.5H54.807ZM63.6076 22.5C63.4682 22.5 63.3542 22.4557 63.2656 22.367C63.1769 22.2783 63.1326 22.1643 63.1326 22.025V9.675C63.1326 9.53567 63.1769 9.42167 63.2656 9.333C63.3542 9.24433 63.4682 9.2 63.6076 9.2H68.6426C70.2259 9.2 71.4736 9.56733 72.3856 10.302C73.2976 11.024 73.7536 12.069 73.7536 13.437C73.7536 14.3617 73.5319 15.1343 73.0886 15.755C72.6452 16.3757 72.0499 16.838 71.3026 17.142L73.9816 21.892C74.0196 21.968 74.0386 22.0377 74.0386 22.101C74.0386 22.2023 74.0006 22.2973 73.9246 22.386C73.8486 22.462 73.7536 22.5 73.6396 22.5H71.5306C71.3026 22.5 71.1316 22.443 71.0176 22.329C70.9036 22.2023 70.8212 22.0883 70.7706 21.987L68.4526 17.636H66.1536V22.025C66.1536 22.1643 66.1092 22.2783 66.0206 22.367C65.9319 22.4557 65.8179 22.5 65.6786 22.5H63.6076ZM66.1536 15.223H68.5856C69.2822 15.223 69.7952 15.0647 70.1246 14.748C70.4666 14.4313 70.6376 13.988 70.6376 13.418C70.6376 12.848 70.4729 12.3983 70.1436 12.069C69.8142 11.7397 69.2949 11.575 68.5856 11.575H66.1536V15.223ZM81.5177 22.69C80.4031 22.69 79.4277 22.5063 78.5917 22.139C77.7557 21.759 77.1097 21.1827 76.6537 20.41C76.1977 19.6247 75.9697 18.6303 75.9697 17.427V9.675C75.9697 9.53567 76.0141 9.42167 76.1027 9.333C76.1914 9.24433 76.3054 9.2 76.4447 9.2H78.5157C78.6551 9.2 78.7691 9.24433 78.8577 9.333C78.9464 9.42167 78.9907 9.53567 78.9907 9.675V17.408C78.9907 18.3453 79.2124 19.042 79.6557 19.498C80.0991 19.954 80.7197 20.182 81.5177 20.182C82.3031 20.182 82.9174 19.954 83.3607 19.498C83.8041 19.042 84.0257 18.3453 84.0257 17.408V9.675C84.0257 9.53567 84.0701 9.42167 84.1587 9.333C84.2601 9.24433 84.3741 9.2 84.5007 9.2H86.5907C86.7174 9.2 86.8251 9.24433 86.9137 9.333C87.0024 9.42167 87.0467 9.53567 87.0467 9.675V17.427C87.0467 18.6303 86.8187 19.6247 86.3627 20.41C85.9067 21.1827 85.2671 21.759 84.4437 22.139C83.6204 22.5063 82.6451 22.69 81.5177 22.69ZM90.215 22.5C90.0757 22.5 89.9617 22.4557 89.873 22.367C89.7843 22.2783 89.74 22.1643 89.74 22.025V9.675C89.74 9.53567 89.7843 9.42167 89.873 9.333C89.9617 9.24433 90.0757 9.2 90.215 9.2H98.822C98.9613 9.2 99.0753 9.24433 99.164 9.333C99.2527 9.42167 99.297 9.53567 99.297 9.675V11.195C99.297 11.3217 99.2527 11.4293 99.164 11.518C99.0753 11.6067 98.9613 11.651 98.822 11.651H92.666V14.634H98.404C98.5433 14.634 98.6573 14.6783 98.746 14.767C98.8347 14.8557 98.879 14.9697 98.879 15.109V16.515C98.879 16.6417 98.8347 16.7493 98.746 16.838C98.6573 16.9267 98.5433 16.971 98.404 16.971H92.666V20.049H98.974C99.1133 20.049 99.2273 20.0933 99.316 20.182C99.4047 20.2707 99.449 20.3847 99.449 20.524V22.025C99.449 22.1643 99.4047 22.2783 99.316 22.367C99.2273 22.4557 99.1133 22.5 98.974 22.5H90.215ZM106.376 22.5C106.237 22.5 106.123 22.4557 106.034 22.367C105.945 22.2783 105.901 22.1643 105.901 22.025V9.675C105.901 9.53567 105.945 9.42167 106.034 9.333C106.123 9.24433 106.237 9.2 106.376 9.2H111.563C112.589 9.2 113.476 9.35833 114.223 9.675C114.983 9.99167 115.572 10.473 115.99 11.119C116.421 11.7523 116.636 12.544 116.636 13.494C116.636 14.4567 116.421 15.2547 115.99 15.888C115.572 16.5087 114.983 16.971 114.223 17.275C113.476 17.579 112.589 17.731 111.563 17.731H109.017V22.025C109.017 22.1643 108.973 22.2783 108.884 22.367C108.795 22.4557 108.681 22.5 108.542 22.5H106.376ZM108.96 15.375H111.468C112.114 15.375 112.614 15.2167 112.969 14.9C113.336 14.5833 113.52 14.1083 113.52 13.475C113.52 12.9177 113.355 12.4617 113.026 12.107C112.709 11.7523 112.19 11.575 111.468 11.575H108.96V15.375ZM119.049 22.5C118.91 22.5 118.796 22.4557 118.707 22.367C118.618 22.2783 118.574 22.1643 118.574 22.025V9.675C118.574 9.53567 118.618 9.42167 118.707 9.333C118.796 9.24433 118.91 9.2 119.049 9.2H121.12C121.259 9.2 121.373 9.24433 121.462 9.333C121.551 9.42167 121.595 9.53567 121.595 9.675V14.425H126.744V9.675C126.744 9.53567 126.788 9.42167 126.877 9.333C126.966 9.24433 127.08 9.2 127.219 9.2H129.29C129.429 9.2 129.543 9.24433 129.632 9.333C129.721 9.42167 129.765 9.53567 129.765 9.675V22.025C129.765 22.1643 129.721 22.2783 129.632 22.367C129.543 22.4557 129.429 22.5 129.29 22.5H127.219C127.08 22.5 126.966 22.4557 126.877 22.367C126.788 22.2783 126.744 22.1643 126.744 22.025V17.123H121.595V22.025C121.595 22.1643 121.551 22.2783 121.462 22.367C121.373 22.4557 121.259 22.5 121.12 22.5H119.049ZM131.804 22.5C131.69 22.5 131.595 22.462 131.519 22.386C131.443 22.2973 131.405 22.2023 131.405 22.101C131.405 22.0377 131.411 21.9807 131.424 21.93L135.946 9.713C135.984 9.57367 136.06 9.45333 136.174 9.352C136.288 9.25067 136.446 9.2 136.649 9.2H139.081C139.283 9.2 139.442 9.25067 139.556 9.352C139.67 9.45333 139.746 9.57367 139.784 9.713L144.306 21.93C144.318 21.9807 144.325 22.0377 144.325 22.101C144.325 22.2023 144.287 22.2973 144.211 22.386C144.135 22.462 144.04 22.5 143.926 22.5H141.95C141.76 22.5 141.62 22.4557 141.532 22.367C141.443 22.2783 141.386 22.196 141.361 22.12L140.544 19.992H135.186L134.369 22.12C134.343 22.196 134.286 22.2783 134.198 22.367C134.109 22.4557 133.97 22.5 133.78 22.5H131.804ZM135.889 17.541H139.822L137.865 12.069L135.889 17.541ZM146.436 22.5C146.296 22.5 146.182 22.4557 146.094 22.367C146.005 22.2783 145.961 22.1643 145.961 22.025V9.675C145.961 9.53567 146.005 9.42167 146.094 9.333C146.182 9.24433 146.296 9.2 146.436 9.2H151.471C153.054 9.2 154.302 9.56733 155.214 10.302C156.126 11.024 156.582 12.069 156.582 13.437C156.582 14.3617 156.36 15.1343 155.917 15.755C155.473 16.3757 154.878 16.838 154.131 17.142L156.81 21.892C156.848 21.968 156.867 22.0377 156.867 22.101C156.867 22.2023 156.829 22.2973 156.753 22.386C156.677 22.462 156.582 22.5 156.468 22.5H154.359C154.131 22.5 153.96 22.443 153.846 22.329C153.732 22.2023 153.649 22.0883 153.599 21.987L151.281 17.636H148.982V22.025C148.982 22.1643 148.937 22.2783 148.849 22.367C148.76 22.4557 148.646 22.5 148.507 22.5H146.436ZM148.982 15.223H151.414C152.11 15.223 152.623 15.0647 152.953 14.748C153.295 14.4313 153.466 13.988 153.466 13.418C153.466 12.848 153.301 12.3983 152.972 12.069C152.642 11.7397 152.123 11.575 151.414 11.575H148.982V15.223ZM159.387 22.5C159.26 22.5 159.146 22.4557 159.045 22.367C158.956 22.2783 158.912 22.1643 158.912 22.025V9.675C158.912 9.53567 158.956 9.42167 159.045 9.333C159.146 9.24433 159.26 9.2 159.387 9.2H161.154C161.344 9.2 161.483 9.25067 161.572 9.352C161.673 9.45333 161.743 9.52933 161.781 9.58L165.277 16.021L168.811 9.58C168.836 9.52933 168.893 9.45333 168.982 9.352C169.083 9.25067 169.229 9.2 169.419 9.2H171.186C171.325 9.2 171.439 9.24433 171.528 9.333C171.617 9.42167 171.661 9.53567 171.661 9.675V22.025C171.661 22.1643 171.617 22.2783 171.528 22.367C171.439 22.4557 171.325 22.5 171.186 22.5H169.248C169.121 22.5 169.014 22.4557 168.925 22.367C168.836 22.2783 168.792 22.1643 168.792 22.025V14.349L166.379 18.871C166.316 18.985 166.233 19.0863 166.132 19.175C166.031 19.2637 165.898 19.308 165.733 19.308H164.84C164.675 19.308 164.542 19.2637 164.441 19.175C164.34 19.0863 164.257 18.985 164.194 18.871L161.781 14.349V22.025C161.781 22.1643 161.737 22.2783 161.648 22.367C161.559 22.4557 161.452 22.5 161.325 22.5H159.387ZM173.7 22.5C173.586 22.5 173.491 22.462 173.415 22.386C173.339 22.2973 173.301 22.2023 173.301 22.101C173.301 22.0377 173.308 21.9807 173.32 21.93L177.842 9.713C177.88 9.57367 177.956 9.45333 178.07 9.352C178.184 9.25067 178.343 9.2 178.545 9.2H180.977C181.18 9.2 181.338 9.25067 181.452 9.352C181.566 9.45333 181.642 9.57367 181.68 9.713L186.202 21.93C186.215 21.9807 186.221 22.0377 186.221 22.101C186.221 22.2023 186.183 22.2973 186.107 22.386C186.031 22.462 185.936 22.5 185.822 22.5H183.846C183.656 22.5 183.517 22.4557 183.428 22.367C183.34 22.2783 183.283 22.196 183.257 22.12L182.44 19.992H177.082L176.265 22.12C176.24 22.196 176.183 22.2783 176.094 22.367C176.006 22.4557 175.866 22.5 175.676 22.5H173.7ZM177.785 17.541H181.718L179.761 12.069L177.785 17.541ZM192.861 22.69C191.67 22.69 190.657 22.4937 189.821 22.101C188.998 21.6957 188.358 21.113 187.902 20.353C187.446 19.5803 187.193 18.643 187.142 17.541C187.129 17.0217 187.123 16.4643 187.123 15.869C187.123 15.2737 187.129 14.7037 187.142 14.159C187.193 13.0697 187.446 12.145 187.902 11.385C188.371 10.6123 189.023 10.0233 189.859 9.618C190.695 9.21267 191.696 9.01 192.861 9.01C193.71 9.01 194.482 9.11767 195.179 9.333C195.876 9.54833 196.477 9.85867 196.984 10.264C197.491 10.6693 197.883 11.1443 198.162 11.689C198.441 12.2337 198.593 12.8417 198.618 13.513C198.618 13.627 198.574 13.722 198.485 13.798C198.409 13.874 198.314 13.912 198.2 13.912H196.034C195.882 13.912 195.762 13.874 195.673 13.798C195.584 13.722 195.515 13.5953 195.464 13.418C195.274 12.6707 194.957 12.1577 194.514 11.879C194.071 11.6003 193.52 11.461 192.861 11.461C192.076 11.461 191.455 11.6763 190.999 12.107C190.543 12.5377 190.296 13.2533 190.258 14.254C190.22 15.2927 190.22 16.3567 190.258 17.446C190.296 18.4467 190.543 19.1623 190.999 19.593C191.455 20.0237 192.076 20.239 192.861 20.239C193.52 20.239 194.071 20.0997 194.514 19.821C194.97 19.5297 195.287 19.0167 195.464 18.282C195.515 18.092 195.584 17.9653 195.673 17.902C195.762 17.826 195.882 17.788 196.034 17.788H198.2C198.314 17.788 198.409 17.826 198.485 17.902C198.574 17.978 198.618 18.073 198.618 18.187C198.593 18.8583 198.441 19.4663 198.162 20.011C197.883 20.5557 197.491 21.0307 196.984 21.436C196.477 21.8413 195.876 22.1517 195.179 22.367C194.482 22.5823 193.71 22.69 192.861 22.69ZM204.315 22.5C204.175 22.5 204.061 22.4557 203.973 22.367C203.884 22.2783 203.84 22.1643 203.84 22.025V17.845L199.394 9.808C199.381 9.77 199.368 9.73833 199.356 9.713C199.343 9.675 199.337 9.637 199.337 9.599C199.337 9.49767 199.375 9.409 199.451 9.333C199.539 9.24433 199.634 9.2 199.736 9.2H201.75C201.927 9.2 202.066 9.24433 202.168 9.333C202.269 9.42167 202.339 9.504 202.377 9.58L205.36 14.805L208.343 9.58C208.381 9.504 208.45 9.42167 208.552 9.333C208.653 9.24433 208.792 9.2 208.97 9.2H210.984C211.085 9.2 211.174 9.24433 211.25 9.333C211.338 9.409 211.383 9.49767 211.383 9.599C211.383 9.637 211.376 9.675 211.364 9.713C211.351 9.73833 211.338 9.77 211.326 9.808L206.88 17.845V22.025C206.88 22.1643 206.835 22.2783 206.747 22.367C206.658 22.4557 206.544 22.5 206.405 22.5H204.315Z" fill="#212529"/>
<path d="M51.43 40.5C51.3347 40.5 51.261 40.474 51.209 40.422C51.157 40.3613 51.131 40.2877 51.131 40.201V31.712C51.131 31.6167 51.157 31.543 51.209 31.491C51.261 31.4303 51.3347 31.4 51.43 31.4H54.602C55.5813 31.4 56.357 31.6297 56.929 32.089C57.501 32.5483 57.787 33.2287 57.787 34.13C57.787 34.7973 57.618 35.3433 57.28 35.768C56.9507 36.184 56.5 36.4743 55.928 36.639L57.93 40.097C57.956 40.149 57.969 40.1967 57.969 40.24C57.969 40.3093 57.9387 40.37 57.878 40.422C57.826 40.474 57.7653 40.5 57.696 40.5H57.072C56.9247 40.5 56.8163 40.461 56.747 40.383C56.6777 40.305 56.617 40.227 56.565 40.149L54.68 36.847H52.405V40.201C52.405 40.2877 52.3747 40.3613 52.314 40.422C52.262 40.474 52.1883 40.5 52.093 40.5H51.43ZM52.405 35.742H54.55C55.2 35.742 55.6853 35.6077 56.006 35.339C56.3267 35.0617 56.487 34.6543 56.487 34.117C56.487 33.5883 56.3267 33.1853 56.006 32.908C55.694 32.6307 55.2087 32.492 54.55 32.492H52.405V35.742ZM62.0954 40.63C61.2027 40.63 60.492 40.357 59.9634 39.811C59.4347 39.2563 59.1444 38.5023 59.0924 37.549C59.0837 37.4363 59.0794 37.2933 59.0794 37.12C59.0794 36.938 59.0837 36.7907 59.0924 36.678C59.127 36.0627 59.27 35.5253 59.5214 35.066C59.7727 34.598 60.115 34.2383 60.5484 33.987C60.9904 33.7357 61.506 33.61 62.0954 33.61C62.754 33.61 63.3044 33.7487 63.7464 34.026C64.197 34.3033 64.5394 34.6977 64.7734 35.209C65.0074 35.7203 65.1244 36.3183 65.1244 37.003V37.224C65.1244 37.3193 65.094 37.393 65.0334 37.445C64.9814 37.497 64.912 37.523 64.8254 37.523H60.3274C60.3274 37.5317 60.3274 37.549 60.3274 37.575C60.3274 37.601 60.3274 37.6227 60.3274 37.64C60.3447 37.9953 60.4227 38.329 60.5614 38.641C60.7 38.9443 60.8994 39.1913 61.1594 39.382C61.4194 39.5727 61.7314 39.668 62.0954 39.668C62.4074 39.668 62.6674 39.6203 62.8754 39.525C63.0834 39.4297 63.2524 39.3257 63.3824 39.213C63.5124 39.0917 63.599 39.0007 63.6424 38.94C63.7204 38.8273 63.781 38.7623 63.8244 38.745C63.8677 38.719 63.937 38.706 64.0324 38.706H64.6564C64.743 38.706 64.8124 38.732 64.8644 38.784C64.925 38.8273 64.951 38.8923 64.9424 38.979C64.9337 39.109 64.8644 39.2693 64.7344 39.46C64.6044 39.642 64.418 39.824 64.1754 40.006C63.9327 40.188 63.638 40.3397 63.2914 40.461C62.9447 40.5737 62.546 40.63 62.0954 40.63ZM60.3274 36.626H63.8894V36.587C63.8894 36.197 63.8157 35.8503 63.6684 35.547C63.5297 35.2437 63.326 35.0053 63.0574 34.832C62.7887 34.65 62.468 34.559 62.0954 34.559C61.7227 34.559 61.402 34.65 61.1334 34.832C60.8734 35.0053 60.674 35.2437 60.5354 35.547C60.3967 35.8503 60.3274 36.197 60.3274 36.587V36.626ZM66.9908 40.5C66.9041 40.5 66.8305 40.474 66.7698 40.422C66.7178 40.3613 66.6918 40.2877 66.6918 40.201V31.569C66.6918 31.4823 66.7178 31.413 66.7698 31.361C66.8305 31.3003 66.9041 31.27 66.9908 31.27H67.6018C67.6971 31.27 67.7708 31.3003 67.8228 31.361C67.8748 31.413 67.9008 31.4823 67.9008 31.569V40.201C67.9008 40.2877 67.8748 40.3613 67.8228 40.422C67.7708 40.474 67.6971 40.5 67.6018 40.5H66.9908ZM70.1389 40.5C70.0523 40.5 69.9786 40.474 69.9179 40.422C69.8659 40.3613 69.8399 40.2877 69.8399 40.201V34.039C69.8399 33.9523 69.8659 33.883 69.9179 33.831C69.9786 33.7703 70.0523 33.74 70.1389 33.74H70.7629C70.8496 33.74 70.9189 33.7703 70.9709 33.831C71.0229 33.883 71.0489 33.9523 71.0489 34.039V40.201C71.0489 40.2877 71.0229 40.3613 70.9709 40.422C70.9189 40.474 70.8496 40.5 70.7629 40.5H70.1389ZM70.0349 32.479C69.9483 32.479 69.8746 32.453 69.8139 32.401C69.7619 32.3403 69.7359 32.2667 69.7359 32.18V31.478C69.7359 31.3913 69.7619 31.322 69.8139 31.27C69.8746 31.2093 69.9483 31.179 70.0349 31.179H70.8539C70.9406 31.179 71.0099 31.2093 71.0619 31.27C71.1226 31.322 71.1529 31.3913 71.1529 31.478V32.18C71.1529 32.2667 71.1226 32.3403 71.0619 32.401C71.0099 32.453 70.9406 32.479 70.8539 32.479H70.0349ZM74.8734 40.63C74.44 40.63 74.0457 40.5433 73.6904 40.37C73.335 40.1967 73.049 39.9627 72.8324 39.668C72.6157 39.3733 72.5074 39.0397 72.5074 38.667C72.5074 38.069 72.75 37.5923 73.2354 37.237C73.7207 36.8817 74.3534 36.6477 75.1334 36.535L77.0704 36.262V35.885C77.0704 35.469 76.949 35.144 76.7064 34.91C76.4724 34.676 76.0867 34.559 75.5494 34.559C75.1594 34.559 74.843 34.637 74.6004 34.793C74.3664 34.949 74.2017 35.1483 74.1064 35.391C74.0544 35.521 73.9634 35.586 73.8334 35.586H73.2484C73.153 35.586 73.0794 35.56 73.0274 35.508C72.984 35.4473 72.9624 35.378 72.9624 35.3C72.9624 35.17 73.01 35.0097 73.1054 34.819C73.2094 34.6283 73.3654 34.442 73.5734 34.26C73.7814 34.078 74.0457 33.9263 74.3664 33.805C74.6957 33.675 75.0944 33.61 75.5624 33.61C76.0824 33.61 76.52 33.6793 76.8754 33.818C77.2307 33.948 77.508 34.1257 77.7074 34.351C77.9154 34.5763 78.0627 34.832 78.1494 35.118C78.2447 35.404 78.2924 35.6943 78.2924 35.989V40.201C78.2924 40.2877 78.262 40.3613 78.2014 40.422C78.1494 40.474 78.08 40.5 77.9934 40.5H77.3954C77.3 40.5 77.2264 40.474 77.1744 40.422C77.1224 40.3613 77.0964 40.2877 77.0964 40.201V39.642C76.9837 39.798 76.832 39.954 76.6414 40.11C76.4507 40.2573 76.2124 40.383 75.9264 40.487C75.6404 40.5823 75.2894 40.63 74.8734 40.63ZM75.1464 39.655C75.5017 39.655 75.8267 39.5813 76.1214 39.434C76.416 39.278 76.6457 39.0397 76.8104 38.719C76.9837 38.3983 77.0704 37.9953 77.0704 37.51V37.146L75.5624 37.367C74.947 37.4537 74.4834 37.601 74.1714 37.809C73.8594 38.0083 73.7034 38.264 73.7034 38.576C73.7034 38.8187 73.7727 39.0223 73.9114 39.187C74.0587 39.343 74.2407 39.46 74.4574 39.538C74.6827 39.616 74.9124 39.655 75.1464 39.655ZM83.5022 40.63C82.9822 40.63 82.5489 40.539 82.2022 40.357C81.8556 40.1663 81.5782 39.9323 81.3702 39.655V40.201C81.3702 40.2877 81.3399 40.3613 81.2792 40.422C81.2272 40.474 81.1579 40.5 81.0712 40.5H80.4732C80.3866 40.5 80.3129 40.474 80.2522 40.422C80.2002 40.3613 80.1742 40.2877 80.1742 40.201V31.569C80.1742 31.4823 80.2002 31.413 80.2522 31.361C80.3129 31.3003 80.3866 31.27 80.4732 31.27H81.0972C81.1926 31.27 81.2662 31.3003 81.3182 31.361C81.3702 31.413 81.3962 31.4823 81.3962 31.569V34.559C81.6129 34.2903 81.8902 34.065 82.2282 33.883C82.5749 33.701 82.9996 33.61 83.5022 33.61C83.9876 33.61 84.3992 33.6967 84.7372 33.87C85.0839 34.0347 85.3656 34.2643 85.5822 34.559C85.8076 34.8537 85.9766 35.1873 86.0892 35.56C86.2019 35.9327 86.2626 36.3227 86.2712 36.73C86.2799 36.8687 86.2842 36.9987 86.2842 37.12C86.2842 37.2413 86.2799 37.3713 86.2712 37.51C86.2626 37.926 86.2019 38.3203 86.0892 38.693C85.9766 39.0657 85.8076 39.3993 85.5822 39.694C85.3656 39.98 85.0839 40.2097 84.7372 40.383C84.3992 40.5477 83.9876 40.63 83.5022 40.63ZM83.2292 39.577C83.6799 39.577 84.0309 39.4817 84.2822 39.291C84.5422 39.0917 84.7286 38.836 84.8412 38.524C84.9539 38.2033 85.0189 37.861 85.0362 37.497C85.0449 37.2457 85.0449 36.9943 85.0362 36.743C85.0189 36.379 84.9539 36.041 84.8412 35.729C84.7286 35.4083 84.5422 35.1527 84.2822 34.962C84.0309 34.7627 83.6799 34.663 83.2292 34.663C82.8219 34.663 82.4839 34.7583 82.2152 34.949C81.9466 35.1397 81.7429 35.3823 81.6042 35.677C81.4742 35.9717 81.4049 36.2707 81.3962 36.574C81.3876 36.7127 81.3832 36.8817 81.3832 37.081C81.3832 37.2717 81.3876 37.4363 81.3962 37.575C81.4136 37.8957 81.4829 38.212 81.6042 38.524C81.7342 38.8273 81.9292 39.0787 82.1892 39.278C82.4579 39.4773 82.8046 39.577 83.2292 39.577ZM88.2047 40.5C88.118 40.5 88.0443 40.474 87.9837 40.422C87.9317 40.3613 87.9057 40.2877 87.9057 40.201V31.569C87.9057 31.4823 87.9317 31.413 87.9837 31.361C88.0443 31.3003 88.118 31.27 88.2047 31.27H88.8157C88.911 31.27 88.9847 31.3003 89.0367 31.361C89.0887 31.413 89.1147 31.4823 89.1147 31.569V40.201C89.1147 40.2877 89.0887 40.3613 89.0367 40.422C88.9847 40.474 88.911 40.5 88.8157 40.5H88.2047ZM93.7448 40.63C92.8521 40.63 92.1415 40.357 91.6128 39.811C91.0841 39.2563 90.7938 38.5023 90.7418 37.549C90.7331 37.4363 90.7288 37.2933 90.7288 37.12C90.7288 36.938 90.7331 36.7907 90.7418 36.678C90.7765 36.0627 90.9195 35.5253 91.1708 35.066C91.4221 34.598 91.7645 34.2383 92.1978 33.987C92.6398 33.7357 93.1555 33.61 93.7448 33.61C94.4035 33.61 94.9538 33.7487 95.3958 34.026C95.8465 34.3033 96.1888 34.6977 96.4228 35.209C96.6568 35.7203 96.7738 36.3183 96.7738 37.003V37.224C96.7738 37.3193 96.7435 37.393 96.6828 37.445C96.6308 37.497 96.5615 37.523 96.4748 37.523H91.9768C91.9768 37.5317 91.9768 37.549 91.9768 37.575C91.9768 37.601 91.9768 37.6227 91.9768 37.64C91.9941 37.9953 92.0721 38.329 92.2108 38.641C92.3495 38.9443 92.5488 39.1913 92.8088 39.382C93.0688 39.5727 93.3808 39.668 93.7448 39.668C94.0568 39.668 94.3168 39.6203 94.5248 39.525C94.7328 39.4297 94.9018 39.3257 95.0318 39.213C95.1618 39.0917 95.2485 39.0007 95.2918 38.94C95.3698 38.8273 95.4305 38.7623 95.4738 38.745C95.5171 38.719 95.5865 38.706 95.6818 38.706H96.3058C96.3925 38.706 96.4618 38.732 96.5138 38.784C96.5745 38.8273 96.6005 38.8923 96.5918 38.979C96.5831 39.109 96.5138 39.2693 96.3838 39.46C96.2538 39.642 96.0675 39.824 95.8248 40.006C95.5821 40.188 95.2875 40.3397 94.9408 40.461C94.5941 40.5737 94.1955 40.63 93.7448 40.63ZM91.9768 36.626H95.5388V36.587C95.5388 36.197 95.4651 35.8503 95.3178 35.547C95.1791 35.2437 94.9755 35.0053 94.7068 34.832C94.4381 34.65 94.1175 34.559 93.7448 34.559C93.3721 34.559 93.0515 34.65 92.7828 34.832C92.5228 35.0053 92.3235 35.2437 92.1848 35.547C92.0461 35.8503 91.9768 36.197 91.9768 36.587V36.626ZM104.284 40.63C103.625 40.63 103.075 40.5043 102.633 40.253C102.191 40.0017 101.853 39.655 101.619 39.213C101.385 38.7623 101.255 38.251 101.229 37.679C101.22 37.5317 101.216 37.3453 101.216 37.12C101.216 36.886 101.22 36.6997 101.229 36.561C101.255 35.9803 101.385 35.469 101.619 35.027C101.861 34.585 102.204 34.2383 102.646 33.987C103.088 33.7357 103.634 33.61 104.284 33.61C104.934 33.61 105.48 33.7357 105.922 33.987C106.364 34.2383 106.702 34.585 106.936 35.027C107.178 35.469 107.313 35.9803 107.339 36.561C107.347 36.6997 107.352 36.886 107.352 37.12C107.352 37.3453 107.347 37.5317 107.339 37.679C107.313 38.251 107.183 38.7623 106.949 39.213C106.715 39.655 106.377 40.0017 105.935 40.253C105.493 40.5043 104.942 40.63 104.284 40.63ZM104.284 39.629C104.821 39.629 105.25 39.46 105.571 39.122C105.891 38.7753 106.065 38.2727 106.091 37.614C106.099 37.484 106.104 37.3193 106.104 37.12C106.104 36.9207 106.099 36.756 106.091 36.626C106.065 35.9673 105.891 35.469 105.571 35.131C105.25 34.7843 104.821 34.611 104.284 34.611C103.746 34.611 103.313 34.7843 102.984 35.131C102.663 35.469 102.494 35.9673 102.477 36.626C102.468 36.756 102.464 36.9207 102.464 37.12C102.464 37.3193 102.468 37.484 102.477 37.614C102.494 38.2727 102.663 38.7753 102.984 39.122C103.313 39.46 103.746 39.629 104.284 39.629ZM109.279 40.5C109.192 40.5 109.118 40.474 109.058 40.422C109.006 40.3613 108.98 40.2877 108.98 40.201V34.039C108.98 33.9523 109.006 33.883 109.058 33.831C109.118 33.7703 109.192 33.74 109.279 33.74H109.89C109.976 33.74 110.046 33.7703 110.098 33.831C110.158 33.883 110.189 33.9523 110.189 34.039V34.611C110.414 34.3163 110.696 34.078 111.034 33.896C111.38 33.7053 111.822 33.61 112.36 33.61C112.923 33.61 113.4 33.7357 113.79 33.987C114.188 34.2297 114.487 34.572 114.687 35.014C114.886 35.4473 114.986 35.9543 114.986 36.535V40.201C114.986 40.2877 114.96 40.3613 114.908 40.422C114.856 40.474 114.786 40.5 114.7 40.5H114.05C113.963 40.5 113.889 40.474 113.829 40.422C113.777 40.3613 113.751 40.2877 113.751 40.201V36.6C113.751 35.9933 113.603 35.521 113.309 35.183C113.014 34.8363 112.581 34.663 112.009 34.663C111.471 34.663 111.038 34.8363 110.709 35.183C110.388 35.521 110.228 35.9933 110.228 36.6V40.201C110.228 40.2877 110.197 40.3613 110.137 40.422C110.085 40.474 110.015 40.5 109.929 40.5H109.279ZM117.175 40.5C117.089 40.5 117.015 40.474 116.954 40.422C116.902 40.3613 116.876 40.2877 116.876 40.201V31.569C116.876 31.4823 116.902 31.413 116.954 31.361C117.015 31.3003 117.089 31.27 117.175 31.27H117.786C117.882 31.27 117.955 31.3003 118.007 31.361C118.059 31.413 118.085 31.4823 118.085 31.569V40.201C118.085 40.2877 118.059 40.3613 118.007 40.422C117.955 40.474 117.882 40.5 117.786 40.5H117.175ZM120.324 40.5C120.237 40.5 120.163 40.474 120.103 40.422C120.051 40.3613 120.025 40.2877 120.025 40.201V34.039C120.025 33.9523 120.051 33.883 120.103 33.831C120.163 33.7703 120.237 33.74 120.324 33.74H120.948C121.034 33.74 121.104 33.7703 121.156 33.831C121.208 33.883 121.234 33.9523 121.234 34.039V40.201C121.234 40.2877 121.208 40.3613 121.156 40.422C121.104 40.474 121.034 40.5 120.948 40.5H120.324ZM120.22 32.479C120.133 32.479 120.059 32.453 119.999 32.401C119.947 32.3403 119.92 32.2667 119.92 32.18V31.478C119.92 31.3913 119.947 31.322 119.999 31.27C120.059 31.2093 120.133 31.179 120.22 31.179H121.039C121.125 31.179 121.195 31.2093 121.247 31.27C121.307 31.322 121.338 31.3913 121.338 31.478V32.18C121.338 32.2667 121.307 32.3403 121.247 32.401C121.195 32.453 121.125 32.479 121.039 32.479H120.22ZM123.472 40.5C123.385 40.5 123.312 40.474 123.251 40.422C123.199 40.3613 123.173 40.2877 123.173 40.201V34.039C123.173 33.9523 123.199 33.883 123.251 33.831C123.312 33.7703 123.385 33.74 123.472 33.74H124.083C124.17 33.74 124.239 33.7703 124.291 33.831C124.352 33.883 124.382 33.9523 124.382 34.039V34.611C124.607 34.3163 124.889 34.078 125.227 33.896C125.574 33.7053 126.016 33.61 126.553 33.61C127.116 33.61 127.593 33.7357 127.983 33.987C128.382 34.2297 128.681 34.572 128.88 35.014C129.079 35.4473 129.179 35.9543 129.179 36.535V40.201C129.179 40.2877 129.153 40.3613 129.101 40.422C129.049 40.474 128.98 40.5 128.893 40.5H128.243C128.156 40.5 128.083 40.474 128.022 40.422C127.97 40.3613 127.944 40.2877 127.944 40.201V36.6C127.944 35.9933 127.797 35.521 127.502 35.183C127.207 34.8363 126.774 34.663 126.202 34.663C125.665 34.663 125.231 34.8363 124.902 35.183C124.581 35.521 124.421 35.9933 124.421 36.6V40.201C124.421 40.2877 124.391 40.3613 124.33 40.422C124.278 40.474 124.209 40.5 124.122 40.5H123.472ZM133.748 40.63C132.855 40.63 132.144 40.357 131.616 39.811C131.087 39.2563 130.797 38.5023 130.745 37.549C130.736 37.4363 130.732 37.2933 130.732 37.12C130.732 36.938 130.736 36.7907 130.745 36.678C130.779 36.0627 130.922 35.5253 131.174 35.066C131.425 34.598 131.767 34.2383 132.201 33.987C132.643 33.7357 133.158 33.61 133.748 33.61C134.406 33.61 134.957 33.7487 135.399 34.026C135.849 34.3033 136.192 34.6977 136.426 35.209C136.66 35.7203 136.777 36.3183 136.777 37.003V37.224C136.777 37.3193 136.746 37.393 136.686 37.445C136.634 37.497 136.564 37.523 136.478 37.523H131.98C131.98 37.5317 131.98 37.549 131.98 37.575C131.98 37.601 131.98 37.6227 131.98 37.64C131.997 37.9953 132.075 38.329 132.214 38.641C132.352 38.9443 132.552 39.1913 132.812 39.382C133.072 39.5727 133.384 39.668 133.748 39.668C134.06 39.668 134.32 39.6203 134.528 39.525C134.736 39.4297 134.905 39.3257 135.035 39.213C135.165 39.0917 135.251 39.0007 135.295 38.94C135.373 38.8273 135.433 38.7623 135.477 38.745C135.52 38.719 135.589 38.706 135.685 38.706H136.309C136.395 38.706 136.465 38.732 136.517 38.784C136.577 38.8273 136.603 38.8923 136.595 38.979C136.586 39.109 136.517 39.2693 136.387 39.46C136.257 39.642 136.07 39.824 135.828 40.006C135.585 40.188 135.29 40.3397 134.944 40.461C134.597 40.5737 134.198 40.63 133.748 40.63ZM131.98 36.626H135.542V36.587C135.542 36.197 135.468 35.8503 135.321 35.547C135.182 35.2437 134.978 35.0053 134.71 34.832C134.441 34.65 134.12 34.559 133.748 34.559C133.375 34.559 133.054 34.65 132.786 34.832C132.526 35.0053 132.326 35.2437 132.188 35.547C132.049 35.8503 131.98 36.197 131.98 36.587V36.626ZM141.83 42.97C141.743 42.97 141.669 42.9397 141.609 42.879C141.557 42.827 141.531 42.7577 141.531 42.671V34.039C141.531 33.9523 141.557 33.883 141.609 33.831C141.669 33.7703 141.743 33.74 141.83 33.74H142.428C142.514 33.74 142.584 33.7703 142.636 33.831C142.696 33.883 142.727 33.9523 142.727 34.039V34.611C142.935 34.325 143.212 34.0867 143.559 33.896C143.905 33.7053 144.339 33.61 144.859 33.61C145.344 33.61 145.756 33.6923 146.094 33.857C146.44 34.0217 146.722 34.247 146.939 34.533C147.164 34.819 147.333 35.144 147.446 35.508C147.558 35.872 147.619 36.262 147.628 36.678C147.636 36.8167 147.641 36.964 147.641 37.12C147.641 37.276 147.636 37.4233 147.628 37.562C147.619 37.9693 147.558 38.3593 147.446 38.732C147.333 39.096 147.164 39.421 146.939 39.707C146.722 39.9843 146.44 40.2097 146.094 40.383C145.756 40.5477 145.344 40.63 144.859 40.63C144.356 40.63 143.931 40.539 143.585 40.357C143.247 40.1663 142.969 39.9323 142.753 39.655V42.671C142.753 42.7577 142.727 42.827 142.675 42.879C142.623 42.9397 142.549 42.97 142.454 42.97H141.83ZM144.586 39.577C145.036 39.577 145.387 39.4817 145.639 39.291C145.899 39.0917 146.085 38.836 146.198 38.524C146.31 38.2033 146.375 37.861 146.393 37.497C146.401 37.2457 146.401 36.9943 146.393 36.743C146.375 36.379 146.31 36.041 146.198 35.729C146.085 35.4083 145.899 35.1527 145.639 34.962C145.387 34.7627 145.036 34.663 144.586 34.663C144.161 34.663 143.814 34.7627 143.546 34.962C143.286 35.1613 143.091 35.417 142.961 35.729C142.839 36.0323 142.77 36.3443 142.753 36.665C142.744 36.8037 142.74 36.9683 142.74 37.159C142.74 37.3497 142.744 37.5187 142.753 37.666C142.761 37.9693 142.831 38.2683 142.961 38.563C143.099 38.8577 143.303 39.1003 143.572 39.291C143.84 39.4817 144.178 39.577 144.586 39.577ZM149.574 40.5C149.487 40.5 149.413 40.474 149.353 40.422C149.301 40.3613 149.275 40.2877 149.275 40.201V31.569C149.275 31.4823 149.301 31.413 149.353 31.361C149.413 31.3003 149.487 31.27 149.574 31.27H150.224C150.319 31.27 150.393 31.3003 150.445 31.361C150.497 31.413 150.523 31.4823 150.523 31.569V34.598C150.757 34.3033 151.043 34.065 151.381 33.883C151.719 33.701 152.148 33.61 152.668 33.61C153.231 33.61 153.708 33.7357 154.098 33.987C154.496 34.2297 154.795 34.572 154.995 35.014C155.203 35.4473 155.307 35.9543 155.307 36.535V40.201C155.307 40.2877 155.281 40.3613 155.229 40.422C155.177 40.474 155.103 40.5 155.008 40.5H154.358C154.271 40.5 154.197 40.474 154.137 40.422C154.085 40.3613 154.059 40.2877 154.059 40.201V36.6C154.059 35.9933 153.911 35.521 153.617 35.183C153.322 34.8363 152.889 34.663 152.317 34.663C151.779 34.663 151.346 34.8363 151.017 35.183C150.687 35.521 150.523 35.9933 150.523 36.6V40.201C150.523 40.2877 150.497 40.3613 150.445 40.422C150.393 40.474 150.319 40.5 150.224 40.5H149.574ZM159.069 40.63C158.635 40.63 158.241 40.5433 157.886 40.37C157.53 40.1967 157.244 39.9627 157.028 39.668C156.811 39.3733 156.703 39.0397 156.703 38.667C156.703 38.069 156.945 37.5923 157.431 37.237C157.916 36.8817 158.549 36.6477 159.329 36.535L161.266 36.262V35.885C161.266 35.469 161.144 35.144 160.902 34.91C160.668 34.676 160.282 34.559 159.745 34.559C159.355 34.559 159.038 34.637 158.796 34.793C158.562 34.949 158.397 35.1483 158.302 35.391C158.25 35.521 158.159 35.586 158.029 35.586H157.444C157.348 35.586 157.275 35.56 157.223 35.508C157.179 35.4473 157.158 35.378 157.158 35.3C157.158 35.17 157.205 35.0097 157.301 34.819C157.405 34.6283 157.561 34.442 157.769 34.26C157.977 34.078 158.241 33.9263 158.562 33.805C158.891 33.675 159.29 33.61 159.758 33.61C160.278 33.61 160.715 33.6793 161.071 33.818C161.426 33.948 161.703 34.1257 161.903 34.351C162.111 34.5763 162.258 34.832 162.345 35.118C162.44 35.404 162.488 35.6943 162.488 35.989V40.201C162.488 40.2877 162.457 40.3613 162.397 40.422C162.345 40.474 162.275 40.5 162.189 40.5H161.591C161.495 40.5 161.422 40.474 161.37 40.422C161.318 40.3613 161.292 40.2877 161.292 40.201V39.642C161.179 39.798 161.027 39.954 160.837 40.11C160.646 40.2573 160.408 40.383 160.122 40.487C159.836 40.5823 159.485 40.63 159.069 40.63ZM159.342 39.655C159.697 39.655 160.022 39.5813 160.317 39.434C160.611 39.278 160.841 39.0397 161.006 38.719C161.179 38.3983 161.266 37.9953 161.266 37.51V37.146L159.758 37.367C159.142 37.4537 158.679 37.601 158.367 37.809C158.055 38.0083 157.899 38.264 157.899 38.576C157.899 38.8187 157.968 39.0223 158.107 39.187C158.254 39.343 158.436 39.46 158.653 39.538C158.878 39.616 159.108 39.655 159.342 39.655ZM164.656 40.5C164.569 40.5 164.495 40.474 164.435 40.422C164.383 40.3613 164.357 40.2877 164.357 40.201V34.052C164.357 33.9653 164.383 33.8917 164.435 33.831C164.495 33.7703 164.569 33.74 164.656 33.74H165.254C165.34 33.74 165.414 33.7703 165.475 33.831C165.535 33.8917 165.566 33.9653 165.566 34.052V34.624C165.739 34.3293 165.977 34.1083 166.281 33.961C166.584 33.8137 166.948 33.74 167.373 33.74H167.893C167.979 33.74 168.049 33.7703 168.101 33.831C168.153 33.883 168.179 33.9523 168.179 34.039V34.572C168.179 34.6587 168.153 34.728 168.101 34.78C168.049 34.832 167.979 34.858 167.893 34.858H167.113C166.645 34.858 166.276 34.9967 166.008 35.274C165.739 35.5427 165.605 35.911 165.605 36.379V40.201C165.605 40.2877 165.574 40.3613 165.514 40.422C165.453 40.474 165.379 40.5 165.293 40.5H164.656ZM169.594 40.5C169.507 40.5 169.434 40.474 169.373 40.422C169.321 40.3613 169.295 40.2877 169.295 40.201V34.039C169.295 33.9523 169.321 33.883 169.373 33.831C169.434 33.7703 169.507 33.74 169.594 33.74H170.179C170.266 33.74 170.335 33.7703 170.387 33.831C170.448 33.883 170.478 33.9523 170.478 34.039V34.494C170.677 34.2253 170.929 34.013 171.232 33.857C171.535 33.6923 171.899 33.61 172.324 33.61C173.303 33.6013 173.997 34 174.404 34.806C174.603 34.442 174.894 34.1517 175.275 33.935C175.656 33.7183 176.09 33.61 176.575 33.61C177.026 33.61 177.433 33.714 177.797 33.922C178.17 34.13 178.46 34.4463 178.668 34.871C178.885 35.287 178.993 35.8113 178.993 36.444V40.201C178.993 40.2877 178.963 40.3613 178.902 40.422C178.85 40.474 178.781 40.5 178.694 40.5H178.083C177.996 40.5 177.923 40.474 177.862 40.422C177.81 40.3613 177.784 40.2877 177.784 40.201V36.561C177.784 36.0757 177.715 35.6943 177.576 35.417C177.437 35.1397 177.251 34.9447 177.017 34.832C176.783 34.7193 176.527 34.663 176.25 34.663C176.025 34.663 175.795 34.7193 175.561 34.832C175.327 34.9447 175.132 35.1397 174.976 35.417C174.829 35.6943 174.755 36.0757 174.755 36.561V40.201C174.755 40.2877 174.725 40.3613 174.664 40.422C174.612 40.474 174.543 40.5 174.456 40.5H173.845C173.758 40.5 173.685 40.474 173.624 40.422C173.572 40.3613 173.546 40.2877 173.546 40.201V36.561C173.546 36.0757 173.472 35.6943 173.325 35.417C173.178 35.1397 172.987 34.9447 172.753 34.832C172.519 34.7193 172.272 34.663 172.012 34.663C171.787 34.663 171.557 34.7193 171.323 34.832C171.089 34.9447 170.894 35.1397 170.738 35.417C170.591 35.6943 170.517 36.0713 170.517 36.548V40.201C170.517 40.2877 170.487 40.3613 170.426 40.422C170.374 40.474 170.305 40.5 170.218 40.5H169.594ZM182.733 40.63C182.299 40.63 181.905 40.5433 181.55 40.37C181.194 40.1967 180.908 39.9627 180.692 39.668C180.475 39.3733 180.367 39.0397 180.367 38.667C180.367 38.069 180.609 37.5923 181.095 37.237C181.58 36.8817 182.213 36.6477 182.993 36.535L184.93 36.262V35.885C184.93 35.469 184.808 35.144 184.566 34.91C184.332 34.676 183.946 34.559 183.409 34.559C183.019 34.559 182.702 34.637 182.46 34.793C182.226 34.949 182.061 35.1483 181.966 35.391C181.914 35.521 181.823 35.586 181.693 35.586H181.108C181.012 35.586 180.939 35.56 180.887 35.508C180.843 35.4473 180.822 35.378 180.822 35.3C180.822 35.17 180.869 35.0097 180.965 34.819C181.069 34.6283 181.225 34.442 181.433 34.26C181.641 34.078 181.905 33.9263 182.226 33.805C182.555 33.675 182.954 33.61 183.422 33.61C183.942 33.61 184.379 33.6793 184.735 33.818C185.09 33.948 185.367 34.1257 185.567 34.351C185.775 34.5763 185.922 34.832 186.009 35.118C186.104 35.404 186.152 35.6943 186.152 35.989V40.201C186.152 40.2877 186.121 40.3613 186.061 40.422C186.009 40.474 185.939 40.5 185.853 40.5H185.255C185.159 40.5 185.086 40.474 185.034 40.422C184.982 40.3613 184.956 40.2877 184.956 40.201V39.642C184.843 39.798 184.691 39.954 184.501 40.11C184.31 40.2573 184.072 40.383 183.786 40.487C183.5 40.5823 183.149 40.63 182.733 40.63ZM183.006 39.655C183.361 39.655 183.686 39.5813 183.981 39.434C184.275 39.278 184.505 39.0397 184.67 38.719C184.843 38.3983 184.93 37.9953 184.93 37.51V37.146L183.422 37.367C182.806 37.4537 182.343 37.601 182.031 37.809C181.719 38.0083 181.563 38.264 181.563 38.576C181.563 38.8187 181.632 39.0223 181.771 39.187C181.918 39.343 182.1 39.46 182.317 39.538C182.542 39.616 182.772 39.655 183.006 39.655ZM190.751 40.63C190.135 40.63 189.602 40.513 189.152 40.279C188.71 40.0363 188.367 39.694 188.125 39.252C187.882 38.8013 187.752 38.264 187.735 37.64C187.726 37.51 187.722 37.3367 187.722 37.12C187.722 36.9033 187.726 36.73 187.735 36.6C187.752 35.976 187.882 35.443 188.125 35.001C188.367 34.5503 188.71 34.208 189.152 33.974C189.602 33.7313 190.135 33.61 190.751 33.61C191.253 33.61 191.682 33.6793 192.038 33.818C192.402 33.9567 192.701 34.1343 192.935 34.351C193.169 34.5677 193.342 34.8017 193.455 35.053C193.576 35.3043 193.641 35.5427 193.65 35.768C193.658 35.8547 193.632 35.924 193.572 35.976C193.511 36.028 193.437 36.054 193.351 36.054H192.727C192.64 36.054 192.575 36.0367 192.532 36.002C192.488 35.9587 192.445 35.8893 192.402 35.794C192.246 35.3693 192.033 35.0703 191.765 34.897C191.496 34.7237 191.162 34.637 190.764 34.637C190.244 34.637 189.819 34.7973 189.49 35.118C189.169 35.4387 188.996 35.9543 188.97 36.665C188.961 36.977 188.961 37.2803 188.97 37.575C188.996 38.2943 189.169 38.8143 189.49 39.135C189.819 39.447 190.244 39.603 190.764 39.603C191.162 39.603 191.496 39.5163 191.765 39.343C192.033 39.1697 192.246 38.8707 192.402 38.446C192.445 38.3507 192.488 38.2857 192.532 38.251C192.575 38.2077 192.64 38.186 192.727 38.186H193.351C193.437 38.186 193.511 38.212 193.572 38.264C193.632 38.316 193.658 38.3853 193.65 38.472C193.641 38.654 193.602 38.8403 193.533 39.031C193.463 39.2217 193.351 39.4167 193.195 39.616C193.047 39.8067 192.861 39.98 192.636 40.136C192.41 40.2833 192.137 40.4047 191.817 40.5C191.505 40.5867 191.149 40.63 190.751 40.63ZM196.186 42.97C196.117 42.97 196.056 42.944 196.004 42.892C195.952 42.84 195.926 42.7793 195.926 42.71C195.926 42.6753 195.93 42.6407 195.939 42.606C195.948 42.5713 195.965 42.528 195.991 42.476L196.992 40.097L194.509 34.234C194.466 34.13 194.444 34.0563 194.444 34.013C194.444 33.935 194.47 33.87 194.522 33.818C194.574 33.766 194.639 33.74 194.717 33.74H195.354C195.441 33.74 195.51 33.7617 195.562 33.805C195.614 33.8483 195.649 33.9003 195.666 33.961L197.642 38.693L199.67 33.961C199.696 33.9003 199.731 33.8483 199.774 33.805C199.826 33.7617 199.9 33.74 199.995 33.74H200.606C200.684 33.74 200.749 33.766 200.801 33.818C200.853 33.87 200.879 33.9307 200.879 34C200.879 34.0433 200.857 34.1213 200.814 34.234L197.122 42.749C197.096 42.8097 197.057 42.8617 197.005 42.905C196.962 42.9483 196.892 42.97 196.797 42.97H196.186Z" fill="#808080"/>
<defs>
<clipPath id="clip0_1_154">
<rect width="40" height="35" fill="white" transform="translate(0 6.5)"/>
</clipPath>
</defs>
</svg>
