<svg xmlns="http://www.w3.org/2000/svg" width="90" height="31" fill="none" viewBox="0 0 90 31">
  <path fill="#046CB2" fill-rule="evenodd" d="M8.414 11.9c1.486-1.023 3.054-1.418 4.363-1.227v-2.36H1.637v11.319H5.44l-.123-.246c-1.05-2.236.327-5.59 3.096-7.486Z" clip-rule="evenodd"/>
  <path fill="#2E2E2F" fill-rule="evenodd" d="M29.713 11.382c-.259-1.296-1.39-1.65-2.536-1.65-2.659 0-3.6 2.345-3.545 4.377.122 2.782.954 4.31 4.05 4.364.736 0 1.472-.123 2.154-.341V15.05h-2.454v-1.296h3.954v5.387c-1.24.382-2.482.627-3.709.627-1.527 0-2.768-.204-3.954-1.254-1.2-1.05-1.61-2.878-1.61-4.405 0-1.132.369-2.359.928-3.34.94-1.665 2.523-2.32 4.363-2.32 1.828 0 3.846.846 3.928 2.933h-1.569Zm8.428 3.668c.04-1.268-.532-2.236-1.91-2.236-1.185 0-1.88.995-1.88 2.236h3.79Zm-3.804.995c-.11 1.323.436 2.687 1.881 2.687 1.105 0 1.664-.437 1.828-1.527h1.5c-.219 1.718-1.541 2.577-3.328 2.577-2.413 0-3.368-1.718-3.368-3.955 0-2.209 1.105-4.063 3.491-4.063 2.236.04 3.3 1.472 3.3 3.572v.71h-5.304Zm10.036 2.687c1.69 0 2.25-1.35 2.25-2.973 0-1.609-.56-2.959-2.25-2.959-1.691 0-2.237 1.35-2.237 2.96 0 1.622.546 2.972 2.237 2.972Zm3.736-2.973c0 2.36-1.268 4.023-3.736 4.023-2.469 0-3.737-1.664-3.737-4.023 0-2.345 1.268-4.009 3.737-4.009 2.468.014 3.736 1.664 3.736 4.01Z" clip-rule="evenodd"/>
  <path fill="#2E2E2F" fill-rule="evenodd" d="M49.704 10.782h-3.313V8.668h9.681v2.114h-3.381v8.768h-2.987v-8.768Z" clip-rule="evenodd"/>
  <path fill="#2E2E2F" fill-rule="evenodd" d="M57.654 13.4h.028c.327-1.255 1.254-1.664 2.509-1.636v2.427c-.205-.014-.396-.014-.6-.014-1.486.014-1.991.9-1.95 2.36v3.027h-2.823v-5.632c0-.682-.014-1.118-.095-1.937h2.89l.041 1.405Zm8.96 5.318c-.641.75-1.391 1.05-2.346 1.05-1.623 0-2.809-1.05-2.809-2.727v-5.046h2.836v4.446c.028.736.205 1.527 1.091 1.527 1.405 0 1.228-1.555 1.228-1.636v-4.337h2.836v5.618c0 .682.013 1.132.082 1.95h-2.878l-.04-.845Zm8.781-4.391c0-.259-.04-.477-.177-.627-.136-.164-.382-.273-.777-.273-.423 0-.668.246-.668.682 0 .56 1.159.532 2.931 1.077.9.3 1.514.846 1.514 2.087 0 2.004-1.868 2.509-3.586 2.509-1.841 0-3.628-.382-3.628-2.687h2.687a.855.855 0 0 0 .19.682c.164.191.396.341.669.341.559 0 .954-.204.954-.695 0-1.337-4.445-.546-4.445-3.273 0-1.868 1.977-2.386 3.477-2.386 1.787 0 3.423.463 3.546 2.563h-2.687Zm5.019-2.332v-1.159l2.85-1.077v2.236h1.65v1.814h-1.65v3c0 .19-.11 1.173.545 1.173.382 0 .764 0 1.091-.041v1.704a7.8 7.8 0 0 1-1.527.15c-1.937 0-3.096-.272-2.946-2.59v-3.396h-1.472v-1.814h1.459Zm7.077.532V12.5a.146.146 0 0 0-.027-.082c-.014-.027-.041-.04-.082-.04h-.15v.3h.164c.027 0 .068-.014.081-.042 0-.027.014-.054.014-.109Zm-.027.778v-.191a.455.455 0 0 0-.041-.205c-.027-.055-.068-.068-.123-.068h-.068v.477h-.273V12.2h.437c.122 0 .204.014.259.068.054.041.095.11.095.177v.096a.205.205 0 0 1-.054.15c-.041.04-.069.068-.123.082a.38.38 0 0 1 .164.163c.027.069.04.137.04.205v.177h-.313v-.013Zm.654-.546a.827.827 0 0 0-.231-.573.703.703 0 0 0-.56-.259.703.703 0 0 0-.559.26.771.771 0 0 0-.231.572c0 .218.068.41.231.573.15.163.341.245.56.245a.733.733 0 0 0 .558-.245.827.827 0 0 0 .232-.573Zm.246 0a.96.96 0 0 1-.314.736.96.96 0 0 1-.723.314c-.286 0-.531-.11-.736-.314a.977.977 0 0 1-.3-.736c0-.3.096-.532.3-.736.205-.205.45-.3.736-.3.287 0 .532.095.723.3a.941.941 0 0 1 .314.736Z" clip-rule="evenodd"/>
  <path fill="#F37123" fill-rule="evenodd" d="M12.736 11.968c-2.932 0-5.318 2.4-5.318 5.36 0 .34.027.667.095.995.137.572.437.763.723.872.137.055.26.082.327.096.573.04 1.146-.096 1.705-.45.75-.464 1.31-1.241 1.61-2.114-.942.11-1.842.246-2.7.41l.013-1.678 5.972-.409-.04 5.673-1.8.136v-.014c.013-.054.013-.122.027-.177.068-.477.123-.968.177-1.459.027-.286.055-.559.068-.859-.218.3-.49.586-.777.845-.26.246-.56.478-.886.669a5.787 5.787 0 0 1-.573.34 6.21 6.21 0 0 1-1.241.464c-.34.082-.94.137-1.405.15a5.261 5.261 0 0 0 4.037 1.868c2.945 0 5.318-2.4 5.318-5.359s-2.386-5.359-5.332-5.359Z" clip-rule="evenodd"/>
</svg>
