<svg width="30" height="27" viewBox="0 0 30 27" fill="none" xmlns="http://www.w3.org/2000/svg">
<path d="M4.92276 25.5035V23.8534C4.92276 23.2316 4.5584 22.8138 3.97203 22.8084C3.80394 22.7967 3.63608 22.834 3.48876 22.9158C3.33658 23.0009 3.21058 23.1253 3.12331 23.2758C3.04364 23.1297 2.92606 23.0078 2.78294 22.9229C2.64455 22.8411 2.48536 22.8013 2.32476 22.8084C2.1847 22.8008 2.04536 22.833 1.92276 22.9011C1.79621 22.972 1.69094 23.0745 1.61622 23.1989V22.8744H1.09094V25.5035H1.62167V24.046C1.62167 23.5894 1.85458 23.3478 2.21294 23.3478C2.56203 23.3478 2.73876 23.5949 2.73876 24.0405V25.5035H3.26949V24.046C3.26949 23.5894 3.51221 23.3478 3.86076 23.3478C4.21967 23.3478 4.39149 23.5949 4.39149 24.0405V25.5035H4.92276ZM12.7773 22.8744H11.9182V22.0769H11.3875V22.8744H10.8971V23.3969H11.388V24.5958C11.388 25.2067 11.6051 25.5694 12.2269 25.5694C12.4615 25.5694 12.6906 25.4985 12.8837 25.366L12.732 24.8767C12.5932 24.9674 12.4324 25.0186 12.2668 25.0251C12.0044 25.0251 11.9182 24.8489 11.9182 24.5849V23.3969H12.7773V22.8744ZM17.2609 22.8089C17.132 22.805 17.0047 22.8385 16.8944 22.9055C16.7801 22.9754 16.6868 23.0749 16.6244 23.1935V22.8744H16.104V25.5035H16.6293V24.0291C16.6293 23.5949 16.8011 23.3527 17.1453 23.3527C17.2582 23.3516 17.37 23.374 17.4737 23.4187L17.6357 22.8798C17.5162 22.8334 17.3891 22.8093 17.2609 22.8089ZM10.4826 23.0833C10.1902 22.8922 9.84597 22.7962 9.49694 22.8084C8.88549 22.8084 8.49112 23.1275 8.49112 23.65C8.49112 24.0787 8.78458 24.3427 9.32512 24.4251L9.57276 24.4638C9.86076 24.5074 9.99767 24.5904 9.99767 24.7387C9.99767 24.9427 9.80567 25.0578 9.44676 25.0578C9.15444 25.0657 8.86905 24.9681 8.64276 24.7829L8.39512 25.2285C8.69436 25.4589 9.06378 25.5793 9.44131 25.5694C10.1395 25.5694 10.5431 25.2122 10.5431 24.7115C10.5431 24.2495 10.2251 24.0073 9.69931 23.9249L9.45167 23.8867C9.22421 23.8535 9.04258 23.8038 9.04258 23.6276C9.04258 23.4351 9.21385 23.32 9.50185 23.32C9.76912 23.3249 10.0293 23.4029 10.2551 23.5453L10.4826 23.0833ZM24.5651 22.8084C24.4361 22.8046 24.3088 22.8383 24.1986 22.9055C24.0843 22.9754 23.991 23.0749 23.9286 23.1935V22.8744H23.4082V25.5035H23.9335V24.0291C23.9335 23.5949 24.1053 23.3527 24.4495 23.3527C24.5619 23.3511 24.6731 23.3734 24.7778 23.4187L24.9393 22.8798C24.82 22.8334 24.6931 22.8094 24.5651 22.8089V22.8084ZM17.7928 24.1889C17.7928 24.9864 18.3028 25.5694 19.0817 25.5694C19.2401 25.5771 19.3985 25.5534 19.5477 25.4995C19.697 25.4457 19.8341 25.3629 19.9511 25.2558L19.698 24.7938C19.5209 24.9429 19.2979 25.0265 19.0664 25.0305C18.6464 25.0251 18.3388 24.6951 18.3388 24.1889C18.3388 23.6827 18.6469 23.3527 19.0664 23.3473C19.2982 23.3516 19.5213 23.4345 19.698 23.584L19.9511 23.122C19.8341 23.0149 19.697 22.932 19.5478 22.8782C19.3986 22.8243 19.2401 22.8006 19.0817 22.8084C18.3028 22.8084 17.7928 23.3915 17.7928 24.1889ZM22.716 24.1889V22.8744H22.1902V23.1935C22.1029 23.0697 21.9869 22.969 21.852 22.9C21.7205 22.8332 21.5739 22.8016 21.4266 22.8084C20.7497 22.8084 20.2189 23.386 20.2189 24.1889C20.2189 24.9918 20.7497 25.5694 21.4271 25.5694C21.5744 25.576 21.7206 25.5444 21.8515 25.4778C21.9868 25.4091 22.1029 25.3087 22.1902 25.1844V25.5035H22.716V24.1889ZM20.7595 24.1889C20.7595 23.7269 21.0377 23.3473 21.4926 23.3473C21.9273 23.3473 22.2208 23.7105 22.2208 24.1889C22.2208 24.6673 21.9273 25.0305 21.4926 25.0305C21.0377 25.0305 20.7595 24.6509 20.7595 24.1889ZM14.4159 22.8084C13.7084 22.8084 13.2126 23.3696 13.2126 24.1889C13.2126 25.0251 13.7286 25.5694 14.4513 25.5694C14.817 25.5811 15.1727 25.4487 15.4419 25.2007L15.1844 24.7774C14.9902 24.9496 14.7413 25.0472 14.4818 25.0529C14.1431 25.0529 13.8344 24.8822 13.7591 24.4093H15.5537C15.558 24.3373 15.5635 24.2658 15.5635 24.1889C15.558 23.3696 15.0933 22.8084 14.4159 22.8084ZM14.406 23.32C14.7442 23.32 14.9624 23.5507 15.0175 23.9582H13.764C13.8197 23.5785 14.0313 23.32 14.406 23.32ZM27.594 24.1889V21.8184H27.0682V23.1929C26.9809 23.0693 26.8648 22.9688 26.73 22.9C26.5985 22.8332 26.4519 22.8016 26.3046 22.8084C25.6277 22.8084 25.0969 23.386 25.0969 24.1889C25.0969 24.9918 25.6277 25.5694 26.3051 25.5694C26.4524 25.576 26.5986 25.5444 26.7295 25.4778C26.8648 25.4091 26.9804 25.3087 27.0682 25.1844V25.5035H27.594V24.1889ZM28.2082 25.2613C28.2291 25.2609 28.2497 25.2652 28.2688 25.2738C28.3069 25.2913 28.3369 25.3229 28.3522 25.3627C28.3686 25.4047 28.3686 25.4505 28.3522 25.4925C28.337 25.5319 28.3071 25.5638 28.2688 25.5814C28.2451 25.5923 28.2191 25.5967 28.1932 25.5942C28.1673 25.5917 28.1426 25.5824 28.1215 25.5673C28.0952 25.5485 28.0749 25.5226 28.0631 25.4925C28.0468 25.4508 28.0468 25.4044 28.0631 25.3627C28.0782 25.3233 28.1082 25.2914 28.1466 25.2738C28.166 25.2653 28.187 25.261 28.2082 25.2613ZM28.2082 25.5574C28.2246 25.5574 28.2398 25.5542 28.2546 25.5476C28.2688 25.5409 28.2816 25.5314 28.2922 25.5198C28.3148 25.4945 28.327 25.4616 28.3266 25.4276C28.3269 25.3939 28.3147 25.3612 28.2922 25.336C28.2809 25.3232 28.2668 25.3131 28.251 25.3066C28.2352 25.3 28.2181 25.2971 28.2011 25.2981C28.184 25.2991 28.1674 25.304 28.1524 25.3123C28.1375 25.3207 28.1247 25.3323 28.1149 25.3464C28.1028 25.3635 28.0945 25.383 28.0908 25.4037C28.087 25.4243 28.0878 25.4455 28.0931 25.4658C28.0986 25.486 28.1095 25.504 28.1226 25.5198C28.1335 25.5313 28.1466 25.5411 28.1608 25.5476C28.1757 25.5544 28.1919 25.5577 28.2082 25.5574ZM28.2175 25.3496C28.2326 25.3488 28.2475 25.3534 28.2595 25.3627C28.2645 25.3674 28.2684 25.373 28.2709 25.3794C28.2735 25.3857 28.2746 25.3925 28.2742 25.3993C28.2747 25.4109 28.2706 25.4223 28.2628 25.4309C28.2536 25.4398 28.2416 25.4452 28.2289 25.4462L28.2753 25.5045H28.2393L28.1957 25.4467H28.182V25.5045H28.1515V25.3496H28.2175ZM28.182 25.3785V25.42H28.2169C28.2237 25.4202 28.2304 25.4183 28.236 25.4145C28.2384 25.4127 28.2404 25.4103 28.2416 25.4075C28.2428 25.4048 28.2434 25.4017 28.2431 25.3987C28.2431 25.396 28.2431 25.3933 28.2415 25.39C28.2401 25.3876 28.2383 25.3856 28.236 25.384C28.2304 25.3802 28.2237 25.3783 28.2169 25.3785H28.182ZM25.638 24.1889C25.638 23.7269 25.9157 23.3473 26.3706 23.3473C26.8053 23.3473 27.0988 23.7105 27.0988 24.1889C27.0988 24.6673 26.8053 25.0305 26.3706 25.0305C25.9157 25.0305 25.638 24.6509 25.638 24.1889ZM7.88512 24.1889V22.8744H7.35931V23.1935C7.27204 23.0697 7.15598 22.9689 7.02112 22.9C6.88977 22.8333 6.74339 22.8017 6.59621 22.8084C5.91876 22.8084 5.38803 23.386 5.38803 24.1889C5.38803 24.9918 5.91876 25.5694 6.59621 25.5694C6.74349 25.576 6.88967 25.5444 7.02058 25.4778C7.15585 25.4091 7.27149 25.3087 7.35931 25.1844V25.5035H7.88512V24.1889ZM5.92912 24.1889C5.92912 23.7269 6.20676 23.3473 6.66222 23.3473C7.0964 23.3473 7.38985 23.7105 7.38985 24.1889C7.38985 24.6673 7.0964 25.0305 6.66222 25.0305C6.20676 25.0305 5.92912 24.6509 5.92912 24.1889Z" fill="black"/>
<path d="M19.0036 2.44629H10.9254V17.1736H19.0036V2.44629Z" fill="#FF5F00"/>
<path d="M11.2511 9.80991C11.2492 8.40867 11.5612 7.0248 12.1642 5.75991C12.7631 4.50188 13.6394 3.39598 14.7273 2.52536C13.3908 1.45383 11.7767 0.785194 10.074 0.597728C8.37382 0.412273 6.65618 0.717728 5.124 1.47591C3.58172 2.24128 2.28639 3.42584 1.38655 4.89373C0.478947 6.37244 -0.00100279 8.07379 1.5731e-06 9.80882C1.5731e-06 11.5483 0.480002 13.2506 1.38655 14.7239C2.28641 16.1918 3.58174 17.3763 5.124 18.1417C6.65646 18.9006 8.37401 19.2053 10.074 19.0199C11.7767 18.8326 13.3907 18.1642 14.7273 17.0928C13.6395 16.2222 12.7632 15.1163 12.1642 13.8583C11.5613 12.5937 11.2494 11.2102 11.2511 9.80936V9.80991Z" fill="#EB001B"/>
<path d="M29.454 9.80991C29.4551 11.5447 28.9753 13.2458 28.068 14.7245C27.1681 16.1922 25.8728 17.3766 24.3306 18.1417C22.7981 18.9006 21.0806 19.2054 19.3806 19.0199C17.6779 18.8326 16.0638 18.1642 14.7273 17.0928C15.8141 16.2216 16.6897 15.1158 17.2887 13.8583C17.8917 12.5937 18.2044 11.2103 18.204 9.80937C18.204 8.40646 17.8909 7.02209 17.2887 5.761C16.6898 4.50347 15.8141 3.3977 14.7273 2.52646C16.0639 1.45463 17.6782 0.785798 19.3811 0.598274C21.0809 0.412834 22.7983 0.71755 24.3306 1.47646C25.8729 2.24195 27.1683 3.42671 28.068 4.89482C28.9755 6.37337 29.4555 8.07452 29.4546 9.80937L29.454 9.80991ZM28.7308 15.7472V15.3534H28.8775V15.2732H28.5044V15.3534H28.6506V15.7472H28.7308ZM29.4546 15.7472V15.2726H29.34L29.2091 15.5988L29.0771 15.2726H28.9626V15.7472H29.0444V15.3894L29.1666 15.6981H29.2506L29.3744 15.3877V15.7472H29.4546Z" fill="#F79E1B"/>
</svg>
