<svg width="47" height="21" viewBox="0 0 47 21" fill="none" xmlns="http://www.w3.org/2000/svg">
<g clip-path="url(#clip0_107_8811)">
<path d="M18.699 11.0557L16.3453 17.1679L16.0927 15.924C15.5041 14.4008 14.2303 12.8033 12.7493 12.1506L14.9091 20.0028H17.4648L21.2611 11.0435H18.6985V11.0563L18.699 11.0557ZM20.8124 20.0028L22.3624 11.0435H24.8438L23.2938 20.0028H20.8124ZM32.0113 11.4285C31.3267 11.171 30.6009 11.0407 29.8696 11.044C27.5041 11.044 25.8441 12.2809 25.8313 14.0488C25.8185 15.3621 27.017 16.0879 27.9212 16.5238C28.8569 16.9724 29.1646 17.256 29.1646 17.6539C29.1581 18.266 28.4211 18.5437 27.7348 18.5437C26.7798 18.5437 26.2735 18.4048 25.4847 18.0705L25.177 17.9252L24.8438 19.9644C25.4013 20.217 26.4337 20.4381 27.5105 20.4504C30.0175 20.4504 31.6518 19.2257 31.671 17.3383C31.6839 16.2968 31.043 15.5138 29.6645 14.8633C28.8313 14.4403 28.3186 14.1625 28.325 13.7331C28.325 13.3539 28.7544 12.9502 29.6965 12.9502C30.3117 12.935 30.9226 13.0558 31.4857 13.3037L31.6967 13.4111L32.0113 11.4285ZM38.1544 11.0435H36.324C35.7579 11.0435 35.3322 11.1989 35.078 11.7885L31.5632 20.0028H34.0483C34.0483 20.0028 34.4553 18.8973 34.5503 18.6553C34.8238 18.6553 37.2389 18.6617 37.5824 18.6617C37.6587 18.9715 37.8686 20.0023 37.8686 20.0023H40.0744L38.1544 11.0435ZM35.2308 16.8175C35.4278 16.3021 36.1713 14.3094 36.1713 14.3094C36.1585 14.334 36.3684 13.794 36.4891 13.4527L36.6482 14.2224L37.201 16.8116C36.8325 16.8175 35.6954 16.8175 35.2308 16.8175Z" fill="#11559C"/>
<path d="M14.7067 11.0435H10.5371L10.5093 11.2005C13.7491 11.9535 15.8929 13.793 16.7806 15.971L15.879 11.8035C15.7263 11.232 15.2686 11.0627 14.7067 11.0435Z" fill="#F2A724"/>
<path d="M3.50788 8.35614H1.98038L0.206665 0.570162L1.90187 0.292969L3.11426 6.38427L6.19596 0.375219H7.8212L3.50788 8.35614ZM11.2987 6.40938H7.82868C7.73094 7.58224 8.22017 8.09337 9.05281 8.09337C9.74446 8.09337 10.356 7.80709 11.0113 7.3435L11.0049 8.51583C10.3624 8.96607 9.61574 9.25234 8.74037 9.25234C7.22889 9.25234 6.23121 8.29098 6.53137 6.1231C6.80055 4.16673 8.01828 2.98105 9.42614 2.98105C11.0476 2.98105 11.5865 4.33764 11.3542 6.04833C11.3414 6.17117 11.3051 6.32072 11.2987 6.40938ZM9.2547 4.01665C8.71633 4.01665 8.21429 4.48718 7.98196 5.47579H10.1295C10.1669 4.54166 9.90308 4.01665 9.2547 4.01665ZM13.7298 5.3412L13.2374 8.35614H11.8536L12.7129 3.09428H13.8943V4.1491C14.3622 3.54078 14.9999 3.02858 15.8785 2.98105L15.8849 4.27996C15.0004 4.33978 14.2169 4.77506 13.7298 5.3412ZM15.8849 8.35614L16.7539 2.80693H18.1527L17.2901 8.35614H15.8849ZM17.61 1.87708C17.1432 1.87708 16.8174 1.55663 16.8943 1.09731C16.9707 0.626241 17.3926 0.292969 17.8589 0.292969C18.3123 0.292969 18.6381 0.626242 18.5612 1.09784C18.4913 1.55663 18.0704 1.87708 17.61 1.87708ZM22.0099 1.46797C21.5196 1.46797 21.2253 1.68321 21.1468 2.19914L21.0164 3.04728H22.114V4.21587H20.8333L20.1277 8.80371H18.7033L19.4088 4.20946H18.5724L18.7556 3.04087H19.592L19.7421 2.04906C19.9381 0.769378 20.8263 0.292969 22.0093 0.292969C22.2577 0.292969 22.4473 0.319673 22.5915 0.338901L22.6043 1.50696C22.4601 1.49414 22.2518 1.46797 22.0099 1.46797ZM22.1562 8.35614L23.0252 2.80693H24.4239L23.5614 8.35614H22.1562ZM23.8872 1.87708C23.4209 1.87708 23.0951 1.55663 23.1656 1.09731C23.242 0.626241 23.6634 0.292969 24.1302 0.292969C24.5836 0.292969 24.9094 0.626242 24.8325 1.09784C24.7626 1.55663 24.3412 1.87708 23.8872 1.87708ZM29.6644 6.40938H26.1945C26.1026 7.58224 26.586 8.09337 27.4186 8.09337C28.1102 8.09337 28.7218 7.80709 29.3771 7.3435L29.3707 8.51583C28.7282 8.96607 27.9821 9.25234 27.1062 9.25234C25.5947 9.25234 24.597 8.29098 24.8972 6.1231C25.1663 4.16673 26.3841 2.98105 27.7919 2.98105C29.4134 2.98105 29.9523 4.33764 29.72 6.04833C29.7072 6.17117 29.6709 6.32072 29.6644 6.40938ZM27.6205 4.01665C27.0821 4.01665 26.5801 4.48718 26.3477 5.47579H28.4959C28.5322 4.54166 28.2694 4.01665 27.6205 4.01665ZM34.3698 8.68995L34.3762 7.9075C33.8923 8.38445 33.2653 8.80424 32.4674 8.80424C31.2582 8.80424 30.4282 7.9326 30.7289 6.03765C31.0622 3.94401 32.3894 3.01576 33.7289 3.01576C34.2779 3.01576 34.7095 3.11083 35.0363 3.22566L35.4679 0.515685L36.9382 0.292969L35.6116 8.68941H34.3698V8.68995ZM34.8531 4.37716C34.5199 4.21159 34.2587 4.13522 33.7684 4.13522C33.0169 4.13522 32.3691 4.72699 32.18 5.96074C32.0102 7.05509 32.4022 7.56355 33.0362 7.56355C33.5596 7.56355 34.0168 7.25858 34.4745 6.79446L34.8531 4.37716ZM39.457 9.25234C38.9026 9.25654 38.3522 9.15691 37.8344 8.95859L38.7098 2.70599L39.7427 2.53295L39.3657 5.23918C39.6701 4.94597 40.0894 4.64634 40.5994 4.64634C41.4566 4.64634 42.034 5.346 41.8214 6.84573C41.5907 8.48539 40.6667 9.25234 39.457 9.25234ZM40.2047 5.61946C39.8704 5.61946 39.5302 5.86567 39.2327 6.19895L38.9464 8.21888C39.1472 8.29899 39.2808 8.33905 39.5665 8.33905C40.2047 8.33905 40.6544 7.91177 40.7944 6.89914C40.9161 6.04566 40.6544 5.61946 40.2047 5.61946ZM44.5442 9.13965C44.016 10.2522 43.4942 10.5961 42.6925 10.5961C42.5125 10.5961 42.4132 10.5758 42.3197 10.5486L42.3139 9.6246C42.4442 9.6652 42.5873 9.69243 42.786 9.69243C43.084 9.69243 43.3511 9.54396 43.5252 9.21389L43.6619 8.91693L42.786 4.4733L43.8857 4.32482L44.3952 7.53471L45.7678 4.38517H46.7933L44.5442 9.13965Z" fill="#11559C"/>
</g>
<defs>
<clipPath id="clip0_107_8811">
<rect width="47" height="20.2955" fill="white"/>
</clipPath>
</defs>
</svg>
