<svg width="42" height="42" viewBox="0 0 42 42" fill="none" xmlns="http://www.w3.org/2000/svg">
<g clip-path="url(#clip0_45_5146)">
<path d="M31.932 31.1251V37.9298C31.932 38.3877 32.2781 38.7707 32.7333 38.8199C34.7671 39.0397 36.6506 39.3498 38.3264 39.7338C38.8865 39.8621 39.4197 39.4355 39.4197 38.8608V33.0867C39.4197 32.6717 39.1345 32.3126 38.7311 32.2153C36.7423 31.7358 34.4419 31.3625 31.932 31.1251Z" fill="#2A464D"/>
<path d="M38.7311 32.2153C38.1374 32.0721 37.5154 31.9387 36.869 31.8153V39.4296C37.3697 39.5252 37.857 39.6263 38.3265 39.7339C38.8866 39.8622 39.4197 39.4355 39.4197 38.8609V33.0867C39.4196 32.6716 39.1344 32.3125 38.7311 32.2153Z" fill="#2A464D"/>
<path d="M10.0682 31.1251V37.9298C10.0682 38.3877 9.72212 38.7707 9.26693 38.8199C7.23313 39.0397 5.34961 39.3498 3.6738 39.7338C3.11369 39.8621 2.58057 39.4355 2.58057 38.8608V33.0867C2.58057 32.6717 2.86571 32.3126 3.26914 32.2153C5.25782 31.7358 7.5583 31.3625 10.0682 31.1251Z" fill="#2A464D"/>
<path d="M7.20844 31.4671V39.0813C7.87535 38.984 8.56138 38.8961 9.26693 38.8199C9.7222 38.7707 10.0682 38.3877 10.0682 37.9298V31.1251C9.08014 31.2186 8.12522 31.3334 7.20844 31.4671Z" fill="#2A464D"/>
<path d="M7.11605 34.993C7.11605 35.5681 7.64991 35.9941 8.21051 35.8657C11.7336 35.0585 16.174 34.5769 21 34.5769C25.826 34.5769 30.2665 35.0584 33.7896 35.8657C34.3502 35.9941 34.884 35.5682 34.884 34.993V29.2189C34.884 28.8043 34.5996 28.4449 34.1966 28.3477C30.6114 27.483 26.0138 26.9634 21 26.9634C15.9863 26.9634 11.3886 27.483 7.80339 28.3477C7.40037 28.4449 7.11597 28.8043 7.11597 29.2189L7.11605 34.993Z" fill="#2A464D"/>
<path d="M34.1967 28.3477C33.4821 28.1754 32.7267 28.017 31.9363 27.8734V35.487C32.5782 35.6035 33.1972 35.7299 33.7896 35.8656C34.3502 35.9941 34.8841 35.5682 34.8841 34.993V29.2189C34.8841 28.8043 34.5996 28.4449 34.1967 28.3477Z" fill="#2A464D"/>
<path d="M8.15826 21.2404L6.92903 22.8772C6.87267 22.9522 6.84297 23.0438 6.84445 23.1376L6.87661 25.1847C6.88227 25.5364 6.53675 25.7877 6.2042 25.6736L4.26736 25.0102C4.1786 24.9797 4.08229 24.9797 3.99354 25.0102L2.0567 25.6736C1.72357 25.7876 1.37863 25.5363 1.38371 25.1847L1.41644 23.1377C1.41792 23.0438 1.38814 22.9522 1.33179 22.8771L0.101893 21.2404C-0.109256 20.9587 0.0228144 20.5527 0.359389 20.4493L2.31575 19.8476C2.40541 19.8201 2.48334 19.7634 2.53732 19.6867L3.7143 18.0114C3.917 17.7234 4.34381 17.7234 4.54594 18.0114L5.72292 19.6867C5.77681 19.7635 5.85483 19.8201 5.94449 19.8476L7.90134 20.4493C8.23783 20.5526 8.36941 20.9586 8.15826 21.2404Z" fill="#FDDD45"/>
<path d="M8.15827 21.2403L6.92904 22.8772C6.87268 22.9521 6.84298 23.0438 6.84446 23.1375L6.87662 25.1846C6.88228 25.5364 6.53676 25.7876 6.20421 25.6735L4.26737 25.0101C4.17861 24.9797 4.0823 24.9797 3.99355 25.0101L2.05671 25.6735C1.72358 25.7875 1.37864 25.5363 1.38372 25.1846L1.40234 24.0007C4.9255 23.8121 6.50977 21.5085 7.12632 20.2111L7.90152 20.4494C8.23784 20.5526 8.36942 20.9585 8.15827 21.2403Z" fill="#F8C52D"/>
<path d="M14.5014 5.68823L13.2722 7.32508C13.2158 7.40006 13.1861 7.49169 13.1876 7.58545L13.2197 9.63254C13.2254 9.98429 12.8799 10.2356 12.5473 10.1214L10.6105 9.45806C10.5217 9.42762 10.4254 9.42762 10.3367 9.45806L8.39984 10.1214C8.06671 10.2355 7.72176 9.98421 7.72685 9.63254L7.75958 7.58553C7.76106 7.49169 7.73128 7.40006 7.67492 7.325L6.44528 5.68823C6.23413 5.40645 6.3662 5.00056 6.70277 4.8972L8.65914 4.2955C8.7488 4.26794 8.82673 4.21126 8.8807 4.13456L10.0577 2.45923C10.2604 2.1713 10.6872 2.1713 10.8893 2.45923L12.0663 4.13456C12.1202 4.21134 12.1982 4.26794 12.2879 4.2955L14.2447 4.8972C14.581 5.00056 14.7126 5.40653 14.5014 5.68823Z" fill="#FDDD45"/>
<path d="M14.5014 5.68818L13.2722 7.32503C13.2158 7.40001 13.1861 7.49164 13.1876 7.5854L13.2198 9.63249C13.2254 9.98424 12.8799 10.2355 12.5473 10.1214L10.6105 9.45801C10.5217 9.42758 10.4254 9.42758 10.3367 9.45801L8.39985 10.1214C8.06672 10.2354 7.72178 9.98416 7.72686 9.63249L7.74548 8.44853C11.2686 8.25994 12.8529 5.95634 13.4695 4.65894L14.2447 4.89724C14.581 5.00051 14.7126 5.40649 14.5014 5.68818Z" fill="#F8C52D"/>
<path d="M41.8979 21.2404L40.6687 22.8772C40.6124 22.9522 40.5827 23.0438 40.5841 23.1376L40.6163 25.1847C40.6219 25.5364 40.2764 25.7877 39.9439 25.6736L38.007 25.0102C37.9183 24.9797 37.822 24.9797 37.7332 25.0102L35.7964 25.6736C35.4633 25.7876 35.1183 25.5363 35.1234 25.1847L35.1561 23.1377C35.1576 23.0438 35.1278 22.9522 35.0715 22.8771L33.8418 21.2404C33.6307 20.9587 33.7627 20.5527 34.0993 20.4493L36.0557 19.8476C36.1453 19.8201 36.2233 19.7634 36.2772 19.6867L37.4542 18.0114C37.6569 17.7234 38.0837 17.7234 38.2859 18.0114L39.4629 19.6867C39.5168 19.7635 39.5948 19.8201 39.6844 19.8476L41.6413 20.4493C41.9776 20.5526 42.1091 20.9586 41.8979 21.2404Z" fill="#FDDD45"/>
<path d="M41.898 21.2403L40.6687 22.8772C40.6124 22.9521 40.5827 23.0438 40.5841 23.1375L40.6163 25.1846C40.622 25.5364 40.2764 25.7876 39.9439 25.6735L38.0071 25.0101C37.9183 24.9797 37.822 24.9797 37.7332 25.0101L35.7964 25.6735C35.4633 25.7875 35.1183 25.5363 35.1234 25.1846L35.142 24.0007C38.6652 23.8121 40.2495 21.5085 40.866 20.2111L41.6412 20.4494C41.9776 20.5526 42.1091 20.9585 41.898 21.2403Z" fill="#F8C52D"/>
<path d="M35.5548 5.68823L34.3256 7.32508C34.2692 7.40006 34.2395 7.49169 34.241 7.58545L34.2732 9.63254C34.2788 9.98429 33.9333 10.2356 33.6007 10.1214L31.6639 9.45806C31.5751 9.42762 31.4788 9.42762 31.3901 9.45806L29.4532 10.1214C29.1201 10.2355 28.7752 9.98421 28.7803 9.63254L28.813 7.58553C28.8145 7.49169 28.7847 7.40006 28.7283 7.325L27.4987 5.68823C27.2875 5.40645 27.4196 5.00056 27.7562 4.8972L29.7125 4.2955C29.8022 4.26794 29.8801 4.21126 29.9341 4.13456L31.1111 2.45923C31.3138 2.1713 31.7406 2.1713 31.9427 2.45923L33.1197 4.13456C33.1736 4.21134 33.2516 4.26794 33.3413 4.2955L35.2981 4.8972C35.6345 5.00056 35.766 5.40653 35.5548 5.68823Z" fill="#FDDD45"/>
<path d="M35.5548 5.68818L34.3256 7.32503C34.2692 7.40001 34.2395 7.49164 34.241 7.5854L34.2732 9.63249C34.2788 9.98424 33.9333 10.2355 33.6008 10.1214L31.6639 9.45801C31.5752 9.42758 31.4788 9.42758 31.3901 9.45801L29.4533 10.1214C29.1201 10.2354 28.7752 9.98416 28.7803 9.63249L28.7989 8.44853C32.322 8.25994 33.9063 5.95634 34.5229 4.65894L35.2981 4.89724C35.6345 5.00051 35.766 5.40649 35.5548 5.68818Z" fill="#F8C52D"/>
<path d="M33.085 17.1899L29.2716 22.2672C29.2153 22.3422 29.1855 22.4338 29.187 22.5276L29.2869 28.8769C29.3053 29.9975 28.205 30.7967 27.1443 30.4339L21.137 28.3769C21.0482 28.3465 20.9519 28.3465 20.8633 28.3769L14.8559 30.434C13.7951 30.7967 12.6948 29.9976 12.7124 28.877L12.8132 22.5276C12.8147 22.4338 12.7849 22.3422 12.7285 22.2672L8.91516 17.1899C8.24209 16.293 8.66193 15.0003 9.73367 14.6707L15.8032 12.8036C15.8928 12.776 15.9707 12.7194 16.0246 12.6427L19.676 7.44742C20.3205 6.52941 21.6796 6.52941 22.3241 7.44742L25.9754 12.6427C26.0293 12.7194 26.1073 12.776 26.1969 12.8036L32.2663 14.6707C33.3382 15.0003 33.758 16.293 33.085 17.1899Z" fill="#FFB753"/>
<path d="M29.287 31.1234C29.3049 32.2447 28.2051 33.0432 27.1446 32.681L21 30.5771L14.8554 32.681C13.7949 33.0432 12.6951 32.2447 12.712 31.1234L12.7701 27.46C15.2925 27.1408 18.0761 26.9637 20.9999 26.9637C23.9237 26.9637 26.7064 27.1408 29.2288 27.46L29.287 31.1234Z" fill="#2A464D"/>
<path d="M33.085 17.1899L29.2716 22.2672C29.2152 22.3422 29.1855 22.4338 29.1869 22.5276L29.2869 28.877C29.3052 29.9975 28.205 30.7967 27.1443 30.4339L21.137 28.3769C21.0482 28.3466 20.9519 28.3466 20.8632 28.3769L14.8558 30.434C13.7951 30.7967 12.6948 29.9976 12.7124 28.8771L12.7363 27.3716C24.1058 25.3082 28.4195 17.9183 29.9416 13.9553L32.2665 14.6707C33.3381 15.0003 33.758 16.293 33.085 17.1899Z" fill="#F7A358"/>
<path d="M25.9477 21.475L26.0197 26.0439C26.0243 26.3365 25.7373 26.5451 25.4604 26.4502L21.1369 24.9701C21.0482 24.9397 20.9519 24.9397 20.8632 24.9701L16.5397 26.4502C16.2628 26.5451 15.9757 26.3365 15.9803 26.0439L16.0524 21.4751C16.0538 21.3814 16.0241 21.2897 15.9678 21.2148L13.2235 17.5602C13.0477 17.3261 13.1575 16.9886 13.4372 16.9026L17.8057 15.5594C17.8954 15.5318 17.9733 15.4752 18.0273 15.3984L20.6543 11.6593C20.8226 11.4197 21.1775 11.4197 21.3458 11.6593L23.9728 15.3984C24.0267 15.4752 24.1047 15.5318 24.1944 15.5594L28.5621 16.9026C28.8418 16.9887 28.9515 17.3261 28.7758 17.5602L26.0323 21.2148C25.976 21.2897 25.9462 21.3813 25.9477 21.475Z" fill="#FEE265"/>
<path d="M25.9477 21.4751L26.0198 26.0439C26.0243 26.3365 25.7373 26.5451 25.4604 26.4503L21.1369 24.9701C21.0483 24.9398 20.9519 24.9398 20.8632 24.9701L16.5397 26.4504C16.2628 26.5452 15.9757 26.3366 15.9803 26.044L16.016 23.777C22.0809 22.9971 24.9638 18.9651 26.2483 16.1909L28.5621 16.9027C28.8418 16.9888 28.9515 17.3262 28.7758 17.5603L26.0322 21.2149C25.976 21.2898 25.9463 21.3814 25.9477 21.4751Z" fill="#F8C52D"/>
</g>
<defs>
<clipPath id="clip0_45_5146">
<rect width="42" height="42" fill="white"/>
</clipPath>
</defs>
</svg>
