<svg width="22" height="22" viewBox="0 0 22 22" fill="none" xmlns="http://www.w3.org/2000/svg">
<g clip-path="url(#clip0_45_5218)">
<path d="M17.0326 1.96225L11.2897 0.047337C11.1017 -0.0152907 10.8984 -0.0152907 10.7104 0.047337L4.96746 1.96225C4.05437 2.26556 3.26009 2.84891 2.69747 3.62941C2.13484 4.4099 1.83249 5.34786 1.83338 6.31V11.0006C1.83338 17.9333 10.2667 21.7623 10.6279 21.9218C10.745 21.9738 10.8718 22.0007 11 22.0007C11.1283 22.0007 11.255 21.9738 11.3722 21.9218C11.7334 21.7623 20.1667 17.9333 20.1667 11.0006V6.31C20.1676 5.34786 19.8652 4.4099 19.3026 3.62941C18.74 2.84891 17.9457 2.26556 17.0326 1.96225ZM15.3249 8.90784L11.4089 12.8238C11.2486 12.9852 11.0579 13.113 10.8479 13.2001C10.6378 13.2871 10.4125 13.3315 10.1851 13.3308H10.1549C9.92286 13.3272 9.69397 13.2766 9.48206 13.1821C9.27014 13.0876 9.0796 12.951 8.92196 12.7808L6.80813 10.5808C6.71658 10.4958 6.64335 10.3931 6.59294 10.2788C6.54253 10.1646 6.51599 10.0412 6.51496 9.91635C6.51393 9.79147 6.53842 9.6677 6.58694 9.55264C6.63545 9.43757 6.70697 9.33362 6.7971 9.24718C6.88723 9.16075 6.99407 9.09363 7.11106 9.04997C7.22806 9.0063 7.35274 8.987 7.47747 8.99325C7.60219 8.9995 7.72432 9.03117 7.83636 9.08631C7.94841 9.14145 8.04801 9.21891 8.12904 9.31392L10.186 11.4589L14.025 7.60892C14.1979 7.44194 14.4295 7.34955 14.6698 7.35164C14.9102 7.35373 15.1401 7.45013 15.31 7.62009C15.48 7.79005 15.5764 8.01996 15.5785 8.2603C15.5806 8.50065 15.4882 8.7322 15.3212 8.90509L15.3249 8.90784Z" fill="#2A464D"/>
</g>
<defs>
<clipPath id="clip0_45_5218">
<rect width="22" height="22" fill="white"/>
</clipPath>
</defs>
</svg>
