<svg width="18" height="19" viewBox="0 0 18 19" fill="none" xmlns="http://www.w3.org/2000/svg">
<path d="M7.61577 3.81594C8.12904 2.5864 9.87096 2.5864 10.3842 3.81594L11.1719 5.70275C11.377 6.19413 11.8273 6.53994 12.3549 6.61135L14.5751 6.91185C15.8755 7.08785 16.339 8.73082 15.3223 9.56046L13.6665 10.9117C13.2235 11.2731 13.0246 11.855 13.1535 12.412L13.6792 14.6837C13.9893 16.0241 12.4822 17.04 11.3561 16.2497L9.86172 15.2009C9.34457 14.8379 8.65543 14.8379 8.13828 15.2009L6.64384 16.2497C5.51777 17.0401 4.01059 16.0241 4.32073 14.6838L4.84642 12.412C4.97531 11.855 4.77635 11.2731 4.33341 10.9117L2.6776 9.56045C1.66095 8.73081 2.12444 7.08785 3.42479 6.91186L5.64508 6.61135C6.17274 6.53994 6.623 6.19413 6.82813 5.70275L7.61577 3.81594Z" fill="#FFBE00"/>
</svg>
