<svg xmlns="http://www.w3.org/2000/svg" width="196" height="200" fill="none" viewBox="0 0 196 200">
  <g clip-path="url(#a)">
    <path fill="#2E2E2E" fill-rule="evenodd" d="M36.67 4.058a.5.5 0 0 1 .5-.5h2.084a.5.5 0 1 1 0 1H37.17a.5.5 0 0 1-.5-.5Zm6.252 0a.5.5 0 0 1 .5-.5h4.168a.5.5 0 0 1 0 1h-4.168a.5.5 0 0 1-.5-.5Zm8.336 0a.5.5 0 0 1 .5-.5h4.168a.5.5 0 0 1 0 1h-4.168a.5.5 0 0 1-.5-.5Zm8.336 0a.5.5 0 0 1 .5-.5h4.168a.5.5 0 0 1 0 1h-4.168a.5.5 0 0 1-.5-.5Zm8.336 0a.5.5 0 0 1 .5-.5h4.168a.5.5 0 0 1 0 1H68.43a.5.5 0 0 1-.5-.5Zm8.336 0a.5.5 0 0 1 .5-.5h4.168a.5.5 0 1 1 0 1h-4.168a.5.5 0 0 1-.5-.5Zm8.336 0a.5.5 0 0 1 .5-.5h4.168a.5.5 0 0 1 0 1h-4.168a.5.5 0 0 1-.5-.5Zm8.336 0a.5.5 0 0 1 .5-.5h4.168a.5.5 0 1 1 0 1h-4.168a.5.5 0 0 1-.5-.5Zm8.336 0a.5.5 0 0 1 .5-.5h4.167a.5.5 0 1 1 0 1h-4.167a.5.5 0 0 1-.5-.5Zm8.335 0a.5.5 0 0 1 .5-.5h2.084a.5.5 0 1 1 0 1h-2.084a.5.5 0 0 1-.5-.5ZM33.605 10.47a.5.5 0 0 1 .5.5v2.018a.5.5 0 0 1-1 0V10.97a.5.5 0 0 1 .5-.5Zm0 6.051a.5.5 0 0 1 .5.5v4.034a.5.5 0 0 1-1 0V17.02a.5.5 0 0 1 .5-.5Zm0 8.067a.5.5 0 0 1 .5.5v4.034a.5.5 0 0 1-1 0v-4.034a.5.5 0 0 1 .5-.5Zm0 8.068a.5.5 0 0 1 .5.5v4.033a.5.5 0 0 1-1 0v-4.033a.5.5 0 0 1 .5-.5Zm0 8.067a.5.5 0 0 1 .5.5v4.034a.5.5 0 0 1-1 0v-4.034a.5.5 0 0 1 .5-.5Zm0 8.067a.5.5 0 0 1 .5.5v4.034a.5.5 0 0 1-1 0V49.29a.5.5 0 0 1 .5-.5Zm0 8.067a.5.5 0 0 1 .5.5v4.034a.5.5 0 0 1-1 0v-4.034a.5.5 0 0 1 .5-.5Zm0 8.067a.5.5 0 0 1 .5.5v4.034a.5.5 0 0 1-1 0v-4.034a.5.5 0 0 1 .5-.5Zm0 8.068a.5.5 0 0 1 .5.5v4.033a.5.5 0 1 1-1 0v-4.033a.5.5 0 0 1 .5-.5Zm0 8.067a.5.5 0 0 1 .5.5v4.034a.5.5 0 1 1-1 0v-4.034a.5.5 0 0 1 .5-.5Zm0 8.067a.5.5 0 0 1 .5.5v4.034a.5.5 0 1 1-1 0v-4.034a.5.5 0 0 1 .5-.5Zm0 8.067a.5.5 0 0 1 .5.5v4.034a.5.5 0 0 1-1 0v-4.034a.5.5 0 0 1 .5-.5Zm0 8.068a.5.5 0 0 1 .5.5v4.033a.5.5 0 0 1-1 0v-4.033a.5.5 0 0 1 .5-.5Zm0 8.067a.5.5 0 0 1 .5.5v4.033a.5.5 0 0 1-1 0v-4.033a.5.5 0 0 1 .5-.5Zm0 8.067a.5.5 0 0 1 .5.5v4.034a.5.5 0 0 1-1 0v-4.034a.5.5 0 0 1 .5-.5Zm0 8.067a.5.5 0 0 1 .5.5v4.034a.5.5 0 0 1-1 0v-4.034a.5.5 0 0 1 .5-.5Zm0 8.067a.5.5 0 0 1 .5.5v4.034a.5.5 0 0 1-1 0v-4.034a.5.5 0 0 1 .5-.5Zm0 8.068a.5.5 0 0 1 .5.5v4.033a.5.5 0 0 1-1 0v-4.033a.5.5 0 0 1 .5-.5Zm0 8.067a.5.5 0 0 1 .5.5v4.033a.5.5 0 0 1-1 0v-4.033a.5.5 0 0 1 .5-.5Zm0 8.067a.5.5 0 0 1 .5.5v4.034a.5.5 0 0 1-1 0v-4.034a.5.5 0 0 1 .5-.5Zm0 8.067a.5.5 0 0 1 .5.5v4.034a.5.5 0 0 1-1 0v-4.034a.5.5 0 0 1 .5-.5Zm0 8.067a.5.5 0 0 1 .5.5v2.017a.5.5 0 0 1-1 0v-2.017a.5.5 0 0 1 .5-.5Zm6.208 5.974a.5.5 0 0 1 .5-.5h1.958a.5.5 0 1 1 0 1h-1.959a.5.5 0 0 1-.5-.5Zm5.875 0a.5.5 0 0 1 .5-.5h3.918a.5.5 0 1 1 0 1h-3.918a.5.5 0 0 1-.5-.5Zm7.835 0a.5.5 0 0 1 .5-.5h3.917a.5.5 0 1 1 0 1h-3.917a.5.5 0 0 1-.5-.5Zm7.834 0a.5.5 0 0 1 .5-.5h3.918a.5.5 0 1 1 0 1h-3.918a.5.5 0 0 1-.5-.5Zm7.835 0a.5.5 0 0 1 .5-.5h3.917a.5.5 0 1 1 0 1h-3.917a.5.5 0 0 1-.5-.5Zm7.834 0a.5.5 0 0 1 .5-.5h3.918a.5.5 0 1 1 0 1h-3.918a.5.5 0 0 1-.5-.5Zm7.835 0a.5.5 0 0 1 .5-.5h3.917a.5.5 0 1 1 0 1h-3.917a.5.5 0 0 1-.5-.5Zm7.834 0a.5.5 0 0 1 .5-.5h3.918a.5.5 0 1 1 0 1h-3.918a.5.5 0 0 1-.5-.5Zm7.835 0a.5.5 0 0 1 .5-.5h3.917a.5.5 0 1 1 0 1h-3.917a.5.5 0 0 1-.5-.5Zm7.834 0a.5.5 0 0 1 .5-.5h3.918a.5.5 0 1 1 0 1h-3.918a.5.5 0 0 1-.5-.5Zm7.835 0a.5.5 0 0 1 .5-.5h3.917a.5.5 0 1 1 0 1h-3.917a.5.5 0 0 1-.5-.5Zm7.834 0a.5.5 0 0 1 .5-.5h3.918a.5.5 0 1 1 0 1h-3.918a.5.5 0 0 1-.5-.5Zm7.835 0a.5.5 0 0 1 .5-.5h3.917a.5.5 0 1 1 0 1h-3.917a.5.5 0 0 1-.5-.5Zm7.834 0a.5.5 0 0 1 .5-.5h3.918a.5.5 0 1 1 0 1h-3.918a.5.5 0 0 1-.5-.5Zm7.835 0a.5.5 0 0 1 .5-.5h3.917a.5.5 0 1 1 0 1h-3.917a.5.5 0 0 1-.5-.5Zm7.834 0a.5.5 0 0 1 .5-.5h1.959a.5.5 0 1 1 0 1h-1.959a.5.5 0 0 1-.5-.5Zm-33.99-177.74a.5.5 0 0 1 .707 0l1.4 1.403a.5.5 0 1 1-.708.707l-1.4-1.403a.5.5 0 0 1 .001-.707Zm4.224 4.232a.501.501 0 0 1 .708 0l2.814 2.818a.5.5 0 1 1-.708.706l-2.814-2.817a.5.5 0 0 1 0-.707Zm5.633 5.638a.501.501 0 0 1 .708 0l2.82 2.822a.5.5 0 0 1-.708.707l-2.82-2.822a.5.5 0 0 1 0-.707Zm5.641 5.643a.5.5 0 0 1 .707 0l2.82 2.82a.5.5 0 1 1-.707.707l-2.82-2.82a.5.5 0 0 1 0-.707Zm5.64 5.64a.501.501 0 0 1 .708.001l2.82 2.82a.5.5 0 0 1-.708.707l-2.82-2.82a.5.5 0 0 1 0-.707Zm5.641 5.642a.5.5 0 0 1 .707 0l2.821 2.821a.5.5 0 0 1-.707.707l-2.821-2.821a.499.499 0 0 1 0-.707Zm5.642 5.643a.5.5 0 0 1 .707 0l2.814 2.816a.5.5 0 0 1-.707.707l-2.814-2.816a.499.499 0 0 1 0-.707Zm5.633 5.637a.5.5 0 0 1 .707.001l1.405 1.408.146.146v2.256a.5.5 0 0 1-1 0v-1.842l-1.258-1.261a.5.5 0 0 1 0-.708Zm1.758 7.408a.5.5 0 0 1 .5.5v4.097a.5.5 0 0 1-1 0v-4.097a.5.5 0 0 1 .5-.5Zm0 8.194a.5.5 0 0 1 .5.5v4.097a.5.5 0 0 1-1 0v-4.097a.5.5 0 0 1 .5-.5Zm0 8.194a.5.5 0 0 1 .5.5v4.097a.5.5 0 0 1-1 0V68.47a.5.5 0 0 1 .5-.5Zm0 8.194a.5.5 0 0 1 .5.5v4.098a.5.5 0 0 1-1 0v-4.098a.5.5 0 0 1 .5-.5Zm0 8.195a.5.5 0 0 1 .5.5v4.097a.5.5 0 0 1-1 0v-4.097a.5.5 0 0 1 .5-.5Zm0 8.194a.5.5 0 0 1 .5.5v4.097a.5.5 0 0 1-1 0v-4.097a.5.5 0 0 1 .5-.5Zm0 8.194a.5.5 0 0 1 .5.5v4.097a.5.5 0 0 1-1 0v-4.097a.5.5 0 0 1 .5-.5Zm0 8.194a.5.5 0 0 1 .5.5v4.097a.5.5 0 1 1-1 0v-4.097a.5.5 0 0 1 .5-.5Zm0 8.195a.5.5 0 0 1 .5.5v4.097a.5.5 0 0 1-1 0v-4.097a.5.5 0 0 1 .5-.5Zm0 8.194a.5.5 0 0 1 .5.5v4.097a.5.5 0 0 1-1 0v-4.097a.5.5 0 0 1 .5-.5Zm0 8.194a.5.5 0 0 1 .5.5v4.097a.5.5 0 0 1-1 0v-4.097a.5.5 0 0 1 .5-.5Zm0 8.194a.5.5 0 0 1 .5.5v4.097a.5.5 0 1 1-1 0v-4.097a.5.5 0 0 1 .5-.5Zm0 8.195a.5.5 0 0 1 .5.5v4.097a.5.5 0 0 1-1 0v-4.097a.5.5 0 0 1 .5-.5Zm0 8.194a.5.5 0 0 1 .5.5v4.097a.5.5 0 0 1-1 0v-4.097a.5.5 0 0 1 .5-.5Zm0 8.194a.5.5 0 0 1 .5.5v4.097a.5.5 0 0 1-1 0v-4.097a.5.5 0 0 1 .5-.5Zm0 8.194a.5.5 0 0 1 .5.5v2.049a.5.5 0 0 1-1 0v-2.049a.5.5 0 0 1 .5-.5ZM119.336 10.53a.5.5 0 0 1 .5.5v1.963a.5.5 0 0 1-1 0V11.03a.5.5 0 0 1 .5-.5Zm0 5.89a.5.5 0 0 1 .5.5v3.927a.5.5 0 0 1-1 0V16.92a.5.5 0 0 1 .5-.5Zm0 7.854a.5.5 0 0 1 .5.5V28.7a.5.5 0 0 1-1 0v-3.927a.5.5 0 0 1 .5-.5Zm0 7.853a.5.5 0 0 1 .5.5v3.927a.5.5 0 0 1-1 0v-3.927a.5.5 0 0 1 .5-.5Zm0 7.854a.5.5 0 0 1 .5.5v1.963a.5.5 0 0 1-1 0v-1.963a.5.5 0 0 1 .5-.5Zm6.465 5.955a.5.5 0 0 1 .5-.5h1.957a.5.5 0 0 1 0 1h-1.957a.5.5 0 0 1-.5-.5Zm5.872 0a.5.5 0 0 1 .5-.5h3.915a.5.5 0 0 1 0 1h-3.915a.5.5 0 0 1-.5-.5Zm7.829 0a.5.5 0 0 1 .5-.5h3.915a.5.5 0 0 1 0 1h-3.915a.5.5 0 0 1-.5-.5Zm7.83 0a.5.5 0 0 1 .5-.5h3.914a.5.5 0 1 1 0 1h-3.914a.5.5 0 0 1-.5-.5Zm7.829 0a.5.5 0 0 1 .5-.5h1.957a.5.5 0 1 1 0 1h-1.957a.5.5 0 0 1-.5-.5Z" clip-rule="evenodd" opacity=".5"/>
    <path fill="#E6E6E6" d="M192.571 193.465c.309-.429.596-.874.859-1.333l.2-.331c.303-.574.575-1.164.811-1.769l.094-.283a13.63 13.63 0 0 0 .495-1.628c0-.118.058-.224.082-.342.292-1.296.414-2.625.365-3.952a1.514 1.514 0 0 0 0-.213 15.897 15.897 0 0 0-.706-4.034 15.519 15.519 0 0 0-3.8-6.288l-42.447-42.562c-3.659-3.669-7.694-3.539-11.577-1.38l-7.823-7.845a11.91 11.91 0 0 0-2.283-6.995 11.843 11.843 0 0 0-1.176-1.392l-2.812-2.737.565-.849.729-1.109c.341-.531.671-1.05.988-1.581l.683-1.18c.317-.554.612-1.108.917-1.663l.6-1.097c.318-.625.624-1.262.93-1.899.153-.307.306-.602.447-.909.423-.92.823-1.852 1.176-2.784.153-.365.283-.743.436-1.18.223-.577.447-1.179.658-1.757l.459-1.357.494-1.545c0-.177.118-.342.165-.519.047-.177.165-.637.259-.956.094-.318.271-.979.388-1.462.071-.248.141-.484.2-.732.059-.247.118-.542.177-.814.106-.472.211-.932.306-1.403.094-.472.223-1.074.317-1.617.094-.542.153-.884.224-1.333.07-.448.153-.802.2-1.18v-.483c0-.401.106-.802.153-1.18.07-.613.141-1.18.2-1.84v-.472c.07-.786.129-1.6.176-2.442v-6.464c0-.484-.07-.968-.106-1.451l-.07-.909c0-.684-.118-1.38-.2-2.076l-.106-.86c0-.378-.083-.768-.141-1.18-.059-.413-.106-.65-.165-.98-.059-.33-.082-.507-.13-.767a68.16 68.16 0 0 0-.4-2.205c0-.177-.082-.343-.117-.52a56.012 56.012 0 0 0-.412-1.899 66.27 66.27 0 0 0-3.8-11.16l-.141-.33a48.657 48.657 0 0 0-1.071-2.253 6.046 6.046 0 0 0-.235-.483 30.254 30.254 0 0 0-1.176-2.171l-.048-.401a63.804 63.804 0 0 0-1.258-2.159l-.236-.366a64.373 64.373 0 0 0-1.435-2.241 67.853 67.853 0 0 0-8.235-9.956 42.774 42.774 0 0 0-2.518-2.36l-.247-.2a76.155 76.155 0 0 0-2.353-2.041 2.036 2.036 0 0 1-.188-.142 79.409 79.409 0 0 0-2.506-1.934l-.282-.2a58.317 58.317 0 0 0-2.483-1.735l-.106-.07A67.07 67.07 0 0 0 62.922 4.676a67.118 67.118 0 0 0-39.655 16.662 67.436 67.436 0 0 0-21.47 37.353 67.559 67.559 0 0 0 5.503 42.76c0 .142.13.271.188.401.565 1.18 1.177 2.265 1.789 3.374l.2.366a67.762 67.762 0 0 0 4.54 6.853c.213.295.436.578.66.873a175.1 175.1 0 0 0 1.94 2.36l.765.884.789.885a66.92 66.92 0 0 0 2.012 2.124 67.433 67.433 0 0 0 10.588 8.635A66.841 66.841 0 0 0 61.359 139c8.58.8 17.234-.053 25.494-2.513a59.049 59.049 0 0 0 3.094-1.003 63.133 63.133 0 0 0 6.07-2.465c.989-.46 1.977-.956 2.954-1.463a65.97 65.97 0 0 0 5.729-3.397c.471-.307.93-.649 1.4-.98l2.8 2.808c.318.317.656.612 1.012.885a11.744 11.744 0 0 0 7.353 2.571l5.741 5.769 2.071 2.064a11.828 11.828 0 0 0-1.33 3.457v.2c-.056.309-.095.62-.117.932v.295a6.324 6.324 0 0 0 0 .826v.354c0 .118.07.519.129.767.059.247 0 .259.082.389.063.249.141.493.236.731l.141.401c.11.236.227.472.353.708.07.13.129.26.211.401.083.142.33.496.506.743.177.248.153.225.247.343.294.371.608.725.942 1.061l42.447 42.563a15.564 15.564 0 0 0 4.706 3.22l.8.33c2.25.85 4.665 1.169 7.058.932 3.6-.337 6.97-1.922 9.53-4.482.46-.478.892-.983 1.294-1.51.059-.142.153-.284.259-.472ZM27.747 31.851a56.423 56.423 0 0 1 28.915-15.474 56.328 56.328 0 0 1 32.616 3.235 56.507 56.507 0 0 1 25.331 20.856 56.737 56.737 0 0 1 9.511 31.45c0 11.196-3.31 22.14-9.511 31.45a56.507 56.507 0 0 1-25.33 20.856 56.332 56.332 0 0 1-32.617 3.236 56.429 56.429 0 0 1-28.915-15.475 56.628 56.628 0 0 1-12.262-18.38 56.757 56.757 0 0 1 0-43.374 56.634 56.634 0 0 1 12.262-18.38Z" style="mix-blend-mode:multiply"/>
    <path fill="#485F66" d="m126.558 114.504-11.863 11.895 16.854 16.9 11.863-11.895-16.854-16.9Z"/>
    <path fill="#2E2E2E" d="m134.874 122.839-11.862 11.895 8.543 8.567 11.863-11.895-8.544-8.567Z" opacity=".3" style="mix-blend-mode:multiply"/>
    <path fill="#90A6AD" d="m125.664 108.694-6.435-6.453a27.276 27.276 0 0 1-6.629 10.217 27.19 27.19 0 0 1-10.407 6.299l6.706 6.724a11.839 11.839 0 0 0 16.54-.226 11.908 11.908 0 0 0 3.472-8.246 11.908 11.908 0 0 0-3.247-8.338v.023Z"/>
    <path fill="#54A8C2" d="m125.664 108.694-6.435-6.453a27.276 27.276 0 0 1-6.629 10.217 27.19 27.19 0 0 1-10.407 6.299l6.706 6.724c.315.323.653.623 1.012.896a67.127 67.127 0 0 1 16.929-16.314c-.357-.486-.75-.943-1.176-1.369Z" opacity=".3" style="mix-blend-mode:multiply"/>
    <path fill="#54A8C2" d="M190.959 190.976a15.64 15.64 0 0 1-11.03 4.555 15.636 15.636 0 0 1-11.029-4.555l-42.447-42.563c-5.283-5.308-2.706-11.395 2.588-16.692l2.823-2.831c5.283-5.309 11.353-7.892 16.647-2.595l42.448 42.562a15.724 15.724 0 0 1 4.543 11.059c0 4.143-1.633 8.119-4.543 11.06Z"/>
    <path fill="#54A8C2" d="m167.488 182.694-43.459-43.565a8.619 8.619 0 0 0-.234 5.002 8.595 8.595 0 0 0 2.587 4.282l42.447 42.563a15.548 15.548 0 0 0 19.188 2.351 15.613 15.613 0 0 0 6.5-7.924 15.662 15.662 0 0 0 .195-10.259c-3.33 10.405-17.13 17.672-27.224 7.55ZM115.242 19.736A67.142 67.142 0 0 0 92.889 4.907c21.517 10.783 36.588 33.172 36.588 58.582 0 35.638-29.659 65.389-65.212 65.389-27.988 0-52.353-18.509-61.411-43.812a67.457 67.457 0 0 0 14.466 26.917 67.22 67.22 0 0 0 24.838 17.737 67.056 67.056 0 0 0 59.262-4.029 67.288 67.288 0 0 0 22.225-20.936 67.516 67.516 0 0 0 10.711-28.628 67.579 67.579 0 0 0-3.008-30.428 67.428 67.428 0 0 0-16.106-25.963Z" opacity=".3" style="mix-blend-mode:multiply"/>
    <path fill="#54A8C2" d="M115.242 19.736A67.155 67.155 0 0 0 80.828 1.294a67.043 67.043 0 0 0-38.832 3.837 67.252 67.252 0 0 0-30.162 24.822A67.525 67.525 0 0 0 .508 67.394a67.523 67.523 0 0 0 11.326 37.441 67.249 67.249 0 0 0 30.162 24.822 67.041 67.041 0 0 0 38.832 3.837 67.153 67.153 0 0 0 34.414-18.442 67.496 67.496 0 0 0 19.684-47.658 67.498 67.498 0 0 0-19.684-47.658Zm-7.565 87.731a56.417 56.417 0 0 1-28.915 15.47 56.325 56.325 0 0 1-32.614-3.239A56.5 56.5 0 0 1 20.82 98.843a56.732 56.732 0 0 1-9.51-31.449 56.733 56.733 0 0 1 9.51-31.448A56.504 56.504 0 0 1 46.148 15.09a56.328 56.328 0 0 1 32.614-3.239 56.421 56.421 0 0 1 28.915 15.47 56.634 56.634 0 0 1 12.266 18.382 56.756 56.756 0 0 1 0 43.382 56.63 56.63 0 0 1-12.266 18.382Z"/>
    <path fill="#54A8C2" d="M123.429 29.704a67.51 67.51 0 0 1 7.8 31.426c0 37.443-31.153 68.692-68.494 68.692a67.932 67.932 0 0 1-44.588-16.893 68.84 68.84 0 0 0 2.011 2.124 67.125 67.125 0 0 0 44.308 19.676 67.092 67.092 0 0 0 45.988-15.314 67.439 67.439 0 0 0 23.764-42.346 67.534 67.534 0 0 0-10.813-47.365h.024Z" opacity=".3" style="mix-blend-mode:multiply"/>
    <path fill="#fff" d="M16.547 79.12c0-32.57 24.705-60.163 56.14-64.728a52.97 52.97 0 0 0-25.213 3.786 53.102 53.102 0 0 0-20.546 15.135 53.298 53.298 0 0 0-11.142 22.993 53.38 53.38 0 0 0 .831 25.55 53.183 53.183 0 0 1-.07-2.736Z" opacity=".3" style="mix-blend-mode:screen"/>
    <path fill="#29ABE2" d="M117.959 48.366c-1.176 31.474-27.612 57.355-59.235 57.355a58.89 58.89 0 0 1-39.812-15.76 53.787 53.787 0 0 0 29.315 27.565 53.592 53.592 0 0 0 40.185-.536 53.797 53.797 0 0 0 28.572-28.338 54.006 54.006 0 0 0 .975-40.286Z" opacity=".1" style="mix-blend-mode:multiply"/>
    <path fill="#29ABE2" d="M59.429 115.607a63.366 63.366 0 0 1-22.788-4.247 53.583 53.583 0 0 0 54.39 4.602 53.74 53.74 0 0 0 21.353-18.607 53.953 53.953 0 0 0 8.963-26.906c-8.671 25.965-33.389 45.158-61.918 45.158Z" opacity=".1" style="mix-blend-mode:multiply"/>
    <path fill="#ACC1CA" d="M48.9 13.944 37.267 26.92l7.058-2.961-3.823 9.201 8-11.867c.04 1.968-.03 3.938-.212 5.898-.223.531 3.624-3.621 3.624-3.621l4.282 25.362 8.577.59-8.13 29.763 15.082 12.729-8.576-8.612 6.365-8.741 4.706 10.38-4.306-12.87-8.094 9.933-3.53-3.857 9.624-31.285-9.918-.743.741-24.478L69.83 38.8l1.26-6.677 19.717 13.496-2.812 16.763 20 .448-17.753-2.36 2.353-14.533 9.318-.153-3.706 8.481h16.27l-12.941-1.686 2.706-9.744 4.706 4.718-5.776-9.048-1.471 5.332-9.318-.731L67.29 27.132l.894 4.719-5.882-12.457 14.341 9.048-3.694-9.933 19.012 6.264-7.212-5.45 10.2-.448-6.212-4.082s-19.141-8.564-39.835-.85Z"/>
    <path fill="#fff" d="M186.065 174.826a3.02 3.02 0 0 1-2.118-.873l-41.376-40.651a3.042 3.042 0 0 1-.047-4.294 3.022 3.022 0 0 1 4.282-.047l41.388 40.651a3.052 3.052 0 0 1 .682 3.324 3.042 3.042 0 0 1-2.811 1.89Z" opacity=".3" style="mix-blend-mode:screen"/>
    <path fill="#ADADAD" d="M58.04 154v15h-1.88v-14.26h.9l-8.98 10.04-.02-.7h12.9v1.56h-14.5v-1.38l9.2-10.26h2.38Zm12.17 15.26c-1.6 0-2.98-.32-4.14-.96a6.648 6.648 0 0 1-2.64-2.72c-.613-1.16-.92-2.52-.92-4.08s.307-2.92.92-4.08a6.522 6.522 0 0 1 2.64-2.7c1.16-.653 2.54-.98 4.14-.98 1.6 0 2.974.327 4.12.98a6.52 6.52 0 0 1 2.64 2.7c.614 1.16.92 2.52.92 4.08 0 1.547-.306 2.907-.92 4.08a6.646 6.646 0 0 1-2.64 2.72c-1.146.64-2.52.96-4.12.96Zm0-1.6c1.814 0 3.227-.54 4.24-1.62 1.014-1.08 1.52-2.593 1.52-4.54s-.506-3.46-1.52-4.54c-1.013-1.093-2.426-1.64-4.24-1.64-1.826 0-3.246.547-4.26 1.64-1.013 1.08-1.52 2.593-1.52 4.54s.507 3.46 1.52 4.54c1.014 1.08 2.434 1.62 4.26 1.62ZM91.01 154v15h-1.88v-14.26h.9l-8.98 10.04-.02-.7h12.9v1.56h-14.5v-1.38l9.2-10.26h2.38Z"/>
  </g>
  <defs>
    <clipPath id="a">
      <path fill="#fff" d="M0 0h195v200H0z" transform="translate(.5)"/>
    </clipPath>
  </defs>
</svg>
