<svg width="150" height="150" viewBox="0 0 150 150" fill="none" xmlns="http://www.w3.org/2000/svg">
<path d="M109.302 33.0514V109.912C109.301 111.985 107.812 113.758 105.771 114.118L48.5876 124.201C47.3304 124.421 46.0409 124.069 45.0691 123.242L41.2239 119.954C40.2748 119.142 39.7285 117.956 39.7285 116.707V40.0797C39.7292 38.0024 41.2237 36.2266 43.2704 35.8713L101.325 25.8117C102.708 25.572 104.121 26.0272 105.104 27.0293L108.078 30.0586C108.862 30.8569 109.301 31.9306 109.302 33.0493V33.0514Z" fill="#F3E493"/>
<path d="M108.955 31.3681L50.1311 41.7374C48.0962 42.1012 46.6134 43.8701 46.6106 45.9373V124.079C46.0475 123.909 45.5258 123.624 45.0789 123.242L41.2337 119.954C40.2845 119.142 39.7383 117.956 39.7383 116.707V40.0797C39.7389 38.0024 41.2334 36.2266 43.2802 35.8713L101.324 25.8117C102.708 25.572 104.12 26.0272 105.103 27.0293L108.077 30.0586C108.448 30.4367 108.746 30.8808 108.955 31.3681Z" fill="#D9C975"/>
<path d="M101.706 58.6074V89.0084C101.703 90.2421 100.807 91.2919 99.5889 91.4886C92.9967 92.5973 88.1687 98.3048 88.1685 104.99V105.111C88.186 106.345 87.3085 107.411 86.0942 107.63L70.0104 110.465C68.784 110.683 67.583 109.968 67.1905 108.786C65.5772 103.908 61.3718 100.34 56.2956 99.5444C55.0795 99.3496 54.1865 98.2979 54.1914 97.0664V66.7316C54.194 65.4906 55.1008 64.4368 56.3277 64.2493C62.9815 63.1972 67.8812 57.4611 67.8805 50.7247V50.7033C67.8679 49.4713 68.7449 48.4094 69.957 48.1889L85.9404 45.3712C87.1564 45.1548 88.3486 45.8566 88.7496 47.0247C90.396 51.8336 94.5679 55.3368 99.5889 56.1272C100.81 56.3172 101.71 57.3712 101.706 58.6074Z" fill="#FCF4F6"/>
<path d="M109.302 64.6167L47.6322 77.7055C46.9546 77.8489 46.2522 77.8256 45.5857 77.6372L39.728 75.9858C39.728 75.9858 35.2291 82.3369 39.728 89.1366L45.5429 90.9268C46.2351 91.1404 46.9706 91.1735 47.6792 91.0229L109.295 77.9234C109.295 77.9234 113.745 72.1961 109.302 64.6167Z" fill="#3D94AF"/>
<path d="M78.1158 72.3008C78.1158 72.3008 66.6954 58.5006 62.9249 70.485C59.1544 82.4693 61.8696 101.153 79.1604 86.4214L78.1158 72.3008Z" fill="#A2E5B1"/>
<path d="M98.0754 69.3528C102.515 86.1437 91.4295 86.8401 84.1342 82.7065L82.2266 70.8503C82.2266 70.8503 93.6363 52.5597 98.0754 69.3528Z" fill="#A2E5B1"/>
<path d="M82.1718 88.5751C86.0288 88.2733 88.8179 83.7129 88.4014 78.3891C87.9848 73.0652 84.5205 68.994 80.6634 69.2958C76.8064 69.5975 74.0173 74.158 74.4338 79.4818C74.8504 84.8056 78.3147 88.8769 82.1718 88.5751Z" fill="#7ECA8F"/>
<path d="M110.057 64.418V33.0514C110.061 31.7355 109.544 30.4715 108.619 29.5352L105.637 26.4974C104.48 25.3233 102.82 24.7916 101.196 25.0747L43.1411 35.1343C40.7342 35.5485 38.9765 37.6375 38.9797 40.0797V75.7551C38.2406 76.9472 34.9208 82.9821 38.9797 89.3481V116.692C38.9786 118.16 39.6212 119.554 40.7378 120.507L44.5831 123.795C45.4889 124.573 46.6429 125 47.8366 125C48.1316 125 48.4262 124.974 48.7167 124.923L105.9 114.84C108.299 114.425 110.052 112.346 110.057 109.912V78.1627C110.833 76.9775 111.391 75.6628 111.704 74.2811C112.225 72.0124 112.36 68.4705 110.057 64.418ZM40.4751 40.0797C40.474 38.3624 41.7128 36.895 43.406 36.6083L101.452 26.5487C102.595 26.3545 103.76 26.7348 104.569 27.5655L107.545 30.5948C108.194 31.248 108.559 32.1307 108.562 33.0514V64.01L102.463 65.3024V58.6053C102.474 57.0014 101.307 55.6318 99.7219 55.3881C94.9677 54.6588 91.0148 51.344 89.4679 46.7897C88.9492 45.2727 87.3981 44.364 85.8213 44.6534L69.8379 47.4711C68.2688 47.7557 67.1319 49.1278 67.1441 50.7225V50.7439C67.1718 57.1197 62.5261 62.5544 56.2235 63.5187C54.626 63.7532 53.443 65.1253 53.4464 66.7401V75.7124L47.4756 76.9792L47.3474 77.0027V45.9373C47.3506 44.2292 48.579 42.7697 50.2613 42.4745L97.5087 34.1431C97.9176 34.085 98.202 33.7064 98.1436 33.2975C98.0853 32.8887 97.707 32.6043 97.2981 32.6626C97.2785 32.6654 97.2588 32.6691 97.2394 32.6733L50.0004 41.0026C47.6035 41.4234 45.8546 43.5039 45.8518 45.9373V76.9343L45.7877 76.9194L40.4749 75.424L40.4751 40.0797ZM73.7088 80.0041C74.0228 82.8731 75.2191 85.5007 76.9665 87.2311C72.1023 90.9546 68.2079 92.0077 65.6679 90.2731C64.7792 89.6664 64.0764 88.7521 63.5317 87.622C63.5101 87.5334 63.4725 87.4494 63.4206 87.3742C62.0064 84.1698 61.859 79.3825 62.643 74.8237V74.7981C62.8792 73.414 63.2076 72.0474 63.6256 70.7072C64.4075 68.2227 65.5718 66.7829 67.0885 66.4347C70.0985 65.734 74.0442 69.1712 76.0052 71.1344C74.2685 73.2813 73.3264 76.5327 73.7088 80.0041ZM77.5241 71.6557L77.5455 71.6386C77.5604 71.6174 77.5739 71.5952 77.5861 71.5723C78.3449 70.773 79.3468 70.247 80.4358 70.077C80.6362 70.049 80.8381 70.0347 81.0404 70.0342C82.1764 70.0582 83.2713 70.4638 84.1486 71.1857C85.9879 72.6191 87.274 75.189 87.588 78.0601C87.8208 80.0001 87.5621 81.9671 86.836 83.781C86.81 83.8272 86.7884 83.8759 86.7719 83.9263C85.8448 86.0433 84.2618 87.5301 82.3414 87.795C81.0703 87.9724 79.7779 87.5814 78.6285 86.6863C76.7892 85.2529 75.5032 82.683 75.1892 79.8119C74.8303 76.5199 75.7959 73.4437 77.5241 71.6557ZM62.4059 88.6624C62.966 89.7963 63.7966 90.7749 64.8241 91.5121C65.8924 92.244 67.1609 92.6274 68.4557 92.6101C71.1538 92.6101 74.3988 91.1361 78.15 88.2116C79.2023 88.9484 80.4523 89.3504 81.7368 89.3652C82.0105 89.3658 82.2839 89.3472 82.555 89.3096C84.8237 88.9935 86.7164 87.3742 87.8956 85.0628C89.0746 85.3937 90.2921 85.5667 91.5166 85.5776C93.8408 85.5776 95.8446 84.8705 97.2844 83.4926C98.0409 82.7541 98.632 81.8637 99.0191 80.88L100.967 80.4656V89.0106C100.967 89.8809 100.332 90.6211 99.472 90.7537C92.5065 91.899 87.4023 97.9309 87.4256 104.99V105.112C87.4412 105.981 86.823 106.734 85.9666 106.887L69.8955 109.732C69.0349 109.882 68.1936 109.381 67.9152 108.553C66.1943 103.419 61.766 99.6653 56.4201 98.8074C55.5673 98.669 54.9411 97.9324 54.9418 97.0685V90.2453L62.4059 88.6624ZM96.2419 82.4117C94.5201 84.0609 91.7174 84.5031 88.4745 83.6699C89.0998 81.8208 89.3079 79.8561 89.0834 77.917C88.7245 74.6528 87.227 71.7027 85.0758 70.0278C84.7805 69.798 84.4693 69.5895 84.1444 69.404C85.864 67.1097 89.7691 62.4869 92.9329 63.0594C94.8149 63.4012 96.3018 65.5844 97.3507 69.5493C98.9785 75.706 98.5961 80.1537 96.2419 82.4074V82.4117ZM97.8356 66.2873C96.6692 63.5101 95.1161 61.9357 93.1978 61.5875C89.2479 60.8719 85.0629 65.5908 82.7302 68.7952C81.9224 68.5579 81.0733 68.4944 80.2393 68.6094C79.0633 68.7875 77.9623 69.2964 77.0648 70.077C74.591 67.5925 70.3805 64.1403 66.7617 64.9841C64.6938 65.4669 63.1642 67.2443 62.2115 70.2692C61.8241 71.5119 61.5088 72.7757 61.2672 74.0547L54.9418 75.3877V66.7401C54.9411 65.869 55.5763 65.1277 56.4372 64.9948C63.4556 63.8878 68.6251 57.8384 68.6245 50.7332V50.7118C68.6138 49.843 69.2295 49.0921 70.0835 48.9323L86.067 46.1146C86.9211 45.9585 87.7604 46.4524 88.0387 47.2746C89.765 52.3548 94.1749 56.0523 99.4784 56.8664C100.328 57.0082 100.952 57.7435 100.952 58.6053V65.6207L97.8356 66.2873ZM40.0607 76.8553L45.3821 78.3507C45.7768 78.4613 46.1836 78.5237 46.5933 78.5365H46.6104C47.0063 78.5481 47.4023 78.5122 47.7896 78.4297L54.3415 77.039H54.3543L61.0066 75.6312C60.417 79.8183 60.6071 84.0651 61.7885 87.2631L54.0488 88.908L47.529 90.2923C46.9415 90.4158 46.3323 90.3887 45.758 90.2133L40.2038 88.5043C36.867 83.2213 39.2019 78.325 40.0607 76.8553ZM108.562 109.912C108.565 111.624 107.335 113.09 105.648 113.383L48.4561 123.466C47.4192 123.651 46.3541 123.36 45.5551 122.674L41.7098 119.386C40.9263 118.717 40.4751 117.738 40.4751 116.707V90.1577L45.3287 91.6531C45.5036 91.7055 45.6811 91.7482 45.8606 91.7813V112.219C45.8606 112.632 46.1953 112.966 46.6083 112.966C47.0212 112.966 47.356 112.632 47.356 112.219V91.8347C47.5226 91.8155 47.6871 91.7898 47.8494 91.7556L53.4464 90.5636V97.0685C53.4332 98.6724 54.5998 100.043 56.1851 100.286C60.9784 101.051 64.9488 104.417 66.4882 109.021C66.9349 110.353 68.1825 111.252 69.5879 111.253C69.7755 111.253 69.9628 111.236 70.1476 111.204L86.2293 108.367C87.8048 108.09 88.9462 106.711 88.9231 105.112V104.985C88.9014 98.6583 93.4764 93.2515 99.7198 92.2256C101.298 91.9688 102.456 90.6051 102.454 89.0063V80.1451L108.562 78.8484V109.912ZM108.869 77.2526L99.5254 79.2393C100.038 76.9172 99.9975 73.6851 98.8055 69.1627C98.663 68.6499 98.5207 68.1622 98.3782 67.6993L101.856 66.9623H101.892L108.942 65.4669C112.228 71.5553 109.559 76.2101 108.861 77.2526H108.869Z" fill="black"/>
</svg>
