<svg width="146" height="40" viewBox="0 0 146 40" fill="none" xmlns="http://www.w3.org/2000/svg">
<path d="M50 6.03105V4H59.8675V6.03105H56.2624V16.3217H53.6051V6.03105H50Z" fill="#262D38"/>
<path d="M61.2808 16.3217V4H65.8337C67.2385 4 68.3358 4.34415 69.1257 5.03245C69.9156 5.71511 70.3105 6.66575 70.3105 7.88438C70.3105 9.11993 69.9099 10.0931 69.1088 10.804C68.3133 11.5092 67.2188 11.8618 65.8252 11.8618H63.9296V16.3217H61.2808ZM63.9296 9.94082H65.6645C66.3922 9.94082 66.9057 9.76028 67.2047 9.3992C67.5037 9.03249 67.656 8.54165 67.6617 7.92669C67.6617 7.32302 67.5093 6.84629 67.2047 6.4965C66.9057 6.14106 66.3922 5.96335 65.6645 5.96335H63.9296V9.94082ZM67.9325 16.3217L65.1228 10.6855L67.8394 10.474L70.8859 16.3217H67.9325Z" fill="#262D38"/>
<path d="M72.0792 11.8026V4H74.728V11.9888C74.728 12.9366 74.9255 13.6023 75.3204 13.986C75.7153 14.3696 76.24 14.5615 76.8945 14.5615C77.5489 14.5615 78.0736 14.3696 78.4685 13.986C78.8634 13.6023 79.0609 12.9366 79.0609 11.9888V4H81.6505V11.8026C81.6505 13.4444 81.1963 14.6489 80.288 15.4162C79.3853 16.1778 78.2513 16.5586 76.886 16.5586C75.5094 16.5586 74.3641 16.1778 73.4501 15.4162C72.5362 14.6489 72.0792 13.4444 72.0792 11.8026Z" fill="#262D38"/>
<path d="M83.9947 16.3217V4H92.2373V6.03105H86.6096V9.00992H91.4757V10.9733H86.6096V14.316H92.3304V16.3217H83.9947Z" fill="#262D38"/>
<path d="M51.0578 36.253V23.9314H55.8223C57.2271 23.9314 58.3076 24.2811 59.0636 24.9807C59.8196 25.6803 60.1976 26.6704 60.1976 27.9511C60.1976 29.2205 59.8196 30.2107 59.0636 30.9215C58.3132 31.6324 57.2271 31.9878 55.8054 31.9878H53.7067V36.253H51.0578ZM53.7067 30.0414H55.5092C56.2765 30.0414 56.8097 29.8552 57.1087 29.4829C57.4077 29.1105 57.5572 28.6028 57.5572 27.9596C57.5572 27.3221 57.4077 26.8228 57.1087 26.4617C56.8097 26.095 56.2765 25.9116 55.5092 25.9116H53.7067V30.0414Z" fill="#262D38"/>
<path d="M61.8224 36.253V23.9314H64.4712V28.8651H69.2103V23.9314H71.8507V36.253H69.2103V30.93H64.4712V36.253H61.8224Z" fill="#262D38"/>
<path d="M72.9255 36.253L77.4953 23.8806H80.3134L84.934 36.253H82.1244L79.0609 27.5957C78.9988 27.3982 78.9453 27.2121 78.9001 27.0372C78.8606 26.8623 78.824 26.6902 78.7901 26.5209H78.7224C78.6942 26.6902 78.6575 26.8651 78.6124 27.0456C78.5729 27.2205 78.5193 27.4039 78.4516 27.5957L75.405 36.253H72.9255ZM75.5235 33.5704L76.099 31.6409H81.5659L82.1498 33.5704H75.5235Z" fill="#262D38"/>
<path d="M85.958 36.253V23.9314H90.5109C91.9158 23.9314 93.0131 24.2755 93.8029 24.9638C94.5928 25.6465 94.9877 26.5971 94.9877 27.8157C94.9877 29.0513 94.5871 30.0245 93.786 30.7354C92.9905 31.4406 91.896 31.7932 90.5025 31.7932H88.6068V36.253H85.958ZM88.6068 29.8722H90.3417C91.0695 29.8722 91.5829 29.6916 91.8819 29.3306C92.1809 28.9638 92.3332 28.473 92.3389 27.858C92.3389 27.2544 92.1866 26.7776 91.8819 26.4279C91.5829 26.0724 91.0695 25.8947 90.3417 25.8947H88.6068V29.8722ZM92.6097 36.253L89.8001 30.6169L92.5166 30.4053L95.5632 36.253H92.6097Z" fill="#262D38"/>
<path d="M96.8918 36.253V23.9314H100.328L103.188 31.7847C103.256 31.9766 103.312 32.1599 103.357 32.3348C103.408 32.5041 103.45 32.6931 103.484 32.9018H103.543C103.577 32.6931 103.62 32.5041 103.67 32.3348C103.721 32.1599 103.78 31.9766 103.848 31.7847L106.717 23.9314H110.195V36.253H107.58V28.4758C107.58 28.284 107.583 28.0753 107.589 27.8496C107.594 27.6183 107.608 27.4095 107.631 27.2233H107.563C107.535 27.4095 107.493 27.6183 107.436 27.8496C107.38 28.0753 107.321 28.284 107.259 28.4758L104.441 36.253H102.24L99.4391 28.4758C99.377 28.284 99.3178 28.0724 99.2614 27.8411C99.205 27.6098 99.1626 27.4039 99.1344 27.2233H99.0667C99.0837 27.4039 99.0949 27.6098 99.1006 27.8411C99.1119 28.0724 99.1175 28.284 99.1175 28.4758V36.253H96.8918Z" fill="#262D38"/>
<path d="M111.278 36.253L115.848 23.8806H118.666L123.287 36.253H120.477L117.414 27.5957C117.352 27.3982 117.298 27.2121 117.253 27.0372C117.214 26.8623 117.177 26.6902 117.143 26.5209H117.075C117.047 26.6902 117.01 26.8651 116.965 27.0456C116.926 27.2205 116.872 27.4039 116.805 27.5957L113.758 36.253H111.278ZM113.876 33.5704L114.452 31.6409H119.919L120.503 33.5704H113.876Z" fill="#262D38"/>
<path d="M123.769 30.473V29.7114C123.769 27.7198 124.271 26.2191 125.276 25.2092C126.28 24.1993 127.589 23.6944 129.202 23.6944C130.743 23.6944 131.958 24.0921 132.85 24.8876C133.741 25.6831 134.187 26.724 134.187 28.0104V28.2896H131.538V27.9427C131.538 27.2262 131.343 26.6733 130.954 26.284C130.571 25.8947 129.981 25.7001 129.185 25.7001C128.379 25.7001 127.73 25.985 127.239 26.5548C126.748 27.119 126.503 28.0527 126.503 29.3559V30.8285C126.503 32.0471 126.743 32.9639 127.222 33.5788C127.707 34.1881 128.373 34.4928 129.219 34.4928C129.975 34.4928 130.542 34.2869 130.92 33.875C131.298 33.4632 131.504 32.9075 131.538 32.2079V31.9032H134.187V32.2248C134.136 33.4716 133.676 34.4956 132.808 35.2968C131.944 36.0923 130.743 36.49 129.202 36.49C127.572 36.49 126.257 35.9794 125.259 34.9583C124.266 33.9371 123.769 32.442 123.769 30.473Z" fill="#262D38"/>
<path d="M138.706 36.253V31.8355L134.483 23.9314H137.411L139.738 28.442C139.817 28.5943 139.888 28.7438 139.95 28.8905C140.012 29.0372 140.069 29.1839 140.119 29.3306H140.17C140.226 29.1839 140.283 29.04 140.339 28.899C140.401 28.7523 140.475 28.5999 140.559 28.442L142.92 23.9314H145.493L141.363 31.7086V36.253H138.706Z" fill="#262D38"/>
<path fill-rule="evenodd" clip-rule="evenodd" d="M31.6609 8.07711C30.4894 23.7276 17.5236 36.0603 1.69709 36.0718C2.83679 37.468 4.48594 38.4741 6.44412 38.7874C11.4249 39.5841 16.5538 40 21.7916 40C26.8085 40 31.7254 39.6185 36.5079 38.8862C41.1581 38.1742 44.0909 33.5531 42.6163 29.0518C40.1485 21.5182 36.4248 14.4625 31.6609 8.07711Z" fill="#4FAFCD"/>
<path d="M15.8605 2.52733C8.91162 10.2521 3.59788 19.1971 0.387478 28.9446C-0.465147 31.5334 0.141314 34.166 1.69709 36.0718C17.5236 36.0603 30.4894 23.7276 31.6609 8.07711C30.2346 6.16537 28.7151 4.31372 27.1081 2.52733C24.0768 -0.842444 18.8918 -0.842441 15.8605 2.52733Z" fill="#67BDD8"/>
<path d="M14.5 23.8236V24.3236H15H19.3574V29V29.5H19.8574H24.1279H24.6279V29V24.3236H29H29.5V23.8236V20.1623V19.6623H29H24.6279V15V14.5H24.1279H19.8574H19.3574V15V19.6623H15H14.5V20.1623V23.8236Z" stroke="white"/>
</svg>
