<svg xmlns="http://www.w3.org/2000/svg" width="40" height="40" fill="none" viewBox="0 0 40 40">
  <g clip-path="url(#a)">
    <path fill="#DAEEC0" d="M17.748 32.75c8.285 0 15-6.716 15-15 0-8.284-6.715-15-15-15-8.284 0-15 6.716-15 15 0 8.284 6.716 15 15 15Z"/>
    <path fill="#739D3E" d="M17.75 26A15 15 0 0 1 3.145 14.375a15 15 0 1 0 29.207 0A15 15 0 0 1 17.75 26Z"/>
    <path stroke="#262D38" stroke-linecap="round" stroke-linejoin="round" d="M11.123 22.715a18.869 18.869 0 0 1-.862-4.965 19.948 19.948 0 0 1 6.204-14.946M4.754 25.25h5.319m-5.319-15H17.75m-15 7.5h15m7.483 0A19.948 19.948 0 0 0 19.03 2.804m11.71 7.446H17.75m15 7.5h-15"/>
    <path stroke="#262D38" stroke-linecap="round" stroke-linejoin="round" d="M10.631 30.957A15 15 0 1 1 32.75 17.75"/>
    <path fill="#739D3E" d="M16.385 34.25a1.5 1.5 0 0 1-1.635-1.5v-9a1.5 1.5 0 0 1 1.5-1.5h12a1.5 1.5 0 0 1 1.5 1.5v10.5"/>
    <path fill="#DAEEC0" d="M28.25 22.25h-12a1.5 1.5 0 0 0-1.5 1.5v3.75a1.5 1.5 0 0 1 1.5-1.5h12a1.5 1.5 0 0 1 1.5 1.5v-3.75a1.5 1.5 0 0 0-1.5-1.5Z"/>
    <path stroke="#262D38" stroke-linecap="round" stroke-linejoin="round" d="M16.385 34.25a1.5 1.5 0 0 1-1.635-1.5v-9a1.5 1.5 0 0 1 1.5-1.5h12a1.5 1.5 0 0 1 1.5 1.5v10.5"/>
    <path fill="#DAEEC0" d="M37.25 29.75v3a1.5 1.5 0 0 1-1.5 1.5h-3.885a2.25 2.25 0 0 0-2.115-1.5V24.5h3v3.75a1.5 1.5 0 0 0 1.5 1.5h3Z"/>
    <path fill="#739D3E" d="M37.25 29v.75h-3a1.5 1.5 0 0 1-1.5-1.5V24.5a4.513 4.513 0 0 1 4.5 4.5ZM32 35a2.272 2.272 0 1 1-.135-.75c.09.24.137.494.135.75Zm-13.5 2.25a2.25 2.25 0 1 0 0-4.5 2.25 2.25 0 0 0 0 4.5Z"/>
    <path stroke="#262D38" stroke-linecap="round" stroke-linejoin="round" d="M27.624 34.25H20.62m-2.87-31.5v15m19.5 12v3a1.5 1.5 0 0 1-1.5 1.5h-3.885a2.25 2.25 0 0 0-2.115-1.5V24.5h3v3.75a1.5 1.5 0 0 0 1.5 1.5h3Z"/>
    <path stroke="#262D38" stroke-linecap="round" stroke-linejoin="round" d="M37.25 29v.75h-3a1.5 1.5 0 0 1-1.5-1.5V24.5a4.513 4.513 0 0 1 4.5 4.5ZM32 35a2.272 2.272 0 1 1-.135-.75c.09.24.137.494.135.75Zm-13.5 2.25a2.25 2.25 0 1 0 0-4.5 2.25 2.25 0 0 0 0 4.5Z"/>
  </g>
  <defs>
    <clipPath id="a">
      <path fill="#fff" d="M0 0h36v36H0z" transform="translate(2 2)"/>
    </clipPath>
  </defs>
</svg>
