<svg xmlns="http://www.w3.org/2000/svg" width="40" height="40" fill="none" viewBox="0 0 40 40">
  <path fill="#fff" d="M20 20a5.833 5.833 0 1 0 0-11.666A5.833 5.833 0 0 0 20 20Z"/>
  <path fill="#DAEEC0" d="M20 15.833a5.823 5.823 0 0 1-5.433-3.75 5.834 5.834 0 1 0 10.866 0A5.824 5.824 0 0 1 20 15.833Z"/>
  <path stroke="#2A2F41" stroke-linecap="round" stroke-linejoin="round" d="M20 20a5.833 5.833 0 1 0 0-11.666A5.833 5.833 0 0 0 20 20Z"/>
  <path fill="#739D3E" d="M12.5 38.333a1.667 1.667 0 0 1-1.667-1.666V25a1.667 1.667 0 0 1 1.667-1.667h15A1.666 1.666 0 0 1 29.167 25v11.667a1.667 1.667 0 0 1-1.667 1.666h-15Z"/>
  <path fill="#DAEEC0" d="M27.5 23.333h-15A1.667 1.667 0 0 0 10.833 25v5a1.667 1.667 0 0 1 1.667-1.667h15A1.666 1.666 0 0 1 29.167 30v-5a1.667 1.667 0 0 0-1.667-1.667Z"/>
  <path stroke="#2A2F41" stroke-linecap="round" stroke-linejoin="round" d="M12.5 38.333a1.667 1.667 0 0 1-1.667-1.666V25a1.667 1.667 0 0 1 1.667-1.667h15A1.666 1.666 0 0 1 29.167 25v11.667a1.667 1.667 0 0 1-1.667 1.666h-15ZM8.333 1.667v6.666a3.333 3.333 0 0 0 2.4 3.2l3.647 1.064m17.287-10.93v6.666a3.333 3.333 0 0 1-2.4 3.2l-3.647 1.064M15.04 17.24l-5.217 1.167a3.332 3.332 0 0 0-2.481 4.166L8.035 25m16.925-7.76 5.217 1.167a3.332 3.332 0 0 1 2.481 4.166L31.965 25"/>
  <path fill="#739D3E" d="M20 15.833a1.667 1.667 0 1 0 0-3.334 1.667 1.667 0 0 0 0 3.334Z"/>
  <path fill="#fff" d="M22.5 23.333v7.5l-2.5-2.5-2.5 2.5v-7.5h5Z"/>
  <path stroke="#2A2F41" stroke-linecap="round" stroke-linejoin="round" d="m.833 1.667 7.5 1.666m0 0 7.5-1.666m8.334 0 7.5 1.666m0 0 7.5-1.666M20 15.833a1.667 1.667 0 1 0 0-3.334 1.667 1.667 0 0 0 0 3.334Zm2.5 7.5v7.5l-2.5-2.5-2.5 2.5v-7.5h5Z"/>
</svg>
