<svg xmlns="http://www.w3.org/2000/svg" width="40" height="40" fill="none" viewBox="0 0 40 40">
  <g clip-path="url(#a)">
    <path fill="#739D3E" d="M3.375 27.125a1.583 1.583 0 0 1-1.583-1.583V3.375a1.583 1.583 0 0 1 1.583-1.583h23.75a1.584 1.584 0 0 1 1.583 1.583v23.75H3.375Z"/>
    <path fill="#DAEEC0" d="M27.125 1.792H3.375a1.583 1.583 0 0 0-1.583 1.583v5.542a1.583 1.583 0 0 1 1.583-1.584h23.75a1.584 1.584 0 0 1 1.583 1.584V3.375a1.583 1.583 0 0 0-1.583-1.583Z"/>
    <path fill="#fff" d="M19.208 1.792v10.755a.79.79 0 0 1-1.35.56L15.25 10.5l-2.608 2.606a.791.791 0 0 1-1.35-.559V1.792"/>
    <path stroke="#2A2F41" stroke-linecap="round" stroke-linejoin="round" d="M16.042 27.125H3.375a1.583 1.583 0 0 1-1.583-1.583V3.375a1.583 1.583 0 0 1 1.583-1.583h23.75a1.584 1.584 0 0 1 1.583 1.583v8.708"/>
    <path fill="#DAEEC0" d="M38.208 36.217c-5.225 2.517-5.598 1.933-11.303 1.933-2.692 0-4.06-1.76-4.855-4.337v-.016l-1.9-6.889v-.013a2.057 2.057 0 0 1 1.962-2.648h5.03a2.059 2.059 0 0 0 1.984-2.575l-.893-3.43a1.757 1.757 0 0 1 3.135-1.456l5.016 7.106a2.06 2.06 0 0 0 1.676.867"/>
    <path stroke="#2A2F41" stroke-linecap="round" stroke-linejoin="round" d="M19.208 1.792v10.755a.79.79 0 0 1-1.35.56L15.25 10.5l-2.608 2.606a.791.791 0 0 1-1.35-.559V1.792m26.916 34.425c-5.225 2.517-5.598 1.933-11.303 1.933-2.692 0-4.06-1.76-4.855-4.337v-.016l-1.9-6.889v-.013a2.057 2.057 0 0 1 1.962-2.648h5.03a2.059 2.059 0 0 0 1.984-2.575l-.893-3.43a1.757 1.757 0 0 1 3.135-1.456l5.016 7.106a2.06 2.06 0 0 0 1.676.867"/>
  </g>
  <defs>
    <clipPath id="a">
      <path fill="#fff" d="M0 0h38v38H0z" transform="translate(1 1)"/>
    </clipPath>
  </defs>
</svg>
