<svg xmlns="http://www.w3.org/2000/svg" width="40" height="40" fill="none" viewBox="0 0 40 40">
  <path fill="#DAEEC0" d="M2.75 15.5a1.5 1.5 0 0 1 1.5-1.5h31.5a1.5 1.5 0 0 1 1.5 1.5v18a1.5 1.5 0 0 1-1.5 1.5H4.25a1.5 1.5 0 0 1-1.5-1.5v-18Z"/>
  <path fill="#DAEEC0" d="M4.25 14a1.5 1.5 0 0 0-1.5 1.5v18a1.5 1.5 0 0 0 1.5 1.5h4.873l21-21H4.25Z"/>
  <path fill="#739D3E" d="M31.25 6.5a1.5 1.5 0 0 0-1.5-1.5h-19.5a1.5 1.5 0 0 0-1.5 1.5v3h22.5v-3Z"/>
  <path stroke="#262D38" stroke-linecap="round" stroke-linejoin="round" d="M8.75 6.5a1.5 1.5 0 0 1 1.5-1.5h19.5a1.5 1.5 0 0 1 1.5 1.5"/>
  <path fill="#739D3E" d="M5.75 14v-3a1.5 1.5 0 0 1 1.5-1.5h25.5a1.5 1.5 0 0 1 1.5 1.5v3H5.75Z"/>
  <path stroke="#262D38" stroke-linecap="round" stroke-linejoin="round" d="M5.75 11a1.5 1.5 0 0 1 1.5-1.5h25.5a1.5 1.5 0 0 1 1.5 1.5m-31.5 4.5a1.5 1.5 0 0 1 1.5-1.5h31.5a1.5 1.5 0 0 1 1.5 1.5v18a1.5 1.5 0 0 1-1.5 1.5H4.25a1.5 1.5 0 0 1-1.5-1.5v-18Z"/>
  <path fill="#739D3E" stroke="#262D38" stroke-linecap="round" stroke-linejoin="round" d="m11 14-8.25 8.25V15.5a1.5 1.5 0 0 1 1.5-1.5H11Zm26.25 1.5v6.75L29 14h6.75a1.5 1.5 0 0 1 1.5 1.5ZM11 35H4.25a1.5 1.5 0 0 1-1.5-1.5v-6.75L11 35Zm26.25-8.25v6.75a1.5 1.5 0 0 1-1.5 1.5H29l8.25-8.25Z"/>
  <path fill="#DAEEC0" d="M20 29.75a5.25 5.25 0 1 0 0-10.499 5.25 5.25 0 0 0 0 10.499Z"/>
  <path fill="#fff" d="M20 19.25a5.25 5.25 0 0 0-3.9 8.767l7.42-7.417A5.226 5.226 0 0 0 20 19.25Z"/>
  <path stroke="#262D38" stroke-linecap="round" stroke-linejoin="round" d="M20 29.75a5.25 5.25 0 1 0 0-10.499 5.25 5.25 0 0 0 0 10.499ZM8.75 24.5h1.5m19.5 0h1.5"/>
</svg>
