<svg xmlns="http://www.w3.org/2000/svg" width="40" height="40" fill="none" viewBox="0 0 40 40">
  <path fill="#739D3E" d="M24.747 15.253a1.459 1.459 0 0 0-1.149-.426l-7.866.413a5.038 5.038 0 0 0-2.844 1.267L2.282 27.117a1.667 1.667 0 0 0 0 2.356l8.251 8.249a1.667 1.667 0 0 0 2.357 0L23.5 27.113a5.07 5.07 0 0 0 1.267-2.843l.415-7.867a1.468 1.468 0 0 0-.435-1.15Zm-5.459 7.819a2.5 2.5 0 1 1 0-5 2.5 2.5 0 0 1 0 5Z"/>
  <path fill="#DAEEC0" d="m6.405 33.595 11.187-11.187a2.501 2.501 0 1 1 3.531-3.531l3.624-3.624a1.459 1.459 0 0 0-1.149-.426l-7.866.413a5.028 5.028 0 0 0-2.844 1.267L2.282 27.117a1.667 1.667 0 0 0 0 2.356l4.123 4.122Z"/>
  <path stroke="#262D38" stroke-linecap="round" stroke-linejoin="round" d="M24.747 15.253a1.459 1.459 0 0 0-1.149-.426l-7.866.413a5.038 5.038 0 0 0-2.844 1.267L2.282 27.117a1.667 1.667 0 0 0 0 2.356l8.251 8.249a1.667 1.667 0 0 0 2.357 0L23.5 27.113a5.07 5.07 0 0 0 1.267-2.843l.415-7.867a1.468 1.468 0 0 0-.435-1.15Zm-5.459 7.819a2.5 2.5 0 1 1 0-5 2.5 2.5 0 0 1 0 5ZM5.82 28.288l5.892 5.892"/>
  <path stroke="#262D38" stroke-linecap="round" stroke-linejoin="round" d="M18.765 15.085a10 10 0 1 1 2.375 3.782"/>
</svg>
