<svg width="40" height="40" viewBox="0 0 40 40" fill="none" xmlns="http://www.w3.org/2000/svg">
<g clip-path="url(#clip0_255_9355)">
<path d="M20 1.25L1.25 20V38.75H38.75V20L20 1.25Z" fill="#739D3E"/>
<path d="M5.625 5H34.375V38.75H5.625V5Z" fill="#DAEEC0"/>
<path d="M5.625 5V28.125H28.75C29.413 28.125 30.0489 27.8616 30.5178 27.3928C30.9866 26.9239 31.25 26.288 31.25 25.625V5H5.625Z" fill="white"/>
<path d="M20 33.75L1.25 20V38.75H38.75V20L20 33.75Z" fill="#739D3E"/>
<path d="M35 33.75V22.75L20 33.75L1.25 20V36.25H32.5C33.163 36.25 33.7989 35.9866 34.2678 35.5178C34.7366 35.0489 35 34.413 35 33.75Z" fill="#DAEEC0"/>
<path d="M36.25 30C36.0842 30 35.9253 29.9342 35.8081 29.8169C35.6908 29.6997 35.625 29.5408 35.625 29.375V25C35.625 24.8342 35.6908 24.6753 35.8081 24.5581C35.9253 24.4408 36.0842 24.375 36.25 24.375C36.4158 24.375 36.5747 24.4408 36.6919 24.5581C36.8092 24.6753 36.875 24.8342 36.875 25V29.375C36.875 29.5408 36.8092 29.6997 36.6919 29.8169C36.5747 29.9342 36.4158 30 36.25 30Z" fill="white"/>
<path d="M36.25 32.5C36.0842 32.5 35.9253 32.4342 35.8081 32.3169C35.6908 32.1997 35.625 32.0408 35.625 31.875V31.25C35.625 31.0842 35.6908 30.9253 35.8081 30.8081C35.9253 30.6908 36.0842 30.625 36.25 30.625C36.4158 30.625 36.5747 30.6908 36.6919 30.8081C36.8092 30.9253 36.875 31.0842 36.875 31.25V31.875C36.875 32.0408 36.8092 32.1997 36.6919 32.3169C36.5747 32.4342 36.4158 32.5 36.25 32.5Z" fill="white"/>
<path d="M39.1938 19.5562L35 15.3687V4.99996C35 4.8342 34.9342 4.67523 34.817 4.55802C34.6997 4.44081 34.5408 4.37496 34.375 4.37496H24.0063L20.4438 0.806212C20.3857 0.747632 20.3165 0.701135 20.2404 0.669405C20.1642 0.637674 20.0825 0.621338 20 0.621338C19.9175 0.621338 19.8358 0.637674 19.7597 0.669405C19.6835 0.701135 19.6144 0.747632 19.5563 0.806212L15.9938 4.37496H5.62501C5.45925 4.37496 5.30028 4.44081 5.18307 4.55802C5.06586 4.67523 5.00001 4.8342 5.00001 4.99996V15.3687L0.80626 19.5562C0.748335 19.6146 0.702506 19.6839 0.671403 19.76C0.640301 19.8362 0.624535 19.9177 0.62501 20V38.75C0.62501 38.9157 0.690858 39.0747 0.808069 39.1919C0.925279 39.3091 1.08425 39.375 1.25001 39.375H38.75C38.9158 39.375 39.0747 39.3091 39.192 39.1919C39.3092 39.0747 39.375 38.9157 39.375 38.75V20C39.3755 19.9177 39.3597 19.8362 39.3286 19.76C39.2975 19.6839 39.2517 19.6146 39.1938 19.5562ZM15.4438 31.1812L1.87501 37.75V21.25L15.4438 31.1812ZM16.5813 32.0187L19.6313 34.2562C19.7383 34.3344 19.8674 34.3766 20 34.3766C20.1326 34.3766 20.2617 34.3344 20.3688 34.2562L23.4188 32.0187L36.025 38.125H3.97501L16.5813 32.0187ZM24.5563 31.1812L38.125 21.25V37.75L24.5563 31.1812ZM37.7938 19.9312L35 21.975V17.1312L37.7938 19.9312ZM20 2.13121L22.2438 4.37496H17.7563L20 2.13121ZM33.75 5.62496V22.8937L20 32.975L6.25001 22.8937V5.62496H33.75ZM5.00001 21.975L2.20626 19.925L5.00001 17.1312V21.975Z" fill="black"/>
<path d="M10 8.125H22.5V9.375H10V8.125Z" fill="black"/>
<path d="M10 11.875H30V13.125H10V11.875Z" fill="black"/>
<path d="M10 15.625H30V16.875H10V15.625Z" fill="black"/>
<path d="M10 19.375H30V20.625H10V19.375Z" fill="black"/>
<path d="M10 23.125H30V24.375H10V23.125Z" fill="black"/>
</g>
<defs>
<clipPath id="clip0_255_9355">
<rect width="40" height="40" fill="white"/>
</clipPath>
</defs>
</svg>
