<?xml version="1.0" encoding="UTF-8"?>
<svg xmlns="http://www.w3.org/2000/svg" xmlns:xlink="http://www.w3.org/1999/xlink" width="192px" height="192px" viewBox="0 0 192 192" version="1.1">
<g id="surface1">
<path style=" stroke:none;fill-rule:nonzero;fill:rgb(45.098039%,61.568627%,24.313725%);fill-opacity:1;" d="M 91.789062 50.128906 C 91.789062 41.75 95.941406 38.398438 95.941406 38.398438 C 95.941406 38.398438 100.097656 41.75 100.097656 50.128906 C 100.097656 58.507812 95.941406 62.277344 95.941406 62.277344 C 95.941406 62.277344 91.789062 58.507812 91.789062 50.128906 Z M 61.296875 66.558594 C 55.421875 60.632812 56.007812 55.300781 56.007812 55.300781 C 56.007812 55.300781 61.296875 54.707031 67.167969 60.636719 C 73.039062 66.558594 72.75 72.1875 72.75 72.1875 C 72.75 72.1875 67.167969 72.480469 61.296875 66.558594 Z M 75.792969 68.609375 C 69.222656 52.996094 74.335938 43.441406 74.335938 43.441406 C 74.335938 43.441406 83.871094 46.371094 90.4375 61.984375 C 97.007812 77.589844 93.054688 87.929688 93.054688 87.929688 C 93.054688 87.929688 82.363281 84.21875 75.792969 68.609375 Z M 61.953125 89.875 C 46.480469 83.25 43.574219 72.796875 43.574219 72.796875 C 43.574219 72.796875 52.453125 68.222656 67.929688 74.851562 C 83.402344 81.476562 87.679688 91.679688 87.679688 91.679688 C 87.679688 91.679688 77.429688 96.503906 61.953125 89.875 Z M 62.648438 100.445312 C 78.121094 93.820312 87.597656 98.972656 87.597656 98.972656 C 87.597656 98.972656 84.691406 108.589844 69.214844 115.214844 C 53.742188 121.84375 43.496094 117.855469 43.496094 117.855469 C 43.496094 117.855469 47.171875 107.070312 62.648438 100.445312 Z M 76.121094 122.605469 C 82.6875 106.996094 93.054688 104.066406 93.054688 104.066406 C 93.054688 104.066406 97.589844 113.019531 91.019531 128.628906 C 84.449219 144.238281 74.332031 148.554688 74.332031 148.554688 C 74.332031 148.554688 69.554688 138.214844 76.121094 122.609375 Z M 61.589844 125.144531 C 67.460938 119.222656 72.75 119.8125 72.75 119.8125 C 72.75 119.8125 73.335938 125.148438 67.460938 131.070312 C 61.589844 136.992188 56.007812 136.699219 56.007812 136.699219 C 56.007812 136.699219 55.714844 131.070312 61.589844 125.144531 Z M 51.203125 99.527344 C 42.898438 99.527344 39.574219 95.335938 39.574219 95.335938 C 39.574219 95.335938 42.898438 91.148438 51.203125 91.148438 C 59.511719 91.148438 63.246094 95.335938 63.246094 95.335938 C 63.246094 95.335938 59.507812 99.527344 51.203125 99.527344 Z M 100.210938 141.453125 C 100.210938 133.074219 96.054688 129.722656 96.054688 129.722656 C 96.054688 129.722656 91.902344 133.074219 91.902344 141.453125 C 91.902344 149.832031 96.054688 153.601562 96.054688 153.601562 C 96.054688 153.601562 100.210938 149.832031 100.210938 141.453125 Z M 130.703125 66.558594 C 136.578125 60.632812 135.992188 55.300781 135.992188 55.300781 C 135.992188 55.300781 130.703125 54.707031 124.832031 60.636719 C 118.960938 66.558594 119.25 72.1875 119.25 72.1875 C 119.25 72.1875 124.832031 72.480469 130.703125 66.558594 Z M 116.207031 68.609375 C 122.777344 52.996094 117.664062 43.441406 117.664062 43.441406 C 117.664062 43.441406 108.128906 46.371094 101.5625 61.984375 C 94.992188 77.589844 98.945312 87.929688 98.945312 87.929688 C 98.945312 87.929688 109.636719 84.21875 116.207031 68.609375 Z M 130.042969 89.875 C 145.519531 83.25 148.425781 72.796875 148.425781 72.796875 C 148.425781 72.796875 139.546875 68.222656 124.070312 74.851562 C 108.597656 81.476562 104.320312 91.679688 104.320312 91.679688 C 104.320312 91.679688 114.566406 96.503906 130.042969 89.875 Z M 129.351562 100.445312 C 113.875 93.820312 104.398438 98.972656 104.398438 98.972656 C 104.398438 98.972656 107.308594 108.589844 122.78125 115.214844 C 138.257812 121.84375 148.507812 117.855469 148.507812 117.855469 C 148.507812 117.855469 144.828125 107.070312 129.351562 100.445312 Z M 115.878906 122.605469 C 109.308594 106.996094 98.945312 104.066406 98.945312 104.066406 C 98.945312 104.066406 94.410156 113.019531 100.976562 128.628906 C 107.546875 144.238281 117.664062 148.554688 117.664062 148.554688 C 117.664062 148.554688 122.445312 138.214844 115.878906 122.605469 Z M 130.410156 125.144531 C 124.539062 119.222656 119.25 119.8125 119.25 119.8125 C 119.25 119.8125 118.664062 125.148438 124.539062 131.070312 C 130.410156 136.992188 135.992188 136.699219 135.992188 136.699219 C 135.992188 136.699219 136.285156 131.070312 130.410156 125.144531 Z M 140.796875 99.527344 C 149.105469 99.527344 152.425781 95.335938 152.425781 95.335938 C 152.425781 95.335938 149.101562 91.148438 140.796875 91.148438 C 132.488281 91.148438 128.753906 95.335938 128.753906 95.335938 C 128.753906 95.335938 132.488281 99.527344 140.796875 99.527344 Z M 140.796875 99.527344 "/>
</g>
</svg>
