<svg style="display: none;" aria-hidden="true" xmlns="http://www.w3.org/2000/svg" xmlns:xlink="http://www.w3.org/1999/xlink"><symbol fill="currentColor" viewBox="0 0 21 20" id="svg-arr-down" xmlns="http://www.w3.org/2000/svg">
  <path d="M16.092 7.842a.834.834 0 0 0-1.184 0l-3.816 3.816a.834.834 0 0 1-1.184 0L6.092 7.842a.833.833 0 1 0-1.184 1.175l3.825 3.825a2.5 2.5 0 0 0 3.534 0l3.825-3.825a.833.833 0 0 0 0-1.175Z"/>
</symbol><symbol fill="currentColor" viewBox="0 0 20 20" id="svg-arr-next" xmlns="http://www.w3.org/2000/svg">
  <g clip-path="url(#ba)">
    <path d="M19.267 8.258 16.04 5a.833.833 0 0 0-1.183 0 .833.833 0 0 0 0 1.183l2.967 2.984H.833a.833.833 0 0 0 0 1.666h17.042l-3.017 3.017a.834.834 0 0 0 0 1.15.834.834 0 0 0 1.183 0l3.226-3.208a2.5 2.5 0 0 0 0-3.534Z"/>
  </g>
  <defs>
    <clipPath id="ba">
      <path d="M0 0h20v20H0z" transform="rotate(-180 10 10)"/>
    </clipPath>
  </defs>
</symbol><symbol fill="currentColor" viewBox="0 0 20 20" id="svg-arr-prev" xmlns="http://www.w3.org/2000/svg">
  <g clip-path="url(#ca)">
    <path d="M.733 11.742 3.958 15a.833.833 0 0 0 1.184 0 .833.833 0 0 0 0-1.183l-2.967-2.984h16.992a.833.833 0 1 0 0-1.666H2.125L5.142 6.15a.833.833 0 0 0 0-1.15.833.833 0 0 0-1.184 0L.733 8.208a2.5 2.5 0 0 0 0 3.534Z"/>
  </g>
  <defs>
    <clipPath id="ca">
      <path d="M0 0h20v20H0z"/>
    </clipPath>
  </defs>
</symbol><symbol fill="currentColor" viewBox="0 0 24 24" id="svg-cart" xmlns="http://www.w3.org/2000/svg">
  <path fill-rule="evenodd" clip-rule="evenodd" d="M13.4697 0.46967C13.7626 0.176777 14.2375 0.176777 14.5304 0.46967L18.3107 4.25001H21C21.4142 4.25001 21.75 4.5858 21.75 5.00001C21.75 5.41422 21.4142 5.75001 21 5.75001H20.4557C20.2293 6.60606 19.9365 7.59301 19.5959 8.74137L18.5708 12.1969C18.1636 13.5702 17.914 14.412 17.4765 15.0966C16.7233 16.2751 15.5663 17.1386 14.2223 17.5256C13.4416 17.7503 12.5635 17.7502 11.1312 17.75H10.8688C9.43649 17.7502 8.55843 17.7503 7.77772 17.5256C6.43365 17.1386 5.2767 16.2751 4.52349 15.0966C4.08598 14.412 3.83637 13.5702 3.42921 12.1969L2.40431 8.74199C2.06357 7.59338 1.77073 6.60621 1.54431 5.75001H1C0.585786 5.75001 0.25 5.41422 0.25 5.00001C0.25 4.5858 0.585786 4.25001 1 4.25001H3.93198L7.71231 0.469685C8.0052 0.176792 8.48008 0.176792 8.77297 0.469685C9.06586 0.762578 9.06586 1.23745 8.77297 1.53035L6.05331 4.25001H16.1894L13.4697 1.53033C13.1768 1.23744 13.1768 0.762563 13.4697 0.46967ZM9.75 9.00002C9.75 8.5858 9.41421 8.25002 9 8.25002C8.58579 8.25002 8.25 8.5858 8.25 9.00002V13C8.25 13.4142 8.58579 13.75 9 13.75C9.41421 13.75 9.75 13.4142 9.75 13V9.00002ZM13.75 9.00002C13.75 8.5858 13.4142 8.25002 13 8.25002C12.5858 8.25002 12.25 8.5858 12.25 9.00002V13C12.25 13.4142 12.5858 13.75 13 13.75C13.4142 13.75 13.75 13.4142 13.75 13V9.00002Z"/>
</symbol><symbol fill="currentColor" viewBox="0 0 16 16" id="svg-close" xmlns="http://www.w3.org/2000/svg">
  <path d="M15.59 2.39A1.4 1.4 0 1 0 13.61.41L8 6.02 2.39.41A1.4 1.4 0 1 0 .41 2.39L6.02 8 .41 13.61a1.4 1.4 0 0 0 1.98 1.98L8 9.98l5.61 5.61a1.4 1.4 0 1 0 1.98-1.98L9.98 8l5.61-5.61Z"/>
</symbol><symbol fill="currentColor" viewBox="0 0 21 21" id="svg-global" xmlns="http://www.w3.org/2000/svg">
  <path fill-rule="evenodd" clip-rule="evenodd" d="M7.45513 1.35549C5.71534 1.86156 4.16862 2.88057 3.01701 4.27943C1.86541 5.67828 1.16246 7.39193 1 9.19654H5.11401C5.35251 6.4505 6.14868 3.78199 7.45385 1.35421L7.45513 1.35549ZM5.11401 10.8036H1C1.16212 12.6082 1.86477 14.3221 3.01615 15.7211C4.16753 17.1202 5.7141 18.1395 7.45385 18.6459C6.14868 16.2181 5.35251 13.5496 5.11401 10.8036ZM9.516 18.9892C7.95627 16.5175 7.00053 13.7133 6.72618 10.8036H13.1993C12.925 13.7133 11.9692 16.5175 10.4095 18.9892C10.1118 19.0036 9.81366 19.0036 9.516 18.9892ZM12.4729 18.6446C14.2125 18.1383 15.7589 17.1192 16.9103 15.7204C18.0617 14.3215 18.7644 12.608 18.9268 10.8036H14.8128C14.5743 13.5496 13.7781 16.2181 12.4729 18.6459V18.6446ZM14.8128 9.19654H18.9268C18.7647 7.39187 18.062 5.67805 16.9106 4.27896C15.7593 2.87988 14.2127 1.86057 12.4729 1.35421C13.7781 3.78198 14.5743 6.4505 14.8128 9.19654ZM9.516 1.01095C9.81408 0.996351 10.1127 0.996351 10.4108 1.01095C11.9701 3.48271 12.9254 6.28692 13.1993 9.19654H6.72747C7.00645 6.26916 7.96424 3.46264 9.516 1.01095Z"/>
</symbol><symbol fill="currentColor" viewBox="0 0 20 21" id="svg-home" xmlns="http://www.w3.org/2000/svg">
  <path fill-rule="evenodd" clip-rule="evenodd" d="M9.54133 0.490966C9.9609 0.172435 10.4732 0 11 0C11.5268 0 12.0391 0.172435 12.4587 0.490966L13.5201 1.29669C16.6383 3.66551 19.3095 6.57088 21.4085 9.87665L21.7495 10.4122C21.9038 10.6553 21.9901 10.9355 21.9992 11.2234C22.0083 11.5112 21.9399 11.7963 21.8012 12.0487C21.6625 12.3011 21.4586 12.5116 21.2107 12.6583C20.9628 12.805 20.6801 12.8824 20.3921 12.8824H19.2808C19.3451 14.362 19.2647 15.8432 19.0396 17.3083C18.9312 18.0135 18.5738 18.6565 18.0321 19.1209C17.4904 19.5853 16.8003 19.8403 16.0869 19.8397H13.0103V14.5389C13.0103 14.0058 12.7985 13.4944 12.4215 13.1174C12.0445 12.7404 11.5332 12.5286 11 12.5286C10.4668 12.5286 9.95551 12.7404 9.5785 13.1174C9.2015 13.4944 8.9897 14.0058 8.9897 14.5389V19.8397H5.91314C5.20003 19.8396 4.5105 19.5843 3.96924 19.12C3.42797 18.6557 3.0707 18.0131 2.96202 17.3083C2.73687 15.8432 2.65646 14.3604 2.72079 12.8824H1.60789C1.31987 12.8824 1.03716 12.805 0.789281 12.6583C0.541405 12.5116 0.337464 12.3011 0.198765 12.0487C0.0600652 11.7963 -0.00830249 11.5112 0.000804304 11.2234C0.0099111 10.9355 0.0961582 10.6553 0.250535 10.4122L0.589873 9.87504C2.68957 6.56972 5.36131 3.66489 8.47989 1.29669L9.54133 0.490966Z" fill="#262D38"/>
</symbol><symbol fill="currentColor" viewBox="0 0 20 21" id="svg-order" xmlns="http://www.w3.org/2000/svg">
  <path d="M15.25 1.5H4.75A3.755 3.755 0 0 0 1 5.25v10.5a3.754 3.754 0 0 0 3.75 3.75h10.5A3.754 3.754 0 0 0 19 15.75V5.25a3.755 3.755 0 0 0-3.75-3.75Zm2.25 3.75h-5.25V3h3a2.25 2.25 0 0 1 2.25 2.25ZM9.25 3h1.5v3.75a.75.75 0 1 1-1.5 0V3Zm-4.5 0h3v2.25H2.5A2.25 2.25 0 0 1 4.75 3Zm10.5 15H4.75a2.25 2.25 0 0 1-2.25-2.25v-9h5.25a2.25 2.25 0 1 0 4.5 0h5.25v9A2.25 2.25 0 0 1 15.25 18Zm.75-2.25a.75.75 0 0 1-.75.75H13a.75.75 0 1 1 0-1.5h2.25a.75.75 0 0 1 .75.75Z"/>
</symbol><symbol fill="currentColor" viewBox="0 0 18 18" id="svg-phone" xmlns="http://www.w3.org/2000/svg">
  <g clip-path="url(#ia)">
    <path d="M9.75.75A.75.75 0 0 1 10.5 0 7.508 7.508 0 0 1 18 7.5a.75.75 0 1 1-1.5 0 6.007 6.007 0 0 0-6-6 .75.75 0 0 1-.75-.75Zm.75 3.75a3 3 0 0 1 3 3 .75.75 0 0 0 1.5 0A4.504 4.504 0 0 0 10.5 3a.75.75 0 1 0 0 1.5Zm6.82 8.055a2.325 2.325 0 0 1 0 3.283l-.683.787c-6.142 5.88-21.09-9.063-15.3-15.225L2.2.65a2.31 2.31 0 0 1 3.245.03c.023.023 1.413 1.828 1.413 1.828a2.325 2.325 0 0 1-.005 3.212l-.869 1.092a9.586 9.586 0 0 0 5.198 5.208l1.1-.873a2.325 2.325 0 0 1 3.21-.005s1.804 1.39 1.828 1.413Zm-1.032 1.09s-1.795-1.38-1.818-1.404a.825.825 0 0 0-1.162 0c-.02.021-1.533 1.226-1.533 1.226a.749.749 0 0 1-.734.114 11.256 11.256 0 0 1-6.616-6.606.75.75 0 0 1 .109-.75s1.205-1.513 1.225-1.533a.825.825 0 0 0 0-1.162c-.023-.022-1.404-1.818-1.404-1.818a.825.825 0 0 0-1.132.029l-.863.75c-4.231 5.088 8.722 17.323 13.18 13.11l.684-.788a.84.84 0 0 0 .064-1.168Z"/>
  </g>
  <defs>
    <clipPath id="ia">
      <path d="M0 0h18v18H0z"/>
    </clipPath>
  </defs>
</symbol><symbol fill="currentColor" viewBox="0 0 21 21" id="svg-profile" xmlns="http://www.w3.org/2000/svg">
  <path fill-rule="evenodd" clip-rule="evenodd" d="M1.0415 10.0003C1.0415 5.05277 5.05229 1.04199 9.99984 1.04199C14.9474 1.04199 18.9582 5.05277 18.9582 10.0003C18.9582 12.5407 17.8999 14.835 16.2019 16.4645C14.5929 18.0087 12.4067 18.9587 9.99984 18.9587C7.59302 18.9587 5.40678 18.0087 3.79776 16.4645C2.09975 14.835 1.0415 12.5407 1.0415 10.0003ZM15.0691 15.8074C14.7099 14.733 13.6947 13.9587 12.4998 13.9587H7.49984C6.30495 13.9587 5.28976 14.733 4.93056 15.8074C6.28611 16.9919 8.05869 17.7087 9.99984 17.7087C11.941 17.7087 13.7136 16.9919 15.0691 15.8074ZM9.99984 3.54199C7.81371 3.54199 6.0415 5.3142 6.0415 7.50033C6.0415 9.68645 7.81371 11.4587 9.99984 11.4587C12.186 11.4587 13.9582 9.68645 13.9582 7.50033C13.9582 5.3142 12.186 3.54199 9.99984 3.54199Z"/>
</symbol><symbol fill="none" viewBox="0 0 20 20" id="svg-search" xmlns="http://www.w3.org/2000/svg">
  <path d="M8.25 15C11.9779 15 15 11.9779 15 8.25C15 4.52208 11.9779 1.5 8.25 1.5C4.52208 1.5 1.5 4.52208 1.5 8.25C1.5 11.9779 4.52208 15 8.25 15Z" stroke="#4494DE" stroke-width="2" stroke-linecap="round" stroke-linejoin="round"/>
  <path d="M16.5 16.5L13.5 13.5" stroke="#4494DE" stroke-width="2" stroke-linecap="round" stroke-linejoin="round"/>
</symbol><symbol fill="currentColor" viewBox="0 0 20 20" id="svg-search-icon-add" xmlns="http://www.w3.org/2000/svg">
  <g clip-path="url(#ka)">
    <path d="M3.75 14.584H1.667A1.667 1.667 0 0 0 0 16.25v2.084A1.667 1.667 0 0 0 1.667 20H3.75a1.667 1.667 0 0 0 1.667-1.666V16.25a1.666 1.666 0 0 0-1.667-1.666Zm0 3.75H1.667V16.25H3.75v2.084Zm14.584-3.75H16.25a1.666 1.666 0 0 0-1.666 1.666v2.084A1.667 1.667 0 0 0 16.25 20h2.084A1.666 1.666 0 0 0 20 18.334V16.25a1.666 1.666 0 0 0-1.666-1.666Zm0 3.75H16.25V16.25h2.084v2.084ZM3.75 7.291H1.667A1.667 1.667 0 0 0 0 8.958v2.083a1.667 1.667 0 0 0 1.667 1.667H3.75a1.667 1.667 0 0 0 1.667-1.667V8.958A1.667 1.667 0 0 0 3.75 7.291Zm0 3.75H1.667V8.958H3.75v2.083Zm14.584-3.75H16.25a1.667 1.667 0 0 0-1.666 1.667v2.083a1.666 1.666 0 0 0 1.666 1.667h2.084A1.666 1.666 0 0 0 20 11.041V8.958a1.667 1.667 0 0 0-1.666-1.667Zm0 3.75H16.25V8.958h2.084v2.083ZM3.75 0H1.667A1.667 1.667 0 0 0 0 1.667V3.75a1.667 1.667 0 0 0 1.667 1.667H3.75A1.667 1.667 0 0 0 5.417 3.75V1.667A1.667 1.667 0 0 0 3.75 0Zm0 3.75H1.667V1.667H3.75V3.75Zm7.292 10.834H8.958a1.667 1.667 0 0 0-1.666 1.666v2.084A1.667 1.667 0 0 0 8.958 20h2.084a1.666 1.666 0 0 0 1.666-1.666V16.25a1.666 1.666 0 0 0-1.666-1.666Zm0 3.75H8.958V16.25h2.084v2.084Zm0-11.043H8.958a1.667 1.667 0 0 0-1.666 1.667v2.083a1.667 1.667 0 0 0 1.666 1.667h2.084a1.666 1.666 0 0 0 1.666-1.667V8.958a1.667 1.667 0 0 0-1.666-1.667Zm0 3.75H8.958V8.958h2.084v2.083Zm0-11.041H8.958a1.667 1.667 0 0 0-1.666 1.667V3.75a1.667 1.667 0 0 0 1.666 1.667h2.084a1.666 1.666 0 0 0 1.666-1.667V1.667A1.667 1.667 0 0 0 11.042 0Zm0 3.75H8.958V1.667h2.084V3.75ZM18.334 0H16.25a1.667 1.667 0 0 0-1.666 1.667V3.75a1.667 1.667 0 0 0 1.666 1.667h2.084A1.666 1.666 0 0 0 20 3.75V1.667A1.667 1.667 0 0 0 18.334 0Zm0 3.75H16.25V1.667h2.084V3.75Z"/>
    <path id="ksearch_dots" fill="var(--search-dott-color)" d="M3.75 3.75H1.667V1.667H3.75V3.75Zm7.292 0H8.958V1.667h2.084V3.75Zm7.292 0H16.25V1.667h2.084V3.75Zm0 7.291H16.25V8.958h2.084v2.083Zm-7.292 0H8.958V8.958h2.084v2.083Zm-7.292 0H1.667V8.958H3.75v2.083Zm0 7.293H1.667V16.25H3.75v2.084Zm7.292 0H8.958V16.25h2.084v2.084Zm7.292 0H16.25V16.25h2.084v2.084Z"/>
  </g>
  <defs>
    <clipPath id="ka">
      <path d="M0 0h20v20H0z"/>
    </clipPath>
  </defs>
</symbol><symbol fill="currentColor" viewBox="0 0 20 20" id="svg-trash" xmlns="http://www.w3.org/2000/svg">
  <path fill-rule="evenodd" clip-rule="evenodd" d="M15.2123 12.2208L15.4309 10.6499C15.4982 10.1666 15.5597 9.72475 15.6143 9.31944C15.7267 8.48652 15.7828 8.07005 15.5338 7.78519C15.2848 7.50033 14.8568 7.50033 14.0007 7.50033H5.99912C5.1431 7.50033 4.71509 7.50033 4.46606 7.78519C4.21704 8.07005 4.2732 8.48651 4.38552 9.31944C4.44019 9.72487 4.50164 10.1664 4.56893 10.6499L4.78754 12.2208C5.02514 13.928 5.14394 14.7817 5.39583 15.4673C5.86687 16.7493 6.68111 17.7042 7.65297 18.1144C8.17267 18.3337 8.78177 18.3337 9.99993 18.3337C11.2181 18.3337 11.8272 18.3337 12.3469 18.1144C13.3187 17.7042 14.133 16.7493 14.604 15.4673C14.8559 14.7817 14.9747 13.928 15.2123 12.2208ZM8.95825 9.16699C8.95825 8.82181 8.67843 8.54199 8.33325 8.54199C7.98807 8.54199 7.70825 8.82181 7.70825 9.16699V15.8337C7.70825 16.1788 7.98807 16.4587 8.33325 16.4587C8.67843 16.4587 8.95825 16.1788 8.95825 15.8337V9.16699ZM12.2916 9.16699C12.2916 8.82181 12.0118 8.54199 11.6666 8.54199C11.3214 8.54199 11.0416 8.82181 11.0416 9.16699V15.8337C11.0416 16.1788 11.3214 16.4587 11.6666 16.4587C12.0118 16.4587 12.2916 16.1788 12.2916 15.8337V9.16699Z"/>
  <path d="M9.99992 1.04199C7.81379 1.04199 6.04159 2.8142 6.04159 5.00033V5.20866H3.33325C2.98807 5.20866 2.70825 5.48848 2.70825 5.83366C2.70825 6.17884 2.98807 6.45866 3.33325 6.45866H16.6666C17.0118 6.45866 17.2916 6.17884 17.2916 5.83366C17.2916 5.48848 17.0118 5.20866 16.6666 5.20866H13.9583V5.00033C13.9583 2.8142 12.186 1.04199 9.99992 1.04199Z"/>
</symbol><symbol fill="currentColor" viewBox="0 0 21 19" id="svg-wallet" xmlns="http://www.w3.org/2000/svg">
  <path d="M15.8286 3.86902C15.3175 3.70793 14.7433 3.62972 14.0798 3.58878C13.3215 3.54199 12.3999 3.54199 11.2692 3.54199H8.71712C7.38096 3.54199 6.33349 3.54198 5.49667 3.62155C4.64371 3.70265 3.94529 3.8708 3.32961 4.24809C2.68486 4.64319 2.14278 5.18527 1.74768 5.83002C1.73368 5.85286 1.71997 5.87582 1.70655 5.89889C1.77096 4.69627 1.9392 3.89976 2.37862 3.26922C2.60858 2.93924 2.88693 2.64906 3.20344 2.40932C4.18347 1.66699 5.58147 1.66699 8.37748 1.66699H12.8514C14.2574 1.66699 14.9604 1.66699 15.3972 2.12237C15.7327 2.47211 15.8105 2.98556 15.8286 3.86902Z"/>
  <path d="M2.2805 6.15658C1.6665 7.15854 1.6665 8.52247 1.6665 11.2503C1.6665 13.9782 1.6665 15.3421 2.2805 16.3441C2.62407 16.9047 3.09545 17.3761 3.65609 17.7197C4.65805 18.3337 6.02198 18.3337 8.74984 18.3337H11.2498C13.9777 18.3337 15.3416 18.3337 16.3436 17.7197C16.9042 17.3761 17.3756 16.9047 17.7192 16.3441C18.1224 15.686 18.2608 14.8719 18.3083 13.6178H13.0302C11.4298 13.6178 10.1325 12.3204 10.1325 10.72C10.1325 9.11967 11.4298 7.82231 13.0302 7.82231H18.2312C18.1477 7.1326 17.9957 6.60787 17.7192 6.15658C17.3756 5.59593 16.9042 5.12456 16.3436 4.78099C16.184 4.68319 16.0152 4.60096 15.8332 4.53183C14.8725 4.16699 13.5432 4.16699 11.2498 4.16699H8.74984C6.02198 4.16699 4.65805 4.16699 3.65609 4.78099C3.09545 5.12456 2.62407 5.59593 2.2805 6.15658Z"/>
  <path fill-rule="evenodd" clip-rule="evenodd" d="M18.3147 9.07231H13.0302C12.1202 9.07231 11.3825 9.81002 11.3825 10.72C11.3825 11.6301 12.1202 12.3678 13.0302 12.3678H18.3312C18.3332 12.0226 18.3332 11.6512 18.3332 11.2503C18.3332 10.4026 18.3332 9.68665 18.3147 9.07231ZM13.0302 10.095C12.685 10.095 12.4052 10.3749 12.4052 10.72C12.4052 11.0652 12.685 11.345 13.0302 11.345H15.3029C15.6481 11.345 15.9279 11.0652 15.9279 10.72C15.9279 10.3749 15.6481 10.095 15.3029 10.095H13.0302Z"/>
</symbol><symbol fill="currentColor" viewBox="0 0 24 24" id="svg-cart-white" xmlns="http://www.w3.org/2000/svg">
  <path fill-rule="evenodd" clip-rule="evenodd" d="M14.4697 3.46967C14.7626 3.17678 15.2375 3.17678 15.5304 3.46967L19.3107 7.25001H22C22.4142 7.25001 22.75 7.5858 22.75 8.00001C22.75 8.41422 22.4142 8.75001 22 8.75001H21.4557C21.2293 9.60606 20.9365 10.593 20.5959 11.7414L19.5708 15.1969C19.1636 16.5702 18.914 17.412 18.4765 18.0966C17.7233 19.2751 16.5663 20.1386 15.2223 20.5256C14.4416 20.7503 13.5635 20.7502 12.1312 20.75H11.8688C10.4365 20.7502 9.55843 20.7503 8.77772 20.5256C7.43365 20.1386 6.2767 19.2751 5.52349 18.0966C5.08598 17.412 4.83637 16.5702 4.42921 15.1969L3.40431 11.742C3.06357 10.5934 2.77073 9.60621 2.54431 8.75001H2C1.58579 8.75001 1.25 8.41422 1.25 8.00001C1.25 7.5858 1.58579 7.25001 2 7.25001H4.93198L8.71231 3.46969C9.0052 3.17679 9.48008 3.17679 9.77297 3.46969C10.0659 3.76258 10.0659 4.23745 9.77297 4.53035L7.05331 7.25001H17.1894L14.4697 4.53033C14.1768 4.23744 14.1768 3.76256 14.4697 3.46967ZM10.75 12C10.75 11.5858 10.4142 11.25 10 11.25C9.58579 11.25 9.25 11.5858 9.25 12V16C9.25 16.4142 9.58579 16.75 10 16.75C10.4142 16.75 10.75 16.4142 10.75 16V12ZM14.75 12C14.75 11.5858 14.4142 11.25 14 11.25C13.5858 11.25 13.25 11.5858 13.25 12V16C13.25 16.4142 13.5858 16.75 14 16.75C14.4142 16.75 14.75 16.4142 14.75 16V12Z" fill="white"/>
</symbol>
  <symbol fill="currentColor" viewBox="0 0 24 24" id="svg-menu-black" xmlns="http://www.w3.org/2000/svg">
    <path d="M5 18.5H19M5 6.5H19M5 12.5H11" stroke="#262D38" stroke-width="2" stroke-linecap="round"/>
  </symbol>
</svg>